G04*
G04 #@! TF.GenerationSoftware,Altium Limited,Altium Designer,21.6.4 (81)*
G04*
G04 Layer_Color=255*
%FSLAX25Y25*%
%MOIN*%
G70*
G04*
G04 #@! TF.SameCoordinates,042D30B8-6E37-4B2D-B353-5EAC6A6B4B5F*
G04*
G04*
G04 #@! TF.FilePolarity,Positive*
G04*
G01*
G75*
G04:AMPARAMS|DCode=18|XSize=55.12mil|YSize=35.43mil|CornerRadius=2.66mil|HoleSize=0mil|Usage=FLASHONLY|Rotation=180.000|XOffset=0mil|YOffset=0mil|HoleType=Round|Shape=RoundedRectangle|*
%AMROUNDEDRECTD18*
21,1,0.05512,0.03012,0,0,180.0*
21,1,0.04980,0.03543,0,0,180.0*
1,1,0.00532,-0.02490,0.01506*
1,1,0.00532,0.02490,0.01506*
1,1,0.00532,0.02490,-0.01506*
1,1,0.00532,-0.02490,-0.01506*
%
%ADD18ROUNDEDRECTD18*%
G04:AMPARAMS|DCode=19|XSize=43.31mil|YSize=39.37mil|CornerRadius=2.95mil|HoleSize=0mil|Usage=FLASHONLY|Rotation=180.000|XOffset=0mil|YOffset=0mil|HoleType=Round|Shape=RoundedRectangle|*
%AMROUNDEDRECTD19*
21,1,0.04331,0.03347,0,0,180.0*
21,1,0.03740,0.03937,0,0,180.0*
1,1,0.00591,-0.01870,0.01673*
1,1,0.00591,0.01870,0.01673*
1,1,0.00591,0.01870,-0.01673*
1,1,0.00591,-0.01870,-0.01673*
%
%ADD19ROUNDEDRECTD19*%
G04:AMPARAMS|DCode=20|XSize=43.31mil|YSize=39.37mil|CornerRadius=2.95mil|HoleSize=0mil|Usage=FLASHONLY|Rotation=270.000|XOffset=0mil|YOffset=0mil|HoleType=Round|Shape=RoundedRectangle|*
%AMROUNDEDRECTD20*
21,1,0.04331,0.03347,0,0,270.0*
21,1,0.03740,0.03937,0,0,270.0*
1,1,0.00591,-0.01673,-0.01870*
1,1,0.00591,-0.01673,0.01870*
1,1,0.00591,0.01673,0.01870*
1,1,0.00591,0.01673,-0.01870*
%
%ADD20ROUNDEDRECTD20*%
G04:AMPARAMS|DCode=21|XSize=51.18mil|YSize=51.18mil|CornerRadius=5.12mil|HoleSize=0mil|Usage=FLASHONLY|Rotation=0.000|XOffset=0mil|YOffset=0mil|HoleType=Round|Shape=RoundedRectangle|*
%AMROUNDEDRECTD21*
21,1,0.05118,0.04095,0,0,0.0*
21,1,0.04095,0.05118,0,0,0.0*
1,1,0.01024,0.02047,-0.02047*
1,1,0.01024,-0.02047,-0.02047*
1,1,0.01024,-0.02047,0.02047*
1,1,0.01024,0.02047,0.02047*
%
%ADD21ROUNDEDRECTD21*%
%ADD22C,0.03937*%
%ADD23R,0.04724X0.02362*%
%ADD24R,0.03543X0.03150*%
G04:AMPARAMS|DCode=25|XSize=49.21mil|YSize=62.99mil|CornerRadius=4.92mil|HoleSize=0mil|Usage=FLASHONLY|Rotation=225.000|XOffset=0mil|YOffset=0mil|HoleType=Round|Shape=RoundedRectangle|*
%AMROUNDEDRECTD25*
21,1,0.04921,0.05315,0,0,225.0*
21,1,0.03937,0.06299,0,0,225.0*
1,1,0.00984,-0.03271,0.00487*
1,1,0.00984,-0.00487,0.03271*
1,1,0.00984,0.03271,-0.00487*
1,1,0.00984,0.00487,-0.03271*
%
%ADD25ROUNDEDRECTD25*%
G04:AMPARAMS|DCode=26|XSize=55.12mil|YSize=35.43mil|CornerRadius=2.66mil|HoleSize=0mil|Usage=FLASHONLY|Rotation=90.000|XOffset=0mil|YOffset=0mil|HoleType=Round|Shape=RoundedRectangle|*
%AMROUNDEDRECTD26*
21,1,0.05512,0.03012,0,0,90.0*
21,1,0.04980,0.03543,0,0,90.0*
1,1,0.00532,0.01506,0.02490*
1,1,0.00532,0.01506,-0.02490*
1,1,0.00532,-0.01506,-0.02490*
1,1,0.00532,-0.01506,0.02490*
%
%ADD26ROUNDEDRECTD26*%
%ADD27R,0.11417X0.04331*%
%ADD28R,0.21654X0.21260*%
G04:AMPARAMS|DCode=29|XSize=49.21mil|YSize=62.99mil|CornerRadius=4.92mil|HoleSize=0mil|Usage=FLASHONLY|Rotation=44.000|XOffset=0mil|YOffset=0mil|HoleType=Round|Shape=RoundedRectangle|*
%AMROUNDEDRECTD29*
21,1,0.04921,0.05315,0,0,44.0*
21,1,0.03937,0.06299,0,0,44.0*
1,1,0.00984,0.03262,-0.00544*
1,1,0.00984,0.00430,-0.03279*
1,1,0.00984,-0.03262,0.00544*
1,1,0.00984,-0.00430,0.03279*
%
%ADD29ROUNDEDRECTD29*%
G04:AMPARAMS|DCode=30|XSize=49.21mil|YSize=62.99mil|CornerRadius=4.92mil|HoleSize=0mil|Usage=FLASHONLY|Rotation=135.000|XOffset=0mil|YOffset=0mil|HoleType=Round|Shape=RoundedRectangle|*
%AMROUNDEDRECTD30*
21,1,0.04921,0.05315,0,0,135.0*
21,1,0.03937,0.06299,0,0,135.0*
1,1,0.00984,0.00487,0.03271*
1,1,0.00984,0.03271,0.00487*
1,1,0.00984,-0.00487,-0.03271*
1,1,0.00984,-0.03271,-0.00487*
%
%ADD30ROUNDEDRECTD30*%
G04:AMPARAMS|DCode=31|XSize=55.12mil|YSize=35.43mil|CornerRadius=2.66mil|HoleSize=0mil|Usage=FLASHONLY|Rotation=135.000|XOffset=0mil|YOffset=0mil|HoleType=Round|Shape=RoundedRectangle|*
%AMROUNDEDRECTD31*
21,1,0.05512,0.03012,0,0,135.0*
21,1,0.04980,0.03543,0,0,135.0*
1,1,0.00532,-0.00696,0.02826*
1,1,0.00532,0.02826,-0.00696*
1,1,0.00532,0.00696,-0.02826*
1,1,0.00532,-0.02826,0.00696*
%
%ADD31ROUNDEDRECTD31*%
G04:AMPARAMS|DCode=32|XSize=25.59mil|YSize=23.62mil|CornerRadius=1.77mil|HoleSize=0mil|Usage=FLASHONLY|Rotation=315.000|XOffset=0mil|YOffset=0mil|HoleType=Round|Shape=RoundedRectangle|*
%AMROUNDEDRECTD32*
21,1,0.02559,0.02008,0,0,315.0*
21,1,0.02205,0.02362,0,0,315.0*
1,1,0.00354,0.00070,-0.01489*
1,1,0.00354,-0.01489,0.00070*
1,1,0.00354,-0.00070,0.01489*
1,1,0.00354,0.01489,-0.00070*
%
%ADD32ROUNDEDRECTD32*%
G04:AMPARAMS|DCode=33|XSize=13.78mil|YSize=27.56mil|CornerRadius=1.03mil|HoleSize=0mil|Usage=FLASHONLY|Rotation=315.000|XOffset=0mil|YOffset=0mil|HoleType=Round|Shape=RoundedRectangle|*
%AMROUNDEDRECTD33*
21,1,0.01378,0.02549,0,0,315.0*
21,1,0.01171,0.02756,0,0,315.0*
1,1,0.00207,-0.00487,-0.01315*
1,1,0.00207,-0.01315,-0.00487*
1,1,0.00207,0.00487,0.01315*
1,1,0.00207,0.01315,0.00487*
%
%ADD33ROUNDEDRECTD33*%
G04:AMPARAMS|DCode=34|XSize=51.18mil|YSize=43.31mil|CornerRadius=0mil|HoleSize=0mil|Usage=FLASHONLY|Rotation=45.000|XOffset=0mil|YOffset=0mil|HoleType=Round|Shape=Rectangle|*
%AMROTATEDRECTD34*
4,1,4,-0.00278,-0.03341,-0.03341,-0.00278,0.00278,0.03341,0.03341,0.00278,-0.00278,-0.03341,0.0*
%
%ADD34ROTATEDRECTD34*%

G04:AMPARAMS|DCode=35|XSize=49.21mil|YSize=62.99mil|CornerRadius=4.92mil|HoleSize=0mil|Usage=FLASHONLY|Rotation=0.000|XOffset=0mil|YOffset=0mil|HoleType=Round|Shape=RoundedRectangle|*
%AMROUNDEDRECTD35*
21,1,0.04921,0.05315,0,0,0.0*
21,1,0.03937,0.06299,0,0,0.0*
1,1,0.00984,0.01968,-0.02657*
1,1,0.00984,-0.01968,-0.02657*
1,1,0.00984,-0.01968,0.02657*
1,1,0.00984,0.01968,0.02657*
%
%ADD35ROUNDEDRECTD35*%
G04:AMPARAMS|DCode=36|XSize=39.37mil|YSize=66.93mil|CornerRadius=3.94mil|HoleSize=0mil|Usage=FLASHONLY|Rotation=135.000|XOffset=0mil|YOffset=0mil|HoleType=Round|Shape=RoundedRectangle|*
%AMROUNDEDRECTD36*
21,1,0.03937,0.05906,0,0,135.0*
21,1,0.03150,0.06693,0,0,135.0*
1,1,0.00787,0.00974,0.03202*
1,1,0.00787,0.03202,0.00974*
1,1,0.00787,-0.00974,-0.03202*
1,1,0.00787,-0.03202,-0.00974*
%
%ADD36ROUNDEDRECTD36*%
G04:AMPARAMS|DCode=37|XSize=49.21mil|YSize=62.99mil|CornerRadius=4.92mil|HoleSize=0mil|Usage=FLASHONLY|Rotation=270.000|XOffset=0mil|YOffset=0mil|HoleType=Round|Shape=RoundedRectangle|*
%AMROUNDEDRECTD37*
21,1,0.04921,0.05315,0,0,270.0*
21,1,0.03937,0.06299,0,0,270.0*
1,1,0.00984,-0.02657,-0.01968*
1,1,0.00984,-0.02657,0.01968*
1,1,0.00984,0.02657,0.01968*
1,1,0.00984,0.02657,-0.01968*
%
%ADD37ROUNDEDRECTD37*%
G04:AMPARAMS|DCode=38|XSize=55.12mil|YSize=35.43mil|CornerRadius=2.66mil|HoleSize=0mil|Usage=FLASHONLY|Rotation=225.000|XOffset=0mil|YOffset=0mil|HoleType=Round|Shape=RoundedRectangle|*
%AMROUNDEDRECTD38*
21,1,0.05512,0.03012,0,0,225.0*
21,1,0.04980,0.03543,0,0,225.0*
1,1,0.00532,-0.02826,-0.00696*
1,1,0.00532,0.00696,0.02826*
1,1,0.00532,0.02826,0.00696*
1,1,0.00532,-0.00696,-0.02826*
%
%ADD38ROUNDEDRECTD38*%
G04:AMPARAMS|DCode=39|XSize=11.81mil|YSize=70.87mil|CornerRadius=0mil|HoleSize=0mil|Usage=FLASHONLY|Rotation=45.000|XOffset=0mil|YOffset=0mil|HoleType=Round|Shape=Round|*
%AMOVALD39*
21,1,0.05906,0.01181,0.00000,0.00000,135.0*
1,1,0.01181,0.02088,-0.02088*
1,1,0.01181,-0.02088,0.02088*
%
%ADD39OVALD39*%

G04:AMPARAMS|DCode=40|XSize=11.81mil|YSize=70.87mil|CornerRadius=0mil|HoleSize=0mil|Usage=FLASHONLY|Rotation=135.000|XOffset=0mil|YOffset=0mil|HoleType=Round|Shape=Round|*
%AMOVALD40*
21,1,0.05906,0.01181,0.00000,0.00000,225.0*
1,1,0.01181,0.02088,0.02088*
1,1,0.01181,-0.02088,-0.02088*
%
%ADD40OVALD40*%

G04:AMPARAMS|DCode=41|XSize=24.8mil|YSize=51.18mil|CornerRadius=1.86mil|HoleSize=0mil|Usage=FLASHONLY|Rotation=90.000|XOffset=0mil|YOffset=0mil|HoleType=Round|Shape=RoundedRectangle|*
%AMROUNDEDRECTD41*
21,1,0.02480,0.04746,0,0,90.0*
21,1,0.02108,0.05118,0,0,90.0*
1,1,0.00372,0.02373,0.01054*
1,1,0.00372,0.02373,-0.01054*
1,1,0.00372,-0.02373,-0.01054*
1,1,0.00372,-0.02373,0.01054*
%
%ADD41ROUNDEDRECTD41*%
%ADD42R,0.07087X0.05118*%
G04:AMPARAMS|DCode=43|XSize=90.55mil|YSize=98.43mil|CornerRadius=6.79mil|HoleSize=0mil|Usage=FLASHONLY|Rotation=90.000|XOffset=0mil|YOffset=0mil|HoleType=Round|Shape=RoundedRectangle|*
%AMROUNDEDRECTD43*
21,1,0.09055,0.08484,0,0,90.0*
21,1,0.07697,0.09843,0,0,90.0*
1,1,0.01358,0.04242,0.03848*
1,1,0.01358,0.04242,-0.03848*
1,1,0.01358,-0.04242,-0.03848*
1,1,0.01358,-0.04242,0.03848*
%
%ADD43ROUNDEDRECTD43*%
%ADD44R,0.03543X0.02362*%
%ADD45R,0.21260X0.21654*%
%ADD46R,0.04331X0.11417*%
%ADD47R,0.02362X0.03543*%
G04:AMPARAMS|DCode=48|XSize=157.48mil|YSize=167.32mil|CornerRadius=11.81mil|HoleSize=0mil|Usage=FLASHONLY|Rotation=90.000|XOffset=0mil|YOffset=0mil|HoleType=Round|Shape=RoundedRectangle|*
%AMROUNDEDRECTD48*
21,1,0.15748,0.14370,0,0,90.0*
21,1,0.13386,0.16732,0,0,90.0*
1,1,0.02362,0.07185,0.06693*
1,1,0.02362,0.07185,-0.06693*
1,1,0.02362,-0.07185,-0.06693*
1,1,0.02362,-0.07185,0.06693*
%
%ADD48ROUNDEDRECTD48*%
%ADD49R,0.03150X0.03543*%
%ADD50R,0.05118X0.07087*%
%ADD51R,0.02362X0.04724*%
G04:AMPARAMS|DCode=52|XSize=70.87mil|YSize=157.48mil|CornerRadius=7.09mil|HoleSize=0mil|Usage=FLASHONLY|Rotation=0.000|XOffset=0mil|YOffset=0mil|HoleType=Round|Shape=RoundedRectangle|*
%AMROUNDEDRECTD52*
21,1,0.07087,0.14331,0,0,0.0*
21,1,0.05669,0.15748,0,0,0.0*
1,1,0.01417,0.02835,-0.07165*
1,1,0.01417,-0.02835,-0.07165*
1,1,0.01417,-0.02835,0.07165*
1,1,0.01417,0.02835,0.07165*
%
%ADD52ROUNDEDRECTD52*%
%ADD53R,0.38976X0.34646*%
G04:AMPARAMS|DCode=54|XSize=106.3mil|YSize=41.73mil|CornerRadius=5.22mil|HoleSize=0mil|Usage=FLASHONLY|Rotation=90.000|XOffset=0mil|YOffset=0mil|HoleType=Round|Shape=RoundedRectangle|*
%AMROUNDEDRECTD54*
21,1,0.10630,0.03130,0,0,90.0*
21,1,0.09587,0.04173,0,0,90.0*
1,1,0.01043,0.01565,0.04793*
1,1,0.01043,0.01565,-0.04793*
1,1,0.01043,-0.01565,-0.04793*
1,1,0.01043,-0.01565,0.04793*
%
%ADD54ROUNDEDRECTD54*%
G04:AMPARAMS|DCode=55|XSize=78.74mil|YSize=51.18mil|CornerRadius=5.12mil|HoleSize=0mil|Usage=FLASHONLY|Rotation=180.000|XOffset=0mil|YOffset=0mil|HoleType=Round|Shape=RoundedRectangle|*
%AMROUNDEDRECTD55*
21,1,0.07874,0.04095,0,0,180.0*
21,1,0.06850,0.05118,0,0,180.0*
1,1,0.01024,-0.03425,0.02047*
1,1,0.01024,0.03425,0.02047*
1,1,0.01024,0.03425,-0.02047*
1,1,0.01024,-0.03425,-0.02047*
%
%ADD55ROUNDEDRECTD55*%
G04:AMPARAMS|DCode=56|XSize=86.61mil|YSize=23.62mil|CornerRadius=1.77mil|HoleSize=0mil|Usage=FLASHONLY|Rotation=90.000|XOffset=0mil|YOffset=0mil|HoleType=Round|Shape=RoundedRectangle|*
%AMROUNDEDRECTD56*
21,1,0.08661,0.02008,0,0,90.0*
21,1,0.08307,0.02362,0,0,90.0*
1,1,0.00354,0.01004,0.04153*
1,1,0.00354,0.01004,-0.04153*
1,1,0.00354,-0.01004,-0.04153*
1,1,0.00354,-0.01004,0.04153*
%
%ADD56ROUNDEDRECTD56*%
G04:AMPARAMS|DCode=57|XSize=49.21mil|YSize=15.75mil|CornerRadius=1.18mil|HoleSize=0mil|Usage=FLASHONLY|Rotation=180.000|XOffset=0mil|YOffset=0mil|HoleType=Round|Shape=RoundedRectangle|*
%AMROUNDEDRECTD57*
21,1,0.04921,0.01339,0,0,180.0*
21,1,0.04685,0.01575,0,0,180.0*
1,1,0.00236,-0.02343,0.00669*
1,1,0.00236,0.02343,0.00669*
1,1,0.00236,0.02343,-0.00669*
1,1,0.00236,-0.02343,-0.00669*
%
%ADD57ROUNDEDRECTD57*%
G04:AMPARAMS|DCode=58|XSize=78.74mil|YSize=88.58mil|CornerRadius=5.91mil|HoleSize=0mil|Usage=FLASHONLY|Rotation=180.000|XOffset=0mil|YOffset=0mil|HoleType=Round|Shape=RoundedRectangle|*
%AMROUNDEDRECTD58*
21,1,0.07874,0.07677,0,0,180.0*
21,1,0.06693,0.08858,0,0,180.0*
1,1,0.01181,-0.03347,0.03839*
1,1,0.01181,0.03347,0.03839*
1,1,0.01181,0.03347,-0.03839*
1,1,0.01181,-0.03347,-0.03839*
%
%ADD58ROUNDEDRECTD58*%
%ADD59R,0.34646X0.38976*%
G04:AMPARAMS|DCode=60|XSize=106.3mil|YSize=41.73mil|CornerRadius=5.22mil|HoleSize=0mil|Usage=FLASHONLY|Rotation=180.000|XOffset=0mil|YOffset=0mil|HoleType=Round|Shape=RoundedRectangle|*
%AMROUNDEDRECTD60*
21,1,0.10630,0.03130,0,0,180.0*
21,1,0.09587,0.04173,0,0,180.0*
1,1,0.01043,-0.04793,0.01565*
1,1,0.01043,0.04793,0.01565*
1,1,0.01043,0.04793,-0.01565*
1,1,0.01043,-0.04793,-0.01565*
%
%ADD60ROUNDEDRECTD60*%
G04:AMPARAMS|DCode=61|XSize=39.37mil|YSize=122.05mil|CornerRadius=2.95mil|HoleSize=0mil|Usage=FLASHONLY|Rotation=0.000|XOffset=0mil|YOffset=0mil|HoleType=Round|Shape=RoundedRectangle|*
%AMROUNDEDRECTD61*
21,1,0.03937,0.11614,0,0,0.0*
21,1,0.03347,0.12205,0,0,0.0*
1,1,0.00591,0.01673,-0.05807*
1,1,0.00591,-0.01673,-0.05807*
1,1,0.00591,-0.01673,0.05807*
1,1,0.00591,0.01673,0.05807*
%
%ADD61ROUNDEDRECTD61*%
G04:AMPARAMS|DCode=62|XSize=74.8mil|YSize=157.48mil|CornerRadius=5.61mil|HoleSize=0mil|Usage=FLASHONLY|Rotation=0.000|XOffset=0mil|YOffset=0mil|HoleType=Round|Shape=RoundedRectangle|*
%AMROUNDEDRECTD62*
21,1,0.07480,0.14626,0,0,0.0*
21,1,0.06358,0.15748,0,0,0.0*
1,1,0.01122,0.03179,-0.07313*
1,1,0.01122,-0.03179,-0.07313*
1,1,0.01122,-0.03179,0.07313*
1,1,0.01122,0.03179,0.07313*
%
%ADD62ROUNDEDRECTD62*%
G04:AMPARAMS|DCode=63|XSize=35.43mil|YSize=118.11mil|CornerRadius=2.66mil|HoleSize=0mil|Usage=FLASHONLY|Rotation=0.000|XOffset=0mil|YOffset=0mil|HoleType=Round|Shape=RoundedRectangle|*
%AMROUNDEDRECTD63*
21,1,0.03543,0.11280,0,0,0.0*
21,1,0.03012,0.11811,0,0,0.0*
1,1,0.00532,0.01506,-0.05640*
1,1,0.00532,-0.01506,-0.05640*
1,1,0.00532,-0.01506,0.05640*
1,1,0.00532,0.01506,0.05640*
%
%ADD63ROUNDEDRECTD63*%
%ADD64R,0.02900X0.11000*%
%ADD121C,0.09055*%
%ADD122C,0.07874*%
%ADD123C,0.11811*%
%ADD124C,0.10000*%
%ADD125C,0.15630*%
%ADD126C,0.05906*%
%ADD127R,0.05906X0.05906*%
D18*
X315100Y287748D02*
D03*
Y281252D02*
D03*
X207360Y233367D02*
D03*
Y239863D02*
D03*
X66260Y53563D02*
D03*
Y47067D02*
D03*
Y33976D02*
D03*
Y40472D02*
D03*
X143260Y79531D02*
D03*
Y73035D02*
D03*
X154551Y50315D02*
D03*
Y56811D02*
D03*
X157535Y38012D02*
D03*
Y44508D02*
D03*
X307760Y75063D02*
D03*
Y68567D02*
D03*
X275300Y66748D02*
D03*
Y60252D02*
D03*
X245260Y200493D02*
D03*
Y193996D02*
D03*
X271760Y199063D02*
D03*
Y192567D02*
D03*
X245757Y355831D02*
D03*
Y349335D02*
D03*
X179253Y356159D02*
D03*
Y349663D02*
D03*
X4760Y340563D02*
D03*
Y334067D02*
D03*
X3760Y209563D02*
D03*
Y203067D02*
D03*
X4267Y154105D02*
D03*
Y147609D02*
D03*
X61873Y80908D02*
D03*
Y74412D02*
D03*
X135560Y286441D02*
D03*
Y279945D02*
D03*
X3238Y274507D02*
D03*
Y268011D02*
D03*
D19*
X34800Y264099D02*
D03*
Y257800D02*
D03*
D20*
X36501Y197400D02*
D03*
X42800D02*
D03*
D21*
X306966Y274200D02*
D03*
X315234D02*
D03*
X53534Y205800D02*
D03*
X45266D02*
D03*
X43034Y250800D02*
D03*
X34766D02*
D03*
X206594Y145015D02*
D03*
X198326D02*
D03*
X91094Y248115D02*
D03*
X82826D02*
D03*
D22*
X42200Y162700D02*
D03*
X142060Y157015D02*
D03*
X306045Y327815D02*
D03*
X81341Y300815D02*
D03*
X-19100Y226000D02*
D03*
X141712Y184115D02*
D03*
X127404Y195367D02*
D03*
X271760Y282215D02*
D03*
X199060Y234215D02*
D03*
X47300Y221200D02*
D03*
X69060Y218915D02*
D03*
X2026Y351383D02*
D03*
X129060Y289217D02*
D03*
X-1240Y65512D02*
D03*
X19660Y246215D02*
D03*
X3238Y286605D02*
D03*
X52625Y90238D02*
D03*
X131059Y89696D02*
D03*
X208353Y165151D02*
D03*
X237360Y192725D02*
D03*
X163500Y177400D02*
D03*
X292197Y54122D02*
D03*
X281160Y124115D02*
D03*
D23*
X51944Y71575D02*
D03*
Y75315D02*
D03*
Y79055D02*
D03*
X41708D02*
D03*
Y75315D02*
D03*
Y71575D02*
D03*
X130378Y71295D02*
D03*
Y75036D02*
D03*
Y78776D02*
D03*
X120142D02*
D03*
Y75036D02*
D03*
Y71295D02*
D03*
X286142Y66575D02*
D03*
Y70315D02*
D03*
Y74055D02*
D03*
X296378D02*
D03*
Y70315D02*
D03*
Y66575D02*
D03*
X306045Y320697D02*
D03*
Y316957D02*
D03*
Y313217D02*
D03*
X316281D02*
D03*
Y316957D02*
D03*
Y320697D02*
D03*
D24*
X48991Y86575D02*
D03*
Y94055D02*
D03*
X41117Y90315D02*
D03*
X15165Y242275D02*
D03*
Y249755D02*
D03*
X7291Y246015D02*
D03*
X212419Y168492D02*
D03*
Y161011D02*
D03*
X220293Y164751D02*
D03*
X-12874Y65512D02*
D03*
X-5000Y69252D02*
D03*
Y61772D02*
D03*
X127060Y86491D02*
D03*
Y93971D02*
D03*
X119186Y90231D02*
D03*
X292197Y81575D02*
D03*
Y89055D02*
D03*
X284323Y85315D02*
D03*
X276185Y285711D02*
D03*
Y278231D02*
D03*
X284059Y281971D02*
D03*
D25*
X184768Y162923D02*
D03*
X189752Y167906D02*
D03*
X188368Y237223D02*
D03*
X193351Y242206D02*
D03*
D26*
X8578Y234552D02*
D03*
X15074D02*
D03*
X14989Y256575D02*
D03*
X8493D02*
D03*
X32043Y71575D02*
D03*
X25546D02*
D03*
X162208Y184115D02*
D03*
X155712D02*
D03*
X141812Y177715D02*
D03*
X148308D02*
D03*
X141712Y169715D02*
D03*
X148208D02*
D03*
X219073Y175962D02*
D03*
X212577D02*
D03*
X212212Y145015D02*
D03*
X218708D02*
D03*
X90908Y255315D02*
D03*
X84412D02*
D03*
X-11441Y76079D02*
D03*
X-4944D02*
D03*
X-11401Y54267D02*
D03*
X-4905D02*
D03*
X105043Y71232D02*
D03*
X111539D02*
D03*
X323512Y70815D02*
D03*
X330008D02*
D03*
X315843Y63984D02*
D03*
X322339D02*
D03*
X259994Y77215D02*
D03*
X253498D02*
D03*
X313332Y120697D02*
D03*
X319828D02*
D03*
X272423Y204531D02*
D03*
X265927D02*
D03*
X275951Y271164D02*
D03*
X282447D02*
D03*
X282383Y293390D02*
D03*
X275887D02*
D03*
X311512Y327815D02*
D03*
X318008D02*
D03*
X290508Y328315D02*
D03*
X284012D02*
D03*
X272012D02*
D03*
X278508D02*
D03*
X222117Y375055D02*
D03*
X228613D02*
D03*
X154860Y375607D02*
D03*
X161356D02*
D03*
X-10427Y351383D02*
D03*
X-3931D02*
D03*
X89412Y300815D02*
D03*
X95908D02*
D03*
X-11109Y155794D02*
D03*
X-4613D02*
D03*
X102312Y252715D02*
D03*
X108808D02*
D03*
X-4630Y221370D02*
D03*
X-11126D02*
D03*
X212506Y154103D02*
D03*
X219002D02*
D03*
X-3931Y286605D02*
D03*
X-10427D02*
D03*
X120308Y252715D02*
D03*
X113812D02*
D03*
D27*
X54621Y39019D02*
D03*
Y57130D02*
D03*
X144567Y59370D02*
D03*
Y41260D02*
D03*
D28*
X27259Y48074D02*
D03*
X117205Y50315D02*
D03*
D29*
X163531Y206483D02*
D03*
X158462Y201588D02*
D03*
D30*
X142168Y195606D02*
D03*
X147151Y190623D02*
D03*
X80057Y195865D02*
D03*
X75074Y200848D02*
D03*
D31*
X122549Y205359D02*
D03*
X127142Y209952D02*
D03*
X120357Y195812D02*
D03*
X115763Y191218D02*
D03*
X112944Y224267D02*
D03*
X108350Y219673D02*
D03*
X170477Y271285D02*
D03*
X175071Y275878D02*
D03*
X179899Y271095D02*
D03*
X175305Y266501D02*
D03*
X184549Y266312D02*
D03*
X179956Y261718D02*
D03*
X186757Y246112D02*
D03*
X182163Y241518D02*
D03*
X78657Y228012D02*
D03*
X74063Y223418D02*
D03*
D32*
X106042Y209366D02*
D03*
X114811Y200597D02*
D03*
X110078Y195864D02*
D03*
X101309Y204633D02*
D03*
D33*
X112862Y197813D02*
D03*
X103258Y207417D02*
D03*
D34*
X116983Y209011D02*
D03*
X123386Y215414D02*
D03*
X118375Y220425D02*
D03*
X111972Y214022D02*
D03*
D35*
X114783Y241782D02*
D03*
X107736Y241783D02*
D03*
X110383Y268015D02*
D03*
X103336D02*
D03*
D36*
X186496Y276327D02*
D03*
X190672Y272151D02*
D03*
X199024Y280503D02*
D03*
X194848Y284679D02*
D03*
D37*
X150360Y274691D02*
D03*
Y281738D02*
D03*
X74382Y257997D02*
D03*
Y265045D02*
D03*
X245757Y339825D02*
D03*
Y332778D02*
D03*
X179984Y339676D02*
D03*
Y332629D02*
D03*
X11760Y333791D02*
D03*
Y340839D02*
D03*
X11519Y202904D02*
D03*
Y209951D02*
D03*
X11680Y154105D02*
D03*
Y147058D02*
D03*
X10971Y274447D02*
D03*
Y267400D02*
D03*
D38*
X184357Y218618D02*
D03*
X179763Y223212D02*
D03*
X150757Y197818D02*
D03*
X146163Y202412D02*
D03*
D39*
X124110Y241783D02*
D03*
X125502Y243175D02*
D03*
X126894Y244566D02*
D03*
X128286Y245958D02*
D03*
X129678Y247350D02*
D03*
X131070Y248742D02*
D03*
X132462Y250134D02*
D03*
X133853Y251526D02*
D03*
X135245Y252918D02*
D03*
X136637Y254310D02*
D03*
X138029Y255702D02*
D03*
X139421Y257094D02*
D03*
X140813Y258486D02*
D03*
X142205Y259878D02*
D03*
X143597Y261270D02*
D03*
X144989Y262662D02*
D03*
X175890Y231761D02*
D03*
X174498Y230369D02*
D03*
X173106Y228977D02*
D03*
X171714Y227585D02*
D03*
X170322Y226193D02*
D03*
X168930Y224801D02*
D03*
X167538Y223409D02*
D03*
X166147Y222017D02*
D03*
X164755Y220625D02*
D03*
X163363Y219233D02*
D03*
X161971Y217841D02*
D03*
X160579Y216449D02*
D03*
X159187Y215057D02*
D03*
X157795Y213665D02*
D03*
X156403Y212273D02*
D03*
X155011Y210881D02*
D03*
D40*
Y262662D02*
D03*
X156403Y261270D02*
D03*
X157795Y259878D02*
D03*
X159187Y258486D02*
D03*
X160579Y257094D02*
D03*
X161971Y255702D02*
D03*
X163363Y254310D02*
D03*
X164755Y252918D02*
D03*
X166147Y251526D02*
D03*
X167538Y250134D02*
D03*
X168930Y248742D02*
D03*
X170322Y247350D02*
D03*
X171714Y245958D02*
D03*
X173106Y244566D02*
D03*
X174498Y243175D02*
D03*
X175890Y241783D02*
D03*
X144989Y210881D02*
D03*
X143597Y212273D02*
D03*
X142205Y213665D02*
D03*
X140813Y215057D02*
D03*
X139421Y216449D02*
D03*
X138029Y217841D02*
D03*
X136637Y219233D02*
D03*
X135245Y220625D02*
D03*
X133853Y222017D02*
D03*
X132462Y223409D02*
D03*
X131070Y224801D02*
D03*
X129678Y226193D02*
D03*
X128286Y227585D02*
D03*
X126894Y228977D02*
D03*
X125502Y230369D02*
D03*
X124110Y231761D02*
D03*
D41*
X93132Y272247D02*
D03*
Y264767D02*
D03*
X83061D02*
D03*
Y268507D02*
D03*
Y272247D02*
D03*
D42*
X110260Y90055D02*
D03*
Y79031D02*
D03*
X276260Y72283D02*
D03*
Y83307D02*
D03*
X31944Y78543D02*
D03*
Y89567D02*
D03*
D43*
X166746Y97845D02*
D03*
Y78554D02*
D03*
D44*
X165732Y38813D02*
D03*
X174787Y42553D02*
D03*
Y35073D02*
D03*
X330288Y80815D02*
D03*
X321232Y77075D02*
D03*
Y84555D02*
D03*
X252476Y200985D02*
D03*
Y193505D02*
D03*
X261531Y197245D02*
D03*
X274288Y339815D02*
D03*
X265232Y336075D02*
D03*
Y343555D02*
D03*
X82993Y34524D02*
D03*
Y42004D02*
D03*
X73938Y38264D02*
D03*
D45*
X313260Y26760D02*
D03*
X293260Y366370D02*
D03*
D46*
X304205Y54122D02*
D03*
X322315D02*
D03*
X284205Y339008D02*
D03*
X302315D02*
D03*
D47*
X253006Y83830D02*
D03*
X260486D02*
D03*
X256746Y92885D02*
D03*
D48*
X256260Y104598D02*
D03*
Y140032D02*
D03*
D49*
X293308Y130815D02*
D03*
X289568Y138689D02*
D03*
X297049D02*
D03*
X279500Y318752D02*
D03*
X272020D02*
D03*
X275760Y310878D02*
D03*
D50*
X306803Y121197D02*
D03*
X295779D02*
D03*
X317272Y303815D02*
D03*
X306248D02*
D03*
D51*
X312031Y141433D02*
D03*
X308291D02*
D03*
X304551D02*
D03*
Y131197D02*
D03*
X308291D02*
D03*
X312031D02*
D03*
D52*
X295706Y157586D02*
D03*
X318817D02*
D03*
Y177586D02*
D03*
X295706D02*
D03*
D53*
X295760Y230012D02*
D03*
D54*
X305760Y199315D02*
D03*
X285760D02*
D03*
D55*
X293725Y309737D02*
D03*
Y321154D02*
D03*
D56*
X223358Y334018D02*
D03*
X228358D02*
D03*
X233358D02*
D03*
X238358D02*
D03*
Y353506D02*
D03*
X233358D02*
D03*
X228358D02*
D03*
X223358D02*
D03*
X157274Y334102D02*
D03*
X162274D02*
D03*
X167274D02*
D03*
X172274D02*
D03*
Y353590D02*
D03*
X167274D02*
D03*
X162274D02*
D03*
X157274D02*
D03*
D57*
X-5247Y207263D02*
D03*
Y209822D02*
D03*
Y212381D02*
D03*
Y214940D02*
D03*
X-22963Y214979D02*
D03*
Y212420D02*
D03*
Y209861D02*
D03*
Y207302D02*
D03*
X-5230Y141944D02*
D03*
Y144503D02*
D03*
Y147062D02*
D03*
Y149621D02*
D03*
X-22947Y149660D02*
D03*
Y147101D02*
D03*
Y144542D02*
D03*
Y141983D02*
D03*
X-22457Y337500D02*
D03*
Y340059D02*
D03*
Y342618D02*
D03*
Y345177D02*
D03*
X-4740Y345138D02*
D03*
Y342579D02*
D03*
Y340020D02*
D03*
Y337461D02*
D03*
X-23104Y272721D02*
D03*
Y275280D02*
D03*
Y277839D02*
D03*
Y280398D02*
D03*
X-5387Y280359D02*
D03*
Y277800D02*
D03*
Y275241D02*
D03*
Y272682D02*
D03*
D58*
X-14105Y211101D02*
D03*
X-14088Y145782D02*
D03*
X-13598Y341299D02*
D03*
X-14245Y276520D02*
D03*
D59*
X206246Y98200D02*
D03*
D60*
X236943Y108200D02*
D03*
Y88200D02*
D03*
D61*
X232717Y391772D02*
D03*
X220906D02*
D03*
X203189D02*
D03*
X209094D02*
D03*
X226811D02*
D03*
X215000D02*
D03*
X165906D02*
D03*
X154094D02*
D03*
X136378D02*
D03*
X142283D02*
D03*
X160000D02*
D03*
X148189D02*
D03*
D62*
X243248Y410747D02*
D03*
X192854D02*
D03*
X176437D02*
D03*
X126043D02*
D03*
X93248D02*
D03*
X48760D02*
D03*
D63*
X70906Y391772D02*
D03*
X82717D02*
D03*
X65000D02*
D03*
X59094D02*
D03*
X76811D02*
D03*
D64*
X118460Y310215D02*
D03*
Y326215D02*
D03*
X123460Y310215D02*
D03*
Y326215D02*
D03*
X128460Y310215D02*
D03*
Y326215D02*
D03*
X133460Y310215D02*
D03*
Y326215D02*
D03*
X138460Y310215D02*
D03*
Y326215D02*
D03*
D121*
X340000Y381457D02*
D03*
Y361772D02*
D03*
X345760Y51657D02*
D03*
Y31972D02*
D03*
X339760Y223157D02*
D03*
Y203472D02*
D03*
X340000Y301772D02*
D03*
Y321457D02*
D03*
Y251772D02*
D03*
Y271457D02*
D03*
X-45000Y126929D02*
D03*
Y146614D02*
D03*
Y56772D02*
D03*
Y76457D02*
D03*
Y26614D02*
D03*
Y6929D02*
D03*
Y341457D02*
D03*
Y321772D02*
D03*
Y211614D02*
D03*
Y191929D02*
D03*
X0Y401772D02*
D03*
X19685D02*
D03*
X-49843D02*
D03*
X-30157D02*
D03*
X126903Y13200D02*
D03*
X146588D02*
D03*
X42061D02*
D03*
X61746D02*
D03*
X-45000Y276457D02*
D03*
Y256772D02*
D03*
D122*
X212473Y206528D02*
D03*
X205402Y199457D02*
D03*
X198331Y192386D02*
D03*
X191260Y185315D02*
D03*
X184189Y178244D02*
D03*
X177118Y171173D02*
D03*
X85047Y206528D02*
D03*
X92118Y199457D02*
D03*
X99189Y192386D02*
D03*
X106260Y185315D02*
D03*
X113331Y178244D02*
D03*
X120402Y171173D02*
D03*
D123*
X201746Y18200D02*
D03*
X241746D02*
D03*
X201746Y58200D02*
D03*
X241746D02*
D03*
D124*
X194860Y225015D02*
D03*
X230260Y264615D02*
D03*
D125*
X0Y0D02*
D03*
X354331D02*
D03*
Y413386D02*
D03*
X-59055Y370079D02*
D03*
D126*
X173281Y366772D02*
D03*
X240000D02*
D03*
D127*
X183281D02*
D03*
X250000D02*
D03*
M02*
