G04*
G04 #@! TF.GenerationSoftware,Altium Limited,Altium Designer,21.6.4 (81)*
G04*
G04 Layer_Color=255*
%FSLAX25Y25*%
%MOIN*%
G70*
G04*
G04 #@! TF.SameCoordinates,FE6B2B4F-3443-4407-9834-7DAE5A72E9B6*
G04*
G04*
G04 #@! TF.FilePolarity,Positive*
G04*
G01*
G75*
G04:AMPARAMS|DCode=18|XSize=62.99mil|YSize=118.11mil|CornerRadius=4.72mil|HoleSize=0mil|Usage=FLASHONLY|Rotation=180.000|XOffset=0mil|YOffset=0mil|HoleType=Round|Shape=RoundedRectangle|*
%AMROUNDEDRECTD18*
21,1,0.06299,0.10866,0,0,180.0*
21,1,0.05354,0.11811,0,0,180.0*
1,1,0.00945,-0.02677,0.05433*
1,1,0.00945,0.02677,0.05433*
1,1,0.00945,0.02677,-0.05433*
1,1,0.00945,-0.02677,-0.05433*
%
%ADD18ROUNDEDRECTD18*%
G04:AMPARAMS|DCode=19|XSize=55.12mil|YSize=35.43mil|CornerRadius=2.66mil|HoleSize=0mil|Usage=FLASHONLY|Rotation=270.000|XOffset=0mil|YOffset=0mil|HoleType=Round|Shape=RoundedRectangle|*
%AMROUNDEDRECTD19*
21,1,0.05512,0.03012,0,0,270.0*
21,1,0.04980,0.03543,0,0,270.0*
1,1,0.00532,-0.01506,-0.02490*
1,1,0.00532,-0.01506,0.02490*
1,1,0.00532,0.01506,0.02490*
1,1,0.00532,0.01506,-0.02490*
%
%ADD19ROUNDEDRECTD19*%
G04:AMPARAMS|DCode=20|XSize=55.12mil|YSize=35.43mil|CornerRadius=2.66mil|HoleSize=0mil|Usage=FLASHONLY|Rotation=0.000|XOffset=0mil|YOffset=0mil|HoleType=Round|Shape=RoundedRectangle|*
%AMROUNDEDRECTD20*
21,1,0.05512,0.03012,0,0,0.0*
21,1,0.04980,0.03543,0,0,0.0*
1,1,0.00532,0.02490,-0.01506*
1,1,0.00532,-0.02490,-0.01506*
1,1,0.00532,-0.02490,0.01506*
1,1,0.00532,0.02490,0.01506*
%
%ADD20ROUNDEDRECTD20*%
%ADD21C,0.03937*%
%ADD22R,0.12992X0.12500*%
G04:AMPARAMS|DCode=23|XSize=51.18mil|YSize=51.18mil|CornerRadius=5.12mil|HoleSize=0mil|Usage=FLASHONLY|Rotation=180.000|XOffset=0mil|YOffset=0mil|HoleType=Round|Shape=RoundedRectangle|*
%AMROUNDEDRECTD23*
21,1,0.05118,0.04095,0,0,180.0*
21,1,0.04095,0.05118,0,0,180.0*
1,1,0.01024,-0.02047,0.02047*
1,1,0.01024,0.02047,0.02047*
1,1,0.01024,0.02047,-0.02047*
1,1,0.01024,-0.02047,-0.02047*
%
%ADD23ROUNDEDRECTD23*%
%ADD25R,0.02362X0.01181*%
%ADD26R,0.09843X0.09055*%
G04:AMPARAMS|DCode=27|XSize=62.99mil|YSize=118.11mil|CornerRadius=4.72mil|HoleSize=0mil|Usage=FLASHONLY|Rotation=270.000|XOffset=0mil|YOffset=0mil|HoleType=Round|Shape=RoundedRectangle|*
%AMROUNDEDRECTD27*
21,1,0.06299,0.10866,0,0,270.0*
21,1,0.05354,0.11811,0,0,270.0*
1,1,0.00945,-0.05433,-0.02677*
1,1,0.00945,-0.05433,0.02677*
1,1,0.00945,0.05433,0.02677*
1,1,0.00945,0.05433,-0.02677*
%
%ADD27ROUNDEDRECTD27*%
%ADD43R,0.10236X0.11811*%
%ADD45C,0.07874*%
%ADD46C,0.14016*%
%ADD47C,0.06142*%
%ADD48C,0.10000*%
D18*
X190087Y88000D02*
D03*
X175913D02*
D03*
X190087Y101000D02*
D03*
X175913D02*
D03*
Y75000D02*
D03*
X190087D02*
D03*
D19*
X78248Y37000D02*
D03*
X71752D02*
D03*
X178752Y111000D02*
D03*
X185248D02*
D03*
Y118000D02*
D03*
X178752D02*
D03*
X130348Y44000D02*
D03*
X123852D02*
D03*
X103752Y48500D02*
D03*
X110248D02*
D03*
X87248Y44000D02*
D03*
X80752D02*
D03*
X28752Y97000D02*
D03*
X35248D02*
D03*
X87248Y51000D02*
D03*
X80752D02*
D03*
X185248Y125000D02*
D03*
X178752D02*
D03*
D20*
X68000Y82248D02*
D03*
Y75752D02*
D03*
X172000Y131248D02*
D03*
Y124752D02*
D03*
X109000Y61248D02*
D03*
Y54752D02*
D03*
X102000Y61248D02*
D03*
Y54752D02*
D03*
X75000Y81248D02*
D03*
Y74752D02*
D03*
X116000Y61248D02*
D03*
Y54752D02*
D03*
D21*
X98000Y107000D02*
D03*
X94500Y51000D02*
D03*
X67000Y133100D02*
D03*
D22*
X117000Y104900D02*
D03*
X162000D02*
D03*
D23*
X159134Y135000D02*
D03*
X150866D02*
D03*
X38134Y105000D02*
D03*
X29866D02*
D03*
D25*
X79420Y69699D02*
D03*
Y66550D02*
D03*
Y63400D02*
D03*
Y60250D02*
D03*
Y57101D02*
D03*
X94380Y69699D02*
D03*
Y66550D02*
D03*
Y63400D02*
D03*
Y60250D02*
D03*
Y57101D02*
D03*
D26*
X103665Y87500D02*
D03*
X86735D02*
D03*
D27*
X32000Y72913D02*
D03*
Y87087D02*
D03*
X45000Y72913D02*
D03*
Y87087D02*
D03*
X58000Y72913D02*
D03*
Y87087D02*
D03*
D43*
X86900Y63400D02*
D03*
D45*
X57157Y119000D02*
D03*
X67000D02*
D03*
X76842D02*
D03*
D46*
X148138Y21213D02*
D03*
X44674D02*
D03*
D47*
X70579Y8220D02*
D03*
X63178D02*
D03*
X70579Y18221D02*
D03*
X63178D02*
D03*
X70579Y28220D02*
D03*
X63178D02*
D03*
X129634Y8220D02*
D03*
X122233D02*
D03*
X129634Y18221D02*
D03*
X122233D02*
D03*
X129634Y28220D02*
D03*
X122233D02*
D03*
X109949Y8220D02*
D03*
X102548D02*
D03*
X109949Y18221D02*
D03*
X102548D02*
D03*
X109949Y28220D02*
D03*
X102548D02*
D03*
X90264Y8220D02*
D03*
X82863D02*
D03*
X90264Y18221D02*
D03*
X82863D02*
D03*
X90264Y28220D02*
D03*
X82863D02*
D03*
D48*
X102500Y122500D02*
D03*
X58000Y101000D02*
D03*
X160000Y43100D02*
D03*
X32500Y47500D02*
D03*
M02*
