G04 DipTrace 3.2.0.0*
G04 Science_board_v2_Top.gbr*
%MOMM*%
G04 #@! TF.FileFunction,Copper,L1,Top*
G04 #@! TF.Part,Single*
G04 #@! TA.AperFunction,Conductor*
%ADD13C,0.4*%
%ADD14C,0.2*%
%ADD15C,0.6*%
G04 #@! TA.AperFunction,CopperBalancing*
%ADD16C,0.635*%
%ADD19R,1.0X1.1*%
%ADD20R,1.1X1.0*%
%ADD21R,0.7X0.9*%
%ADD22R,0.9X0.7*%
%ADD23R,1.0X2.2*%
%ADD25R,0.85X0.5*%
%ADD26R,1.5X1.3*%
%ADD27R,1.3X1.5*%
G04 #@! TA.AperFunction,ComponentPad*
%ADD28R,1.2X1.2*%
%ADD29C,1.2*%
%ADD30R,1.0X2.8*%
%ADD31R,0.6X1.7*%
%ADD32R,2.8X1.0*%
%ADD33R,1.7X0.6*%
%ADD35R,0.8X1.05*%
%ADD36R,0.57X0.48*%
%ADD37R,1.5X0.55*%
%ADD39R,1.2X0.3*%
%ADD40R,0.3X1.2*%
%ADD42R,0.762X1.143*%
%ADD44R,1.0X2.75*%
%ADD45R,5.55X6.15*%
%ADD46R,1.2X1.0*%
G04 #@! TA.AperFunction,ViaPad*
%ADD47C,0.7*%
%ADD48C,1.6*%
%FSLAX35Y35*%
G04*
G71*
G90*
G75*
G01*
G04 Top*
%LPD*%
X6645250Y3714750D2*
D13*
Y3451250D1*
X7048500Y3048000D1*
X7067500D1*
X2030000Y2641500D2*
D14*
Y2514500D1*
X2020500Y2505000D1*
X2780000Y1491500D2*
Y1701133D1*
X2808707Y1729840D1*
X1830000Y1841500D2*
X1960250D1*
X1988750Y1870000D1*
X5501650Y1143000D2*
D13*
Y889000D1*
X6477000D1*
Y381000D1*
X6381750D1*
X5501650Y889000D2*
Y381000D1*
X6088620D1*
X4984750D1*
Y1143000D1*
X6381750Y381000D2*
Y635000D1*
X6477000D1*
X6088620Y381000D2*
Y1143000D1*
X6477000D1*
X6088620Y381000D2*
X5802870D1*
X5524500D1*
X5238750D1*
Y1143000D1*
Y381000D2*
Y635000D1*
Y889000D1*
X4984750Y635000D2*
Y889000D1*
Y1143000D1*
X1798250Y2949500D2*
Y3140000D1*
X2130000Y1491500D2*
D14*
Y1344503D1*
X1909373Y1123877D1*
D13*
X1883250Y1150000D1*
X5501650Y635000D2*
Y381000D1*
X4984750Y1143000D2*
X4730750D1*
Y889000D1*
Y635000D1*
X1830000Y1841500D2*
D14*
X1729767D1*
X1611727Y1723460D1*
X1521223D1*
X1518933Y1725750D1*
X1492250D1*
X2980000Y2441500D2*
X2877750D1*
X2846000Y2473250D1*
X6416000Y854750D2*
D13*
X6450250Y889000D1*
X6477000D1*
X6953250Y1204000D2*
Y1174750D1*
X6508750D1*
X6477000Y1143000D1*
X4730750Y381000D2*
Y635000D1*
X1830000Y2441500D2*
D14*
X1957000D1*
X2020500Y2505000D1*
X4730750Y381000D2*
D13*
Y254000D1*
X4603750Y127000D1*
X2535067D1*
X920750D1*
X190500Y857250D1*
Y2095500D1*
Y3270250D1*
X920750Y4000500D1*
X2127250D1*
Y3469000D1*
X1798250Y3140000D1*
X2127250Y4000500D2*
X3016250D1*
X3206750Y3810000D1*
Y3619500D1*
X3429000Y3397250D1*
X3683000D1*
X3719000Y3433250D1*
X3784250D1*
X4578000D1*
X2020500Y2505000D2*
X2016707D1*
X2030000Y2641500D2*
D14*
X1880207D1*
X1759457Y2762250D1*
X1111250D1*
X444500Y2095500D1*
X190500D1*
X6477000Y889000D2*
X6731000D1*
Y635000D1*
Y381000D1*
X2130000Y1491500D2*
Y1630250D1*
X2147500Y1647750D1*
X5238750Y1143000D2*
D13*
Y1692250D1*
X5271337D1*
X4676153D1*
X4612653Y1755750D1*
X4557173D1*
X3828680D1*
X2535067Y474620D2*
Y127000D1*
X5856867Y2018013D2*
D15*
Y1998043D1*
X5818667Y1959843D1*
Y1548370D1*
X3729000Y659250D2*
D13*
X3563500D1*
D14*
X3556000Y666750D1*
X2967000Y659250D2*
D13*
X3548500D1*
D14*
X3556000Y666750D1*
X2967000Y659250D2*
D13*
X2801500D1*
X2794000Y666750D1*
X3729000Y659250D2*
X3897750D1*
D14*
X3905250Y666750D1*
X2535067Y599620D2*
X2353130D1*
X2349500Y603250D1*
X2180000Y1491500D2*
Y1322750D1*
X1976580Y1119330D1*
Y804097D1*
X2179550Y601127D1*
X2347377D1*
X2349500Y603250D1*
X2535067Y724620D2*
X2360136D1*
X2349500Y713984D1*
X2230000Y1491500D2*
Y1308017D1*
X2024047Y1102063D1*
Y844100D1*
X2154163Y713984D1*
X2349500D1*
X1830000Y1791500D2*
X1740860D1*
X1505110Y1555750D1*
X1492250D1*
Y1393750D1*
X1480750D1*
X1830000Y1741500D2*
X1748933D1*
X1703000Y1695567D1*
Y1393750D1*
X1809500D1*
X1883250Y1320000D1*
X1671250Y3560367D2*
X1690617D1*
Y3771987D1*
X1671250D1*
Y3358760D2*
Y3560367D1*
X772750Y3379750D2*
Y2649500D1*
X1671250Y3771987D2*
X1107253D1*
X782250Y3446983D1*
Y3379750D1*
X772750D1*
X1798250Y3560367D2*
X1780763D1*
Y3814427D1*
X1693190Y3902000D1*
X1671250D1*
X1798250Y3358760D2*
Y3560367D1*
X1671250Y3905173D2*
Y3902000D1*
X647750Y3379750D2*
Y2649500D1*
X1671250Y3902000D2*
X1113783D1*
X655250Y3443467D1*
Y3387250D1*
X647750Y3379750D1*
X2180000Y2641500D2*
Y2821750D1*
X2052250Y2949500D1*
X1925250D1*
X2130000Y2641500D2*
Y2808250D1*
X2084000Y2854250D1*
X1620500D1*
X1525250Y2949500D1*
X1544250D1*
X2980000Y1791500D2*
X3396043D1*
X4072330Y2467787D1*
X4745543D1*
X4881650Y2331680D1*
X5388777D1*
X5786833Y2729737D1*
X6105237D1*
X6113500Y2738000D1*
X5383250D2*
X5329833D1*
X5155910Y2564077D1*
X3504823D1*
X3320917Y2380170D1*
Y2107557D1*
X3103770Y1890410D1*
X2981090D1*
X2980000Y1891500D1*
Y1991500D2*
X3087697D1*
X3238093Y2141897D1*
Y2417170D1*
X3468770Y2647847D1*
X4941867D1*
X5620923Y3326903D1*
Y3814447D1*
X5618290Y3811813D1*
X2980000Y2091500D2*
X3067827D1*
X3154970Y2178643D1*
Y2449397D1*
X3437923Y2732350D1*
X4806270D1*
X4868323Y2794403D1*
Y3104950D1*
X4894017Y3130643D1*
X5307550D1*
X5368290Y3191383D1*
Y3811813D1*
X2430000Y1491500D2*
Y1268190D1*
X2663940Y1034250D1*
X2967000D1*
X3029750D1*
X3111500Y952500D1*
X2380000Y1491500D2*
Y1255630D1*
X2726380Y909250D1*
X2967000D1*
X3034473D1*
X3111500Y832223D1*
Y825500D1*
X2330000Y1491500D2*
Y1240413D1*
X2712993Y857420D1*
X2841800D1*
X2914970Y784250D1*
X2967000D1*
X2580000Y1491500D2*
Y1304100D1*
X2666843Y1217257D1*
X3069663D1*
X3252670Y1034250D1*
X3729000D1*
X3905250Y1016000D2*
X3747250D1*
X3729000Y1034250D1*
X2530000Y1491500D2*
Y1292380D1*
X2651510Y1170870D1*
X3053743D1*
X3315363Y909250D1*
X3729000D1*
X3905250Y889000D2*
X3873500Y920750D1*
X3717500D1*
X3729000Y909250D1*
X2480000Y1491500D2*
Y1279290D1*
X2634807Y1124483D1*
X3037067D1*
X3375023Y786527D1*
X3726723D1*
X3729000Y784250D1*
X6867500Y3048000D2*
X6889750D1*
D13*
X6755750Y2914000D1*
Y2388500D1*
X1258500Y2521713D2*
D14*
Y2613963D1*
X1290250Y2645713D1*
X1449000D1*
X6274667Y1548370D2*
D13*
Y1631647D1*
X6374090Y1731070D1*
Y1861917D1*
X6667500Y3048000D2*
Y2621750D1*
X6660750Y2628500D1*
X6274667Y1548370D2*
X6723620D1*
X6826250Y1651000D1*
Y2000250D1*
X6667500Y3048000D2*
Y3302000D1*
X6445250Y3524250D1*
Y3714750D1*
X1671250Y2949500D2*
D14*
Y3140000D1*
X1754840Y3223590D1*
X1787533D1*
X2009717Y3445773D1*
Y3722283D1*
X1895007Y3836993D1*
X1881250D1*
X522750Y3379750D2*
Y2649500D1*
X1881250Y3836993D2*
X1900243D1*
X1968500Y3905250D1*
X522750Y3379750D2*
Y3431250D1*
X560000Y3468500D1*
Y3521000D1*
X1258500Y2521713D2*
X1156463D1*
X1143000Y2508250D1*
X2080000Y2641500D2*
Y2555500D1*
X2112487Y2523013D1*
X2166113D1*
X2730000Y1491500D2*
Y1575243D1*
X2737177Y1582420D1*
Y1771323D1*
X2603500Y1905000D1*
X1830000Y1891500D2*
X1917773D1*
X1963023Y1936750D1*
X2000250D1*
X2127250Y2063750D1*
X2980000Y2391500D2*
X2455000D1*
X2444750Y2381250D1*
X2080000Y1491500D2*
Y1571250D1*
X2032000Y1619250D1*
X3784250Y3558250D2*
X3558250D1*
X3492500Y3492500D1*
X4578000Y3558250D2*
X4352000D1*
X4349750Y3556000D1*
X5243290Y3811813D2*
Y3624040D1*
X5238750Y3619500D1*
X5383250Y2863000D2*
X5550750D1*
X5556250Y2857500D1*
X5937250D2*
X6108000D1*
X6113500Y2863000D1*
X6953250Y1524000D2*
X7016750D1*
X7080250Y1587500D1*
Y1460500D1*
X6826250Y1587500D2*
Y1460500D1*
X6889750D1*
X6953250Y1524000D1*
X7080250Y1587500D2*
X7207250D1*
Y1460500D1*
X6826250Y1587500D2*
X6699250D1*
Y1460500D1*
X1905000Y254000D2*
Y271500D1*
X1798250Y378250D1*
X1651000Y254000D2*
Y271500D1*
X1544250Y378250D1*
X1397000Y254000D2*
Y271500D1*
X1290250Y378250D1*
X1143000Y254000D2*
Y271500D1*
X1036250Y378250D1*
X1480750Y1068750D2*
Y1163250D1*
X1492250Y1174750D1*
X1703000Y1068750D2*
Y1163250D1*
X1714500Y1174750D1*
X1587250Y2388713D2*
Y2291010D1*
X1583803Y2287563D1*
X3164027Y535227D2*
X2967000Y534250D1*
X3908267Y530563D2*
Y534250D1*
X3729000D1*
X520110Y1309180D2*
X531853Y1297437D1*
Y1189440D1*
X5323697Y2032000D2*
D13*
Y1949670D1*
X5316277Y1942250D1*
X5271337D1*
X4603750Y2095500D2*
Y2013907D1*
X4595593Y2005750D1*
X4557173D1*
X3873500Y2095500D2*
Y2005750D1*
X3828680D1*
X438200Y1952253D2*
D14*
Y1852050D1*
X444000Y1846250D1*
X2476500Y952500D2*
D13*
Y857250D1*
X2484130Y849620D1*
X2535067D1*
X2782500Y3584500D2*
D14*
Y3413750D1*
X2788000Y3408250D1*
X2330000Y2641500D2*
Y2895803D1*
X2782500Y3348303D1*
Y3394000D1*
X2796750Y3408250D1*
X2788000D1*
X2655500Y3584500D2*
Y3415750D1*
X2663000Y3408250D1*
X2280000Y2641500D2*
Y2910750D1*
X2663000Y3293750D1*
Y3408250D1*
X1830000Y2091500D2*
X1426223D1*
X623500Y1288777D1*
Y992840D1*
X1830000Y2041500D2*
X1446683D1*
X814000Y1408817D1*
Y992840D1*
X1830000Y1991500D2*
X1462283D1*
X1004500Y1533717D1*
Y992840D1*
X1206500Y960500D2*
X1195000D1*
Y992840D1*
Y1665080D1*
X1471420Y1941500D1*
X1830000D1*
X2630000Y1491500D2*
Y1566237D1*
X2603520Y1592717D1*
Y1731480D1*
X2619957Y1715043D1*
X5271337Y1817250D2*
X4057380D1*
X4043287Y1831343D1*
X2680000Y1491500D2*
X2681347Y1366263D1*
X4557173Y1880750D2*
Y1901093D1*
X4019267D1*
X3935927Y1817753D1*
X3599773D1*
X3431723Y1649703D1*
X3081600D1*
X2798273Y1366377D1*
X2709423D1*
X2677677Y1398123D1*
Y1489177D1*
X2680000Y1491500D1*
X2980000Y1691500D2*
X3414107D1*
X3603357Y1880750D1*
X3828680D1*
X3878769D1*
X3999808Y2001789D1*
X3987030D1*
X1830000Y2191500D2*
X1495980D1*
X1454517Y2232963D1*
X1544250Y3560367D2*
Y3358760D1*
X1798250Y568250D2*
Y594970D1*
X1599287Y793933D1*
X1223907D1*
X1195000Y822840D1*
X1004500D2*
Y784590D1*
X1061993Y727097D1*
X1385403D1*
X1544250Y568250D1*
X814000Y822840D2*
Y783997D1*
X915787Y682210D1*
X1176290D1*
X1290250Y568250D1*
X623500Y822840D2*
Y783400D1*
X827583Y579317D1*
X1025183D1*
X1036250Y568250D1*
X6094573Y1721613D2*
Y1772400D1*
X6184090Y1861917D1*
X1579000Y2645713D2*
Y2526963D1*
X1587250Y2518713D1*
X1609950D1*
X1678153Y2450510D1*
Y2275847D1*
X1712500Y2241500D1*
X1830000D1*
X1284517Y2232963D2*
Y2222053D1*
X1376233Y2313770D1*
Y2388713D1*
X1417250D1*
X1258500Y2391713D2*
X1414250D1*
X1417250Y2388713D1*
X6113500Y2613000D2*
Y2615073D1*
X5734097D1*
X5400757Y2281733D1*
X5398583D1*
X5404363Y2287513D1*
X4866697D1*
X4727720Y2426490D1*
X4090787D1*
X3405797Y1741500D1*
X2980000D1*
X6113500Y2613000D2*
X6264250D1*
X6286500Y2635250D1*
X5383250Y2613000D2*
Y2605093D1*
X5321420D1*
X5239693Y2523367D1*
X3759290D1*
X3665107Y2429183D1*
Y2125070D1*
X3381537Y1841500D1*
X2980000D1*
X5383250Y2613000D2*
X5534000D1*
X5556250Y2635250D1*
X2980000Y1941500D2*
X3096210D1*
X3280780Y2126070D1*
Y2400670D1*
X3487080Y2606970D1*
X4959407D1*
X5746750Y3394313D1*
Y3651250D1*
Y3808353D1*
X5743290Y3811813D1*
X5746750Y3651250D2*
D3*
X2980000Y2041500D2*
X3076690D1*
X3195867Y2160677D1*
Y2432230D1*
X3453633Y2689997D1*
X4926563D1*
X5493290Y3256723D1*
Y3651250D1*
Y3811813D1*
X5492750Y3651250D2*
X5493290D1*
X6850750Y2628500D2*
X6839683D1*
X6942233Y2731050D1*
X6987537D1*
X2980000Y2141500D2*
X3058963D1*
X3113677Y2196213D1*
Y2469037D1*
X3417367Y2772727D1*
X4788360D1*
X4826000Y2810367D1*
Y3130887D1*
X4889500Y3194387D1*
Y3628267D1*
X5201080Y3939847D1*
X6569403D1*
X7175500Y3333750D1*
Y2908460D1*
X6987537Y2720497D1*
Y2731050D1*
X4578000Y3183250D2*
X4200313D1*
X4014170Y2997107D1*
X3045200D1*
X2780000Y2731907D1*
Y2641500D1*
X4578000Y3058250D2*
X4136463D1*
X4033633Y2955420D1*
X3294520D1*
X3071843Y2732743D1*
Y2365750D1*
X3047593Y2341500D1*
X2980000D1*
X3784250Y3308250D2*
X3082687D1*
X2528500Y2754063D1*
Y2643000D1*
X2530000Y2641500D1*
X3784250Y3308250D2*
X3943250D1*
X3968750Y3333750D1*
X3784250Y3183250D2*
X3016707D1*
X2630000Y2796543D1*
Y2641500D1*
X3784250Y3183250D2*
X3945250D1*
X3968750Y3206750D1*
X3784250Y3058250D2*
X2948643D1*
X2680000Y2789607D1*
Y2641500D1*
X3784250Y3058250D2*
X3947250D1*
X3968750Y3079750D1*
X1830000Y2141500D2*
X1404170D1*
X1027137Y1764467D1*
X831063D1*
X650847Y1584250D1*
X560000D1*
X1830000Y2141500D2*
X1951000D1*
X2349500Y2540000D1*
X2817977D1*
X3122793Y2844817D1*
Y2893267D1*
X4578000Y3308250D2*
X4567670Y3297920D1*
X4184147D1*
X4064000Y3177773D1*
Y3175000D1*
X520110Y1479180D2*
X560000Y1519070D1*
Y1584250D1*
D47*
X5323697Y2032000D3*
X4603750Y2095500D3*
X3873500D3*
X531853Y1189440D3*
X6094573Y1721613D3*
X1988750Y1870000D3*
X2020500Y2505000D3*
X2147500Y1647750D3*
X2808707Y1729840D3*
X1671250Y3358760D3*
X1798250D3*
X1544250D3*
D48*
X5501650Y1143000D3*
Y889000D3*
X6477000Y1143000D3*
Y889000D3*
Y635000D3*
X6381750Y381000D3*
X6088620D3*
X5802870D3*
X5524500D3*
X5238750D3*
X4984750D3*
Y635000D3*
X5238750D3*
X4984750Y889000D3*
X5238750D3*
Y1143000D3*
X4984750D3*
D47*
X1671250Y3140000D3*
X1798250D3*
X6987537Y2731050D3*
X2655500Y3584500D3*
X2782500D3*
D48*
X5501650Y635000D3*
X4730750Y1143000D3*
Y889000D3*
Y635000D3*
D47*
X2681347Y1366263D3*
X2619957Y1715043D3*
D48*
X4730750Y381000D3*
D47*
X1968500Y3905250D3*
X560000Y3521000D3*
X3968750Y3079750D3*
Y3206750D3*
Y3333750D3*
X4064000Y3175000D3*
X2349500Y603250D3*
Y713984D3*
X2846000Y2473250D3*
X3122793Y2893267D3*
X5746750Y3651250D3*
X5492750D3*
X5556250Y2635250D3*
X6286500D3*
X1143000Y2508250D3*
X2166113Y2523013D3*
X2603500Y1905000D3*
X2127250Y2063750D3*
X2444750Y2381250D3*
X2032000Y1619250D3*
X3492500Y3492500D3*
X4349750Y3556000D3*
X5238750Y3619500D3*
X5937250Y2857500D3*
X5556250D3*
X6826250Y1460500D3*
Y1587500D3*
X7080250D3*
Y1460500D3*
X6699250Y1587500D3*
Y1460500D3*
X7207250Y1587500D3*
Y1460500D3*
X3164027Y535227D3*
X3908267Y530563D3*
X1905000Y254000D3*
X1651000D3*
X1397000D3*
X1143000D3*
X1492250Y1174750D3*
X1714500D3*
X438200Y1952253D3*
X1583803Y2287563D3*
X2230967Y2981310D3*
X3905250Y1016000D3*
Y889000D3*
X3111500Y952500D3*
Y825500D3*
X2794000Y666750D3*
X3556000D3*
X3905250D3*
D48*
X6731000Y889000D3*
Y635000D3*
Y381000D3*
X6985000Y889000D3*
Y635000D3*
D47*
X4043287Y1831343D3*
X2476500Y952500D3*
X3987030Y2001789D3*
X4641896Y1175083D2*
D16*
X7264404D1*
X4641896Y1111917D2*
X7264404D1*
X4641896Y1048750D2*
X7264404D1*
X4641896Y985583D2*
X7264404D1*
X4641896Y922417D2*
X7264404D1*
X4641896Y859250D2*
X7264404D1*
X4641896Y796083D2*
X7264404D1*
X4641896Y732917D2*
X7264404D1*
X4641896Y669750D2*
X7264404D1*
X4641896Y606583D2*
X7264404D1*
X4641896Y543417D2*
X7020771D1*
X7139747D2*
X7264404D1*
X4641896Y480250D2*
X6908479D1*
X4641896Y417083D2*
X6864274D1*
X4641896Y353917D2*
X6844677D1*
X4641896Y290750D2*
X6843401D1*
X4641896Y227583D2*
X6859899D1*
X4641896Y164417D2*
X6899456D1*
X6911165Y158776D2*
X6892491Y181085D1*
X6882366Y196237D1*
X6873462Y212136D1*
X6865833Y228686D1*
X6859526Y245782D1*
X6854579Y263321D1*
X6851024Y281194D1*
X6848882Y299291D1*
X6848167Y317500D1*
X6848882Y335709D1*
X6851024Y353806D1*
X6854579Y371679D1*
X6859526Y389218D1*
X6865833Y406314D1*
X6873462Y422864D1*
X6882366Y438763D1*
X6892491Y453915D1*
X6903772Y468226D1*
X6916142Y481608D1*
X6929524Y493978D1*
X6943835Y505259D1*
X6958987Y515384D1*
X6974886Y524288D1*
X6991436Y531917D1*
X7008532Y538224D1*
X7026071Y543171D1*
X7043944Y546726D1*
X7062041Y548868D1*
X7080250Y549583D1*
X7098459Y548868D1*
X7116556Y546726D1*
X7134429Y543171D1*
X7151968Y538224D1*
X7169064Y531917D1*
X7185614Y524288D1*
X7201513Y515384D1*
X7216665Y505259D1*
X7230976Y493978D1*
X7244358Y481608D1*
X7256728Y468226D1*
X7270738Y449831D1*
X7270750Y1238159D1*
X4635482Y1238250D1*
X4635500Y158841D1*
X6910924Y158750D1*
X6673896Y1556083D2*
X7232680D1*
X6673896Y1492917D2*
X7232680D1*
X6673896Y1429750D2*
X7232680D1*
X7238940Y1619250D2*
X6667456D1*
X6667500Y1428695D1*
X7239044Y1428750D1*
X7239000Y1619305D1*
D21*
X1258500Y2521713D3*
Y2391713D3*
D22*
X1449000Y2645713D3*
X1579000D3*
D19*
X520110Y1309180D3*
Y1479180D3*
D23*
X6953250Y1524000D3*
Y1204000D3*
D25*
X1671250Y3902000D3*
Y3771987D3*
X1881250Y3836993D3*
D26*
X1290250Y568250D3*
Y378250D3*
X1544250Y568250D3*
Y378250D3*
X1798250Y568250D3*
Y378250D3*
X1036250Y568250D3*
Y378250D3*
D27*
X6184090Y1861917D3*
X6374090D3*
D28*
X6445250Y3714750D3*
D29*
X6645250D3*
D28*
X5656867Y2018013D3*
D29*
X5856867D3*
D28*
X6826250Y2000250D3*
D29*
X7026250D3*
D30*
X337750Y2314500D3*
X962750D3*
D31*
X522750Y2649500D3*
X647750D3*
X772750D3*
D30*
X337750Y3044750D3*
X962750D3*
D31*
X522750Y3379750D3*
X647750D3*
X772750D3*
D30*
X2973000Y3743250D3*
X2473000D3*
D31*
X2788000Y3408250D3*
X2663000D3*
D32*
X3449250Y3743250D3*
Y2873250D3*
D33*
X3784250Y3433250D3*
Y3308250D3*
Y3558250D3*
Y3183250D3*
Y3058250D3*
D32*
X4243000Y3743250D3*
Y2873250D3*
D33*
X4578000Y3433250D3*
Y3308250D3*
Y3558250D3*
Y3183250D3*
Y3058250D3*
D32*
X5778500Y3048000D3*
Y2423000D3*
D33*
X6113500Y2863000D3*
Y2738000D3*
Y2613000D3*
D32*
X5048250Y3048000D3*
Y2423000D3*
D33*
X5383250Y2863000D3*
Y2738000D3*
Y2613000D3*
D28*
X6667500Y3048000D3*
D29*
X6867500D3*
X7067500D3*
D30*
X5058290Y3476813D3*
X5928290D3*
D31*
X5368290Y3811813D3*
X5493290D3*
X5243290D3*
X5618290D3*
X5743290D3*
D32*
X3302000Y349250D3*
Y1219250D3*
D33*
X2967000Y534250D3*
Y659250D3*
Y784250D3*
Y534250D3*
Y909250D3*
Y1034250D3*
D32*
X4064000Y349250D3*
Y1219250D3*
D33*
X3729000Y534250D3*
Y659250D3*
Y784250D3*
Y534250D3*
Y909250D3*
Y1034250D3*
D32*
X4936337Y2127250D3*
Y1502250D3*
D33*
X5271337Y1942250D3*
Y1817250D3*
Y1692250D3*
Y1942250D3*
D32*
X4222173Y2190750D3*
Y1565750D3*
D33*
X4557173Y2005750D3*
Y1880750D3*
Y1755750D3*
Y2005750D3*
D32*
X2200067Y1034620D3*
Y289620D3*
D33*
X2535067Y724620D3*
Y599620D3*
Y849620D3*
Y474620D3*
D32*
X3493680Y2190750D3*
Y1565750D3*
D33*
X3828680Y2005750D3*
Y1880750D3*
Y1755750D3*
Y2005750D3*
D35*
X6850750Y2628500D3*
X6660750D3*
X6755750Y2388500D3*
D20*
X1454517Y2232963D3*
X1284517D3*
D19*
X1195000Y822840D3*
Y992840D3*
X1004500Y822840D3*
Y992840D3*
X814000Y822840D3*
Y992840D3*
X623500Y822840D3*
Y992840D3*
X1492250Y1555750D3*
Y1725750D3*
X1883250Y1320000D3*
Y1150000D3*
D36*
X444000Y1846250D3*
Y1584250D3*
X560000Y1846250D3*
Y1584250D3*
D37*
X1480750Y1393750D3*
Y1068750D3*
X1703000Y1393750D3*
Y1068750D3*
D39*
X1830000Y2441500D3*
Y2391500D3*
Y2341500D3*
Y2291500D3*
Y2241500D3*
Y2191500D3*
Y2141500D3*
Y2091500D3*
Y2041500D3*
Y1991500D3*
Y1941500D3*
Y1891500D3*
Y1841500D3*
Y1791500D3*
Y1741500D3*
Y1691500D3*
D40*
X2030000Y1491500D3*
X2080000D3*
X2130000D3*
X2180000D3*
X2230000D3*
X2280000D3*
X2330000D3*
X2380000D3*
X2430000D3*
X2480000D3*
X2530000D3*
X2580000D3*
X2630000D3*
X2680000D3*
X2730000D3*
X2780000D3*
D39*
X2980000Y1691500D3*
Y1741500D3*
Y1791500D3*
Y1841500D3*
Y1891500D3*
Y1941500D3*
Y1991500D3*
Y2041500D3*
Y2091500D3*
Y2141500D3*
Y2191500D3*
Y2241500D3*
Y2291500D3*
Y2341500D3*
Y2391500D3*
Y2441500D3*
D40*
X2780000Y2641500D3*
X2730000D3*
X2680000D3*
X2630000D3*
X2580000D3*
X2530000D3*
X2480000D3*
X2430000D3*
X2380000D3*
X2330000D3*
X2280000D3*
X2230000D3*
X2180000D3*
X2130000D3*
X2080000D3*
X2030000D3*
D42*
X1544250Y2949500D3*
X1671250D3*
X1798250D3*
X1925250D3*
Y3560367D3*
X1798250D3*
X1671250D3*
X1544250D3*
D44*
X6274667Y1548370D3*
X5818667D3*
D45*
X6046667Y878370D3*
D46*
X1417250Y2518713D3*
Y2388713D3*
X1587250Y2518713D3*
Y2388713D3*
M02*
