G04*
G04 #@! TF.GenerationSoftware,Altium Limited,Altium Designer,20.1.11 (218)*
G04*
G04 Layer_Color=16711935*
%FSLAX25Y25*%
%MOIN*%
G70*
G04*
G04 #@! TF.SameCoordinates,85017169-990B-49AA-8BCE-B11CB2BCBAEE*
G04*
G04*
G04 #@! TF.FilePolarity,Positive*
G04*
G01*
G75*
%ADD89C,0.00394*%
D89*
X246169Y199169D02*
X245906Y200153D01*
X245185Y200874D01*
X244201Y201138D01*
X243216Y200874D01*
X242496Y200153D01*
X242232Y199169D01*
X242496Y198185D01*
X243216Y197465D01*
X244201Y197201D01*
X245185Y197465D01*
X245906Y198185D01*
X246169Y199169D01*
X208369D02*
X208106Y200153D01*
X207385Y200874D01*
X206401Y201138D01*
X205416Y200874D01*
X204696Y200153D01*
X204432Y199169D01*
X204696Y198185D01*
X205416Y197465D01*
X206401Y197201D01*
X207385Y197465D01*
X208106Y198185D01*
X208369Y199169D01*
X260343Y195626D02*
Y211374D01*
X240657Y195626D02*
Y211374D01*
X260343D01*
X240657Y195626D02*
X260343D01*
X222543D02*
Y211374D01*
X202857Y195626D02*
Y211374D01*
X222543D01*
X202857Y195626D02*
X222543D01*
X320055Y150130D02*
Y153870D01*
X326945Y150130D02*
Y153870D01*
X153555Y101130D02*
Y104870D01*
X160445Y101130D02*
Y104870D01*
X498555Y172930D02*
Y176670D01*
X505445Y172930D02*
Y176670D01*
X330455Y72430D02*
Y76170D01*
X337345Y72430D02*
Y76170D01*
X383530Y85355D02*
X387270D01*
X383530Y92245D02*
X387270D01*
X389530Y85355D02*
X393270D01*
X389530Y92245D02*
X393270D01*
X516630Y80445D02*
X520370D01*
X516630Y73555D02*
X520370D01*
X551745Y82530D02*
Y86270D01*
X544855Y82530D02*
Y86270D01*
X551745Y75530D02*
Y79270D01*
X544855Y75530D02*
Y79270D01*
X93745Y79830D02*
Y83570D01*
X86855Y79830D02*
Y83570D01*
X104630Y119705D02*
X108370D01*
X104630Y126594D02*
X108370D01*
X89630Y138445D02*
X93370D01*
X89630Y131555D02*
X93370D01*
X212630Y63555D02*
X216370D01*
X212630Y70445D02*
X216370D01*
X416930Y168045D02*
X420670D01*
X416930Y161155D02*
X420670D01*
X286545Y187830D02*
Y191570D01*
X279655Y187830D02*
Y191570D01*
X108530Y238345D02*
X112270D01*
X108530Y231455D02*
X112270D01*
X420630Y198467D02*
X424370D01*
X420630Y205357D02*
X424370D01*
X426930Y198467D02*
X430670D01*
X426930Y205357D02*
X430670D01*
X537167Y203130D02*
Y206870D01*
X544057Y203130D02*
Y206870D01*
X537167Y196130D02*
Y199870D01*
X544057Y196130D02*
Y199870D01*
X81155Y208730D02*
Y212470D01*
X88045Y208730D02*
Y212470D01*
X81155Y214730D02*
Y218470D01*
X88045Y214730D02*
Y218470D01*
X214555Y81630D02*
Y85370D01*
X221445Y81630D02*
Y85370D01*
X265630Y97055D02*
X269370D01*
X265630Y103945D02*
X269370D01*
X266130Y143555D02*
X269870D01*
X266130Y150445D02*
X269870D01*
X207445Y160130D02*
Y163870D01*
X200555Y160130D02*
Y163870D01*
X185630Y106445D02*
X189370D01*
X185630Y99555D02*
X189370D01*
X202055Y81130D02*
Y84870D01*
X208945Y81130D02*
Y84870D01*
X235130Y70445D02*
X238870D01*
X235130Y63555D02*
X238870D01*
X233055Y81630D02*
Y85370D01*
X239945Y81630D02*
Y85370D01*
X243055Y74630D02*
Y78370D01*
X249945Y74630D02*
Y78370D01*
X247055Y80630D02*
Y84370D01*
X253945Y80630D02*
Y84370D01*
X141220Y259087D02*
Y264008D01*
X149094Y259087D02*
Y264008D01*
X142401Y259087D02*
Y264008D01*
X147913Y259087D02*
Y264008D01*
X317445Y178630D02*
Y182370D01*
X310555Y178630D02*
Y182370D01*
X319945Y208630D02*
Y212370D01*
X313055Y208630D02*
Y212370D01*
X247055Y181630D02*
Y185370D01*
X253945Y181630D02*
Y185370D01*
X209055Y181630D02*
Y185370D01*
X215945Y181630D02*
Y185370D01*
M02*
