G04*
G04 #@! TF.GenerationSoftware,Altium Limited,Altium Designer,20.1.11 (218)*
G04*
G04 Layer_Color=16711935*
%FSLAX25Y25*%
%MOIN*%
G70*
G04*
G04 #@! TF.SameCoordinates,85017169-990B-49AA-8BCE-B11CB2BCBAEE*
G04*
G04*
G04 #@! TF.FilePolarity,Positive*
G04*
G01*
G75*
%ADD15C,0.01000*%
D15*
X619971Y-20D02*
X620951Y28D01*
X621922Y172D01*
X622874Y411D01*
X623798Y741D01*
X624685Y1161D01*
X625527Y1665D01*
X626315Y2250D01*
X627042Y2909D01*
X627701Y3636D01*
X628286Y4425D01*
X628791Y5266D01*
X629210Y6153D01*
X629541Y7077D01*
X629779Y8029D01*
X629923Y9000D01*
X629971Y9980D01*
Y285256D02*
X629923Y286236D01*
X629779Y287207D01*
X629541Y288159D01*
X629210Y289083D01*
X628791Y289970D01*
X628286Y290811D01*
X627701Y291600D01*
X627042Y292327D01*
X626315Y292986D01*
X625527Y293570D01*
X624685Y294075D01*
X623798Y294495D01*
X622874Y294825D01*
X621922Y295064D01*
X620951Y295208D01*
X619971Y295256D01*
X10050D02*
X9070Y295208D01*
X8099Y295064D01*
X7147Y294825D01*
X6223Y294495D01*
X5336Y294075D01*
X4494Y293570D01*
X3706Y292986D01*
X2979Y292327D01*
X2320Y291600D01*
X1735Y290811D01*
X1231Y289970D01*
X811Y289083D01*
X481Y288159D01*
X242Y287207D01*
X98Y286236D01*
X50Y285256D01*
Y9980D02*
X98Y9000D01*
X242Y8029D01*
X481Y7077D01*
X811Y6153D01*
X1231Y5266D01*
X1735Y4425D01*
X2320Y3636D01*
X2979Y2909D01*
X3706Y2250D01*
X4494Y1665D01*
X5336Y1161D01*
X6223Y741D01*
X7147Y411D01*
X8099Y172D01*
X9070Y28D01*
X10050Y-20D01*
X619971D01*
X629971Y9980D02*
Y285256D01*
X10050Y295256D02*
X619971D01*
X50Y9980D02*
Y285256D01*
M02*
