G04*
G04 #@! TF.GenerationSoftware,Altium Limited,Altium Designer,23.8.1 (32)*
G04*
G04 Layer_Color=8421504*
%FSLAX44Y44*%
%MOMM*%
G71*
G04*
G04 #@! TF.SameCoordinates,B70ACEF7-E70B-45C2-86D7-E5FBF9B371E4*
G04*
G04*
G04 #@! TF.FilePolarity,Positive*
G04*
G01*
G75*
%ADD15R,1.6000X3.5000*%
%ADD16R,12.2000X9.7500*%
G04:AMPARAMS|DCode=17|XSize=1.4mm|YSize=0.9mm|CornerRadius=0.0675mm|HoleSize=0mm|Usage=FLASHONLY|Rotation=180.000|XOffset=0mm|YOffset=0mm|HoleType=Round|Shape=RoundedRectangle|*
%AMROUNDEDRECTD17*
21,1,1.4000,0.7650,0,0,180.0*
21,1,1.2650,0.9000,0,0,180.0*
1,1,0.1350,-0.6325,0.3825*
1,1,0.1350,0.6325,0.3825*
1,1,0.1350,0.6325,-0.3825*
1,1,0.1350,-0.6325,-0.3825*
%
%ADD17ROUNDEDRECTD17*%
%ADD18R,5.3300X5.5900*%
%ADD19R,6.3500X5.2800*%
G04:AMPARAMS|DCode=20|XSize=5.2mm|YSize=1.5mm|CornerRadius=0.15mm|HoleSize=0mm|Usage=FLASHONLY|Rotation=180.000|XOffset=0mm|YOffset=0mm|HoleType=Round|Shape=RoundedRectangle|*
%AMROUNDEDRECTD20*
21,1,5.2000,1.2000,0,0,180.0*
21,1,4.9000,1.5000,0,0,180.0*
1,1,0.3000,-2.4500,0.6000*
1,1,0.3000,2.4500,0.6000*
1,1,0.3000,2.4500,-0.6000*
1,1,0.3000,-2.4500,-0.6000*
%
%ADD20ROUNDEDRECTD20*%
%ADD21R,3.1734X2.5034*%
%ADD22C,1.0000*%
G04:AMPARAMS|DCode=23|XSize=1.4mm|YSize=0.9mm|CornerRadius=0.0675mm|HoleSize=0mm|Usage=FLASHONLY|Rotation=90.000|XOffset=0mm|YOffset=0mm|HoleType=Round|Shape=RoundedRectangle|*
%AMROUNDEDRECTD23*
21,1,1.4000,0.7650,0,0,90.0*
21,1,1.2650,0.9000,0,0,90.0*
1,1,0.1350,0.3825,0.6325*
1,1,0.1350,0.3825,-0.6325*
1,1,0.1350,-0.3825,-0.6325*
1,1,0.1350,-0.3825,0.6325*
%
%ADD23ROUNDEDRECTD23*%
G04:AMPARAMS|DCode=24|XSize=5.2mm|YSize=1.5mm|CornerRadius=0.15mm|HoleSize=0mm|Usage=FLASHONLY|Rotation=270.000|XOffset=0mm|YOffset=0mm|HoleType=Round|Shape=RoundedRectangle|*
%AMROUNDEDRECTD24*
21,1,5.2000,1.2000,0,0,270.0*
21,1,4.9000,1.5000,0,0,270.0*
1,1,0.3000,-0.6000,-2.4500*
1,1,0.3000,-0.6000,2.4500*
1,1,0.3000,0.6000,2.4500*
1,1,0.3000,0.6000,-2.4500*
%
%ADD24ROUNDEDRECTD24*%
G04:AMPARAMS|DCode=25|XSize=1.9mm|YSize=1.75mm|CornerRadius=0.175mm|HoleSize=0mm|Usage=FLASHONLY|Rotation=180.000|XOffset=0mm|YOffset=0mm|HoleType=Round|Shape=RoundedRectangle|*
%AMROUNDEDRECTD25*
21,1,1.9000,1.4000,0,0,180.0*
21,1,1.5500,1.7500,0,0,180.0*
1,1,0.3500,-0.7750,0.7000*
1,1,0.3500,0.7750,0.7000*
1,1,0.3500,0.7750,-0.7000*
1,1,0.3500,-0.7750,-0.7000*
%
%ADD25ROUNDEDRECTD25*%
G04:AMPARAMS|DCode=26|XSize=2mm|YSize=1.3mm|CornerRadius=0.13mm|HoleSize=0mm|Usage=FLASHONLY|Rotation=180.000|XOffset=0mm|YOffset=0mm|HoleType=Round|Shape=RoundedRectangle|*
%AMROUNDEDRECTD26*
21,1,2.0000,1.0400,0,0,180.0*
21,1,1.7400,1.3000,0,0,180.0*
1,1,0.2600,-0.8700,0.5200*
1,1,0.2600,0.8700,0.5200*
1,1,0.2600,0.8700,-0.5200*
1,1,0.2600,-0.8700,-0.5200*
%
%ADD26ROUNDEDRECTD26*%
G04:AMPARAMS|DCode=27|XSize=1.3mm|YSize=1.3mm|CornerRadius=0.13mm|HoleSize=0mm|Usage=FLASHONLY|Rotation=0.000|XOffset=0mm|YOffset=0mm|HoleType=Round|Shape=RoundedRectangle|*
%AMROUNDEDRECTD27*
21,1,1.3000,1.0400,0,0,0.0*
21,1,1.0400,1.3000,0,0,0.0*
1,1,0.2600,0.5200,-0.5200*
1,1,0.2600,-0.5200,-0.5200*
1,1,0.2600,-0.5200,0.5200*
1,1,0.2600,0.5200,0.5200*
%
%ADD27ROUNDEDRECTD27*%
D15*
X866140Y957580D02*
D03*
X815340D02*
D03*
D16*
X840740Y1060330D02*
D03*
D17*
X1012190Y897250D02*
D03*
Y880750D02*
D03*
X1029970Y897250D02*
D03*
Y880750D02*
D03*
X1047750Y897250D02*
D03*
Y880750D02*
D03*
X920750Y824860D02*
D03*
Y808360D02*
D03*
X1016000Y715650D02*
D03*
Y732150D02*
D03*
X923290Y710570D02*
D03*
Y727070D02*
D03*
X998220Y794390D02*
D03*
Y810890D02*
D03*
X1014730Y810900D02*
D03*
Y827400D02*
D03*
X902970Y808360D02*
D03*
Y824860D02*
D03*
X895350Y763900D02*
D03*
Y747400D02*
D03*
X915670D02*
D03*
Y763900D02*
D03*
D18*
X1019810Y972820D02*
D03*
X1121310D02*
D03*
D19*
X1070560Y1193370D02*
D03*
D20*
X1249680Y863000D02*
D03*
Y915000D02*
D03*
X1304290D02*
D03*
Y863000D02*
D03*
X1085850D02*
D03*
Y915000D02*
D03*
X1140460Y863000D02*
D03*
Y915000D02*
D03*
X1195070Y863000D02*
D03*
Y915000D02*
D03*
D21*
X739140Y1005840D02*
D03*
D22*
X1303020Y727000D02*
D03*
X1254760D02*
D03*
X1229360D02*
D03*
X1280160D02*
D03*
D23*
X922660Y843280D02*
D03*
X939160D02*
D03*
X983620Y838200D02*
D03*
X1000120D02*
D03*
X955680Y728980D02*
D03*
X972180D02*
D03*
X954410Y709930D02*
D03*
X970910D02*
D03*
X1001390Y732790D02*
D03*
X984890D02*
D03*
X1001390Y715010D02*
D03*
X984890D02*
D03*
X1452250Y843280D02*
D03*
X1468750D02*
D03*
X669920D02*
D03*
X653420D02*
D03*
D24*
X817280Y736600D02*
D03*
X869280D02*
D03*
Y850900D02*
D03*
X817280D02*
D03*
Y795020D02*
D03*
X869280D02*
D03*
D25*
X1370330Y874270D02*
D03*
Y906270D02*
D03*
X1344930Y874270D02*
D03*
Y906270D02*
D03*
D26*
X862076Y892026D02*
D03*
Y921026D02*
D03*
D27*
X1409360Y843280D02*
D03*
X1430360D02*
D03*
X707730D02*
D03*
X686730D02*
D03*
M02*
