G04 DipTrace 3.2.0.1*
G04 Bottom.gbr*
%MOMM*%
G04 #@! TF.FileFunction,Copper,L2,Bot*
G04 #@! TF.Part,Single*
G04 #@! TA.AperFunction,CopperBalancing*
%ADD15C,0.635*%
G04 #@! TA.AperFunction,ComponentPad*
%ADD17C,2.5*%
%ADD21R,1.2X1.2*%
%ADD22C,1.2*%
%ADD23R,1.62X1.62*%
%ADD24C,1.62*%
G04 #@! TA.AperFunction,ViaPad*
%ADD28C,0.8*%
%FSLAX35Y35*%
G04*
G71*
G90*
G75*
G01*
G04 Bottom*
%LPD*%
D28*
X1318123Y1819760D3*
X2040000Y2340000D3*
X1138146Y3495083D2*
D15*
X2461917D1*
X1138146Y3431917D2*
X2461917D1*
X1629422Y3368750D2*
X1672594D1*
X1883354D2*
X1926617D1*
X2137377D2*
X2461917D1*
X2185229Y3305583D2*
X2461917D1*
X2197625Y3242417D2*
X2461917D1*
X2183862Y3179250D2*
X2461917D1*
X2135737Y3116083D2*
X2182282D1*
X2389669D2*
X2461917D1*
X1373028Y2863417D2*
X1420940D1*
X1627052D2*
X1674964D1*
X1881075D2*
X1928987D1*
X2135008D2*
X2182920D1*
X2389031D2*
X2461917D1*
X1138146Y2800250D2*
X2461917D1*
X1138146Y2737083D2*
X2461917D1*
X1138146Y2673917D2*
X2461917D1*
X1407482Y2610750D2*
X2461917D1*
X1407482Y2547583D2*
X2461917D1*
X1407482Y2484417D2*
X2461917D1*
X1407482Y2421250D2*
X2461917D1*
X1407482Y2358083D2*
X2461917D1*
X1396271Y2294917D2*
X2461917D1*
X1407482Y2231750D2*
X2461917D1*
X1392442Y2168583D2*
X2461917D1*
X1339122Y2105417D2*
X2461917D1*
X1138146Y2042250D2*
X2461917D1*
X1138146Y1979083D2*
X2461917D1*
X1138146Y1915917D2*
X2461917D1*
X1138146Y1852750D2*
X2461917D1*
X1138146Y1789583D2*
X1999261D1*
X2264435D2*
X2461917D1*
X1138146Y1726417D2*
X1946396D1*
X2317299D2*
X2461917D1*
X1138146Y1663250D2*
X1924977D1*
X2338810D2*
X2461917D1*
X1138146Y1600083D2*
X1924521D1*
X2339265D2*
X2461917D1*
X1138146Y1536917D2*
X1944938D1*
X2318849D2*
X2461917D1*
X1138146Y1473750D2*
X1995797D1*
X2267989D2*
X2461917D1*
X1138146Y1410583D2*
X1483649D1*
X1558328D2*
X1683623D1*
X1758302D2*
X2014573D1*
X2249213D2*
X2461917D1*
X1138146Y1347417D2*
X1396331D1*
X1845620D2*
X1952776D1*
X2311010D2*
X2461917D1*
X1138146Y1284250D2*
X1376552D1*
X1865398D2*
X1927073D1*
X2336713D2*
X2461917D1*
X1138146Y1221083D2*
X1387672D1*
X1854370D2*
X1923154D1*
X2340633D2*
X2461917D1*
X1138146Y1157917D2*
X1442360D1*
X1599617D2*
X1642334D1*
X1799591D2*
X1939651D1*
X2324135D2*
X2461917D1*
X2334540Y1614290D2*
X2332664Y1598438D1*
X2329550Y1582783D1*
X2325217Y1567420D1*
X2319692Y1552444D1*
X2313009Y1537948D1*
X2305210Y1524021D1*
X2296342Y1510749D1*
X2286460Y1498214D1*
X2275624Y1486492D1*
X2263903Y1475657D1*
X2251368Y1465775D1*
X2238095Y1456907D1*
X2224168Y1449107D1*
X2209672Y1442425D1*
X2189116Y1435326D1*
X2209672Y1428055D1*
X2224168Y1421373D1*
X2238095Y1413573D1*
X2251368Y1404705D1*
X2263903Y1394823D1*
X2275624Y1383988D1*
X2286460Y1372266D1*
X2296342Y1359731D1*
X2305210Y1346459D1*
X2313009Y1332532D1*
X2319692Y1318036D1*
X2325217Y1303060D1*
X2329550Y1287697D1*
X2332664Y1272042D1*
X2334540Y1256190D1*
X2335167Y1240240D1*
X2334540Y1224290D1*
X2332664Y1208438D1*
X2329550Y1192783D1*
X2325217Y1177420D1*
X2319692Y1162444D1*
X2313009Y1147948D1*
X2305210Y1134021D1*
X2297000Y1121734D1*
X2468190Y1121750D1*
X2468250Y3558320D1*
X1131810Y3558250D1*
X1131750Y3403242D1*
X1429290Y3403290D1*
Y3372027D1*
X1440771Y3379817D1*
X1463042Y3391165D1*
X1486814Y3398889D1*
X1511502Y3402799D1*
X1536498D1*
X1561186Y3398889D1*
X1584958Y3391165D1*
X1607229Y3379817D1*
X1627451Y3365125D1*
X1645125Y3347451D1*
X1650963Y3340046D1*
X1665365Y3356635D1*
X1684372Y3372868D1*
X1705684Y3385928D1*
X1728777Y3395494D1*
X1753082Y3401329D1*
X1778000Y3403290D1*
X1802918Y3401329D1*
X1827223Y3395494D1*
X1850316Y3385928D1*
X1871628Y3372868D1*
X1890635Y3356635D1*
X1904963Y3340046D1*
X1919365Y3356635D1*
X1938372Y3372868D1*
X1959684Y3385928D1*
X1982777Y3395494D1*
X2007082Y3401329D1*
X2032000Y3403290D1*
X2056918Y3401329D1*
X2081223Y3395494D1*
X2104316Y3385928D1*
X2125628Y3372868D1*
X2144635Y3356635D1*
X2160868Y3337628D1*
X2173928Y3316316D1*
X2183494Y3293223D1*
X2189329Y3268918D1*
X2191290Y3244000D1*
X2189329Y3219082D1*
X2183494Y3194777D1*
X2173928Y3171684D1*
X2160868Y3150372D1*
X2144635Y3131365D1*
X2128046Y3117037D1*
X2144635Y3102635D1*
X2158963Y3086046D1*
X2173365Y3102635D1*
X2192372Y3118868D1*
X2213684Y3131928D1*
X2236777Y3141494D1*
X2261082Y3147329D1*
X2286000Y3149290D1*
X2310918Y3147329D1*
X2335223Y3141494D1*
X2358316Y3131928D1*
X2379628Y3118868D1*
X2398635Y3102635D1*
X2414868Y3083628D1*
X2427928Y3062316D1*
X2437494Y3039223D1*
X2443329Y3014918D1*
X2445290Y2990000D1*
X2443329Y2965082D1*
X2437494Y2940777D1*
X2427928Y2917684D1*
X2414868Y2896372D1*
X2398635Y2877365D1*
X2379628Y2861132D1*
X2358316Y2848072D1*
X2335223Y2838506D1*
X2310918Y2832671D1*
X2286000Y2830710D1*
X2261082Y2832671D1*
X2236777Y2838506D1*
X2213684Y2848072D1*
X2192372Y2861132D1*
X2173365Y2877365D1*
X2159037Y2893954D1*
X2144635Y2877365D1*
X2125628Y2861132D1*
X2104316Y2848072D1*
X2081223Y2838506D1*
X2056918Y2832671D1*
X2032000Y2830710D1*
X2007082Y2832671D1*
X1982777Y2838506D1*
X1959684Y2848072D1*
X1938372Y2861132D1*
X1919365Y2877365D1*
X1905037Y2893954D1*
X1890635Y2877365D1*
X1871628Y2861132D1*
X1850316Y2848072D1*
X1827223Y2838506D1*
X1802918Y2832671D1*
X1778000Y2830710D1*
X1753082Y2832671D1*
X1728777Y2838506D1*
X1705684Y2848072D1*
X1684372Y2861132D1*
X1665365Y2877365D1*
X1651037Y2893954D1*
X1636635Y2877365D1*
X1617628Y2861132D1*
X1596316Y2848072D1*
X1573223Y2838506D1*
X1548918Y2832671D1*
X1524000Y2830710D1*
X1499082Y2832671D1*
X1474777Y2838506D1*
X1451684Y2848072D1*
X1430372Y2861132D1*
X1411365Y2877365D1*
X1397037Y2893954D1*
X1382635Y2877365D1*
X1363628Y2861132D1*
X1342316Y2848072D1*
X1319223Y2838506D1*
X1294918Y2832671D1*
X1270000Y2830710D1*
X1245082Y2832671D1*
X1220777Y2838506D1*
X1197684Y2848072D1*
X1176372Y2861132D1*
X1157365Y2877365D1*
X1141132Y2896372D1*
X1131772Y2911077D1*
X1131750Y2649466D1*
X1401167Y2649530D1*
Y2330950D1*
X1369904D1*
X1377694Y2319469D1*
X1389041Y2297198D1*
X1396765Y2273426D1*
X1400676Y2248738D1*
Y2223742D1*
X1396765Y2199054D1*
X1389041Y2175282D1*
X1377694Y2153011D1*
X1363002Y2132789D1*
X1345327Y2115115D1*
X1325105Y2100423D1*
X1302834Y2089075D1*
X1279062Y2081351D1*
X1254374Y2077441D1*
X1229379D1*
X1204691Y2081351D1*
X1180919Y2089075D1*
X1158648Y2100423D1*
X1138426Y2115115D1*
X1131717Y2121317D1*
X1131750Y1121680D1*
X1966706Y1121750D1*
X1958543Y1134021D1*
X1950744Y1147948D1*
X1944061Y1162444D1*
X1938536Y1177420D1*
X1934204Y1192783D1*
X1931090Y1208438D1*
X1929213Y1224290D1*
X1928587Y1240240D1*
X1929213Y1256190D1*
X1931090Y1272042D1*
X1934204Y1287697D1*
X1938536Y1303060D1*
X1944061Y1318036D1*
X1950744Y1332532D1*
X1958543Y1346459D1*
X1967412Y1359731D1*
X1977294Y1372266D1*
X1988129Y1383988D1*
X1999850Y1394823D1*
X2012386Y1404705D1*
X2025658Y1413573D1*
X2039585Y1421373D1*
X2054081Y1428055D1*
X2074638Y1435154D1*
X2054081Y1442425D1*
X2039585Y1449107D1*
X2025658Y1456907D1*
X2012386Y1465775D1*
X1999850Y1475657D1*
X1988129Y1486492D1*
X1977294Y1498214D1*
X1967412Y1510749D1*
X1958543Y1524021D1*
X1950744Y1537948D1*
X1944061Y1552444D1*
X1938536Y1567420D1*
X1934204Y1582783D1*
X1931090Y1598438D1*
X1929213Y1614290D1*
X1928587Y1630240D1*
X1929213Y1646190D1*
X1931090Y1662042D1*
X1934204Y1677697D1*
X1938536Y1693060D1*
X1944061Y1708036D1*
X1950744Y1722532D1*
X1958543Y1736459D1*
X1967412Y1749731D1*
X1977294Y1762266D1*
X1988129Y1773988D1*
X1999850Y1784823D1*
X2012386Y1794705D1*
X2025658Y1803573D1*
X2039585Y1811373D1*
X2054081Y1818055D1*
X2069057Y1823580D1*
X2084420Y1827913D1*
X2100075Y1831027D1*
X2115927Y1832903D1*
X2131877Y1833530D1*
X2147827Y1832903D1*
X2163678Y1831027D1*
X2179334Y1827913D1*
X2194697Y1823580D1*
X2209672Y1818055D1*
X2224168Y1811373D1*
X2238095Y1803573D1*
X2251368Y1794705D1*
X2263903Y1784823D1*
X2275624Y1773988D1*
X2286460Y1762266D1*
X2296342Y1749731D1*
X2305210Y1736459D1*
X2313009Y1722532D1*
X2319692Y1708036D1*
X2325217Y1693060D1*
X2329550Y1677697D1*
X2332664Y1662042D1*
X2334540Y1646190D1*
X2335167Y1630240D1*
X2334540Y1614290D1*
X1620922Y1180364D2*
X1610789Y1170657D1*
X1593233Y1157902D1*
X1573898Y1148050D1*
X1553260Y1141344D1*
X1531827Y1137950D1*
X1510127D1*
X1488694Y1141344D1*
X1468055Y1148050D1*
X1448720Y1157902D1*
X1431164Y1170657D1*
X1415820Y1186001D1*
X1403065Y1203557D1*
X1393213Y1222892D1*
X1386508Y1243530D1*
X1383113Y1264963D1*
Y1286663D1*
X1386508Y1308096D1*
X1393213Y1328735D1*
X1403065Y1348070D1*
X1415820Y1365626D1*
X1431164Y1380970D1*
X1448720Y1393725D1*
X1468055Y1403577D1*
X1488694Y1410282D1*
X1510127Y1413677D1*
X1531827D1*
X1553260Y1410282D1*
X1573898Y1403577D1*
X1593233Y1393725D1*
X1610789Y1380970D1*
X1620922Y1371263D1*
X1631164Y1380970D1*
X1648720Y1393725D1*
X1668055Y1403577D1*
X1688694Y1410282D1*
X1710127Y1413677D1*
X1731827D1*
X1753260Y1410282D1*
X1773898Y1403577D1*
X1793233Y1393725D1*
X1810789Y1380970D1*
X1826133Y1365626D1*
X1838888Y1348070D1*
X1848740Y1328735D1*
X1855446Y1308096D1*
X1858840Y1286663D1*
Y1264963D1*
X1855446Y1243530D1*
X1848740Y1222892D1*
X1838888Y1203557D1*
X1826133Y1186001D1*
X1810789Y1170657D1*
X1793233Y1157902D1*
X1773898Y1148050D1*
X1753260Y1141344D1*
X1731827Y1137950D1*
X1710127D1*
X1688694Y1141344D1*
X1668055Y1148050D1*
X1648720Y1157902D1*
X1631164Y1170657D1*
X1621031Y1180364D1*
D17*
X2131877Y1630240D3*
Y1240240D3*
D21*
X1320977Y1275813D3*
D22*
X1520977D3*
X1720977D3*
D23*
X1241877Y2490240D3*
D24*
Y2236240D3*
X1270000Y2990000D3*
X1524000D3*
X1778000D3*
X2032000D3*
X2286000D3*
Y3244000D3*
X2032000D3*
X1778000D3*
X1524000D3*
D23*
X1270000D3*
M02*
