M48
INCH
T01C0.0157
T02C0.0276
T03C0.0295
T04C0.0315
T05C0.0354
T06C0.0433
T07C0.1181
%
T01
X+006417Y+014488
X+005906Y+016220
X+007283Y+017874
X+008089Y+016160
X+010906Y+016693
X+010984Y+015354
X+009685Y+013740
X+012638Y+013740
X+014094Y+014094
X+015079Y+014173
X+014252Y+015157
X+014148Y+012661
X+014134Y+012205
X+014173Y+011535
X+014213Y+010709
X+014685Y+010591
X+016929Y+010866
X+017087Y+009606
X+019961Y+007480
X+020512Y+005551
X+021693Y+010354
X+020906Y+014685
X+022244Y+016654
X+017773Y+014910
X+017559Y+013858
X+017441Y+013425
X+016575Y+017913
X+013386Y+019961
X+012598Y+020118
X+013819Y+021496
X+010394Y+020000
X+007598Y+020039
X+006339Y+011417
X+010079Y+010197
X+013583Y+008583
X+027913Y+010354
X+029291Y+011220
X+031220Y+010748
X+032244Y+010079
X+036496Y+012087
X+038346Y+012087
X+038465Y+014724
X+037520Y+014724
X+036417Y+014724
T02
X+033702Y+011164
X+033702Y+010376
X+033676Y+008684
X+033676Y+007896
X+033676Y+006184
X+033676Y+005396
X+037077Y+008851
X+037864Y+008851
X+038651Y+008851
X+033702Y+012876
X+033702Y+013664
X+026272Y+016008
X+025485Y+016008
X+023060Y+015732
X+022272Y+015732
X+022654Y+017911
X+022654Y+018699
X+022654Y+019486
X+022654Y+020274
X+022654Y+021061
X+019785Y+017160
X+018997Y+017160
X+018210Y+017160
X+017423Y+017160
X+016635Y+017160
X+021039Y+012720
X+021827Y+012720
X+015710Y+007724
X+014923Y+007724
T03
X+026614Y+009764
X+026614Y+010551
X+031449Y+013221
X+031449Y+014008
T04
X+023386Y+008504
X+024173Y+008504
X+025079Y+008504
X+025906Y+008543
X+026850Y+008465
X+026811Y+007441
X+025945Y+007441
X+025039Y+007402
X+024213Y+007402
X+023386Y+007402
X+023425Y+006181
X+024173Y+006181
X+025079Y+006181
X+025984Y+006220
X+026850Y+006220
X+027638Y+006260
X+028543Y+006299
X+029409Y+006299
X+029370Y+005276
X+028504Y+005276
X+027598Y+005236
X+026811Y+005236
X+025945Y+005236
X+025039Y+005197
X+024134Y+005197
X+023386Y+005197
T05
X+038952Y+011726
X+038952Y+010726
T06
X+033032Y+011754
X+033032Y+014254
X+036486Y+008182
X+034345Y+007306
X+034345Y+004806
X+024894Y+015339
X+021682Y+015063
X+020449Y+012050
X+016301Y+008393
X+016045Y+016491
X+021985Y+021651
T07
X+004882Y+022283
X+004882Y+004961
X+039055Y+004961
X+039055Y+022283
T00
M30
