G04 DipTrace 3.2.0.1*
G04 TopMask.gbr*
%MOIN*%
G04 #@! TF.FileFunction,Soldermask,Top*
G04 #@! TF.Part,Single*
%ADD23R,0.03937X0.043307*%
%ADD68R,0.055118X0.047244*%
%ADD70R,0.031496X0.086614*%
%ADD72R,0.052874X0.037874*%
%ADD74R,0.25X0.226378*%
%ADD76R,0.116142X0.047244*%
%ADD78R,0.019685X0.055118*%
%ADD80R,0.055118X0.019685*%
%ADD82R,0.066929X0.029528*%
%ADD84R,0.049213X0.033465*%
%ADD86R,0.230315X0.226378*%
%ADD88R,0.090551X0.047244*%
%ADD89R,0.074803X0.031496*%
%ADD91C,0.066929*%
%ADD93R,0.031496X0.074803*%
%ADD95R,0.047244X0.11811*%
%ADD98R,0.11811X0.047244*%
%ADD100R,0.027559X0.041339*%
%ADD102R,0.059055X0.066929*%
%ADD104R,0.035039X0.048622*%
%ADD106R,0.035039X0.023031*%
%ADD108R,0.048622X0.035039*%
%ADD110R,0.023031X0.035039*%
%ADD112C,0.057087*%
%ADD114R,0.057087X0.057087*%
%ADD116R,0.086614X0.047244*%
%ADD118R,0.051181X0.047244*%
%ADD120R,0.035433X0.043307*%
%ADD122R,0.029528X0.066929*%
%ADD124R,0.047244X0.051181*%
%ADD125C,0.055118*%
%ADD127R,0.055118X0.055118*%
%ADD129R,0.066929X0.066929*%
%FSLAX26Y26*%
G04*
G70*
G90*
G75*
G01*
G04 TopMask*
%LPD*%
D127*
X3370155Y1116357D3*
D125*
Y1037617D3*
D124*
X3770156Y739535D3*
Y672606D3*
D127*
X3367564Y539643D3*
D125*
Y618383D3*
D129*
X2846457Y1019685D3*
D124*
X3870155Y739535D3*
Y672606D3*
D127*
X3367564Y789643D3*
D125*
Y868383D3*
D124*
X3820155Y739535D3*
Y672606D3*
D127*
X3370155Y1366357D3*
D125*
Y1287617D3*
D122*
X1208562Y891108D3*
X1080609D3*
X1208562Y984848D3*
X1080609D3*
D129*
X1358546Y759871D3*
X1577273Y616136D3*
D120*
X1258556Y1478546D3*
Y1427365D3*
X1077325Y1428551D3*
Y1479732D3*
D124*
X2501987Y2001609D3*
Y1934680D3*
X3109694Y770686D3*
Y837615D3*
D116*
X2133858Y551181D3*
X2251969D3*
D124*
X1208562Y1666026D3*
Y1732955D3*
D114*
X2661417Y976378D3*
D112*
Y1055118D3*
D124*
X3025315Y1398953D3*
Y1332024D3*
D114*
X3144929Y1322087D3*
D112*
Y1400827D3*
D124*
X2543255Y1051360D3*
Y984430D3*
X3699092Y1416354D3*
Y1349425D3*
X3849092Y1416354D3*
Y1349425D3*
X3749092Y1416354D3*
Y1349425D3*
D118*
X3847467Y1253856D3*
X3914396D3*
D110*
X3192913Y893701D3*
D108*
X3228543D3*
D106*
X3079080Y945311D3*
D104*
Y980941D3*
D102*
X2117045Y751969D3*
X2042241D3*
X1053703Y1309814D3*
X978900D3*
X1053703Y1228572D3*
X978900D3*
D100*
X707382Y1661598D3*
X758568D3*
X732975Y1744276D3*
D102*
X1053703Y1147331D3*
X978900D3*
X1053703Y1072339D3*
X978900D3*
D129*
X3125984Y527559D3*
D127*
X1571024Y772370D3*
D125*
X1492283D3*
D98*
X977147Y2172223D3*
Y1878916D3*
D89*
X1109037Y2050176D3*
Y2000963D3*
Y2099388D3*
Y1951751D3*
D98*
X1270866Y2172223D3*
Y1878916D3*
D89*
X1402756Y2050176D3*
Y2000963D3*
Y2099388D3*
Y1951751D3*
D95*
X571265Y1378530D3*
X817328D3*
D93*
X644100Y1510420D3*
X693312D3*
X742525D3*
X644100D3*
D125*
X1820997Y1716021D3*
X1899738D3*
X1978478D3*
X1742257D3*
D127*
X1663517D3*
D98*
X683428Y2172223D3*
Y1878916D3*
D89*
X815318Y2050176D3*
Y2000963D3*
Y2099388D3*
Y1951751D3*
D95*
X566929Y1078740D3*
X812992D3*
D93*
X639764Y1210630D3*
X688976D3*
X738189D3*
X639764D3*
D125*
X2265449Y1948614D3*
Y1869874D3*
Y1791134D3*
Y2027354D3*
D127*
Y2106094D3*
X3707655Y885108D3*
D125*
X3786395D3*
X3865135D3*
D129*
X3895155Y1172605D3*
D91*
Y1072605D3*
D23*
X3078740Y1062992D3*
X3041339Y1141732D3*
X3116142D3*
D88*
X2287031Y938871D3*
Y1118399D3*
D86*
X2001598Y1028635D3*
D88*
X2744094Y1267717D3*
Y1447244D3*
D86*
X2458661Y1357480D3*
D84*
X3596780Y1139929D3*
Y1214732D3*
X3506228Y1177331D3*
D118*
X1139819Y1371619D3*
X1206748D3*
D124*
X3221167Y1147081D3*
Y1080152D3*
X3165639Y1144105D3*
Y1077176D3*
D118*
X2204724Y751969D3*
X2271654D3*
X1421039Y916105D3*
X1487969D3*
X1627268Y909856D3*
X1560339D3*
D124*
X1495843Y2115979D3*
Y2182908D3*
Y2040987D3*
Y1974058D3*
D118*
X987505Y1534781D3*
X1054434D3*
X1187940Y1278567D3*
X1121010D3*
X1187940Y1222323D3*
X1121010D3*
X766636Y1616030D3*
X699707D3*
X1187940Y1159829D3*
X1121010D3*
X1187940Y1103585D3*
X1121010D3*
X1358546Y978598D3*
X1291617D3*
X1358546Y909856D3*
X1291617D3*
X2399520Y957619D3*
X2466449D3*
X2405769Y1095105D3*
X2472698D3*
X2864646Y1448948D3*
X2931575D3*
X2387021Y1195094D3*
X2320092D3*
X2825336Y1530189D3*
X2758407D3*
X3851404Y1303856D3*
X3918333D3*
D124*
X3799092Y1416354D3*
Y1349425D3*
X3592841Y1347606D3*
Y1414535D3*
X3642841Y1416354D3*
Y1349425D3*
D118*
X2856583Y1317711D3*
X2923512D3*
D127*
X2103927Y1271961D3*
D125*
X2182667D3*
D127*
X2548491Y1600806D3*
D125*
X2627231D3*
D127*
X2227232Y1573203D3*
D125*
X2305972D3*
D129*
X1818898Y1881890D3*
X1897638D3*
D82*
X2414496Y2051604D3*
Y1923651D3*
D129*
X1988189Y1881890D3*
D80*
X1352297Y1384806D3*
Y1365121D3*
Y1345436D3*
Y1325751D3*
Y1306066D3*
Y1286381D3*
Y1266696D3*
Y1247010D3*
Y1227325D3*
Y1207640D3*
Y1187955D3*
Y1168270D3*
Y1148585D3*
Y1128900D3*
Y1109215D3*
Y1089530D3*
D78*
X1431037Y1010790D3*
X1450722D3*
X1470407D3*
X1490092D3*
X1509777D3*
X1529462D3*
X1549147D3*
X1568832D3*
X1588517D3*
X1608202D3*
X1627887D3*
X1647572D3*
X1667257D3*
X1686942D3*
X1706627D3*
X1726312D3*
D80*
X1805052Y1089530D3*
Y1109215D3*
Y1128900D3*
Y1148585D3*
Y1168270D3*
Y1187955D3*
Y1207640D3*
Y1227325D3*
Y1247010D3*
Y1266696D3*
Y1286381D3*
Y1306066D3*
Y1325751D3*
Y1345436D3*
Y1365121D3*
Y1384806D3*
D78*
X1726312Y1463546D3*
X1706627D3*
X1686942D3*
X1667257D3*
X1647572D3*
X1627887D3*
X1608202D3*
X1588517D3*
X1568832D3*
X1549147D3*
X1529462D3*
X1509777D3*
X1490092D3*
X1470407D3*
X1450722D3*
X1431037D3*
D76*
X3108352Y708482D3*
Y888009D3*
D74*
X2844572Y798245D3*
D72*
X1150005Y1622281D3*
Y1672281D3*
Y1722281D3*
Y1772281D3*
X909507D3*
Y1722281D3*
Y1672281D3*
Y1622281D3*
D70*
X3801406Y1272605D3*
X3751406D3*
X3701406D3*
X3651406D3*
Y1060007D3*
X3701406D3*
X3751406D3*
X3801406D3*
D68*
X1139819Y1478546D3*
Y1427365D3*
X1206748Y1478546D3*
Y1427365D3*
M02*
