G04*
G04 #@! TF.GenerationSoftware,Altium Limited,Altium Designer,21.0.9 (235)*
G04*
G04 Layer_Color=32768*
%FSLAX25Y25*%
%MOIN*%
G70*
G04*
G04 #@! TF.SameCoordinates,EF3E8415-0D1F-43D6-88A8-43D94B7D360D*
G04*
G04*
G04 #@! TF.FilePolarity,Positive*
G04*
G01*
G75*
%ADD97C,0.00197*%
D97*
X189890Y618221D02*
X203157D01*
X189890Y625779D02*
X203157D01*
X189890Y618221D02*
Y625779D01*
X203157Y618221D02*
Y625779D01*
X328980Y760000D02*
X332720D01*
X330850Y758130D02*
Y761870D01*
X377780Y759500D02*
X381520D01*
X379650Y757630D02*
Y761370D01*
X328480Y765500D02*
X332221D01*
X330350Y763630D02*
Y767370D01*
X308445Y723524D02*
X432461D01*
Y848524D01*
X419665D02*
X432461D01*
X316319D02*
X419665D01*
X308445D02*
X316319D01*
X308445Y723524D02*
Y848524D01*
X362343Y712220D02*
Y719779D01*
X375610Y712220D02*
Y719779D01*
X362343D02*
X375610D01*
X362343Y712220D02*
X375610D01*
X257000Y654779D02*
Y658520D01*
X255130Y656650D02*
X258870D01*
X268000Y654779D02*
Y658520D01*
X266130Y656650D02*
X269870D01*
X411342Y653221D02*
X424610D01*
X411342Y660779D02*
X424610D01*
X411342Y653221D02*
Y660779D01*
X424610Y653221D02*
Y660779D01*
X191842Y755221D02*
X205110D01*
X191842Y762780D02*
X205110D01*
X191842Y755221D02*
Y762780D01*
X205110Y755221D02*
Y762780D01*
X461110Y573220D02*
Y580780D01*
X447843Y573220D02*
Y580780D01*
X461110D01*
X447843Y573220D02*
X461110D01*
X506610Y575220D02*
Y582780D01*
X493342Y575220D02*
Y582780D01*
X506610D01*
X493342Y575220D02*
X506610D01*
X507980Y532500D02*
X511721D01*
X509850Y530630D02*
Y534370D01*
X434390Y723779D02*
X447657D01*
X434390Y716221D02*
X447657D01*
Y723779D01*
X434390Y716221D02*
Y723779D01*
M02*
