G04*
G04 #@! TF.GenerationSoftware,Altium Limited,Altium Designer,21.6.4 (81)*
G04*
G04 Layer_Color=255*
%FSLAX25Y25*%
%MOIN*%
G70*
G04*
G04 #@! TF.SameCoordinates,612E0561-CA96-4152-8DAB-8F70A6F423CF*
G04*
G04*
G04 #@! TF.FilePolarity,Positive*
G04*
G01*
G75*
G04:AMPARAMS|DCode=20|XSize=55.12mil|YSize=35.43mil|CornerRadius=2.66mil|HoleSize=0mil|Usage=FLASHONLY|Rotation=270.000|XOffset=0mil|YOffset=0mil|HoleType=Round|Shape=RoundedRectangle|*
%AMROUNDEDRECTD20*
21,1,0.05512,0.03012,0,0,270.0*
21,1,0.04980,0.03543,0,0,270.0*
1,1,0.00532,-0.01506,-0.02490*
1,1,0.00532,-0.01506,0.02490*
1,1,0.00532,0.01506,0.02490*
1,1,0.00532,0.01506,-0.02490*
%
%ADD20ROUNDEDRECTD20*%
G04:AMPARAMS|DCode=21|XSize=49.21mil|YSize=62.99mil|CornerRadius=4.92mil|HoleSize=0mil|Usage=FLASHONLY|Rotation=225.000|XOffset=0mil|YOffset=0mil|HoleType=Round|Shape=RoundedRectangle|*
%AMROUNDEDRECTD21*
21,1,0.04921,0.05315,0,0,225.0*
21,1,0.03937,0.06299,0,0,225.0*
1,1,0.00984,-0.03271,0.00487*
1,1,0.00984,-0.00487,0.03271*
1,1,0.00984,0.03271,-0.00487*
1,1,0.00984,0.00487,-0.03271*
%
%ADD21ROUNDEDRECTD21*%
G04:AMPARAMS|DCode=22|XSize=11.81mil|YSize=70.87mil|CornerRadius=0mil|HoleSize=0mil|Usage=FLASHONLY|Rotation=135.000|XOffset=0mil|YOffset=0mil|HoleType=Round|Shape=Round|*
%AMOVALD22*
21,1,0.05906,0.01181,0.00000,0.00000,225.0*
1,1,0.01181,0.02088,0.02088*
1,1,0.01181,-0.02088,-0.02088*
%
%ADD22OVALD22*%

G04:AMPARAMS|DCode=23|XSize=11.81mil|YSize=70.87mil|CornerRadius=0mil|HoleSize=0mil|Usage=FLASHONLY|Rotation=45.000|XOffset=0mil|YOffset=0mil|HoleType=Round|Shape=Round|*
%AMOVALD23*
21,1,0.05906,0.01181,0.00000,0.00000,135.0*
1,1,0.01181,0.02088,-0.02088*
1,1,0.01181,-0.02088,0.02088*
%
%ADD23OVALD23*%

G04:AMPARAMS|DCode=24|XSize=55.12mil|YSize=35.43mil|CornerRadius=2.66mil|HoleSize=0mil|Usage=FLASHONLY|Rotation=180.000|XOffset=0mil|YOffset=0mil|HoleType=Round|Shape=RoundedRectangle|*
%AMROUNDEDRECTD24*
21,1,0.05512,0.03012,0,0,180.0*
21,1,0.04980,0.03543,0,0,180.0*
1,1,0.00532,-0.02490,0.01506*
1,1,0.00532,0.02490,0.01506*
1,1,0.00532,0.02490,-0.01506*
1,1,0.00532,-0.02490,-0.01506*
%
%ADD24ROUNDEDRECTD24*%
%ADD25R,0.03543X0.03543*%
%ADD26R,0.03543X0.02362*%
G04:AMPARAMS|DCode=27|XSize=49.21mil|YSize=62.99mil|CornerRadius=4.92mil|HoleSize=0mil|Usage=FLASHONLY|Rotation=180.000|XOffset=0mil|YOffset=0mil|HoleType=Round|Shape=RoundedRectangle|*
%AMROUNDEDRECTD27*
21,1,0.04921,0.05315,0,0,180.0*
21,1,0.03937,0.06299,0,0,180.0*
1,1,0.00984,-0.01968,0.02657*
1,1,0.00984,0.01968,0.02657*
1,1,0.00984,0.01968,-0.02657*
1,1,0.00984,-0.01968,-0.02657*
%
%ADD27ROUNDEDRECTD27*%
%ADD28C,0.03937*%
G04:AMPARAMS|DCode=29|XSize=55.12mil|YSize=35.43mil|CornerRadius=2.66mil|HoleSize=0mil|Usage=FLASHONLY|Rotation=225.000|XOffset=0mil|YOffset=0mil|HoleType=Round|Shape=RoundedRectangle|*
%AMROUNDEDRECTD29*
21,1,0.05512,0.03012,0,0,225.0*
21,1,0.04980,0.03543,0,0,225.0*
1,1,0.00532,-0.02826,-0.00696*
1,1,0.00532,0.00696,0.02826*
1,1,0.00532,0.02826,0.00696*
1,1,0.00532,-0.00696,-0.02826*
%
%ADD29ROUNDEDRECTD29*%
%ADD30R,0.03543X0.03150*%
G04:AMPARAMS|DCode=31|XSize=49.21mil|YSize=15.75mil|CornerRadius=1.18mil|HoleSize=0mil|Usage=FLASHONLY|Rotation=180.000|XOffset=0mil|YOffset=0mil|HoleType=Round|Shape=RoundedRectangle|*
%AMROUNDEDRECTD31*
21,1,0.04921,0.01339,0,0,180.0*
21,1,0.04685,0.01575,0,0,180.0*
1,1,0.00236,-0.02343,0.00669*
1,1,0.00236,0.02343,0.00669*
1,1,0.00236,0.02343,-0.00669*
1,1,0.00236,-0.02343,-0.00669*
%
%ADD31ROUNDEDRECTD31*%
G04:AMPARAMS|DCode=32|XSize=78.74mil|YSize=88.58mil|CornerRadius=5.91mil|HoleSize=0mil|Usage=FLASHONLY|Rotation=180.000|XOffset=0mil|YOffset=0mil|HoleType=Round|Shape=RoundedRectangle|*
%AMROUNDEDRECTD32*
21,1,0.07874,0.07677,0,0,180.0*
21,1,0.06693,0.08858,0,0,180.0*
1,1,0.01181,-0.03347,0.03839*
1,1,0.01181,0.03347,0.03839*
1,1,0.01181,0.03347,-0.03839*
1,1,0.01181,-0.03347,-0.03839*
%
%ADD32ROUNDEDRECTD32*%
G04:AMPARAMS|DCode=33|XSize=35.43mil|YSize=118.11mil|CornerRadius=2.66mil|HoleSize=0mil|Usage=FLASHONLY|Rotation=0.000|XOffset=0mil|YOffset=0mil|HoleType=Round|Shape=RoundedRectangle|*
%AMROUNDEDRECTD33*
21,1,0.03543,0.11280,0,0,0.0*
21,1,0.03012,0.11811,0,0,0.0*
1,1,0.00532,0.01506,-0.05640*
1,1,0.00532,-0.01506,-0.05640*
1,1,0.00532,-0.01506,0.05640*
1,1,0.00532,0.01506,0.05640*
%
%ADD33ROUNDEDRECTD33*%
G04:AMPARAMS|DCode=34|XSize=74.8mil|YSize=157.48mil|CornerRadius=5.61mil|HoleSize=0mil|Usage=FLASHONLY|Rotation=0.000|XOffset=0mil|YOffset=0mil|HoleType=Round|Shape=RoundedRectangle|*
%AMROUNDEDRECTD34*
21,1,0.07480,0.14626,0,0,0.0*
21,1,0.06358,0.15748,0,0,0.0*
1,1,0.01122,0.03179,-0.07313*
1,1,0.01122,-0.03179,-0.07313*
1,1,0.01122,-0.03179,0.07313*
1,1,0.01122,0.03179,0.07313*
%
%ADD34ROUNDEDRECTD34*%
G04:AMPARAMS|DCode=35|XSize=43.31mil|YSize=59.06mil|CornerRadius=4.33mil|HoleSize=0mil|Usage=FLASHONLY|Rotation=90.000|XOffset=0mil|YOffset=0mil|HoleType=Round|Shape=RoundedRectangle|*
%AMROUNDEDRECTD35*
21,1,0.04331,0.05039,0,0,90.0*
21,1,0.03465,0.05906,0,0,90.0*
1,1,0.00866,0.02520,0.01732*
1,1,0.00866,0.02520,-0.01732*
1,1,0.00866,-0.02520,-0.01732*
1,1,0.00866,-0.02520,0.01732*
%
%ADD35ROUNDEDRECTD35*%
%ADD36R,0.02362X0.03543*%
%ADD37R,0.03543X0.03543*%
G04:AMPARAMS|DCode=38|XSize=49.21mil|YSize=62.99mil|CornerRadius=4.92mil|HoleSize=0mil|Usage=FLASHONLY|Rotation=90.000|XOffset=0mil|YOffset=0mil|HoleType=Round|Shape=RoundedRectangle|*
%AMROUNDEDRECTD38*
21,1,0.04921,0.05315,0,0,90.0*
21,1,0.03937,0.06299,0,0,90.0*
1,1,0.00984,0.02657,0.01968*
1,1,0.00984,0.02657,-0.01968*
1,1,0.00984,-0.02657,-0.01968*
1,1,0.00984,-0.02657,0.01968*
%
%ADD38ROUNDEDRECTD38*%
G04:AMPARAMS|DCode=39|XSize=25.59mil|YSize=23.62mil|CornerRadius=1.77mil|HoleSize=0mil|Usage=FLASHONLY|Rotation=315.000|XOffset=0mil|YOffset=0mil|HoleType=Round|Shape=RoundedRectangle|*
%AMROUNDEDRECTD39*
21,1,0.02559,0.02008,0,0,315.0*
21,1,0.02205,0.02362,0,0,315.0*
1,1,0.00354,0.00070,-0.01489*
1,1,0.00354,-0.01489,0.00070*
1,1,0.00354,-0.00070,0.01489*
1,1,0.00354,0.01489,-0.00070*
%
%ADD39ROUNDEDRECTD39*%
G04:AMPARAMS|DCode=40|XSize=13.78mil|YSize=27.56mil|CornerRadius=1.03mil|HoleSize=0mil|Usage=FLASHONLY|Rotation=315.000|XOffset=0mil|YOffset=0mil|HoleType=Round|Shape=RoundedRectangle|*
%AMROUNDEDRECTD40*
21,1,0.01378,0.02549,0,0,315.0*
21,1,0.01171,0.02756,0,0,315.0*
1,1,0.00207,-0.00487,-0.01315*
1,1,0.00207,-0.01315,-0.00487*
1,1,0.00207,0.00487,0.01315*
1,1,0.00207,0.01315,0.00487*
%
%ADD40ROUNDEDRECTD40*%
G04:AMPARAMS|DCode=41|XSize=51.18mil|YSize=51.18mil|CornerRadius=5.12mil|HoleSize=0mil|Usage=FLASHONLY|Rotation=90.000|XOffset=0mil|YOffset=0mil|HoleType=Round|Shape=RoundedRectangle|*
%AMROUNDEDRECTD41*
21,1,0.05118,0.04095,0,0,90.0*
21,1,0.04095,0.05118,0,0,90.0*
1,1,0.01024,0.02047,0.02047*
1,1,0.01024,0.02047,-0.02047*
1,1,0.01024,-0.02047,-0.02047*
1,1,0.01024,-0.02047,0.02047*
%
%ADD41ROUNDEDRECTD41*%
G04:AMPARAMS|DCode=42|XSize=51.18mil|YSize=51.18mil|CornerRadius=5.12mil|HoleSize=0mil|Usage=FLASHONLY|Rotation=180.000|XOffset=0mil|YOffset=0mil|HoleType=Round|Shape=RoundedRectangle|*
%AMROUNDEDRECTD42*
21,1,0.05118,0.04095,0,0,180.0*
21,1,0.04095,0.05118,0,0,180.0*
1,1,0.01024,-0.02047,0.02047*
1,1,0.01024,0.02047,0.02047*
1,1,0.01024,0.02047,-0.02047*
1,1,0.01024,-0.02047,-0.02047*
%
%ADD42ROUNDEDRECTD42*%
%ADD43R,0.04724X0.02362*%
%ADD44R,0.03150X0.03543*%
%ADD45R,0.11417X0.04331*%
%ADD46R,0.21654X0.21260*%
G04:AMPARAMS|DCode=47|XSize=49.21mil|YSize=62.99mil|CornerRadius=4.92mil|HoleSize=0mil|Usage=FLASHONLY|Rotation=44.000|XOffset=0mil|YOffset=0mil|HoleType=Round|Shape=RoundedRectangle|*
%AMROUNDEDRECTD47*
21,1,0.04921,0.05315,0,0,44.0*
21,1,0.03937,0.06299,0,0,44.0*
1,1,0.00984,0.03262,-0.00544*
1,1,0.00984,0.00430,-0.03279*
1,1,0.00984,-0.03262,0.00544*
1,1,0.00984,-0.00430,0.03279*
%
%ADD47ROUNDEDRECTD47*%
G04:AMPARAMS|DCode=48|XSize=55.12mil|YSize=35.43mil|CornerRadius=2.66mil|HoleSize=0mil|Usage=FLASHONLY|Rotation=135.000|XOffset=0mil|YOffset=0mil|HoleType=Round|Shape=RoundedRectangle|*
%AMROUNDEDRECTD48*
21,1,0.05512,0.03012,0,0,135.0*
21,1,0.04980,0.03543,0,0,135.0*
1,1,0.00532,-0.00696,0.02826*
1,1,0.00532,0.02826,-0.00696*
1,1,0.00532,0.00696,-0.02826*
1,1,0.00532,-0.02826,0.00696*
%
%ADD48ROUNDEDRECTD48*%
G04:AMPARAMS|DCode=49|XSize=51.18mil|YSize=43.31mil|CornerRadius=0mil|HoleSize=0mil|Usage=FLASHONLY|Rotation=45.000|XOffset=0mil|YOffset=0mil|HoleType=Round|Shape=Rectangle|*
%AMROTATEDRECTD49*
4,1,4,-0.00278,-0.03341,-0.03341,-0.00278,0.00278,0.03341,0.03341,0.00278,-0.00278,-0.03341,0.0*
%
%ADD49ROTATEDRECTD49*%

G04:AMPARAMS|DCode=50|XSize=24.8mil|YSize=51.18mil|CornerRadius=1.86mil|HoleSize=0mil|Usage=FLASHONLY|Rotation=90.000|XOffset=0mil|YOffset=0mil|HoleType=Round|Shape=RoundedRectangle|*
%AMROUNDEDRECTD50*
21,1,0.02480,0.04746,0,0,90.0*
21,1,0.02108,0.05118,0,0,90.0*
1,1,0.00372,0.02373,0.01054*
1,1,0.00372,0.02373,-0.01054*
1,1,0.00372,-0.02373,-0.01054*
1,1,0.00372,-0.02373,0.01054*
%
%ADD50ROUNDEDRECTD50*%
G04:AMPARAMS|DCode=51|XSize=49.21mil|YSize=62.99mil|CornerRadius=4.92mil|HoleSize=0mil|Usage=FLASHONLY|Rotation=135.000|XOffset=0mil|YOffset=0mil|HoleType=Round|Shape=RoundedRectangle|*
%AMROUNDEDRECTD51*
21,1,0.04921,0.05315,0,0,135.0*
21,1,0.03937,0.06299,0,0,135.0*
1,1,0.00984,0.00487,0.03271*
1,1,0.00984,0.03271,0.00487*
1,1,0.00984,-0.00487,-0.03271*
1,1,0.00984,-0.03271,-0.00487*
%
%ADD51ROUNDEDRECTD51*%
G04:AMPARAMS|DCode=52|XSize=90.55mil|YSize=98.43mil|CornerRadius=6.79mil|HoleSize=0mil|Usage=FLASHONLY|Rotation=90.000|XOffset=0mil|YOffset=0mil|HoleType=Round|Shape=RoundedRectangle|*
%AMROUNDEDRECTD52*
21,1,0.09055,0.08484,0,0,90.0*
21,1,0.07697,0.09843,0,0,90.0*
1,1,0.01358,0.04242,0.03848*
1,1,0.01358,0.04242,-0.03848*
1,1,0.01358,-0.04242,-0.03848*
1,1,0.01358,-0.04242,0.03848*
%
%ADD52ROUNDEDRECTD52*%
%ADD53R,0.21260X0.21654*%
%ADD54R,0.04331X0.11417*%
G04:AMPARAMS|DCode=55|XSize=157.48mil|YSize=167.32mil|CornerRadius=11.81mil|HoleSize=0mil|Usage=FLASHONLY|Rotation=90.000|XOffset=0mil|YOffset=0mil|HoleType=Round|Shape=RoundedRectangle|*
%AMROUNDEDRECTD55*
21,1,0.15748,0.14370,0,0,90.0*
21,1,0.13386,0.16732,0,0,90.0*
1,1,0.02362,0.07185,0.06693*
1,1,0.02362,0.07185,-0.06693*
1,1,0.02362,-0.07185,-0.06693*
1,1,0.02362,-0.07185,0.06693*
%
%ADD55ROUNDEDRECTD55*%
%ADD56R,0.02362X0.04724*%
G04:AMPARAMS|DCode=57|XSize=70.87mil|YSize=157.48mil|CornerRadius=7.09mil|HoleSize=0mil|Usage=FLASHONLY|Rotation=0.000|XOffset=0mil|YOffset=0mil|HoleType=Round|Shape=RoundedRectangle|*
%AMROUNDEDRECTD57*
21,1,0.07087,0.14331,0,0,0.0*
21,1,0.05669,0.15748,0,0,0.0*
1,1,0.01417,0.02835,-0.07165*
1,1,0.01417,-0.02835,-0.07165*
1,1,0.01417,-0.02835,0.07165*
1,1,0.01417,0.02835,0.07165*
%
%ADD57ROUNDEDRECTD57*%
%ADD58R,0.38976X0.34646*%
G04:AMPARAMS|DCode=59|XSize=106.3mil|YSize=41.73mil|CornerRadius=5.22mil|HoleSize=0mil|Usage=FLASHONLY|Rotation=90.000|XOffset=0mil|YOffset=0mil|HoleType=Round|Shape=RoundedRectangle|*
%AMROUNDEDRECTD59*
21,1,0.10630,0.03130,0,0,90.0*
21,1,0.09587,0.04173,0,0,90.0*
1,1,0.01043,0.01565,0.04793*
1,1,0.01043,0.01565,-0.04793*
1,1,0.01043,-0.01565,-0.04793*
1,1,0.01043,-0.01565,0.04793*
%
%ADD59ROUNDEDRECTD59*%
G04:AMPARAMS|DCode=60|XSize=78.74mil|YSize=51.18mil|CornerRadius=5.12mil|HoleSize=0mil|Usage=FLASHONLY|Rotation=180.000|XOffset=0mil|YOffset=0mil|HoleType=Round|Shape=RoundedRectangle|*
%AMROUNDEDRECTD60*
21,1,0.07874,0.04095,0,0,180.0*
21,1,0.06850,0.05118,0,0,180.0*
1,1,0.01024,-0.03425,0.02047*
1,1,0.01024,0.03425,0.02047*
1,1,0.01024,0.03425,-0.02047*
1,1,0.01024,-0.03425,-0.02047*
%
%ADD60ROUNDEDRECTD60*%
G04:AMPARAMS|DCode=61|XSize=86.61mil|YSize=23.62mil|CornerRadius=1.77mil|HoleSize=0mil|Usage=FLASHONLY|Rotation=90.000|XOffset=0mil|YOffset=0mil|HoleType=Round|Shape=RoundedRectangle|*
%AMROUNDEDRECTD61*
21,1,0.08661,0.02008,0,0,90.0*
21,1,0.08307,0.02362,0,0,90.0*
1,1,0.00354,0.01004,0.04153*
1,1,0.00354,0.01004,-0.04153*
1,1,0.00354,-0.01004,-0.04153*
1,1,0.00354,-0.01004,0.04153*
%
%ADD61ROUNDEDRECTD61*%
%ADD62R,0.34646X0.38976*%
G04:AMPARAMS|DCode=63|XSize=106.3mil|YSize=41.73mil|CornerRadius=5.22mil|HoleSize=0mil|Usage=FLASHONLY|Rotation=180.000|XOffset=0mil|YOffset=0mil|HoleType=Round|Shape=RoundedRectangle|*
%AMROUNDEDRECTD63*
21,1,0.10630,0.03130,0,0,180.0*
21,1,0.09587,0.04173,0,0,180.0*
1,1,0.01043,-0.04793,0.01565*
1,1,0.01043,0.04793,0.01565*
1,1,0.01043,0.04793,-0.01565*
1,1,0.01043,-0.04793,-0.01565*
%
%ADD63ROUNDEDRECTD63*%
G04:AMPARAMS|DCode=64|XSize=39.37mil|YSize=122.05mil|CornerRadius=2.95mil|HoleSize=0mil|Usage=FLASHONLY|Rotation=0.000|XOffset=0mil|YOffset=0mil|HoleType=Round|Shape=RoundedRectangle|*
%AMROUNDEDRECTD64*
21,1,0.03937,0.11614,0,0,0.0*
21,1,0.03347,0.12205,0,0,0.0*
1,1,0.00591,0.01673,-0.05807*
1,1,0.00591,-0.01673,-0.05807*
1,1,0.00591,-0.01673,0.05807*
1,1,0.00591,0.01673,0.05807*
%
%ADD64ROUNDEDRECTD64*%
%ADD65R,0.02900X0.11000*%
%ADD124C,0.10000*%
%ADD125C,0.04685*%
%ADD126C,0.06142*%
%ADD127C,0.09055*%
%ADD128C,0.07874*%
%ADD129C,0.11811*%
%ADD130C,0.15630*%
%ADD131C,0.05906*%
%ADD132R,0.05906X0.05906*%
D20*
X243334Y81100D02*
D03*
X249830D02*
D03*
X70738Y268015D02*
D03*
X64242D02*
D03*
X-49798Y286605D02*
D03*
X-43302D02*
D03*
X293047Y325054D02*
D03*
X286551D02*
D03*
X324041Y309900D02*
D03*
X317545D02*
D03*
X230830Y73820D02*
D03*
X237326D02*
D03*
X65982Y79000D02*
D03*
X72478D02*
D03*
X42125Y153167D02*
D03*
X35629D02*
D03*
X42085Y174979D02*
D03*
X35589D02*
D03*
X-50496Y221370D02*
D03*
X-44000D02*
D03*
X174378Y314000D02*
D03*
X167882D02*
D03*
X152882D02*
D03*
X159378D02*
D03*
X137382D02*
D03*
X143878D02*
D03*
X167882Y291000D02*
D03*
X174378D02*
D03*
X152882D02*
D03*
X159378D02*
D03*
X137382D02*
D03*
X143878D02*
D03*
X-39718Y256000D02*
D03*
X-33222D02*
D03*
X-34818Y165900D02*
D03*
X-28322D02*
D03*
X122838Y184115D02*
D03*
X116342D02*
D03*
X102442Y177715D02*
D03*
X108938D02*
D03*
X102342Y169715D02*
D03*
X108838D02*
D03*
X82182Y85800D02*
D03*
X88678D02*
D03*
X-70618Y86500D02*
D03*
X-64122D02*
D03*
X179703Y175962D02*
D03*
X173207D02*
D03*
X172842Y145015D02*
D03*
X179338D02*
D03*
X51538Y255315D02*
D03*
X45042D02*
D03*
X284142Y70815D02*
D03*
X290638D02*
D03*
X276473Y63984D02*
D03*
X282969D02*
D03*
X220624Y77215D02*
D03*
X214128D02*
D03*
X265516Y198187D02*
D03*
X259020D02*
D03*
X197181Y261964D02*
D03*
X203677D02*
D03*
X203613Y284190D02*
D03*
X197117D02*
D03*
X300138Y332215D02*
D03*
X293642D02*
D03*
X281642D02*
D03*
X288138D02*
D03*
X182747Y375055D02*
D03*
X189243D02*
D03*
X115490Y375607D02*
D03*
X121986D02*
D03*
X-49798Y351383D02*
D03*
X-43302D02*
D03*
X50042Y300815D02*
D03*
X56538D02*
D03*
X-50479Y155794D02*
D03*
X-43983D02*
D03*
X62942Y252715D02*
D03*
X69438D02*
D03*
X173136Y154103D02*
D03*
X179632D02*
D03*
X80938Y252715D02*
D03*
X74442D02*
D03*
D21*
X153981Y242206D02*
D03*
X148998Y237223D02*
D03*
X81181Y196007D02*
D03*
X76198Y191023D02*
D03*
X145398Y162923D02*
D03*
X150381Y167906D02*
D03*
D22*
X84740Y231761D02*
D03*
X86132Y230369D02*
D03*
X87524Y228977D02*
D03*
X88916Y227585D02*
D03*
X90307Y226193D02*
D03*
X91699Y224801D02*
D03*
X93091Y223409D02*
D03*
X94483Y222017D02*
D03*
X95875Y220625D02*
D03*
X97267Y219233D02*
D03*
X98659Y217841D02*
D03*
X100051Y216449D02*
D03*
X101443Y215057D02*
D03*
X102835Y213665D02*
D03*
X104227Y212273D02*
D03*
X105619Y210881D02*
D03*
X136520Y241783D02*
D03*
X135128Y243175D02*
D03*
X133736Y244566D02*
D03*
X132344Y245958D02*
D03*
X130952Y247350D02*
D03*
X129560Y248742D02*
D03*
X128168Y250134D02*
D03*
X126776Y251526D02*
D03*
X125384Y252918D02*
D03*
X123992Y254310D02*
D03*
X122601Y255702D02*
D03*
X121209Y257094D02*
D03*
X119817Y258486D02*
D03*
X118425Y259878D02*
D03*
X117033Y261270D02*
D03*
X115641Y262662D02*
D03*
D23*
Y210881D02*
D03*
X117033Y212273D02*
D03*
X118425Y213665D02*
D03*
X119817Y215057D02*
D03*
X121209Y216449D02*
D03*
X122601Y217841D02*
D03*
X123992Y219233D02*
D03*
X125384Y220625D02*
D03*
X126776Y222017D02*
D03*
X128168Y223409D02*
D03*
X129560Y224801D02*
D03*
X130952Y226193D02*
D03*
X132344Y227585D02*
D03*
X133736Y228977D02*
D03*
X135128Y230369D02*
D03*
X136520Y231761D02*
D03*
X105619Y262662D02*
D03*
X104227Y261270D02*
D03*
X102835Y259878D02*
D03*
X101443Y258486D02*
D03*
X100051Y257094D02*
D03*
X98659Y255702D02*
D03*
X97267Y254310D02*
D03*
X95875Y252918D02*
D03*
X94483Y251526D02*
D03*
X93091Y250134D02*
D03*
X91699Y248742D02*
D03*
X90307Y247350D02*
D03*
X88916Y245958D02*
D03*
X87524Y244566D02*
D03*
X86132Y243175D02*
D03*
X84740Y241783D02*
D03*
D24*
X-28399Y267676D02*
D03*
Y274172D02*
D03*
X-36370Y220248D02*
D03*
Y213752D02*
D03*
X-26170Y331652D02*
D03*
Y338148D02*
D03*
X-26870Y220248D02*
D03*
Y213752D02*
D03*
X-27370Y136252D02*
D03*
Y142748D02*
D03*
X-86870Y78452D02*
D03*
Y84948D02*
D03*
X-35970Y267752D02*
D03*
Y274248D02*
D03*
X298630Y100352D02*
D03*
Y106848D02*
D03*
X-35070Y331952D02*
D03*
Y338448D02*
D03*
X-36370Y136252D02*
D03*
Y142748D02*
D03*
X35012Y258273D02*
D03*
Y264769D02*
D03*
X-55997Y74412D02*
D03*
Y80908D02*
D03*
X277130Y292348D02*
D03*
Y285852D02*
D03*
X124478Y132678D02*
D03*
Y139174D02*
D03*
X102454Y139089D02*
D03*
Y132593D02*
D03*
X293330Y117152D02*
D03*
Y123648D02*
D03*
X167990Y233367D02*
D03*
Y239863D02*
D03*
X-51610Y53563D02*
D03*
Y47067D02*
D03*
Y33976D02*
D03*
Y40472D02*
D03*
X103890Y79531D02*
D03*
Y73035D02*
D03*
X115181Y50315D02*
D03*
Y56811D02*
D03*
X118165Y38012D02*
D03*
Y44508D02*
D03*
X268390Y75063D02*
D03*
Y68567D02*
D03*
X238352Y194148D02*
D03*
Y187652D02*
D03*
X264852Y192718D02*
D03*
Y186222D02*
D03*
X206387Y355831D02*
D03*
Y349335D02*
D03*
X139883Y356159D02*
D03*
Y349663D02*
D03*
X96190Y286441D02*
D03*
Y279945D02*
D03*
D25*
X-77705Y94000D02*
D03*
X-63532D02*
D03*
X237547Y90100D02*
D03*
X251721D02*
D03*
X90904Y94315D02*
D03*
X76730D02*
D03*
X280934Y324400D02*
D03*
X266760D02*
D03*
D26*
X-43932Y38264D02*
D03*
X-34877Y42004D02*
D03*
Y34524D02*
D03*
X126362Y38813D02*
D03*
X135417Y42553D02*
D03*
Y35073D02*
D03*
X290917Y80815D02*
D03*
X281862Y77075D02*
D03*
Y84555D02*
D03*
X245568Y194640D02*
D03*
Y187160D02*
D03*
X254624Y190900D02*
D03*
X285157Y343715D02*
D03*
X276102Y339975D02*
D03*
Y347455D02*
D03*
D27*
X327153Y332500D02*
D03*
X320106D02*
D03*
X308686Y105697D02*
D03*
X315733D02*
D03*
X70653Y71232D02*
D03*
X63606D02*
D03*
X-85552Y71575D02*
D03*
X-92599D02*
D03*
X75413Y241782D02*
D03*
X68366Y241783D02*
D03*
D28*
X264900Y342030D02*
D03*
X45790Y164412D02*
D03*
X153130Y356300D02*
D03*
X219030Y355900D02*
D03*
X-43983Y166700D02*
D03*
X102690Y157015D02*
D03*
X41971Y300815D02*
D03*
X-58470Y226000D02*
D03*
X102342Y184115D02*
D03*
X88034Y195367D02*
D03*
X192990Y273015D02*
D03*
X159690Y234215D02*
D03*
X-43270Y228500D02*
D03*
X31230Y227200D02*
D03*
X-39300Y361500D02*
D03*
X89690Y289217D02*
D03*
X112815Y143760D02*
D03*
X-37600Y303700D02*
D03*
X-63370Y101500D02*
D03*
X91630Y102000D02*
D03*
X168983Y165151D02*
D03*
X232100Y187338D02*
D03*
X124130Y177400D02*
D03*
X237443Y101181D02*
D03*
X239143Y118685D02*
D03*
D29*
X106524Y193070D02*
D03*
X101930Y197663D02*
D03*
X144986Y218618D02*
D03*
X140393Y223212D02*
D03*
X111386Y197818D02*
D03*
X106793Y202412D02*
D03*
D30*
X42030Y160672D02*
D03*
Y168152D02*
D03*
X34156Y164412D02*
D03*
X173049Y168492D02*
D03*
Y161011D02*
D03*
X180923Y164751D02*
D03*
X197415Y276511D02*
D03*
Y269031D02*
D03*
X205289Y272771D02*
D03*
D31*
X-44757Y272682D02*
D03*
Y275241D02*
D03*
Y277800D02*
D03*
Y280359D02*
D03*
X-62474Y280398D02*
D03*
Y277839D02*
D03*
Y275280D02*
D03*
Y272721D02*
D03*
X-44617Y207263D02*
D03*
Y209822D02*
D03*
Y212381D02*
D03*
Y214940D02*
D03*
X-62333Y214979D02*
D03*
Y212420D02*
D03*
Y209861D02*
D03*
Y207302D02*
D03*
X-44600Y141944D02*
D03*
Y144503D02*
D03*
Y147062D02*
D03*
Y149621D02*
D03*
X-62317Y149660D02*
D03*
Y147101D02*
D03*
Y144542D02*
D03*
Y141983D02*
D03*
X-61827Y337500D02*
D03*
Y340059D02*
D03*
Y342618D02*
D03*
Y345177D02*
D03*
X-44110Y345138D02*
D03*
Y342579D02*
D03*
Y340020D02*
D03*
Y337461D02*
D03*
D32*
X-53616Y276520D02*
D03*
X-53475Y211101D02*
D03*
X-53459Y145782D02*
D03*
X-52969Y341299D02*
D03*
D33*
X-69292Y391772D02*
D03*
X-87009D02*
D03*
X-81103D02*
D03*
X-63387D02*
D03*
X-75198D02*
D03*
D34*
X-97343Y410747D02*
D03*
X-52855D02*
D03*
X203878D02*
D03*
X153484D02*
D03*
X137067D02*
D03*
X86673D02*
D03*
D35*
X157424Y328353D02*
D03*
Y322447D02*
D03*
X169235D02*
D03*
Y328353D02*
D03*
D36*
X152390Y297472D02*
D03*
X159870D02*
D03*
X156130Y306528D02*
D03*
X136890Y297472D02*
D03*
X144370D02*
D03*
X140630Y306528D02*
D03*
X167390Y297472D02*
D03*
X174870D02*
D03*
X171130Y306528D02*
D03*
X213635Y83830D02*
D03*
X221116D02*
D03*
X217376Y92885D02*
D03*
D37*
X284427Y113687D02*
D03*
Y127860D02*
D03*
D38*
X235930Y67024D02*
D03*
Y59976D02*
D03*
X110990Y274691D02*
D03*
Y281738D02*
D03*
X206387Y339825D02*
D03*
Y332778D02*
D03*
X140614Y339676D02*
D03*
Y332629D02*
D03*
D39*
X66962Y210266D02*
D03*
X75731Y201497D02*
D03*
X70998Y196764D02*
D03*
X62229Y205533D02*
D03*
D40*
X73782Y198713D02*
D03*
X64178Y208317D02*
D03*
D41*
X269730Y277066D02*
D03*
Y285334D02*
D03*
D42*
X-27536Y173400D02*
D03*
X-35804D02*
D03*
X-32336Y249000D02*
D03*
X-40604D02*
D03*
X167224Y145015D02*
D03*
X158956D02*
D03*
X51724Y248115D02*
D03*
X43456D02*
D03*
D43*
X-65926Y71575D02*
D03*
Y75315D02*
D03*
Y79055D02*
D03*
X-76162D02*
D03*
Y75315D02*
D03*
Y71575D02*
D03*
X91008Y71295D02*
D03*
Y75036D02*
D03*
Y78776D02*
D03*
X80772D02*
D03*
Y75036D02*
D03*
Y71295D02*
D03*
X246772Y66575D02*
D03*
Y70315D02*
D03*
Y74055D02*
D03*
X257008D02*
D03*
Y70315D02*
D03*
Y66575D02*
D03*
X315674Y324598D02*
D03*
Y320857D02*
D03*
Y317117D02*
D03*
X325911D02*
D03*
Y320857D02*
D03*
Y324598D02*
D03*
D44*
X116755Y139265D02*
D03*
X109275D02*
D03*
X113015Y131391D02*
D03*
D45*
X-63249Y39019D02*
D03*
Y57130D02*
D03*
X105197Y59370D02*
D03*
Y41260D02*
D03*
D46*
X-90611Y48074D02*
D03*
X77835Y50315D02*
D03*
D47*
X124161Y206483D02*
D03*
X119092Y201588D02*
D03*
D48*
X83179Y205359D02*
D03*
X87772Y209952D02*
D03*
X73573Y224267D02*
D03*
X68980Y219673D02*
D03*
X147386Y246112D02*
D03*
X142793Y241518D02*
D03*
X42426Y230697D02*
D03*
X37833Y226103D02*
D03*
D49*
X77613Y209011D02*
D03*
X84016Y215414D02*
D03*
X79005Y220425D02*
D03*
X72602Y214022D02*
D03*
D50*
X53761Y272247D02*
D03*
Y264767D02*
D03*
X43690D02*
D03*
Y268507D02*
D03*
Y272247D02*
D03*
D51*
X40687Y195865D02*
D03*
X35704Y200848D02*
D03*
D52*
X127376Y97845D02*
D03*
Y78554D02*
D03*
D53*
X271130Y21945D02*
D03*
X302890Y370270D02*
D03*
D54*
X262075Y49307D02*
D03*
X280185D02*
D03*
X293835Y342908D02*
D03*
X311945D02*
D03*
D55*
X216890Y104598D02*
D03*
Y140032D02*
D03*
D56*
X307661Y126433D02*
D03*
X303921D02*
D03*
X300181D02*
D03*
Y116197D02*
D03*
X303921D02*
D03*
X307661D02*
D03*
D57*
X291336Y142586D02*
D03*
X314446D02*
D03*
X314555Y160000D02*
D03*
X291445D02*
D03*
D58*
X303130Y212000D02*
D03*
D59*
X313130Y181303D02*
D03*
X293130D02*
D03*
D60*
X303355Y313637D02*
D03*
Y325054D02*
D03*
D61*
X183987Y334018D02*
D03*
X188987D02*
D03*
X193987D02*
D03*
X198987D02*
D03*
Y353506D02*
D03*
X193987D02*
D03*
X188987D02*
D03*
X183987D02*
D03*
X117904Y334102D02*
D03*
X122904D02*
D03*
X127904D02*
D03*
X132904D02*
D03*
Y353590D02*
D03*
X127904D02*
D03*
X122904D02*
D03*
X117904D02*
D03*
D62*
X166876Y98200D02*
D03*
D63*
X197572Y108200D02*
D03*
Y88200D02*
D03*
D64*
X193346Y391772D02*
D03*
X181535D02*
D03*
X163819D02*
D03*
X169724D02*
D03*
X187441D02*
D03*
X175630D02*
D03*
X126535D02*
D03*
X114724D02*
D03*
X97008D02*
D03*
X102913D02*
D03*
X120630D02*
D03*
X108819D02*
D03*
D65*
X79090Y310215D02*
D03*
Y326215D02*
D03*
X84090Y310215D02*
D03*
Y326215D02*
D03*
X89090Y310215D02*
D03*
Y326215D02*
D03*
X94090Y310215D02*
D03*
Y326215D02*
D03*
X99090Y310215D02*
D03*
Y326215D02*
D03*
D124*
X195330Y216900D02*
D03*
X155490Y225015D02*
D03*
X40730Y78700D02*
D03*
X268530Y304000D02*
D03*
X15000Y207800D02*
D03*
D125*
X224234Y235275D02*
D03*
Y324409D02*
D03*
X16626Y327567D02*
D03*
Y238433D02*
D03*
X-6366Y88433D02*
D03*
Y177567D02*
D03*
D126*
X225730Y305668D02*
D03*
Y313070D02*
D03*
X235730Y305668D02*
D03*
Y313070D02*
D03*
X245730Y305668D02*
D03*
Y313070D02*
D03*
X225730Y246613D02*
D03*
Y254015D02*
D03*
X235730Y246613D02*
D03*
Y254015D02*
D03*
X245730Y246613D02*
D03*
Y254015D02*
D03*
X225730Y266298D02*
D03*
Y273700D02*
D03*
X235730Y266298D02*
D03*
Y273700D02*
D03*
X245730Y266298D02*
D03*
Y273700D02*
D03*
X225730Y285983D02*
D03*
Y293385D02*
D03*
X235730Y285983D02*
D03*
Y293385D02*
D03*
X245730Y285983D02*
D03*
Y293385D02*
D03*
X15130Y257173D02*
D03*
Y249772D02*
D03*
X5130Y257173D02*
D03*
Y249772D02*
D03*
X-4870Y257173D02*
D03*
Y249772D02*
D03*
X15130Y316228D02*
D03*
Y308827D02*
D03*
X5130Y316228D02*
D03*
Y308827D02*
D03*
X-4870Y316228D02*
D03*
Y308827D02*
D03*
X15130Y296543D02*
D03*
Y289142D02*
D03*
X5130Y296543D02*
D03*
Y289142D02*
D03*
X-4870Y296543D02*
D03*
Y289142D02*
D03*
X15130Y276858D02*
D03*
Y269457D02*
D03*
X5130Y276858D02*
D03*
Y269457D02*
D03*
X-4870Y276858D02*
D03*
Y269457D02*
D03*
Y158827D02*
D03*
Y166228D02*
D03*
X5130Y158827D02*
D03*
Y166228D02*
D03*
X15130Y158827D02*
D03*
Y166228D02*
D03*
X-4870Y99772D02*
D03*
Y107173D02*
D03*
X5130Y99772D02*
D03*
Y107173D02*
D03*
X15130Y99772D02*
D03*
Y107173D02*
D03*
X-4870Y119457D02*
D03*
Y126858D02*
D03*
X5130Y119457D02*
D03*
Y126858D02*
D03*
X15130Y119457D02*
D03*
Y126858D02*
D03*
X-4870Y139142D02*
D03*
Y146543D02*
D03*
X5130Y139142D02*
D03*
Y146543D02*
D03*
X15130Y139142D02*
D03*
Y146543D02*
D03*
D127*
X301130Y252658D02*
D03*
Y272342D02*
D03*
X-84370Y126929D02*
D03*
Y146614D02*
D03*
Y211614D02*
D03*
Y191929D02*
D03*
Y256772D02*
D03*
Y276457D02*
D03*
X-75810Y13200D02*
D03*
X-56124D02*
D03*
X294787Y402500D02*
D03*
X314472D02*
D03*
X87533Y13200D02*
D03*
X107218D02*
D03*
X-84370Y321772D02*
D03*
Y341457D02*
D03*
X303130Y26658D02*
D03*
Y46343D02*
D03*
D128*
X173103Y206528D02*
D03*
X166032Y199457D02*
D03*
X158961Y192386D02*
D03*
X151890Y185315D02*
D03*
X144819Y178244D02*
D03*
X137748Y171173D02*
D03*
X45676Y206528D02*
D03*
X52748Y199457D02*
D03*
X59819Y192386D02*
D03*
X66890Y185315D02*
D03*
X73961Y178244D02*
D03*
X81032Y171173D02*
D03*
D129*
X162376Y18200D02*
D03*
X202376D02*
D03*
X162376Y58200D02*
D03*
X202376D02*
D03*
D130*
X0Y0D02*
D03*
X314961D02*
D03*
X236221Y393701D02*
D03*
X-98425Y374016D02*
D03*
D131*
X133910Y366772D02*
D03*
X200630D02*
D03*
D132*
X143910D02*
D03*
X210630D02*
D03*
M02*
