M48
;Layer_Color=9474304
;FILE_FORMAT=2:4
INCH,TZ
;TYPE=PLATED
T1F00S00C0.0100
T2F00S00C0.0120
T3F00S00C0.0160
T4F00S00C0.0354
T5F00S00C0.0362
T6F00S00C0.0402
T7F00S00C0.0522
T8F00S00C0.0728
T9F00S00C0.0890
;TYPE=NON_PLATED
T10F00S00C0.1563
%
T01
X-580Y5860
X5820Y3880
X6320Y3900
X6830Y3890
X7118Y7793
X8740Y10250
X7400Y12220
X24430Y11210
X27800Y9200
X28770Y12710
X44780Y20080
X51880Y13750
X40640Y16390
X35780Y16140
X34270Y15680
X32489Y15879
X28900Y16740
X28960Y14750
X28970Y18760
X31830Y25390
X34710Y24780
X36060Y24160
X36510
X36970
Y25740
X36560Y25750
X36090Y25740
X37930Y26030
X38380Y25980
X38310Y24810
X39740Y25360
X41890Y24880
X43590Y23710
X44140Y24070
X38220Y29980
X33830Y30610
X33900Y32480
X35370Y34510
X53840Y33890
X55070
X55080Y35907
X53870
X53820Y37910
X55060
X55080Y31790
X53840Y31810
T02
X-1400Y1820
X-1550Y2750
X220Y2290
X-240Y4206
X-80Y4830
X-1810Y5210
X-1510Y7940
X1520Y8130
X1510Y7650
X1520Y7190
X2620
X2630Y7670
X2620Y8150
X4910Y7750
X3370Y4450
X2010Y3970
X1580Y3960
X1190Y3950
Y5670
X1600Y5700
X2030
X1680Y-730
X7850Y-1230
X8230
X9810Y-1250
X10150
X11710Y-1270
X12080
X8708Y4500
X7480Y10940
X13330Y4490
X13690Y-1260
X14040
X22940Y-30
X23410
X26170Y-90
X26558Y-98
X26190Y880
X26080Y2850
X24550
X27900Y-70
X28510Y-90
X25450Y10500
X22540Y8590
X29660Y8600
X34300Y8625
X36300Y9200
X38100Y8100
X39200Y10000
X39310Y10760
X38111Y11231
X41830Y11090
X41850Y12589
X43460Y12240
X44250Y12550
Y6550
X42850Y7150
X40800Y9900
X34540Y12340
X34550Y13050
X32050Y11100
X31650Y2890
X33150
X33280Y800
X33270Y-110
X33640
X35020Y-50
X35470Y-70
X36940Y-120
X37350Y-130
X38960Y-70
X39358Y-98
X39010Y720
X40850Y0
X41340Y-20
X42800Y-110
X43190
X30420
X30060
X36050Y5550
X44600Y8500
X45200Y10800
X45250Y11600
X47200Y12750
X48600Y12200
X49860Y12650
X50180Y12890
X53490Y11070
X47570Y8670
X49200Y6250
X49370Y-110
X48940Y-120
X47470Y-90
X46780Y-80
X45228Y-98
X44810Y-90
X44880Y870
X50967Y760
X50780Y-90
X51260Y-100
X52840Y-40
X53560
X55090Y-100
X55620Y-90
X56860Y-70
X57400Y-100
X57010Y800
X63350Y12400
X62800Y13150
Y15500
X61520Y21080
X61063Y21010
X60108Y20692
Y26067
X61020Y26450
X61590
X59430Y26080
X59742Y25258
X57800Y24870
X57990Y19470
X59742Y19883
X59412Y20693
X55040Y19120
X56040Y17600
X54740Y13220
X50180Y14220
X49810Y14230
X50930Y15430
X51300Y16420
X47990Y20320
X47230Y24030
X43390Y22630
X44250Y21600
X43120Y20370
X40800Y20450
X41037Y22450
X37900Y22350
X37340Y22600
X37420Y21600
X35990Y21130
X35290Y21110
X34640Y21100
X33970Y21080
X35427Y18527
X35800Y18100
X36550
X39000Y18350
X40200Y18400
X41050Y18250
X38702Y17369
X38680Y16040
X39800Y15100
X40340
X40108Y14100
X40349Y13520
X39457Y13324
X38050Y14335
X35250Y14873
Y15313
X41500Y14700
X41850Y13500
X43950Y14650
Y15350
X38350Y24360
X35048Y24231
X35041Y25059
X30670Y23690
X30430Y22990
X25721Y19850
X25700Y16100
X25680Y15380
X10605Y29338
X10615Y29668
X1400Y29620
X950
X470Y29640
X560Y31050
X920Y31030
X1310Y31050
X35060Y31180
X35070Y31570
X35050Y30750
X36450Y30730
X36430Y31170
X36440Y31560
X35051Y33809
X38560Y34140
X39070Y33860
X39570Y33850
X40060
X47760Y36070
X47600Y37980
X48690Y37430
X49140Y37420
X57950Y35080
X59783Y35442
X59460Y36260
X59412Y31168
X59742Y30358
X57760Y29940
X60108Y31167
X61240Y31450
X61675Y31518
X61560Y36680
X61030Y36620
X60286Y36114
T03
X17950Y4200
Y5750
X25736Y12100
X45500Y7000
X49650Y8450
X46112Y35110
T04
X23998Y5371
X24998
X31400Y5400
X32400
X50300Y6600
Y7600
T05
X62933Y4422
Y5406
Y6194
Y7178
T06
X1790Y2420
X65500Y1550
X52120Y17790
X32420Y22000
T07
X17916Y900
X19884
X65000Y19832
Y21800
Y25216
Y27184
X4684Y37550
X2716
X16936
X18904
X21356
X23324
X25776
X27744
X65100Y37384
Y35416
X65000Y32300
Y30331
T08
X30960Y38210
X32810
X34660
X38910
X40760
X42610
T09
X64000Y3213
Y8387
T10
X0Y300
X60500
X0Y38000
X60500Y39300
M30
