G04*
G04 #@! TF.GenerationSoftware,Altium Limited,Altium Designer,22.6.1 (34)*
G04*
G04 Layer_Color=255*
%FSLAX25Y25*%
%MOIN*%
G70*
G04*
G04 #@! TF.SameCoordinates,B76439E7-F2EC-4E1E-8BC3-EA8C62091EE2*
G04*
G04*
G04 #@! TF.FilePolarity,Positive*
G04*
G01*
G75*
%ADD142C,0.10000*%
%ADD143C,0.09055*%
%ADD144C,0.15630*%
%ADD145R,0.05622X0.05622*%
%ADD146C,0.05622*%
%ADD147C,0.12898*%
%ADD148C,0.10925*%
%ADD149R,0.05906X0.05906*%
%ADD150C,0.05906*%
%ADD151R,0.05906X0.05906*%
D142*
X17900Y24200D02*
D03*
X324200Y220000D02*
D03*
X655000Y15500D02*
D03*
X521200Y177900D02*
D03*
D143*
X198843Y9000D02*
D03*
X179157D02*
D03*
X257757Y375500D02*
D03*
X277443D02*
D03*
X213558D02*
D03*
X233243D02*
D03*
X169358D02*
D03*
X189042D02*
D03*
X46843D02*
D03*
X27158D02*
D03*
X651000Y354157D02*
D03*
Y373843D02*
D03*
X650000Y303315D02*
D03*
Y323000D02*
D03*
Y252157D02*
D03*
Y271843D02*
D03*
Y198315D02*
D03*
Y218000D02*
D03*
D144*
X605000Y3000D02*
D03*
X0D02*
D03*
X605000Y393000D02*
D03*
X0Y380000D02*
D03*
D145*
X629331Y44221D02*
D03*
D146*
Y54063D02*
D03*
Y61937D02*
D03*
Y71780D02*
D03*
D147*
X640000Y32134D02*
D03*
Y83866D02*
D03*
D148*
X389096Y382100D02*
D03*
X407600D02*
D03*
X426104D02*
D03*
X309596D02*
D03*
X328100D02*
D03*
X346604D02*
D03*
D149*
X324000Y54000D02*
D03*
X249976Y53709D02*
D03*
D150*
X314000Y54000D02*
D03*
X239976Y53709D02*
D03*
X503000Y76000D02*
D03*
D151*
Y66000D02*
D03*
M02*
