G04*
G04 #@! TF.GenerationSoftware,Altium Limited,Altium Designer,22.8.2 (66)*
G04*
G04 Layer_Color=16711935*
%FSLAX25Y25*%
%MOIN*%
G70*
G04*
G04 #@! TF.SameCoordinates,8612D9D1-E4E4-435A-94CD-9D762A8D66E6*
G04*
G04*
G04 #@! TF.FilePolarity,Positive*
G04*
G01*
G75*
%ADD157C,0.04724*%
D157*
X-24992Y-5307D02*
X-24967Y-6304D01*
X-24891Y-7299D01*
X-24765Y-8288D01*
X-24589Y-9270D01*
X-24364Y-10241D01*
X-24089Y-11200D01*
X-23767Y-12144D01*
X-23397Y-13070D01*
X-22980Y-13976D01*
X-22519Y-14860D01*
X-22013Y-15720D01*
X-21464Y-16553D01*
X-20874Y-17357D01*
X-20243Y-18129D01*
X-19575Y-18869D01*
X-18869Y-19575D01*
X-18129Y-20243D01*
X-17356Y-20874D01*
X-16553Y-21464D01*
X-15720Y-22013D01*
X-14860Y-22519D01*
X-13976Y-22980D01*
X-13070Y-23397D01*
X-12144Y-23767D01*
X-11200Y-24089D01*
X-10241Y-24364D01*
X-9270Y-24589D01*
X-8288Y-24765D01*
X-7299Y-24891D01*
X-6304Y-24967D01*
X-5307Y-24992D01*
X663976Y-24992D02*
X664973Y-24967D01*
X665968Y-24891D01*
X666957Y-24765D01*
X667939Y-24589D01*
X668911Y-24364D01*
X669869Y-24089D01*
X670813Y-23767D01*
X671739Y-23397D01*
X672646Y-22980D01*
X673530Y-22519D01*
X674389Y-22013D01*
X675222Y-21464D01*
X676026Y-20874D01*
X676799Y-20243D01*
X677539Y-19575D01*
X678244Y-18869D01*
X678913Y-18129D01*
X679543Y-17356D01*
X680133Y-16553D01*
X680682Y-15720D01*
X681188Y-14860D01*
X681650Y-13976D01*
X682066Y-13070D01*
X682436Y-12144D01*
X682759Y-11200D01*
X683033Y-10241D01*
X683258Y-9270D01*
X683434Y-8288D01*
X683560Y-7299D01*
X683636Y-6304D01*
X683661Y-5307D01*
Y388386D02*
X683636Y389383D01*
X683560Y390377D01*
X683434Y391367D01*
X683258Y392348D01*
X683033Y393320D01*
X682759Y394279D01*
X682436Y395223D01*
X682066Y396149D01*
X681650Y397055D01*
X681188Y397939D01*
X680682Y398798D01*
X680133Y399631D01*
X679543Y400435D01*
X678913Y401208D01*
X678244Y401948D01*
X677539Y402653D01*
X676799Y403322D01*
X676026Y403952D01*
X675222Y404543D01*
X674389Y405091D01*
X673530Y405597D01*
X672646Y406059D01*
X671739Y406476D01*
X670813Y406846D01*
X669869Y407168D01*
X668911Y407443D01*
X667939Y407668D01*
X666957Y407844D01*
X665968Y407970D01*
X664973Y408046D01*
X663976Y408071D01*
X-5307D02*
X-6304Y408046D01*
X-7299Y407970D01*
X-8288Y407844D01*
X-9270Y407668D01*
X-10241Y407443D01*
X-11200Y407168D01*
X-12144Y406846D01*
X-13070Y406476D01*
X-13976Y406059D01*
X-14860Y405597D01*
X-15720Y405091D01*
X-16553Y404543D01*
X-17357Y403952D01*
X-18129Y403322D01*
X-18869Y402653D01*
X-19575Y401948D01*
X-20243Y401208D01*
X-20874Y400435D01*
X-21464Y399631D01*
X-22013Y398798D01*
X-22519Y397939D01*
X-22980Y397055D01*
X-23397Y396149D01*
X-23767Y395222D01*
X-24089Y394279D01*
X-24364Y393320D01*
X-24589Y392348D01*
X-24765Y391367D01*
X-24891Y390377D01*
X-24967Y389383D01*
X-24992Y388386D01*
X-5307Y-25000D02*
Y-24992D01*
Y-25000D02*
X663976Y-25000D01*
Y-24992D01*
X683661Y-5307D02*
X683661D01*
X683661Y388386D02*
X683661Y-5307D01*
X683661Y388386D02*
X683661D01*
X-5307Y408071D02*
X663976Y408071D01*
X-5307Y408071D02*
Y408071D01*
X-25000Y388386D02*
X-24992D01*
X-25000D02*
X-25000Y-5307D01*
M02*
