G04 DipTrace 3.2.0.1*
G04 TopPaste.gbr*
%MOIN*%
G04 #@! TF.FileFunction,Paste,Top*
G04 #@! TF.Part,Single*
%ADD61R,0.031496X0.035433*%
%ADD79R,0.015748X0.070866*%
%ADD80R,0.037126X0.022126*%
%ADD81R,0.051181X0.01378*%
%ADD82R,0.033465X0.017717*%
%ADD83R,0.214567X0.21063*%
%ADD84R,0.074803X0.031496*%
%ADD85R,0.023622X0.027559*%
%ADD86R,0.015748X0.059055*%
%ADD87R,0.031496X0.102362*%
%ADD88R,0.019291X0.032874*%
%ADD89R,0.019291X0.007283*%
%ADD90R,0.032874X0.019291*%
%ADD91R,0.007283X0.019291*%
%ADD94R,0.070866X0.031496*%
%ADD95R,0.03937X0.031496*%
%ADD96R,0.003937X0.025591*%
%ADD97R,0.234252X0.21063*%
%ADD98R,0.100394X0.031496*%
%ADD99R,0.022126X0.037126*%
%ADD100R,0.070866X0.015748*%
%ADD101R,0.003937X0.03937*%
%ADD102R,0.03937X0.003937*%
%ADD103R,0.011024X0.014567*%
%ADD104R,0.017717X0.033465*%
%ADD106R,0.003937X0.047244*%
%ADD107R,0.059055X0.015748*%
%ADD108R,0.102362X0.031496*%
%ADD111R,0.043307X0.051181*%
%ADD112R,0.011811X0.025591*%
%ADD113R,0.07874X0.031496*%
%ADD114R,0.027559X0.019685*%
%ADD115R,0.019685X0.027559*%
%ADD116R,0.035433X0.031496*%
%ADD117R,0.01378X0.051181*%
%ADD118R,0.051181X0.051181*%
%FSLAX26Y26*%
G04*
G70*
G90*
G75*
G01*
G04 TopPaste*
%LPD*%
D117*
X2337022Y-2463051D3*
X2209070D3*
X2337059Y-2597381D3*
X2209106D3*
D115*
X2705678Y-1623381D3*
Y-1674562D3*
D114*
X2775415Y-1560962D3*
X2826596D3*
D113*
X2233571Y-1526751D3*
X2359555D3*
D112*
X3232661Y-1058475D3*
X3181475D3*
X3207068Y-1141152D3*
D111*
X2208421Y-2049715D3*
X2283224D3*
X2210930Y-2175923D3*
X2285734D3*
X2212854Y-2300878D3*
X2287657D3*
X2207043Y-1921844D3*
X2281846D3*
X2204320Y-1789451D3*
X2279123D3*
D108*
X3372564Y-703495D3*
Y-949558D3*
D107*
X3504454Y-776329D3*
Y-825542D3*
Y-874755D3*
D108*
X3068761Y-709033D3*
Y-955096D3*
D107*
X3200651Y-781867D3*
Y-831080D3*
Y-880293D3*
D108*
X3435213Y-1414517D3*
Y-1217667D3*
D107*
X3303323Y-1341682D3*
Y-1292470D3*
D108*
X3689465Y-731615D3*
Y-1074135D3*
D107*
X3821354Y-853663D3*
Y-902875D3*
Y-804450D3*
Y-952088D3*
Y-1001301D3*
D108*
X2448512Y-1762643D3*
Y-2105163D3*
D107*
X2580402Y-1884690D3*
Y-1933903D3*
Y-1835478D3*
Y-1983115D3*
Y-2032328D3*
D106*
X3833768Y-1451510D3*
X3853453D3*
X3873138D3*
X3892823D3*
X3912508D3*
Y-1278282D3*
X3892823D3*
X3873138D3*
X3853453D3*
X3833768D3*
X3838657Y-1971037D3*
X3858343D3*
X3878028D3*
X3897713D3*
X3917398D3*
Y-1797808D3*
X3897713D3*
X3878028D3*
X3858343D3*
X3838657D3*
X3838957Y-2616743D3*
X3858642D3*
X3878327D3*
X3898012D3*
X3917697D3*
Y-2443514D3*
X3898012D3*
X3878327D3*
X3858642D3*
X3838957D3*
D104*
X2764783Y-2257030D3*
X2689980D3*
X2727382Y-2347581D3*
D116*
X2799676Y-1738752D3*
X2732747D3*
D103*
X2371769Y-2319836D3*
X2474919D3*
X2371769Y-2274167D3*
X2474919D3*
D102*
X2960836Y-1657659D3*
Y-1677344D3*
Y-1697029D3*
Y-1716714D3*
Y-1736399D3*
Y-1756084D3*
Y-1775769D3*
Y-1795454D3*
Y-1815139D3*
Y-1834824D3*
Y-1854509D3*
Y-1874194D3*
Y-1893879D3*
Y-1913564D3*
Y-1933249D3*
Y-1952934D3*
D101*
X3039576Y-2031675D3*
X3059261D3*
X3078946D3*
X3098631D3*
X3118316D3*
X3138001D3*
X3157686D3*
X3177371D3*
X3197056D3*
X3216741D3*
X3236427D3*
X3256112D3*
X3275797D3*
X3295482D3*
X3315167D3*
X3334852D3*
D102*
X3413592Y-1952934D3*
Y-1933249D3*
Y-1913564D3*
Y-1893879D3*
Y-1874194D3*
Y-1854509D3*
Y-1834824D3*
Y-1815139D3*
Y-1795454D3*
Y-1775769D3*
Y-1756084D3*
Y-1736399D3*
Y-1716714D3*
Y-1697029D3*
Y-1677344D3*
Y-1657659D3*
D101*
X3334852Y-1578919D3*
X3315167D3*
X3295482D3*
X3275797D3*
X3256112D3*
X3236427D3*
X3216741D3*
X3197056D3*
X3177371D3*
X3157686D3*
X3138001D3*
X3118316D3*
X3098631D3*
X3078946D3*
X3059261D3*
X3039576D3*
D100*
X3120516Y-2314492D3*
Y-2264492D3*
Y-2214492D3*
Y-2164492D3*
X2907917D3*
Y-2214492D3*
Y-2264492D3*
Y-2314492D3*
D99*
X3001096Y-1432619D3*
X3051096D3*
X3101096D3*
X3151096D3*
Y-1192121D3*
X3101096D3*
X3051096D3*
X3001096D3*
D98*
X2734315Y-1110272D3*
Y-930744D3*
D97*
X2470535Y-1020508D3*
D96*
X3722554Y-1410440D3*
X3702869D3*
X3683184D3*
X3663499D3*
Y-1532487D3*
X3683184D3*
X3702869D3*
X3722554D3*
X3742566Y-1694280D3*
X3722881D3*
X3703196D3*
X3683510D3*
Y-1816327D3*
X3703196D3*
X3722881D3*
X3742566D3*
X3685501Y-2023997D3*
X3665816D3*
X3646131D3*
X3626446D3*
Y-2146045D3*
X3646131D3*
X3665816D3*
X3685501D3*
D95*
X2836261Y-1672148D3*
Y-1620967D3*
X2769332Y-1672148D3*
Y-1620967D3*
D61*
X13461003Y-2489500D3*
Y-2556429D3*
D118*
X12537303Y-2209350D3*
D61*
X13561001Y-2489500D3*
Y-2556429D3*
X13511001Y-2489500D3*
Y-2556429D3*
D117*
X10899408Y-2337928D3*
X10771455D3*
X10899408Y-2244188D3*
X10771455D3*
D118*
X11049392Y-2469164D3*
X11268119Y-2612899D3*
D115*
X10949403Y-1750490D3*
Y-1801671D3*
X10768172Y-1800484D3*
Y-1749303D3*
D61*
X12192833Y-1227427D3*
Y-1294356D3*
X12800541Y-2458349D3*
Y-2391420D3*
D94*
X11824705Y-2677854D3*
X11942815D3*
D61*
X10899408Y-1563009D3*
Y-1496080D3*
X12716161Y-1830083D3*
Y-1897012D3*
X12234101Y-2177676D3*
Y-2244605D3*
X13389938Y-1812681D3*
Y-1879610D3*
X13539938Y-1812681D3*
Y-1879610D3*
X13439938Y-1812681D3*
Y-1879610D3*
D116*
X13538314Y-1975180D3*
X13605243D3*
D91*
X12883760Y-2335335D3*
D90*
X12919390D3*
D89*
X12769927Y-2283724D3*
D88*
Y-2248094D3*
D111*
X11807891Y-2477067D3*
X11733088D3*
X10744550Y-1919222D3*
X10669747D3*
X10744550Y-2000463D3*
X10669747D3*
D112*
X10398228Y-1567437D3*
X10449415D3*
X10423822Y-1484760D3*
D111*
X10744550Y-2081705D3*
X10669747D3*
X10744550Y-2156697D3*
X10669747D3*
D118*
X12816831Y-2701476D3*
D108*
X10667993Y-1056812D3*
Y-1350119D3*
D107*
X10799883Y-1178860D3*
Y-1228072D3*
Y-1129647D3*
Y-1277285D3*
D108*
X10961713Y-1056812D3*
Y-1350119D3*
D107*
X11093602Y-1178860D3*
Y-1228072D3*
Y-1129647D3*
Y-1277285D3*
D87*
X10262112Y-1850505D3*
X10508175D3*
D86*
X10334946Y-1718615D3*
X10384159D3*
X10433371D3*
X10334946D3*
D108*
X10374274Y-1056812D3*
Y-1350119D3*
D107*
X10506164Y-1178860D3*
Y-1228072D3*
Y-1129647D3*
Y-1277285D3*
D87*
X10257776Y-2150295D3*
X10503839D3*
D86*
X10330610Y-2018406D3*
X10379823D3*
X10429035D3*
X10330610D3*
D85*
X12769587Y-2166043D3*
X12732185Y-2087303D3*
X12806988D3*
D84*
X11977878Y-2290164D3*
Y-2110636D3*
D83*
X11692445Y-2200400D3*
D84*
X12434941Y-1961319D3*
Y-1781791D3*
D83*
X12149508Y-1871555D3*
D82*
X13287626Y-2089106D3*
Y-2014303D3*
X13197075Y-2051705D3*
D116*
X10830665Y-1857416D3*
X10897594D3*
D61*
X12912013Y-2081954D3*
Y-2148883D3*
X12856486Y-2084930D3*
Y-2151860D3*
D116*
X11895571Y-2477067D3*
X11962500D3*
X11111886Y-2312930D3*
X11178815D3*
X11318114Y-2319180D3*
X11251185D3*
D61*
X11186689Y-1113056D3*
Y-1046127D3*
Y-1188049D3*
Y-1254978D3*
D116*
X10678352Y-1694255D3*
X10745281D3*
X10878786Y-1950469D3*
X10811857D3*
X10878786Y-2006713D3*
X10811857D3*
X10457483Y-1613005D3*
X10390554D3*
X10878786Y-2069206D3*
X10811857D3*
X10878786Y-2125450D3*
X10811857D3*
X11049392Y-2250437D3*
X10982463D3*
X11049392Y-2319180D3*
X10982463D3*
X12090366Y-2271416D3*
X12157295D3*
X12096615Y-2133930D3*
X12163545D3*
X12555492Y-1780088D3*
X12622421D3*
X12077867Y-2033941D3*
X12010938D3*
X12516182Y-1698846D3*
X12449253D3*
X13542251Y-1925180D3*
X13609180D3*
D61*
X13489938Y-1812681D3*
Y-1879610D3*
X13283688Y-1881429D3*
Y-1814500D3*
X13333688Y-1812681D3*
Y-1879610D3*
D116*
X12547429Y-1911324D3*
X12614358D3*
D118*
X11509744Y-1347146D3*
X11588484D3*
D81*
X12105343Y-1177432D3*
Y-1305385D3*
D118*
X11679035Y-1347146D3*
D102*
X11043143Y-1844230D3*
Y-1863915D3*
Y-1883600D3*
Y-1903285D3*
Y-1922970D3*
Y-1942655D3*
Y-1962340D3*
Y-1982025D3*
Y-2001710D3*
Y-2021395D3*
Y-2041080D3*
Y-2060765D3*
Y-2080450D3*
Y-2100135D3*
Y-2119820D3*
Y-2139505D3*
D101*
X11121883Y-2218245D3*
X11141568D3*
X11161253D3*
X11180938D3*
X11200623D3*
X11220308D3*
X11239993D3*
X11259678D3*
X11279364D3*
X11299049D3*
X11318734D3*
X11338419D3*
X11358104D3*
X11377789D3*
X11397474D3*
X11417159D3*
D102*
X11495899Y-2139505D3*
Y-2119820D3*
Y-2100135D3*
Y-2080450D3*
Y-2060765D3*
Y-2041080D3*
Y-2021395D3*
Y-2001710D3*
Y-1982025D3*
Y-1962340D3*
Y-1942655D3*
Y-1922970D3*
Y-1903285D3*
Y-1883600D3*
Y-1863915D3*
Y-1844230D3*
D101*
X11417159Y-1765490D3*
X11397474D3*
X11377789D3*
X11358104D3*
X11338419D3*
X11318734D3*
X11299049D3*
X11279364D3*
X11259678D3*
X11239993D3*
X11220308D3*
X11200623D3*
X11180938D3*
X11161253D3*
X11141568D3*
X11121883D3*
D98*
X12799198Y-2520554D3*
Y-2341026D3*
D97*
X12535419Y-2430790D3*
D80*
X10840852Y-1606755D3*
Y-1556755D3*
Y-1506755D3*
Y-1456755D3*
X10600353D3*
Y-1506755D3*
Y-1556755D3*
Y-1606755D3*
D79*
X13492252Y-1956430D3*
X13442252D3*
X13392252D3*
X13342252D3*
Y-2169029D3*
X13392252D3*
X13442252D3*
X13492252D3*
D95*
X10830665Y-1750490D3*
Y-1801671D3*
X10897594Y-1750490D3*
Y-1801671D3*
D61*
X8111003Y-6802000D3*
Y-6868929D3*
D118*
X7187303Y-6521850D3*
D61*
X8211001Y-6802000D3*
Y-6868929D3*
X8161001Y-6802000D3*
Y-6868929D3*
D117*
X5549408Y-6650428D3*
X5421455D3*
X5549408Y-6556688D3*
X5421455D3*
D118*
X5699392Y-6781664D3*
X5918119Y-6925399D3*
D115*
X5599403Y-6062990D3*
Y-6114171D3*
X5418172Y-6112984D3*
Y-6061803D3*
D61*
X6842833Y-5539927D3*
Y-5606856D3*
X7450541Y-6770849D3*
Y-6703920D3*
D94*
X6474705Y-6990354D3*
X6592815D3*
D61*
X5549408Y-5875509D3*
Y-5808580D3*
X7366161Y-6142583D3*
Y-6209512D3*
X6884101Y-6490176D3*
Y-6557105D3*
X8039938Y-6125181D3*
Y-6192110D3*
X8189938Y-6125181D3*
Y-6192110D3*
X8089938Y-6125181D3*
Y-6192110D3*
D116*
X8188314Y-6287680D3*
X8255243D3*
D91*
X7533760Y-6647835D3*
D90*
X7569390D3*
D89*
X7419927Y-6596224D3*
D88*
Y-6560594D3*
D111*
X6457891Y-6789567D3*
X6383088D3*
X5394550Y-6231722D3*
X5319747D3*
X5394550Y-6312963D3*
X5319747D3*
D112*
X5048228Y-5879937D3*
X5099415D3*
X5073822Y-5797260D3*
D111*
X5394550Y-6394205D3*
X5319747D3*
X5394550Y-6469197D3*
X5319747D3*
D118*
X7466831Y-7013976D3*
D108*
X5317993Y-5369312D3*
Y-5662619D3*
D107*
X5449883Y-5491360D3*
Y-5540572D3*
Y-5442147D3*
Y-5589785D3*
D108*
X5611713Y-5369312D3*
Y-5662619D3*
D107*
X5743602Y-5491360D3*
Y-5540572D3*
Y-5442147D3*
Y-5589785D3*
D87*
X4912112Y-6163005D3*
X5158175D3*
D86*
X4984946Y-6031115D3*
X5034159D3*
X5083371D3*
X4984946D3*
D108*
X5024274Y-5369312D3*
Y-5662619D3*
D107*
X5156164Y-5491360D3*
Y-5540572D3*
Y-5442147D3*
Y-5589785D3*
D87*
X4907776Y-6462795D3*
X5153839D3*
D86*
X4980610Y-6330906D3*
X5029823D3*
X5079035D3*
X4980610D3*
D85*
X7419587Y-6478543D3*
X7382185Y-6399803D3*
X7456988D3*
D84*
X6627878Y-6602664D3*
Y-6423136D3*
D83*
X6342445Y-6512900D3*
D84*
X7084941Y-6273819D3*
Y-6094291D3*
D83*
X6799508Y-6184055D3*
D82*
X7937626Y-6401606D3*
Y-6326803D3*
X7847075Y-6364205D3*
D116*
X5480665Y-6169916D3*
X5547594D3*
D61*
X7562013Y-6394454D3*
Y-6461383D3*
X7506486Y-6397430D3*
Y-6464360D3*
D116*
X6545571Y-6789567D3*
X6612500D3*
X5761886Y-6625430D3*
X5828815D3*
X5968114Y-6631680D3*
X5901185D3*
D61*
X5836689Y-5425556D3*
Y-5358627D3*
Y-5500549D3*
Y-5567478D3*
D116*
X5328352Y-6006755D3*
X5395281D3*
X5528786Y-6262969D3*
X5461857D3*
X5528786Y-6319213D3*
X5461857D3*
X5107483Y-5925505D3*
X5040554D3*
X5528786Y-6381706D3*
X5461857D3*
X5528786Y-6437950D3*
X5461857D3*
X5699392Y-6562937D3*
X5632463D3*
X5699392Y-6631680D3*
X5632463D3*
X6740366Y-6583916D3*
X6807295D3*
X6746615Y-6446430D3*
X6813545D3*
X7205492Y-6092588D3*
X7272421D3*
X6727867Y-6346441D3*
X6660938D3*
X7166182Y-6011346D3*
X7099253D3*
X8192251Y-6237680D3*
X8259180D3*
D61*
X8139938Y-6125181D3*
Y-6192110D3*
X7933688Y-6193929D3*
Y-6127000D3*
X7983688Y-6125181D3*
Y-6192110D3*
D116*
X7197429Y-6223824D3*
X7264358D3*
D118*
X6159744Y-5659646D3*
X6238484D3*
D81*
X6755343Y-5489932D3*
Y-5617885D3*
D118*
X6329035Y-5659646D3*
D102*
X5693143Y-6156730D3*
Y-6176415D3*
Y-6196100D3*
Y-6215785D3*
Y-6235470D3*
Y-6255155D3*
Y-6274840D3*
Y-6294525D3*
Y-6314210D3*
Y-6333895D3*
Y-6353580D3*
Y-6373265D3*
Y-6392950D3*
Y-6412635D3*
Y-6432320D3*
Y-6452005D3*
D101*
X5771883Y-6530745D3*
X5791568D3*
X5811253D3*
X5830938D3*
X5850623D3*
X5870308D3*
X5889993D3*
X5909678D3*
X5929364D3*
X5949049D3*
X5968734D3*
X5988419D3*
X6008104D3*
X6027789D3*
X6047474D3*
X6067159D3*
D102*
X6145899Y-6452005D3*
Y-6432320D3*
Y-6412635D3*
Y-6392950D3*
Y-6373265D3*
Y-6353580D3*
Y-6333895D3*
Y-6314210D3*
Y-6294525D3*
Y-6274840D3*
Y-6255155D3*
Y-6235470D3*
Y-6215785D3*
Y-6196100D3*
Y-6176415D3*
Y-6156730D3*
D101*
X6067159Y-6077990D3*
X6047474D3*
X6027789D3*
X6008104D3*
X5988419D3*
X5968734D3*
X5949049D3*
X5929364D3*
X5909678D3*
X5889993D3*
X5870308D3*
X5850623D3*
X5830938D3*
X5811253D3*
X5791568D3*
X5771883D3*
D98*
X7449198Y-6833054D3*
Y-6653526D3*
D97*
X7185419Y-6743290D3*
D80*
X5490852Y-5919255D3*
Y-5869255D3*
Y-5819255D3*
Y-5769255D3*
X5250353D3*
Y-5819255D3*
Y-5869255D3*
Y-5919255D3*
D79*
X8142252Y-6268930D3*
X8092252D3*
X8042252D3*
X7992252D3*
Y-6481529D3*
X8042252D3*
X8092252D3*
X8142252D3*
D95*
X5480665Y-6062990D3*
Y-6114171D3*
X5547594Y-6062990D3*
Y-6114171D3*
M02*
