M48
;Layer_Color=9474304
;FILE_FORMAT=2:4
INCH,TZ
;TYPE=PLATED
T1F00S00C0.0120
T2F00S00C0.0354
T3F00S00C0.0400
T4F00S00C0.0402
T5F00S00C0.0522
;TYPE=NON_PLATED
T6F00S00C0.0512
%
T01
X48000Y48000
X49500
X51000
X50250Y49500
Y52500
X51750
Y55500
X50250
X48750
X47250
X48000Y57000
X49650Y57150
X51000Y57000
X51750Y58500
X50250
X48750
X49500Y60000
X51000
X51750Y61500
X50250
X49900Y54350
X48000Y54000
X48750Y52500
X47250
X45750
X44250
X42750
X41250
X42000Y51000
X42750Y49500
X44250
X45000Y48000
X46500
X43500
X42000
X40500
X39000
X37500
X36000
X34500
X33000
X31500
X32250Y49500
X33750
X35250
X36750
X36000Y51000
X34500
X35250Y52500
X36750
X38250
X37500Y54000
X36000
X34500
X33000
X31500
Y57000
X33000
X34500
X36000
X37500
X39000
X39750Y58500
X41250
X42750
X44250
X45750
X46200Y58750
X46650Y59450
X45000Y60000
X43500
X42000
X42750Y61500
X44250
X45750
X41400Y61700
X39000Y60000
X37500
X36000
X34500
X33000
X31500
X33750Y58500
X35250
X36750
X38250
Y55500
X39750
X41250
X42750
X44250
X45750
X46500Y57000
X45000
Y54000
X46500
X42000Y57000
X36750Y55500
X35250
X33750
Y52500
X41250Y49500
X30000Y48000
X28500
X27000
X25500
X24000
X22500
X21000
X19500
X18000
X16500
X17250Y49500
X18750
X20250
X19500Y51000
X18000
X16500
X17250Y52500
X18750
X20250
X21750
X22500Y54000
X24000
X25500
X27000
X28500
X30000
X30750Y55500
X29250
X27750
X28500Y57000
X30000
X30750Y58500
X30000Y60000
X28500
X27000
X25500
X24000
X24750Y58500
X26250
X27750
X27000Y57000
X25500
X24000
X22500
X21000
X21750Y58500
X23250
Y55500
X24750
Y52500
X26250
X27750
X29250
X30750
X27000Y51000
X27750Y49500
X26250
X24750
X21000Y54000
X19500
X18000
X16500
X17250Y55500
X18750
X20250
X21750
Y61500
X18000Y60000
X16500
X17250Y58500
X16500Y57000
X15750Y52500
Y49500
X30350Y61700
X15000Y54000
Y51000
Y48000
Y66000
Y72000
Y78000
X16500
X17250Y76500
X18750
X18500Y75900
X18000Y75300
X16500Y75000
X15750Y76500
X20250
X21750
X21000Y78000
X19500
X24000
X25500
X27000
X28500
X28950Y77150
X27750Y76500
X28600Y75500
X27615Y74395
X27750Y73500
X29250
X30750
X30350Y74250
X30750Y70500
X29250
X27750
X26250
X24750
X25500Y69000
X24000
X24750Y67500
X26250
X27750
X29250
X30750
X30800Y66650
X30000Y63000
X28500
X26800Y64100
X26650Y64900
X24450Y65350
X24550Y63950
X21750Y64500
X20250
X19300Y63550
X18000Y63000
X16500
X17250Y64500
X18000Y66000
X19500
X20250Y67500
X18750
X17250
X18000Y69000
X19500
X20250Y70500
X21750
Y73500
X20250
X18000Y72000
X16500
X17250Y70500
X15750
X16500Y69000
Y66000
X21400Y62900
X24750Y73500
X26250
X25500Y75000
X24000
X24750Y76500
X32350Y76000
X32250Y70500
X33000Y69000
X34500
X36000
X37500
X39000
X39750Y70500
X38250
X36750
X35250
X35841Y71559
X36000Y72000
X38450Y71800
X39000Y75000
X40500
X42000
X42750Y76500
X44250
X45000Y78000
X43500
X42000
X40500
X39000
X37500
X36000
X39750Y76500
X39650Y75950
X41250Y76500
X45000Y75000
X45750Y74800
Y73500
X45175Y73575
X44505Y72750
X44250Y70500
X42750
X43500Y69000
X45000
X44250Y67500
X42750
X41250
X42000Y69000
X41400Y64550
X42750Y64500
X44250
X45750
X46500Y64850
Y66000
X46550Y66500
X45800Y67550
X45000Y66000
Y63000
X46500
X43500
X42000
X39000
X37500
X36000
X34500
X33000
X31500
X33750Y64500
X35250
X36750
X38250
X39750
X39000Y66000
X37500
X36000
X34500
X33000
X33750Y67500
X35250
X36750
X38250
X32250
X46500Y72000
X50250Y73500
X51750
X51000Y75000
X49500
X50250Y76500
X51750
X51000Y78000
X49500
X50250Y70500
X51750
X51000Y69000
X49500
X50250Y67500
X51750
X51000Y66000
X49500
X50250Y64500
X51750
X51000Y63000
X49500
X50250Y79500
X51750
X51000Y81000
X49500
X48000
X48750Y82500
X50250
X51750
X51000Y84000
X49500
X48000
X47250Y82500
Y79500
X48750
X45750
X44250
X42750
X41250
X39750
X38250
X36750
X35250
X33750
X34500Y81000
X36000
X37500
X39000
X40500
X42000
X43500
X45000
X46500
X45750Y82500
X44250
X45000Y84000
X46500
X43500
X42000
X40500
X39000
X37500
X36000
X34500
X33000
X31500
X32250Y82500
X33750
X35250
X36750
X38250
X39750
X41250
X33000Y81000
X30750Y79500
X29980Y79150
X29250Y79500
X27750
X27000Y81000
X25500
X24750Y79500
X24250Y79100
X23100
X22150Y79300
X21750Y79500
X21100Y79100
X20450Y79600
X20900Y80200
X20000Y80350
X19500Y81000
X20050Y78900
X22500Y81000
X23250Y82500
X21750
X21000Y84000
X19500
X18000
X16500
X15750Y82500
X16500Y81000
X15750Y79500
X25500Y84000
X27000
X30000
X29850Y82200
X29450
X15000Y81000
Y84000
T02
X38850Y53550
X39850
X18550Y56350
Y57350
X18200Y70250
X19200
T03
X47400Y59850
Y60850
Y61850
X48400
Y60850
Y59850
X23400
Y60850
Y61850
X22400
Y60850
Y59850
Y62850
Y63850
Y64850
Y65850
Y66850
Y67850
Y68850
Y69850
Y70850
Y71850
Y72850
Y73850
Y74850
Y75850
Y76850
Y77850
X23400
Y76850
Y75850
Y74850
Y73850
Y72850
Y71850
Y70850
Y69850
Y68850
Y67850
Y66850
Y65850
Y64850
Y63850
Y62850
X47400
Y63850
Y64850
Y65850
Y66850
Y67850
Y68850
Y69850
Y70850
Y71850
Y72850
Y73850
Y74850
Y75850
Y76850
Y77850
X48400
Y76850
Y75850
Y74850
Y73850
Y72850
Y71850
Y70850
Y69850
Y68850
Y67850
Y66850
Y65850
Y64850
Y63850
Y62850
T04
X42000Y53250
X20000Y84850
T05
X47300Y49100
X49268
X51237
X45332
X43363
X40600Y49200
X38631
X31434Y49000
X29466
X23134Y49250
X21166
X15500Y54994
Y56963
Y58931
Y60900
Y62868
Y64837
Y67344
Y69313
Y71281
Y73250
Y75219
Y77187
X22332Y83500
X24300
X26268
X28237
T06
X32380Y73730
X41199
M30
