G04*
G04 #@! TF.GenerationSoftware,Altium Limited,Altium Designer,20.1.14 (287)*
G04*
G04 Layer_Color=8388736*
%FSAX25Y25*%
%MOIN*%
G70*
G04*
G04 #@! TF.SameCoordinates,0E288BC8-C536-4CC5-9AEF-3088BE1C8A18*
G04*
G04*
G04 #@! TF.FilePolarity,Negative*
G04*
G01*
G75*
G04:AMPARAMS|DCode=26|XSize=47.37mil|YSize=47.37mil|CornerRadius=7.94mil|HoleSize=0mil|Usage=FLASHONLY|Rotation=90.000|XOffset=0mil|YOffset=0mil|HoleType=Round|Shape=RoundedRectangle|*
%AMROUNDEDRECTD26*
21,1,0.04737,0.03150,0,0,90.0*
21,1,0.03150,0.04737,0,0,90.0*
1,1,0.01587,0.01575,0.01575*
1,1,0.01587,0.01575,-0.01575*
1,1,0.01587,-0.01575,-0.01575*
1,1,0.01587,-0.01575,0.01575*
%
%ADD26ROUNDEDRECTD26*%
%ADD27C,0.04737*%
G04:AMPARAMS|DCode=28|XSize=57.21mil|YSize=70.99mil|CornerRadius=8.92mil|HoleSize=0mil|Usage=FLASHONLY|Rotation=270.000|XOffset=0mil|YOffset=0mil|HoleType=Round|Shape=RoundedRectangle|*
%AMROUNDEDRECTD28*
21,1,0.05721,0.05315,0,0,270.0*
21,1,0.03937,0.07099,0,0,270.0*
1,1,0.01784,-0.02657,-0.01968*
1,1,0.01784,-0.02657,0.01968*
1,1,0.01784,0.02657,0.01968*
1,1,0.01784,0.02657,-0.01968*
%
%ADD28ROUNDEDRECTD28*%
G04:AMPARAMS|DCode=29|XSize=63.12mil|YSize=43.43mil|CornerRadius=6.66mil|HoleSize=0mil|Usage=FLASHONLY|Rotation=90.000|XOffset=0mil|YOffset=0mil|HoleType=Round|Shape=RoundedRectangle|*
%AMROUNDEDRECTD29*
21,1,0.06312,0.03012,0,0,90.0*
21,1,0.04980,0.04343,0,0,90.0*
1,1,0.01332,0.01506,0.02490*
1,1,0.01332,0.01506,-0.02490*
1,1,0.01332,-0.01506,-0.02490*
1,1,0.01332,-0.01506,0.02490*
%
%ADD29ROUNDEDRECTD29*%
G04:AMPARAMS|DCode=30|XSize=149.73mil|YSize=86.74mil|CornerRadius=9.91mil|HoleSize=0mil|Usage=FLASHONLY|Rotation=180.000|XOffset=0mil|YOffset=0mil|HoleType=Round|Shape=RoundedRectangle|*
%AMROUNDEDRECTD30*
21,1,0.14973,0.06693,0,0,180.0*
21,1,0.12992,0.08674,0,0,180.0*
1,1,0.01981,-0.06496,0.03347*
1,1,0.01981,0.06496,0.03347*
1,1,0.01981,0.06496,-0.03347*
1,1,0.01981,-0.06496,-0.03347*
%
%ADD30ROUNDEDRECTD30*%
G04:AMPARAMS|DCode=31|XSize=149.73mil|YSize=86.74mil|CornerRadius=9.91mil|HoleSize=0mil|Usage=FLASHONLY|Rotation=90.000|XOffset=0mil|YOffset=0mil|HoleType=Round|Shape=RoundedRectangle|*
%AMROUNDEDRECTD31*
21,1,0.14973,0.06693,0,0,90.0*
21,1,0.12992,0.08674,0,0,90.0*
1,1,0.01981,0.03347,0.06496*
1,1,0.01981,0.03347,-0.06496*
1,1,0.01981,-0.03347,-0.06496*
1,1,0.01981,-0.03347,0.06496*
%
%ADD31ROUNDEDRECTD31*%
G04:AMPARAMS|DCode=32|XSize=63.12mil|YSize=43.43mil|CornerRadius=6.66mil|HoleSize=0mil|Usage=FLASHONLY|Rotation=0.000|XOffset=0mil|YOffset=0mil|HoleType=Round|Shape=RoundedRectangle|*
%AMROUNDEDRECTD32*
21,1,0.06312,0.03012,0,0,0.0*
21,1,0.04980,0.04343,0,0,0.0*
1,1,0.01332,0.02490,-0.01506*
1,1,0.01332,-0.02490,-0.01506*
1,1,0.01332,-0.02490,0.01506*
1,1,0.01332,0.02490,0.01506*
%
%ADD32ROUNDEDRECTD32*%
%ADD33R,0.07887X0.05918*%
G04:AMPARAMS|DCode=34|XSize=32.8mil|YSize=59.18mil|CornerRadius=5.86mil|HoleSize=0mil|Usage=FLASHONLY|Rotation=90.000|XOffset=0mil|YOffset=0mil|HoleType=Round|Shape=RoundedRectangle|*
%AMROUNDEDRECTD34*
21,1,0.03280,0.04746,0,0,90.0*
21,1,0.02108,0.05918,0,0,90.0*
1,1,0.01172,0.02373,0.01054*
1,1,0.01172,0.02373,-0.01054*
1,1,0.01172,-0.02373,-0.01054*
1,1,0.01172,-0.02373,0.01054*
%
%ADD34ROUNDEDRECTD34*%
G04:AMPARAMS|DCode=35|XSize=36.35mil|YSize=82.8mil|CornerRadius=6.13mil|HoleSize=0mil|Usage=FLASHONLY|Rotation=90.000|XOffset=0mil|YOffset=0mil|HoleType=Round|Shape=RoundedRectangle|*
%AMROUNDEDRECTD35*
21,1,0.03635,0.07055,0,0,90.0*
21,1,0.02410,0.08280,0,0,90.0*
1,1,0.01225,0.03528,0.01205*
1,1,0.01225,0.03528,-0.01205*
1,1,0.01225,-0.03528,-0.01205*
1,1,0.01225,-0.03528,0.01205*
%
%ADD35ROUNDEDRECTD35*%
G04:AMPARAMS|DCode=36|XSize=31.62mil|YSize=51.31mil|CornerRadius=6.01mil|HoleSize=0mil|Usage=FLASHONLY|Rotation=270.000|XOffset=0mil|YOffset=0mil|HoleType=Round|Shape=RoundedRectangle|*
%AMROUNDEDRECTD36*
21,1,0.03162,0.03929,0,0,270.0*
21,1,0.01961,0.05131,0,0,270.0*
1,1,0.01202,-0.01965,-0.00980*
1,1,0.01202,-0.01965,0.00980*
1,1,0.01202,0.01965,0.00980*
1,1,0.01202,0.01965,-0.00980*
%
%ADD36ROUNDEDRECTD36*%
%ADD37C,0.11824*%
%ADD38C,0.09855*%
D26*
X0013000Y0037000D02*
D03*
D27*
X0063000Y0036000D02*
D03*
X0087000Y0084000D02*
D03*
X0104000Y0085000D02*
D03*
X0012500Y0056500D02*
D03*
Y0076500D02*
D03*
Y0096500D02*
D03*
D28*
X0114000Y0053476D02*
D03*
Y0060524D02*
D03*
X0105000Y0053476D02*
D03*
Y0060524D02*
D03*
X0116000Y0077476D02*
D03*
Y0084524D02*
D03*
X0159000Y0068476D02*
D03*
Y0075524D02*
D03*
X0073350Y0078226D02*
D03*
Y0085274D02*
D03*
X0093000Y0024524D02*
D03*
Y0017476D02*
D03*
X0083000Y0060476D02*
D03*
Y0067524D02*
D03*
D29*
X0100752Y0077000D02*
D03*
X0107248D02*
D03*
X0082852Y0047000D02*
D03*
X0089348D02*
D03*
D30*
X0063500Y0011500D02*
D03*
D31*
X0106575Y0039000D02*
D03*
X0114000Y0110000D02*
D03*
X0115000Y0013000D02*
D03*
D32*
X0063000Y0056248D02*
D03*
Y0049752D02*
D03*
X0070000Y0032252D02*
D03*
Y0038748D02*
D03*
D33*
X0083000Y0013488D02*
D03*
Y0024512D02*
D03*
X0093000Y0067512D02*
D03*
Y0056488D02*
D03*
D34*
X0083065Y0038740D02*
D03*
Y0035000D02*
D03*
Y0031260D02*
D03*
X0093135D02*
D03*
Y0038740D02*
D03*
D35*
X0126978Y0068500D02*
D03*
Y0063500D02*
D03*
Y0058500D02*
D03*
Y0053500D02*
D03*
X0149222Y0068500D02*
D03*
Y0063500D02*
D03*
Y0058500D02*
D03*
Y0053500D02*
D03*
D36*
X0073218Y0070740D02*
D03*
Y0067000D02*
D03*
Y0063260D02*
D03*
X0062982Y0070740D02*
D03*
Y0063260D02*
D03*
Y0067000D02*
D03*
D37*
X0128201Y0091158D02*
D03*
Y0110843D02*
D03*
X0155799Y0091158D02*
D03*
Y0110843D02*
D03*
X0128000Y0015315D02*
D03*
Y0035000D02*
D03*
X0155598Y0015315D02*
D03*
Y0035000D02*
D03*
D38*
X0037500Y0037130D02*
D03*
Y0017445D02*
D03*
Y0056815D02*
D03*
Y0076500D02*
D03*
Y0096185D02*
D03*
M02*
