M48
;Layer_Color=9474304
;FILE_FORMAT=2:5
INCH
;TYPE=PLATED
T1F00S00C0.01200
T2F00S00C0.05217
T3F00S00C0.07283
%
T01
X0098000Y0013000
X0099000Y0017000
Y0031500
Y0035000
X0078000Y0035500
X0077500Y0032000
X0075000Y0033500
X0077500Y0027500
Y0024000
Y0020500
X0076000Y0014000
Y0010000
X0079000Y0007000
X0087000
X0089000Y0012000
X0093000
X0087500Y0042000
X0068000Y0046000
X0069000Y0050000
X0057000
X0058000Y0046000
X0068000Y0061000
Y0073000
X0078000
X0088000Y0074000
Y0078000
X0080000Y0085000
X0079500Y0089000
X0076000Y0091000
X0070000
X0066500Y0089000
X0066000Y0085000
X0110500Y0084000
Y0087500
X0114000Y0090000
X0118500
X0121500Y0084000
X0118000Y0071000
Y0067000
X0110000
Y0071000
X0100000
Y0067000
X0099500Y0055500
Y0052000
X0100500Y0048500
X0104000
X0107500Y0049000
X0148000
X0152000
X0155500Y0051000
X0156000Y0055500
Y0059000
X0156184Y0063511
X0153000Y0072000
Y0076000
X0154000Y0080000
X0158000Y0081000
X0162000
T02
X0037500Y0017445
Y0037130
Y0056815
Y0076500
Y0096185
T03
X0128000Y0015315
Y0035000
X0155598
Y0015315
X0155799Y0091158
Y0110843
X0128201
Y0091158
M30
