G04 DipTrace 3.2.0.1*
G04 Bottom.gbr*
%MOIN*%
G04 #@! TF.FileFunction,Copper,L2,Bot*
G04 #@! TF.Part,Single*
G04 #@! TA.AperFunction,Conductor*
%ADD14C,0.007874*%
%ADD15C,0.019685*%
G04 #@! TA.AperFunction,CopperBalancing*
%ADD16C,0.025*%
%ADD17R,0.027559X0.035433*%
%ADD18R,0.035433X0.027559*%
%ADD19R,0.043307X0.03937*%
%ADD20R,0.03937X0.043307*%
G04 #@! TA.AperFunction,ComponentPad*
%ADD27R,0.047244X0.047244*%
%ADD28C,0.047244*%
%ADD33R,0.059055X0.059055*%
G04 #@! TA.AperFunction,ViaPad*
%ADD43C,0.027559*%
%ADD45C,0.062992*%
%FSLAX26Y26*%
G04*
G70*
G90*
G75*
G01*
G04 Bottom*
%LPD*%
X1699698Y1348504D2*
D14*
Y1346886D1*
X1682811Y1363773D1*
Y1383675D1*
X1668228Y1398257D1*
X1699698Y1348504D2*
X1698055D1*
Y1469467D1*
X1714571Y1485983D1*
X1709446D1*
X1695169Y1205539D2*
Y1261672D1*
X1695581D1*
X1804437Y1679539D2*
X1740348D1*
X1738664Y1677856D1*
X1365585Y1804398D2*
Y1789707D1*
X1400163D1*
X1628938Y1560932D1*
X1623866D1*
Y1565471D1*
X1738664Y1677856D2*
X1737371D1*
X1751636Y1663591D1*
X1729686D1*
X1707058Y1640962D1*
Y1488371D1*
X1709446Y1485983D1*
X1623866Y1565471D2*
X1630643D1*
X1675573Y1520541D1*
Y1398257D1*
X1668228D1*
X1695581Y1261672D2*
Y1344387D1*
X1699698Y1348504D1*
X1706058Y1056692D2*
Y1098877D1*
X1687273Y1117661D1*
Y1169780D1*
X1695169Y1177676D1*
Y1205539D1*
X848648Y1065007D2*
X773209D1*
X771652Y1066563D1*
X697972D1*
X696416Y1068119D1*
X624193D1*
X624089Y1068223D1*
X547504D1*
X547400Y1068119D1*
Y984587D1*
X548955Y983031D1*
Y898760D1*
X548853Y898657D1*
Y817546D1*
X547297Y815990D1*
Y736491D1*
X549058Y734730D1*
Y651755D1*
X550820Y649992D1*
X625849D1*
X627509Y651652D1*
X701495D1*
X701597Y651550D1*
X779948D1*
X780050Y651652D1*
X810894D1*
X811570Y650976D1*
X852950D1*
X853423Y651449D1*
X550820Y649992D2*
X473799D1*
X471833Y648026D1*
Y728115D1*
X468537Y731412D1*
Y808731D1*
X475795Y815990D1*
Y900010D1*
X475898Y900113D1*
Y987781D1*
X476688Y988571D1*
Y1061734D1*
X470301Y1068121D1*
X547400D1*
X548955Y983031D2*
X482227D1*
X476688Y988571D1*
X548853Y898657D2*
X477353D1*
X475898Y900113D1*
X547297Y815990D2*
X475795D1*
X549058Y734730D2*
X471854D1*
X468537Y731412D1*
X943627Y1086269D2*
Y1070404D1*
X854046D1*
X848648Y1065007D1*
X943627Y1086269D2*
Y1132677D1*
X907417Y1168887D1*
X852651D1*
X1537966Y665429D2*
D15*
Y591144D1*
X1409505Y462684D1*
X1010154D1*
X898622Y574215D1*
Y606249D1*
X853423Y651449D1*
X2013092Y1033684D2*
D14*
Y1019293D1*
X2052831D1*
X2067890Y1004234D1*
X2089996Y1286949D2*
Y1341202D1*
X2090139D1*
X1906474Y1041114D2*
X1852867D1*
X1851987Y1041995D1*
X2407083Y1406833D2*
X2341927D1*
X2341375Y1406282D1*
X2088160Y1333467D2*
X2084969D1*
X2164509Y1413008D1*
X2164915D1*
X2341375Y1406282D2*
Y1409913D1*
X2277663Y1473626D1*
X2287686D1*
X2113507Y1418760D2*
X2114787D1*
X2089192Y1393164D1*
Y1340255D1*
X2089996Y1286949D2*
X2075545D1*
Y1060713D1*
X2048516Y1033684D1*
X2013092D1*
X1906474Y1041114D2*
X2005661D1*
X2013092Y1033684D1*
X1799098Y1049240D2*
X1844741D1*
X1851987Y1041995D1*
X1057419Y720262D2*
X997630Y780051D1*
Y869117D1*
X1057419Y720262D2*
X1151105D1*
X1162572Y708795D1*
X1244608D1*
X1292794Y660609D1*
X1149986Y1721281D2*
Y1719357D1*
X1216739D1*
X1223127Y1725745D1*
X1149986Y1721281D2*
X1073213D1*
X1059983Y1708051D1*
X1149986Y1788210D2*
X1062049D1*
X1059777Y1785938D1*
X1149986Y1788210D2*
Y1770266D1*
X1212333D1*
X1220566Y1778499D1*
X2218531Y734925D2*
Y909503D1*
X2250373Y941344D1*
X1365585Y1737469D2*
X1413022D1*
X1637654Y1512837D1*
X1084718Y1851592D2*
X1195850D1*
X1364442Y1683000D1*
Y1681026D1*
X2261249Y487728D2*
Y490350D1*
X2313591Y542692D1*
Y736773D1*
X2064877Y1402123D2*
Y1399563D1*
X2006516Y1341202D1*
X2023210D1*
X1582706Y1359450D2*
Y1349806D1*
X1529429Y1296529D1*
X853820Y1326440D2*
X940753D1*
X941731Y1327417D1*
X1637654Y1512837D2*
Y1507930D1*
X1644270Y1501314D1*
Y1357142D1*
X1631320Y1344192D1*
X1592071D1*
X1582706Y1353556D1*
Y1359450D1*
X1713576Y1161172D2*
X1717731D1*
X1762098Y1205539D1*
X1529429Y1296529D2*
X1515552D1*
Y1211102D1*
X1491837Y1187387D1*
X1406568D1*
X1383942Y1210013D1*
Y1207329D1*
X941731Y1327417D2*
Y1201986D1*
X979572Y1164144D1*
X1159963Y606710D2*
X1119660D1*
X1080371Y645999D1*
X1114295Y818668D2*
X1088895D1*
X1057419Y787192D1*
X1739169Y1409508D2*
Y1375962D1*
X1766627Y1348504D1*
X1114295Y818668D2*
D15*
Y821833D1*
X1155047Y862585D1*
X1259501D1*
X1292794Y829293D1*
Y739349D1*
X1533146D1*
X1537966Y744169D1*
D14*
Y867681D1*
X1678188Y1007903D1*
X1695745D1*
Y957932D1*
X1695259Y957445D1*
X1698176D1*
X1711790Y971059D1*
Y1015098D1*
X1805615Y1108924D1*
X1851987D1*
X1804437Y1746469D2*
X1853039Y1697866D1*
Y1694869D1*
X1804437Y1746469D2*
Y1861927D1*
X1814088Y1871577D1*
X1738664Y1744785D2*
X1733678D1*
X1691364Y1702470D1*
X1738664Y1744785D2*
Y1865096D1*
X1728008Y1875752D1*
X1409525Y1471551D2*
Y1392902D1*
X1411860Y1390567D1*
X1258314Y1469408D2*
Y1393665D1*
X1260970Y1391009D1*
X1106648Y1472504D2*
Y1394157D1*
X1109639Y1391167D1*
X956172Y1471551D2*
Y1395604D1*
X960371Y1391404D1*
X2274446Y1406282D2*
Y1262175D1*
X2379533Y1157088D1*
Y1148003D1*
X2099765Y868235D1*
X1846150D1*
X1796907Y917478D1*
Y942816D1*
X1802886Y948795D1*
X1951315D1*
X1964594Y935516D1*
X2474012Y1406833D2*
X2474383Y1471290D1*
X2474012Y1406833D2*
X2456247Y1389068D1*
Y1194878D1*
X2104241Y842873D1*
X1834214D1*
X1769211Y907875D1*
Y943466D1*
X1793934Y968189D1*
X1986385D1*
X1995925Y958648D1*
Y948231D1*
X1221969Y1678303D2*
X1294790D1*
X1297513Y1681026D1*
X1478248Y1296529D2*
Y1236299D1*
X1480682Y1233865D1*
X1484849Y1530709D2*
Y1303130D1*
X1478248Y1296529D1*
X1547612Y1233865D2*
Y1267303D1*
X1590995Y1310686D1*
X1342596Y1471551D2*
Y1397668D1*
X1335518Y1390591D1*
X1191385Y1469408D2*
Y1395996D1*
X1185979Y1390591D1*
X1039719Y1472504D2*
Y1392761D1*
X1042266Y1390214D1*
X889243Y1471551D2*
Y1396932D1*
X886333Y1394022D1*
X1611259Y1007903D2*
Y1055972D1*
X1569689Y1097542D1*
X939697Y730781D2*
Y1015409D1*
X943627Y1019340D1*
X2194320Y487728D2*
X2205678D1*
Y499333D1*
X2265735Y559390D1*
Y904633D1*
X2300070Y938967D1*
X2202047Y439144D2*
Y480001D1*
X2194320Y487728D1*
X1511794Y1108446D2*
X1523003D1*
Y1149714D1*
X1602667Y1229378D1*
Y1271215D1*
X1842106Y919123D2*
X1847294D1*
X1875804Y890613D1*
X2080886D1*
X2207980Y1017707D1*
Y1441602D1*
X2154617Y1494966D1*
X2063028D1*
X1885886Y919802D2*
X1892854D1*
X1903329Y909327D1*
X2070790D1*
X2171720Y1010257D1*
Y1337911D1*
X2260054Y1585461D2*
X2247556D1*
Y1571673D1*
X2204533Y1528650D1*
Y1520852D1*
X2174917Y1583647D2*
Y1569257D1*
X2160803Y1555143D1*
Y1520087D1*
X2158854D1*
X2095371Y1583157D2*
Y1523028D1*
X2095396Y1523003D1*
D43*
X1799098Y1049240D3*
X1484849Y1530709D3*
X1569689Y1097542D3*
X1964594Y935516D3*
X1995925Y948231D3*
X1739169Y1409508D3*
X979572Y1164144D3*
X1511794Y1108446D3*
X1602667Y1271215D3*
X1706058Y1056692D3*
X1713576Y1161172D3*
X2202047Y439144D3*
X2250373Y941344D3*
X2300070Y938967D3*
X1617046Y1395252D3*
X1590995Y1310686D3*
X853820Y1326440D3*
X1885886Y919802D3*
X2171720Y1337911D3*
X1842106Y919123D3*
X1114295Y818668D3*
X1080371Y645999D3*
X997630Y869117D3*
X939697Y730781D3*
X2474383Y1471290D3*
X2287686Y1473626D3*
X2379533Y1157088D3*
X1221969Y1678303D3*
X1223127Y1725745D3*
X1220566Y1778499D3*
X1709446Y1485983D3*
X1668228Y1398257D3*
X2067890Y1004234D3*
X2164915Y1413008D3*
X1084718Y1851592D3*
X1637654Y1512837D3*
X1623866Y1565471D3*
X2204533Y1520852D3*
X2158854Y1520087D3*
X2095396Y1523003D3*
X1691364Y1702470D3*
X1853039Y1694869D3*
X1411860Y1390567D3*
X1335518Y1390591D3*
X1260970Y1391009D3*
X1185979Y1390591D3*
X1109639Y1391167D3*
X1042266Y1390214D3*
X960371Y1391404D3*
X886333Y1394022D3*
X2313591Y736773D3*
D45*
X470301Y1068121D3*
X476688Y988571D3*
X475898Y900113D3*
X471833Y648026D3*
X547400Y1068119D3*
X624089Y1068223D3*
X696416Y1068119D3*
X771652Y1066563D3*
X848648Y1065007D3*
X548955Y983031D3*
X548853Y898657D3*
X550820Y649992D3*
X627509Y651652D3*
X701597Y651550D3*
X780050Y651652D3*
X853423Y651449D3*
X547297Y815990D3*
X475795D3*
X468537Y731412D3*
X549058Y734730D3*
D43*
X2063028Y1494966D3*
X2113507Y1418760D3*
X2064877Y1402123D3*
X2218531Y734925D3*
X1383942Y1207329D3*
X1695259Y957445D3*
X790291Y1756432D3*
X780298Y1381904D3*
X1823003Y1411820D3*
X1753105Y1346034D2*
D16*
X2031159D1*
X1752387Y1321165D2*
X2030980D1*
X1751669Y1296297D2*
X2030765D1*
X1750988Y1271428D2*
X2030550D1*
X1750270Y1246559D2*
X2030370D1*
X1749552Y1221690D2*
X2030155D1*
X1748835Y1196822D2*
X2029975D1*
X1748152Y1171953D2*
X2029760D1*
X1747436Y1147084D2*
X2029545D1*
X1746718Y1122215D2*
X2029365D1*
X1746000Y1097346D2*
X2029150D1*
X1816177Y1088959D2*
X1896983D1*
Y1088062D1*
X1951470Y1088079D1*
Y1084311D1*
X2031531Y1083654D1*
X2033852Y1368446D1*
X1751270Y1370801D1*
X1743193Y1085938D1*
X1784871Y1085636D1*
X1789972Y1087251D1*
X1796031Y1088210D1*
X1802165D1*
X1806990Y1087496D1*
X1806991Y1088959D1*
X1816177D1*
X451570Y1087205D2*
X893759D1*
X451462Y1062336D2*
X893759D1*
X451391Y1037467D2*
X893759D1*
X451319Y1012598D2*
X893759D1*
X451211Y987730D2*
X893759D1*
X451139Y962861D2*
X893759D1*
X451068Y937992D2*
X893759D1*
X450961Y913123D2*
X893759D1*
X450888Y888255D2*
X893759D1*
X450816Y863386D2*
X893759D1*
X450709Y838517D2*
X893759D1*
X450638Y813648D2*
X893759D1*
X450566Y788780D2*
X893759D1*
X450458Y763911D2*
X893759D1*
X450386Y739042D2*
X893759D1*
X450314Y714173D2*
X893759D1*
X450206Y689304D2*
X893759D1*
X450135Y664436D2*
X893759D1*
X450063Y639567D2*
X893759D1*
X449955Y614698D2*
X893759D1*
X449122Y1106938D2*
X447444Y606715D1*
X896273Y603413D1*
X896262Y1111966D1*
X449147Y1106928D1*
X605282Y1898719D2*
X1670672D1*
X1871420D2*
X2433714D1*
X615941Y1873850D2*
X1670672D1*
X1871420D2*
X2425101D1*
X618919Y1848982D2*
X1318075D1*
X1413072D2*
X1670672D1*
X1871420D2*
X2423773D1*
X614971Y1824113D2*
X1002437D1*
X1197479D2*
X1318075D1*
X1413072D2*
X1670672D1*
X1871420D2*
X2429444D1*
X603058Y1799244D2*
X1002437D1*
X1256186D2*
X1318075D1*
X1434495D2*
X1706915D1*
X1836182D2*
X2443761D1*
X446639Y1774375D2*
X472320D1*
X577795D2*
X1002437D1*
X1261928D2*
X1318075D1*
X1459362D2*
X1691161D1*
X1851936D2*
X2475160D1*
X2559500D2*
X2588912D1*
X446710Y1749507D2*
X1002437D1*
X1256652D2*
X1396517D1*
X1484230D2*
X1691161D1*
X1851936D2*
X2588804D1*
X446747Y1724638D2*
X1002652D1*
X1346972D2*
X1421385D1*
X1509098D2*
X1656677D1*
X1880858D2*
X2588697D1*
X446818Y1699769D2*
X1002652D1*
X1346972D2*
X1446252D1*
X1533966D2*
X1649860D1*
X1894315D2*
X2588589D1*
X446854Y1674900D2*
X1002652D1*
X1346972D2*
X1471121D1*
X1558833D2*
X1661163D1*
X1889147D2*
X2588482D1*
X446927Y1650031D2*
X1192479D1*
X1346972D2*
X1495988D1*
X1583701D2*
X1676736D1*
X1851936D2*
X2588374D1*
X446962Y1625163D2*
X1520856D1*
X1608568D2*
X1675302D1*
X1738793D2*
X2038018D1*
X2317388D2*
X2588266D1*
X447034Y1600294D2*
X1545723D1*
X1644130D2*
X1675302D1*
X1738793D2*
X2038018D1*
X2317388D2*
X2588159D1*
X447070Y1575425D2*
X1570591D1*
X1738793D2*
X2038018D1*
X2317388D2*
X2588051D1*
X447142Y1550556D2*
X1448656D1*
X1521012D2*
X1585232D1*
X1738793D2*
X2038018D1*
X2317388D2*
X2587944D1*
X447177Y1525688D2*
X1443597D1*
X1526106D2*
X1626571D1*
X1738793D2*
X2036367D1*
X2245836D2*
X2587801D1*
X447249Y1500819D2*
X839774D1*
X1516597D2*
X1643831D1*
X1748122D2*
X2021870D1*
X2240597D2*
X2257092D1*
X2318286D2*
X2446273D1*
X2502516D2*
X2587693D1*
X447285Y1475950D2*
X839774D1*
X1516597D2*
X1643831D1*
X1749738D2*
X2026356D1*
X2217487D2*
X2246004D1*
X2329196D2*
X2433068D1*
X2515685D2*
X2587585D1*
X447357Y1451081D2*
X839774D1*
X1516597D2*
X1539946D1*
X1625470D2*
X1643831D1*
X1729786D2*
X2089010D1*
X2138004D2*
X2153566D1*
X2523472D2*
X2587478D1*
X447392Y1426213D2*
X856461D1*
X1516597D2*
X1539946D1*
X1729786D2*
X2072647D1*
X2523472D2*
X2587370D1*
X447465Y1401344D2*
X845444D1*
X1516597D2*
X1539946D1*
X1729786D2*
X2058615D1*
X2523472D2*
X2587262D1*
X447500Y1376475D2*
X848888D1*
X1516597D2*
X1539946D1*
X1749163D2*
X2040675D1*
X2523472D2*
X2587155D1*
X447572Y1351606D2*
X958012D1*
X1059290D2*
X1180602D1*
X1191362D2*
X1330131D1*
X1340913D2*
X1453106D1*
X1516597D2*
X1650218D1*
X1749163D2*
X2040675D1*
X2487983D2*
X2587047D1*
X447608Y1326738D2*
X958012D1*
X1059290D2*
X1432724D1*
X1523774D2*
X1552865D1*
X1629130D2*
X1650218D1*
X1749163D2*
X2040530D1*
X2487983D2*
X2586940D1*
X447680Y1301869D2*
X958012D1*
X1059290D2*
X1432724D1*
X1523774D2*
X1538331D1*
X1631571D2*
X1646127D1*
X1745037D2*
X2040530D1*
X2487983D2*
X2586831D1*
X447715Y1277000D2*
X1431217D1*
X1745037D2*
X2040530D1*
X2487983D2*
X2586723D1*
X447787Y1252131D2*
X1431217D1*
X1745037D2*
X2040530D1*
X2487983D2*
X2586615D1*
X447823Y1227262D2*
X1431217D1*
X1745037D2*
X2043797D1*
X2487983D2*
X2586508D1*
X447895Y1202394D2*
X795314D1*
X909975D2*
X1431217D1*
X1619550D2*
X1645697D1*
X1744642D2*
X2043797D1*
X2487983D2*
X2586400D1*
X447930Y1177525D2*
X795314D1*
X942630D2*
X1506969D1*
X1594681D2*
X1645697D1*
X1744642D2*
X2043797D1*
X2482277D2*
X2586293D1*
X448003Y1152656D2*
X795314D1*
X967497D2*
X1491395D1*
X1569814D2*
X1655529D1*
X1719020D2*
X2043797D1*
X2457875D2*
X2586185D1*
X991109Y1127787D2*
X1475319D1*
X1596942D2*
X1655529D1*
X1720993D2*
X2043797D1*
X2433008D2*
X2586077D1*
X991109Y1102919D2*
X1470581D1*
X1610902D2*
X1659512D1*
X1737537D2*
X2043797D1*
X2408140D2*
X2585970D1*
X991109Y1078050D2*
X1484720D1*
X1633042D2*
X1670816D1*
X1741304D2*
X1770178D1*
X2383273D2*
X2585862D1*
X991109Y1053181D2*
X1570197D1*
X1643017D2*
X1664608D1*
X2358404D2*
X2585755D1*
X991109Y1028312D2*
X1561799D1*
X1660709D2*
X1676665D1*
X1735455D2*
X1763576D1*
X2333537D2*
X2585647D1*
X991109Y1003444D2*
X1561799D1*
X1660709D2*
X1804484D1*
X2308669D2*
X2585539D1*
X991109Y978575D2*
X1561799D1*
X1660709D2*
X1760454D1*
X2283802D2*
X2585432D1*
X971445Y953706D2*
X1735587D1*
X2338776D2*
X2585324D1*
X971445Y928837D2*
X1719833D1*
X2340319D2*
X2585217D1*
X1017844Y903969D2*
X1729272D1*
X2319972D2*
X2585109D1*
X1037938Y879100D2*
X1754139D1*
X2297474D2*
X2585001D1*
X1036287Y854231D2*
X1458417D1*
X1483656D2*
X1779007D1*
X2159463D2*
X2186794D1*
X2297474D2*
X2584894D1*
X1029362Y829362D2*
X1181571D1*
X1270144D2*
X1423573D1*
X1518500D2*
X1803874D1*
X2134594D2*
X2186794D1*
X2297474D2*
X2584786D1*
X1029362Y804493D2*
X1171739D1*
X1280013D2*
X1416541D1*
X1525533D2*
X2186794D1*
X2297474D2*
X2584678D1*
X1041921Y779625D2*
X1174861D1*
X1276856D2*
X1422210D1*
X1519864D2*
X2186794D1*
X2297474D2*
X2584571D1*
X1256617Y754756D2*
X1449697D1*
X1492375D2*
X2182345D1*
X2297474D2*
X2584463D1*
X981277Y729887D2*
X1003944D1*
X1267382D2*
X2177249D1*
X2297474D2*
X2584356D1*
X971588Y705018D2*
X1009937D1*
X1315825D2*
X1506718D1*
X1569240D2*
X2190849D1*
X2297474D2*
X2584248D1*
X936566Y680150D2*
X1009937D1*
X1340155D2*
X1488811D1*
X1587146D2*
X2233982D1*
X2297474D2*
X2584140D1*
X936566Y655281D2*
X1105245D1*
X1219907D2*
X1241640D1*
X1343923D2*
X1487591D1*
X1588331D2*
X2233982D1*
X2297474D2*
X2584033D1*
X936566Y630412D2*
X1251797D1*
X1333803D2*
X1500329D1*
X1575627D2*
X2233982D1*
X2297474D2*
X2583925D1*
X936566Y605543D2*
X1500151D1*
X1575627D2*
X2233982D1*
X2297474D2*
X2482265D1*
X2562945D2*
X2583818D1*
X944388Y580675D2*
X1475282D1*
X1574012D2*
X2233982D1*
X2297474D2*
X2449753D1*
X969256Y555806D2*
X1450415D1*
X1554850D2*
X2218301D1*
X2297259D2*
X2435077D1*
X994123Y530937D2*
X1425547D1*
X1529983D2*
X2144846D1*
X2281146D2*
X2429121D1*
X1018992Y506068D2*
X1400680D1*
X1505114D2*
X2144846D1*
X2256278D2*
X2430197D1*
X1480247Y481199D2*
X2144846D1*
X2243790D2*
X2438522D1*
X1455379Y456331D2*
X2144846D1*
X2244938D2*
X2456966D1*
X1551621Y1454840D2*
X1622978D1*
X1623161Y1433861D1*
X1629126Y1432429D1*
X1634793Y1430081D1*
X1640879Y1426201D1*
X1646318Y1430594D1*
X1646325Y1508458D1*
X1628122Y1526629D1*
X1623866Y1526381D1*
X1617751Y1526862D1*
X1611786Y1528294D1*
X1606119Y1530642D1*
X1600890Y1533846D1*
X1596224Y1537829D1*
X1592241Y1542495D1*
X1589037Y1547724D1*
X1586689Y1553391D1*
X1585257Y1559356D1*
X1584846Y1563661D1*
X1391081Y1757427D1*
X1320589Y1757433D1*
Y1851362D1*
X1410581D1*
Y1817021D1*
X1415445Y1814646D1*
X1419157Y1811948D1*
X1479306Y1751928D1*
X1626933Y1604441D1*
X1632992Y1603482D1*
X1638825Y1601587D1*
X1644291Y1598802D1*
X1649253Y1595196D1*
X1653591Y1590858D1*
X1657197Y1585896D1*
X1659982Y1580430D1*
X1661483Y1575993D1*
X1677790Y1559688D1*
X1677900Y1643257D1*
X1678618Y1647790D1*
X1680035Y1652155D1*
X1682119Y1656244D1*
X1684818Y1659957D1*
X1686383Y1661650D1*
X1685248Y1663861D1*
X1679283Y1665293D1*
X1673617Y1667640D1*
X1668387Y1670845D1*
X1663722Y1674828D1*
X1659739Y1679493D1*
X1656534Y1684723D1*
X1654186Y1690390D1*
X1652755Y1696354D1*
X1652273Y1702470D1*
X1652755Y1708585D1*
X1654186Y1714550D1*
X1656534Y1720217D1*
X1659739Y1725446D1*
X1663722Y1730112D1*
X1668387Y1734094D1*
X1673617Y1737299D1*
X1679283Y1739647D1*
X1685248Y1741079D1*
X1689004Y1741467D1*
X1693646Y1746114D1*
X1693668Y1791749D1*
X1709421D1*
X1709356Y1820913D1*
X1673169D1*
Y1922199D1*
X583957Y1920530D1*
X589665Y1915301D1*
X594535Y1910033D1*
X598978Y1904399D1*
X602963Y1898433D1*
X606469Y1892173D1*
X609472Y1885657D1*
X611955Y1878927D1*
X613903Y1872022D1*
X615303Y1864986D1*
X616146Y1857861D1*
X616428Y1850692D1*
X616146Y1843522D1*
X615303Y1836398D1*
X613903Y1829361D1*
X611955Y1822457D1*
X609472Y1815726D1*
X606469Y1809210D1*
X602963Y1802950D1*
X598978Y1796984D1*
X594535Y1791350D1*
X589665Y1786083D1*
X584398Y1781213D1*
X578764Y1776770D1*
X572798Y1772785D1*
X566538Y1769280D1*
X560022Y1766276D1*
X553291Y1763793D1*
X546387Y1761845D1*
X539350Y1760445D1*
X532226Y1759602D1*
X525056Y1759320D1*
X517887Y1759602D1*
X510762Y1760445D1*
X503726Y1761845D1*
X496822Y1763793D1*
X490091Y1766276D1*
X483575Y1769280D1*
X477315Y1772785D1*
X471349Y1776770D1*
X465715Y1781213D1*
X460448Y1786083D1*
X455577Y1791350D1*
X451135Y1796984D1*
X447150Y1802950D1*
X444068Y1808451D1*
X445567Y1144701D1*
X797819Y1148644D1*
X797812Y1223726D1*
X907490D1*
Y1198140D1*
X911992Y1197776D1*
X916455Y1196703D1*
X920696Y1194948D1*
X924609Y1192550D1*
X928105Y1189562D1*
X965867Y1151672D1*
X968566Y1147959D1*
X970650Y1143870D1*
X972067Y1139505D1*
X972786Y1134963D1*
X981308Y1133234D1*
X988623D1*
Y972375D1*
X968923D1*
X968945Y895664D1*
X972243Y898841D1*
X977205Y902448D1*
X982671Y905232D1*
X988504Y907127D1*
X994563Y908087D1*
X1000697D1*
X1006756Y907127D1*
X1012589Y905232D1*
X1018055Y902448D1*
X1023017Y898841D1*
X1027354Y894504D1*
X1030961Y889542D1*
X1033745Y884076D1*
X1035640Y878243D1*
X1036600Y872184D1*
Y866050D1*
X1035640Y859991D1*
X1033745Y854157D1*
X1030961Y848692D1*
X1026874Y843210D1*
X1026878Y792146D1*
X1051831Y767214D1*
X1102415Y767227D1*
Y749535D1*
X1107764Y749510D1*
X1107734Y763634D1*
X1187218D1*
X1183795Y767839D1*
X1179531Y774797D1*
X1176408Y782335D1*
X1174504Y790269D1*
X1173864Y798404D1*
X1174504Y806539D1*
X1176408Y814474D1*
X1179531Y822012D1*
X1183795Y828970D1*
X1189094Y835175D1*
X1195299Y840474D1*
X1202257Y844738D1*
X1209795Y847861D1*
X1217730Y849765D1*
X1225865Y850406D1*
X1234000Y849765D1*
X1241934Y847861D1*
X1249472Y844738D1*
X1256430Y840474D1*
X1262635Y835175D1*
X1267934Y828970D1*
X1272198Y822012D1*
X1275322Y814474D1*
X1277226Y806539D1*
X1277866Y798404D1*
X1277226Y790269D1*
X1275322Y782335D1*
X1272198Y774797D1*
X1267934Y767839D1*
X1262635Y761634D1*
X1256430Y756335D1*
X1249472Y752071D1*
X1241934Y748948D1*
X1234000Y747043D1*
X1225865Y746403D1*
X1217402Y747109D1*
X1217411Y738049D1*
X1246903Y737953D1*
X1251436Y737235D1*
X1255801Y735818D1*
X1259890Y733734D1*
X1263602Y731035D1*
X1285715Y709051D1*
X1292794Y709542D1*
X1300449Y708940D1*
X1307915Y707147D1*
X1315009Y704209D1*
X1321556Y700197D1*
X1327395Y695210D1*
X1332382Y689371D1*
X1336394Y682824D1*
X1339332Y675730D1*
X1341125Y668264D1*
X1341727Y660609D1*
X1341125Y652954D1*
X1339332Y645488D1*
X1336394Y638394D1*
X1332382Y631846D1*
X1327395Y626008D1*
X1321556Y621021D1*
X1315009Y617009D1*
X1307915Y614071D1*
X1300449Y612278D1*
X1292794Y611676D1*
X1285139Y612278D1*
X1277673Y614071D1*
X1270579Y617009D1*
X1264031Y621021D1*
X1258193Y626008D1*
X1253206Y631846D1*
X1249194Y638394D1*
X1246256Y645488D1*
X1244463Y652954D1*
X1243861Y660609D1*
X1244391Y667652D1*
X1232504Y679537D1*
X1217444Y679547D1*
X1217411Y653957D1*
X1107734D1*
Y691025D1*
X1102411Y691014D1*
X1102415Y673298D1*
X1012423D1*
Y723930D1*
X975390Y761056D1*
X972692Y764769D1*
X970608Y768858D1*
X969188Y773232D1*
X968945Y756720D1*
X973028Y751206D1*
X975812Y745740D1*
X977707Y739907D1*
X978667Y733848D1*
Y727714D1*
X977707Y721655D1*
X975812Y715822D1*
X973028Y710356D1*
X969421Y705394D1*
X965084Y701056D1*
X960122Y697450D1*
X954656Y694665D1*
X948823Y692770D1*
X942764Y691811D1*
X936630D1*
X934070Y692114D1*
X933979Y588639D1*
X1024696Y497856D1*
X1394940Y497837D1*
X1502815Y605707D1*
X1502812Y631370D1*
X1498378Y636667D1*
X1494366Y643214D1*
X1491428Y650308D1*
X1489635Y657774D1*
X1489033Y665429D1*
X1489635Y673084D1*
X1491428Y680550D1*
X1494366Y687644D1*
X1498378Y694192D1*
X1503365Y700030D1*
X1509203Y705017D1*
X1515751Y709029D1*
X1522845Y711967D1*
X1530311Y713760D1*
X1537966Y714362D1*
X1545621Y713760D1*
X1553087Y711967D1*
X1560181Y709029D1*
X1566728Y705017D1*
X1572567Y700030D1*
X1577554Y694192D1*
X1581566Y687644D1*
X1584504Y680550D1*
X1586297Y673084D1*
X1586899Y665429D1*
X1586297Y657774D1*
X1584504Y650308D1*
X1581566Y643214D1*
X1577554Y636667D1*
X1573127Y631434D1*
X1573012Y588386D1*
X1572148Y582938D1*
X1570444Y577692D1*
X1567940Y572777D1*
X1564697Y568314D1*
X1523849Y527312D1*
X1437493Y440958D1*
X2165581Y442064D1*
X2165466Y442734D1*
X2147356Y442732D1*
Y532724D1*
X2197701D1*
X2236480Y571499D1*
X2236278Y700096D1*
X2230612Y697748D1*
X2224647Y696316D1*
X2218531Y695835D1*
X2212416Y696316D1*
X2206451Y697748D1*
X2200785Y700096D1*
X2195555Y703301D1*
X2190890Y707283D1*
X2186907Y711949D1*
X2183702Y717178D1*
X2181354Y722845D1*
X2179923Y728810D1*
X2179441Y734925D1*
X2179923Y741041D1*
X2181354Y747005D1*
X2183702Y752672D1*
X2186907Y757902D1*
X2189287Y760832D1*
X2189283Y886535D1*
X2123236Y820633D1*
X2119524Y817934D1*
X2115434Y815850D1*
X2111070Y814433D1*
X2106537Y813715D1*
X2021564Y813625D1*
X1831919Y813715D1*
X1827386Y814433D1*
X1823021Y815850D1*
X1818932Y817934D1*
X1815219Y820633D1*
X1755071Y880652D1*
X1729176Y906676D1*
X1726478Y910388D1*
X1724394Y914478D1*
X1722976Y918843D1*
X1722259Y923375D1*
Y927966D1*
X1722976Y932499D1*
X1724394Y936864D1*
X1726478Y940953D1*
X1729176Y944665D1*
X1773253Y988870D1*
X1776743Y991852D1*
X1780656Y994249D1*
X1784896Y996005D1*
X1789360Y997077D1*
X1793934Y997437D1*
X1806961D1*
X1806991Y1010927D1*
X1802165Y1010270D1*
X1796031D1*
X1789972Y1011230D1*
X1784139Y1013125D1*
X1778673Y1015909D1*
X1773711Y1019516D1*
X1769374Y1023853D1*
X1765768Y1028815D1*
X1762983Y1034281D1*
X1761088Y1040114D1*
X1760129Y1046173D1*
Y1052307D1*
X1761088Y1058366D1*
X1762983Y1064199D1*
X1765768Y1069665D1*
X1769374Y1074627D1*
X1773711Y1078965D1*
X1778673Y1082571D1*
X1784139Y1085356D1*
X1789972Y1087251D1*
X1796031Y1088210D1*
X1802165D1*
X1806990Y1087496D1*
X1806991Y1088959D1*
X1896983D1*
Y1088062D1*
X1951470Y1088079D1*
Y1070387D1*
X1968087Y1070362D1*
X1968096Y1080648D1*
X2046287D1*
X2046297Y1241963D1*
X2043031Y1241953D1*
X2043175Y1386198D1*
X2059933D1*
X2060034Y1395459D1*
X2060752Y1399992D1*
X2062169Y1404357D1*
X2064253Y1408446D1*
X2066951Y1412159D1*
X2074537Y1421827D1*
X2075496Y1427886D1*
X2077391Y1433719D1*
X2080176Y1439185D1*
X2083782Y1444147D1*
X2088119Y1448484D1*
X2093081Y1452091D1*
X2098547Y1454875D1*
X2104381Y1456770D1*
X2110440Y1457730D1*
X2116573D1*
X2122633Y1456770D1*
X2128466Y1454875D1*
X2133932Y1452091D1*
X2138894Y1448484D1*
X2142442Y1445001D1*
X2147168Y1447837D1*
X2152835Y1450185D1*
X2156976Y1451255D1*
X2142513Y1465706D1*
X2088984Y1465718D1*
X2083453Y1461635D1*
X2077987Y1458850D1*
X2072154Y1456955D1*
X2066094Y1455996D1*
X2059961D1*
X2053902Y1456955D1*
X2048068Y1458850D1*
X2042602Y1461635D1*
X2037640Y1465241D1*
X2033303Y1469579D1*
X2029697Y1474541D1*
X2026912Y1480007D1*
X2025017Y1485840D1*
X2024058Y1491899D1*
Y1498033D1*
X2025017Y1504092D1*
X2026912Y1509925D1*
X2029697Y1515391D1*
X2033303Y1520353D1*
X2037640Y1524690D1*
X2042634Y1528314D1*
X2040533Y1528319D1*
Y1637996D1*
X2120088D1*
X2120079Y1638486D1*
X2205232D1*
X2205215Y1640299D1*
X2314892D1*
Y1530622D1*
X2247896D1*
X2243503Y1523919D1*
Y1517785D1*
X2242543Y1511726D1*
X2240648Y1505892D1*
X2237864Y1500427D1*
X2234257Y1495465D1*
X2229920Y1491127D1*
X2224958Y1487521D1*
X2219492Y1484736D1*
X2213659Y1482841D1*
X2208898Y1482035D1*
X2230220Y1460597D1*
X2232919Y1456885D1*
X2235005Y1452786D1*
X2236668Y1451278D1*
X2255579D1*
X2252857Y1455879D1*
X2250509Y1461546D1*
X2248774Y1469051D1*
X2248415Y1473626D1*
X2248777Y1478210D1*
X2250509Y1485706D1*
X2252857Y1491373D1*
X2256062Y1496602D1*
X2260045Y1501268D1*
X2264710Y1505251D1*
X2269940Y1508455D1*
X2275606Y1510803D1*
X2281571Y1512235D1*
X2287686Y1512717D1*
X2293802Y1512235D1*
X2299766Y1510803D1*
X2305433Y1508455D1*
X2310663Y1505251D1*
X2315328Y1501268D1*
X2319311Y1496602D1*
X2322516Y1491373D1*
X2324864Y1485706D1*
X2326295Y1479741D1*
X2326777Y1473626D1*
X2326106Y1466558D1*
X2341353Y1451299D1*
X2360114Y1451278D1*
X2360118Y1451829D1*
X2440504D1*
X2438268Y1456331D1*
X2436373Y1462164D1*
X2435413Y1468223D1*
Y1474357D1*
X2436373Y1480416D1*
X2438268Y1486249D1*
X2441052Y1491715D1*
X2444659Y1496677D1*
X2448996Y1501014D1*
X2453958Y1504621D1*
X2459424Y1507406D1*
X2465257Y1509301D1*
X2471316Y1510260D1*
X2477450D1*
X2483509Y1509301D1*
X2489343Y1507406D1*
X2494808Y1504621D1*
X2499770Y1501014D1*
X2504108Y1496677D1*
X2507714Y1491715D1*
X2510499Y1486249D1*
X2512394Y1480416D1*
X2513353Y1474357D1*
Y1468223D1*
X2512394Y1462164D1*
X2510499Y1456331D1*
X2508259Y1451839D1*
X2520976Y1451829D1*
Y1361837D1*
X2485487D1*
X2485404Y1192583D1*
X2484686Y1188050D1*
X2483269Y1183685D1*
X2481185Y1179596D1*
X2478487Y1175883D1*
X2418467Y1115735D1*
X2274672Y971941D1*
X2276631Y970262D1*
X2282323Y973797D1*
X2287990Y976144D1*
X2293954Y977576D1*
X2300070Y978058D1*
X2306185Y977576D1*
X2312150Y976144D1*
X2317816Y973797D1*
X2323046Y970592D1*
X2327711Y966609D1*
X2331694Y961944D1*
X2334899Y956714D1*
X2337247Y951047D1*
X2338678Y945083D1*
X2339160Y938967D1*
X2338678Y932852D1*
X2337247Y926887D1*
X2334899Y921220D1*
X2331694Y915991D1*
X2327711Y911325D1*
X2323046Y907343D1*
X2317816Y904138D1*
X2312150Y901790D1*
X2306185Y900358D1*
X2302429Y899970D1*
X2294996Y892531D1*
X2294892Y557094D1*
X2294175Y552562D1*
X2292757Y548197D1*
X2290673Y544108D1*
X2287975Y540395D1*
X2241276Y493568D1*
X2241285Y460777D1*
X2242688Y454928D1*
X2243169Y448812D1*
X2242588Y442192D1*
X2478133Y442539D1*
X2468888Y448451D1*
X2463255Y452894D1*
X2457987Y457764D1*
X2453117Y463031D1*
X2448675Y468665D1*
X2444689Y474631D1*
X2441184Y480891D1*
X2438180Y487407D1*
X2435697Y494138D1*
X2433749Y501042D1*
X2432349Y508079D1*
X2431507Y515203D1*
X2431224Y522373D1*
X2431507Y529542D1*
X2432349Y536667D1*
X2433749Y543703D1*
X2435697Y550608D1*
X2438180Y557339D1*
X2441184Y563854D1*
X2444689Y570114D1*
X2448675Y576080D1*
X2453117Y581714D1*
X2457987Y586982D1*
X2463255Y591852D1*
X2468888Y596294D1*
X2474854Y600280D1*
X2481114Y603785D1*
X2487630Y606789D1*
X2494361Y609272D1*
X2501265Y611219D1*
X2508302Y612619D1*
X2515427Y613462D1*
X2522596Y613744D1*
X2529765Y613462D1*
X2536890Y612619D1*
X2543927Y611219D1*
X2550831Y609272D1*
X2557562Y606789D1*
X2564077Y603785D1*
X2570337Y600280D1*
X2576303Y596294D1*
X2581937Y591852D1*
X2586238Y587877D1*
X2591530Y1803371D1*
X2586808Y1797341D1*
X2581938Y1792073D1*
X2576671Y1787203D1*
X2571037Y1782761D1*
X2565071Y1778776D1*
X2558811Y1775270D1*
X2552295Y1772266D1*
X2545564Y1769783D1*
X2538660Y1767836D1*
X2531623Y1766436D1*
X2524499Y1765593D1*
X2517329Y1765311D1*
X2510160Y1765593D1*
X2503035Y1766436D1*
X2495999Y1767836D1*
X2489094Y1769783D1*
X2482364Y1772266D1*
X2475848Y1775270D1*
X2469588Y1778776D1*
X2463622Y1782761D1*
X2457988Y1787203D1*
X2452720Y1792073D1*
X2447850Y1797341D1*
X2443408Y1802975D1*
X2439423Y1808941D1*
X2435917Y1815201D1*
X2432913Y1821717D1*
X2430430Y1828448D1*
X2428483Y1835352D1*
X2427083Y1842388D1*
X2426240Y1849513D1*
X2425958Y1856682D1*
X2426240Y1863852D1*
X2427083Y1870976D1*
X2428483Y1878013D1*
X2430430Y1884917D1*
X2432913Y1891648D1*
X2435917Y1898164D1*
X2439423Y1904424D1*
X2443408Y1910390D1*
X2447850Y1916024D1*
X2454963Y1923365D1*
X1868896Y1922475D1*
X1868927Y1816739D1*
X1833652D1*
X1833685Y1793424D1*
X1849433Y1793433D1*
Y1742801D1*
X1858739Y1733530D1*
X1865119Y1732046D1*
X1870786Y1729698D1*
X1876016Y1726493D1*
X1880681Y1722510D1*
X1884664Y1717845D1*
X1887869Y1712615D1*
X1890217Y1706949D1*
X1891648Y1700984D1*
X1892130Y1694869D1*
X1891648Y1688753D1*
X1890217Y1682789D1*
X1887869Y1677122D1*
X1884664Y1671892D1*
X1880681Y1667227D1*
X1876016Y1663244D1*
X1870786Y1660039D1*
X1865119Y1657692D1*
X1859155Y1656260D1*
X1853039Y1655778D1*
X1849437Y1655962D1*
X1849433Y1632575D1*
X1783657D1*
X1783660Y1630891D1*
X1738339D1*
X1736285Y1628827D1*
X1736306Y1514399D1*
X1741071Y1508959D1*
X1744276Y1503730D1*
X1746623Y1498063D1*
X1748055Y1492098D1*
X1748537Y1485983D1*
X1748055Y1479867D1*
X1746623Y1473903D1*
X1744276Y1468236D1*
X1741071Y1463007D1*
X1737088Y1458341D1*
X1732423Y1454358D1*
X1727303Y1451094D1*
Y1393500D1*
X1746663D1*
Y1303508D1*
X1742537D1*
X1742546Y1216676D1*
X1742151D1*
X1742134Y1160543D1*
X1718832Y1160484D1*
X1717404Y1158675D1*
X1716521Y1151407D1*
Y1129769D1*
X1728298Y1117871D1*
X1730996Y1114159D1*
X1733080Y1110070D1*
X1734497Y1105705D1*
X1735215Y1101172D1*
X1735306Y1082621D1*
X1739388Y1077117D1*
X1742173Y1071651D1*
X1744068Y1065818D1*
X1745028Y1059759D1*
Y1053625D1*
X1744068Y1047566D1*
X1742173Y1041732D1*
X1739388Y1036266D1*
X1735782Y1031304D1*
X1731445Y1026967D1*
X1726483Y1023361D1*
X1721017Y1020576D1*
X1715184Y1018681D1*
X1709125Y1017722D1*
X1702991D1*
X1696932Y1018681D1*
X1691098Y1020576D1*
X1685633Y1023361D1*
X1680671Y1026967D1*
X1676333Y1031304D1*
X1672727Y1036266D1*
X1669942Y1041732D1*
X1668047Y1047566D1*
X1667088Y1053625D1*
Y1059759D1*
X1668047Y1065818D1*
X1669942Y1071651D1*
X1672727Y1077117D1*
X1676814Y1082598D1*
X1676810Y1086727D1*
X1665033Y1098667D1*
X1662335Y1102379D1*
X1660251Y1106469D1*
X1658833Y1110833D1*
X1658115Y1115366D1*
X1658025Y1160543D1*
X1648205D1*
Y1250535D1*
X1648600D1*
X1648617Y1306668D1*
X1652744D1*
X1652734Y1362394D1*
X1647803Y1364927D1*
X1644395Y1367308D1*
X1640022Y1363627D1*
X1634793Y1360423D1*
X1629126Y1358075D1*
X1623161Y1356643D1*
X1617046Y1356161D1*
X1610930Y1356643D1*
X1604966Y1358075D1*
X1599299Y1360423D1*
X1594070Y1363627D1*
X1590681Y1366430D1*
X1542434Y1366423D1*
Y1454840D1*
X1551621D1*
X1444407Y1335619D2*
X1455567D1*
X1455601Y1426535D1*
X1439014Y1426555D1*
X1439013Y1418672D1*
X1443484Y1413543D1*
X1446689Y1408314D1*
X1449037Y1402647D1*
X1450469Y1396682D1*
X1450950Y1390567D1*
X1450469Y1384451D1*
X1449037Y1378487D1*
X1446689Y1372820D1*
X1443484Y1367591D1*
X1439501Y1362925D1*
X1434836Y1358942D1*
X1429606Y1355738D1*
X1423940Y1353390D1*
X1417975Y1351958D1*
X1411860Y1351476D1*
X1405744Y1351958D1*
X1399780Y1353390D1*
X1394113Y1355738D1*
X1388883Y1358942D1*
X1384218Y1362925D1*
X1381459Y1366037D1*
X1365965Y1366038D1*
X1360906Y1360866D1*
X1355944Y1357260D1*
X1350478Y1354475D1*
X1344644Y1352580D1*
X1338585Y1351621D1*
X1332451D1*
X1326392Y1352580D1*
X1320559Y1354475D1*
X1315093Y1357260D1*
X1310131Y1360866D1*
X1305133Y1366041D1*
X1291038Y1366038D1*
X1286357Y1361285D1*
X1281395Y1357678D1*
X1275929Y1354894D1*
X1270096Y1352999D1*
X1264037Y1352039D1*
X1257903D1*
X1251844Y1352999D1*
X1246010Y1354894D1*
X1240545Y1357678D1*
X1235583Y1361285D1*
X1230911Y1366046D1*
X1216399Y1366038D1*
X1211366Y1360866D1*
X1206404Y1357260D1*
X1200938Y1354475D1*
X1195105Y1352580D1*
X1189046Y1351621D1*
X1182912D1*
X1176853Y1352580D1*
X1171020Y1354475D1*
X1165554Y1357260D1*
X1160592Y1360866D1*
X1155593Y1366041D1*
X1139606Y1366038D1*
X1135026Y1361442D1*
X1130064Y1357836D1*
X1124598Y1355051D1*
X1118765Y1353156D1*
X1112706Y1352197D1*
X1106572D1*
X1100513Y1353156D1*
X1094680Y1355051D1*
X1089214Y1357836D1*
X1084252Y1361442D1*
X1079714Y1366034D1*
X1071991Y1364827D1*
X1067654Y1360490D1*
X1062692Y1356883D1*
X1056810Y1353945D1*
X1056806Y1281240D1*
X960514D1*
X960371Y1352314D1*
X954256Y1352795D1*
X948291Y1354227D1*
X942625Y1356575D1*
X937395Y1359780D1*
X932730Y1363762D1*
X930625Y1366045D1*
X913608Y1366038D1*
X909310Y1362398D1*
X904080Y1359193D1*
X898413Y1356845D1*
X892449Y1355413D1*
X886333Y1354932D1*
X880218Y1355413D1*
X874253Y1356845D1*
X868587Y1359193D1*
X863357Y1362398D1*
X858692Y1366381D1*
X854709Y1371046D1*
X851504Y1376276D1*
X849156Y1381942D1*
X847724Y1387907D1*
X847243Y1394022D1*
X847724Y1400138D1*
X849156Y1406102D1*
X851504Y1411769D1*
X854709Y1416999D1*
X858983Y1421932D1*
X853530Y1426555D1*
X842278D1*
Y1516547D1*
X992782D1*
X992755Y1517500D1*
X1153613D1*
Y1514378D1*
X1295642Y1514404D1*
X1295631Y1516547D1*
X1448432D1*
X1446839Y1521583D1*
X1445879Y1527642D1*
Y1533776D1*
X1446839Y1539835D1*
X1448734Y1545668D1*
X1451518Y1551134D1*
X1455125Y1556096D1*
X1459462Y1560433D1*
X1464424Y1564039D1*
X1469890Y1566824D1*
X1475723Y1568719D1*
X1481782Y1569678D1*
X1487916D1*
X1493975Y1568719D1*
X1499808Y1566824D1*
X1505274Y1564039D1*
X1510236Y1560433D1*
X1514573Y1556096D1*
X1518180Y1551134D1*
X1520965Y1545668D1*
X1522860Y1539835D1*
X1523819Y1533776D1*
Y1527642D1*
X1522860Y1521583D1*
X1520965Y1515749D1*
X1518180Y1510283D1*
X1514093Y1504802D1*
X1514097Y1335606D1*
X1521276Y1335619D1*
Y1280035D1*
X1523949Y1284495D1*
X1526930Y1287984D1*
X1551974Y1313029D1*
X1552984Y1319812D1*
X1554879Y1325646D1*
X1557664Y1331112D1*
X1561270Y1336073D1*
X1565608Y1340411D1*
X1570570Y1344017D1*
X1576035Y1346802D1*
X1581869Y1348697D1*
X1587928Y1349656D1*
X1594062D1*
X1600121Y1348697D1*
X1605954Y1346802D1*
X1611420Y1344017D1*
X1616382Y1340411D1*
X1620719Y1336073D1*
X1624325Y1331112D1*
X1627110Y1325646D1*
X1629005Y1319812D1*
X1629965Y1313753D1*
Y1307619D1*
X1629005Y1301560D1*
X1628677Y1300395D1*
X1632391Y1296602D1*
X1635997Y1291640D1*
X1638782Y1286175D1*
X1640677Y1280341D1*
X1641636Y1274282D1*
Y1268148D1*
X1640677Y1262089D1*
X1638782Y1256256D1*
X1635997Y1250790D1*
X1631911Y1245308D1*
X1631824Y1227083D1*
X1631106Y1222550D1*
X1629689Y1218185D1*
X1627605Y1214096D1*
X1624907Y1210383D1*
X1564887Y1150235D1*
X1552276Y1137623D1*
X1554730Y1133657D1*
X1560563Y1135552D1*
X1566622Y1136512D1*
X1572756D1*
X1578815Y1135552D1*
X1584648Y1133657D1*
X1590114Y1130873D1*
X1595076Y1127266D1*
X1599413Y1122929D1*
X1603020Y1117967D1*
X1605804Y1112501D1*
X1607699Y1106668D1*
X1608686Y1099902D1*
X1633499Y1074967D1*
X1636197Y1071255D1*
X1638281Y1067165D1*
X1639698Y1062801D1*
X1640416Y1058268D1*
X1640507Y1055963D1*
X1646971Y1052899D1*
X1658223D1*
Y962907D1*
X1564294D1*
Y1052899D1*
X1572942D1*
X1567360Y1058508D1*
X1560563Y1059531D1*
X1554730Y1061427D1*
X1549264Y1064211D1*
X1544302Y1067818D1*
X1539965Y1072155D1*
X1536001Y1077756D1*
X1532219Y1075115D1*
X1526753Y1072331D1*
X1520920Y1070436D1*
X1514861Y1069476D1*
X1508727D1*
X1502668Y1070436D1*
X1496835Y1072331D1*
X1491369Y1075115D1*
X1486407Y1078722D1*
X1482070Y1083059D1*
X1478463Y1088021D1*
X1475678Y1093487D1*
X1473783Y1099320D1*
X1472824Y1105379D1*
Y1111513D1*
X1473783Y1117572D1*
X1475678Y1123406D1*
X1478463Y1128871D1*
X1482070Y1133833D1*
X1486407Y1138171D1*
X1491369Y1141777D1*
X1493765Y1143118D1*
X1493845Y1152009D1*
X1494563Y1156542D1*
X1495980Y1160907D1*
X1498064Y1164996D1*
X1500762Y1168709D1*
X1520819Y1188894D1*
X1433718Y1188869D1*
Y1278861D1*
X1435189D1*
X1435220Y1335619D1*
X1444407D1*
X1522878Y799144D2*
X1521601Y791085D1*
X1519080Y783324D1*
X1515375Y776054D1*
X1510579Y769453D1*
X1504808Y763682D1*
X1498207Y758886D1*
X1490937Y755181D1*
X1483176Y752660D1*
X1475117Y751383D1*
X1466957D1*
X1458898Y752660D1*
X1451136Y755181D1*
X1443866Y758886D1*
X1437265Y763682D1*
X1431495Y769453D1*
X1426698Y776054D1*
X1422993Y783324D1*
X1420472Y791085D1*
X1419196Y799144D1*
Y807304D1*
X1420472Y815364D1*
X1422993Y823125D1*
X1426698Y830395D1*
X1431495Y836996D1*
X1437265Y842766D1*
X1443866Y847563D1*
X1451136Y851268D1*
X1458898Y853789D1*
X1466957Y855066D1*
X1475117D1*
X1483176Y853789D1*
X1490937Y851268D1*
X1498207Y847563D1*
X1504808Y842766D1*
X1510579Y836996D1*
X1515375Y830395D1*
X1519080Y823125D1*
X1521601Y815364D1*
X1522878Y807304D1*
Y799144D1*
X1183104Y1674316D2*
X1114853D1*
X1114822Y1653213D1*
X1005144D1*
X1004938Y1740286D1*
Y1840777D1*
X1114615D1*
Y1835143D1*
X1194982Y1835175D1*
X1195178Y1808223D1*
X1200140Y1811829D1*
X1205606Y1814614D1*
X1211440Y1816509D1*
X1217499Y1817469D1*
X1223633D1*
X1229692Y1816509D1*
X1235525Y1814614D1*
X1240991Y1811829D1*
X1245953Y1808223D1*
X1250290Y1803886D1*
X1253896Y1798924D1*
X1256681Y1793458D1*
X1258576Y1787625D1*
X1259535Y1781566D1*
Y1775432D1*
X1258576Y1769373D1*
X1256681Y1763539D1*
X1253896Y1758073D1*
X1250625Y1753535D1*
X1254752Y1748722D1*
X1257957Y1743492D1*
X1260304Y1737825D1*
X1261736Y1731861D1*
X1262207Y1726021D1*
X1344478Y1726022D1*
Y1636030D1*
X1250549D1*
Y1649056D1*
X1247890Y1649055D1*
X1242394Y1644972D1*
X1236928Y1642188D1*
X1231094Y1640293D1*
X1225035Y1639333D1*
X1218902D1*
X1212843Y1640293D1*
X1207009Y1642188D1*
X1201543Y1644972D1*
X1196581Y1648579D1*
X1192244Y1652916D1*
X1188638Y1657878D1*
X1185853Y1663344D1*
X1183958Y1669177D1*
X1183108Y1674319D1*
D17*
X1582706Y1410631D3*
Y1359450D3*
D18*
X1478248Y1296529D3*
X1529429D3*
D19*
X1699698Y1348504D3*
X1766627D3*
D20*
X1851987Y1041995D3*
Y1108924D3*
D19*
X2023067Y1286949D3*
X2089996D3*
D20*
X2013092Y1033684D3*
Y1100613D3*
X1906474Y1041114D3*
Y1108043D3*
D19*
X2023210Y1341202D3*
X2090139D3*
X1762098Y1205539D3*
X1695169D3*
X1762510Y1261672D3*
X1695581D3*
X941731Y1327417D3*
X1008660D3*
D20*
X1365585Y1737469D3*
Y1804398D3*
X1057419Y787192D3*
Y720262D3*
D27*
X1292794Y739349D3*
D28*
Y660609D3*
D27*
X1537966Y744169D3*
D28*
Y665429D3*
D19*
X1480682Y1233865D3*
X1547612D3*
D20*
X1804437Y1746469D3*
Y1679539D3*
X1738664Y1744785D3*
Y1677856D3*
D19*
X2274446Y1406282D3*
X2341375D3*
X2474012Y1406833D3*
X2407083D3*
X2261249Y487728D3*
X2194320D3*
X1409525Y1471551D3*
X1342596D3*
X1258314Y1469408D3*
X1191385D3*
X1106648Y1472504D3*
X1039719D3*
X956172Y1471551D3*
X889243D3*
D20*
X943627Y1019340D3*
Y1086269D3*
D19*
X1678188Y1007903D3*
X1611259D3*
D20*
X1149986Y1721281D3*
Y1788210D3*
D19*
X1297513Y1681026D3*
X1364442D3*
D33*
X1159963Y606710D3*
X852651Y1168887D3*
X1162572Y708795D3*
X1059983Y1708051D3*
X1059777Y1785938D3*
X2095371Y1583157D3*
X2174917Y1583647D3*
X2260054Y1585461D3*
X1814088Y1871577D3*
X1728008Y1875752D3*
M02*
