M48
;Layer_Color=9474304
;FILE_FORMAT=2:5
INCH,LZ
;TYPE=PLATED
T1F00S00C0.02800
T2F00S00C0.03500
T3F00S00C0.03543
T4F00S00C0.04016
T5F00S00C0.04724
T6F00S00C0.05118
T7F00S00C0.05500
T8F00S00C0.06693
T9F00S00C0.07283
T10F00S00C0.07874
T11F00S00C0.12598
;TYPE=NON_PLATED
T12F00S00C0.02756
%
T01
X0068909Y0062591
X0064008Y0107992
X0067024Y0145024
X0197Y01425
X0192909Y0106091
X0198Y00605
X02845Y00915
X0285Y01155
X02775Y01125
X02705
X0492508Y0108992
X04975Y0064
X0590909Y0064091
X05855Y01085
X0681906Y0108405
X0686807Y0061193
X0777906Y0106
X0782807Y0061193
X0879524Y0061524
X0875122Y0105878
X08155Y0188
X0822561Y0224939
X0823122Y0266378
X0661Y0269
X06455Y02445
X0643Y0222
X0646Y01905
X0475
X04725Y0226
X0475Y02465
X0482073Y0267427
X0302Y0167
X0192098Y0194598
X01965Y02305
X0191646Y0276354
X0061622Y0276622
X00665Y0233
X00625Y019
X0066307Y0315307
X0061508Y0364008
X0058524Y0419024
X0053508Y0466492
X0134Y04665
X0138991Y0419491
X0216024Y0421024
X0211Y0465
X0193146Y0360854
X0198047Y0318547
X03245Y04165
X0332524Y0452476
X0378Y04425
X0372476Y0403524
X0553Y04545
X05635
X0582Y0454
X06085
X0619429Y0455429
X0604Y03765
X0601591Y0332409
X0655717Y0320577
X0659Y03745
X0847065Y0371435
X0835Y0354
X08625Y0534
X0865Y0544
X086Y0558
X0865Y05725
X0876Y0591
X0886Y05565
X0715Y06045
X06875Y0586
Y0579
X0668Y058
X0656Y0571
X06455Y05995
X0646Y06115
X0659Y053
X06425Y05145
X06365Y0516
X06395Y04775
X06325Y04785
X06445Y0482
X06235Y04835
X0610256Y0493756
X06055Y0498
X06005Y04925
X0594
X0602016Y0479
X0601Y04715
X061Y04735
X0587Y0476
X0581Y0477
X056Y04925
X05525Y0504
X0570614Y0522886
X0577Y0548
X0587Y054
X05952Y05817
X06125Y0581
Y0575
Y0587
Y0593
Y0599
Y0605
Y0611
Y0617
Y0623
X05839Y0622109
X056Y05925
X05655Y0584
X0540077Y0554283
X0531577
X0513Y05885
X04Y0594
Y06
Y0606
Y0612
Y0618
Y0624
X0443Y0528
Y05205
Y05125
X04685Y0497
X0323Y0517
X031Y04975
X011Y05245
X00925Y0535
X011025Y055275
X00815Y0562
X00875Y0572
X00885Y05985
X04Y063
Y0636
Y0642
X06185Y0638
T02
X03195Y00995
Y01095
Y01195
X03495Y00695
X03595
X03695
X085Y0201
Y0211
Y0221
X088Y0171
X089
X09
X0728833
X0718833
X0708833
X0678833Y0201
Y0211
Y0221
X0557667Y0171
X0547667
X0537667
X0507667Y0201
Y0211
Y0221
X01765Y0513
X01665
X01565
X01265Y0543
Y0553
Y0563
T03
X0347Y01395
X0372
X08775Y0241
Y0261
X09025
Y0241
X0731333
Y0261
X0706333
Y0241
X0560167
Y0261
X0535167
Y0241
X0372Y01595
X0347
X0804126Y0521067
X0812
X0819874
X0847433Y0548626
Y05565
Y0564374
X0179Y0583
Y0603
X0154
Y0583
T04
X07025Y05815
X06015Y05486
X05887Y05485
X0501Y05345
X04185Y05175
X0405Y0497
T05
X0687165Y0346146
X0817087
Y0359925
X0359425Y0483921
X0345646
Y0613842
T06
X0090657Y0059394
X0110343
Y0108606
X0090657
Y0144727
X0110343
X0220657Y0144727
X0240343
Y0108606
X0220657
Y0059394
X0240343
X0518157Y0057894
X0537843
Y0107106
X0518157
X0613407
Y0057894
X0633093
Y0107106
X0708657
X0728343
Y0057894
X0708657
X0803907
X0823593
Y0107106
X0803907
X0899157
X0918843
Y0057894
X0899157
X0240343Y0193939
X0220657
Y0230061
X0240343
Y0279273
X0220657
X0110343
X0090657
Y0230061
X0110343
Y0193939
X0090657
Y0315394
X0110343
Y0364606
X0090657
X0099843Y0418394
X0080157
Y0467606
X0099843
X0158407
X0178093
Y0418394
X0158407
X0236657
X0256343
Y0467606
X0236657
X0240343Y0364606
X0220657
Y0315394
X0240343
T07
X03295Y008325
Y013575
X03895
Y008325
X086Y018475
Y023725
X092
Y018475
X0748833
Y023725
X0688833
Y018475
X0577667
Y023725
X0517667
Y018475
X01965Y052675
Y057925
X01365
Y052675
T08
X0707244Y03365
X070252Y0369571
X0801732
X0797008Y03365
X0369071Y0499276
X0336Y0504
Y0593764
X0369071Y0598488
T09
X0353Y0410996
Y04295
Y0448004
X061224Y03525
X0630744
X0649248
T10
X0478Y0589
X0444535
T11
X0023Y00222
X09345Y0022
X0023Y06306
X09345
T12
X0585461Y0628308
X06018
M30
