M48
METRIC,0000.00
T01C0.4
T02C0.7
T03C1.1
T04C3.0
%
T04
X-003800Y+002540
X-003800Y-002567
X+002363Y+002540
X+002363Y-002567
T02
X-003262Y-001995
X-003062Y-001995
T03
X-003412Y-002165
T01
X-002048Y+001684
X-001730Y+001556
X-000248Y+000308
X+001900Y+000305
X-000460Y-000240
X-001048Y+002064
X+001890Y+000066
X-000397Y-000491
X-001234Y+000427
X+000360Y+000287
X-000410Y+000363
X+000444Y-000459
X-000286Y-000459
X-000360Y-000317
X+000042Y+000128
X+000269Y-000459
X+000367Y+000120
X-001032Y+002349
X+002266Y+001390
X-003484Y-000581
X+001893Y-000198
X-000939Y+000390
X-001651Y-001467
X-002235Y-000356
X+001668Y+002184
X+001899Y-000452
X-003009Y+000152
X-003501Y-000865
X-003501Y-001024
X+001118Y+001666
X-003311Y-001151
X-002993Y-001151
X-002771Y-001024
X-002771Y-000834
X-003486Y-000418
X-002803Y-000389
X-002612Y-000389
X-002612Y-000548
X-002612Y-000738
X-002612Y-000929
X-002612Y-001119
X-003660Y-001119
X-003660Y-000929
X-003660Y-000707
X-002235Y+000025
X-002219Y-000737
X-002219Y-001118
X-001112Y-001467
X+001890Y-000705
X+001886Y-000938
X-000503Y+001773
X-001826Y+002065
X-002826Y+001810
X-003252Y+000124
X-001059Y+000430
X-000257Y-001942
X-000234Y+000686
X+001685Y+000886
X-002283Y+001912
X-003192Y-000345
X-003669Y-000426
X-000140Y+000310
X-001043Y+001925
X-000310Y+000613
X-000110Y-000902
X+000940Y+001293
T00
M30
