G04*
G04 #@! TF.GenerationSoftware,Altium Limited,Altium Designer,19.1.8 (144)*
G04*
G04 Layer_Color=8421504*
%FSLAX25Y25*%
%MOIN*%
G70*
G01*
G75*
%ADD15R,0.01968X0.02165*%
%ADD16R,0.06693X0.03150*%
%ADD17R,0.02953X0.02756*%
%ADD18R,0.03543X0.03937*%
%ADD19R,0.21654X0.03937*%
%ADD20R,0.11811X0.06299*%
%ADD21R,0.03937X0.03543*%
%ADD22R,0.04724X0.06693*%
%ADD23R,0.06299X0.11811*%
%ADD24R,0.03937X0.21654*%
%ADD25R,0.08898X0.08504*%
%ADD26R,0.04724X0.04724*%
%ADD27R,0.04724X0.04724*%
%ADD28R,0.03000X0.04291*%
%ADD29R,0.04291X0.03000*%
%ADD30R,0.03150X0.03150*%
%ADD31O,0.06299X0.01181*%
%ADD32O,0.01181X0.06299*%
%ADD33O,0.02362X0.08661*%
G04:AMPARAMS|DCode=34|XSize=9.84mil|YSize=23.62mil|CornerRadius=1.97mil|HoleSize=0mil|Usage=FLASHONLY|Rotation=180.000|XOffset=0mil|YOffset=0mil|HoleType=Round|Shape=RoundedRectangle|*
%AMROUNDEDRECTD34*
21,1,0.00984,0.01968,0,0,180.0*
21,1,0.00591,0.02362,0,0,180.0*
1,1,0.00394,-0.00295,0.00984*
1,1,0.00394,0.00295,0.00984*
1,1,0.00394,0.00295,-0.00984*
1,1,0.00394,-0.00295,-0.00984*
%
%ADD34ROUNDEDRECTD34*%
%ADD35R,0.11811X0.06299*%
%ADD36R,0.24410X0.22835*%
%ADD37R,0.03937X0.04724*%
D15*
X65941Y-51642D02*
D03*
X71059D02*
D03*
X68500Y-44358D02*
D03*
X233000Y-45358D02*
D03*
X235559Y-52641D02*
D03*
X230441D02*
D03*
X119941Y-52642D02*
D03*
X125059D02*
D03*
X122500Y-45358D02*
D03*
X173941Y-52642D02*
D03*
X179059D02*
D03*
X176500Y-45358D02*
D03*
D16*
X191500Y-223193D02*
D03*
Y-209807D02*
D03*
X176000Y-223193D02*
D03*
Y-209807D02*
D03*
D17*
X81248Y-180898D02*
D03*
Y-168102D02*
D03*
X74752D02*
D03*
Y-180898D02*
D03*
D18*
X138150Y-111700D02*
D03*
X131850D02*
D03*
X203850Y-52350D02*
D03*
X210150D02*
D03*
X92850D02*
D03*
X99150D02*
D03*
X114650Y-158500D02*
D03*
X108350D02*
D03*
Y-138200D02*
D03*
X114650D02*
D03*
X81150Y-162500D02*
D03*
X74850D02*
D03*
X114650Y-131900D02*
D03*
X108350D02*
D03*
X138150Y-182000D02*
D03*
X131850D02*
D03*
Y-189000D02*
D03*
X138150D02*
D03*
X114650Y-125600D02*
D03*
X108350D02*
D03*
X131850Y-121000D02*
D03*
X138150D02*
D03*
X159350Y-254800D02*
D03*
X153050D02*
D03*
X182250Y-203400D02*
D03*
X175950D02*
D03*
X191450D02*
D03*
X197750D02*
D03*
X79799Y-254500D02*
D03*
X73500D02*
D03*
D19*
X30201Y-246937D02*
D03*
Y-239063D02*
D03*
Y-188126D02*
D03*
Y-196000D02*
D03*
Y-203874D02*
D03*
X256142Y-194916D02*
D03*
Y-187042D02*
D03*
Y-179168D02*
D03*
Y-139332D02*
D03*
Y-131458D02*
D03*
Y-123584D02*
D03*
X30201Y-92071D02*
D03*
Y-84197D02*
D03*
Y-76323D02*
D03*
Y-68449D02*
D03*
Y-151811D02*
D03*
Y-143937D02*
D03*
Y-136063D02*
D03*
Y-128189D02*
D03*
D20*
X21343Y-256386D02*
D03*
Y-229614D02*
D03*
Y-178677D02*
D03*
Y-213323D02*
D03*
X265000Y-204365D02*
D03*
Y-169719D02*
D03*
Y-148781D02*
D03*
Y-114135D02*
D03*
X21343Y-101520D02*
D03*
Y-59000D02*
D03*
Y-161260D02*
D03*
Y-118740D02*
D03*
D21*
X158200Y-181750D02*
D03*
Y-188050D02*
D03*
X108700Y-171150D02*
D03*
Y-164850D02*
D03*
X165400Y-181750D02*
D03*
Y-188050D02*
D03*
X179000Y-134350D02*
D03*
Y-140650D02*
D03*
X115000Y-171150D02*
D03*
Y-164850D02*
D03*
X235100Y-241750D02*
D03*
Y-235450D02*
D03*
X67500Y-223250D02*
D03*
Y-216950D02*
D03*
X216700Y-111350D02*
D03*
Y-117650D02*
D03*
X104500Y-108350D02*
D03*
Y-114650D02*
D03*
X105000Y-257850D02*
D03*
Y-264150D02*
D03*
X192500Y-160650D02*
D03*
Y-154350D02*
D03*
X213500Y-160650D02*
D03*
Y-154350D02*
D03*
X206500Y-160650D02*
D03*
Y-154350D02*
D03*
X199500Y-160650D02*
D03*
Y-154350D02*
D03*
X63500Y-72850D02*
D03*
Y-79150D02*
D03*
X48000Y-117850D02*
D03*
Y-124150D02*
D03*
X47900Y-60250D02*
D03*
Y-66550D02*
D03*
X63500Y-132350D02*
D03*
Y-138650D02*
D03*
X48000Y-86850D02*
D03*
Y-93150D02*
D03*
Y-145850D02*
D03*
Y-152150D02*
D03*
X63500Y-93150D02*
D03*
Y-86850D02*
D03*
Y-152150D02*
D03*
Y-145850D02*
D03*
X54100Y-196200D02*
D03*
Y-202499D02*
D03*
X46500Y-195799D02*
D03*
Y-189500D02*
D03*
D22*
X91799Y-242500D02*
D03*
X79201D02*
D03*
X78701Y-204500D02*
D03*
X91299D02*
D03*
D23*
X81823Y-21343D02*
D03*
X47177D02*
D03*
X135865D02*
D03*
X101219D02*
D03*
X246449D02*
D03*
X211803D02*
D03*
X189907D02*
D03*
X155261D02*
D03*
X56354Y-281000D02*
D03*
X91000D02*
D03*
X170500D02*
D03*
X143728D02*
D03*
X187484D02*
D03*
X237878D02*
D03*
D24*
X72374Y-30201D02*
D03*
X64500D02*
D03*
X56626D02*
D03*
X126416D02*
D03*
X118542D02*
D03*
X110668D02*
D03*
X237000D02*
D03*
X229126D02*
D03*
X221252D02*
D03*
X180458D02*
D03*
X172584D02*
D03*
X164710D02*
D03*
X65803Y-272142D02*
D03*
X73677D02*
D03*
X81551D02*
D03*
X161051D02*
D03*
X153177D02*
D03*
X196933D02*
D03*
X204807D02*
D03*
X212681D02*
D03*
X220555D02*
D03*
X228429D02*
D03*
D25*
X50500Y-253146D02*
D03*
Y-233854D02*
D03*
D26*
X121834Y-264100D02*
D03*
X113566D02*
D03*
D27*
X192500Y-175500D02*
D03*
Y-167232D02*
D03*
X213500Y-175500D02*
D03*
Y-167232D02*
D03*
X206500Y-175500D02*
D03*
Y-167232D02*
D03*
X199500Y-175500D02*
D03*
Y-167232D02*
D03*
D28*
X260043Y-215500D02*
D03*
X267957D02*
D03*
X260043Y-159500D02*
D03*
X267957D02*
D03*
X58413Y-226000D02*
D03*
X50500D02*
D03*
D29*
X65800Y-257000D02*
D03*
Y-249087D02*
D03*
D30*
X54724Y-79740D02*
D03*
Y-72260D02*
D03*
X45276Y-76000D02*
D03*
X54724Y-139740D02*
D03*
Y-132260D02*
D03*
X45276Y-136000D02*
D03*
D31*
X126165Y-136736D02*
D03*
Y-138705D02*
D03*
Y-140673D02*
D03*
Y-142642D02*
D03*
Y-144610D02*
D03*
Y-146579D02*
D03*
Y-148547D02*
D03*
Y-150516D02*
D03*
Y-152484D02*
D03*
Y-154453D02*
D03*
Y-156421D02*
D03*
Y-158390D02*
D03*
Y-160358D02*
D03*
Y-162327D02*
D03*
Y-164295D02*
D03*
Y-166264D02*
D03*
X171835D02*
D03*
Y-164295D02*
D03*
Y-162327D02*
D03*
Y-160358D02*
D03*
Y-158390D02*
D03*
Y-156421D02*
D03*
Y-154453D02*
D03*
Y-152484D02*
D03*
Y-150516D02*
D03*
Y-148547D02*
D03*
Y-146579D02*
D03*
Y-144610D02*
D03*
Y-142642D02*
D03*
Y-140673D02*
D03*
Y-138705D02*
D03*
Y-136736D02*
D03*
D32*
X134236Y-174335D02*
D03*
X136205D02*
D03*
X138173D02*
D03*
X140142D02*
D03*
X142110D02*
D03*
X144079D02*
D03*
X146047D02*
D03*
X148016D02*
D03*
X149984D02*
D03*
X151953D02*
D03*
X153921D02*
D03*
X155890D02*
D03*
X157858D02*
D03*
X159827D02*
D03*
X161795D02*
D03*
X163764D02*
D03*
Y-128665D02*
D03*
X161795D02*
D03*
X159827D02*
D03*
X157858D02*
D03*
X155890D02*
D03*
X153921D02*
D03*
X151953D02*
D03*
X149984D02*
D03*
X148016D02*
D03*
X146047D02*
D03*
X144079D02*
D03*
X142110D02*
D03*
X140142D02*
D03*
X138173D02*
D03*
X136205D02*
D03*
X134236D02*
D03*
D33*
X102500Y-62902D02*
D03*
X97500D02*
D03*
X92500D02*
D03*
X87500D02*
D03*
X102500Y-81799D02*
D03*
X97500D02*
D03*
X92500D02*
D03*
X87500D02*
D03*
X214500Y-62902D02*
D03*
X209500D02*
D03*
X204500D02*
D03*
X199500D02*
D03*
X214500Y-81799D02*
D03*
X209500D02*
D03*
X204500D02*
D03*
X199500D02*
D03*
D34*
X235047Y-258033D02*
D03*
X237016D02*
D03*
X238984D02*
D03*
X240953D02*
D03*
X235047Y-246222D02*
D03*
X237016D02*
D03*
X238984D02*
D03*
X240953D02*
D03*
D35*
X79016Y-215572D02*
D03*
Y-233565D02*
D03*
D36*
X107283Y-224569D02*
D03*
D37*
X114565Y-145653D02*
D03*
Y-152347D02*
D03*
X109447Y-145653D02*
D03*
Y-152347D02*
D03*
M02*
