G04*
G04 #@! TF.GenerationSoftware,Altium Limited,Altium Designer,19.1.8 (144)*
G04*
G04 Layer_Color=16711935*
%FSLAX25Y25*%
%MOIN*%
G70*
G01*
G75*
%ADD61C,0.10800*%
%ADD62C,0.06706*%
%ADD63R,0.06706X0.06706*%
%ADD64R,0.06706X0.06706*%
%ADD65C,0.16548*%
D61*
X134700Y-229500D02*
D03*
X64000Y-175500D02*
D03*
X86000Y-95500D02*
D03*
X104000Y-95350D02*
D03*
X198000Y-95500D02*
D03*
X216000Y-95350D02*
D03*
X63500Y-112000D02*
D03*
X78500Y-148500D02*
D03*
X64000Y-194000D02*
D03*
X204000Y-236800D02*
D03*
X135200Y-253700D02*
D03*
X149500Y-57900D02*
D03*
X237000Y-176500D02*
D03*
X237400Y-123800D02*
D03*
X134000Y-102500D02*
D03*
X190000Y-253600D02*
D03*
X219500Y-236800D02*
D03*
X190000D02*
D03*
X63300Y-63800D02*
D03*
X78400Y-129600D02*
D03*
X134000Y-89500D02*
D03*
D62*
X166500Y-111500D02*
D03*
Y-101500D02*
D03*
Y-91500D02*
D03*
Y-81500D02*
D03*
X156500Y-111500D02*
D03*
Y-101500D02*
D03*
Y-91500D02*
D03*
X208000Y-110850D02*
D03*
X95800Y-107950D02*
D03*
D63*
X156500Y-81500D02*
D03*
D64*
X198000Y-110850D02*
D03*
X85800Y-107950D02*
D03*
D65*
X25862Y-39929D02*
D03*
X262083D02*
D03*
X25862Y-276150D02*
D03*
X262083D02*
D03*
M02*
