M48
;Layer_Color=9474304
;FILE_FORMAT=4:4
METRIC,LZ
;TYPE=PLATED
T01F00S00C0.2540
T02F00S00C0.3500
T03F00S00C0.7110
T04F00S00C1.0200
T05F00S00C1.2000
T06F00S00C3.2000
%
T01
X0122936Y0073914
X0125476
X0128016
X0130302
X00961084Y00744472
X00941584
X00927356Y007474
X0092329Y0073533
X00934902Y00719002
X0094742Y0072898
X00946404Y00773938
Y00784606
X00957834
Y00773938
X00969264
Y00784606
X0090196Y00788162
X0083566Y0070358
X0072009Y01051814
Y01072134
X00980186Y00971042
X0099695Y0089408
X0097282Y00835914
X00961122Y00829105
X00951992Y00833882
X00944408Y00826783
X00946404Y0079502
X00957834
X00969264
X01026416Y008109
Y008274
X00890016Y00824738
T02
X00641734Y0084328
X006731Y0092202
T03
X0120381Y0072
X0132381
X0129381Y0078
X0141381
X0147381
X0114381Y0072
X0108381
X0088773Y0073152
X0079502Y0073406
X0072381Y0072
X0075381Y0078
X0069381
X007747Y009271
X0069088Y0100584
X0066381Y0108
X0069381Y0114
X0075381
X0081381
X0087381
X0093381
X0093091Y010922
Y010287
X0096647Y0105918
Y0099314
X0097282Y0091313
X0097409Y0087249
X0101219Y0086868
X0102997
X0104775
X0108712Y0084455
X0114173
Y00932
X0108712
X0111381Y0102
X0117381
X0114381Y0108
X0108381
X0102381
X0105381Y0114
X0099381
X0111381
X0117381
X0105381Y0102
X0090551Y0095758
X0092075Y0092456
X0088773Y008509
Y0079375
X0079502Y0079502
Y008509
X0081Y009
X0080899Y0099568
X0085979
X0120396Y0097028
X0119761Y00932
X0125095
X012573Y0097028
X0131318
X0130683Y00932
Y0084455
X0134493Y0085725
X0137033
X0125095Y0084455
X0119761
X0123381Y0102
X0129381
X0135381
X0141381
X0147381
X0144381Y0108
X0150381
X0147381Y0114
X0141381
X0135381
X0129381
X0123381
X0120381Y0108
X0126381
X0132381
X0138381
X0151511Y0095885
X0150381Y0084582
X0144381Y012
X0138381
X0132381
X0126381
X0120381
X0114381
X0102381
X0096381
X0090381
X0084381
X0078381
X0072381
T04
X013589Y0074097
X01397Y0074168
X0143256
T05
X007112Y0089154
Y0094154
X014478Y0094154
Y0089154
T06
X0148336Y0072644
X0067056
Y0118492
X0148336Y0118872
M30
