G04*
G04 #@! TF.GenerationSoftware,Altium Limited,Altium Designer,21.2.2 (38)*
G04*
G04 Layer_Physical_Order=3*
G04 Layer_Color=16440176*
%FSLAX25Y25*%
%MOIN*%
G70*
G04*
G04 #@! TF.SameCoordinates,00FE7A0C-3AD2-496B-9420-9E862BC3E7C8*
G04*
G04*
G04 #@! TF.FilePolarity,Positive*
G04*
G01*
G75*
%ADD45C,0.10000*%
%ADD46C,0.09055*%
%ADD47C,0.02800*%
G36*
X572157Y489655D02*
X572196Y489639D01*
X577474Y484361D01*
X577490Y484322D01*
X577796Y482784D01*
Y482000D01*
X577796Y337643D01*
Y336859D01*
X577490Y335321D01*
X577474Y335282D01*
X572192Y330000D01*
X361343Y330000D01*
X356051Y335292D01*
X356000Y335548D01*
X356000Y372000D01*
X362000Y378000D01*
X364887D01*
X365186Y376500D01*
X364980Y376415D01*
X364474Y375908D01*
X364200Y375247D01*
Y374531D01*
X364474Y373869D01*
X364980Y373363D01*
X365642Y373089D01*
X366358D01*
X367020Y373363D01*
X367526Y373869D01*
X367800Y374531D01*
Y375247D01*
X367526Y375908D01*
X367020Y376415D01*
X366814Y376500D01*
X367112Y378000D01*
X373021D01*
X373142Y377950D01*
X373858D01*
X373979Y378000D01*
X413466Y378000D01*
X413474Y377980D01*
X413980Y377474D01*
X414642Y377200D01*
X415358D01*
X416020Y377474D01*
X416526Y377980D01*
X416534Y378000D01*
X420466D01*
X420474Y377980D01*
X420980Y377474D01*
X421642Y377200D01*
X422358D01*
X423020Y377474D01*
X423526Y377980D01*
X423534Y378000D01*
X438069D01*
X438072Y377994D01*
X438578Y377488D01*
X439240Y377214D01*
X439956D01*
X440617Y377488D01*
X441124Y377994D01*
X441126Y378000D01*
X494000Y378000D01*
X500000Y384000D01*
Y483943D01*
X506057Y490000D01*
X506057D01*
X506057Y490000D01*
X506057Y490000D01*
X570423Y490000D01*
X572157Y489655D01*
D02*
G37*
G36*
X490000Y490000D02*
X490000Y490000D01*
X496000Y484000D01*
X496000Y479546D01*
X495974Y479520D01*
X495700Y478858D01*
Y478142D01*
X495974Y477480D01*
X496000Y477454D01*
X496000Y463546D01*
X495974Y463520D01*
X495700Y462858D01*
Y462142D01*
X495974Y461480D01*
X496000Y461454D01*
Y457212D01*
X495974Y457186D01*
X495700Y456525D01*
Y455809D01*
X495974Y455147D01*
X496000Y455121D01*
X496000Y451003D01*
X495850Y450853D01*
X495576Y450191D01*
Y449475D01*
X495850Y448814D01*
X496000Y448664D01*
X496000Y444670D01*
X495850Y444520D01*
X495576Y443858D01*
Y443142D01*
X495850Y442480D01*
X496000Y442330D01*
X496000Y428670D01*
X495850Y428520D01*
X495576Y427858D01*
Y427142D01*
X495850Y426480D01*
X496000Y426330D01*
X496000Y422170D01*
X495850Y422020D01*
X495576Y421358D01*
Y420642D01*
X495850Y419980D01*
X496000Y419830D01*
X496000Y415620D01*
X495811Y415409D01*
X494500Y414741D01*
X494358Y414800D01*
X493642D01*
X492980Y414526D01*
X492474Y414020D01*
X492200Y413358D01*
Y412642D01*
X492474Y411980D01*
X492980Y411474D01*
X493642Y411200D01*
X494358D01*
X494500Y411259D01*
X495811Y410591D01*
X496000Y410380D01*
X496000Y394314D01*
X496000Y386000D01*
X490000Y380000D01*
X441138Y380000D01*
X441124Y380033D01*
X440617Y380540D01*
X439956Y380814D01*
X439240D01*
X438578Y380540D01*
X438072Y380033D01*
X438058Y380000D01*
X423534Y380000D01*
X423526Y380020D01*
X423020Y380526D01*
X422358Y380800D01*
X421642D01*
X420980Y380526D01*
X420474Y380020D01*
X420466Y380000D01*
X416534Y380000D01*
X416526Y380020D01*
X416020Y380526D01*
X415358Y380800D01*
X414642D01*
X413980Y380526D01*
X413474Y380020D01*
X413466Y380000D01*
X375300Y380000D01*
Y380108D01*
X375026Y380770D01*
X374520Y381276D01*
X373858Y381550D01*
X373142D01*
X372480Y381276D01*
X371974Y380770D01*
X371700Y380108D01*
Y380000D01*
X362000Y380000D01*
X356000Y386000D01*
X356000Y482588D01*
X356345Y484322D01*
X356361Y484361D01*
X361639Y489639D01*
X361678Y489655D01*
X363413Y490000D01*
X490000Y490000D01*
D02*
G37*
%LPC*%
G36*
X509234Y480800D02*
X508518D01*
X507856Y480526D01*
X507350Y480020D01*
X507076Y479358D01*
Y478642D01*
X507350Y477980D01*
X507856Y477474D01*
X508518Y477200D01*
X509234D01*
X509895Y477474D01*
X510402Y477980D01*
X510676Y478642D01*
Y479358D01*
X510402Y480020D01*
X509895Y480526D01*
X509234Y480800D01*
D02*
G37*
G36*
Y473300D02*
X508518D01*
X507856Y473026D01*
X507350Y472520D01*
X507076Y471858D01*
Y471142D01*
X507350Y470480D01*
X507856Y469974D01*
X508518Y469700D01*
X509234D01*
X509895Y469974D01*
X510402Y470480D01*
X510676Y471142D01*
Y471858D01*
X510402Y472520D01*
X509895Y473026D01*
X509234Y473300D01*
D02*
G37*
G36*
X567343Y469367D02*
Y464000D01*
X572709D01*
X572600Y464550D01*
X572070Y465829D01*
X571301Y466980D01*
X570322Y467959D01*
X569171Y468728D01*
X567892Y469257D01*
X567343Y469367D01*
D02*
G37*
G36*
X564342D02*
X563793Y469257D01*
X562514Y468728D01*
X561363Y467959D01*
X560384Y466980D01*
X559615Y465829D01*
X559085Y464550D01*
X558976Y464000D01*
X564342D01*
Y469367D01*
D02*
G37*
G36*
X509234Y465800D02*
X508518D01*
X507856Y465526D01*
X507350Y465020D01*
X507076Y464358D01*
Y463642D01*
X507350Y462980D01*
X507856Y462474D01*
X508518Y462200D01*
X509234D01*
X509895Y462474D01*
X510402Y462980D01*
X510676Y463642D01*
Y464358D01*
X510402Y465020D01*
X509895Y465526D01*
X509234Y465800D01*
D02*
G37*
G36*
X546885Y468028D02*
X545430D01*
X544024Y467651D01*
X542764Y466923D01*
X541734Y465894D01*
X541007Y464634D01*
X540630Y463228D01*
Y461772D01*
X541007Y460366D01*
X541734Y459106D01*
X542764Y458077D01*
X544024Y457349D01*
X545430Y456972D01*
X546885D01*
X548291Y457349D01*
X549551Y458077D01*
X550581Y459106D01*
X551308Y460366D01*
X551685Y461772D01*
Y463228D01*
X551308Y464634D01*
X550581Y465894D01*
X549551Y466923D01*
X548291Y467651D01*
X546885Y468028D01*
D02*
G37*
G36*
X572709Y461000D02*
X567343D01*
Y455633D01*
X567892Y455743D01*
X569171Y456272D01*
X570322Y457041D01*
X571301Y458020D01*
X572070Y459171D01*
X572600Y460450D01*
X572709Y461000D01*
D02*
G37*
G36*
X564342D02*
X558976D01*
X559085Y460450D01*
X559615Y459171D01*
X560384Y458020D01*
X561363Y457041D01*
X562514Y456272D01*
X563793Y455743D01*
X564342Y455633D01*
Y461000D01*
D02*
G37*
G36*
X509234Y458300D02*
X508518D01*
X507856Y458026D01*
X507350Y457520D01*
X507076Y456858D01*
Y456142D01*
X507350Y455480D01*
X507856Y454974D01*
X508518Y454700D01*
X509234D01*
X509895Y454974D01*
X510402Y455480D01*
X510676Y456142D01*
Y456858D01*
X510402Y457520D01*
X509895Y458026D01*
X509234Y458300D01*
D02*
G37*
G36*
X520734Y448800D02*
X520018D01*
X519356Y448526D01*
X518850Y448020D01*
X518576Y447358D01*
Y446642D01*
X518850Y445980D01*
X519356Y445474D01*
X520018Y445200D01*
X520734D01*
X521395Y445474D01*
X521902Y445980D01*
X522176Y446642D01*
Y447358D01*
X521902Y448020D01*
X521395Y448526D01*
X520734Y448800D01*
D02*
G37*
G36*
X513234D02*
X512518D01*
X511856Y448526D01*
X511350Y448020D01*
X511076Y447358D01*
Y446642D01*
X511350Y445980D01*
X511856Y445474D01*
X512518Y445200D01*
X513234D01*
X513895Y445474D01*
X514402Y445980D01*
X514676Y446642D01*
Y447358D01*
X514402Y448020D01*
X513895Y448526D01*
X513234Y448800D01*
D02*
G37*
G36*
X505734D02*
X505018D01*
X504356Y448526D01*
X503850Y448020D01*
X503576Y447358D01*
Y446642D01*
X503850Y445980D01*
X504356Y445474D01*
X505018Y445200D01*
X505734D01*
X506395Y445474D01*
X506902Y445980D01*
X507176Y446642D01*
Y447358D01*
X506902Y448020D01*
X506395Y448526D01*
X505734Y448800D01*
D02*
G37*
G36*
X513358Y440300D02*
X512642D01*
X511980Y440026D01*
X511474Y439520D01*
X511200Y438858D01*
Y438142D01*
X511474Y437480D01*
X511980Y436974D01*
X512642Y436700D01*
X513358D01*
X514020Y436974D01*
X514526Y437480D01*
X514800Y438142D01*
Y438858D01*
X514526Y439520D01*
X514020Y440026D01*
X513358Y440300D01*
D02*
G37*
G36*
X562000Y438349D02*
Y432500D01*
X567849D01*
X567712Y433188D01*
X567146Y434553D01*
X566326Y435781D01*
X565281Y436826D01*
X564053Y437646D01*
X562688Y438212D01*
X562000Y438349D01*
D02*
G37*
G36*
X559000D02*
X558312Y438212D01*
X556947Y437646D01*
X555719Y436826D01*
X554674Y435781D01*
X553854Y434553D01*
X553288Y433188D01*
X553151Y432500D01*
X559000D01*
Y438349D01*
D02*
G37*
G36*
X508358Y432800D02*
X507642D01*
X506980Y432526D01*
X506474Y432020D01*
X506200Y431358D01*
Y430642D01*
X506474Y429980D01*
X506980Y429474D01*
X507642Y429200D01*
X508358D01*
X509020Y429474D01*
X509526Y429980D01*
X509800Y430642D01*
Y431358D01*
X509526Y432020D01*
X509020Y432526D01*
X508358Y432800D01*
D02*
G37*
G36*
X567849Y429500D02*
X562000D01*
Y423651D01*
X562688Y423788D01*
X564053Y424354D01*
X565281Y425174D01*
X566326Y426219D01*
X567146Y427447D01*
X567712Y428812D01*
X567849Y429500D01*
D02*
G37*
G36*
X559000D02*
X553151D01*
X553288Y428812D01*
X553854Y427447D01*
X554674Y426219D01*
X555719Y425174D01*
X556947Y424354D01*
X558312Y423788D01*
X559000Y423651D01*
Y429500D01*
D02*
G37*
G36*
X513358Y425300D02*
X512642D01*
X511980Y425026D01*
X511474Y424520D01*
X511200Y423858D01*
Y423142D01*
X511474Y422480D01*
X511980Y421974D01*
X512642Y421700D01*
X513358D01*
X514020Y421974D01*
X514526Y422480D01*
X514800Y423142D01*
Y423858D01*
X514526Y424520D01*
X514020Y425026D01*
X513358Y425300D01*
D02*
G37*
G36*
X444358Y376300D02*
X443642D01*
X442980Y376026D01*
X442474Y375520D01*
X442200Y374858D01*
Y374142D01*
X442474Y373480D01*
X442980Y372974D01*
X443642Y372700D01*
X444358D01*
X445020Y372974D01*
X445526Y373480D01*
X445800Y374142D01*
Y374858D01*
X445526Y375520D01*
X445020Y376026D01*
X444358Y376300D01*
D02*
G37*
G36*
X373858Y371828D02*
X373142D01*
X372480Y371554D01*
X371974Y371047D01*
X371700Y370386D01*
Y369670D01*
X371974Y369008D01*
X372480Y368502D01*
X373142Y368228D01*
X373858D01*
X374520Y368502D01*
X375026Y369008D01*
X375300Y369670D01*
Y370386D01*
X375026Y371047D01*
X374520Y371554D01*
X373858Y371828D01*
D02*
G37*
G36*
X359858D02*
X359142D01*
X358480Y371554D01*
X357974Y371047D01*
X357700Y370386D01*
Y369670D01*
X357974Y369008D01*
X358480Y368502D01*
X359142Y368228D01*
X359858D01*
X360520Y368502D01*
X361026Y369008D01*
X361300Y369670D01*
Y370386D01*
X361026Y371047D01*
X360520Y371554D01*
X359858Y371828D01*
D02*
G37*
G36*
X422358Y370941D02*
X421642D01*
X420980Y370667D01*
X420474Y370161D01*
X420200Y369499D01*
Y368783D01*
X420474Y368122D01*
X420980Y367615D01*
X421642Y367341D01*
X422358D01*
X423020Y367615D01*
X423526Y368122D01*
X423800Y368783D01*
Y369499D01*
X423526Y370161D01*
X423020Y370667D01*
X422358Y370941D01*
D02*
G37*
G36*
X414758D02*
X414042D01*
X413380Y370667D01*
X412874Y370161D01*
X412600Y369499D01*
Y368783D01*
X412874Y368122D01*
X413380Y367615D01*
X414042Y367341D01*
X414758D01*
X415420Y367615D01*
X415926Y368122D01*
X416200Y368783D01*
Y369499D01*
X415926Y370161D01*
X415420Y370667D01*
X414758Y370941D01*
D02*
G37*
G36*
X402217D02*
X401501D01*
X400839Y370667D01*
X400333Y370161D01*
X400059Y369499D01*
Y368783D01*
X400333Y368122D01*
X400839Y367615D01*
X401501Y367341D01*
X402217D01*
X402878Y367615D01*
X403385Y368122D01*
X403659Y368783D01*
Y369499D01*
X403385Y370161D01*
X402878Y370667D01*
X402217Y370941D01*
D02*
G37*
G36*
X366358Y366967D02*
X365642D01*
X364980Y366693D01*
X364474Y366186D01*
X364200Y365525D01*
Y364809D01*
X364474Y364147D01*
X364980Y363641D01*
X365642Y363367D01*
X366358D01*
X367020Y363641D01*
X367526Y364147D01*
X367800Y364809D01*
Y365525D01*
X367526Y366186D01*
X367020Y366693D01*
X366358Y366967D01*
D02*
G37*
G36*
X450358Y365800D02*
X449642D01*
X448980Y365526D01*
X448474Y365020D01*
X448200Y364358D01*
Y363642D01*
X448474Y362980D01*
X448980Y362474D01*
X449642Y362200D01*
X450358D01*
X451020Y362474D01*
X451526Y362980D01*
X451800Y363642D01*
Y364358D01*
X451526Y365020D01*
X451020Y365526D01*
X450358Y365800D01*
D02*
G37*
G36*
X431358Y365300D02*
X430642D01*
X429980Y365026D01*
X429474Y364520D01*
X429200Y363858D01*
Y363142D01*
X429474Y362480D01*
X429980Y361974D01*
X430642Y361700D01*
X431358D01*
X432020Y361974D01*
X432526Y362480D01*
X432800Y363142D01*
Y363858D01*
X432526Y364520D01*
X432020Y365026D01*
X431358Y365300D01*
D02*
G37*
G36*
X384058Y365200D02*
X383342D01*
X382680Y364926D01*
X382174Y364420D01*
X381900Y363758D01*
Y363042D01*
X382174Y362380D01*
X382680Y361874D01*
X383342Y361600D01*
X384058D01*
X384720Y361874D01*
X385226Y362380D01*
X385500Y363042D01*
Y363758D01*
X385226Y364420D01*
X384720Y364926D01*
X384058Y365200D01*
D02*
G37*
G36*
X359858Y362105D02*
X359142D01*
X358480Y361831D01*
X357974Y361325D01*
X357700Y360664D01*
Y359947D01*
X357974Y359286D01*
X358480Y358780D01*
X359142Y358506D01*
X359858D01*
X360520Y358780D01*
X361026Y359286D01*
X361300Y359947D01*
Y360664D01*
X361026Y361325D01*
X360520Y361831D01*
X359858Y362105D01*
D02*
G37*
G36*
X414758Y358300D02*
X414042D01*
X413380Y358026D01*
X412874Y357520D01*
X412600Y356858D01*
Y356142D01*
X412874Y355480D01*
X413380Y354974D01*
X414042Y354700D01*
X414758D01*
X415420Y354974D01*
X415926Y355480D01*
X416200Y356142D01*
Y356858D01*
X415926Y357520D01*
X415420Y358026D01*
X414758Y358300D01*
D02*
G37*
G36*
X366358Y357244D02*
X365642D01*
X364980Y356970D01*
X364474Y356464D01*
X364200Y355802D01*
Y355086D01*
X364474Y354425D01*
X364980Y353919D01*
X365642Y353644D01*
X366358D01*
X367020Y353919D01*
X367526Y354425D01*
X367800Y355086D01*
Y355802D01*
X367526Y356464D01*
X367020Y356970D01*
X366358Y357244D01*
D02*
G37*
G36*
X359858Y352383D02*
X359142D01*
X358480Y352109D01*
X357974Y351603D01*
X357700Y350941D01*
Y350225D01*
X357974Y349564D01*
X358480Y349057D01*
X359142Y348783D01*
X359858D01*
X360520Y349057D01*
X361026Y349564D01*
X361300Y350225D01*
Y350941D01*
X361026Y351603D01*
X360520Y352109D01*
X359858Y352383D01*
D02*
G37*
G36*
X431358Y350800D02*
X430642D01*
X429980Y350526D01*
X429474Y350020D01*
X429200Y349358D01*
Y348642D01*
X429474Y347980D01*
X429980Y347474D01*
X430642Y347200D01*
X431358D01*
X432020Y347474D01*
X432526Y347980D01*
X432800Y348642D01*
Y349358D01*
X432526Y350020D01*
X432020Y350526D01*
X431358Y350800D01*
D02*
G37*
G36*
X414758Y349600D02*
X414042D01*
X413380Y349326D01*
X412874Y348820D01*
X412600Y348158D01*
Y347442D01*
X412874Y346780D01*
X413380Y346274D01*
X414042Y346000D01*
X414758D01*
X415420Y346274D01*
X415926Y346780D01*
X416200Y347442D01*
Y348158D01*
X415926Y348820D01*
X415420Y349326D01*
X414758Y349600D01*
D02*
G37*
G36*
X376541Y347522D02*
X375825D01*
X375164Y347248D01*
X374657Y346742D01*
X374383Y346080D01*
Y345364D01*
X374657Y344703D01*
X375164Y344196D01*
X375825Y343922D01*
X376541D01*
X377203Y344196D01*
X377709Y344703D01*
X377983Y345364D01*
Y346080D01*
X377709Y346742D01*
X377203Y347248D01*
X376541Y347522D01*
D02*
G37*
G36*
X366358D02*
X365642D01*
X364980Y347248D01*
X364474Y346742D01*
X364200Y346080D01*
Y345364D01*
X364474Y344703D01*
X364980Y344196D01*
X365642Y343922D01*
X366358D01*
X367020Y344196D01*
X367526Y344703D01*
X367800Y345364D01*
Y346080D01*
X367526Y346742D01*
X367020Y347248D01*
X366358Y347522D01*
D02*
G37*
G36*
X359858Y342661D02*
X359142D01*
X358480Y342387D01*
X357974Y341881D01*
X357700Y341219D01*
Y340503D01*
X357974Y339842D01*
X358480Y339335D01*
X359142Y339061D01*
X359858D01*
X360520Y339335D01*
X361026Y339842D01*
X361300Y340503D01*
Y341219D01*
X361026Y341881D01*
X360520Y342387D01*
X359858Y342661D01*
D02*
G37*
G36*
X417275Y337800D02*
X416559D01*
X415897Y337526D01*
X415391Y337020D01*
X415117Y336358D01*
Y335642D01*
X415391Y334980D01*
X415897Y334474D01*
X416559Y334200D01*
X417275D01*
X417936Y334474D01*
X418443Y334980D01*
X418717Y335642D01*
Y336358D01*
X418443Y337020D01*
X417936Y337526D01*
X417275Y337800D01*
D02*
G37*
G36*
X407358D02*
X406642D01*
X405980Y337526D01*
X405474Y337020D01*
X405200Y336358D01*
Y335642D01*
X405474Y334980D01*
X405980Y334474D01*
X406642Y334200D01*
X407358D01*
X408020Y334474D01*
X408526Y334980D01*
X408800Y335642D01*
Y336358D01*
X408526Y337020D01*
X408020Y337526D01*
X407358Y337800D01*
D02*
G37*
G36*
X396908D02*
X396192D01*
X395530Y337526D01*
X395024Y337020D01*
X394750Y336358D01*
Y335642D01*
X395024Y334980D01*
X395530Y334474D01*
X396192Y334200D01*
X396908D01*
X397570Y334474D01*
X398076Y334980D01*
X398350Y335642D01*
Y336358D01*
X398076Y337020D01*
X397570Y337526D01*
X396908Y337800D01*
D02*
G37*
G36*
X386725D02*
X386009D01*
X385347Y337526D01*
X384841Y337020D01*
X384567Y336358D01*
Y335642D01*
X384841Y334980D01*
X385347Y334474D01*
X386009Y334200D01*
X386725D01*
X387386Y334474D01*
X387893Y334980D01*
X388167Y335642D01*
Y336358D01*
X387893Y337020D01*
X387386Y337526D01*
X386725Y337800D01*
D02*
G37*
G36*
X376541D02*
X375825D01*
X375164Y337526D01*
X374657Y337020D01*
X374383Y336358D01*
Y335642D01*
X374657Y334980D01*
X375164Y334474D01*
X375825Y334200D01*
X376541D01*
X377203Y334474D01*
X377709Y334980D01*
X377983Y335642D01*
Y336358D01*
X377709Y337020D01*
X377203Y337526D01*
X376541Y337800D01*
D02*
G37*
G36*
X366358D02*
X365642D01*
X364980Y337526D01*
X364474Y337020D01*
X364200Y336358D01*
Y335642D01*
X364474Y334980D01*
X364980Y334474D01*
X365642Y334200D01*
X366358D01*
X367020Y334474D01*
X367526Y334980D01*
X367800Y335642D01*
Y336358D01*
X367526Y337020D01*
X367020Y337526D01*
X366358Y337800D01*
D02*
G37*
G36*
X442000Y481849D02*
Y476000D01*
X447849D01*
X447712Y476688D01*
X447146Y478053D01*
X446326Y479281D01*
X445281Y480326D01*
X444053Y481146D01*
X442688Y481712D01*
X442000Y481849D01*
D02*
G37*
G36*
X439000D02*
X438312Y481712D01*
X436947Y481146D01*
X435719Y480326D01*
X434674Y479281D01*
X433854Y478053D01*
X433288Y476688D01*
X433151Y476000D01*
X439000D01*
Y481849D01*
D02*
G37*
G36*
X388358Y477300D02*
X387642D01*
X386980Y477026D01*
X386474Y476520D01*
X386200Y475858D01*
Y475142D01*
X386474Y474480D01*
X386980Y473974D01*
X387642Y473700D01*
X388358D01*
X389020Y473974D01*
X389526Y474480D01*
X389800Y475142D01*
Y475858D01*
X389526Y476520D01*
X389020Y477026D01*
X388358Y477300D01*
D02*
G37*
G36*
X361858D02*
X361142D01*
X360480Y477026D01*
X359974Y476520D01*
X359700Y475858D01*
Y475142D01*
X359974Y474480D01*
X360480Y473974D01*
X361142Y473700D01*
X361858D01*
X362520Y473974D01*
X363026Y474480D01*
X363300Y475142D01*
Y475858D01*
X363026Y476520D01*
X362520Y477026D01*
X361858Y477300D01*
D02*
G37*
G36*
X374591Y480500D02*
X373409D01*
X372250Y480269D01*
X371158Y479817D01*
X370175Y479160D01*
X369339Y478325D01*
X368683Y477342D01*
X368231Y476250D01*
X368000Y475091D01*
Y473909D01*
X368231Y472750D01*
X368683Y471658D01*
X369339Y470675D01*
X370175Y469839D01*
X371158Y469183D01*
X372250Y468731D01*
X373409Y468500D01*
X374591D01*
X375750Y468731D01*
X376842Y469183D01*
X377825Y469839D01*
X378660Y470675D01*
X379317Y471658D01*
X379769Y472750D01*
X380000Y473909D01*
Y475091D01*
X379769Y476250D01*
X379317Y477342D01*
X378660Y478325D01*
X377825Y479160D01*
X376842Y479817D01*
X375750Y480269D01*
X374591Y480500D01*
D02*
G37*
G36*
X383858Y470800D02*
X383142D01*
X382480Y470526D01*
X381974Y470020D01*
X381700Y469358D01*
Y468642D01*
X381974Y467980D01*
X382480Y467474D01*
X383142Y467200D01*
X383858D01*
X384520Y467474D01*
X385026Y467980D01*
X385300Y468642D01*
Y469358D01*
X385026Y470020D01*
X384520Y470526D01*
X383858Y470800D01*
D02*
G37*
G36*
X365858D02*
X365142D01*
X364480Y470526D01*
X363974Y470020D01*
X363700Y469358D01*
Y468642D01*
X363974Y467980D01*
X364480Y467474D01*
X365142Y467200D01*
X365858D01*
X366520Y467474D01*
X367026Y467980D01*
X367300Y468642D01*
Y469358D01*
X367026Y470020D01*
X366520Y470526D01*
X365858Y470800D01*
D02*
G37*
G36*
X447849Y473000D02*
X442000D01*
Y467151D01*
X442688Y467288D01*
X444053Y467854D01*
X445281Y468674D01*
X446326Y469719D01*
X447146Y470947D01*
X447712Y472312D01*
X447849Y473000D01*
D02*
G37*
G36*
X439000D02*
X433151D01*
X433288Y472312D01*
X433854Y470947D01*
X434674Y469719D01*
X435719Y468674D01*
X436947Y467854D01*
X438312Y467288D01*
X439000Y467151D01*
Y473000D01*
D02*
G37*
G36*
X423322Y469367D02*
Y464000D01*
X428689D01*
X428580Y464550D01*
X428050Y465829D01*
X427281Y466980D01*
X426302Y467959D01*
X425151Y468728D01*
X423872Y469257D01*
X423322Y469367D01*
D02*
G37*
G36*
X420322D02*
X419772Y469257D01*
X418494Y468728D01*
X417343Y467959D01*
X416364Y466980D01*
X415594Y465829D01*
X415065Y464550D01*
X414955Y464000D01*
X420322D01*
Y469367D01*
D02*
G37*
G36*
X388358Y463800D02*
X387642D01*
X386980Y463526D01*
X386474Y463020D01*
X386200Y462358D01*
Y461642D01*
X386474Y460980D01*
X386980Y460474D01*
X387642Y460200D01*
X388358D01*
X389020Y460474D01*
X389526Y460980D01*
X389800Y461642D01*
Y462358D01*
X389526Y463020D01*
X389020Y463526D01*
X388358Y463800D01*
D02*
G37*
G36*
X379358D02*
X378642D01*
X377980Y463526D01*
X377474Y463020D01*
X377200Y462358D01*
Y461642D01*
X377474Y460980D01*
X377980Y460474D01*
X378642Y460200D01*
X379358D01*
X380020Y460474D01*
X380526Y460980D01*
X380800Y461642D01*
Y462358D01*
X380526Y463020D01*
X380020Y463526D01*
X379358Y463800D01*
D02*
G37*
G36*
X370358D02*
X369642D01*
X368980Y463526D01*
X368474Y463020D01*
X368200Y462358D01*
Y461642D01*
X368474Y460980D01*
X368980Y460474D01*
X369642Y460200D01*
X370358D01*
X371020Y460474D01*
X371526Y460980D01*
X371800Y461642D01*
Y462358D01*
X371526Y463020D01*
X371020Y463526D01*
X370358Y463800D01*
D02*
G37*
G36*
X361358D02*
X360642D01*
X359980Y463526D01*
X359474Y463020D01*
X359200Y462358D01*
Y461642D01*
X359474Y460980D01*
X359980Y460474D01*
X360642Y460200D01*
X361358D01*
X362020Y460474D01*
X362526Y460980D01*
X362800Y461642D01*
Y462358D01*
X362526Y463020D01*
X362020Y463526D01*
X361358Y463800D01*
D02*
G37*
G36*
X402865Y468028D02*
X401409D01*
X400004Y467651D01*
X398743Y466923D01*
X397714Y465894D01*
X396986Y464634D01*
X396610Y463228D01*
Y461772D01*
X396986Y460366D01*
X397714Y459106D01*
X398743Y458077D01*
X400004Y457349D01*
X401409Y456972D01*
X402865D01*
X404271Y457349D01*
X405531Y458077D01*
X406560Y459106D01*
X407288Y460366D01*
X407665Y461772D01*
Y463228D01*
X407288Y464634D01*
X406560Y465894D01*
X405531Y466923D01*
X404271Y467651D01*
X402865Y468028D01*
D02*
G37*
G36*
X428689Y461000D02*
X423322D01*
Y455633D01*
X423872Y455743D01*
X425151Y456272D01*
X426302Y457041D01*
X427281Y458020D01*
X428050Y459171D01*
X428580Y460450D01*
X428689Y461000D01*
D02*
G37*
G36*
X420322D02*
X414955D01*
X415065Y460450D01*
X415594Y459171D01*
X416364Y458020D01*
X417343Y457041D01*
X418494Y456272D01*
X419772Y455743D01*
X420322Y455633D01*
Y461000D01*
D02*
G37*
G36*
X383858Y457050D02*
X383142D01*
X382480Y456776D01*
X381974Y456270D01*
X381700Y455608D01*
Y454892D01*
X381974Y454230D01*
X382480Y453724D01*
X383142Y453450D01*
X383858D01*
X384520Y453724D01*
X385026Y454230D01*
X385300Y454892D01*
Y455608D01*
X385026Y456270D01*
X384520Y456776D01*
X383858Y457050D01*
D02*
G37*
G36*
X374858D02*
X374142D01*
X373480Y456776D01*
X372974Y456270D01*
X372700Y455608D01*
Y454892D01*
X372974Y454230D01*
X373480Y453724D01*
X374142Y453450D01*
X374858D01*
X375520Y453724D01*
X376026Y454230D01*
X376300Y454892D01*
Y455608D01*
X376026Y456270D01*
X375520Y456776D01*
X374858Y457050D01*
D02*
G37*
G36*
X365858D02*
X365142D01*
X364480Y456776D01*
X363974Y456270D01*
X363700Y455608D01*
Y454892D01*
X363974Y454230D01*
X364480Y453724D01*
X365142Y453450D01*
X365858D01*
X366520Y453724D01*
X367026Y454230D01*
X367300Y454892D01*
Y455608D01*
X367026Y456270D01*
X366520Y456776D01*
X365858Y457050D01*
D02*
G37*
G36*
X388358Y450300D02*
X387642D01*
X386980Y450026D01*
X386474Y449520D01*
X386200Y448858D01*
Y448142D01*
X386474Y447480D01*
X386980Y446974D01*
X387642Y446700D01*
X388358D01*
X389020Y446974D01*
X389526Y447480D01*
X389800Y448142D01*
Y448858D01*
X389526Y449520D01*
X389020Y450026D01*
X388358Y450300D01*
D02*
G37*
G36*
X379358D02*
X378642D01*
X377980Y450026D01*
X377474Y449520D01*
X377200Y448858D01*
Y448142D01*
X377474Y447480D01*
X377980Y446974D01*
X378642Y446700D01*
X379358D01*
X380020Y446974D01*
X380526Y447480D01*
X380800Y448142D01*
Y448858D01*
X380526Y449520D01*
X380020Y450026D01*
X379358Y450300D01*
D02*
G37*
G36*
X370358D02*
X369642D01*
X368980Y450026D01*
X368474Y449520D01*
X368200Y448858D01*
Y448142D01*
X368474Y447480D01*
X368980Y446974D01*
X369642Y446700D01*
X370358D01*
X371020Y446974D01*
X371526Y447480D01*
X371800Y448142D01*
Y448858D01*
X371526Y449520D01*
X371020Y450026D01*
X370358Y450300D01*
D02*
G37*
G36*
X361358D02*
X360642D01*
X359980Y450026D01*
X359474Y449520D01*
X359200Y448858D01*
Y448142D01*
X359474Y447480D01*
X359980Y446974D01*
X360642Y446700D01*
X361358D01*
X362020Y446974D01*
X362526Y447480D01*
X362800Y448142D01*
Y448858D01*
X362526Y449520D01*
X362020Y450026D01*
X361358Y450300D01*
D02*
G37*
G36*
X400608Y430300D02*
X399892D01*
X399230Y430026D01*
X398724Y429520D01*
X398450Y428858D01*
Y428142D01*
X398724Y427480D01*
X399230Y426974D01*
X399892Y426700D01*
X400608D01*
X401270Y426974D01*
X401776Y427480D01*
X402050Y428142D01*
Y428858D01*
X401776Y429520D01*
X401270Y430026D01*
X400608Y430300D01*
D02*
G37*
G36*
X391066D02*
X390350D01*
X389689Y430026D01*
X389182Y429520D01*
X388908Y428858D01*
Y428142D01*
X389182Y427480D01*
X389689Y426974D01*
X390350Y426700D01*
X391066D01*
X391728Y426974D01*
X392234Y427480D01*
X392508Y428142D01*
Y428858D01*
X392234Y429520D01*
X391728Y430026D01*
X391066Y430300D01*
D02*
G37*
G36*
X424858Y425300D02*
X424142D01*
X423480Y425026D01*
X422974Y424520D01*
X422700Y423858D01*
Y423142D01*
X422974Y422480D01*
X423480Y421974D01*
X424142Y421700D01*
X424858D01*
X425520Y421974D01*
X426026Y422480D01*
X426300Y423142D01*
Y423858D01*
X426026Y424520D01*
X425520Y425026D01*
X424858Y425300D01*
D02*
G37*
G36*
X395858D02*
X395142D01*
X394480Y425026D01*
X393974Y424520D01*
X393700Y423858D01*
Y423142D01*
X393974Y422480D01*
X394480Y421974D01*
X395142Y421700D01*
X395858D01*
X396520Y421974D01*
X397026Y422480D01*
X397300Y423142D01*
Y423858D01*
X397026Y424520D01*
X396520Y425026D01*
X395858Y425300D01*
D02*
G37*
G36*
X386275D02*
X385559D01*
X384897Y425026D01*
X384391Y424520D01*
X384117Y423858D01*
Y423142D01*
X384391Y422480D01*
X384897Y421974D01*
X385559Y421700D01*
X386275D01*
X386936Y421974D01*
X387443Y422480D01*
X387717Y423142D01*
Y423858D01*
X387443Y424520D01*
X386936Y425026D01*
X386275Y425300D01*
D02*
G37*
G36*
X376691D02*
X375975D01*
X375314Y425026D01*
X374807Y424520D01*
X374533Y423858D01*
Y423142D01*
X374807Y422480D01*
X375314Y421974D01*
X375975Y421700D01*
X376691D01*
X377353Y421974D01*
X377859Y422480D01*
X378133Y423142D01*
Y423858D01*
X377859Y424520D01*
X377353Y425026D01*
X376691Y425300D01*
D02*
G37*
G36*
X366358Y425300D02*
X365642D01*
X364980Y425026D01*
X364474Y424520D01*
X364200Y423858D01*
Y423142D01*
X364474Y422480D01*
X364980Y421974D01*
X365642Y421700D01*
X366358D01*
X367020Y421974D01*
X367526Y422480D01*
X367800Y423142D01*
Y423858D01*
X367526Y424520D01*
X367020Y425026D01*
X366358Y425300D01*
D02*
G37*
G36*
X359858Y420439D02*
X359142D01*
X358480Y420165D01*
X357974Y419659D01*
X357700Y418997D01*
Y418281D01*
X357974Y417619D01*
X358480Y417113D01*
X359142Y416839D01*
X359858D01*
X360520Y417113D01*
X361026Y417619D01*
X361300Y418281D01*
Y418997D01*
X361026Y419659D01*
X360520Y420165D01*
X359858Y420439D01*
D02*
G37*
G36*
X400608Y419300D02*
X399892D01*
X399230Y419026D01*
X398724Y418520D01*
X398450Y417858D01*
Y417142D01*
X398724Y416480D01*
X399230Y415974D01*
X399892Y415700D01*
X400608D01*
X401270Y415974D01*
X401776Y416480D01*
X402050Y417142D01*
Y417858D01*
X401776Y418520D01*
X401270Y419026D01*
X400608Y419300D01*
D02*
G37*
G36*
X391066D02*
X390350D01*
X389689Y419026D01*
X389182Y418520D01*
X388908Y417858D01*
Y417142D01*
X389182Y416480D01*
X389689Y415974D01*
X390350Y415700D01*
X391066D01*
X391728Y415974D01*
X392234Y416480D01*
X392508Y417142D01*
Y417858D01*
X392234Y418520D01*
X391728Y419026D01*
X391066Y419300D01*
D02*
G37*
G36*
X381483D02*
X380767D01*
X380105Y419026D01*
X379599Y418520D01*
X379325Y417858D01*
Y417142D01*
X379599Y416480D01*
X380105Y415974D01*
X380767Y415700D01*
X381483D01*
X382145Y415974D01*
X382651Y416480D01*
X382925Y417142D01*
Y417858D01*
X382651Y418520D01*
X382145Y419026D01*
X381483Y419300D01*
D02*
G37*
G36*
X371525D02*
X370809D01*
X370147Y419026D01*
X369641Y418520D01*
X369367Y417858D01*
Y417142D01*
X369641Y416480D01*
X370147Y415974D01*
X370809Y415700D01*
X371525D01*
X372186Y415974D01*
X372693Y416480D01*
X372967Y417142D01*
Y417858D01*
X372693Y418520D01*
X372186Y419026D01*
X371525Y419300D01*
D02*
G37*
G36*
X366358Y415578D02*
X365642D01*
X364980Y415304D01*
X364474Y414797D01*
X364200Y414136D01*
Y413420D01*
X364474Y412758D01*
X364980Y412252D01*
X365642Y411978D01*
X366358D01*
X367020Y412252D01*
X367526Y412758D01*
X367800Y413420D01*
Y414136D01*
X367526Y414797D01*
X367020Y415304D01*
X366358Y415578D01*
D02*
G37*
G36*
X484858Y414800D02*
X484142D01*
X483480Y414526D01*
X482974Y414020D01*
X482700Y413358D01*
Y412642D01*
X482974Y411980D01*
X483480Y411474D01*
X484142Y411200D01*
X484858D01*
X485520Y411474D01*
X486026Y411980D01*
X486300Y412642D01*
Y413358D01*
X486026Y414020D01*
X485520Y414526D01*
X484858Y414800D01*
D02*
G37*
G36*
X395858Y413300D02*
X395142D01*
X394480Y413026D01*
X393974Y412520D01*
X393700Y411858D01*
Y411142D01*
X393974Y410480D01*
X394480Y409974D01*
X395142Y409700D01*
X395858D01*
X396520Y409974D01*
X397026Y410480D01*
X397300Y411142D01*
Y411858D01*
X397026Y412520D01*
X396520Y413026D01*
X395858Y413300D01*
D02*
G37*
G36*
X359858Y410717D02*
X359142D01*
X358480Y410443D01*
X357974Y409936D01*
X357700Y409275D01*
Y408559D01*
X357974Y407897D01*
X358480Y407391D01*
X359142Y407117D01*
X359858D01*
X360520Y407391D01*
X361026Y407897D01*
X361300Y408559D01*
Y409275D01*
X361026Y409936D01*
X360520Y410443D01*
X359858Y410717D01*
D02*
G37*
G36*
X475358Y408800D02*
X474642D01*
X473980Y408526D01*
X473474Y408020D01*
X473200Y407358D01*
Y406642D01*
X473474Y405980D01*
X473980Y405474D01*
X474642Y405200D01*
X475358D01*
X476020Y405474D01*
X476526Y405980D01*
X476800Y406642D01*
Y407358D01*
X476526Y408020D01*
X476020Y408526D01*
X475358Y408800D01*
D02*
G37*
G36*
X400608Y408300D02*
X399892D01*
X399230Y408026D01*
X398724Y407520D01*
X398450Y406858D01*
Y406142D01*
X398724Y405480D01*
X399230Y404974D01*
X399892Y404700D01*
X400608D01*
X401270Y404974D01*
X401776Y405480D01*
X402050Y406142D01*
Y406858D01*
X401776Y407520D01*
X401270Y408026D01*
X400608Y408300D01*
D02*
G37*
G36*
X366358Y405856D02*
X365642D01*
X364980Y405582D01*
X364474Y405075D01*
X364200Y404414D01*
Y403697D01*
X364474Y403036D01*
X364980Y402530D01*
X365642Y402255D01*
X366358D01*
X367020Y402530D01*
X367526Y403036D01*
X367800Y403697D01*
Y404414D01*
X367526Y405075D01*
X367020Y405582D01*
X366358Y405856D01*
D02*
G37*
G36*
X411358Y403300D02*
X410642D01*
X409980Y403026D01*
X409474Y402520D01*
X409200Y401858D01*
Y401142D01*
X409474Y400480D01*
X409980Y399974D01*
X410642Y399700D01*
X411358D01*
X412020Y399974D01*
X412526Y400480D01*
X412800Y401142D01*
Y401858D01*
X412526Y402520D01*
X412020Y403026D01*
X411358Y403300D01*
D02*
G37*
G36*
X395858D02*
X395142D01*
X394480Y403026D01*
X393974Y402520D01*
X393700Y401858D01*
Y401142D01*
X393974Y400480D01*
X394480Y399974D01*
X395142Y399700D01*
X395858D01*
X396520Y399974D01*
X397026Y400480D01*
X397300Y401142D01*
Y401858D01*
X397026Y402520D01*
X396520Y403026D01*
X395858Y403300D01*
D02*
G37*
G36*
X375858D02*
X375142D01*
X374480Y403026D01*
X373974Y402520D01*
X373700Y401858D01*
Y401142D01*
X373974Y400480D01*
X374480Y399974D01*
X375142Y399700D01*
X375858D01*
X376520Y399974D01*
X377026Y400480D01*
X377300Y401142D01*
Y401858D01*
X377026Y402520D01*
X376520Y403026D01*
X375858Y403300D01*
D02*
G37*
G36*
X473358Y402800D02*
X472642D01*
X471980Y402526D01*
X471474Y402020D01*
X471200Y401358D01*
Y400642D01*
X471474Y399980D01*
X471980Y399474D01*
X472642Y399200D01*
X473358D01*
X474020Y399474D01*
X474526Y399980D01*
X474800Y400642D01*
Y401358D01*
X474526Y402020D01*
X474020Y402526D01*
X473358Y402800D01*
D02*
G37*
G36*
X359858Y400994D02*
X359142D01*
X358480Y400720D01*
X357974Y400214D01*
X357700Y399552D01*
Y398836D01*
X357974Y398175D01*
X358480Y397669D01*
X359142Y397394D01*
X359858D01*
X360520Y397669D01*
X361026Y398175D01*
X361300Y398836D01*
Y399552D01*
X361026Y400214D01*
X360520Y400720D01*
X359858Y400994D01*
D02*
G37*
G36*
X440266Y397133D02*
X439549D01*
X438888Y396859D01*
X438381Y396353D01*
X438107Y395691D01*
Y394975D01*
X438381Y394314D01*
X438888Y393807D01*
X439549Y393533D01*
X440266D01*
X440927Y393807D01*
X441433Y394314D01*
X441707Y394975D01*
Y395691D01*
X441433Y396353D01*
X440927Y396859D01*
X440266Y397133D01*
D02*
G37*
G36*
X366358Y396133D02*
X365642D01*
X364980Y395859D01*
X364474Y395353D01*
X364200Y394691D01*
Y393975D01*
X364474Y393314D01*
X364980Y392807D01*
X365642Y392533D01*
X366358D01*
X367020Y392807D01*
X367526Y393314D01*
X367800Y393975D01*
Y394691D01*
X367526Y395353D01*
X367020Y395859D01*
X366358Y396133D01*
D02*
G37*
G36*
X393358Y392800D02*
X392642D01*
X391980Y392526D01*
X391474Y392020D01*
X391200Y391358D01*
Y390642D01*
X391474Y389980D01*
X391980Y389474D01*
X392642Y389200D01*
X393358D01*
X394020Y389474D01*
X394526Y389980D01*
X394800Y390642D01*
Y391358D01*
X394526Y392020D01*
X394020Y392526D01*
X393358Y392800D01*
D02*
G37*
G36*
X387606D02*
X386890D01*
X386228Y392526D01*
X385722Y392020D01*
X385448Y391358D01*
Y390642D01*
X385722Y389980D01*
X386228Y389474D01*
X386890Y389200D01*
X387606D01*
X388268Y389474D01*
X388774Y389980D01*
X389048Y390642D01*
Y391358D01*
X388774Y392020D01*
X388268Y392526D01*
X387606Y392800D01*
D02*
G37*
G36*
X446358Y392369D02*
X445642D01*
X444980Y392095D01*
X444474Y391588D01*
X444200Y390927D01*
Y390211D01*
X444474Y389549D01*
X444980Y389043D01*
X445642Y388769D01*
X446358D01*
X447020Y389043D01*
X447526Y389549D01*
X447800Y390211D01*
Y390927D01*
X447526Y391588D01*
X447020Y392095D01*
X446358Y392369D01*
D02*
G37*
G36*
X422358Y391800D02*
X421642D01*
X420980Y391526D01*
X420474Y391020D01*
X420200Y390358D01*
Y389642D01*
X420474Y388980D01*
X420980Y388474D01*
X421642Y388200D01*
X422358D01*
X423020Y388474D01*
X423526Y388980D01*
X423800Y389642D01*
Y390358D01*
X423526Y391020D01*
X423020Y391526D01*
X422358Y391800D01*
D02*
G37*
G36*
X415358D02*
X414642D01*
X413980Y391526D01*
X413474Y391020D01*
X413200Y390358D01*
Y389642D01*
X413474Y388980D01*
X413980Y388474D01*
X414642Y388200D01*
X415358D01*
X416020Y388474D01*
X416526Y388980D01*
X416800Y389642D01*
Y390358D01*
X416526Y391020D01*
X416020Y391526D01*
X415358Y391800D01*
D02*
G37*
G36*
X359858Y391272D02*
X359142D01*
X358480Y390998D01*
X357974Y390492D01*
X357700Y389830D01*
Y389114D01*
X357974Y388453D01*
X358480Y387946D01*
X359142Y387672D01*
X359858D01*
X360520Y387946D01*
X361026Y388453D01*
X361300Y389114D01*
Y389830D01*
X361026Y390492D01*
X360520Y390998D01*
X359858Y391272D01*
D02*
G37*
G36*
X440872Y388286D02*
X440156D01*
X439494Y388012D01*
X438988Y387506D01*
X438714Y386844D01*
Y386128D01*
X438988Y385467D01*
X439494Y384960D01*
X440156Y384686D01*
X440872D01*
X441534Y384960D01*
X442040Y385467D01*
X442314Y386128D01*
Y386844D01*
X442040Y387506D01*
X441534Y388012D01*
X440872Y388286D01*
D02*
G37*
G36*
X366358Y386411D02*
X365642D01*
X364980Y386137D01*
X364474Y385631D01*
X364200Y384969D01*
Y384253D01*
X364474Y383592D01*
X364980Y383085D01*
X365642Y382811D01*
X366358D01*
X367020Y383085D01*
X367526Y383592D01*
X367800Y384253D01*
Y384969D01*
X367526Y385631D01*
X367020Y386137D01*
X366358Y386411D01*
D02*
G37*
G36*
X418858Y386300D02*
X418142D01*
X417480Y386026D01*
X416974Y385520D01*
X416700Y384858D01*
Y384142D01*
X416974Y383480D01*
X417480Y382974D01*
X418142Y382700D01*
X418858D01*
X419520Y382974D01*
X420026Y383480D01*
X420300Y384142D01*
Y384858D01*
X420026Y385520D01*
X419520Y386026D01*
X418858Y386300D01*
D02*
G37*
%LPD*%
D45*
X560500Y431000D02*
D03*
X440500Y474500D02*
D03*
D46*
X565842Y462500D02*
D03*
X421822D02*
D03*
D47*
X429919Y400081D02*
D03*
X375500Y411000D02*
D03*
X531000Y460125D02*
D03*
Y467750D02*
D03*
Y475375D02*
D03*
Y452500D02*
D03*
X550500Y431250D02*
D03*
X571500Y442000D02*
D03*
X550500D02*
D03*
X571500Y431250D02*
D03*
X561000Y420500D02*
D03*
X571500D02*
D03*
X550500D02*
D03*
X520000Y376500D02*
D03*
X566818D02*
D03*
X557454D02*
D03*
X548091D02*
D03*
X538727D02*
D03*
X529364D02*
D03*
X571500Y382500D02*
D03*
X524682D02*
D03*
X529364Y388500D02*
D03*
X534045Y382500D02*
D03*
X538727Y388500D02*
D03*
X543409Y382500D02*
D03*
X548091Y388500D02*
D03*
X552773Y382500D02*
D03*
X557454Y388500D02*
D03*
X562136Y382500D02*
D03*
X566818Y388500D02*
D03*
X520000D02*
D03*
X454000Y477000D02*
D03*
X448500Y468500D02*
D03*
X434000Y460000D02*
D03*
X443500D02*
D03*
X454000D02*
D03*
X438750Y452000D02*
D03*
X454000Y444000D02*
D03*
X443500D02*
D03*
X434000D02*
D03*
X438750Y430000D02*
D03*
X429250D02*
D03*
X454000Y423500D02*
D03*
X424500Y413360D02*
D03*
M02*
