G04*
G04 #@! TF.GenerationSoftware,Altium Limited,Altium Designer,22.3.1 (43)*
G04*
G04 Layer_Physical_Order=4*
G04 Layer_Color=1930808*
%FSLAX25Y25*%
%MOIN*%
G70*
G04*
G04 #@! TF.SameCoordinates,ADBFED44-BD27-400C-BC08-764E4E0E5164*
G04*
G04*
G04 #@! TF.FilePolarity,Positive*
G04*
G01*
G75*
%ADD15C,0.01000*%
%ADD88C,0.01200*%
%ADD94R,0.05906X0.05906*%
%ADD95C,0.05906*%
%ADD96C,0.09055*%
%ADD97C,0.02400*%
%ADD98C,0.23622*%
G36*
X342192Y6162D02*
X342224Y6169D01*
X342256Y6163D01*
X342867Y6182D01*
X344075Y5982D01*
X345219Y5549D01*
X346258Y4902D01*
X347150Y4064D01*
X347862Y3069D01*
X348366Y1954D01*
X348643Y762D01*
X348662Y167D01*
X348663Y-251825D01*
X348668Y-251849D01*
X348664Y-251872D01*
X348665Y-251930D01*
X348666Y-251975D01*
X348666Y-252055D01*
Y-252650D01*
X348437Y-253827D01*
X347987Y-254938D01*
X347333Y-255943D01*
X346499Y-256805D01*
X345515Y-257491D01*
X344419Y-257977D01*
X343250Y-258244D01*
X342668Y-258262D01*
X2309Y-258162D01*
X2276Y-258169D01*
X2244Y-258163D01*
X1634Y-258183D01*
X429Y-257982D01*
X-714Y-257550D01*
X-1750Y-256904D01*
X-2641Y-256068D01*
X-3352Y-255075D01*
X-3855Y-253962D01*
X-4132Y-252772D01*
X-4151Y-252178D01*
X-4534Y-364D01*
X-4569Y-188D01*
X-4563Y-150D01*
X-4565Y-100D01*
X-4564Y-97D01*
X-4565Y-91D01*
X-4583Y461D01*
X-4383Y1670D01*
X-3951Y2815D01*
X-3304Y3855D01*
X-2466Y4748D01*
X-1471Y5461D01*
X-355Y5966D01*
X838Y6243D01*
X1182Y6255D01*
X1352Y6188D01*
X1514Y6191D01*
X1673Y6156D01*
X1744Y6154D01*
X1952Y6191D01*
X2163Y6189D01*
X2340Y6261D01*
X2350Y6262D01*
X342192Y6162D01*
D02*
G37*
%LPC*%
G36*
X292238Y-12700D02*
X291362D01*
X290554Y-13035D01*
X289935Y-13654D01*
X289600Y-14462D01*
Y-15338D01*
X289935Y-16146D01*
X290554Y-16765D01*
X291362Y-17100D01*
X292238D01*
X293046Y-16765D01*
X293665Y-16146D01*
X294000Y-15338D01*
Y-14462D01*
X293665Y-13654D01*
X293046Y-13035D01*
X292238Y-12700D01*
D02*
G37*
G36*
X309738Y-12800D02*
X308862D01*
X308054Y-13135D01*
X307435Y-13754D01*
X307100Y-14562D01*
Y-15438D01*
X307435Y-16246D01*
X308054Y-16865D01*
X308862Y-17200D01*
X309738D01*
X310546Y-16865D01*
X311165Y-16246D01*
X311500Y-15438D01*
Y-14562D01*
X311165Y-13754D01*
X310546Y-13135D01*
X309738Y-12800D01*
D02*
G37*
G36*
X274438Y-12900D02*
X273562D01*
X272754Y-13235D01*
X272135Y-13854D01*
X271800Y-14662D01*
Y-15538D01*
X272135Y-16346D01*
X272754Y-16965D01*
X273562Y-17300D01*
X274438D01*
X275246Y-16965D01*
X275865Y-16346D01*
X276200Y-15538D01*
Y-14662D01*
X275865Y-13854D01*
X275246Y-13235D01*
X274438Y-12900D01*
D02*
G37*
G36*
X139728Y-13372D02*
X139500D01*
Y-18400D01*
X144528D01*
Y-18172D01*
X144151Y-16766D01*
X143423Y-15506D01*
X142394Y-14477D01*
X141134Y-13749D01*
X139728Y-13372D01*
D02*
G37*
G36*
X138500D02*
X138272D01*
X136866Y-13749D01*
X135606Y-14477D01*
X134577Y-15506D01*
X133849Y-16766D01*
X133472Y-18172D01*
Y-18400D01*
X138500D01*
Y-13372D01*
D02*
G37*
G36*
X144528Y-19400D02*
X139500D01*
Y-24428D01*
X139728D01*
X141134Y-24051D01*
X142394Y-23323D01*
X143423Y-22294D01*
X144151Y-21034D01*
X144528Y-19628D01*
Y-19400D01*
D02*
G37*
G36*
X138500D02*
X133472D01*
Y-19628D01*
X133849Y-21034D01*
X134577Y-22294D01*
X135606Y-23323D01*
X136866Y-24051D01*
X138272Y-24428D01*
X138500D01*
Y-19400D01*
D02*
G37*
G36*
X120043Y-13372D02*
X118587D01*
X117181Y-13749D01*
X115921Y-14477D01*
X114892Y-15506D01*
X114164Y-16766D01*
X113787Y-18172D01*
Y-19628D01*
X114164Y-21034D01*
X114892Y-22294D01*
X115921Y-23323D01*
X117181Y-24051D01*
X118587Y-24428D01*
X120043D01*
X121449Y-24051D01*
X122709Y-23323D01*
X123738Y-22294D01*
X124466Y-21034D01*
X124843Y-19628D01*
Y-18172D01*
X124466Y-16766D01*
X123738Y-15506D01*
X122709Y-14477D01*
X121449Y-13749D01*
X120043Y-13372D01*
D02*
G37*
G36*
X234308Y511D02*
X232292D01*
X230300Y196D01*
X228382Y-428D01*
X226586Y-1343D01*
X224954Y-2528D01*
X223528Y-3954D01*
X222343Y-5586D01*
X221428Y-7382D01*
X220804Y-9300D01*
X220489Y-11292D01*
Y-13308D01*
X220804Y-15300D01*
X221428Y-17218D01*
X222343Y-19014D01*
X223528Y-20646D01*
X224954Y-22072D01*
X226586Y-23257D01*
X228382Y-24172D01*
X230300Y-24796D01*
X232292Y-25111D01*
X234308D01*
X236300Y-24796D01*
X238218Y-24172D01*
X240014Y-23257D01*
X241646Y-22072D01*
X243072Y-20646D01*
X244257Y-19014D01*
X245172Y-17218D01*
X245796Y-15300D01*
X246111Y-13308D01*
Y-11292D01*
X245796Y-9300D01*
X245172Y-7382D01*
X244257Y-5586D01*
X243072Y-3954D01*
X241646Y-2528D01*
X240014Y-1343D01*
X238218Y-428D01*
X236300Y196D01*
X234308Y511D01*
D02*
G37*
G36*
X17108D02*
X15092D01*
X13100Y196D01*
X11182Y-428D01*
X9386Y-1343D01*
X7754Y-2528D01*
X6328Y-3954D01*
X5143Y-5586D01*
X4228Y-7382D01*
X3604Y-9300D01*
X3289Y-11292D01*
Y-13308D01*
X3604Y-15300D01*
X4228Y-17218D01*
X5143Y-19014D01*
X6328Y-20646D01*
X7754Y-22072D01*
X9386Y-23257D01*
X11182Y-24172D01*
X13100Y-24796D01*
X15092Y-25111D01*
X17108D01*
X19100Y-24796D01*
X21018Y-24172D01*
X22814Y-23257D01*
X24446Y-22072D01*
X25872Y-20646D01*
X27057Y-19014D01*
X27972Y-17218D01*
X28596Y-15300D01*
X28911Y-13308D01*
Y-11292D01*
X28596Y-9300D01*
X27972Y-7382D01*
X27057Y-5586D01*
X25872Y-3954D01*
X24446Y-2528D01*
X22814Y-1343D01*
X21018Y-428D01*
X19100Y196D01*
X17108Y511D01*
D02*
G37*
G36*
X175938Y-42800D02*
X175062D01*
X174254Y-43135D01*
X173918Y-43471D01*
X147282D01*
X146696Y-43587D01*
X146200Y-43919D01*
X117548Y-72571D01*
X114446D01*
X114169Y-72155D01*
X114300Y-71838D01*
Y-70962D01*
X113965Y-70154D01*
X113567Y-69756D01*
X113463Y-69335D01*
X113588Y-69123D01*
X114065Y-68646D01*
X114400Y-67838D01*
Y-66962D01*
X114065Y-66154D01*
X113446Y-65535D01*
X113120Y-65400D01*
Y-64859D01*
X113346Y-64765D01*
X113965Y-64146D01*
X114300Y-63338D01*
Y-62462D01*
X113965Y-61654D01*
X113346Y-61035D01*
X112538Y-60700D01*
X111662D01*
X110854Y-61035D01*
X110235Y-61654D01*
X109900Y-62462D01*
Y-63338D01*
X110235Y-64146D01*
X110854Y-64765D01*
X111180Y-64900D01*
Y-65441D01*
X110954Y-65535D01*
X110335Y-66154D01*
X110000Y-66962D01*
Y-67838D01*
X110335Y-68646D01*
X110733Y-69044D01*
X110837Y-69465D01*
X110712Y-69677D01*
X110235Y-70154D01*
X109900Y-70962D01*
Y-71838D01*
X110031Y-72155D01*
X109754Y-72571D01*
X99200D01*
X98615Y-72687D01*
X98119Y-73019D01*
X77537Y-93600D01*
X77062D01*
X76254Y-93935D01*
X75635Y-94554D01*
X75300Y-95362D01*
Y-96238D01*
X75635Y-97046D01*
X76254Y-97665D01*
X77062Y-98000D01*
X77938D01*
X78746Y-97665D01*
X79365Y-97046D01*
X79450Y-96841D01*
X79950D01*
X80035Y-97046D01*
X80654Y-97665D01*
X81462Y-98000D01*
X82338D01*
X83146Y-97665D01*
X83482Y-97329D01*
X105915D01*
X107367Y-98781D01*
X107863Y-99113D01*
X108449Y-99229D01*
X145218D01*
X145804Y-99113D01*
X146300Y-98781D01*
X169999Y-75082D01*
X170423Y-75365D01*
X170300Y-75662D01*
Y-76538D01*
X170635Y-77346D01*
X171254Y-77965D01*
X172062Y-78300D01*
X172938D01*
X173746Y-77965D01*
X174365Y-77346D01*
X174700Y-76538D01*
Y-75662D01*
X174365Y-74854D01*
X173746Y-74235D01*
X172938Y-73900D01*
X172062D01*
X171765Y-74023D01*
X171482Y-73599D01*
X198452Y-46629D01*
X203618D01*
X203954Y-46965D01*
X204762Y-47300D01*
X205638D01*
X206446Y-46965D01*
X207065Y-46346D01*
X207400Y-45538D01*
Y-44662D01*
X207065Y-43854D01*
X206446Y-43235D01*
X205638Y-42900D01*
X204762D01*
X203954Y-43235D01*
X203618Y-43571D01*
X197818D01*
X197233Y-43687D01*
X196737Y-44019D01*
X144585Y-96171D01*
X140855D01*
X140521Y-95671D01*
X140700Y-95238D01*
Y-94362D01*
X140365Y-93554D01*
X139938Y-93127D01*
X139802Y-92800D01*
X139938Y-92473D01*
X140365Y-92046D01*
X140700Y-91238D01*
Y-90362D01*
X140365Y-89554D01*
X139746Y-88935D01*
X139541Y-88850D01*
Y-88309D01*
X139646Y-88265D01*
X140265Y-87646D01*
X140600Y-86838D01*
Y-85962D01*
X140265Y-85154D01*
X139646Y-84535D01*
X139562Y-84500D01*
Y-84000D01*
X139646Y-83965D01*
X140265Y-83346D01*
X140600Y-82538D01*
Y-81662D01*
X140265Y-80854D01*
X139646Y-80235D01*
X138838Y-79900D01*
X137962D01*
X137154Y-80235D01*
X136535Y-80854D01*
X136200Y-81662D01*
Y-82538D01*
X136535Y-83346D01*
X137154Y-83965D01*
X137238Y-84000D01*
Y-84500D01*
X137154Y-84535D01*
X136535Y-85154D01*
X136200Y-85962D01*
Y-86838D01*
X136535Y-87646D01*
X137154Y-88265D01*
X137359Y-88350D01*
Y-88891D01*
X137254Y-88935D01*
X136635Y-89554D01*
X136300Y-90362D01*
Y-91238D01*
X136635Y-92046D01*
X137062Y-92473D01*
X137198Y-92800D01*
X137062Y-93127D01*
X136635Y-93554D01*
X136300Y-94362D01*
Y-95238D01*
X136479Y-95671D01*
X136145Y-96171D01*
X133946D01*
X133669Y-95755D01*
X133800Y-95438D01*
Y-94562D01*
X133465Y-93754D01*
X132846Y-93135D01*
X132762Y-93100D01*
Y-92600D01*
X132846Y-92565D01*
X133465Y-91946D01*
X133800Y-91138D01*
Y-90262D01*
X133465Y-89454D01*
X132967Y-88956D01*
X132892Y-88650D01*
X132967Y-88344D01*
X133465Y-87846D01*
X133800Y-87038D01*
Y-86162D01*
X133465Y-85354D01*
X132846Y-84735D01*
X132762Y-84700D01*
Y-84200D01*
X132846Y-84165D01*
X133465Y-83546D01*
X133800Y-82738D01*
Y-81862D01*
X133465Y-81054D01*
X132846Y-80435D01*
X132038Y-80100D01*
X131162D01*
X130354Y-80435D01*
X129735Y-81054D01*
X129400Y-81862D01*
Y-82738D01*
X129735Y-83546D01*
X130354Y-84165D01*
X130438Y-84200D01*
Y-84700D01*
X130354Y-84735D01*
X129735Y-85354D01*
X129400Y-86162D01*
Y-87038D01*
X129735Y-87846D01*
X130233Y-88344D01*
X130308Y-88650D01*
X130233Y-88956D01*
X129735Y-89454D01*
X129400Y-90262D01*
Y-91138D01*
X129735Y-91946D01*
X130354Y-92565D01*
X130438Y-92600D01*
Y-93100D01*
X130354Y-93135D01*
X129735Y-93754D01*
X129400Y-94562D01*
Y-95438D01*
X129531Y-95755D01*
X129254Y-96171D01*
X109082D01*
X107630Y-94719D01*
X107134Y-94387D01*
X106549Y-94271D01*
X83482D01*
X83146Y-93935D01*
X82502Y-93668D01*
X82325Y-93138D01*
X99834Y-75629D01*
X109754D01*
X110031Y-76045D01*
X109900Y-76362D01*
Y-77238D01*
X110235Y-78046D01*
X110512Y-78323D01*
X110754Y-78735D01*
X110512Y-78977D01*
X110135Y-79354D01*
X109800Y-80162D01*
Y-81038D01*
X110135Y-81846D01*
X110633Y-82344D01*
X110708Y-82650D01*
X110633Y-82956D01*
X110135Y-83454D01*
X109800Y-84262D01*
Y-85138D01*
X110135Y-85946D01*
X110754Y-86565D01*
X111562Y-86900D01*
X112438D01*
X113246Y-86565D01*
X113865Y-85946D01*
X114200Y-85138D01*
Y-84262D01*
X113865Y-83454D01*
X113367Y-82956D01*
X113292Y-82650D01*
X113367Y-82344D01*
X113865Y-81846D01*
X114200Y-81038D01*
Y-80162D01*
X113865Y-79354D01*
X113588Y-79077D01*
X113346Y-78665D01*
X113588Y-78423D01*
X113965Y-78046D01*
X114300Y-77238D01*
Y-76362D01*
X114169Y-76045D01*
X114446Y-75629D01*
X118182D01*
X118767Y-75513D01*
X119263Y-75181D01*
X130413Y-64031D01*
X130903Y-64129D01*
X131035Y-64446D01*
X131503Y-64915D01*
X131544Y-65330D01*
X131462Y-65527D01*
X130935Y-66054D01*
X130600Y-66862D01*
Y-67738D01*
X130935Y-68546D01*
X131433Y-69044D01*
X131508Y-69350D01*
X131433Y-69656D01*
X130935Y-70154D01*
X130600Y-70962D01*
Y-71838D01*
X130935Y-72646D01*
X131503Y-73215D01*
X131531Y-73500D01*
X131503Y-73785D01*
X130935Y-74354D01*
X130600Y-75162D01*
Y-76038D01*
X130935Y-76846D01*
X131554Y-77465D01*
X132362Y-77800D01*
X133238D01*
X134046Y-77465D01*
X134665Y-76846D01*
X135000Y-76038D01*
Y-75162D01*
X134665Y-74354D01*
X134097Y-73785D01*
X134069Y-73500D01*
X134097Y-73215D01*
X134665Y-72646D01*
X135000Y-71838D01*
Y-70962D01*
X134665Y-70154D01*
X134167Y-69656D01*
X134092Y-69350D01*
X134167Y-69044D01*
X134665Y-68546D01*
X135000Y-67738D01*
Y-66862D01*
X134665Y-66054D01*
X134197Y-65585D01*
X134156Y-65170D01*
X134238Y-64973D01*
X134765Y-64446D01*
X135100Y-63638D01*
Y-62762D01*
X134765Y-61954D01*
X134146Y-61335D01*
X133829Y-61203D01*
X133731Y-60713D01*
X147915Y-46529D01*
X173918D01*
X174254Y-46865D01*
X175062Y-47200D01*
X175938D01*
X176746Y-46865D01*
X177365Y-46246D01*
X177700Y-45438D01*
Y-44562D01*
X177365Y-43754D01*
X176746Y-43135D01*
X175938Y-42800D01*
D02*
G37*
G36*
X184738Y-46500D02*
X183862D01*
X183054Y-46835D01*
X182435Y-47454D01*
X182100Y-48262D01*
Y-49138D01*
X182435Y-49946D01*
X183054Y-50565D01*
X183862Y-50900D01*
X184738D01*
X185546Y-50565D01*
X186165Y-49946D01*
X186500Y-49138D01*
Y-48262D01*
X186165Y-47454D01*
X185546Y-46835D01*
X184738Y-46500D01*
D02*
G37*
G36*
X221538Y-47700D02*
X220662D01*
X219854Y-48035D01*
X219235Y-48654D01*
X218900Y-49462D01*
Y-50338D01*
X219235Y-51146D01*
X219854Y-51765D01*
X220662Y-52100D01*
X221538D01*
X222346Y-51765D01*
X222965Y-51146D01*
X223300Y-50338D01*
Y-49462D01*
X222965Y-48654D01*
X222346Y-48035D01*
X221538Y-47700D01*
D02*
G37*
G36*
X47588Y-49637D02*
X46713D01*
X45904Y-49972D01*
X45285Y-50591D01*
X44950Y-51400D01*
Y-52275D01*
X45285Y-53084D01*
X45904Y-53702D01*
X46713Y-54037D01*
X47588D01*
X48397Y-53702D01*
X49015Y-53084D01*
X49350Y-52275D01*
Y-51400D01*
X49015Y-50591D01*
X48397Y-49972D01*
X47588Y-49637D01*
D02*
G37*
G36*
X258238Y-59000D02*
X257362D01*
X256554Y-59335D01*
X255935Y-59954D01*
X255600Y-60762D01*
Y-61638D01*
X255935Y-62446D01*
X256554Y-63065D01*
X257362Y-63400D01*
X258238D01*
X259046Y-63065D01*
X259665Y-62446D01*
X260000Y-61638D01*
Y-60762D01*
X259665Y-59954D01*
X259046Y-59335D01*
X258238Y-59000D01*
D02*
G37*
G36*
X191238Y-61900D02*
X190362D01*
X189554Y-62235D01*
X188935Y-62854D01*
X188600Y-63662D01*
Y-64538D01*
X188935Y-65346D01*
X189554Y-65965D01*
X190362Y-66300D01*
X191238D01*
X192046Y-65965D01*
X192665Y-65346D01*
X193000Y-64538D01*
Y-63662D01*
X192665Y-62854D01*
X192046Y-62235D01*
X191238Y-61900D01*
D02*
G37*
G36*
X107138Y-60600D02*
X106262D01*
X105454Y-60935D01*
X104835Y-61554D01*
X104500Y-62362D01*
Y-63238D01*
X104835Y-64046D01*
X105454Y-64665D01*
X105851Y-64829D01*
Y-65371D01*
X105454Y-65535D01*
X104835Y-66154D01*
X104500Y-66962D01*
Y-67838D01*
X104835Y-68646D01*
X105454Y-69265D01*
X106262Y-69600D01*
X107138D01*
X107946Y-69265D01*
X108565Y-68646D01*
X108900Y-67838D01*
Y-66962D01*
X108565Y-66154D01*
X107946Y-65535D01*
X107550Y-65371D01*
Y-64829D01*
X107946Y-64665D01*
X108565Y-64046D01*
X108900Y-63238D01*
Y-62362D01*
X108565Y-61554D01*
X107946Y-60935D01*
X107138Y-60600D01*
D02*
G37*
G36*
X209106Y-66490D02*
X208231D01*
X207422Y-66825D01*
X206804Y-67444D01*
X206469Y-68253D01*
Y-68727D01*
X194325Y-80871D01*
X182882D01*
X182546Y-80535D01*
X181738Y-80200D01*
X180862D01*
X180054Y-80535D01*
X179435Y-81154D01*
X179100Y-81962D01*
Y-82838D01*
X179435Y-83646D01*
X180054Y-84265D01*
X180862Y-84600D01*
X181738D01*
X182546Y-84265D01*
X182882Y-83929D01*
X194959D01*
X195544Y-83813D01*
X196040Y-83481D01*
X208632Y-70890D01*
X209106D01*
X209915Y-70555D01*
X210534Y-69937D01*
X210869Y-69128D01*
Y-68253D01*
X210534Y-67444D01*
X209915Y-66825D01*
X209106Y-66490D01*
D02*
G37*
G36*
X290838Y-77000D02*
X289962D01*
X289154Y-77335D01*
X288535Y-77954D01*
X288200Y-78762D01*
Y-79638D01*
X288535Y-80446D01*
X289154Y-81065D01*
X289962Y-81400D01*
X290838D01*
X291646Y-81065D01*
X292265Y-80446D01*
X292600Y-79638D01*
Y-78762D01*
X292265Y-77954D01*
X291646Y-77335D01*
X290838Y-77000D01*
D02*
G37*
G36*
X325238Y-77100D02*
X324362D01*
X323554Y-77435D01*
X322935Y-78054D01*
X322600Y-78862D01*
Y-79738D01*
X322935Y-80546D01*
X323554Y-81165D01*
X324362Y-81500D01*
X325238D01*
X326046Y-81165D01*
X326665Y-80546D01*
X327000Y-79738D01*
Y-78862D01*
X326665Y-78054D01*
X326046Y-77435D01*
X325238Y-77100D01*
D02*
G37*
G36*
X206300Y-34569D02*
X67200D01*
X66576Y-34693D01*
X66047Y-35046D01*
X63093Y-38000D01*
X62762D01*
X61954Y-38335D01*
X61335Y-38954D01*
X61000Y-39762D01*
Y-40638D01*
X61335Y-41446D01*
X61954Y-42065D01*
X62762Y-42400D01*
X63638D01*
X64446Y-42065D01*
X65065Y-41446D01*
X65400Y-40638D01*
Y-40307D01*
X67876Y-37831D01*
X74850D01*
X75057Y-38331D01*
X74935Y-38454D01*
X74600Y-39262D01*
Y-40138D01*
X74935Y-40946D01*
X75554Y-41565D01*
X76362Y-41900D01*
X77238D01*
X78046Y-41565D01*
X78665Y-40946D01*
X79000Y-40138D01*
Y-39262D01*
X78665Y-38454D01*
X78543Y-38331D01*
X78750Y-37831D01*
X205624D01*
X211369Y-43576D01*
Y-82350D01*
X210869Y-82557D01*
X210546Y-82235D01*
X209738Y-81900D01*
X208862D01*
X208054Y-82235D01*
X207718Y-82571D01*
X205982D01*
X205396Y-82687D01*
X204900Y-83019D01*
X174462Y-113457D01*
X174371Y-113433D01*
X174000Y-113212D01*
Y-112462D01*
X173665Y-111654D01*
X173046Y-111035D01*
X172238Y-110700D01*
X171362D01*
X170554Y-111035D01*
X169935Y-111654D01*
X169600Y-112462D01*
Y-113338D01*
X169935Y-114146D01*
X170554Y-114765D01*
X171362Y-115100D01*
X172112D01*
X172333Y-115471D01*
X172357Y-115562D01*
X170319Y-117600D01*
X169987Y-118096D01*
X169871Y-118682D01*
Y-120618D01*
X169535Y-120954D01*
X169200Y-121762D01*
Y-122638D01*
X169535Y-123446D01*
X170154Y-124065D01*
X170962Y-124400D01*
X171230D01*
X171437Y-124900D01*
X168367Y-127971D01*
X143900D01*
X143315Y-128087D01*
X142819Y-128419D01*
X133919Y-137319D01*
X133587Y-137815D01*
X133471Y-138400D01*
Y-143983D01*
X133587Y-144568D01*
X133753Y-144817D01*
Y-145601D01*
X133418Y-145937D01*
X133083Y-146745D01*
Y-147621D01*
X133367Y-148306D01*
X133141Y-148806D01*
X130569D01*
X121327Y-139565D01*
Y-139035D01*
X120993Y-138226D01*
X120374Y-137607D01*
X119565Y-137273D01*
X118690D01*
X117881Y-137607D01*
X117262Y-138226D01*
X116928Y-139035D01*
Y-139910D01*
X117262Y-140719D01*
X117881Y-141338D01*
X118690Y-141673D01*
X119110D01*
X127496Y-150059D01*
X127304Y-150521D01*
X98191D01*
X79989Y-132319D01*
X79493Y-131987D01*
X78908Y-131871D01*
X56050D01*
X55950Y-131371D01*
X56446Y-131165D01*
X57065Y-130546D01*
X57400Y-129738D01*
Y-128862D01*
X57065Y-128054D01*
X56446Y-127435D01*
X55638Y-127100D01*
X54762D01*
X53954Y-127435D01*
X53335Y-128054D01*
X53000Y-128862D01*
Y-129738D01*
X53335Y-130546D01*
X53954Y-131165D01*
X54450Y-131371D01*
X54351Y-131871D01*
X49782D01*
X49446Y-131535D01*
X48638Y-131200D01*
X47762D01*
X46954Y-131535D01*
X46335Y-132154D01*
X46000Y-132962D01*
Y-133838D01*
X46335Y-134646D01*
X46954Y-135265D01*
X47762Y-135600D01*
X48638D01*
X49446Y-135265D01*
X49782Y-134929D01*
X78274D01*
X96476Y-153131D01*
X96973Y-153463D01*
X97558Y-153579D01*
X159504D01*
X159696Y-154041D01*
X147366Y-166371D01*
X46082D01*
X45746Y-166035D01*
X44938Y-165700D01*
X44062D01*
X43254Y-166035D01*
X42635Y-166654D01*
X42300Y-167462D01*
Y-168338D01*
X42635Y-169146D01*
X43254Y-169765D01*
X44062Y-170100D01*
X44938D01*
X45746Y-169765D01*
X46082Y-169429D01*
X129655D01*
X129704Y-169929D01*
X129415Y-169987D01*
X128919Y-170319D01*
X108867Y-190371D01*
X46082D01*
X45756Y-190044D01*
X44947Y-189710D01*
X44072D01*
X43263Y-190044D01*
X42645Y-190663D01*
X42310Y-191472D01*
Y-192347D01*
X42645Y-193156D01*
X43263Y-193775D01*
X44072Y-194110D01*
X44947D01*
X45756Y-193775D01*
X46101Y-193429D01*
X107533D01*
X107724Y-193891D01*
X100045Y-201571D01*
X96382D01*
X95796Y-201687D01*
X95300Y-202019D01*
X93719Y-203600D01*
X93387Y-204096D01*
X93271Y-204682D01*
Y-206918D01*
X93228Y-206971D01*
X75182D01*
X74846Y-206635D01*
X74038Y-206300D01*
X73162D01*
X72354Y-206635D01*
X71735Y-207254D01*
X71400Y-208062D01*
Y-208938D01*
X71735Y-209746D01*
X72354Y-210365D01*
X73162Y-210700D01*
X74038D01*
X74846Y-210365D01*
X75182Y-210029D01*
X94382D01*
X94967Y-209913D01*
X95463Y-209581D01*
X96049Y-208996D01*
X96380Y-208500D01*
X96425Y-208277D01*
X96978Y-207965D01*
X97062Y-208000D01*
X97938D01*
X98746Y-207665D01*
X99182Y-207229D01*
X100200D01*
X100785Y-207113D01*
X101281Y-206781D01*
X131133Y-176929D01*
X164000D01*
X164585Y-176813D01*
X165081Y-176481D01*
X181198Y-160365D01*
X181529Y-159869D01*
X181612Y-159451D01*
X196463Y-144600D01*
X196938D01*
X197746Y-144265D01*
X198365Y-143646D01*
X198700Y-142838D01*
Y-141962D01*
X198365Y-141154D01*
X197746Y-140535D01*
X196938Y-140200D01*
X196062D01*
X195254Y-140535D01*
X194635Y-141154D01*
X194592Y-141258D01*
X194051D01*
X193966Y-141054D01*
X193347Y-140435D01*
X192539Y-140100D01*
X191664D01*
X190855Y-140435D01*
X190236Y-141054D01*
X190050Y-141502D01*
X189509D01*
X189365Y-141154D01*
X188746Y-140535D01*
X187938Y-140200D01*
X187463D01*
X184692Y-137429D01*
X184899Y-136929D01*
X195500D01*
X196085Y-136813D01*
X196581Y-136481D01*
X201963Y-131100D01*
X202438D01*
X203246Y-130765D01*
X203865Y-130146D01*
X204200Y-129338D01*
Y-128462D01*
X203865Y-127654D01*
X203246Y-127035D01*
X202970Y-126921D01*
Y-126379D01*
X203246Y-126265D01*
X203865Y-125646D01*
X204200Y-124838D01*
Y-123962D01*
X203865Y-123154D01*
X203246Y-122535D01*
X202438Y-122200D01*
X201562D01*
X200754Y-122535D01*
X200135Y-123154D01*
X199800Y-123962D01*
Y-124437D01*
X192367Y-131871D01*
X172546D01*
X172354Y-131409D01*
X187081Y-116681D01*
X187413Y-116185D01*
X187529Y-115600D01*
Y-114482D01*
X187865Y-114146D01*
X188200Y-113338D01*
Y-112462D01*
X187865Y-111654D01*
X187246Y-111035D01*
X186438Y-110700D01*
X185562D01*
X184754Y-111035D01*
X184135Y-111654D01*
X183800Y-112462D01*
Y-113338D01*
X184135Y-114146D01*
X184471Y-114482D01*
Y-114966D01*
X182991Y-116446D01*
X182529Y-116254D01*
Y-114482D01*
X182865Y-114146D01*
X183200Y-113338D01*
Y-112462D01*
X182865Y-111654D01*
X182246Y-111035D01*
X181929Y-110904D01*
X181831Y-110413D01*
X206615Y-85629D01*
X207718D01*
X208054Y-85965D01*
X208862Y-86300D01*
X209738D01*
X210546Y-85965D01*
X210869Y-85643D01*
X211369Y-85850D01*
Y-90224D01*
X190993Y-110600D01*
X190662D01*
X189854Y-110935D01*
X189235Y-111554D01*
X188900Y-112362D01*
Y-113238D01*
X189235Y-114046D01*
X189854Y-114665D01*
X190662Y-115000D01*
X191538D01*
X192346Y-114665D01*
X192965Y-114046D01*
X193300Y-113238D01*
Y-112907D01*
X214154Y-92054D01*
X214507Y-91524D01*
X214631Y-90900D01*
Y-42900D01*
X214507Y-42276D01*
X214154Y-41747D01*
X207453Y-35046D01*
X206924Y-34693D01*
X206300Y-34569D01*
D02*
G37*
G36*
X253838Y-80000D02*
X252962D01*
X252154Y-80335D01*
X251535Y-80954D01*
X251200Y-81762D01*
Y-82638D01*
X251535Y-83446D01*
X252154Y-84065D01*
X252962Y-84400D01*
X253838D01*
X254646Y-84065D01*
X255265Y-83446D01*
X255600Y-82638D01*
Y-81762D01*
X255265Y-80954D01*
X254646Y-80335D01*
X253838Y-80000D01*
D02*
G37*
G36*
X71638Y-86500D02*
X70762D01*
X69954Y-86835D01*
X69335Y-87454D01*
X69000Y-88262D01*
Y-89138D01*
X69335Y-89946D01*
X69954Y-90565D01*
X70762Y-90900D01*
X71638D01*
X72446Y-90565D01*
X73065Y-89946D01*
X73400Y-89138D01*
Y-88262D01*
X73065Y-87454D01*
X72446Y-86835D01*
X71638Y-86500D01*
D02*
G37*
G36*
X326138Y-94800D02*
X325262D01*
X324454Y-95135D01*
X323835Y-95754D01*
X323500Y-96562D01*
Y-97438D01*
X323835Y-98246D01*
X324454Y-98865D01*
X325262Y-99200D01*
X326138D01*
X326946Y-98865D01*
X327565Y-98246D01*
X327900Y-97438D01*
Y-96562D01*
X327565Y-95754D01*
X326946Y-95135D01*
X326138Y-94800D01*
D02*
G37*
G36*
X245938Y-99500D02*
X245062D01*
X244254Y-99835D01*
X243635Y-100454D01*
X243300Y-101262D01*
Y-102138D01*
X243635Y-102946D01*
X244254Y-103565D01*
X245062Y-103900D01*
X245938D01*
X246746Y-103565D01*
X247365Y-102946D01*
X247700Y-102138D01*
Y-101262D01*
X247365Y-100454D01*
X246746Y-99835D01*
X245938Y-99500D01*
D02*
G37*
G36*
X48050Y-100385D02*
X47175D01*
X46366Y-100719D01*
X45747Y-101338D01*
X45412Y-102147D01*
Y-103022D01*
X45747Y-103831D01*
X46366Y-104450D01*
X47175Y-104785D01*
X48050D01*
X48859Y-104450D01*
X49477Y-103831D01*
X49812Y-103022D01*
Y-102147D01*
X49477Y-101338D01*
X48859Y-100719D01*
X48050Y-100385D01*
D02*
G37*
G36*
X213538Y-106700D02*
X212662D01*
X211854Y-107035D01*
X211235Y-107654D01*
X210900Y-108462D01*
Y-109338D01*
X211235Y-110146D01*
X211854Y-110765D01*
X212662Y-111100D01*
X213538D01*
X214346Y-110765D01*
X214965Y-110146D01*
X215300Y-109338D01*
Y-108462D01*
X214965Y-107654D01*
X214346Y-107035D01*
X213538Y-106700D01*
D02*
G37*
G36*
X124438D02*
X123562D01*
X122754Y-107035D01*
X122135Y-107654D01*
X121800Y-108462D01*
Y-109338D01*
X122135Y-110146D01*
X122754Y-110765D01*
X123562Y-111100D01*
X124438D01*
X125246Y-110765D01*
X125865Y-110146D01*
X126200Y-109338D01*
Y-108462D01*
X125865Y-107654D01*
X125246Y-107035D01*
X124438Y-106700D01*
D02*
G37*
G36*
X326438Y-111900D02*
X325562D01*
X324754Y-112235D01*
X324135Y-112854D01*
X323800Y-113662D01*
Y-114538D01*
X324135Y-115346D01*
X324754Y-115965D01*
X325562Y-116300D01*
X326438D01*
X327246Y-115965D01*
X327865Y-115346D01*
X328200Y-114538D01*
Y-113662D01*
X327865Y-112854D01*
X327246Y-112235D01*
X326438Y-111900D01*
D02*
G37*
G36*
X284138Y-121000D02*
X283262D01*
X282454Y-121335D01*
X281835Y-121954D01*
X281500Y-122762D01*
Y-123638D01*
X281835Y-124446D01*
X282454Y-125065D01*
X283262Y-125400D01*
X284138D01*
X284946Y-125065D01*
X285565Y-124446D01*
X285900Y-123638D01*
Y-122762D01*
X285565Y-121954D01*
X284946Y-121335D01*
X284138Y-121000D01*
D02*
G37*
G36*
X256038Y-124000D02*
X255162D01*
X254354Y-124335D01*
X253735Y-124954D01*
X253400Y-125762D01*
Y-126638D01*
X253735Y-127446D01*
X254354Y-128065D01*
X255162Y-128400D01*
X256038D01*
X256846Y-128065D01*
X257465Y-127446D01*
X257800Y-126638D01*
Y-125762D01*
X257465Y-124954D01*
X256846Y-124335D01*
X256038Y-124000D01*
D02*
G37*
G36*
X135138Y-130300D02*
X134262D01*
X133454Y-130635D01*
X132835Y-131254D01*
X132500Y-132062D01*
Y-132938D01*
X132835Y-133746D01*
X133454Y-134365D01*
X134262Y-134700D01*
X135138D01*
X135946Y-134365D01*
X136565Y-133746D01*
X136900Y-132938D01*
Y-132062D01*
X136565Y-131254D01*
X135946Y-130635D01*
X135138Y-130300D01*
D02*
G37*
G36*
X229538Y-136300D02*
X228662D01*
X227854Y-136635D01*
X227235Y-137254D01*
X226900Y-138062D01*
Y-138938D01*
X227235Y-139746D01*
X227854Y-140365D01*
X228662Y-140700D01*
X229538D01*
X230346Y-140365D01*
X230965Y-139746D01*
X231300Y-138938D01*
Y-138062D01*
X230965Y-137254D01*
X230346Y-136635D01*
X229538Y-136300D01*
D02*
G37*
G36*
X51638Y-147100D02*
X50762D01*
X49954Y-147435D01*
X49335Y-148054D01*
X49000Y-148862D01*
Y-149738D01*
X49335Y-150546D01*
X49954Y-151165D01*
X50762Y-151500D01*
X51638D01*
X52446Y-151165D01*
X53065Y-150546D01*
X53400Y-149738D01*
Y-148862D01*
X53065Y-148054D01*
X52446Y-147435D01*
X51638Y-147100D01*
D02*
G37*
G36*
X219038Y-149296D02*
X218162D01*
X217354Y-149631D01*
X216735Y-150250D01*
X216400Y-151058D01*
Y-151934D01*
X216735Y-152742D01*
X217354Y-153361D01*
X218162Y-153696D01*
X219038D01*
X219846Y-153361D01*
X220465Y-152742D01*
X220800Y-151934D01*
Y-151058D01*
X220465Y-150250D01*
X219846Y-149631D01*
X219038Y-149296D01*
D02*
G37*
G36*
X206438Y-153500D02*
X205562D01*
X204754Y-153835D01*
X204135Y-154454D01*
X203800Y-155262D01*
Y-156138D01*
X204135Y-156946D01*
X204754Y-157565D01*
X205562Y-157900D01*
X206438D01*
X207246Y-157565D01*
X207865Y-156946D01*
X208200Y-156138D01*
Y-155262D01*
X207865Y-154454D01*
X207246Y-153835D01*
X206438Y-153500D01*
D02*
G37*
G36*
X123638Y-158600D02*
X122762D01*
X121954Y-158935D01*
X121335Y-159554D01*
X121000Y-160362D01*
Y-161238D01*
X121335Y-162046D01*
X121954Y-162665D01*
X122762Y-163000D01*
X123638D01*
X124446Y-162665D01*
X125065Y-162046D01*
X125400Y-161238D01*
Y-160362D01*
X125065Y-159554D01*
X124446Y-158935D01*
X123638Y-158600D01*
D02*
G37*
G36*
X131738Y-159200D02*
X130862D01*
X130054Y-159535D01*
X129435Y-160154D01*
X129100Y-160962D01*
Y-161838D01*
X129435Y-162646D01*
X130054Y-163265D01*
X130862Y-163600D01*
X131738D01*
X132546Y-163265D01*
X133165Y-162646D01*
X133500Y-161838D01*
Y-160962D01*
X133165Y-160154D01*
X132546Y-159535D01*
X131738Y-159200D01*
D02*
G37*
G36*
X218438Y-161900D02*
X217562D01*
X216754Y-162235D01*
X216135Y-162854D01*
X215800Y-163662D01*
Y-164538D01*
X216135Y-165346D01*
X216754Y-165965D01*
X217562Y-166300D01*
X218438D01*
X219246Y-165965D01*
X219865Y-165346D01*
X220200Y-164538D01*
Y-163662D01*
X219865Y-162854D01*
X219246Y-162235D01*
X218438Y-161900D01*
D02*
G37*
G36*
X282353Y-158447D02*
X274447D01*
Y-166353D01*
X282353D01*
Y-158447D01*
D02*
G37*
G36*
X177038Y-168800D02*
X176162D01*
X175354Y-169135D01*
X174735Y-169754D01*
X174400Y-170562D01*
Y-171438D01*
X174735Y-172246D01*
X175354Y-172865D01*
X176162Y-173200D01*
X177038D01*
X177846Y-172865D01*
X178465Y-172246D01*
X178800Y-171438D01*
Y-170562D01*
X178465Y-169754D01*
X177846Y-169135D01*
X177038Y-168800D01*
D02*
G37*
G36*
X278920Y-168447D02*
X277880D01*
X276874Y-168717D01*
X275973Y-169237D01*
X275237Y-169973D01*
X274717Y-170874D01*
X274447Y-171880D01*
Y-172920D01*
X274717Y-173926D01*
X275237Y-174827D01*
X275973Y-175563D01*
X276874Y-176083D01*
X277880Y-176353D01*
X278920D01*
X279926Y-176083D01*
X280827Y-175563D01*
X281563Y-174827D01*
X282083Y-173926D01*
X282353Y-172920D01*
Y-171880D01*
X282083Y-170874D01*
X281563Y-169973D01*
X280827Y-169237D01*
X279926Y-168717D01*
X278920Y-168447D01*
D02*
G37*
G36*
X116138Y-173600D02*
X115262D01*
X114454Y-173935D01*
X113835Y-174554D01*
X113500Y-175362D01*
Y-176238D01*
X113835Y-177046D01*
X114454Y-177665D01*
X115262Y-178000D01*
X116138D01*
X116946Y-177665D01*
X117565Y-177046D01*
X117900Y-176238D01*
Y-175362D01*
X117565Y-174554D01*
X116946Y-173935D01*
X116138Y-173600D01*
D02*
G37*
G36*
X58238Y-175900D02*
X57362D01*
X56554Y-176235D01*
X55935Y-176854D01*
X55600Y-177662D01*
Y-178538D01*
X55935Y-179346D01*
X56554Y-179965D01*
X57362Y-180300D01*
X58238D01*
X59046Y-179965D01*
X59665Y-179346D01*
X60000Y-178538D01*
Y-177662D01*
X59665Y-176854D01*
X59046Y-176235D01*
X58238Y-175900D01*
D02*
G37*
G36*
X201638Y-184100D02*
X200762D01*
X199954Y-184435D01*
X199335Y-185054D01*
X199000Y-185862D01*
Y-186738D01*
X199335Y-187546D01*
X199954Y-188165D01*
X200762Y-188500D01*
X201638D01*
X202446Y-188165D01*
X203065Y-187546D01*
X203400Y-186738D01*
Y-185862D01*
X203065Y-185054D01*
X202446Y-184435D01*
X201638Y-184100D01*
D02*
G37*
G36*
X129138Y-186500D02*
X128262D01*
X127454Y-186835D01*
X126835Y-187454D01*
X126500Y-188262D01*
Y-189138D01*
X126835Y-189946D01*
X127454Y-190565D01*
X128262Y-190900D01*
X129138D01*
X129946Y-190565D01*
X130565Y-189946D01*
X130900Y-189138D01*
Y-188262D01*
X130565Y-187454D01*
X129946Y-186835D01*
X129138Y-186500D01*
D02*
G37*
G36*
X190638Y-192200D02*
X189762D01*
X188954Y-192535D01*
X188335Y-193154D01*
X188000Y-193962D01*
Y-194838D01*
X188335Y-195646D01*
X188954Y-196265D01*
X189762Y-196600D01*
X190638D01*
X191446Y-196265D01*
X192065Y-195646D01*
X192400Y-194838D01*
Y-193962D01*
X192065Y-193154D01*
X191446Y-192535D01*
X190638Y-192200D01*
D02*
G37*
G36*
X92038Y-198700D02*
X91162D01*
X90354Y-199035D01*
X89735Y-199654D01*
X89400Y-200462D01*
Y-201338D01*
X89735Y-202146D01*
X90354Y-202765D01*
X91162Y-203100D01*
X92038D01*
X92846Y-202765D01*
X93465Y-202146D01*
X93800Y-201338D01*
Y-200462D01*
X93465Y-199654D01*
X92846Y-199035D01*
X92038Y-198700D01*
D02*
G37*
G36*
X175968Y-199170D02*
X175092D01*
X174284Y-199505D01*
X173665Y-200124D01*
X173330Y-200933D01*
Y-201808D01*
X173665Y-202616D01*
X174284Y-203235D01*
X175092Y-203570D01*
X175968D01*
X176776Y-203235D01*
X177395Y-202616D01*
X177730Y-201808D01*
Y-200933D01*
X177395Y-200124D01*
X176776Y-199505D01*
X175968Y-199170D01*
D02*
G37*
G36*
X144884Y-204300D02*
X144009D01*
X143200Y-204635D01*
X142581Y-205254D01*
X142246Y-206062D01*
Y-206938D01*
X142581Y-207746D01*
X143200Y-208365D01*
X144009Y-208700D01*
X144884D01*
X145692Y-208365D01*
X146311Y-207746D01*
X146646Y-206938D01*
Y-206062D01*
X146311Y-205254D01*
X145692Y-204635D01*
X144884Y-204300D01*
D02*
G37*
G36*
X117838Y-204400D02*
X116962D01*
X116154Y-204735D01*
X115535Y-205354D01*
X115200Y-206162D01*
Y-207038D01*
X115535Y-207846D01*
X116154Y-208465D01*
X116962Y-208800D01*
X117838D01*
X118646Y-208465D01*
X119265Y-207846D01*
X119600Y-207038D01*
Y-206162D01*
X119265Y-205354D01*
X118646Y-204735D01*
X117838Y-204400D01*
D02*
G37*
G36*
X61596Y-205672D02*
X60721D01*
X59912Y-206007D01*
X59293Y-206626D01*
X58958Y-207435D01*
Y-208310D01*
X59293Y-209119D01*
X59912Y-209737D01*
X60721Y-210072D01*
X61596D01*
X62405Y-209737D01*
X63024Y-209119D01*
X63358Y-208310D01*
Y-207435D01*
X63024Y-206626D01*
X62405Y-206007D01*
X61596Y-205672D01*
D02*
G37*
G36*
X223108Y-211570D02*
X222233D01*
X221424Y-211905D01*
X220805Y-212524D01*
X220470Y-213333D01*
Y-214208D01*
X220805Y-215016D01*
X221424Y-215635D01*
X222233Y-215970D01*
X223108D01*
X223916Y-215635D01*
X224535Y-215016D01*
X224870Y-214208D01*
Y-213333D01*
X224535Y-212524D01*
X223916Y-211905D01*
X223108Y-211570D01*
D02*
G37*
G36*
X245238Y-229100D02*
X244362D01*
X243554Y-229435D01*
X242935Y-230054D01*
X242600Y-230862D01*
Y-231738D01*
X242935Y-232546D01*
X243554Y-233165D01*
X244362Y-233500D01*
X245238D01*
X246046Y-233165D01*
X246665Y-232546D01*
X247000Y-231738D01*
Y-230862D01*
X246665Y-230054D01*
X246046Y-229435D01*
X245238Y-229100D01*
D02*
G37*
G36*
X262705Y-229440D02*
X261829D01*
X261021Y-229775D01*
X260402Y-230394D01*
X260067Y-231202D01*
Y-232078D01*
X260402Y-232886D01*
X261021Y-233505D01*
X261829Y-233840D01*
X262705D01*
X263513Y-233505D01*
X264132Y-232886D01*
X264467Y-232078D01*
Y-231202D01*
X264132Y-230394D01*
X263513Y-229775D01*
X262705Y-229440D01*
D02*
G37*
G36*
X280638Y-230400D02*
X279762D01*
X278954Y-230735D01*
X278335Y-231354D01*
X278000Y-232162D01*
Y-233038D01*
X278335Y-233846D01*
X278954Y-234465D01*
X279762Y-234800D01*
X280638D01*
X281446Y-234465D01*
X282065Y-233846D01*
X282400Y-233038D01*
Y-232162D01*
X282065Y-231354D01*
X281446Y-230735D01*
X280638Y-230400D01*
D02*
G37*
G36*
X330708Y-226989D02*
X328692D01*
X326700Y-227304D01*
X324782Y-227928D01*
X322986Y-228843D01*
X321354Y-230028D01*
X319928Y-231454D01*
X318743Y-233086D01*
X317828Y-234882D01*
X317204Y-236800D01*
X316889Y-238792D01*
Y-240808D01*
X317204Y-242800D01*
X317828Y-244718D01*
X318743Y-246514D01*
X319928Y-248146D01*
X321354Y-249572D01*
X322986Y-250757D01*
X324782Y-251672D01*
X326700Y-252296D01*
X328692Y-252611D01*
X330708D01*
X332700Y-252296D01*
X334618Y-251672D01*
X336414Y-250757D01*
X338046Y-249572D01*
X339472Y-248146D01*
X340657Y-246514D01*
X341572Y-244718D01*
X342196Y-242800D01*
X342511Y-240808D01*
Y-238792D01*
X342196Y-236800D01*
X341572Y-234882D01*
X340657Y-233086D01*
X339472Y-231454D01*
X338046Y-230028D01*
X336414Y-228843D01*
X334618Y-227928D01*
X332700Y-227304D01*
X330708Y-226989D01*
D02*
G37*
G36*
X17108D02*
X15092D01*
X13100Y-227304D01*
X11182Y-227928D01*
X9386Y-228843D01*
X7754Y-230028D01*
X6328Y-231454D01*
X5143Y-233086D01*
X4228Y-234882D01*
X3604Y-236800D01*
X3289Y-238792D01*
Y-240808D01*
X3604Y-242800D01*
X4228Y-244718D01*
X5143Y-246514D01*
X6328Y-248146D01*
X7754Y-249572D01*
X9386Y-250757D01*
X11182Y-251672D01*
X13100Y-252296D01*
X15092Y-252611D01*
X17108D01*
X19100Y-252296D01*
X21018Y-251672D01*
X22814Y-250757D01*
X24446Y-249572D01*
X25872Y-248146D01*
X27057Y-246514D01*
X27972Y-244718D01*
X28596Y-242800D01*
X28911Y-240808D01*
Y-238792D01*
X28596Y-236800D01*
X27972Y-234882D01*
X27057Y-233086D01*
X25872Y-231454D01*
X24446Y-230028D01*
X22814Y-228843D01*
X21018Y-227928D01*
X19100Y-227304D01*
X17108Y-226989D01*
D02*
G37*
%LPD*%
G36*
X176300Y-142470D02*
Y-142838D01*
X176635Y-143646D01*
X176971Y-143982D01*
Y-148767D01*
X155867Y-169871D01*
X148345D01*
X148295Y-169371D01*
X148585Y-169313D01*
X149081Y-168981D01*
X175800Y-142263D01*
X176300Y-142470D01*
D02*
G37*
D15*
X119128Y-139527D02*
X129935Y-150335D01*
X119128Y-139527D02*
Y-139472D01*
X78908Y-133400D02*
X97558Y-152050D01*
X160350D01*
X48200Y-133400D02*
X78908D01*
X73600Y-208500D02*
X94382D01*
X108449Y-97700D02*
X145218D01*
X197818Y-45100D01*
X205200D01*
X171400Y-118682D02*
X205982Y-84100D01*
X171400Y-122200D02*
Y-118682D01*
X205982Y-84100D02*
X209300D01*
X160350Y-152050D02*
X174200Y-138200D01*
X129935Y-150335D02*
X150965D01*
X155800Y-145500D01*
X135283Y-147183D02*
Y-144266D01*
X139871Y-147009D02*
X140000Y-146880D01*
Y-140100D01*
X148700Y-131400D01*
X143421Y-144409D02*
Y-141679D01*
X151700Y-133400D01*
X174200Y-138200D02*
X183300D01*
X181300Y-82400D02*
X194959D01*
X208669Y-68690D01*
X181000Y-117500D02*
Y-112900D01*
X106549Y-95800D02*
X108449Y-97700D01*
X81900Y-95800D02*
X106549D01*
X147282Y-45000D02*
X175500D01*
X118182Y-74100D02*
X147282Y-45000D01*
X99200Y-74100D02*
X118182D01*
X77500Y-95800D02*
X99200Y-74100D01*
X44510Y-191910D02*
X44519Y-191900D01*
X109500D01*
X149204Y-143203D02*
Y-141904D01*
X147780Y-145006D02*
Y-144627D01*
X149204Y-143203D01*
Y-141904D02*
X149548Y-141559D01*
Y-140852D01*
X155000Y-135400D01*
X143900Y-129500D02*
X169000D01*
X181000Y-117500D01*
X135000Y-138400D02*
X143900Y-129500D01*
X148700Y-131400D02*
X170200D01*
X151700Y-133400D02*
X193000D01*
X170200Y-131400D02*
X186000Y-115600D01*
X193000Y-133400D02*
X202000Y-124400D01*
X186000Y-115600D02*
Y-112900D01*
X183300Y-138200D02*
X187500Y-142400D01*
X155000Y-135400D02*
X195500D01*
X202000Y-128900D01*
X44500Y-167900D02*
X148000D01*
X176200Y-139700D02*
X180300D01*
X148000Y-167900D02*
X176200Y-139700D01*
X178500Y-149400D02*
Y-142400D01*
X180300Y-139700D02*
X183000Y-142400D01*
X130000Y-171400D02*
X156500D01*
X178500Y-149400D01*
X109500Y-191900D02*
X130000Y-171400D01*
X100679Y-203100D02*
X129879Y-173900D01*
X160501D01*
X130500Y-175400D02*
X164000D01*
X100200Y-205700D02*
X130500Y-175400D01*
X97600Y-205700D02*
X100200D01*
X96382Y-203100D02*
X100679D01*
X94800Y-206918D02*
X94967Y-207086D01*
X94800Y-206918D02*
Y-204682D01*
X96382Y-203100D01*
X94382Y-208500D02*
X94967Y-207914D01*
Y-207086D01*
X160501Y-173900D02*
X192101Y-142300D01*
X97500Y-205800D02*
X97600Y-205700D01*
X180116Y-158784D02*
X196500Y-142400D01*
X180116Y-159284D02*
Y-158784D01*
X164000Y-175400D02*
X180116Y-159284D01*
X135000Y-143983D02*
Y-138400D01*
Y-143983D02*
X135283Y-144266D01*
D88*
X63200Y-40200D02*
X67200Y-36200D01*
X206300D02*
X213000Y-42900D01*
X67200Y-36200D02*
X206300D01*
X213000Y-90900D02*
Y-42900D01*
X191100Y-112800D02*
X213000Y-90900D01*
D94*
X278400Y-162400D02*
D03*
D95*
Y-172400D02*
D03*
D96*
X139000Y-18900D02*
D03*
X119315D02*
D03*
D97*
X128500Y-195000D02*
D03*
X152600Y-206700D02*
D03*
X337000Y-26000D02*
D03*
Y-46000D02*
D03*
Y-86000D02*
D03*
Y-106000D02*
D03*
Y-126000D02*
D03*
Y-146000D02*
D03*
Y-166000D02*
D03*
Y-186000D02*
D03*
Y-226000D02*
D03*
X327000Y-26000D02*
D03*
X332000Y-36000D02*
D03*
X327000Y-46000D02*
D03*
X332000Y-56000D02*
D03*
Y-76000D02*
D03*
X327000Y-86000D02*
D03*
X332000Y-96000D02*
D03*
X327000Y-106000D02*
D03*
X332000Y-116000D02*
D03*
X327000Y-126000D02*
D03*
Y-146000D02*
D03*
X332000Y-176000D02*
D03*
X327000Y-186000D02*
D03*
X332000Y-196000D02*
D03*
X327000Y-226000D02*
D03*
X317000Y-6000D02*
D03*
X322000Y-16000D02*
D03*
Y-56000D02*
D03*
X317000Y-66000D02*
D03*
X322000Y-136000D02*
D03*
X317000Y-146000D02*
D03*
Y-166000D02*
D03*
X322000Y-176000D02*
D03*
X317000Y-206000D02*
D03*
Y-226000D02*
D03*
Y-246000D02*
D03*
X307000Y-6000D02*
D03*
X312000Y-56000D02*
D03*
X307000Y-66000D02*
D03*
X312000Y-136000D02*
D03*
X307000Y-146000D02*
D03*
X312000Y-156000D02*
D03*
X307000Y-166000D02*
D03*
Y-206000D02*
D03*
X312000Y-216000D02*
D03*
X307000Y-226000D02*
D03*
X312000Y-236000D02*
D03*
X307000Y-246000D02*
D03*
X297000Y-6000D02*
D03*
X302000Y-16000D02*
D03*
Y-56000D02*
D03*
Y-136000D02*
D03*
X297000Y-146000D02*
D03*
X302000Y-156000D02*
D03*
X297000Y-166000D02*
D03*
Y-186000D02*
D03*
Y-206000D02*
D03*
X302000Y-216000D02*
D03*
X297000Y-226000D02*
D03*
X287000Y-6000D02*
D03*
Y-46000D02*
D03*
X292000Y-56000D02*
D03*
Y-136000D02*
D03*
X287000Y-146000D02*
D03*
X292000Y-156000D02*
D03*
Y-216000D02*
D03*
X287000Y-246000D02*
D03*
X277000Y-6000D02*
D03*
X282000Y-16000D02*
D03*
X277000Y-126000D02*
D03*
X282000Y-136000D02*
D03*
X277000Y-146000D02*
D03*
X282000Y-156000D02*
D03*
X277000Y-186000D02*
D03*
Y-246000D02*
D03*
X267000Y-26000D02*
D03*
Y-46000D02*
D03*
X272000Y-56000D02*
D03*
Y-96000D02*
D03*
Y-136000D02*
D03*
Y-156000D02*
D03*
Y-176000D02*
D03*
X267000Y-186000D02*
D03*
Y-206000D02*
D03*
X272000Y-236000D02*
D03*
X267000Y-246000D02*
D03*
X257000Y-6000D02*
D03*
Y-26000D02*
D03*
X262000Y-36000D02*
D03*
X257000Y-46000D02*
D03*
X262000Y-56000D02*
D03*
Y-96000D02*
D03*
X257000Y-106000D02*
D03*
X262000Y-156000D02*
D03*
X257000Y-166000D02*
D03*
X262000Y-176000D02*
D03*
X257000Y-186000D02*
D03*
Y-246000D02*
D03*
X247000Y-6000D02*
D03*
X252000Y-16000D02*
D03*
X247000Y-26000D02*
D03*
X252000Y-36000D02*
D03*
X247000Y-46000D02*
D03*
X252000Y-56000D02*
D03*
X247000Y-66000D02*
D03*
Y-86000D02*
D03*
Y-106000D02*
D03*
X252000Y-116000D02*
D03*
X247000Y-126000D02*
D03*
Y-146000D02*
D03*
X252000Y-156000D02*
D03*
X247000Y-166000D02*
D03*
X252000Y-176000D02*
D03*
X247000Y-186000D02*
D03*
Y-246000D02*
D03*
X237000Y-26000D02*
D03*
X242000Y-36000D02*
D03*
X237000Y-46000D02*
D03*
X242000Y-56000D02*
D03*
X237000Y-66000D02*
D03*
Y-106000D02*
D03*
X242000Y-116000D02*
D03*
X237000Y-126000D02*
D03*
Y-166000D02*
D03*
X242000Y-176000D02*
D03*
X237000Y-186000D02*
D03*
Y-246000D02*
D03*
X227000Y-26000D02*
D03*
X232000Y-36000D02*
D03*
X227000Y-46000D02*
D03*
X232000Y-56000D02*
D03*
X227000Y-66000D02*
D03*
Y-106000D02*
D03*
X232000Y-116000D02*
D03*
X227000Y-126000D02*
D03*
Y-166000D02*
D03*
X232000Y-176000D02*
D03*
X227000Y-186000D02*
D03*
Y-206000D02*
D03*
Y-226000D02*
D03*
X217000Y-6000D02*
D03*
Y-26000D02*
D03*
X222000Y-36000D02*
D03*
X217000Y-46000D02*
D03*
X222000Y-56000D02*
D03*
X217000Y-66000D02*
D03*
X222000Y-156000D02*
D03*
X217000Y-186000D02*
D03*
Y-226000D02*
D03*
X222000Y-236000D02*
D03*
X217000Y-246000D02*
D03*
X207000Y-6000D02*
D03*
X212000Y-16000D02*
D03*
X207000Y-26000D02*
D03*
X212000Y-36000D02*
D03*
X207000Y-186000D02*
D03*
X212000Y-236000D02*
D03*
X207000Y-246000D02*
D03*
X197000Y-6000D02*
D03*
X202000Y-16000D02*
D03*
X197000Y-26000D02*
D03*
X202000Y-116000D02*
D03*
Y-136000D02*
D03*
X197000Y-226000D02*
D03*
X202000Y-236000D02*
D03*
X187000Y-6000D02*
D03*
X192000Y-16000D02*
D03*
X187000Y-26000D02*
D03*
X192000Y-56000D02*
D03*
Y-76000D02*
D03*
X187000Y-86000D02*
D03*
Y-126000D02*
D03*
X192000Y-176000D02*
D03*
X187000Y-206000D02*
D03*
X192000Y-216000D02*
D03*
X187000Y-226000D02*
D03*
X177000Y-6000D02*
D03*
X182000Y-16000D02*
D03*
X177000Y-26000D02*
D03*
X182000Y-76000D02*
D03*
Y-176000D02*
D03*
Y-236000D02*
D03*
X177000Y-246000D02*
D03*
X167000Y-6000D02*
D03*
X172000Y-16000D02*
D03*
X167000Y-26000D02*
D03*
Y-86000D02*
D03*
Y-106000D02*
D03*
X172000Y-176000D02*
D03*
Y-236000D02*
D03*
X167000Y-246000D02*
D03*
X157000Y-6000D02*
D03*
X162000Y-16000D02*
D03*
X157000Y-26000D02*
D03*
X162000Y-56000D02*
D03*
X157000Y-66000D02*
D03*
X162000Y-76000D02*
D03*
X157000Y-166000D02*
D03*
X162000Y-236000D02*
D03*
X157000Y-246000D02*
D03*
X147000Y-6000D02*
D03*
X152000Y-16000D02*
D03*
X147000Y-26000D02*
D03*
X152000Y-56000D02*
D03*
X147000Y-66000D02*
D03*
X152000Y-76000D02*
D03*
X147000Y-86000D02*
D03*
Y-226000D02*
D03*
X152000Y-236000D02*
D03*
X137000Y-6000D02*
D03*
Y-26000D02*
D03*
X142000Y-56000D02*
D03*
Y-76000D02*
D03*
Y-216000D02*
D03*
X137000Y-226000D02*
D03*
X127000Y-6000D02*
D03*
X132000Y-16000D02*
D03*
X127000Y-26000D02*
D03*
Y-46000D02*
D03*
X132000Y-56000D02*
D03*
Y-116000D02*
D03*
Y-216000D02*
D03*
X127000Y-226000D02*
D03*
X132000Y-236000D02*
D03*
X127000Y-246000D02*
D03*
X117000Y-6000D02*
D03*
X122000Y-116000D02*
D03*
Y-156000D02*
D03*
Y-216000D02*
D03*
X117000Y-226000D02*
D03*
X107000Y-6000D02*
D03*
X112000Y-16000D02*
D03*
X107000Y-26000D02*
D03*
Y-46000D02*
D03*
X112000Y-56000D02*
D03*
X107000Y-86000D02*
D03*
X112000Y-116000D02*
D03*
Y-136000D02*
D03*
Y-156000D02*
D03*
X107000Y-186000D02*
D03*
X112000Y-236000D02*
D03*
X107000Y-246000D02*
D03*
X97000Y-26000D02*
D03*
Y-46000D02*
D03*
X102000Y-56000D02*
D03*
X97000Y-66000D02*
D03*
Y-86000D02*
D03*
X102000Y-136000D02*
D03*
X97000Y-186000D02*
D03*
X102000Y-236000D02*
D03*
X97000Y-246000D02*
D03*
X87000Y-6000D02*
D03*
X92000Y-16000D02*
D03*
X87000Y-46000D02*
D03*
X92000Y-56000D02*
D03*
X87000Y-66000D02*
D03*
X92000Y-176000D02*
D03*
X87000Y-186000D02*
D03*
X92000Y-196000D02*
D03*
Y-236000D02*
D03*
X87000Y-246000D02*
D03*
X77000Y-6000D02*
D03*
X82000Y-16000D02*
D03*
X77000Y-66000D02*
D03*
X82000Y-156000D02*
D03*
Y-176000D02*
D03*
Y-196000D02*
D03*
Y-216000D02*
D03*
Y-236000D02*
D03*
X77000Y-246000D02*
D03*
X67000Y-26000D02*
D03*
Y-46000D02*
D03*
X72000Y-56000D02*
D03*
X67000Y-66000D02*
D03*
Y-86000D02*
D03*
X72000Y-116000D02*
D03*
X67000Y-146000D02*
D03*
X72000Y-156000D02*
D03*
X67000Y-186000D02*
D03*
X72000Y-196000D02*
D03*
Y-236000D02*
D03*
X67000Y-246000D02*
D03*
X57000Y-6000D02*
D03*
Y-46000D02*
D03*
Y-66000D02*
D03*
X62000Y-76000D02*
D03*
Y-96000D02*
D03*
X57000Y-106000D02*
D03*
X62000Y-116000D02*
D03*
X57000Y-146000D02*
D03*
X62000Y-156000D02*
D03*
Y-176000D02*
D03*
Y-196000D02*
D03*
Y-236000D02*
D03*
X57000Y-246000D02*
D03*
X47000Y-6000D02*
D03*
X52000Y-16000D02*
D03*
X47000Y-26000D02*
D03*
Y-46000D02*
D03*
Y-66000D02*
D03*
X52000Y-76000D02*
D03*
Y-116000D02*
D03*
X47000Y-126000D02*
D03*
X52000Y-156000D02*
D03*
Y-176000D02*
D03*
X47000Y-226000D02*
D03*
X52000Y-236000D02*
D03*
X37000Y-6000D02*
D03*
X42000Y-16000D02*
D03*
X37000Y-26000D02*
D03*
X42000Y-36000D02*
D03*
Y-56000D02*
D03*
X37000Y-66000D02*
D03*
X42000Y-76000D02*
D03*
X37000Y-106000D02*
D03*
X42000Y-116000D02*
D03*
Y-156000D02*
D03*
Y-176000D02*
D03*
Y-216000D02*
D03*
X37000Y-226000D02*
D03*
Y-246000D02*
D03*
X32000Y-16000D02*
D03*
X27000Y-26000D02*
D03*
X32000Y-36000D02*
D03*
X27000Y-66000D02*
D03*
X32000Y-76000D02*
D03*
X27000Y-106000D02*
D03*
X32000Y-116000D02*
D03*
X27000Y-226000D02*
D03*
X32000Y-236000D02*
D03*
X17000Y-46000D02*
D03*
X22000Y-56000D02*
D03*
X17000Y-86000D02*
D03*
X22000Y-96000D02*
D03*
X17000Y-126000D02*
D03*
X22000Y-136000D02*
D03*
X17000Y-146000D02*
D03*
X22000Y-156000D02*
D03*
X17000Y-166000D02*
D03*
X22000Y-176000D02*
D03*
X17000Y-186000D02*
D03*
X22000Y-196000D02*
D03*
X17000Y-206000D02*
D03*
X7000Y-46000D02*
D03*
X12000Y-56000D02*
D03*
X7000Y-86000D02*
D03*
X12000Y-96000D02*
D03*
X7000Y-126000D02*
D03*
X12000Y-136000D02*
D03*
X7000Y-146000D02*
D03*
X12000Y-156000D02*
D03*
X7000Y-166000D02*
D03*
X12000Y-176000D02*
D03*
X7000Y-186000D02*
D03*
X12000Y-196000D02*
D03*
X7000Y-206000D02*
D03*
X51200Y-149300D02*
D03*
X48200Y-133400D02*
D03*
X119128Y-139472D02*
D03*
X47612Y-102585D02*
D03*
X175530Y-201370D02*
D03*
X144446Y-206500D02*
D03*
X73600Y-208500D02*
D03*
X274000Y-15100D02*
D03*
X291800Y-14900D02*
D03*
X309300Y-15000D02*
D03*
X63200Y-40200D02*
D03*
X128700Y-188700D02*
D03*
X150700Y-107800D02*
D03*
X138500Y-94800D02*
D03*
X55200Y-129300D02*
D03*
X61158Y-207872D02*
D03*
X244800Y-231300D02*
D03*
X325700Y-97000D02*
D03*
X190800Y-64100D02*
D03*
X171800Y-112900D02*
D03*
X189900Y-89300D02*
D03*
X159800Y-96100D02*
D03*
X223400Y-119600D02*
D03*
X217500Y-134200D02*
D03*
X225300Y-174200D02*
D03*
X198300Y-168300D02*
D03*
X171300Y-172700D02*
D03*
X135283Y-147183D02*
D03*
X139871Y-147009D02*
D03*
X143421Y-144409D02*
D03*
X155800Y-145500D02*
D03*
X268000Y-202100D02*
D03*
X251100Y-202400D02*
D03*
X232600Y-218300D02*
D03*
X210700Y-214300D02*
D03*
X172700Y-96800D02*
D03*
X181300Y-82400D02*
D03*
X181000Y-112900D02*
D03*
X186000D02*
D03*
X208669Y-68690D02*
D03*
X112000Y-84700D02*
D03*
X112100Y-76800D02*
D03*
X77500Y-95800D02*
D03*
X81900D02*
D03*
X205200Y-45100D02*
D03*
X175500Y-45000D02*
D03*
X222670Y-213770D02*
D03*
X262267Y-231640D02*
D03*
X47150Y-51837D02*
D03*
X76800Y-39700D02*
D03*
X290400Y-79200D02*
D03*
X253400Y-82200D02*
D03*
X115700Y-175800D02*
D03*
X44510Y-191910D02*
D03*
X280200Y-232600D02*
D03*
X255600Y-126200D02*
D03*
X283700Y-123200D02*
D03*
X326000Y-114100D02*
D03*
X324800Y-79300D02*
D03*
X257800Y-61200D02*
D03*
X221100Y-49900D02*
D03*
X184300Y-48700D02*
D03*
X71200Y-88700D02*
D03*
X57800Y-178100D02*
D03*
X91600Y-200900D02*
D03*
X117400Y-206600D02*
D03*
X112200Y-67400D02*
D03*
X112100Y-62900D02*
D03*
Y-71400D02*
D03*
X132800Y-67300D02*
D03*
X112000Y-80600D02*
D03*
X106700Y-67400D02*
D03*
Y-62800D02*
D03*
X132900Y-63200D02*
D03*
X132800Y-75600D02*
D03*
Y-71400D02*
D03*
X172500Y-76100D02*
D03*
X213100Y-108900D02*
D03*
X245500Y-101700D02*
D03*
X229100Y-138500D02*
D03*
X218600Y-151496D02*
D03*
X206000Y-155700D02*
D03*
X218000Y-164100D02*
D03*
X201200Y-186300D02*
D03*
X190200Y-194400D02*
D03*
X176600Y-171000D02*
D03*
X131300Y-161400D02*
D03*
X134700Y-132500D02*
D03*
X123200Y-160800D02*
D03*
X124000Y-108900D02*
D03*
X138500Y-90800D02*
D03*
X138400Y-86400D02*
D03*
Y-82100D02*
D03*
X131600Y-86600D02*
D03*
Y-82300D02*
D03*
Y-90700D02*
D03*
Y-95000D02*
D03*
X147780Y-145006D02*
D03*
X209300Y-84100D02*
D03*
X171400Y-122200D02*
D03*
X191100Y-112800D02*
D03*
X183000Y-142400D02*
D03*
X178500D02*
D03*
X187500D02*
D03*
X97500Y-205800D02*
D03*
X192101Y-142300D02*
D03*
X196500Y-142400D02*
D03*
X44500Y-167900D02*
D03*
X202000Y-128900D02*
D03*
Y-124400D02*
D03*
D98*
X329700Y-239800D02*
D03*
X16100D02*
D03*
X233300Y-12300D02*
D03*
X16100D02*
D03*
M02*
