G04*
G04 #@! TF.GenerationSoftware,Altium Limited,Altium Designer,22.3.1 (43)*
G04*
G04 Layer_Color=16711833*
%FSLAX25Y25*%
%MOIN*%
G70*
G04*
G04 #@! TF.SameCoordinates,91043D3C-B3B0-4B29-AF2B-9C81C1E79443*
G04*
G04*
G04 #@! TF.FilePolarity,Negative*
G04*
G01*
G75*
G04:AMPARAMS|DCode=41|XSize=35.43mil|YSize=125.98mil|CornerRadius=3.54mil|HoleSize=0mil|Usage=FLASHONLY|Rotation=270.000|XOffset=0mil|YOffset=0mil|HoleType=Round|Shape=RoundedRectangle|*
%AMROUNDEDRECTD41*
21,1,0.03543,0.11890,0,0,270.0*
21,1,0.02835,0.12598,0,0,270.0*
1,1,0.00709,-0.05945,-0.01417*
1,1,0.00709,-0.05945,0.01417*
1,1,0.00709,0.05945,0.01417*
1,1,0.00709,0.05945,-0.01417*
%
%ADD41ROUNDEDRECTD41*%
G04:AMPARAMS|DCode=42|XSize=78.74mil|YSize=157.48mil|CornerRadius=7.87mil|HoleSize=0mil|Usage=FLASHONLY|Rotation=270.000|XOffset=0mil|YOffset=0mil|HoleType=Round|Shape=RoundedRectangle|*
%AMROUNDEDRECTD42*
21,1,0.07874,0.14173,0,0,270.0*
21,1,0.06299,0.15748,0,0,270.0*
1,1,0.01575,-0.07087,-0.03150*
1,1,0.01575,-0.07087,0.03150*
1,1,0.01575,0.07087,0.03150*
1,1,0.01575,0.07087,-0.03150*
%
%ADD42ROUNDEDRECTD42*%
G04:AMPARAMS|DCode=43|XSize=35.43mil|YSize=125.98mil|CornerRadius=3.54mil|HoleSize=0mil|Usage=FLASHONLY|Rotation=180.000|XOffset=0mil|YOffset=0mil|HoleType=Round|Shape=RoundedRectangle|*
%AMROUNDEDRECTD43*
21,1,0.03543,0.11890,0,0,180.0*
21,1,0.02835,0.12598,0,0,180.0*
1,1,0.00709,-0.01417,0.05945*
1,1,0.00709,0.01417,0.05945*
1,1,0.00709,0.01417,-0.05945*
1,1,0.00709,-0.01417,-0.05945*
%
%ADD43ROUNDEDRECTD43*%
G04:AMPARAMS|DCode=44|XSize=78.74mil|YSize=157.48mil|CornerRadius=7.87mil|HoleSize=0mil|Usage=FLASHONLY|Rotation=180.000|XOffset=0mil|YOffset=0mil|HoleType=Round|Shape=RoundedRectangle|*
%AMROUNDEDRECTD44*
21,1,0.07874,0.14173,0,0,180.0*
21,1,0.06299,0.15748,0,0,180.0*
1,1,0.01575,-0.03150,0.07087*
1,1,0.01575,0.03150,0.07087*
1,1,0.01575,0.03150,-0.07087*
1,1,0.01575,-0.03150,-0.07087*
%
%ADD44ROUNDEDRECTD44*%
%ADD53R,0.11230X0.04537*%
%ADD54R,0.15561X0.07687*%
G04:AMPARAMS|DCode=55|XSize=43.37mil|YSize=126.05mil|CornerRadius=4.95mil|HoleSize=0mil|Usage=FLASHONLY|Rotation=180.000|XOffset=0mil|YOffset=0mil|HoleType=Round|Shape=RoundedRectangle|*
%AMROUNDEDRECTD55*
21,1,0.04337,0.11614,0,0,180.0*
21,1,0.03347,0.12605,0,0,180.0*
1,1,0.00991,-0.01673,0.05807*
1,1,0.00991,0.01673,0.05807*
1,1,0.00991,0.01673,-0.05807*
1,1,0.00991,-0.01673,-0.05807*
%
%ADD55ROUNDEDRECTD55*%
G04:AMPARAMS|DCode=56|XSize=78.8mil|YSize=161.48mil|CornerRadius=7.61mil|HoleSize=0mil|Usage=FLASHONLY|Rotation=180.000|XOffset=0mil|YOffset=0mil|HoleType=Round|Shape=RoundedRectangle|*
%AMROUNDEDRECTD56*
21,1,0.07880,0.14626,0,0,180.0*
21,1,0.06358,0.16148,0,0,180.0*
1,1,0.01522,-0.03179,0.07313*
1,1,0.01522,0.03179,0.07313*
1,1,0.01522,0.03179,-0.07313*
1,1,0.01522,-0.03179,-0.07313*
%
%ADD56ROUNDEDRECTD56*%
G04:AMPARAMS|DCode=57|XSize=47.31mil|YSize=43.37mil|CornerRadius=4.95mil|HoleSize=0mil|Usage=FLASHONLY|Rotation=90.000|XOffset=0mil|YOffset=0mil|HoleType=Round|Shape=RoundedRectangle|*
%AMROUNDEDRECTD57*
21,1,0.04731,0.03347,0,0,90.0*
21,1,0.03740,0.04337,0,0,90.0*
1,1,0.00991,0.01673,0.01870*
1,1,0.00991,0.01673,-0.01870*
1,1,0.00991,-0.01673,-0.01870*
1,1,0.00991,-0.01673,0.01870*
%
%ADD57ROUNDEDRECTD57*%
G04:AMPARAMS|DCode=58|XSize=43.37mil|YSize=126.05mil|CornerRadius=4.95mil|HoleSize=0mil|Usage=FLASHONLY|Rotation=270.000|XOffset=0mil|YOffset=0mil|HoleType=Round|Shape=RoundedRectangle|*
%AMROUNDEDRECTD58*
21,1,0.04337,0.11614,0,0,270.0*
21,1,0.03347,0.12605,0,0,270.0*
1,1,0.00991,-0.05807,-0.01673*
1,1,0.00991,-0.05807,0.01673*
1,1,0.00991,0.05807,0.01673*
1,1,0.00991,0.05807,-0.01673*
%
%ADD58ROUNDEDRECTD58*%
G04:AMPARAMS|DCode=59|XSize=78.8mil|YSize=161.48mil|CornerRadius=7.61mil|HoleSize=0mil|Usage=FLASHONLY|Rotation=270.000|XOffset=0mil|YOffset=0mil|HoleType=Round|Shape=RoundedRectangle|*
%AMROUNDEDRECTD59*
21,1,0.07880,0.14626,0,0,270.0*
21,1,0.06358,0.16148,0,0,270.0*
1,1,0.01522,-0.07313,-0.03179*
1,1,0.01522,-0.07313,0.03179*
1,1,0.01522,0.07313,0.03179*
1,1,0.01522,0.07313,-0.03179*
%
%ADD59ROUNDEDRECTD59*%
%ADD60R,0.03550X0.11817*%
%ADD61R,0.07487X0.15361*%
G04:AMPARAMS|DCode=62|XSize=47.31mil|YSize=43.37mil|CornerRadius=5.94mil|HoleSize=0mil|Usage=FLASHONLY|Rotation=270.000|XOffset=0mil|YOffset=0mil|HoleType=Round|Shape=RoundedRectangle|*
%AMROUNDEDRECTD62*
21,1,0.04731,0.03150,0,0,270.0*
21,1,0.03543,0.04337,0,0,270.0*
1,1,0.01187,-0.01575,-0.01772*
1,1,0.01187,-0.01575,0.01772*
1,1,0.01187,0.01575,0.01772*
1,1,0.01187,0.01575,-0.01772*
%
%ADD62ROUNDEDRECTD62*%
G04:AMPARAMS|DCode=63|XSize=59.12mil|YSize=39.43mil|CornerRadius=4.66mil|HoleSize=0mil|Usage=FLASHONLY|Rotation=180.000|XOffset=0mil|YOffset=0mil|HoleType=Round|Shape=RoundedRectangle|*
%AMROUNDEDRECTD63*
21,1,0.05912,0.03012,0,0,180.0*
21,1,0.04980,0.03943,0,0,180.0*
1,1,0.00932,-0.02490,0.01506*
1,1,0.00932,0.02490,0.01506*
1,1,0.00932,0.02490,-0.01506*
1,1,0.00932,-0.02490,-0.01506*
%
%ADD63ROUNDEDRECTD63*%
%ADD64R,0.03550X0.03550*%
G04:AMPARAMS|DCode=65|XSize=51.24mil|YSize=59.12mil|CornerRadius=6.72mil|HoleSize=0mil|Usage=FLASHONLY|Rotation=270.000|XOffset=0mil|YOffset=0mil|HoleType=Round|Shape=RoundedRectangle|*
%AMROUNDEDRECTD65*
21,1,0.05124,0.04567,0,0,270.0*
21,1,0.03780,0.05912,0,0,270.0*
1,1,0.01345,-0.02284,-0.01890*
1,1,0.01345,-0.02284,0.01890*
1,1,0.01345,0.02284,0.01890*
1,1,0.01345,0.02284,-0.01890*
%
%ADD65ROUNDEDRECTD65*%
G04:AMPARAMS|DCode=66|XSize=47.31mil|YSize=43.37mil|CornerRadius=5.94mil|HoleSize=0mil|Usage=FLASHONLY|Rotation=0.000|XOffset=0mil|YOffset=0mil|HoleType=Round|Shape=RoundedRectangle|*
%AMROUNDEDRECTD66*
21,1,0.04731,0.03150,0,0,0.0*
21,1,0.03543,0.04337,0,0,0.0*
1,1,0.01187,0.01772,-0.01575*
1,1,0.01187,-0.01772,-0.01575*
1,1,0.01187,-0.01772,0.01575*
1,1,0.01187,0.01772,0.01575*
%
%ADD66ROUNDEDRECTD66*%
G04:AMPARAMS|DCode=67|XSize=47.31mil|YSize=43.37mil|CornerRadius=4.95mil|HoleSize=0mil|Usage=FLASHONLY|Rotation=180.000|XOffset=0mil|YOffset=0mil|HoleType=Round|Shape=RoundedRectangle|*
%AMROUNDEDRECTD67*
21,1,0.04731,0.03347,0,0,180.0*
21,1,0.03740,0.04337,0,0,180.0*
1,1,0.00991,-0.01870,0.01673*
1,1,0.00991,0.01870,0.01673*
1,1,0.00991,0.01870,-0.01673*
1,1,0.00991,-0.01870,-0.01673*
%
%ADD67ROUNDEDRECTD67*%
%ADD68R,0.15361X0.07487*%
%ADD69R,0.11817X0.03550*%
%ADD70R,0.03937X0.04724*%
%ADD71O,0.01581X0.06699*%
%ADD72O,0.06699X0.01581*%
G04:AMPARAMS|DCode=73|XSize=72.9mil|YSize=18.96mil|CornerRadius=3.12mil|HoleSize=0mil|Usage=FLASHONLY|Rotation=90.000|XOffset=0mil|YOffset=0mil|HoleType=Round|Shape=RoundedRectangle|*
%AMROUNDEDRECTD73*
21,1,0.07290,0.01272,0,0,90.0*
21,1,0.06665,0.01896,0,0,90.0*
1,1,0.00624,0.00636,0.03333*
1,1,0.00624,0.00636,-0.03333*
1,1,0.00624,-0.00636,-0.03333*
1,1,0.00624,-0.00636,0.03333*
%
%ADD73ROUNDEDRECTD73*%
G04:AMPARAMS|DCode=74|XSize=94.55mil|YSize=102.43mil|CornerRadius=8.79mil|HoleSize=0mil|Usage=FLASHONLY|Rotation=0.000|XOffset=0mil|YOffset=0mil|HoleType=Round|Shape=RoundedRectangle|*
%AMROUNDEDRECTD74*
21,1,0.09455,0.08484,0,0,0.0*
21,1,0.07697,0.10243,0,0,0.0*
1,1,0.01758,0.03848,-0.04242*
1,1,0.01758,-0.03848,-0.04242*
1,1,0.01758,-0.03848,0.04242*
1,1,0.01758,0.03848,0.04242*
%
%ADD74ROUNDEDRECTD74*%
%ADD75R,0.11400X0.03300*%
G04:AMPARAMS|DCode=76|XSize=37.47mil|YSize=46.91mil|CornerRadius=4.51mil|HoleSize=0mil|Usage=FLASHONLY|Rotation=270.000|XOffset=0mil|YOffset=0mil|HoleType=Round|Shape=RoundedRectangle|*
%AMROUNDEDRECTD76*
21,1,0.03747,0.03789,0,0,270.0*
21,1,0.02845,0.04691,0,0,270.0*
1,1,0.00902,-0.01895,-0.01422*
1,1,0.00902,-0.01895,0.01422*
1,1,0.00902,0.01895,0.01422*
1,1,0.00902,0.01895,-0.01422*
%
%ADD76ROUNDEDRECTD76*%
G04:AMPARAMS|DCode=77|XSize=27.62mil|YSize=57.15mil|CornerRadius=3.77mil|HoleSize=0mil|Usage=FLASHONLY|Rotation=180.000|XOffset=0mil|YOffset=0mil|HoleType=Round|Shape=RoundedRectangle|*
%AMROUNDEDRECTD77*
21,1,0.02762,0.04961,0,0,180.0*
21,1,0.02008,0.05715,0,0,180.0*
1,1,0.00754,-0.01004,0.02480*
1,1,0.00754,0.01004,0.02480*
1,1,0.00754,0.01004,-0.02480*
1,1,0.00754,-0.01004,-0.02480*
%
%ADD77ROUNDEDRECTD77*%
G04:AMPARAMS|DCode=78|XSize=53.21mil|YSize=43.37mil|CornerRadius=4.95mil|HoleSize=0mil|Usage=FLASHONLY|Rotation=90.000|XOffset=0mil|YOffset=0mil|HoleType=Round|Shape=RoundedRectangle|*
%AMROUNDEDRECTD78*
21,1,0.05321,0.03347,0,0,90.0*
21,1,0.04331,0.04337,0,0,90.0*
1,1,0.00991,0.01673,0.02165*
1,1,0.00991,0.01673,-0.02165*
1,1,0.00991,-0.01673,-0.02165*
1,1,0.00991,-0.01673,0.02165*
%
%ADD78ROUNDEDRECTD78*%
G04:AMPARAMS|DCode=79|XSize=43.37mil|YSize=82.74mil|CornerRadius=4.95mil|HoleSize=0mil|Usage=FLASHONLY|Rotation=180.000|XOffset=0mil|YOffset=0mil|HoleType=Round|Shape=RoundedRectangle|*
%AMROUNDEDRECTD79*
21,1,0.04337,0.07284,0,0,180.0*
21,1,0.03347,0.08274,0,0,180.0*
1,1,0.00991,-0.01673,0.03642*
1,1,0.00991,0.01673,0.03642*
1,1,0.00991,0.01673,-0.03642*
1,1,0.00991,-0.01673,-0.03642*
%
%ADD79ROUNDEDRECTD79*%
%ADD80R,0.01778X0.05912*%
G04:AMPARAMS|DCode=81|XSize=55.18mil|YSize=55.18mil|CornerRadius=7.12mil|HoleSize=0mil|Usage=FLASHONLY|Rotation=90.000|XOffset=0mil|YOffset=0mil|HoleType=Round|Shape=RoundedRectangle|*
%AMROUNDEDRECTD81*
21,1,0.05518,0.04095,0,0,90.0*
21,1,0.04095,0.05518,0,0,90.0*
1,1,0.01424,0.02047,0.02047*
1,1,0.01424,0.02047,-0.02047*
1,1,0.01424,-0.02047,-0.02047*
1,1,0.01424,-0.02047,0.02047*
%
%ADD81ROUNDEDRECTD81*%
G04:AMPARAMS|DCode=82|XSize=28.61mil|YSize=97.5mil|CornerRadius=4.46mil|HoleSize=0mil|Usage=FLASHONLY|Rotation=90.000|XOffset=0mil|YOffset=0mil|HoleType=Round|Shape=RoundedRectangle|*
%AMROUNDEDRECTD82*
21,1,0.02861,0.08858,0,0,90.0*
21,1,0.01968,0.09750,0,0,90.0*
1,1,0.00892,0.04429,0.00984*
1,1,0.00892,0.04429,-0.00984*
1,1,0.00892,-0.04429,-0.00984*
1,1,0.00892,-0.04429,0.00984*
%
%ADD82ROUNDEDRECTD82*%
%ADD83C,0.20079*%
%ADD84R,0.06306X0.06306*%
%ADD85C,0.06306*%
%ADD86C,0.09455*%
%ADD87C,0.02800*%
D41*
X34134Y-83095D02*
D03*
Y-89000D02*
D03*
Y-94906D02*
D03*
X34734Y-40394D02*
D03*
Y-46300D02*
D03*
Y-52205D02*
D03*
D42*
X15630Y-105142D02*
D03*
Y-72858D02*
D03*
X16230Y-62442D02*
D03*
Y-30158D02*
D03*
D43*
X88906Y-30176D02*
D03*
X83000D02*
D03*
X77095D02*
D03*
D44*
X66858Y-11672D02*
D03*
X99142D02*
D03*
D53*
X33200Y-125352D02*
D03*
Y-133226D02*
D03*
Y-141100D02*
D03*
Y-148974D02*
D03*
Y-156848D02*
D03*
Y-164722D02*
D03*
Y-172596D02*
D03*
Y-180470D02*
D03*
Y-188344D02*
D03*
Y-196218D02*
D03*
Y-204092D02*
D03*
Y-211966D02*
D03*
D54*
X15680Y-116100D02*
D03*
Y-221218D02*
D03*
D55*
X152784Y-219300D02*
D03*
X164594D02*
D03*
X182311D02*
D03*
X176406D02*
D03*
X158689D02*
D03*
X170500D02*
D03*
D56*
X142252Y-238276D02*
D03*
X192646D02*
D03*
D57*
X56399Y-89400D02*
D03*
X50100D02*
D03*
X272901Y-50600D02*
D03*
X279200D02*
D03*
X291801Y-46400D02*
D03*
X298100D02*
D03*
X309900Y-47300D02*
D03*
X316199D02*
D03*
X197600Y-68100D02*
D03*
X203899D02*
D03*
X287401Y-85200D02*
D03*
X293700D02*
D03*
X116299Y-160900D02*
D03*
X110000D02*
D03*
X110701Y-108900D02*
D03*
X117000D02*
D03*
X65801Y-123300D02*
D03*
X72100D02*
D03*
X76201Y-80900D02*
D03*
X82500D02*
D03*
X214201Y-208900D02*
D03*
X220500D02*
D03*
X162899Y-184800D02*
D03*
X156600D02*
D03*
X176508Y-68273D02*
D03*
X170209D02*
D03*
D58*
X309824Y-199969D02*
D03*
Y-188157D02*
D03*
Y-170441D02*
D03*
Y-176347D02*
D03*
Y-194063D02*
D03*
Y-182252D02*
D03*
D59*
X328800Y-210500D02*
D03*
Y-160106D02*
D03*
D60*
X321217Y-26400D02*
D03*
X315311D02*
D03*
X309405D02*
D03*
X303500D02*
D03*
X297594D02*
D03*
X291689D02*
D03*
X285784D02*
D03*
X279878D02*
D03*
X273972D02*
D03*
X239008Y-222900D02*
D03*
X244913D02*
D03*
X250819D02*
D03*
X256724D02*
D03*
X262630D02*
D03*
X268535D02*
D03*
X274441D02*
D03*
X280346D02*
D03*
X286252D02*
D03*
D61*
X263736Y-7896D02*
D03*
X331453D02*
D03*
X296488Y-241404D02*
D03*
X228772D02*
D03*
D62*
X279000Y-41100D02*
D03*
X272701D02*
D03*
X291837Y-38268D02*
D03*
X298136D02*
D03*
X316100Y-39800D02*
D03*
X309801D02*
D03*
X140896Y-198800D02*
D03*
X134597D02*
D03*
X141050Y-193400D02*
D03*
X134750D02*
D03*
X127500Y-71800D02*
D03*
X121201D02*
D03*
X140850Y-101700D02*
D03*
X147150D02*
D03*
X50212Y-96030D02*
D03*
X56511D02*
D03*
X59450Y-51900D02*
D03*
X53150D02*
D03*
X119450Y-97600D02*
D03*
X125750D02*
D03*
X170201Y-164900D02*
D03*
X176500D02*
D03*
X170201Y-158400D02*
D03*
X176500D02*
D03*
X201000Y-161400D02*
D03*
X207299D02*
D03*
X116000Y-143900D02*
D03*
X109701D02*
D03*
X195500Y-161400D02*
D03*
X189201D02*
D03*
X117000Y-126900D02*
D03*
X110701D02*
D03*
X140001Y-121600D02*
D03*
X146300D02*
D03*
X214201Y-170400D02*
D03*
X220500D02*
D03*
X208000Y-208900D02*
D03*
X201701D02*
D03*
X131000Y-139900D02*
D03*
X124701D02*
D03*
X238700Y-209300D02*
D03*
X244999D02*
D03*
X256201Y-206900D02*
D03*
X262500D02*
D03*
X274000D02*
D03*
X280299D02*
D03*
D63*
X218900Y-145996D02*
D03*
Y-139500D02*
D03*
X290200Y-175300D02*
D03*
Y-168804D02*
D03*
D64*
X54900Y-24771D02*
D03*
Y-33629D02*
D03*
D65*
X289682Y-196800D02*
D03*
X299918Y-192469D02*
D03*
Y-201131D02*
D03*
D66*
X153200Y-135999D02*
D03*
Y-129700D02*
D03*
X301500Y-79600D02*
D03*
Y-73301D02*
D03*
X302100Y-96899D02*
D03*
Y-90600D02*
D03*
X76700Y-44400D02*
D03*
Y-50699D02*
D03*
X146700Y-129700D02*
D03*
Y-135999D02*
D03*
X300700Y-121599D02*
D03*
Y-115300D02*
D03*
X165600Y-94001D02*
D03*
Y-100300D02*
D03*
X218700Y-115099D02*
D03*
Y-108800D02*
D03*
X157700Y-103600D02*
D03*
Y-109899D02*
D03*
X256000Y-94400D02*
D03*
Y-88101D02*
D03*
X69500Y-102699D02*
D03*
Y-96400D02*
D03*
X50000Y-188900D02*
D03*
Y-182601D02*
D03*
Y-201400D02*
D03*
Y-207699D02*
D03*
X109000Y-200400D02*
D03*
Y-206699D02*
D03*
X85500Y-200400D02*
D03*
Y-206699D02*
D03*
D67*
X184200Y-53500D02*
D03*
Y-59799D02*
D03*
X213000Y-53101D02*
D03*
Y-59400D02*
D03*
X290500Y-122699D02*
D03*
Y-116400D02*
D03*
Y-105199D02*
D03*
Y-98900D02*
D03*
X176000Y-188829D02*
D03*
Y-195128D02*
D03*
X183300Y-96900D02*
D03*
Y-90601D02*
D03*
X272000Y-67900D02*
D03*
Y-61601D02*
D03*
X278500Y-67900D02*
D03*
Y-61601D02*
D03*
X262500Y-126199D02*
D03*
Y-119900D02*
D03*
X269500Y-126199D02*
D03*
Y-119900D02*
D03*
X265000Y-61601D02*
D03*
Y-67900D02*
D03*
D68*
X332504Y-136853D02*
D03*
Y-69136D02*
D03*
D69*
X314000Y-79373D02*
D03*
Y-85278D02*
D03*
Y-91184D02*
D03*
Y-97089D02*
D03*
Y-102995D02*
D03*
Y-108900D02*
D03*
Y-114805D02*
D03*
Y-120711D02*
D03*
Y-126617D02*
D03*
D70*
X198441Y-59699D02*
D03*
X203559D02*
D03*
X201000Y-53400D02*
D03*
X173441Y-53101D02*
D03*
X176000Y-59400D02*
D03*
X170882D02*
D03*
D71*
X172571Y-105707D02*
D03*
X174539D02*
D03*
X176508D02*
D03*
X178476D02*
D03*
X180445D02*
D03*
X182413D02*
D03*
X184382D02*
D03*
X186350D02*
D03*
X188319D02*
D03*
X190287D02*
D03*
X192256D02*
D03*
X194224D02*
D03*
X196193D02*
D03*
X198161D02*
D03*
X200130D02*
D03*
X202098D02*
D03*
Y-151376D02*
D03*
X200130D02*
D03*
X198161D02*
D03*
X196193D02*
D03*
X194224D02*
D03*
X192256D02*
D03*
X190287D02*
D03*
X188319D02*
D03*
X186350D02*
D03*
X184382D02*
D03*
X182413D02*
D03*
X180445D02*
D03*
X178476D02*
D03*
X176508D02*
D03*
X174539D02*
D03*
X172571D02*
D03*
D72*
X210169Y-113778D02*
D03*
Y-115746D02*
D03*
Y-117715D02*
D03*
Y-119684D02*
D03*
Y-121652D02*
D03*
Y-123620D02*
D03*
Y-125589D02*
D03*
Y-127558D02*
D03*
Y-129526D02*
D03*
Y-131494D02*
D03*
Y-133463D02*
D03*
Y-135432D02*
D03*
Y-137400D02*
D03*
Y-139368D02*
D03*
Y-141337D02*
D03*
Y-143306D02*
D03*
X164500D02*
D03*
Y-141337D02*
D03*
Y-139368D02*
D03*
Y-137400D02*
D03*
Y-135432D02*
D03*
Y-133463D02*
D03*
Y-131494D02*
D03*
Y-129526D02*
D03*
Y-127558D02*
D03*
Y-125589D02*
D03*
Y-123620D02*
D03*
Y-121652D02*
D03*
Y-119684D02*
D03*
Y-117715D02*
D03*
Y-115746D02*
D03*
Y-113778D02*
D03*
D73*
X128487Y-176150D02*
D03*
X131046D02*
D03*
X133605D02*
D03*
X136164D02*
D03*
X138723D02*
D03*
X141282D02*
D03*
X143841D02*
D03*
X146400D02*
D03*
X148959D02*
D03*
X151518D02*
D03*
X151518Y-153950D02*
D03*
X148959D02*
D03*
X146400D02*
D03*
X143841D02*
D03*
X141282D02*
D03*
X138723D02*
D03*
X136164D02*
D03*
X133605D02*
D03*
X131046D02*
D03*
X128487D02*
D03*
X197984Y-201000D02*
D03*
X200543D02*
D03*
X203102D02*
D03*
X205661D02*
D03*
X208221D02*
D03*
X210780D02*
D03*
X213339D02*
D03*
X215898D02*
D03*
X218457D02*
D03*
X221016D02*
D03*
X221016Y-178800D02*
D03*
X218457D02*
D03*
X215898D02*
D03*
X213339D02*
D03*
X210780D02*
D03*
X208221D02*
D03*
X205661D02*
D03*
X203102D02*
D03*
X200543D02*
D03*
X197984D02*
D03*
D74*
X138646Y-44900D02*
D03*
X119354D02*
D03*
D75*
X220500Y-81900D02*
D03*
X236500D02*
D03*
X220500Y-86900D02*
D03*
X236500D02*
D03*
X220500Y-91900D02*
D03*
X236500D02*
D03*
X220500Y-96900D02*
D03*
X236500D02*
D03*
X220500Y-101900D02*
D03*
X236500D02*
D03*
D76*
X119300Y-58643D02*
D03*
Y-66557D02*
D03*
D77*
X125980Y-90231D02*
D03*
X118500D02*
D03*
Y-80900D02*
D03*
X122240D02*
D03*
X125980D02*
D03*
D78*
X140937Y-108400D02*
D03*
X146055D02*
D03*
Y-115093D02*
D03*
X140937D02*
D03*
D79*
X103307Y-152400D02*
D03*
X116693D02*
D03*
X104307Y-118400D02*
D03*
X117693D02*
D03*
D80*
X279957Y-102530D02*
D03*
X262043D02*
D03*
X264602Y-81270D02*
D03*
Y-102530D02*
D03*
X267161D02*
D03*
X269721Y-81270D02*
D03*
X267161D02*
D03*
X274839D02*
D03*
X277398D02*
D03*
X272280Y-102530D02*
D03*
X274839D02*
D03*
X269721D02*
D03*
X277398D02*
D03*
X279957Y-81270D02*
D03*
X272280D02*
D03*
X262043D02*
D03*
X93913Y-110400D02*
D03*
X76000D02*
D03*
X78559Y-89140D02*
D03*
Y-110400D02*
D03*
X81118D02*
D03*
X83677Y-89140D02*
D03*
X81118D02*
D03*
X88795D02*
D03*
X91354D02*
D03*
X86236Y-110400D02*
D03*
X88795D02*
D03*
X83677D02*
D03*
X91354D02*
D03*
X93913Y-89140D02*
D03*
X86236D02*
D03*
X76000D02*
D03*
D81*
X183000Y-197168D02*
D03*
Y-188900D02*
D03*
D82*
X237551Y-135900D02*
D03*
Y-140900D02*
D03*
Y-145900D02*
D03*
Y-150900D02*
D03*
X256449Y-135900D02*
D03*
Y-140900D02*
D03*
Y-145900D02*
D03*
Y-150900D02*
D03*
D83*
X329700Y-239800D02*
D03*
X16100D02*
D03*
X233300Y-12300D02*
D03*
X16100D02*
D03*
D84*
X278400Y-162400D02*
D03*
D85*
Y-172400D02*
D03*
D86*
X139000Y-18900D02*
D03*
X119315D02*
D03*
D87*
X128500Y-195000D02*
D03*
X152600Y-206700D02*
D03*
X337000Y-26000D02*
D03*
Y-46000D02*
D03*
Y-86000D02*
D03*
Y-106000D02*
D03*
Y-126000D02*
D03*
Y-146000D02*
D03*
Y-166000D02*
D03*
Y-186000D02*
D03*
Y-226000D02*
D03*
X327000Y-26000D02*
D03*
X332000Y-36000D02*
D03*
X327000Y-46000D02*
D03*
X332000Y-56000D02*
D03*
Y-76000D02*
D03*
X327000Y-86000D02*
D03*
X332000Y-96000D02*
D03*
X327000Y-106000D02*
D03*
X332000Y-116000D02*
D03*
X327000Y-126000D02*
D03*
Y-146000D02*
D03*
X332000Y-176000D02*
D03*
X327000Y-186000D02*
D03*
X332000Y-196000D02*
D03*
X327000Y-226000D02*
D03*
X317000Y-6000D02*
D03*
X322000Y-16000D02*
D03*
Y-56000D02*
D03*
X317000Y-66000D02*
D03*
X322000Y-136000D02*
D03*
X317000Y-146000D02*
D03*
Y-166000D02*
D03*
X322000Y-176000D02*
D03*
X317000Y-206000D02*
D03*
Y-226000D02*
D03*
Y-246000D02*
D03*
X307000Y-6000D02*
D03*
X312000Y-56000D02*
D03*
X307000Y-66000D02*
D03*
X312000Y-136000D02*
D03*
X307000Y-146000D02*
D03*
X312000Y-156000D02*
D03*
X307000Y-166000D02*
D03*
Y-206000D02*
D03*
X312000Y-216000D02*
D03*
X307000Y-226000D02*
D03*
X312000Y-236000D02*
D03*
X307000Y-246000D02*
D03*
X297000Y-6000D02*
D03*
X302000Y-16000D02*
D03*
Y-56000D02*
D03*
Y-136000D02*
D03*
X297000Y-146000D02*
D03*
X302000Y-156000D02*
D03*
X297000Y-166000D02*
D03*
Y-186000D02*
D03*
Y-206000D02*
D03*
X302000Y-216000D02*
D03*
X297000Y-226000D02*
D03*
X287000Y-6000D02*
D03*
Y-46000D02*
D03*
X292000Y-56000D02*
D03*
Y-136000D02*
D03*
X287000Y-146000D02*
D03*
X292000Y-156000D02*
D03*
Y-216000D02*
D03*
X287000Y-246000D02*
D03*
X277000Y-6000D02*
D03*
X282000Y-16000D02*
D03*
X277000Y-126000D02*
D03*
X282000Y-136000D02*
D03*
X277000Y-146000D02*
D03*
X282000Y-156000D02*
D03*
X277000Y-186000D02*
D03*
Y-246000D02*
D03*
X267000Y-26000D02*
D03*
Y-46000D02*
D03*
X272000Y-56000D02*
D03*
Y-96000D02*
D03*
Y-136000D02*
D03*
Y-156000D02*
D03*
Y-176000D02*
D03*
X267000Y-186000D02*
D03*
Y-206000D02*
D03*
X272000Y-236000D02*
D03*
X267000Y-246000D02*
D03*
X257000Y-6000D02*
D03*
Y-26000D02*
D03*
X262000Y-36000D02*
D03*
X257000Y-46000D02*
D03*
X262000Y-56000D02*
D03*
Y-96000D02*
D03*
X257000Y-106000D02*
D03*
X262000Y-156000D02*
D03*
X257000Y-166000D02*
D03*
X262000Y-176000D02*
D03*
X257000Y-186000D02*
D03*
Y-246000D02*
D03*
X247000Y-6000D02*
D03*
X252000Y-16000D02*
D03*
X247000Y-26000D02*
D03*
X252000Y-36000D02*
D03*
X247000Y-46000D02*
D03*
X252000Y-56000D02*
D03*
X247000Y-66000D02*
D03*
Y-86000D02*
D03*
Y-106000D02*
D03*
X252000Y-116000D02*
D03*
X247000Y-126000D02*
D03*
Y-146000D02*
D03*
X252000Y-156000D02*
D03*
X247000Y-166000D02*
D03*
X252000Y-176000D02*
D03*
X247000Y-186000D02*
D03*
Y-246000D02*
D03*
X237000Y-26000D02*
D03*
X242000Y-36000D02*
D03*
X237000Y-46000D02*
D03*
X242000Y-56000D02*
D03*
X237000Y-66000D02*
D03*
Y-106000D02*
D03*
X242000Y-116000D02*
D03*
X237000Y-126000D02*
D03*
Y-166000D02*
D03*
X242000Y-176000D02*
D03*
X237000Y-186000D02*
D03*
Y-246000D02*
D03*
X227000Y-26000D02*
D03*
X232000Y-36000D02*
D03*
X227000Y-46000D02*
D03*
X232000Y-56000D02*
D03*
X227000Y-66000D02*
D03*
Y-106000D02*
D03*
X232000Y-116000D02*
D03*
X227000Y-126000D02*
D03*
Y-166000D02*
D03*
X232000Y-176000D02*
D03*
X227000Y-186000D02*
D03*
Y-206000D02*
D03*
Y-226000D02*
D03*
X217000Y-6000D02*
D03*
Y-26000D02*
D03*
X222000Y-36000D02*
D03*
X217000Y-46000D02*
D03*
X222000Y-56000D02*
D03*
X217000Y-66000D02*
D03*
X222000Y-156000D02*
D03*
X217000Y-186000D02*
D03*
Y-226000D02*
D03*
X222000Y-236000D02*
D03*
X217000Y-246000D02*
D03*
X207000Y-6000D02*
D03*
X212000Y-16000D02*
D03*
X207000Y-26000D02*
D03*
X212000Y-36000D02*
D03*
X207000Y-186000D02*
D03*
X212000Y-236000D02*
D03*
X207000Y-246000D02*
D03*
X197000Y-6000D02*
D03*
X202000Y-16000D02*
D03*
X197000Y-26000D02*
D03*
X202000Y-116000D02*
D03*
Y-136000D02*
D03*
X197000Y-226000D02*
D03*
X202000Y-236000D02*
D03*
X187000Y-6000D02*
D03*
X192000Y-16000D02*
D03*
X187000Y-26000D02*
D03*
X192000Y-56000D02*
D03*
Y-76000D02*
D03*
X187000Y-86000D02*
D03*
Y-126000D02*
D03*
X192000Y-176000D02*
D03*
X187000Y-206000D02*
D03*
X192000Y-216000D02*
D03*
X187000Y-226000D02*
D03*
X177000Y-6000D02*
D03*
X182000Y-16000D02*
D03*
X177000Y-26000D02*
D03*
X182000Y-76000D02*
D03*
Y-176000D02*
D03*
Y-236000D02*
D03*
X177000Y-246000D02*
D03*
X167000Y-6000D02*
D03*
X172000Y-16000D02*
D03*
X167000Y-26000D02*
D03*
Y-86000D02*
D03*
Y-106000D02*
D03*
X172000Y-176000D02*
D03*
Y-236000D02*
D03*
X167000Y-246000D02*
D03*
X157000Y-6000D02*
D03*
X162000Y-16000D02*
D03*
X157000Y-26000D02*
D03*
X162000Y-56000D02*
D03*
X157000Y-66000D02*
D03*
X162000Y-76000D02*
D03*
X157000Y-166000D02*
D03*
X162000Y-236000D02*
D03*
X157000Y-246000D02*
D03*
X147000Y-6000D02*
D03*
X152000Y-16000D02*
D03*
X147000Y-26000D02*
D03*
X152000Y-56000D02*
D03*
X147000Y-66000D02*
D03*
X152000Y-76000D02*
D03*
X147000Y-86000D02*
D03*
Y-226000D02*
D03*
X152000Y-236000D02*
D03*
X137000Y-6000D02*
D03*
Y-26000D02*
D03*
X142000Y-56000D02*
D03*
Y-76000D02*
D03*
Y-216000D02*
D03*
X137000Y-226000D02*
D03*
X127000Y-6000D02*
D03*
X132000Y-16000D02*
D03*
X127000Y-26000D02*
D03*
Y-46000D02*
D03*
X132000Y-56000D02*
D03*
Y-116000D02*
D03*
Y-216000D02*
D03*
X127000Y-226000D02*
D03*
X132000Y-236000D02*
D03*
X127000Y-246000D02*
D03*
X117000Y-6000D02*
D03*
X122000Y-116000D02*
D03*
Y-156000D02*
D03*
Y-216000D02*
D03*
X117000Y-226000D02*
D03*
X107000Y-6000D02*
D03*
X112000Y-16000D02*
D03*
X107000Y-26000D02*
D03*
Y-46000D02*
D03*
X112000Y-56000D02*
D03*
X107000Y-86000D02*
D03*
X112000Y-116000D02*
D03*
Y-136000D02*
D03*
Y-156000D02*
D03*
X107000Y-186000D02*
D03*
X112000Y-236000D02*
D03*
X107000Y-246000D02*
D03*
X97000Y-26000D02*
D03*
Y-46000D02*
D03*
X102000Y-56000D02*
D03*
X97000Y-66000D02*
D03*
Y-86000D02*
D03*
X102000Y-136000D02*
D03*
X97000Y-186000D02*
D03*
X102000Y-236000D02*
D03*
X97000Y-246000D02*
D03*
X87000Y-6000D02*
D03*
X92000Y-16000D02*
D03*
X87000Y-46000D02*
D03*
X92000Y-56000D02*
D03*
X87000Y-66000D02*
D03*
X92000Y-176000D02*
D03*
X87000Y-186000D02*
D03*
X92000Y-196000D02*
D03*
Y-236000D02*
D03*
X87000Y-246000D02*
D03*
X77000Y-6000D02*
D03*
X82000Y-16000D02*
D03*
X77000Y-66000D02*
D03*
X82000Y-156000D02*
D03*
Y-176000D02*
D03*
Y-196000D02*
D03*
Y-216000D02*
D03*
Y-236000D02*
D03*
X77000Y-246000D02*
D03*
X67000Y-26000D02*
D03*
Y-46000D02*
D03*
X72000Y-56000D02*
D03*
X67000Y-66000D02*
D03*
Y-86000D02*
D03*
X72000Y-116000D02*
D03*
X67000Y-146000D02*
D03*
X72000Y-156000D02*
D03*
X67000Y-186000D02*
D03*
X72000Y-196000D02*
D03*
Y-236000D02*
D03*
X67000Y-246000D02*
D03*
X57000Y-6000D02*
D03*
Y-46000D02*
D03*
Y-66000D02*
D03*
X62000Y-76000D02*
D03*
Y-96000D02*
D03*
X57000Y-106000D02*
D03*
X62000Y-116000D02*
D03*
X57000Y-146000D02*
D03*
X62000Y-156000D02*
D03*
Y-176000D02*
D03*
Y-196000D02*
D03*
Y-236000D02*
D03*
X57000Y-246000D02*
D03*
X47000Y-6000D02*
D03*
X52000Y-16000D02*
D03*
X47000Y-26000D02*
D03*
Y-46000D02*
D03*
Y-66000D02*
D03*
X52000Y-76000D02*
D03*
Y-116000D02*
D03*
X47000Y-126000D02*
D03*
X52000Y-156000D02*
D03*
Y-176000D02*
D03*
X47000Y-226000D02*
D03*
X52000Y-236000D02*
D03*
X37000Y-6000D02*
D03*
X42000Y-16000D02*
D03*
X37000Y-26000D02*
D03*
X42000Y-36000D02*
D03*
Y-56000D02*
D03*
X37000Y-66000D02*
D03*
X42000Y-76000D02*
D03*
X37000Y-106000D02*
D03*
X42000Y-116000D02*
D03*
Y-156000D02*
D03*
Y-176000D02*
D03*
Y-216000D02*
D03*
X37000Y-226000D02*
D03*
Y-246000D02*
D03*
X32000Y-16000D02*
D03*
X27000Y-26000D02*
D03*
X32000Y-36000D02*
D03*
X27000Y-66000D02*
D03*
X32000Y-76000D02*
D03*
X27000Y-106000D02*
D03*
X32000Y-116000D02*
D03*
X27000Y-226000D02*
D03*
X32000Y-236000D02*
D03*
X17000Y-46000D02*
D03*
X22000Y-56000D02*
D03*
X17000Y-86000D02*
D03*
X22000Y-96000D02*
D03*
X17000Y-126000D02*
D03*
X22000Y-136000D02*
D03*
X17000Y-146000D02*
D03*
X22000Y-156000D02*
D03*
X17000Y-166000D02*
D03*
X22000Y-176000D02*
D03*
X17000Y-186000D02*
D03*
X22000Y-196000D02*
D03*
X17000Y-206000D02*
D03*
X7000Y-46000D02*
D03*
X12000Y-56000D02*
D03*
X7000Y-86000D02*
D03*
X12000Y-96000D02*
D03*
X7000Y-126000D02*
D03*
X12000Y-136000D02*
D03*
X7000Y-146000D02*
D03*
X12000Y-156000D02*
D03*
X7000Y-166000D02*
D03*
X12000Y-176000D02*
D03*
X7000Y-186000D02*
D03*
X12000Y-196000D02*
D03*
X7000Y-206000D02*
D03*
X150700Y-107800D02*
D03*
M02*
