G04*
G04 #@! TF.GenerationSoftware,Altium Limited,Altium Designer,22.3.1 (43)*
G04*
G04 Layer_Physical_Order=2*
G04 Layer_Color=36540*
%FSLAX25Y25*%
%MOIN*%
G70*
G04*
G04 #@! TF.SameCoordinates,91043D3C-B3B0-4B29-AF2B-9C81C1E79443*
G04*
G04*
G04 #@! TF.FilePolarity,Positive*
G04*
G01*
G75*
%ADD96C,0.09055*%
%ADD97C,0.02400*%
G36*
X336407Y1860D02*
X337928Y1286D01*
X339307Y426D01*
X340492Y-686D01*
X341437Y-2008D01*
X342107Y-3489D01*
X342475Y-5072D01*
X342501Y-5884D01*
X342501Y-6384D01*
X342501Y-243392D01*
X342502Y-243424D01*
X342503Y-243445D01*
X342501Y-243905D01*
X342501Y-243908D01*
X342501Y-243908D01*
X342501Y-243908D01*
X342501Y-244400D01*
X342501Y-244429D01*
X342495Y-244488D01*
X342481Y-244545D01*
X342461Y-244600D01*
X342448Y-244626D01*
X342361Y-245356D01*
X341932Y-246761D01*
X341262Y-248069D01*
X340372Y-249237D01*
X339289Y-250230D01*
X338048Y-251017D01*
X336687Y-251572D01*
X335250Y-251878D01*
X334990Y-251886D01*
X334497Y-251902D01*
X334497Y-251902D01*
X10007Y-251902D01*
X9195Y-251927D01*
X7592Y-251660D01*
X6072Y-251085D01*
X4693Y-250226D01*
X3508Y-249114D01*
X2563Y-247792D01*
X1893Y-246311D01*
X1525Y-244728D01*
X1499Y-243916D01*
X1499Y-243916D01*
X1498Y-243416D01*
X1498Y-6408D01*
X1473Y-5596D01*
X1740Y-3993D01*
X2314Y-2472D01*
X3174Y-1093D01*
X4286Y92D01*
X5608Y1037D01*
X7089Y1707D01*
X8672Y2075D01*
X9486Y2101D01*
X9490Y2101D01*
X9494Y2101D01*
X9498Y2101D01*
X9500Y2101D01*
X9500Y2101D01*
X333992Y2101D01*
X334804Y2127D01*
X336407Y1860D01*
D02*
G37*
%LPC*%
G36*
X291800Y-12657D02*
X290942Y-12828D01*
X290214Y-13314D01*
X289728Y-14042D01*
X289557Y-14900D01*
X289728Y-15758D01*
X290214Y-16486D01*
X290942Y-16972D01*
X291800Y-17143D01*
X292658Y-16972D01*
X293386Y-16486D01*
X293872Y-15758D01*
X294043Y-14900D01*
X293872Y-14042D01*
X293386Y-13314D01*
X292658Y-12828D01*
X291800Y-12657D01*
D02*
G37*
G36*
X309300Y-12757D02*
X308442Y-12928D01*
X307714Y-13414D01*
X307228Y-14142D01*
X307057Y-15000D01*
X307228Y-15858D01*
X307714Y-16586D01*
X308442Y-17072D01*
X309300Y-17243D01*
X310158Y-17072D01*
X310886Y-16586D01*
X311372Y-15858D01*
X311543Y-15000D01*
X311372Y-14142D01*
X310886Y-13414D01*
X310158Y-12928D01*
X309300Y-12757D01*
D02*
G37*
G36*
X274000Y-12857D02*
X273142Y-13028D01*
X272414Y-13514D01*
X271928Y-14242D01*
X271757Y-15100D01*
X271928Y-15958D01*
X272414Y-16686D01*
X273142Y-17172D01*
X274000Y-17343D01*
X274858Y-17172D01*
X275586Y-16686D01*
X276072Y-15958D01*
X276243Y-15100D01*
X276072Y-14242D01*
X275586Y-13514D01*
X274858Y-13028D01*
X274000Y-12857D01*
D02*
G37*
G36*
X139500Y-13391D02*
Y-18400D01*
X144509D01*
X144385Y-17457D01*
X143828Y-16112D01*
X142942Y-14958D01*
X141788Y-14072D01*
X140443Y-13515D01*
X139500Y-13391D01*
D02*
G37*
G36*
X138500D02*
X137557Y-13515D01*
X136212Y-14072D01*
X135058Y-14958D01*
X134172Y-16112D01*
X133615Y-17457D01*
X133491Y-18400D01*
X138500D01*
Y-13391D01*
D02*
G37*
G36*
X233300Y-2394D02*
X231367Y-2584D01*
X229509Y-3148D01*
X227797Y-4064D01*
X226295Y-5295D01*
X225063Y-6797D01*
X224148Y-8509D01*
X223584Y-10367D01*
X223394Y-12300D01*
X223584Y-14233D01*
X224148Y-16091D01*
X225063Y-17804D01*
X226295Y-19305D01*
X227797Y-20537D01*
X229509Y-21452D01*
X231367Y-22016D01*
X233300Y-22206D01*
X235232Y-22016D01*
X237091Y-21452D01*
X238804Y-20537D01*
X240305Y-19305D01*
X241536Y-17804D01*
X242452Y-16091D01*
X243016Y-14233D01*
X243206Y-12300D01*
X243016Y-10367D01*
X242452Y-8509D01*
X241536Y-6797D01*
X240305Y-5295D01*
X238804Y-4064D01*
X237091Y-3148D01*
X235232Y-2584D01*
X233300Y-2394D01*
D02*
G37*
G36*
X16100D02*
X14167Y-2584D01*
X12309Y-3148D01*
X10597Y-4064D01*
X9095Y-5295D01*
X7863Y-6797D01*
X6948Y-8509D01*
X6384Y-10367D01*
X6194Y-12300D01*
X6384Y-14233D01*
X6948Y-16091D01*
X7863Y-17804D01*
X9095Y-19305D01*
X10597Y-20537D01*
X12309Y-21452D01*
X14167Y-22016D01*
X16100Y-22206D01*
X18033Y-22016D01*
X19891Y-21452D01*
X21603Y-20537D01*
X23105Y-19305D01*
X24337Y-17804D01*
X25252Y-16091D01*
X25816Y-14233D01*
X26006Y-12300D01*
X25816Y-10367D01*
X25252Y-8509D01*
X24337Y-6797D01*
X23105Y-5295D01*
X21603Y-4064D01*
X19891Y-3148D01*
X18033Y-2584D01*
X16100Y-2394D01*
D02*
G37*
G36*
X144509Y-19400D02*
X139500D01*
Y-24409D01*
X140443Y-24285D01*
X141788Y-23728D01*
X142942Y-22842D01*
X143828Y-21688D01*
X144385Y-20343D01*
X144509Y-19400D01*
D02*
G37*
G36*
X138500D02*
X133491D01*
X133615Y-20343D01*
X134172Y-21688D01*
X135058Y-22842D01*
X136212Y-23728D01*
X137557Y-24285D01*
X138500Y-24409D01*
Y-19400D01*
D02*
G37*
G36*
X119315Y-13325D02*
X117872Y-13515D01*
X116527Y-14072D01*
X115373Y-14958D01*
X114487Y-16112D01*
X113930Y-17457D01*
X113740Y-18900D01*
X113930Y-20343D01*
X114487Y-21688D01*
X115373Y-22842D01*
X116527Y-23728D01*
X117872Y-24285D01*
X119315Y-24475D01*
X120758Y-24285D01*
X122103Y-23728D01*
X123257Y-22842D01*
X124143Y-21688D01*
X124700Y-20343D01*
X124890Y-18900D01*
X124700Y-17457D01*
X124143Y-16112D01*
X123257Y-14958D01*
X122103Y-14072D01*
X120758Y-13515D01*
X119315Y-13325D01*
D02*
G37*
G36*
X76800Y-37457D02*
X75942Y-37628D01*
X75214Y-38114D01*
X74728Y-38842D01*
X74557Y-39700D01*
X74728Y-40558D01*
X75214Y-41286D01*
X75942Y-41772D01*
X76800Y-41943D01*
X77658Y-41772D01*
X78386Y-41286D01*
X78872Y-40558D01*
X79043Y-39700D01*
X78872Y-38842D01*
X78386Y-38114D01*
X77658Y-37628D01*
X76800Y-37457D01*
D02*
G37*
G36*
X63200Y-37957D02*
X62342Y-38128D01*
X61614Y-38614D01*
X61128Y-39342D01*
X60957Y-40200D01*
X61128Y-41058D01*
X61614Y-41786D01*
X62342Y-42272D01*
X63200Y-42443D01*
X64058Y-42272D01*
X64786Y-41786D01*
X65272Y-41058D01*
X65443Y-40200D01*
X65272Y-39342D01*
X64786Y-38614D01*
X64058Y-38128D01*
X63200Y-37957D01*
D02*
G37*
G36*
X175500Y-42757D02*
X174642Y-42928D01*
X173914Y-43414D01*
X173428Y-44142D01*
X173257Y-45000D01*
X173428Y-45858D01*
X173914Y-46586D01*
X174642Y-47072D01*
X175500Y-47243D01*
X176358Y-47072D01*
X177086Y-46586D01*
X177572Y-45858D01*
X177743Y-45000D01*
X177572Y-44142D01*
X177086Y-43414D01*
X176358Y-42928D01*
X175500Y-42757D01*
D02*
G37*
G36*
X205200Y-42857D02*
X204342Y-43028D01*
X203614Y-43514D01*
X203128Y-44242D01*
X202957Y-45100D01*
X203128Y-45958D01*
X203614Y-46686D01*
X204342Y-47172D01*
X205200Y-47343D01*
X206058Y-47172D01*
X206786Y-46686D01*
X207272Y-45958D01*
X207443Y-45100D01*
X207272Y-44242D01*
X206786Y-43514D01*
X206058Y-43028D01*
X205200Y-42857D01*
D02*
G37*
G36*
X184300Y-46457D02*
X183442Y-46628D01*
X182714Y-47114D01*
X182228Y-47842D01*
X182057Y-48700D01*
X182228Y-49558D01*
X182714Y-50286D01*
X183442Y-50772D01*
X184300Y-50943D01*
X185158Y-50772D01*
X185886Y-50286D01*
X186372Y-49558D01*
X186543Y-48700D01*
X186372Y-47842D01*
X185886Y-47114D01*
X185158Y-46628D01*
X184300Y-46457D01*
D02*
G37*
G36*
X221100Y-47657D02*
X220242Y-47828D01*
X219514Y-48314D01*
X219028Y-49042D01*
X218857Y-49900D01*
X219028Y-50758D01*
X219514Y-51486D01*
X220242Y-51972D01*
X221100Y-52143D01*
X221958Y-51972D01*
X222686Y-51486D01*
X223172Y-50758D01*
X223343Y-49900D01*
X223172Y-49042D01*
X222686Y-48314D01*
X221958Y-47828D01*
X221100Y-47657D01*
D02*
G37*
G36*
X47150Y-49594D02*
X46292Y-49765D01*
X45564Y-50251D01*
X45078Y-50979D01*
X44907Y-51837D01*
X45078Y-52696D01*
X45564Y-53424D01*
X46292Y-53910D01*
X47150Y-54080D01*
X48009Y-53910D01*
X48737Y-53424D01*
X49223Y-52696D01*
X49393Y-51837D01*
X49223Y-50979D01*
X48737Y-50251D01*
X48009Y-49765D01*
X47150Y-49594D01*
D02*
G37*
G36*
X257800Y-58957D02*
X256942Y-59128D01*
X256214Y-59614D01*
X255728Y-60342D01*
X255557Y-61200D01*
X255728Y-62058D01*
X256214Y-62786D01*
X256942Y-63272D01*
X257800Y-63443D01*
X258658Y-63272D01*
X259386Y-62786D01*
X259872Y-62058D01*
X260043Y-61200D01*
X259872Y-60342D01*
X259386Y-59614D01*
X258658Y-59128D01*
X257800Y-58957D01*
D02*
G37*
G36*
X190800Y-61857D02*
X189942Y-62028D01*
X189214Y-62514D01*
X188728Y-63242D01*
X188557Y-64100D01*
X188728Y-64958D01*
X189214Y-65686D01*
X189942Y-66172D01*
X190800Y-66343D01*
X191658Y-66172D01*
X192386Y-65686D01*
X192872Y-64958D01*
X193043Y-64100D01*
X192872Y-63242D01*
X192386Y-62514D01*
X191658Y-62028D01*
X190800Y-61857D01*
D02*
G37*
G36*
X106700Y-60557D02*
X105842Y-60728D01*
X105114Y-61214D01*
X104628Y-61942D01*
X104457Y-62800D01*
X104628Y-63658D01*
X105114Y-64386D01*
X105779Y-64830D01*
X105813Y-65100D01*
X105779Y-65370D01*
X105114Y-65814D01*
X104628Y-66542D01*
X104457Y-67400D01*
X104628Y-68258D01*
X105114Y-68986D01*
X105842Y-69472D01*
X106700Y-69643D01*
X107558Y-69472D01*
X108286Y-68986D01*
X108772Y-68258D01*
X108943Y-67400D01*
X108772Y-66542D01*
X108286Y-65814D01*
X107621Y-65370D01*
X107587Y-65100D01*
X107621Y-64830D01*
X108286Y-64386D01*
X108772Y-63658D01*
X108943Y-62800D01*
X108772Y-61942D01*
X108286Y-61214D01*
X107558Y-60728D01*
X106700Y-60557D01*
D02*
G37*
G36*
X208669Y-66447D02*
X207810Y-66618D01*
X207083Y-67104D01*
X206596Y-67832D01*
X206426Y-68690D01*
X206596Y-69549D01*
X207083Y-70276D01*
X207810Y-70763D01*
X208669Y-70933D01*
X209527Y-70763D01*
X210255Y-70276D01*
X210741Y-69549D01*
X210912Y-68690D01*
X210741Y-67832D01*
X210255Y-67104D01*
X209527Y-66618D01*
X208669Y-66447D01*
D02*
G37*
G36*
X112100Y-60657D02*
X111242Y-60828D01*
X110514Y-61314D01*
X110028Y-62042D01*
X109857Y-62900D01*
X110028Y-63758D01*
X110514Y-64486D01*
X111131Y-64899D01*
X111173Y-65309D01*
X111142Y-65461D01*
X110614Y-65814D01*
X110128Y-66542D01*
X109957Y-67400D01*
X110128Y-68258D01*
X110614Y-68986D01*
X110809Y-69117D01*
Y-69617D01*
X110514Y-69814D01*
X110028Y-70542D01*
X109857Y-71400D01*
X110028Y-72258D01*
X110514Y-72986D01*
X111242Y-73472D01*
X112100Y-73643D01*
X112958Y-73472D01*
X113686Y-72986D01*
X114172Y-72258D01*
X114343Y-71400D01*
X114172Y-70542D01*
X113686Y-69814D01*
X113491Y-69683D01*
Y-69183D01*
X113786Y-68986D01*
X114272Y-68258D01*
X114443Y-67400D01*
X114272Y-66542D01*
X113786Y-65814D01*
X113169Y-65402D01*
X113127Y-64991D01*
X113158Y-64839D01*
X113686Y-64486D01*
X114172Y-63758D01*
X114343Y-62900D01*
X114172Y-62042D01*
X113686Y-61314D01*
X112958Y-60828D01*
X112100Y-60657D01*
D02*
G37*
G36*
X132900Y-60957D02*
X132042Y-61128D01*
X131314Y-61614D01*
X130828Y-62342D01*
X130657Y-63200D01*
X130828Y-64058D01*
X131314Y-64786D01*
X131508Y-64916D01*
Y-65517D01*
X131214Y-65714D01*
X130728Y-66442D01*
X130557Y-67300D01*
X130728Y-68158D01*
X131214Y-68886D01*
X131534Y-69100D01*
Y-69600D01*
X131214Y-69814D01*
X130728Y-70542D01*
X130557Y-71400D01*
X130728Y-72258D01*
X131214Y-72986D01*
X131533Y-73199D01*
Y-73801D01*
X131214Y-74014D01*
X130728Y-74742D01*
X130557Y-75600D01*
X130728Y-76458D01*
X131214Y-77186D01*
X131942Y-77672D01*
X132800Y-77843D01*
X133658Y-77672D01*
X134386Y-77186D01*
X134872Y-76458D01*
X135043Y-75600D01*
X134872Y-74742D01*
X134386Y-74014D01*
X134067Y-73801D01*
Y-73199D01*
X134386Y-72986D01*
X134872Y-72258D01*
X135043Y-71400D01*
X134872Y-70542D01*
X134386Y-69814D01*
X134066Y-69600D01*
Y-69100D01*
X134386Y-68886D01*
X134872Y-68158D01*
X135043Y-67300D01*
X134872Y-66442D01*
X134386Y-65714D01*
X134192Y-65584D01*
Y-64983D01*
X134486Y-64786D01*
X134972Y-64058D01*
X135143Y-63200D01*
X134972Y-62342D01*
X134486Y-61614D01*
X133758Y-61128D01*
X132900Y-60957D01*
D02*
G37*
G36*
X172500Y-73857D02*
X171642Y-74028D01*
X170914Y-74514D01*
X170428Y-75242D01*
X170257Y-76100D01*
X170428Y-76958D01*
X170914Y-77686D01*
X171642Y-78172D01*
X172500Y-78343D01*
X173358Y-78172D01*
X174086Y-77686D01*
X174572Y-76958D01*
X174743Y-76100D01*
X174572Y-75242D01*
X174086Y-74514D01*
X173358Y-74028D01*
X172500Y-73857D01*
D02*
G37*
G36*
X290400Y-76957D02*
X289542Y-77128D01*
X288814Y-77614D01*
X288328Y-78342D01*
X288157Y-79200D01*
X288328Y-80058D01*
X288814Y-80786D01*
X289542Y-81272D01*
X290400Y-81443D01*
X291258Y-81272D01*
X291986Y-80786D01*
X292472Y-80058D01*
X292643Y-79200D01*
X292472Y-78342D01*
X291986Y-77614D01*
X291258Y-77128D01*
X290400Y-76957D01*
D02*
G37*
G36*
X324800Y-77057D02*
X323942Y-77228D01*
X323214Y-77714D01*
X322728Y-78442D01*
X322557Y-79300D01*
X322728Y-80158D01*
X323214Y-80886D01*
X323942Y-81372D01*
X324800Y-81543D01*
X325658Y-81372D01*
X326386Y-80886D01*
X326872Y-80158D01*
X327043Y-79300D01*
X326872Y-78442D01*
X326386Y-77714D01*
X325658Y-77228D01*
X324800Y-77057D01*
D02*
G37*
G36*
X253400Y-79957D02*
X252542Y-80128D01*
X251814Y-80614D01*
X251328Y-81342D01*
X251157Y-82200D01*
X251328Y-83058D01*
X251814Y-83786D01*
X252542Y-84272D01*
X253400Y-84443D01*
X254258Y-84272D01*
X254986Y-83786D01*
X255472Y-83058D01*
X255643Y-82200D01*
X255472Y-81342D01*
X254986Y-80614D01*
X254258Y-80128D01*
X253400Y-79957D01*
D02*
G37*
G36*
X181300Y-80157D02*
X180442Y-80328D01*
X179714Y-80814D01*
X179228Y-81542D01*
X179057Y-82400D01*
X179228Y-83258D01*
X179714Y-83986D01*
X180442Y-84472D01*
X181300Y-84643D01*
X182158Y-84472D01*
X182886Y-83986D01*
X183372Y-83258D01*
X183543Y-82400D01*
X183372Y-81542D01*
X182886Y-80814D01*
X182158Y-80328D01*
X181300Y-80157D01*
D02*
G37*
G36*
X209300Y-81857D02*
X208442Y-82028D01*
X207714Y-82514D01*
X207228Y-83242D01*
X207057Y-84100D01*
X207228Y-84958D01*
X207714Y-85686D01*
X208442Y-86172D01*
X209300Y-86343D01*
X210158Y-86172D01*
X210886Y-85686D01*
X211372Y-84958D01*
X211543Y-84100D01*
X211372Y-83242D01*
X210886Y-82514D01*
X210158Y-82028D01*
X209300Y-81857D01*
D02*
G37*
G36*
X112100Y-74557D02*
X111242Y-74728D01*
X110514Y-75214D01*
X110028Y-75942D01*
X109857Y-76800D01*
X110028Y-77658D01*
X110495Y-78358D01*
X110559Y-78499D01*
Y-78917D01*
X110414Y-79014D01*
X109928Y-79742D01*
X109757Y-80600D01*
X109928Y-81458D01*
X110414Y-82186D01*
X110734Y-82400D01*
Y-82900D01*
X110414Y-83114D01*
X109928Y-83842D01*
X109757Y-84700D01*
X109928Y-85558D01*
X110414Y-86286D01*
X111142Y-86772D01*
X112000Y-86943D01*
X112858Y-86772D01*
X113586Y-86286D01*
X114072Y-85558D01*
X114243Y-84700D01*
X114072Y-83842D01*
X113586Y-83114D01*
X113266Y-82900D01*
Y-82400D01*
X113586Y-82186D01*
X114072Y-81458D01*
X114243Y-80600D01*
X114072Y-79742D01*
X113605Y-79042D01*
X113540Y-78901D01*
Y-78483D01*
X113686Y-78386D01*
X114172Y-77658D01*
X114343Y-76800D01*
X114172Y-75942D01*
X113686Y-75214D01*
X112958Y-74728D01*
X112100Y-74557D01*
D02*
G37*
G36*
X71200Y-86457D02*
X70342Y-86628D01*
X69614Y-87114D01*
X69128Y-87842D01*
X68957Y-88700D01*
X69128Y-89558D01*
X69614Y-90286D01*
X70342Y-90772D01*
X71200Y-90943D01*
X72058Y-90772D01*
X72786Y-90286D01*
X73272Y-89558D01*
X73443Y-88700D01*
X73272Y-87842D01*
X72786Y-87114D01*
X72058Y-86628D01*
X71200Y-86457D01*
D02*
G37*
G36*
X81900Y-93557D02*
X81042Y-93728D01*
X80314Y-94214D01*
X79994Y-94693D01*
X79406D01*
X79086Y-94214D01*
X78358Y-93728D01*
X77500Y-93557D01*
X76642Y-93728D01*
X75914Y-94214D01*
X75428Y-94942D01*
X75257Y-95800D01*
X75428Y-96658D01*
X75914Y-97386D01*
X76642Y-97872D01*
X77500Y-98043D01*
X78358Y-97872D01*
X79086Y-97386D01*
X79406Y-96907D01*
X79994D01*
X80314Y-97386D01*
X81042Y-97872D01*
X81900Y-98043D01*
X82758Y-97872D01*
X83486Y-97386D01*
X83972Y-96658D01*
X84143Y-95800D01*
X83972Y-94942D01*
X83486Y-94214D01*
X82758Y-93728D01*
X81900Y-93557D01*
D02*
G37*
G36*
X138400Y-79857D02*
X137542Y-80028D01*
X136814Y-80514D01*
X136328Y-81242D01*
X136157Y-82100D01*
X136328Y-82958D01*
X136814Y-83686D01*
X137208Y-83949D01*
Y-84551D01*
X136814Y-84814D01*
X136328Y-85542D01*
X136157Y-86400D01*
X136328Y-87258D01*
X136814Y-87986D01*
X137333Y-88333D01*
X137370Y-88904D01*
X137367Y-88911D01*
X136914Y-89214D01*
X136428Y-89942D01*
X136257Y-90800D01*
X136428Y-91658D01*
X136914Y-92386D01*
X137159Y-92550D01*
Y-93050D01*
X136914Y-93214D01*
X136428Y-93942D01*
X136257Y-94800D01*
X136428Y-95658D01*
X136914Y-96386D01*
X137642Y-96872D01*
X138500Y-97043D01*
X139358Y-96872D01*
X140086Y-96386D01*
X140572Y-95658D01*
X140743Y-94800D01*
X140572Y-93942D01*
X140086Y-93214D01*
X139841Y-93050D01*
Y-92550D01*
X140086Y-92386D01*
X140572Y-91658D01*
X140743Y-90800D01*
X140572Y-89942D01*
X140086Y-89214D01*
X139567Y-88867D01*
X139530Y-88296D01*
X139533Y-88289D01*
X139986Y-87986D01*
X140472Y-87258D01*
X140643Y-86400D01*
X140472Y-85542D01*
X139986Y-84814D01*
X139592Y-84551D01*
Y-83949D01*
X139986Y-83686D01*
X140472Y-82958D01*
X140643Y-82100D01*
X140472Y-81242D01*
X139986Y-80514D01*
X139258Y-80028D01*
X138400Y-79857D01*
D02*
G37*
G36*
X131600Y-80057D02*
X130742Y-80228D01*
X130014Y-80714D01*
X129528Y-81442D01*
X129357Y-82300D01*
X129528Y-83158D01*
X130014Y-83886D01*
X130408Y-84149D01*
Y-84751D01*
X130014Y-85014D01*
X129528Y-85742D01*
X129357Y-86600D01*
X129528Y-87458D01*
X130014Y-88186D01*
X130334Y-88400D01*
Y-88900D01*
X130014Y-89114D01*
X129528Y-89842D01*
X129357Y-90700D01*
X129528Y-91558D01*
X130014Y-92286D01*
X130408Y-92549D01*
Y-93151D01*
X130014Y-93414D01*
X129528Y-94142D01*
X129357Y-95000D01*
X129528Y-95858D01*
X130014Y-96586D01*
X130742Y-97072D01*
X131600Y-97243D01*
X132458Y-97072D01*
X133186Y-96586D01*
X133672Y-95858D01*
X133843Y-95000D01*
X133672Y-94142D01*
X133186Y-93414D01*
X132792Y-93151D01*
Y-92549D01*
X133186Y-92286D01*
X133672Y-91558D01*
X133843Y-90700D01*
X133672Y-89842D01*
X133186Y-89114D01*
X132866Y-88900D01*
Y-88400D01*
X133186Y-88186D01*
X133672Y-87458D01*
X133843Y-86600D01*
X133672Y-85742D01*
X133186Y-85014D01*
X132792Y-84751D01*
Y-84149D01*
X133186Y-83886D01*
X133672Y-83158D01*
X133843Y-82300D01*
X133672Y-81442D01*
X133186Y-80714D01*
X132458Y-80228D01*
X131600Y-80057D01*
D02*
G37*
G36*
X325700Y-94757D02*
X324842Y-94928D01*
X324114Y-95414D01*
X323628Y-96142D01*
X323457Y-97000D01*
X323628Y-97858D01*
X324114Y-98586D01*
X324842Y-99072D01*
X325700Y-99243D01*
X326558Y-99072D01*
X327286Y-98586D01*
X327772Y-97858D01*
X327943Y-97000D01*
X327772Y-96142D01*
X327286Y-95414D01*
X326558Y-94928D01*
X325700Y-94757D01*
D02*
G37*
G36*
X245500Y-99457D02*
X244642Y-99628D01*
X243914Y-100114D01*
X243428Y-100842D01*
X243257Y-101700D01*
X243428Y-102558D01*
X243914Y-103286D01*
X244642Y-103772D01*
X245500Y-103943D01*
X246358Y-103772D01*
X247086Y-103286D01*
X247572Y-102558D01*
X247743Y-101700D01*
X247572Y-100842D01*
X247086Y-100114D01*
X246358Y-99628D01*
X245500Y-99457D01*
D02*
G37*
G36*
X47612Y-100341D02*
X46754Y-100512D01*
X46026Y-100998D01*
X45540Y-101726D01*
X45369Y-102585D01*
X45540Y-103443D01*
X46026Y-104171D01*
X46754Y-104657D01*
X47612Y-104828D01*
X48471Y-104657D01*
X49198Y-104171D01*
X49685Y-103443D01*
X49856Y-102585D01*
X49685Y-101726D01*
X49198Y-100998D01*
X48471Y-100512D01*
X47612Y-100341D01*
D02*
G37*
G36*
X213100Y-106657D02*
X212242Y-106828D01*
X211514Y-107314D01*
X211028Y-108042D01*
X210857Y-108900D01*
X211028Y-109758D01*
X211514Y-110486D01*
X212242Y-110972D01*
X213100Y-111143D01*
X213958Y-110972D01*
X214686Y-110486D01*
X215172Y-109758D01*
X215343Y-108900D01*
X215172Y-108042D01*
X214686Y-107314D01*
X213958Y-106828D01*
X213100Y-106657D01*
D02*
G37*
G36*
X124000D02*
X123142Y-106828D01*
X122414Y-107314D01*
X121928Y-108042D01*
X121757Y-108900D01*
X121928Y-109758D01*
X122414Y-110486D01*
X123142Y-110972D01*
X124000Y-111143D01*
X124858Y-110972D01*
X125586Y-110486D01*
X126072Y-109758D01*
X126243Y-108900D01*
X126072Y-108042D01*
X125586Y-107314D01*
X124858Y-106828D01*
X124000Y-106657D01*
D02*
G37*
G36*
X191100Y-110557D02*
X190242Y-110728D01*
X189514Y-111214D01*
X189028Y-111942D01*
X188857Y-112800D01*
X189028Y-113658D01*
X189514Y-114386D01*
X190242Y-114872D01*
X191100Y-115043D01*
X191958Y-114872D01*
X192686Y-114386D01*
X193172Y-113658D01*
X193343Y-112800D01*
X193172Y-111942D01*
X192686Y-111214D01*
X191958Y-110728D01*
X191100Y-110557D01*
D02*
G37*
G36*
X186000Y-110657D02*
X185142Y-110828D01*
X184414Y-111314D01*
X183928Y-112042D01*
X183757Y-112900D01*
X183928Y-113758D01*
X184414Y-114486D01*
X185142Y-114972D01*
X186000Y-115143D01*
X186858Y-114972D01*
X187586Y-114486D01*
X188072Y-113758D01*
X188243Y-112900D01*
X188072Y-112042D01*
X187586Y-111314D01*
X186858Y-110828D01*
X186000Y-110657D01*
D02*
G37*
G36*
X181000D02*
X180142Y-110828D01*
X179414Y-111314D01*
X178928Y-112042D01*
X178757Y-112900D01*
X178928Y-113758D01*
X179414Y-114486D01*
X180142Y-114972D01*
X181000Y-115143D01*
X181858Y-114972D01*
X182586Y-114486D01*
X183072Y-113758D01*
X183243Y-112900D01*
X183072Y-112042D01*
X182586Y-111314D01*
X181858Y-110828D01*
X181000Y-110657D01*
D02*
G37*
G36*
X171800D02*
X170942Y-110828D01*
X170214Y-111314D01*
X169728Y-112042D01*
X169557Y-112900D01*
X169728Y-113758D01*
X170214Y-114486D01*
X170942Y-114972D01*
X171800Y-115143D01*
X172658Y-114972D01*
X173386Y-114486D01*
X173872Y-113758D01*
X174043Y-112900D01*
X173872Y-112042D01*
X173386Y-111314D01*
X172658Y-110828D01*
X171800Y-110657D01*
D02*
G37*
G36*
X326000Y-111857D02*
X325142Y-112028D01*
X324414Y-112514D01*
X323928Y-113242D01*
X323757Y-114100D01*
X323928Y-114958D01*
X324414Y-115686D01*
X325142Y-116172D01*
X326000Y-116343D01*
X326858Y-116172D01*
X327586Y-115686D01*
X328072Y-114958D01*
X328243Y-114100D01*
X328072Y-113242D01*
X327586Y-112514D01*
X326858Y-112028D01*
X326000Y-111857D01*
D02*
G37*
G36*
X171400Y-119957D02*
X170542Y-120128D01*
X169814Y-120614D01*
X169328Y-121342D01*
X169157Y-122200D01*
X169328Y-123058D01*
X169814Y-123786D01*
X170542Y-124272D01*
X171400Y-124443D01*
X172258Y-124272D01*
X172986Y-123786D01*
X173472Y-123058D01*
X173643Y-122200D01*
X173472Y-121342D01*
X172986Y-120614D01*
X172258Y-120128D01*
X171400Y-119957D01*
D02*
G37*
G36*
X283700Y-120957D02*
X282842Y-121128D01*
X282114Y-121614D01*
X281628Y-122342D01*
X281457Y-123200D01*
X281628Y-124058D01*
X282114Y-124786D01*
X282842Y-125272D01*
X283700Y-125443D01*
X284558Y-125272D01*
X285286Y-124786D01*
X285772Y-124058D01*
X285943Y-123200D01*
X285772Y-122342D01*
X285286Y-121614D01*
X284558Y-121128D01*
X283700Y-120957D01*
D02*
G37*
G36*
X255600Y-123957D02*
X254742Y-124128D01*
X254014Y-124614D01*
X253528Y-125342D01*
X253357Y-126200D01*
X253528Y-127058D01*
X254014Y-127786D01*
X254742Y-128272D01*
X255600Y-128443D01*
X256458Y-128272D01*
X257186Y-127786D01*
X257672Y-127058D01*
X257843Y-126200D01*
X257672Y-125342D01*
X257186Y-124614D01*
X256458Y-124128D01*
X255600Y-123957D01*
D02*
G37*
G36*
X202000Y-122157D02*
X201142Y-122328D01*
X200414Y-122814D01*
X199928Y-123542D01*
X199757Y-124400D01*
X199928Y-125258D01*
X200414Y-125986D01*
X200992Y-126372D01*
X201008Y-126422D01*
Y-126878D01*
X200992Y-126928D01*
X200414Y-127314D01*
X199928Y-128042D01*
X199757Y-128900D01*
X199928Y-129758D01*
X200414Y-130486D01*
X201142Y-130972D01*
X202000Y-131143D01*
X202858Y-130972D01*
X203586Y-130486D01*
X204072Y-129758D01*
X204243Y-128900D01*
X204072Y-128042D01*
X203586Y-127314D01*
X203008Y-126928D01*
X202992Y-126878D01*
Y-126422D01*
X203008Y-126372D01*
X203586Y-125986D01*
X204072Y-125258D01*
X204243Y-124400D01*
X204072Y-123542D01*
X203586Y-122814D01*
X202858Y-122328D01*
X202000Y-122157D01*
D02*
G37*
G36*
X55200Y-127057D02*
X54342Y-127228D01*
X53614Y-127714D01*
X53128Y-128442D01*
X52957Y-129300D01*
X53128Y-130158D01*
X53614Y-130886D01*
X54342Y-131372D01*
X55200Y-131543D01*
X56058Y-131372D01*
X56786Y-130886D01*
X57272Y-130158D01*
X57443Y-129300D01*
X57272Y-128442D01*
X56786Y-127714D01*
X56058Y-127228D01*
X55200Y-127057D01*
D02*
G37*
G36*
X134700Y-130257D02*
X133842Y-130428D01*
X133114Y-130914D01*
X132628Y-131642D01*
X132457Y-132500D01*
X132628Y-133358D01*
X133114Y-134086D01*
X133842Y-134572D01*
X134700Y-134743D01*
X135558Y-134572D01*
X136286Y-134086D01*
X136772Y-133358D01*
X136943Y-132500D01*
X136772Y-131642D01*
X136286Y-130914D01*
X135558Y-130428D01*
X134700Y-130257D01*
D02*
G37*
G36*
X48200Y-131157D02*
X47342Y-131328D01*
X46614Y-131814D01*
X46128Y-132542D01*
X45957Y-133400D01*
X46128Y-134258D01*
X46614Y-134986D01*
X47342Y-135472D01*
X48200Y-135643D01*
X49058Y-135472D01*
X49786Y-134986D01*
X50272Y-134258D01*
X50443Y-133400D01*
X50272Y-132542D01*
X49786Y-131814D01*
X49058Y-131328D01*
X48200Y-131157D01*
D02*
G37*
G36*
X229100Y-136257D02*
X228242Y-136428D01*
X227514Y-136914D01*
X227028Y-137642D01*
X226857Y-138500D01*
X227028Y-139358D01*
X227514Y-140086D01*
X228242Y-140572D01*
X229100Y-140743D01*
X229958Y-140572D01*
X230686Y-140086D01*
X231172Y-139358D01*
X231343Y-138500D01*
X231172Y-137642D01*
X230686Y-136914D01*
X229958Y-136428D01*
X229100Y-136257D01*
D02*
G37*
G36*
X192101Y-140057D02*
X191243Y-140228D01*
X190515Y-140714D01*
X190045Y-141417D01*
X189900Y-141455D01*
X189516Y-141457D01*
X189086Y-140814D01*
X188358Y-140328D01*
X187500Y-140157D01*
X186642Y-140328D01*
X185914Y-140814D01*
X185528Y-141392D01*
X185478Y-141408D01*
X185022D01*
X184972Y-141392D01*
X184586Y-140814D01*
X183858Y-140328D01*
X183000Y-140157D01*
X182142Y-140328D01*
X181414Y-140814D01*
X181028Y-141392D01*
X180978Y-141408D01*
X180522D01*
X180472Y-141392D01*
X180086Y-140814D01*
X179358Y-140328D01*
X178500Y-140157D01*
X177642Y-140328D01*
X176914Y-140814D01*
X176428Y-141542D01*
X176257Y-142400D01*
X176428Y-143258D01*
X176914Y-143986D01*
X177642Y-144472D01*
X178500Y-144643D01*
X179358Y-144472D01*
X180086Y-143986D01*
X180472Y-143408D01*
X180522Y-143392D01*
X180978D01*
X181028Y-143408D01*
X181414Y-143986D01*
X182142Y-144472D01*
X183000Y-144643D01*
X183858Y-144472D01*
X184586Y-143986D01*
X184972Y-143408D01*
X185022Y-143392D01*
X185478D01*
X185528Y-143408D01*
X185914Y-143986D01*
X186642Y-144472D01*
X187500Y-144643D01*
X188358Y-144472D01*
X189086Y-143986D01*
X189556Y-143283D01*
X189701Y-143245D01*
X190085Y-143243D01*
X190515Y-143886D01*
X191243Y-144372D01*
X192101Y-144543D01*
X192959Y-144372D01*
X193687Y-143886D01*
X193989Y-143434D01*
X193995Y-143432D01*
X194568Y-143468D01*
X194914Y-143986D01*
X195642Y-144472D01*
X196500Y-144643D01*
X197358Y-144472D01*
X198086Y-143986D01*
X198572Y-143258D01*
X198743Y-142400D01*
X198572Y-141542D01*
X198086Y-140814D01*
X197358Y-140328D01*
X196500Y-140157D01*
X195642Y-140328D01*
X194914Y-140814D01*
X194612Y-141266D01*
X194606Y-141268D01*
X194033Y-141232D01*
X193687Y-140714D01*
X192959Y-140228D01*
X192101Y-140057D01*
D02*
G37*
G36*
X119128Y-137229D02*
X118269Y-137400D01*
X117541Y-137886D01*
X117055Y-138614D01*
X116884Y-139472D01*
X117055Y-140331D01*
X117541Y-141059D01*
X118269Y-141545D01*
X119128Y-141716D01*
X119986Y-141545D01*
X120714Y-141059D01*
X121200Y-140331D01*
X121371Y-139472D01*
X121200Y-138614D01*
X120714Y-137886D01*
X119986Y-137400D01*
X119128Y-137229D01*
D02*
G37*
G36*
X143421Y-142166D02*
X142562Y-142336D01*
X141835Y-142823D01*
X141348Y-143551D01*
X141178Y-144409D01*
X141229Y-144669D01*
X140779Y-144970D01*
X140730Y-144937D01*
X139871Y-144766D01*
X139013Y-144937D01*
X138285Y-145423D01*
X137799Y-146151D01*
X137798Y-146156D01*
X137755Y-146172D01*
X137278Y-146208D01*
X136869Y-145597D01*
X136141Y-145111D01*
X135283Y-144940D01*
X134424Y-145111D01*
X133697Y-145597D01*
X133211Y-146325D01*
X133040Y-147183D01*
X133211Y-148041D01*
X133697Y-148769D01*
X134424Y-149255D01*
X135283Y-149426D01*
X136141Y-149255D01*
X136869Y-148769D01*
X137355Y-148041D01*
X137356Y-148036D01*
X137399Y-148020D01*
X137876Y-147984D01*
X138285Y-148595D01*
X139013Y-149082D01*
X139871Y-149252D01*
X140730Y-149082D01*
X141457Y-148595D01*
X141944Y-147868D01*
X142114Y-147009D01*
X142062Y-146749D01*
X142513Y-146448D01*
X142562Y-146481D01*
X143421Y-146652D01*
X144279Y-146481D01*
X145007Y-145995D01*
X145174Y-145745D01*
X145705Y-145850D01*
X145708Y-145864D01*
X146194Y-146592D01*
X146922Y-147078D01*
X147780Y-147249D01*
X148638Y-147078D01*
X149366Y-146592D01*
X149852Y-145864D01*
X150023Y-145006D01*
X149852Y-144147D01*
X149366Y-143419D01*
X148638Y-142933D01*
X147780Y-142762D01*
X146922Y-142933D01*
X146194Y-143419D01*
X146027Y-143670D01*
X145496Y-143564D01*
X145493Y-143551D01*
X145007Y-142823D01*
X144279Y-142336D01*
X143421Y-142166D01*
D02*
G37*
G36*
X155800Y-143257D02*
X154942Y-143428D01*
X154214Y-143914D01*
X153728Y-144642D01*
X153557Y-145500D01*
X153728Y-146358D01*
X154214Y-147086D01*
X154942Y-147572D01*
X155800Y-147743D01*
X156658Y-147572D01*
X157386Y-147086D01*
X157872Y-146358D01*
X158043Y-145500D01*
X157872Y-144642D01*
X157386Y-143914D01*
X156658Y-143428D01*
X155800Y-143257D01*
D02*
G37*
G36*
X51200Y-147057D02*
X50342Y-147228D01*
X49614Y-147714D01*
X49128Y-148442D01*
X48957Y-149300D01*
X49128Y-150158D01*
X49614Y-150886D01*
X50342Y-151372D01*
X51200Y-151543D01*
X52058Y-151372D01*
X52786Y-150886D01*
X53272Y-150158D01*
X53443Y-149300D01*
X53272Y-148442D01*
X52786Y-147714D01*
X52058Y-147228D01*
X51200Y-147057D01*
D02*
G37*
G36*
X218600Y-149253D02*
X217742Y-149424D01*
X217014Y-149910D01*
X216528Y-150638D01*
X216357Y-151496D01*
X216528Y-152355D01*
X217014Y-153082D01*
X217742Y-153568D01*
X218600Y-153739D01*
X219458Y-153568D01*
X220186Y-153082D01*
X220672Y-152355D01*
X220843Y-151496D01*
X220672Y-150638D01*
X220186Y-149910D01*
X219458Y-149424D01*
X218600Y-149253D01*
D02*
G37*
G36*
X206000Y-153457D02*
X205142Y-153628D01*
X204414Y-154114D01*
X203928Y-154842D01*
X203757Y-155700D01*
X203928Y-156558D01*
X204414Y-157286D01*
X205142Y-157772D01*
X206000Y-157943D01*
X206858Y-157772D01*
X207586Y-157286D01*
X208072Y-156558D01*
X208243Y-155700D01*
X208072Y-154842D01*
X207586Y-154114D01*
X206858Y-153628D01*
X206000Y-153457D01*
D02*
G37*
G36*
X123200Y-158557D02*
X122342Y-158728D01*
X121614Y-159214D01*
X121128Y-159942D01*
X120957Y-160800D01*
X121128Y-161658D01*
X121614Y-162386D01*
X122342Y-162872D01*
X123200Y-163043D01*
X124058Y-162872D01*
X124786Y-162386D01*
X125272Y-161658D01*
X125443Y-160800D01*
X125272Y-159942D01*
X124786Y-159214D01*
X124058Y-158728D01*
X123200Y-158557D01*
D02*
G37*
G36*
X131300Y-159157D02*
X130442Y-159328D01*
X129714Y-159814D01*
X129228Y-160542D01*
X129057Y-161400D01*
X129228Y-162258D01*
X129714Y-162986D01*
X130442Y-163472D01*
X131300Y-163643D01*
X132158Y-163472D01*
X132886Y-162986D01*
X133372Y-162258D01*
X133543Y-161400D01*
X133372Y-160542D01*
X132886Y-159814D01*
X132158Y-159328D01*
X131300Y-159157D01*
D02*
G37*
G36*
X218000Y-161857D02*
X217142Y-162028D01*
X216414Y-162514D01*
X215928Y-163242D01*
X215757Y-164100D01*
X215928Y-164958D01*
X216414Y-165686D01*
X217142Y-166172D01*
X218000Y-166343D01*
X218858Y-166172D01*
X219586Y-165686D01*
X220072Y-164958D01*
X220243Y-164100D01*
X220072Y-163242D01*
X219586Y-162514D01*
X218858Y-162028D01*
X218000Y-161857D01*
D02*
G37*
G36*
X282353Y-158447D02*
X274447D01*
Y-166353D01*
X282353D01*
Y-158447D01*
D02*
G37*
G36*
X44500Y-165657D02*
X43642Y-165828D01*
X42914Y-166314D01*
X42428Y-167042D01*
X42257Y-167900D01*
X42428Y-168758D01*
X42914Y-169486D01*
X43642Y-169972D01*
X44500Y-170143D01*
X45358Y-169972D01*
X46086Y-169486D01*
X46572Y-168758D01*
X46743Y-167900D01*
X46572Y-167042D01*
X46086Y-166314D01*
X45358Y-165828D01*
X44500Y-165657D01*
D02*
G37*
G36*
X176600Y-168757D02*
X175742Y-168928D01*
X175014Y-169414D01*
X174528Y-170142D01*
X174357Y-171000D01*
X174528Y-171858D01*
X175014Y-172586D01*
X175742Y-173072D01*
X176600Y-173243D01*
X177458Y-173072D01*
X178186Y-172586D01*
X178672Y-171858D01*
X178843Y-171000D01*
X178672Y-170142D01*
X178186Y-169414D01*
X177458Y-168928D01*
X176600Y-168757D01*
D02*
G37*
G36*
X278400Y-168413D02*
X277368Y-168549D01*
X276407Y-168947D01*
X275581Y-169581D01*
X274947Y-170407D01*
X274549Y-171368D01*
X274413Y-172400D01*
X274549Y-173432D01*
X274947Y-174393D01*
X275581Y-175219D01*
X276407Y-175853D01*
X277368Y-176251D01*
X278400Y-176387D01*
X279432Y-176251D01*
X280393Y-175853D01*
X281219Y-175219D01*
X281853Y-174393D01*
X282251Y-173432D01*
X282387Y-172400D01*
X282251Y-171368D01*
X281853Y-170407D01*
X281219Y-169581D01*
X280393Y-168947D01*
X279432Y-168549D01*
X278400Y-168413D01*
D02*
G37*
G36*
X115700Y-173557D02*
X114842Y-173728D01*
X114114Y-174214D01*
X113628Y-174942D01*
X113457Y-175800D01*
X113628Y-176658D01*
X114114Y-177386D01*
X114842Y-177872D01*
X115700Y-178043D01*
X116558Y-177872D01*
X117286Y-177386D01*
X117772Y-176658D01*
X117943Y-175800D01*
X117772Y-174942D01*
X117286Y-174214D01*
X116558Y-173728D01*
X115700Y-173557D01*
D02*
G37*
G36*
X57800Y-175857D02*
X56942Y-176028D01*
X56214Y-176514D01*
X55728Y-177242D01*
X55557Y-178100D01*
X55728Y-178958D01*
X56214Y-179686D01*
X56942Y-180172D01*
X57800Y-180343D01*
X58658Y-180172D01*
X59386Y-179686D01*
X59872Y-178958D01*
X60043Y-178100D01*
X59872Y-177242D01*
X59386Y-176514D01*
X58658Y-176028D01*
X57800Y-175857D01*
D02*
G37*
G36*
X201200Y-184057D02*
X200342Y-184228D01*
X199614Y-184714D01*
X199128Y-185442D01*
X198957Y-186300D01*
X199128Y-187158D01*
X199614Y-187886D01*
X200342Y-188372D01*
X201200Y-188543D01*
X202058Y-188372D01*
X202786Y-187886D01*
X203272Y-187158D01*
X203443Y-186300D01*
X203272Y-185442D01*
X202786Y-184714D01*
X202058Y-184228D01*
X201200Y-184057D01*
D02*
G37*
G36*
X128700Y-186457D02*
X127842Y-186628D01*
X127114Y-187114D01*
X126628Y-187842D01*
X126457Y-188700D01*
X126628Y-189558D01*
X127114Y-190286D01*
X127842Y-190772D01*
X128700Y-190943D01*
X129558Y-190772D01*
X130286Y-190286D01*
X130772Y-189558D01*
X130943Y-188700D01*
X130772Y-187842D01*
X130286Y-187114D01*
X129558Y-186628D01*
X128700Y-186457D01*
D02*
G37*
G36*
X44510Y-189666D02*
X43651Y-189837D01*
X42924Y-190323D01*
X42437Y-191051D01*
X42266Y-191910D01*
X42437Y-192768D01*
X42924Y-193496D01*
X43651Y-193982D01*
X44510Y-194153D01*
X45368Y-193982D01*
X46096Y-193496D01*
X46582Y-192768D01*
X46753Y-191910D01*
X46582Y-191051D01*
X46096Y-190323D01*
X45368Y-189837D01*
X44510Y-189666D01*
D02*
G37*
G36*
X190200Y-192157D02*
X189342Y-192328D01*
X188614Y-192814D01*
X188128Y-193542D01*
X187957Y-194400D01*
X188128Y-195258D01*
X188614Y-195986D01*
X189342Y-196472D01*
X190200Y-196643D01*
X191058Y-196472D01*
X191786Y-195986D01*
X192272Y-195258D01*
X192443Y-194400D01*
X192272Y-193542D01*
X191786Y-192814D01*
X191058Y-192328D01*
X190200Y-192157D01*
D02*
G37*
G36*
X91600Y-198657D02*
X90742Y-198828D01*
X90014Y-199314D01*
X89528Y-200042D01*
X89357Y-200900D01*
X89528Y-201758D01*
X90014Y-202486D01*
X90742Y-202972D01*
X91600Y-203143D01*
X92458Y-202972D01*
X93186Y-202486D01*
X93672Y-201758D01*
X93843Y-200900D01*
X93672Y-200042D01*
X93186Y-199314D01*
X92458Y-198828D01*
X91600Y-198657D01*
D02*
G37*
G36*
X175530Y-199127D02*
X174671Y-199298D01*
X173944Y-199784D01*
X173458Y-200512D01*
X173287Y-201370D01*
X173458Y-202228D01*
X173944Y-202956D01*
X174671Y-203443D01*
X175530Y-203613D01*
X176388Y-203443D01*
X177116Y-202956D01*
X177602Y-202228D01*
X177773Y-201370D01*
X177602Y-200512D01*
X177116Y-199784D01*
X176388Y-199298D01*
X175530Y-199127D01*
D02*
G37*
G36*
X97500Y-203557D02*
X96642Y-203728D01*
X95914Y-204214D01*
X95428Y-204942D01*
X95257Y-205800D01*
X95428Y-206658D01*
X95914Y-207386D01*
X96642Y-207872D01*
X97500Y-208043D01*
X98358Y-207872D01*
X99086Y-207386D01*
X99572Y-206658D01*
X99743Y-205800D01*
X99572Y-204942D01*
X99086Y-204214D01*
X98358Y-203728D01*
X97500Y-203557D01*
D02*
G37*
G36*
X144446Y-204257D02*
X143588Y-204428D01*
X142860Y-204914D01*
X142374Y-205642D01*
X142203Y-206500D01*
X142374Y-207358D01*
X142860Y-208086D01*
X143588Y-208572D01*
X144446Y-208743D01*
X145305Y-208572D01*
X146032Y-208086D01*
X146519Y-207358D01*
X146689Y-206500D01*
X146519Y-205642D01*
X146032Y-204914D01*
X145305Y-204428D01*
X144446Y-204257D01*
D02*
G37*
G36*
X117400Y-204357D02*
X116542Y-204528D01*
X115814Y-205014D01*
X115328Y-205742D01*
X115157Y-206600D01*
X115328Y-207458D01*
X115814Y-208186D01*
X116542Y-208672D01*
X117400Y-208843D01*
X118258Y-208672D01*
X118986Y-208186D01*
X119472Y-207458D01*
X119643Y-206600D01*
X119472Y-205742D01*
X118986Y-205014D01*
X118258Y-204528D01*
X117400Y-204357D01*
D02*
G37*
G36*
X61158Y-205629D02*
X60300Y-205800D01*
X59572Y-206286D01*
X59086Y-207014D01*
X58915Y-207872D01*
X59086Y-208731D01*
X59572Y-209458D01*
X60300Y-209945D01*
X61158Y-210116D01*
X62017Y-209945D01*
X62744Y-209458D01*
X63231Y-208731D01*
X63402Y-207872D01*
X63231Y-207014D01*
X62744Y-206286D01*
X62017Y-205800D01*
X61158Y-205629D01*
D02*
G37*
G36*
X73600Y-206257D02*
X72742Y-206428D01*
X72014Y-206914D01*
X71528Y-207642D01*
X71357Y-208500D01*
X71528Y-209358D01*
X72014Y-210086D01*
X72742Y-210572D01*
X73600Y-210743D01*
X74458Y-210572D01*
X75186Y-210086D01*
X75672Y-209358D01*
X75843Y-208500D01*
X75672Y-207642D01*
X75186Y-206914D01*
X74458Y-206428D01*
X73600Y-206257D01*
D02*
G37*
G36*
X222670Y-211527D02*
X221812Y-211698D01*
X221084Y-212184D01*
X220598Y-212912D01*
X220427Y-213770D01*
X220598Y-214629D01*
X221084Y-215356D01*
X221812Y-215843D01*
X222670Y-216013D01*
X223529Y-215843D01*
X224256Y-215356D01*
X224743Y-214629D01*
X224913Y-213770D01*
X224743Y-212912D01*
X224256Y-212184D01*
X223529Y-211698D01*
X222670Y-211527D01*
D02*
G37*
G36*
X244800Y-229057D02*
X243942Y-229228D01*
X243214Y-229714D01*
X242728Y-230442D01*
X242557Y-231300D01*
X242728Y-232158D01*
X243214Y-232886D01*
X243942Y-233372D01*
X244800Y-233543D01*
X245658Y-233372D01*
X246386Y-232886D01*
X246872Y-232158D01*
X247043Y-231300D01*
X246872Y-230442D01*
X246386Y-229714D01*
X245658Y-229228D01*
X244800Y-229057D01*
D02*
G37*
G36*
X262267Y-229397D02*
X261409Y-229568D01*
X260681Y-230054D01*
X260195Y-230782D01*
X260024Y-231640D01*
X260195Y-232498D01*
X260681Y-233226D01*
X261409Y-233712D01*
X262267Y-233883D01*
X263125Y-233712D01*
X263853Y-233226D01*
X264339Y-232498D01*
X264510Y-231640D01*
X264339Y-230782D01*
X263853Y-230054D01*
X263125Y-229568D01*
X262267Y-229397D01*
D02*
G37*
G36*
X280200Y-230357D02*
X279342Y-230528D01*
X278614Y-231014D01*
X278128Y-231742D01*
X277957Y-232600D01*
X278128Y-233458D01*
X278614Y-234186D01*
X279342Y-234672D01*
X280200Y-234843D01*
X281058Y-234672D01*
X281786Y-234186D01*
X282272Y-233458D01*
X282443Y-232600D01*
X282272Y-231742D01*
X281786Y-231014D01*
X281058Y-230528D01*
X280200Y-230357D01*
D02*
G37*
G36*
X329700Y-229894D02*
X327767Y-230084D01*
X325909Y-230648D01*
X324197Y-231563D01*
X322695Y-232795D01*
X321463Y-234296D01*
X320548Y-236009D01*
X319984Y-237867D01*
X319794Y-239800D01*
X319984Y-241733D01*
X320548Y-243591D01*
X321463Y-245304D01*
X322695Y-246805D01*
X324197Y-248037D01*
X325909Y-248952D01*
X327767Y-249516D01*
X329700Y-249706D01*
X331632Y-249516D01*
X333491Y-248952D01*
X335204Y-248037D01*
X336705Y-246805D01*
X337936Y-245304D01*
X338852Y-243591D01*
X339416Y-241733D01*
X339606Y-239800D01*
X339416Y-237867D01*
X338852Y-236009D01*
X337936Y-234296D01*
X336705Y-232795D01*
X335204Y-231563D01*
X333491Y-230648D01*
X331632Y-230084D01*
X329700Y-229894D01*
D02*
G37*
G36*
X16100D02*
X14167Y-230084D01*
X12309Y-230648D01*
X10597Y-231563D01*
X9095Y-232795D01*
X7863Y-234296D01*
X6948Y-236009D01*
X6384Y-237867D01*
X6194Y-239800D01*
X6384Y-241733D01*
X6948Y-243591D01*
X7863Y-245304D01*
X9095Y-246805D01*
X10597Y-248037D01*
X12309Y-248952D01*
X14167Y-249516D01*
X16100Y-249706D01*
X18033Y-249516D01*
X19891Y-248952D01*
X21603Y-248037D01*
X23105Y-246805D01*
X24337Y-245304D01*
X25252Y-243591D01*
X25816Y-241733D01*
X26006Y-239800D01*
X25816Y-237867D01*
X25252Y-236009D01*
X24337Y-234296D01*
X23105Y-232795D01*
X21603Y-231563D01*
X19891Y-230648D01*
X18033Y-230084D01*
X16100Y-229894D01*
D02*
G37*
%LPD*%
D96*
X139000Y-18900D02*
D03*
D97*
X128500Y-195000D02*
D03*
X152600Y-206700D02*
D03*
X337000Y-26000D02*
D03*
Y-46000D02*
D03*
Y-86000D02*
D03*
Y-106000D02*
D03*
Y-126000D02*
D03*
Y-146000D02*
D03*
Y-166000D02*
D03*
Y-186000D02*
D03*
Y-226000D02*
D03*
X327000Y-26000D02*
D03*
X332000Y-36000D02*
D03*
X327000Y-46000D02*
D03*
X332000Y-56000D02*
D03*
Y-76000D02*
D03*
X327000Y-86000D02*
D03*
X332000Y-96000D02*
D03*
X327000Y-106000D02*
D03*
X332000Y-116000D02*
D03*
X327000Y-126000D02*
D03*
Y-146000D02*
D03*
X332000Y-176000D02*
D03*
X327000Y-186000D02*
D03*
X332000Y-196000D02*
D03*
X327000Y-226000D02*
D03*
X317000Y-6000D02*
D03*
X322000Y-16000D02*
D03*
Y-56000D02*
D03*
X317000Y-66000D02*
D03*
X322000Y-136000D02*
D03*
X317000Y-146000D02*
D03*
Y-166000D02*
D03*
X322000Y-176000D02*
D03*
X317000Y-206000D02*
D03*
Y-226000D02*
D03*
Y-246000D02*
D03*
X307000Y-6000D02*
D03*
X312000Y-56000D02*
D03*
X307000Y-66000D02*
D03*
X312000Y-136000D02*
D03*
X307000Y-146000D02*
D03*
X312000Y-156000D02*
D03*
X307000Y-166000D02*
D03*
Y-206000D02*
D03*
X312000Y-216000D02*
D03*
X307000Y-226000D02*
D03*
X312000Y-236000D02*
D03*
X307000Y-246000D02*
D03*
X297000Y-6000D02*
D03*
X302000Y-16000D02*
D03*
Y-56000D02*
D03*
Y-136000D02*
D03*
X297000Y-146000D02*
D03*
X302000Y-156000D02*
D03*
X297000Y-166000D02*
D03*
Y-186000D02*
D03*
Y-206000D02*
D03*
X302000Y-216000D02*
D03*
X297000Y-226000D02*
D03*
X287000Y-6000D02*
D03*
Y-46000D02*
D03*
X292000Y-56000D02*
D03*
Y-136000D02*
D03*
X287000Y-146000D02*
D03*
X292000Y-156000D02*
D03*
Y-216000D02*
D03*
X287000Y-246000D02*
D03*
X277000Y-6000D02*
D03*
X282000Y-16000D02*
D03*
X277000Y-126000D02*
D03*
X282000Y-136000D02*
D03*
X277000Y-146000D02*
D03*
X282000Y-156000D02*
D03*
X277000Y-186000D02*
D03*
Y-246000D02*
D03*
X267000Y-26000D02*
D03*
Y-46000D02*
D03*
X272000Y-56000D02*
D03*
Y-96000D02*
D03*
Y-136000D02*
D03*
Y-156000D02*
D03*
Y-176000D02*
D03*
X267000Y-186000D02*
D03*
Y-206000D02*
D03*
X272000Y-236000D02*
D03*
X267000Y-246000D02*
D03*
X257000Y-6000D02*
D03*
Y-26000D02*
D03*
X262000Y-36000D02*
D03*
X257000Y-46000D02*
D03*
X262000Y-56000D02*
D03*
Y-96000D02*
D03*
X257000Y-106000D02*
D03*
X262000Y-156000D02*
D03*
X257000Y-166000D02*
D03*
X262000Y-176000D02*
D03*
X257000Y-186000D02*
D03*
Y-246000D02*
D03*
X247000Y-6000D02*
D03*
X252000Y-16000D02*
D03*
X247000Y-26000D02*
D03*
X252000Y-36000D02*
D03*
X247000Y-46000D02*
D03*
X252000Y-56000D02*
D03*
X247000Y-66000D02*
D03*
Y-86000D02*
D03*
Y-106000D02*
D03*
X252000Y-116000D02*
D03*
X247000Y-126000D02*
D03*
Y-146000D02*
D03*
X252000Y-156000D02*
D03*
X247000Y-166000D02*
D03*
X252000Y-176000D02*
D03*
X247000Y-186000D02*
D03*
Y-246000D02*
D03*
X237000Y-26000D02*
D03*
X242000Y-36000D02*
D03*
X237000Y-46000D02*
D03*
X242000Y-56000D02*
D03*
X237000Y-66000D02*
D03*
Y-106000D02*
D03*
X242000Y-116000D02*
D03*
X237000Y-126000D02*
D03*
Y-166000D02*
D03*
X242000Y-176000D02*
D03*
X237000Y-186000D02*
D03*
Y-246000D02*
D03*
X227000Y-26000D02*
D03*
X232000Y-36000D02*
D03*
X227000Y-46000D02*
D03*
X232000Y-56000D02*
D03*
X227000Y-66000D02*
D03*
Y-106000D02*
D03*
X232000Y-116000D02*
D03*
X227000Y-126000D02*
D03*
Y-166000D02*
D03*
X232000Y-176000D02*
D03*
X227000Y-186000D02*
D03*
Y-206000D02*
D03*
Y-226000D02*
D03*
X217000Y-6000D02*
D03*
Y-26000D02*
D03*
X222000Y-36000D02*
D03*
X217000Y-46000D02*
D03*
X222000Y-56000D02*
D03*
X217000Y-66000D02*
D03*
X222000Y-156000D02*
D03*
X217000Y-186000D02*
D03*
Y-226000D02*
D03*
X222000Y-236000D02*
D03*
X217000Y-246000D02*
D03*
X207000Y-6000D02*
D03*
X212000Y-16000D02*
D03*
X207000Y-26000D02*
D03*
X212000Y-36000D02*
D03*
X207000Y-186000D02*
D03*
X212000Y-236000D02*
D03*
X207000Y-246000D02*
D03*
X197000Y-6000D02*
D03*
X202000Y-16000D02*
D03*
X197000Y-26000D02*
D03*
X202000Y-116000D02*
D03*
Y-136000D02*
D03*
X197000Y-226000D02*
D03*
X202000Y-236000D02*
D03*
X187000Y-6000D02*
D03*
X192000Y-16000D02*
D03*
X187000Y-26000D02*
D03*
X192000Y-56000D02*
D03*
Y-76000D02*
D03*
X187000Y-86000D02*
D03*
Y-126000D02*
D03*
X192000Y-176000D02*
D03*
X187000Y-206000D02*
D03*
X192000Y-216000D02*
D03*
X187000Y-226000D02*
D03*
X177000Y-6000D02*
D03*
X182000Y-16000D02*
D03*
X177000Y-26000D02*
D03*
X182000Y-76000D02*
D03*
Y-176000D02*
D03*
Y-236000D02*
D03*
X177000Y-246000D02*
D03*
X167000Y-6000D02*
D03*
X172000Y-16000D02*
D03*
X167000Y-26000D02*
D03*
Y-86000D02*
D03*
Y-106000D02*
D03*
X172000Y-176000D02*
D03*
Y-236000D02*
D03*
X167000Y-246000D02*
D03*
X157000Y-6000D02*
D03*
X162000Y-16000D02*
D03*
X157000Y-26000D02*
D03*
X162000Y-56000D02*
D03*
X157000Y-66000D02*
D03*
X162000Y-76000D02*
D03*
X157000Y-166000D02*
D03*
X162000Y-236000D02*
D03*
X157000Y-246000D02*
D03*
X147000Y-6000D02*
D03*
X152000Y-16000D02*
D03*
X147000Y-26000D02*
D03*
X152000Y-56000D02*
D03*
X147000Y-66000D02*
D03*
X152000Y-76000D02*
D03*
X147000Y-86000D02*
D03*
Y-226000D02*
D03*
X152000Y-236000D02*
D03*
X137000Y-6000D02*
D03*
Y-26000D02*
D03*
X142000Y-56000D02*
D03*
Y-76000D02*
D03*
Y-216000D02*
D03*
X137000Y-226000D02*
D03*
X127000Y-6000D02*
D03*
X132000Y-16000D02*
D03*
X127000Y-26000D02*
D03*
Y-46000D02*
D03*
X132000Y-56000D02*
D03*
Y-116000D02*
D03*
Y-216000D02*
D03*
X127000Y-226000D02*
D03*
X132000Y-236000D02*
D03*
X127000Y-246000D02*
D03*
X117000Y-6000D02*
D03*
X122000Y-116000D02*
D03*
Y-156000D02*
D03*
Y-216000D02*
D03*
X117000Y-226000D02*
D03*
X107000Y-6000D02*
D03*
X112000Y-16000D02*
D03*
X107000Y-26000D02*
D03*
Y-46000D02*
D03*
X112000Y-56000D02*
D03*
X107000Y-86000D02*
D03*
X112000Y-116000D02*
D03*
Y-136000D02*
D03*
Y-156000D02*
D03*
X107000Y-186000D02*
D03*
X112000Y-236000D02*
D03*
X107000Y-246000D02*
D03*
X97000Y-26000D02*
D03*
Y-46000D02*
D03*
X102000Y-56000D02*
D03*
X97000Y-66000D02*
D03*
Y-86000D02*
D03*
X102000Y-136000D02*
D03*
X97000Y-186000D02*
D03*
X102000Y-236000D02*
D03*
X97000Y-246000D02*
D03*
X87000Y-6000D02*
D03*
X92000Y-16000D02*
D03*
X87000Y-46000D02*
D03*
X92000Y-56000D02*
D03*
X87000Y-66000D02*
D03*
X92000Y-176000D02*
D03*
X87000Y-186000D02*
D03*
X92000Y-196000D02*
D03*
Y-236000D02*
D03*
X87000Y-246000D02*
D03*
X77000Y-6000D02*
D03*
X82000Y-16000D02*
D03*
X77000Y-66000D02*
D03*
X82000Y-156000D02*
D03*
Y-176000D02*
D03*
Y-196000D02*
D03*
Y-216000D02*
D03*
Y-236000D02*
D03*
X77000Y-246000D02*
D03*
X67000Y-26000D02*
D03*
Y-46000D02*
D03*
X72000Y-56000D02*
D03*
X67000Y-66000D02*
D03*
Y-86000D02*
D03*
X72000Y-116000D02*
D03*
X67000Y-146000D02*
D03*
X72000Y-156000D02*
D03*
X67000Y-186000D02*
D03*
X72000Y-196000D02*
D03*
Y-236000D02*
D03*
X67000Y-246000D02*
D03*
X57000Y-6000D02*
D03*
Y-46000D02*
D03*
Y-66000D02*
D03*
X62000Y-76000D02*
D03*
Y-96000D02*
D03*
X57000Y-106000D02*
D03*
X62000Y-116000D02*
D03*
X57000Y-146000D02*
D03*
X62000Y-156000D02*
D03*
Y-176000D02*
D03*
Y-196000D02*
D03*
Y-236000D02*
D03*
X57000Y-246000D02*
D03*
X47000Y-6000D02*
D03*
X52000Y-16000D02*
D03*
X47000Y-26000D02*
D03*
Y-46000D02*
D03*
Y-66000D02*
D03*
X52000Y-76000D02*
D03*
Y-116000D02*
D03*
X47000Y-126000D02*
D03*
X52000Y-156000D02*
D03*
Y-176000D02*
D03*
X47000Y-226000D02*
D03*
X52000Y-236000D02*
D03*
X37000Y-6000D02*
D03*
X42000Y-16000D02*
D03*
X37000Y-26000D02*
D03*
X42000Y-36000D02*
D03*
Y-56000D02*
D03*
X37000Y-66000D02*
D03*
X42000Y-76000D02*
D03*
X37000Y-106000D02*
D03*
X42000Y-116000D02*
D03*
Y-156000D02*
D03*
Y-176000D02*
D03*
Y-216000D02*
D03*
X37000Y-226000D02*
D03*
Y-246000D02*
D03*
X32000Y-16000D02*
D03*
X27000Y-26000D02*
D03*
X32000Y-36000D02*
D03*
X27000Y-66000D02*
D03*
X32000Y-76000D02*
D03*
X27000Y-106000D02*
D03*
X32000Y-116000D02*
D03*
X27000Y-226000D02*
D03*
X32000Y-236000D02*
D03*
X17000Y-46000D02*
D03*
X22000Y-56000D02*
D03*
X17000Y-86000D02*
D03*
X22000Y-96000D02*
D03*
X17000Y-126000D02*
D03*
X22000Y-136000D02*
D03*
X17000Y-146000D02*
D03*
X22000Y-156000D02*
D03*
X17000Y-166000D02*
D03*
X22000Y-176000D02*
D03*
X17000Y-186000D02*
D03*
X22000Y-196000D02*
D03*
X17000Y-206000D02*
D03*
X7000Y-46000D02*
D03*
X12000Y-56000D02*
D03*
X7000Y-86000D02*
D03*
X12000Y-96000D02*
D03*
X7000Y-126000D02*
D03*
X12000Y-136000D02*
D03*
X7000Y-146000D02*
D03*
X12000Y-156000D02*
D03*
X7000Y-166000D02*
D03*
X12000Y-176000D02*
D03*
X7000Y-186000D02*
D03*
X12000Y-196000D02*
D03*
X7000Y-206000D02*
D03*
X150700Y-107800D02*
D03*
X189900Y-89300D02*
D03*
X159800Y-96100D02*
D03*
X223400Y-119600D02*
D03*
X217500Y-134200D02*
D03*
X225300Y-174200D02*
D03*
X198300Y-168300D02*
D03*
X171300Y-172700D02*
D03*
X268000Y-202100D02*
D03*
X251100Y-202400D02*
D03*
X232600Y-218300D02*
D03*
X210700Y-214300D02*
D03*
X172700Y-96800D02*
D03*
M02*
