G04*
G04 #@! TF.GenerationSoftware,Altium Limited,Altium Designer,22.3.1 (43)*
G04*
G04 Layer_Physical_Order=3*
G04 Layer_Color=16776960*
%FSLAX25Y25*%
%MOIN*%
G70*
G04*
G04 #@! TF.SameCoordinates,ADBFED44-BD27-400C-BC08-764E4E0E5164*
G04*
G04*
G04 #@! TF.FilePolarity,Positive*
G04*
G01*
G75*
%ADD97C,0.02400*%
G36*
X342192Y6162D02*
X342224Y6169D01*
X342256Y6163D01*
X342867Y6182D01*
X344075Y5982D01*
X345219Y5549D01*
X346258Y4902D01*
X347150Y4064D01*
X347862Y3069D01*
X348366Y1954D01*
X348643Y762D01*
X348662Y167D01*
X348663Y-251825D01*
X348668Y-251849D01*
X348664Y-251872D01*
X348665Y-251930D01*
X348666Y-251975D01*
X348666Y-252055D01*
Y-252650D01*
X348437Y-253827D01*
X347987Y-254938D01*
X347333Y-255943D01*
X346499Y-256805D01*
X345515Y-257491D01*
X344419Y-257977D01*
X343250Y-258244D01*
X342668Y-258262D01*
X2309Y-258162D01*
X2276Y-258169D01*
X2244Y-258163D01*
X1634Y-258183D01*
X429Y-257982D01*
X-714Y-257550D01*
X-1750Y-256904D01*
X-2641Y-256068D01*
X-3352Y-255075D01*
X-3855Y-253962D01*
X-4132Y-252772D01*
X-4151Y-252178D01*
X-4534Y-364D01*
X-4569Y-188D01*
X-4563Y-150D01*
X-4565Y-100D01*
X-4564Y-97D01*
X-4565Y-91D01*
X-4583Y461D01*
X-4383Y1670D01*
X-3951Y2815D01*
X-3304Y3855D01*
X-2466Y4748D01*
X-1471Y5461D01*
X-355Y5966D01*
X838Y6243D01*
X1182Y6255D01*
X1352Y6188D01*
X1514Y6191D01*
X1673Y6156D01*
X1744Y6154D01*
X1952Y6191D01*
X2163Y6189D01*
X2340Y6261D01*
X2350Y6262D01*
X342192Y6162D01*
D02*
G37*
%LPC*%
G36*
X317438Y-3800D02*
X316562D01*
X315754Y-4135D01*
X315135Y-4754D01*
X314800Y-5562D01*
Y-6438D01*
X315135Y-7246D01*
X315754Y-7865D01*
X316562Y-8200D01*
X317438D01*
X318246Y-7865D01*
X318865Y-7246D01*
X319200Y-6438D01*
Y-5562D01*
X318865Y-4754D01*
X318246Y-4135D01*
X317438Y-3800D01*
D02*
G37*
G36*
X307438D02*
X306562D01*
X305754Y-4135D01*
X305135Y-4754D01*
X304800Y-5562D01*
Y-6438D01*
X305135Y-7246D01*
X305754Y-7865D01*
X306562Y-8200D01*
X307438D01*
X308246Y-7865D01*
X308865Y-7246D01*
X309200Y-6438D01*
Y-5562D01*
X308865Y-4754D01*
X308246Y-4135D01*
X307438Y-3800D01*
D02*
G37*
G36*
X297438D02*
X296562D01*
X295754Y-4135D01*
X295135Y-4754D01*
X294800Y-5562D01*
Y-6438D01*
X295135Y-7246D01*
X295754Y-7865D01*
X296562Y-8200D01*
X297438D01*
X298246Y-7865D01*
X298865Y-7246D01*
X299200Y-6438D01*
Y-5562D01*
X298865Y-4754D01*
X298246Y-4135D01*
X297438Y-3800D01*
D02*
G37*
G36*
X287438D02*
X286562D01*
X285754Y-4135D01*
X285135Y-4754D01*
X284800Y-5562D01*
Y-6438D01*
X285135Y-7246D01*
X285754Y-7865D01*
X286562Y-8200D01*
X287438D01*
X288246Y-7865D01*
X288865Y-7246D01*
X289200Y-6438D01*
Y-5562D01*
X288865Y-4754D01*
X288246Y-4135D01*
X287438Y-3800D01*
D02*
G37*
G36*
X277438D02*
X276562D01*
X275754Y-4135D01*
X275135Y-4754D01*
X274800Y-5562D01*
Y-6438D01*
X275135Y-7246D01*
X275754Y-7865D01*
X276562Y-8200D01*
X277438D01*
X278246Y-7865D01*
X278865Y-7246D01*
X279200Y-6438D01*
Y-5562D01*
X278865Y-4754D01*
X278246Y-4135D01*
X277438Y-3800D01*
D02*
G37*
G36*
X257438D02*
X256562D01*
X255754Y-4135D01*
X255135Y-4754D01*
X254800Y-5562D01*
Y-6438D01*
X255135Y-7246D01*
X255754Y-7865D01*
X256562Y-8200D01*
X257438D01*
X258246Y-7865D01*
X258865Y-7246D01*
X259200Y-6438D01*
Y-5562D01*
X258865Y-4754D01*
X258246Y-4135D01*
X257438Y-3800D01*
D02*
G37*
G36*
X247438D02*
X246562D01*
X245754Y-4135D01*
X245135Y-4754D01*
X244800Y-5562D01*
Y-6438D01*
X245135Y-7246D01*
X245754Y-7865D01*
X246562Y-8200D01*
X247438D01*
X248246Y-7865D01*
X248865Y-7246D01*
X249200Y-6438D01*
Y-5562D01*
X248865Y-4754D01*
X248246Y-4135D01*
X247438Y-3800D01*
D02*
G37*
G36*
X217438D02*
X216562D01*
X215754Y-4135D01*
X215135Y-4754D01*
X214800Y-5562D01*
Y-6438D01*
X215135Y-7246D01*
X215754Y-7865D01*
X216562Y-8200D01*
X217438D01*
X218246Y-7865D01*
X218865Y-7246D01*
X219200Y-6438D01*
Y-5562D01*
X218865Y-4754D01*
X218246Y-4135D01*
X217438Y-3800D01*
D02*
G37*
G36*
X207438D02*
X206562D01*
X205754Y-4135D01*
X205135Y-4754D01*
X204800Y-5562D01*
Y-6438D01*
X205135Y-7246D01*
X205754Y-7865D01*
X206562Y-8200D01*
X207438D01*
X208246Y-7865D01*
X208865Y-7246D01*
X209200Y-6438D01*
Y-5562D01*
X208865Y-4754D01*
X208246Y-4135D01*
X207438Y-3800D01*
D02*
G37*
G36*
X197438D02*
X196562D01*
X195754Y-4135D01*
X195135Y-4754D01*
X194800Y-5562D01*
Y-6438D01*
X195135Y-7246D01*
X195754Y-7865D01*
X196562Y-8200D01*
X197438D01*
X198246Y-7865D01*
X198865Y-7246D01*
X199200Y-6438D01*
Y-5562D01*
X198865Y-4754D01*
X198246Y-4135D01*
X197438Y-3800D01*
D02*
G37*
G36*
X187438D02*
X186562D01*
X185754Y-4135D01*
X185135Y-4754D01*
X184800Y-5562D01*
Y-6438D01*
X185135Y-7246D01*
X185754Y-7865D01*
X186562Y-8200D01*
X187438D01*
X188246Y-7865D01*
X188865Y-7246D01*
X189200Y-6438D01*
Y-5562D01*
X188865Y-4754D01*
X188246Y-4135D01*
X187438Y-3800D01*
D02*
G37*
G36*
X177438D02*
X176562D01*
X175754Y-4135D01*
X175135Y-4754D01*
X174800Y-5562D01*
Y-6438D01*
X175135Y-7246D01*
X175754Y-7865D01*
X176562Y-8200D01*
X177438D01*
X178246Y-7865D01*
X178865Y-7246D01*
X179200Y-6438D01*
Y-5562D01*
X178865Y-4754D01*
X178246Y-4135D01*
X177438Y-3800D01*
D02*
G37*
G36*
X167438D02*
X166562D01*
X165754Y-4135D01*
X165135Y-4754D01*
X164800Y-5562D01*
Y-6438D01*
X165135Y-7246D01*
X165754Y-7865D01*
X166562Y-8200D01*
X167438D01*
X168246Y-7865D01*
X168865Y-7246D01*
X169200Y-6438D01*
Y-5562D01*
X168865Y-4754D01*
X168246Y-4135D01*
X167438Y-3800D01*
D02*
G37*
G36*
X157438D02*
X156562D01*
X155754Y-4135D01*
X155135Y-4754D01*
X154800Y-5562D01*
Y-6438D01*
X155135Y-7246D01*
X155754Y-7865D01*
X156562Y-8200D01*
X157438D01*
X158246Y-7865D01*
X158865Y-7246D01*
X159200Y-6438D01*
Y-5562D01*
X158865Y-4754D01*
X158246Y-4135D01*
X157438Y-3800D01*
D02*
G37*
G36*
X147438D02*
X146562D01*
X145754Y-4135D01*
X145135Y-4754D01*
X144800Y-5562D01*
Y-6438D01*
X145135Y-7246D01*
X145754Y-7865D01*
X146562Y-8200D01*
X147438D01*
X148246Y-7865D01*
X148865Y-7246D01*
X149200Y-6438D01*
Y-5562D01*
X148865Y-4754D01*
X148246Y-4135D01*
X147438Y-3800D01*
D02*
G37*
G36*
X137438D02*
X136562D01*
X135754Y-4135D01*
X135135Y-4754D01*
X134800Y-5562D01*
Y-6438D01*
X135135Y-7246D01*
X135754Y-7865D01*
X136562Y-8200D01*
X137438D01*
X138246Y-7865D01*
X138865Y-7246D01*
X139200Y-6438D01*
Y-5562D01*
X138865Y-4754D01*
X138246Y-4135D01*
X137438Y-3800D01*
D02*
G37*
G36*
X127438D02*
X126562D01*
X125754Y-4135D01*
X125135Y-4754D01*
X124800Y-5562D01*
Y-6438D01*
X125135Y-7246D01*
X125754Y-7865D01*
X126562Y-8200D01*
X127438D01*
X128246Y-7865D01*
X128865Y-7246D01*
X129200Y-6438D01*
Y-5562D01*
X128865Y-4754D01*
X128246Y-4135D01*
X127438Y-3800D01*
D02*
G37*
G36*
X117438D02*
X116562D01*
X115754Y-4135D01*
X115135Y-4754D01*
X114800Y-5562D01*
Y-6438D01*
X115135Y-7246D01*
X115754Y-7865D01*
X116562Y-8200D01*
X117438D01*
X118246Y-7865D01*
X118865Y-7246D01*
X119200Y-6438D01*
Y-5562D01*
X118865Y-4754D01*
X118246Y-4135D01*
X117438Y-3800D01*
D02*
G37*
G36*
X107438D02*
X106562D01*
X105754Y-4135D01*
X105135Y-4754D01*
X104800Y-5562D01*
Y-6438D01*
X105135Y-7246D01*
X105754Y-7865D01*
X106562Y-8200D01*
X107438D01*
X108246Y-7865D01*
X108865Y-7246D01*
X109200Y-6438D01*
Y-5562D01*
X108865Y-4754D01*
X108246Y-4135D01*
X107438Y-3800D01*
D02*
G37*
G36*
X87438D02*
X86562D01*
X85754Y-4135D01*
X85135Y-4754D01*
X84800Y-5562D01*
Y-6438D01*
X85135Y-7246D01*
X85754Y-7865D01*
X86562Y-8200D01*
X87438D01*
X88246Y-7865D01*
X88865Y-7246D01*
X89200Y-6438D01*
Y-5562D01*
X88865Y-4754D01*
X88246Y-4135D01*
X87438Y-3800D01*
D02*
G37*
G36*
X77438D02*
X76562D01*
X75754Y-4135D01*
X75135Y-4754D01*
X74800Y-5562D01*
Y-6438D01*
X75135Y-7246D01*
X75754Y-7865D01*
X76562Y-8200D01*
X77438D01*
X78246Y-7865D01*
X78865Y-7246D01*
X79200Y-6438D01*
Y-5562D01*
X78865Y-4754D01*
X78246Y-4135D01*
X77438Y-3800D01*
D02*
G37*
G36*
X57438D02*
X56562D01*
X55754Y-4135D01*
X55135Y-4754D01*
X54800Y-5562D01*
Y-6438D01*
X55135Y-7246D01*
X55754Y-7865D01*
X56562Y-8200D01*
X57438D01*
X58246Y-7865D01*
X58865Y-7246D01*
X59200Y-6438D01*
Y-5562D01*
X58865Y-4754D01*
X58246Y-4135D01*
X57438Y-3800D01*
D02*
G37*
G36*
X47438D02*
X46562D01*
X45754Y-4135D01*
X45135Y-4754D01*
X44800Y-5562D01*
Y-6438D01*
X45135Y-7246D01*
X45754Y-7865D01*
X46562Y-8200D01*
X47438D01*
X48246Y-7865D01*
X48865Y-7246D01*
X49200Y-6438D01*
Y-5562D01*
X48865Y-4754D01*
X48246Y-4135D01*
X47438Y-3800D01*
D02*
G37*
G36*
X37438D02*
X36562D01*
X35754Y-4135D01*
X35135Y-4754D01*
X34800Y-5562D01*
Y-6438D01*
X35135Y-7246D01*
X35754Y-7865D01*
X36562Y-8200D01*
X37438D01*
X38246Y-7865D01*
X38865Y-7246D01*
X39200Y-6438D01*
Y-5562D01*
X38865Y-4754D01*
X38246Y-4135D01*
X37438Y-3800D01*
D02*
G37*
G36*
X139728Y-13372D02*
X138272D01*
X136866Y-13749D01*
X135606Y-14477D01*
X134662Y-15421D01*
X134285Y-15396D01*
X134103Y-15327D01*
X133865Y-14754D01*
X133246Y-14135D01*
X132438Y-13800D01*
X131562D01*
X130754Y-14135D01*
X130135Y-14754D01*
X129800Y-15562D01*
Y-16438D01*
X130135Y-17246D01*
X130754Y-17865D01*
X131562Y-18200D01*
X132438D01*
X133011Y-17963D01*
X133189Y-18044D01*
X133472Y-18292D01*
Y-19628D01*
X133849Y-21034D01*
X134577Y-22294D01*
X135606Y-23323D01*
X135997Y-23549D01*
X135964Y-24048D01*
X135754Y-24135D01*
X135135Y-24754D01*
X134800Y-25562D01*
Y-26438D01*
X135135Y-27246D01*
X135754Y-27865D01*
X136562Y-28200D01*
X137438D01*
X138246Y-27865D01*
X138865Y-27246D01*
X139200Y-26438D01*
Y-25562D01*
X138937Y-24928D01*
X139192Y-24428D01*
X139728D01*
X141134Y-24051D01*
X142394Y-23323D01*
X143423Y-22294D01*
X144151Y-21034D01*
X144528Y-19628D01*
Y-18172D01*
X144151Y-16766D01*
X143423Y-15506D01*
X142394Y-14477D01*
X141134Y-13749D01*
X139728Y-13372D01*
D02*
G37*
G36*
X120043D02*
X118587D01*
X117181Y-13749D01*
X115921Y-14477D01*
X114892Y-15506D01*
X114700Y-15838D01*
X114200Y-15704D01*
Y-15562D01*
X113865Y-14754D01*
X113246Y-14135D01*
X112438Y-13800D01*
X111562D01*
X110754Y-14135D01*
X110135Y-14754D01*
X109800Y-15562D01*
Y-16438D01*
X110135Y-17246D01*
X110754Y-17865D01*
X111562Y-18200D01*
X112438D01*
X113246Y-17865D01*
X113391Y-17720D01*
X113839Y-17979D01*
X113787Y-18172D01*
Y-19628D01*
X114164Y-21034D01*
X114892Y-22294D01*
X115921Y-23323D01*
X117181Y-24051D01*
X118587Y-24428D01*
X120043D01*
X121449Y-24051D01*
X122709Y-23323D01*
X123738Y-22294D01*
X124466Y-21034D01*
X124843Y-19628D01*
Y-18172D01*
X124466Y-16766D01*
X123738Y-15506D01*
X122709Y-14477D01*
X121449Y-13749D01*
X120043Y-13372D01*
D02*
G37*
G36*
X322438Y-13800D02*
X321562D01*
X320754Y-14135D01*
X320135Y-14754D01*
X319800Y-15562D01*
Y-16438D01*
X320135Y-17246D01*
X320754Y-17865D01*
X321562Y-18200D01*
X322438D01*
X323246Y-17865D01*
X323865Y-17246D01*
X324200Y-16438D01*
Y-15562D01*
X323865Y-14754D01*
X323246Y-14135D01*
X322438Y-13800D01*
D02*
G37*
G36*
X302438D02*
X301562D01*
X300754Y-14135D01*
X300135Y-14754D01*
X299800Y-15562D01*
Y-16438D01*
X300135Y-17246D01*
X300754Y-17865D01*
X301562Y-18200D01*
X302438D01*
X303246Y-17865D01*
X303865Y-17246D01*
X304200Y-16438D01*
Y-15562D01*
X303865Y-14754D01*
X303246Y-14135D01*
X302438Y-13800D01*
D02*
G37*
G36*
X282438D02*
X281562D01*
X280754Y-14135D01*
X280135Y-14754D01*
X279800Y-15562D01*
Y-16438D01*
X280135Y-17246D01*
X280754Y-17865D01*
X281562Y-18200D01*
X282438D01*
X283246Y-17865D01*
X283865Y-17246D01*
X284200Y-16438D01*
Y-15562D01*
X283865Y-14754D01*
X283246Y-14135D01*
X282438Y-13800D01*
D02*
G37*
G36*
X252438D02*
X251562D01*
X250754Y-14135D01*
X250135Y-14754D01*
X249800Y-15562D01*
Y-16438D01*
X250135Y-17246D01*
X250754Y-17865D01*
X251562Y-18200D01*
X252438D01*
X253246Y-17865D01*
X253865Y-17246D01*
X254200Y-16438D01*
Y-15562D01*
X253865Y-14754D01*
X253246Y-14135D01*
X252438Y-13800D01*
D02*
G37*
G36*
X212438D02*
X211562D01*
X210754Y-14135D01*
X210135Y-14754D01*
X209800Y-15562D01*
Y-16438D01*
X210135Y-17246D01*
X210754Y-17865D01*
X211562Y-18200D01*
X212438D01*
X213246Y-17865D01*
X213865Y-17246D01*
X214200Y-16438D01*
Y-15562D01*
X213865Y-14754D01*
X213246Y-14135D01*
X212438Y-13800D01*
D02*
G37*
G36*
X202438D02*
X201562D01*
X200754Y-14135D01*
X200135Y-14754D01*
X199800Y-15562D01*
Y-16438D01*
X200135Y-17246D01*
X200754Y-17865D01*
X201562Y-18200D01*
X202438D01*
X203246Y-17865D01*
X203865Y-17246D01*
X204200Y-16438D01*
Y-15562D01*
X203865Y-14754D01*
X203246Y-14135D01*
X202438Y-13800D01*
D02*
G37*
G36*
X192438D02*
X191562D01*
X190754Y-14135D01*
X190135Y-14754D01*
X189800Y-15562D01*
Y-16438D01*
X190135Y-17246D01*
X190754Y-17865D01*
X191562Y-18200D01*
X192438D01*
X193246Y-17865D01*
X193865Y-17246D01*
X194200Y-16438D01*
Y-15562D01*
X193865Y-14754D01*
X193246Y-14135D01*
X192438Y-13800D01*
D02*
G37*
G36*
X182438D02*
X181562D01*
X180754Y-14135D01*
X180135Y-14754D01*
X179800Y-15562D01*
Y-16438D01*
X180135Y-17246D01*
X180754Y-17865D01*
X181562Y-18200D01*
X182438D01*
X183246Y-17865D01*
X183865Y-17246D01*
X184200Y-16438D01*
Y-15562D01*
X183865Y-14754D01*
X183246Y-14135D01*
X182438Y-13800D01*
D02*
G37*
G36*
X172438D02*
X171562D01*
X170754Y-14135D01*
X170135Y-14754D01*
X169800Y-15562D01*
Y-16438D01*
X170135Y-17246D01*
X170754Y-17865D01*
X171562Y-18200D01*
X172438D01*
X173246Y-17865D01*
X173865Y-17246D01*
X174200Y-16438D01*
Y-15562D01*
X173865Y-14754D01*
X173246Y-14135D01*
X172438Y-13800D01*
D02*
G37*
G36*
X162438D02*
X161562D01*
X160754Y-14135D01*
X160135Y-14754D01*
X159800Y-15562D01*
Y-16438D01*
X160135Y-17246D01*
X160754Y-17865D01*
X161562Y-18200D01*
X162438D01*
X163246Y-17865D01*
X163865Y-17246D01*
X164200Y-16438D01*
Y-15562D01*
X163865Y-14754D01*
X163246Y-14135D01*
X162438Y-13800D01*
D02*
G37*
G36*
X152438D02*
X151562D01*
X150754Y-14135D01*
X150135Y-14754D01*
X149800Y-15562D01*
Y-16438D01*
X150135Y-17246D01*
X150754Y-17865D01*
X151562Y-18200D01*
X152438D01*
X153246Y-17865D01*
X153865Y-17246D01*
X154200Y-16438D01*
Y-15562D01*
X153865Y-14754D01*
X153246Y-14135D01*
X152438Y-13800D01*
D02*
G37*
G36*
X92438D02*
X91562D01*
X90754Y-14135D01*
X90135Y-14754D01*
X89800Y-15562D01*
Y-16438D01*
X90135Y-17246D01*
X90754Y-17865D01*
X91562Y-18200D01*
X92438D01*
X93246Y-17865D01*
X93865Y-17246D01*
X94200Y-16438D01*
Y-15562D01*
X93865Y-14754D01*
X93246Y-14135D01*
X92438Y-13800D01*
D02*
G37*
G36*
X82438D02*
X81562D01*
X80754Y-14135D01*
X80135Y-14754D01*
X79800Y-15562D01*
Y-16438D01*
X80135Y-17246D01*
X80754Y-17865D01*
X81562Y-18200D01*
X82438D01*
X83246Y-17865D01*
X83865Y-17246D01*
X84200Y-16438D01*
Y-15562D01*
X83865Y-14754D01*
X83246Y-14135D01*
X82438Y-13800D01*
D02*
G37*
G36*
X52438D02*
X51562D01*
X50754Y-14135D01*
X50135Y-14754D01*
X49800Y-15562D01*
Y-16438D01*
X50135Y-17246D01*
X50754Y-17865D01*
X51562Y-18200D01*
X52438D01*
X53246Y-17865D01*
X53865Y-17246D01*
X54200Y-16438D01*
Y-15562D01*
X53865Y-14754D01*
X53246Y-14135D01*
X52438Y-13800D01*
D02*
G37*
G36*
X42438D02*
X41562D01*
X40754Y-14135D01*
X40135Y-14754D01*
X39800Y-15562D01*
Y-16438D01*
X40135Y-17246D01*
X40754Y-17865D01*
X41562Y-18200D01*
X42438D01*
X43246Y-17865D01*
X43865Y-17246D01*
X44200Y-16438D01*
Y-15562D01*
X43865Y-14754D01*
X43246Y-14135D01*
X42438Y-13800D01*
D02*
G37*
G36*
X32438D02*
X31562D01*
X30754Y-14135D01*
X30135Y-14754D01*
X29800Y-15562D01*
Y-16438D01*
X30135Y-17246D01*
X30754Y-17865D01*
X31562Y-18200D01*
X32438D01*
X33246Y-17865D01*
X33865Y-17246D01*
X34200Y-16438D01*
Y-15562D01*
X33865Y-14754D01*
X33246Y-14135D01*
X32438Y-13800D01*
D02*
G37*
G36*
X234271Y-2442D02*
X232329D01*
X230424Y-2821D01*
X228630Y-3564D01*
X227016Y-4643D01*
X225643Y-6016D01*
X224564Y-7630D01*
X223821Y-9425D01*
X223442Y-11329D01*
Y-13271D01*
X223821Y-15176D01*
X224564Y-16970D01*
X225643Y-18584D01*
X227016Y-19957D01*
X228630Y-21036D01*
X230424Y-21779D01*
X232329Y-22158D01*
X234271D01*
X236176Y-21779D01*
X237970Y-21036D01*
X239584Y-19957D01*
X240957Y-18584D01*
X242036Y-16970D01*
X242779Y-15176D01*
X243158Y-13271D01*
Y-11329D01*
X242779Y-9425D01*
X242036Y-7630D01*
X240957Y-6016D01*
X239584Y-4643D01*
X237970Y-3564D01*
X236176Y-2821D01*
X234271Y-2442D01*
D02*
G37*
G36*
X17071D02*
X15129D01*
X13224Y-2821D01*
X11430Y-3564D01*
X9816Y-4643D01*
X8443Y-6016D01*
X7364Y-7630D01*
X6621Y-9425D01*
X6242Y-11329D01*
Y-13271D01*
X6621Y-15176D01*
X7364Y-16970D01*
X8443Y-18584D01*
X9816Y-19957D01*
X11430Y-21036D01*
X13224Y-21779D01*
X15129Y-22158D01*
X17071D01*
X18976Y-21779D01*
X20770Y-21036D01*
X22384Y-19957D01*
X23757Y-18584D01*
X24836Y-16970D01*
X25579Y-15176D01*
X25958Y-13271D01*
Y-11329D01*
X25579Y-9425D01*
X24836Y-7630D01*
X23757Y-6016D01*
X22384Y-4643D01*
X20770Y-3564D01*
X18976Y-2821D01*
X17071Y-2442D01*
D02*
G37*
G36*
X337438Y-23800D02*
X336562D01*
X335754Y-24135D01*
X335135Y-24754D01*
X334800Y-25562D01*
Y-26438D01*
X335135Y-27246D01*
X335754Y-27865D01*
X336562Y-28200D01*
X337438D01*
X338246Y-27865D01*
X338865Y-27246D01*
X339200Y-26438D01*
Y-25562D01*
X338865Y-24754D01*
X338246Y-24135D01*
X337438Y-23800D01*
D02*
G37*
G36*
X327438D02*
X326562D01*
X325754Y-24135D01*
X325135Y-24754D01*
X324800Y-25562D01*
Y-26438D01*
X325135Y-27246D01*
X325754Y-27865D01*
X326562Y-28200D01*
X327438D01*
X328246Y-27865D01*
X328865Y-27246D01*
X329200Y-26438D01*
Y-25562D01*
X328865Y-24754D01*
X328246Y-24135D01*
X327438Y-23800D01*
D02*
G37*
G36*
X267438D02*
X266562D01*
X265754Y-24135D01*
X265135Y-24754D01*
X264800Y-25562D01*
Y-26438D01*
X265135Y-27246D01*
X265754Y-27865D01*
X266562Y-28200D01*
X267438D01*
X268246Y-27865D01*
X268865Y-27246D01*
X269200Y-26438D01*
Y-25562D01*
X268865Y-24754D01*
X268246Y-24135D01*
X267438Y-23800D01*
D02*
G37*
G36*
X257438D02*
X256562D01*
X255754Y-24135D01*
X255135Y-24754D01*
X254800Y-25562D01*
Y-26438D01*
X255135Y-27246D01*
X255754Y-27865D01*
X256562Y-28200D01*
X257438D01*
X258246Y-27865D01*
X258865Y-27246D01*
X259200Y-26438D01*
Y-25562D01*
X258865Y-24754D01*
X258246Y-24135D01*
X257438Y-23800D01*
D02*
G37*
G36*
X247438D02*
X246562D01*
X245754Y-24135D01*
X245135Y-24754D01*
X244800Y-25562D01*
Y-26438D01*
X245135Y-27246D01*
X245754Y-27865D01*
X246562Y-28200D01*
X247438D01*
X248246Y-27865D01*
X248865Y-27246D01*
X249200Y-26438D01*
Y-25562D01*
X248865Y-24754D01*
X248246Y-24135D01*
X247438Y-23800D01*
D02*
G37*
G36*
X237438D02*
X236562D01*
X235754Y-24135D01*
X235135Y-24754D01*
X234800Y-25562D01*
Y-26438D01*
X235135Y-27246D01*
X235754Y-27865D01*
X236562Y-28200D01*
X237438D01*
X238246Y-27865D01*
X238865Y-27246D01*
X239200Y-26438D01*
Y-25562D01*
X238865Y-24754D01*
X238246Y-24135D01*
X237438Y-23800D01*
D02*
G37*
G36*
X227438D02*
X226562D01*
X225754Y-24135D01*
X225135Y-24754D01*
X224800Y-25562D01*
Y-26438D01*
X225135Y-27246D01*
X225754Y-27865D01*
X226562Y-28200D01*
X227438D01*
X228246Y-27865D01*
X228865Y-27246D01*
X229200Y-26438D01*
Y-25562D01*
X228865Y-24754D01*
X228246Y-24135D01*
X227438Y-23800D01*
D02*
G37*
G36*
X217438D02*
X216562D01*
X215754Y-24135D01*
X215135Y-24754D01*
X214800Y-25562D01*
Y-26438D01*
X215135Y-27246D01*
X215754Y-27865D01*
X216562Y-28200D01*
X217438D01*
X218246Y-27865D01*
X218865Y-27246D01*
X219200Y-26438D01*
Y-25562D01*
X218865Y-24754D01*
X218246Y-24135D01*
X217438Y-23800D01*
D02*
G37*
G36*
X207438D02*
X206562D01*
X205754Y-24135D01*
X205135Y-24754D01*
X204800Y-25562D01*
Y-26438D01*
X205135Y-27246D01*
X205754Y-27865D01*
X206562Y-28200D01*
X207438D01*
X208246Y-27865D01*
X208865Y-27246D01*
X209200Y-26438D01*
Y-25562D01*
X208865Y-24754D01*
X208246Y-24135D01*
X207438Y-23800D01*
D02*
G37*
G36*
X197438D02*
X196562D01*
X195754Y-24135D01*
X195135Y-24754D01*
X194800Y-25562D01*
Y-26438D01*
X195135Y-27246D01*
X195754Y-27865D01*
X196562Y-28200D01*
X197438D01*
X198246Y-27865D01*
X198865Y-27246D01*
X199200Y-26438D01*
Y-25562D01*
X198865Y-24754D01*
X198246Y-24135D01*
X197438Y-23800D01*
D02*
G37*
G36*
X187438D02*
X186562D01*
X185754Y-24135D01*
X185135Y-24754D01*
X184800Y-25562D01*
Y-26438D01*
X185135Y-27246D01*
X185754Y-27865D01*
X186562Y-28200D01*
X187438D01*
X188246Y-27865D01*
X188865Y-27246D01*
X189200Y-26438D01*
Y-25562D01*
X188865Y-24754D01*
X188246Y-24135D01*
X187438Y-23800D01*
D02*
G37*
G36*
X177438D02*
X176562D01*
X175754Y-24135D01*
X175135Y-24754D01*
X174800Y-25562D01*
Y-26438D01*
X175135Y-27246D01*
X175754Y-27865D01*
X176562Y-28200D01*
X177438D01*
X178246Y-27865D01*
X178865Y-27246D01*
X179200Y-26438D01*
Y-25562D01*
X178865Y-24754D01*
X178246Y-24135D01*
X177438Y-23800D01*
D02*
G37*
G36*
X167438D02*
X166562D01*
X165754Y-24135D01*
X165135Y-24754D01*
X164800Y-25562D01*
Y-26438D01*
X165135Y-27246D01*
X165754Y-27865D01*
X166562Y-28200D01*
X167438D01*
X168246Y-27865D01*
X168865Y-27246D01*
X169200Y-26438D01*
Y-25562D01*
X168865Y-24754D01*
X168246Y-24135D01*
X167438Y-23800D01*
D02*
G37*
G36*
X157438D02*
X156562D01*
X155754Y-24135D01*
X155135Y-24754D01*
X154800Y-25562D01*
Y-26438D01*
X155135Y-27246D01*
X155754Y-27865D01*
X156562Y-28200D01*
X157438D01*
X158246Y-27865D01*
X158865Y-27246D01*
X159200Y-26438D01*
Y-25562D01*
X158865Y-24754D01*
X158246Y-24135D01*
X157438Y-23800D01*
D02*
G37*
G36*
X147438D02*
X146562D01*
X145754Y-24135D01*
X145135Y-24754D01*
X144800Y-25562D01*
Y-26438D01*
X145135Y-27246D01*
X145754Y-27865D01*
X146562Y-28200D01*
X147438D01*
X148246Y-27865D01*
X148865Y-27246D01*
X149200Y-26438D01*
Y-25562D01*
X148865Y-24754D01*
X148246Y-24135D01*
X147438Y-23800D01*
D02*
G37*
G36*
X127438D02*
X126562D01*
X125754Y-24135D01*
X125135Y-24754D01*
X124800Y-25562D01*
Y-26438D01*
X125135Y-27246D01*
X125754Y-27865D01*
X126562Y-28200D01*
X127438D01*
X128246Y-27865D01*
X128865Y-27246D01*
X129200Y-26438D01*
Y-25562D01*
X128865Y-24754D01*
X128246Y-24135D01*
X127438Y-23800D01*
D02*
G37*
G36*
X107438D02*
X106562D01*
X105754Y-24135D01*
X105135Y-24754D01*
X104800Y-25562D01*
Y-26438D01*
X105135Y-27246D01*
X105754Y-27865D01*
X106562Y-28200D01*
X107438D01*
X108246Y-27865D01*
X108865Y-27246D01*
X109200Y-26438D01*
Y-25562D01*
X108865Y-24754D01*
X108246Y-24135D01*
X107438Y-23800D01*
D02*
G37*
G36*
X97438D02*
X96562D01*
X95754Y-24135D01*
X95135Y-24754D01*
X94800Y-25562D01*
Y-26438D01*
X95135Y-27246D01*
X95754Y-27865D01*
X96562Y-28200D01*
X97438D01*
X98246Y-27865D01*
X98865Y-27246D01*
X99200Y-26438D01*
Y-25562D01*
X98865Y-24754D01*
X98246Y-24135D01*
X97438Y-23800D01*
D02*
G37*
G36*
X67438D02*
X66562D01*
X65754Y-24135D01*
X65135Y-24754D01*
X64800Y-25562D01*
Y-26438D01*
X65135Y-27246D01*
X65754Y-27865D01*
X66562Y-28200D01*
X67438D01*
X68246Y-27865D01*
X68865Y-27246D01*
X69200Y-26438D01*
Y-25562D01*
X68865Y-24754D01*
X68246Y-24135D01*
X67438Y-23800D01*
D02*
G37*
G36*
X47438D02*
X46562D01*
X45754Y-24135D01*
X45135Y-24754D01*
X44800Y-25562D01*
Y-26438D01*
X45135Y-27246D01*
X45754Y-27865D01*
X46562Y-28200D01*
X47438D01*
X48246Y-27865D01*
X48865Y-27246D01*
X49200Y-26438D01*
Y-25562D01*
X48865Y-24754D01*
X48246Y-24135D01*
X47438Y-23800D01*
D02*
G37*
G36*
X37438D02*
X36562D01*
X35754Y-24135D01*
X35135Y-24754D01*
X34800Y-25562D01*
Y-26438D01*
X35135Y-27246D01*
X35754Y-27865D01*
X36562Y-28200D01*
X37438D01*
X38246Y-27865D01*
X38865Y-27246D01*
X39200Y-26438D01*
Y-25562D01*
X38865Y-24754D01*
X38246Y-24135D01*
X37438Y-23800D01*
D02*
G37*
G36*
X27438D02*
X26562D01*
X25754Y-24135D01*
X25135Y-24754D01*
X24800Y-25562D01*
Y-26438D01*
X25135Y-27246D01*
X25754Y-27865D01*
X26562Y-28200D01*
X27438D01*
X28246Y-27865D01*
X28865Y-27246D01*
X29200Y-26438D01*
Y-25562D01*
X28865Y-24754D01*
X28246Y-24135D01*
X27438Y-23800D01*
D02*
G37*
G36*
X332438Y-33800D02*
X331562D01*
X330754Y-34135D01*
X330135Y-34754D01*
X329800Y-35562D01*
Y-36438D01*
X330135Y-37246D01*
X330754Y-37865D01*
X331562Y-38200D01*
X332438D01*
X333246Y-37865D01*
X333865Y-37246D01*
X334200Y-36438D01*
Y-35562D01*
X333865Y-34754D01*
X333246Y-34135D01*
X332438Y-33800D01*
D02*
G37*
G36*
X262438D02*
X261562D01*
X260754Y-34135D01*
X260135Y-34754D01*
X259800Y-35562D01*
Y-36438D01*
X260135Y-37246D01*
X260754Y-37865D01*
X261562Y-38200D01*
X262438D01*
X263246Y-37865D01*
X263865Y-37246D01*
X264200Y-36438D01*
Y-35562D01*
X263865Y-34754D01*
X263246Y-34135D01*
X262438Y-33800D01*
D02*
G37*
G36*
X252438D02*
X251562D01*
X250754Y-34135D01*
X250135Y-34754D01*
X249800Y-35562D01*
Y-36438D01*
X250135Y-37246D01*
X250754Y-37865D01*
X251562Y-38200D01*
X252438D01*
X253246Y-37865D01*
X253865Y-37246D01*
X254200Y-36438D01*
Y-35562D01*
X253865Y-34754D01*
X253246Y-34135D01*
X252438Y-33800D01*
D02*
G37*
G36*
X242438D02*
X241562D01*
X240754Y-34135D01*
X240135Y-34754D01*
X239800Y-35562D01*
Y-36438D01*
X240135Y-37246D01*
X240754Y-37865D01*
X241562Y-38200D01*
X242438D01*
X243246Y-37865D01*
X243865Y-37246D01*
X244200Y-36438D01*
Y-35562D01*
X243865Y-34754D01*
X243246Y-34135D01*
X242438Y-33800D01*
D02*
G37*
G36*
X232438D02*
X231562D01*
X230754Y-34135D01*
X230135Y-34754D01*
X229800Y-35562D01*
Y-36438D01*
X230135Y-37246D01*
X230754Y-37865D01*
X231562Y-38200D01*
X232438D01*
X233246Y-37865D01*
X233865Y-37246D01*
X234200Y-36438D01*
Y-35562D01*
X233865Y-34754D01*
X233246Y-34135D01*
X232438Y-33800D01*
D02*
G37*
G36*
X222438D02*
X221562D01*
X220754Y-34135D01*
X220135Y-34754D01*
X219800Y-35562D01*
Y-36438D01*
X220135Y-37246D01*
X220754Y-37865D01*
X221562Y-38200D01*
X222438D01*
X223246Y-37865D01*
X223865Y-37246D01*
X224200Y-36438D01*
Y-35562D01*
X223865Y-34754D01*
X223246Y-34135D01*
X222438Y-33800D01*
D02*
G37*
G36*
X212438D02*
X211562D01*
X210754Y-34135D01*
X210135Y-34754D01*
X209800Y-35562D01*
Y-36438D01*
X210135Y-37246D01*
X210754Y-37865D01*
X211562Y-38200D01*
X212438D01*
X213246Y-37865D01*
X213865Y-37246D01*
X214200Y-36438D01*
Y-35562D01*
X213865Y-34754D01*
X213246Y-34135D01*
X212438Y-33800D01*
D02*
G37*
G36*
X42438D02*
X41562D01*
X40754Y-34135D01*
X40135Y-34754D01*
X39800Y-35562D01*
Y-36438D01*
X40135Y-37246D01*
X40754Y-37865D01*
X41562Y-38200D01*
X42438D01*
X43246Y-37865D01*
X43865Y-37246D01*
X44200Y-36438D01*
Y-35562D01*
X43865Y-34754D01*
X43246Y-34135D01*
X42438Y-33800D01*
D02*
G37*
G36*
X32438D02*
X31562D01*
X30754Y-34135D01*
X30135Y-34754D01*
X29800Y-35562D01*
Y-36438D01*
X30135Y-37246D01*
X30754Y-37865D01*
X31562Y-38200D01*
X32438D01*
X33246Y-37865D01*
X33865Y-37246D01*
X34200Y-36438D01*
Y-35562D01*
X33865Y-34754D01*
X33246Y-34135D01*
X32438Y-33800D01*
D02*
G37*
G36*
X63638Y-38000D02*
X62762D01*
X61954Y-38335D01*
X61335Y-38954D01*
X61000Y-39762D01*
Y-40638D01*
X61335Y-41446D01*
X61954Y-42065D01*
X62762Y-42400D01*
X63638D01*
X64446Y-42065D01*
X65065Y-41446D01*
X65400Y-40638D01*
Y-39762D01*
X65065Y-38954D01*
X64446Y-38335D01*
X63638Y-38000D01*
D02*
G37*
G36*
X175938Y-42800D02*
X175062D01*
X174254Y-43135D01*
X173635Y-43754D01*
X173300Y-44562D01*
Y-45438D01*
X173635Y-46246D01*
X174254Y-46865D01*
X175062Y-47200D01*
X175938D01*
X176746Y-46865D01*
X177365Y-46246D01*
X177700Y-45438D01*
Y-44562D01*
X177365Y-43754D01*
X176746Y-43135D01*
X175938Y-42800D01*
D02*
G37*
G36*
X205638Y-42900D02*
X204762D01*
X203954Y-43235D01*
X203335Y-43854D01*
X203000Y-44662D01*
Y-45538D01*
X203335Y-46346D01*
X203954Y-46965D01*
X204762Y-47300D01*
X205638D01*
X206446Y-46965D01*
X207065Y-46346D01*
X207400Y-45538D01*
Y-44662D01*
X207065Y-43854D01*
X206446Y-43235D01*
X205638Y-42900D01*
D02*
G37*
G36*
X337438Y-43800D02*
X336562D01*
X335754Y-44135D01*
X335135Y-44754D01*
X334800Y-45562D01*
Y-46438D01*
X335135Y-47246D01*
X335754Y-47865D01*
X336562Y-48200D01*
X337438D01*
X338246Y-47865D01*
X338865Y-47246D01*
X339200Y-46438D01*
Y-45562D01*
X338865Y-44754D01*
X338246Y-44135D01*
X337438Y-43800D01*
D02*
G37*
G36*
X327438D02*
X326562D01*
X325754Y-44135D01*
X325135Y-44754D01*
X324800Y-45562D01*
Y-46438D01*
X325135Y-47246D01*
X325754Y-47865D01*
X326562Y-48200D01*
X327438D01*
X328246Y-47865D01*
X328865Y-47246D01*
X329200Y-46438D01*
Y-45562D01*
X328865Y-44754D01*
X328246Y-44135D01*
X327438Y-43800D01*
D02*
G37*
G36*
X287438D02*
X286562D01*
X285754Y-44135D01*
X285135Y-44754D01*
X284800Y-45562D01*
Y-46438D01*
X285135Y-47246D01*
X285754Y-47865D01*
X286562Y-48200D01*
X287438D01*
X288246Y-47865D01*
X288865Y-47246D01*
X289200Y-46438D01*
Y-45562D01*
X288865Y-44754D01*
X288246Y-44135D01*
X287438Y-43800D01*
D02*
G37*
G36*
X267438D02*
X266562D01*
X265754Y-44135D01*
X265135Y-44754D01*
X264800Y-45562D01*
Y-46438D01*
X265135Y-47246D01*
X265754Y-47865D01*
X266562Y-48200D01*
X267438D01*
X268246Y-47865D01*
X268865Y-47246D01*
X269200Y-46438D01*
Y-45562D01*
X268865Y-44754D01*
X268246Y-44135D01*
X267438Y-43800D01*
D02*
G37*
G36*
X257438D02*
X256562D01*
X255754Y-44135D01*
X255135Y-44754D01*
X254800Y-45562D01*
Y-46438D01*
X255135Y-47246D01*
X255754Y-47865D01*
X256562Y-48200D01*
X257438D01*
X258246Y-47865D01*
X258865Y-47246D01*
X259200Y-46438D01*
Y-45562D01*
X258865Y-44754D01*
X258246Y-44135D01*
X257438Y-43800D01*
D02*
G37*
G36*
X247438D02*
X246562D01*
X245754Y-44135D01*
X245135Y-44754D01*
X244800Y-45562D01*
Y-46438D01*
X245135Y-47246D01*
X245754Y-47865D01*
X246562Y-48200D01*
X247438D01*
X248246Y-47865D01*
X248865Y-47246D01*
X249200Y-46438D01*
Y-45562D01*
X248865Y-44754D01*
X248246Y-44135D01*
X247438Y-43800D01*
D02*
G37*
G36*
X237438D02*
X236562D01*
X235754Y-44135D01*
X235135Y-44754D01*
X234800Y-45562D01*
Y-46438D01*
X235135Y-47246D01*
X235754Y-47865D01*
X236562Y-48200D01*
X237438D01*
X238246Y-47865D01*
X238865Y-47246D01*
X239200Y-46438D01*
Y-45562D01*
X238865Y-44754D01*
X238246Y-44135D01*
X237438Y-43800D01*
D02*
G37*
G36*
X227438D02*
X226562D01*
X225754Y-44135D01*
X225135Y-44754D01*
X224800Y-45562D01*
Y-46438D01*
X225135Y-47246D01*
X225754Y-47865D01*
X226562Y-48200D01*
X227438D01*
X228246Y-47865D01*
X228865Y-47246D01*
X229200Y-46438D01*
Y-45562D01*
X228865Y-44754D01*
X228246Y-44135D01*
X227438Y-43800D01*
D02*
G37*
G36*
X217438D02*
X216562D01*
X215754Y-44135D01*
X215135Y-44754D01*
X214800Y-45562D01*
Y-46438D01*
X215135Y-47246D01*
X215754Y-47865D01*
X216562Y-48200D01*
X217438D01*
X218246Y-47865D01*
X218865Y-47246D01*
X219200Y-46438D01*
Y-45562D01*
X218865Y-44754D01*
X218246Y-44135D01*
X217438Y-43800D01*
D02*
G37*
G36*
X127438D02*
X126562D01*
X125754Y-44135D01*
X125135Y-44754D01*
X124800Y-45562D01*
Y-46438D01*
X125135Y-47246D01*
X125754Y-47865D01*
X126562Y-48200D01*
X127438D01*
X128246Y-47865D01*
X128865Y-47246D01*
X129200Y-46438D01*
Y-45562D01*
X128865Y-44754D01*
X128246Y-44135D01*
X127438Y-43800D01*
D02*
G37*
G36*
X107438D02*
X106562D01*
X105754Y-44135D01*
X105135Y-44754D01*
X104800Y-45562D01*
Y-46438D01*
X105135Y-47246D01*
X105754Y-47865D01*
X106562Y-48200D01*
X107438D01*
X108246Y-47865D01*
X108865Y-47246D01*
X109200Y-46438D01*
Y-45562D01*
X108865Y-44754D01*
X108246Y-44135D01*
X107438Y-43800D01*
D02*
G37*
G36*
X97438D02*
X96562D01*
X95754Y-44135D01*
X95135Y-44754D01*
X94800Y-45562D01*
Y-46438D01*
X95135Y-47246D01*
X95754Y-47865D01*
X96562Y-48200D01*
X97438D01*
X98246Y-47865D01*
X98865Y-47246D01*
X99200Y-46438D01*
Y-45562D01*
X98865Y-44754D01*
X98246Y-44135D01*
X97438Y-43800D01*
D02*
G37*
G36*
X87438D02*
X86562D01*
X85754Y-44135D01*
X85135Y-44754D01*
X84800Y-45562D01*
Y-46438D01*
X85135Y-47246D01*
X85754Y-47865D01*
X86562Y-48200D01*
X87438D01*
X88246Y-47865D01*
X88865Y-47246D01*
X89200Y-46438D01*
Y-45562D01*
X88865Y-44754D01*
X88246Y-44135D01*
X87438Y-43800D01*
D02*
G37*
G36*
X67438D02*
X66562D01*
X65754Y-44135D01*
X65135Y-44754D01*
X64800Y-45562D01*
Y-46438D01*
X65135Y-47246D01*
X65754Y-47865D01*
X66562Y-48200D01*
X67438D01*
X68246Y-47865D01*
X68865Y-47246D01*
X69200Y-46438D01*
Y-45562D01*
X68865Y-44754D01*
X68246Y-44135D01*
X67438Y-43800D01*
D02*
G37*
G36*
X57438D02*
X56562D01*
X55754Y-44135D01*
X55135Y-44754D01*
X54800Y-45562D01*
Y-46438D01*
X55135Y-47246D01*
X55754Y-47865D01*
X56562Y-48200D01*
X57438D01*
X58246Y-47865D01*
X58865Y-47246D01*
X59200Y-46438D01*
Y-45562D01*
X58865Y-44754D01*
X58246Y-44135D01*
X57438Y-43800D01*
D02*
G37*
G36*
X47438D02*
X46562D01*
X45754Y-44135D01*
X45135Y-44754D01*
X44800Y-45562D01*
Y-46438D01*
X45135Y-47246D01*
X45754Y-47865D01*
X46562Y-48200D01*
X47438D01*
X48246Y-47865D01*
X48865Y-47246D01*
X49200Y-46438D01*
Y-45562D01*
X48865Y-44754D01*
X48246Y-44135D01*
X47438Y-43800D01*
D02*
G37*
G36*
X17438D02*
X16562D01*
X15754Y-44135D01*
X15135Y-44754D01*
X14800Y-45562D01*
Y-46438D01*
X15135Y-47246D01*
X15754Y-47865D01*
X16562Y-48200D01*
X17438D01*
X18246Y-47865D01*
X18865Y-47246D01*
X19200Y-46438D01*
Y-45562D01*
X18865Y-44754D01*
X18246Y-44135D01*
X17438Y-43800D01*
D02*
G37*
G36*
X7438D02*
X6562D01*
X5754Y-44135D01*
X5135Y-44754D01*
X4800Y-45562D01*
Y-46438D01*
X5135Y-47246D01*
X5754Y-47865D01*
X6562Y-48200D01*
X7438D01*
X8246Y-47865D01*
X8865Y-47246D01*
X9200Y-46438D01*
Y-45562D01*
X8865Y-44754D01*
X8246Y-44135D01*
X7438Y-43800D01*
D02*
G37*
G36*
X222438Y-53800D02*
X221562D01*
X220754Y-54135D01*
X220217Y-54671D01*
X220116Y-54651D01*
X193884D01*
X193782Y-54671D01*
X193246Y-54135D01*
X192438Y-53800D01*
X191562D01*
X190754Y-54135D01*
X190217Y-54671D01*
X190116Y-54651D01*
X163884D01*
X163783Y-54671D01*
X163246Y-54135D01*
X162438Y-53800D01*
X161562D01*
X160754Y-54135D01*
X160217Y-54671D01*
X160116Y-54651D01*
X153884D01*
X153782Y-54671D01*
X153246Y-54135D01*
X152438Y-53800D01*
X151562D01*
X150754Y-54135D01*
X150217Y-54671D01*
X150116Y-54651D01*
X143884D01*
X143782Y-54671D01*
X143246Y-54135D01*
X142438Y-53800D01*
X141562D01*
X140754Y-54135D01*
X140135Y-54754D01*
X139800Y-55562D01*
Y-55634D01*
X139079Y-56116D01*
X136198Y-58998D01*
X135645Y-59825D01*
X135451Y-60800D01*
Y-75751D01*
X128400D01*
X127425Y-75945D01*
X126598Y-76498D01*
X126398Y-76698D01*
X125845Y-77525D01*
X125651Y-78500D01*
Y-84351D01*
X121680D01*
X120705Y-84545D01*
X119878Y-85098D01*
X108998Y-95978D01*
X108445Y-96805D01*
X108251Y-97780D01*
Y-113666D01*
X108300Y-113912D01*
Y-114163D01*
X108396Y-114395D01*
X108445Y-114641D01*
X108584Y-114850D01*
X108681Y-115082D01*
X108858Y-115259D01*
X108998Y-115468D01*
X109206Y-115608D01*
X109281Y-115682D01*
X109342Y-116000D01*
X109281Y-116318D01*
X109206Y-116392D01*
X108998Y-116532D01*
X108858Y-116741D01*
X108681Y-116918D01*
X108584Y-117150D01*
X108445Y-117359D01*
X108396Y-117605D01*
X108300Y-117837D01*
Y-118088D01*
X108251Y-118334D01*
Y-133666D01*
X108300Y-133912D01*
Y-134163D01*
X108396Y-134395D01*
X108445Y-134641D01*
X108584Y-134850D01*
X108681Y-135082D01*
X108858Y-135259D01*
X108998Y-135468D01*
X109206Y-135608D01*
X109281Y-135682D01*
X109342Y-136000D01*
X109281Y-136318D01*
X109206Y-136392D01*
X108998Y-136532D01*
X108858Y-136741D01*
X108681Y-136918D01*
X108584Y-137150D01*
X108445Y-137359D01*
X108396Y-137605D01*
X108300Y-137837D01*
Y-138088D01*
X108251Y-138334D01*
Y-153666D01*
X108300Y-153912D01*
Y-154163D01*
X108396Y-154395D01*
X108445Y-154641D01*
X108584Y-154850D01*
X108681Y-155082D01*
X108858Y-155259D01*
X108998Y-155468D01*
X109206Y-155608D01*
X109281Y-155682D01*
X109342Y-156000D01*
X109281Y-156318D01*
X109206Y-156392D01*
X108998Y-156532D01*
X108858Y-156741D01*
X108681Y-156918D01*
X108584Y-157150D01*
X108445Y-157359D01*
X108396Y-157605D01*
X108300Y-157837D01*
Y-158088D01*
X108251Y-158334D01*
Y-162897D01*
X108151Y-163400D01*
X108345Y-164375D01*
X108898Y-165202D01*
X142298Y-198602D01*
X143124Y-199155D01*
X144100Y-199349D01*
X234100D01*
X235075Y-199155D01*
X235902Y-198602D01*
X236002Y-198502D01*
X236555Y-197676D01*
X236749Y-196700D01*
Y-188200D01*
X237438D01*
X238246Y-187865D01*
X238865Y-187246D01*
X239200Y-186438D01*
Y-185562D01*
X238865Y-184754D01*
X238246Y-184135D01*
X237438Y-183800D01*
X236749D01*
Y-177618D01*
X236555Y-176643D01*
X236125Y-176000D01*
X236555Y-175357D01*
X236749Y-174382D01*
Y-168200D01*
X237438D01*
X238246Y-167865D01*
X238865Y-167246D01*
X239200Y-166438D01*
Y-165562D01*
X238865Y-164754D01*
X238246Y-164135D01*
X237438Y-163800D01*
X236749D01*
Y-158749D01*
X244700D01*
X245675Y-158555D01*
X246502Y-158002D01*
X246602Y-157902D01*
X247155Y-157076D01*
X247349Y-156100D01*
Y-148200D01*
X247438D01*
X248246Y-147865D01*
X248865Y-147246D01*
X249200Y-146438D01*
Y-145562D01*
X248865Y-144754D01*
X248246Y-144135D01*
X247438Y-143800D01*
X247349D01*
Y-128200D01*
X247438D01*
X248246Y-127865D01*
X248865Y-127246D01*
X249200Y-126438D01*
Y-125562D01*
X248865Y-124754D01*
X248246Y-124135D01*
X247438Y-123800D01*
X247349D01*
Y-108200D01*
X247438D01*
X248246Y-107865D01*
X248865Y-107246D01*
X249200Y-106438D01*
Y-105562D01*
X248865Y-104754D01*
X248246Y-104135D01*
X247438Y-103800D01*
X247349D01*
Y-102962D01*
X247365Y-102946D01*
X247700Y-102138D01*
Y-101262D01*
X247365Y-100454D01*
X247349Y-100438D01*
Y-88200D01*
X247438D01*
X248246Y-87865D01*
X248865Y-87246D01*
X249200Y-86438D01*
Y-85562D01*
X248865Y-84754D01*
X248246Y-84135D01*
X247438Y-83800D01*
X247349D01*
Y-68300D01*
X247431Y-68200D01*
X247438D01*
X248246Y-67865D01*
X248865Y-67246D01*
X249200Y-66438D01*
Y-65562D01*
X248865Y-64754D01*
X248246Y-64135D01*
X247438Y-63800D01*
X246562D01*
X245754Y-64135D01*
X245135Y-64754D01*
X244800Y-65562D01*
Y-65751D01*
X239200D01*
Y-65562D01*
X238865Y-64754D01*
X238246Y-64135D01*
X237438Y-63800D01*
X236562D01*
X235754Y-64135D01*
X235135Y-64754D01*
X234800Y-65562D01*
Y-65751D01*
X232556D01*
X231464Y-64660D01*
X231149Y-64449D01*
X230855Y-64210D01*
X230739Y-64175D01*
X230637Y-64107D01*
X230266Y-64033D01*
X229903Y-63924D01*
X229781Y-63937D01*
X229662Y-63913D01*
X229491Y-63947D01*
X229269Y-63837D01*
X229163Y-63731D01*
X229053Y-63508D01*
X229087Y-63338D01*
X229063Y-63219D01*
X229076Y-63098D01*
X228967Y-62734D01*
X228893Y-62363D01*
X228825Y-62261D01*
X228790Y-62145D01*
X228551Y-61851D01*
X228341Y-61536D01*
X223920Y-57115D01*
X224200Y-56438D01*
Y-55562D01*
X223865Y-54754D01*
X223246Y-54135D01*
X222438Y-53800D01*
D02*
G37*
G36*
X332438D02*
X331562D01*
X330754Y-54135D01*
X330135Y-54754D01*
X329800Y-55562D01*
Y-56438D01*
X330135Y-57246D01*
X330754Y-57865D01*
X331562Y-58200D01*
X332438D01*
X333246Y-57865D01*
X333865Y-57246D01*
X334200Y-56438D01*
Y-55562D01*
X333865Y-54754D01*
X333246Y-54135D01*
X332438Y-53800D01*
D02*
G37*
G36*
X322438D02*
X321562D01*
X320754Y-54135D01*
X320135Y-54754D01*
X319800Y-55562D01*
Y-56438D01*
X320135Y-57246D01*
X320754Y-57865D01*
X321562Y-58200D01*
X322438D01*
X323246Y-57865D01*
X323865Y-57246D01*
X324200Y-56438D01*
Y-55562D01*
X323865Y-54754D01*
X323246Y-54135D01*
X322438Y-53800D01*
D02*
G37*
G36*
X312438D02*
X311562D01*
X310754Y-54135D01*
X310135Y-54754D01*
X309800Y-55562D01*
Y-56438D01*
X310135Y-57246D01*
X310754Y-57865D01*
X311562Y-58200D01*
X312438D01*
X313246Y-57865D01*
X313865Y-57246D01*
X314200Y-56438D01*
Y-55562D01*
X313865Y-54754D01*
X313246Y-54135D01*
X312438Y-53800D01*
D02*
G37*
G36*
X302438D02*
X301562D01*
X300754Y-54135D01*
X300135Y-54754D01*
X299800Y-55562D01*
Y-56438D01*
X300135Y-57246D01*
X300754Y-57865D01*
X301562Y-58200D01*
X302438D01*
X303246Y-57865D01*
X303865Y-57246D01*
X304200Y-56438D01*
Y-55562D01*
X303865Y-54754D01*
X303246Y-54135D01*
X302438Y-53800D01*
D02*
G37*
G36*
X292438D02*
X291562D01*
X290754Y-54135D01*
X290135Y-54754D01*
X289800Y-55562D01*
Y-56438D01*
X290135Y-57246D01*
X290754Y-57865D01*
X291562Y-58200D01*
X292438D01*
X293246Y-57865D01*
X293865Y-57246D01*
X294200Y-56438D01*
Y-55562D01*
X293865Y-54754D01*
X293246Y-54135D01*
X292438Y-53800D01*
D02*
G37*
G36*
X272438D02*
X271562D01*
X270754Y-54135D01*
X270135Y-54754D01*
X269800Y-55562D01*
Y-56438D01*
X270135Y-57246D01*
X270754Y-57865D01*
X271562Y-58200D01*
X272438D01*
X273246Y-57865D01*
X273865Y-57246D01*
X274200Y-56438D01*
Y-55562D01*
X273865Y-54754D01*
X273246Y-54135D01*
X272438Y-53800D01*
D02*
G37*
G36*
X262438D02*
X261562D01*
X260754Y-54135D01*
X260135Y-54754D01*
X259800Y-55562D01*
Y-56438D01*
X260135Y-57246D01*
X260754Y-57865D01*
X261562Y-58200D01*
X262438D01*
X263246Y-57865D01*
X263865Y-57246D01*
X264200Y-56438D01*
Y-55562D01*
X263865Y-54754D01*
X263246Y-54135D01*
X262438Y-53800D01*
D02*
G37*
G36*
X252438D02*
X251562D01*
X250754Y-54135D01*
X250135Y-54754D01*
X249800Y-55562D01*
Y-56438D01*
X250135Y-57246D01*
X250754Y-57865D01*
X251562Y-58200D01*
X252438D01*
X253246Y-57865D01*
X253865Y-57246D01*
X254200Y-56438D01*
Y-55562D01*
X253865Y-54754D01*
X253246Y-54135D01*
X252438Y-53800D01*
D02*
G37*
G36*
X242438D02*
X241562D01*
X240754Y-54135D01*
X240135Y-54754D01*
X239800Y-55562D01*
Y-56438D01*
X240135Y-57246D01*
X240754Y-57865D01*
X241562Y-58200D01*
X242438D01*
X243246Y-57865D01*
X243865Y-57246D01*
X244200Y-56438D01*
Y-55562D01*
X243865Y-54754D01*
X243246Y-54135D01*
X242438Y-53800D01*
D02*
G37*
G36*
X232438D02*
X231562D01*
X230754Y-54135D01*
X230135Y-54754D01*
X229800Y-55562D01*
Y-56438D01*
X230135Y-57246D01*
X230754Y-57865D01*
X231562Y-58200D01*
X232438D01*
X233246Y-57865D01*
X233865Y-57246D01*
X234200Y-56438D01*
Y-55562D01*
X233865Y-54754D01*
X233246Y-54135D01*
X232438Y-53800D01*
D02*
G37*
G36*
X132438D02*
X131562D01*
X130754Y-54135D01*
X130135Y-54754D01*
X129800Y-55562D01*
Y-56438D01*
X130135Y-57246D01*
X130754Y-57865D01*
X131562Y-58200D01*
X132438D01*
X133246Y-57865D01*
X133865Y-57246D01*
X134200Y-56438D01*
Y-55562D01*
X133865Y-54754D01*
X133246Y-54135D01*
X132438Y-53800D01*
D02*
G37*
G36*
X112438D02*
X111562D01*
X110754Y-54135D01*
X110135Y-54754D01*
X109800Y-55562D01*
Y-56438D01*
X110135Y-57246D01*
X110754Y-57865D01*
X111562Y-58200D01*
X112438D01*
X113246Y-57865D01*
X113865Y-57246D01*
X114200Y-56438D01*
Y-55562D01*
X113865Y-54754D01*
X113246Y-54135D01*
X112438Y-53800D01*
D02*
G37*
G36*
X102438D02*
X101562D01*
X100754Y-54135D01*
X100135Y-54754D01*
X99800Y-55562D01*
Y-56438D01*
X100135Y-57246D01*
X100754Y-57865D01*
X101562Y-58200D01*
X102438D01*
X103246Y-57865D01*
X103865Y-57246D01*
X104200Y-56438D01*
Y-55562D01*
X103865Y-54754D01*
X103246Y-54135D01*
X102438Y-53800D01*
D02*
G37*
G36*
X92438D02*
X91562D01*
X90754Y-54135D01*
X90135Y-54754D01*
X89800Y-55562D01*
Y-56438D01*
X90135Y-57246D01*
X90754Y-57865D01*
X91562Y-58200D01*
X92438D01*
X93246Y-57865D01*
X93865Y-57246D01*
X94200Y-56438D01*
Y-55562D01*
X93865Y-54754D01*
X93246Y-54135D01*
X92438Y-53800D01*
D02*
G37*
G36*
X72438D02*
X71562D01*
X70754Y-54135D01*
X70135Y-54754D01*
X69800Y-55562D01*
Y-56438D01*
X70135Y-57246D01*
X70754Y-57865D01*
X71562Y-58200D01*
X72438D01*
X73246Y-57865D01*
X73865Y-57246D01*
X74200Y-56438D01*
Y-55562D01*
X73865Y-54754D01*
X73246Y-54135D01*
X72438Y-53800D01*
D02*
G37*
G36*
X42438D02*
X41562D01*
X40754Y-54135D01*
X40135Y-54754D01*
X39800Y-55562D01*
Y-56438D01*
X40135Y-57246D01*
X40754Y-57865D01*
X41562Y-58200D01*
X42438D01*
X43246Y-57865D01*
X43865Y-57246D01*
X44200Y-56438D01*
Y-55562D01*
X43865Y-54754D01*
X43246Y-54135D01*
X42438Y-53800D01*
D02*
G37*
G36*
X22438D02*
X21562D01*
X20754Y-54135D01*
X20135Y-54754D01*
X19800Y-55562D01*
Y-56438D01*
X20135Y-57246D01*
X20754Y-57865D01*
X21562Y-58200D01*
X22438D01*
X23246Y-57865D01*
X23865Y-57246D01*
X24200Y-56438D01*
Y-55562D01*
X23865Y-54754D01*
X23246Y-54135D01*
X22438Y-53800D01*
D02*
G37*
G36*
X12438D02*
X11562D01*
X10754Y-54135D01*
X10135Y-54754D01*
X9800Y-55562D01*
Y-56438D01*
X10135Y-57246D01*
X10754Y-57865D01*
X11562Y-58200D01*
X12438D01*
X13246Y-57865D01*
X13865Y-57246D01*
X14200Y-56438D01*
Y-55562D01*
X13865Y-54754D01*
X13246Y-54135D01*
X12438Y-53800D01*
D02*
G37*
G36*
X317438Y-63800D02*
X316562D01*
X315754Y-64135D01*
X315135Y-64754D01*
X314800Y-65562D01*
Y-66438D01*
X315135Y-67246D01*
X315754Y-67865D01*
X316562Y-68200D01*
X317438D01*
X318246Y-67865D01*
X318865Y-67246D01*
X319200Y-66438D01*
Y-65562D01*
X318865Y-64754D01*
X318246Y-64135D01*
X317438Y-63800D01*
D02*
G37*
G36*
X307438D02*
X306562D01*
X305754Y-64135D01*
X305135Y-64754D01*
X304800Y-65562D01*
Y-66438D01*
X305135Y-67246D01*
X305754Y-67865D01*
X306562Y-68200D01*
X307438D01*
X308246Y-67865D01*
X308865Y-67246D01*
X309200Y-66438D01*
Y-65562D01*
X308865Y-64754D01*
X308246Y-64135D01*
X307438Y-63800D01*
D02*
G37*
G36*
X97438D02*
X96562D01*
X95754Y-64135D01*
X95135Y-64754D01*
X94800Y-65562D01*
Y-66438D01*
X95135Y-67246D01*
X95754Y-67865D01*
X96562Y-68200D01*
X97438D01*
X98246Y-67865D01*
X98865Y-67246D01*
X99200Y-66438D01*
Y-65562D01*
X98865Y-64754D01*
X98246Y-64135D01*
X97438Y-63800D01*
D02*
G37*
G36*
X87438D02*
X86562D01*
X85754Y-64135D01*
X85135Y-64754D01*
X84800Y-65562D01*
Y-66438D01*
X85135Y-67246D01*
X85754Y-67865D01*
X86562Y-68200D01*
X87438D01*
X88246Y-67865D01*
X88865Y-67246D01*
X89200Y-66438D01*
Y-65562D01*
X88865Y-64754D01*
X88246Y-64135D01*
X87438Y-63800D01*
D02*
G37*
G36*
X77438D02*
X76562D01*
X75754Y-64135D01*
X75135Y-64754D01*
X74800Y-65562D01*
Y-66438D01*
X75135Y-67246D01*
X75754Y-67865D01*
X76562Y-68200D01*
X77438D01*
X78246Y-67865D01*
X78865Y-67246D01*
X79200Y-66438D01*
Y-65562D01*
X78865Y-64754D01*
X78246Y-64135D01*
X77438Y-63800D01*
D02*
G37*
G36*
X67438D02*
X66562D01*
X65754Y-64135D01*
X65135Y-64754D01*
X64800Y-65562D01*
Y-66438D01*
X65135Y-67246D01*
X65754Y-67865D01*
X66562Y-68200D01*
X67438D01*
X68246Y-67865D01*
X68865Y-67246D01*
X69200Y-66438D01*
Y-65562D01*
X68865Y-64754D01*
X68246Y-64135D01*
X67438Y-63800D01*
D02*
G37*
G36*
X57438D02*
X56562D01*
X55754Y-64135D01*
X55135Y-64754D01*
X54800Y-65562D01*
Y-66438D01*
X55135Y-67246D01*
X55754Y-67865D01*
X56562Y-68200D01*
X57438D01*
X58246Y-67865D01*
X58865Y-67246D01*
X59200Y-66438D01*
Y-65562D01*
X58865Y-64754D01*
X58246Y-64135D01*
X57438Y-63800D01*
D02*
G37*
G36*
X47438D02*
X46562D01*
X45754Y-64135D01*
X45135Y-64754D01*
X44800Y-65562D01*
Y-66438D01*
X45135Y-67246D01*
X45754Y-67865D01*
X46562Y-68200D01*
X47438D01*
X48246Y-67865D01*
X48865Y-67246D01*
X49200Y-66438D01*
Y-65562D01*
X48865Y-64754D01*
X48246Y-64135D01*
X47438Y-63800D01*
D02*
G37*
G36*
X37438D02*
X36562D01*
X35754Y-64135D01*
X35135Y-64754D01*
X34800Y-65562D01*
Y-66438D01*
X35135Y-67246D01*
X35754Y-67865D01*
X36562Y-68200D01*
X37438D01*
X38246Y-67865D01*
X38865Y-67246D01*
X39200Y-66438D01*
Y-65562D01*
X38865Y-64754D01*
X38246Y-64135D01*
X37438Y-63800D01*
D02*
G37*
G36*
X27438D02*
X26562D01*
X25754Y-64135D01*
X25135Y-64754D01*
X24800Y-65562D01*
Y-66438D01*
X25135Y-67246D01*
X25754Y-67865D01*
X26562Y-68200D01*
X27438D01*
X28246Y-67865D01*
X28865Y-67246D01*
X29200Y-66438D01*
Y-65562D01*
X28865Y-64754D01*
X28246Y-64135D01*
X27438Y-63800D01*
D02*
G37*
G36*
X332438Y-73800D02*
X331562D01*
X330754Y-74135D01*
X330135Y-74754D01*
X329800Y-75562D01*
Y-76438D01*
X330135Y-77246D01*
X330754Y-77865D01*
X331562Y-78200D01*
X332438D01*
X333246Y-77865D01*
X333865Y-77246D01*
X334200Y-76438D01*
Y-75562D01*
X333865Y-74754D01*
X333246Y-74135D01*
X332438Y-73800D01*
D02*
G37*
G36*
X62438D02*
X61562D01*
X60754Y-74135D01*
X60135Y-74754D01*
X59800Y-75562D01*
Y-76438D01*
X60135Y-77246D01*
X60754Y-77865D01*
X61562Y-78200D01*
X62438D01*
X63246Y-77865D01*
X63865Y-77246D01*
X64200Y-76438D01*
Y-75562D01*
X63865Y-74754D01*
X63246Y-74135D01*
X62438Y-73800D01*
D02*
G37*
G36*
X52438D02*
X51562D01*
X50754Y-74135D01*
X50135Y-74754D01*
X49800Y-75562D01*
Y-76438D01*
X50135Y-77246D01*
X50754Y-77865D01*
X51562Y-78200D01*
X52438D01*
X53246Y-77865D01*
X53865Y-77246D01*
X54200Y-76438D01*
Y-75562D01*
X53865Y-74754D01*
X53246Y-74135D01*
X52438Y-73800D01*
D02*
G37*
G36*
X42438D02*
X41562D01*
X40754Y-74135D01*
X40135Y-74754D01*
X39800Y-75562D01*
Y-76438D01*
X40135Y-77246D01*
X40754Y-77865D01*
X41562Y-78200D01*
X42438D01*
X43246Y-77865D01*
X43865Y-77246D01*
X44200Y-76438D01*
Y-75562D01*
X43865Y-74754D01*
X43246Y-74135D01*
X42438Y-73800D01*
D02*
G37*
G36*
X32438D02*
X31562D01*
X30754Y-74135D01*
X30135Y-74754D01*
X29800Y-75562D01*
Y-76438D01*
X30135Y-77246D01*
X30754Y-77865D01*
X31562Y-78200D01*
X32438D01*
X33246Y-77865D01*
X33865Y-77246D01*
X34200Y-76438D01*
Y-75562D01*
X33865Y-74754D01*
X33246Y-74135D01*
X32438Y-73800D01*
D02*
G37*
G36*
X337438Y-83800D02*
X336562D01*
X335754Y-84135D01*
X335135Y-84754D01*
X334800Y-85562D01*
Y-86438D01*
X335135Y-87246D01*
X335754Y-87865D01*
X336562Y-88200D01*
X337438D01*
X338246Y-87865D01*
X338865Y-87246D01*
X339200Y-86438D01*
Y-85562D01*
X338865Y-84754D01*
X338246Y-84135D01*
X337438Y-83800D01*
D02*
G37*
G36*
X327438D02*
X326562D01*
X325754Y-84135D01*
X325135Y-84754D01*
X324800Y-85562D01*
Y-86438D01*
X325135Y-87246D01*
X325754Y-87865D01*
X326562Y-88200D01*
X327438D01*
X328246Y-87865D01*
X328865Y-87246D01*
X329200Y-86438D01*
Y-85562D01*
X328865Y-84754D01*
X328246Y-84135D01*
X327438Y-83800D01*
D02*
G37*
G36*
X107438D02*
X106562D01*
X105754Y-84135D01*
X105135Y-84754D01*
X104800Y-85562D01*
Y-86438D01*
X105135Y-87246D01*
X105754Y-87865D01*
X106562Y-88200D01*
X107438D01*
X108246Y-87865D01*
X108865Y-87246D01*
X109200Y-86438D01*
Y-85562D01*
X108865Y-84754D01*
X108246Y-84135D01*
X107438Y-83800D01*
D02*
G37*
G36*
X97438D02*
X96562D01*
X95754Y-84135D01*
X95135Y-84754D01*
X94800Y-85562D01*
Y-86438D01*
X95135Y-87246D01*
X95754Y-87865D01*
X96562Y-88200D01*
X97438D01*
X98246Y-87865D01*
X98865Y-87246D01*
X99200Y-86438D01*
Y-85562D01*
X98865Y-84754D01*
X98246Y-84135D01*
X97438Y-83800D01*
D02*
G37*
G36*
X67438D02*
X66562D01*
X65754Y-84135D01*
X65135Y-84754D01*
X64800Y-85562D01*
Y-86438D01*
X65135Y-87246D01*
X65754Y-87865D01*
X66562Y-88200D01*
X67438D01*
X68246Y-87865D01*
X68865Y-87246D01*
X69200Y-86438D01*
Y-85562D01*
X68865Y-84754D01*
X68246Y-84135D01*
X67438Y-83800D01*
D02*
G37*
G36*
X17438D02*
X16562D01*
X15754Y-84135D01*
X15135Y-84754D01*
X14800Y-85562D01*
Y-86438D01*
X15135Y-87246D01*
X15754Y-87865D01*
X16562Y-88200D01*
X17438D01*
X18246Y-87865D01*
X18865Y-87246D01*
X19200Y-86438D01*
Y-85562D01*
X18865Y-84754D01*
X18246Y-84135D01*
X17438Y-83800D01*
D02*
G37*
G36*
X7438D02*
X6562D01*
X5754Y-84135D01*
X5135Y-84754D01*
X4800Y-85562D01*
Y-86438D01*
X5135Y-87246D01*
X5754Y-87865D01*
X6562Y-88200D01*
X7438D01*
X8246Y-87865D01*
X8865Y-87246D01*
X9200Y-86438D01*
Y-85562D01*
X8865Y-84754D01*
X8246Y-84135D01*
X7438Y-83800D01*
D02*
G37*
G36*
X82338Y-93600D02*
X81462D01*
X80654Y-93935D01*
X80035Y-94554D01*
X79950Y-94759D01*
X79450D01*
X79365Y-94554D01*
X78746Y-93935D01*
X77938Y-93600D01*
X77062D01*
X76254Y-93935D01*
X75635Y-94554D01*
X75300Y-95362D01*
Y-96238D01*
X75635Y-97046D01*
X76254Y-97665D01*
X77062Y-98000D01*
X77938D01*
X78746Y-97665D01*
X79365Y-97046D01*
X79450Y-96841D01*
X79950D01*
X80035Y-97046D01*
X80654Y-97665D01*
X81462Y-98000D01*
X82338D01*
X83146Y-97665D01*
X83765Y-97046D01*
X84100Y-96238D01*
Y-95362D01*
X83765Y-94554D01*
X83146Y-93935D01*
X82338Y-93600D01*
D02*
G37*
G36*
X332438Y-93800D02*
X331562D01*
X330754Y-94135D01*
X330135Y-94754D01*
X329800Y-95562D01*
Y-96438D01*
X330135Y-97246D01*
X330754Y-97865D01*
X331562Y-98200D01*
X332438D01*
X333246Y-97865D01*
X333865Y-97246D01*
X334200Y-96438D01*
Y-95562D01*
X333865Y-94754D01*
X333246Y-94135D01*
X332438Y-93800D01*
D02*
G37*
G36*
X272438D02*
X271562D01*
X270754Y-94135D01*
X270135Y-94754D01*
X269800Y-95562D01*
Y-96438D01*
X270135Y-97246D01*
X270754Y-97865D01*
X271562Y-98200D01*
X272438D01*
X273246Y-97865D01*
X273865Y-97246D01*
X274200Y-96438D01*
Y-95562D01*
X273865Y-94754D01*
X273246Y-94135D01*
X272438Y-93800D01*
D02*
G37*
G36*
X262438D02*
X261562D01*
X260754Y-94135D01*
X260135Y-94754D01*
X259800Y-95562D01*
Y-96438D01*
X260135Y-97246D01*
X260754Y-97865D01*
X261562Y-98200D01*
X262438D01*
X263246Y-97865D01*
X263865Y-97246D01*
X264200Y-96438D01*
Y-95562D01*
X263865Y-94754D01*
X263246Y-94135D01*
X262438Y-93800D01*
D02*
G37*
G36*
X62438D02*
X61562D01*
X60754Y-94135D01*
X60135Y-94754D01*
X59800Y-95562D01*
Y-96438D01*
X60135Y-97246D01*
X60754Y-97865D01*
X61562Y-98200D01*
X62438D01*
X63246Y-97865D01*
X63865Y-97246D01*
X64200Y-96438D01*
Y-95562D01*
X63865Y-94754D01*
X63246Y-94135D01*
X62438Y-93800D01*
D02*
G37*
G36*
X22438D02*
X21562D01*
X20754Y-94135D01*
X20135Y-94754D01*
X19800Y-95562D01*
Y-96438D01*
X20135Y-97246D01*
X20754Y-97865D01*
X21562Y-98200D01*
X22438D01*
X23246Y-97865D01*
X23865Y-97246D01*
X24200Y-96438D01*
Y-95562D01*
X23865Y-94754D01*
X23246Y-94135D01*
X22438Y-93800D01*
D02*
G37*
G36*
X12438D02*
X11562D01*
X10754Y-94135D01*
X10135Y-94754D01*
X9800Y-95562D01*
Y-96438D01*
X10135Y-97246D01*
X10754Y-97865D01*
X11562Y-98200D01*
X12438D01*
X13246Y-97865D01*
X13865Y-97246D01*
X14200Y-96438D01*
Y-95562D01*
X13865Y-94754D01*
X13246Y-94135D01*
X12438Y-93800D01*
D02*
G37*
G36*
X337438Y-103800D02*
X336562D01*
X335754Y-104135D01*
X335135Y-104754D01*
X334800Y-105562D01*
Y-106438D01*
X335135Y-107246D01*
X335754Y-107865D01*
X336562Y-108200D01*
X337438D01*
X338246Y-107865D01*
X338865Y-107246D01*
X339200Y-106438D01*
Y-105562D01*
X338865Y-104754D01*
X338246Y-104135D01*
X337438Y-103800D01*
D02*
G37*
G36*
X327438D02*
X326562D01*
X325754Y-104135D01*
X325135Y-104754D01*
X324800Y-105562D01*
Y-106438D01*
X325135Y-107246D01*
X325754Y-107865D01*
X326562Y-108200D01*
X327438D01*
X328246Y-107865D01*
X328865Y-107246D01*
X329200Y-106438D01*
Y-105562D01*
X328865Y-104754D01*
X328246Y-104135D01*
X327438Y-103800D01*
D02*
G37*
G36*
X257438D02*
X256562D01*
X255754Y-104135D01*
X255135Y-104754D01*
X254800Y-105562D01*
Y-106438D01*
X255135Y-107246D01*
X255754Y-107865D01*
X256562Y-108200D01*
X257438D01*
X258246Y-107865D01*
X258865Y-107246D01*
X259200Y-106438D01*
Y-105562D01*
X258865Y-104754D01*
X258246Y-104135D01*
X257438Y-103800D01*
D02*
G37*
G36*
X57438D02*
X56562D01*
X55754Y-104135D01*
X55135Y-104754D01*
X54800Y-105562D01*
Y-106438D01*
X55135Y-107246D01*
X55754Y-107865D01*
X56562Y-108200D01*
X57438D01*
X58246Y-107865D01*
X58865Y-107246D01*
X59200Y-106438D01*
Y-105562D01*
X58865Y-104754D01*
X58246Y-104135D01*
X57438Y-103800D01*
D02*
G37*
G36*
X37438D02*
X36562D01*
X35754Y-104135D01*
X35135Y-104754D01*
X34800Y-105562D01*
Y-106438D01*
X35135Y-107246D01*
X35754Y-107865D01*
X36562Y-108200D01*
X37438D01*
X38246Y-107865D01*
X38865Y-107246D01*
X39200Y-106438D01*
Y-105562D01*
X38865Y-104754D01*
X38246Y-104135D01*
X37438Y-103800D01*
D02*
G37*
G36*
X27438D02*
X26562D01*
X25754Y-104135D01*
X25135Y-104754D01*
X24800Y-105562D01*
Y-106438D01*
X25135Y-107246D01*
X25754Y-107865D01*
X26562Y-108200D01*
X27438D01*
X28246Y-107865D01*
X28865Y-107246D01*
X29200Y-106438D01*
Y-105562D01*
X28865Y-104754D01*
X28246Y-104135D01*
X27438Y-103800D01*
D02*
G37*
G36*
X332438Y-113800D02*
X331562D01*
X330754Y-114135D01*
X330135Y-114754D01*
X329800Y-115562D01*
Y-116438D01*
X330135Y-117246D01*
X330754Y-117865D01*
X331562Y-118200D01*
X332438D01*
X333246Y-117865D01*
X333865Y-117246D01*
X334200Y-116438D01*
Y-115562D01*
X333865Y-114754D01*
X333246Y-114135D01*
X332438Y-113800D01*
D02*
G37*
G36*
X252438D02*
X251562D01*
X250754Y-114135D01*
X250135Y-114754D01*
X249800Y-115562D01*
Y-116438D01*
X250135Y-117246D01*
X250754Y-117865D01*
X251562Y-118200D01*
X252438D01*
X253246Y-117865D01*
X253865Y-117246D01*
X254200Y-116438D01*
Y-115562D01*
X253865Y-114754D01*
X253246Y-114135D01*
X252438Y-113800D01*
D02*
G37*
G36*
X72438D02*
X71562D01*
X70754Y-114135D01*
X70135Y-114754D01*
X69800Y-115562D01*
Y-116438D01*
X70135Y-117246D01*
X70754Y-117865D01*
X71562Y-118200D01*
X72438D01*
X73246Y-117865D01*
X73865Y-117246D01*
X74200Y-116438D01*
Y-115562D01*
X73865Y-114754D01*
X73246Y-114135D01*
X72438Y-113800D01*
D02*
G37*
G36*
X62438D02*
X61562D01*
X60754Y-114135D01*
X60135Y-114754D01*
X59800Y-115562D01*
Y-116438D01*
X60135Y-117246D01*
X60754Y-117865D01*
X61562Y-118200D01*
X62438D01*
X63246Y-117865D01*
X63865Y-117246D01*
X64200Y-116438D01*
Y-115562D01*
X63865Y-114754D01*
X63246Y-114135D01*
X62438Y-113800D01*
D02*
G37*
G36*
X52438D02*
X51562D01*
X50754Y-114135D01*
X50135Y-114754D01*
X49800Y-115562D01*
Y-116438D01*
X50135Y-117246D01*
X50754Y-117865D01*
X51562Y-118200D01*
X52438D01*
X53246Y-117865D01*
X53865Y-117246D01*
X54200Y-116438D01*
Y-115562D01*
X53865Y-114754D01*
X53246Y-114135D01*
X52438Y-113800D01*
D02*
G37*
G36*
X42438D02*
X41562D01*
X40754Y-114135D01*
X40135Y-114754D01*
X39800Y-115562D01*
Y-116438D01*
X40135Y-117246D01*
X40754Y-117865D01*
X41562Y-118200D01*
X42438D01*
X43246Y-117865D01*
X43865Y-117246D01*
X44200Y-116438D01*
Y-115562D01*
X43865Y-114754D01*
X43246Y-114135D01*
X42438Y-113800D01*
D02*
G37*
G36*
X32438D02*
X31562D01*
X30754Y-114135D01*
X30135Y-114754D01*
X29800Y-115562D01*
Y-116438D01*
X30135Y-117246D01*
X30754Y-117865D01*
X31562Y-118200D01*
X32438D01*
X33246Y-117865D01*
X33865Y-117246D01*
X34200Y-116438D01*
Y-115562D01*
X33865Y-114754D01*
X33246Y-114135D01*
X32438Y-113800D01*
D02*
G37*
G36*
X337438Y-123800D02*
X336562D01*
X335754Y-124135D01*
X335135Y-124754D01*
X334800Y-125562D01*
Y-126438D01*
X335135Y-127246D01*
X335754Y-127865D01*
X336562Y-128200D01*
X337438D01*
X338246Y-127865D01*
X338865Y-127246D01*
X339200Y-126438D01*
Y-125562D01*
X338865Y-124754D01*
X338246Y-124135D01*
X337438Y-123800D01*
D02*
G37*
G36*
X327438D02*
X326562D01*
X325754Y-124135D01*
X325135Y-124754D01*
X324800Y-125562D01*
Y-126438D01*
X325135Y-127246D01*
X325754Y-127865D01*
X326562Y-128200D01*
X327438D01*
X328246Y-127865D01*
X328865Y-127246D01*
X329200Y-126438D01*
Y-125562D01*
X328865Y-124754D01*
X328246Y-124135D01*
X327438Y-123800D01*
D02*
G37*
G36*
X277438D02*
X276562D01*
X275754Y-124135D01*
X275135Y-124754D01*
X274800Y-125562D01*
Y-126438D01*
X275135Y-127246D01*
X275754Y-127865D01*
X276562Y-128200D01*
X277438D01*
X278246Y-127865D01*
X278865Y-127246D01*
X279200Y-126438D01*
Y-125562D01*
X278865Y-124754D01*
X278246Y-124135D01*
X277438Y-123800D01*
D02*
G37*
G36*
X47438D02*
X46562D01*
X45754Y-124135D01*
X45135Y-124754D01*
X44800Y-125562D01*
Y-126438D01*
X45135Y-127246D01*
X45754Y-127865D01*
X46562Y-128200D01*
X47438D01*
X48246Y-127865D01*
X48865Y-127246D01*
X49200Y-126438D01*
Y-125562D01*
X48865Y-124754D01*
X48246Y-124135D01*
X47438Y-123800D01*
D02*
G37*
G36*
X17438D02*
X16562D01*
X15754Y-124135D01*
X15135Y-124754D01*
X14800Y-125562D01*
Y-126438D01*
X15135Y-127246D01*
X15754Y-127865D01*
X16562Y-128200D01*
X17438D01*
X18246Y-127865D01*
X18865Y-127246D01*
X19200Y-126438D01*
Y-125562D01*
X18865Y-124754D01*
X18246Y-124135D01*
X17438Y-123800D01*
D02*
G37*
G36*
X7438D02*
X6562D01*
X5754Y-124135D01*
X5135Y-124754D01*
X4800Y-125562D01*
Y-126438D01*
X5135Y-127246D01*
X5754Y-127865D01*
X6562Y-128200D01*
X7438D01*
X8246Y-127865D01*
X8865Y-127246D01*
X9200Y-126438D01*
Y-125562D01*
X8865Y-124754D01*
X8246Y-124135D01*
X7438Y-123800D01*
D02*
G37*
G36*
X48638Y-131200D02*
X47762D01*
X46954Y-131535D01*
X46335Y-132154D01*
X46000Y-132962D01*
Y-133838D01*
X46335Y-134646D01*
X46954Y-135265D01*
X47762Y-135600D01*
X48638D01*
X49446Y-135265D01*
X50065Y-134646D01*
X50400Y-133838D01*
Y-132962D01*
X50065Y-132154D01*
X49446Y-131535D01*
X48638Y-131200D01*
D02*
G37*
G36*
X322438Y-133800D02*
X321562D01*
X320754Y-134135D01*
X320135Y-134754D01*
X319800Y-135562D01*
Y-136438D01*
X320135Y-137246D01*
X320754Y-137865D01*
X321562Y-138200D01*
X322438D01*
X323246Y-137865D01*
X323865Y-137246D01*
X324200Y-136438D01*
Y-135562D01*
X323865Y-134754D01*
X323246Y-134135D01*
X322438Y-133800D01*
D02*
G37*
G36*
X312438D02*
X311562D01*
X310754Y-134135D01*
X310135Y-134754D01*
X309800Y-135562D01*
Y-136438D01*
X310135Y-137246D01*
X310754Y-137865D01*
X311562Y-138200D01*
X312438D01*
X313246Y-137865D01*
X313865Y-137246D01*
X314200Y-136438D01*
Y-135562D01*
X313865Y-134754D01*
X313246Y-134135D01*
X312438Y-133800D01*
D02*
G37*
G36*
X302438D02*
X301562D01*
X300754Y-134135D01*
X300135Y-134754D01*
X299800Y-135562D01*
Y-136438D01*
X300135Y-137246D01*
X300754Y-137865D01*
X301562Y-138200D01*
X302438D01*
X303246Y-137865D01*
X303865Y-137246D01*
X304200Y-136438D01*
Y-135562D01*
X303865Y-134754D01*
X303246Y-134135D01*
X302438Y-133800D01*
D02*
G37*
G36*
X292438D02*
X291562D01*
X290754Y-134135D01*
X290135Y-134754D01*
X289800Y-135562D01*
Y-136438D01*
X290135Y-137246D01*
X290754Y-137865D01*
X291562Y-138200D01*
X292438D01*
X293246Y-137865D01*
X293865Y-137246D01*
X294200Y-136438D01*
Y-135562D01*
X293865Y-134754D01*
X293246Y-134135D01*
X292438Y-133800D01*
D02*
G37*
G36*
X282438D02*
X281562D01*
X280754Y-134135D01*
X280135Y-134754D01*
X279800Y-135562D01*
Y-136438D01*
X280135Y-137246D01*
X280754Y-137865D01*
X281562Y-138200D01*
X282438D01*
X283246Y-137865D01*
X283865Y-137246D01*
X284200Y-136438D01*
Y-135562D01*
X283865Y-134754D01*
X283246Y-134135D01*
X282438Y-133800D01*
D02*
G37*
G36*
X272438D02*
X271562D01*
X270754Y-134135D01*
X270135Y-134754D01*
X269800Y-135562D01*
Y-136438D01*
X270135Y-137246D01*
X270754Y-137865D01*
X271562Y-138200D01*
X272438D01*
X273246Y-137865D01*
X273865Y-137246D01*
X274200Y-136438D01*
Y-135562D01*
X273865Y-134754D01*
X273246Y-134135D01*
X272438Y-133800D01*
D02*
G37*
G36*
X102438D02*
X101562D01*
X100754Y-134135D01*
X100135Y-134754D01*
X99800Y-135562D01*
Y-136438D01*
X100135Y-137246D01*
X100754Y-137865D01*
X101562Y-138200D01*
X102438D01*
X103246Y-137865D01*
X103865Y-137246D01*
X104200Y-136438D01*
Y-135562D01*
X103865Y-134754D01*
X103246Y-134135D01*
X102438Y-133800D01*
D02*
G37*
G36*
X22438D02*
X21562D01*
X20754Y-134135D01*
X20135Y-134754D01*
X19800Y-135562D01*
Y-136438D01*
X20135Y-137246D01*
X20754Y-137865D01*
X21562Y-138200D01*
X22438D01*
X23246Y-137865D01*
X23865Y-137246D01*
X24200Y-136438D01*
Y-135562D01*
X23865Y-134754D01*
X23246Y-134135D01*
X22438Y-133800D01*
D02*
G37*
G36*
X12438D02*
X11562D01*
X10754Y-134135D01*
X10135Y-134754D01*
X9800Y-135562D01*
Y-136438D01*
X10135Y-137246D01*
X10754Y-137865D01*
X11562Y-138200D01*
X12438D01*
X13246Y-137865D01*
X13865Y-137246D01*
X14200Y-136438D01*
Y-135562D01*
X13865Y-134754D01*
X13246Y-134135D01*
X12438Y-133800D01*
D02*
G37*
G36*
X337438Y-143800D02*
X336562D01*
X335754Y-144135D01*
X335135Y-144754D01*
X334800Y-145562D01*
Y-146438D01*
X335135Y-147246D01*
X335754Y-147865D01*
X336562Y-148200D01*
X337438D01*
X338246Y-147865D01*
X338865Y-147246D01*
X339200Y-146438D01*
Y-145562D01*
X338865Y-144754D01*
X338246Y-144135D01*
X337438Y-143800D01*
D02*
G37*
G36*
X327438D02*
X326562D01*
X325754Y-144135D01*
X325135Y-144754D01*
X324800Y-145562D01*
Y-146438D01*
X325135Y-147246D01*
X325754Y-147865D01*
X326562Y-148200D01*
X327438D01*
X328246Y-147865D01*
X328865Y-147246D01*
X329200Y-146438D01*
Y-145562D01*
X328865Y-144754D01*
X328246Y-144135D01*
X327438Y-143800D01*
D02*
G37*
G36*
X317438D02*
X316562D01*
X315754Y-144135D01*
X315135Y-144754D01*
X314800Y-145562D01*
Y-146438D01*
X315135Y-147246D01*
X315754Y-147865D01*
X316562Y-148200D01*
X317438D01*
X318246Y-147865D01*
X318865Y-147246D01*
X319200Y-146438D01*
Y-145562D01*
X318865Y-144754D01*
X318246Y-144135D01*
X317438Y-143800D01*
D02*
G37*
G36*
X307438D02*
X306562D01*
X305754Y-144135D01*
X305135Y-144754D01*
X304800Y-145562D01*
Y-146438D01*
X305135Y-147246D01*
X305754Y-147865D01*
X306562Y-148200D01*
X307438D01*
X308246Y-147865D01*
X308865Y-147246D01*
X309200Y-146438D01*
Y-145562D01*
X308865Y-144754D01*
X308246Y-144135D01*
X307438Y-143800D01*
D02*
G37*
G36*
X297438D02*
X296562D01*
X295754Y-144135D01*
X295135Y-144754D01*
X294800Y-145562D01*
Y-146438D01*
X295135Y-147246D01*
X295754Y-147865D01*
X296562Y-148200D01*
X297438D01*
X298246Y-147865D01*
X298865Y-147246D01*
X299200Y-146438D01*
Y-145562D01*
X298865Y-144754D01*
X298246Y-144135D01*
X297438Y-143800D01*
D02*
G37*
G36*
X287438D02*
X286562D01*
X285754Y-144135D01*
X285135Y-144754D01*
X284800Y-145562D01*
Y-146438D01*
X285135Y-147246D01*
X285754Y-147865D01*
X286562Y-148200D01*
X287438D01*
X288246Y-147865D01*
X288865Y-147246D01*
X289200Y-146438D01*
Y-145562D01*
X288865Y-144754D01*
X288246Y-144135D01*
X287438Y-143800D01*
D02*
G37*
G36*
X277438D02*
X276562D01*
X275754Y-144135D01*
X275135Y-144754D01*
X274800Y-145562D01*
Y-146438D01*
X275135Y-147246D01*
X275754Y-147865D01*
X276562Y-148200D01*
X277438D01*
X278246Y-147865D01*
X278865Y-147246D01*
X279200Y-146438D01*
Y-145562D01*
X278865Y-144754D01*
X278246Y-144135D01*
X277438Y-143800D01*
D02*
G37*
G36*
X67438D02*
X66562D01*
X65754Y-144135D01*
X65135Y-144754D01*
X64800Y-145562D01*
Y-146438D01*
X65135Y-147246D01*
X65754Y-147865D01*
X66562Y-148200D01*
X67438D01*
X68246Y-147865D01*
X68865Y-147246D01*
X69200Y-146438D01*
Y-145562D01*
X68865Y-144754D01*
X68246Y-144135D01*
X67438Y-143800D01*
D02*
G37*
G36*
X57438D02*
X56562D01*
X55754Y-144135D01*
X55135Y-144754D01*
X54800Y-145562D01*
Y-146438D01*
X55135Y-147246D01*
X55754Y-147865D01*
X56562Y-148200D01*
X57438D01*
X58246Y-147865D01*
X58865Y-147246D01*
X59200Y-146438D01*
Y-145562D01*
X58865Y-144754D01*
X58246Y-144135D01*
X57438Y-143800D01*
D02*
G37*
G36*
X17438D02*
X16562D01*
X15754Y-144135D01*
X15135Y-144754D01*
X14800Y-145562D01*
Y-146438D01*
X15135Y-147246D01*
X15754Y-147865D01*
X16562Y-148200D01*
X17438D01*
X18246Y-147865D01*
X18865Y-147246D01*
X19200Y-146438D01*
Y-145562D01*
X18865Y-144754D01*
X18246Y-144135D01*
X17438Y-143800D01*
D02*
G37*
G36*
X7438D02*
X6562D01*
X5754Y-144135D01*
X5135Y-144754D01*
X4800Y-145562D01*
Y-146438D01*
X5135Y-147246D01*
X5754Y-147865D01*
X6562Y-148200D01*
X7438D01*
X8246Y-147865D01*
X8865Y-147246D01*
X9200Y-146438D01*
Y-145562D01*
X8865Y-144754D01*
X8246Y-144135D01*
X7438Y-143800D01*
D02*
G37*
G36*
X312438Y-153800D02*
X311562D01*
X310754Y-154135D01*
X310135Y-154754D01*
X309800Y-155562D01*
Y-156438D01*
X310135Y-157246D01*
X310754Y-157865D01*
X311562Y-158200D01*
X312438D01*
X313246Y-157865D01*
X313865Y-157246D01*
X314200Y-156438D01*
Y-155562D01*
X313865Y-154754D01*
X313246Y-154135D01*
X312438Y-153800D01*
D02*
G37*
G36*
X302438D02*
X301562D01*
X300754Y-154135D01*
X300135Y-154754D01*
X299800Y-155562D01*
Y-156438D01*
X300135Y-157246D01*
X300754Y-157865D01*
X301562Y-158200D01*
X302438D01*
X303246Y-157865D01*
X303865Y-157246D01*
X304200Y-156438D01*
Y-155562D01*
X303865Y-154754D01*
X303246Y-154135D01*
X302438Y-153800D01*
D02*
G37*
G36*
X292438D02*
X291562D01*
X290754Y-154135D01*
X290135Y-154754D01*
X289800Y-155562D01*
Y-156438D01*
X290135Y-157246D01*
X290754Y-157865D01*
X291562Y-158200D01*
X292438D01*
X293246Y-157865D01*
X293865Y-157246D01*
X294200Y-156438D01*
Y-155562D01*
X293865Y-154754D01*
X293246Y-154135D01*
X292438Y-153800D01*
D02*
G37*
G36*
X272438D02*
X271562D01*
X270754Y-154135D01*
X270135Y-154754D01*
X269800Y-155562D01*
Y-156438D01*
X270135Y-157246D01*
X270754Y-157865D01*
X271562Y-158200D01*
X272438D01*
X273246Y-157865D01*
X273865Y-157246D01*
X274200Y-156438D01*
Y-155562D01*
X273865Y-154754D01*
X273246Y-154135D01*
X272438Y-153800D01*
D02*
G37*
G36*
X262438D02*
X261562D01*
X260754Y-154135D01*
X260135Y-154754D01*
X259800Y-155562D01*
Y-156438D01*
X260135Y-157246D01*
X260754Y-157865D01*
X261562Y-158200D01*
X262438D01*
X263246Y-157865D01*
X263865Y-157246D01*
X264200Y-156438D01*
Y-155562D01*
X263865Y-154754D01*
X263246Y-154135D01*
X262438Y-153800D01*
D02*
G37*
G36*
X252438D02*
X251562D01*
X250754Y-154135D01*
X250135Y-154754D01*
X249800Y-155562D01*
Y-156438D01*
X250135Y-157246D01*
X250754Y-157865D01*
X251562Y-158200D01*
X252438D01*
X253246Y-157865D01*
X253865Y-157246D01*
X254200Y-156438D01*
Y-155562D01*
X253865Y-154754D01*
X253246Y-154135D01*
X252438Y-153800D01*
D02*
G37*
G36*
X82438D02*
X81562D01*
X80754Y-154135D01*
X80135Y-154754D01*
X79800Y-155562D01*
Y-156438D01*
X80135Y-157246D01*
X80754Y-157865D01*
X81562Y-158200D01*
X82438D01*
X83246Y-157865D01*
X83865Y-157246D01*
X84200Y-156438D01*
Y-155562D01*
X83865Y-154754D01*
X83246Y-154135D01*
X82438Y-153800D01*
D02*
G37*
G36*
X72438D02*
X71562D01*
X70754Y-154135D01*
X70135Y-154754D01*
X69800Y-155562D01*
Y-156438D01*
X70135Y-157246D01*
X70754Y-157865D01*
X71562Y-158200D01*
X72438D01*
X73246Y-157865D01*
X73865Y-157246D01*
X74200Y-156438D01*
Y-155562D01*
X73865Y-154754D01*
X73246Y-154135D01*
X72438Y-153800D01*
D02*
G37*
G36*
X62438D02*
X61562D01*
X60754Y-154135D01*
X60135Y-154754D01*
X59800Y-155562D01*
Y-156438D01*
X60135Y-157246D01*
X60754Y-157865D01*
X61562Y-158200D01*
X62438D01*
X63246Y-157865D01*
X63865Y-157246D01*
X64200Y-156438D01*
Y-155562D01*
X63865Y-154754D01*
X63246Y-154135D01*
X62438Y-153800D01*
D02*
G37*
G36*
X52438D02*
X51562D01*
X50754Y-154135D01*
X50135Y-154754D01*
X49800Y-155562D01*
Y-156438D01*
X50135Y-157246D01*
X50754Y-157865D01*
X51562Y-158200D01*
X52438D01*
X53246Y-157865D01*
X53865Y-157246D01*
X54200Y-156438D01*
Y-155562D01*
X53865Y-154754D01*
X53246Y-154135D01*
X52438Y-153800D01*
D02*
G37*
G36*
X42438D02*
X41562D01*
X40754Y-154135D01*
X40135Y-154754D01*
X39800Y-155562D01*
Y-156438D01*
X40135Y-157246D01*
X40754Y-157865D01*
X41562Y-158200D01*
X42438D01*
X43246Y-157865D01*
X43865Y-157246D01*
X44200Y-156438D01*
Y-155562D01*
X43865Y-154754D01*
X43246Y-154135D01*
X42438Y-153800D01*
D02*
G37*
G36*
X22438D02*
X21562D01*
X20754Y-154135D01*
X20135Y-154754D01*
X19800Y-155562D01*
Y-156438D01*
X20135Y-157246D01*
X20754Y-157865D01*
X21562Y-158200D01*
X22438D01*
X23246Y-157865D01*
X23865Y-157246D01*
X24200Y-156438D01*
Y-155562D01*
X23865Y-154754D01*
X23246Y-154135D01*
X22438Y-153800D01*
D02*
G37*
G36*
X12438D02*
X11562D01*
X10754Y-154135D01*
X10135Y-154754D01*
X9800Y-155562D01*
Y-156438D01*
X10135Y-157246D01*
X10754Y-157865D01*
X11562Y-158200D01*
X12438D01*
X13246Y-157865D01*
X13865Y-157246D01*
X14200Y-156438D01*
Y-155562D01*
X13865Y-154754D01*
X13246Y-154135D01*
X12438Y-153800D01*
D02*
G37*
G36*
X282438D02*
X281562D01*
X280754Y-154135D01*
X280135Y-154754D01*
X279800Y-155562D01*
Y-156438D01*
X280135Y-157246D01*
X280754Y-157865D01*
X280952Y-157947D01*
X280853Y-158447D01*
X274447D01*
Y-166353D01*
X282353D01*
Y-158662D01*
X282401Y-158397D01*
X282700Y-158091D01*
X283246Y-157865D01*
X283865Y-157246D01*
X284200Y-156438D01*
Y-155562D01*
X283865Y-154754D01*
X283246Y-154135D01*
X282438Y-153800D01*
D02*
G37*
G36*
X337438Y-163800D02*
X336562D01*
X335754Y-164135D01*
X335135Y-164754D01*
X334800Y-165562D01*
Y-166438D01*
X335135Y-167246D01*
X335754Y-167865D01*
X336562Y-168200D01*
X337438D01*
X338246Y-167865D01*
X338865Y-167246D01*
X339200Y-166438D01*
Y-165562D01*
X338865Y-164754D01*
X338246Y-164135D01*
X337438Y-163800D01*
D02*
G37*
G36*
X317438D02*
X316562D01*
X315754Y-164135D01*
X315135Y-164754D01*
X314800Y-165562D01*
Y-166438D01*
X315135Y-167246D01*
X315754Y-167865D01*
X316562Y-168200D01*
X317438D01*
X318246Y-167865D01*
X318865Y-167246D01*
X319200Y-166438D01*
Y-165562D01*
X318865Y-164754D01*
X318246Y-164135D01*
X317438Y-163800D01*
D02*
G37*
G36*
X307438D02*
X306562D01*
X305754Y-164135D01*
X305135Y-164754D01*
X304800Y-165562D01*
Y-166438D01*
X305135Y-167246D01*
X305754Y-167865D01*
X306562Y-168200D01*
X307438D01*
X308246Y-167865D01*
X308865Y-167246D01*
X309200Y-166438D01*
Y-165562D01*
X308865Y-164754D01*
X308246Y-164135D01*
X307438Y-163800D01*
D02*
G37*
G36*
X297438D02*
X296562D01*
X295754Y-164135D01*
X295135Y-164754D01*
X294800Y-165562D01*
Y-166438D01*
X295135Y-167246D01*
X295754Y-167865D01*
X296562Y-168200D01*
X297438D01*
X298246Y-167865D01*
X298865Y-167246D01*
X299200Y-166438D01*
Y-165562D01*
X298865Y-164754D01*
X298246Y-164135D01*
X297438Y-163800D01*
D02*
G37*
G36*
X257438D02*
X256562D01*
X255754Y-164135D01*
X255135Y-164754D01*
X254800Y-165562D01*
Y-166438D01*
X255135Y-167246D01*
X255754Y-167865D01*
X256562Y-168200D01*
X257438D01*
X258246Y-167865D01*
X258865Y-167246D01*
X259200Y-166438D01*
Y-165562D01*
X258865Y-164754D01*
X258246Y-164135D01*
X257438Y-163800D01*
D02*
G37*
G36*
X247438D02*
X246562D01*
X245754Y-164135D01*
X245135Y-164754D01*
X244800Y-165562D01*
Y-166438D01*
X245135Y-167246D01*
X245754Y-167865D01*
X246562Y-168200D01*
X247438D01*
X248246Y-167865D01*
X248865Y-167246D01*
X249200Y-166438D01*
Y-165562D01*
X248865Y-164754D01*
X248246Y-164135D01*
X247438Y-163800D01*
D02*
G37*
G36*
X17438D02*
X16562D01*
X15754Y-164135D01*
X15135Y-164754D01*
X14800Y-165562D01*
Y-166438D01*
X15135Y-167246D01*
X15754Y-167865D01*
X16562Y-168200D01*
X17438D01*
X18246Y-167865D01*
X18865Y-167246D01*
X19200Y-166438D01*
Y-165562D01*
X18865Y-164754D01*
X18246Y-164135D01*
X17438Y-163800D01*
D02*
G37*
G36*
X7438D02*
X6562D01*
X5754Y-164135D01*
X5135Y-164754D01*
X4800Y-165562D01*
Y-166438D01*
X5135Y-167246D01*
X5754Y-167865D01*
X6562Y-168200D01*
X7438D01*
X8246Y-167865D01*
X8865Y-167246D01*
X9200Y-166438D01*
Y-165562D01*
X8865Y-164754D01*
X8246Y-164135D01*
X7438Y-163800D01*
D02*
G37*
G36*
X44938Y-165700D02*
X44062D01*
X43254Y-166035D01*
X42635Y-166654D01*
X42300Y-167462D01*
Y-168338D01*
X42635Y-169146D01*
X43254Y-169765D01*
X44062Y-170100D01*
X44938D01*
X45746Y-169765D01*
X46365Y-169146D01*
X46700Y-168338D01*
Y-167462D01*
X46365Y-166654D01*
X45746Y-166035D01*
X44938Y-165700D01*
D02*
G37*
G36*
X278920Y-168447D02*
X277880D01*
X276874Y-168717D01*
X275973Y-169237D01*
X275237Y-169973D01*
X274717Y-170874D01*
X274447Y-171880D01*
Y-172920D01*
X274717Y-173926D01*
X275237Y-174827D01*
X275973Y-175563D01*
X276874Y-176083D01*
X277880Y-176353D01*
X278920D01*
X279926Y-176083D01*
X280827Y-175563D01*
X281563Y-174827D01*
X282083Y-173926D01*
X282353Y-172920D01*
Y-171880D01*
X282083Y-170874D01*
X281563Y-169973D01*
X280827Y-169237D01*
X279926Y-168717D01*
X278920Y-168447D01*
D02*
G37*
G36*
X332438Y-173800D02*
X331562D01*
X330754Y-174135D01*
X330135Y-174754D01*
X329800Y-175562D01*
Y-176438D01*
X330135Y-177246D01*
X330754Y-177865D01*
X331562Y-178200D01*
X332438D01*
X333246Y-177865D01*
X333865Y-177246D01*
X334200Y-176438D01*
Y-175562D01*
X333865Y-174754D01*
X333246Y-174135D01*
X332438Y-173800D01*
D02*
G37*
G36*
X322438D02*
X321562D01*
X320754Y-174135D01*
X320135Y-174754D01*
X319800Y-175562D01*
Y-176438D01*
X320135Y-177246D01*
X320754Y-177865D01*
X321562Y-178200D01*
X322438D01*
X323246Y-177865D01*
X323865Y-177246D01*
X324200Y-176438D01*
Y-175562D01*
X323865Y-174754D01*
X323246Y-174135D01*
X322438Y-173800D01*
D02*
G37*
G36*
X272438D02*
X271562D01*
X270754Y-174135D01*
X270135Y-174754D01*
X269800Y-175562D01*
Y-176438D01*
X270135Y-177246D01*
X270754Y-177865D01*
X271562Y-178200D01*
X272438D01*
X273246Y-177865D01*
X273865Y-177246D01*
X274200Y-176438D01*
Y-175562D01*
X273865Y-174754D01*
X273246Y-174135D01*
X272438Y-173800D01*
D02*
G37*
G36*
X262438D02*
X261562D01*
X260754Y-174135D01*
X260135Y-174754D01*
X259800Y-175562D01*
Y-176438D01*
X260135Y-177246D01*
X260754Y-177865D01*
X261562Y-178200D01*
X262438D01*
X263246Y-177865D01*
X263865Y-177246D01*
X264200Y-176438D01*
Y-175562D01*
X263865Y-174754D01*
X263246Y-174135D01*
X262438Y-173800D01*
D02*
G37*
G36*
X252438D02*
X251562D01*
X250754Y-174135D01*
X250135Y-174754D01*
X249800Y-175562D01*
Y-176438D01*
X250135Y-177246D01*
X250754Y-177865D01*
X251562Y-178200D01*
X252438D01*
X253246Y-177865D01*
X253865Y-177246D01*
X254200Y-176438D01*
Y-175562D01*
X253865Y-174754D01*
X253246Y-174135D01*
X252438Y-173800D01*
D02*
G37*
G36*
X242438D02*
X241562D01*
X240754Y-174135D01*
X240135Y-174754D01*
X239800Y-175562D01*
Y-176438D01*
X240135Y-177246D01*
X240754Y-177865D01*
X241562Y-178200D01*
X242438D01*
X243246Y-177865D01*
X243865Y-177246D01*
X244200Y-176438D01*
Y-175562D01*
X243865Y-174754D01*
X243246Y-174135D01*
X242438Y-173800D01*
D02*
G37*
G36*
X92438D02*
X91562D01*
X90754Y-174135D01*
X90135Y-174754D01*
X89800Y-175562D01*
Y-176438D01*
X90135Y-177246D01*
X90754Y-177865D01*
X91562Y-178200D01*
X92438D01*
X93246Y-177865D01*
X93865Y-177246D01*
X94200Y-176438D01*
Y-175562D01*
X93865Y-174754D01*
X93246Y-174135D01*
X92438Y-173800D01*
D02*
G37*
G36*
X82438D02*
X81562D01*
X80754Y-174135D01*
X80135Y-174754D01*
X79800Y-175562D01*
Y-176438D01*
X80135Y-177246D01*
X80754Y-177865D01*
X81562Y-178200D01*
X82438D01*
X83246Y-177865D01*
X83865Y-177246D01*
X84200Y-176438D01*
Y-175562D01*
X83865Y-174754D01*
X83246Y-174135D01*
X82438Y-173800D01*
D02*
G37*
G36*
X62438D02*
X61562D01*
X60754Y-174135D01*
X60135Y-174754D01*
X59800Y-175562D01*
Y-176438D01*
X60135Y-177246D01*
X60754Y-177865D01*
X61562Y-178200D01*
X62438D01*
X63246Y-177865D01*
X63865Y-177246D01*
X64200Y-176438D01*
Y-175562D01*
X63865Y-174754D01*
X63246Y-174135D01*
X62438Y-173800D01*
D02*
G37*
G36*
X52438D02*
X51562D01*
X50754Y-174135D01*
X50135Y-174754D01*
X49800Y-175562D01*
Y-176438D01*
X50135Y-177246D01*
X50754Y-177865D01*
X51562Y-178200D01*
X52438D01*
X53246Y-177865D01*
X53865Y-177246D01*
X54200Y-176438D01*
Y-175562D01*
X53865Y-174754D01*
X53246Y-174135D01*
X52438Y-173800D01*
D02*
G37*
G36*
X42438D02*
X41562D01*
X40754Y-174135D01*
X40135Y-174754D01*
X39800Y-175562D01*
Y-176438D01*
X40135Y-177246D01*
X40754Y-177865D01*
X41562Y-178200D01*
X42438D01*
X43246Y-177865D01*
X43865Y-177246D01*
X44200Y-176438D01*
Y-175562D01*
X43865Y-174754D01*
X43246Y-174135D01*
X42438Y-173800D01*
D02*
G37*
G36*
X22438D02*
X21562D01*
X20754Y-174135D01*
X20135Y-174754D01*
X19800Y-175562D01*
Y-176438D01*
X20135Y-177246D01*
X20754Y-177865D01*
X21562Y-178200D01*
X22438D01*
X23246Y-177865D01*
X23865Y-177246D01*
X24200Y-176438D01*
Y-175562D01*
X23865Y-174754D01*
X23246Y-174135D01*
X22438Y-173800D01*
D02*
G37*
G36*
X12438D02*
X11562D01*
X10754Y-174135D01*
X10135Y-174754D01*
X9800Y-175562D01*
Y-176438D01*
X10135Y-177246D01*
X10754Y-177865D01*
X11562Y-178200D01*
X12438D01*
X13246Y-177865D01*
X13865Y-177246D01*
X14200Y-176438D01*
Y-175562D01*
X13865Y-174754D01*
X13246Y-174135D01*
X12438Y-173800D01*
D02*
G37*
G36*
X337438Y-183800D02*
X336562D01*
X335754Y-184135D01*
X335135Y-184754D01*
X334800Y-185562D01*
Y-186438D01*
X335135Y-187246D01*
X335754Y-187865D01*
X336562Y-188200D01*
X337438D01*
X338246Y-187865D01*
X338865Y-187246D01*
X339200Y-186438D01*
Y-185562D01*
X338865Y-184754D01*
X338246Y-184135D01*
X337438Y-183800D01*
D02*
G37*
G36*
X327438D02*
X326562D01*
X325754Y-184135D01*
X325135Y-184754D01*
X324800Y-185562D01*
Y-186438D01*
X325135Y-187246D01*
X325754Y-187865D01*
X326562Y-188200D01*
X327438D01*
X328246Y-187865D01*
X328865Y-187246D01*
X329200Y-186438D01*
Y-185562D01*
X328865Y-184754D01*
X328246Y-184135D01*
X327438Y-183800D01*
D02*
G37*
G36*
X297438D02*
X296562D01*
X295754Y-184135D01*
X295135Y-184754D01*
X294800Y-185562D01*
Y-186438D01*
X295135Y-187246D01*
X295754Y-187865D01*
X296562Y-188200D01*
X297438D01*
X298246Y-187865D01*
X298865Y-187246D01*
X299200Y-186438D01*
Y-185562D01*
X298865Y-184754D01*
X298246Y-184135D01*
X297438Y-183800D01*
D02*
G37*
G36*
X277438D02*
X276562D01*
X275754Y-184135D01*
X275135Y-184754D01*
X274800Y-185562D01*
Y-186438D01*
X275135Y-187246D01*
X275754Y-187865D01*
X276562Y-188200D01*
X277438D01*
X278246Y-187865D01*
X278865Y-187246D01*
X279200Y-186438D01*
Y-185562D01*
X278865Y-184754D01*
X278246Y-184135D01*
X277438Y-183800D01*
D02*
G37*
G36*
X267438D02*
X266562D01*
X265754Y-184135D01*
X265135Y-184754D01*
X264800Y-185562D01*
Y-186438D01*
X265135Y-187246D01*
X265754Y-187865D01*
X266562Y-188200D01*
X267438D01*
X268246Y-187865D01*
X268865Y-187246D01*
X269200Y-186438D01*
Y-185562D01*
X268865Y-184754D01*
X268246Y-184135D01*
X267438Y-183800D01*
D02*
G37*
G36*
X257438D02*
X256562D01*
X255754Y-184135D01*
X255135Y-184754D01*
X254800Y-185562D01*
Y-186438D01*
X255135Y-187246D01*
X255754Y-187865D01*
X256562Y-188200D01*
X257438D01*
X258246Y-187865D01*
X258865Y-187246D01*
X259200Y-186438D01*
Y-185562D01*
X258865Y-184754D01*
X258246Y-184135D01*
X257438Y-183800D01*
D02*
G37*
G36*
X247438D02*
X246562D01*
X245754Y-184135D01*
X245135Y-184754D01*
X244800Y-185562D01*
Y-186438D01*
X245135Y-187246D01*
X245754Y-187865D01*
X246562Y-188200D01*
X247438D01*
X248246Y-187865D01*
X248865Y-187246D01*
X249200Y-186438D01*
Y-185562D01*
X248865Y-184754D01*
X248246Y-184135D01*
X247438Y-183800D01*
D02*
G37*
G36*
X107438D02*
X106562D01*
X105754Y-184135D01*
X105135Y-184754D01*
X104800Y-185562D01*
Y-186438D01*
X105135Y-187246D01*
X105754Y-187865D01*
X106562Y-188200D01*
X107438D01*
X108246Y-187865D01*
X108865Y-187246D01*
X109200Y-186438D01*
Y-185562D01*
X108865Y-184754D01*
X108246Y-184135D01*
X107438Y-183800D01*
D02*
G37*
G36*
X97438D02*
X96562D01*
X95754Y-184135D01*
X95135Y-184754D01*
X94800Y-185562D01*
Y-186438D01*
X95135Y-187246D01*
X95754Y-187865D01*
X96562Y-188200D01*
X97438D01*
X98246Y-187865D01*
X98865Y-187246D01*
X99200Y-186438D01*
Y-185562D01*
X98865Y-184754D01*
X98246Y-184135D01*
X97438Y-183800D01*
D02*
G37*
G36*
X87438D02*
X86562D01*
X85754Y-184135D01*
X85135Y-184754D01*
X84800Y-185562D01*
Y-186438D01*
X85135Y-187246D01*
X85754Y-187865D01*
X86562Y-188200D01*
X87438D01*
X88246Y-187865D01*
X88865Y-187246D01*
X89200Y-186438D01*
Y-185562D01*
X88865Y-184754D01*
X88246Y-184135D01*
X87438Y-183800D01*
D02*
G37*
G36*
X67438D02*
X66562D01*
X65754Y-184135D01*
X65135Y-184754D01*
X64800Y-185562D01*
Y-186438D01*
X65135Y-187246D01*
X65754Y-187865D01*
X66562Y-188200D01*
X67438D01*
X68246Y-187865D01*
X68865Y-187246D01*
X69200Y-186438D01*
Y-185562D01*
X68865Y-184754D01*
X68246Y-184135D01*
X67438Y-183800D01*
D02*
G37*
G36*
X17438D02*
X16562D01*
X15754Y-184135D01*
X15135Y-184754D01*
X14800Y-185562D01*
Y-186438D01*
X15135Y-187246D01*
X15754Y-187865D01*
X16562Y-188200D01*
X17438D01*
X18246Y-187865D01*
X18865Y-187246D01*
X19200Y-186438D01*
Y-185562D01*
X18865Y-184754D01*
X18246Y-184135D01*
X17438Y-183800D01*
D02*
G37*
G36*
X7438D02*
X6562D01*
X5754Y-184135D01*
X5135Y-184754D01*
X4800Y-185562D01*
Y-186438D01*
X5135Y-187246D01*
X5754Y-187865D01*
X6562Y-188200D01*
X7438D01*
X8246Y-187865D01*
X8865Y-187246D01*
X9200Y-186438D01*
Y-185562D01*
X8865Y-184754D01*
X8246Y-184135D01*
X7438Y-183800D01*
D02*
G37*
G36*
X44947Y-189710D02*
X44072D01*
X43263Y-190044D01*
X42645Y-190663D01*
X42310Y-191472D01*
Y-192347D01*
X42645Y-193156D01*
X43263Y-193775D01*
X44072Y-194110D01*
X44947D01*
X45756Y-193775D01*
X46375Y-193156D01*
X46710Y-192347D01*
Y-191472D01*
X46375Y-190663D01*
X45756Y-190044D01*
X44947Y-189710D01*
D02*
G37*
G36*
X128938Y-192800D02*
X128062D01*
X127254Y-193135D01*
X126635Y-193754D01*
X126300Y-194562D01*
Y-195438D01*
X126635Y-196246D01*
X127254Y-196865D01*
X128062Y-197200D01*
X128938D01*
X129746Y-196865D01*
X130365Y-196246D01*
X130700Y-195438D01*
Y-194562D01*
X130365Y-193754D01*
X129746Y-193135D01*
X128938Y-192800D01*
D02*
G37*
G36*
X332438Y-193800D02*
X331562D01*
X330754Y-194135D01*
X330135Y-194754D01*
X329800Y-195562D01*
Y-196438D01*
X330135Y-197246D01*
X330754Y-197865D01*
X331562Y-198200D01*
X332438D01*
X333246Y-197865D01*
X333865Y-197246D01*
X334200Y-196438D01*
Y-195562D01*
X333865Y-194754D01*
X333246Y-194135D01*
X332438Y-193800D01*
D02*
G37*
G36*
X92438D02*
X91562D01*
X90754Y-194135D01*
X90135Y-194754D01*
X89800Y-195562D01*
Y-196438D01*
X90135Y-197246D01*
X90754Y-197865D01*
X91562Y-198200D01*
X92438D01*
X93246Y-197865D01*
X93865Y-197246D01*
X94200Y-196438D01*
Y-195562D01*
X93865Y-194754D01*
X93246Y-194135D01*
X92438Y-193800D01*
D02*
G37*
G36*
X82438D02*
X81562D01*
X80754Y-194135D01*
X80135Y-194754D01*
X79800Y-195562D01*
Y-196438D01*
X80135Y-197246D01*
X80754Y-197865D01*
X81562Y-198200D01*
X82438D01*
X83246Y-197865D01*
X83865Y-197246D01*
X84200Y-196438D01*
Y-195562D01*
X83865Y-194754D01*
X83246Y-194135D01*
X82438Y-193800D01*
D02*
G37*
G36*
X72438D02*
X71562D01*
X70754Y-194135D01*
X70135Y-194754D01*
X69800Y-195562D01*
Y-196438D01*
X70135Y-197246D01*
X70754Y-197865D01*
X71562Y-198200D01*
X72438D01*
X73246Y-197865D01*
X73865Y-197246D01*
X74200Y-196438D01*
Y-195562D01*
X73865Y-194754D01*
X73246Y-194135D01*
X72438Y-193800D01*
D02*
G37*
G36*
X62438D02*
X61562D01*
X60754Y-194135D01*
X60135Y-194754D01*
X59800Y-195562D01*
Y-196438D01*
X60135Y-197246D01*
X60754Y-197865D01*
X61562Y-198200D01*
X62438D01*
X63246Y-197865D01*
X63865Y-197246D01*
X64200Y-196438D01*
Y-195562D01*
X63865Y-194754D01*
X63246Y-194135D01*
X62438Y-193800D01*
D02*
G37*
G36*
X22438D02*
X21562D01*
X20754Y-194135D01*
X20135Y-194754D01*
X19800Y-195562D01*
Y-196438D01*
X20135Y-197246D01*
X20754Y-197865D01*
X21562Y-198200D01*
X22438D01*
X23246Y-197865D01*
X23865Y-197246D01*
X24200Y-196438D01*
Y-195562D01*
X23865Y-194754D01*
X23246Y-194135D01*
X22438Y-193800D01*
D02*
G37*
G36*
X12438D02*
X11562D01*
X10754Y-194135D01*
X10135Y-194754D01*
X9800Y-195562D01*
Y-196438D01*
X10135Y-197246D01*
X10754Y-197865D01*
X11562Y-198200D01*
X12438D01*
X13246Y-197865D01*
X13865Y-197246D01*
X14200Y-196438D01*
Y-195562D01*
X13865Y-194754D01*
X13246Y-194135D01*
X12438Y-193800D01*
D02*
G37*
G36*
X251538Y-200200D02*
X250662D01*
X249854Y-200535D01*
X249235Y-201154D01*
X248900Y-201962D01*
Y-202838D01*
X249235Y-203646D01*
X249854Y-204265D01*
X250662Y-204600D01*
X251538D01*
X252346Y-204265D01*
X252965Y-203646D01*
X253300Y-202838D01*
Y-201962D01*
X252965Y-201154D01*
X252346Y-200535D01*
X251538Y-200200D01*
D02*
G37*
G36*
X97938Y-203600D02*
X97062D01*
X96254Y-203935D01*
X95635Y-204554D01*
X95300Y-205362D01*
Y-206238D01*
X95635Y-207046D01*
X96254Y-207665D01*
X97062Y-208000D01*
X97938D01*
X98746Y-207665D01*
X99365Y-207046D01*
X99700Y-206238D01*
Y-205362D01*
X99365Y-204554D01*
X98746Y-203935D01*
X97938Y-203600D01*
D02*
G37*
G36*
X317438Y-203800D02*
X316562D01*
X315754Y-204135D01*
X315135Y-204754D01*
X314800Y-205562D01*
Y-206438D01*
X315135Y-207246D01*
X315754Y-207865D01*
X316562Y-208200D01*
X317438D01*
X318246Y-207865D01*
X318865Y-207246D01*
X319200Y-206438D01*
Y-205562D01*
X318865Y-204754D01*
X318246Y-204135D01*
X317438Y-203800D01*
D02*
G37*
G36*
X307438D02*
X306562D01*
X305754Y-204135D01*
X305135Y-204754D01*
X304800Y-205562D01*
Y-206438D01*
X305135Y-207246D01*
X305754Y-207865D01*
X306562Y-208200D01*
X307438D01*
X308246Y-207865D01*
X308865Y-207246D01*
X309200Y-206438D01*
Y-205562D01*
X308865Y-204754D01*
X308246Y-204135D01*
X307438Y-203800D01*
D02*
G37*
G36*
X297438D02*
X296562D01*
X295754Y-204135D01*
X295135Y-204754D01*
X294800Y-205562D01*
Y-206438D01*
X295135Y-207246D01*
X295754Y-207865D01*
X296562Y-208200D01*
X297438D01*
X298246Y-207865D01*
X298865Y-207246D01*
X299200Y-206438D01*
Y-205562D01*
X298865Y-204754D01*
X298246Y-204135D01*
X297438Y-203800D01*
D02*
G37*
G36*
X268438Y-199900D02*
X267562D01*
X266754Y-200235D01*
X266135Y-200854D01*
X265800Y-201662D01*
Y-202538D01*
X266135Y-203346D01*
X266198Y-203410D01*
X266081Y-203999D01*
X265754Y-204135D01*
X265135Y-204754D01*
X264800Y-205562D01*
Y-206438D01*
X265135Y-207246D01*
X265754Y-207865D01*
X266562Y-208200D01*
X267438D01*
X268246Y-207865D01*
X268865Y-207246D01*
X269200Y-206438D01*
Y-205562D01*
X268865Y-204754D01*
X268802Y-204690D01*
X268919Y-204101D01*
X269246Y-203965D01*
X269865Y-203346D01*
X270200Y-202538D01*
Y-201662D01*
X269865Y-200854D01*
X269246Y-200235D01*
X268438Y-199900D01*
D02*
G37*
G36*
X227438Y-203800D02*
X226562D01*
X225754Y-204135D01*
X225135Y-204754D01*
X224800Y-205562D01*
Y-206438D01*
X225135Y-207246D01*
X225754Y-207865D01*
X226562Y-208200D01*
X227438D01*
X228246Y-207865D01*
X228865Y-207246D01*
X229200Y-206438D01*
Y-205562D01*
X228865Y-204754D01*
X228246Y-204135D01*
X227438Y-203800D01*
D02*
G37*
G36*
X187438D02*
X186562D01*
X185754Y-204135D01*
X185135Y-204754D01*
X184800Y-205562D01*
Y-206438D01*
X185135Y-207246D01*
X185754Y-207865D01*
X186562Y-208200D01*
X187438D01*
X188246Y-207865D01*
X188865Y-207246D01*
X189200Y-206438D01*
Y-205562D01*
X188865Y-204754D01*
X188246Y-204135D01*
X187438Y-203800D01*
D02*
G37*
G36*
X17438D02*
X16562D01*
X15754Y-204135D01*
X15135Y-204754D01*
X14800Y-205562D01*
Y-206438D01*
X15135Y-207246D01*
X15754Y-207865D01*
X16562Y-208200D01*
X17438D01*
X18246Y-207865D01*
X18865Y-207246D01*
X19200Y-206438D01*
Y-205562D01*
X18865Y-204754D01*
X18246Y-204135D01*
X17438Y-203800D01*
D02*
G37*
G36*
X7438D02*
X6562D01*
X5754Y-204135D01*
X5135Y-204754D01*
X4800Y-205562D01*
Y-206438D01*
X5135Y-207246D01*
X5754Y-207865D01*
X6562Y-208200D01*
X7438D01*
X8246Y-207865D01*
X8865Y-207246D01*
X9200Y-206438D01*
Y-205562D01*
X8865Y-204754D01*
X8246Y-204135D01*
X7438Y-203800D01*
D02*
G37*
G36*
X153038Y-204500D02*
X152162D01*
X151354Y-204835D01*
X150735Y-205454D01*
X150400Y-206262D01*
Y-207138D01*
X150735Y-207946D01*
X151354Y-208565D01*
X152162Y-208900D01*
X153038D01*
X153846Y-208565D01*
X154465Y-207946D01*
X154800Y-207138D01*
Y-206262D01*
X154465Y-205454D01*
X153846Y-204835D01*
X153038Y-204500D01*
D02*
G37*
G36*
X74038Y-206300D02*
X73162D01*
X72354Y-206635D01*
X71735Y-207254D01*
X71400Y-208062D01*
Y-208938D01*
X71735Y-209746D01*
X72354Y-210365D01*
X73162Y-210700D01*
X74038D01*
X74846Y-210365D01*
X75465Y-209746D01*
X75800Y-208938D01*
Y-208062D01*
X75465Y-207254D01*
X74846Y-206635D01*
X74038Y-206300D01*
D02*
G37*
G36*
X211138Y-212100D02*
X210262D01*
X209454Y-212435D01*
X208835Y-213054D01*
X208500Y-213862D01*
Y-214738D01*
X208835Y-215546D01*
X209454Y-216165D01*
X210262Y-216500D01*
X211138D01*
X211946Y-216165D01*
X212565Y-215546D01*
X212900Y-214738D01*
Y-213862D01*
X212565Y-213054D01*
X211946Y-212435D01*
X211138Y-212100D01*
D02*
G37*
G36*
X312438Y-213800D02*
X311562D01*
X310754Y-214135D01*
X310135Y-214754D01*
X309800Y-215562D01*
Y-216438D01*
X310135Y-217246D01*
X310754Y-217865D01*
X311562Y-218200D01*
X312438D01*
X313246Y-217865D01*
X313865Y-217246D01*
X314200Y-216438D01*
Y-215562D01*
X313865Y-214754D01*
X313246Y-214135D01*
X312438Y-213800D01*
D02*
G37*
G36*
X302438D02*
X301562D01*
X300754Y-214135D01*
X300135Y-214754D01*
X299800Y-215562D01*
Y-216438D01*
X300135Y-217246D01*
X300754Y-217865D01*
X301562Y-218200D01*
X302438D01*
X303246Y-217865D01*
X303865Y-217246D01*
X304200Y-216438D01*
Y-215562D01*
X303865Y-214754D01*
X303246Y-214135D01*
X302438Y-213800D01*
D02*
G37*
G36*
X292438D02*
X291562D01*
X290754Y-214135D01*
X290135Y-214754D01*
X289800Y-215562D01*
Y-216438D01*
X290135Y-217246D01*
X290754Y-217865D01*
X291562Y-218200D01*
X292438D01*
X293246Y-217865D01*
X293865Y-217246D01*
X294200Y-216438D01*
Y-215562D01*
X293865Y-214754D01*
X293246Y-214135D01*
X292438Y-213800D01*
D02*
G37*
G36*
X192438D02*
X191562D01*
X190754Y-214135D01*
X190135Y-214754D01*
X189800Y-215562D01*
Y-216438D01*
X190135Y-217246D01*
X190754Y-217865D01*
X191562Y-218200D01*
X192438D01*
X193246Y-217865D01*
X193865Y-217246D01*
X194200Y-216438D01*
Y-215562D01*
X193865Y-214754D01*
X193246Y-214135D01*
X192438Y-213800D01*
D02*
G37*
G36*
X142438D02*
X141562D01*
X140754Y-214135D01*
X140135Y-214754D01*
X139800Y-215562D01*
Y-216438D01*
X140135Y-217246D01*
X140754Y-217865D01*
X141562Y-218200D01*
X142438D01*
X143246Y-217865D01*
X143865Y-217246D01*
X144200Y-216438D01*
Y-215562D01*
X143865Y-214754D01*
X143246Y-214135D01*
X142438Y-213800D01*
D02*
G37*
G36*
X132438D02*
X131562D01*
X130754Y-214135D01*
X130135Y-214754D01*
X129800Y-215562D01*
Y-216438D01*
X130135Y-217246D01*
X130754Y-217865D01*
X131562Y-218200D01*
X132438D01*
X133246Y-217865D01*
X133865Y-217246D01*
X134200Y-216438D01*
Y-215562D01*
X133865Y-214754D01*
X133246Y-214135D01*
X132438Y-213800D01*
D02*
G37*
G36*
X122438D02*
X121562D01*
X120754Y-214135D01*
X120135Y-214754D01*
X119800Y-215562D01*
Y-216438D01*
X120135Y-217246D01*
X120754Y-217865D01*
X121562Y-218200D01*
X122438D01*
X123246Y-217865D01*
X123865Y-217246D01*
X124200Y-216438D01*
Y-215562D01*
X123865Y-214754D01*
X123246Y-214135D01*
X122438Y-213800D01*
D02*
G37*
G36*
X82438D02*
X81562D01*
X80754Y-214135D01*
X80135Y-214754D01*
X79800Y-215562D01*
Y-216438D01*
X80135Y-217246D01*
X80754Y-217865D01*
X81562Y-218200D01*
X82438D01*
X83246Y-217865D01*
X83865Y-217246D01*
X84200Y-216438D01*
Y-215562D01*
X83865Y-214754D01*
X83246Y-214135D01*
X82438Y-213800D01*
D02*
G37*
G36*
X42438D02*
X41562D01*
X40754Y-214135D01*
X40135Y-214754D01*
X39800Y-215562D01*
Y-216438D01*
X40135Y-217246D01*
X40754Y-217865D01*
X41562Y-218200D01*
X42438D01*
X43246Y-217865D01*
X43865Y-217246D01*
X44200Y-216438D01*
Y-215562D01*
X43865Y-214754D01*
X43246Y-214135D01*
X42438Y-213800D01*
D02*
G37*
G36*
X233038Y-216100D02*
X232162D01*
X231354Y-216435D01*
X230735Y-217054D01*
X230400Y-217862D01*
Y-218738D01*
X230735Y-219546D01*
X231354Y-220165D01*
X232162Y-220500D01*
X233038D01*
X233846Y-220165D01*
X234465Y-219546D01*
X234800Y-218738D01*
Y-217862D01*
X234465Y-217054D01*
X233846Y-216435D01*
X233038Y-216100D01*
D02*
G37*
G36*
X337438Y-223800D02*
X336562D01*
X335754Y-224135D01*
X335135Y-224754D01*
X334800Y-225562D01*
Y-226438D01*
X335135Y-227246D01*
X335754Y-227865D01*
X336562Y-228200D01*
X337438D01*
X338246Y-227865D01*
X338865Y-227246D01*
X339200Y-226438D01*
Y-225562D01*
X338865Y-224754D01*
X338246Y-224135D01*
X337438Y-223800D01*
D02*
G37*
G36*
X327438D02*
X326562D01*
X325754Y-224135D01*
X325135Y-224754D01*
X324800Y-225562D01*
Y-226438D01*
X325135Y-227246D01*
X325754Y-227865D01*
X326562Y-228200D01*
X327438D01*
X328246Y-227865D01*
X328865Y-227246D01*
X329200Y-226438D01*
Y-225562D01*
X328865Y-224754D01*
X328246Y-224135D01*
X327438Y-223800D01*
D02*
G37*
G36*
X317438D02*
X316562D01*
X315754Y-224135D01*
X315135Y-224754D01*
X314800Y-225562D01*
Y-226438D01*
X315135Y-227246D01*
X315754Y-227865D01*
X316562Y-228200D01*
X317438D01*
X318246Y-227865D01*
X318865Y-227246D01*
X319200Y-226438D01*
Y-225562D01*
X318865Y-224754D01*
X318246Y-224135D01*
X317438Y-223800D01*
D02*
G37*
G36*
X307438D02*
X306562D01*
X305754Y-224135D01*
X305135Y-224754D01*
X304800Y-225562D01*
Y-226438D01*
X305135Y-227246D01*
X305754Y-227865D01*
X306562Y-228200D01*
X307438D01*
X308246Y-227865D01*
X308865Y-227246D01*
X309200Y-226438D01*
Y-225562D01*
X308865Y-224754D01*
X308246Y-224135D01*
X307438Y-223800D01*
D02*
G37*
G36*
X297438D02*
X296562D01*
X295754Y-224135D01*
X295135Y-224754D01*
X294800Y-225562D01*
Y-226438D01*
X295135Y-227246D01*
X295754Y-227865D01*
X296562Y-228200D01*
X297438D01*
X298246Y-227865D01*
X298865Y-227246D01*
X299200Y-226438D01*
Y-225562D01*
X298865Y-224754D01*
X298246Y-224135D01*
X297438Y-223800D01*
D02*
G37*
G36*
X227438D02*
X226562D01*
X225754Y-224135D01*
X225135Y-224754D01*
X224800Y-225562D01*
Y-226438D01*
X225135Y-227246D01*
X225754Y-227865D01*
X226562Y-228200D01*
X227438D01*
X228246Y-227865D01*
X228865Y-227246D01*
X229200Y-226438D01*
Y-225562D01*
X228865Y-224754D01*
X228246Y-224135D01*
X227438Y-223800D01*
D02*
G37*
G36*
X217438D02*
X216562D01*
X215754Y-224135D01*
X215135Y-224754D01*
X214800Y-225562D01*
Y-226438D01*
X215135Y-227246D01*
X215754Y-227865D01*
X216562Y-228200D01*
X217438D01*
X218246Y-227865D01*
X218865Y-227246D01*
X219200Y-226438D01*
Y-225562D01*
X218865Y-224754D01*
X218246Y-224135D01*
X217438Y-223800D01*
D02*
G37*
G36*
X197438D02*
X196562D01*
X195754Y-224135D01*
X195135Y-224754D01*
X194800Y-225562D01*
Y-226438D01*
X195135Y-227246D01*
X195754Y-227865D01*
X196562Y-228200D01*
X197438D01*
X198246Y-227865D01*
X198865Y-227246D01*
X199200Y-226438D01*
Y-225562D01*
X198865Y-224754D01*
X198246Y-224135D01*
X197438Y-223800D01*
D02*
G37*
G36*
X187438D02*
X186562D01*
X185754Y-224135D01*
X185135Y-224754D01*
X184800Y-225562D01*
Y-226438D01*
X185135Y-227246D01*
X185754Y-227865D01*
X186562Y-228200D01*
X187438D01*
X188246Y-227865D01*
X188865Y-227246D01*
X189200Y-226438D01*
Y-225562D01*
X188865Y-224754D01*
X188246Y-224135D01*
X187438Y-223800D01*
D02*
G37*
G36*
X147438D02*
X146562D01*
X145754Y-224135D01*
X145135Y-224754D01*
X144800Y-225562D01*
Y-226438D01*
X145135Y-227246D01*
X145754Y-227865D01*
X146562Y-228200D01*
X147438D01*
X148246Y-227865D01*
X148865Y-227246D01*
X149200Y-226438D01*
Y-225562D01*
X148865Y-224754D01*
X148246Y-224135D01*
X147438Y-223800D01*
D02*
G37*
G36*
X137438D02*
X136562D01*
X135754Y-224135D01*
X135135Y-224754D01*
X134800Y-225562D01*
Y-226438D01*
X135135Y-227246D01*
X135754Y-227865D01*
X136562Y-228200D01*
X137438D01*
X138246Y-227865D01*
X138865Y-227246D01*
X139200Y-226438D01*
Y-225562D01*
X138865Y-224754D01*
X138246Y-224135D01*
X137438Y-223800D01*
D02*
G37*
G36*
X127438D02*
X126562D01*
X125754Y-224135D01*
X125135Y-224754D01*
X124800Y-225562D01*
Y-226438D01*
X125135Y-227246D01*
X125754Y-227865D01*
X126562Y-228200D01*
X127438D01*
X128246Y-227865D01*
X128865Y-227246D01*
X129200Y-226438D01*
Y-225562D01*
X128865Y-224754D01*
X128246Y-224135D01*
X127438Y-223800D01*
D02*
G37*
G36*
X117438D02*
X116562D01*
X115754Y-224135D01*
X115135Y-224754D01*
X114800Y-225562D01*
Y-226438D01*
X115135Y-227246D01*
X115754Y-227865D01*
X116562Y-228200D01*
X117438D01*
X118246Y-227865D01*
X118865Y-227246D01*
X119200Y-226438D01*
Y-225562D01*
X118865Y-224754D01*
X118246Y-224135D01*
X117438Y-223800D01*
D02*
G37*
G36*
X47438D02*
X46562D01*
X45754Y-224135D01*
X45135Y-224754D01*
X44800Y-225562D01*
Y-226438D01*
X45135Y-227246D01*
X45754Y-227865D01*
X46562Y-228200D01*
X47438D01*
X48246Y-227865D01*
X48865Y-227246D01*
X49200Y-226438D01*
Y-225562D01*
X48865Y-224754D01*
X48246Y-224135D01*
X47438Y-223800D01*
D02*
G37*
G36*
X37438D02*
X36562D01*
X35754Y-224135D01*
X35135Y-224754D01*
X34800Y-225562D01*
Y-226438D01*
X35135Y-227246D01*
X35754Y-227865D01*
X36562Y-228200D01*
X37438D01*
X38246Y-227865D01*
X38865Y-227246D01*
X39200Y-226438D01*
Y-225562D01*
X38865Y-224754D01*
X38246Y-224135D01*
X37438Y-223800D01*
D02*
G37*
G36*
X27438D02*
X26562D01*
X25754Y-224135D01*
X25135Y-224754D01*
X24800Y-225562D01*
Y-226438D01*
X25135Y-227246D01*
X25754Y-227865D01*
X26562Y-228200D01*
X27438D01*
X28246Y-227865D01*
X28865Y-227246D01*
X29200Y-226438D01*
Y-225562D01*
X28865Y-224754D01*
X28246Y-224135D01*
X27438Y-223800D01*
D02*
G37*
G36*
X312438Y-233800D02*
X311562D01*
X310754Y-234135D01*
X310135Y-234754D01*
X309800Y-235562D01*
Y-236438D01*
X310135Y-237246D01*
X310754Y-237865D01*
X311562Y-238200D01*
X312438D01*
X313246Y-237865D01*
X313865Y-237246D01*
X314200Y-236438D01*
Y-235562D01*
X313865Y-234754D01*
X313246Y-234135D01*
X312438Y-233800D01*
D02*
G37*
G36*
X272438D02*
X271562D01*
X270754Y-234135D01*
X270135Y-234754D01*
X269800Y-235562D01*
Y-236438D01*
X270135Y-237246D01*
X270754Y-237865D01*
X271562Y-238200D01*
X272438D01*
X273246Y-237865D01*
X273865Y-237246D01*
X274200Y-236438D01*
Y-235562D01*
X273865Y-234754D01*
X273246Y-234135D01*
X272438Y-233800D01*
D02*
G37*
G36*
X222438D02*
X221562D01*
X220754Y-234135D01*
X220135Y-234754D01*
X219800Y-235562D01*
Y-236438D01*
X220135Y-237246D01*
X220754Y-237865D01*
X221562Y-238200D01*
X222438D01*
X223246Y-237865D01*
X223865Y-237246D01*
X224200Y-236438D01*
Y-235562D01*
X223865Y-234754D01*
X223246Y-234135D01*
X222438Y-233800D01*
D02*
G37*
G36*
X212438D02*
X211562D01*
X210754Y-234135D01*
X210135Y-234754D01*
X209800Y-235562D01*
Y-236438D01*
X210135Y-237246D01*
X210754Y-237865D01*
X211562Y-238200D01*
X212438D01*
X213246Y-237865D01*
X213865Y-237246D01*
X214200Y-236438D01*
Y-235562D01*
X213865Y-234754D01*
X213246Y-234135D01*
X212438Y-233800D01*
D02*
G37*
G36*
X202438D02*
X201562D01*
X200754Y-234135D01*
X200135Y-234754D01*
X199800Y-235562D01*
Y-236438D01*
X200135Y-237246D01*
X200754Y-237865D01*
X201562Y-238200D01*
X202438D01*
X203246Y-237865D01*
X203865Y-237246D01*
X204200Y-236438D01*
Y-235562D01*
X203865Y-234754D01*
X203246Y-234135D01*
X202438Y-233800D01*
D02*
G37*
G36*
X182438D02*
X181562D01*
X180754Y-234135D01*
X180135Y-234754D01*
X179800Y-235562D01*
Y-236438D01*
X180135Y-237246D01*
X180754Y-237865D01*
X181562Y-238200D01*
X182438D01*
X183246Y-237865D01*
X183865Y-237246D01*
X184200Y-236438D01*
Y-235562D01*
X183865Y-234754D01*
X183246Y-234135D01*
X182438Y-233800D01*
D02*
G37*
G36*
X172438D02*
X171562D01*
X170754Y-234135D01*
X170135Y-234754D01*
X169800Y-235562D01*
Y-236438D01*
X170135Y-237246D01*
X170754Y-237865D01*
X171562Y-238200D01*
X172438D01*
X173246Y-237865D01*
X173865Y-237246D01*
X174200Y-236438D01*
Y-235562D01*
X173865Y-234754D01*
X173246Y-234135D01*
X172438Y-233800D01*
D02*
G37*
G36*
X162438D02*
X161562D01*
X160754Y-234135D01*
X160135Y-234754D01*
X159800Y-235562D01*
Y-236438D01*
X160135Y-237246D01*
X160754Y-237865D01*
X161562Y-238200D01*
X162438D01*
X163246Y-237865D01*
X163865Y-237246D01*
X164200Y-236438D01*
Y-235562D01*
X163865Y-234754D01*
X163246Y-234135D01*
X162438Y-233800D01*
D02*
G37*
G36*
X152438D02*
X151562D01*
X150754Y-234135D01*
X150135Y-234754D01*
X149800Y-235562D01*
Y-236438D01*
X150135Y-237246D01*
X150754Y-237865D01*
X151562Y-238200D01*
X152438D01*
X153246Y-237865D01*
X153865Y-237246D01*
X154200Y-236438D01*
Y-235562D01*
X153865Y-234754D01*
X153246Y-234135D01*
X152438Y-233800D01*
D02*
G37*
G36*
X132438D02*
X131562D01*
X130754Y-234135D01*
X130135Y-234754D01*
X129800Y-235562D01*
Y-236438D01*
X130135Y-237246D01*
X130754Y-237865D01*
X131562Y-238200D01*
X132438D01*
X133246Y-237865D01*
X133865Y-237246D01*
X134200Y-236438D01*
Y-235562D01*
X133865Y-234754D01*
X133246Y-234135D01*
X132438Y-233800D01*
D02*
G37*
G36*
X112438D02*
X111562D01*
X110754Y-234135D01*
X110135Y-234754D01*
X109800Y-235562D01*
Y-236438D01*
X110135Y-237246D01*
X110754Y-237865D01*
X111562Y-238200D01*
X112438D01*
X113246Y-237865D01*
X113865Y-237246D01*
X114200Y-236438D01*
Y-235562D01*
X113865Y-234754D01*
X113246Y-234135D01*
X112438Y-233800D01*
D02*
G37*
G36*
X102438D02*
X101562D01*
X100754Y-234135D01*
X100135Y-234754D01*
X99800Y-235562D01*
Y-236438D01*
X100135Y-237246D01*
X100754Y-237865D01*
X101562Y-238200D01*
X102438D01*
X103246Y-237865D01*
X103865Y-237246D01*
X104200Y-236438D01*
Y-235562D01*
X103865Y-234754D01*
X103246Y-234135D01*
X102438Y-233800D01*
D02*
G37*
G36*
X92438D02*
X91562D01*
X90754Y-234135D01*
X90135Y-234754D01*
X89800Y-235562D01*
Y-236438D01*
X90135Y-237246D01*
X90754Y-237865D01*
X91562Y-238200D01*
X92438D01*
X93246Y-237865D01*
X93865Y-237246D01*
X94200Y-236438D01*
Y-235562D01*
X93865Y-234754D01*
X93246Y-234135D01*
X92438Y-233800D01*
D02*
G37*
G36*
X82438D02*
X81562D01*
X80754Y-234135D01*
X80135Y-234754D01*
X79800Y-235562D01*
Y-236438D01*
X80135Y-237246D01*
X80754Y-237865D01*
X81562Y-238200D01*
X82438D01*
X83246Y-237865D01*
X83865Y-237246D01*
X84200Y-236438D01*
Y-235562D01*
X83865Y-234754D01*
X83246Y-234135D01*
X82438Y-233800D01*
D02*
G37*
G36*
X72438D02*
X71562D01*
X70754Y-234135D01*
X70135Y-234754D01*
X69800Y-235562D01*
Y-236438D01*
X70135Y-237246D01*
X70754Y-237865D01*
X71562Y-238200D01*
X72438D01*
X73246Y-237865D01*
X73865Y-237246D01*
X74200Y-236438D01*
Y-235562D01*
X73865Y-234754D01*
X73246Y-234135D01*
X72438Y-233800D01*
D02*
G37*
G36*
X62438D02*
X61562D01*
X60754Y-234135D01*
X60135Y-234754D01*
X59800Y-235562D01*
Y-236438D01*
X60135Y-237246D01*
X60754Y-237865D01*
X61562Y-238200D01*
X62438D01*
X63246Y-237865D01*
X63865Y-237246D01*
X64200Y-236438D01*
Y-235562D01*
X63865Y-234754D01*
X63246Y-234135D01*
X62438Y-233800D01*
D02*
G37*
G36*
X52438D02*
X51562D01*
X50754Y-234135D01*
X50135Y-234754D01*
X49800Y-235562D01*
Y-236438D01*
X50135Y-237246D01*
X50754Y-237865D01*
X51562Y-238200D01*
X52438D01*
X53246Y-237865D01*
X53865Y-237246D01*
X54200Y-236438D01*
Y-235562D01*
X53865Y-234754D01*
X53246Y-234135D01*
X52438Y-233800D01*
D02*
G37*
G36*
X32438D02*
X31562D01*
X30754Y-234135D01*
X30135Y-234754D01*
X29800Y-235562D01*
Y-236438D01*
X30135Y-237246D01*
X30754Y-237865D01*
X31562Y-238200D01*
X32438D01*
X33246Y-237865D01*
X33865Y-237246D01*
X34200Y-236438D01*
Y-235562D01*
X33865Y-234754D01*
X33246Y-234135D01*
X32438Y-233800D01*
D02*
G37*
G36*
X317438Y-243800D02*
X316562D01*
X315754Y-244135D01*
X315135Y-244754D01*
X314800Y-245562D01*
Y-246438D01*
X315135Y-247246D01*
X315754Y-247865D01*
X316562Y-248200D01*
X317438D01*
X318246Y-247865D01*
X318865Y-247246D01*
X319200Y-246438D01*
Y-245562D01*
X318865Y-244754D01*
X318246Y-244135D01*
X317438Y-243800D01*
D02*
G37*
G36*
X307438D02*
X306562D01*
X305754Y-244135D01*
X305135Y-244754D01*
X304800Y-245562D01*
Y-246438D01*
X305135Y-247246D01*
X305754Y-247865D01*
X306562Y-248200D01*
X307438D01*
X308246Y-247865D01*
X308865Y-247246D01*
X309200Y-246438D01*
Y-245562D01*
X308865Y-244754D01*
X308246Y-244135D01*
X307438Y-243800D01*
D02*
G37*
G36*
X287438D02*
X286562D01*
X285754Y-244135D01*
X285135Y-244754D01*
X284800Y-245562D01*
Y-246438D01*
X285135Y-247246D01*
X285754Y-247865D01*
X286562Y-248200D01*
X287438D01*
X288246Y-247865D01*
X288865Y-247246D01*
X289200Y-246438D01*
Y-245562D01*
X288865Y-244754D01*
X288246Y-244135D01*
X287438Y-243800D01*
D02*
G37*
G36*
X277438D02*
X276562D01*
X275754Y-244135D01*
X275135Y-244754D01*
X274800Y-245562D01*
Y-246438D01*
X275135Y-247246D01*
X275754Y-247865D01*
X276562Y-248200D01*
X277438D01*
X278246Y-247865D01*
X278865Y-247246D01*
X279200Y-246438D01*
Y-245562D01*
X278865Y-244754D01*
X278246Y-244135D01*
X277438Y-243800D01*
D02*
G37*
G36*
X267438D02*
X266562D01*
X265754Y-244135D01*
X265135Y-244754D01*
X264800Y-245562D01*
Y-246438D01*
X265135Y-247246D01*
X265754Y-247865D01*
X266562Y-248200D01*
X267438D01*
X268246Y-247865D01*
X268865Y-247246D01*
X269200Y-246438D01*
Y-245562D01*
X268865Y-244754D01*
X268246Y-244135D01*
X267438Y-243800D01*
D02*
G37*
G36*
X257438D02*
X256562D01*
X255754Y-244135D01*
X255135Y-244754D01*
X254800Y-245562D01*
Y-246438D01*
X255135Y-247246D01*
X255754Y-247865D01*
X256562Y-248200D01*
X257438D01*
X258246Y-247865D01*
X258865Y-247246D01*
X259200Y-246438D01*
Y-245562D01*
X258865Y-244754D01*
X258246Y-244135D01*
X257438Y-243800D01*
D02*
G37*
G36*
X247438D02*
X246562D01*
X245754Y-244135D01*
X245135Y-244754D01*
X244800Y-245562D01*
Y-246438D01*
X245135Y-247246D01*
X245754Y-247865D01*
X246562Y-248200D01*
X247438D01*
X248246Y-247865D01*
X248865Y-247246D01*
X249200Y-246438D01*
Y-245562D01*
X248865Y-244754D01*
X248246Y-244135D01*
X247438Y-243800D01*
D02*
G37*
G36*
X237438D02*
X236562D01*
X235754Y-244135D01*
X235135Y-244754D01*
X234800Y-245562D01*
Y-246438D01*
X235135Y-247246D01*
X235754Y-247865D01*
X236562Y-248200D01*
X237438D01*
X238246Y-247865D01*
X238865Y-247246D01*
X239200Y-246438D01*
Y-245562D01*
X238865Y-244754D01*
X238246Y-244135D01*
X237438Y-243800D01*
D02*
G37*
G36*
X217438D02*
X216562D01*
X215754Y-244135D01*
X215135Y-244754D01*
X214800Y-245562D01*
Y-246438D01*
X215135Y-247246D01*
X215754Y-247865D01*
X216562Y-248200D01*
X217438D01*
X218246Y-247865D01*
X218865Y-247246D01*
X219200Y-246438D01*
Y-245562D01*
X218865Y-244754D01*
X218246Y-244135D01*
X217438Y-243800D01*
D02*
G37*
G36*
X207438D02*
X206562D01*
X205754Y-244135D01*
X205135Y-244754D01*
X204800Y-245562D01*
Y-246438D01*
X205135Y-247246D01*
X205754Y-247865D01*
X206562Y-248200D01*
X207438D01*
X208246Y-247865D01*
X208865Y-247246D01*
X209200Y-246438D01*
Y-245562D01*
X208865Y-244754D01*
X208246Y-244135D01*
X207438Y-243800D01*
D02*
G37*
G36*
X177438D02*
X176562D01*
X175754Y-244135D01*
X175135Y-244754D01*
X174800Y-245562D01*
Y-246438D01*
X175135Y-247246D01*
X175754Y-247865D01*
X176562Y-248200D01*
X177438D01*
X178246Y-247865D01*
X178865Y-247246D01*
X179200Y-246438D01*
Y-245562D01*
X178865Y-244754D01*
X178246Y-244135D01*
X177438Y-243800D01*
D02*
G37*
G36*
X167438D02*
X166562D01*
X165754Y-244135D01*
X165135Y-244754D01*
X164800Y-245562D01*
Y-246438D01*
X165135Y-247246D01*
X165754Y-247865D01*
X166562Y-248200D01*
X167438D01*
X168246Y-247865D01*
X168865Y-247246D01*
X169200Y-246438D01*
Y-245562D01*
X168865Y-244754D01*
X168246Y-244135D01*
X167438Y-243800D01*
D02*
G37*
G36*
X157438D02*
X156562D01*
X155754Y-244135D01*
X155135Y-244754D01*
X154800Y-245562D01*
Y-246438D01*
X155135Y-247246D01*
X155754Y-247865D01*
X156562Y-248200D01*
X157438D01*
X158246Y-247865D01*
X158865Y-247246D01*
X159200Y-246438D01*
Y-245562D01*
X158865Y-244754D01*
X158246Y-244135D01*
X157438Y-243800D01*
D02*
G37*
G36*
X127438D02*
X126562D01*
X125754Y-244135D01*
X125135Y-244754D01*
X124800Y-245562D01*
Y-246438D01*
X125135Y-247246D01*
X125754Y-247865D01*
X126562Y-248200D01*
X127438D01*
X128246Y-247865D01*
X128865Y-247246D01*
X129200Y-246438D01*
Y-245562D01*
X128865Y-244754D01*
X128246Y-244135D01*
X127438Y-243800D01*
D02*
G37*
G36*
X107438D02*
X106562D01*
X105754Y-244135D01*
X105135Y-244754D01*
X104800Y-245562D01*
Y-246438D01*
X105135Y-247246D01*
X105754Y-247865D01*
X106562Y-248200D01*
X107438D01*
X108246Y-247865D01*
X108865Y-247246D01*
X109200Y-246438D01*
Y-245562D01*
X108865Y-244754D01*
X108246Y-244135D01*
X107438Y-243800D01*
D02*
G37*
G36*
X97438D02*
X96562D01*
X95754Y-244135D01*
X95135Y-244754D01*
X94800Y-245562D01*
Y-246438D01*
X95135Y-247246D01*
X95754Y-247865D01*
X96562Y-248200D01*
X97438D01*
X98246Y-247865D01*
X98865Y-247246D01*
X99200Y-246438D01*
Y-245562D01*
X98865Y-244754D01*
X98246Y-244135D01*
X97438Y-243800D01*
D02*
G37*
G36*
X87438D02*
X86562D01*
X85754Y-244135D01*
X85135Y-244754D01*
X84800Y-245562D01*
Y-246438D01*
X85135Y-247246D01*
X85754Y-247865D01*
X86562Y-248200D01*
X87438D01*
X88246Y-247865D01*
X88865Y-247246D01*
X89200Y-246438D01*
Y-245562D01*
X88865Y-244754D01*
X88246Y-244135D01*
X87438Y-243800D01*
D02*
G37*
G36*
X77438D02*
X76562D01*
X75754Y-244135D01*
X75135Y-244754D01*
X74800Y-245562D01*
Y-246438D01*
X75135Y-247246D01*
X75754Y-247865D01*
X76562Y-248200D01*
X77438D01*
X78246Y-247865D01*
X78865Y-247246D01*
X79200Y-246438D01*
Y-245562D01*
X78865Y-244754D01*
X78246Y-244135D01*
X77438Y-243800D01*
D02*
G37*
G36*
X67438D02*
X66562D01*
X65754Y-244135D01*
X65135Y-244754D01*
X64800Y-245562D01*
Y-246438D01*
X65135Y-247246D01*
X65754Y-247865D01*
X66562Y-248200D01*
X67438D01*
X68246Y-247865D01*
X68865Y-247246D01*
X69200Y-246438D01*
Y-245562D01*
X68865Y-244754D01*
X68246Y-244135D01*
X67438Y-243800D01*
D02*
G37*
G36*
X57438D02*
X56562D01*
X55754Y-244135D01*
X55135Y-244754D01*
X54800Y-245562D01*
Y-246438D01*
X55135Y-247246D01*
X55754Y-247865D01*
X56562Y-248200D01*
X57438D01*
X58246Y-247865D01*
X58865Y-247246D01*
X59200Y-246438D01*
Y-245562D01*
X58865Y-244754D01*
X58246Y-244135D01*
X57438Y-243800D01*
D02*
G37*
G36*
X37438D02*
X36562D01*
X35754Y-244135D01*
X35135Y-244754D01*
X34800Y-245562D01*
Y-246438D01*
X35135Y-247246D01*
X35754Y-247865D01*
X36562Y-248200D01*
X37438D01*
X38246Y-247865D01*
X38865Y-247246D01*
X39200Y-246438D01*
Y-245562D01*
X38865Y-244754D01*
X38246Y-244135D01*
X37438Y-243800D01*
D02*
G37*
G36*
X330671Y-229942D02*
X328729D01*
X326824Y-230321D01*
X325030Y-231064D01*
X323416Y-232143D01*
X322043Y-233516D01*
X320964Y-235130D01*
X320221Y-236924D01*
X319842Y-238829D01*
Y-240771D01*
X320221Y-242676D01*
X320964Y-244470D01*
X322043Y-246084D01*
X323416Y-247457D01*
X325030Y-248536D01*
X326824Y-249279D01*
X328729Y-249658D01*
X330671D01*
X332576Y-249279D01*
X334370Y-248536D01*
X335984Y-247457D01*
X337357Y-246084D01*
X338436Y-244470D01*
X339179Y-242676D01*
X339558Y-240771D01*
Y-238829D01*
X339179Y-236924D01*
X338436Y-235130D01*
X337357Y-233516D01*
X335984Y-232143D01*
X334370Y-231064D01*
X332576Y-230321D01*
X330671Y-229942D01*
D02*
G37*
G36*
X17071D02*
X15129D01*
X13224Y-230321D01*
X11430Y-231064D01*
X9816Y-232143D01*
X8443Y-233516D01*
X7364Y-235130D01*
X6621Y-236924D01*
X6242Y-238829D01*
Y-240771D01*
X6621Y-242676D01*
X7364Y-244470D01*
X8443Y-246084D01*
X9816Y-247457D01*
X11430Y-248536D01*
X13224Y-249279D01*
X15129Y-249658D01*
X17071D01*
X18976Y-249279D01*
X20770Y-248536D01*
X22384Y-247457D01*
X23757Y-246084D01*
X24836Y-244470D01*
X25579Y-242676D01*
X25958Y-240771D01*
Y-238829D01*
X25579Y-236924D01*
X24836Y-235130D01*
X23757Y-233516D01*
X22384Y-232143D01*
X20770Y-231064D01*
X18976Y-230321D01*
X17071Y-229942D01*
D02*
G37*
%LPD*%
G36*
X220135Y-57246D02*
X220754Y-57865D01*
X221285Y-58085D01*
X226538Y-63338D01*
X226372Y-63879D01*
X225754Y-64135D01*
X225135Y-64754D01*
X224800Y-65562D01*
Y-66438D01*
X225135Y-67246D01*
X225754Y-67865D01*
X226562Y-68200D01*
X227438D01*
X228246Y-67865D01*
X228865Y-67246D01*
X229121Y-66628D01*
X229662Y-66462D01*
X231500Y-68300D01*
X244800D01*
Y-85562D01*
Y-86438D01*
Y-105562D01*
Y-106438D01*
Y-125562D01*
Y-126438D01*
Y-145562D01*
Y-146438D01*
Y-156100D01*
X244700Y-156200D01*
X234200D01*
Y-174382D01*
X233700Y-174589D01*
X233246Y-174135D01*
X232438Y-173800D01*
X231562D01*
X230754Y-174135D01*
X230135Y-174754D01*
X229800Y-175562D01*
Y-176438D01*
X230135Y-177246D01*
X230754Y-177865D01*
X231562Y-178200D01*
X232438D01*
X233246Y-177865D01*
X233700Y-177411D01*
X234200Y-177618D01*
Y-196700D01*
X234100Y-196800D01*
X144100D01*
X110700Y-163400D01*
X110800Y-163300D01*
Y-158334D01*
X111216Y-158056D01*
X111562Y-158200D01*
X112438D01*
X113246Y-157865D01*
X113865Y-157246D01*
X114200Y-156438D01*
Y-155562D01*
X113865Y-154754D01*
X113246Y-154135D01*
X112438Y-153800D01*
X111562D01*
X111216Y-153944D01*
X110800Y-153666D01*
Y-138334D01*
X111216Y-138056D01*
X111562Y-138200D01*
X112438D01*
X113246Y-137865D01*
X113865Y-137246D01*
X114200Y-136438D01*
Y-135562D01*
X113865Y-134754D01*
X113246Y-134135D01*
X112438Y-133800D01*
X111562D01*
X111216Y-133944D01*
X110800Y-133666D01*
Y-118334D01*
X111216Y-118056D01*
X111562Y-118200D01*
X112438D01*
X113246Y-117865D01*
X113865Y-117246D01*
X114200Y-116438D01*
Y-115562D01*
X113865Y-114754D01*
X113246Y-114135D01*
X112438Y-113800D01*
X111562D01*
X111216Y-113944D01*
X110800Y-113666D01*
Y-97780D01*
X121680Y-86900D01*
X128200D01*
Y-78500D01*
X128400Y-78300D01*
X138000D01*
Y-60800D01*
X140882Y-57918D01*
X141562Y-58200D01*
X142438D01*
X143246Y-57865D01*
X143865Y-57246D01*
X143884Y-57200D01*
X150116D01*
X150135Y-57246D01*
X150754Y-57865D01*
X151562Y-58200D01*
X152438D01*
X153246Y-57865D01*
X153865Y-57246D01*
X153884Y-57200D01*
X160116D01*
X160135Y-57246D01*
X160754Y-57865D01*
X161562Y-58200D01*
X162438D01*
X163246Y-57865D01*
X163865Y-57246D01*
X163884Y-57200D01*
X190116D01*
X190135Y-57246D01*
X190754Y-57865D01*
X191562Y-58200D01*
X192438D01*
X193246Y-57865D01*
X193865Y-57246D01*
X193884Y-57200D01*
X220116D01*
X220135Y-57246D01*
D02*
G37*
%LPC*%
G36*
X217438Y-63800D02*
X216562D01*
X215754Y-64135D01*
X215135Y-64754D01*
X214800Y-65562D01*
Y-66438D01*
X215135Y-67246D01*
X215754Y-67865D01*
X216562Y-68200D01*
X217438D01*
X218246Y-67865D01*
X218865Y-67246D01*
X219200Y-66438D01*
Y-65562D01*
X218865Y-64754D01*
X218246Y-64135D01*
X217438Y-63800D01*
D02*
G37*
G36*
X157438D02*
X156562D01*
X155754Y-64135D01*
X155135Y-64754D01*
X154800Y-65562D01*
Y-66438D01*
X155135Y-67246D01*
X155754Y-67865D01*
X156562Y-68200D01*
X157438D01*
X158246Y-67865D01*
X158865Y-67246D01*
X159200Y-66438D01*
Y-65562D01*
X158865Y-64754D01*
X158246Y-64135D01*
X157438Y-63800D01*
D02*
G37*
G36*
X147438D02*
X146562D01*
X145754Y-64135D01*
X145135Y-64754D01*
X144800Y-65562D01*
Y-66438D01*
X145135Y-67246D01*
X145754Y-67865D01*
X146562Y-68200D01*
X147438D01*
X148246Y-67865D01*
X148865Y-67246D01*
X149200Y-66438D01*
Y-65562D01*
X148865Y-64754D01*
X148246Y-64135D01*
X147438Y-63800D01*
D02*
G37*
G36*
X209106Y-66490D02*
X208231D01*
X207422Y-66825D01*
X206804Y-67444D01*
X206469Y-68253D01*
Y-69128D01*
X206804Y-69937D01*
X207422Y-70555D01*
X208231Y-70890D01*
X209106D01*
X209915Y-70555D01*
X210534Y-69937D01*
X210869Y-69128D01*
Y-68253D01*
X210534Y-67444D01*
X209915Y-66825D01*
X209106Y-66490D01*
D02*
G37*
G36*
X192438Y-73800D02*
X191562D01*
X190754Y-74135D01*
X190135Y-74754D01*
X189800Y-75562D01*
Y-76438D01*
X190135Y-77246D01*
X190754Y-77865D01*
X191562Y-78200D01*
X192438D01*
X193246Y-77865D01*
X193865Y-77246D01*
X194200Y-76438D01*
Y-75562D01*
X193865Y-74754D01*
X193246Y-74135D01*
X192438Y-73800D01*
D02*
G37*
G36*
X182438D02*
X181562D01*
X180754Y-74135D01*
X180135Y-74754D01*
X179800Y-75562D01*
Y-76438D01*
X180135Y-77246D01*
X180754Y-77865D01*
X181562Y-78200D01*
X182438D01*
X183246Y-77865D01*
X183865Y-77246D01*
X184200Y-76438D01*
Y-75562D01*
X183865Y-74754D01*
X183246Y-74135D01*
X182438Y-73800D01*
D02*
G37*
G36*
X162438D02*
X161562D01*
X160754Y-74135D01*
X160135Y-74754D01*
X159800Y-75562D01*
Y-76438D01*
X160135Y-77246D01*
X160754Y-77865D01*
X161562Y-78200D01*
X162438D01*
X163246Y-77865D01*
X163865Y-77246D01*
X164200Y-76438D01*
Y-75562D01*
X163865Y-74754D01*
X163246Y-74135D01*
X162438Y-73800D01*
D02*
G37*
G36*
X152438D02*
X151562D01*
X150754Y-74135D01*
X150135Y-74754D01*
X149800Y-75562D01*
Y-76438D01*
X150135Y-77246D01*
X150754Y-77865D01*
X151562Y-78200D01*
X152438D01*
X153246Y-77865D01*
X153865Y-77246D01*
X154200Y-76438D01*
Y-75562D01*
X153865Y-74754D01*
X153246Y-74135D01*
X152438Y-73800D01*
D02*
G37*
G36*
X142438D02*
X141562D01*
X140754Y-74135D01*
X140135Y-74754D01*
X139800Y-75562D01*
Y-76438D01*
X140135Y-77246D01*
X140754Y-77865D01*
X141562Y-78200D01*
X142438D01*
X143246Y-77865D01*
X143865Y-77246D01*
X144200Y-76438D01*
Y-75562D01*
X143865Y-74754D01*
X143246Y-74135D01*
X142438Y-73800D01*
D02*
G37*
G36*
X181738Y-80200D02*
X180862D01*
X180054Y-80535D01*
X179435Y-81154D01*
X179100Y-81962D01*
Y-82838D01*
X179435Y-83646D01*
X180054Y-84265D01*
X180862Y-84600D01*
X181738D01*
X182546Y-84265D01*
X183165Y-83646D01*
X183500Y-82838D01*
Y-81962D01*
X183165Y-81154D01*
X182546Y-80535D01*
X181738Y-80200D01*
D02*
G37*
G36*
X209738Y-81900D02*
X208862D01*
X208054Y-82235D01*
X207435Y-82854D01*
X207100Y-83662D01*
Y-84538D01*
X207435Y-85346D01*
X208054Y-85965D01*
X208862Y-86300D01*
X209738D01*
X210546Y-85965D01*
X211165Y-85346D01*
X211500Y-84538D01*
Y-83662D01*
X211165Y-82854D01*
X210546Y-82235D01*
X209738Y-81900D01*
D02*
G37*
G36*
X167438Y-83800D02*
X166562D01*
X165754Y-84135D01*
X165135Y-84754D01*
X164800Y-85562D01*
Y-86438D01*
X165135Y-87246D01*
X165754Y-87865D01*
X166562Y-88200D01*
X167438D01*
X168246Y-87865D01*
X168865Y-87246D01*
X169200Y-86438D01*
Y-85562D01*
X168865Y-84754D01*
X168246Y-84135D01*
X167438Y-83800D01*
D02*
G37*
G36*
X147438D02*
X146562D01*
X145754Y-84135D01*
X145135Y-84754D01*
X144800Y-85562D01*
Y-86438D01*
X145135Y-87246D01*
X145754Y-87865D01*
X146562Y-88200D01*
X147438D01*
X148246Y-87865D01*
X148865Y-87246D01*
X149200Y-86438D01*
Y-85562D01*
X148865Y-84754D01*
X148246Y-84135D01*
X147438Y-83800D01*
D02*
G37*
G36*
X187438D02*
X186562D01*
X185754Y-84135D01*
X185135Y-84754D01*
X184800Y-85562D01*
Y-86438D01*
X185135Y-87246D01*
X185754Y-87865D01*
X186562Y-88200D01*
X187438D01*
X187815Y-88585D01*
X187700Y-88862D01*
Y-89738D01*
X188035Y-90546D01*
X188654Y-91165D01*
X189462Y-91500D01*
X190338D01*
X191146Y-91165D01*
X191765Y-90546D01*
X192100Y-89738D01*
Y-88862D01*
X191765Y-88054D01*
X191146Y-87435D01*
X190338Y-87100D01*
X189462D01*
X189085Y-86715D01*
X189200Y-86438D01*
Y-85562D01*
X188865Y-84754D01*
X188246Y-84135D01*
X187438Y-83800D01*
D02*
G37*
G36*
X160238Y-93900D02*
X159362D01*
X158554Y-94235D01*
X157935Y-94854D01*
X157600Y-95662D01*
Y-96538D01*
X157935Y-97346D01*
X158554Y-97965D01*
X159362Y-98300D01*
X160238D01*
X161046Y-97965D01*
X161665Y-97346D01*
X162000Y-96538D01*
Y-95662D01*
X161665Y-94854D01*
X161046Y-94235D01*
X160238Y-93900D01*
D02*
G37*
G36*
X173138Y-94600D02*
X172262D01*
X171454Y-94935D01*
X170835Y-95554D01*
X170500Y-96362D01*
Y-97238D01*
X170835Y-98046D01*
X171454Y-98665D01*
X172262Y-99000D01*
X173138D01*
X173946Y-98665D01*
X174565Y-98046D01*
X174900Y-97238D01*
Y-96362D01*
X174565Y-95554D01*
X173946Y-94935D01*
X173138Y-94600D01*
D02*
G37*
G36*
X237438Y-103800D02*
X236562D01*
X235754Y-104135D01*
X235135Y-104754D01*
X234800Y-105562D01*
Y-106438D01*
X235135Y-107246D01*
X235754Y-107865D01*
X236562Y-108200D01*
X237438D01*
X238246Y-107865D01*
X238865Y-107246D01*
X239200Y-106438D01*
Y-105562D01*
X238865Y-104754D01*
X238246Y-104135D01*
X237438Y-103800D01*
D02*
G37*
G36*
X227438D02*
X226562D01*
X225754Y-104135D01*
X225135Y-104754D01*
X224800Y-105562D01*
Y-106438D01*
X225135Y-107246D01*
X225754Y-107865D01*
X226562Y-108200D01*
X227438D01*
X228246Y-107865D01*
X228865Y-107246D01*
X229200Y-106438D01*
Y-105562D01*
X228865Y-104754D01*
X228246Y-104135D01*
X227438Y-103800D01*
D02*
G37*
G36*
X167438D02*
X166562D01*
X165754Y-104135D01*
X165135Y-104754D01*
X164800Y-105562D01*
Y-106438D01*
X165135Y-107246D01*
X165754Y-107865D01*
X166562Y-108200D01*
X167438D01*
X168246Y-107865D01*
X168865Y-107246D01*
X169200Y-106438D01*
Y-105562D01*
X168865Y-104754D01*
X168246Y-104135D01*
X167438Y-103800D01*
D02*
G37*
G36*
X151138Y-105600D02*
X150262D01*
X149454Y-105935D01*
X148835Y-106554D01*
X148500Y-107362D01*
Y-108238D01*
X148835Y-109046D01*
X149454Y-109665D01*
X150262Y-110000D01*
X151138D01*
X151946Y-109665D01*
X152565Y-109046D01*
X152900Y-108238D01*
Y-107362D01*
X152565Y-106554D01*
X151946Y-105935D01*
X151138Y-105600D01*
D02*
G37*
G36*
X191538Y-110600D02*
X190662D01*
X189854Y-110935D01*
X189235Y-111554D01*
X188900Y-112362D01*
Y-113238D01*
X189235Y-114046D01*
X189854Y-114665D01*
X190662Y-115000D01*
X191538D01*
X192346Y-114665D01*
X192965Y-114046D01*
X193300Y-113238D01*
Y-112362D01*
X192965Y-111554D01*
X192346Y-110935D01*
X191538Y-110600D01*
D02*
G37*
G36*
X186438Y-110700D02*
X185562D01*
X184754Y-111035D01*
X184135Y-111654D01*
X183800Y-112462D01*
Y-113338D01*
X184135Y-114146D01*
X184754Y-114765D01*
X185562Y-115100D01*
X186438D01*
X187246Y-114765D01*
X187865Y-114146D01*
X188200Y-113338D01*
Y-112462D01*
X187865Y-111654D01*
X187246Y-111035D01*
X186438Y-110700D01*
D02*
G37*
G36*
X181438D02*
X180562D01*
X179754Y-111035D01*
X179135Y-111654D01*
X178800Y-112462D01*
Y-113338D01*
X179135Y-114146D01*
X179754Y-114765D01*
X180562Y-115100D01*
X181438D01*
X182246Y-114765D01*
X182865Y-114146D01*
X183200Y-113338D01*
Y-112462D01*
X182865Y-111654D01*
X182246Y-111035D01*
X181438Y-110700D01*
D02*
G37*
G36*
X242438Y-113800D02*
X241562D01*
X240754Y-114135D01*
X240135Y-114754D01*
X239800Y-115562D01*
Y-116438D01*
X240135Y-117246D01*
X240754Y-117865D01*
X241562Y-118200D01*
X242438D01*
X243246Y-117865D01*
X243865Y-117246D01*
X244200Y-116438D01*
Y-115562D01*
X243865Y-114754D01*
X243246Y-114135D01*
X242438Y-113800D01*
D02*
G37*
G36*
X232438D02*
X231562D01*
X230754Y-114135D01*
X230135Y-114754D01*
X229800Y-115562D01*
Y-116438D01*
X230135Y-117246D01*
X230754Y-117865D01*
X231562Y-118200D01*
X232438D01*
X233246Y-117865D01*
X233865Y-117246D01*
X234200Y-116438D01*
Y-115562D01*
X233865Y-114754D01*
X233246Y-114135D01*
X232438Y-113800D01*
D02*
G37*
G36*
X202438D02*
X201562D01*
X200754Y-114135D01*
X200135Y-114754D01*
X199800Y-115562D01*
Y-116438D01*
X200135Y-117246D01*
X200754Y-117865D01*
X201562Y-118200D01*
X202438D01*
X203246Y-117865D01*
X203865Y-117246D01*
X204200Y-116438D01*
Y-115562D01*
X203865Y-114754D01*
X203246Y-114135D01*
X202438Y-113800D01*
D02*
G37*
G36*
X132438D02*
X131562D01*
X130754Y-114135D01*
X130135Y-114754D01*
X129800Y-115562D01*
Y-116438D01*
X130135Y-117246D01*
X130754Y-117865D01*
X131562Y-118200D01*
X132438D01*
X133246Y-117865D01*
X133865Y-117246D01*
X134200Y-116438D01*
Y-115562D01*
X133865Y-114754D01*
X133246Y-114135D01*
X132438Y-113800D01*
D02*
G37*
G36*
X122438D02*
X121562D01*
X120754Y-114135D01*
X120135Y-114754D01*
X119800Y-115562D01*
Y-116438D01*
X120135Y-117246D01*
X120754Y-117865D01*
X121562Y-118200D01*
X122438D01*
X123246Y-117865D01*
X123865Y-117246D01*
X124200Y-116438D01*
Y-115562D01*
X123865Y-114754D01*
X123246Y-114135D01*
X122438Y-113800D01*
D02*
G37*
G36*
X223838Y-117400D02*
X222962D01*
X222154Y-117735D01*
X221535Y-118354D01*
X221200Y-119162D01*
Y-120038D01*
X221535Y-120846D01*
X222154Y-121465D01*
X222962Y-121800D01*
X223838D01*
X224646Y-121465D01*
X225265Y-120846D01*
X225600Y-120038D01*
Y-119162D01*
X225265Y-118354D01*
X224646Y-117735D01*
X223838Y-117400D01*
D02*
G37*
G36*
X171838Y-120000D02*
X170962D01*
X170154Y-120335D01*
X169535Y-120954D01*
X169200Y-121762D01*
Y-122638D01*
X169535Y-123446D01*
X170154Y-124065D01*
X170962Y-124400D01*
X171838D01*
X172646Y-124065D01*
X173265Y-123446D01*
X173600Y-122638D01*
Y-121762D01*
X173265Y-120954D01*
X172646Y-120335D01*
X171838Y-120000D01*
D02*
G37*
G36*
X237438Y-123800D02*
X236562D01*
X235754Y-124135D01*
X235135Y-124754D01*
X234800Y-125562D01*
Y-126438D01*
X235135Y-127246D01*
X235754Y-127865D01*
X236562Y-128200D01*
X237438D01*
X238246Y-127865D01*
X238865Y-127246D01*
X239200Y-126438D01*
Y-125562D01*
X238865Y-124754D01*
X238246Y-124135D01*
X237438Y-123800D01*
D02*
G37*
G36*
X227438D02*
X226562D01*
X225754Y-124135D01*
X225135Y-124754D01*
X224800Y-125562D01*
Y-126438D01*
X225135Y-127246D01*
X225754Y-127865D01*
X226562Y-128200D01*
X227438D01*
X228246Y-127865D01*
X228865Y-127246D01*
X229200Y-126438D01*
Y-125562D01*
X228865Y-124754D01*
X228246Y-124135D01*
X227438Y-123800D01*
D02*
G37*
G36*
X187438D02*
X186562D01*
X185754Y-124135D01*
X185135Y-124754D01*
X184800Y-125562D01*
Y-126438D01*
X185135Y-127246D01*
X185754Y-127865D01*
X186562Y-128200D01*
X187438D01*
X188246Y-127865D01*
X188865Y-127246D01*
X189200Y-126438D01*
Y-125562D01*
X188865Y-124754D01*
X188246Y-124135D01*
X187438Y-123800D01*
D02*
G37*
G36*
X202438Y-122200D02*
X201562D01*
X200754Y-122535D01*
X200135Y-123154D01*
X199800Y-123962D01*
Y-124838D01*
X200135Y-125646D01*
X200754Y-126265D01*
X201030Y-126379D01*
Y-126921D01*
X200754Y-127035D01*
X200135Y-127654D01*
X199800Y-128462D01*
Y-129338D01*
X200135Y-130146D01*
X200754Y-130765D01*
X201562Y-131100D01*
X202438D01*
X203246Y-130765D01*
X203865Y-130146D01*
X204200Y-129338D01*
Y-128462D01*
X203865Y-127654D01*
X203246Y-127035D01*
X202970Y-126921D01*
Y-126379D01*
X203246Y-126265D01*
X203865Y-125646D01*
X204200Y-124838D01*
Y-123962D01*
X203865Y-123154D01*
X203246Y-122535D01*
X202438Y-122200D01*
D02*
G37*
G36*
X217938Y-132000D02*
X217062D01*
X216254Y-132335D01*
X215635Y-132954D01*
X215300Y-133762D01*
Y-134638D01*
X215635Y-135446D01*
X216254Y-136065D01*
X217062Y-136400D01*
X217938D01*
X218746Y-136065D01*
X219365Y-135446D01*
X219700Y-134638D01*
Y-133762D01*
X219365Y-132954D01*
X218746Y-132335D01*
X217938Y-132000D01*
D02*
G37*
G36*
X202438Y-133800D02*
X201562D01*
X200754Y-134135D01*
X200135Y-134754D01*
X199800Y-135562D01*
Y-136438D01*
X200135Y-137246D01*
X200754Y-137865D01*
X201562Y-138200D01*
X202438D01*
X203246Y-137865D01*
X203865Y-137246D01*
X204200Y-136438D01*
Y-135562D01*
X203865Y-134754D01*
X203246Y-134135D01*
X202438Y-133800D01*
D02*
G37*
G36*
X192539Y-140100D02*
X191664D01*
X190855Y-140435D01*
X190236Y-141054D01*
X190050Y-141502D01*
X189509D01*
X189365Y-141154D01*
X188746Y-140535D01*
X187938Y-140200D01*
X187062D01*
X186254Y-140535D01*
X185635Y-141154D01*
X185521Y-141430D01*
X184979D01*
X184865Y-141154D01*
X184246Y-140535D01*
X183438Y-140200D01*
X182562D01*
X181754Y-140535D01*
X181135Y-141154D01*
X181021Y-141430D01*
X180479D01*
X180365Y-141154D01*
X179746Y-140535D01*
X178938Y-140200D01*
X178062D01*
X177254Y-140535D01*
X176635Y-141154D01*
X176300Y-141962D01*
Y-142838D01*
X176635Y-143646D01*
X177254Y-144265D01*
X178062Y-144600D01*
X178938D01*
X179746Y-144265D01*
X180365Y-143646D01*
X180479Y-143370D01*
X181021D01*
X181135Y-143646D01*
X181754Y-144265D01*
X182562Y-144600D01*
X183438D01*
X184246Y-144265D01*
X184865Y-143646D01*
X184979Y-143370D01*
X185521D01*
X185635Y-143646D01*
X186254Y-144265D01*
X187062Y-144600D01*
X187938D01*
X188746Y-144265D01*
X189365Y-143646D01*
X189551Y-143198D01*
X190092D01*
X190236Y-143546D01*
X190855Y-144165D01*
X191664Y-144500D01*
X192539D01*
X193347Y-144165D01*
X193966Y-143546D01*
X194009Y-143442D01*
X194551D01*
X194635Y-143646D01*
X195254Y-144265D01*
X196062Y-144600D01*
X196938D01*
X197746Y-144265D01*
X198365Y-143646D01*
X198700Y-142838D01*
Y-141962D01*
X198365Y-141154D01*
X197746Y-140535D01*
X196938Y-140200D01*
X196062D01*
X195254Y-140535D01*
X194635Y-141154D01*
X194592Y-141258D01*
X194051D01*
X193966Y-141054D01*
X193347Y-140435D01*
X192539Y-140100D01*
D02*
G37*
G36*
X119565Y-137273D02*
X118690D01*
X117881Y-137607D01*
X117262Y-138226D01*
X116928Y-139035D01*
Y-139910D01*
X117262Y-140719D01*
X117881Y-141338D01*
X118690Y-141673D01*
X119565D01*
X120374Y-141338D01*
X120993Y-140719D01*
X121327Y-139910D01*
Y-139035D01*
X120993Y-138226D01*
X120374Y-137607D01*
X119565Y-137273D01*
D02*
G37*
G36*
X143858Y-142209D02*
X142983D01*
X142174Y-142544D01*
X141556Y-143163D01*
X141221Y-143971D01*
Y-144646D01*
X140828Y-144973D01*
X140759Y-144995D01*
X140309Y-144809D01*
X139434D01*
X138625Y-145144D01*
X138006Y-145763D01*
X137812Y-146233D01*
X137270D01*
X137148Y-145937D01*
X136529Y-145318D01*
X135720Y-144983D01*
X134845D01*
X134037Y-145318D01*
X133418Y-145937D01*
X133083Y-146745D01*
Y-147621D01*
X133418Y-148429D01*
X134037Y-149048D01*
X134845Y-149383D01*
X135720D01*
X136529Y-149048D01*
X137148Y-148429D01*
X137342Y-147959D01*
X137884D01*
X138006Y-148255D01*
X138625Y-148874D01*
X139434Y-149209D01*
X140309D01*
X141117Y-148874D01*
X141736Y-148255D01*
X142071Y-147447D01*
Y-146772D01*
X142464Y-146445D01*
X142533Y-146423D01*
X142983Y-146609D01*
X143858D01*
X144667Y-146274D01*
X145173Y-145768D01*
X145614Y-145791D01*
X145747Y-145847D01*
X145915Y-146252D01*
X146534Y-146871D01*
X147342Y-147205D01*
X148218D01*
X149026Y-146871D01*
X149645Y-146252D01*
X149980Y-145443D01*
Y-144568D01*
X149645Y-143759D01*
X149026Y-143140D01*
X148218Y-142806D01*
X147342D01*
X146534Y-143140D01*
X146028Y-143647D01*
X145587Y-143623D01*
X145454Y-143568D01*
X145286Y-143163D01*
X144667Y-142544D01*
X143858Y-142209D01*
D02*
G37*
G36*
X156238Y-143300D02*
X155362D01*
X154554Y-143635D01*
X153935Y-144254D01*
X153600Y-145062D01*
Y-145938D01*
X153935Y-146746D01*
X154554Y-147365D01*
X155362Y-147700D01*
X156238D01*
X157046Y-147365D01*
X157665Y-146746D01*
X158000Y-145938D01*
Y-145062D01*
X157665Y-144254D01*
X157046Y-143635D01*
X156238Y-143300D01*
D02*
G37*
G36*
X222438Y-153800D02*
X221562D01*
X220754Y-154135D01*
X220135Y-154754D01*
X219800Y-155562D01*
Y-156438D01*
X220135Y-157246D01*
X220754Y-157865D01*
X221562Y-158200D01*
X222438D01*
X223246Y-157865D01*
X223865Y-157246D01*
X224200Y-156438D01*
Y-155562D01*
X223865Y-154754D01*
X223246Y-154135D01*
X222438Y-153800D01*
D02*
G37*
G36*
X122438D02*
X121562D01*
X120754Y-154135D01*
X120135Y-154754D01*
X119800Y-155562D01*
Y-156438D01*
X120135Y-157246D01*
X120754Y-157865D01*
X121562Y-158200D01*
X122438D01*
X123246Y-157865D01*
X123865Y-157246D01*
X124200Y-156438D01*
Y-155562D01*
X123865Y-154754D01*
X123246Y-154135D01*
X122438Y-153800D01*
D02*
G37*
G36*
X227438Y-163800D02*
X226562D01*
X225754Y-164135D01*
X225135Y-164754D01*
X224800Y-165562D01*
Y-166438D01*
X225135Y-167246D01*
X225754Y-167865D01*
X226562Y-168200D01*
X227438D01*
X228246Y-167865D01*
X228865Y-167246D01*
X229200Y-166438D01*
Y-165562D01*
X228865Y-164754D01*
X228246Y-164135D01*
X227438Y-163800D01*
D02*
G37*
G36*
X157438D02*
X156562D01*
X155754Y-164135D01*
X155135Y-164754D01*
X154800Y-165562D01*
Y-166438D01*
X155135Y-167246D01*
X155754Y-167865D01*
X156562Y-168200D01*
X157438D01*
X158246Y-167865D01*
X158865Y-167246D01*
X159200Y-166438D01*
Y-165562D01*
X158865Y-164754D01*
X158246Y-164135D01*
X157438Y-163800D01*
D02*
G37*
G36*
X198738Y-166100D02*
X197862D01*
X197054Y-166435D01*
X196435Y-167054D01*
X196100Y-167862D01*
Y-168738D01*
X196435Y-169546D01*
X197054Y-170165D01*
X197862Y-170500D01*
X198738D01*
X199546Y-170165D01*
X200165Y-169546D01*
X200500Y-168738D01*
Y-167862D01*
X200165Y-167054D01*
X199546Y-166435D01*
X198738Y-166100D01*
D02*
G37*
G36*
X225738Y-172000D02*
X224862D01*
X224054Y-172335D01*
X223435Y-172954D01*
X223100Y-173762D01*
Y-174638D01*
X223435Y-175446D01*
X224054Y-176065D01*
X224862Y-176400D01*
X225738D01*
X226546Y-176065D01*
X227165Y-175446D01*
X227500Y-174638D01*
Y-173762D01*
X227165Y-172954D01*
X226546Y-172335D01*
X225738Y-172000D01*
D02*
G37*
G36*
X192438Y-173800D02*
X191562D01*
X190754Y-174135D01*
X190135Y-174754D01*
X189800Y-175562D01*
Y-176438D01*
X190135Y-177246D01*
X190754Y-177865D01*
X191562Y-178200D01*
X192438D01*
X193246Y-177865D01*
X193865Y-177246D01*
X194200Y-176438D01*
Y-175562D01*
X193865Y-174754D01*
X193246Y-174135D01*
X192438Y-173800D01*
D02*
G37*
G36*
X182438D02*
X181562D01*
X180754Y-174135D01*
X180135Y-174754D01*
X179800Y-175562D01*
Y-176438D01*
X180135Y-177246D01*
X180754Y-177865D01*
X181562Y-178200D01*
X182438D01*
X183246Y-177865D01*
X183865Y-177246D01*
X184200Y-176438D01*
Y-175562D01*
X183865Y-174754D01*
X183246Y-174135D01*
X182438Y-173800D01*
D02*
G37*
G36*
X171738Y-170500D02*
X170862D01*
X170054Y-170835D01*
X169435Y-171454D01*
X169100Y-172262D01*
Y-173138D01*
X169435Y-173946D01*
X170054Y-174565D01*
X170101Y-174585D01*
X170135Y-174754D01*
X169800Y-175562D01*
Y-176438D01*
X170135Y-177246D01*
X170754Y-177865D01*
X171562Y-178200D01*
X172438D01*
X173246Y-177865D01*
X173865Y-177246D01*
X174200Y-176438D01*
Y-175562D01*
X173865Y-174754D01*
X173246Y-174135D01*
X173199Y-174115D01*
X173165Y-173946D01*
X173500Y-173138D01*
Y-172262D01*
X173165Y-171454D01*
X172546Y-170835D01*
X171738Y-170500D01*
D02*
G37*
G36*
X227438Y-183800D02*
X226562D01*
X225754Y-184135D01*
X225135Y-184754D01*
X224800Y-185562D01*
Y-186438D01*
X225135Y-187246D01*
X225754Y-187865D01*
X226562Y-188200D01*
X227438D01*
X228246Y-187865D01*
X228865Y-187246D01*
X229200Y-186438D01*
Y-185562D01*
X228865Y-184754D01*
X228246Y-184135D01*
X227438Y-183800D01*
D02*
G37*
G36*
X217438D02*
X216562D01*
X215754Y-184135D01*
X215135Y-184754D01*
X214800Y-185562D01*
Y-186438D01*
X215135Y-187246D01*
X215754Y-187865D01*
X216562Y-188200D01*
X217438D01*
X218246Y-187865D01*
X218865Y-187246D01*
X219200Y-186438D01*
Y-185562D01*
X218865Y-184754D01*
X218246Y-184135D01*
X217438Y-183800D01*
D02*
G37*
G36*
X207438D02*
X206562D01*
X205754Y-184135D01*
X205135Y-184754D01*
X204800Y-185562D01*
Y-186438D01*
X205135Y-187246D01*
X205754Y-187865D01*
X206562Y-188200D01*
X207438D01*
X208246Y-187865D01*
X208865Y-187246D01*
X209200Y-186438D01*
Y-185562D01*
X208865Y-184754D01*
X208246Y-184135D01*
X207438Y-183800D01*
D02*
G37*
%LPD*%
D97*
X51200Y-149300D02*
D03*
X47612Y-102585D02*
D03*
X175530Y-201370D02*
D03*
X144446Y-206500D02*
D03*
X274000Y-15100D02*
D03*
X291800Y-14900D02*
D03*
X309300Y-15000D02*
D03*
X128700Y-188700D02*
D03*
X138500Y-94800D02*
D03*
X55200Y-129300D02*
D03*
X61158Y-207872D02*
D03*
X244800Y-231300D02*
D03*
X325700Y-97000D02*
D03*
X190800Y-64100D02*
D03*
X171800Y-112900D02*
D03*
X112000Y-84700D02*
D03*
X112100Y-76800D02*
D03*
X222670Y-213770D02*
D03*
X262267Y-231640D02*
D03*
X47150Y-51837D02*
D03*
X76800Y-39700D02*
D03*
X290400Y-79200D02*
D03*
X253400Y-82200D02*
D03*
X115700Y-175800D02*
D03*
X280200Y-232600D02*
D03*
X255600Y-126200D02*
D03*
X283700Y-123200D02*
D03*
X326000Y-114100D02*
D03*
X324800Y-79300D02*
D03*
X257800Y-61200D02*
D03*
X221100Y-49900D02*
D03*
X184300Y-48700D02*
D03*
X71200Y-88700D02*
D03*
X57800Y-178100D02*
D03*
X91600Y-200900D02*
D03*
X117400Y-206600D02*
D03*
X112200Y-67400D02*
D03*
X112100Y-62900D02*
D03*
Y-71400D02*
D03*
X132800Y-67300D02*
D03*
X112000Y-80600D02*
D03*
X106700Y-67400D02*
D03*
Y-62800D02*
D03*
X132900Y-63200D02*
D03*
X132800Y-75600D02*
D03*
Y-71400D02*
D03*
X172500Y-76100D02*
D03*
X213100Y-108900D02*
D03*
X245500Y-101700D02*
D03*
X229100Y-138500D02*
D03*
X218600Y-151496D02*
D03*
X206000Y-155700D02*
D03*
X218000Y-164100D02*
D03*
X201200Y-186300D02*
D03*
X190200Y-194400D02*
D03*
X176600Y-171000D02*
D03*
X131300Y-161400D02*
D03*
X134700Y-132500D02*
D03*
X123200Y-160800D02*
D03*
X124000Y-108900D02*
D03*
X138500Y-90800D02*
D03*
X138400Y-86400D02*
D03*
Y-82100D02*
D03*
X131600Y-86600D02*
D03*
Y-82300D02*
D03*
Y-90700D02*
D03*
Y-95000D02*
D03*
M02*
