M48
;Layer_Color=9474304
;FILE_FORMAT=2:5
INCH
;TYPE=PLATED
T1F00S00C0.01200
T2F00S00C0.02800
T3F00S00C0.04016
T4F00S00C0.14400
;TYPE=NON_PLATED
T5F00S00C0.11811
%
T01
X0094700Y0017300
X0098300Y0022200
X0103400
X0107000Y0017300
Y0027100
X0094700
X0093500Y0042500
X0083500
X0089867Y0103367
X0095667Y0094680
X0111500Y0131000
T02
X0028950Y0006550
X0036450
X0043950
X0051450
X0058950
X0066450
X0070200Y0014050
X0062700
X0055200
X0047700
X0040200
X0032700
X0025200
X0021450Y0021550
X0017700Y0029050
X0010200
X0013950Y0036550
X0021450
X0025200Y0044050
X0017700
X0010200
X0013950Y0051550
X0021450
X0028950
X0036450
X0043950
X0051450
X0058950
X0066450
X0070200Y0059050
X0062700
X0055200
X0047700
X0040200
X0032700
X0025200
X0017700
X0010200
X0013950Y0066550
X0021450
X0028950
X0051450
X0058950
X0066450
X0070200Y0044050
Y0029050
X0006450Y0036550
Y0051550
Y0066550
Y0096550
X0013950
X0021450
X0025200Y0104050
X0032700
X0040200
X0047700
X0055200
X0062700
X0070200
X0066450Y0111550
X0058950
X0051450
X0043950
X0036450
X0028950
X0021450
X0013950
X0006450
X0010200Y0119050
X0017700
X0025200
X0021450Y0126550
X0013950
X0006450
X0017700Y0134050
X0025200
X0028950Y0141550
X0036450
X0043950
X0051450
X0058950
X0066450
X0070200Y0149050
X0062700
X0055200
X0047700
X0040200
X0032700
X0025200
X0017700Y0104050
X0010200
X0051450Y0096550
X0058950
X0066450
X0070200Y0119050
Y0134050
X0086303Y0140803
X0144642Y0125858
X0136697Y0110913
T03
X0095500Y0142000
X0111500
X0127500
X0119600Y0150400
X0103500
T04
X0039450Y0032550
Y0126550
T05
X0145000Y0012500
X0012450Y0012050
X0012500Y0145000
X0145000
M30
