G04*
G04 #@! TF.GenerationSoftware,Altium Limited,Altium Designer,22.10.1 (41)*
G04*
G04 Layer_Physical_Order=2*
G04 Layer_Color=36540*
%FSLAX25Y25*%
%MOIN*%
G70*
G04*
G04 #@! TF.SameCoordinates,8FEA939C-E76D-43F5-B1C2-14765C5B3C68*
G04*
G04*
G04 #@! TF.FilePolarity,Positive*
G04*
G01*
G75*
%ADD44C,0.10000*%
%ADD46C,0.01772*%
%ADD47C,0.02400*%
G36*
X486515Y384197D02*
D01*
X486515D01*
X487773Y384197D01*
X490268Y383869D01*
X492699Y383217D01*
X495024Y382254D01*
X497203Y380996D01*
X499199Y379464D01*
X500979Y377685D01*
X502511Y375688D01*
X503769Y373509D01*
X504732Y371184D01*
X505383Y368753D01*
X505712Y366258D01*
X505712Y365000D01*
Y243243D01*
Y241985D01*
X505383Y239490D01*
X504732Y237059D01*
X503769Y234734D01*
X502511Y232555D01*
X500979Y230558D01*
X499199Y228779D01*
X497203Y227247D01*
X495024Y225989D01*
X492699Y225026D01*
X490268Y224374D01*
X487773Y224046D01*
X321984D01*
X319489Y224374D01*
X317059Y225026D01*
X314734Y225989D01*
X312554Y227247D01*
X310558Y228779D01*
X308779Y230558D01*
X307246Y232555D01*
X305988Y234734D01*
X305025Y237059D01*
X304374Y239490D01*
X304045Y241985D01*
X304045Y243243D01*
Y243243D01*
D01*
X304045Y365000D01*
Y366258D01*
X304374Y368753D01*
X305025Y371184D01*
X305988Y373509D01*
X307246Y375688D01*
X308778Y377685D01*
X310558Y379464D01*
X312554Y380996D01*
X314734Y382254D01*
X317059Y383217D01*
X319489Y383869D01*
X321984Y384197D01*
X323243Y384197D01*
X486515Y384197D01*
D02*
G37*
%LPC*%
G36*
X487669Y375258D02*
X485846D01*
X484057Y374903D01*
X482372Y374205D01*
X480856Y373191D01*
X479566Y371902D01*
X478553Y370385D01*
X477855Y368701D01*
X477499Y366912D01*
Y365088D01*
X477855Y363299D01*
X478553Y361615D01*
X479566Y360098D01*
X480856Y358809D01*
X482372Y357795D01*
X484057Y357098D01*
X485846Y356742D01*
X487669D01*
X489458Y357098D01*
X491143Y357795D01*
X492659Y358809D01*
X493949Y360098D01*
X494962Y361615D01*
X495660Y363299D01*
X496016Y365088D01*
Y366912D01*
X495660Y368701D01*
X494962Y370385D01*
X493949Y371902D01*
X492659Y373191D01*
X491143Y374205D01*
X489458Y374903D01*
X487669Y375258D01*
D02*
G37*
G36*
X324154Y374258D02*
X322331D01*
X320542Y373903D01*
X318857Y373205D01*
X317341Y372191D01*
X316051Y370902D01*
X315038Y369385D01*
X314340Y367701D01*
X313984Y365912D01*
Y364088D01*
X314340Y362299D01*
X315038Y360615D01*
X316051Y359098D01*
X317341Y357809D01*
X318857Y356795D01*
X320542Y356098D01*
X322331Y355742D01*
X324154D01*
X325943Y356098D01*
X327628Y356795D01*
X329144Y357809D01*
X330434Y359098D01*
X331447Y360615D01*
X332145Y362299D01*
X332501Y364088D01*
Y365912D01*
X332145Y367701D01*
X331447Y369385D01*
X330434Y370902D01*
X329144Y372191D01*
X327628Y373205D01*
X325943Y373903D01*
X324154Y374258D01*
D02*
G37*
G36*
X409276Y345386D02*
X408724D01*
X408215Y345175D01*
X407825Y344785D01*
X407614Y344276D01*
Y343724D01*
X407825Y343215D01*
X408215Y342825D01*
X408724Y342614D01*
X409276D01*
X409785Y342825D01*
X410175Y343215D01*
X410386Y343724D01*
Y344276D01*
X410175Y344785D01*
X409785Y345175D01*
X409276Y345386D01*
D02*
G37*
G36*
X471276Y341886D02*
X470724D01*
X470215Y341675D01*
X469825Y341285D01*
X469614Y340776D01*
Y340224D01*
X469825Y339715D01*
X470215Y339325D01*
X470724Y339114D01*
X471276D01*
X471785Y339325D01*
X472175Y339715D01*
X472386Y340224D01*
Y340776D01*
X472175Y341285D01*
X471785Y341675D01*
X471276Y341886D01*
D02*
G37*
G36*
X409276Y334076D02*
X408724D01*
X408215Y333865D01*
X407825Y333475D01*
X407614Y332966D01*
Y332415D01*
X407825Y331905D01*
X408215Y331516D01*
X408724Y331305D01*
X409276D01*
X409785Y331516D01*
X410175Y331905D01*
X410386Y332415D01*
Y332966D01*
X410175Y333475D01*
X409785Y333865D01*
X409276Y334076D01*
D02*
G37*
G36*
X460776Y318328D02*
X460224D01*
X459715Y318117D01*
X459325Y317727D01*
X459114Y317218D01*
Y316667D01*
X459325Y316157D01*
X459715Y315768D01*
X460224Y315557D01*
X460776D01*
X461285Y315768D01*
X461675Y316157D01*
X461886Y316667D01*
Y317218D01*
X461675Y317727D01*
X461285Y318117D01*
X460776Y318328D01*
D02*
G37*
G36*
X451276Y314391D02*
X450724D01*
X450215Y314180D01*
X449825Y313790D01*
X449614Y313281D01*
Y312730D01*
X449825Y312220D01*
X450215Y311830D01*
X450724Y311620D01*
X451276D01*
X451785Y311830D01*
X452175Y312220D01*
X452386Y312730D01*
Y313281D01*
X452175Y313790D01*
X451785Y314180D01*
X451276Y314391D01*
D02*
G37*
G36*
X398303Y299804D02*
X397752D01*
X397242Y299593D01*
X396853Y299203D01*
X396642Y298694D01*
Y298143D01*
X396853Y297634D01*
X397242Y297244D01*
X397752Y297033D01*
X398303D01*
X398813Y297244D01*
X399202Y297634D01*
X399413Y298143D01*
Y298694D01*
X399202Y299203D01*
X398813Y299593D01*
X398303Y299804D01*
D02*
G37*
G36*
X451276Y298386D02*
X450724D01*
X450215Y298175D01*
X449825Y297785D01*
X449614Y297276D01*
Y296724D01*
X449825Y296215D01*
X450215Y295825D01*
X450724Y295614D01*
X451276D01*
X451785Y295825D01*
X452175Y296215D01*
X452386Y296724D01*
Y297276D01*
X452175Y297785D01*
X451785Y298175D01*
X451276Y298386D01*
D02*
G37*
G36*
X386776Y294804D02*
X386224D01*
X385715Y294593D01*
X385325Y294203D01*
X385114Y293694D01*
Y293143D01*
X385325Y292634D01*
X385715Y292244D01*
X386224Y292033D01*
X386776D01*
X387285Y292244D01*
X387675Y292634D01*
X387886Y293143D01*
Y293694D01*
X387675Y294203D01*
X387285Y294593D01*
X386776Y294804D01*
D02*
G37*
G36*
X405000Y292331D02*
X404449D01*
X403939Y292120D01*
X403550Y291730D01*
X403339Y291220D01*
Y290669D01*
X403550Y290160D01*
X403939Y289770D01*
X404449Y289559D01*
X405000D01*
X405509Y289770D01*
X405899Y290160D01*
X406110Y290669D01*
Y291220D01*
X405899Y291730D01*
X405509Y292120D01*
X405000Y292331D01*
D02*
G37*
G36*
X422776Y289804D02*
X422224D01*
X421715Y289593D01*
X421325Y289204D01*
X421114Y288694D01*
Y288143D01*
X421325Y287633D01*
X421715Y287244D01*
X422224Y287033D01*
X422776D01*
X423285Y287244D01*
X423675Y287633D01*
X423886Y288143D01*
Y288694D01*
X423675Y289204D01*
X423285Y289593D01*
X422776Y289804D01*
D02*
G37*
G36*
X471276Y282886D02*
X470724D01*
X470215Y282675D01*
X469825Y282285D01*
X469614Y281776D01*
Y281224D01*
X469825Y280715D01*
X470215Y280325D01*
X470724Y280114D01*
X471276D01*
X471785Y280325D01*
X472175Y280715D01*
X472386Y281224D01*
Y281776D01*
X472175Y282285D01*
X471785Y282675D01*
X471276Y282886D01*
D02*
G37*
G36*
X365630Y284760D02*
X365079D01*
X364569Y284549D01*
X364179Y284159D01*
X363968Y283650D01*
Y283098D01*
X364179Y282589D01*
X364530Y282238D01*
X364179Y281887D01*
X363968Y281378D01*
Y280827D01*
X364179Y280317D01*
X364569Y279927D01*
X365079Y279716D01*
X365630D01*
X366139Y279927D01*
X366529Y280317D01*
X366740Y280827D01*
Y281378D01*
X366529Y281887D01*
X366178Y282238D01*
X366529Y282589D01*
X366740Y283098D01*
Y283650D01*
X366529Y284159D01*
X366139Y284549D01*
X365630Y284760D01*
D02*
G37*
G36*
X401457Y264772D02*
X400905D01*
X400396Y264561D01*
X400006Y264171D01*
X399795Y263662D01*
Y263110D01*
X400006Y262601D01*
X400357Y262250D01*
X400006Y261899D01*
X399795Y261390D01*
Y260839D01*
X400006Y260329D01*
X400396Y259939D01*
X400905Y259728D01*
X401457D01*
X401966Y259939D01*
X402356Y260329D01*
X402567Y260839D01*
Y261390D01*
X402356Y261899D01*
X402005Y262250D01*
X402356Y262601D01*
X402567Y263110D01*
Y263662D01*
X402356Y264171D01*
X401966Y264561D01*
X401457Y264772D01*
D02*
G37*
G36*
X418276Y247665D02*
X417724D01*
X417215Y247454D01*
X416825Y247064D01*
X416614Y246555D01*
Y246004D01*
X416825Y245495D01*
X417215Y245105D01*
X417724Y244894D01*
X418276D01*
X418785Y245105D01*
X419175Y245495D01*
X419386Y246004D01*
Y246555D01*
X419175Y247064D01*
X418785Y247454D01*
X418276Y247665D01*
D02*
G37*
G36*
X465266Y250085D02*
X464755D01*
Y244885D01*
X469955D01*
Y245396D01*
X469587Y246769D01*
X468876Y248001D01*
X467871Y249006D01*
X466639Y249717D01*
X465266Y250085D01*
D02*
G37*
G36*
X464355D02*
X463844D01*
X462471Y249717D01*
X461239Y249006D01*
X460234Y248001D01*
X459523Y246769D01*
X459155Y245396D01*
Y244885D01*
X464355D01*
Y250085D01*
D02*
G37*
G36*
X406776Y242547D02*
X406224D01*
X405715Y242336D01*
X405325Y241946D01*
X405114Y241437D01*
Y240886D01*
X405325Y240376D01*
X405715Y239987D01*
X406224Y239776D01*
X406776D01*
X407285Y239987D01*
X407675Y240376D01*
X407886Y240886D01*
Y241437D01*
X407675Y241946D01*
X407285Y242336D01*
X406776Y242547D01*
D02*
G37*
G36*
X469955Y244485D02*
X464755D01*
Y239285D01*
X465266D01*
X466639Y239653D01*
X467871Y240364D01*
X468876Y241369D01*
X469587Y242601D01*
X469955Y243974D01*
Y244485D01*
D02*
G37*
G36*
X464355D02*
X459155D01*
Y243974D01*
X459523Y242601D01*
X460234Y241369D01*
X461239Y240364D01*
X462471Y239653D01*
X463844Y239285D01*
X464355D01*
Y244485D01*
D02*
G37*
%LPD*%
D44*
X464555Y244685D02*
D03*
D46*
X363226Y279134D02*
D03*
X367163D02*
D03*
Y285343D02*
D03*
X363226D02*
D03*
X399053Y265354D02*
D03*
X402990D02*
D03*
Y259146D02*
D03*
X399053D02*
D03*
D47*
X442235Y274665D02*
D03*
X460000Y321000D02*
D03*
X423000Y284000D02*
D03*
X418000Y251000D02*
D03*
X446000Y297000D02*
D03*
X403000Y287000D02*
D03*
X382000Y293000D02*
D03*
X431000Y311000D02*
D03*
X447000Y326000D02*
D03*
X494735Y379665D02*
D03*
X502235Y364665D02*
D03*
X494735Y349665D02*
D03*
X502235Y334665D02*
D03*
X494735Y259665D02*
D03*
X502235Y244665D02*
D03*
X494735Y229665D02*
D03*
X479735Y379665D02*
D03*
Y349665D02*
D03*
X487235Y334665D02*
D03*
X479735Y259665D02*
D03*
X487235Y244665D02*
D03*
X479735Y229665D02*
D03*
X464735Y379665D02*
D03*
X472235Y364665D02*
D03*
X464735Y349665D02*
D03*
X472235Y274665D02*
D03*
X464735Y259665D02*
D03*
X472235Y244665D02*
D03*
X464735Y229665D02*
D03*
X449735Y379665D02*
D03*
X457235Y364665D02*
D03*
X449735Y349665D02*
D03*
X457235Y334665D02*
D03*
Y274665D02*
D03*
X449735Y259665D02*
D03*
X457235Y244665D02*
D03*
X449735Y229665D02*
D03*
X434735Y379665D02*
D03*
X442235Y364665D02*
D03*
X434735Y349665D02*
D03*
X442235Y334665D02*
D03*
X434735Y229665D02*
D03*
X419735Y379665D02*
D03*
X427235Y364665D02*
D03*
X419735Y349665D02*
D03*
X427235Y334665D02*
D03*
X419735Y319665D02*
D03*
X427235Y274665D02*
D03*
X419735Y259665D02*
D03*
Y229665D02*
D03*
X404735Y379665D02*
D03*
Y319665D02*
D03*
Y229665D02*
D03*
X389735Y379665D02*
D03*
Y349665D02*
D03*
Y319665D02*
D03*
Y229665D02*
D03*
X374735Y379665D02*
D03*
X382235Y364665D02*
D03*
X374735Y319665D02*
D03*
X382235Y274665D02*
D03*
X374735Y229665D02*
D03*
X359735Y379665D02*
D03*
X367235Y364665D02*
D03*
X359735Y349665D02*
D03*
X367235Y304665D02*
D03*
Y274665D02*
D03*
X359735Y229665D02*
D03*
X344735Y379665D02*
D03*
X352235Y364665D02*
D03*
X344735Y349665D02*
D03*
Y229665D02*
D03*
X329735Y379665D02*
D03*
X337235Y364665D02*
D03*
X329735Y229665D02*
D03*
X314735Y379665D02*
D03*
X322235Y334665D02*
D03*
X314735Y319665D02*
D03*
X322235Y304665D02*
D03*
X314735Y289665D02*
D03*
X322235Y274665D02*
D03*
X314735Y259665D02*
D03*
Y229665D02*
D03*
M02*
