G04*
G04 #@! TF.GenerationSoftware,Altium Limited,Altium Designer,22.10.1 (41)*
G04*
G04 Layer_Color=8388736*
%FSLAX25Y25*%
%MOIN*%
G70*
G04*
G04 #@! TF.SameCoordinates,8FEA939C-E76D-43F5-B1C2-14765C5B3C68*
G04*
G04*
G04 #@! TF.FilePolarity,Negative*
G04*
G01*
G75*
%ADD15R,0.05728X0.02197*%
%ADD29C,0.04528*%
G04:AMPARAMS|DCode=30|XSize=61.02mil|YSize=41.34mil|CornerRadius=5.61mil|HoleSize=0mil|Usage=FLASHONLY|Rotation=180.000|XOffset=0mil|YOffset=0mil|HoleType=Round|Shape=RoundedRectangle|*
%AMROUNDEDRECTD30*
21,1,0.06102,0.03012,0,0,180.0*
21,1,0.04980,0.04134,0,0,180.0*
1,1,0.01122,-0.02490,0.01506*
1,1,0.01122,0.02490,0.01506*
1,1,0.01122,0.02490,-0.01506*
1,1,0.01122,-0.02490,-0.01506*
%
%ADD30ROUNDEDRECTD30*%
G04:AMPARAMS|DCode=31|XSize=45.28mil|YSize=45.28mil|CornerRadius=6.89mil|HoleSize=0mil|Usage=FLASHONLY|Rotation=90.000|XOffset=0mil|YOffset=0mil|HoleType=Round|Shape=RoundedRectangle|*
%AMROUNDEDRECTD31*
21,1,0.04528,0.03150,0,0,90.0*
21,1,0.03150,0.04528,0,0,90.0*
1,1,0.01378,0.01575,0.01575*
1,1,0.01378,0.01575,-0.01575*
1,1,0.01378,-0.01575,-0.01575*
1,1,0.01378,-0.01575,0.01575*
%
%ADD31ROUNDEDRECTD31*%
G04:AMPARAMS|DCode=32|XSize=62.99mil|YSize=23.62mil|CornerRadius=5.17mil|HoleSize=0mil|Usage=FLASHONLY|Rotation=180.000|XOffset=0mil|YOffset=0mil|HoleType=Round|Shape=RoundedRectangle|*
%AMROUNDEDRECTD32*
21,1,0.06299,0.01329,0,0,180.0*
21,1,0.05266,0.02362,0,0,180.0*
1,1,0.01034,-0.02633,0.00664*
1,1,0.01034,0.02633,0.00664*
1,1,0.01034,0.02633,-0.00664*
1,1,0.01034,-0.02633,-0.00664*
%
%ADD32ROUNDEDRECTD32*%
%ADD33R,0.11230X0.04537*%
%ADD34R,0.15561X0.07687*%
G04:AMPARAMS|DCode=35|XSize=29.53mil|YSize=33.47mil|CornerRadius=4.72mil|HoleSize=0mil|Usage=FLASHONLY|Rotation=180.000|XOffset=0mil|YOffset=0mil|HoleType=Round|Shape=RoundedRectangle|*
%AMROUNDEDRECTD35*
21,1,0.02953,0.02402,0,0,180.0*
21,1,0.02008,0.03347,0,0,180.0*
1,1,0.00945,-0.01004,0.01201*
1,1,0.00945,0.01004,0.01201*
1,1,0.00945,0.01004,-0.01201*
1,1,0.00945,-0.01004,-0.01201*
%
%ADD35ROUNDEDRECTD35*%
G04:AMPARAMS|DCode=36|XSize=55.12mil|YSize=68.9mil|CornerRadius=7.87mil|HoleSize=0mil|Usage=FLASHONLY|Rotation=270.000|XOffset=0mil|YOffset=0mil|HoleType=Round|Shape=RoundedRectangle|*
%AMROUNDEDRECTD36*
21,1,0.05512,0.05315,0,0,270.0*
21,1,0.03937,0.06890,0,0,270.0*
1,1,0.01575,-0.02657,-0.01968*
1,1,0.01575,-0.02657,0.01968*
1,1,0.01575,0.02657,0.01968*
1,1,0.01575,0.02657,-0.01968*
%
%ADD36ROUNDEDRECTD36*%
G04:AMPARAMS|DCode=37|XSize=57.09mil|YSize=57.09mil|CornerRadius=8.07mil|HoleSize=0mil|Usage=FLASHONLY|Rotation=270.000|XOffset=0mil|YOffset=0mil|HoleType=Round|Shape=RoundedRectangle|*
%AMROUNDEDRECTD37*
21,1,0.05709,0.04095,0,0,270.0*
21,1,0.04095,0.05709,0,0,270.0*
1,1,0.01614,-0.02047,-0.02047*
1,1,0.01614,-0.02047,0.02047*
1,1,0.01614,0.02047,0.02047*
1,1,0.01614,0.02047,-0.02047*
%
%ADD37ROUNDEDRECTD37*%
G04:AMPARAMS|DCode=38|XSize=49.21mil|YSize=45.28mil|CornerRadius=5.91mil|HoleSize=0mil|Usage=FLASHONLY|Rotation=180.000|XOffset=0mil|YOffset=0mil|HoleType=Round|Shape=RoundedRectangle|*
%AMROUNDEDRECTD38*
21,1,0.04921,0.03347,0,0,180.0*
21,1,0.03740,0.04528,0,0,180.0*
1,1,0.01181,-0.01870,0.01673*
1,1,0.01181,0.01870,0.01673*
1,1,0.01181,0.01870,-0.01673*
1,1,0.01181,-0.01870,-0.01673*
%
%ADD38ROUNDEDRECTD38*%
G04:AMPARAMS|DCode=39|XSize=59.06mil|YSize=31.5mil|CornerRadius=4.87mil|HoleSize=0mil|Usage=FLASHONLY|Rotation=270.000|XOffset=0mil|YOffset=0mil|HoleType=Round|Shape=RoundedRectangle|*
%AMROUNDEDRECTD39*
21,1,0.05906,0.02175,0,0,270.0*
21,1,0.04931,0.03150,0,0,270.0*
1,1,0.00974,-0.01088,-0.02466*
1,1,0.00974,-0.01088,0.02466*
1,1,0.00974,0.01088,0.02466*
1,1,0.00974,0.01088,-0.02466*
%
%ADD39ROUNDEDRECTD39*%
%ADD40C,0.10591*%
%ADD41C,0.20079*%
G36*
X481213Y282990D02*
Y280028D01*
X474708D01*
Y282990D01*
X481213D01*
D02*
G37*
G36*
Y279053D02*
Y276091D01*
X474708D01*
Y279053D01*
X481213D01*
D02*
G37*
G36*
X497158Y275116D02*
Y269792D01*
X489472D01*
Y275116D01*
X497158D01*
D02*
G37*
G36*
X481213Y286927D02*
Y283965D01*
X474708D01*
Y286927D01*
X481213D01*
D02*
G37*
G36*
Y290864D02*
Y287902D01*
X474708D01*
Y290864D01*
X481213D01*
D02*
G37*
G36*
Y294801D02*
Y291839D01*
X474708D01*
Y294801D01*
X481213D01*
D02*
G37*
G36*
Y298739D02*
Y295776D01*
X474708D01*
Y298739D01*
X481213D01*
D02*
G37*
G36*
Y302676D02*
Y299713D01*
X474708D01*
Y302676D01*
X481213D01*
D02*
G37*
G36*
Y306612D02*
Y303650D01*
X474708D01*
Y306612D01*
X481213D01*
D02*
G37*
G36*
Y310549D02*
Y307587D01*
X474708D01*
Y310549D01*
X481213D01*
D02*
G37*
G36*
Y314487D02*
Y311524D01*
X474708D01*
Y314487D01*
X481213D01*
D02*
G37*
G36*
Y318424D02*
Y315461D01*
X474708D01*
Y318424D01*
X481213D01*
D02*
G37*
G36*
X497158Y324723D02*
Y319398D01*
X489472D01*
Y324723D01*
X497158D01*
D02*
G37*
D15*
X414957Y313419D02*
D03*
Y308418D02*
D03*
Y303418D02*
D03*
Y298418D02*
D03*
Y293419D02*
D03*
Y288419D02*
D03*
Y283418D02*
D03*
Y278418D02*
D03*
X393529D02*
D03*
Y283418D02*
D03*
Y288419D02*
D03*
Y293419D02*
D03*
Y298418D02*
D03*
Y303418D02*
D03*
Y308418D02*
D03*
Y313419D02*
D03*
D29*
X359000Y297638D02*
D03*
Y291638D02*
D03*
X358606Y279134D02*
D03*
Y285134D02*
D03*
X359000Y263016D02*
D03*
Y269016D02*
D03*
X355063Y251000D02*
D03*
Y245000D02*
D03*
D30*
X378969Y250807D02*
D03*
Y244311D02*
D03*
D31*
X446500Y288419D02*
D03*
X430000Y321000D02*
D03*
X463000Y288419D02*
D03*
X430000D02*
D03*
D32*
X395315Y241161D02*
D03*
Y243721D02*
D03*
Y246280D02*
D03*
Y248839D02*
D03*
X412244D02*
D03*
Y246280D02*
D03*
Y243721D02*
D03*
Y241161D02*
D03*
D33*
X338000Y340564D02*
D03*
Y332690D02*
D03*
Y324816D02*
D03*
Y316942D02*
D03*
Y309068D02*
D03*
Y301194D02*
D03*
Y293320D02*
D03*
Y285446D02*
D03*
Y277572D02*
D03*
Y269698D02*
D03*
Y261824D02*
D03*
Y253950D02*
D03*
D34*
X320480Y349816D02*
D03*
Y244698D02*
D03*
D35*
X356031Y332690D02*
D03*
X359968D02*
D03*
Y340564D02*
D03*
X356031D02*
D03*
D36*
X373000D02*
D03*
Y347612D02*
D03*
X373500Y305466D02*
D03*
Y298418D02*
D03*
X373000Y332690D02*
D03*
Y325643D02*
D03*
X382000Y305466D02*
D03*
Y298418D02*
D03*
Y347612D02*
D03*
Y340564D02*
D03*
X424000Y248209D02*
D03*
Y241161D02*
D03*
X432500Y248209D02*
D03*
Y241161D02*
D03*
D37*
X399000Y371634D02*
D03*
Y363366D02*
D03*
X409000D02*
D03*
Y371634D02*
D03*
D38*
X399000Y354500D02*
D03*
Y348201D02*
D03*
X409000Y354500D02*
D03*
Y348201D02*
D03*
D39*
X437000Y301194D02*
D03*
Y310643D02*
D03*
X446333Y305131D02*
D03*
Y314580D02*
D03*
X455667Y313005D02*
D03*
Y322454D02*
D03*
X465000Y316942D02*
D03*
Y326391D02*
D03*
D40*
X464555Y244685D02*
D03*
D41*
X323243Y365000D02*
D03*
X486757Y366000D02*
D03*
M02*
