G04*
G04 #@! TF.GenerationSoftware,Altium Limited,Altium Designer,18.1.7 (191)*
G04*
G04 Layer_Color=8388736*
%FSLAX25Y25*%
%MOIN*%
G70*
G01*
G75*
%ADD37R,0.04343X0.04737*%
%ADD38R,0.22454X0.04737*%
%ADD39R,0.12611X0.07099*%
%ADD40R,0.08674X0.09461*%
%ADD41R,0.07099X0.12611*%
%ADD42R,0.04737X0.22454*%
%ADD43R,0.04737X0.04343*%
%ADD44R,0.03950X0.07493*%
%ADD45R,0.06800X0.06800*%
%ADD46O,0.09461X0.03162*%
%ADD47R,0.05524X0.05524*%
%ADD48R,0.05328X0.03359*%
%ADD49R,0.05524X0.05524*%
%ADD50R,0.12611X0.07099*%
%ADD51R,0.25210X0.23635*%
%ADD52R,0.04737X0.05524*%
%ADD53O,0.01575X0.07480*%
%ADD54O,0.07480X0.01575*%
%ADD55R,0.06800X0.06800*%
%ADD56R,0.03753X0.03556*%
%ADD57C,0.10642*%
%ADD58R,0.05374X0.05374*%
%ADD59C,0.05524*%
%ADD60R,0.06706X0.06706*%
%ADD61C,0.06706*%
%ADD62R,0.06706X0.06706*%
%ADD63C,0.03600*%
D37*
X293500Y184500D02*
D03*
X287201D02*
D03*
X293650Y196500D02*
D03*
X287350D02*
D03*
X171150Y50500D02*
D03*
X164850D02*
D03*
X215150Y49500D02*
D03*
X208850D02*
D03*
X196350Y221500D02*
D03*
X202650D02*
D03*
X100150Y136000D02*
D03*
X93850D02*
D03*
X100650Y128000D02*
D03*
X94350D02*
D03*
X49350Y208500D02*
D03*
X55650D02*
D03*
X49500Y217000D02*
D03*
X55799D02*
D03*
X299850Y277000D02*
D03*
X306150D02*
D03*
X314350Y91000D02*
D03*
X320650D02*
D03*
X196500Y228500D02*
D03*
X202799D02*
D03*
X229350Y213542D02*
D03*
X235650D02*
D03*
D38*
X358500Y200000D02*
D03*
Y192126D02*
D03*
Y184252D02*
D03*
X321500Y184500D02*
D03*
Y192374D02*
D03*
Y200248D02*
D03*
X123201Y100752D02*
D03*
Y108626D02*
D03*
Y116500D02*
D03*
Y124374D02*
D03*
Y132248D02*
D03*
X81000Y189626D02*
D03*
Y197500D02*
D03*
Y205374D02*
D03*
Y213248D02*
D03*
Y221122D02*
D03*
X276358Y100949D02*
D03*
Y108823D02*
D03*
Y116697D02*
D03*
X353000Y138374D02*
D03*
Y130500D02*
D03*
Y122626D02*
D03*
X287000Y70374D02*
D03*
Y62500D02*
D03*
X333299Y70374D02*
D03*
Y62500D02*
D03*
X240969Y117197D02*
D03*
Y109323D02*
D03*
Y101449D02*
D03*
D39*
X367358Y209449D02*
D03*
Y174803D02*
D03*
X330358Y175051D02*
D03*
Y209697D02*
D03*
X114343Y91303D02*
D03*
Y141697D02*
D03*
X72142Y180177D02*
D03*
Y230571D02*
D03*
X267500Y91500D02*
D03*
Y126146D02*
D03*
X361858Y147823D02*
D03*
Y113177D02*
D03*
X295858Y79823D02*
D03*
Y53051D02*
D03*
X342157Y79823D02*
D03*
Y53051D02*
D03*
X232111Y126646D02*
D03*
Y92000D02*
D03*
D40*
X65299Y107500D02*
D03*
X52701D02*
D03*
D41*
X154677Y65343D02*
D03*
X189323D02*
D03*
X173000Y198500D02*
D03*
X138354D02*
D03*
X132500Y239000D02*
D03*
X175020D02*
D03*
X233823Y65343D02*
D03*
X199177D02*
D03*
X321677Y251343D02*
D03*
X356323D02*
D03*
X144323Y65343D02*
D03*
X109677D02*
D03*
X331386Y109843D02*
D03*
X304614D02*
D03*
X198697Y111142D02*
D03*
X156177D02*
D03*
X321677Y284843D02*
D03*
X356323D02*
D03*
D42*
X164126Y74201D02*
D03*
X172000D02*
D03*
X179874D02*
D03*
X163551Y189642D02*
D03*
X155677D02*
D03*
X147803D02*
D03*
X141949Y230142D02*
D03*
X149823D02*
D03*
X157697D02*
D03*
X165571D02*
D03*
X224374Y74201D02*
D03*
X216500D02*
D03*
X208626D02*
D03*
X331126Y260201D02*
D03*
X339000D02*
D03*
X346874D02*
D03*
X134874Y74201D02*
D03*
X127000D02*
D03*
X119126D02*
D03*
X321937Y118701D02*
D03*
X314063D02*
D03*
X339000Y293701D02*
D03*
X331126D02*
D03*
X189248Y120000D02*
D03*
X181374D02*
D03*
X173500D02*
D03*
X165626D02*
D03*
X346874Y293701D02*
D03*
D43*
X95500Y78799D02*
D03*
Y72500D02*
D03*
X361500Y62150D02*
D03*
Y55850D02*
D03*
X314500Y56000D02*
D03*
Y62299D02*
D03*
X376500Y137799D02*
D03*
Y131500D02*
D03*
X221500Y207042D02*
D03*
Y213341D02*
D03*
X242972Y200388D02*
D03*
Y206687D02*
D03*
X250500Y213542D02*
D03*
Y219841D02*
D03*
X226214Y245353D02*
D03*
Y239054D02*
D03*
X218881Y245353D02*
D03*
Y239054D02*
D03*
X233547Y245353D02*
D03*
Y239054D02*
D03*
X211547Y245353D02*
D03*
Y239054D02*
D03*
X75406Y85089D02*
D03*
Y91389D02*
D03*
X81500Y130542D02*
D03*
Y136841D02*
D03*
D44*
X203193Y212000D02*
D03*
X189807D02*
D03*
X202693Y241000D02*
D03*
X189307D02*
D03*
D45*
X31500Y191500D02*
D03*
D46*
X308949Y232000D02*
D03*
Y237000D02*
D03*
Y242000D02*
D03*
Y247000D02*
D03*
X290051Y232000D02*
D03*
Y237000D02*
D03*
Y242000D02*
D03*
Y247000D02*
D03*
D47*
X58866Y85385D02*
D03*
X67134D02*
D03*
D48*
X331693Y227760D02*
D03*
Y235240D02*
D03*
X343307Y231500D02*
D03*
D49*
X223403Y260698D02*
D03*
Y268966D02*
D03*
X231102Y260698D02*
D03*
Y268966D02*
D03*
X238801Y260698D02*
D03*
Y268966D02*
D03*
X215705Y260698D02*
D03*
Y268966D02*
D03*
D50*
X68484Y125195D02*
D03*
Y143187D02*
D03*
D51*
X40217Y134191D02*
D03*
D52*
X234812Y206884D02*
D03*
Y200191D02*
D03*
X229694Y206884D02*
D03*
Y200191D02*
D03*
D53*
X232264Y188542D02*
D03*
X230295D02*
D03*
X228327D02*
D03*
X226358D02*
D03*
X224390D02*
D03*
X222421D02*
D03*
X220453D02*
D03*
X218484D02*
D03*
X216516D02*
D03*
X214547D02*
D03*
X212579D02*
D03*
X210610D02*
D03*
X208642D02*
D03*
X206673D02*
D03*
X204705D02*
D03*
X202736D02*
D03*
Y144841D02*
D03*
X204705D02*
D03*
X206673D02*
D03*
X208642D02*
D03*
X210610D02*
D03*
X212579D02*
D03*
X214547D02*
D03*
X216516D02*
D03*
X218484D02*
D03*
X220453D02*
D03*
X222421D02*
D03*
X224390D02*
D03*
X226358D02*
D03*
X228327D02*
D03*
X230295D02*
D03*
X232264D02*
D03*
D54*
X195650Y181455D02*
D03*
Y179487D02*
D03*
Y177518D02*
D03*
Y175549D02*
D03*
Y173581D02*
D03*
Y171613D02*
D03*
Y169644D02*
D03*
Y167675D02*
D03*
Y165707D02*
D03*
Y163739D02*
D03*
Y161770D02*
D03*
Y159801D02*
D03*
Y157833D02*
D03*
Y155865D02*
D03*
Y153896D02*
D03*
Y151927D02*
D03*
X239350D02*
D03*
Y153896D02*
D03*
Y155865D02*
D03*
Y157833D02*
D03*
Y159801D02*
D03*
Y161770D02*
D03*
Y163739D02*
D03*
Y165707D02*
D03*
Y167675D02*
D03*
Y169644D02*
D03*
Y171613D02*
D03*
Y173581D02*
D03*
Y175549D02*
D03*
Y177518D02*
D03*
Y179487D02*
D03*
Y181455D02*
D03*
D55*
X80500Y117500D02*
D03*
X32000Y87000D02*
D03*
D56*
X256283Y237774D02*
D03*
Y224979D02*
D03*
X249787D02*
D03*
Y237774D02*
D03*
D57*
X144000Y44500D02*
D03*
X80500Y67000D02*
D03*
X165000Y32000D02*
D03*
X106500Y248000D02*
D03*
X89000Y255000D02*
D03*
X141000Y139500D02*
D03*
X180500Y140000D02*
D03*
X144500Y123500D02*
D03*
X112500Y194000D02*
D03*
X97000Y166500D02*
D03*
X89000Y242000D02*
D03*
X246000Y51000D02*
D03*
X261500Y72000D02*
D03*
X210000Y32500D02*
D03*
X359000Y226500D02*
D03*
X308000Y289000D02*
D03*
X319000Y150000D02*
D03*
X141500Y157000D02*
D03*
X105000Y179000D02*
D03*
X108000Y215500D02*
D03*
D58*
X31500Y175000D02*
D03*
D59*
X23626D02*
D03*
D60*
X254394Y149119D02*
D03*
D61*
X264394D02*
D03*
X274394D02*
D03*
X284394D02*
D03*
X254394Y159119D02*
D03*
X264394D02*
D03*
X274394D02*
D03*
X284394D02*
D03*
X291000Y281500D02*
D03*
D62*
Y291500D02*
D03*
D63*
X350500Y206500D02*
D03*
X314500Y206000D02*
D03*
X372000Y163000D02*
D03*
X308500Y256500D02*
D03*
X73500Y103000D02*
D03*
Y112500D02*
D03*
Y107750D02*
D03*
X272000Y71000D02*
D03*
X189000Y153000D02*
D03*
X159500Y132000D02*
D03*
X227000Y110000D02*
D03*
X166000Y105500D02*
D03*
X108500Y101000D02*
D03*
X95000Y65000D02*
D03*
X135000Y57500D02*
D03*
X224500Y59000D02*
D03*
X220500Y49500D02*
D03*
X189500Y134500D02*
D03*
X180000Y60500D02*
D03*
X176500Y50500D02*
D03*
X231500Y137000D02*
D03*
X188000Y178500D02*
D03*
X196000Y241000D02*
D03*
Y212000D02*
D03*
X134500Y221500D02*
D03*
X147500Y204000D02*
D03*
X58000Y190000D02*
D03*
X190000Y145000D02*
D03*
X225000Y201000D02*
D03*
X354500Y300500D02*
D03*
X353500Y266500D02*
D03*
X350000Y231500D02*
D03*
X262000Y116500D02*
D03*
X230500Y173500D02*
D03*
X262500Y101000D02*
D03*
X347500Y70500D02*
D03*
X239000Y277500D02*
D03*
X223500Y278000D02*
D03*
X231000Y277500D02*
D03*
X215500Y278000D02*
D03*
X190500Y185000D02*
D03*
X214500Y180500D02*
D03*
X209000D02*
D03*
X226500Y118000D02*
D03*
Y103000D02*
D03*
X227500Y151500D02*
D03*
X239315Y144841D02*
D03*
X52057Y85385D02*
D03*
X81000Y124991D02*
D03*
X256236Y242191D02*
D03*
X243470Y213542D02*
D03*
M02*
