G04*
G04 #@! TF.GenerationSoftware,Altium Limited,Altium Designer,18.1.7 (191)*
G04*
G04 Layer_Color=32896*
%FSLAX25Y25*%
%MOIN*%
G70*
G01*
G75*
%ADD13C,0.00787*%
%ADD15C,0.00700*%
D13*
X236496Y105303D02*
Y105697D01*
X233347Y105303D02*
Y105697D01*
X279575Y103953D02*
Y104347D01*
X276425Y103953D02*
Y104347D01*
X200803Y177589D02*
X201197D01*
X200803Y174440D02*
X201197D01*
X305153Y263575D02*
X305547D01*
X305153Y260425D02*
X305547D01*
X212935Y191007D02*
X213328D01*
X212935Y187857D02*
X213328D01*
X224425Y184803D02*
Y185197D01*
X227575Y184803D02*
Y185197D01*
X234575Y184803D02*
Y185197D01*
X231425Y184803D02*
Y185197D01*
X200803Y182439D02*
X201197D01*
X200803Y185589D02*
X201197D01*
X198933Y155116D02*
X199327D01*
X198933Y158266D02*
X199327D01*
X257303Y138925D02*
X257697D01*
X257303Y142075D02*
X257697D01*
X230653Y143266D02*
X231047D01*
X230653Y146416D02*
X231047D01*
X198933Y150766D02*
X199327D01*
X198933Y147617D02*
X199327D01*
D15*
X284000Y111500D02*
Y115499D01*
X282001D01*
X281334Y114832D01*
Y113499D01*
X282001Y112833D01*
X284000D01*
X282667D02*
X281334Y111500D01*
X280001D02*
X278668D01*
X279335D01*
Y115499D01*
X280001Y114832D01*
X276669D02*
X276003Y115499D01*
X274670D01*
X274003Y114832D01*
Y114166D01*
X274670Y113499D01*
X275336D01*
X274670D01*
X274003Y112833D01*
Y112167D01*
X274670Y111500D01*
X276003D01*
X276669Y112167D01*
X240000Y112000D02*
Y115999D01*
X238001D01*
X237334Y115332D01*
Y113999D01*
X238001Y113333D01*
X240000D01*
X238667D02*
X237334Y112000D01*
X236001D02*
X234668D01*
X235335D01*
Y115999D01*
X236001Y115332D01*
X232669Y112000D02*
X231336D01*
X232003D01*
Y115999D01*
X232669Y115332D01*
X296543Y260000D02*
Y263999D01*
X294544D01*
X293878Y263332D01*
Y261999D01*
X294544Y261333D01*
X296543D01*
X295210D02*
X293878Y260000D01*
X292545D02*
X291212D01*
X291878D01*
Y263999D01*
X292545Y263332D01*
X219434Y146132D02*
X220101Y146799D01*
X221434D01*
X222100Y146132D01*
Y143466D01*
X221434Y142800D01*
X220101D01*
X219434Y143466D01*
X218101Y142800D02*
X216768D01*
X217435D01*
Y146799D01*
X218101Y146132D01*
X212103Y142800D02*
X214769D01*
X212103Y145466D01*
Y146132D01*
X212770Y146799D01*
X214103D01*
X214769Y146132D01*
X223834Y177332D02*
X224501Y177999D01*
X225834D01*
X226500Y177332D01*
Y174667D01*
X225834Y174000D01*
X224501D01*
X223834Y174667D01*
X222501Y174000D02*
X221168D01*
X221835D01*
Y177999D01*
X222501Y177332D01*
X219169Y174000D02*
X217836D01*
X218503D01*
Y177999D01*
X219169Y177332D01*
X202834Y191347D02*
X203501Y192013D01*
X204834D01*
X205500Y191347D01*
Y188681D01*
X204834Y188014D01*
X203501D01*
X202834Y188681D01*
X201501Y188014D02*
X200168D01*
X200835D01*
Y192013D01*
X201501Y191347D01*
X198169D02*
X197503Y192013D01*
X196170D01*
X195503Y191347D01*
Y188681D01*
X196170Y188014D01*
X197503D01*
X198169Y188681D01*
Y191347D01*
X233834Y195332D02*
X234501Y195999D01*
X235834D01*
X236500Y195332D01*
Y192666D01*
X235834Y192000D01*
X234501D01*
X233834Y192666D01*
X232501D02*
X231835Y192000D01*
X230502D01*
X229836Y192666D01*
Y195332D01*
X230502Y195999D01*
X231835D01*
X232501Y195332D01*
Y194666D01*
X231835Y193999D01*
X229836D01*
X213834Y197832D02*
X214501Y198499D01*
X215834D01*
X216500Y197832D01*
Y195167D01*
X215834Y194500D01*
X214501D01*
X213834Y195167D01*
X212501Y197832D02*
X211835Y198499D01*
X210502D01*
X209836Y197832D01*
Y197166D01*
X210502Y196499D01*
X209836Y195833D01*
Y195167D01*
X210502Y194500D01*
X211835D01*
X212501Y195167D01*
Y195833D01*
X211835Y196499D01*
X212501Y197166D01*
Y197832D01*
X211835Y196499D02*
X210502D01*
X201634Y169632D02*
X202301Y170299D01*
X203633D01*
X204300Y169632D01*
Y166966D01*
X203633Y166300D01*
X202301D01*
X201634Y166966D01*
X200301Y170299D02*
X197635D01*
Y169632D01*
X200301Y166966D01*
Y166300D01*
X211834Y158032D02*
X212501Y158699D01*
X213834D01*
X214500Y158032D01*
Y155367D01*
X213834Y154700D01*
X212501D01*
X211834Y155367D01*
X207836Y158699D02*
X209168Y158032D01*
X210501Y156699D01*
Y155367D01*
X209835Y154700D01*
X208502D01*
X207836Y155367D01*
Y156033D01*
X208502Y156699D01*
X210501D01*
X199834Y144832D02*
X200501Y145499D01*
X201834D01*
X202500Y144832D01*
Y142166D01*
X201834Y141500D01*
X200501D01*
X199834Y142166D01*
X195835Y145499D02*
X198501D01*
Y143499D01*
X197168Y144166D01*
X196502D01*
X195835Y143499D01*
Y142166D01*
X196502Y141500D01*
X197835D01*
X198501Y142166D01*
X257534Y134132D02*
X258201Y134799D01*
X259534D01*
X260200Y134132D01*
Y131466D01*
X259534Y130800D01*
X258201D01*
X257534Y131466D01*
X256201Y130800D02*
X254868D01*
X255535D01*
Y134799D01*
X256201Y134132D01*
M02*
