M48
;Layer_Color=9474304
;FILE_FORMAT=2:4
INCH,TZ
;TYPE=PLATED
T1F00S00C0.0120
T2F00S00C0.0130
T3F00S00C0.0402
T4F00S00C0.0522
T5F00S00C0.0728
T6F00S00C0.1260
%
T01
X2750Y850
X3750
X4750
X5250Y1850
X6250
X5750Y2850
X6750
Y850
X4250Y1850
X3250
X2250
X1750Y2850
X750
X1250Y3850
X1750Y4850
X2750
X3750
X5250
X6750
X6000Y6350
X4250Y7850
X3250
X2250
X1750Y6850
X2750
X2250Y5850
X750Y4850
X3750Y2850
X7750
X8750
X9750
X10750
X11750
X12250Y1850
X13250
X14250
X15250
X16250
X17250
X17750Y2850
X17250Y3850
X18250
X17750Y4850
X16750
X15750
X14750
X14025Y5525
X13750Y6850
X12750
X14750
X15350Y7900
X16250Y7850
X18250
X17751Y6783
X18250Y5850
X17250
X15250Y3850
X13250
X12250
X10750Y4850
X8250
X9000Y6350
X7500
X7750Y850
X8750
X9750
X10750
X11750
X12750
X13750
X14750
X15750
X16750
X9250Y1850
Y9850
X10250
X11250
X12250
X13500Y12350
X14750Y12850
X15750
X16750
X17750
X18250Y13850
X17750Y14850
X16750
X15750
X15250Y15850
X14250
X15750Y16850
X16750
X12750
X11750
X10750
X9750
X7741Y16703
X9750Y13850
X11250
X8250Y9850
X16750Y10850
X17750
X18250Y9850
X17750Y8850
X18250Y11850
X7250Y9850
X5250
X4250
X3250
X2750Y10850
X1750
X750
X2250Y11850
X3250
X3750Y10850
X4750
X5750
X5250Y11850
Y13850
Y15850
X4250
X3250
X2750Y16850
X3750
X4750
X5750
X2750Y14850
X1750
X2250Y13850
X1250
X1750Y12850
X2750
Y8850
X1750
X4750
T02
X13176Y7638
Y8150
X13688
Y7638
Y8662
X13176
T03
X4550Y2600
X4500Y4100
X14500Y3950
X14450Y2650
X8550Y13800
T04
X4050Y6550
Y8518
X4150Y12266
Y14234
T05
X7399Y4100
X9250
X11100
T06
X1250Y1300
X18350
Y16700
X1250
M30
