G04*
G04 #@! TF.GenerationSoftware,Altium Limited,Altium Designer,19.1.9 (167)*
G04*
G04 Layer_Color=8388736*
%FSAX25Y25*%
%MOIN*%
G70*
G01*
G75*
%ADD28R,0.04437X0.04043*%
%ADD29R,0.04043X0.04437*%
%ADD30R,0.03768X0.02980*%
%ADD31R,0.04700X0.08200*%
%ADD32O,0.06996X0.03059*%
%ADD33R,0.05224X0.05224*%
%ADD34R,0.05421X0.11721*%
%ADD35R,0.22350X0.26091*%
%ADD36R,0.11130X0.04437*%
%ADD37R,0.15461X0.07587*%
%ADD38R,0.06917X0.09084*%
%ADD39R,0.08374X0.16642*%
%ADD40C,0.10500*%
%ADD41C,0.09555*%
%ADD42C,0.06500*%
%ADD43C,0.05500*%
%ADD44C,0.02900*%
D28*
X0213500Y0024150D02*
D03*
Y0017850D02*
D03*
X0261000Y0061500D02*
D03*
Y0055201D02*
D03*
X0102000Y0054850D02*
D03*
Y0048550D02*
D03*
X0058000Y0051101D02*
D03*
Y0057400D02*
D03*
Y0036450D02*
D03*
Y0030150D02*
D03*
D29*
X0210500Y0095000D02*
D03*
X0204201D02*
D03*
X0204299Y0081500D02*
D03*
X0198000D02*
D03*
X0227701Y0053700D02*
D03*
X0234000D02*
D03*
X0197299Y0009000D02*
D03*
X0191000D02*
D03*
X0234000Y0065000D02*
D03*
X0227701D02*
D03*
Y0042600D02*
D03*
X0234000D02*
D03*
X0227701Y0076300D02*
D03*
X0234000D02*
D03*
X0227701Y0087600D02*
D03*
X0234000D02*
D03*
X0227701Y0031100D02*
D03*
X0234000D02*
D03*
D30*
X0186500Y0081279D02*
D03*
Y0072500D02*
D03*
D31*
X0197000Y0060500D02*
D03*
X0186500D02*
D03*
D32*
X0067378Y0058000D02*
D03*
Y0053000D02*
D03*
Y0048000D02*
D03*
Y0043000D02*
D03*
Y0038000D02*
D03*
Y0033000D02*
D03*
Y0028000D02*
D03*
Y0023000D02*
D03*
X0089622Y0058000D02*
D03*
Y0053000D02*
D03*
Y0048000D02*
D03*
Y0043000D02*
D03*
Y0038000D02*
D03*
Y0033000D02*
D03*
Y0028000D02*
D03*
Y0023000D02*
D03*
D33*
X0174268Y0009000D02*
D03*
X0166000D02*
D03*
D34*
X0148315Y0060240D02*
D03*
X0166622D02*
D03*
D35*
X0157468Y0085437D02*
D03*
D36*
X0276870Y0039370D02*
D03*
Y0047244D02*
D03*
Y0055118D02*
D03*
Y0078740D02*
D03*
Y0070866D02*
D03*
Y0062992D02*
D03*
D37*
X0293996Y0087992D02*
D03*
Y0030118D02*
D03*
D38*
X0065000Y0111312D02*
D03*
Y0096688D02*
D03*
D39*
X0112500Y0072874D02*
D03*
Y0107126D02*
D03*
D40*
X0294500Y0109500D02*
D03*
X0273333Y0009500D02*
D03*
X0252167D02*
D03*
X0231000D02*
D03*
X0101400Y0009400D02*
D03*
X0059500Y0075000D02*
D03*
X0073000Y0009500D02*
D03*
X0252167Y0109500D02*
D03*
X0273333D02*
D03*
X0228000Y0100500D02*
D03*
X0126500Y0009500D02*
D03*
D41*
X0022500Y0086583D02*
D03*
Y0066898D02*
D03*
Y0027528D02*
D03*
Y0047213D02*
D03*
D42*
X0079000Y0035200D02*
D03*
X0057900Y0044000D02*
D03*
X0045900Y0034200D02*
D03*
X0195000Y0051000D02*
D03*
X0205000D02*
D03*
X0215000D02*
D03*
X0211000Y0061000D02*
D03*
X0078200Y0042500D02*
D03*
X0042500Y0021400D02*
D03*
X0039600Y0040700D02*
D03*
X0051200Y0050200D02*
D03*
D43*
X0100300Y0031900D02*
D03*
X0091300Y0006000D02*
D03*
X0091800Y0014900D02*
D03*
X0100100Y0022500D02*
D03*
X0057000Y0023900D02*
D03*
X0053700Y0017900D02*
D03*
X0060100D02*
D03*
X0101600Y0060600D02*
D03*
X0092100Y0065700D02*
D03*
X0098200D02*
D03*
X0059600Y0063400D02*
D03*
X0053600Y0063500D02*
D03*
X0293996Y0030118D02*
D03*
Y0087992D02*
D03*
D44*
X0311250Y0105000D02*
D03*
X0307500Y0097500D02*
D03*
X0311250Y0090000D02*
D03*
X0307500Y0082500D02*
D03*
X0311250Y0075000D02*
D03*
X0307500Y0067500D02*
D03*
X0311250Y0060000D02*
D03*
X0307500Y0052500D02*
D03*
X0311250Y0045000D02*
D03*
X0307500Y0037500D02*
D03*
X0311250Y0030000D02*
D03*
Y0015000D02*
D03*
X0307500Y0007500D02*
D03*
X0303750Y0105000D02*
D03*
Y0090000D02*
D03*
Y0075000D02*
D03*
X0300000Y0067500D02*
D03*
X0303750Y0060000D02*
D03*
X0300000Y0052500D02*
D03*
X0303750Y0045000D02*
D03*
Y0030000D02*
D03*
Y0015000D02*
D03*
X0300000Y0007500D02*
D03*
X0296250Y0075000D02*
D03*
X0292500Y0067500D02*
D03*
X0296250Y0060000D02*
D03*
X0292500Y0052500D02*
D03*
X0296250Y0045000D02*
D03*
X0292500Y0022500D02*
D03*
X0296250Y0015000D02*
D03*
X0292500Y0007500D02*
D03*
X0288750Y0105000D02*
D03*
X0285000Y0097500D02*
D03*
X0288750Y0075000D02*
D03*
X0285000Y0067500D02*
D03*
X0288750Y0060000D02*
D03*
X0285000Y0052500D02*
D03*
X0288750Y0045000D02*
D03*
X0285000Y0022500D02*
D03*
X0288750Y0015000D02*
D03*
X0285000Y0007500D02*
D03*
X0281250Y0105000D02*
D03*
Y0030000D02*
D03*
Y0015000D02*
D03*
X0273750Y0030000D02*
D03*
X0266250Y0105000D02*
D03*
X0262500Y0097500D02*
D03*
X0266250Y0075000D02*
D03*
Y0030000D02*
D03*
Y0015000D02*
D03*
X0262500Y0007500D02*
D03*
X0258750Y0105000D02*
D03*
X0255000Y0067500D02*
D03*
X0258750Y0030000D02*
D03*
X0247500Y0097500D02*
D03*
Y0067500D02*
D03*
Y0052500D02*
D03*
X0251250Y0030000D02*
D03*
X0243750Y0105000D02*
D03*
X0240000Y0022500D02*
D03*
X0243750Y0015000D02*
D03*
X0240000Y0007500D02*
D03*
X0236250Y0105000D02*
D03*
X0232500Y0037500D02*
D03*
X0225000Y0022500D02*
D03*
M02*
