G04*
G04 #@! TF.GenerationSoftware,Altium Limited,Altium Designer,23.5.1 (21)*
G04*
G04 Layer_Physical_Order=4*
G04 Layer_Color=16711680*
%FSLAX25Y25*%
%MOIN*%
G70*
G04*
G04 #@! TF.SameCoordinates,F2DA617C-CCEF-44E5-B4ED-05EE2DC053E7*
G04*
G04*
G04 #@! TF.FilePolarity,Positive*
G04*
G01*
G75*
%ADD43C,0.01968*%
%ADD44C,0.00600*%
%ADD45C,0.07874*%
%ADD46C,0.09055*%
%ADD48C,0.10000*%
%ADD49C,0.05000*%
%ADD59C,0.03937*%
%ADD60C,0.20669*%
G36*
X269511Y152176D02*
X272160Y151649D01*
X274744Y150866D01*
X277239Y149832D01*
X279621Y148559D01*
X281867Y147058D01*
X283955Y145345D01*
X285865Y143435D01*
X287578Y141347D01*
X289078Y139102D01*
X290352Y136720D01*
X291385Y134224D01*
X292169Y131640D01*
X292696Y128991D01*
X292961Y126303D01*
Y124953D01*
Y26528D01*
Y25177D01*
X292696Y22489D01*
X292169Y19840D01*
X291385Y17256D01*
X290352Y14761D01*
X289078Y12379D01*
X287578Y10133D01*
X285865Y8045D01*
X283955Y6135D01*
X281867Y4422D01*
X279621Y2922D01*
X277239Y1648D01*
X274744Y615D01*
X272160Y-169D01*
X269511Y-696D01*
X266823Y-961D01*
X29252D01*
X29199Y-971D01*
X27900Y-961D01*
X25214Y-696D01*
X22565Y-169D01*
X19980Y615D01*
X17485Y1648D01*
X15103Y2922D01*
X12857Y4422D01*
X10770Y6135D01*
X8860Y8045D01*
X7147Y10133D01*
X5646Y12379D01*
X4373Y14761D01*
X3339Y17256D01*
X2555Y19840D01*
X2028Y22489D01*
X1764Y25177D01*
Y26528D01*
Y124953D01*
Y126303D01*
X2028Y128991D01*
X2555Y131640D01*
X3339Y134224D01*
X4373Y136720D01*
X5646Y139102D01*
X7146Y141347D01*
X8860Y143435D01*
X10770Y145345D01*
X12857Y147058D01*
X15103Y148559D01*
X17485Y149832D01*
X19980Y150866D01*
X22565Y151649D01*
X25214Y152176D01*
X27902Y152441D01*
X266823D01*
X269511Y152176D01*
D02*
G37*
%LPC*%
G36*
X266333Y136407D02*
X264612D01*
X262912Y136138D01*
X261275Y135606D01*
X259741Y134825D01*
X258349Y133813D01*
X257132Y132596D01*
X256120Y131203D01*
X255339Y129670D01*
X254807Y128033D01*
X254538Y126333D01*
Y124612D01*
X254807Y122912D01*
X255339Y121275D01*
X256120Y119741D01*
X257132Y118349D01*
X258349Y117132D01*
X259741Y116120D01*
X261275Y115339D01*
X262912Y114807D01*
X264612Y114538D01*
X266333D01*
X268033Y114807D01*
X269670Y115339D01*
X271203Y116120D01*
X272596Y117132D01*
X273813Y118349D01*
X274825Y119741D01*
X275606Y121275D01*
X276138Y122912D01*
X276407Y124612D01*
Y126333D01*
X276138Y128033D01*
X275606Y129670D01*
X274825Y131203D01*
X273813Y132596D01*
X272596Y133813D01*
X271203Y134825D01*
X269670Y135606D01*
X268033Y136138D01*
X266333Y136407D01*
D02*
G37*
G36*
X30112Y135887D02*
X28391D01*
X26691Y135618D01*
X25054Y135086D01*
X23521Y134305D01*
X22129Y133293D01*
X20911Y132076D01*
X19900Y130684D01*
X19118Y129150D01*
X18587Y127513D01*
X18317Y125813D01*
Y124092D01*
X18587Y122392D01*
X19118Y120755D01*
X19900Y119222D01*
X20911Y117829D01*
X22129Y116612D01*
X23521Y115601D01*
X25054Y114819D01*
X26691Y114287D01*
X28391Y114018D01*
X30112D01*
X31813Y114287D01*
X33449Y114819D01*
X34983Y115601D01*
X36375Y116612D01*
X37592Y117829D01*
X38604Y119222D01*
X39386Y120755D01*
X39917Y122392D01*
X40187Y124092D01*
Y125813D01*
X39917Y127513D01*
X39386Y129150D01*
X38604Y130684D01*
X37592Y132076D01*
X36375Y133293D01*
X34983Y134305D01*
X33449Y135086D01*
X31813Y135618D01*
X30112Y135887D01*
D02*
G37*
G36*
X159808Y93600D02*
X158992D01*
X158203Y93389D01*
X157514Y92991D01*
X136040D01*
X135697Y93189D01*
X134908Y93400D01*
X134092D01*
X133303Y93189D01*
X132597Y92781D01*
X132019Y92203D01*
X131611Y91497D01*
X131400Y90708D01*
Y89892D01*
X131611Y89103D01*
X132019Y88397D01*
X132597Y87819D01*
X133303Y87411D01*
X134092Y87200D01*
X134908D01*
X135697Y87411D01*
X136386Y87809D01*
X157860D01*
X158203Y87611D01*
X158992Y87400D01*
X159808D01*
X160597Y87611D01*
X161303Y88019D01*
X161881Y88597D01*
X162289Y89303D01*
X162500Y90092D01*
Y90908D01*
X162289Y91697D01*
X161881Y92403D01*
X161303Y92981D01*
X160597Y93389D01*
X159808Y93600D01*
D02*
G37*
G36*
X267675Y83285D02*
X266325D01*
X265021Y82936D01*
X263852Y82261D01*
X262897Y81306D01*
X262222Y80137D01*
X261872Y78833D01*
Y77482D01*
X262222Y76178D01*
X262897Y75009D01*
X263852Y74054D01*
X265021Y73379D01*
X266325Y73030D01*
X267675D01*
X268979Y73379D01*
X270148Y74054D01*
X271103Y75009D01*
X271778Y76178D01*
X272128Y77482D01*
Y78833D01*
X271778Y80137D01*
X271103Y81306D01*
X270148Y82261D01*
X268979Y82936D01*
X267675Y83285D01*
D02*
G37*
G36*
X64675Y78128D02*
X63325D01*
X62021Y77778D01*
X60852Y77103D01*
X59897Y76148D01*
X59222Y74979D01*
X58872Y73675D01*
Y72325D01*
X59222Y71021D01*
X59897Y69852D01*
X60852Y68897D01*
X62021Y68222D01*
X63325Y67872D01*
X64675D01*
X65979Y68222D01*
X67148Y68897D01*
X68103Y69852D01*
X68778Y71021D01*
X69128Y72325D01*
Y73675D01*
X68778Y74979D01*
X68103Y76148D01*
X67148Y77103D01*
X65979Y77778D01*
X64675Y78128D01*
D02*
G37*
G36*
X135712Y69811D02*
X134895D01*
X134107Y69600D01*
X133400Y69192D01*
X132823Y68615D01*
X132415Y67908D01*
X132203Y67119D01*
Y66303D01*
X132290Y65982D01*
X125989Y59681D01*
X124966D01*
X124347Y59558D01*
X123823Y59208D01*
X115758Y51142D01*
X115408Y50618D01*
X115285Y50000D01*
Y25163D01*
X114797Y24881D01*
X114219Y24303D01*
X113811Y23597D01*
X113600Y22808D01*
Y21992D01*
X113811Y21203D01*
X114219Y20497D01*
X114797Y19919D01*
X115503Y19511D01*
X116292Y19300D01*
X117108D01*
X117897Y19511D01*
X118603Y19919D01*
X119181Y20497D01*
X119589Y21203D01*
X119800Y21992D01*
Y22808D01*
X119589Y23597D01*
X119181Y24303D01*
X118603Y24881D01*
X118515Y24931D01*
Y49331D01*
X125635Y56450D01*
X126658D01*
X127276Y56573D01*
X127800Y56923D01*
X134574Y63697D01*
X134895Y63611D01*
X135712D01*
X136500Y63823D01*
X137207Y64231D01*
X137784Y64808D01*
X138192Y65515D01*
X138403Y66303D01*
Y67119D01*
X138192Y67908D01*
X137784Y68615D01*
X137207Y69192D01*
X136500Y69600D01*
X135712Y69811D01*
D02*
G37*
G36*
X90737Y65600D02*
X89263D01*
X87839Y65218D01*
X86562Y64481D01*
X85519Y63438D01*
X84782Y62161D01*
X84400Y60737D01*
Y59263D01*
X84782Y57838D01*
X85519Y56561D01*
X86562Y55519D01*
X87839Y54782D01*
X89263Y54400D01*
X90737D01*
X92162Y54782D01*
X93439Y55519D01*
X94481Y56561D01*
X95218Y57838D01*
X95600Y59263D01*
Y60737D01*
X95218Y62161D01*
X94481Y63438D01*
X93439Y64481D01*
X92162Y65218D01*
X90737Y65600D01*
D02*
G37*
G36*
X273737Y63600D02*
X272263D01*
X270838Y63218D01*
X269562Y62481D01*
X268519Y61439D01*
X267782Y60162D01*
X267400Y58737D01*
Y57263D01*
X267782Y55839D01*
X268519Y54562D01*
X269562Y53519D01*
X270838Y52782D01*
X272263Y52400D01*
X273737D01*
X275162Y52782D01*
X276438Y53519D01*
X277481Y54562D01*
X278218Y55839D01*
X278600Y57263D01*
Y58737D01*
X278218Y60162D01*
X277481Y61439D01*
X276438Y62481D01*
X275162Y63218D01*
X273737Y63600D01*
D02*
G37*
G36*
X30388Y40462D02*
X28667D01*
X26967Y40193D01*
X25330Y39661D01*
X23797Y38880D01*
X22404Y37868D01*
X21187Y36651D01*
X20175Y35259D01*
X19394Y33725D01*
X18862Y32088D01*
X18593Y30388D01*
Y28667D01*
X18862Y26967D01*
X19394Y25330D01*
X20175Y23797D01*
X21187Y22404D01*
X22404Y21187D01*
X23797Y20175D01*
X25330Y19394D01*
X26967Y18862D01*
X28667Y18593D01*
X30388D01*
X32088Y18862D01*
X33725Y19394D01*
X35259Y20175D01*
X36651Y21187D01*
X37868Y22404D01*
X38880Y23797D01*
X39661Y25330D01*
X40193Y26967D01*
X40462Y28667D01*
Y30388D01*
X40193Y32088D01*
X39661Y33725D01*
X38880Y35259D01*
X37868Y36651D01*
X36651Y37868D01*
X35259Y38880D01*
X33725Y39661D01*
X32088Y40193D01*
X30388Y40462D01*
D02*
G37*
G36*
X266333Y37462D02*
X264612D01*
X262912Y37193D01*
X261275Y36661D01*
X259741Y35880D01*
X258349Y34868D01*
X257132Y33651D01*
X256120Y32259D01*
X255339Y30725D01*
X254807Y29088D01*
X254538Y27388D01*
Y25667D01*
X254807Y23967D01*
X255339Y22330D01*
X256120Y20797D01*
X257132Y19404D01*
X258349Y18187D01*
X259741Y17175D01*
X261275Y16394D01*
X262912Y15862D01*
X264612Y15593D01*
X266333D01*
X268033Y15862D01*
X269670Y16394D01*
X271203Y17175D01*
X272596Y18187D01*
X273813Y19404D01*
X274825Y20797D01*
X275606Y22330D01*
X276138Y23967D01*
X276407Y25667D01*
Y27388D01*
X276138Y29088D01*
X275606Y30725D01*
X274825Y32259D01*
X273813Y33651D01*
X272596Y34868D01*
X271203Y35880D01*
X269670Y36661D01*
X268033Y37193D01*
X266333Y37462D01*
D02*
G37*
G36*
X114632Y13711D02*
X113437D01*
X112283Y13402D01*
X111249Y12804D01*
X110404Y11960D01*
X109807Y10925D01*
X109498Y9771D01*
Y8577D01*
X109807Y7423D01*
X110404Y6388D01*
X111249Y5544D01*
X112283Y4946D01*
X113437Y4637D01*
X114632D01*
X115786Y4946D01*
X116820Y5544D01*
X117665Y6388D01*
X118263Y7423D01*
X118572Y8577D01*
Y9771D01*
X118263Y10925D01*
X117665Y11960D01*
X116820Y12804D01*
X115786Y13402D01*
X114632Y13711D01*
D02*
G37*
G36*
X104789D02*
X103595D01*
X102441Y13402D01*
X101406Y12804D01*
X100562Y11960D01*
X99964Y10925D01*
X99655Y9771D01*
Y8577D01*
X99964Y7423D01*
X100562Y6388D01*
X101406Y5544D01*
X102441Y4946D01*
X103595Y4637D01*
X104789D01*
X105943Y4946D01*
X106978Y5544D01*
X107823Y6388D01*
X108420Y7423D01*
X108729Y8577D01*
Y9771D01*
X108420Y10925D01*
X107823Y11960D01*
X106978Y12804D01*
X105943Y13402D01*
X104789Y13711D01*
D02*
G37*
%LPD*%
D43*
X126658Y58066D02*
X135303Y66711D01*
X124966Y58066D02*
X126658D01*
X116900Y50000D02*
X124966Y58066D01*
X116900Y22600D02*
Y50000D01*
D44*
X134500Y90300D02*
X134600Y90400D01*
X159300D02*
X159400Y90500D01*
X116700Y22400D02*
X116900Y22600D01*
D45*
X104192Y9174D02*
D03*
X114035D02*
D03*
X123877D02*
D03*
D46*
X267000Y97843D02*
D03*
Y78158D02*
D03*
X64000Y73000D02*
D03*
Y92685D02*
D03*
D48*
X9000Y55000D02*
D03*
X90000Y60000D02*
D03*
X287000Y118000D02*
D03*
X273000Y58000D02*
D03*
X284000Y38000D02*
D03*
D49*
X159400Y90500D02*
D03*
X134500Y90300D02*
D03*
X135303Y66711D02*
D03*
X154400Y72758D02*
D03*
X150700Y67357D02*
D03*
X275200Y109200D02*
D03*
X262600D02*
D03*
X287100Y100700D02*
D03*
X286700Y92400D02*
D03*
X251600Y100200D02*
D03*
X251500Y91900D02*
D03*
X286928Y109202D02*
D03*
X251494D02*
D03*
X106400Y32100D02*
D03*
X116700Y22400D02*
D03*
X180900Y68300D02*
D03*
X14000Y106000D02*
D03*
Y86000D02*
D03*
Y67000D02*
D03*
X37000Y86000D02*
D03*
Y96000D02*
D03*
X85000Y108000D02*
D03*
X72000D02*
D03*
X58000D02*
D03*
X38000Y107000D02*
D03*
X288500Y132158D02*
D03*
Y32157D02*
D03*
X276000Y7158D02*
D03*
X251000D02*
D03*
X238500Y132158D02*
D03*
X226000Y7158D02*
D03*
X213500Y132158D02*
D03*
Y32157D02*
D03*
X201000Y7158D02*
D03*
X188500Y132158D02*
D03*
X176000Y7158D02*
D03*
X163500Y132158D02*
D03*
X151000Y57157D02*
D03*
X163500Y32157D02*
D03*
X151000Y7158D02*
D03*
X138500Y132158D02*
D03*
X126000Y107158D02*
D03*
X138500Y32157D02*
D03*
X113500Y132158D02*
D03*
X101000Y107158D02*
D03*
X88500Y132158D02*
D03*
Y32157D02*
D03*
X76000Y7158D02*
D03*
X63500Y132158D02*
D03*
Y32157D02*
D03*
X51000Y7158D02*
D03*
X26000D02*
D03*
D59*
X134600Y90400D02*
X159300D01*
D60*
X29528Y29528D02*
D03*
X265472Y125472D02*
D03*
Y26528D02*
D03*
X29252Y124953D02*
D03*
M02*
