G04*
G04 #@! TF.GenerationSoftware,Altium Limited,Altium Designer,23.5.1 (21)*
G04*
G04 Layer_Color=8388736*
%FSLAX25Y25*%
%MOIN*%
G70*
G04*
G04 #@! TF.SameCoordinates,F2DA617C-CCEF-44E5-B4ED-05EE2DC053E7*
G04*
G04*
G04 #@! TF.FilePolarity,Negative*
G04*
G01*
G75*
G04:AMPARAMS|DCode=26|XSize=70.99mil|YSize=126.11mil|CornerRadius=8.72mil|HoleSize=0mil|Usage=FLASHONLY|Rotation=90.000|XOffset=0mil|YOffset=0mil|HoleType=Round|Shape=RoundedRectangle|*
%AMROUNDEDRECTD26*
21,1,0.07099,0.10866,0,0,90.0*
21,1,0.05354,0.12611,0,0,90.0*
1,1,0.01745,0.05433,0.02677*
1,1,0.01745,0.05433,-0.02677*
1,1,0.01745,-0.05433,-0.02677*
1,1,0.01745,-0.05433,0.02677*
%
%ADD26ROUNDEDRECTD26*%
%ADD27R,0.12020X0.05721*%
%ADD28R,0.26391X0.22650*%
%ADD29C,0.04737*%
G04:AMPARAMS|DCode=30|XSize=63.12mil|YSize=43.43mil|CornerRadius=6.66mil|HoleSize=0mil|Usage=FLASHONLY|Rotation=180.000|XOffset=0mil|YOffset=0mil|HoleType=Round|Shape=RoundedRectangle|*
%AMROUNDEDRECTD30*
21,1,0.06312,0.03012,0,0,180.0*
21,1,0.04980,0.04343,0,0,180.0*
1,1,0.01332,-0.02490,0.01506*
1,1,0.01332,0.02490,0.01506*
1,1,0.01332,0.02490,-0.01506*
1,1,0.01332,-0.02490,-0.01506*
%
%ADD30ROUNDEDRECTD30*%
G04:AMPARAMS|DCode=31|XSize=57.21mil|YSize=70.99mil|CornerRadius=8.92mil|HoleSize=0mil|Usage=FLASHONLY|Rotation=90.000|XOffset=0mil|YOffset=0mil|HoleType=Round|Shape=RoundedRectangle|*
%AMROUNDEDRECTD31*
21,1,0.05721,0.05315,0,0,90.0*
21,1,0.03937,0.07099,0,0,90.0*
1,1,0.01784,0.02657,0.01968*
1,1,0.01784,0.02657,-0.01968*
1,1,0.01784,-0.02657,-0.01968*
1,1,0.01784,-0.02657,0.01968*
%
%ADD31ROUNDEDRECTD31*%
%ADD32R,0.11036X0.12611*%
%ADD33R,0.03162X0.01981*%
G04:AMPARAMS|DCode=34|XSize=59.18mil|YSize=59.18mil|CornerRadius=9.12mil|HoleSize=0mil|Usage=FLASHONLY|Rotation=270.000|XOffset=0mil|YOffset=0mil|HoleType=Round|Shape=RoundedRectangle|*
%AMROUNDEDRECTD34*
21,1,0.05918,0.04095,0,0,270.0*
21,1,0.04095,0.05918,0,0,270.0*
1,1,0.01824,-0.02047,-0.02047*
1,1,0.01824,-0.02047,0.02047*
1,1,0.01824,0.02047,0.02047*
1,1,0.01824,0.02047,-0.02047*
%
%ADD34ROUNDEDRECTD34*%
G04:AMPARAMS|DCode=35|XSize=63.12mil|YSize=43.43mil|CornerRadius=6.66mil|HoleSize=0mil|Usage=FLASHONLY|Rotation=270.000|XOffset=0mil|YOffset=0mil|HoleType=Round|Shape=RoundedRectangle|*
%AMROUNDEDRECTD35*
21,1,0.06312,0.03012,0,0,270.0*
21,1,0.04980,0.04343,0,0,270.0*
1,1,0.01332,-0.01506,-0.02490*
1,1,0.01332,-0.01506,0.02490*
1,1,0.01332,0.01506,0.02490*
1,1,0.01332,0.01506,-0.02490*
%
%ADD35ROUNDEDRECTD35*%
%ADD36R,0.13300X0.13792*%
%ADD37C,0.08674*%
%ADD38C,0.09855*%
%ADD39C,0.20079*%
%ADD40C,0.10800*%
%ADD41C,0.05800*%
D26*
X236724Y36113D02*
D03*
Y50287D02*
D03*
X91000Y90087D02*
D03*
Y75913D02*
D03*
X108000Y90087D02*
D03*
Y75913D02*
D03*
X123100Y90187D02*
D03*
Y76013D02*
D03*
X218824Y36313D02*
D03*
Y50487D02*
D03*
X201024Y36613D02*
D03*
Y50787D02*
D03*
D27*
X145102Y118454D02*
D03*
Y100146D02*
D03*
D28*
X170298Y109300D02*
D03*
D29*
X208724Y61200D02*
D03*
X109200Y22200D02*
D03*
X136000Y51000D02*
D03*
X109627Y57754D02*
D03*
X163000Y45000D02*
D03*
X156000Y36000D02*
D03*
X179500Y90700D02*
D03*
D30*
X186724Y43752D02*
D03*
Y50248D02*
D03*
X38000Y58248D02*
D03*
Y51752D02*
D03*
X187000Y38248D02*
D03*
Y31752D02*
D03*
X144363Y48363D02*
D03*
Y54859D02*
D03*
X101700Y57148D02*
D03*
Y50652D02*
D03*
X137800Y83848D02*
D03*
Y77352D02*
D03*
X260724Y49000D02*
D03*
Y55496D02*
D03*
D31*
X168000Y61524D02*
D03*
Y54476D02*
D03*
X178000D02*
D03*
Y61524D02*
D03*
D32*
X152724Y70000D02*
D03*
D33*
X160205Y63701D02*
D03*
Y66850D02*
D03*
Y70000D02*
D03*
Y73150D02*
D03*
Y76299D02*
D03*
X145244Y63701D02*
D03*
Y66850D02*
D03*
Y70000D02*
D03*
Y73150D02*
D03*
Y76299D02*
D03*
D34*
X48000Y51134D02*
D03*
Y42866D02*
D03*
X252724Y49134D02*
D03*
Y40866D02*
D03*
D35*
X177496Y47000D02*
D03*
X171000D02*
D03*
D36*
X211700Y70600D02*
D03*
Y115600D02*
D03*
D37*
X104192Y9174D02*
D03*
X114035D02*
D03*
X123877D02*
D03*
D38*
X267000Y97843D02*
D03*
Y78158D02*
D03*
X64000Y73000D02*
D03*
Y92685D02*
D03*
D39*
X29528Y29528D02*
D03*
X265472Y125472D02*
D03*
Y26528D02*
D03*
X29252Y124953D02*
D03*
D40*
X9000Y55000D02*
D03*
X90000Y60000D02*
D03*
X287000Y118000D02*
D03*
X273000Y58000D02*
D03*
X284000Y38000D02*
D03*
D41*
X135303Y66711D02*
D03*
X154400Y72758D02*
D03*
X150700Y67357D02*
D03*
X275200Y109200D02*
D03*
X262600D02*
D03*
X287100Y100700D02*
D03*
X286700Y92400D02*
D03*
X251600Y100200D02*
D03*
X251500Y91900D02*
D03*
X286928Y109202D02*
D03*
X251494D02*
D03*
X106400Y32100D02*
D03*
X116700Y22400D02*
D03*
X14000Y106000D02*
D03*
Y86000D02*
D03*
Y67000D02*
D03*
X37000Y86000D02*
D03*
Y96000D02*
D03*
X85000Y108000D02*
D03*
X72000D02*
D03*
X58000D02*
D03*
X38000Y107000D02*
D03*
X288500Y132158D02*
D03*
Y32157D02*
D03*
X276000Y7158D02*
D03*
X251000D02*
D03*
X238500Y132158D02*
D03*
X226000Y7158D02*
D03*
X213500Y132158D02*
D03*
Y32157D02*
D03*
X201000Y7158D02*
D03*
X188500Y132158D02*
D03*
X176000Y7158D02*
D03*
X163500Y132158D02*
D03*
X151000Y57157D02*
D03*
X163500Y32157D02*
D03*
X151000Y7158D02*
D03*
X138500Y132158D02*
D03*
X126000Y107158D02*
D03*
X138500Y32157D02*
D03*
X113500Y132158D02*
D03*
X101000Y107158D02*
D03*
X88500Y132158D02*
D03*
Y32157D02*
D03*
X76000Y7158D02*
D03*
X63500Y132158D02*
D03*
Y32157D02*
D03*
X51000Y7158D02*
D03*
X26000D02*
D03*
M02*
