M48
;Layer_Color=9474304
;FILE_FORMAT=2:4
INCH,TZ
;TYPE=PLATED
T01F00S00C0.0120
T02F00S00C0.0160
T03F00S00C0.0280
T04F00S00C0.0394
T05F00S00C0.0402
T06F00S00C0.0409
;TYPE=NON_PLATED
T07F00S00C0.1402
%
T01
X8900Y-15690
X10080Y-13490
X12524Y-13870
X16700Y-13000
Y-11900
Y-10900
Y-9800
X9360Y-10630
T02
X10664Y-15480
Y-15080
Y-14680
X11153
Y-15080
Y-15480
T03
X6100Y-20500
X7250Y-20550
X7300Y-18550
X11100Y-21100
X11800
X15900Y-20900
X16800
X17400Y-20300
X17200Y-17500
X16100Y-17700
X15700Y-18400
X14300Y-17700
X3440Y-16590
X3150Y-15330
X4470Y-15410
X6170Y-15430
X7800Y-15400
X7030Y-16610
X5360Y-16600
X8750Y-16620
X8520Y-11800
X7100
X7700Y-10800
X6700Y-9400
X5500
X4300
Y-8200
X5500
X6700
X11000Y-8100
X11695Y-8740
X11200Y-9700
X11700Y-10900
X12800Y-10600
X12770Y-11360
X12850Y-9450
X13660Y-9470
X14900Y-9800
X15700Y-9700
X15900Y-8500
X16800
X17900
X18900
X18500Y-9300
X17400
Y-10700
Y-12300
Y-13400
X18600
X19170Y-15340
X19160Y-17060
X18490Y-16520
X17580Y-14990
X15800Y-12500
X14433Y-12794
X13800Y-13500
X10400Y-12800
X10035Y-12154
X13100Y-8100
X14800Y-8500
X19930Y-7580
X21010Y-7550
X22100Y-7630
X20100Y-10200
Y-12500
Y-13600
X20250Y-17040
X21390Y-17060
X22320Y-17030
T04
X8411Y-8900
X9396
X10380
T05
X4430Y-16850
X10470Y-11090
X18630Y-14460
T06
X8161Y-20380
X8902
Y-19380
X8161
Y-18380
X8902
X10130
X10870
Y-19380
X10130
Y-20380
X10870
X12098
X12838
Y-19380
X12098
Y-18380
X12838
X14067
X14807
Y-19380
X14067
Y-20380
X14807
T07
X6311Y-19081
X16657
M30
