M48
;Layer_Color=9474304
;FILE_FORMAT=2:4
INCH,TZ
;TYPE=PLATED
T1F00S00C0.0120
T2F00S00C0.0130
T3F00S00C0.0354
T4F00S00C0.0402
T5F00S00C0.0420
T6F00S00C0.0522
T7F00S00C0.0598
T8F00S00C0.0728
T9F00S00C0.0799
;TYPE=NON_PLATED
T10F00S00C0.1563
%
T01
X2000Y500
X2750Y2000
X1250
X2000Y3500
X3500
X5500
X6500Y1500
X5500Y-500
X7500
X9500
X10500Y1500
X12500
X10550Y11850
X8150Y12400
X5700Y11600
X3250Y11200
X1250Y11000
Y8000
X2750
X2000Y6500
X2750Y5000
X1250
X500Y3500
X-500
X15500
X14500Y1500
X15500Y-500
X13500
X19500
X21500
X20500Y1500
X21500Y3500
X19500
X20500Y5500
X18759Y7959
Y8641
X17792Y8317
X15950Y8300
X16250Y10000
X17000Y11450
X18538Y11562
X19900Y10900
X25450Y10500
X25500Y9500
X27500
X26638Y8312
X28500Y7500
X27500Y5500
X28500Y1500
X25500Y-500
X14500Y5500
X14100Y11300
X14620Y12567
X30500Y11500
X31550Y11350
X32050Y11100
X33500Y10300
X34500Y11500
X34540Y12340
X34550Y13050
X34300Y8650
X34500Y7500
X35500Y5500
X36050Y5550
X37500Y5500
X39500
X41500
X41000Y3500
X40500Y1500
X41500Y-500
X43500
X35500
X31500
X29500Y3500
Y5500
X30500Y7500
X33500Y5500
X35500Y4500
X36300Y9200
X38100Y8100
X38500Y7500
X39200Y10000
X39400Y10400
X39279Y11402
X39850Y11250
X38180Y11300
X40800Y9900
X41850Y12589
X43460Y12240
X43900Y12600
X42500Y7500
X42850Y7150
X44688Y6826
X44600Y8500
X46500Y9500
X45200Y10800
X45250Y11600
X47200Y12750
X48600Y12200
X49200Y6250
X49250Y5000
X47750
X46250
X47000Y3500
X45500
X46500Y1500
X47500Y-500
X49500
X53500
X55500
X57500
X58500Y1500
X57500Y3500
X58250Y5000
X59750
X59000Y6500
X57500
X56000
X56750Y5000
X52250
X53000Y6330
X51500Y6500
X52250Y8000
X53000Y3500
X51500
X52500Y1500
X55800Y13100
X59719Y12412
X62000Y12500
X63500Y11500
X64500Y9500
X66500
Y5500
X63500Y7500
X62000Y6500
X60500
X61250Y5000
X62000Y3500
X63500
X62500Y1500
X60500
Y3500
X61500Y-500
X63500
X65500
X65650Y400
X64500Y1500
X62500Y9500
X62000Y15500
X60091Y15259
X61250Y17000
X64500Y17500
X66500
Y21500
X65500Y23500
X61250Y23000
X62000Y21500
X60500
X60141Y20659
Y26059
X60500Y27500
X62000
X59800Y28300
X59000Y27500
X58137Y27063
X59459Y26059
X59783Y25092
X59800Y23338
X58250Y23000
X58087Y21713
X59000Y21500
X59459Y20659
X59783Y19692
X59800Y17800
X59750Y17000
X59409Y15259
X59733Y14292
X58037Y16337
X55800Y14850
Y14000
Y18550
Y19400
Y20250
Y23900
Y24750
X55350Y24650
X55800Y25600
X48500Y25500
X49500Y27500
X47500
X44500Y25500
X45500Y23500
X50500Y19500
X52500
X51500Y17500
Y13500
X45500
X46500Y15500
X44500
X43950Y15350
Y14650
X41500Y14700
X41850Y13500
X40300Y13300
X39757Y13324
X40108Y14100
X40300Y15100
X39800
X38300Y15600
X37993Y15955
X38700Y17366
X39000Y18350
X40200Y18400
X41050Y18250
X41286Y18607
X41300Y21150
X41500Y23500
X43500
X44250Y21600
X42500Y25500
X40500
X38500
X36500
X34500
X32500
X30500
X31500Y27500
X33500
X37500
X39500
Y23500
X37500
X35500
X33500
X31500
X29500
Y27500
X32776Y21600
X35450Y21100
X35427Y18527
X35800Y18100
X36550
X33500Y17500
X31500Y19500
Y15500
X29500
X30500Y13500
X35397Y15086
X37500Y13500
X38500Y21500
X28500
X27500Y23500
X25150Y23350
X23575Y25000
X23300Y27500
X27500
X25700Y18100
X26650Y16850
X26182Y13800
X28500Y13500
X23500Y19500
X21500
X20850Y22640
X14572Y23188
X13500Y23500
X14500Y25500
X15500Y27500
X14521Y20094
X13500Y19500
X14221Y18694
X14500Y17500
X14521Y15794
X14621Y14194
X11500Y15500
Y19500
X12921Y20094
Y18894
X13021Y21830
X11921Y23594
X12500Y25500
X11500Y27900
X9100Y24400
X8300Y23500
Y22850
X7550
Y23500
X6750
Y22850
X5950
Y23500
X5200
Y22850
X4700Y21600
X5200Y20850
X6046Y21200
X6800Y21300
Y20850
X7930Y20750
X8648Y21250
X8850Y21800
X9195Y20322
X8827Y18973
X6750Y19550
X4750Y19200
X4276Y19550
X3500Y19500
X1500
X-500
X500Y21500
X2500
X1500Y23500
X-500
X500Y25500
X2500
X3600Y25750
X3500Y27500
X1500
X-500
X4700Y24950
X6100Y25000
X5216Y15702
X4250Y14000
X6100Y13400
X1250Y14000
X500Y17500
X2500
X2000Y30500
X3500
X5000
X6500
X8000
X8750Y32000
X7250
X5750
X4250
X2750
X1250
X-250
X500Y33500
X2000
X3500
Y35500
X1500
X-500
X-1000Y33500
Y30500
X500
X2500Y37500
X3500Y39500
X5500
X7500
X9500
X11500
X12500Y37500
X10500
X8500
X6500
Y33500
X8000
X1500Y39500
X13500
X15500
X17500
X19500
X21500
X25500
X27600Y35000
X28500Y33500
X27500Y31500
X25500
X24500Y33500
X22500
X20500
X21500Y31500
X19500
X20500Y29500
X18500
Y37500
X16500
X14500
X13500Y35500
X30500Y37500
X29500Y39500
X33500
X37500
X38500Y37500
X37850Y36800
X37500Y35500
X38500Y33500
X40500
X41750Y33650
X41500Y35500
Y39500
X36500Y37500
Y33500
X37500Y31500
X35500
X33500
X31500
X29500
X30500Y29500
X34500
X36500
X38500
X40500
X42500
X32500Y33500
X30500
X52500
Y29500
X55800Y29900
Y29050
Y30800
X55900Y34200
Y35000
Y35900
X56750Y38000
X58137Y37313
X59459Y36259
X59783Y35292
X59800Y33400
X59750Y32000
X59459Y31159
X59783Y30192
X58137Y32287
X56000Y39500
X54500
X53000
X53750Y38000
X48500Y29500
X60141Y31159
X61250Y32000
X62000Y33500
X64500
X66500
X65500Y31500
X63500
X62000Y36500
X60141Y36259
X61250Y38000
X62000Y39500
X63500
X65500
X66500Y37500
T02
X21344Y23667
Y24100
Y24533
X21856
Y24100
Y23667
T03
X23998Y5371
X24998
X31400Y5400
X32400
X50300Y6600
Y7600
T04
X600Y2600
X14750Y7800
X61550Y1550
X51800Y21500
X46700Y24400
X28045Y22610
X24450Y22150
X14000Y27500
X4600Y38800
X24200Y31900
X47500Y35900
X57600Y38400
T05
X48500Y28747
Y31700
T06
X3331Y900
X5300
X8193
X10161
X13054
X15023
X17916
X19884
X64900Y3116
Y5084
X65000Y14416
Y16384
Y19832
Y21800
Y25216
Y27184
X1000Y34116
Y36084
X65100Y35416
Y37384
X65000Y32300
Y30331
T07
X28677Y27174
Y28257
Y29343
T08
X24099Y37700
X25950
X27800
X32050
X33900
X35750
X40050
X41900
X43750
T09
X43323Y25552
Y27717
X28677Y25650
Y31950
X43323Y32048
Y29883
T10
X0Y0
X60000
X0Y38300
X60000
M30
