*
*
G04 PADS 9.3.1 Build Number: 456998 generated Gerber (RS-274-X) file*
G04 PC Version=2.1*
*
%IN "DC1894B-1.pcb"*%
*
%MOIN*%
*
%FSLAX35Y35*%
*
*
*
*
G04 PC Standard Apertures*
*
*
G04 Thermal Relief Aperture macro.*
%AMTER*
1,1,$1,0,0*
1,0,$1-$2,0,0*
21,0,$3,$4,0,0,45*
21,0,$3,$4,0,0,135*
%
*
*
G04 Annular Aperture macro.*
%AMANN*
1,1,$1,0,0*
1,0,$2,0,0*
%
*
*
G04 Odd Aperture macro.*
%AMODD*
1,1,$1,0,0*
1,0,$1-0.005,0,0*
%
*
*
G04 PC Custom Aperture Macros*
*
*
*
*
*
*
G04 PC Aperture Table*
*
%ADD011C,0.01*%
%ADD012C,0.008*%
%ADD043C,0.001*%
%ADD123C,0.00787*%
%ADD124C,0.01181*%
*
*
*
*
G04 PC Circuitry*
G04 Layer Name DC1894B-1.pcb - circuitry*
%LPD*%
*
*
G04 PC Custom Flashes*
G04 Layer Name DC1894B-1.pcb - flashes*
%LPD*%
*
*
G04 PC Circuitry*
G04 Layer Name DC1894B-1.pcb - circuitry*
%LPD*%
*
G54D11*
G01X1904060Y1715144D02*
X1899409D01*
X1904060D02*
Y1716593D01*
X1903839Y1717076*
X1903617Y1717237*
X1903174Y1717399*
X1902731*
X1902288Y1717237*
X1902067Y1717076*
X1901845Y1716593*
Y1715144*
Y1716271D02*
X1899409Y1717399D01*
X1904060Y1719170D02*
Y1720942D01*
X1902288Y1719975*
Y1720459*
X1902067Y1720781*
X1901845Y1720942*
X1901181Y1721103*
X1900738*
X1900074Y1720942*
X1899631Y1720620*
X1899409Y1720137*
Y1719653*
X1899631Y1719170*
X1899852Y1719009*
X1900295Y1718848*
X1904060Y1724807D02*
X1899409Y1723197D01*
X1904060Y1722552D02*
Y1724807D01*
X1923745Y1715144D02*
X1919094D01*
X1923745D02*
Y1716593D01*
X1923524Y1717076*
X1923302Y1717237*
X1922859Y1717399*
X1922416*
X1921973Y1717237*
X1921752Y1717076*
X1921531Y1716593*
Y1715144*
Y1716271D02*
X1919094Y1717399D01*
X1923745Y1719170D02*
Y1720942D01*
X1921973Y1719975*
Y1720459*
X1921752Y1720781*
X1921531Y1720942*
X1920866Y1721103*
X1920423*
X1919759Y1720942*
X1919316Y1720620*
X1919094Y1720137*
Y1719653*
X1919316Y1719170*
X1919537Y1719009*
X1919980Y1718848*
X1923745Y1723358D02*
X1923524Y1722875D01*
X1923081Y1722713*
X1922638*
X1922195Y1722875*
X1921973Y1723197*
X1921752Y1723841*
X1921531Y1724324*
X1921088Y1724646*
X1920645Y1724807*
X1919980*
X1919537Y1724646*
X1919316Y1724485*
X1919094Y1724002*
Y1723358*
X1919316Y1722875*
X1919537Y1722713*
X1919980Y1722552*
X1920645*
X1921088Y1722713*
X1921531Y1723036*
X1921752Y1723519*
X1921973Y1724163*
X1922195Y1724485*
X1922638Y1724646*
X1923081*
X1923524Y1724485*
X1923745Y1724002*
Y1723358*
X1943430Y1715144D02*
X1938780D01*
X1943430D02*
Y1716593D01*
X1943209Y1717076*
X1942987Y1717237*
X1942544Y1717399*
X1942101*
X1941658Y1717237*
X1941437Y1717076*
X1941216Y1716593*
Y1715144*
Y1716271D02*
X1938780Y1717399D01*
X1943430Y1719170D02*
Y1720942D01*
X1941658Y1719975*
Y1720459*
X1941437Y1720781*
X1941216Y1720942*
X1940551Y1721103*
X1940108*
X1939444Y1720942*
X1939001Y1720620*
X1938780Y1720137*
Y1719653*
X1939001Y1719170*
X1939222Y1719009*
X1939665Y1718848*
X1941880Y1724646D02*
X1941216Y1724485D01*
X1940773Y1724163*
X1940551Y1723680*
Y1723519*
X1940773Y1723036*
X1941216Y1722713*
X1941880Y1722552*
X1942101*
X1942766Y1722713*
X1943209Y1723036*
X1943430Y1723519*
Y1723680*
X1943209Y1724163*
X1942766Y1724485*
X1941880Y1724646*
X1940773*
X1939665Y1724485*
X1939001Y1724163*
X1938780Y1723680*
Y1723358*
X1939001Y1722875*
X1939444Y1722713*
X1963115Y1715144D02*
X1958465D01*
X1963115D02*
Y1716593D01*
X1962894Y1717076*
X1962672Y1717237*
X1962229Y1717399*
X1961786*
X1961344Y1717237*
X1961122Y1717076*
X1960901Y1716593*
Y1715144*
Y1716271D02*
X1958465Y1717399D01*
X1963115Y1720459D02*
X1960015Y1718848D01*
Y1721264*
X1963115Y1720459D02*
X1958465D01*
X1963115Y1723680D02*
X1962894Y1723197D01*
X1962229Y1722875*
X1961122Y1722713*
X1960458*
X1959350Y1722875*
X1958686Y1723197*
X1958465Y1723680*
Y1724002*
X1958686Y1724485*
X1959350Y1724807*
X1960458Y1724968*
X1961122*
X1962229Y1724807*
X1962894Y1724485*
X1963115Y1724002*
Y1723680*
X1983194Y1715144D02*
X1978543D01*
X1983194D02*
Y1716593D01*
X1982972Y1717076*
X1982751Y1717237*
X1982308Y1717399*
X1981865*
X1981422Y1717237*
X1981201Y1717076*
X1980979Y1716593*
Y1715144*
Y1716271D02*
X1978543Y1717399D01*
X1983194Y1720459D02*
X1980094Y1718848D01*
Y1721264*
X1983194Y1720459D02*
X1978543D01*
X1982308Y1722713D02*
X1982530Y1723036D01*
X1983194Y1723519*
X1978543*
X2002485Y1715144D02*
X1997835D01*
X2002485D02*
Y1716593D01*
X2002264Y1717076*
X2002042Y1717237*
X2001599Y1717399*
X2001156*
X2000714Y1717237*
X2000492Y1717076*
X2000271Y1716593*
Y1715144*
Y1716271D02*
X1997835Y1717399D01*
X2002485Y1720459D02*
X1999385Y1718848D01*
Y1721264*
X2002485Y1720459D02*
X1997835D01*
X2001378Y1722875D02*
X2001599D01*
X2002042Y1723036*
X2002264Y1723197*
X2002485Y1723519*
Y1724163*
X2002264Y1724485*
X2002042Y1724646*
X2001599Y1724807*
X2001156*
X2000714Y1724646*
X2000049Y1724324*
X1997835Y1722713*
Y1724968*
X2022170Y1715144D02*
X2017520D01*
X2022170D02*
Y1716593D01*
X2021949Y1717076*
X2021727Y1717237*
X2021284Y1717399*
X2020842*
X2020399Y1717237*
X2020177Y1717076*
X2019956Y1716593*
Y1715144*
Y1716271D02*
X2017520Y1717399D01*
X2022170Y1720459D02*
X2019070Y1718848D01*
Y1721264*
X2022170Y1720459D02*
X2017520D01*
X2022170Y1723036D02*
Y1724807D01*
X2020399Y1723841*
Y1724324*
X2020177Y1724646*
X2019956Y1724807*
X2019291Y1724968*
X2018848*
X2018184Y1724807*
X2017741Y1724485*
X2017520Y1724002*
Y1723519*
X2017741Y1723036*
X2017963Y1722875*
X2018406Y1722713*
X2041855Y1715144D02*
X2037205D01*
X2041855D02*
Y1716593D01*
X2041634Y1717076*
X2041412Y1717237*
X2040969Y1717399*
X2040527*
X2040084Y1717237*
X2039862Y1717076*
X2039641Y1716593*
Y1715144*
Y1716271D02*
X2037205Y1717399D01*
X2041855Y1720459D02*
X2038755Y1718848D01*
Y1721264*
X2041855Y1720459D02*
X2037205D01*
X2041855Y1724324D02*
X2038755Y1722713D01*
Y1725129*
X2041855Y1724324D02*
X2037205D01*
X2061737Y1715144D02*
X2057087D01*
X2061737D02*
Y1716593D01*
X2061516Y1717076*
X2061294Y1717237*
X2060851Y1717399*
X2060408*
X2059966Y1717237*
X2059744Y1717076*
X2059523Y1716593*
Y1715144*
Y1716271D02*
X2057087Y1717399D01*
X2061737Y1720459D02*
X2058637Y1718848D01*
Y1721264*
X2061737Y1720459D02*
X2057087D01*
X2061737Y1724807D02*
Y1723197D01*
X2059744Y1723036*
X2059966Y1723197*
X2060187Y1723680*
Y1724163*
X2059966Y1724646*
X2059523Y1724968*
X2058858Y1725129*
X2058415Y1724968*
X2057751Y1724807*
X2057308Y1724485*
X2057087Y1724002*
Y1723519*
X2057308Y1723036*
X2057530Y1722875*
X2057972Y1722713*
X2081619Y1715144D02*
X2076969D01*
X2081619D02*
Y1716593D01*
X2081398Y1717076*
X2081176Y1717237*
X2080733Y1717399*
X2080290*
X2079847Y1717237*
X2079626Y1717076*
X2079405Y1716593*
Y1715144*
Y1716271D02*
X2076969Y1717399D01*
X2081619Y1720459D02*
X2078519Y1718848D01*
Y1721264*
X2081619Y1720459D02*
X2076969D01*
X2080955Y1724646D02*
X2081398Y1724485D01*
X2081619Y1724002*
Y1723680*
X2081398Y1723197*
X2080733Y1722875*
X2079626Y1722713*
X2078519*
X2077633Y1722875*
X2077190Y1723197*
X2076969Y1723680*
Y1723841*
X2077190Y1724324*
X2077633Y1724646*
X2078297Y1724807*
X2078519*
X2079183Y1724646*
X2079626Y1724324*
X2079847Y1723841*
Y1723680*
X2079626Y1723197*
X2079183Y1722875*
X2078519Y1722713*
X2101304Y1715144D02*
X2096654D01*
X2101304D02*
Y1716593D01*
X2101083Y1717076*
X2100861Y1717237*
X2100418Y1717399*
X2099975*
X2099532Y1717237*
X2099311Y1717076*
X2099090Y1716593*
Y1715144*
Y1716271D02*
X2096654Y1717399D01*
X2101304Y1720459D02*
X2098204Y1718848D01*
Y1721264*
X2101304Y1720459D02*
X2096654D01*
X2101304Y1724968D02*
X2096654Y1723358D01*
X2101304Y1722713D02*
Y1724968D01*
X2119021Y1715144D02*
X2114370D01*
X2119021D02*
Y1716593D01*
X2118799Y1717076*
X2118578Y1717237*
X2118135Y1717399*
X2117692*
X2117249Y1717237*
X2117028Y1717076*
X2116806Y1716593*
Y1715144*
Y1716271D02*
X2114370Y1717399D01*
X2119021Y1720459D02*
X2115920Y1718848D01*
Y1721264*
X2119021Y1720459D02*
X2114370D01*
X2119021Y1723519D02*
X2118799Y1723036D01*
X2118356Y1722875*
X2117913*
X2117470Y1723036*
X2117249Y1723358*
X2117028Y1724002*
X2116806Y1724485*
X2116363Y1724807*
X2115920Y1724968*
X2115256*
X2114813Y1724807*
X2114592Y1724646*
X2114370Y1724163*
Y1723519*
X2114592Y1723036*
X2114813Y1722875*
X2115256Y1722713*
X2115920*
X2116363Y1722875*
X2116806Y1723197*
X2117028Y1723680*
X2117249Y1724324*
X2117470Y1724646*
X2117913Y1724807*
X2118356*
X2118799Y1724646*
X2119021Y1724163*
Y1723519*
X2078623Y1624383D02*
Y1619474D01*
X2076583*
X2073863Y1624383D02*
Y1619474D01*
X2075053Y1624383D02*
X2072673D01*
X2068593Y1623214D02*
X2068763Y1623682D01*
X2069103Y1624149*
X2069443Y1624383*
X2070123*
X2070463Y1624149*
X2070803Y1623682*
X2070973Y1623214*
X2071143Y1622513*
Y1621344*
X2070973Y1620643*
X2070803Y1620176*
X2070463Y1619708*
X2070123Y1619474*
X2069443*
X2069103Y1619708*
X2068763Y1620176*
X2068593Y1620643*
X2060603Y1623214D02*
X2060773Y1623682D01*
X2061113Y1624149*
X2061453Y1624383*
X2062133*
X2062473Y1624149*
X2062813Y1623682*
X2062983Y1623214*
X2063153Y1622513*
Y1621344*
X2062983Y1620643*
X2062813Y1620176*
X2062473Y1619708*
X2062133Y1619474*
X2061453*
X2061113Y1619708*
X2060773Y1620176*
X2060603Y1620643*
X2058053Y1624383D02*
X2058393Y1624149D01*
X2058733Y1623682*
X2058903Y1623214*
X2059073Y1622513*
Y1621344*
X2058903Y1620643*
X2058733Y1620176*
X2058393Y1619708*
X2058053Y1619474*
X2057373*
X2057033Y1619708*
X2056693Y1620176*
X2056523Y1620643*
X2056353Y1621344*
Y1622513*
X2056523Y1623214*
X2056693Y1623682*
X2057033Y1624149*
X2057373Y1624383*
X2058053*
X2054823D02*
Y1619474D01*
Y1624383D02*
X2052443Y1619474D01*
Y1624383D02*
Y1619474D01*
X2050913Y1624383D02*
Y1619474D01*
Y1624383D02*
X2048703D01*
X2050913Y1622046D02*
X2049553D01*
X2047173Y1624383D02*
Y1619474D01*
X2045643Y1624383D02*
Y1619474D01*
Y1624383D02*
X2044453D01*
X2043943Y1624149*
X2043603Y1623682*
X2043433Y1623214*
X2043263Y1622513*
Y1621344*
X2043433Y1620643*
X2043603Y1620176*
X2043943Y1619708*
X2044453Y1619474*
X2045643*
X2041733Y1624383D02*
Y1619474D01*
Y1624383D02*
X2039523D01*
X2041733Y1622046D02*
X2040373D01*
X2041733Y1619474D02*
X2039523D01*
X2037993Y1624383D02*
Y1619474D01*
Y1624383D02*
X2035613Y1619474D01*
Y1624383D02*
Y1619474D01*
X2032893Y1624383D02*
Y1619474D01*
X2034083Y1624383D02*
X2031703D01*
X2030173D02*
Y1619474D01*
X2027283Y1624383D02*
X2028643Y1619474D01*
X2027283Y1624383D02*
X2025923Y1619474D01*
X2028133Y1621111D02*
X2026433D01*
X2024393Y1624383D02*
Y1619474D01*
X2022353*
X2016913Y1621578D02*
X2013853D01*
X2008413Y1624383D02*
Y1619474D01*
Y1624383D02*
X2006203D01*
X2008413Y1622046D02*
X2007053D01*
X2003653Y1624383D02*
X2003993Y1624149D01*
X2004333Y1623682*
X2004503Y1623214*
X2004673Y1622513*
Y1621344*
X2004503Y1620643*
X2004333Y1620176*
X2003993Y1619708*
X2003653Y1619474*
X2002973*
X2002633Y1619708*
X2002293Y1620176*
X2002123Y1620643*
X2001953Y1621344*
Y1622513*
X2002123Y1623214*
X2002293Y1623682*
X2002633Y1624149*
X2002973Y1624383*
X2003653*
X2000423D02*
Y1619474D01*
Y1624383D02*
X1998893D01*
X1998383Y1624149*
X1998213Y1623916*
X1998043Y1623448*
Y1622981*
X1998213Y1622513*
X1998383Y1622279*
X1998893Y1622046*
X2000423*
X1999233D02*
X1998043Y1619474D01*
X1990053Y1623214D02*
X1990223Y1623682D01*
X1990563Y1624149*
X1990903Y1624383*
X1991583*
X1991923Y1624149*
X1992263Y1623682*
X1992433Y1623214*
X1992603Y1622513*
Y1621344*
X1992433Y1620643*
X1992263Y1620176*
X1991923Y1619708*
X1991583Y1619474*
X1990903*
X1990563Y1619708*
X1990223Y1620176*
X1990053Y1620643*
X1988523Y1624383D02*
Y1620877D01*
X1988353Y1620176*
X1988013Y1619708*
X1987503Y1619474*
X1987163*
X1986653Y1619708*
X1986313Y1620176*
X1986143Y1620877*
Y1624383*
X1982233Y1623682D02*
X1982573Y1624149D01*
X1983083Y1624383*
X1983763*
X1984273Y1624149*
X1984613Y1623682*
Y1623214*
X1984443Y1622747*
X1984273Y1622513*
X1983933Y1622279*
X1982913Y1621812*
X1982573Y1621578*
X1982403Y1621344*
X1982233Y1620877*
Y1620176*
X1982573Y1619708*
X1983083Y1619474*
X1983763*
X1984273Y1619708*
X1984613Y1620176*
X1979513Y1624383D02*
Y1619474D01*
X1980703Y1624383D02*
X1978323D01*
X1975773D02*
X1976113Y1624149D01*
X1976453Y1623682*
X1976623Y1623214*
X1976793Y1622513*
Y1621344*
X1976623Y1620643*
X1976453Y1620176*
X1976113Y1619708*
X1975773Y1619474*
X1975093*
X1974753Y1619708*
X1974413Y1620176*
X1974243Y1620643*
X1974073Y1621344*
Y1622513*
X1974243Y1623214*
X1974413Y1623682*
X1974753Y1624149*
X1975093Y1624383*
X1975773*
X1972543D02*
Y1619474D01*
Y1624383D02*
X1971183Y1619474D01*
X1969823Y1624383D02*
X1971183Y1619474D01*
X1969823Y1624383D02*
Y1619474D01*
X1968293Y1624383D02*
Y1619474D01*
Y1624383D02*
X1966083D01*
X1968293Y1622046D02*
X1966933D01*
X1968293Y1619474D02*
X1966083D01*
X1964553Y1624383D02*
Y1619474D01*
Y1624383D02*
X1963023D01*
X1962513Y1624149*
X1962343Y1623916*
X1962173Y1623448*
Y1622981*
X1962343Y1622513*
X1962513Y1622279*
X1963023Y1622046*
X1964553*
X1963363D02*
X1962173Y1619474D01*
X1956733Y1624383D02*
Y1620877D01*
X1956563Y1620176*
X1956223Y1619708*
X1955713Y1619474*
X1955373*
X1954863Y1619708*
X1954523Y1620176*
X1954353Y1620877*
Y1624383*
X1950443Y1623682D02*
X1950783Y1624149D01*
X1951293Y1624383*
X1951973*
X1952483Y1624149*
X1952823Y1623682*
Y1623214*
X1952653Y1622747*
X1952483Y1622513*
X1952143Y1622279*
X1951123Y1621812*
X1950783Y1621578*
X1950613Y1621344*
X1950443Y1620877*
Y1620176*
X1950783Y1619708*
X1951293Y1619474*
X1951973*
X1952483Y1619708*
X1952823Y1620176*
X1948913Y1624383D02*
Y1619474D01*
Y1624383D02*
X1946703D01*
X1948913Y1622046D02*
X1947553D01*
X1948913Y1619474D02*
X1946703D01*
X1940243Y1624383D02*
X1940583Y1624149D01*
X1940923Y1623682*
X1941093Y1623214*
X1941263Y1622513*
Y1621344*
X1941093Y1620643*
X1940923Y1620176*
X1940583Y1619708*
X1940243Y1619474*
X1939563*
X1939223Y1619708*
X1938883Y1620176*
X1938713Y1620643*
X1938543Y1621344*
Y1622513*
X1938713Y1623214*
X1938883Y1623682*
X1939223Y1624149*
X1939563Y1624383*
X1940243*
X1937013D02*
Y1619474D01*
Y1624383D02*
X1934633Y1619474D01*
Y1624383D02*
Y1619474D01*
X1933103Y1624383D02*
Y1619474D01*
X1931063*
X1929533Y1624383D02*
X1928173Y1622046D01*
Y1619474*
X1926813Y1624383D02*
X1928173Y1622046D01*
X1901941Y1452096D02*
Y1445533D01*
X1904668*
X1906714Y1452096D02*
Y1445533D01*
X1908759Y1452096D02*
Y1445533D01*
Y1452096D02*
X1911941Y1445533D01*
Y1452096D02*
Y1445533D01*
X1913986Y1452096D02*
Y1445533D01*
Y1452096D02*
X1916941D01*
X1913986Y1448971D02*
X1915805D01*
X1913986Y1445533D02*
X1916941D01*
X1920805Y1452096D02*
X1918986Y1445533D01*
X1920805Y1452096D02*
X1922623Y1445533D01*
X1919668Y1447721D02*
X1921941D01*
X1924668Y1452096D02*
Y1445533D01*
Y1452096D02*
X1926714D01*
X1927395Y1451783*
X1927623Y1451471*
X1927850Y1450846*
Y1450221*
X1927623Y1449596*
X1927395Y1449283*
X1926714Y1448971*
X1924668*
X1926259D02*
X1927850Y1445533D01*
X1936714Y1452096D02*
Y1445533D01*
X1935123Y1452096D02*
X1938305D01*
X1940350D02*
Y1445533D01*
Y1452096D02*
X1943305D01*
X1940350Y1448971D02*
X1942168D01*
X1940350Y1445533D02*
X1943305D01*
X1948759Y1450533D02*
X1948532Y1451158D01*
X1948077Y1451783*
X1947623Y1452096*
X1946714*
X1946259Y1451783*
X1945805Y1451158*
X1945577Y1450533*
X1945350Y1449596*
Y1448033*
X1945577Y1447096*
X1945805Y1446471*
X1946259Y1445846*
X1946714Y1445533*
X1947623*
X1948077Y1445846*
X1948532Y1446471*
X1948759Y1447096*
X1950805Y1452096D02*
Y1445533D01*
X1953986Y1452096D02*
Y1445533D01*
X1950805Y1448971D02*
X1953986D01*
X1956032Y1452096D02*
Y1445533D01*
Y1452096D02*
X1959214Y1445533D01*
Y1452096D02*
Y1445533D01*
X1962623Y1452096D02*
X1962168Y1451783D01*
X1961714Y1451158*
X1961486Y1450533*
X1961259Y1449596*
Y1448033*
X1961486Y1447096*
X1961714Y1446471*
X1962168Y1445846*
X1962623Y1445533*
X1963532*
X1963986Y1445846*
X1964441Y1446471*
X1964668Y1447096*
X1964895Y1448033*
Y1449596*
X1964668Y1450533*
X1964441Y1451158*
X1963986Y1451783*
X1963532Y1452096*
X1962623*
X1966941D02*
Y1445533D01*
X1969668*
X1973077Y1452096D02*
X1972623Y1451783D01*
X1972168Y1451158*
X1971941Y1450533*
X1971714Y1449596*
Y1448033*
X1971941Y1447096*
X1972168Y1446471*
X1972623Y1445846*
X1973077Y1445533*
X1973986*
X1974441Y1445846*
X1974895Y1446471*
X1975123Y1447096*
X1975350Y1448033*
Y1449596*
X1975123Y1450533*
X1974895Y1451158*
X1974441Y1451783*
X1973986Y1452096*
X1973077*
X1980805Y1450533D02*
X1980577Y1451158D01*
X1980123Y1451783*
X1979668Y1452096*
X1978759*
X1978305Y1451783*
X1977850Y1451158*
X1977623Y1450533*
X1977395Y1449596*
Y1448033*
X1977623Y1447096*
X1977850Y1446471*
X1978305Y1445846*
X1978759Y1445533*
X1979668*
X1980123Y1445846*
X1980577Y1446471*
X1980805Y1447096*
Y1448033*
X1979668D02*
X1980805D01*
X1982850Y1452096D02*
X1984668Y1448971D01*
Y1445533*
X1986486Y1452096D02*
X1984668Y1448971D01*
X1901941Y1438096D02*
Y1431533D01*
Y1438096D02*
X1903532D01*
X1904214Y1437783*
X1904668Y1437158*
X1904895Y1436533*
X1905123Y1435596*
Y1434033*
X1904895Y1433096*
X1904668Y1432471*
X1904214Y1431846*
X1903532Y1431533*
X1901941*
X1910577Y1436533D02*
X1910350Y1437158D01*
X1909895Y1437783*
X1909441Y1438096*
X1908532*
X1908077Y1437783*
X1907623Y1437158*
X1907395Y1436533*
X1907168Y1435596*
Y1434033*
X1907395Y1433096*
X1907623Y1432471*
X1908077Y1431846*
X1908532Y1431533*
X1909441*
X1909895Y1431846*
X1910350Y1432471*
X1910577Y1433096*
X1912623Y1436846D02*
X1913077Y1437158D01*
X1913759Y1438096*
Y1431533*
X1916941Y1438096D02*
X1916259Y1437783D01*
X1916032Y1437158*
Y1436533*
X1916259Y1435908*
X1916714Y1435596*
X1917623Y1435283*
X1918305Y1434971*
X1918759Y1434346*
X1918986Y1433721*
Y1432783*
X1918759Y1432158*
X1918532Y1431846*
X1917850Y1431533*
X1916941*
X1916259Y1431846*
X1916032Y1432158*
X1915805Y1432783*
Y1433721*
X1916032Y1434346*
X1916486Y1434971*
X1917168Y1435283*
X1918077Y1435596*
X1918532Y1435908*
X1918759Y1436533*
Y1437158*
X1918532Y1437783*
X1917850Y1438096*
X1916941*
X1923986Y1435908D02*
X1923759Y1434971D01*
X1923305Y1434346*
X1922623Y1434033*
X1922395*
X1921714Y1434346*
X1921259Y1434971*
X1921032Y1435908*
Y1436221*
X1921259Y1437158*
X1921714Y1437783*
X1922395Y1438096*
X1922623*
X1923305Y1437783*
X1923759Y1437158*
X1923986Y1435908*
Y1434346*
X1923759Y1432783*
X1923305Y1431846*
X1922623Y1431533*
X1922168*
X1921486Y1431846*
X1921259Y1432471*
X1928305Y1438096D02*
X1926032Y1433721D01*
X1929441*
X1928305Y1438096D02*
Y1431533D01*
X1931486Y1438096D02*
Y1431533D01*
Y1438096D02*
X1933532D01*
X1934214Y1437783*
X1934441Y1437471*
X1934668Y1436846*
Y1436221*
X1934441Y1435596*
X1934214Y1435283*
X1933532Y1434971*
X1931486D02*
X1933532D01*
X1934214Y1434658*
X1934441Y1434346*
X1934668Y1433721*
Y1432783*
X1934441Y1432158*
X1934214Y1431846*
X1933532Y1431533*
X1931486*
X1936714Y1434346D02*
X1940805D01*
X1942850Y1436846D02*
X1943305Y1437158D01*
X1943986Y1438096*
Y1431533*
X1946032Y1434346D02*
X1950123D01*
X1962623Y1438096D02*
Y1431533D01*
X1965350*
X1968986Y1438096D02*
Y1431533D01*
X1967395Y1438096D02*
X1970577D01*
X1976032Y1436533D02*
X1975805Y1437158D01*
X1975350Y1437783*
X1974895Y1438096*
X1973986*
X1973532Y1437783*
X1973077Y1437158*
X1972850Y1436533*
X1972623Y1435596*
Y1434033*
X1972850Y1433096*
X1973077Y1432471*
X1973532Y1431846*
X1973986Y1431533*
X1974895*
X1975350Y1431846*
X1975805Y1432471*
X1976032Y1433096*
X1980805Y1437158D02*
X1980577Y1437783D01*
X1979895Y1438096*
X1979441*
X1978759Y1437783*
X1978305Y1436846*
X1978077Y1435283*
Y1433721*
X1978305Y1432471*
X1978759Y1431846*
X1979441Y1431533*
X1979668*
X1980350Y1431846*
X1980805Y1432471*
X1981032Y1433408*
Y1433721*
X1980805Y1434658*
X1980350Y1435283*
X1979668Y1435596*
X1979441*
X1978759Y1435283*
X1978305Y1434658*
X1978077Y1433721*
X1984214Y1438096D02*
X1983532Y1437783D01*
X1983305Y1437158*
Y1436533*
X1983532Y1435908*
X1983986Y1435596*
X1984895Y1435283*
X1985577Y1434971*
X1986032Y1434346*
X1986259Y1433721*
Y1432783*
X1986032Y1432158*
X1985805Y1431846*
X1985123Y1431533*
X1984214*
X1983532Y1431846*
X1983305Y1432158*
X1983077Y1432783*
Y1433721*
X1983305Y1434346*
X1983759Y1434971*
X1984441Y1435283*
X1985350Y1435596*
X1985805Y1435908*
X1986032Y1436533*
Y1437158*
X1985805Y1437783*
X1985123Y1438096*
X1984214*
X1989668D02*
X1988986Y1437783D01*
X1988532Y1436846*
X1988305Y1435283*
Y1434346*
X1988532Y1432783*
X1988986Y1431846*
X1989668Y1431533*
X1990123*
X1990805Y1431846*
X1991259Y1432783*
X1991486Y1434346*
Y1435283*
X1991259Y1436846*
X1990805Y1437783*
X1990123Y1438096*
X1989668*
X1995805D02*
X1993532Y1433721D01*
X1996941*
X1995805Y1438096D02*
Y1431533D01*
X1998986Y1438096D02*
Y1431533D01*
X2004441Y1436533D02*
X2004214Y1437158D01*
X2003759Y1437783*
X2003305Y1438096*
X2002395*
X2001941Y1437783*
X2001486Y1437158*
X2001259Y1436533*
X2001032Y1435596*
Y1434033*
X2001259Y1433096*
X2001486Y1432471*
X2001941Y1431846*
X2002395Y1431533*
X2003305*
X2003759Y1431846*
X2004214Y1432471*
X2004441Y1433096*
Y1434033*
X2003305D02*
X2004441D01*
X2006486Y1434346D02*
X2010577D01*
X2012623Y1436846D02*
X2013077Y1437158D01*
X2013759Y1438096*
Y1431533*
X2002441Y1454096D02*
Y1447533D01*
Y1454096D02*
X2004032D01*
X2004714Y1453783*
X2005168Y1453158*
X2005395Y1452533*
X2005623Y1451596*
Y1450033*
X2005395Y1449096*
X2005168Y1448471*
X2004714Y1447846*
X2004032Y1447533*
X2002441*
X2009486Y1454096D02*
X2007668Y1447533D01*
X2009486Y1454096D02*
X2011305Y1447533D01*
X2008350Y1449721D02*
X2010623D01*
X2014941Y1454096D02*
Y1447533D01*
X2013350Y1454096D02*
X2016532D01*
X2018577D02*
Y1447533D01*
Y1454096D02*
X2021532D01*
X2018577Y1450971D02*
X2020395D01*
X2018577Y1447533D02*
X2021532D01*
X2023805Y1451908D02*
X2023577Y1451596D01*
X2023805Y1451283*
X2024032Y1451596*
X2023805Y1451908*
Y1448158D02*
X2023577Y1447846D01*
X2023805Y1447533*
X2024032Y1447846*
X2023805Y1448158*
X2031305Y1452846D02*
X2031759Y1453158D01*
X2032441Y1454096*
Y1447533*
X2034714Y1452533D02*
Y1452846D01*
X2034941Y1453471*
X2035168Y1453783*
X2035623Y1454096*
X2036532*
X2036986Y1453783*
X2037214Y1453471*
X2037441Y1452846*
Y1452221*
X2037214Y1451596*
X2036759Y1450658*
X2034486Y1447533*
X2037668*
X2039714Y1450346D02*
X2043805D01*
X2045850Y1452846D02*
X2046305Y1453158D01*
X2046986Y1454096*
Y1447533*
X2051759Y1453158D02*
X2051532Y1453783D01*
X2050850Y1454096*
X2050395*
X2049714Y1453783*
X2049259Y1452846*
X2049032Y1451283*
Y1449721*
X2049259Y1448471*
X2049714Y1447846*
X2050395Y1447533*
X2050623*
X2051305Y1447846*
X2051759Y1448471*
X2051986Y1449408*
Y1449721*
X2051759Y1450658*
X2051305Y1451283*
X2050623Y1451596*
X2050395*
X2049714Y1451283*
X2049259Y1450658*
X2049032Y1449721*
X2054032Y1450346D02*
X2058123D01*
X2060168Y1452846D02*
X2060623Y1453158D01*
X2061305Y1454096*
Y1447533*
X2063350Y1452846D02*
X2063805Y1453158D01*
X2064486Y1454096*
Y1447533*
X1901941Y1424096D02*
X1902168Y1423783D01*
X1902395Y1424096*
X1902168Y1424408*
X1901941Y1424096*
X1902168Y1421908D02*
Y1417533D01*
X1906941Y1420971D02*
X1906714Y1421596D01*
X1906032Y1421908*
X1905350*
X1904668Y1421596*
X1904441Y1420971*
X1904668Y1420346*
X1905123Y1420033*
X1906259Y1419721*
X1906714Y1419408*
X1906941Y1418783*
Y1418471*
X1906714Y1417846*
X1906032Y1417533*
X1905350*
X1904668Y1417846*
X1904441Y1418471*
X1910123Y1421908D02*
X1909668Y1421596D01*
X1909214Y1420971*
X1908986Y1420033*
Y1419408*
X1909214Y1418471*
X1909668Y1417846*
X1910123Y1417533*
X1910805*
X1911259Y1417846*
X1911714Y1418471*
X1911941Y1419408*
Y1420033*
X1911714Y1420971*
X1911259Y1421596*
X1910805Y1421908*
X1910123*
X1917168Y1423158D02*
X1916714Y1423783D01*
X1916032Y1424096*
X1915123*
X1914441Y1423783*
X1913986Y1423158*
Y1422533*
X1914214Y1421908*
X1914441Y1421596*
X1914895Y1421283*
X1916259Y1420658*
X1916714Y1420346*
X1916941Y1420033*
X1917168Y1419408*
Y1418471*
X1916714Y1417846*
X1916032Y1417533*
X1915123*
X1914441Y1417846*
X1913986Y1418471*
X1919214Y1424096D02*
Y1417533D01*
Y1424096D02*
X1921259D01*
X1921941Y1423783*
X1922168Y1423471*
X1922395Y1422846*
Y1421908*
X1922168Y1421283*
X1921941Y1420971*
X1921259Y1420658*
X1919214*
X1924441Y1424096D02*
Y1417533D01*
X1931714Y1422846D02*
X1932168Y1423158D01*
X1932850Y1424096*
Y1417533*
X1935123Y1422533D02*
Y1422846D01*
X1935350Y1423471*
X1935577Y1423783*
X1936032Y1424096*
X1936941*
X1937395Y1423783*
X1937623Y1423471*
X1937850Y1422846*
Y1422221*
X1937623Y1421596*
X1937168Y1420658*
X1934895Y1417533*
X1938077*
X1940123Y1420346D02*
X1944214D01*
X1949668Y1422533D02*
X1949441Y1423158D01*
X1948986Y1423783*
X1948532Y1424096*
X1947623*
X1947168Y1423783*
X1946714Y1423158*
X1946486Y1422533*
X1946259Y1421596*
Y1420033*
X1946486Y1419096*
X1946714Y1418471*
X1947168Y1417846*
X1947623Y1417533*
X1948532*
X1948986Y1417846*
X1949441Y1418471*
X1949668Y1419096*
X1951714Y1424096D02*
Y1417533D01*
Y1424096D02*
X1954668D01*
X1951714Y1420971D02*
X1953532D01*
X1951714Y1417533D02*
X1954668D01*
X1956714Y1424096D02*
Y1417533D01*
X1959441*
X1961486Y1424096D02*
Y1417533D01*
X1964214*
X1971486Y1424096D02*
Y1417533D01*
Y1424096D02*
X1973532D01*
X1974214Y1423783*
X1974441Y1423471*
X1974668Y1422846*
Y1422221*
X1974441Y1421596*
X1974214Y1421283*
X1973532Y1420971*
X1971486D02*
X1973532D01*
X1974214Y1420658*
X1974441Y1420346*
X1974668Y1419721*
Y1418783*
X1974441Y1418158*
X1974214Y1417846*
X1973532Y1417533*
X1971486*
X1978532Y1424096D02*
X1976714Y1417533D01*
X1978532Y1424096D02*
X1980350Y1417533D01*
X1977395Y1419721D02*
X1979668D01*
X1983986Y1424096D02*
Y1417533D01*
X1982395Y1424096D02*
X1985577D01*
X1989214D02*
Y1417533D01*
X1987623Y1424096D02*
X1990805D01*
X1992850D02*
Y1417533D01*
Y1424096D02*
X1995805D01*
X1992850Y1420971D02*
X1994668D01*
X1992850Y1417533D02*
X1995805D01*
X1997850Y1424096D02*
Y1417533D01*
Y1424096D02*
X1999895D01*
X2000577Y1423783*
X2000805Y1423471*
X2001032Y1422846*
Y1422221*
X2000805Y1421596*
X2000577Y1421283*
X1999895Y1420971*
X1997850*
X1999441D02*
X2001032Y1417533D01*
X2003077Y1424096D02*
X2004895Y1420971D01*
Y1417533*
X2006714Y1424096D02*
X2004895Y1420971D01*
X2008759Y1420346D02*
X2012850D01*
X2018077Y1423158D02*
X2017623Y1423783D01*
X2016941Y1424096*
X2016032*
X2015350Y1423783*
X2014895Y1423158*
Y1422533*
X2015123Y1421908*
X2015350Y1421596*
X2015805Y1421283*
X2017168Y1420658*
X2017623Y1420346*
X2017850Y1420033*
X2018077Y1419408*
Y1418471*
X2017623Y1417846*
X2016941Y1417533*
X2016032*
X2015350Y1417846*
X2014895Y1418471*
X2021714Y1424096D02*
Y1417533D01*
X2020123Y1424096D02*
X2023305D01*
X2027168D02*
X2025350Y1417533D01*
X2027168Y1424096D02*
X2028986Y1417533D01*
X2026032Y1419721D02*
X2028305D01*
X2034441Y1422533D02*
X2034214Y1423158D01*
X2033759Y1423783*
X2033305Y1424096*
X2032395*
X2031941Y1423783*
X2031486Y1423158*
X2031259Y1422533*
X2031032Y1421596*
Y1420033*
X2031259Y1419096*
X2031486Y1418471*
X2031941Y1417846*
X2032395Y1417533*
X2033305*
X2033759Y1417846*
X2034214Y1418471*
X2034441Y1419096*
X2036486Y1424096D02*
Y1417533D01*
X2039668Y1424096D02*
X2036486Y1419721D01*
X2037623Y1421283D02*
X2039668Y1417533D01*
X2046941Y1424096D02*
Y1417533D01*
Y1424096D02*
X2048759Y1417533D01*
X2050577Y1424096D02*
X2048759Y1417533D01*
X2050577Y1424096D02*
Y1417533D01*
X2053986Y1424096D02*
X2053532Y1423783D01*
X2053077Y1423158*
X2052850Y1422533*
X2052623Y1421596*
Y1420033*
X2052850Y1419096*
X2053077Y1418471*
X2053532Y1417846*
X2053986Y1417533*
X2054895*
X2055350Y1417846*
X2055805Y1418471*
X2056032Y1419096*
X2056259Y1420033*
Y1421596*
X2056032Y1422533*
X2055805Y1423158*
X2055350Y1423783*
X2054895Y1424096*
X2053986*
X2058305D02*
Y1417533D01*
Y1424096D02*
X2061486Y1417533D01*
Y1424096D02*
Y1417533D01*
X2063532Y1424096D02*
Y1417533D01*
X2067168Y1424096D02*
Y1417533D01*
X2065577Y1424096D02*
X2068759D01*
X2072168D02*
X2071714Y1423783D01*
X2071259Y1423158*
X2071032Y1422533*
X2070805Y1421596*
Y1420033*
X2071032Y1419096*
X2071259Y1418471*
X2071714Y1417846*
X2072168Y1417533*
X2073077*
X2073532Y1417846*
X2073986Y1418471*
X2074214Y1419096*
X2074441Y1420033*
Y1421596*
X2074214Y1422533*
X2073986Y1423158*
X2073532Y1423783*
X2073077Y1424096*
X2072168*
X2076486D02*
Y1417533D01*
Y1424096D02*
X2078532D01*
X2079214Y1423783*
X2079441Y1423471*
X2079668Y1422846*
Y1422221*
X2079441Y1421596*
X2079214Y1421283*
X2078532Y1420971*
X2076486*
X2078077D02*
X2079668Y1417533D01*
X1894685Y1462257D02*
Y1455695D01*
Y1462257D02*
X1896730D01*
X1897412Y1461945*
X1897640Y1461632*
X1897867Y1461007*
Y1460382*
X1897640Y1459757*
X1897412Y1459445*
X1896730Y1459132*
X1894685D02*
X1896730D01*
X1897412Y1458820*
X1897640Y1458507*
X1897867Y1457882*
Y1456945*
X1897640Y1456320*
X1897412Y1456007*
X1896730Y1455695*
X1894685*
X1901276Y1462257D02*
X1900821Y1461945D01*
X1900367Y1461320*
X1900140Y1460695*
X1899912Y1459757*
Y1458195*
X1900140Y1457257*
X1900367Y1456632*
X1900821Y1456007*
X1901276Y1455695*
X1902185*
X1902640Y1456007*
X1903094Y1456632*
X1903321Y1457257*
X1903549Y1458195*
Y1459757*
X1903321Y1460695*
X1903094Y1461320*
X1902640Y1461945*
X1902185Y1462257*
X1901276*
X1907185D02*
Y1455695D01*
X1905594Y1462257D02*
X1908776D01*
X1912412D02*
Y1455695D01*
X1910821Y1462257D02*
X1914003D01*
X1917412D02*
X1916958Y1461945D01*
X1916503Y1461320*
X1916276Y1460695*
X1916049Y1459757*
Y1458195*
X1916276Y1457257*
X1916503Y1456632*
X1916958Y1456007*
X1917412Y1455695*
X1918321*
X1918776Y1456007*
X1919230Y1456632*
X1919458Y1457257*
X1919685Y1458195*
Y1459757*
X1919458Y1460695*
X1919230Y1461320*
X1918776Y1461945*
X1918321Y1462257*
X1917412*
X1921730D02*
Y1455695D01*
Y1462257D02*
X1923549Y1455695D01*
X1925367Y1462257D02*
X1923549Y1455695D01*
X1925367Y1462257D02*
Y1455695D01*
X1935821Y1461320D02*
X1935367Y1461945D01*
X1934685Y1462257*
X1933776*
X1933094Y1461945*
X1932640Y1461320*
Y1460695*
X1932867Y1460070*
X1933094Y1459757*
X1933549Y1459445*
X1934912Y1458820*
X1935367Y1458507*
X1935594Y1458195*
X1935821Y1457570*
Y1456632*
X1935367Y1456007*
X1934685Y1455695*
X1933776*
X1933094Y1456007*
X1932640Y1456632*
X1937867Y1462257D02*
Y1455695D01*
X1939912Y1462257D02*
Y1455695D01*
X1942640*
X1944685Y1462257D02*
Y1455695D01*
X1947867Y1462257D02*
X1944685Y1457882D01*
X1945821Y1459445D02*
X1947867Y1455695D01*
X1953094Y1461320D02*
X1952640Y1461945D01*
X1951958Y1462257*
X1951049*
X1950367Y1461945*
X1949912Y1461320*
Y1460695*
X1950140Y1460070*
X1950367Y1459757*
X1950821Y1459445*
X1952185Y1458820*
X1952640Y1458507*
X1952867Y1458195*
X1953094Y1457570*
Y1456632*
X1952640Y1456007*
X1951958Y1455695*
X1951049*
X1950367Y1456007*
X1949912Y1456632*
X1958549Y1460695D02*
X1958321Y1461320D01*
X1957867Y1461945*
X1957412Y1462257*
X1956503*
X1956049Y1461945*
X1955594Y1461320*
X1955367Y1460695*
X1955140Y1459757*
Y1458195*
X1955367Y1457257*
X1955594Y1456632*
X1956049Y1456007*
X1956503Y1455695*
X1957412*
X1957867Y1456007*
X1958321Y1456632*
X1958549Y1457257*
X1960594Y1462257D02*
Y1455695D01*
Y1462257D02*
X1962640D01*
X1963321Y1461945*
X1963549Y1461632*
X1963776Y1461007*
Y1460382*
X1963549Y1459757*
X1963321Y1459445*
X1962640Y1459132*
X1960594*
X1962185D02*
X1963776Y1455695D01*
X1965821Y1462257D02*
Y1455695D01*
Y1462257D02*
X1968776D01*
X1965821Y1459132D02*
X1967640D01*
X1965821Y1455695D02*
X1968776D01*
X1970821Y1462257D02*
Y1455695D01*
Y1462257D02*
X1973776D01*
X1970821Y1459132D02*
X1972640D01*
X1970821Y1455695D02*
X1973776D01*
X1975821Y1462257D02*
Y1455695D01*
Y1462257D02*
X1979003Y1455695D01*
Y1462257D02*
Y1455695D01*
X1847441Y1516719D02*
G75*
G03X1867126Y1497033I19685J-0D01*
G01X2132874*
G03X2152559Y1516719I0J19686*
G01Y1739159*
G03X2132874Y1758844I-19685J0*
G01X2109252*
Y1782467*
X1890748*
Y1758844*
X1867126*
G03X1847441Y1739159I-0J-19685*
G01Y1516719*
G54D12*
X1889350Y1712890D02*
Y1680390D01*
X1904350*
Y1712890*
X1889350*
X1909035D02*
Y1680390D01*
X1924035*
Y1712890*
X1909035*
X1928720D02*
Y1680390D01*
X1943720*
Y1712890*
X1928720*
X1948406D02*
Y1680390D01*
X1963406*
Y1712890*
X1948406*
X1968091D02*
Y1680390D01*
X1983091*
Y1712890*
X1968091*
X1987776D02*
Y1680390D01*
X2002776*
Y1712890*
X1987776*
X2007461D02*
Y1680390D01*
X2022461*
Y1712890*
X2007461*
X2027146D02*
Y1680390D01*
X2042146*
Y1712890*
X2027146*
X2046634D02*
Y1680390D01*
X2061634*
Y1712890*
X2046634*
X2066516D02*
Y1680390D01*
X2081516*
Y1712890*
X2066516*
X2086201D02*
Y1680390D01*
X2101201*
Y1712890*
X2086201*
X2105886D02*
Y1680390D01*
X2120886*
Y1712890*
X2105886*
G54D43*
G54D123*
X2111220Y1658844D02*
Y1656482D01*
X2099803Y1651758*
X2103740Y1658057*
X2095866Y1657663*
X2097047Y1656089*
X2092323Y1657270*
X2096260Y1660813*
X2095472Y1658844*
X2107283Y1660813*
X2102953Y1654514*
X2111220Y1658844*
G54D124*
X2111024Y1657270D02*
X2101378Y1653136D01*
X2104528Y1658648*
X2093110Y1657467*
X2111024Y1657860D02*
X2100591Y1652348D01*
X2106102Y1659829*
X2093898Y1658057*
X2096063Y1656876D02*
X2094094Y1657663D01*
X2095276Y1659238*
X2116339Y1657270D02*
X2090748Y1673018D01*
Y1641522*
X2116339Y1657270*
G74*
X0Y0D02*
M02*
