%
T1C.01F095S3
X00935Y00145
X00995Y0076
X00398Y01541
X007913Y017953
X005906Y017953
X009882Y017953
X01185Y017992
X013819Y017992
X015787Y017953
X01425Y0136
X01375Y01355
X01325Y01305
X01375Y01295
X01425Y01265
X0133Y01215
X01375Y0121
X0125Y0111
X01315Y0105
X0148Y00985
X01415Y00985
X0153Y0097
X0131Y0083
X0165Y0084
X017Y0084
X016Y0084
X01755Y0084
X01865Y00985
X0204Y00995
X01805Y0105
X02075Y0106
X01745Y0106
X01605Y0107
X02075Y0111
X0204Y0122
X017756Y017992
X019724Y017992
X02563Y018031
X021654Y017992
X023661Y017992
X02255Y01305
X0239Y01199
X0214Y01175
X02396Y01132
X02125Y0102
X0256Y0092
X02815Y00915
X026612Y0092
X0291Y0092
X028Y0128
X02929Y01287
X02755Y0144
X02657Y01443
X027598Y018031
X02819Y01864
T2C.02F197S55
X004547Y019508
X008484Y019508
X006516Y019508
X004941Y022461
X006909Y022461
X008878Y022461
X010846Y022461
X012815Y022461
X012421Y019508
X010453Y019508
X01439Y019508
X016358Y019508
X018327Y019508
X014783Y022461
X016752Y02248
X020689Y02248
X022657Y02248
X01872Y022461
X022264Y019508
X020295Y019508
X024232Y019508
X026201Y019508
X026201Y022264
X024626Y022461
T3C.035F197S55
X002362Y004921
X001572Y004921
X002362Y005711
X001572Y005711
X002362Y006501
X001572Y006501
X002362Y007291
X001572Y007291
X002362Y008081
X001572Y008081
X002362Y008871
X001572Y008871
X002362Y009661
X001572Y009661
X004528Y004134
X006181Y004134
X008346Y004134
X008346Y003346
X004528Y003346
X006181Y003346
X008346Y002559
X006181Y002559
X004528Y002559
X00969Y002563
X00969Y00335
X00969Y004137
T4C.03819F197S55
X013189Y004134
X014189Y004134
X015189Y004134
X014689Y005134
X013689Y005134
X015689Y005134
X016689Y005134
X021563Y005134
X022563Y005134
X016189Y004134
X022063Y004134
X021063Y004134
X023063Y004134
X024063Y004134
X023563Y005134
X024563Y005134
T5C.056F107S55
X004921Y025
X006299Y025
X007677Y025
X009055Y025
X010433Y025
X011811Y025
X013189Y025
X014567Y025
X015945Y025
X017323Y025
X018701Y025
X020079Y025
X021457Y025
X022835Y025
X024213Y025
X025591Y025
T6C.063F089S55
X005118Y0065
X008189Y0065
X005118Y0085
X008228Y0085
X00515Y0105
X0082Y0105
X001594Y020689
X01115Y0105
X0277Y00395
T7C.06496F089S55
X011889Y002834
X017989Y002834
X019763Y002834
X025863Y002834
T8C.07F081S55
X001Y0224
X02965Y0048
T9C.12795F035S794
X012689Y001634
X017189Y001634
X020563Y001634
X025063Y001634
T10C.187F035S1033
X001969Y001969
X001969Y024213
X028543Y024213
X028543Y001969
M30
