G04*
G04 #@! TF.GenerationSoftware,Altium Limited,Altium Designer,21.6.4 (81)*
G04*
G04 Layer_Color=32768*
%FSLAX25Y25*%
%MOIN*%
G70*
G04*
G04 #@! TF.SameCoordinates,9BFF0DD7-AB89-4675-BB4A-08C2DD0039C6*
G04*
G04*
G04 #@! TF.FilePolarity,Positive*
G04*
G01*
G75*
%ADD13C,0.01000*%
%ADD76C,0.00500*%
%ADD77C,0.00394*%
%ADD78C,0.00250*%
%ADD79C,0.00197*%
D13*
X-179600Y497500D02*
Y498600D01*
Y497500D02*
X-179600Y497500D01*
D76*
X94875Y569300D02*
X132125D01*
X94875Y526675D02*
X132125D01*
Y569300D01*
X94875Y526675D02*
Y569300D01*
X-41060Y492845D02*
X1460D01*
X-41060Y559774D02*
X1460D01*
X-41060Y492845D02*
Y559774D01*
X1460Y492845D02*
Y559774D01*
X-84160Y492845D02*
X-41640D01*
X-84160Y559774D02*
X-41640D01*
X-84160Y492845D02*
Y559774D01*
X-41640Y492845D02*
Y559774D01*
X100500Y333800D02*
X117300Y350600D01*
X117300Y526900D02*
X117300Y350600D01*
X-91011Y571133D02*
Y600267D01*
X-67389Y571133D02*
Y600267D01*
X-91011Y571133D02*
X-67389D01*
X-91011Y600267D02*
X-67389D01*
X-114611D02*
X-90989D01*
X-114611Y571133D02*
X-90989D01*
Y600267D01*
X-114611Y571133D02*
Y600267D01*
X-208300Y473200D02*
Y473741D01*
X-62000Y310700D02*
X-61900Y310600D01*
X-86326Y310700D02*
X-62000D01*
X-86100Y310600D02*
X-86100Y310600D01*
X-86100Y310600D02*
Y311118D01*
Y337294D01*
X-86200Y315911D02*
X-86100Y316011D01*
X-86200Y310700D02*
Y315911D01*
X-91600Y310700D02*
X-86200D01*
X-86444Y377300D02*
X-86289Y377145D01*
X-105600Y377300D02*
X-86444D01*
X-1632Y571132D02*
X7700Y561800D01*
Y531009D02*
Y561800D01*
X12152Y507848D02*
X13700Y506300D01*
X7507Y512493D02*
X9055Y510945D01*
X-32144Y571144D02*
X-1632Y571132D01*
X-38200Y577200D02*
X-32144Y571144D01*
X-38200Y577200D02*
Y585900D01*
X-38400Y585700D02*
X-38200Y585900D01*
X-114611Y585700D02*
X-38400D01*
X-119400Y580911D02*
X-114611Y585700D01*
X-119400Y571800D02*
Y580911D01*
Y570079D02*
Y571800D01*
Y570079D02*
X-116521Y567200D01*
X-108607D01*
X-101800Y560393D01*
Y554100D02*
Y560393D01*
X79700Y446609D02*
Y531109D01*
X7700Y446609D02*
Y531109D01*
X79700D01*
X7700Y446609D02*
X79700D01*
X-21Y512493D02*
X7507D01*
X9055Y510945D02*
X12152Y507848D01*
X74000Y506300D02*
Y511900D01*
X68400Y506300D02*
X74000D01*
X13700D02*
X74100D01*
Y474600D02*
Y506300D01*
X-90043Y509842D02*
X-87393Y512493D01*
X-90043Y470600D02*
Y509842D01*
X-101800Y526900D02*
X-87393Y512493D01*
X-4238Y449400D02*
X1460Y443702D01*
X-81526Y449400D02*
X-4238D01*
X-90043Y457917D02*
X-81526Y449400D01*
X-90043Y457917D02*
Y470760D01*
X-190050Y369650D02*
Y373752D01*
X-189802Y374000D01*
X-177825D01*
X-190050Y361132D02*
Y369650D01*
X-204068Y361132D02*
X-190050D01*
X-174900Y374000D02*
Y377900D01*
X74100Y443702D02*
Y474600D01*
X1460Y443702D02*
X74100D01*
X-86289Y316011D02*
Y390940D01*
X-103042Y343373D02*
X-70758D01*
X115375Y487100D02*
X119312D01*
X-84176Y368980D02*
Y424492D01*
X102186Y498889D02*
Y522511D01*
X-23400Y394768D02*
Y398705D01*
X-3076Y368980D02*
Y424492D01*
X37524Y368980D02*
Y424492D01*
X-158045Y385740D02*
Y428260D01*
X-208300Y473200D02*
X-203396D01*
X-186660Y473742D02*
Y487128D01*
X74100Y448200D02*
X74139Y448239D01*
X106400Y546300D02*
X117400D01*
X-239839Y338500D02*
X-202589D01*
X118476Y571144D02*
Y626656D01*
X-248068Y458653D02*
X-244131D01*
X-179160Y474135D02*
Y487128D01*
X-164240D02*
X-156760D01*
X37424Y626656D02*
X77976D01*
X-231533Y385648D02*
Y409270D01*
X-112858Y483328D02*
X-95142D01*
X-164972Y532372D02*
X-124028D01*
X-3176Y571144D02*
Y626656D01*
X-38200Y594600D02*
X-34000Y598800D01*
X-120255Y511972D02*
Y521028D01*
X35831Y545200D02*
X39768D01*
X-115493Y511940D02*
X-102107D01*
X-23400Y326607D02*
Y330544D01*
X95200Y328500D02*
X100500Y333800D01*
X5389Y343733D02*
X29011D01*
X117343Y485132D02*
Y489069D01*
X132501Y498889D02*
Y522511D01*
X-86881Y384940D02*
Y427460D01*
X-43624Y368980D02*
Y424492D01*
X37476Y368980D02*
Y424492D01*
X78076Y368980D02*
Y424492D01*
X117400Y546300D02*
X122400Y541300D01*
X-239839Y381125D02*
X-202589D01*
X-87393Y512493D02*
X-41060D01*
X-260667Y409270D02*
X-231533D01*
X-260667Y439867D02*
X-231533D01*
X-260667Y446842D02*
X-231533D01*
X-34000Y598800D02*
X109200D01*
X-112845Y474272D02*
Y483328D01*
X-114983Y538040D02*
Y538084D01*
X-3176Y626656D02*
X37376D01*
X98200Y596932D02*
Y600869D01*
X-117150Y519958D02*
X-108095D01*
X-43776Y626656D02*
X-3224D01*
X-67411Y571133D02*
Y600267D01*
X37800Y543231D02*
Y547168D01*
X-115639Y504440D02*
X-102253D01*
X-25368Y328576D02*
X-21431D01*
X5389Y313418D02*
X29011D01*
X-70758Y315027D02*
Y343373D01*
X-86289Y390940D02*
X-80239Y396991D01*
X117343Y508732D02*
Y512669D01*
X132501Y475289D02*
Y498911D01*
X-25368Y396736D02*
X-21431D01*
X57800Y394768D02*
Y398705D01*
X-86881Y428240D02*
Y470760D01*
X-194140Y473742D02*
X-186660D01*
X74100Y448200D02*
Y527135D01*
X-164240Y473742D02*
X-156760D01*
X37424Y571144D02*
X77976D01*
X-260667Y385648D02*
X-231533D01*
X-260667Y416245D02*
X-231533D01*
X-164972Y491428D02*
X-124028D01*
X-41060Y512493D02*
X-21D01*
X-3176Y571144D02*
X37376D01*
X-149260Y474135D02*
Y487128D01*
X-149240Y474135D02*
Y487128D01*
X-130955Y474272D02*
Y483328D01*
X-117150Y538068D02*
X-108095D01*
X-43776Y571144D02*
X-3224D01*
X96232Y598900D02*
X100169D01*
X109200Y598800D02*
X114539Y593461D01*
X-134260Y474104D02*
Y487096D01*
X-120255Y511972D02*
X-102145D01*
X-115639Y496960D02*
X-102253D01*
X-115658Y487872D02*
X-97942D01*
X-44000Y328500D02*
X95200D01*
X15232Y328576D02*
X19169D01*
X-35211Y313418D02*
X-11589D01*
X-103042Y315027D02*
Y343373D01*
X-80239Y396991D02*
X66491D01*
X-84160Y424535D02*
X-41640D01*
X-63900Y394768D02*
Y398705D01*
X17200Y394768D02*
Y398705D01*
X-43676Y368980D02*
X-3124D01*
X-41060Y424535D02*
X1460D01*
X122400Y532000D02*
Y541300D01*
X-224974Y428260D02*
X-158045D01*
X-158035Y428240D02*
Y470760D01*
X-153810Y428240D02*
Y470760D01*
X99900Y563300D02*
Y567565D01*
X-260667Y470465D02*
X-231533D01*
X-194140Y487128D02*
X-186660D01*
X67535Y533700D02*
X74100Y527135D01*
X-248068Y428056D02*
X-244131D01*
X-179140Y487128D02*
X-171660D01*
X-171740Y474135D02*
X-164260D01*
X-121900Y476831D02*
Y480768D01*
X21658Y531027D02*
Y559373D01*
X-32144Y571144D02*
X-1632Y571132D01*
X-25469Y598900D02*
X-21531D01*
X15132D02*
X19069D01*
X55731D02*
X59668D01*
X-141760Y474135D02*
Y487128D01*
X-141740Y474104D02*
Y487096D01*
X-120255Y521028D02*
X-102145D01*
X-115658Y496928D02*
X-97942D01*
X-61900Y310600D02*
X-44000Y328500D01*
X-35211Y343733D02*
X-11589D01*
X115375Y510700D02*
X119312D01*
X-86900Y327232D02*
Y331169D01*
X102186Y475289D02*
Y498911D01*
X-65869Y396736D02*
X-61932D01*
X15232D02*
X19169D01*
X55831D02*
X59768D01*
X66491Y396991D02*
X67124D01*
X117300Y526900D02*
X122400Y532000D01*
X-84160Y491465D02*
X-41640D01*
X-43676Y424492D02*
X-3124D01*
X-153810Y428240D02*
X-86881D01*
X99900Y567565D02*
X103479Y571144D01*
X-41060Y491465D02*
X1460D01*
X77924Y571144D02*
X118476D01*
X-186640Y474135D02*
X-179160D01*
X-248068Y397459D02*
X-244131D01*
X-231533Y446842D02*
Y470465D01*
X-179140Y474135D02*
X-171660D01*
X-171740Y487128D02*
X-164260D01*
X-156740Y474135D02*
Y487128D01*
X114539Y575539D02*
Y593461D01*
X53942Y531027D02*
Y559373D01*
X57700Y596932D02*
Y600869D01*
X-95142Y474272D02*
Y483328D01*
X-102107Y504460D02*
Y511940D01*
X-115639Y496960D02*
Y504440D01*
X-97942Y487872D02*
Y496928D01*
X17200Y326607D02*
Y330544D01*
X102186Y475289D02*
X132501D01*
X102186Y522511D02*
X132501D01*
X-84160Y424535D02*
Y491465D01*
X-84176Y368980D02*
X-43624D01*
X-224974Y385740D02*
X-158045D01*
X-153810Y427460D02*
X-86881D01*
X-3076Y368980D02*
X37476D01*
X37524D02*
X78076D01*
X-224965Y428240D02*
Y470760D01*
X103479Y571144D02*
X110144D01*
X-239839Y338500D02*
Y381125D01*
X-186640Y487128D02*
X-179160D01*
X-124068Y473200D02*
X-123765Y473503D01*
X99900Y552800D02*
Y563300D01*
X-246100Y395491D02*
Y399428D01*
Y426088D02*
Y430025D01*
X-260667Y446842D02*
Y470465D01*
X-156740Y487128D02*
X-149260D01*
X-123869Y478800D02*
X-119931D01*
X56560Y533700D02*
X67535D01*
X77924Y626656D02*
X118476D01*
X-171660Y474135D02*
Y487128D01*
X-149240Y474135D02*
X-141760D01*
X-112858Y474272D02*
Y483328D01*
X-23500Y596932D02*
Y600869D01*
X17100Y596932D02*
Y600869D01*
X-141740Y487096D02*
X-134260D01*
X21658Y559373D02*
X53942D01*
X-38200Y577200D02*
X-32144Y571144D01*
X-67411Y600267D02*
X-43789D01*
X-115493Y504460D02*
Y511940D01*
X-102253Y496960D02*
Y504440D01*
X-35211Y313418D02*
Y343733D01*
X29011Y313418D02*
Y343733D01*
X-88868Y329200D02*
X-84931D01*
X102186Y498889D02*
X132501D01*
X-153810Y384940D02*
X-86881D01*
X-43676Y368980D02*
Y424492D01*
X-3076D02*
X37476D01*
X37524D02*
X78076D01*
X67124Y396991D02*
X74139Y404005D01*
X-224974Y385740D02*
Y428260D01*
X-224965Y428240D02*
X-158035D01*
X-153810Y470760D02*
X-86881D01*
X-41060Y424535D02*
Y491465D01*
X-202589Y338500D02*
Y381125D01*
X-156760Y473742D02*
Y487128D01*
X99900Y552800D02*
X106400Y546300D01*
X77924Y571144D02*
Y626656D01*
X77976Y571144D02*
Y626656D01*
X-246100Y456685D02*
Y460622D01*
X-156740Y474135D02*
X-149260D01*
X-130955Y474272D02*
X-112845D01*
X-101800Y526900D02*
Y554100D01*
X37376Y571144D02*
Y626656D01*
X-260667Y385648D02*
Y409270D01*
Y416245D02*
Y439867D01*
X-171740Y474135D02*
Y487128D01*
X-149240D02*
X-141760D01*
X-164972Y491428D02*
Y532372D01*
X-117150Y519958D02*
Y538068D01*
X56400Y533860D02*
X56560Y533700D01*
X-3224Y571144D02*
Y626656D01*
X-141740Y474104D02*
X-134260D01*
X-67411Y571133D02*
X-43789D01*
X-38200Y577200D02*
Y594600D01*
X-115658Y487872D02*
Y496928D01*
X-11589Y313418D02*
Y343733D01*
X5389Y313418D02*
Y343733D01*
X-103042Y315027D02*
X-70758D01*
X102186Y498911D02*
X132501D01*
X-153810Y384940D02*
Y427460D01*
X-84176Y424492D02*
X-43624D01*
X-3124Y368980D02*
Y424492D01*
X-41640Y424535D02*
Y491465D01*
X-224965Y470760D02*
X-158035D01*
X1460Y424535D02*
Y491465D01*
X74139Y404005D02*
Y448239D01*
X-194140Y473742D02*
Y487128D01*
X-186640Y474135D02*
Y487128D01*
X-164240Y473742D02*
Y487128D01*
X110144Y571144D02*
X114539Y575539D01*
X-179140Y474135D02*
Y487128D01*
X-164260Y474135D02*
Y487128D01*
X-130955Y483328D02*
X-112845D01*
X-124028Y491428D02*
Y532372D01*
X37424Y571144D02*
Y626656D01*
X-231533Y416245D02*
Y439867D01*
X-112858Y474272D02*
X-95142D01*
X21658Y531027D02*
X53942D01*
X-108095Y519958D02*
Y538068D01*
X-43789Y571133D02*
Y600267D01*
X-43776Y571144D02*
Y626656D01*
X-102145Y511972D02*
Y521028D01*
X-115493Y504460D02*
X-102107D01*
X67535Y533700D02*
X74000Y527235D01*
X-174900Y377900D02*
Y390300D01*
X-239839Y361132D02*
X-204068D01*
X-246100Y367393D02*
X-239839Y361132D01*
X-246100Y367393D02*
Y470465D01*
X-243365Y473200D01*
X-174900D01*
Y390300D02*
Y473200D01*
X-186650Y312800D02*
X-102150D01*
X-186650Y384800D02*
X-102150D01*
Y312800D02*
Y384800D01*
X-186650Y312800D02*
Y384800D01*
X14400Y561800D02*
X31800D01*
X35700Y557900D01*
Y538500D02*
Y557900D01*
Y538500D02*
X40500Y533700D01*
X67535D01*
X74000Y511900D02*
Y527235D01*
X16800Y506300D02*
X68400D01*
X-87393Y512493D02*
X-21D01*
X-86100Y337294D02*
Y341973D01*
X-102150Y353344D02*
X-102144D01*
X-120477Y377300D02*
X-105600D01*
X-124800Y372977D02*
X-120477Y377300D01*
X-124800Y322900D02*
Y372977D01*
Y322900D02*
X-112600Y310700D01*
X-91600D01*
X-174900Y473200D02*
X-167900D01*
X-120500D02*
X-118300D01*
X-190050Y321307D02*
Y374000D01*
Y321307D02*
X-187643Y318900D01*
X-168400D01*
X-164300Y323000D01*
Y358200D01*
X-142439Y380061D01*
X-119761D01*
X-113120Y386701D01*
Y468020D01*
X-118300Y473200D02*
X-113120Y468020D01*
X-168627Y473200D02*
X-119273D01*
X-174900Y468000D02*
Y473200D01*
X-4265Y424535D02*
X-4100Y424700D01*
D77*
X-21768Y526309D02*
X-17831D01*
X-19800Y524341D02*
Y528278D01*
X-64868Y526309D02*
X-60931D01*
X-62900Y524341D02*
Y528278D01*
X-81169Y585700D02*
X-77232D01*
X-79200Y583732D02*
Y587669D01*
X-102800Y583732D02*
Y587669D01*
X-104769Y585700D02*
X-100831D01*
X-191500Y447532D02*
Y451469D01*
X-193468Y449500D02*
X-189532D01*
X-112623Y527045D02*
Y530982D01*
X-114591Y529013D02*
X-110654D01*
X-104000Y476831D02*
Y480768D01*
X-105968Y478800D02*
X-102032D01*
X-108800Y506231D02*
Y510169D01*
X-110768Y508200D02*
X-106832D01*
X-193478Y407000D02*
X-189541D01*
X-191509Y405031D02*
Y408968D01*
X-21768Y458000D02*
X-17831D01*
X-19800Y456032D02*
Y459969D01*
X-64868Y458000D02*
X-60931D01*
X-62900Y456032D02*
Y459969D01*
X-122314Y406200D02*
X-118377D01*
X-120346Y404232D02*
Y408169D01*
Y447532D02*
Y451469D01*
X-122314Y449500D02*
X-118377D01*
X-144500Y509932D02*
Y513869D01*
X-146468Y511900D02*
X-142532D01*
X-179600Y495532D02*
Y499469D01*
X-181569Y497500D02*
X-177631D01*
X-181569Y505000D02*
X-177631D01*
X-179600Y503031D02*
Y506968D01*
X-181569Y512500D02*
X-177631D01*
X-179600Y510532D02*
Y514468D01*
X-179600Y518032D02*
Y521969D01*
X-181569Y520000D02*
X-177631D01*
X-181569Y527500D02*
X-177631D01*
X-179600Y525531D02*
Y529468D01*
X-121168Y545600D02*
X-117232D01*
X-119200Y543632D02*
Y547569D01*
X-126700Y543632D02*
Y547569D01*
X-128668Y545600D02*
X-124732D01*
X-136169Y545797D02*
X-132231D01*
X-134200Y543828D02*
Y547765D01*
X-141700Y543828D02*
Y547765D01*
X-143668Y545797D02*
X-139732D01*
X-149200Y543632D02*
Y547569D01*
X-151169Y545600D02*
X-147231D01*
X-158668Y545797D02*
X-154732D01*
X-156700Y543828D02*
Y547765D01*
X-167569Y545500D02*
X-163631D01*
X-165600Y543532D02*
Y547469D01*
X-175169Y545500D02*
X-171231D01*
X-173200Y543532D02*
Y547469D01*
X-108768Y492400D02*
X-104832D01*
X-106800Y490431D02*
Y494369D01*
X-110915Y500700D02*
X-106978D01*
X-108947Y498732D02*
Y502669D01*
X-57569Y585700D02*
X-53632D01*
X-55600Y583732D02*
Y587669D01*
X-190400Y478466D02*
Y482403D01*
X-192368Y480435D02*
X-188432D01*
X-184869Y480631D02*
X-180931D01*
X-182900Y478663D02*
Y482600D01*
X-177368Y480631D02*
X-173432D01*
X-175400Y478663D02*
Y482600D01*
X-169968Y480631D02*
X-166032D01*
X-168000Y478663D02*
Y482600D01*
X-160500Y478466D02*
Y482403D01*
X-162469Y480435D02*
X-158531D01*
X-153000Y478663D02*
Y482600D01*
X-154969Y480631D02*
X-151031D01*
X-145500Y478663D02*
Y482600D01*
X-147468Y480631D02*
X-143532D01*
X-138000Y478631D02*
Y482569D01*
X-139969Y480600D02*
X-136031D01*
X-111200Y514532D02*
Y518469D01*
X-113169Y516500D02*
X-109231D01*
D78*
X175000Y648000D02*
X174952Y648980D01*
X174808Y649951D01*
X174569Y650903D01*
X174239Y651827D01*
X173819Y652714D01*
X173315Y653556D01*
X172730Y654344D01*
X172071Y655071D01*
X171344Y655730D01*
X170556Y656315D01*
X169714Y656819D01*
X168827Y657239D01*
X167903Y657569D01*
X166951Y657808D01*
X165980Y657952D01*
X165000Y658000D01*
Y274700D02*
X165980Y274748D01*
X166951Y274892D01*
X167903Y275131D01*
X168827Y275461D01*
X169714Y275881D01*
X170556Y276385D01*
X171344Y276970D01*
X172071Y277629D01*
X172730Y278356D01*
X173315Y279144D01*
X173819Y279986D01*
X174239Y280873D01*
X174569Y281797D01*
X174808Y282749D01*
X174952Y283720D01*
X175000Y284700D01*
X-291500Y658000D02*
X-292480Y657952D01*
X-293451Y657808D01*
X-294403Y657569D01*
X-295327Y657239D01*
X-296214Y656819D01*
X-297056Y656315D01*
X-297844Y655730D01*
X-298571Y655071D01*
X-299230Y654344D01*
X-299815Y653556D01*
X-300319Y652714D01*
X-300739Y651827D01*
X-301069Y650903D01*
X-301308Y649951D01*
X-301452Y648980D01*
X-301500Y648000D01*
Y284700D02*
X-301452Y283720D01*
X-301308Y282749D01*
X-301069Y281797D01*
X-300739Y280873D01*
X-300319Y279986D01*
X-299815Y279144D01*
X-299230Y278356D01*
X-298571Y277629D01*
X-297844Y276970D01*
X-297056Y276385D01*
X-296214Y275881D01*
X-295327Y275461D01*
X-294403Y275131D01*
X-293451Y274892D01*
X-292480Y274748D01*
X-291500Y274700D01*
X165000D01*
X-291500Y658000D02*
X165000D01*
X175000Y284700D02*
Y648000D01*
X-301500Y284700D02*
Y648000D01*
D79*
X-186096Y501240D02*
X-173104D01*
X-186096Y493760D02*
X-173104D01*
X-186096D02*
Y501240D01*
X-173104Y493760D02*
Y501240D01*
X-186096Y501260D02*
Y508740D01*
X-173104Y501260D02*
Y508740D01*
X-186096D02*
X-173104D01*
X-186096Y501260D02*
X-173104D01*
X-186096Y508760D02*
Y516240D01*
X-173104Y508760D02*
Y516240D01*
X-186096D02*
X-173104D01*
X-186096Y508760D02*
X-173104D01*
X-186096Y516260D02*
X-173104D01*
X-186096Y523740D02*
X-173104D01*
Y516260D02*
Y523740D01*
X-186096Y516260D02*
Y523740D01*
X-186096Y523760D02*
Y531240D01*
X-173104Y523760D02*
Y531240D01*
X-186096D02*
X-173104D01*
X-186096Y523760D02*
X-173104D01*
X-122940Y539104D02*
Y552096D01*
X-115460Y539104D02*
Y552096D01*
X-122940Y539104D02*
X-115460D01*
X-122940Y552096D02*
X-115460D01*
X-130440D02*
X-122960D01*
X-130440Y539104D02*
X-122960D01*
Y552096D01*
X-130440Y539104D02*
Y552096D01*
X-137940Y539104D02*
Y552490D01*
X-130460Y539104D02*
Y552490D01*
X-137940Y539104D02*
X-130460D01*
X-137940Y552490D02*
X-130460D01*
X-145440Y539104D02*
X-137960D01*
X-145440Y552490D02*
X-137960D01*
X-145440Y539104D02*
Y552490D01*
X-137960Y539104D02*
Y552490D01*
X-152940Y552096D02*
X-145460D01*
X-152940Y539104D02*
X-145460D01*
Y552096D01*
X-152940Y539104D02*
Y552096D01*
X-160440Y539104D02*
Y552490D01*
X-152960Y539104D02*
Y552490D01*
X-160440Y539104D02*
X-152960D01*
X-160440Y552490D02*
X-152960D01*
X-161860Y539004D02*
Y551996D01*
X-169340Y539004D02*
Y551996D01*
X-161860D01*
X-169340Y539004D02*
X-161860D01*
X-176940D02*
Y551996D01*
X-169460Y539004D02*
Y551996D01*
X-176940Y539004D02*
X-169460D01*
X-176940Y551996D02*
X-169460D01*
M02*
