G04*
G04 #@! TF.GenerationSoftware,Altium Limited,Altium Designer,21.6.4 (81)*
G04*
G04 Layer_Color=16711935*
%FSLAX25Y25*%
%MOIN*%
G70*
G04*
G04 #@! TF.SameCoordinates,9BFF0DD7-AB89-4675-BB4A-08C2DD0039C6*
G04*
G04*
G04 #@! TF.FilePolarity,Positive*
G04*
G01*
G75*
%ADD77C,0.00394*%
D77*
X-152768Y522136D02*
X-153031Y523120D01*
X-153752Y523841D01*
X-154736Y524105D01*
X-155720Y523841D01*
X-156441Y523120D01*
X-156705Y522136D01*
X-156441Y521152D01*
X-155720Y520432D01*
X-154736Y520168D01*
X-153752Y520432D01*
X-153031Y521152D01*
X-152768Y522136D01*
X476Y508396D02*
Y551703D01*
X-40076Y508396D02*
Y551703D01*
X476D01*
X-40076Y508396D02*
X476D01*
X-42624D02*
Y551703D01*
X-83176Y508396D02*
Y551703D01*
X-42624D01*
X-83176Y508396D02*
X-42624D01*
X-89909Y573495D02*
Y597905D01*
X-68491Y573495D02*
Y597905D01*
X-89909Y573495D02*
X-68491D01*
X-89909Y597905D02*
X-68491D01*
X-113509D02*
X-92091D01*
X-113509Y573495D02*
X-92091D01*
Y597905D01*
X-113509Y573495D02*
Y597905D01*
X-216894Y469776D02*
X-173587D01*
X-216894Y429224D02*
X-173587D01*
X-216894D02*
Y469776D01*
X-173587Y429224D02*
Y469776D01*
X-116166Y535706D02*
X-109080D01*
X-116166Y522321D02*
X-109080D01*
Y535706D01*
X-116166Y522321D02*
Y535706D01*
X-109512Y482737D02*
X-98488D01*
X-109512Y474863D02*
X-98488D01*
X-109512D02*
Y482737D01*
X-98488Y474863D02*
Y482737D01*
X-112934Y510857D02*
X-104666D01*
X-112934Y505543D02*
X-104666D01*
X-112934D02*
Y510857D01*
X-104666Y505543D02*
Y510857D01*
X87767Y582561D02*
X108633D01*
X114539Y588467D01*
Y615239D01*
X81861D02*
X114539D01*
X81861Y588467D02*
Y615239D01*
Y588467D02*
X87767Y582561D01*
X6373Y315780D02*
X28027D01*
X6373Y341371D02*
X28027D01*
X6373Y315780D02*
Y341371D01*
X28027Y315780D02*
Y341371D01*
X-12573Y315780D02*
Y341371D01*
X-34227Y315780D02*
Y341371D01*
X-12573D01*
X-34227Y315780D02*
X-12573D01*
X-33833Y380398D02*
X-12967D01*
X-7061Y386303D01*
Y413075D01*
X-39739D02*
X-7061D01*
X-39739Y386303D02*
Y413075D01*
Y386303D02*
X-33833Y380398D01*
X24099Y532011D02*
X51501D01*
X24099Y558389D02*
X51501D01*
Y532011D02*
Y558389D01*
X24099Y532011D02*
Y558389D01*
X761Y588467D02*
X6667Y582561D01*
X761Y588467D02*
Y615239D01*
X33439D01*
Y588467D02*
Y615239D01*
X27533Y582561D02*
X33439Y588467D01*
X6667Y582561D02*
X27533D01*
X-39839Y588467D02*
X-33933Y582561D01*
X-39839Y588467D02*
Y615239D01*
X-7161D01*
Y588467D02*
Y615239D01*
X-13067Y582561D02*
X-7161Y588467D01*
X-33933Y582561D02*
X-13067D01*
X41361Y588467D02*
X47267Y582561D01*
X41361Y588467D02*
Y615239D01*
X74039D01*
Y588467D02*
Y615239D01*
X68133Y582561D02*
X74039Y588467D01*
X47267Y582561D02*
X68133D01*
X-173596Y386724D02*
Y427276D01*
X-216903Y386724D02*
Y427276D01*
Y386724D02*
X-173596D01*
X-216903Y427276D02*
X-173596D01*
X476Y440087D02*
Y483394D01*
X-40076Y440087D02*
Y483394D01*
X476D01*
X-40076Y440087D02*
X476D01*
X-42624D02*
Y483394D01*
X-83176Y440087D02*
Y483394D01*
X-42624D01*
X-83176Y440087D02*
X-42624D01*
X104548Y497927D02*
X130139D01*
X104548Y476273D02*
X130139D01*
X104548D02*
Y497927D01*
X130139Y476273D02*
Y497927D01*
Y499873D02*
Y521527D01*
X104548Y499873D02*
Y521527D01*
Y499873D02*
X130139D01*
X104548Y521527D02*
X130139D01*
X-102432Y385924D02*
Y426476D01*
X-145739Y385924D02*
Y426476D01*
Y385924D02*
X-102432D01*
X-145739Y426476D02*
X-102432D01*
X-145739Y469776D02*
X-102432D01*
X-145739Y429224D02*
X-102432D01*
X-145739D02*
Y469776D01*
X-102432Y429224D02*
Y469776D01*
X-258305Y447945D02*
Y469362D01*
X-233895Y447945D02*
Y469362D01*
X-258305D02*
X-233895D01*
X-258305Y447945D02*
X-233895D01*
X-258305Y386750D02*
X-233895D01*
X-258305Y408168D02*
X-233895D01*
Y386750D02*
Y408168D01*
X-258305Y386750D02*
Y408168D01*
Y417348D02*
X-233895D01*
X-258305Y438765D02*
X-233895D01*
Y417348D02*
Y438765D01*
X-258305Y417348D02*
Y438765D01*
X-158280Y498120D02*
X-130720D01*
X-158280Y525679D02*
X-130720D01*
Y498120D02*
Y525679D01*
X-158280Y498120D02*
Y525679D01*
X-183734Y500157D02*
X-175466D01*
X-183734Y494842D02*
X-175466D01*
X-183734D02*
Y500157D01*
X-175466Y494842D02*
Y500157D01*
X-183734Y502343D02*
Y507657D01*
X-175466Y502343D02*
Y507657D01*
X-183734D02*
X-175466D01*
X-183734Y502343D02*
X-175466D01*
X-183734Y509842D02*
Y515158D01*
X-175466Y509842D02*
Y515158D01*
X-183734D02*
X-175466D01*
X-183734Y509842D02*
X-175466D01*
X-183734Y517343D02*
X-175466D01*
X-183734Y522657D02*
X-175466D01*
Y517343D02*
Y522657D01*
X-183734Y517343D02*
Y522657D01*
X-183734Y524843D02*
Y530158D01*
X-175466Y524843D02*
Y530158D01*
X-183734D02*
X-175466D01*
X-183734Y524843D02*
X-175466D01*
X-121858Y541466D02*
Y549734D01*
X-116542Y541466D02*
Y549734D01*
X-121858Y541466D02*
X-116542D01*
X-121858Y549734D02*
X-116542D01*
X-129358D02*
X-124042D01*
X-129358Y541466D02*
X-124042D01*
Y549734D01*
X-129358Y541466D02*
Y549734D01*
X-136857Y541663D02*
Y549931D01*
X-131543Y541663D02*
Y549931D01*
X-136857Y541663D02*
X-131543D01*
X-136857Y549931D02*
X-131543D01*
X-144358Y541663D02*
X-139042D01*
X-144358Y549931D02*
X-139042D01*
X-144358Y541663D02*
Y549931D01*
X-139042Y541663D02*
Y549931D01*
X-151857Y549734D02*
X-146543D01*
X-151857Y541466D02*
X-146543D01*
Y549734D01*
X-151857Y541466D02*
Y549734D01*
X-159358Y541663D02*
Y549931D01*
X-154042Y541663D02*
Y549931D01*
X-159358Y541663D02*
X-154042D01*
X-159358Y549931D02*
X-154042D01*
X-162943Y541366D02*
Y549634D01*
X-168257Y541366D02*
Y549634D01*
X-162943D01*
X-168257Y541366D02*
X-162943D01*
X-175857Y541366D02*
Y549634D01*
X-170543Y541366D02*
Y549634D01*
X-175857Y541366D02*
X-170543D01*
X-175857Y549634D02*
X-170543D01*
X-112312Y488463D02*
Y496337D01*
X-101288Y488463D02*
Y496337D01*
X-112312D02*
X-101288D01*
X-112312Y488463D02*
X-101288D01*
X-104813Y498042D02*
Y503358D01*
X-113080Y498042D02*
Y503358D01*
Y498042D02*
X-104813D01*
X-113080Y503358D02*
X-104813D01*
X-74333Y380398D02*
X-53467D01*
X-47561Y386303D01*
Y413075D01*
X-80239D02*
X-47561D01*
X-80239Y386303D02*
Y413075D01*
Y386303D02*
X-74333Y380398D01*
X6767D02*
X27633D01*
X33539Y386303D01*
Y413075D01*
X861D02*
X33539D01*
X861Y386303D02*
Y413075D01*
Y386303D02*
X6767Y380398D01*
X47367D02*
X68233D01*
X74139Y386303D01*
Y413075D01*
X41461D02*
X74139D01*
X41461Y386303D02*
Y413075D01*
Y386303D02*
X47367Y380398D01*
X-66309Y573495D02*
Y597905D01*
X-44891Y573495D02*
Y597905D01*
X-66309Y573495D02*
X-44891D01*
X-66309Y597905D02*
X-44891D01*
X-100601Y316011D02*
Y342389D01*
X-73199Y316011D02*
Y342389D01*
X-100601D02*
X-73199D01*
X-100601Y316011D02*
X-73199D01*
X-193058Y484569D02*
X-187742D01*
X-193058Y476301D02*
X-187742D01*
Y484569D01*
X-193058Y476301D02*
Y484569D01*
X-180243Y476498D02*
Y484765D01*
X-185557Y476498D02*
Y484765D01*
X-180243D01*
X-185557Y476498D02*
X-180243D01*
X-178058Y476498D02*
Y484765D01*
X-172742Y476498D02*
Y484765D01*
X-178058Y476498D02*
X-172742D01*
X-178058Y484765D02*
X-172742D01*
X-128593Y475257D02*
Y482343D01*
X-115207Y475257D02*
Y482343D01*
X-128593D02*
X-115207D01*
X-128593Y475257D02*
X-115207D01*
X-165342Y476498D02*
Y484765D01*
X-170658Y476498D02*
Y484765D01*
X-165342D01*
X-170658Y476498D02*
X-165342D01*
X-163157Y476301D02*
X-157843D01*
X-163157Y484569D02*
X-157843D01*
X-163157Y476301D02*
Y484569D01*
X-157843Y476301D02*
Y484569D01*
X-155657Y476498D02*
X-150343D01*
X-155657Y484765D02*
X-150343D01*
X-155657Y476498D02*
Y484765D01*
X-150343Y476498D02*
Y484765D01*
X-148158Y484765D02*
X-142842D01*
X-148158Y476498D02*
X-142842D01*
Y484765D01*
X-148158Y476498D02*
Y484765D01*
X-140657Y476466D02*
X-135343D01*
X-140657Y484734D02*
X-135343D01*
X-140657Y476466D02*
Y484734D01*
X-135343Y476466D02*
Y484734D01*
X-117893Y520043D02*
X-104507D01*
X-117893Y512957D02*
X-104507D01*
X-117893D02*
Y520043D01*
X-104507Y512957D02*
Y520043D01*
M02*
