G04 DipTrace 3.2.0.1*
G04 BottomMask.gbr*
%MOIN*%
G04 #@! TF.FileFunction,Soldermask,Bot*
G04 #@! TF.Part,Single*
%ADD51C,0.043307*%
%ADD52C,0.11811*%
%ADD53C,0.066929*%
%ADD79C,0.055118*%
%ADD81R,0.055118X0.055118*%
%ADD91R,0.047244X0.051181*%
%ADD93R,0.051181X0.047244*%
%FSLAX26Y26*%
G04*
G70*
G90*
G75*
G01*
G04 BotMask*
%LPD*%
D93*
X1418701Y1456201D3*
X1351772D3*
X1414272Y1406201D3*
X1347343D3*
D91*
X1483858Y1000000D3*
Y933071D3*
D93*
X1918701Y1381201D3*
X1851772D3*
X1918701Y1331201D3*
X1851772D3*
D91*
X1750055Y1006241D3*
Y939312D3*
D93*
X1293701Y1193701D3*
X1360630D3*
X1293701Y1143701D3*
X1360630D3*
D91*
X1056201Y1506201D3*
Y1573130D3*
D81*
X1837546Y606283D3*
D79*
Y685024D3*
Y763764D3*
D51*
X1904475Y547228D3*
D81*
X743701Y531201D3*
D79*
X822441D3*
D51*
X684646Y464272D3*
D81*
X853937Y1277461D3*
D79*
X775197D3*
D51*
X912992Y1344390D3*
D81*
X2050024Y605037D3*
D79*
Y683777D3*
Y762517D3*
D51*
X2116953Y545982D3*
D93*
X1900039Y875005D3*
X1833110D3*
D91*
X2043774Y931249D3*
Y864320D3*
D52*
X2343701Y2093701D3*
X493701Y2081201D3*
Y493701D3*
X2343701D3*
D53*
X556430Y718772D3*
X2193759Y606283D3*
M02*
