G04 DipTrace 3.2.0.1*
G04 TopPaste.gbr*
%MOIN*%
G04 #@! TF.FileFunction,Paste,Top*
G04 #@! TF.Part,Single*
%ADD37R,0.031496X0.035433*%
%ADD58R,0.03937X0.031496*%
%ADD60R,0.234252X0.21063*%
%ADD62R,0.100394X0.031496*%
%ADD64R,0.037126X0.022126*%
%ADD66R,0.003937X0.03937*%
%ADD68R,0.03937X0.003937*%
%ADD70R,0.014567X0.011024*%
%ADD71R,0.023622X0.027559*%
%ADD73R,0.015748X0.059055*%
%ADD75R,0.031496X0.102362*%
%ADD77R,0.059055X0.015748*%
%ADD79R,0.102362X0.031496*%
%ADD81R,0.032874X0.019291*%
%ADD83R,0.007283X0.019291*%
%ADD85R,0.043307X0.051181*%
%ADD87R,0.023622X0.033465*%
%ADD89R,0.051181X0.051181*%
%ADD91R,0.019685X0.027559*%
%ADD93R,0.070866X0.031496*%
%ADD95R,0.035433X0.031496*%
%ADD102R,0.01378X0.051181*%
%FSLAX26Y26*%
G04*
G70*
G90*
G75*
G01*
G04 TopPaste*
%LPD*%
D102*
X1356282Y1055118D3*
X1228329D3*
X1356282Y1141732D3*
X1228329D3*
D93*
X1515748Y633858D3*
X1397638D3*
D91*
X1244094Y1511811D3*
Y1460630D3*
X1421260D3*
Y1511811D3*
D95*
X2342520Y1173228D3*
X2409449D3*
D37*
X1151541Y1590551D3*
Y1657480D3*
X826772Y799213D3*
Y732283D3*
D87*
X698785Y1606299D3*
X773588D3*
X736186Y1700787D3*
D85*
X1094488Y1334646D3*
X1019685D3*
X1094488Y1267717D3*
X1019685D3*
X1094488Y1192913D3*
X1019685D3*
X1094488Y1405512D3*
X1019685D3*
X921260Y1090551D3*
X996063D3*
D83*
X1944882Y901575D3*
D81*
X1909252D3*
D83*
X1956693Y728346D3*
D81*
X1921063D3*
D83*
X1787402D3*
D81*
X1823031D3*
D83*
X688976Y681102D3*
D81*
X653346D3*
D79*
X649606Y1850394D3*
Y2192913D3*
D77*
X517717Y1923228D3*
Y1972441D3*
Y2021654D3*
Y1923228D3*
Y2070866D3*
Y2120079D3*
D79*
X1500000Y1850394D3*
Y2192913D3*
D77*
X1368110Y1923228D3*
Y1972441D3*
Y2021654D3*
Y1923228D3*
Y2070866D3*
Y2120079D3*
D79*
X1220472Y1850394D3*
Y2192913D3*
D77*
X1088583Y1923228D3*
Y1972441D3*
Y2021654D3*
Y1923228D3*
Y2070866D3*
Y2120079D3*
D79*
X937008Y1850394D3*
Y2192913D3*
D77*
X805118Y1923228D3*
Y1972441D3*
Y2021654D3*
Y1923228D3*
Y2070866D3*
Y2120079D3*
D79*
X2311024Y1988367D3*
Y1645848D3*
D77*
X2442913Y1866320D3*
Y1817108D3*
Y1915533D3*
Y1767895D3*
Y1718682D3*
D75*
X503937Y1019685D3*
X750000D3*
D73*
X576772Y1151575D3*
X625984D3*
X675197D3*
D75*
X2476378Y1464567D3*
X2133858D3*
D73*
X2354331Y1332677D3*
X2305118D3*
X2403543D3*
X2255906D3*
X2206693D3*
D75*
X503937Y1314961D3*
X750000D3*
D73*
X576772Y1446850D3*
X625984D3*
X675197D3*
D71*
X1866142Y724409D3*
X1903543Y645669D3*
X1828740D3*
D37*
X2059055Y1133858D3*
Y1200787D3*
D95*
X1478329Y1137795D3*
X1411400D3*
X1478329Y1059055D3*
X1411400D3*
D37*
X1657480Y645669D3*
Y712598D3*
X1712598Y704724D3*
Y771654D3*
X1629921Y2192913D3*
Y2125984D3*
X1625984Y2039370D3*
Y1972441D3*
D95*
X1173228Y1204724D3*
X1240157D3*
X1173228Y1259843D3*
X1240157D3*
X1173228Y1314961D3*
X1240157D3*
X1173228Y1374016D3*
X1240157D3*
X1370079Y1397638D3*
X1303150D3*
X765714Y1551181D3*
X698785D3*
D37*
X856265Y1503937D3*
Y1437008D3*
D95*
X919291Y1029528D3*
X986220D3*
D70*
X2362205Y1110236D3*
Y1007087D3*
X2407874Y1110236D3*
Y1007087D3*
D68*
X1515748Y1492126D3*
Y1472441D3*
Y1452756D3*
Y1433071D3*
Y1413386D3*
Y1393701D3*
Y1374016D3*
Y1354331D3*
Y1334646D3*
Y1314961D3*
Y1295276D3*
Y1275591D3*
Y1255906D3*
Y1236220D3*
Y1216535D3*
Y1196850D3*
D66*
X1594488Y1118110D3*
X1614173D3*
X1633858D3*
X1653543D3*
X1673228D3*
X1692913D3*
X1712598D3*
X1732283D3*
X1751969D3*
X1771654D3*
X1791339D3*
X1811024D3*
X1830709D3*
X1850394D3*
X1870079D3*
X1889764D3*
D68*
X1968504Y1196850D3*
Y1216535D3*
Y1236220D3*
Y1255906D3*
Y1275591D3*
Y1295276D3*
Y1314961D3*
Y1334646D3*
Y1354331D3*
Y1374016D3*
Y1393701D3*
Y1413386D3*
Y1433071D3*
Y1452756D3*
Y1472441D3*
Y1492126D3*
D66*
X1889764Y1570866D3*
X1870079D3*
X1850394D3*
X1830709D3*
X1811024D3*
X1791339D3*
X1771654D3*
X1751969D3*
X1732283D3*
X1712598D3*
X1692913D3*
X1673228D3*
X1653543D3*
X1633858D3*
X1614173D3*
X1594488D3*
D64*
X1100360Y1551181D3*
Y1601181D3*
Y1651181D3*
Y1701181D3*
X859861D3*
Y1651181D3*
Y1601181D3*
Y1551181D3*
D62*
X834646Y858268D3*
Y678740D3*
D60*
X1098425Y768504D3*
D89*
X2173228Y1877953D3*
X2551181Y1775591D3*
X2161417Y1700787D3*
D58*
X1366142Y1460630D3*
Y1511811D3*
X1299213Y1460630D3*
Y1511811D3*
M02*
