G04*
G04 #@! TF.GenerationSoftware,Altium Limited,Altium Designer,22.2.1 (43)*
G04*
G04 Layer_Color=16711935*
%FSLAX25Y25*%
%MOIN*%
G70*
G04*
G04 #@! TF.SameCoordinates,8C13D30C-EDE4-482D-8627-422F1F93D62C*
G04*
G04*
G04 #@! TF.FilePolarity,Positive*
G04*
G01*
G75*
%ADD58C,0.05000*%
D58*
X468000Y259000D02*
X469013Y259026D01*
X470023Y259103D01*
X471029Y259231D01*
X472026Y259409D01*
X473013Y259639D01*
X473987Y259917D01*
X474946Y260245D01*
X475887Y260621D01*
X476808Y261044D01*
X477706Y261513D01*
X478579Y262027D01*
X479425Y262585D01*
X480242Y263184D01*
X481028Y263825D01*
X481779Y264504D01*
X482496Y265221D01*
X483175Y265973D01*
X483815Y266758D01*
X484415Y267575D01*
X484973Y268421D01*
X485487Y269294D01*
X485956Y270192D01*
X486379Y271113D01*
X486755Y272054D01*
X487083Y273013D01*
X487361Y273987D01*
X487591Y274974D01*
X487769Y275972D01*
X487897Y276977D01*
X487974Y277987D01*
X488000Y279000D01*
X284000D02*
X284026Y277987D01*
X284103Y276977D01*
X284231Y275971D01*
X284409Y274974D01*
X284639Y273987D01*
X284917Y273013D01*
X285245Y272054D01*
X285621Y271113D01*
X286044Y270192D01*
X286513Y269294D01*
X287027Y268421D01*
X287585Y267575D01*
X288184Y266758D01*
X288825Y265972D01*
X289504Y265221D01*
X290221Y264504D01*
X290973Y263825D01*
X291758Y263184D01*
X292575Y262585D01*
X293421Y262027D01*
X294294Y261513D01*
X295192Y261044D01*
X296113Y260621D01*
X297054Y260245D01*
X298013Y259917D01*
X298987Y259639D01*
X299974Y259409D01*
X300972Y259231D01*
X301977Y259103D01*
X302987Y259026D01*
X304000Y259000D01*
Y434000D02*
X302987Y433974D01*
X301977Y433897D01*
X300971Y433769D01*
X299974Y433591D01*
X298987Y433361D01*
X298013Y433083D01*
X297054Y432755D01*
X296113Y432379D01*
X295192Y431956D01*
X294294Y431487D01*
X293421Y430973D01*
X292575Y430415D01*
X291758Y429815D01*
X290972Y429175D01*
X290221Y428496D01*
X289504Y427779D01*
X288825Y427027D01*
X288184Y426242D01*
X287585Y425425D01*
X287027Y424579D01*
X286513Y423706D01*
X286044Y422808D01*
X285621Y421887D01*
X285245Y420946D01*
X284917Y419987D01*
X284639Y419013D01*
X284409Y418026D01*
X284231Y417029D01*
X284103Y416023D01*
X284026Y415013D01*
X284000Y414000D01*
X488000Y413515D02*
X487975Y414520D01*
X487901Y415523D01*
X487778Y416521D01*
X487606Y417511D01*
X487386Y418492D01*
X487118Y419461D01*
X486802Y420416D01*
X486441Y421354D01*
X486033Y422273D01*
X485581Y423171D01*
X485085Y424046D01*
X484548Y424896D01*
X483969Y425718D01*
X483350Y426510D01*
X482693Y427272D01*
X482000Y428000D01*
X481272Y428693D01*
X480510Y429350D01*
X479718Y429969D01*
X478896Y430548D01*
X478046Y431085D01*
X477171Y431581D01*
X476273Y432033D01*
X475354Y432441D01*
X474416Y432802D01*
X473461Y433118D01*
X472492Y433386D01*
X471511Y433606D01*
X470520Y433778D01*
X469523Y433901D01*
X468520Y433975D01*
X467515Y434000D01*
X304000Y259000D02*
X468000D01*
X304000Y434000D02*
X467515D01*
X488000Y279000D02*
X488000Y413515D01*
X284000Y279000D02*
X284000Y414000D01*
M02*
