G04 DipTrace 3.2.0.1*
G04 Bottom.gbr*
%MOIN*%
G04 #@! TF.FileFunction,Copper,L2,Bot*
G04 #@! TF.Part,Single*
G04 #@! TA.AperFunction,Conductor*
%ADD13C,0.015748*%
%ADD14C,0.007874*%
G04 #@! TA.AperFunction,CopperBalancing*
%ADD15C,0.011811*%
%ADD17C,0.025*%
%ADD18R,0.059055X0.059055*%
%ADD20R,0.043307X0.03937*%
%ADD23R,0.03937X0.043307*%
G04 #@! TA.AperFunction,ComponentPad*
%ADD28R,0.047244X0.047244*%
%ADD29C,0.047244*%
%ADD33C,0.059055*%
G04 #@! TA.AperFunction,ViaPad*
%ADD49C,0.027559*%
%ADD50C,0.062992*%
%FSLAX26Y26*%
G04*
G70*
G90*
G75*
G01*
G04 Bottom*
%LPD*%
X1008115Y731367D2*
D14*
X918759D1*
X914965Y727573D1*
X2192904Y1655608D2*
D13*
X2149525D1*
X2148070Y1654152D1*
X2139038D1*
X1373581Y1576795D2*
Y1540215D1*
X1364671Y1531304D1*
Y1429291D1*
X1363650Y1428270D1*
X1266337Y1392566D2*
Y1286471D1*
X1267357Y1285451D1*
X1319063D1*
X1344133Y1310521D1*
X1363650Y1428270D2*
Y1330038D1*
X1344133Y1310521D1*
X1678609Y1286549D2*
Y1232970D1*
X1678925Y1232654D1*
X1802026Y1728761D2*
Y1622243D1*
Y1582804D1*
X1806673Y1578157D1*
X1435643Y1875335D2*
Y1846856D1*
X1447178Y1835320D1*
X1457566D1*
X1550226Y1884879D2*
X1500667Y1835320D1*
X1457566D1*
X1549256Y1746786D2*
X1546100D1*
X1457566Y1835320D1*
X2139038Y1654152D2*
X2136718Y1651832D1*
X2079202D1*
X2334012Y1821240D2*
Y1856651D1*
X2338499Y1861138D1*
X2334012Y1821240D2*
Y1779513D1*
X2341017Y1772508D1*
X783823Y1752261D2*
Y1902168D1*
X774056Y1911934D1*
X2079202Y1651832D2*
X2076883D1*
X2003209Y1578157D1*
X1806673D1*
X1481711Y1212307D2*
Y1183875D1*
X1410848Y1113012D1*
X1413333D1*
X1678925Y1232654D2*
Y1150241D1*
X1641696Y1113012D1*
X1413333D1*
X2108142Y645954D2*
Y605395D1*
X2143219Y570318D1*
X1195337Y911161D2*
X1160417D1*
X1140039Y890783D1*
X1320160Y838839D2*
X1267660D1*
X1195337Y911161D1*
X1140039Y890783D2*
Y790433D1*
X1077631Y728025D1*
Y497277D1*
X1885008Y655106D2*
Y493178D1*
X1885928Y492259D1*
X1653672Y650167D2*
Y489950D1*
X1654685D1*
X1541301Y631832D2*
Y520491D1*
X1516198Y495388D1*
X1631176Y850469D2*
Y783949D1*
X1610030Y762803D1*
Y491555D1*
X542828Y1414533D2*
X488984D1*
X483266Y1420251D1*
X1950455Y1784692D2*
X2126378D1*
X2130115Y1788429D1*
X2069320Y1257916D2*
Y1232087D1*
X2025319Y1188085D1*
X2204904Y1229647D2*
X2152425D1*
X2147593Y1224815D1*
X2072482Y1004152D2*
Y941652D1*
X2025319Y1188085D2*
Y1134539D1*
X1968535Y1077756D1*
X1892640D1*
X1890206Y1075322D1*
X1950455Y1784692D2*
Y2055413D1*
X2101550Y2206508D1*
Y2342921D1*
X2098071Y2346400D1*
X1890206Y1075322D2*
X1836257D1*
X1678925Y1232654D1*
X2204904Y1229647D2*
Y1185277D1*
X2174988Y1155361D1*
X2069320Y1257916D2*
X2114492D1*
X2147593Y1224815D1*
X2072482Y1004152D2*
Y896713D1*
X2074138Y895056D1*
X2072916Y1057510D2*
X2072482Y1057076D1*
Y1004152D1*
X1102392Y2324080D2*
Y2438018D1*
X1096345Y2444066D1*
X1100434Y2179336D2*
Y2322122D1*
X1102392Y2324080D1*
X590449Y737077D2*
D14*
X638920D1*
X640739Y738896D1*
X589601Y622235D2*
X636117D1*
X640739Y626857D1*
X1393259Y2044441D2*
Y1967776D1*
X1386997Y1961514D1*
Y1950322D1*
X1359857Y1923181D1*
X1314374D1*
X1207160Y2030395D1*
X1162604D1*
X1160371Y2028163D1*
X1438259Y1961664D2*
Y2066370D1*
X1393259Y2111370D1*
X1403688Y2217677D2*
Y2121799D1*
X1393259Y2111370D1*
X1434311Y903734D2*
X1416781D1*
X1383497Y937017D1*
X2341017Y1705579D2*
X2292669D1*
X2288375Y1701285D1*
X2271570Y1861138D2*
X2221902D1*
X2217484Y1865555D1*
X2002130Y1841651D2*
Y1840625D1*
X2152304D1*
X2172429Y1820500D1*
X2217484Y1865555D1*
X2103781Y1205738D2*
Y1159639D1*
X2108059Y1155361D1*
X2038765Y1563761D2*
X2058060D1*
X2079202Y1584903D1*
X2103192Y1426573D2*
X1935247D1*
X1931684Y1423010D1*
X2139411Y1004152D2*
X2153470Y990093D1*
X2187549D1*
X2313486Y948570D2*
Y927715D1*
X2270824Y885054D1*
Y674900D1*
X2249109Y653185D1*
X1981969Y1137501D2*
X1894955D1*
X1890206Y1142251D1*
X2214592Y1022163D2*
Y1012723D1*
X2215399Y1011916D1*
Y931954D1*
X2193648Y910203D1*
X1885008Y722035D2*
X1948678D1*
X1956440Y729797D1*
X1653672Y717096D2*
X1711062D1*
X1723593Y729627D1*
X1152718Y1842328D2*
Y1707264D1*
X1151594Y1706140D1*
X3193125Y2390697D2*
Y2455234D1*
X3231594Y2493703D1*
X2108142Y712883D2*
X2018266D1*
X1956440Y651056D1*
X2428744Y889857D2*
D13*
X2507034D1*
X2509600Y892423D1*
X2376269Y2312417D2*
X2487639D1*
X2494003Y2318781D1*
D14*
X2578667D1*
X2589038Y2329152D1*
X2651538D1*
X2714038D1*
X3226538Y1829152D2*
D13*
Y1766652D1*
X2440163Y707646D2*
D14*
X2523045D1*
X2551538Y679152D1*
X2639038D1*
X2439230Y509055D2*
X2543941D1*
X2551538Y516652D1*
X2639038D1*
X1549256Y1813715D2*
X1602429D1*
X1617995Y1829281D1*
X1694474Y1832770D2*
X1621484D1*
X1617995Y1829281D1*
X1550226Y1951808D2*
X1653337D1*
X1691782Y1913364D1*
X1692765Y2009818D2*
Y1914346D1*
X1691782Y1913364D1*
X3086689Y2318575D2*
X2908654D1*
X2874428Y2284349D1*
Y2186490D1*
X2878224Y2182693D1*
X3193125Y2323768D2*
X3091882D1*
X3086689Y2318575D1*
Y2476055D2*
Y2477387D1*
X2904298D1*
X2885694Y2458783D1*
X3164665Y2493703D2*
X3104337D1*
X3086689Y2476055D1*
X3092673Y1654686D2*
X2912115D1*
X2896198Y1638769D1*
Y1514627D1*
X2896133Y1514562D1*
X2897256Y1403717D2*
Y1513438D1*
X3092673Y1812167D2*
X2905222D1*
X2885528Y1792472D1*
X3029930Y1869642D2*
X3087406Y1812167D1*
X3092673D1*
X3119765Y1063465D2*
Y1056673D1*
X2922336D1*
X2911668Y1046005D1*
X2899806Y1118639D2*
Y1057867D1*
X2911668Y1046005D1*
X3119765Y905984D2*
X2939873D1*
X2916668Y882780D1*
Y762412D1*
X2916747Y762333D1*
X2841080Y836520D2*
X2842560D1*
X2916747Y762333D1*
X2937075Y2021864D2*
Y2019411D1*
X2958857Y2041193D1*
Y2149262D1*
X3049429Y2239835D1*
X3086689D1*
X2340644Y1945533D2*
X2375150D1*
X2416312Y1986696D1*
X2901907D1*
X2937075Y2021864D1*
X3086689Y2397315D2*
Y2404780D1*
X3046898Y2364988D1*
X2313406D1*
X2226012Y2277594D1*
Y2009327D1*
X2224186Y2007501D1*
X2158983Y2036992D2*
X2194696D1*
X2224186Y2007501D1*
X3092673Y1575946D2*
X3057496D1*
X2997753Y1516203D1*
Y1411147D1*
X2940328Y1353722D1*
X2353685D1*
X2341646Y1365761D1*
X2341315Y1400723D2*
Y1366092D1*
X2341646Y1365761D1*
X3092673Y1733427D2*
X2932455D1*
X2833537Y1634508D1*
X2599035D1*
X2520517Y1555990D1*
X2334638D1*
X2238608Y1459959D1*
Y1462896D1*
X2239552Y1461951D1*
X3159609Y1766652D2*
X3125899D1*
X3092673Y1733427D1*
X3119765Y984724D2*
Y951808D1*
X2360831D1*
X2287093Y878071D1*
Y649701D1*
X2300612Y636182D1*
X3203866Y938165D2*
X3166324D1*
X3119765Y984724D1*
Y827244D2*
X3088043D1*
X3027769Y766970D1*
Y669335D1*
X3005886Y647451D1*
X2408373D1*
X2318969Y736856D1*
X3205110Y795664D2*
X3151345D1*
X3119765Y827244D1*
X743984Y1339445D2*
X771356D1*
X830651Y1398740D1*
X1005164D1*
X1006335Y1397570D1*
X751986Y1219760D2*
X775354D1*
X908514Y1352920D1*
X1005815D1*
X1006037Y1352698D1*
X748550Y1085608D2*
X786740D1*
X871461Y1170328D1*
Y1258718D1*
X920726Y1307983D1*
X1004164D1*
X1004520Y1308339D1*
X742881Y964404D2*
X777109D1*
X910583Y1097878D1*
Y1236982D1*
X938114Y1264513D1*
X1003427D1*
X1004458Y1263482D1*
X2485169Y1402794D2*
Y1510035D1*
X2482904Y1512301D1*
X2451832Y2530014D2*
Y2478301D1*
X2470390Y2459743D1*
X2494929Y1130220D2*
Y1055259D1*
X2502823Y1047365D1*
X2615664Y1721591D2*
X2546339D1*
X2474749Y1793180D1*
X2509600Y825493D2*
Y768134D1*
X2505764Y764298D1*
X1333182Y2043948D2*
Y1968202D1*
X1338442Y1962942D1*
X675951Y964404D2*
Y909573D1*
X669496Y903118D1*
X681621Y1085608D2*
Y1042664D1*
X669496Y1030539D1*
X685056Y1219760D2*
Y1173522D1*
X666462Y1154928D1*
X677055Y1339445D2*
Y1294459D1*
X664945Y1282349D1*
X609757Y1414533D2*
X660182D1*
X662650Y1412066D1*
X2494003Y2251852D2*
Y2207585D1*
X2468860Y2182442D1*
X2048060Y1941126D2*
X2138514D1*
X2138937Y1940703D1*
X2058944Y780600D2*
X2035970D1*
X1992684Y823886D1*
X2144269Y1416038D2*
X2142113D1*
X2129601Y1403526D1*
Y1375134D1*
X2127370Y1372903D1*
X2395546Y2083281D2*
X2388563D1*
Y2183999D1*
X2390119Y2182442D1*
X2376269Y2245488D2*
Y2196293D1*
X2390119Y2182442D1*
X3315808Y2474580D2*
Y2548795D1*
X3244769Y2619835D1*
X2441341D1*
X2388117Y2566610D1*
Y2463276D1*
X2391650Y2459743D1*
X2307567Y2465972D2*
X2385420D1*
X2391650Y2459743D1*
X2256728Y2210799D2*
Y2050345D1*
X2256110Y2049727D1*
X2404164Y1512301D2*
Y1402976D1*
X2410567Y1396573D1*
X3409098Y1658462D2*
Y1660773D1*
X3318756D1*
Y1653234D1*
X3226538Y1896081D2*
X3169106Y1953513D1*
X2472274D1*
X2396009Y1877248D1*
Y1793180D1*
X3226538Y1896081D2*
X3233388D1*
X3318756Y1810714D1*
X2238335Y1506238D2*
X2261596D1*
X2342513Y1587155D1*
X2371580D1*
X3351283Y1060661D2*
X3367917D1*
X3216110Y1212469D1*
X2496747D1*
X2419647Y1135369D1*
Y1051801D1*
X2424083Y1047365D1*
X2338165Y1044329D2*
X2421047D1*
X2424083Y1047365D1*
X2428744Y822928D2*
X2423436D1*
Y764298D1*
X2427024D1*
X2428744Y822928D2*
Y823836D1*
X2381323Y871257D1*
X3315808Y2395840D2*
X3256356D1*
X3239163Y2378647D1*
Y2008010D1*
X3201706Y1970554D1*
X2424564D1*
X2351427Y1897416D1*
X2200636D1*
X2172701Y1869480D1*
X3318756Y1731974D2*
X3316860D1*
X3264038Y1679152D1*
Y1418385D1*
X3132642Y1286988D1*
X2234688D1*
X2207874Y1313802D1*
X3351283Y981921D2*
X3336988D1*
X3292194Y937127D1*
Y672841D1*
X3216304Y596951D1*
X2415529D1*
X2327592Y684888D1*
X3351283Y824441D2*
X3331010D1*
X3310324Y803755D1*
Y635421D1*
X3238188Y563285D1*
X2275310D1*
X2192963Y645631D1*
Y674664D1*
X978167Y1222518D2*
X1294871D1*
X1542392Y1470039D1*
Y1517478D1*
X1541224D1*
X980707Y1170685D2*
X1348365D1*
X1548995Y1371315D1*
X1549588D1*
X1897524Y2505306D2*
Y2450479D1*
X2018349Y2329654D1*
X1896979Y2335433D2*
X1894117D1*
X1958966Y2270584D1*
X2014459D1*
X2031373Y2253671D1*
X1896129Y2166382D2*
X1993530D1*
X2030840Y2203692D1*
X1318864Y989799D2*
X1377655D1*
X1381097Y986357D1*
X1194823Y992951D2*
X1315711D1*
X1318864Y989799D1*
Y907064D1*
X1320160Y905768D1*
X1630720Y995412D2*
X1521083D1*
X1520445Y996050D1*
X1631176Y917398D2*
Y994957D1*
X1630720Y995412D1*
X1631176Y917398D2*
X1560854D1*
X1532302Y888845D1*
X857551Y929364D2*
X893606D1*
X902408Y938165D1*
D49*
X1931684Y1423010D3*
X2103192Y1426573D3*
X1982861Y1506709D3*
D50*
X562930Y2469265D3*
X667533Y2471186D3*
X563672Y2388630D3*
X667533Y2383303D3*
X563672Y2292759D3*
Y2106341D3*
Y2007806D3*
Y1914597D3*
D49*
X2340644Y1945533D3*
D50*
X672858Y1997154D3*
Y1911934D3*
X766067Y2468522D3*
Y2380640D3*
X883244Y2471186D3*
X774056Y1994491D3*
Y1911934D3*
X885907Y1917261D3*
X568997Y2188898D3*
D49*
X1407140Y1730016D3*
X2217484Y1865555D3*
X2172701Y1869480D3*
X2280617Y1968341D3*
X2224186Y2007501D3*
X978167Y1222518D3*
X2214592Y1022163D3*
X2074138Y895056D3*
X2395546Y2083281D3*
X2239552Y1461951D3*
X980707Y1170685D3*
X1541224Y1517478D3*
X1549588Y1371315D3*
X2294033Y1397600D3*
X2341646Y1365761D3*
X2207874Y1313802D3*
X525245Y1779449D3*
X585449Y1778100D3*
X534713Y1575155D3*
X589508D3*
X534713Y1621832D3*
X589508Y1619803D3*
X526594Y1735482D3*
X585449Y1733451D3*
X2410567Y1396573D3*
X2187549Y990093D3*
X2318969Y736856D3*
X2192963Y674664D3*
X2300612Y636182D3*
X2327592Y684888D3*
X2143219Y570318D3*
X2227412Y833008D3*
X2072916Y1057510D3*
X2058944Y780600D3*
X1937395Y1025042D3*
X2144269Y1416038D3*
X2069320Y1257916D3*
X2147593Y1224815D3*
X2281528Y1439791D3*
X2103781Y1205738D3*
X2130115Y1788429D3*
X2139038Y1654152D3*
X2306702Y2052371D3*
X2138937Y1940703D3*
X2288375Y1701285D3*
X1381097Y986357D3*
X1140039Y890783D3*
X1383497Y937017D3*
X1532302Y888845D3*
X1373581Y1576795D3*
X1806673Y1578157D3*
X1344133Y1310521D3*
X1413333Y1113012D3*
X1678925Y1232654D3*
X857551Y929364D3*
X779022Y888220D3*
X1457566Y1835320D3*
X662650Y1412066D3*
X534490Y1462862D3*
X664945Y1282349D3*
X537524Y1332407D3*
X666462Y1154928D3*
X540558Y1204986D3*
X669496Y1030539D3*
X545108Y1079081D3*
X669496Y903118D3*
X546625Y954694D3*
X1006335Y1397570D3*
X1006037Y1352698D3*
X1004520Y1308339D3*
X1004458Y1263482D3*
X1049314Y1261239D3*
X640739Y738896D3*
Y626857D3*
X1338442Y1962942D3*
X1386997Y1961514D3*
X1438259Y1961664D3*
X1691782Y1913364D3*
X1617995Y1829281D3*
X2334012Y1821240D3*
X1376226Y1673874D3*
X1456286Y1583316D3*
X1805433Y1534668D3*
X1578558Y2059469D3*
X1520094Y1279966D3*
X913739Y1453049D3*
X1451454Y1081504D3*
X1023999Y900892D3*
X2018349Y2329654D3*
X2031373Y2253671D3*
X2030840Y2203692D3*
X1041718Y1626997D3*
X2439230Y509055D3*
X2440163Y707646D3*
X1077631Y497277D3*
X1516198Y495388D3*
X1610030Y491555D3*
X1654685Y489950D3*
X1885928Y492259D3*
X483266Y1420251D3*
X3390286Y2359736D3*
X2700404Y1422088D3*
X3384614Y1844282D3*
X2098071Y2346400D3*
X1897252Y1795138D3*
X2002130Y1841651D3*
X1933598Y1241804D3*
X1981969Y1137501D3*
X2381323Y871257D3*
X2256728Y2210799D3*
X2256110Y2049727D3*
X2589038Y2329152D3*
X2651538D3*
X2714038D3*
X2589038Y2404152D3*
X2651538D3*
X2714038D3*
X2193648Y910203D3*
X2313486Y948570D3*
X2249109Y653185D3*
X2238335Y1506238D3*
X2371580Y1587155D3*
X2038765Y1563761D3*
X2551538Y679152D3*
X2639038D3*
X2551538Y516652D3*
X2639038D3*
X590117Y2692552D2*
D17*
X3350676D1*
X604113Y2667684D2*
X3336214D1*
X609567Y2642815D2*
X2414888D1*
X3271205D2*
X3330472D1*
X608059Y2617946D2*
X2390020D1*
X3296072D2*
X3331693D1*
X599196Y2593077D2*
X2365152D1*
X3320940D2*
X3340198D1*
X434685Y2568209D2*
X452022D1*
X579890D2*
X2256136D1*
X2641975D2*
X2912278D1*
X2977205D2*
X3246970D1*
X3345234D2*
X3358929D1*
X3489021D2*
X3502323D1*
X434685Y2543340D2*
X460025D1*
X1000776D2*
X1190915D1*
X1277371D2*
X1836256D1*
X1958812D2*
X2256136D1*
X2659953D2*
X2893332D1*
X2996188D2*
X3271839D1*
X3351478D2*
X3502323D1*
X434685Y2518471D2*
X459344D1*
X1001493D2*
X1180185D1*
X1288101D2*
X1836256D1*
X1958812D2*
X2256136D1*
X2662034D2*
X2890748D1*
X2998736D2*
X3052622D1*
X3351478D2*
X3502323D1*
X434685Y2493602D2*
X459344D1*
X1001566D2*
X1075367D1*
X1285660D2*
X1836256D1*
X1958812D2*
X2256136D1*
X2650803D2*
X2685921D1*
X3367625D2*
X3502323D1*
X434685Y2468734D2*
X459344D1*
X1001638D2*
X1047091D1*
X1266929D2*
X1836256D1*
X1958812D2*
X2256136D1*
X2604512D2*
X2673793D1*
X3370854D2*
X3502323D1*
X434685Y2443865D2*
X459344D1*
X1001709D2*
X1040990D1*
X1230471D2*
X1862487D1*
X1953573D2*
X2256136D1*
X2604512D2*
X2674976D1*
X2941070D2*
X3042251D1*
X3361345D2*
X3502323D1*
X434685Y2418996D2*
X459344D1*
X1001781D2*
X1047306D1*
X1230471D2*
X1879568D1*
X1978441D2*
X2256136D1*
X2604512D2*
X2690909D1*
X2941070D2*
X3035971D1*
X3365831D2*
X3502323D1*
X434685Y2394127D2*
X459344D1*
X1001888D2*
X1062772D1*
X1230471D2*
X1835717D1*
X2003308D2*
X2295034D1*
X3371142D2*
X3502323D1*
X434685Y2369259D2*
X459344D1*
X1001961D2*
X1048992D1*
X1222719D2*
X1835717D1*
X2037650D2*
X2059133D1*
X2137013D2*
X2268230D1*
X3364001D2*
X3502323D1*
X434685Y2344390D2*
X459344D1*
X1002031D2*
X1048992D1*
X1222719D2*
X1835717D1*
X2143543D2*
X2243361D1*
X3363606D2*
X3502323D1*
X434685Y2319521D2*
X459344D1*
X1002104D2*
X1048992D1*
X1222719D2*
X1835717D1*
X2141176D2*
X2218493D1*
X2545446D2*
X2860175D1*
X3371106D2*
X3502323D1*
X434685Y2294652D2*
X459344D1*
X1002176D2*
X1048992D1*
X1222719D2*
X1835717D1*
X2141176D2*
X2195062D1*
X2292499D2*
X2324819D1*
X2545446D2*
X2578592D1*
X2634727D2*
X2840366D1*
X3366190D2*
X3502323D1*
X434685Y2269783D2*
X459344D1*
X1002247D2*
X1060798D1*
X1140042D2*
X1342417D1*
X1464974D2*
X1910320D1*
X2141176D2*
X2190324D1*
X2267631D2*
X2324819D1*
X2545446D2*
X2556344D1*
X2656975D2*
X2838752D1*
X3132764D2*
X3203479D1*
X3360843D2*
X3502323D1*
X434685Y2244915D2*
X459344D1*
X1002354D2*
X1060798D1*
X1140042D2*
X1342417D1*
X1464974D2*
X1935440D1*
X2141176D2*
X2190324D1*
X2285466D2*
X2324819D1*
X2660958D2*
X2838752D1*
X3141806D2*
X3203479D1*
X3370783D2*
X3502323D1*
X434685Y2220046D2*
X459344D1*
X1002427D2*
X1039160D1*
X1161717D2*
X1342417D1*
X1464974D2*
X1834856D1*
X1957412D2*
X1988549D1*
X2141176D2*
X2190324D1*
X2301255D2*
X2324819D1*
X2652094D2*
X2680825D1*
X3138218D2*
X3203479D1*
X3367912D2*
X3502323D1*
X434685Y2195177D2*
X459344D1*
X1002499D2*
X1039160D1*
X1161717D2*
X1342417D1*
X1464974D2*
X1834856D1*
X2139417D2*
X2190324D1*
X2299318D2*
X2324819D1*
X2602969D2*
X2666866D1*
X3142058D2*
X3203479D1*
X3371177D2*
X3502323D1*
X434685Y2170308D2*
X459344D1*
X1002571D2*
X1039160D1*
X1161717D2*
X1342417D1*
X1464974D2*
X1834856D1*
X2120362D2*
X2190324D1*
X2292428D2*
X2336157D1*
X2602969D2*
X2666831D1*
X3142058D2*
X3203479D1*
X3371177D2*
X3502323D1*
X434685Y2145440D2*
X459344D1*
X1002642D2*
X1039160D1*
X1161717D2*
X1281738D1*
X1444699D2*
X1834856D1*
X2095495D2*
X2107539D1*
X2292428D2*
X2349866D1*
X2602969D2*
X2680718D1*
X3004478D2*
X3031307D1*
X3184760D2*
X3203479D1*
X3411512D2*
X3502323D1*
X434685Y2120571D2*
X459344D1*
X1002714D2*
X1039160D1*
X1161717D2*
X1281738D1*
X1444699D2*
X1834856D1*
X2070627D2*
X2107539D1*
X2292428D2*
X2352881D1*
X2424266D2*
X2923188D1*
X2994537D2*
X3031307D1*
X3433222D2*
X3502323D1*
X434685Y2095702D2*
X459344D1*
X1002822D2*
X1281738D1*
X1458371D2*
X1935762D1*
X2045760D2*
X2107539D1*
X2292428D2*
X2351840D1*
X2439230D2*
X2923188D1*
X2994537D2*
X3099522D1*
X3274865D2*
X3328463D1*
X3437025D2*
X3502323D1*
X434685Y2070833D2*
X459344D1*
X1002894D2*
X1099087D1*
X1221643D2*
X1281738D1*
X1473657D2*
X1914196D1*
X2020891D2*
X2107539D1*
X2296123D2*
X2351875D1*
X2439230D2*
X2923188D1*
X2994537D2*
X3109534D1*
X3274865D2*
X3337577D1*
X3427911D2*
X3502323D1*
X434685Y2045965D2*
X459344D1*
X1002965D2*
X1099087D1*
X1241021D2*
X1281738D1*
X1473945D2*
X1631500D1*
X1754056D2*
X1910823D1*
X2099478D2*
X2107570D1*
X2301470D2*
X2371612D1*
X2419457D2*
X2816755D1*
X2994537D2*
X3203479D1*
X3274865D2*
X3502323D1*
X434685Y2021096D2*
X459344D1*
X1003037D2*
X1099087D1*
X1265888D2*
X1281738D1*
X1473945D2*
X1631500D1*
X1754056D2*
X1910823D1*
X2099478D2*
X2107570D1*
X2290740D2*
X2816755D1*
X2990483D2*
X3202833D1*
X3274865D2*
X3502323D1*
X434685Y1996227D2*
X459344D1*
X1003109D2*
X1099087D1*
X1473945D2*
X1498801D1*
X1601656D2*
X1631500D1*
X1754056D2*
X1910823D1*
X2099478D2*
X2107570D1*
X2315895D2*
X2376420D1*
X3272676D2*
X3502323D1*
X434685Y1971358D2*
X459344D1*
X1003180D2*
X1099087D1*
X1482665D2*
X1498801D1*
X1754056D2*
X1910823D1*
X2171642D2*
X2198327D1*
X3251934D2*
X3502323D1*
X434685Y1946490D2*
X459344D1*
X1003287D2*
X1172972D1*
X1481014D2*
X1498801D1*
X1728436D2*
X1910823D1*
X2184056D2*
X2241064D1*
X3277987D2*
X3502323D1*
X434685Y1921621D2*
X459344D1*
X1003360D2*
X1158762D1*
X1489052D2*
X1498801D1*
X1736509D2*
X1910823D1*
X3277987D2*
X3502323D1*
X434685Y1896752D2*
X459344D1*
X1003432D2*
X1158798D1*
X1264740D2*
X1291820D1*
X1489052D2*
X1498801D1*
X1733962D2*
X1910823D1*
X2099478D2*
X2136929D1*
X2464958D2*
X2573138D1*
X2651951D2*
X2905891D1*
X3150274D2*
X3175094D1*
X3282150D2*
X3502323D1*
X434685Y1871883D2*
X459344D1*
X1003503D2*
X1027642D1*
X1250423D2*
X1315324D1*
X1755743D2*
X1910823D1*
X2440091D2*
X2559394D1*
X2665694D2*
X2891609D1*
X3150274D2*
X3175094D1*
X3307017D2*
X3349097D1*
X3420123D2*
X3502323D1*
X434685Y1847014D2*
X462644D1*
X999054D2*
X1018814D1*
X1208079D2*
X1315324D1*
X1755743D2*
X1910823D1*
X2431694D2*
X2559717D1*
X2665371D2*
X2891573D1*
X3150274D2*
X3175094D1*
X3430064D2*
X3502323D1*
X434685Y1822146D2*
X744192D1*
X823437D2*
X1022617D1*
X1208079D2*
X1405430D1*
X1755743D2*
X1899017D1*
X2650588D2*
X2681794D1*
X3150274D2*
X3175094D1*
X3423999D2*
X3502323D1*
X434685Y1797277D2*
X722554D1*
X845110D2*
X1043825D1*
X1208079D2*
X1434962D1*
X1755743D2*
X1899017D1*
X2198626D2*
X2289580D1*
X2608854D2*
X2672895D1*
X3372398D2*
X3502323D1*
X434685Y1772408D2*
X722554D1*
X845110D2*
X1465465D1*
X1600688D2*
X1681702D1*
X1855429D2*
X1899017D1*
X2244343D2*
X2289580D1*
X2608854D2*
X2676627D1*
X3357685D2*
X3502323D1*
X434685Y1747539D2*
X722554D1*
X845110D2*
X1090331D1*
X1212887D2*
X1490332D1*
X1600688D2*
X1681702D1*
X1855429D2*
X1899017D1*
X2001873D2*
X2114214D1*
X2244343D2*
X2289580D1*
X2425198D2*
X2445570D1*
X2758420D2*
X2776421D1*
X3371787D2*
X3502323D1*
X434685Y1722671D2*
X722554D1*
X845110D2*
X1090331D1*
X1212887D2*
X1497832D1*
X1600688D2*
X1681702D1*
X1855429D2*
X1899017D1*
X2001873D2*
X2141487D1*
X2392437D2*
X2495843D1*
X2735992D2*
X2872268D1*
X3373295D2*
X3502323D1*
X434685Y1697802D2*
X722554D1*
X845110D2*
X1090331D1*
X1212887D2*
X1497832D1*
X1600688D2*
X1681702D1*
X1855429D2*
X1899017D1*
X2001873D2*
X2027769D1*
X2130626D2*
X2141487D1*
X2392437D2*
X2520710D1*
X2735992D2*
X2847400D1*
X3134235D2*
X3234088D1*
X3460529D2*
X3502323D1*
X434685Y1672933D2*
X1090331D1*
X1212887D2*
X1762406D1*
X1841650D2*
X1899017D1*
X2001873D2*
X2027769D1*
X2244343D2*
X2253517D1*
X2392437D2*
X2562264D1*
X2735992D2*
X2822533D1*
X3144785D2*
X3228346D1*
X3460529D2*
X3502323D1*
X434685Y1648064D2*
X1090331D1*
X1212887D2*
X1681702D1*
X1855429D2*
X2018117D1*
X2244343D2*
X2563161D1*
X3147619D2*
X3228346D1*
X3460529D2*
X3502323D1*
X434685Y1623196D2*
X1681702D1*
X1855429D2*
X1993249D1*
X2244343D2*
X2345559D1*
X2397568D2*
X2538294D1*
X3137643D2*
X3228346D1*
X3460529D2*
X3502323D1*
X434685Y1598327D2*
X1333841D1*
X1413336D2*
X1681702D1*
X2130626D2*
X2304257D1*
X2415618D2*
X2513427D1*
X2671580D2*
X2860497D1*
X3143062D2*
X3228346D1*
X3460529D2*
X3502323D1*
X434685Y1573458D2*
X1311270D1*
X1484997D2*
X1681702D1*
X2130626D2*
X2279390D1*
X2674881D2*
X2860497D1*
X3147978D2*
X3228346D1*
X3460529D2*
X3502323D1*
X434685Y1548589D2*
X1311270D1*
X1484997D2*
X1508992D1*
X1573451D2*
X1772920D1*
X2130626D2*
X2228255D1*
X2665228D2*
X2695681D1*
X3148050D2*
X3228346D1*
X3460529D2*
X3502323D1*
X434685Y1523720D2*
X1311270D1*
X1484997D2*
X1496146D1*
X1586298D2*
X2020521D1*
X2057028D2*
X2196533D1*
X2617000D2*
X2684091D1*
X3148050D2*
X3228346D1*
X3374121D2*
X3502323D1*
X434685Y1498852D2*
X1311270D1*
X1484997D2*
X1499949D1*
X1582495D2*
X2193446D1*
X2617000D2*
X2685671D1*
X3148050D2*
X3228346D1*
X3374121D2*
X3502323D1*
X434685Y1473983D2*
X1310265D1*
X1483992D2*
X1496899D1*
X1578081D2*
X2195743D1*
X2617000D2*
X2702248D1*
X3199795D2*
X3228346D1*
X3424430D2*
X3502323D1*
X434685Y1449114D2*
X448865D1*
X687041D2*
X1310265D1*
X1570652D2*
X1894962D1*
X2174297D2*
X2195995D1*
X2605517D2*
X2776924D1*
X3212928D2*
X3228346D1*
X3438676D2*
X3502323D1*
X706419Y1424245D2*
X806917D1*
X1042581D2*
X1146024D1*
X1546037D2*
X1886171D1*
X2189009D2*
X2216341D1*
X2605517D2*
X2776924D1*
X3033436D2*
X3106987D1*
X3212211D2*
X3220475D1*
X3299732D2*
X3332698D1*
X3438676D2*
X3502323D1*
X434685Y1399377D2*
X443123D1*
X706274D2*
X781870D1*
X1051839D2*
X1146024D1*
X1584719D2*
X1893240D1*
X2186425D2*
X2248529D1*
X2605517D2*
X2776924D1*
X3031282D2*
X3122453D1*
X3293740D2*
X3346980D1*
X3424394D2*
X3502323D1*
X434685Y1374508D2*
X489415D1*
X1045631D2*
X1146024D1*
X1594982D2*
X2075927D1*
X2178818D2*
X2255239D1*
X3010542D2*
X3170717D1*
X3269589D2*
X3502323D1*
X434685Y1349639D2*
X623657D1*
X1051445D2*
X1146024D1*
X1589240D2*
X2075927D1*
X2234188D2*
X2299269D1*
X2985675D2*
X3145849D1*
X3244722D2*
X3502323D1*
X434685Y1324770D2*
X623657D1*
X1046780D2*
X1147028D1*
X1551886D2*
X1625220D1*
X1798948D2*
X2075927D1*
X2251986D2*
X2326075D1*
X2959047D2*
X3120982D1*
X3219854D2*
X3502323D1*
X434685Y1299902D2*
X623155D1*
X1049219D2*
X1147028D1*
X1527017D2*
X1625220D1*
X1798948D2*
X2057409D1*
X3194987D2*
X3502323D1*
X434685Y1275033D2*
X620033D1*
X1048394D2*
X1147028D1*
X1502150D2*
X1625220D1*
X1798948D2*
X2027339D1*
X3170118D2*
X3502323D1*
X434685Y1250164D2*
X631659D1*
X1602051D2*
X1625220D1*
X1798948D2*
X2024504D1*
X2325226D2*
X3502323D1*
X434685Y1225295D2*
X631659D1*
X1602051D2*
X1634049D1*
X1741282D2*
X1904974D1*
X2325226D2*
X2460138D1*
X3252724D2*
X3502323D1*
X434685Y1200427D2*
X631659D1*
X1602051D2*
X1639287D1*
X1766150D2*
X1904974D1*
X2325226D2*
X2435270D1*
X3277592D2*
X3502323D1*
X434685Y1175558D2*
X626205D1*
X1402678D2*
X1418385D1*
X1602051D2*
X1639287D1*
X1791017D2*
X1838768D1*
X2243230D2*
X2410403D1*
X2615277D2*
X3203587D1*
X3302459D2*
X3502323D1*
X434685Y1150689D2*
X621146D1*
X1377811D2*
X1390035D1*
X1503513D2*
X1624360D1*
X1815886D2*
X1838768D1*
X2228374D2*
X2286745D1*
X2680264D2*
X2779471D1*
X3008999D2*
X3228454D1*
X3327327D2*
X3502323D1*
X434685Y1125820D2*
X628214D1*
X946268D2*
X1369761D1*
X1709381D2*
X1730756D1*
X2228374D2*
X2286745D1*
X2693828D2*
X2779471D1*
X3023604D2*
X3253322D1*
X3352196D2*
X3502323D1*
X434685Y1100951D2*
X628214D1*
X946268D2*
X1143404D1*
X1246260D2*
X1267420D1*
X1684621D2*
X1755623D1*
X2046728D2*
X2286745D1*
X2693361D2*
X2779471D1*
X3023819D2*
X3079966D1*
X3159533D2*
X3278190D1*
X3388008D2*
X3502323D1*
X434685Y1076083D2*
X628214D1*
X938122D2*
X1143404D1*
X1246260D2*
X1267420D1*
X1370311D2*
X1388744D1*
X1682144D2*
X1780491D1*
X2021861D2*
X2031609D1*
X2114227D2*
X2286745D1*
X2678398D2*
X2708205D1*
X3173600D2*
X3298213D1*
X3404370D2*
X3502323D1*
X434685Y1051214D2*
X628214D1*
X913362D2*
X1143404D1*
X1246260D2*
X1267420D1*
X1370311D2*
X1469017D1*
X1682144D2*
X1805360D1*
X1996993D2*
X2019085D1*
X2248828D2*
X2286745D1*
X2636916D2*
X2699091D1*
X3255307D2*
X3296778D1*
X3405806D2*
X3502323D1*
X434685Y1026345D2*
X624159D1*
X888495D2*
X1143404D1*
X1246260D2*
X1267420D1*
X1399486D2*
X1469017D1*
X1682144D2*
X1838768D1*
X1982890D2*
X2019085D1*
X2259916D2*
X2286745D1*
X2636916D2*
X2702608D1*
X3255307D2*
X3308547D1*
X3394000D2*
X3502323D1*
X434685Y1001476D2*
X622545D1*
X863627D2*
X1143404D1*
X1423886D2*
X1469017D1*
X1682144D2*
X1898909D1*
X1975892D2*
X2019085D1*
X2254820D2*
X2286745D1*
X2452829D2*
X2474060D1*
X2636916D2*
X2723169D1*
X2785189D2*
X2801934D1*
X2967050D2*
X3067119D1*
X3255307D2*
X3299648D1*
X3402899D2*
X3502323D1*
X434685Y976608D2*
X622545D1*
X838759D2*
X850983D1*
X953840D2*
X1143404D1*
X1425501D2*
X1469017D1*
X1682144D2*
X2019085D1*
X2251089D2*
X2278349D1*
X3255307D2*
X3282244D1*
X3406381D2*
X3502323D1*
X434685Y951739D2*
X622545D1*
X953840D2*
X1143404D1*
X1682612D2*
X2019085D1*
X2251089D2*
X2268085D1*
X3397194D2*
X3502323D1*
X434685Y926870D2*
X622545D1*
X796272D2*
X812085D1*
X953840D2*
X1114122D1*
X1485751D2*
X1509673D1*
X1682612D2*
X2019085D1*
X2250694D2*
X2263206D1*
X3401033D2*
X3502323D1*
X434685Y902001D2*
X623980D1*
X714995D2*
X821845D1*
X953840D2*
X1096000D1*
X1682612D2*
X2019085D1*
X2561021D2*
X2789663D1*
X3406631D2*
X3502323D1*
X434685Y877133D2*
X632699D1*
X706274D2*
X850983D1*
X953840D2*
X1096718D1*
X1371604D2*
X1382895D1*
X1682612D2*
X2032507D1*
X2115769D2*
X2163627D1*
X2223673D2*
X2235144D1*
X2561021D2*
X2616629D1*
X2670503D2*
X2789663D1*
X3399777D2*
X3502323D1*
X434685Y852264D2*
X850983D1*
X953840D2*
X1100415D1*
X1371604D2*
X1382895D1*
X1485751D2*
X1507161D1*
X1557448D2*
X1579756D1*
X1682612D2*
X1872354D1*
X2046083D2*
X2067134D1*
X2081156D2*
X2235144D1*
X2322785D2*
X2340213D1*
X2561021D2*
X2593520D1*
X2693613D2*
X2789663D1*
X3398736D2*
X3502323D1*
X434685Y827395D2*
X850983D1*
X953840D2*
X1100415D1*
X1371604D2*
X1382895D1*
X1485751D2*
X1579756D1*
X1682612D2*
X1872354D1*
X2046083D2*
X2235144D1*
X2322785D2*
X2375739D1*
X2561021D2*
X2589214D1*
X2697919D2*
X2789663D1*
X3406559D2*
X3502323D1*
X434685Y802526D2*
X1097148D1*
X1246762D2*
X1257444D1*
X1371604D2*
X1382895D1*
X1485751D2*
X1579756D1*
X1682612D2*
X1872354D1*
X2098474D2*
X2235144D1*
X2322785D2*
X2377318D1*
X2689415D2*
X2722416D1*
X3401895D2*
X3502323D1*
X434685Y777657D2*
X470109D1*
X661921D2*
X895516D1*
X934390D2*
X946829D1*
X1177398D2*
X1340479D1*
X1400597D2*
X1480033D1*
X1670268D2*
X1698999D1*
X1748207D2*
X1872354D1*
X2104358D2*
X2235144D1*
X2335130D2*
X2373370D1*
X2639858D2*
X2706160D1*
X2984705D2*
X2993844D1*
X3406667D2*
X3502323D1*
X434685Y752789D2*
X470109D1*
X683954D2*
X865983D1*
X1157411D2*
X1319702D1*
X1421339D2*
X1480033D1*
X1773614D2*
X1833564D1*
X2159584D2*
X2235144D1*
X2361433D2*
X2372940D1*
X2639858D2*
X2704760D1*
X2972110D2*
X2992085D1*
X3406667D2*
X3502323D1*
X434685Y727920D2*
X470109D1*
X684852D2*
X859596D1*
X1132507D2*
X1316329D1*
X1424711D2*
X1480033D1*
X1778925D2*
X1833564D1*
X2159584D2*
X2235144D1*
X2377329D2*
X2386131D1*
X2639858D2*
X2716638D1*
X2972110D2*
X2992085D1*
X3224196D2*
X3256516D1*
X3452348D2*
X3502323D1*
X434685Y703051D2*
X470109D1*
X667052D2*
X865625D1*
X1415131D2*
X1480033D1*
X1778961D2*
X1833564D1*
X2402197D2*
X2992085D1*
X3239375D2*
X3256516D1*
X3470075D2*
X3502323D1*
X434685Y678182D2*
X859596D1*
X1366866D2*
X1480033D1*
X1778961D2*
X1833564D1*
X3063471D2*
X3133433D1*
X3239949D2*
X3248114D1*
X3346022D2*
X3364420D1*
X3472012D2*
X3502323D1*
X434685Y653314D2*
X469283D1*
X677172D2*
X859596D1*
X970346D2*
X1038012D1*
X1366866D2*
X1484088D1*
X1778961D2*
X1833564D1*
X3059344D2*
X3146782D1*
X3346022D2*
X3375795D1*
X3460636D2*
X3502323D1*
X434685Y628445D2*
X469283D1*
X686251D2*
X859596D1*
X1019148D2*
X1038012D1*
X1366866D2*
X1480105D1*
X3345269D2*
X3502323D1*
X434685Y603576D2*
X469283D1*
X679433D2*
X859596D1*
X1117256D2*
X1487245D1*
X2173005D2*
X2185588D1*
X3327902D2*
X3502323D1*
X434685Y578707D2*
X456867D1*
X643010D2*
X928601D1*
X1117256D2*
X1501672D1*
X1693304D2*
X1737718D1*
X1924614D2*
X1970606D1*
X2187933D2*
X2210455D1*
X3303034D2*
X3360436D1*
X3487442D2*
X3502323D1*
X575621Y553839D2*
X941806D1*
X1021983D2*
X1038012D1*
X1117256D2*
X1501672D1*
X1693304D2*
X1752501D1*
X1828517D2*
X1845370D1*
X1924614D2*
X1985534D1*
X2061189D2*
X2100972D1*
X2185457D2*
X2235323D1*
X3278165D2*
X3340915D1*
X589471Y528970D2*
X1038012D1*
X1117256D2*
X1486780D1*
X1693304D2*
X1845370D1*
X1924614D2*
X2128819D1*
X2157610D2*
X3331908D1*
X594818Y504101D2*
X1032665D1*
X1122602D2*
X1471564D1*
X1697827D2*
X1842068D1*
X1929782D2*
X3330294D1*
X593239Y479232D2*
X1036073D1*
X1119194D2*
X1473825D1*
X1558560D2*
X1566323D1*
X1698867D2*
X1842428D1*
X1929423D2*
X3335640D1*
X584268Y454364D2*
X1071993D1*
X1083253D2*
X1500739D1*
X1531682D2*
X1585891D1*
X1681356D2*
X1863060D1*
X1908825D2*
X3349492D1*
X958526Y790143D2*
X1066891D1*
Y769797D1*
X1102916Y805808D1*
X1102917Y869055D1*
X1100287Y874318D1*
X1098201Y880739D1*
X1097144Y887408D1*
Y894159D1*
X1098201Y900828D1*
X1100287Y907249D1*
X1103352Y913265D1*
X1107322Y918727D1*
X1112096Y923501D1*
X1117558Y927471D1*
X1123573Y930535D1*
X1129144Y932382D1*
X1136308Y939390D1*
X1141021Y942814D1*
X1143575Y944243D1*
X1145890Y951236D1*
Y1110782D1*
X1243756D1*
Y1026161D1*
X1269928Y1026136D1*
X1269930Y1107630D1*
X1367797D1*
X1367801Y1027278D1*
X1374366Y1028854D1*
X1381097Y1029385D1*
X1387828Y1028854D1*
X1394394Y1027278D1*
X1400631Y1024694D1*
X1406388Y1021167D1*
X1411522Y1016782D1*
X1415907Y1011648D1*
X1419434Y1005891D1*
X1422018Y999654D1*
X1423594Y993088D1*
X1424125Y986357D1*
X1423594Y979626D1*
X1422018Y973060D1*
X1419434Y966823D1*
X1417469Y963403D1*
X1420185Y959499D1*
X1422714Y954646D1*
X1471535Y954635D1*
X1471512Y1075887D1*
X1435110Y1075890D1*
X1429799Y1073260D1*
X1423378Y1071173D1*
X1416709Y1070117D1*
X1409958D1*
X1403289Y1071173D1*
X1396867Y1073260D1*
X1390852Y1076324D1*
X1385390Y1080294D1*
X1380615Y1085068D1*
X1376646Y1090530D1*
X1373581Y1096546D1*
X1371495Y1102967D1*
X1370438Y1109636D1*
Y1116387D1*
X1371495Y1123056D1*
X1373581Y1129478D1*
X1376646Y1135493D1*
X1380615Y1140955D1*
X1385390Y1145730D1*
X1390852Y1149699D1*
X1396867Y1152764D1*
X1398811Y1153482D1*
X1430804Y1185467D1*
X1430810Y1206184D1*
X1369917Y1145451D1*
X1365703Y1142390D1*
X1361064Y1140026D1*
X1356112Y1138417D1*
X1350969Y1137602D1*
X1284060Y1137500D1*
X1008075D1*
X1003189Y1133997D1*
X997173Y1130933D1*
X990752Y1128846D1*
X984083Y1127790D1*
X977332D1*
X970663Y1128846D1*
X964241Y1130933D1*
X958226Y1133997D1*
X952764Y1137967D1*
X947990Y1142741D1*
X943769Y1148652D1*
X943665Y1095274D1*
X942850Y1090131D1*
X941241Y1085178D1*
X938878Y1080539D1*
X935816Y1076325D1*
X888577Y1028942D1*
X798661Y939171D1*
X794440Y936104D1*
X793782Y930660D1*
Y915471D1*
X710710D1*
X711993Y909849D1*
X712524Y903118D1*
X711993Y896387D1*
X710417Y889822D1*
X707833Y883584D1*
X704306Y877827D1*
X699921Y872693D1*
X694787Y868308D1*
X689030Y864781D1*
X682793Y862197D1*
X676227Y860621D1*
X669496Y860091D1*
X662765Y860621D1*
X656199Y862197D1*
X649962Y864781D1*
X644205Y868308D1*
X639071Y872693D1*
X634686Y877827D1*
X631159Y883584D1*
X628575Y889822D1*
X626999Y896387D1*
X626469Y903118D1*
X626999Y909849D1*
X628306Y915462D1*
X625050Y915471D1*
Y1013337D1*
X630038D1*
X627657Y1020495D1*
X626601Y1027164D1*
Y1033915D1*
X627657Y1040584D1*
X629744Y1047005D1*
X630722Y1049127D1*
X630719Y1130953D1*
X628125Y1135394D1*
X625541Y1141631D1*
X623965Y1148197D1*
X623434Y1154928D1*
X623965Y1161659D1*
X625541Y1168224D1*
X628125Y1174462D1*
X631652Y1180219D1*
X634147Y1183308D1*
X634155Y1252319D1*
X630135Y1257058D1*
X626608Y1262815D1*
X624024Y1269052D1*
X622448Y1275618D1*
X621917Y1282349D1*
X622448Y1289080D1*
X624024Y1295646D1*
X626148Y1300888D1*
X626154Y1365617D1*
X491927Y1365600D1*
Y1377406D1*
X483266Y1377223D1*
X476535Y1377753D1*
X469970Y1379329D1*
X463732Y1381913D1*
X457975Y1385441D1*
X452841Y1389825D1*
X448457Y1394959D1*
X444929Y1400717D1*
X442345Y1406954D1*
X440769Y1413520D1*
X440239Y1420251D1*
X440769Y1426982D1*
X442345Y1433547D1*
X444929Y1439785D1*
X448457Y1445542D1*
X452841Y1450676D1*
X457975Y1455060D1*
X463732Y1458588D1*
X469970Y1461172D1*
X476535Y1462748D1*
X483266Y1463278D1*
X489997Y1462748D1*
X491927Y1462365D1*
Y1463466D1*
X660659D1*
Y1455033D1*
X666025Y1454961D1*
X672694Y1453904D1*
X679115Y1451818D1*
X685131Y1448753D1*
X690593Y1444783D1*
X695367Y1440009D1*
X699337Y1434547D1*
X702402Y1428531D1*
X704488Y1422110D1*
X705545Y1415441D1*
Y1408690D1*
X704488Y1402021D1*
X702402Y1395600D1*
X699337Y1389584D1*
X698538Y1388387D1*
X773356Y1388378D1*
X809098Y1423974D1*
X813312Y1427035D1*
X817951Y1429399D1*
X822904Y1431008D1*
X828047Y1431823D1*
X894955Y1431925D1*
X980395D1*
X986801Y1435907D1*
X993038Y1438491D1*
X999604Y1440067D1*
X1006335Y1440597D1*
X1013066Y1440067D1*
X1019631Y1438491D1*
X1025869Y1435907D1*
X1031626Y1432379D1*
X1036760Y1427995D1*
X1041144Y1422861D1*
X1044672Y1417104D1*
X1047256Y1410866D1*
X1048832Y1404301D1*
X1049362Y1397570D1*
X1048832Y1390839D1*
X1047256Y1384273D1*
X1044672Y1378035D1*
X1042898Y1374902D1*
X1045789Y1369164D1*
X1047875Y1362743D1*
X1048932Y1356073D1*
Y1349323D1*
X1047875Y1342654D1*
X1045789Y1336232D1*
X1042724Y1330217D1*
X1042101Y1329283D1*
X1044272Y1324804D1*
X1046358Y1318383D1*
X1047415Y1311714D1*
Y1304963D1*
X1046358Y1298294D1*
X1044272Y1291873D1*
X1041213Y1285869D1*
X1044210Y1279948D1*
X1046297Y1273526D1*
X1047353Y1266857D1*
Y1260106D1*
X1046747Y1255702D1*
X1149513Y1255703D1*
X1149526Y1334385D1*
X1229211D1*
X1229215Y1343635D1*
X1148507Y1343633D1*
Y1441499D1*
X1312718D1*
X1312748Y1477203D1*
X1327568D1*
X1323709Y1482371D1*
X1313769D1*
Y1580238D1*
X1330671D1*
X1331743Y1586840D1*
X1333829Y1593261D1*
X1336894Y1599277D1*
X1340864Y1604739D1*
X1345638Y1609513D1*
X1351100Y1613483D1*
X1357115Y1616547D1*
X1363537Y1618634D1*
X1370206Y1619690D1*
X1376957D1*
X1383626Y1618634D1*
X1390047Y1616547D1*
X1396063Y1613483D1*
X1401525Y1609513D1*
X1406299Y1604739D1*
X1410269Y1599277D1*
X1413333Y1593261D1*
X1415420Y1586840D1*
X1416469Y1580236D1*
X1482501Y1580238D1*
Y1482371D1*
X1401798D1*
X1404612Y1477203D1*
X1481480D1*
Y1456052D1*
X1509185Y1483764D1*
X1509207Y1488735D1*
X1504537Y1494996D1*
X1501472Y1501012D1*
X1499386Y1507433D1*
X1498329Y1514102D1*
Y1520853D1*
X1499386Y1527522D1*
X1501472Y1533944D1*
X1504537Y1539959D1*
X1508507Y1545421D1*
X1513281Y1550196D1*
X1518743Y1554165D1*
X1524759Y1557230D1*
X1531180Y1559316D1*
X1537849Y1560373D1*
X1544600D1*
X1551269Y1559316D1*
X1557690Y1557230D1*
X1563706Y1554165D1*
X1569168Y1550196D1*
X1573942Y1545421D1*
X1577912Y1539959D1*
X1580976Y1533944D1*
X1583063Y1527522D1*
X1584119Y1520853D1*
Y1514102D1*
X1583063Y1507433D1*
X1580976Y1501012D1*
X1577912Y1494996D1*
X1575585Y1491617D1*
X1575475Y1467436D1*
X1574660Y1462293D1*
X1573051Y1457340D1*
X1570688Y1452701D1*
X1567626Y1448487D1*
X1527568Y1408285D1*
X1533122Y1411067D1*
X1539543Y1413154D1*
X1546213Y1414210D1*
X1552963D1*
X1559633Y1413154D1*
X1566054Y1411067D1*
X1572070Y1408003D1*
X1577531Y1404033D1*
X1582306Y1399259D1*
X1586276Y1393797D1*
X1589340Y1387781D1*
X1591427Y1381360D1*
X1592483Y1374690D1*
Y1367940D1*
X1591427Y1361270D1*
X1589340Y1354849D1*
X1586276Y1348833D1*
X1582306Y1343371D1*
X1577531Y1338597D1*
X1572070Y1334627D1*
X1566054Y1331563D1*
X1559633Y1329476D1*
X1552972Y1328362D1*
X1485928Y1261240D1*
X1599542D1*
Y1163374D1*
X1512652D1*
X1509940Y1159766D1*
X1500475Y1150140D1*
X1626306Y1150134D1*
X1641810Y1165625D1*
X1641803Y1210921D1*
X1639173Y1216188D1*
X1637087Y1222609D1*
X1636030Y1229278D1*
Y1236029D1*
X1636218Y1237615D1*
X1627707D1*
Y1335482D1*
X1796440D1*
Y1237615D1*
X1726458D1*
X1841255Y1122823D1*
X1841273Y1193152D1*
X1907479D1*
X1907488Y1237018D1*
X2021749D1*
X2028630Y1243895D1*
X2026823Y1251185D1*
X2026293Y1257916D1*
X2026823Y1264647D1*
X2028399Y1271213D1*
X2030983Y1277450D1*
X2034510Y1283207D1*
X2038895Y1288341D1*
X2044029Y1292726D1*
X2049786Y1296253D1*
X2056024Y1298837D1*
X2062589Y1300413D1*
X2069320Y1300944D1*
X2076051Y1300413D1*
X2078446Y1299937D1*
X2078437Y1391365D1*
X2075633Y1393388D1*
X1962920D1*
X1956975Y1388201D1*
X1951218Y1384673D1*
X1944980Y1382089D1*
X1938415Y1380513D1*
X1931684Y1379983D1*
X1924953Y1380513D1*
X1918387Y1382089D1*
X1912150Y1384673D1*
X1906392Y1388201D1*
X1901259Y1392585D1*
X1896874Y1397719D1*
X1893346Y1403476D1*
X1890762Y1409714D1*
X1889186Y1416280D1*
X1888656Y1423010D1*
X1889186Y1429741D1*
X1890762Y1436307D1*
X1893346Y1442545D1*
X1896874Y1448302D1*
X1901259Y1453436D1*
X1906392Y1457820D1*
X1912150Y1461348D1*
X1918387Y1463932D1*
X1924953Y1465508D1*
X1931684Y1466038D1*
X1938415Y1465508D1*
X1944980Y1463932D1*
X1951218Y1461348D1*
X1954062Y1459756D1*
X2075803Y1459759D1*
X2080710Y1463261D1*
X2086726Y1466325D1*
X2093147Y1468412D1*
X2099816Y1469469D1*
X2106567D1*
X2113236Y1468412D1*
X2119657Y1466325D1*
X2125673Y1463261D1*
X2131135Y1459291D1*
X2133007Y1457563D1*
X2137538Y1458535D1*
X2144269Y1459066D1*
X2151000Y1458535D1*
X2157566Y1456959D1*
X2163803Y1454375D1*
X2169560Y1450848D1*
X2174694Y1446463D1*
X2179079Y1441329D1*
X2182606Y1435572D1*
X2185190Y1429335D1*
X2186766Y1422769D1*
X2187297Y1416038D1*
X2186766Y1409307D1*
X2185190Y1402741D1*
X2182606Y1396504D1*
X2179079Y1390747D1*
X2176298Y1387348D1*
X2176303Y1343029D1*
X2179930Y1346520D1*
X2185392Y1350490D1*
X2191408Y1353554D1*
X2197829Y1355640D1*
X2204499Y1356697D1*
X2211249D1*
X2217919Y1355640D1*
X2224340Y1353554D1*
X2230356Y1350490D1*
X2235818Y1346520D1*
X2240592Y1341745D1*
X2244562Y1336283D1*
X2247626Y1330268D1*
X2249713Y1323846D1*
X2250413Y1320178D1*
X3118909Y1320173D1*
X3230844Y1432122D1*
X3230955Y1681756D1*
X3231770Y1686899D1*
X3233379Y1691852D1*
X3235743Y1696491D1*
X3238804Y1700705D1*
X3255671Y1717715D1*
X3143156Y1717719D1*
X3139781Y1709424D1*
X3135446Y1702350D1*
X3130058Y1696042D1*
X3127927Y1694071D1*
X3132875Y1689022D1*
X3137752Y1682311D1*
X3141518Y1674919D1*
X3144083Y1667029D1*
X3145381Y1658835D1*
Y1650538D1*
X3144083Y1642344D1*
X3141518Y1634454D1*
X3137752Y1627062D1*
X3132875Y1620350D1*
X3127927Y1615331D1*
X3132875Y1610282D1*
X3137752Y1603571D1*
X3141518Y1596178D1*
X3144083Y1588289D1*
X3145381Y1580094D1*
Y1571798D1*
X3144083Y1563604D1*
X3141518Y1555714D1*
X3138727Y1550062D1*
X3145543Y1550076D1*
Y1488219D1*
X3151467Y1489512D1*
X3159602Y1490152D1*
X3167738Y1489512D1*
X3175672Y1487608D1*
X3183210Y1484484D1*
X3190168Y1480220D1*
X3196373Y1474921D1*
X3201672Y1468717D1*
X3205936Y1461759D1*
X3209059Y1454220D1*
X3210963Y1446286D1*
X3211604Y1438151D1*
X3210963Y1430016D1*
X3209059Y1422081D1*
X3205936Y1414543D1*
X3201672Y1407585D1*
X3196373Y1401381D1*
X3190168Y1396081D1*
X3183210Y1391818D1*
X3175672Y1388694D1*
X3167738Y1386790D1*
X3159602Y1386150D1*
X3151467Y1386790D1*
X3143533Y1388694D1*
X3135995Y1391818D1*
X3129037Y1396081D1*
X3122832Y1401381D1*
X3117533Y1407585D1*
X3113269Y1414543D1*
X3110146Y1422081D1*
X3108241Y1430016D1*
X3107601Y1438151D1*
X3108010Y1444337D1*
X3039803Y1444336D1*
Y1511318D1*
X3030949Y1502469D1*
X3030836Y1408543D1*
X3030021Y1403400D1*
X3028412Y1398448D1*
X3026049Y1393808D1*
X3022987Y1389594D1*
X2975748Y1342211D1*
X2961881Y1328488D1*
X2957667Y1325427D1*
X2953028Y1323063D1*
X2948075Y1321454D1*
X2942932Y1320639D1*
X2876024Y1320537D1*
X2351081Y1320639D1*
X2345938Y1321454D1*
X2341646Y1322734D1*
X2334915Y1323264D1*
X2328349Y1324840D1*
X2322112Y1327424D1*
X2316354Y1330951D1*
X2311220Y1335336D1*
X2306836Y1340470D1*
X2303308Y1346227D1*
X2301697Y1349828D1*
X2292382Y1349822D1*
Y1354594D1*
X2287302Y1355102D1*
X2280736Y1356678D1*
X2274499Y1359262D1*
X2268741Y1362790D1*
X2263608Y1367175D1*
X2259223Y1372308D1*
X2255696Y1378066D1*
X2253112Y1384303D1*
X2251535Y1390869D1*
X2251005Y1397600D1*
X2251535Y1404331D1*
X2253112Y1410896D1*
X2255696Y1417134D1*
X2259223Y1422891D1*
X2260293Y1424248D1*
X2256018Y1422199D1*
X2249597Y1420113D1*
X2242928Y1419056D1*
X2236177D1*
X2229508Y1420113D1*
X2223087Y1422199D1*
X2217071Y1425264D1*
X2211609Y1429234D1*
X2206835Y1434008D1*
X2202865Y1439470D1*
X2199801Y1445486D1*
X2197714Y1451907D1*
X2196657Y1458576D1*
Y1465327D1*
X2197714Y1471996D1*
X2199801Y1478417D1*
X2202085Y1483039D1*
X2198583Y1489772D1*
X2196496Y1496193D1*
X2195440Y1502862D1*
Y1509613D1*
X2196496Y1516282D1*
X2198583Y1522703D1*
X2201647Y1528719D1*
X2205617Y1534181D1*
X2210391Y1538955D1*
X2215853Y1542925D1*
X2221869Y1545990D1*
X2228290Y1548076D1*
X2234959Y1549133D1*
X2241710D1*
X2248379Y1548076D1*
X2254516Y1546094D1*
X2320961Y1612388D1*
X2325175Y1615450D1*
X2329814Y1617814D1*
X2334766Y1619423D1*
X2339909Y1620238D1*
X2344199Y1620340D1*
X2349098Y1623843D1*
X2355114Y1626907D1*
X2361535Y1628993D1*
X2368205Y1630050D1*
X2374955D1*
X2381625Y1628993D1*
X2388046Y1626907D1*
X2394062Y1623843D1*
X2399524Y1619873D1*
X2404298Y1615098D1*
X2408268Y1609636D1*
X2411332Y1603621D1*
X2413419Y1597199D1*
X2414475Y1590530D1*
X2414529Y1589172D1*
X2506774Y1589175D1*
X2577483Y1659741D1*
X2581697Y1662803D1*
X2586336Y1665167D1*
X2591289Y1666776D1*
X2596432Y1667591D1*
X2663340Y1667693D1*
X2819759D1*
X2891699Y1739601D1*
X2832657Y1739602D1*
Y1746385D1*
X2827020Y1743627D1*
X2819130Y1741063D1*
X2810936Y1739765D1*
X2802639D1*
X2794445Y1741063D1*
X2786555Y1743627D1*
X2779163Y1747394D1*
X2772451Y1752270D1*
X2767432Y1757219D1*
X2762383Y1752270D1*
X2755672Y1747394D1*
X2748280Y1743627D1*
X2740390Y1741063D1*
X2733500Y1739920D1*
X2733495Y1672657D1*
X2564762D1*
Y1688411D1*
X2543735Y1688508D1*
X2538592Y1689323D1*
X2533639Y1690932D1*
X2529000Y1693295D1*
X2524786Y1696357D1*
X2480371Y1740626D1*
X2474749Y1740310D1*
X2466479Y1740961D1*
X2458412Y1742898D1*
X2450747Y1746072D1*
X2443673Y1750407D1*
X2437365Y1755795D1*
X2435394Y1757927D1*
X2430345Y1752978D1*
X2423634Y1748101D1*
X2416241Y1744335D1*
X2408352Y1741770D1*
X2400157Y1740472D1*
X2391861D1*
X2389945Y1740699D1*
X2389950Y1654677D1*
X2292084D1*
Y1658445D1*
X2285000Y1658390D1*
X2278331Y1659446D1*
X2271909Y1661533D1*
X2265894Y1664597D1*
X2260432Y1668567D1*
X2255657Y1673341D1*
X2251688Y1678803D1*
X2248623Y1684819D1*
X2246537Y1691240D1*
X2245480Y1697909D1*
Y1704660D1*
X2246537Y1711329D1*
X2248623Y1717751D1*
X2251688Y1723766D1*
X2255657Y1729228D1*
X2260432Y1734003D1*
X2265894Y1737972D1*
X2271909Y1741037D1*
X2278331Y1743123D1*
X2285000Y1744180D1*
X2292079Y1744140D1*
X2292084Y1811568D1*
X2285726Y1812205D1*
X2220668D1*
Y1821786D1*
X2193982Y1795266D1*
X2189768Y1792205D1*
X2185129Y1789841D1*
X2180176Y1788232D1*
X2175022Y1787417D1*
X2173010Y1785054D1*
X2171954Y1778385D1*
X2170411Y1773437D1*
X2241837Y1773438D1*
Y1604706D1*
X2143971D1*
Y1611416D1*
X2139038Y1611125D1*
X2132307Y1611655D1*
X2128143Y1612554D1*
X2128135Y1534001D1*
X2072766D1*
X2068306Y1532198D1*
X2061247Y1527073D1*
X2055231Y1524009D1*
X2048810Y1521923D1*
X2042140Y1520866D1*
X2035390D1*
X2028720Y1521923D1*
X2022299Y1524009D1*
X2016283Y1527073D1*
X2010822Y1531043D1*
X2006047Y1535818D1*
X2002247Y1541028D1*
X1828417Y1541035D1*
X1823139Y1538406D1*
X1816718Y1536319D1*
X1810049Y1535262D1*
X1803298D1*
X1796629Y1536319D1*
X1790207Y1538406D1*
X1784192Y1541470D1*
X1778730Y1545440D1*
X1773955Y1550214D1*
X1769986Y1555676D1*
X1766921Y1561692D1*
X1764835Y1568113D1*
X1763954Y1573301D1*
X1684196Y1573310D1*
Y1671176D1*
X1764899D1*
X1764904Y1679837D1*
X1684196Y1679828D1*
Y1773995D1*
X1635698D1*
Y1790035D1*
X1628039Y1787442D1*
X1621252Y1786382D1*
X1617495Y1784147D1*
X1612684Y1782155D1*
X1607621Y1780938D1*
X1602419Y1780530D1*
X1598189Y1779315D1*
Y1695885D1*
X1500323D1*
Y1740058D1*
X1446697Y1793690D1*
X1441100Y1795568D1*
X1435084Y1798633D1*
X1429592Y1802629D1*
X1425358Y1805287D1*
X1420921Y1809079D1*
X1407415Y1822747D1*
X1405604Y1825045D1*
X1403867Y1826402D1*
X1317812D1*
Y1889996D1*
X1311770Y1890098D1*
X1306627Y1890913D1*
X1301675Y1892522D1*
X1297035Y1894886D1*
X1292822Y1897948D1*
X1258455Y1932169D1*
X1261230Y1925327D1*
X1263134Y1917392D1*
X1263774Y1909257D1*
X1263134Y1901122D1*
X1261230Y1893188D1*
X1258106Y1885650D1*
X1253843Y1878692D1*
X1248543Y1872487D1*
X1242339Y1867188D1*
X1235381Y1862924D1*
X1227843Y1859801D1*
X1219908Y1857896D1*
X1211773Y1857256D1*
X1205587Y1857665D1*
X1205588Y1789458D1*
X1099848D1*
Y1796226D1*
X1094210Y1793483D1*
X1086320Y1790919D1*
X1078126Y1789621D1*
X1069829D1*
X1061635Y1790919D1*
X1053745Y1793483D1*
X1046353Y1797249D1*
X1039642Y1802126D1*
X1033776Y1807992D1*
X1028899Y1814703D1*
X1025133Y1822096D1*
X1022568Y1829986D1*
X1021270Y1838180D1*
Y1846476D1*
X1022568Y1854671D1*
X1025133Y1862560D1*
X1028899Y1869953D1*
X1033776Y1876664D1*
X1039642Y1882530D1*
X1046353Y1887407D1*
X1053745Y1891173D1*
X1061635Y1893738D1*
X1069829Y1895035D1*
X1078126D1*
X1086320Y1893738D1*
X1094210Y1891173D1*
X1099862Y1888382D1*
X1099848Y1895198D1*
X1161705D1*
X1160412Y1901122D1*
X1159772Y1909257D1*
X1160412Y1917392D1*
X1162316Y1925327D1*
X1165440Y1932865D1*
X1169703Y1939823D1*
X1175003Y1946028D1*
X1181207Y1951327D1*
X1188165Y1955591D1*
X1195703Y1958714D1*
X1203638Y1960618D1*
X1211773Y1961259D1*
X1219908Y1960618D1*
X1227843Y1958714D1*
X1234730Y1955891D1*
X1219126Y1971499D1*
X1219147Y1969387D1*
X1101596D1*
Y2086938D1*
X1219147D1*
Y2061353D1*
X1224499Y2058690D1*
X1228713Y2055629D1*
X1276096Y2008390D1*
X1284240Y2000245D1*
X1284249Y2161778D1*
X1344327D1*
X1344325Y2162272D1*
X1344936D1*
X1344912Y2276453D1*
X1462463D1*
Y2158902D1*
X1442189D1*
X1442192Y2109343D1*
X1463492Y2087923D1*
X1466554Y2083709D1*
X1468917Y2079070D1*
X1470526Y2074117D1*
X1471341Y2068974D1*
X1471444Y2002066D1*
Y1989039D1*
X1474946Y1984146D1*
X1478010Y1978130D1*
X1480097Y1971709D1*
X1481154Y1965039D1*
Y1958289D1*
X1480097Y1951619D1*
X1478010Y1945198D1*
X1474946Y1939182D1*
X1470976Y1933720D1*
X1466202Y1928946D1*
X1460740Y1924976D1*
X1459462Y1924261D1*
X1486545Y1924268D1*
Y1873707D1*
X1501289Y1888441D1*
X1501293Y2002710D1*
X1599159D1*
Y1985018D1*
X1634016Y1984993D1*
X1633990Y2068593D1*
X1751541D1*
Y1951042D1*
X1725955D1*
X1725950Y1939521D1*
X1730119Y1932898D1*
X1732703Y1926660D1*
X1734280Y1920094D1*
X1734810Y1913364D1*
X1734280Y1906633D1*
X1732703Y1900067D1*
X1730119Y1893829D1*
X1728837Y1891538D1*
X1753249Y1891546D1*
Y1777681D1*
X1852928Y1777694D1*
Y1679828D1*
X1839113D1*
X1839148Y1671167D1*
X1852928Y1671176D1*
Y1615304D1*
X1987853Y1615280D1*
X2030269Y1657718D1*
Y1702734D1*
X2128135D1*
Y1695808D1*
X2135663Y1697047D1*
X2142413D1*
X2143974Y1696862D1*
X2143971Y1747688D1*
X2136846Y1745932D1*
X2130115Y1745402D1*
X2123385Y1745932D1*
X2116659Y1747567D1*
X1999383Y1747570D1*
X1999388Y1666861D1*
X1901522D1*
Y1835593D1*
X1913328D1*
X1913448Y2058325D1*
X1914360Y2064079D1*
X1916159Y2069619D1*
X1918803Y2074810D1*
X1922227Y2079522D1*
X1950164Y2107621D1*
X1837353Y2107606D1*
Y2225157D1*
X1954904D1*
Y2199572D1*
X1979774Y2199567D1*
X1988004Y2207786D1*
X1989001Y2213736D1*
X1991088Y2220157D1*
X1994152Y2226173D1*
X1996087Y2229055D1*
X1993035Y2234136D1*
X1991552Y2237390D1*
X1956362Y2237501D1*
X1951219Y2238316D1*
X1946266Y2239925D1*
X1941627Y2242289D1*
X1937413Y2245350D1*
X1905940Y2276680D1*
X1838203Y2276657D1*
Y2394209D1*
X1906850D1*
X1872290Y2428927D1*
X1869228Y2433140D1*
X1866865Y2437780D1*
X1865256Y2442732D1*
X1864436Y2446530D1*
X1838748D1*
Y2564081D1*
X1956299D1*
Y2446530D1*
X1948369D1*
X2022459Y2372474D1*
X2028394Y2371492D1*
X2034815Y2369406D1*
X2040831Y2366341D1*
X2046293Y2362371D1*
X2051067Y2357597D1*
X2055352Y2351571D1*
X2056232Y2356445D1*
X2058319Y2362866D1*
X2061383Y2368882D1*
X2065353Y2374344D1*
X2070127Y2379118D1*
X2075589Y2383088D1*
X2081605Y2386152D1*
X2088026Y2388239D1*
X2094696Y2389295D1*
X2101446D1*
X2108115Y2388239D1*
X2114537Y2386152D1*
X2120552Y2383088D1*
X2126014Y2379118D1*
X2130789Y2374344D1*
X2134759Y2368882D1*
X2137823Y2362866D1*
X2139909Y2356445D1*
X2140966Y2349776D1*
Y2343025D1*
X2139909Y2336356D1*
X2138668Y2332224D1*
X2138558Y2203596D1*
X2137646Y2197843D1*
X2135846Y2192302D1*
X2133202Y2187112D1*
X2129778Y2182399D1*
X2095320Y2147780D1*
X2006487Y2058946D1*
X2096993Y2058957D1*
Y1974336D1*
X2112042Y1974311D1*
X2116455Y1977391D1*
X2122471Y1980455D1*
X2128892Y1982542D1*
X2135562Y1983598D1*
X2142312D1*
X2148982Y1982542D1*
X2155403Y1980455D1*
X2161419Y1977391D1*
X2166881Y1973421D1*
X2171655Y1968647D1*
X2175625Y1963185D1*
X2178689Y1957169D1*
X2180776Y1950748D1*
X2181832Y1944079D1*
Y1937328D1*
X2180776Y1930659D1*
X2178689Y1924238D1*
X2177171Y1920882D1*
X2181131Y1924264D1*
X2185571Y1926984D1*
X2190382Y1928976D1*
X2195445Y1930193D1*
X2200647Y1930601D1*
X2259953D1*
X2255325Y1933531D1*
X2250192Y1937916D1*
X2245807Y1943050D1*
X2242280Y1948807D1*
X2239696Y1955045D1*
X2238119Y1961610D1*
X2237656Y1966640D1*
X2230917Y1965004D1*
X2224186Y1964474D1*
X2217455Y1965004D1*
X2210890Y1966580D1*
X2204652Y1969164D1*
X2198895Y1972692D1*
X2193761Y1977076D1*
X2189377Y1982210D1*
X2186900Y1986091D1*
X2110050D1*
Y2154823D1*
X2192820D1*
X2192929Y2280198D1*
X2193744Y2285341D1*
X2195353Y2290294D1*
X2197717Y2294933D1*
X2200778Y2299147D1*
X2248017Y2346530D1*
X2291853Y2390222D1*
X2296067Y2393283D1*
X2300706Y2395647D1*
X2305659Y2397256D1*
X2310802Y2398071D1*
X2377710Y2398173D1*
X3033135D1*
X3033982Y2401463D1*
X3035280Y2409657D1*
X3037844Y2417547D1*
X3041610Y2424940D1*
X3046487Y2431651D1*
X3051436Y2436671D1*
X3046487Y2441719D1*
X3044529Y2444202D1*
X2938594D1*
X2938564Y2405913D1*
X2832824D1*
Y2412696D1*
X2827186Y2409938D1*
X2819297Y2407374D1*
X2811102Y2406076D1*
X2802806D1*
X2794612Y2407374D1*
X2786722Y2409938D1*
X2779329Y2413705D1*
X2772618Y2418581D1*
X2767598Y2423530D1*
X2762550Y2418581D1*
X2755839Y2413705D1*
X2748446Y2409938D1*
X2740556Y2407374D1*
X2732362Y2406076D1*
X2724066D1*
X2715871Y2407374D1*
X2707982Y2409938D1*
X2700589Y2413705D1*
X2693878Y2418581D1*
X2688012Y2424448D1*
X2683135Y2431159D1*
X2679369Y2438551D1*
X2676804Y2446441D1*
X2675507Y2454635D1*
Y2462932D1*
X2676804Y2471126D1*
X2679369Y2479016D1*
X2683135Y2486408D1*
X2688012Y2493119D1*
X2693878Y2498986D1*
X2700589Y2503862D1*
X2707982Y2507629D1*
X2715871Y2510193D1*
X2724066Y2511491D1*
X2732362D1*
X2740556Y2510193D1*
X2748446Y2507629D1*
X2755839Y2503862D1*
X2762550Y2498986D1*
X2767570Y2494037D1*
X2772618Y2498986D1*
X2779329Y2503862D1*
X2786722Y2507629D1*
X2794612Y2510193D1*
X2802806Y2511491D1*
X2811102D1*
X2819297Y2510193D1*
X2827186Y2507629D1*
X2832839Y2504837D1*
X2832824Y2511654D1*
X2894652D1*
X2893388Y2517577D1*
X2892748Y2525713D1*
X2893388Y2533848D1*
X2895293Y2541782D1*
X2898416Y2549320D1*
X2902680Y2556278D1*
X2907979Y2562483D1*
X2914184Y2567782D1*
X2921142Y2572046D1*
X2928680Y2575169D1*
X2936614Y2577073D1*
X2944749Y2577714D1*
X2952885Y2577073D1*
X2960819Y2575169D1*
X2968357Y2572046D1*
X2975315Y2567782D1*
X2981520Y2562483D1*
X2986819Y2556278D1*
X2991083Y2549320D1*
X2994206Y2541782D1*
X2996110Y2533848D1*
X2996751Y2525713D1*
X2996110Y2517577D1*
X2994470Y2510580D1*
X3046651Y2510572D1*
X3052353Y2516257D1*
X3059064Y2521134D1*
X3066457Y2524900D1*
X3074346Y2527465D1*
X3082541Y2528762D1*
X3090837D1*
X3099031Y2527465D1*
X3101734Y2526786D1*
X3113774Y2526888D1*
X3113764Y2542636D1*
X3275033D1*
X3231014Y2586659D1*
X2455066Y2586650D1*
X2447375Y2578937D1*
X2569663Y2578948D1*
Y2561601D1*
X2574413Y2566214D1*
X2581014Y2571010D1*
X2588285Y2574715D1*
X2596046Y2577236D1*
X2604105Y2578513D1*
X2612265D1*
X2620324Y2577236D1*
X2628085Y2574715D1*
X2635356Y2571010D1*
X2641957Y2566214D1*
X2647727Y2560444D1*
X2652524Y2553843D1*
X2656228Y2546572D1*
X2658749Y2538811D1*
X2660026Y2530752D1*
Y2522592D1*
X2658749Y2514533D1*
X2656228Y2506772D1*
X2652524Y2499501D1*
X2647727Y2492900D1*
X2641957Y2487130D1*
X2635356Y2482333D1*
X2628085Y2478629D1*
X2620324Y2476108D1*
X2612265Y2474831D1*
X2604105D1*
X2601999Y2475080D1*
X2602000Y2406873D1*
X2496260D1*
Y2413655D1*
X2490622Y2410898D1*
X2482732Y2408333D1*
X2474538Y2407035D1*
X2466241D1*
X2458047Y2408333D1*
X2450157Y2410898D1*
X2442765Y2414664D1*
X2436054Y2419541D1*
X2431034Y2424490D1*
X2425986Y2419541D1*
X2419274Y2414664D1*
X2411882Y2410898D1*
X2403992Y2408333D1*
X2395798Y2407035D1*
X2387501D1*
X2379307Y2408333D1*
X2371417Y2410898D1*
X2364025Y2414664D1*
X2357314Y2419541D1*
X2356492Y2420299D1*
X2356500Y2415071D1*
X2258634D1*
Y2583803D1*
X2356500D1*
X2356556Y2576865D1*
X2358549Y2581676D1*
X2361269Y2586115D1*
X2364659Y2590083D1*
X2419789Y2645068D1*
X2424003Y2648130D1*
X2428642Y2650493D1*
X2433594Y2652102D1*
X2438738Y2652917D1*
X2505646Y2653020D1*
X3247373Y2652917D1*
X3252516Y2652102D1*
X3257469Y2650493D1*
X3262108Y2648130D1*
X3266322Y2645068D1*
X3313705Y2597829D1*
X3341042Y2570348D1*
X3344104Y2566134D1*
X3346467Y2561495D1*
X3348076Y2556542D1*
X3348891Y2551399D1*
X3348993Y2515745D1*
X3353193Y2511965D1*
X3358581Y2505656D1*
X3362916Y2498583D1*
X3366091Y2490917D1*
X3368028Y2482850D1*
X3368678Y2474580D1*
X3368028Y2466310D1*
X3366091Y2458243D1*
X3362916Y2450577D1*
X3358581Y2443504D1*
X3353193Y2437196D1*
X3351062Y2435224D1*
X3356010Y2430176D1*
X3360887Y2423465D1*
X3364654Y2416072D1*
X3367218Y2408182D1*
X3368516Y2399988D1*
Y2391692D1*
X3367218Y2383497D1*
X3364654Y2375608D1*
X3360887Y2368215D1*
X3356010Y2361504D1*
X3351062Y2356484D1*
X3356010Y2351436D1*
X3360887Y2344724D1*
X3364654Y2337332D1*
X3367218Y2329442D1*
X3368516Y2321248D1*
Y2312951D1*
X3367218Y2304757D1*
X3364654Y2296867D1*
X3360887Y2289475D1*
X3356010Y2282764D1*
X3351062Y2277744D1*
X3356010Y2272696D1*
X3360887Y2265984D1*
X3364654Y2258592D1*
X3367218Y2250702D1*
X3368516Y2242508D1*
Y2234211D1*
X3367218Y2226017D1*
X3364654Y2218127D1*
X3361862Y2212475D1*
X3368678Y2212490D1*
Y2150633D1*
X3374602Y2151925D1*
X3382738Y2152566D1*
X3390873Y2151925D1*
X3398807Y2150021D1*
X3406345Y2146898D1*
X3413303Y2142634D1*
X3419508Y2137335D1*
X3424807Y2131130D1*
X3429071Y2124172D1*
X3432194Y2116634D1*
X3434098Y2108699D1*
X3434739Y2100564D1*
X3434098Y2092429D1*
X3432194Y2084495D1*
X3429071Y2076957D1*
X3424807Y2069999D1*
X3419508Y2063794D1*
X3413303Y2058495D1*
X3406345Y2054231D1*
X3398807Y2051108D1*
X3390873Y2049203D1*
X3382738Y2048563D1*
X3374602Y2049203D1*
X3366668Y2051108D1*
X3359130Y2054231D1*
X3352172Y2058495D1*
X3345967Y2063794D1*
X3340668Y2069999D1*
X3336404Y2076957D1*
X3333281Y2084495D1*
X3331377Y2092429D1*
X3330736Y2100564D1*
X3331146Y2106751D1*
X3272344Y2106749D1*
X3272245Y2005407D1*
X3271430Y2000264D1*
X3269822Y1995311D1*
X3267458Y1990672D1*
X3264396Y1986458D1*
X3225164Y1947081D1*
X3275471Y1946983D1*
Y1900944D1*
X3313108Y1863293D1*
X3318756Y1863584D1*
X3327026Y1862933D1*
X3335093Y1860996D1*
X3342759Y1857822D1*
X3343622Y1857339D1*
X3346277Y1863816D1*
X3349804Y1869573D1*
X3354189Y1874707D1*
X3359323Y1879092D1*
X3365080Y1882619D1*
X3371318Y1885203D1*
X3377883Y1886780D1*
X3384614Y1887310D1*
X3391345Y1886780D1*
X3397911Y1885203D1*
X3404148Y1882619D1*
X3409906Y1879092D1*
X3415039Y1874707D1*
X3419424Y1869573D1*
X3422951Y1863816D1*
X3425535Y1857579D1*
X3427112Y1851013D1*
X3427642Y1844282D1*
X3427112Y1837551D1*
X3425535Y1830986D1*
X3422951Y1824748D1*
X3419424Y1818991D1*
X3415039Y1813857D1*
X3409906Y1809472D1*
X3404148Y1805945D1*
X3397911Y1803361D1*
X3391345Y1801785D1*
X3384614Y1801255D1*
X3377883Y1801785D1*
X3371133Y1803429D1*
X3369038Y1794377D1*
X3365864Y1786711D1*
X3361529Y1779638D1*
X3356140Y1773329D1*
X3354009Y1771358D1*
X3358958Y1766310D1*
X3363835Y1759598D1*
X3367601Y1752206D1*
X3370165Y1744316D1*
X3371463Y1736122D1*
Y1727825D1*
X3370165Y1719631D1*
X3367601Y1711741D1*
X3366508Y1709370D1*
X3458031Y1709364D1*
Y1540631D1*
X3371630D1*
X3371626Y1486766D1*
X3377550Y1488059D1*
X3385685Y1488699D1*
X3393820Y1488059D1*
X3401755Y1486155D1*
X3409293Y1483031D1*
X3416251Y1478768D1*
X3422455Y1473469D1*
X3427755Y1467264D1*
X3432018Y1460306D1*
X3435142Y1452768D1*
X3437046Y1444833D1*
X3437686Y1436698D1*
X3437046Y1428563D1*
X3435142Y1420629D1*
X3432018Y1413091D1*
X3427755Y1406133D1*
X3422455Y1399928D1*
X3416251Y1394629D1*
X3409293Y1390365D1*
X3401755Y1387241D1*
X3393820Y1385337D1*
X3385685Y1384697D1*
X3377550Y1385337D1*
X3369615Y1387241D1*
X3362077Y1390365D1*
X3355119Y1394629D1*
X3348915Y1399928D1*
X3343615Y1406133D1*
X3339352Y1413091D1*
X3336228Y1420629D1*
X3334324Y1428563D1*
X3333684Y1436698D1*
X3334093Y1442885D1*
X3297224Y1442883D1*
X3297121Y1415781D1*
X3296306Y1410638D1*
X3294697Y1405685D1*
X3292333Y1401046D1*
X3289272Y1396832D1*
X3242033Y1349449D1*
X3154194Y1261755D1*
X3149980Y1258693D1*
X3145341Y1256329D1*
X3140388Y1254720D1*
X3135245Y1253906D1*
X3068337Y1253803D1*
X2322699D1*
X2322735Y1180714D1*
X2241744D1*
X2240210Y1173806D1*
X2237980Y1168424D1*
X2234937Y1163457D1*
X2231154Y1159028D1*
X2225902Y1153776D1*
X2225890Y1106428D1*
X2057157D1*
X2056971Y1115143D1*
X2053547Y1110430D1*
X2019089Y1075811D1*
X1992644Y1049528D1*
X1987932Y1046104D1*
X1982741Y1043459D1*
X1977190Y1041657D1*
X1979234Y1035087D1*
X1980290Y1028417D1*
Y1021667D1*
X1979234Y1014997D1*
X1977147Y1008576D1*
X1974083Y1002560D1*
X1970113Y997098D1*
X1965339Y992324D1*
X1959877Y988354D1*
X1953861Y985290D1*
X1947440Y983203D1*
X1940770Y982147D1*
X1934020D1*
X1927350Y983203D1*
X1920929Y985290D1*
X1914913Y988354D1*
X1909451Y992324D1*
X1904677Y997098D1*
X1900707Y1002560D1*
X1897643Y1008576D1*
X1895556Y1014997D1*
X1894500Y1021667D1*
X1894392Y1024423D1*
X1841273Y1024420D1*
Y1038235D1*
X1833345Y1038314D1*
X1827592Y1039226D1*
X1822051Y1041025D1*
X1816861Y1043669D1*
X1812148Y1047093D1*
X1777529Y1081551D1*
X1715440Y1143640D1*
X1714231Y1138770D1*
X1712001Y1133388D1*
X1708958Y1128421D1*
X1705175Y1123992D1*
X1679673Y1098491D1*
X1679654Y968265D1*
X1680109Y968299D1*
Y799567D1*
X1668303D1*
X1668184Y781037D1*
X1667272Y775283D1*
X1665467Y769732D1*
X1669043Y767997D1*
X1687236D1*
X1692517Y772400D1*
X1699591Y776735D1*
X1707256Y779909D1*
X1715323Y781846D1*
X1723593Y782497D1*
X1731864Y781846D1*
X1739930Y779909D1*
X1747596Y776735D1*
X1754669Y772400D1*
X1760978Y767012D1*
X1766366Y760703D1*
X1770701Y753630D1*
X1773875Y745965D1*
X1775812Y737898D1*
X1776463Y729627D1*
X1775812Y721357D1*
X1773875Y713290D1*
X1770701Y705625D1*
X1769647Y703743D1*
X1776463Y703757D1*
Y641900D1*
X1782387Y643193D1*
X1790522Y643833D1*
X1798657Y643193D1*
X1806592Y641289D1*
X1814130Y638165D1*
X1821088Y633902D1*
X1827293Y628602D1*
X1832592Y622398D1*
X1836068Y616845D1*
X1836075Y772937D1*
X1925894D1*
X1928887Y774953D1*
X1874853D1*
Y872819D1*
X2037270D1*
X2034386Y878591D1*
X2032299Y885012D1*
X2031243Y891681D1*
X2031202Y892722D1*
X2021580Y892719D1*
Y1053085D1*
X2030085D1*
X2030021Y1060886D1*
X2031077Y1067555D1*
X2033164Y1073976D1*
X2036228Y1079992D1*
X2040198Y1085454D1*
X2044972Y1090228D1*
X2050434Y1094198D1*
X2056450Y1097262D1*
X2062871Y1099349D1*
X2069541Y1100406D1*
X2076291D1*
X2082961Y1099349D1*
X2089382Y1097262D1*
X2095398Y1094198D1*
X2100860Y1090228D1*
X2105634Y1085454D1*
X2109604Y1079992D1*
X2112668Y1073976D1*
X2114755Y1067555D1*
X2115811Y1060886D1*
Y1054135D1*
X2115685Y1053073D1*
X2184643Y1053085D1*
X2189301Y1056972D1*
X2195058Y1060500D1*
X2201295Y1063084D1*
X2207861Y1064660D1*
X2214592Y1065190D1*
X2221323Y1064660D1*
X2227888Y1063084D1*
X2234126Y1060500D1*
X2239883Y1056972D1*
X2245017Y1052588D1*
X2249402Y1047454D1*
X2252929Y1041697D1*
X2255513Y1035459D1*
X2257089Y1028894D1*
X2257619Y1022163D1*
X2257089Y1015432D1*
X2255513Y1008866D1*
X2252929Y1002629D1*
X2249402Y996871D1*
X2248576Y995825D1*
X2248482Y929350D1*
X2247667Y924207D1*
X2246058Y919255D1*
X2243694Y914615D1*
X2240633Y910402D1*
X2236505Y906129D1*
X2235487Y900159D1*
X2233400Y893738D1*
X2230336Y887722D1*
X2226366Y882260D1*
X2221592Y877486D1*
X2216130Y873516D1*
X2210114Y870451D1*
X2203693Y868365D1*
X2197024Y867308D1*
X2190273D1*
X2183604Y868365D1*
X2177182Y870451D1*
X2171167Y873516D1*
X2165705Y877486D1*
X2160930Y882260D1*
X2156961Y887722D1*
X2154366Y892719D1*
X2117101D1*
X2115976Y885012D1*
X2113890Y878591D1*
X2110825Y872575D1*
X2106856Y867113D1*
X2102081Y862339D1*
X2096619Y858369D1*
X2090604Y855304D1*
X2084182Y853218D1*
X2077513Y852161D1*
X2070762D1*
X2064093Y853218D1*
X2057672Y855304D1*
X2051656Y858369D1*
X2046194Y862339D1*
X2043579Y864777D1*
X2043585Y820823D1*
X2048899Y822438D1*
X2055568Y823495D1*
X2062319D1*
X2068988Y822438D1*
X2075409Y820352D1*
X2081425Y817287D1*
X2086887Y813318D1*
X2091661Y808543D1*
X2095631Y803081D1*
X2098696Y797066D1*
X2100782Y790644D1*
X2101839Y783975D1*
Y777224D1*
X2100782Y770555D1*
X2098535Y763786D1*
X2157075Y763785D1*
Y698396D1*
X2160245Y702608D1*
X2165020Y707382D1*
X2170482Y711352D1*
X2176497Y714416D1*
X2182919Y716503D1*
X2189588Y717559D1*
X2196339D1*
X2203008Y716503D1*
X2209429Y714416D1*
X2215445Y711352D1*
X2220907Y707382D1*
X2225681Y702608D1*
X2229651Y697146D1*
X2232003Y692676D1*
X2237629Y694619D1*
X2237741Y887657D1*
X2238556Y892801D1*
X2240165Y897753D1*
X2242529Y902392D1*
X2245591Y906606D1*
X2272961Y934122D1*
X2271647Y938525D1*
X2270591Y945194D1*
Y951945D1*
X2271647Y958614D1*
X2273734Y965035D1*
X2276798Y971051D1*
X2280768Y976513D1*
X2285542Y981287D1*
X2291004Y985257D1*
X2297020Y988322D1*
X2303441Y990408D1*
X2310110Y991465D1*
X2316861D1*
X2323530Y990408D1*
X2329951Y988322D1*
X2335967Y985257D1*
X2341429Y981287D1*
X2343029Y979810D1*
X2348131Y982467D1*
X2353084Y984076D1*
X2358227Y984891D1*
X2425135Y984993D1*
X3066924D1*
X3067546Y992995D1*
X3069483Y1001062D1*
X3072657Y1008727D1*
X3076992Y1015801D1*
X3082381Y1022109D1*
X3083869Y1023486D1*
X2964566Y1023488D1*
X2964538Y993135D1*
X2858798D1*
Y999917D1*
X2853160Y997160D1*
X2845270Y994596D1*
X2837076Y993298D1*
X2828780D1*
X2820585Y994596D1*
X2812696Y997160D1*
X2805303Y1000927D1*
X2798592Y1005803D1*
X2793572Y1010752D1*
X2788524Y1005803D1*
X2781812Y1000927D1*
X2774420Y997160D1*
X2766530Y994596D1*
X2758336Y993298D1*
X2750039D1*
X2741845Y994596D1*
X2733955Y997160D1*
X2726563Y1000927D1*
X2719852Y1005803D1*
X2713986Y1011669D1*
X2709109Y1018381D1*
X2705343Y1025773D1*
X2702778Y1033663D1*
X2701480Y1041857D1*
Y1050154D1*
X2702778Y1058348D1*
X2705343Y1066238D1*
X2709109Y1073630D1*
X2713986Y1080341D1*
X2719852Y1086207D1*
X2726563Y1091084D1*
X2733955Y1094850D1*
X2741845Y1097415D1*
X2750039Y1098713D1*
X2758336D1*
X2766530Y1097415D1*
X2774420Y1094850D1*
X2781987Y1090967D1*
X2781975Y1167572D1*
X2950707D1*
X2950823Y1160978D1*
X2958584Y1163499D1*
X2966643Y1164776D1*
X2974803D1*
X2982862Y1163499D1*
X2990623Y1160978D1*
X2997894Y1157273D1*
X3004495Y1152476D1*
X3010265Y1146706D1*
X3015062Y1140105D1*
X3018766Y1132835D1*
X3021287Y1125073D1*
X3022564Y1117014D1*
Y1108854D1*
X3021287Y1100795D1*
X3018766Y1093034D1*
X3017303Y1089862D1*
X3073946Y1089858D1*
X3076992Y1094541D1*
X3082381Y1100849D1*
X3088689Y1106238D1*
X3095762Y1110572D1*
X3103428Y1113747D1*
X3111495Y1115684D1*
X3119765Y1116335D1*
X3128035Y1115684D1*
X3136102Y1113747D1*
X3143768Y1110572D1*
X3150841Y1106238D1*
X3157150Y1100849D1*
X3162538Y1094541D1*
X3166873Y1087467D1*
X3170047Y1079802D1*
X3171984Y1071735D1*
X3172635Y1063465D1*
X3172077Y1055983D1*
X3252799Y1055996D1*
Y913459D1*
X3254043Y913495D1*
Y744762D1*
X3172622D1*
X3172635Y739517D1*
X3178559Y740810D1*
X3186694Y741450D1*
X3194829Y740810D1*
X3202764Y738906D1*
X3210302Y735782D1*
X3217260Y731518D1*
X3223465Y726219D1*
X3228764Y720014D1*
X3233028Y713056D1*
X3236151Y705518D1*
X3238055Y697584D1*
X3238696Y689449D1*
X3238055Y681314D1*
X3236151Y673379D1*
X3233028Y665841D1*
X3228764Y658883D1*
X3223465Y652678D1*
X3217260Y647379D1*
X3210302Y643115D1*
X3202764Y639992D1*
X3194829Y638088D1*
X3186694Y637448D1*
X3178559Y638088D1*
X3170625Y639992D1*
X3163087Y643115D1*
X3156129Y647379D1*
X3149924Y652678D1*
X3144625Y658883D1*
X3140361Y665841D1*
X3137238Y673379D1*
X3135333Y681314D1*
X3134693Y689449D1*
X3135102Y695635D1*
X3066895Y695634D1*
Y759171D1*
X3060938Y753209D1*
X3060852Y666731D1*
X3060037Y661588D1*
X3058428Y656635D1*
X3056064Y651996D1*
X3053003Y647782D1*
X3035478Y630112D1*
X3202576Y630136D1*
X3258990Y686567D1*
X3259112Y939731D1*
X3259927Y944874D1*
X3261535Y949827D1*
X3263899Y954466D1*
X3266961Y958680D1*
X3299203Y991067D1*
X3301001Y998259D1*
X3304176Y1005924D1*
X3308510Y1012997D1*
X3313899Y1019306D1*
X3316030Y1021277D1*
X3311081Y1026325D1*
X3306205Y1033037D1*
X3302438Y1040429D1*
X3299874Y1048319D1*
X3298576Y1056513D1*
Y1064810D1*
X3299874Y1073004D1*
X3301983Y1079661D1*
X3202383Y1179265D1*
X2545831Y1179154D1*
X2612760D1*
Y1158203D1*
X2620718Y1162337D1*
X2628479Y1164858D1*
X2636538Y1166135D1*
X2644698D1*
X2652757Y1164858D1*
X2660518Y1162337D1*
X2667789Y1158633D1*
X2674390Y1153836D1*
X2680160Y1148066D1*
X2684957Y1141465D1*
X2688661Y1134194D1*
X2691182Y1126433D1*
X2692459Y1118374D1*
Y1110214D1*
X2691182Y1102155D1*
X2688661Y1094394D1*
X2684957Y1087123D1*
X2680160Y1080522D1*
X2674390Y1074752D1*
X2667789Y1069955D1*
X2660518Y1066251D1*
X2652757Y1063730D1*
X2644698Y1062453D1*
X2636538D1*
X2634432Y1062702D1*
X2634433Y994495D1*
X2528693D1*
Y1001277D1*
X2523055Y998520D1*
X2515165Y995955D1*
X2506971Y994657D1*
X2498675D1*
X2490480Y995955D1*
X2482591Y998520D1*
X2475198Y1002286D1*
X2468487Y1007163D1*
X2463467Y1012112D1*
X2458419Y1007163D1*
X2451707Y1002286D1*
X2444315Y998520D1*
X2436425Y995955D1*
X2428231Y994657D1*
X2419934D1*
X2411740Y995955D1*
X2403850Y998520D1*
X2396458Y1002286D1*
X2389747Y1007163D1*
X2387091Y1009617D1*
X2387098Y993428D1*
X2289232D1*
Y1162160D1*
X2387098D1*
Y1141843D1*
X2388988Y1148068D1*
X2391352Y1152707D1*
X2394413Y1156921D1*
X2441652Y1204304D1*
X2475194Y1237702D1*
X2479408Y1240764D1*
X2484047Y1243127D1*
X2489000Y1244736D1*
X2494143Y1245551D1*
X2561051Y1245654D1*
X3218714Y1245551D1*
X3223857Y1244736D1*
X3228810Y1243127D1*
X3233449Y1240764D1*
X3237663Y1237702D1*
X3285046Y1190463D1*
X3363626Y1112071D1*
X3371516Y1109507D1*
X3378908Y1105740D1*
X3385619Y1100864D1*
X3391486Y1094997D1*
X3396362Y1088286D1*
X3400129Y1080894D1*
X3402693Y1073004D1*
X3403991Y1064810D1*
Y1056513D1*
X3402693Y1048319D1*
X3400129Y1040429D1*
X3396362Y1033037D1*
X3391486Y1026325D1*
X3386537Y1021306D1*
X3391486Y1016257D1*
X3396362Y1009546D1*
X3400129Y1002154D1*
X3402693Y994264D1*
X3403991Y986070D1*
Y977773D1*
X3402693Y969579D1*
X3400129Y961689D1*
X3396362Y954297D1*
X3391486Y947585D1*
X3386537Y942566D1*
X3391486Y937517D1*
X3396362Y930806D1*
X3400129Y923413D1*
X3402693Y915524D1*
X3403991Y907329D1*
Y899033D1*
X3402693Y890839D1*
X3400129Y882949D1*
X3396362Y875556D1*
X3391486Y868845D1*
X3386537Y863825D1*
X3391486Y858777D1*
X3396362Y852066D1*
X3400129Y844673D1*
X3402693Y836783D1*
X3403991Y828589D1*
Y820293D1*
X3402693Y812098D1*
X3400129Y804209D1*
X3397337Y798556D1*
X3404154Y798571D1*
Y736714D1*
X3410077Y738007D1*
X3418213Y738647D1*
X3426348Y738007D1*
X3434282Y736102D1*
X3441820Y732979D1*
X3448778Y728715D1*
X3454983Y723416D1*
X3460282Y717211D1*
X3464546Y710253D1*
X3467669Y702715D1*
X3469573Y694781D1*
X3470214Y686646D1*
X3469573Y678510D1*
X3467669Y670576D1*
X3464546Y663038D1*
X3460282Y656080D1*
X3454983Y649875D1*
X3448778Y644576D1*
X3441820Y640312D1*
X3434282Y637189D1*
X3426348Y635285D1*
X3418213Y634644D1*
X3410077Y635285D1*
X3402143Y637189D1*
X3394605Y640312D1*
X3387647Y644576D1*
X3381442Y649875D1*
X3376143Y656080D1*
X3371879Y663038D1*
X3368756Y670576D1*
X3366852Y678510D1*
X3366211Y686646D1*
X3366621Y692832D1*
X3343503Y692831D1*
X3343407Y632818D1*
X3342592Y627675D1*
X3340983Y622722D1*
X3338619Y618083D1*
X3335558Y613869D1*
X3288319Y566486D1*
X3259740Y538051D1*
X3255526Y534990D1*
X3250887Y532626D1*
X3245934Y531017D1*
X3240791Y530202D1*
X3173883Y530100D1*
X2272706Y530202D1*
X2267563Y531017D1*
X2262610Y532626D1*
X2257971Y534990D1*
X2253757Y538051D1*
X2206374Y585290D1*
X2167730Y624079D1*
X2164668Y628293D1*
X2162304Y632932D1*
X2160696Y637885D1*
X2159881Y643028D1*
X2159778Y647245D1*
X2157075Y650924D1*
Y611056D1*
X2162753Y608655D1*
X2168510Y605127D1*
X2173644Y600743D1*
X2178029Y595609D1*
X2181556Y589852D1*
X2184140Y583614D1*
X2185717Y577049D1*
X2186247Y570318D1*
X2185717Y563587D1*
X2184140Y557021D1*
X2181556Y550783D1*
X2178029Y545026D1*
X2173644Y539892D1*
X2168510Y535508D1*
X2162753Y531980D1*
X2156516Y529396D1*
X2149950Y527820D1*
X2143219Y527290D1*
X2136488Y527820D1*
X2129923Y529396D1*
X2123685Y531980D1*
X2117928Y535508D1*
X2112794Y539892D1*
X2108409Y545026D1*
X2104882Y550783D1*
X2102298Y557021D1*
X2101621Y559423D1*
X2079913Y581286D1*
X2075210Y587921D1*
X2073933Y579862D1*
X2071412Y572101D1*
X2067707Y564831D1*
X2062911Y558230D1*
X2057140Y552459D1*
X2050539Y547663D1*
X2043269Y543958D1*
X2035508Y541437D1*
X2027449Y540160D1*
X2019289D1*
X2011230Y541437D1*
X2003469Y543958D1*
X1996198Y547663D1*
X1989597Y552459D1*
X1983827Y558230D1*
X1979030Y564831D1*
X1975325Y572101D1*
X1972804Y579862D1*
X1971528Y587921D1*
Y596081D1*
X1971777Y598188D1*
X1922133Y598186D1*
X1922130Y515480D1*
X1925680Y508724D1*
X1927766Y502303D1*
X1928823Y495634D1*
Y488883D1*
X1927766Y482214D1*
X1925680Y475793D1*
X1922615Y469777D1*
X1918646Y464315D1*
X1913871Y459541D1*
X1908409Y455571D1*
X1902394Y452507D1*
X1895972Y450420D1*
X1889303Y449364D1*
X1882552D1*
X1875883Y450420D1*
X1869462Y452507D1*
X1863446Y455571D1*
X1857984Y459541D1*
X1853210Y464315D1*
X1849240Y469777D1*
X1846176Y475793D1*
X1844089Y482214D1*
X1843033Y488883D1*
Y495634D1*
X1844089Y502303D1*
X1846176Y508724D1*
X1847881Y512311D1*
X1847886Y604240D1*
X1841022Y604205D1*
X1842364Y595912D1*
Y587752D1*
X1841087Y579693D1*
X1838566Y571932D1*
X1834861Y564661D1*
X1830064Y558060D1*
X1824294Y552290D1*
X1817693Y547493D1*
X1810423Y543789D1*
X1802661Y541268D1*
X1794602Y539991D1*
X1786442D1*
X1778383Y541268D1*
X1770622Y543789D1*
X1763352Y547493D1*
X1756751Y552290D1*
X1750980Y558060D1*
X1746184Y564661D1*
X1742479Y571932D1*
X1739958Y579693D1*
X1738681Y587752D1*
Y595912D1*
X1738930Y598018D1*
X1690794Y598017D1*
Y513340D1*
X1694437Y506416D1*
X1696524Y499995D1*
X1697580Y493325D1*
Y486575D1*
X1696524Y479906D1*
X1694437Y473484D1*
X1691373Y467469D1*
X1687403Y462007D1*
X1682629Y457232D1*
X1677167Y453262D1*
X1671151Y450198D1*
X1664730Y448112D1*
X1658060Y447055D1*
X1651310D1*
X1644640Y448112D1*
X1638219Y450198D1*
X1632203Y453262D1*
X1631073Y454018D1*
X1626496Y451803D1*
X1620075Y449717D1*
X1613406Y448660D1*
X1606655D1*
X1599986Y449717D1*
X1593564Y451803D1*
X1587549Y454867D1*
X1582087Y458837D1*
X1577312Y463612D1*
X1573343Y469073D1*
X1570278Y475089D1*
X1568192Y481510D1*
X1567135Y488180D1*
X1567091Y493783D1*
X1557832Y484524D1*
X1555950Y478923D1*
X1552886Y472907D1*
X1548916Y467445D1*
X1544142Y462671D1*
X1538680Y458701D1*
X1532664Y455636D1*
X1526243Y453550D1*
X1519573Y452493D1*
X1512823D1*
X1506154Y453550D1*
X1499732Y455636D1*
X1493717Y458701D1*
X1488255Y462671D1*
X1483480Y467445D1*
X1479510Y472907D1*
X1476446Y478923D1*
X1474360Y485344D1*
X1473303Y492013D1*
Y498764D1*
X1474360Y505433D1*
X1476446Y511854D1*
X1479510Y517870D1*
X1483480Y523332D1*
X1488255Y528106D1*
X1493717Y532076D1*
X1499732Y535140D1*
X1504185Y536672D1*
X1504178Y586266D1*
X1499740Y590272D1*
X1493751Y597285D1*
X1488930Y605148D1*
X1485402Y613669D1*
X1483248Y622638D1*
X1482525Y631832D1*
X1483248Y641026D1*
X1485402Y649995D1*
X1488930Y658516D1*
X1493751Y666379D1*
X1499434Y673062D1*
X1482525Y673056D1*
Y785892D1*
X1385378Y785903D1*
X1385385Y887706D1*
X1379385Y894198D1*
X1373453Y895178D1*
X1369100Y896501D1*
X1369093Y787937D1*
X1271227D1*
Y801752D1*
X1264748Y801831D1*
X1258995Y802743D1*
X1253454Y804542D1*
X1248264Y807186D1*
X1245832Y808814D1*
X1244270Y808782D1*
Y793331D1*
X1177160D1*
X1177047Y787521D1*
X1176135Y781768D1*
X1174336Y776227D1*
X1171692Y771037D1*
X1168268Y766324D1*
X1133810Y731705D1*
X1114755Y712650D1*
X1114753Y702080D1*
X1119663Y706837D1*
X1126374Y711714D1*
X1133766Y715480D1*
X1141656Y718045D1*
X1149850Y719343D1*
X1158147D1*
X1166341Y718045D1*
X1174231Y715480D1*
X1181623Y711714D1*
X1188335Y706837D1*
X1193354Y701888D1*
X1198403Y706837D1*
X1205114Y711714D1*
X1212507Y715480D1*
X1220396Y718045D1*
X1228591Y719343D1*
X1236887D1*
X1245081Y718045D1*
X1252971Y715480D1*
X1258623Y712689D1*
X1258609Y719505D1*
X1320466D1*
X1319173Y725429D1*
X1318533Y733564D1*
X1319173Y741699D1*
X1321077Y749634D1*
X1324201Y757172D1*
X1328465Y764130D1*
X1333764Y770335D1*
X1339969Y775634D1*
X1346927Y779898D1*
X1354465Y783021D1*
X1362399Y784925D1*
X1370534Y785566D1*
X1378669Y784925D1*
X1386604Y783021D1*
X1394142Y779898D1*
X1401100Y775634D1*
X1407304Y770335D1*
X1412604Y764130D1*
X1416867Y757172D1*
X1419991Y749634D1*
X1421895Y741699D1*
X1422535Y733564D1*
X1421895Y725429D1*
X1419991Y717495D1*
X1416867Y709957D1*
X1412604Y702999D1*
X1407304Y696794D1*
X1401100Y691495D1*
X1394142Y687231D1*
X1386604Y684108D1*
X1378669Y682203D1*
X1370534Y681563D1*
X1364348Y681972D1*
X1364349Y613765D1*
X1258609D1*
Y620533D1*
X1252971Y617790D1*
X1245081Y615226D1*
X1236887Y613928D1*
X1228591D1*
X1220396Y615226D1*
X1212507Y617790D1*
X1205114Y621556D1*
X1198403Y626433D1*
X1193383Y631382D1*
X1188335Y626433D1*
X1181623Y621556D1*
X1174231Y617790D1*
X1166341Y615226D1*
X1158147Y613928D1*
X1149850D1*
X1141656Y615226D1*
X1133766Y617790D1*
X1126374Y621556D1*
X1119663Y626433D1*
X1114753Y631262D1*
Y519000D1*
X1117383Y513743D1*
X1119470Y507322D1*
X1120526Y500652D1*
Y493902D1*
X1119470Y487232D1*
X1117383Y480811D1*
X1114319Y474795D1*
X1110349Y469333D1*
X1105575Y464559D1*
X1100113Y460589D1*
X1094097Y457525D1*
X1087676Y455438D1*
X1081007Y454382D1*
X1074256D1*
X1067587Y455438D1*
X1061165Y457525D1*
X1055150Y460589D1*
X1049688Y464559D1*
X1044913Y469333D1*
X1040944Y474795D1*
X1037879Y480811D1*
X1035793Y487232D1*
X1034736Y493902D1*
Y500652D1*
X1035793Y507322D1*
X1037879Y513743D1*
X1040512Y518987D1*
X1040509Y672571D1*
X967815Y672592D1*
X967835Y639846D1*
X973759Y641139D1*
X981894Y641780D1*
X990029Y641139D1*
X997963Y639235D1*
X1005501Y636112D1*
X1012459Y631848D1*
X1018664Y626549D1*
X1023963Y620344D1*
X1028227Y613386D1*
X1031350Y605848D1*
X1033255Y597913D1*
X1033895Y589778D1*
X1033255Y581643D1*
X1031350Y573709D1*
X1028227Y566171D1*
X1023963Y559213D1*
X1018664Y553008D1*
X1012459Y547709D1*
X1005501Y543445D1*
X997963Y540322D1*
X990029Y538417D1*
X981894Y537777D1*
X973759Y538417D1*
X965824Y540322D1*
X958286Y543445D1*
X951328Y547709D1*
X945123Y553008D1*
X939824Y559213D1*
X935560Y566171D1*
X932437Y573709D1*
X930533Y581643D1*
X929892Y589778D1*
X930302Y595965D1*
X862094Y595963D1*
Y701703D1*
X868862D1*
X866119Y707341D1*
X863555Y715231D1*
X862257Y723425D1*
Y731722D1*
X863555Y739916D1*
X866119Y747806D1*
X869886Y755198D1*
X874762Y761909D1*
X880629Y767776D1*
X887340Y772652D1*
X894732Y776419D1*
X902622Y778983D1*
X910816Y780281D1*
X919113D1*
X927307Y778983D1*
X935197Y776419D1*
X942589Y772652D1*
X949337Y767743D1*
X949340Y790143D1*
X958526D1*
X734234Y1811037D2*
X746685D1*
X746701Y1832319D1*
X488810Y1831298D1*
X484277Y1832016D1*
X479912Y1833433D1*
X475823Y1835517D1*
X472110Y1838215D1*
X468865Y1841461D1*
X466167Y1845173D1*
X464083Y1849262D1*
X462665Y1853627D1*
X461948Y1858160D1*
X461857Y1943133D1*
X461948Y2539500D1*
X462665Y2544033D1*
X464083Y2548398D1*
X466167Y2552487D1*
X468870Y2556206D1*
X468218Y2557934D1*
X462252Y2561920D1*
X456618Y2566362D1*
X451350Y2571232D1*
X446480Y2576500D1*
X442038Y2582134D1*
X438052Y2588100D1*
X434547Y2594360D1*
X432189Y2599475D1*
X432185Y557385D1*
X436588Y562084D1*
X441856Y566954D1*
X447490Y571396D1*
X453455Y575382D1*
X459715Y578887D1*
X466231Y581891D1*
X471778Y583938D1*
X471770Y671168D1*
X640503D1*
X640739Y669885D1*
X647470Y669354D1*
X654035Y667778D1*
X660273Y665194D1*
X666030Y661667D1*
X671164Y657282D1*
X675549Y652148D1*
X679076Y646391D1*
X681660Y640154D1*
X683236Y633588D1*
X683766Y626857D1*
X683236Y620126D1*
X681660Y613560D1*
X679076Y607323D1*
X675549Y601566D1*
X671164Y596432D1*
X666030Y592047D1*
X660273Y588520D1*
X654035Y585936D1*
X647470Y584360D1*
X640514Y583839D1*
X640503Y573302D1*
X552192D1*
X560538Y566954D1*
X565806Y562084D1*
X570676Y556816D1*
X575118Y551182D1*
X579104Y545217D1*
X582609Y538957D1*
X585613Y532441D1*
X588096Y525710D1*
X590043Y518806D1*
X591444Y511769D1*
X592286Y504644D1*
X592568Y497475D1*
X592286Y490306D1*
X591444Y483181D1*
X590043Y476144D1*
X588096Y469240D1*
X585613Y462509D1*
X582609Y455993D1*
X579104Y449734D1*
X575118Y443768D1*
X570676Y438134D1*
X565085Y432199D1*
X3377152Y432185D1*
X3370235Y436757D1*
X3364601Y441199D1*
X3359333Y446070D1*
X3354463Y451337D1*
X3350021Y456971D1*
X3346035Y462937D1*
X3342530Y469197D1*
X3339526Y475713D1*
X3337043Y482444D1*
X3335096Y489348D1*
X3333696Y496385D1*
X3332853Y503509D1*
X3332571Y510678D1*
X3332853Y517848D1*
X3333696Y524972D1*
X3335096Y532009D1*
X3337043Y538913D1*
X3339526Y545644D1*
X3342530Y552160D1*
X3346035Y558420D1*
X3350021Y564386D1*
X3354463Y570020D1*
X3359333Y575287D1*
X3364601Y580157D1*
X3370235Y584600D1*
X3376201Y588585D1*
X3382461Y592091D1*
X3388976Y595094D1*
X3395707Y597577D1*
X3402612Y599525D1*
X3409648Y600925D1*
X3416773Y601768D1*
X3423942Y602050D1*
X3431112Y601768D1*
X3438236Y600925D1*
X3445273Y599525D1*
X3452177Y597577D1*
X3458908Y595094D1*
X3465424Y592091D1*
X3471684Y588585D1*
X3477650Y584600D1*
X3483283Y580157D1*
X3488551Y575287D1*
X3493421Y570020D1*
X3497864Y564386D1*
X3501849Y558420D1*
X3504820Y553114D1*
X3504823Y2592222D1*
X3497898Y2581108D1*
X3493455Y2575474D1*
X3488585Y2570206D1*
X3483318Y2565336D1*
X3477684Y2560894D1*
X3471718Y2556908D1*
X3465458Y2553403D1*
X3458942Y2550399D1*
X3452211Y2547916D1*
X3445307Y2545969D1*
X3438270Y2544568D1*
X3431146Y2543726D1*
X3423976Y2543444D1*
X3416807Y2543726D1*
X3409682Y2544568D1*
X3402646Y2545969D1*
X3395741Y2547916D1*
X3389010Y2550399D1*
X3382495Y2553403D1*
X3376235Y2556908D1*
X3370269Y2560894D1*
X3364635Y2565336D1*
X3359367Y2570206D1*
X3354497Y2575474D1*
X3350055Y2581108D1*
X3346070Y2587073D1*
X3342564Y2593333D1*
X3339560Y2599849D1*
X3337077Y2606580D1*
X3335130Y2613484D1*
X3333730Y2620521D1*
X3332887Y2627646D1*
X3332605Y2634815D1*
X3332887Y2641984D1*
X3333730Y2649109D1*
X3335130Y2656146D1*
X3337077Y2663050D1*
X3339560Y2669781D1*
X3342564Y2676297D1*
X3346070Y2682556D1*
X3350055Y2688522D1*
X3354497Y2694156D1*
X3359367Y2699424D1*
X3364635Y2704294D1*
X3370269Y2708736D1*
X3376235Y2712722D1*
X3385066Y2717412D1*
X557441Y2717253D1*
X563701Y2713748D1*
X569667Y2709762D1*
X575301Y2705320D1*
X580568Y2700450D1*
X585438Y2695182D1*
X589881Y2689549D1*
X593866Y2683583D1*
X597371Y2677323D1*
X600375Y2670807D1*
X602858Y2664076D1*
X604806Y2657172D1*
X606206Y2650135D1*
X607049Y2643010D1*
X607331Y2635841D1*
X607049Y2628672D1*
X606206Y2621547D1*
X604806Y2614510D1*
X602858Y2607606D1*
X600375Y2600875D1*
X597371Y2594360D1*
X593866Y2588100D1*
X589881Y2582134D1*
X585438Y2576500D1*
X580568Y2571232D1*
X575403Y2566457D1*
X971882Y2566370D1*
X976417Y2565665D1*
X980786Y2564261D1*
X984883Y2562190D1*
X988604Y2559504D1*
X991860Y2556269D1*
X994568Y2552564D1*
X996665Y2548482D1*
X998097Y2544122D1*
X998829Y2539591D1*
X999185Y2454619D1*
X1000955Y1860398D1*
X1000257Y1855861D1*
X998858Y1851491D1*
X996793Y1847392D1*
X994112Y1843667D1*
X990881Y1840407D1*
X987178Y1837693D1*
X983098Y1835592D1*
X978740Y1834155D1*
X974210Y1833417D1*
X889239Y1832954D1*
X820953Y1832654D1*
X820945Y1811058D1*
X842598Y1811037D1*
Y1693486D1*
X725047D1*
Y1811037D1*
X734234D1*
X1050845Y2238112D2*
X1063297D1*
X1063312Y2275182D1*
X1051491Y2275147D1*
Y2373013D1*
X1065235D1*
X1065269Y2401293D1*
X1058961Y2406681D1*
X1053572Y2412990D1*
X1049238Y2420063D1*
X1046063Y2427728D1*
X1044126Y2435795D1*
X1043475Y2444066D1*
X1044126Y2452336D1*
X1046063Y2460403D1*
X1049238Y2468068D1*
X1053572Y2475142D1*
X1058961Y2481450D1*
X1065269Y2486839D1*
X1072343Y2491173D1*
X1080008Y2494348D1*
X1088075Y2496285D1*
X1096345Y2496936D1*
X1104615Y2496285D1*
X1112682Y2494348D1*
X1120348Y2491173D1*
X1122230Y2490119D1*
X1122215Y2496936D1*
X1184072D1*
X1182780Y2502860D1*
X1182139Y2510995D1*
X1182780Y2519130D1*
X1184684Y2527064D1*
X1187807Y2534602D1*
X1192071Y2541560D1*
X1197370Y2547765D1*
X1203575Y2553064D1*
X1210533Y2557328D1*
X1218071Y2560451D1*
X1226005Y2562356D1*
X1234140Y2562996D1*
X1242276Y2562356D1*
X1250210Y2560451D1*
X1257748Y2557328D1*
X1264706Y2553064D1*
X1270911Y2547765D1*
X1276210Y2541560D1*
X1280474Y2534602D1*
X1283597Y2527064D1*
X1285501Y2519130D1*
X1286142Y2510995D1*
X1285501Y2502860D1*
X1283597Y2494925D1*
X1280474Y2487387D1*
X1276210Y2480429D1*
X1270911Y2474224D1*
X1264706Y2468925D1*
X1257748Y2464661D1*
X1250210Y2461538D1*
X1242276Y2459634D1*
X1234140Y2458993D1*
X1227954Y2459403D1*
X1227955Y2391196D1*
X1139516D1*
X1139514Y2373031D1*
X1220223Y2373013D1*
Y2275147D1*
X1137541D1*
X1137556Y2238117D1*
X1159210Y2238112D1*
Y2120560D1*
X1041659D1*
Y2238112D1*
X1050845D1*
X951340Y922138D2*
X951341Y820335D1*
X853475D1*
Y886526D1*
X847507Y887525D1*
X841085Y889612D1*
X835070Y892676D1*
X829608Y896646D1*
X824833Y901420D1*
X820864Y906882D1*
X817799Y912898D1*
X815713Y919319D1*
X814656Y925988D1*
Y932739D1*
X815713Y939408D1*
X817799Y945829D1*
X820864Y951845D1*
X824833Y957307D1*
X829608Y962081D1*
X835070Y966051D1*
X841085Y969115D1*
X847507Y971202D1*
X853480Y972176D1*
X853475Y989067D1*
X951341D1*
Y922143D1*
X1542644Y945148D2*
X1483220D1*
X1483244Y790610D1*
X1585333Y790608D1*
X1594058Y799329D1*
X1582243Y799567D1*
Y884186D1*
X1575089Y884213D1*
X1574140Y878801D1*
X1572054Y872379D1*
X1568990Y866364D1*
X1565020Y860902D1*
X1560245Y856127D1*
X1554783Y852157D1*
X1548768Y849093D1*
X1542346Y847007D1*
X1535677Y845950D1*
X1528927D1*
X1522257Y847007D1*
X1515836Y849093D1*
X1509820Y852157D1*
X1504358Y856127D1*
X1499584Y860902D1*
X1495614Y866364D1*
X1492550Y872379D1*
X1490463Y878801D1*
X1489407Y885470D1*
Y892220D1*
X1490463Y898890D1*
X1492550Y905311D1*
X1495614Y911327D1*
X1499584Y916789D1*
X1504358Y921563D1*
X1509820Y925533D1*
X1515836Y928597D1*
X1522257Y930684D1*
X1528178Y931652D1*
X1539302Y942631D1*
X1541357Y944251D1*
X1094656Y1764916D2*
X1210370D1*
Y1647365D1*
X1092819D1*
Y1764916D1*
X1094656D1*
X3131525Y2290587D2*
X3126891Y2284239D1*
X3121942Y2279219D1*
X3126891Y2274171D1*
X3131768Y2267459D1*
X3135534Y2260067D1*
X3138098Y2252177D1*
X3139396Y2243983D1*
Y2235686D1*
X3138098Y2227492D1*
X3135534Y2219602D1*
X3132743Y2213950D1*
X3139559Y2213965D1*
Y2152108D1*
X3145483Y2153400D1*
X3153618Y2154041D1*
X3161753Y2153400D1*
X3169688Y2151496D1*
X3177226Y2148373D1*
X3184184Y2144109D1*
X3190388Y2138810D1*
X3195688Y2132605D1*
X3199951Y2125647D1*
X3203075Y2118109D1*
X3204979Y2110175D1*
X3205619Y2102039D1*
X3204979Y2093904D1*
X3203075Y2085970D1*
X3199951Y2078432D1*
X3195688Y2071474D1*
X3190388Y2065269D1*
X3184184Y2059970D1*
X3177226Y2055706D1*
X3169688Y2052583D1*
X3161753Y2050678D1*
X3153618Y2050038D1*
X3145483Y2050678D1*
X3137549Y2052583D1*
X3130010Y2055706D1*
X3123052Y2059970D1*
X3116848Y2065269D1*
X3111549Y2071474D1*
X3107285Y2078432D1*
X3104161Y2085970D1*
X3102257Y2093904D1*
X3101617Y2102039D1*
X3102026Y2108226D1*
X3033819Y2108224D1*
Y2177287D1*
X2992028Y2135503D1*
X2991940Y2038589D1*
X2991125Y2033446D1*
X2989516Y2028493D1*
X2987976Y2024865D1*
Y2003728D1*
X3187929Y2003739D1*
X3205974Y2021753D1*
X3205978Y2272871D1*
X3144192Y2272866D1*
Y2290556D1*
X3131512Y2290583D1*
X3144839Y1820707D2*
X3145453Y1815585D1*
X3177610D1*
X3177605Y1898109D1*
X3155344Y1920344D1*
X2486051Y1920328D1*
X2429184Y1863492D1*
X2429194Y1834366D1*
X2435365Y1828433D1*
X2440413Y1833382D1*
X2447125Y1838259D1*
X2454517Y1842025D1*
X2462407Y1844589D1*
X2470601Y1845887D1*
X2478898D1*
X2487092Y1844589D1*
X2494982Y1842025D1*
X2500605Y1839249D1*
X2500619Y1846050D1*
X2562448D1*
X2561184Y1851974D1*
X2560543Y1860109D1*
X2561184Y1868244D1*
X2563088Y1876178D1*
X2566211Y1883717D1*
X2570475Y1890675D1*
X2575774Y1896879D1*
X2581979Y1902178D1*
X2588937Y1906442D1*
X2596475Y1909566D1*
X2604409Y1911470D1*
X2612545Y1912110D1*
X2620680Y1911470D1*
X2628614Y1909566D1*
X2636152Y1906442D1*
X2643110Y1902178D1*
X2649315Y1896879D1*
X2654614Y1890675D1*
X2658878Y1883717D1*
X2662001Y1876178D1*
X2663906Y1868244D1*
X2664546Y1860109D1*
X2663906Y1851974D1*
X2662001Y1844039D1*
X2658878Y1836501D1*
X2654614Y1829543D1*
X2649315Y1823339D1*
X2643110Y1818039D1*
X2636152Y1813776D1*
X2628614Y1810652D1*
X2620680Y1808748D1*
X2612545Y1808108D1*
X2606358Y1808517D1*
X2606360Y1770513D1*
X2679942Y1770524D1*
X2677765Y1776135D1*
X2675828Y1784202D1*
X2675177Y1792472D1*
X2675828Y1800743D1*
X2677765Y1808810D1*
X2680940Y1816475D1*
X2685274Y1823549D1*
X2690663Y1829857D1*
X2696971Y1835245D1*
X2704045Y1839580D1*
X2711710Y1842755D1*
X2719777Y1844692D1*
X2728047Y1845343D1*
X2736318Y1844692D1*
X2744385Y1842755D1*
X2752050Y1839580D1*
X2759123Y1835245D1*
X2765432Y1829857D1*
X2767403Y1827726D1*
X2772451Y1832675D1*
X2779163Y1837551D1*
X2786555Y1841318D1*
X2794445Y1843882D1*
X2802639Y1845180D1*
X2810936D1*
X2819130Y1843882D1*
X2827020Y1841318D1*
X2832643Y1838542D1*
X2832657Y1845343D1*
X2894486D1*
X2893222Y1851266D1*
X2892581Y1859402D1*
X2893222Y1867537D1*
X2895126Y1875471D1*
X2898249Y1883009D1*
X2902513Y1889967D1*
X2907812Y1896172D1*
X2914017Y1901471D1*
X2920975Y1905735D1*
X2928513Y1908858D1*
X2936448Y1910762D1*
X2944583Y1911403D1*
X2952718Y1910762D1*
X2960652Y1908858D1*
X2968190Y1905735D1*
X2975148Y1901471D1*
X2979022Y1898327D1*
X2979029Y1918575D1*
X3147761D1*
Y1820709D1*
X3144854D1*
X3360173Y1699178D2*
X3355501Y1693958D1*
X3360130D1*
X2834541Y2235563D2*
X2841251D1*
X2841345Y2286953D1*
X2842160Y2292096D1*
X2843769Y2297049D1*
X2846133Y2301688D1*
X2849194Y2305902D1*
X2874941Y2331793D1*
X2542904Y2331803D1*
X2542936Y2235327D1*
X2556559Y2235312D1*
X2555294Y2241236D1*
X2554654Y2249371D1*
X2555294Y2257507D1*
X2557198Y2265441D1*
X2560322Y2272979D1*
X2564585Y2279937D1*
X2569885Y2286142D1*
X2576089Y2291441D1*
X2583047Y2295705D1*
X2590585Y2298828D1*
X2598520Y2300732D1*
X2606655Y2301373D1*
X2614790Y2300732D1*
X2622724Y2298828D1*
X2630262Y2295705D1*
X2637220Y2291441D1*
X2643425Y2286142D1*
X2648724Y2279937D1*
X2652988Y2272979D1*
X2656112Y2265441D1*
X2658016Y2257507D1*
X2658656Y2249371D1*
X2658016Y2241236D1*
X2656112Y2233302D1*
X2652988Y2225764D1*
X2648724Y2218806D1*
X2643425Y2212601D1*
X2637220Y2207302D1*
X2630262Y2203038D1*
X2622724Y2199915D1*
X2614790Y2198010D1*
X2606655Y2197370D1*
X2600469Y2197780D1*
X2600470Y2129572D1*
X2494730D1*
Y2136354D1*
X2489092Y2133597D1*
X2481202Y2131033D1*
X2473008Y2129735D1*
X2464711D1*
X2456517Y2131033D1*
X2448627Y2133597D1*
X2441235Y2137364D1*
X2434524Y2142240D1*
X2429504Y2147189D1*
X2424455Y2142240D1*
X2421743Y2140101D1*
X2421748Y2117433D1*
X2425971Y2113706D1*
X2430356Y2108572D1*
X2433883Y2102815D1*
X2436467Y2096577D1*
X2438043Y2090012D1*
X2438573Y2083281D1*
X2438043Y2076550D1*
X2436467Y2069984D1*
X2433883Y2063747D1*
X2430356Y2057990D1*
X2425971Y2052856D1*
X2420837Y2048471D1*
X2415080Y2044944D1*
X2408843Y2042360D1*
X2402277Y2040783D1*
X2395546Y2040253D1*
X2388815Y2040783D1*
X2382249Y2042360D1*
X2376012Y2044944D1*
X2370255Y2048471D1*
X2365121Y2052856D1*
X2360736Y2057990D1*
X2357209Y2063747D1*
X2354625Y2069984D1*
X2353049Y2076550D1*
X2352518Y2083281D1*
X2353049Y2090012D1*
X2354625Y2096577D1*
X2355378Y2098619D1*
Y2142597D1*
X2349917Y2148106D1*
X2345041Y2154818D1*
X2341274Y2162210D1*
X2338710Y2170100D1*
X2337412Y2178294D1*
Y2186591D1*
X2338669Y2194577D1*
X2327336Y2194587D1*
Y2331798D1*
X2297896Y2302549D1*
X2259201Y2263853D1*
X2259197Y2253731D1*
X2263459Y2253297D1*
X2270025Y2251720D1*
X2276262Y2249136D1*
X2282020Y2245609D1*
X2287154Y2241224D1*
X2291538Y2236091D1*
X2295066Y2230333D1*
X2297650Y2224096D1*
X2299226Y2217530D1*
X2299756Y2210799D1*
X2299226Y2204068D1*
X2297650Y2197503D1*
X2295066Y2191265D1*
X2291538Y2185508D1*
X2289913Y2183240D1*
Y2076341D1*
X2292798Y2072209D1*
X2295862Y2066193D1*
X2297949Y2059772D1*
X2299005Y2053102D1*
Y2046352D1*
X2297949Y2039682D1*
X2295862Y2033261D1*
X2292798Y2027245D1*
X2288828Y2021783D1*
X2284054Y2017009D1*
X2278592Y2013039D1*
X2274722Y2010963D1*
X2280617Y2011369D1*
X2287348Y2010839D1*
X2293913Y2009262D1*
X2300151Y2006678D1*
X2305908Y2003151D1*
X2311042Y1998766D1*
X2315427Y1993633D1*
X2318954Y1987875D1*
X2320776Y1983705D1*
X2327348Y1986454D1*
X2333913Y1988030D1*
X2340644Y1988560D1*
X2347375Y1988030D1*
X2353941Y1986454D1*
X2360178Y1983870D1*
X2364190Y1981509D1*
X2394760Y2011929D1*
X2398974Y2014991D1*
X2403613Y2017354D1*
X2408566Y2018963D1*
X2413709Y2019778D1*
X2480617Y2019881D1*
X2819256D1*
X2819244Y2070797D1*
X2925682D1*
X2925672Y2129791D1*
X2825354Y2129823D1*
Y2136605D1*
X2819717Y2133848D1*
X2811827Y2131283D1*
X2803633Y2129986D1*
X2795336D1*
X2787142Y2131283D1*
X2779252Y2133848D1*
X2771860Y2137614D1*
X2765148Y2142491D1*
X2760129Y2147440D1*
X2755080Y2142491D1*
X2748369Y2137614D1*
X2740976Y2133848D1*
X2733087Y2131283D1*
X2724892Y2129986D1*
X2716596D1*
X2708402Y2131283D1*
X2700512Y2133848D1*
X2693119Y2137614D1*
X2686408Y2142491D1*
X2680542Y2148357D1*
X2675665Y2155068D1*
X2671899Y2162461D1*
X2669335Y2170350D1*
X2668037Y2178545D1*
Y2186841D1*
X2669335Y2195035D1*
X2671899Y2202925D1*
X2675665Y2210318D1*
X2680542Y2217029D1*
X2686408Y2222895D1*
X2693119Y2227772D1*
X2700512Y2231538D1*
X2708402Y2234102D1*
X2716596Y2235400D1*
X2724892D1*
X2733087Y2234102D1*
X2740976Y2231538D1*
X2748369Y2227772D1*
X2755080Y2222895D1*
X2760100Y2217946D1*
X2765148Y2222895D1*
X2771860Y2227772D1*
X2779252Y2231538D1*
X2787142Y2234102D1*
X2795336Y2235400D1*
X2803633D1*
X2811827Y2234102D1*
X2819717Y2231538D1*
X2825369Y2228747D1*
X2825354Y2235563D1*
X2834541D1*
X2852449Y1567432D2*
X2863035D1*
X2863013Y1617076D1*
X2855089Y1609274D1*
X2850875Y1606213D1*
X2846236Y1603849D1*
X2841283Y1602240D1*
X2836140Y1601425D1*
X2769232Y1601323D1*
X2667787D1*
X2670156Y1595299D1*
X2672060Y1587365D1*
X2672701Y1579230D1*
X2672060Y1571094D1*
X2670156Y1563160D1*
X2667033Y1555622D1*
X2662769Y1548664D1*
X2657470Y1542459D1*
X2651265Y1537160D1*
X2644307Y1532896D1*
X2636769Y1529773D1*
X2628835Y1527869D1*
X2620699Y1527228D1*
X2614513Y1527638D1*
X2614514Y1459430D1*
X2518381D1*
X2518354Y1451723D1*
X2603000Y1451727D1*
Y1386913D1*
X2779451Y1386907D1*
X2779425Y1452650D1*
X2864076D1*
X2864071Y1461669D1*
X2843262Y1461692D1*
Y1468474D1*
X2837625Y1465717D1*
X2829735Y1463152D1*
X2821541Y1461854D1*
X2813244D1*
X2805050Y1463152D1*
X2797160Y1465717D1*
X2789768Y1469483D1*
X2783056Y1474360D1*
X2778037Y1479308D1*
X2772988Y1474360D1*
X2766277Y1469483D1*
X2758885Y1465717D1*
X2750995Y1463152D1*
X2742801Y1461854D1*
X2734504D1*
X2726310Y1463152D1*
X2718420Y1465717D1*
X2711028Y1469483D1*
X2704316Y1474360D1*
X2698450Y1480226D1*
X2693573Y1486937D1*
X2689807Y1494329D1*
X2687243Y1502219D1*
X2685945Y1510413D1*
Y1518710D1*
X2687243Y1526904D1*
X2689807Y1534794D1*
X2693573Y1542186D1*
X2698450Y1548898D1*
X2704316Y1554764D1*
X2711028Y1559640D1*
X2718420Y1563407D1*
X2726310Y1565971D1*
X2734504Y1567269D1*
X2742801D1*
X2750995Y1565971D1*
X2758885Y1563407D1*
X2766277Y1559640D1*
X2772988Y1554764D1*
X2778008Y1549815D1*
X2783056Y1554764D1*
X2789768Y1559640D1*
X2797160Y1563407D1*
X2805050Y1565971D1*
X2813244Y1567269D1*
X2821541D1*
X2829735Y1565971D1*
X2837625Y1563407D1*
X2843277Y1560615D1*
X2843262Y1567432D1*
X2852449D1*
X2969617Y777633D2*
Y709463D1*
X2863877D1*
Y716245D1*
X2858239Y713488D1*
X2850349Y710924D1*
X2842155Y709626D1*
X2833858D1*
X2825664Y710924D1*
X2817774Y713488D1*
X2810382Y717255D1*
X2803671Y722131D1*
X2798651Y727080D1*
X2793602Y722131D1*
X2786891Y717255D1*
X2779499Y713488D1*
X2771609Y710924D1*
X2763415Y709626D1*
X2755118D1*
X2746924Y710924D1*
X2739034Y713488D1*
X2731642Y717255D1*
X2724930Y722131D1*
X2719064Y727997D1*
X2714188Y734709D1*
X2710421Y742101D1*
X2707857Y749991D1*
X2706559Y758185D1*
Y766482D1*
X2707857Y774676D1*
X2710421Y782566D1*
X2714188Y789958D1*
X2719064Y796669D1*
X2724930Y802535D1*
X2731642Y807412D1*
X2739034Y811178D1*
X2746924Y813743D1*
X2755118Y815041D1*
X2763415D1*
X2771609Y813743D1*
X2779499Y811178D1*
X2786891Y807412D1*
X2792138Y803690D1*
X2792147Y918625D1*
X2558500Y918623D1*
X2558533Y817150D1*
X2593462Y817168D1*
X2592198Y823092D1*
X2591558Y831227D1*
X2592198Y839362D1*
X2594102Y847297D1*
X2597226Y854835D1*
X2601490Y861793D1*
X2606789Y867997D1*
X2612993Y873297D1*
X2619951Y877560D1*
X2627490Y880684D1*
X2635424Y882588D1*
X2643559Y883228D1*
X2651694Y882588D1*
X2659629Y880684D1*
X2667167Y877560D1*
X2674125Y873297D1*
X2680329Y867997D1*
X2685629Y861793D1*
X2689892Y854835D1*
X2693016Y847297D1*
X2694920Y839362D1*
X2695560Y831227D1*
X2694920Y823092D1*
X2693016Y815157D1*
X2689892Y807619D1*
X2685629Y800661D1*
X2680329Y794457D1*
X2674125Y789157D1*
X2667167Y784894D1*
X2659629Y781770D1*
X2651694Y779866D1*
X2643559Y779226D1*
X2637373Y779635D1*
X2637374Y711428D1*
X2531634D1*
Y718210D1*
X2525996Y715453D1*
X2518106Y712888D1*
X2509912Y711591D1*
X2501615D1*
X2493421Y712888D1*
X2485531Y715453D1*
X2478139Y719219D1*
X2471428Y724096D1*
X2466408Y729045D1*
X2461360Y724096D1*
X2454648Y719219D1*
X2447256Y715453D1*
X2439366Y712888D1*
X2431172Y711591D1*
X2422875D1*
X2414681Y712888D1*
X2406791Y715453D1*
X2399399Y719219D1*
X2392688Y724096D1*
X2386822Y729962D1*
X2381945Y736673D1*
X2378178Y744066D1*
X2375614Y751955D1*
X2374316Y760150D1*
Y768446D1*
X2375614Y776640D1*
X2378178Y784530D1*
X2379814Y788080D1*
X2379811Y825816D1*
X2377240Y828408D1*
X2371278Y829419D1*
X2364857Y831505D1*
X2358841Y834570D1*
X2353379Y838539D1*
X2348605Y843314D1*
X2344635Y848776D1*
X2341571Y854791D1*
X2339484Y861213D1*
X2338428Y867882D1*
Y874633D1*
X2339484Y881302D1*
X2340362Y884413D1*
X2320278Y864324D1*
Y779856D1*
X2325699Y779353D1*
X2332265Y777777D1*
X2338503Y775193D1*
X2344260Y771665D1*
X2349394Y767281D1*
X2353778Y762147D1*
X2357306Y756390D1*
X2359890Y750152D1*
X2361466Y743587D1*
X2361921Y740833D1*
X2422134Y680622D1*
X2992172Y680636D1*
X2994584Y687707D1*
X2994686Y769573D1*
X2995501Y774717D1*
X2997110Y779669D1*
X2998206Y782045D1*
X2987941Y778698D1*
X2979882Y777421D1*
X2971722D1*
X2969615Y777671D1*
X474455Y786010D2*
X641350D1*
Y781955D1*
X647470Y781394D1*
X654035Y779818D1*
X660273Y777234D1*
X666030Y773706D1*
X671164Y769322D1*
X675549Y764188D1*
X679076Y758430D1*
X681660Y752193D1*
X683236Y745627D1*
X683766Y738896D1*
X683236Y732165D1*
X681660Y725600D1*
X679076Y719362D1*
X675549Y713605D1*
X671164Y708471D1*
X666030Y704087D1*
X660273Y700559D1*
X654035Y697975D1*
X647470Y696399D1*
X641358Y695894D1*
X641350Y688144D1*
X472618D1*
Y786010D1*
X474455D1*
X1299976Y1993046D2*
X1291436D1*
X1299972Y1984513D1*
X1299997Y1993070D1*
X3282496Y2535180D2*
X3282623Y2520512D1*
Y2535045D1*
X1999130Y1957154D2*
X1999127Y2051593D1*
X1987558Y2040017D1*
X1987577Y1882129D1*
X1992085Y1883490D1*
X1998755Y1884546D1*
X2005505D1*
X2012175Y1883490D1*
X2018596Y1881403D1*
X2024612Y1878339D1*
X2030685Y1873804D1*
X2129913Y1873810D1*
X2130862Y1879525D1*
X2132949Y1885946D1*
X2136013Y1891962D1*
X2140224Y1897686D1*
X2132206Y1898206D1*
X2125640Y1899782D1*
X2119403Y1902366D1*
X2113646Y1905894D1*
X2110955Y1907941D1*
X2096996D1*
X2096993Y1890224D1*
X1999127D1*
Y1957148D1*
X2292382Y1440600D2*
Y1466810D1*
X2282260Y1456681D1*
X2281391Y1451907D1*
X2279304Y1445486D1*
X2276240Y1439470D1*
X2273293Y1435303D1*
X2277567Y1437352D1*
X2283988Y1439438D1*
X2290657Y1440495D1*
X2292385Y1440563D1*
X1954904Y2133186D2*
Y2112378D1*
X1975740Y2133197D1*
X1954883D1*
X1506862Y1376119D2*
X1507749Y1381360D1*
X1509836Y1387781D1*
X1512676Y1393394D1*
X1323156Y1203873D1*
X1334633Y1203870D1*
X1506806Y1376056D1*
X1548640Y1261205D2*
D15*
Y1163409D1*
Y1212307D2*
X1599507D1*
X1745538Y1335446D2*
Y1237651D1*
Y1286549D2*
X1796404D1*
X1431600Y1580202D2*
Y1482407D1*
Y1531304D2*
X1482466D1*
X1735097Y1728761D2*
Y1679864D1*
X1684231Y1728761D2*
X1735097D1*
Y1671140D2*
Y1573345D1*
X1684231Y1622243D2*
X1735097D1*
X1430579Y1477167D2*
Y1428270D1*
X1199408Y1441462D2*
Y1343668D1*
X1148543Y1392566D2*
X1199408D1*
X1200428Y1334348D2*
Y1285451D1*
X1149563D2*
X1200428D1*
X902408Y871236D2*
Y820370D1*
X853512Y871236D2*
X951306D1*
X1368714Y1875335D2*
Y1826437D1*
X1317848Y1875335D2*
X1368714D1*
X1169322Y2372978D2*
Y2275182D1*
Y2324080D2*
X1220188D1*
X1950455Y1717762D2*
Y1666896D1*
X1901558Y1717762D2*
X1999353D1*
X2192904Y1773403D2*
Y1722537D1*
X2144007D2*
X2241802D1*
X1958390Y1236983D2*
Y1188085D1*
X1907524D2*
X1958390D1*
X2271833Y1229647D2*
Y1180749D1*
Y1229647D2*
X2322699D1*
X2139411Y941652D2*
Y892755D1*
X2108142Y763748D2*
Y712883D1*
X2157039D1*
X1318864Y1107593D2*
Y1056728D1*
X1269967D2*
X1367761D1*
X1471547Y1062979D2*
X1520445D1*
X1434311Y836804D2*
Y785938D1*
X1385413Y836804D2*
X1483209D1*
X1195337Y844232D2*
Y793366D1*
X1151594Y1764881D2*
Y1647400D1*
X1092854Y1706140D2*
X1210335D1*
X1175085Y2496900D2*
Y2391231D1*
Y2444066D2*
X1227920D1*
X1152718Y1895163D2*
Y1789493D1*
Y1842328D2*
X1205552D1*
X3086689Y2161094D2*
Y2108260D1*
X3033854Y2161094D2*
X3139524D1*
X3092673Y1497206D2*
Y1444371D1*
X3039839Y1497206D2*
X3145508D1*
X3315808Y2159619D2*
Y2106785D1*
Y2159619D2*
X3368643D1*
X3318756Y1495753D2*
Y1442919D1*
Y1495753D2*
X3371591D1*
X3351283Y745701D2*
Y692866D1*
Y745701D2*
X3404118D1*
X914965Y648833D2*
Y595999D1*
X862131Y648833D2*
X967799D1*
X1311479Y719469D2*
Y613801D1*
Y666635D2*
X1364314D1*
X1956440Y651056D2*
Y598222D1*
X1723593Y650887D2*
Y598052D1*
Y650887D2*
X1776428D1*
X3119765Y748504D2*
Y695669D1*
X3066930Y748504D2*
X3172600D1*
X522672Y671133D2*
Y622235D1*
X471806D2*
X522672D1*
X523520Y785974D2*
Y688180D1*
X472655Y737077D2*
X523520D1*
X1333182Y2161743D2*
Y2110877D1*
X1284285D2*
X1333182D1*
X2870146Y2070761D2*
Y2021864D1*
X2819280D2*
X2870146D1*
X1630720Y1062341D2*
X1679618D1*
X2494003Y2318781D2*
X2542900D1*
X1925755Y872783D2*
Y774988D1*
X1874888Y823886D2*
X1925755D1*
X1194823Y1110747D2*
Y1059881D1*
X1145925D2*
X1243720D1*
X3231594Y2542601D2*
Y2493703D1*
X2327371Y2312417D2*
X2376269D1*
X2048060Y2058921D2*
Y2008055D1*
X1999163D2*
X2096958D1*
X2518761Y2578912D2*
Y2530014D1*
X2830327Y1452613D2*
Y1403717D1*
X2779462D2*
X2830327D1*
X2307567Y2583768D2*
Y2532902D1*
X2258669D2*
X2307567D1*
X2552098Y1451692D2*
Y1402794D1*
X2602965D1*
X2078472Y1305974D2*
X2127370D1*
X3096860Y1918539D2*
Y1869642D1*
X3147726D1*
X3409098Y1591533D2*
Y1540667D1*
Y1591533D2*
X3457996D1*
X2682593Y1770487D2*
Y1672693D1*
Y1721591D2*
X2733459D1*
X2158983Y2154786D2*
Y2103921D1*
X2110087D2*
X2158983D1*
X3177642Y1829152D2*
X3226538D1*
X2561858Y1179117D2*
Y1130220D1*
X2792182Y903449D2*
X2841080D1*
X2338165Y1162125D2*
Y1111259D1*
X2289268D2*
X2338165D1*
X2509600Y892423D2*
X2558497D1*
X2832877Y1167535D2*
Y1118639D1*
X2782012D2*
X2832877D1*
X2292417Y1467652D2*
X2341315D1*
X3226538Y1766652D2*
Y1717755D1*
X3203866Y1055961D2*
Y1005094D1*
X3252764D1*
X3205110Y862593D2*
X3254008D1*
X506123Y2499836D2*
D17*
X954807D1*
X506123Y2474967D2*
X954878D1*
X506123Y2450098D2*
X954950D1*
X506123Y2425230D2*
X955022D1*
X506123Y2400361D2*
X955093D1*
X506123Y2375492D2*
X955201D1*
X506123Y2350623D2*
X955273D1*
X506123Y2325755D2*
X955345D1*
X506123Y2300886D2*
X955417D1*
X506123Y2276017D2*
X955488D1*
X506123Y2251148D2*
X955560D1*
X506123Y2226280D2*
X955668D1*
X506123Y2201411D2*
X955740D1*
X506123Y2176542D2*
X955811D1*
X506123Y2151673D2*
X955883D1*
X506123Y2126804D2*
X955955D1*
X506123Y2101936D2*
X956026D1*
X506123Y2077067D2*
X956134D1*
X506123Y2052198D2*
X956206D1*
X506123Y2027329D2*
X956278D1*
X506123Y2002461D2*
X956349D1*
X506123Y1977592D2*
X956421D1*
X506123Y1952723D2*
X956493D1*
X506123Y1927854D2*
X956601D1*
X506123Y1902986D2*
X956673D1*
X506123Y1878117D2*
X956744D1*
X957227Y2524705D2*
X503579D1*
X503605Y1873025D1*
X959227Y1875009D1*
X957218Y2524693D1*
D18*
X1008115Y731367D3*
X783823Y1752261D3*
X1100434Y2179336D3*
D20*
X1481711Y1212307D3*
X1548640D3*
X1678609Y1286549D3*
X1745538D3*
X1364671Y1531304D3*
X1431600D3*
X1735097Y1728761D3*
X1802026D3*
X1735097Y1622243D3*
X1802026D3*
X1363650Y1428270D3*
X1430579D3*
X1199408Y1392566D3*
X1266337D3*
X1200428Y1285451D3*
X1267357D3*
D23*
X902408Y871236D3*
Y938165D3*
D20*
X1368714Y1875335D3*
X1435643D3*
X1169322Y2324080D3*
X1102392D3*
D23*
X1950455Y1784692D3*
Y1717762D3*
X2192904Y1655608D3*
Y1722537D3*
D20*
X2025319Y1188085D3*
X1958390D3*
X2204904Y1229647D3*
X2271833D3*
X2072482Y941652D3*
X2139411D3*
D23*
X2108142Y645954D3*
Y712883D3*
D18*
X1160371Y2028163D3*
X1403688Y2217677D3*
D23*
X1318864Y1056728D3*
Y989799D3*
X1520445Y1062979D3*
Y996050D3*
X1434311Y836804D3*
Y903734D3*
X1195337Y844232D3*
Y911161D3*
D18*
X1151594Y1706140D3*
X1694474Y1832770D3*
X1692765Y2009818D3*
D28*
X1175085Y2444066D3*
D29*
X1096345D3*
D28*
X1152718Y1842328D3*
D29*
X1073978D3*
X3086689Y2318575D3*
Y2397315D3*
Y2476055D3*
Y2239835D3*
D28*
Y2161094D3*
D29*
X3092673Y1654686D3*
Y1733427D3*
Y1812167D3*
Y1575946D3*
D28*
Y1497206D3*
D29*
X3315808Y2317100D3*
Y2395840D3*
Y2474580D3*
Y2238360D3*
D28*
Y2159619D3*
D29*
X3318756Y1653234D3*
Y1731974D3*
Y1810714D3*
Y1574493D3*
D28*
Y1495753D3*
D29*
X3351283Y903181D3*
Y981921D3*
Y1060661D3*
Y824441D3*
D28*
Y745701D3*
X914965Y648833D3*
D29*
Y727573D3*
D28*
X1311479Y666635D3*
D29*
X1232739D3*
X1153999D3*
D28*
X2878224Y2182693D3*
D29*
X2799484D3*
X2720744D3*
D28*
X2547600Y2182442D3*
D29*
X2468860D3*
X2390119D3*
D28*
X2896133Y1514562D3*
D29*
X2817392D3*
X2738652D3*
D28*
X2561644Y1512301D3*
D29*
X2482904D3*
X2404164D3*
D28*
X2885528Y1792472D3*
D29*
X2806787D3*
X2728047D3*
D28*
X2553490Y1793180D3*
D29*
X2474749D3*
X2396009D3*
D28*
X2911668Y1046005D3*
D29*
X2832928D3*
X2754188D3*
D28*
X2581563Y1047365D3*
D29*
X2502823D3*
X2424083D3*
D28*
X2885694Y2458783D3*
D29*
X2806954D3*
X2728214D3*
D28*
X2549130Y2459743D3*
D29*
X2470390D3*
X2391650D3*
D28*
X2916747Y762333D3*
D29*
X2838007D3*
X2759266D3*
D28*
X2584504Y764298D3*
D29*
X2505764D3*
X2427024D3*
D28*
X1956440Y651056D3*
D29*
Y729797D3*
D28*
X1723593Y650887D3*
D29*
Y729627D3*
X3119765Y905984D3*
Y984724D3*
Y1063465D3*
Y827244D3*
D28*
Y748504D3*
D18*
X1541301Y731832D3*
D33*
Y631832D3*
D20*
X522672Y622235D3*
X589601D3*
X523520Y737077D3*
X590449D3*
X609757Y1414533D3*
X542828D3*
D23*
X1393259Y2044441D3*
Y2111370D3*
X1333182Y2043948D3*
Y2110877D3*
D20*
X2870146Y2021864D3*
X2937075D3*
D23*
X1550226Y1951808D3*
Y1884879D3*
X1549256Y1813715D3*
Y1746786D3*
X1631176Y917398D3*
Y850469D3*
X1630720Y1062341D3*
Y995412D3*
D20*
X675951Y964404D3*
X742881D3*
X681621Y1085608D3*
X748550D3*
X685056Y1219760D3*
X751986D3*
X677055Y1339445D3*
X743984D3*
D23*
X2494003Y2318781D3*
Y2251852D3*
D20*
X1925755Y823886D3*
X1992684D3*
D23*
X1320160Y905768D3*
Y838839D3*
X1194823Y1059881D3*
Y992951D3*
D20*
X3231594Y2493703D3*
X3164665D3*
D23*
X2376269Y2312417D3*
Y2245488D3*
X2048060Y2008055D3*
Y1941126D3*
D20*
X2518761Y2530014D3*
X2451832D3*
D23*
X2341017Y1772508D3*
Y1705579D3*
D20*
X2338499Y1861138D3*
X2271570D3*
X2830327Y1403717D3*
X2897256D3*
D23*
X2307567Y2532902D3*
Y2465972D3*
D20*
X2552098Y1402794D3*
X2485169D3*
D23*
X2127370Y1305974D3*
Y1372903D3*
D20*
X3096860Y1869642D3*
X3029930D3*
D23*
X3409098Y1591533D3*
Y1658462D3*
D20*
X2174988Y1155361D3*
X2108059D3*
D23*
X2079202Y1651832D3*
Y1584903D3*
D20*
X2682593Y1721591D3*
X2615664D3*
D23*
X2158983Y2103921D3*
Y2036992D3*
X3226538Y1829152D3*
Y1896081D3*
D20*
X2561858Y1130220D3*
X2494929D3*
D23*
X2841080Y903449D3*
Y836520D3*
X2338165Y1111259D3*
Y1044329D3*
D20*
X2072482Y1004152D3*
X2139411D3*
D23*
X1890206Y1075322D3*
Y1142251D3*
X2509600Y892423D3*
Y825493D3*
X1653672Y717096D3*
Y650167D3*
X2428744Y889857D3*
Y822928D3*
X3193125Y2390697D3*
Y2323768D3*
D20*
X2832877Y1118639D3*
X2899806D3*
D23*
X1885008Y722035D3*
Y655106D3*
X2341315Y1467652D3*
Y1400723D3*
D20*
X3226538Y1766652D3*
X3159609D3*
D23*
X3203866Y1005094D3*
Y938165D3*
X3205110Y862593D3*
Y795664D3*
D18*
X1897524Y2505306D3*
X1896979Y2335433D3*
X1896129Y2166382D3*
M02*
