M48
;Layer_Color=9474304
;FILE_FORMAT=2:4
INCH,TZ
;TYPE=PLATED
T1F00S00C0.0120
T2F00S00C0.0728
%
T01
X650Y1700
X1150
Y2600
X650
X4575Y2350
Y1483
Y650
X6500Y745
Y1420
Y2095
X6100Y2500
X6427Y3105
X6907Y2655
X7380Y3100
X6200Y5400
X5150
X5350Y8200
X5817Y8195
X5580Y8600
X5050
X7400Y9150
X8050
X7725Y9500
X7730Y8150
X8050Y7000
X8350Y5800
X8700Y5550
Y6050
X2367Y4120
X11567Y4845
X11967
X12417
X12837Y5025
X12850Y7200
X12450
X12100Y7450
X11667Y7445
Y7822
Y8200
X9467Y7645
T02
X9567Y1576
Y3545
X12327
Y1576
X12347Y9161
Y11129
X9587
Y9161
M30
