G04*
G04 #@! TF.GenerationSoftware,Altium Limited,Altium Designer,19.1.8 (144)*
G04*
G04 Layer_Color=8421504*
%FSLAX25Y25*%
%MOIN*%
G70*
G01*
G75*
%ADD18R,0.02165X0.01968*%
%ADD19R,0.01968X0.02165*%
%ADD20R,0.02756X0.02953*%
%ADD21R,0.06693X0.03150*%
%ADD22R,0.06299X0.11811*%
%ADD23R,0.03937X0.21654*%
%ADD24R,0.08661X0.04724*%
%ADD25R,0.03543X0.03937*%
%ADD26R,0.04724X0.04724*%
%ADD27R,0.21654X0.03937*%
%ADD28R,0.03937X0.03543*%
%ADD29O,0.00984X0.06102*%
%ADD30O,0.06102X0.00984*%
%ADD31R,0.04724X0.03937*%
%ADD32R,0.22835X0.24410*%
%ADD33R,0.06299X0.11811*%
%ADD34O,0.02362X0.08661*%
G04:AMPARAMS|DCode=35|XSize=25.59mil|YSize=47.24mil|CornerRadius=1.92mil|HoleSize=0mil|Usage=FLASHONLY|Rotation=90.000|XOffset=0mil|YOffset=0mil|HoleType=Round|Shape=RoundedRectangle|*
%AMROUNDEDRECTD35*
21,1,0.02559,0.04341,0,0,90.0*
21,1,0.02175,0.04724,0,0,90.0*
1,1,0.00384,0.02170,0.01088*
1,1,0.00384,0.02170,-0.01088*
1,1,0.00384,-0.02170,-0.01088*
1,1,0.00384,-0.02170,0.01088*
%
%ADD35ROUNDEDRECTD35*%
G04:AMPARAMS|DCode=36|XSize=9.84mil|YSize=23.62mil|CornerRadius=1.97mil|HoleSize=0mil|Usage=FLASHONLY|Rotation=180.000|XOffset=0mil|YOffset=0mil|HoleType=Round|Shape=RoundedRectangle|*
%AMROUNDEDRECTD36*
21,1,0.00984,0.01968,0,0,180.0*
21,1,0.00591,0.02362,0,0,180.0*
1,1,0.00394,-0.00295,0.00984*
1,1,0.00394,0.00295,0.00984*
1,1,0.00394,0.00295,-0.00984*
1,1,0.00394,-0.00295,-0.00984*
%
%ADD36ROUNDEDRECTD36*%
%ADD37O,0.08661X0.02362*%
%ADD38R,0.11811X0.06299*%
%ADD39R,0.03150X0.03150*%
%ADD40R,0.03000X0.04291*%
%ADD41R,0.04291X0.03000*%
G04:AMPARAMS|DCode=42|XSize=39.37mil|YSize=216.54mil|CornerRadius=0mil|HoleSize=0mil|Usage=FLASHONLY|Rotation=55.000|XOffset=0mil|YOffset=0mil|HoleType=Round|Shape=Rectangle|*
%AMROTATEDRECTD42*
4,1,4,0.07740,-0.07823,-0.09998,0.04598,-0.07740,0.07823,0.09998,-0.04598,0.07740,-0.07823,0.0*
%
%ADD42ROTATEDRECTD42*%

G04:AMPARAMS|DCode=43|XSize=62.99mil|YSize=118.11mil|CornerRadius=0mil|HoleSize=0mil|Usage=FLASHONLY|Rotation=55.000|XOffset=0mil|YOffset=0mil|HoleType=Round|Shape=Rectangle|*
%AMROTATEDRECTD43*
4,1,4,0.03031,-0.05967,-0.06644,0.00807,-0.03031,0.05967,0.06644,-0.00807,0.03031,-0.05967,0.0*
%
%ADD43ROTATEDRECTD43*%

%ADD44R,0.08504X0.08898*%
%ADD45R,0.06693X0.04724*%
%ADD46R,0.04724X0.06693*%
D18*
X58118Y324576D02*
D03*
X50832Y322014D02*
D03*
X50832Y327132D02*
D03*
X57978Y274075D02*
D03*
X50688Y271515D02*
D03*
X50688Y276634D02*
D03*
X18973Y230574D02*
D03*
X26261Y233134D02*
D03*
X26261Y228016D02*
D03*
D19*
X21475Y369430D02*
D03*
X18916Y376719D02*
D03*
X24034Y376719D02*
D03*
D20*
X310873Y152323D02*
D03*
X298077D02*
D03*
Y145827D02*
D03*
X310873D02*
D03*
D21*
X189475Y135768D02*
D03*
Y122382D02*
D03*
Y143382D02*
D03*
Y156768D02*
D03*
D22*
X383672Y393933D02*
D03*
X349026D02*
D03*
X331172D02*
D03*
X296526D02*
D03*
X279546D02*
D03*
X229152D02*
D03*
X177652D02*
D03*
X212298D02*
D03*
X353924Y207433D02*
D03*
X327152D02*
D03*
X353924Y278433D02*
D03*
X327152D02*
D03*
X191975Y63575D02*
D03*
X218747Y63575D02*
D03*
X148026Y63717D02*
D03*
X174798Y63717D02*
D03*
X189026Y16781D02*
D03*
X215798D02*
D03*
X144975Y17140D02*
D03*
X171747D02*
D03*
X130298Y16475D02*
D03*
X95652D02*
D03*
X113924Y393933D02*
D03*
X87152D02*
D03*
D23*
X374223Y385075D02*
D03*
X366349D02*
D03*
X358475D02*
D03*
X321723D02*
D03*
X313849D02*
D03*
X305975D02*
D03*
X270097D02*
D03*
X262223D02*
D03*
X254349D02*
D03*
X246475D02*
D03*
X238601D02*
D03*
X187101D02*
D03*
X194975D02*
D03*
X202849D02*
D03*
X344475Y198575D02*
D03*
X336601D02*
D03*
X344475Y269575D02*
D03*
X336601D02*
D03*
X201424Y72433D02*
D03*
X209298D02*
D03*
X157475Y72575D02*
D03*
X165349D02*
D03*
X198475Y25640D02*
D03*
X206349D02*
D03*
X154424Y25997D02*
D03*
X162298D02*
D03*
X120849Y25332D02*
D03*
X112975D02*
D03*
X105101D02*
D03*
X104475Y385075D02*
D03*
X96601D02*
D03*
D24*
X129042Y285154D02*
D03*
X99908Y234653D02*
D03*
Y285154D02*
D03*
X129042Y294996D02*
D03*
X99908D02*
D03*
X129042Y234653D02*
D03*
Y244496D02*
D03*
X99908D02*
D03*
D25*
X118125Y307575D02*
D03*
X335125Y135075D02*
D03*
X328825D02*
D03*
X192325Y94075D02*
D03*
X198625D02*
D03*
X192325Y102075D02*
D03*
X198625D02*
D03*
X78959Y327075D02*
D03*
X85259D02*
D03*
X335125Y143075D02*
D03*
X328825D02*
D03*
X113325Y43075D02*
D03*
X119625D02*
D03*
X244625Y67075D02*
D03*
X238325Y67075D02*
D03*
X335125Y167575D02*
D03*
X328825D02*
D03*
X335125Y160575D02*
D03*
X328825D02*
D03*
X345825Y167075D02*
D03*
X352125D02*
D03*
X238325Y61075D02*
D03*
X244625Y61075D02*
D03*
X345825Y160075D02*
D03*
X352125D02*
D03*
X321625Y93075D02*
D03*
X315325D02*
D03*
X334625Y236075D02*
D03*
X328325D02*
D03*
X334625Y229075D02*
D03*
X328325D02*
D03*
X345325Y236075D02*
D03*
X351625D02*
D03*
X315325Y86075D02*
D03*
X321625D02*
D03*
X345325Y228575D02*
D03*
X351625D02*
D03*
X131625Y50075D02*
D03*
X125325D02*
D03*
X333625Y307075D02*
D03*
X327325D02*
D03*
X333625Y300075D02*
D03*
X327325D02*
D03*
X344325Y307575D02*
D03*
X350625D02*
D03*
X344325Y300075D02*
D03*
X350625D02*
D03*
X269625Y274075D02*
D03*
X263325D02*
D03*
X191125Y333075D02*
D03*
X184825D02*
D03*
X328825Y180575D02*
D03*
X335125D02*
D03*
X328325Y250075D02*
D03*
X334625D02*
D03*
X377625Y354075D02*
D03*
X371325D02*
D03*
X192625Y34075D02*
D03*
X186325D02*
D03*
X148625D02*
D03*
X142325D02*
D03*
X195625Y81075D02*
D03*
X189325Y81075D02*
D03*
X151625Y81075D02*
D03*
X145325Y81075D02*
D03*
X188325Y370075D02*
D03*
X194625D02*
D03*
X252625D02*
D03*
X246325D02*
D03*
X268625D02*
D03*
X262325D02*
D03*
X325125Y369575D02*
D03*
X318825D02*
D03*
X111825Y307575D02*
D03*
X118125Y272575D02*
D03*
X111825D02*
D03*
X118125Y257075D02*
D03*
X111825D02*
D03*
X118125Y222075D02*
D03*
X111825D02*
D03*
X335125Y174575D02*
D03*
X328825D02*
D03*
X244625Y73075D02*
D03*
X238325Y73075D02*
D03*
X335125Y153575D02*
D03*
X328825D02*
D03*
X334625Y243075D02*
D03*
X328325D02*
D03*
X321625Y100075D02*
D03*
X315325D02*
D03*
X334625Y222075D02*
D03*
X328325D02*
D03*
X333625Y314075D02*
D03*
X327325D02*
D03*
X131625Y43075D02*
D03*
X125325D02*
D03*
X333625Y293075D02*
D03*
X327325D02*
D03*
X251325Y310075D02*
D03*
X257625D02*
D03*
X185325Y355075D02*
D03*
X191625D02*
D03*
X134625Y94575D02*
D03*
X128325D02*
D03*
X133625Y122075D02*
D03*
X127325D02*
D03*
X58125Y71575D02*
D03*
X51825D02*
D03*
X58125Y97575D02*
D03*
X51825D02*
D03*
X57975Y8075D02*
D03*
X51676D02*
D03*
X57625Y34075D02*
D03*
X51325D02*
D03*
D26*
X349475Y134943D02*
D03*
X341208D02*
D03*
X177975Y94075D02*
D03*
X186243D02*
D03*
X177975Y102075D02*
D03*
X186243D02*
D03*
X99743Y327075D02*
D03*
X91475D02*
D03*
X349475Y143075D02*
D03*
X341207D02*
D03*
D27*
X49176Y377575D02*
D03*
Y385449D02*
D03*
X28774Y270201D02*
D03*
Y278075D02*
D03*
X48975Y226575D02*
D03*
Y234449D02*
D03*
X28774Y320701D02*
D03*
Y328575D02*
D03*
X110676Y104827D02*
D03*
Y112701D02*
D03*
Y120575D02*
D03*
Y128449D02*
D03*
Y136323D02*
D03*
X34176Y19327D02*
D03*
Y27201D02*
D03*
Y35075D02*
D03*
Y42949D02*
D03*
Y50823D02*
D03*
Y85524D02*
D03*
Y93398D02*
D03*
Y101272D02*
D03*
Y109146D02*
D03*
Y117020D02*
D03*
Y152327D02*
D03*
Y160201D02*
D03*
Y168075D02*
D03*
Y175949D02*
D03*
Y183823D02*
D03*
X125333Y203398D02*
D03*
Y195524D02*
D03*
X236975Y92575D02*
D03*
Y100449D02*
D03*
X280975Y92701D02*
D03*
Y100575D02*
D03*
X84475Y204075D02*
D03*
Y196201D02*
D03*
X279274Y332138D02*
D03*
Y340012D02*
D03*
X367274Y163264D02*
D03*
Y171138D02*
D03*
Y179012D02*
D03*
Y186886D02*
D03*
Y231764D02*
D03*
Y239638D02*
D03*
Y247512D02*
D03*
Y255386D02*
D03*
X340475Y96949D02*
D03*
Y89075D02*
D03*
Y81201D02*
D03*
X367274Y302524D02*
D03*
Y310398D02*
D03*
Y318272D02*
D03*
Y326146D02*
D03*
X28774Y336449D02*
D03*
X49176Y369701D02*
D03*
X28774Y285949D02*
D03*
X48975Y218701D02*
D03*
D28*
X89975Y239925D02*
D03*
X213975Y170425D02*
D03*
Y176724D02*
D03*
X199550Y133299D02*
D03*
Y127000D02*
D03*
X199475Y145925D02*
D03*
Y152224D02*
D03*
X239475Y304224D02*
D03*
Y297925D02*
D03*
X169475Y351724D02*
D03*
Y345425D02*
D03*
X156475Y339224D02*
D03*
Y332925D02*
D03*
X205975Y333925D02*
D03*
Y340224D02*
D03*
X169475Y332925D02*
D03*
Y339224D02*
D03*
X221475Y304224D02*
D03*
Y297925D02*
D03*
X198975Y340224D02*
D03*
Y333925D02*
D03*
X162975Y332925D02*
D03*
Y339224D02*
D03*
X93171Y212223D02*
D03*
Y218522D02*
D03*
X139975Y198724D02*
D03*
Y192425D02*
D03*
X361475Y356925D02*
D03*
Y363224D02*
D03*
X220475Y92925D02*
D03*
Y99224D02*
D03*
X265475Y92925D02*
D03*
Y99224D02*
D03*
X50475Y153925D02*
D03*
Y160224D02*
D03*
Y169925D02*
D03*
Y176224D02*
D03*
X89975Y290425D02*
D03*
Y296724D02*
D03*
Y246224D02*
D03*
X233475Y304224D02*
D03*
Y297925D02*
D03*
X227475Y304224D02*
D03*
Y297925D02*
D03*
X259575Y130825D02*
D03*
Y137124D02*
D03*
X238975Y130425D02*
D03*
Y136724D02*
D03*
X193975Y286925D02*
D03*
Y293224D02*
D03*
Y236425D02*
D03*
Y242724D02*
D03*
D29*
X228353Y151449D02*
D03*
X230322D02*
D03*
X232290D02*
D03*
X234259D02*
D03*
X236227D02*
D03*
X238195D02*
D03*
X240164D02*
D03*
X242132D02*
D03*
X244101D02*
D03*
X246070D02*
D03*
X248038D02*
D03*
X250007D02*
D03*
X251975D02*
D03*
X253943D02*
D03*
X255912D02*
D03*
X257880D02*
D03*
X259849D02*
D03*
X261818D02*
D03*
X263786D02*
D03*
X265755D02*
D03*
X267723D02*
D03*
X269691D02*
D03*
X271660D02*
D03*
X273628D02*
D03*
X275597D02*
D03*
Y210701D02*
D03*
X273628D02*
D03*
X271660D02*
D03*
X269691D02*
D03*
X267723D02*
D03*
X265755D02*
D03*
X263786D02*
D03*
X261818D02*
D03*
X259849D02*
D03*
X257880D02*
D03*
X255912D02*
D03*
X253943D02*
D03*
X251975D02*
D03*
X250007D02*
D03*
X248038D02*
D03*
X246070D02*
D03*
X244101D02*
D03*
X242132D02*
D03*
X240164D02*
D03*
X238195D02*
D03*
X236227D02*
D03*
X234259D02*
D03*
X232290D02*
D03*
X230322D02*
D03*
X228353D02*
D03*
D30*
X281601Y157453D02*
D03*
Y159421D02*
D03*
Y161390D02*
D03*
Y163358D02*
D03*
Y165327D02*
D03*
Y167295D02*
D03*
Y169264D02*
D03*
Y171232D02*
D03*
Y173201D02*
D03*
Y175169D02*
D03*
Y177138D02*
D03*
Y179106D02*
D03*
Y181075D02*
D03*
Y183043D02*
D03*
Y185012D02*
D03*
Y186980D02*
D03*
Y188949D02*
D03*
Y190917D02*
D03*
Y192886D02*
D03*
Y194854D02*
D03*
Y196823D02*
D03*
Y198791D02*
D03*
Y200760D02*
D03*
Y202728D02*
D03*
Y204697D02*
D03*
X222349D02*
D03*
Y202728D02*
D03*
Y200760D02*
D03*
Y198791D02*
D03*
Y196823D02*
D03*
Y194854D02*
D03*
Y192886D02*
D03*
Y190917D02*
D03*
Y188949D02*
D03*
Y186980D02*
D03*
Y185012D02*
D03*
Y183043D02*
D03*
Y181075D02*
D03*
Y179106D02*
D03*
Y177138D02*
D03*
Y175169D02*
D03*
Y173201D02*
D03*
Y171232D02*
D03*
Y169264D02*
D03*
Y167295D02*
D03*
Y165327D02*
D03*
Y163358D02*
D03*
Y161390D02*
D03*
Y159421D02*
D03*
Y157453D02*
D03*
D31*
X246129Y137634D02*
D03*
X252821D02*
D03*
X246129Y132516D02*
D03*
X252821D02*
D03*
D32*
X128475Y324791D02*
D03*
D33*
X119479Y353059D02*
D03*
X137471D02*
D03*
D34*
X267975Y301524D02*
D03*
X262975D02*
D03*
X257975D02*
D03*
X252975D02*
D03*
X267975Y282626D02*
D03*
X262975D02*
D03*
X257975D02*
D03*
X252975D02*
D03*
D35*
X191282Y346815D02*
D03*
Y339335D02*
D03*
X179668D02*
D03*
Y343075D02*
D03*
Y346815D02*
D03*
D36*
X132928Y113980D02*
D03*
X130959D02*
D03*
X128991D02*
D03*
X127022D02*
D03*
X132928Y102169D02*
D03*
X130959D02*
D03*
X128991D02*
D03*
X127022D02*
D03*
X57928Y90480D02*
D03*
X55959D02*
D03*
X53991D02*
D03*
X52022D02*
D03*
X57928Y78669D02*
D03*
X55959D02*
D03*
X53991D02*
D03*
X52022D02*
D03*
X57428Y27980D02*
D03*
X55459D02*
D03*
X53491D02*
D03*
X51522D02*
D03*
X57428Y16169D02*
D03*
X55459D02*
D03*
X53491D02*
D03*
X51522D02*
D03*
D37*
X166026Y297575D02*
D03*
Y292575D02*
D03*
Y287575D02*
D03*
Y282575D02*
D03*
X184924Y297575D02*
D03*
Y292575D02*
D03*
Y287575D02*
D03*
Y282575D02*
D03*
X166026Y247075D02*
D03*
Y242075D02*
D03*
Y237075D02*
D03*
Y232075D02*
D03*
X184924Y247075D02*
D03*
Y242075D02*
D03*
Y237075D02*
D03*
Y232075D02*
D03*
D38*
X101818Y95378D02*
D03*
Y145772D02*
D03*
X25318Y9878D02*
D03*
Y60272D02*
D03*
Y76075D02*
D03*
Y126469D02*
D03*
Y142878D02*
D03*
Y193272D02*
D03*
X116475Y212847D02*
D03*
Y186075D02*
D03*
X245833Y83126D02*
D03*
Y109898D02*
D03*
X289833Y83252D02*
D03*
Y110024D02*
D03*
X75617Y213524D02*
D03*
Y186752D02*
D03*
X288132Y322689D02*
D03*
Y349461D02*
D03*
X376132Y153815D02*
D03*
Y196335D02*
D03*
Y222315D02*
D03*
Y264835D02*
D03*
X349333Y106398D02*
D03*
Y71752D02*
D03*
X376132Y293075D02*
D03*
Y335595D02*
D03*
X37632Y345898D02*
D03*
Y311252D02*
D03*
X40318Y360252D02*
D03*
Y394898D02*
D03*
X37632Y295398D02*
D03*
Y260752D02*
D03*
X40117Y209252D02*
D03*
Y243898D02*
D03*
D39*
X374475Y369799D02*
D03*
X378215Y360350D02*
D03*
X370735D02*
D03*
D40*
X229518Y45075D02*
D03*
X237432D02*
D03*
X344518Y178575D02*
D03*
X352432D02*
D03*
X314518Y79575D02*
D03*
X322432D02*
D03*
X343018Y247575D02*
D03*
X350932D02*
D03*
X343018Y318575D02*
D03*
X350932D02*
D03*
X358518Y369075D02*
D03*
X366432D02*
D03*
X126432Y365075D02*
D03*
X118518D02*
D03*
D41*
X104475Y49031D02*
D03*
Y41118D02*
D03*
D42*
X259672Y50243D02*
D03*
X255156Y43793D02*
D03*
X250640Y37343D02*
D03*
D43*
X272348Y52903D02*
D03*
X252476Y24522D02*
D03*
D44*
X110121Y365075D02*
D03*
X90829D02*
D03*
D45*
X147475Y330776D02*
D03*
Y343374D02*
D03*
D46*
X109774Y348075D02*
D03*
X97176D02*
D03*
M02*
