G04*
G04 #@! TF.GenerationSoftware,Altium Limited,Altium Designer,21.0.8 (223)*
G04*
G04 Layer_Physical_Order=2*
G04 Layer_Color=16711680*
%FSLAX25Y25*%
%MOIN*%
G70*
G04*
G04 #@! TF.SameCoordinates,B21DCE84-2690-44BB-8765-99E36CDB2AD5*
G04*
G04*
G04 #@! TF.FilePolarity,Positive*
G04*
G01*
G75*
%ADD13C,0.01000*%
%ADD47C,0.19000*%
%ADD48C,0.10000*%
%ADD49R,0.19685X0.19685*%
%ADD50C,0.19685*%
%ADD51C,0.05906*%
%ADD52R,0.05906X0.05906*%
%ADD53C,0.02400*%
G36*
X269869Y354398D02*
X270122Y354293D01*
X270349Y354141D01*
X270543Y353948D01*
X270695Y353720D01*
X270799Y353468D01*
X270853Y353200D01*
Y353063D01*
Y3937D01*
Y3800D01*
X270799Y3532D01*
X270695Y3280D01*
X270543Y3052D01*
X270349Y2859D01*
X270122Y2707D01*
X269869Y2602D01*
X269601Y2549D01*
X3800D01*
X3532Y2602D01*
X3279Y2707D01*
X3052Y2859D01*
X2859Y3052D01*
X2707Y3280D01*
X2602Y3532D01*
X2549Y3800D01*
Y3937D01*
Y353063D01*
Y353200D01*
X2602Y353468D01*
X2707Y353720D01*
X2859Y353948D01*
X3052Y354141D01*
X3279Y354293D01*
X3532Y354398D01*
X3800Y354451D01*
X269601D01*
X269869Y354398D01*
D02*
G37*
%LPC*%
G36*
X235901Y331036D02*
X234097Y330894D01*
X232337Y330471D01*
X230664Y329778D01*
X229121Y328833D01*
X227745Y327657D01*
X226569Y326280D01*
X225623Y324737D01*
X224931Y323065D01*
X224508Y321305D01*
X224366Y319500D01*
X224508Y317695D01*
X224931Y315935D01*
X225623Y314263D01*
X226569Y312720D01*
X227745Y311343D01*
X229121Y310168D01*
X230664Y309222D01*
X232337Y308529D01*
X234097Y308106D01*
X235901Y307964D01*
X237706Y308106D01*
X239466Y308529D01*
X241139Y309222D01*
X242682Y310168D01*
X244058Y311343D01*
X245234Y312720D01*
X246180Y314263D01*
X246872Y315935D01*
X247295Y317695D01*
X247437Y319500D01*
X247295Y321305D01*
X246872Y323065D01*
X246180Y324737D01*
X245234Y326280D01*
X244058Y327657D01*
X242682Y328833D01*
X241139Y329778D01*
X239466Y330471D01*
X237706Y330894D01*
X235901Y331036D01*
D02*
G37*
G36*
X37500D02*
X35695Y330894D01*
X33935Y330471D01*
X32263Y329778D01*
X30720Y328833D01*
X29343Y327657D01*
X28168Y326280D01*
X27222Y324737D01*
X26529Y323065D01*
X26106Y321305D01*
X25964Y319500D01*
X26106Y317695D01*
X26529Y315935D01*
X27222Y314263D01*
X28168Y312720D01*
X29343Y311343D01*
X30720Y310168D01*
X32263Y309222D01*
X33935Y308529D01*
X35695Y308106D01*
X37500Y307964D01*
X39305Y308106D01*
X41065Y308529D01*
X42737Y309222D01*
X44280Y310168D01*
X45657Y311343D01*
X46832Y312720D01*
X47778Y314263D01*
X48471Y315935D01*
X48893Y317695D01*
X49036Y319500D01*
X48893Y321305D01*
X48471Y323065D01*
X47778Y324737D01*
X46832Y326280D01*
X45657Y327657D01*
X44280Y328833D01*
X42737Y329778D01*
X41065Y330471D01*
X39305Y330894D01*
X37500Y331036D01*
D02*
G37*
G36*
X119579Y283918D02*
X118403Y283802D01*
X117272Y283459D01*
X116230Y282902D01*
X115316Y282152D01*
X114566Y281238D01*
X114009Y280196D01*
X113666Y279065D01*
X113550Y277889D01*
X113666Y276712D01*
X114009Y275581D01*
X114566Y274539D01*
X115316Y273625D01*
X116230Y272876D01*
X117272Y272319D01*
X118403Y271975D01*
X119579Y271860D01*
X120756Y271975D01*
X121887Y272319D01*
X122929Y272876D01*
X123843Y273625D01*
X124592Y274539D01*
X125149Y275581D01*
X125493Y276712D01*
X125608Y277889D01*
X125493Y279065D01*
X125149Y280196D01*
X124592Y281238D01*
X123843Y282152D01*
X122929Y282902D01*
X121887Y283459D01*
X120756Y283802D01*
X119579Y283918D01*
D02*
G37*
G36*
X57842Y280850D02*
X36157D01*
Y259165D01*
X57842D01*
Y280850D01*
D02*
G37*
G36*
X145600Y254970D02*
Y249600D01*
X150970D01*
X150913Y250176D01*
X150570Y251307D01*
X150013Y252350D01*
X149263Y253263D01*
X148349Y254013D01*
X147307Y254570D01*
X146176Y254913D01*
X145600Y254970D01*
D02*
G37*
G36*
X144400D02*
X143824Y254913D01*
X142693Y254570D01*
X141650Y254013D01*
X140737Y253263D01*
X139987Y252350D01*
X139430Y251307D01*
X139087Y250176D01*
X139030Y249600D01*
X144400D01*
Y254970D01*
D02*
G37*
G36*
X150970Y248400D02*
X145600D01*
Y243030D01*
X146176Y243087D01*
X147307Y243430D01*
X148349Y243987D01*
X149263Y244737D01*
X150013Y245651D01*
X150570Y246693D01*
X150913Y247824D01*
X150970Y248400D01*
D02*
G37*
G36*
X144400D02*
X139030D01*
X139087Y247824D01*
X139430Y246693D01*
X139987Y245651D01*
X140737Y244737D01*
X141650Y243987D01*
X142693Y243430D01*
X143824Y243087D01*
X144400Y243030D01*
Y248400D01*
D02*
G37*
G36*
X114700Y237268D02*
X113524Y237152D01*
X112393Y236809D01*
X111350Y236251D01*
X110437Y235502D01*
X109687Y234588D01*
X109130Y233546D01*
X108787Y232415D01*
X108671Y231239D01*
X108787Y230062D01*
X109130Y228931D01*
X109687Y227889D01*
X110437Y226975D01*
X111350Y226226D01*
X112393Y225669D01*
X113524Y225325D01*
X114700Y225210D01*
X115876Y225325D01*
X117007Y225669D01*
X118050Y226226D01*
X118963Y226975D01*
X119713Y227889D01*
X120270Y228931D01*
X120613Y230062D01*
X120729Y231239D01*
X120613Y232415D01*
X120270Y233546D01*
X119713Y234588D01*
X118963Y235502D01*
X118050Y236251D01*
X117007Y236809D01*
X115876Y237152D01*
X114700Y237268D01*
D02*
G37*
G36*
X47000Y243482D02*
X45298Y243349D01*
X43639Y242950D01*
X42062Y242297D01*
X40607Y241405D01*
X39309Y240297D01*
X38201Y238999D01*
X37309Y237544D01*
X36656Y235967D01*
X36258Y234308D01*
X36124Y232606D01*
X36258Y230905D01*
X36656Y229245D01*
X37309Y227669D01*
X38201Y226214D01*
X39309Y224916D01*
X40607Y223807D01*
X42062Y222916D01*
X43639Y222263D01*
X45298Y221864D01*
X47000Y221730D01*
X48701Y221864D01*
X50361Y222263D01*
X51938Y222916D01*
X53393Y223807D01*
X54690Y224916D01*
X55799Y226214D01*
X56691Y227669D01*
X57344Y229245D01*
X57742Y230905D01*
X57876Y232606D01*
X57742Y234308D01*
X57344Y235967D01*
X56691Y237544D01*
X55799Y238999D01*
X54690Y240297D01*
X53393Y241405D01*
X51938Y242297D01*
X50361Y242950D01*
X48701Y243349D01*
X47000Y243482D01*
D02*
G37*
G36*
X194800Y232443D02*
X193941Y232272D01*
X193214Y231786D01*
X192728Y231058D01*
X192557Y230200D01*
X192728Y229342D01*
X193214Y228614D01*
X193941Y228128D01*
X194800Y227957D01*
X194851Y227967D01*
X194861Y227962D01*
X194887Y227945D01*
X194904Y227933D01*
X199035Y223802D01*
Y211117D01*
X198535Y210947D01*
X198019Y211619D01*
X197193Y212253D01*
X196232Y212651D01*
X195200Y212787D01*
X194168Y212651D01*
X193207Y212253D01*
X192381Y211619D01*
X191747Y210793D01*
X191349Y209832D01*
X191213Y208800D01*
X191349Y207768D01*
X191747Y206807D01*
X192381Y205981D01*
X193207Y205347D01*
X194168Y204949D01*
X195200Y204813D01*
X196232Y204949D01*
X197193Y205347D01*
X198019Y205981D01*
X198535Y206653D01*
X199035Y206484D01*
Y204798D01*
X197234Y202997D01*
X197075Y202849D01*
X196955Y202753D01*
X191247D01*
Y194847D01*
X199153D01*
Y200553D01*
X199360Y200797D01*
X201646Y203083D01*
X201977Y203579D01*
X202094Y204165D01*
Y224436D01*
X201977Y225021D01*
X201646Y225517D01*
X197067Y230096D01*
X197055Y230113D01*
X197038Y230139D01*
X197033Y230149D01*
X197043Y230200D01*
X196872Y231058D01*
X196386Y231786D01*
X195658Y232272D01*
X194800Y232443D01*
D02*
G37*
G36*
X182500Y224868D02*
X181324Y224752D01*
X180193Y224409D01*
X179150Y223851D01*
X178237Y223102D01*
X177487Y222188D01*
X176930Y221146D01*
X176587Y220015D01*
X176471Y218839D01*
X176587Y217662D01*
X176930Y216531D01*
X177487Y215489D01*
X178237Y214575D01*
X179150Y213826D01*
X179804Y213476D01*
Y212909D01*
X179250Y212613D01*
X178337Y211863D01*
X177587Y210950D01*
X177030Y209907D01*
X176687Y208776D01*
X176571Y207600D01*
X176687Y206424D01*
X177030Y205293D01*
X177587Y204251D01*
X178337Y203337D01*
X179250Y202587D01*
X180293Y202030D01*
X181424Y201687D01*
X182600Y201571D01*
X183776Y201687D01*
X184907Y202030D01*
X185950Y202587D01*
X186863Y203337D01*
X187613Y204251D01*
X188170Y205293D01*
X188513Y206424D01*
X188629Y207600D01*
X188513Y208776D01*
X188170Y209907D01*
X187613Y210950D01*
X186863Y211863D01*
X185950Y212613D01*
X185295Y212963D01*
Y213529D01*
X185849Y213826D01*
X186763Y214575D01*
X187513Y215489D01*
X188070Y216531D01*
X188413Y217662D01*
X188529Y218839D01*
X188413Y220015D01*
X188070Y221146D01*
X187513Y222188D01*
X186763Y223102D01*
X185849Y223851D01*
X184807Y224409D01*
X183676Y224752D01*
X182500Y224868D01*
D02*
G37*
G36*
X114379Y201718D02*
X113203Y201602D01*
X112072Y201259D01*
X111030Y200701D01*
X110116Y199952D01*
X109366Y199038D01*
X108809Y197996D01*
X108466Y196865D01*
X108350Y195689D01*
X108466Y194512D01*
X108809Y193381D01*
X109366Y192339D01*
X110116Y191425D01*
X111030Y190676D01*
X112072Y190119D01*
X113203Y189775D01*
X114379Y189660D01*
X115556Y189775D01*
X116686Y190119D01*
X117729Y190676D01*
X118642Y191425D01*
X119392Y192339D01*
X119949Y193381D01*
X120292Y194512D01*
X120408Y195689D01*
X120292Y196865D01*
X119949Y197996D01*
X119392Y199038D01*
X118642Y199952D01*
X117729Y200701D01*
X116686Y201259D01*
X115556Y201602D01*
X114379Y201718D01*
D02*
G37*
G36*
X47000Y206081D02*
X45298Y205947D01*
X43639Y205549D01*
X42062Y204895D01*
X40607Y204004D01*
X39309Y202895D01*
X38201Y201597D01*
X37309Y200142D01*
X36656Y198566D01*
X36258Y196906D01*
X36124Y195205D01*
X36258Y193503D01*
X36656Y191844D01*
X37309Y190267D01*
X38201Y188812D01*
X39309Y187514D01*
X40607Y186406D01*
X42062Y185514D01*
X43639Y184861D01*
X45298Y184463D01*
X47000Y184329D01*
X48701Y184463D01*
X50361Y184861D01*
X51938Y185514D01*
X53393Y186406D01*
X54690Y187514D01*
X55799Y188812D01*
X56691Y190267D01*
X57344Y191844D01*
X57742Y193503D01*
X57876Y195205D01*
X57742Y196906D01*
X57344Y198566D01*
X56691Y200142D01*
X55799Y201597D01*
X54690Y202895D01*
X53393Y204004D01*
X51938Y204895D01*
X50361Y205549D01*
X48701Y205947D01*
X47000Y206081D01*
D02*
G37*
G36*
X175600Y178970D02*
Y173600D01*
X180970D01*
X180913Y174176D01*
X180570Y175307D01*
X180013Y176350D01*
X179263Y177263D01*
X178349Y178013D01*
X177307Y178570D01*
X176176Y178913D01*
X175600Y178970D01*
D02*
G37*
G36*
X174400D02*
X173824Y178913D01*
X172693Y178570D01*
X171650Y178013D01*
X170737Y177263D01*
X169987Y176350D01*
X169430Y175307D01*
X169087Y174176D01*
X169030Y173600D01*
X174400D01*
Y178970D01*
D02*
G37*
G36*
X180970Y172400D02*
X175600D01*
Y167030D01*
X176176Y167087D01*
X177307Y167430D01*
X178349Y167987D01*
X179263Y168737D01*
X180013Y169650D01*
X180570Y170693D01*
X180913Y171824D01*
X180970Y172400D01*
D02*
G37*
G36*
X174400D02*
X169030D01*
X169087Y171824D01*
X169430Y170693D01*
X169987Y169650D01*
X170737Y168737D01*
X171650Y167987D01*
X172693Y167430D01*
X173824Y167087D01*
X174400Y167030D01*
Y172400D01*
D02*
G37*
G36*
X114900Y162468D02*
X113724Y162352D01*
X112593Y162009D01*
X111550Y161451D01*
X110637Y160702D01*
X109887Y159788D01*
X109330Y158746D01*
X108987Y157615D01*
X108871Y156439D01*
X108987Y155262D01*
X109330Y154131D01*
X109887Y153089D01*
X110637Y152175D01*
X111550Y151426D01*
X112593Y150868D01*
X113724Y150525D01*
X114900Y150410D01*
X116076Y150525D01*
X117207Y150868D01*
X118249Y151426D01*
X119163Y152175D01*
X119913Y153089D01*
X120470Y154131D01*
X120813Y155262D01*
X120929Y156439D01*
X120813Y157615D01*
X120470Y158746D01*
X119913Y159788D01*
X119163Y160702D01*
X118249Y161451D01*
X117207Y162009D01*
X116076Y162352D01*
X114900Y162468D01*
D02*
G37*
G36*
X47000Y168679D02*
X45298Y168545D01*
X43639Y168147D01*
X42062Y167494D01*
X40607Y166602D01*
X39309Y165494D01*
X38201Y164196D01*
X37309Y162741D01*
X36656Y161164D01*
X36258Y159504D01*
X36124Y157803D01*
X36258Y156102D01*
X36656Y154442D01*
X37309Y152866D01*
X38201Y151410D01*
X39309Y150113D01*
X40607Y149004D01*
X42062Y148112D01*
X43639Y147459D01*
X45298Y147061D01*
X47000Y146927D01*
X48701Y147061D01*
X50361Y147459D01*
X51938Y148112D01*
X53393Y149004D01*
X54690Y150113D01*
X55799Y151410D01*
X56691Y152866D01*
X57344Y154442D01*
X57742Y156102D01*
X57876Y157803D01*
X57742Y159504D01*
X57344Y161164D01*
X56691Y162741D01*
X55799Y164196D01*
X54690Y165494D01*
X53393Y166602D01*
X51938Y167494D01*
X50361Y168147D01*
X48701Y168545D01*
X47000Y168679D01*
D02*
G37*
G36*
X193857Y157083D02*
X192998Y156913D01*
X192271Y156426D01*
X191785Y155699D01*
X191614Y154840D01*
X191785Y153982D01*
X192271Y153254D01*
X192998Y152768D01*
X193857Y152597D01*
X193908Y152607D01*
X193918Y152602D01*
X193944Y152585D01*
X193961Y152573D01*
X196923Y149611D01*
Y135769D01*
X196423Y135523D01*
X195993Y135853D01*
X195032Y136251D01*
X194000Y136387D01*
X192968Y136251D01*
X192007Y135853D01*
X191181Y135219D01*
X190547Y134393D01*
X190149Y133432D01*
X190013Y132400D01*
X190149Y131368D01*
X190547Y130407D01*
X191181Y129581D01*
X192007Y128947D01*
X192968Y128549D01*
X194000Y128413D01*
X195032Y128549D01*
X195993Y128947D01*
X196423Y129277D01*
X196923Y129031D01*
Y127486D01*
X196035Y126597D01*
X195875Y126449D01*
X195755Y126353D01*
X190047D01*
Y118447D01*
X197953D01*
Y124153D01*
X198160Y124397D01*
X199534Y125771D01*
X199866Y126268D01*
X199982Y126853D01*
Y150244D01*
X199866Y150830D01*
X199534Y151326D01*
X196124Y154736D01*
X196112Y154753D01*
X196095Y154779D01*
X196090Y154789D01*
X196100Y154840D01*
X195929Y155699D01*
X195443Y156426D01*
X194715Y156913D01*
X193857Y157083D01*
D02*
G37*
G36*
X182000Y149868D02*
X180824Y149752D01*
X179693Y149409D01*
X178650Y148852D01*
X177737Y148102D01*
X176987Y147188D01*
X176430Y146146D01*
X176087Y145015D01*
X175971Y143839D01*
X176087Y142662D01*
X176430Y141531D01*
X176987Y140489D01*
X177737Y139575D01*
X178650Y138826D01*
X179693Y138268D01*
X180824Y137925D01*
X181693Y137840D01*
Y137337D01*
X180824Y137252D01*
X179693Y136909D01*
X178650Y136352D01*
X177737Y135602D01*
X176987Y134688D01*
X176430Y133646D01*
X176087Y132515D01*
X175971Y131339D01*
X176087Y130162D01*
X176430Y129031D01*
X176987Y127989D01*
X177737Y127075D01*
X178650Y126326D01*
X179693Y125768D01*
X180824Y125425D01*
X182000Y125310D01*
X183176Y125425D01*
X184307Y125768D01*
X185350Y126326D01*
X186263Y127075D01*
X187013Y127989D01*
X187570Y129031D01*
X187913Y130162D01*
X188029Y131339D01*
X187913Y132515D01*
X187570Y133646D01*
X187013Y134688D01*
X186263Y135602D01*
X185350Y136352D01*
X184307Y136909D01*
X183176Y137252D01*
X182307Y137337D01*
Y137840D01*
X183176Y137925D01*
X184307Y138268D01*
X185350Y138826D01*
X186263Y139575D01*
X187013Y140489D01*
X187570Y141531D01*
X187913Y142662D01*
X188029Y143839D01*
X187913Y145015D01*
X187570Y146146D01*
X187013Y147188D01*
X186263Y148102D01*
X185350Y148852D01*
X184307Y149409D01*
X183176Y149752D01*
X182000Y149868D01*
D02*
G37*
G36*
X115000Y127368D02*
X113824Y127252D01*
X112693Y126909D01*
X111650Y126351D01*
X110737Y125602D01*
X109987Y124688D01*
X109430Y123646D01*
X109087Y122515D01*
X108971Y121339D01*
X109087Y120162D01*
X109430Y119031D01*
X109987Y117989D01*
X110737Y117075D01*
X111650Y116326D01*
X112693Y115769D01*
X113824Y115425D01*
X115000Y115310D01*
X116176Y115425D01*
X117307Y115769D01*
X118350Y116326D01*
X119263Y117075D01*
X120013Y117989D01*
X120570Y119031D01*
X120913Y120162D01*
X121029Y121339D01*
X120913Y122515D01*
X120570Y123646D01*
X120013Y124688D01*
X119263Y125602D01*
X118350Y126351D01*
X117307Y126909D01*
X116176Y127252D01*
X115000Y127368D01*
D02*
G37*
G36*
X47000Y131278D02*
X45298Y131144D01*
X43639Y130745D01*
X42062Y130092D01*
X40607Y129200D01*
X39309Y128092D01*
X38201Y126794D01*
X37309Y125339D01*
X36656Y123763D01*
X36258Y122103D01*
X36124Y120402D01*
X36258Y118700D01*
X36656Y117041D01*
X37309Y115464D01*
X38201Y114009D01*
X39309Y112711D01*
X40607Y111603D01*
X42062Y110711D01*
X43639Y110058D01*
X45298Y109659D01*
X47000Y109526D01*
X48701Y109659D01*
X50361Y110058D01*
X51938Y110711D01*
X53393Y111603D01*
X54690Y112711D01*
X55799Y114009D01*
X56691Y115464D01*
X57344Y117041D01*
X57742Y118700D01*
X57876Y120402D01*
X57742Y122103D01*
X57344Y123763D01*
X56691Y125339D01*
X55799Y126794D01*
X54690Y128092D01*
X53393Y129200D01*
X51938Y130092D01*
X50361Y130745D01*
X48701Y131144D01*
X47000Y131278D01*
D02*
G37*
G36*
X48500Y93758D02*
Y84500D01*
X57758D01*
X57742Y84701D01*
X57344Y86361D01*
X56691Y87938D01*
X55799Y89393D01*
X54690Y90690D01*
X53393Y91799D01*
X51938Y92691D01*
X50361Y93344D01*
X48701Y93742D01*
X48500Y93758D01*
D02*
G37*
G36*
X45500D02*
X45298Y93742D01*
X43639Y93344D01*
X42062Y92691D01*
X40607Y91799D01*
X39309Y90690D01*
X38201Y89393D01*
X37309Y87938D01*
X36656Y86361D01*
X36258Y84701D01*
X36242Y84500D01*
X45500D01*
Y93758D01*
D02*
G37*
G36*
X91100Y86809D02*
Y81439D01*
X96470D01*
X96413Y82015D01*
X96070Y83146D01*
X95513Y84188D01*
X94763Y85102D01*
X93849Y85852D01*
X92807Y86409D01*
X91676Y86752D01*
X91100Y86809D01*
D02*
G37*
G36*
X89900D02*
X89324Y86752D01*
X88193Y86409D01*
X87150Y85852D01*
X86237Y85102D01*
X85487Y84188D01*
X84930Y83146D01*
X84587Y82015D01*
X84530Y81439D01*
X89900D01*
Y86809D01*
D02*
G37*
G36*
X96470Y80239D02*
X91100D01*
Y74869D01*
X91676Y74925D01*
X92807Y75269D01*
X93849Y75826D01*
X94763Y76575D01*
X95513Y77489D01*
X96070Y78531D01*
X96413Y79662D01*
X96470Y80239D01*
D02*
G37*
G36*
X89900D02*
X84530D01*
X84587Y79662D01*
X84930Y78531D01*
X85487Y77489D01*
X86237Y76575D01*
X87150Y75826D01*
X88193Y75269D01*
X89324Y74925D01*
X89900Y74869D01*
Y80239D01*
D02*
G37*
G36*
X57758Y81500D02*
X48500D01*
Y72242D01*
X48701Y72258D01*
X50361Y72656D01*
X51938Y73309D01*
X53393Y74201D01*
X54690Y75309D01*
X55799Y76607D01*
X56691Y78062D01*
X57344Y79639D01*
X57742Y81299D01*
X57758Y81500D01*
D02*
G37*
G36*
X45500D02*
X36242D01*
X36258Y81299D01*
X36656Y79639D01*
X37309Y78062D01*
X38201Y76607D01*
X39309Y75309D01*
X40607Y74201D01*
X42062Y73309D01*
X43639Y72656D01*
X45298Y72258D01*
X45500Y72242D01*
Y81500D01*
D02*
G37*
G36*
X235901Y49036D02*
X234097Y48893D01*
X232337Y48471D01*
X230664Y47778D01*
X229121Y46832D01*
X227745Y45657D01*
X226569Y44280D01*
X225623Y42737D01*
X224931Y41065D01*
X224508Y39305D01*
X224366Y37500D01*
X224508Y35695D01*
X224931Y33935D01*
X225623Y32263D01*
X226569Y30720D01*
X227745Y29343D01*
X229121Y28168D01*
X230664Y27222D01*
X232337Y26529D01*
X234097Y26107D01*
X235901Y25964D01*
X237706Y26107D01*
X239466Y26529D01*
X241139Y27222D01*
X242682Y28168D01*
X244058Y29343D01*
X245234Y30720D01*
X246180Y32263D01*
X246872Y33935D01*
X247295Y35695D01*
X247437Y37500D01*
X247295Y39305D01*
X246872Y41065D01*
X246180Y42737D01*
X245234Y44280D01*
X244058Y45657D01*
X242682Y46832D01*
X241139Y47778D01*
X239466Y48471D01*
X237706Y48893D01*
X235901Y49036D01*
D02*
G37*
G36*
X37500D02*
X35695Y48893D01*
X33935Y48471D01*
X32263Y47778D01*
X30720Y46832D01*
X29343Y45657D01*
X28168Y44280D01*
X27222Y42737D01*
X26529Y41065D01*
X26106Y39305D01*
X25964Y37500D01*
X26106Y35695D01*
X26529Y33935D01*
X27222Y32263D01*
X28168Y30720D01*
X29343Y29343D01*
X30720Y28168D01*
X32263Y27222D01*
X33935Y26529D01*
X35695Y26107D01*
X37500Y25964D01*
X39305Y26107D01*
X41065Y26529D01*
X42737Y27222D01*
X44280Y28168D01*
X45657Y29343D01*
X46832Y30720D01*
X47778Y32263D01*
X48471Y33935D01*
X48893Y35695D01*
X49036Y37500D01*
X48893Y39305D01*
X48471Y41065D01*
X47778Y42737D01*
X46832Y44280D01*
X45657Y45657D01*
X44280Y46832D01*
X42737Y47778D01*
X41065Y48471D01*
X39305Y48893D01*
X37500Y49036D01*
D02*
G37*
%LPD*%
G36*
X196003Y230093D02*
X196016Y229999D01*
X196037Y229906D01*
X196067Y229813D01*
X196106Y229721D01*
X196154Y229630D01*
X196211Y229540D01*
X196276Y229450D01*
X196351Y229361D01*
X196434Y229273D01*
X195727Y228566D01*
X195639Y228649D01*
X195550Y228724D01*
X195460Y228789D01*
X195370Y228846D01*
X195279Y228894D01*
X195187Y228933D01*
X195094Y228963D01*
X195001Y228984D01*
X194907Y228997D01*
X194812Y229000D01*
X196000Y230188D01*
X196003Y230093D01*
D02*
G37*
G36*
X198848Y201741D02*
X198649Y201535D01*
X198335Y201166D01*
X198221Y201003D01*
X198135Y200854D01*
X198077Y200720D01*
X198047Y200600D01*
X198046Y200494D01*
X198073Y200403D01*
X198129Y200326D01*
X196727Y201729D01*
X196803Y201673D01*
X196894Y201646D01*
X197000Y201647D01*
X197120Y201677D01*
X197254Y201735D01*
X197402Y201821D01*
X197565Y201935D01*
X197743Y202078D01*
X198141Y202448D01*
X198848Y201741D01*
D02*
G37*
G36*
X195060Y154733D02*
X195073Y154639D01*
X195094Y154546D01*
X195124Y154453D01*
X195163Y154361D01*
X195211Y154270D01*
X195267Y154180D01*
X195333Y154090D01*
X195407Y154001D01*
X195491Y153913D01*
X194784Y153206D01*
X194696Y153289D01*
X194607Y153364D01*
X194517Y153430D01*
X194427Y153486D01*
X194336Y153534D01*
X194244Y153573D01*
X194151Y153603D01*
X194058Y153624D01*
X193964Y153637D01*
X193869Y153640D01*
X195057Y154828D01*
X195060Y154733D01*
D02*
G37*
G36*
X197648Y125341D02*
X197449Y125135D01*
X197135Y124766D01*
X197021Y124602D01*
X196935Y124454D01*
X196877Y124320D01*
X196847Y124200D01*
X196846Y124094D01*
X196873Y124003D01*
X196929Y123926D01*
X195527Y125329D01*
X195603Y125273D01*
X195694Y125246D01*
X195800Y125248D01*
X195920Y125277D01*
X196054Y125335D01*
X196202Y125421D01*
X196365Y125535D01*
X196543Y125678D01*
X196941Y126048D01*
X197648Y125341D01*
D02*
G37*
D13*
X194000Y122400D02*
X198453Y126853D01*
Y150244D01*
X194800Y230200D02*
X200564Y224436D01*
Y204165D02*
Y224436D01*
X195200Y198800D02*
X200564Y204165D01*
X193857Y154840D02*
X198453Y150244D01*
D47*
X235901Y319500D02*
D03*
X37500Y37500D02*
D03*
X235901D02*
D03*
X37500Y319500D02*
D03*
D48*
X145000Y249000D02*
D03*
X182000Y131339D02*
D03*
X115000Y121339D02*
D03*
X182000Y143839D02*
D03*
X114900Y156439D02*
D03*
X175000Y173000D02*
D03*
X90500Y80839D02*
D03*
X119579Y277889D02*
D03*
X182600Y207600D02*
D03*
X114379Y195689D02*
D03*
X182500Y218839D02*
D03*
X114700Y231239D02*
D03*
D49*
X47000Y270008D02*
D03*
D50*
Y232606D02*
D03*
Y195205D02*
D03*
Y157803D02*
D03*
Y120402D02*
D03*
Y83000D02*
D03*
D51*
X194000Y132400D02*
D03*
X195200Y208800D02*
D03*
D52*
X194000Y122400D02*
D03*
X195200Y198800D02*
D03*
D53*
X248904Y240494D02*
D03*
Y225389D02*
D03*
Y193105D02*
D03*
Y208211D02*
D03*
X248104Y132317D02*
D03*
Y117211D02*
D03*
Y149495D02*
D03*
X219800Y225800D02*
D03*
X248104Y164600D02*
D03*
X219200Y149800D02*
D03*
X193857Y154840D02*
D03*
X205600Y203173D02*
D03*
X204000Y127000D02*
D03*
X194800Y230200D02*
D03*
X141200Y224800D02*
D03*
X141400Y150370D02*
D03*
X100570Y265151D02*
D03*
X108579Y285689D02*
D03*
X166400Y222650D02*
D03*
X166800Y202050D02*
D03*
X101325Y224871D02*
D03*
X101000Y232839D02*
D03*
X82100Y195839D02*
D03*
X102500Y157839D02*
D03*
X82300Y203239D02*
D03*
X97700Y214839D02*
D03*
X166400Y128150D02*
D03*
Y148050D02*
D03*
X84000Y129339D02*
D03*
Y121339D02*
D03*
X98500Y140839D02*
D03*
X102500Y152924D02*
D03*
X101000Y271639D02*
D03*
M02*
