G04*
G04 #@! TF.GenerationSoftware,Altium Limited,Altium Designer,21.0.8 (223)*
G04*
G04 Layer_Color=8388736*
%FSLAX25Y25*%
%MOIN*%
G70*
G04*
G04 #@! TF.SameCoordinates,B21DCE84-2690-44BB-8765-99E36CDB2AD5*
G04*
G04*
G04 #@! TF.FilePolarity,Negative*
G04*
G01*
G75*
G04:AMPARAMS|DCode=14|XSize=55.24mil|YSize=63.12mil|CornerRadius=8.72mil|HoleSize=0mil|Usage=FLASHONLY|Rotation=270.000|XOffset=0mil|YOffset=0mil|HoleType=Round|Shape=RoundedRectangle|*
%AMROUNDEDRECTD14*
21,1,0.05524,0.04567,0,0,270.0*
21,1,0.03780,0.06312,0,0,270.0*
1,1,0.01745,-0.02284,-0.01890*
1,1,0.01745,-0.02284,0.01890*
1,1,0.01745,0.02284,0.01890*
1,1,0.01745,0.02284,-0.01890*
%
%ADD14ROUNDEDRECTD14*%
G04:AMPARAMS|DCode=15|XSize=32.61mil|YSize=101.5mil|CornerRadius=6.46mil|HoleSize=0mil|Usage=FLASHONLY|Rotation=90.000|XOffset=0mil|YOffset=0mil|HoleType=Round|Shape=RoundedRectangle|*
%AMROUNDEDRECTD15*
21,1,0.03261,0.08858,0,0,90.0*
21,1,0.01968,0.10150,0,0,90.0*
1,1,0.01292,0.04429,0.00984*
1,1,0.01292,0.04429,-0.00984*
1,1,0.01292,-0.04429,-0.00984*
1,1,0.01292,-0.04429,0.00984*
%
%ADD15ROUNDEDRECTD15*%
G04:AMPARAMS|DCode=16|XSize=49.34mil|YSize=67.06mil|CornerRadius=8.13mil|HoleSize=0mil|Usage=FLASHONLY|Rotation=0.000|XOffset=0mil|YOffset=0mil|HoleType=Round|Shape=RoundedRectangle|*
%AMROUNDEDRECTD16*
21,1,0.04934,0.05079,0,0,0.0*
21,1,0.03307,0.06706,0,0,0.0*
1,1,0.01627,0.01654,-0.02539*
1,1,0.01627,-0.01654,-0.02539*
1,1,0.01627,-0.01654,0.02539*
1,1,0.01627,0.01654,0.02539*
%
%ADD16ROUNDEDRECTD16*%
G04:AMPARAMS|DCode=17|XSize=49.34mil|YSize=67.06mil|CornerRadius=8.13mil|HoleSize=0mil|Usage=FLASHONLY|Rotation=90.000|XOffset=0mil|YOffset=0mil|HoleType=Round|Shape=RoundedRectangle|*
%AMROUNDEDRECTD17*
21,1,0.04934,0.05079,0,0,90.0*
21,1,0.03307,0.06706,0,0,90.0*
1,1,0.01627,0.02539,0.01654*
1,1,0.01627,0.02539,-0.01654*
1,1,0.01627,-0.02539,-0.01654*
1,1,0.01627,-0.02539,0.01654*
%
%ADD17ROUNDEDRECTD17*%
%ADD18R,0.03162X0.04343*%
G04:AMPARAMS|DCode=19|XSize=35.43mil|YSize=125.98mil|CornerRadius=3.54mil|HoleSize=0mil|Usage=FLASHONLY|Rotation=90.000|XOffset=0mil|YOffset=0mil|HoleType=Round|Shape=RoundedRectangle|*
%AMROUNDEDRECTD19*
21,1,0.03543,0.11890,0,0,90.0*
21,1,0.02835,0.12598,0,0,90.0*
1,1,0.00709,0.05945,0.01417*
1,1,0.00709,0.05945,-0.01417*
1,1,0.00709,-0.05945,-0.01417*
1,1,0.00709,-0.05945,0.01417*
%
%ADD19ROUNDEDRECTD19*%
G04:AMPARAMS|DCode=20|XSize=78.74mil|YSize=157.48mil|CornerRadius=7.87mil|HoleSize=0mil|Usage=FLASHONLY|Rotation=90.000|XOffset=0mil|YOffset=0mil|HoleType=Round|Shape=RoundedRectangle|*
%AMROUNDEDRECTD20*
21,1,0.07874,0.14173,0,0,90.0*
21,1,0.06299,0.15748,0,0,90.0*
1,1,0.01575,0.07087,0.03150*
1,1,0.01575,0.07087,-0.03150*
1,1,0.01575,-0.07087,-0.03150*
1,1,0.01575,-0.07087,0.03150*
%
%ADD20ROUNDEDRECTD20*%
G04:AMPARAMS|DCode=21|XSize=59.18mil|YSize=59.18mil|CornerRadius=9.12mil|HoleSize=0mil|Usage=FLASHONLY|Rotation=180.000|XOffset=0mil|YOffset=0mil|HoleType=Round|Shape=RoundedRectangle|*
%AMROUNDEDRECTD21*
21,1,0.05918,0.04095,0,0,180.0*
21,1,0.04095,0.05918,0,0,180.0*
1,1,0.01824,-0.02047,0.02047*
1,1,0.01824,0.02047,0.02047*
1,1,0.01824,0.02047,-0.02047*
1,1,0.01824,-0.02047,-0.02047*
%
%ADD21ROUNDEDRECTD21*%
G04:AMPARAMS|DCode=22|XSize=74.93mil|YSize=45.4mil|CornerRadius=7.74mil|HoleSize=0mil|Usage=FLASHONLY|Rotation=0.000|XOffset=0mil|YOffset=0mil|HoleType=Round|Shape=RoundedRectangle|*
%AMROUNDEDRECTD22*
21,1,0.07493,0.02992,0,0,0.0*
21,1,0.05945,0.04540,0,0,0.0*
1,1,0.01548,0.02972,-0.01496*
1,1,0.01548,-0.02972,-0.01496*
1,1,0.01548,-0.02972,0.01496*
1,1,0.01548,0.02972,0.01496*
%
%ADD22ROUNDEDRECTD22*%
G04:AMPARAMS|DCode=23|XSize=82.8mil|YSize=76.9mil|CornerRadius=10.89mil|HoleSize=0mil|Usage=FLASHONLY|Rotation=270.000|XOffset=0mil|YOffset=0mil|HoleType=Round|Shape=RoundedRectangle|*
%AMROUNDEDRECTD23*
21,1,0.08280,0.05512,0,0,270.0*
21,1,0.06102,0.07690,0,0,270.0*
1,1,0.02178,-0.02756,-0.03051*
1,1,0.02178,-0.02756,0.03051*
1,1,0.02178,0.02756,0.03051*
1,1,0.02178,0.02756,-0.03051*
%
%ADD23ROUNDEDRECTD23*%
G04:AMPARAMS|DCode=24|XSize=57.21mil|YSize=70.99mil|CornerRadius=8.92mil|HoleSize=0mil|Usage=FLASHONLY|Rotation=270.000|XOffset=0mil|YOffset=0mil|HoleType=Round|Shape=RoundedRectangle|*
%AMROUNDEDRECTD24*
21,1,0.05721,0.05315,0,0,270.0*
21,1,0.03937,0.07099,0,0,270.0*
1,1,0.01784,-0.02657,-0.01968*
1,1,0.01784,-0.02657,0.01968*
1,1,0.01784,0.02657,0.01968*
1,1,0.01784,0.02657,-0.01968*
%
%ADD24ROUNDEDRECTD24*%
G04:AMPARAMS|DCode=25|XSize=51.31mil|YSize=47.37mil|CornerRadius=7.94mil|HoleSize=0mil|Usage=FLASHONLY|Rotation=180.000|XOffset=0mil|YOffset=0mil|HoleType=Round|Shape=RoundedRectangle|*
%AMROUNDEDRECTD25*
21,1,0.05131,0.03150,0,0,180.0*
21,1,0.03543,0.04737,0,0,180.0*
1,1,0.01587,-0.01772,0.01575*
1,1,0.01587,0.01772,0.01575*
1,1,0.01587,0.01772,-0.01575*
1,1,0.01587,-0.01772,-0.01575*
%
%ADD25ROUNDEDRECTD25*%
G04:AMPARAMS|DCode=26|XSize=57.21mil|YSize=70.99mil|CornerRadius=8.92mil|HoleSize=0mil|Usage=FLASHONLY|Rotation=180.000|XOffset=0mil|YOffset=0mil|HoleType=Round|Shape=RoundedRectangle|*
%AMROUNDEDRECTD26*
21,1,0.05721,0.05315,0,0,180.0*
21,1,0.03937,0.07099,0,0,180.0*
1,1,0.01784,-0.01968,0.02657*
1,1,0.01784,0.01968,0.02657*
1,1,0.01784,0.01968,-0.02657*
1,1,0.01784,-0.01968,-0.02657*
%
%ADD26ROUNDEDRECTD26*%
%ADD27C,0.19800*%
%ADD28C,0.10800*%
%ADD29R,0.20485X0.20485*%
%ADD30C,0.20485*%
%ADD31C,0.06706*%
%ADD32R,0.06706X0.06706*%
D14*
X215018Y133708D02*
D03*
Y142369D02*
D03*
X204782Y138039D02*
D03*
X216518Y209529D02*
D03*
Y218191D02*
D03*
X206282Y213860D02*
D03*
D15*
X115051Y145839D02*
D03*
Y140839D02*
D03*
Y135839D02*
D03*
Y130839D02*
D03*
X133949Y145839D02*
D03*
Y140839D02*
D03*
Y135839D02*
D03*
Y130839D02*
D03*
X114551Y219839D02*
D03*
Y214839D02*
D03*
Y209839D02*
D03*
Y204839D02*
D03*
X133449Y219839D02*
D03*
Y214839D02*
D03*
Y209839D02*
D03*
Y204839D02*
D03*
D16*
X97260Y129339D02*
D03*
X89740D02*
D03*
X88740Y149339D02*
D03*
X96260D02*
D03*
X95760Y203339D02*
D03*
X88240D02*
D03*
Y224839D02*
D03*
X95760D02*
D03*
X123514Y259989D02*
D03*
X115994D02*
D03*
X123339Y104089D02*
D03*
X115820D02*
D03*
X128660Y173139D02*
D03*
X121140D02*
D03*
X128460Y182039D02*
D03*
X120940D02*
D03*
X123274Y249989D02*
D03*
X115754D02*
D03*
D17*
X193800Y149760D02*
D03*
Y142240D02*
D03*
X194800Y225560D02*
D03*
Y218040D02*
D03*
D18*
X97240Y121366D02*
D03*
X89760D02*
D03*
X93500Y112311D02*
D03*
X88760Y157783D02*
D03*
X96240D02*
D03*
X92500Y166839D02*
D03*
X96240Y195866D02*
D03*
X88760D02*
D03*
X92500Y186811D02*
D03*
X88260Y232811D02*
D03*
X95740D02*
D03*
X92000Y241866D02*
D03*
D19*
X229600Y135000D02*
D03*
Y140905D02*
D03*
Y146811D02*
D03*
X230400Y210894D02*
D03*
Y216800D02*
D03*
Y222706D02*
D03*
D20*
X248104Y157047D02*
D03*
Y124764D02*
D03*
X248904Y232942D02*
D03*
Y200658D02*
D03*
D21*
X109022Y259989D02*
D03*
X100754D02*
D03*
X109022Y104189D02*
D03*
X100754D02*
D03*
X109022Y173139D02*
D03*
X100754D02*
D03*
X109022Y180139D02*
D03*
X100754D02*
D03*
X109022Y249989D02*
D03*
X100754D02*
D03*
D22*
X144460Y133417D02*
D03*
X164539D02*
D03*
Y143260D02*
D03*
X144460D02*
D03*
Y207417D02*
D03*
X164539D02*
D03*
Y217260D02*
D03*
X144460D02*
D03*
D23*
X88680Y285889D02*
D03*
X101278D02*
D03*
D24*
X105000Y140839D02*
D03*
Y133791D02*
D03*
X104500Y214862D02*
D03*
Y207815D02*
D03*
D25*
X172400Y134550D02*
D03*
Y128250D02*
D03*
Y141850D02*
D03*
Y148150D02*
D03*
X172600Y208350D02*
D03*
Y202050D02*
D03*
Y216250D02*
D03*
Y222550D02*
D03*
D26*
X95047Y271639D02*
D03*
X88000D02*
D03*
D27*
X235901Y319500D02*
D03*
X37500Y37500D02*
D03*
X235901D02*
D03*
X37500Y319500D02*
D03*
D28*
X145000Y249000D02*
D03*
X182000Y131339D02*
D03*
X115000Y121339D02*
D03*
X182000Y143839D02*
D03*
X114900Y156439D02*
D03*
X175000Y173000D02*
D03*
X90500Y80839D02*
D03*
X119579Y277889D02*
D03*
X182600Y207600D02*
D03*
X114379Y195689D02*
D03*
X182500Y218839D02*
D03*
X114700Y231239D02*
D03*
D29*
X47000Y270008D02*
D03*
D30*
Y232606D02*
D03*
Y195205D02*
D03*
Y157803D02*
D03*
Y120402D02*
D03*
Y83000D02*
D03*
D31*
X194000Y132400D02*
D03*
X195200Y208800D02*
D03*
D32*
X194000Y122400D02*
D03*
X195200Y198800D02*
D03*
M02*
