G04 DipTrace 3.2.0.0*
G04 gimbalboard2_TopMask.gbr*
%MOMM*%
G04 #@! TF.FileFunction,Soldermask,Top*
G04 #@! TF.Part,Single*
%ADD47C,1.1*%
%ADD48C,3.0*%
%ADD50R,1.2X1.4*%
%ADD52R,1.6X0.9*%
%ADD54R,5.75X6.35*%
%ADD56R,1.2X2.95*%
%ADD58R,1.343X0.962*%
%ADD60R,0.5X1.4*%
%ADD62R,1.4X0.5*%
%ADD64R,0.68X0.77*%
%ADD66R,1.9X0.8*%
%ADD68R,3.0X1.2*%
%ADD70C,1.4*%
%ADD72R,1.4X1.4*%
%ADD74R,0.8X1.9*%
%ADD76R,1.2X3.0*%
%ADD78R,1.7X1.5*%
%ADD80R,1.0X1.25*%
%ADD82R,2.2X1.2*%
%ADD84R,0.9X1.1*%
%ADD86R,1.2X1.3*%
%ADD88R,1.3X1.2*%
%ADD90R,0.75X1.7*%
%ADD92R,1.7X1.7*%
%FSLAX35Y35*%
G04*
G71*
G90*
G75*
G01*
G04 TopMask*
%LPD*%
D92*
X-3206750Y-2127250D3*
X-3016250D3*
D90*
X-4095750Y-2159000D3*
X-4420750D3*
X-3937000D3*
X-3612000D3*
D84*
X-4256000Y-223750D3*
Y-93750D3*
X-3873500Y-127000D3*
Y-257000D3*
D88*
X-1250250Y390500D3*
X-1080250D3*
D82*
X-5683250Y0D3*
X-5383250D3*
D88*
X-5207000Y-1746250D3*
X-5037000D3*
D92*
X-5365750Y635000D3*
X-4794250Y603250D3*
D80*
X-4989000Y456250D3*
X-5179000D3*
X-5084000Y216250D3*
D78*
X-4413250Y-1047750D3*
Y-857750D3*
Y-1397000D3*
Y-1207000D3*
Y-1746250D3*
Y-1556250D3*
Y-698500D3*
Y-508500D3*
X-5588000Y-349250D3*
Y-539250D3*
D92*
X-2730500Y571500D3*
X-3175000Y539750D3*
D76*
X-1922000Y-1419000D3*
X-2547000D3*
D74*
X-2107000Y-1754000D3*
X-2232000D3*
X-2357000D3*
D72*
X-5080000Y-2190750D3*
D70*
X-4880000D3*
D47*
X-5230000Y-2360750D3*
D72*
X-4800000Y-295250D3*
D70*
X-5000000D3*
D47*
X-4650000Y-125250D3*
D68*
X-1460500Y-1206500D3*
Y-1831500D3*
D66*
X-1125500Y-1391500D3*
Y-1516500D3*
Y-1641500D3*
D76*
X-2661750Y1206000D3*
X-3161750D3*
D74*
X-2846750Y871000D3*
X-2971750D3*
D68*
X-2222500Y1333500D3*
Y463500D3*
D66*
X-1887500Y1023500D3*
Y898500D3*
Y1148500D3*
Y773500D3*
Y648500D3*
D68*
X-1460500Y63500D3*
Y-806500D3*
D66*
X-1125500Y-246500D3*
Y-371500D3*
Y-121500D3*
Y-496500D3*
Y-621500D3*
D68*
X-4349750Y889000D3*
Y1514000D3*
D66*
X-4684750Y1074000D3*
Y1199000D3*
Y1324000D3*
D68*
X-3556000Y889000D3*
Y1514000D3*
D66*
X-3891000Y1074000D3*
Y1199000D3*
Y1324000D3*
D76*
X-2857500Y-1428750D3*
X-3357500D3*
D74*
X-3042500Y-1763750D3*
X-3167500D3*
D86*
X-4391750Y-275500D3*
Y-105500D3*
D88*
X-5179500Y646750D3*
X-5009500D3*
X-4766750Y202250D3*
X-4936750D3*
D86*
X-2825750Y1524000D3*
Y1694000D3*
X-2984500Y1555750D3*
Y1725750D3*
X-4222750Y-1746250D3*
Y-1576250D3*
Y-1397000D3*
Y-1227000D3*
Y-1047750D3*
Y-877750D3*
Y-698500D3*
Y-528500D3*
D88*
X-3767000Y-1968500D3*
X-3937000D3*
X-4254500D3*
X-4084500D3*
D86*
X-5439500Y-359500D3*
Y-529500D3*
D64*
X-1059750Y644500D3*
X-1321750D3*
X-1059750Y528500D3*
X-1321750D3*
D92*
X-2090500Y-285750D3*
X-2095500Y31750D3*
D62*
X-3492500Y-31750D3*
Y-81750D3*
Y-131750D3*
Y-181750D3*
Y-231750D3*
Y-281750D3*
Y-331750D3*
Y-381750D3*
Y-431750D3*
Y-481750D3*
Y-531750D3*
Y-581750D3*
Y-631750D3*
Y-681750D3*
Y-731750D3*
Y-781750D3*
D60*
X-3292500Y-981750D3*
X-3242500D3*
X-3192500D3*
X-3142500D3*
X-3092500D3*
X-3042500D3*
X-2992500D3*
X-2942500D3*
X-2892500D3*
X-2842500D3*
X-2792500D3*
X-2742500D3*
X-2692500D3*
X-2642500D3*
X-2592500D3*
X-2542500D3*
D62*
X-2342500Y-781750D3*
Y-731750D3*
Y-681750D3*
Y-631750D3*
Y-581750D3*
Y-531750D3*
Y-481750D3*
Y-431750D3*
Y-381750D3*
Y-331750D3*
Y-281750D3*
Y-231750D3*
Y-181750D3*
Y-131750D3*
Y-81750D3*
Y-31750D3*
D60*
X-2542500Y168250D3*
X-2592500D3*
X-2642500D3*
X-2692500D3*
X-2742500D3*
X-2792500D3*
X-2842500D3*
X-2892500D3*
X-2942500D3*
X-2992500D3*
X-3042500D3*
X-3092500D3*
X-3142500D3*
X-3192500D3*
X-3242500D3*
X-3292500D3*
D58*
X-4004750Y202250D3*
Y329250D3*
Y456250D3*
Y583250D3*
X-4615617D3*
Y456250D3*
Y329250D3*
Y202250D3*
D56*
X-5334000Y-1714500D3*
X-4878000D3*
D54*
X-5106000Y-1044500D3*
D52*
X-1111250Y952500D3*
Y1079500D3*
Y1206500D3*
Y1333500D3*
D92*
X-1619250Y952500D3*
Y762000D3*
Y571500D3*
D50*
X-4127500Y-254000D3*
X-3997500D3*
X-4127500Y-84000D3*
X-3997500D3*
D48*
X-1016000Y1778000D3*
X-5715000Y1746250D3*
Y-2286000D3*
X-1016000D3*
M02*
