G04*
G04 #@! TF.GenerationSoftware,Altium Limited,Altium Designer,22.4.2 (48)*
G04*
G04 Layer_Physical_Order=2*
G04 Layer_Color=36540*
%FSLAX25Y25*%
%MOIN*%
G70*
G04*
G04 #@! TF.SameCoordinates,D9C1796D-00DA-4533-86C4-8477C41658A7*
G04*
G04*
G04 #@! TF.FilePolarity,Positive*
G04*
G01*
G75*
%ADD17C,0.01000*%
%ADD115R,0.05906X0.05906*%
%ADD116C,0.05906*%
%ADD117C,0.10925*%
%ADD118C,0.09000*%
%ADD119C,0.15630*%
%ADD120C,0.49213*%
%ADD121C,0.04449*%
%ADD122R,0.04449X0.04449*%
%ADD123C,0.06319*%
%ADD124C,0.06004*%
%ADD125C,0.04724*%
%ADD126R,0.04724X0.04724*%
%ADD127C,0.05512*%
%ADD128C,0.05000*%
%ADD129C,0.02400*%
G36*
X655735Y495034D02*
X655784Y494534D01*
X655146Y494408D01*
X653366Y493670D01*
X651763Y492599D01*
X650401Y491237D01*
X649330Y489634D01*
X648593Y487854D01*
X648216Y485964D01*
Y484036D01*
X648593Y482146D01*
X649330Y480366D01*
X650401Y478763D01*
X651763Y477401D01*
X653366Y476330D01*
X655146Y475593D01*
X657036Y475216D01*
X658964D01*
X660854Y475593D01*
X662634Y476330D01*
X664237Y477401D01*
X665599Y478763D01*
X666670Y480366D01*
X667408Y482146D01*
X667783Y484036D01*
Y485964D01*
X667408Y487854D01*
X666670Y489634D01*
X665599Y491237D01*
X664237Y492599D01*
X662634Y493670D01*
X660854Y494408D01*
X660239Y494530D01*
X660288Y495030D01*
X660996Y495029D01*
X660998Y495029D01*
X661000Y495029D01*
X661526D01*
X662570Y494892D01*
X663586Y494619D01*
X664559Y494216D01*
X665470Y493690D01*
X666305Y493049D01*
X667050Y492305D01*
X667690Y491470D01*
X668217Y490559D01*
X668619Y489586D01*
X668892Y488570D01*
X669029Y487526D01*
X669029Y487000D01*
X669029Y132000D01*
Y131474D01*
X668892Y130430D01*
X668619Y129414D01*
X668217Y128441D01*
X667690Y127530D01*
X667050Y126695D01*
X666305Y125951D01*
X665470Y125310D01*
X664559Y124784D01*
X663587Y124381D01*
X662570Y124108D01*
X661526Y123971D01*
X661000Y123971D01*
X113500Y123981D01*
X113417Y123970D01*
X113334Y123978D01*
X112794Y123955D01*
X111719Y124055D01*
X110666Y124299D01*
X109655Y124681D01*
X108705Y125195D01*
X107832Y125832D01*
X107052Y126580D01*
X106380Y127425D01*
X105826Y128353D01*
X105403Y129347D01*
X105116Y130389D01*
X104971Y131460D01*
X104971Y132000D01*
X104971Y487500D01*
Y488026D01*
X105108Y489070D01*
X105381Y490086D01*
X105783Y491059D01*
X106310Y491970D01*
X106950Y492805D01*
X107695Y493549D01*
X108530Y494190D01*
X109441Y494717D01*
X110414Y495119D01*
X111430Y495392D01*
X112474Y495529D01*
X113000D01*
X113381Y495579D01*
X655735Y495034D01*
D02*
G37*
%LPC*%
G36*
X118964Y493784D02*
X117036D01*
X115146Y493407D01*
X113366Y492670D01*
X111763Y491599D01*
X110401Y490237D01*
X109330Y488634D01*
X108592Y486854D01*
X108217Y484964D01*
Y483036D01*
X108592Y481146D01*
X109330Y479366D01*
X110401Y477763D01*
X111763Y476401D01*
X113366Y475330D01*
X115146Y474592D01*
X117036Y474217D01*
X118964D01*
X120854Y474592D01*
X122634Y475330D01*
X124237Y476401D01*
X125599Y477763D01*
X126670Y479366D01*
X127408Y481146D01*
X127784Y483036D01*
Y484964D01*
X127408Y486854D01*
X126670Y488634D01*
X125599Y490237D01*
X124237Y491599D01*
X122634Y492670D01*
X120854Y493407D01*
X118964Y493784D01*
D02*
G37*
G36*
X610224Y473248D02*
X608776D01*
X607377Y472873D01*
X606123Y472149D01*
X605099Y471125D01*
X604375Y469871D01*
X604000Y468472D01*
Y467024D01*
X604375Y465625D01*
X605099Y464371D01*
X606123Y463347D01*
X607377Y462623D01*
X608776Y462248D01*
X610224D01*
X611623Y462623D01*
X612877Y463347D01*
X613901Y464371D01*
X614625Y465625D01*
X615000Y467024D01*
Y468472D01*
X614625Y469871D01*
X613901Y471125D01*
X612877Y472149D01*
X611623Y472873D01*
X610224Y473248D01*
D02*
G37*
G36*
X564224D02*
X562776D01*
X561377Y472873D01*
X560123Y472149D01*
X559099Y471125D01*
X558375Y469871D01*
X558000Y468472D01*
Y467024D01*
X558375Y465625D01*
X559099Y464371D01*
X560123Y463347D01*
X561377Y462623D01*
X562776Y462248D01*
X564224D01*
X565623Y462623D01*
X566877Y463347D01*
X567901Y464371D01*
X568625Y465625D01*
X569000Y467024D01*
Y468472D01*
X568625Y469871D01*
X567901Y471125D01*
X566877Y472149D01*
X565623Y472873D01*
X564224Y473248D01*
D02*
G37*
G36*
X610224Y457500D02*
X608776D01*
X607377Y457125D01*
X606123Y456401D01*
X605099Y455377D01*
X604375Y454123D01*
X604000Y452724D01*
Y451276D01*
X604375Y449877D01*
X605099Y448623D01*
X606123Y447599D01*
X607377Y446875D01*
X608776Y446500D01*
X610224D01*
X611623Y446875D01*
X612877Y447599D01*
X613901Y448623D01*
X614625Y449877D01*
X615000Y451276D01*
Y452724D01*
X614625Y454123D01*
X613901Y455377D01*
X612877Y456401D01*
X611623Y457125D01*
X610224Y457500D01*
D02*
G37*
G36*
X564224D02*
X562776D01*
X561377Y457125D01*
X560123Y456401D01*
X559099Y455377D01*
X558375Y454123D01*
X558000Y452724D01*
Y451276D01*
X558375Y449877D01*
X559099Y448623D01*
X560123Y447599D01*
X561377Y446875D01*
X562776Y446500D01*
X564224D01*
X565623Y446875D01*
X566877Y447599D01*
X567901Y448623D01*
X568625Y449877D01*
X569000Y451276D01*
Y452724D01*
X568625Y454123D01*
X567901Y455377D01*
X566877Y456401D01*
X565623Y457125D01*
X564224Y457500D01*
D02*
G37*
G36*
X276453Y445453D02*
X268547D01*
Y437547D01*
X276453D01*
Y445453D01*
D02*
G37*
G36*
X263020D02*
X261980D01*
X260974Y445183D01*
X260073Y444663D01*
X259337Y443927D01*
X258817Y443026D01*
X258547Y442020D01*
Y440980D01*
X258817Y439974D01*
X259337Y439073D01*
X260073Y438337D01*
X260974Y437817D01*
X261980Y437547D01*
X263020D01*
X264026Y437817D01*
X264927Y438337D01*
X265663Y439073D01*
X266183Y439974D01*
X266453Y440980D01*
Y442020D01*
X266183Y443026D01*
X265663Y443927D01*
X264927Y444663D01*
X264026Y445183D01*
X263020Y445453D01*
D02*
G37*
G36*
X215953Y444453D02*
X208047D01*
Y436547D01*
X215953D01*
Y444453D01*
D02*
G37*
G36*
X202520D02*
X201480D01*
X200474Y444183D01*
X199573Y443663D01*
X198837Y442927D01*
X198317Y442026D01*
X198047Y441020D01*
Y439980D01*
X198317Y438974D01*
X198837Y438073D01*
X199573Y437337D01*
X200474Y436817D01*
X201480Y436547D01*
X202520D01*
X203526Y436817D01*
X204427Y437337D01*
X205163Y438073D01*
X205683Y438974D01*
X205953Y439980D01*
Y441020D01*
X205683Y442026D01*
X205163Y442927D01*
X204427Y443663D01*
X203526Y444183D01*
X202520Y444453D01*
D02*
G37*
G36*
X422961Y438500D02*
X422039D01*
X421149Y438262D01*
X420351Y437801D01*
X419699Y437149D01*
X419239Y436351D01*
X419000Y435461D01*
Y434539D01*
X419239Y433649D01*
X419699Y432851D01*
X420351Y432199D01*
X421149Y431739D01*
X422039Y431500D01*
X422961D01*
X423851Y431739D01*
X424649Y432199D01*
X425301Y432851D01*
X425762Y433649D01*
X426000Y434539D01*
Y435461D01*
X425762Y436351D01*
X425301Y437149D01*
X424649Y437801D01*
X423851Y438262D01*
X422961Y438500D01*
D02*
G37*
G36*
X430961Y437000D02*
X430039D01*
X429149Y436762D01*
X428351Y436301D01*
X427699Y435649D01*
X427239Y434851D01*
X427000Y433961D01*
Y433039D01*
X427239Y432149D01*
X427699Y431351D01*
X428351Y430699D01*
X429149Y430238D01*
X430039Y430000D01*
X430961D01*
X431851Y430238D01*
X432649Y430699D01*
X433301Y431351D01*
X433762Y432149D01*
X434000Y433039D01*
Y433961D01*
X433762Y434851D01*
X433301Y435649D01*
X432649Y436301D01*
X431851Y436762D01*
X430961Y437000D01*
D02*
G37*
G36*
X256772Y429500D02*
X255850D01*
X254960Y429261D01*
X254162Y428801D01*
X253510Y428149D01*
X253049Y427351D01*
X252811Y426461D01*
Y425539D01*
X253049Y424649D01*
X253510Y423851D01*
X254162Y423199D01*
X254960Y422739D01*
X255850Y422500D01*
X256772D01*
X257662Y422739D01*
X258460Y423199D01*
X259112Y423851D01*
X259573Y424649D01*
X259811Y425539D01*
Y426461D01*
X259573Y427351D01*
X259112Y428149D01*
X258460Y428801D01*
X257662Y429261D01*
X256772Y429500D01*
D02*
G37*
G36*
X195961Y429000D02*
X195039D01*
X194149Y428761D01*
X193351Y428301D01*
X192699Y427649D01*
X192238Y426851D01*
X192000Y425961D01*
Y425039D01*
X192238Y424149D01*
X192699Y423351D01*
X193351Y422699D01*
X194149Y422238D01*
X195039Y422000D01*
X195961D01*
X196851Y422238D01*
X197649Y422699D01*
X198301Y423351D01*
X198761Y424149D01*
X199000Y425039D01*
Y425961D01*
X198761Y426851D01*
X198301Y427649D01*
X197649Y428301D01*
X196851Y428761D01*
X195961Y429000D01*
D02*
G37*
G36*
X325461Y421500D02*
X324539D01*
X323649Y421262D01*
X322851Y420801D01*
X322199Y420149D01*
X321739Y419351D01*
X321500Y418461D01*
Y417539D01*
X321739Y416649D01*
X322199Y415851D01*
X322851Y415199D01*
X323649Y414739D01*
X324539Y414500D01*
X325461D01*
X326351Y414739D01*
X327149Y415199D01*
X327801Y415851D01*
X328261Y416649D01*
X328500Y417539D01*
Y418461D01*
X328261Y419351D01*
X327801Y420149D01*
X327149Y420801D01*
X326351Y421262D01*
X325461Y421500D01*
D02*
G37*
G36*
X310961D02*
X310039D01*
X309149Y421262D01*
X308351Y420801D01*
X307699Y420149D01*
X307239Y419351D01*
X307000Y418461D01*
Y417539D01*
X307239Y416649D01*
X307699Y415851D01*
X308351Y415199D01*
X309149Y414739D01*
X310039Y414500D01*
X310961D01*
X311851Y414739D01*
X312649Y415199D01*
X313301Y415851D01*
X313761Y416649D01*
X314000Y417539D01*
Y418461D01*
X313761Y419351D01*
X313301Y420149D01*
X312649Y420801D01*
X311851Y421262D01*
X310961Y421500D01*
D02*
G37*
G36*
X444461Y419500D02*
X443539D01*
X442649Y419262D01*
X441851Y418801D01*
X441199Y418149D01*
X440738Y417351D01*
X440500Y416461D01*
Y415539D01*
X440738Y414649D01*
X441199Y413851D01*
X441851Y413199D01*
X442649Y412739D01*
X443539Y412500D01*
X444461D01*
X445351Y412739D01*
X446149Y413199D01*
X446801Y413851D01*
X447261Y414649D01*
X447500Y415539D01*
Y416461D01*
X447261Y417351D01*
X446801Y418149D01*
X446149Y418801D01*
X445351Y419262D01*
X444461Y419500D01*
D02*
G37*
G36*
X310961Y413000D02*
X310039D01*
X309149Y412761D01*
X308351Y412301D01*
X307699Y411649D01*
X307239Y410851D01*
X307000Y409961D01*
Y409039D01*
X307239Y408149D01*
X307699Y407351D01*
X308351Y406699D01*
X309149Y406239D01*
X310039Y406000D01*
X310961D01*
X311851Y406239D01*
X312649Y406699D01*
X313301Y407351D01*
X313761Y408149D01*
X314000Y409039D01*
Y409961D01*
X313761Y410851D01*
X313301Y411649D01*
X312649Y412301D01*
X311851Y412761D01*
X310961Y413000D01*
D02*
G37*
G36*
X325461Y412500D02*
X324539D01*
X323649Y412261D01*
X322851Y411801D01*
X322199Y411149D01*
X321739Y410351D01*
X321500Y409461D01*
Y408539D01*
X321739Y407649D01*
X322199Y406851D01*
X322851Y406199D01*
X323649Y405738D01*
X324539Y405500D01*
X325461D01*
X326351Y405738D01*
X327149Y406199D01*
X327801Y406851D01*
X328261Y407649D01*
X328500Y408539D01*
Y409461D01*
X328261Y410351D01*
X327801Y411149D01*
X327149Y411801D01*
X326351Y412261D01*
X325461Y412500D01*
D02*
G37*
G36*
X501961Y412000D02*
X501039D01*
X500149Y411762D01*
X499351Y411301D01*
X498699Y410649D01*
X498239Y409851D01*
X498000Y408961D01*
Y408039D01*
X498239Y407149D01*
X498699Y406351D01*
X499351Y405699D01*
X500149Y405238D01*
X501039Y405000D01*
X501961D01*
X502851Y405238D01*
X503649Y405699D01*
X504301Y406351D01*
X504762Y407149D01*
X505000Y408039D01*
Y408961D01*
X504762Y409851D01*
X504301Y410649D01*
X503649Y411301D01*
X502851Y411762D01*
X501961Y412000D01*
D02*
G37*
G36*
X126137Y410963D02*
X126000D01*
Y405000D01*
X131963D01*
Y405136D01*
X131714Y406385D01*
X131227Y407561D01*
X130520Y408620D01*
X129620Y409520D01*
X128561Y410227D01*
X127385Y410714D01*
X126137Y410963D01*
D02*
G37*
G36*
X125000D02*
X124864D01*
X123615Y410714D01*
X122439Y410227D01*
X121380Y409520D01*
X120480Y408620D01*
X119773Y407561D01*
X119286Y406385D01*
X119037Y405136D01*
Y405000D01*
X125000D01*
Y410963D01*
D02*
G37*
G36*
X520961Y411500D02*
X520039D01*
X519149Y411262D01*
X518351Y410801D01*
X517699Y410149D01*
X517239Y409351D01*
X517000Y408461D01*
Y407539D01*
X517239Y406649D01*
X517699Y405851D01*
X518351Y405199D01*
X519149Y404739D01*
X520039Y404500D01*
X520961D01*
X521851Y404739D01*
X522649Y405199D01*
X523301Y405851D01*
X523762Y406649D01*
X524000Y407539D01*
Y408461D01*
X523762Y409351D01*
X523301Y410149D01*
X522649Y410801D01*
X521851Y411262D01*
X520961Y411500D01*
D02*
G37*
G36*
X163144Y410963D02*
X161871D01*
X160623Y410714D01*
X159447Y410227D01*
X158388Y409520D01*
X157488Y408620D01*
X156781Y407561D01*
X156294Y406385D01*
X156045Y405136D01*
Y403863D01*
X156294Y402615D01*
X156781Y401439D01*
X157488Y400380D01*
X158388Y399480D01*
X159447Y398773D01*
X160623Y398286D01*
X161871Y398037D01*
X163144D01*
X164393Y398286D01*
X165569Y398773D01*
X166628Y399480D01*
X167528Y400380D01*
X168235Y401439D01*
X168722Y402615D01*
X168970Y403863D01*
Y405136D01*
X168722Y406385D01*
X168235Y407561D01*
X167528Y408620D01*
X166628Y409520D01*
X165569Y410227D01*
X164393Y410714D01*
X163144Y410963D01*
D02*
G37*
G36*
X144641D02*
X143368D01*
X142119Y410714D01*
X140943Y410227D01*
X139884Y409520D01*
X138984Y408620D01*
X138277Y407561D01*
X137790Y406385D01*
X137541Y405136D01*
Y403863D01*
X137790Y402615D01*
X138277Y401439D01*
X138984Y400380D01*
X139884Y399480D01*
X140943Y398773D01*
X142119Y398286D01*
X143368Y398037D01*
X144641D01*
X145889Y398286D01*
X147065Y398773D01*
X148124Y399480D01*
X149024Y400380D01*
X149731Y401439D01*
X150218Y402615D01*
X150467Y403863D01*
Y405136D01*
X150218Y406385D01*
X149731Y407561D01*
X149024Y408620D01*
X148124Y409520D01*
X147065Y410227D01*
X145889Y410714D01*
X144641Y410963D01*
D02*
G37*
G36*
X131963Y404000D02*
X126000D01*
Y398037D01*
X126137D01*
X127385Y398286D01*
X128561Y398773D01*
X129620Y399480D01*
X130520Y400380D01*
X131227Y401439D01*
X131714Y402615D01*
X131963Y403863D01*
Y404000D01*
D02*
G37*
G36*
X125000D02*
X119037D01*
Y403863D01*
X119286Y402615D01*
X119773Y401439D01*
X120480Y400380D01*
X121380Y399480D01*
X122439Y398773D01*
X123615Y398286D01*
X124864Y398037D01*
X125000D01*
Y404000D01*
D02*
G37*
G36*
X310961Y404500D02*
X310039D01*
X309149Y404261D01*
X308351Y403801D01*
X307699Y403149D01*
X307239Y402351D01*
X307000Y401461D01*
Y400539D01*
X307239Y399649D01*
X307699Y398851D01*
X308351Y398199D01*
X309149Y397739D01*
X310039Y397500D01*
X310961D01*
X311851Y397739D01*
X312649Y398199D01*
X313301Y398851D01*
X313761Y399649D01*
X314000Y400539D01*
Y401461D01*
X313761Y402351D01*
X313301Y403149D01*
X312649Y403801D01*
X311851Y404261D01*
X310961Y404500D01*
D02*
G37*
G36*
X501961Y403000D02*
X501039D01*
X500149Y402762D01*
X499351Y402301D01*
X498699Y401649D01*
X498239Y400851D01*
X498000Y399961D01*
Y399039D01*
X498239Y398149D01*
X498699Y397351D01*
X499351Y396699D01*
X500149Y396238D01*
X501039Y396000D01*
X501961D01*
X502851Y396238D01*
X503649Y396699D01*
X504301Y397351D01*
X504762Y398149D01*
X505000Y399039D01*
Y399961D01*
X504762Y400851D01*
X504301Y401649D01*
X503649Y402301D01*
X502851Y402762D01*
X501961Y403000D01*
D02*
G37*
G36*
X520961Y402500D02*
X520039D01*
X519149Y402261D01*
X518351Y401801D01*
X517699Y401149D01*
X517239Y400351D01*
X517000Y399461D01*
Y398539D01*
X517239Y397649D01*
X517699Y396851D01*
X518351Y396199D01*
X519149Y395739D01*
X520039Y395500D01*
X520961D01*
X521851Y395739D01*
X522649Y396199D01*
X523301Y396851D01*
X523762Y397649D01*
X524000Y398539D01*
Y399461D01*
X523762Y400351D01*
X523301Y401149D01*
X522649Y401801D01*
X521851Y402261D01*
X520961Y402500D01*
D02*
G37*
G36*
X198461Y396500D02*
X197539D01*
X196649Y396262D01*
X195851Y395801D01*
X195199Y395149D01*
X194738Y394351D01*
X194500Y393461D01*
Y392539D01*
X194738Y391649D01*
X195199Y390851D01*
X195851Y390199D01*
X196649Y389738D01*
X197539Y389500D01*
X198461D01*
X199351Y389738D01*
X200149Y390199D01*
X200801Y390851D01*
X201261Y391649D01*
X201500Y392539D01*
Y393461D01*
X201261Y394351D01*
X200801Y395149D01*
X200149Y395801D01*
X199351Y396262D01*
X198461Y396500D01*
D02*
G37*
G36*
X520961Y394000D02*
X520039D01*
X519149Y393761D01*
X518351Y393301D01*
X517699Y392649D01*
X517239Y391851D01*
X517000Y390961D01*
Y390039D01*
X517239Y389149D01*
X517699Y388351D01*
X518351Y387699D01*
X519149Y387239D01*
X520039Y387000D01*
X520961D01*
X521851Y387239D01*
X522649Y387699D01*
X523301Y388351D01*
X523762Y389149D01*
X524000Y390039D01*
Y390961D01*
X523762Y391851D01*
X523301Y392649D01*
X522649Y393301D01*
X521851Y393761D01*
X520961Y394000D01*
D02*
G37*
G36*
X501961D02*
X501039D01*
X500149Y393761D01*
X499351Y393301D01*
X498699Y392649D01*
X498239Y391851D01*
X498000Y390961D01*
Y390039D01*
X498239Y389149D01*
X498699Y388351D01*
X499351Y387699D01*
X500149Y387239D01*
X501039Y387000D01*
X501961D01*
X502851Y387239D01*
X503649Y387699D01*
X504301Y388351D01*
X504762Y389149D01*
X505000Y390039D01*
Y390961D01*
X504762Y391851D01*
X504301Y392649D01*
X503649Y393301D01*
X502851Y393761D01*
X501961Y394000D01*
D02*
G37*
G36*
X538961Y378000D02*
X538039D01*
X537149Y377762D01*
X536351Y377301D01*
X535699Y376649D01*
X535239Y375851D01*
X535000Y374961D01*
Y374039D01*
X535239Y373149D01*
X535699Y372351D01*
X536351Y371699D01*
X537149Y371238D01*
X538039Y371000D01*
X538961D01*
X539851Y371238D01*
X540649Y371699D01*
X541301Y372351D01*
X541761Y373149D01*
X542000Y374039D01*
Y374961D01*
X541761Y375851D01*
X541301Y376649D01*
X540649Y377301D01*
X539851Y377762D01*
X538961Y378000D01*
D02*
G37*
G36*
X232461Y372000D02*
X231539D01*
X230649Y371761D01*
X229851Y371301D01*
X229199Y370649D01*
X228738Y369851D01*
X228500Y368961D01*
Y368039D01*
X228738Y367149D01*
X229199Y366351D01*
X229851Y365699D01*
X230649Y365238D01*
X231539Y365000D01*
X232461D01*
X233351Y365238D01*
X234149Y365699D01*
X234801Y366351D01*
X235262Y367149D01*
X235500Y368039D01*
Y368961D01*
X235262Y369851D01*
X234801Y370649D01*
X234149Y371301D01*
X233351Y371761D01*
X232461Y372000D01*
D02*
G37*
G36*
X352961Y360500D02*
X352039D01*
X351149Y360262D01*
X350351Y359801D01*
X349699Y359149D01*
X349238Y358351D01*
X349000Y357461D01*
Y356539D01*
X349238Y355649D01*
X349699Y354851D01*
X350351Y354199D01*
X351149Y353738D01*
X352039Y353500D01*
X352961D01*
X353851Y353738D01*
X354649Y354199D01*
X355301Y354851D01*
X355762Y355649D01*
X356000Y356539D01*
Y357461D01*
X355762Y358351D01*
X355301Y359149D01*
X354649Y359801D01*
X353851Y360262D01*
X352961Y360500D01*
D02*
G37*
G36*
X316461D02*
X315539D01*
X314649Y360262D01*
X313851Y359801D01*
X313199Y359149D01*
X312738Y358351D01*
X312500Y357461D01*
Y356539D01*
X312738Y355649D01*
X313199Y354851D01*
X313851Y354199D01*
X314649Y353738D01*
X315539Y353500D01*
X316461D01*
X317351Y353738D01*
X318149Y354199D01*
X318801Y354851D01*
X319262Y355649D01*
X319500Y356539D01*
Y357461D01*
X319262Y358351D01*
X318801Y359149D01*
X318149Y359801D01*
X317351Y360262D01*
X316461Y360500D01*
D02*
G37*
G36*
X335961Y360000D02*
X335039D01*
X334149Y359762D01*
X333351Y359301D01*
X332699Y358649D01*
X332239Y357851D01*
X332000Y356961D01*
Y356039D01*
X332239Y355149D01*
X332699Y354351D01*
X333351Y353699D01*
X334149Y353239D01*
X335039Y353000D01*
X335961D01*
X336851Y353239D01*
X337649Y353699D01*
X338301Y354351D01*
X338761Y355149D01*
X339000Y356039D01*
Y356961D01*
X338761Y357851D01*
X338301Y358649D01*
X337649Y359301D01*
X336851Y359762D01*
X335961Y360000D01*
D02*
G37*
G36*
X122961Y358500D02*
X122039D01*
X121149Y358261D01*
X120351Y357801D01*
X119699Y357149D01*
X119238Y356351D01*
X119000Y355461D01*
Y354539D01*
X119238Y353649D01*
X119699Y352851D01*
X120351Y352199D01*
X121149Y351739D01*
X122039Y351500D01*
X122961D01*
X123851Y351739D01*
X124649Y352199D01*
X125301Y352851D01*
X125761Y353649D01*
X126000Y354539D01*
Y355461D01*
X125761Y356351D01*
X125301Y357149D01*
X124649Y357801D01*
X123851Y358261D01*
X122961Y358500D01*
D02*
G37*
G36*
X293961Y355500D02*
X293039D01*
X292149Y355261D01*
X291351Y354801D01*
X290699Y354149D01*
X290238Y353351D01*
X290000Y352461D01*
Y351539D01*
X290238Y350649D01*
X290699Y349851D01*
X291351Y349199D01*
X292149Y348739D01*
X293039Y348500D01*
X293961D01*
X294851Y348739D01*
X295649Y349199D01*
X296301Y349851D01*
X296761Y350649D01*
X297000Y351539D01*
Y352461D01*
X296761Y353351D01*
X296301Y354149D01*
X295649Y354801D01*
X294851Y355261D01*
X293961Y355500D01*
D02*
G37*
G36*
X490461Y352500D02*
X489539D01*
X488649Y352261D01*
X487851Y351801D01*
X487199Y351149D01*
X486738Y350351D01*
X486500Y349461D01*
Y348539D01*
X486738Y347649D01*
X487199Y346851D01*
X487851Y346199D01*
X488649Y345739D01*
X489539Y345500D01*
X490461D01*
X491351Y345739D01*
X492149Y346199D01*
X492801Y346851D01*
X493261Y347649D01*
X493500Y348539D01*
Y349461D01*
X493261Y350351D01*
X492801Y351149D01*
X492149Y351801D01*
X491351Y352261D01*
X490461Y352500D01*
D02*
G37*
G36*
X245035Y352426D02*
X244113D01*
X243223Y352187D01*
X242425Y351727D01*
X241773Y351075D01*
X241313Y350277D01*
X241074Y349387D01*
Y348465D01*
X241313Y347575D01*
X241773Y346777D01*
X242425Y346125D01*
X243223Y345665D01*
X244113Y345426D01*
X245035D01*
X245925Y345665D01*
X246723Y346125D01*
X247375Y346777D01*
X247835Y347575D01*
X248074Y348465D01*
Y349387D01*
X247835Y350277D01*
X247375Y351075D01*
X246723Y351727D01*
X245925Y352187D01*
X245035Y352426D01*
D02*
G37*
G36*
X543461Y351500D02*
X542539D01*
X541649Y351261D01*
X540851Y350801D01*
X540199Y350149D01*
X539739Y349351D01*
X539500Y348461D01*
Y347539D01*
X539739Y346649D01*
X540199Y345851D01*
X540851Y345199D01*
X541649Y344739D01*
X542539Y344500D01*
X543461D01*
X544351Y344739D01*
X545149Y345199D01*
X545801Y345851D01*
X546262Y346649D01*
X546500Y347539D01*
Y348461D01*
X546262Y349351D01*
X545801Y350149D01*
X545149Y350801D01*
X544351Y351261D01*
X543461Y351500D01*
D02*
G37*
G36*
X513961Y347000D02*
X513039D01*
X512149Y346761D01*
X511351Y346301D01*
X510699Y345649D01*
X510239Y344851D01*
X510000Y343961D01*
Y343039D01*
X510239Y342149D01*
X510699Y341351D01*
X511351Y340699D01*
X512149Y340238D01*
X513039Y340000D01*
X513961D01*
X514851Y340238D01*
X515649Y340699D01*
X516301Y341351D01*
X516761Y342149D01*
X517000Y343039D01*
Y343961D01*
X516761Y344851D01*
X516301Y345649D01*
X515649Y346301D01*
X514851Y346761D01*
X513961Y347000D01*
D02*
G37*
G36*
X328961Y346500D02*
X328039D01*
X327149Y346262D01*
X326351Y345801D01*
X325699Y345149D01*
X325238Y344351D01*
X325000Y343461D01*
Y342539D01*
X325238Y341649D01*
X325699Y340851D01*
X326351Y340199D01*
X327149Y339738D01*
X328039Y339500D01*
X328961D01*
X329851Y339738D01*
X330649Y340199D01*
X331301Y340851D01*
X331762Y341649D01*
X332000Y342539D01*
Y343461D01*
X331762Y344351D01*
X331301Y345149D01*
X330649Y345801D01*
X329851Y346262D01*
X328961Y346500D01*
D02*
G37*
G36*
X284461Y342500D02*
X283539D01*
X282649Y342262D01*
X281851Y341801D01*
X281199Y341149D01*
X280738Y340351D01*
X280500Y339461D01*
Y338539D01*
X280738Y337649D01*
X281199Y336851D01*
X281851Y336199D01*
X282649Y335738D01*
X283539Y335500D01*
X284461D01*
X285351Y335738D01*
X286149Y336199D01*
X286801Y336851D01*
X287262Y337649D01*
X287500Y338539D01*
Y339461D01*
X287262Y340351D01*
X286801Y341149D01*
X286149Y341801D01*
X285351Y342262D01*
X284461Y342500D01*
D02*
G37*
G36*
X132461Y340500D02*
X131539D01*
X130649Y340262D01*
X129851Y339801D01*
X129199Y339149D01*
X128738Y338351D01*
X128500Y337461D01*
Y336539D01*
X128738Y335649D01*
X129199Y334851D01*
X129851Y334199D01*
X130649Y333738D01*
X131539Y333500D01*
X132461D01*
X133351Y333738D01*
X134149Y334199D01*
X134801Y334851D01*
X135261Y335649D01*
X135500Y336539D01*
Y337461D01*
X135261Y338351D01*
X134801Y339149D01*
X134149Y339801D01*
X133351Y340262D01*
X132461Y340500D01*
D02*
G37*
G36*
X541461Y337500D02*
X540539D01*
X539649Y337262D01*
X538851Y336801D01*
X538199Y336149D01*
X537739Y335351D01*
X537500Y334461D01*
Y333539D01*
X537739Y332649D01*
X538199Y331851D01*
X538851Y331199D01*
X539649Y330738D01*
X540539Y330500D01*
X541461D01*
X542351Y330738D01*
X543149Y331199D01*
X543801Y331851D01*
X544262Y332649D01*
X544500Y333539D01*
Y334461D01*
X544262Y335351D01*
X543801Y336149D01*
X543149Y336801D01*
X542351Y337262D01*
X541461Y337500D01*
D02*
G37*
G36*
X203961Y337000D02*
X203039D01*
X202149Y336761D01*
X201351Y336301D01*
X200699Y335649D01*
X200238Y334851D01*
X200000Y333961D01*
Y333039D01*
X200238Y332149D01*
X200699Y331351D01*
X201351Y330699D01*
X202149Y330239D01*
X203039Y330000D01*
X203961D01*
X204851Y330239D01*
X205649Y330699D01*
X206301Y331351D01*
X206762Y332149D01*
X207000Y333039D01*
Y333961D01*
X206762Y334851D01*
X206301Y335649D01*
X205649Y336301D01*
X204851Y336761D01*
X203961Y337000D01*
D02*
G37*
G36*
X139961Y336000D02*
X139039D01*
X138149Y335761D01*
X137351Y335301D01*
X136699Y334649D01*
X136239Y333851D01*
X136000Y332961D01*
Y332039D01*
X136239Y331149D01*
X136699Y330351D01*
X137351Y329699D01*
X138149Y329239D01*
X139039Y329000D01*
X139961D01*
X140851Y329239D01*
X141649Y329699D01*
X142301Y330351D01*
X142762Y331149D01*
X143000Y332039D01*
Y332961D01*
X142762Y333851D01*
X142301Y334649D01*
X141649Y335301D01*
X140851Y335761D01*
X139961Y336000D01*
D02*
G37*
G36*
X487961Y333500D02*
X487039D01*
X486149Y333261D01*
X485351Y332801D01*
X484699Y332149D01*
X484238Y331351D01*
X484000Y330461D01*
Y329539D01*
X484238Y328649D01*
X484699Y327851D01*
X485351Y327199D01*
X486149Y326739D01*
X487039Y326500D01*
X487961D01*
X488851Y326739D01*
X489649Y327199D01*
X490301Y327851D01*
X490762Y328649D01*
X491000Y329539D01*
Y330461D01*
X490762Y331351D01*
X490301Y332149D01*
X489649Y332801D01*
X488851Y333261D01*
X487961Y333500D01*
D02*
G37*
G36*
X318961D02*
X318039D01*
X317149Y333261D01*
X316351Y332801D01*
X315699Y332149D01*
X315238Y331351D01*
X315000Y330461D01*
Y329539D01*
X315238Y328649D01*
X315699Y327851D01*
X316351Y327199D01*
X317149Y326739D01*
X318039Y326500D01*
X318961D01*
X319851Y326739D01*
X320649Y327199D01*
X321301Y327851D01*
X321761Y328649D01*
X322000Y329539D01*
Y330461D01*
X321761Y331351D01*
X321301Y332149D01*
X320649Y332801D01*
X319851Y333261D01*
X318961Y333500D01*
D02*
G37*
G36*
X146461Y330500D02*
X145539D01*
X144649Y330261D01*
X143851Y329801D01*
X143199Y329149D01*
X142738Y328351D01*
X142500Y327461D01*
Y326539D01*
X142738Y325649D01*
X143199Y324851D01*
X143851Y324199D01*
X144649Y323739D01*
X145539Y323500D01*
X146461D01*
X147351Y323739D01*
X148149Y324199D01*
X148801Y324851D01*
X149261Y325649D01*
X149500Y326539D01*
Y327461D01*
X149261Y328351D01*
X148801Y329149D01*
X148149Y329801D01*
X147351Y330261D01*
X146461Y330500D01*
D02*
G37*
G36*
X596961Y329000D02*
X596039D01*
X595149Y328762D01*
X594351Y328301D01*
X593699Y327649D01*
X593238Y326851D01*
X593000Y325961D01*
Y325039D01*
X593238Y324149D01*
X593699Y323351D01*
X594351Y322699D01*
X595149Y322238D01*
X596039Y322000D01*
X596961D01*
X597851Y322238D01*
X598649Y322699D01*
X599301Y323351D01*
X599761Y324149D01*
X600000Y325039D01*
Y325961D01*
X599761Y326851D01*
X599301Y327649D01*
X598649Y328301D01*
X597851Y328762D01*
X596961Y329000D01*
D02*
G37*
G36*
X586461Y328500D02*
X585539D01*
X584649Y328261D01*
X583851Y327801D01*
X583199Y327149D01*
X582738Y326351D01*
X582500Y325461D01*
Y324539D01*
X582738Y323649D01*
X583199Y322851D01*
X583851Y322199D01*
X584649Y321739D01*
X585539Y321500D01*
X586461D01*
X587351Y321739D01*
X588149Y322199D01*
X588801Y322851D01*
X589261Y323649D01*
X589500Y324539D01*
Y325461D01*
X589261Y326351D01*
X588801Y327149D01*
X588149Y327801D01*
X587351Y328261D01*
X586461Y328500D01*
D02*
G37*
G36*
X218461Y328000D02*
X217539D01*
X216649Y327762D01*
X215851Y327301D01*
X215199Y326649D01*
X214738Y325851D01*
X214500Y324961D01*
Y324039D01*
X214738Y323149D01*
X215199Y322351D01*
X215851Y321699D01*
X216649Y321238D01*
X217539Y321000D01*
X218461D01*
X219351Y321238D01*
X220149Y321699D01*
X220801Y322351D01*
X221262Y323149D01*
X221500Y324039D01*
Y324961D01*
X221262Y325851D01*
X220801Y326649D01*
X220149Y327301D01*
X219351Y327762D01*
X218461Y328000D01*
D02*
G37*
G36*
X577961Y325500D02*
X577039D01*
X576149Y325261D01*
X575351Y324801D01*
X574699Y324149D01*
X574238Y323351D01*
X574000Y322461D01*
Y321539D01*
X574238Y320649D01*
X574699Y319851D01*
X575351Y319199D01*
X576149Y318739D01*
X577039Y318500D01*
X577961D01*
X578851Y318739D01*
X579649Y319199D01*
X580301Y319851D01*
X580761Y320649D01*
X581000Y321539D01*
Y322461D01*
X580761Y323351D01*
X580301Y324149D01*
X579649Y324801D01*
X578851Y325261D01*
X577961Y325500D01*
D02*
G37*
G36*
X247961Y325000D02*
X247039D01*
X246149Y324762D01*
X245351Y324301D01*
X244699Y323649D01*
X244238Y322851D01*
X244000Y321961D01*
Y321039D01*
X244238Y320149D01*
X244699Y319351D01*
X245351Y318699D01*
X246149Y318238D01*
X247039Y318000D01*
X247961D01*
X248851Y318238D01*
X249649Y318699D01*
X250301Y319351D01*
X250762Y320149D01*
X251000Y321039D01*
Y321961D01*
X250762Y322851D01*
X250301Y323649D01*
X249649Y324301D01*
X248851Y324762D01*
X247961Y325000D01*
D02*
G37*
G36*
X225461Y323000D02*
X224539D01*
X223649Y322762D01*
X222851Y322301D01*
X222199Y321649D01*
X221739Y320851D01*
X221500Y319961D01*
Y319039D01*
X221739Y318149D01*
X222199Y317351D01*
X222851Y316699D01*
X223649Y316238D01*
X224539Y316000D01*
X225461D01*
X226351Y316238D01*
X227149Y316699D01*
X227801Y317351D01*
X228261Y318149D01*
X228500Y319039D01*
Y319961D01*
X228261Y320851D01*
X227801Y321649D01*
X227149Y322301D01*
X226351Y322762D01*
X225461Y323000D01*
D02*
G37*
G36*
X145948Y321406D02*
X145052D01*
X144185Y321173D01*
X143409Y320725D01*
X142775Y320091D01*
X142327Y319315D01*
X142095Y318448D01*
Y317552D01*
X142327Y316686D01*
X142775Y315909D01*
X143409Y315275D01*
X144185Y314827D01*
X145052Y314595D01*
X145948D01*
X146815Y314827D01*
X147591Y315275D01*
X148225Y315909D01*
X148673Y316686D01*
X148906Y317552D01*
Y318448D01*
X148673Y319315D01*
X148225Y320091D01*
X147591Y320725D01*
X146815Y321173D01*
X145948Y321406D01*
D02*
G37*
G36*
X114688D02*
X113792D01*
X113116Y321224D01*
X111016D01*
Y319124D01*
X110835Y318448D01*
Y317552D01*
X111016Y316876D01*
Y314776D01*
X113116D01*
X113792Y314595D01*
X114688D01*
X115364Y314776D01*
X117464D01*
Y316876D01*
X117646Y317552D01*
Y318448D01*
X117464Y319124D01*
Y321224D01*
X115364D01*
X114688Y321406D01*
D02*
G37*
G36*
X515461Y321500D02*
X514539D01*
X513649Y321262D01*
X512851Y320801D01*
X512199Y320149D01*
X511738Y319351D01*
X511500Y318461D01*
Y317539D01*
X511738Y316649D01*
X512199Y315851D01*
X512851Y315199D01*
X513649Y314738D01*
X514539Y314500D01*
X515461D01*
X516351Y314738D01*
X517149Y315199D01*
X517801Y315851D01*
X518261Y316649D01*
X518500Y317539D01*
Y318461D01*
X518261Y319351D01*
X517801Y320149D01*
X517149Y320801D01*
X516351Y321262D01*
X515461Y321500D01*
D02*
G37*
G36*
X368461Y321000D02*
X367539D01*
X366649Y320761D01*
X365851Y320301D01*
X365199Y319649D01*
X364738Y318851D01*
X364500Y317961D01*
Y317039D01*
X364738Y316149D01*
X365199Y315351D01*
X365851Y314699D01*
X366649Y314239D01*
X367539Y314000D01*
X368461D01*
X369351Y314239D01*
X370149Y314699D01*
X370801Y315351D01*
X371262Y316149D01*
X371500Y317039D01*
Y317961D01*
X371262Y318851D01*
X370801Y319649D01*
X370149Y320301D01*
X369351Y320761D01*
X368461Y321000D01*
D02*
G37*
G36*
X219461Y317000D02*
X218539D01*
X217649Y316761D01*
X216851Y316301D01*
X216199Y315649D01*
X215739Y314851D01*
X215500Y313961D01*
Y313039D01*
X215739Y312149D01*
X216199Y311351D01*
X216851Y310699D01*
X217649Y310239D01*
X218539Y310000D01*
X219461D01*
X220351Y310239D01*
X221149Y310699D01*
X221801Y311351D01*
X222262Y312149D01*
X222500Y313039D01*
Y313961D01*
X222262Y314851D01*
X221801Y315649D01*
X221149Y316301D01*
X220351Y316761D01*
X219461Y317000D01*
D02*
G37*
G36*
X632048Y312092D02*
X632000D01*
Y308433D01*
X635660D01*
Y308481D01*
X635376Y309539D01*
X634828Y310487D01*
X634054Y311261D01*
X633106Y311809D01*
X632048Y312092D01*
D02*
G37*
G36*
X631000D02*
X630952D01*
X629894Y311809D01*
X628946Y311261D01*
X628172Y310487D01*
X627624Y309539D01*
X627341Y308481D01*
Y308433D01*
X631000D01*
Y312092D01*
D02*
G37*
G36*
X574461Y314000D02*
X573539D01*
X572649Y313761D01*
X571851Y313301D01*
X571199Y312649D01*
X570739Y311851D01*
X570500Y310961D01*
Y310039D01*
X570739Y309149D01*
X571199Y308351D01*
X571851Y307699D01*
X572649Y307239D01*
X573539Y307000D01*
X574461D01*
X575351Y307239D01*
X576149Y307699D01*
X576801Y308351D01*
X577261Y309149D01*
X577500Y310039D01*
Y310961D01*
X577261Y311851D01*
X576801Y312649D01*
X576149Y313301D01*
X575351Y313761D01*
X574461Y314000D01*
D02*
G37*
G36*
X145948Y311405D02*
X145052D01*
X144185Y311173D01*
X143409Y310725D01*
X142775Y310091D01*
X142327Y309314D01*
X142095Y308448D01*
Y307552D01*
X142327Y306685D01*
X142775Y305909D01*
X143409Y305275D01*
X144185Y304827D01*
X145052Y304594D01*
X145948D01*
X146815Y304827D01*
X147591Y305275D01*
X148225Y305909D01*
X148673Y306685D01*
X148906Y307552D01*
Y308448D01*
X148673Y309314D01*
X148225Y310091D01*
X147591Y310725D01*
X146815Y311173D01*
X145948Y311405D01*
D02*
G37*
G36*
X114688D02*
X113792D01*
X112926Y311173D01*
X112149Y310725D01*
X111515Y310091D01*
X111067Y309314D01*
X110835Y308448D01*
Y307552D01*
X111067Y306685D01*
X111515Y305909D01*
X112149Y305275D01*
X112926Y304827D01*
X113792Y304594D01*
X114688D01*
X115554Y304827D01*
X116331Y305275D01*
X116965Y305909D01*
X117413Y306685D01*
X117646Y307552D01*
Y308448D01*
X117413Y309314D01*
X116965Y310091D01*
X116331Y310725D01*
X115554Y311173D01*
X114688Y311405D01*
D02*
G37*
G36*
X635660Y307433D02*
X632000D01*
Y303773D01*
X632048D01*
X633106Y304057D01*
X634054Y304605D01*
X634828Y305379D01*
X635376Y306328D01*
X635660Y307385D01*
Y307433D01*
D02*
G37*
G36*
X631000D02*
X627341D01*
Y307385D01*
X627624Y306328D01*
X628172Y305379D01*
X628946Y304605D01*
X629894Y304057D01*
X630952Y303773D01*
X631000D01*
Y307433D01*
D02*
G37*
G36*
X620237Y312092D02*
X619141D01*
X618083Y311809D01*
X617135Y311261D01*
X616361Y310487D01*
X615813Y309539D01*
X615530Y308481D01*
Y307385D01*
X615813Y306328D01*
X616361Y305379D01*
X617135Y304605D01*
X618083Y304057D01*
X619141Y303773D01*
X620237D01*
X621294Y304057D01*
X622243Y304605D01*
X623017Y305379D01*
X623565Y306328D01*
X623848Y307385D01*
Y308481D01*
X623565Y309539D01*
X623017Y310487D01*
X622243Y311261D01*
X621294Y311809D01*
X620237Y312092D01*
D02*
G37*
G36*
X320461Y310500D02*
X319539D01*
X318649Y310262D01*
X317851Y309801D01*
X317199Y309149D01*
X316739Y308351D01*
X316500Y307461D01*
Y306539D01*
X316739Y305649D01*
X317199Y304851D01*
X317851Y304199D01*
X318649Y303738D01*
X319539Y303500D01*
X320461D01*
X321351Y303738D01*
X322149Y304199D01*
X322801Y304851D01*
X323261Y305649D01*
X323500Y306539D01*
Y307461D01*
X323261Y308351D01*
X322801Y309149D01*
X322149Y309801D01*
X321351Y310262D01*
X320461Y310500D01*
D02*
G37*
G36*
X363961Y308000D02*
X363039D01*
X362149Y307762D01*
X361351Y307301D01*
X360699Y306649D01*
X360239Y305851D01*
X360000Y304961D01*
Y304039D01*
X360239Y303149D01*
X360699Y302351D01*
X361351Y301699D01*
X362149Y301238D01*
X363039Y301000D01*
X363961D01*
X364851Y301238D01*
X365649Y301699D01*
X366301Y302351D01*
X366761Y303149D01*
X367000Y304039D01*
Y304961D01*
X366761Y305851D01*
X366301Y306649D01*
X365649Y307301D01*
X364851Y307762D01*
X363961Y308000D01*
D02*
G37*
G36*
X489961Y306500D02*
X489039D01*
X488149Y306261D01*
X487351Y305801D01*
X486699Y305149D01*
X486238Y304351D01*
X486000Y303461D01*
Y302539D01*
X486238Y301649D01*
X486699Y300851D01*
X487351Y300199D01*
X488149Y299739D01*
X489039Y299500D01*
X489961D01*
X490851Y299739D01*
X491649Y300199D01*
X492301Y300851D01*
X492762Y301649D01*
X493000Y302539D01*
Y303461D01*
X492762Y304351D01*
X492301Y305149D01*
X491649Y305801D01*
X490851Y306261D01*
X489961Y306500D01*
D02*
G37*
G36*
X297461D02*
X296539D01*
X295649Y306261D01*
X294851Y305801D01*
X294199Y305149D01*
X293739Y304351D01*
X293500Y303461D01*
Y302539D01*
X293739Y301649D01*
X294199Y300851D01*
X294851Y300199D01*
X295649Y299739D01*
X296539Y299500D01*
X297461D01*
X298351Y299739D01*
X299149Y300199D01*
X299801Y300851D01*
X300261Y301649D01*
X300500Y302539D01*
Y303461D01*
X300261Y304351D01*
X299801Y305149D01*
X299149Y305801D01*
X298351Y306261D01*
X297461Y306500D01*
D02*
G37*
G36*
X411461Y304000D02*
X410539D01*
X409649Y303762D01*
X408851Y303301D01*
X408199Y302649D01*
X407738Y301851D01*
X407500Y300961D01*
Y300039D01*
X407738Y299149D01*
X408199Y298351D01*
X408851Y297699D01*
X409649Y297238D01*
X410539Y297000D01*
X411461D01*
X412351Y297238D01*
X413149Y297699D01*
X413801Y298351D01*
X414261Y299149D01*
X414500Y300039D01*
Y300961D01*
X414261Y301851D01*
X413801Y302649D01*
X413149Y303301D01*
X412351Y303762D01*
X411461Y304000D01*
D02*
G37*
G36*
X401961Y303000D02*
X401039D01*
X400149Y302762D01*
X399351Y302301D01*
X398699Y301649D01*
X398238Y300851D01*
X398000Y299961D01*
Y299039D01*
X398238Y298149D01*
X398699Y297351D01*
X399351Y296699D01*
X400149Y296238D01*
X401039Y296000D01*
X401961D01*
X402851Y296238D01*
X403649Y296699D01*
X404301Y297351D01*
X404762Y298149D01*
X405000Y299039D01*
Y299961D01*
X404762Y300851D01*
X404301Y301649D01*
X403649Y302301D01*
X402851Y302762D01*
X401961Y303000D01*
D02*
G37*
G36*
X214961Y302500D02*
X214039D01*
X213149Y302261D01*
X212351Y301801D01*
X211699Y301149D01*
X211239Y300351D01*
X211000Y299461D01*
Y298539D01*
X211239Y297649D01*
X211699Y296851D01*
X212351Y296199D01*
X213149Y295739D01*
X214039Y295500D01*
X214961D01*
X215851Y295739D01*
X216649Y296199D01*
X217301Y296851D01*
X217761Y297649D01*
X218000Y298539D01*
Y299461D01*
X217761Y300351D01*
X217301Y301149D01*
X216649Y301801D01*
X215851Y302261D01*
X214961Y302500D01*
D02*
G37*
G36*
X145948Y301406D02*
X145052D01*
X144185Y301173D01*
X143409Y300725D01*
X142775Y300091D01*
X142327Y299314D01*
X142095Y298448D01*
Y297552D01*
X142327Y296686D01*
X142775Y295909D01*
X143409Y295275D01*
X144185Y294827D01*
X145052Y294595D01*
X145948D01*
X146815Y294827D01*
X147591Y295275D01*
X148225Y295909D01*
X148673Y296686D01*
X148906Y297552D01*
Y298448D01*
X148673Y299314D01*
X148225Y300091D01*
X147591Y300725D01*
X146815Y301173D01*
X145948Y301406D01*
D02*
G37*
G36*
X114688D02*
X113792D01*
X112926Y301173D01*
X112149Y300725D01*
X111515Y300091D01*
X111067Y299314D01*
X110835Y298448D01*
Y297552D01*
X111067Y296686D01*
X111515Y295909D01*
X112149Y295275D01*
X112926Y294827D01*
X113792Y294595D01*
X114688D01*
X115554Y294827D01*
X116331Y295275D01*
X116965Y295909D01*
X117413Y296686D01*
X117646Y297552D01*
Y298448D01*
X117413Y299314D01*
X116965Y300091D01*
X116331Y300725D01*
X115554Y301173D01*
X114688Y301406D01*
D02*
G37*
G36*
X607461Y301500D02*
X606539D01*
X605649Y301261D01*
X604851Y300801D01*
X604199Y300149D01*
X603738Y299351D01*
X603500Y298461D01*
Y297539D01*
X603738Y296649D01*
X604199Y295851D01*
X604851Y295199D01*
X605649Y294739D01*
X606539Y294500D01*
X607461D01*
X608351Y294739D01*
X609149Y295199D01*
X609801Y295851D01*
X610261Y296649D01*
X610500Y297539D01*
Y298461D01*
X610261Y299351D01*
X609801Y300149D01*
X609149Y300801D01*
X608351Y301261D01*
X607461Y301500D01*
D02*
G37*
G36*
X390961Y300000D02*
X390039D01*
X389149Y299762D01*
X388351Y299301D01*
X387699Y298649D01*
X387239Y297851D01*
X387000Y296961D01*
Y296039D01*
X387239Y295149D01*
X387699Y294351D01*
X388351Y293699D01*
X389149Y293238D01*
X390039Y293000D01*
X390961D01*
X391851Y293238D01*
X392649Y293699D01*
X393301Y294351D01*
X393761Y295149D01*
X394000Y296039D01*
Y296961D01*
X393761Y297851D01*
X393301Y298649D01*
X392649Y299301D01*
X391851Y299762D01*
X390961Y300000D01*
D02*
G37*
G36*
X632048Y300281D02*
X630952D01*
X629894Y299998D01*
X628946Y299450D01*
X628172Y298676D01*
X627624Y297727D01*
X627341Y296670D01*
Y295574D01*
X627624Y294516D01*
X628172Y293568D01*
X628946Y292794D01*
X629894Y292246D01*
X630952Y291963D01*
X632048D01*
X633106Y292246D01*
X634054Y292794D01*
X634828Y293568D01*
X635376Y294516D01*
X635660Y295574D01*
Y296670D01*
X635376Y297727D01*
X634828Y298676D01*
X634054Y299450D01*
X633106Y299998D01*
X632048Y300281D01*
D02*
G37*
G36*
X620237D02*
X619141D01*
X618083Y299998D01*
X617135Y299450D01*
X616361Y298676D01*
X615813Y297727D01*
X615530Y296670D01*
Y295574D01*
X615813Y294516D01*
X616361Y293568D01*
X617135Y292794D01*
X618083Y292246D01*
X619141Y291963D01*
X620237D01*
X621294Y292246D01*
X622243Y292794D01*
X623017Y293568D01*
X623565Y294516D01*
X623848Y295574D01*
Y296670D01*
X623565Y297727D01*
X623017Y298676D01*
X622243Y299450D01*
X621294Y299998D01*
X620237Y300281D01*
D02*
G37*
G36*
X355961Y298500D02*
X355039D01*
X354149Y298261D01*
X353351Y297801D01*
X352699Y297149D01*
X352238Y296351D01*
X352000Y295461D01*
Y294539D01*
X352238Y293649D01*
X352699Y292851D01*
X353351Y292199D01*
X354149Y291739D01*
X355039Y291500D01*
X355961D01*
X356851Y291739D01*
X357649Y292199D01*
X358301Y292851D01*
X358762Y293649D01*
X359000Y294539D01*
Y295461D01*
X358762Y296351D01*
X358301Y297149D01*
X357649Y297801D01*
X356851Y298261D01*
X355961Y298500D01*
D02*
G37*
G36*
X649293Y307441D02*
X647723D01*
X646182Y307135D01*
X644731Y306534D01*
X643426Y305661D01*
X642315Y304551D01*
X641443Y303245D01*
X640842Y301794D01*
X640535Y300254D01*
Y298683D01*
X640842Y297143D01*
X641443Y295692D01*
X642315Y294387D01*
X643426Y293276D01*
X644731Y292404D01*
X646182Y291803D01*
X647723Y291496D01*
X649293D01*
X650833Y291803D01*
X652284Y292404D01*
X653590Y293276D01*
X654700Y294387D01*
X655573Y295692D01*
X656174Y297143D01*
X656480Y298683D01*
Y300254D01*
X656174Y301794D01*
X655573Y303245D01*
X654700Y304551D01*
X653590Y305661D01*
X652284Y306534D01*
X650833Y307135D01*
X649293Y307441D01*
D02*
G37*
G36*
X570961Y294500D02*
X570039D01*
X569149Y294262D01*
X568351Y293801D01*
X567699Y293149D01*
X567239Y292351D01*
X567000Y291461D01*
Y290539D01*
X567239Y289649D01*
X567699Y288851D01*
X568351Y288199D01*
X569149Y287738D01*
X570039Y287500D01*
X570961D01*
X571851Y287738D01*
X572649Y288199D01*
X573301Y288851D01*
X573762Y289649D01*
X574000Y290539D01*
Y291461D01*
X573762Y292351D01*
X573301Y293149D01*
X572649Y293801D01*
X571851Y294262D01*
X570961Y294500D01*
D02*
G37*
G36*
X639961Y294000D02*
X639039D01*
X638149Y293761D01*
X637351Y293301D01*
X636699Y292649D01*
X636238Y291851D01*
X636000Y290961D01*
Y290039D01*
X636238Y289149D01*
X636699Y288351D01*
X637351Y287699D01*
X638149Y287239D01*
X639039Y287000D01*
X639961D01*
X640851Y287239D01*
X641649Y287699D01*
X642301Y288351D01*
X642762Y289149D01*
X643000Y290039D01*
Y290961D01*
X642762Y291851D01*
X642301Y292649D01*
X641649Y293301D01*
X640851Y293761D01*
X639961Y294000D01*
D02*
G37*
G36*
X145948Y291406D02*
X145052D01*
X144185Y291173D01*
X143409Y290725D01*
X142775Y290091D01*
X142327Y289315D01*
X142095Y288448D01*
Y287552D01*
X142327Y286685D01*
X142775Y285909D01*
X143409Y285275D01*
X144185Y284827D01*
X145052Y284594D01*
X145948D01*
X146815Y284827D01*
X147591Y285275D01*
X148225Y285909D01*
X148673Y286685D01*
X148906Y287552D01*
Y288448D01*
X148673Y289315D01*
X148225Y290091D01*
X147591Y290725D01*
X146815Y291173D01*
X145948Y291406D01*
D02*
G37*
G36*
X114688D02*
X113792D01*
X112926Y291173D01*
X112149Y290725D01*
X111515Y290091D01*
X111067Y289315D01*
X110835Y288448D01*
Y287552D01*
X111067Y286685D01*
X111515Y285909D01*
X112149Y285275D01*
X112926Y284827D01*
X113792Y284594D01*
X114688D01*
X115554Y284827D01*
X116331Y285275D01*
X116965Y285909D01*
X117413Y286685D01*
X117646Y287552D01*
Y288448D01*
X117413Y289315D01*
X116965Y290091D01*
X116331Y290725D01*
X115554Y291173D01*
X114688Y291406D01*
D02*
G37*
G36*
X522961Y290500D02*
X522039D01*
X521149Y290262D01*
X520351Y289801D01*
X519699Y289149D01*
X519239Y288351D01*
X519000Y287461D01*
Y286539D01*
X519239Y285649D01*
X519699Y284851D01*
X520351Y284199D01*
X521149Y283738D01*
X522039Y283500D01*
X522961D01*
X523851Y283738D01*
X524649Y284199D01*
X525301Y284851D01*
X525762Y285649D01*
X526000Y286539D01*
Y287461D01*
X525762Y288351D01*
X525301Y289149D01*
X524649Y289801D01*
X523851Y290262D01*
X522961Y290500D01*
D02*
G37*
G36*
X632048Y288470D02*
X630952D01*
X629894Y288187D01*
X628946Y287639D01*
X628172Y286865D01*
X627624Y285916D01*
X627341Y284859D01*
Y283763D01*
X627624Y282705D01*
X628172Y281757D01*
X628946Y280983D01*
X629894Y280435D01*
X630952Y280152D01*
X632048D01*
X633106Y280435D01*
X634054Y280983D01*
X634828Y281757D01*
X635376Y282705D01*
X635660Y283763D01*
Y284859D01*
X635376Y285916D01*
X634828Y286865D01*
X634054Y287639D01*
X633106Y288187D01*
X632048Y288470D01*
D02*
G37*
G36*
X620237D02*
X619141D01*
X618083Y288187D01*
X617135Y287639D01*
X616361Y286865D01*
X615813Y285916D01*
X615530Y284859D01*
Y283763D01*
X615813Y282705D01*
X616361Y281757D01*
X617135Y280983D01*
X618083Y280435D01*
X619141Y280152D01*
X620237D01*
X621294Y280435D01*
X622243Y280983D01*
X623017Y281757D01*
X623565Y282705D01*
X623848Y283763D01*
Y284859D01*
X623565Y285916D01*
X623017Y286865D01*
X622243Y287639D01*
X621294Y288187D01*
X620237Y288470D01*
D02*
G37*
G36*
X252961Y284500D02*
X252039D01*
X251149Y284261D01*
X250351Y283801D01*
X249699Y283149D01*
X249238Y282351D01*
X249000Y281461D01*
Y280539D01*
X249238Y279649D01*
X249699Y278851D01*
X250351Y278199D01*
X251149Y277738D01*
X252039Y277500D01*
X252961D01*
X253851Y277738D01*
X254649Y278199D01*
X255301Y278851D01*
X255762Y279649D01*
X256000Y280539D01*
Y281461D01*
X255762Y282351D01*
X255301Y283149D01*
X254649Y283801D01*
X253851Y284261D01*
X252961Y284500D01*
D02*
G37*
G36*
X603961Y283000D02*
X603039D01*
X602149Y282762D01*
X601351Y282301D01*
X600699Y281649D01*
X600239Y280851D01*
X600000Y279961D01*
Y279039D01*
X600239Y278149D01*
X600699Y277351D01*
X601351Y276699D01*
X602149Y276238D01*
X603039Y276000D01*
X603961D01*
X604851Y276238D01*
X605649Y276699D01*
X606301Y277351D01*
X606762Y278149D01*
X607000Y279039D01*
Y279961D01*
X606762Y280851D01*
X606301Y281649D01*
X605649Y282301D01*
X604851Y282762D01*
X603961Y283000D01*
D02*
G37*
G36*
X145948Y281405D02*
X145052D01*
X144185Y281173D01*
X143409Y280725D01*
X142775Y280091D01*
X142327Y279314D01*
X142095Y278448D01*
Y277552D01*
X142327Y276686D01*
X142775Y275909D01*
X143409Y275275D01*
X144185Y274827D01*
X145052Y274594D01*
X145948D01*
X146815Y274827D01*
X147591Y275275D01*
X148225Y275909D01*
X148673Y276686D01*
X148906Y277552D01*
Y278448D01*
X148673Y279314D01*
X148225Y280091D01*
X147591Y280725D01*
X146815Y281173D01*
X145948Y281405D01*
D02*
G37*
G36*
X114688D02*
X113792D01*
X112926Y281173D01*
X112149Y280725D01*
X111515Y280091D01*
X111067Y279314D01*
X110835Y278448D01*
Y277552D01*
X111067Y276686D01*
X111515Y275909D01*
X112149Y275275D01*
X112926Y274827D01*
X113792Y274594D01*
X114688D01*
X115554Y274827D01*
X116331Y275275D01*
X116965Y275909D01*
X117413Y276686D01*
X117646Y277552D01*
Y278448D01*
X117413Y279314D01*
X116965Y280091D01*
X116331Y280725D01*
X115554Y281173D01*
X114688Y281405D01*
D02*
G37*
G36*
X425961Y280000D02*
X425039D01*
X424149Y279762D01*
X423351Y279301D01*
X422699Y278649D01*
X422238Y277851D01*
X422000Y276961D01*
Y276039D01*
X422238Y275149D01*
X422699Y274351D01*
X423351Y273699D01*
X424149Y273238D01*
X425039Y273000D01*
X425961D01*
X426851Y273238D01*
X427649Y273699D01*
X428301Y274351D01*
X428761Y275149D01*
X429000Y276039D01*
Y276961D01*
X428761Y277851D01*
X428301Y278649D01*
X427649Y279301D01*
X426851Y279762D01*
X425961Y280000D01*
D02*
G37*
G36*
X396961Y279500D02*
X396039D01*
X395149Y279261D01*
X394351Y278801D01*
X393699Y278149D01*
X393238Y277351D01*
X393000Y276461D01*
Y275539D01*
X393238Y274649D01*
X393699Y273851D01*
X394351Y273199D01*
X395149Y272739D01*
X396039Y272500D01*
X396961D01*
X397851Y272739D01*
X398649Y273199D01*
X399301Y273851D01*
X399762Y274649D01*
X400000Y275539D01*
Y276461D01*
X399762Y277351D01*
X399301Y278149D01*
X398649Y278801D01*
X397851Y279261D01*
X396961Y279500D01*
D02*
G37*
G36*
X354951Y278549D02*
X354029D01*
X353139Y278310D01*
X352341Y277849D01*
X351689Y277198D01*
X351229Y276399D01*
X350990Y275509D01*
Y274588D01*
X351229Y273697D01*
X351689Y272899D01*
X352341Y272248D01*
X353139Y271787D01*
X354029Y271549D01*
X354951D01*
X355841Y271787D01*
X356639Y272248D01*
X357291Y272899D01*
X357752Y273697D01*
X357990Y274588D01*
Y275509D01*
X357752Y276399D01*
X357291Y277198D01*
X356639Y277849D01*
X355841Y278310D01*
X354951Y278549D01*
D02*
G37*
G36*
X632048Y276659D02*
X630952D01*
X629894Y276376D01*
X628946Y275828D01*
X628172Y275054D01*
X627624Y274106D01*
X627341Y273048D01*
Y271952D01*
X627624Y270895D01*
X628172Y269946D01*
X628946Y269172D01*
X629894Y268624D01*
X630952Y268340D01*
X632048D01*
X633106Y268624D01*
X634054Y269172D01*
X634828Y269946D01*
X635376Y270895D01*
X635660Y271952D01*
Y273048D01*
X635376Y274106D01*
X634828Y275054D01*
X634054Y275828D01*
X633106Y276376D01*
X632048Y276659D01*
D02*
G37*
G36*
X620237D02*
X619141D01*
X618083Y276376D01*
X617135Y275828D01*
X616361Y275054D01*
X615813Y274106D01*
X615530Y273048D01*
Y271952D01*
X615813Y270895D01*
X616361Y269946D01*
X617135Y269172D01*
X618083Y268624D01*
X619141Y268340D01*
X620237D01*
X621294Y268624D01*
X622243Y269172D01*
X623017Y269946D01*
X623565Y270895D01*
X623848Y271952D01*
Y273048D01*
X623565Y274106D01*
X623017Y275054D01*
X622243Y275828D01*
X621294Y276376D01*
X620237Y276659D01*
D02*
G37*
G36*
X490961Y274000D02*
X490039D01*
X489149Y273762D01*
X488351Y273301D01*
X487699Y272649D01*
X487239Y271851D01*
X487000Y270961D01*
Y270039D01*
X487239Y269149D01*
X487699Y268351D01*
X488351Y267699D01*
X489149Y267238D01*
X490039Y267000D01*
X490961D01*
X491851Y267238D01*
X492649Y267699D01*
X493301Y268351D01*
X493761Y269149D01*
X494000Y270039D01*
Y270961D01*
X493761Y271851D01*
X493301Y272649D01*
X492649Y273301D01*
X491851Y273762D01*
X490961Y274000D01*
D02*
G37*
G36*
X145948Y271406D02*
X145052D01*
X144185Y271173D01*
X143409Y270725D01*
X142775Y270091D01*
X142327Y269315D01*
X142095Y268448D01*
Y267552D01*
X142327Y266686D01*
X142775Y265909D01*
X143409Y265275D01*
X144185Y264827D01*
X145052Y264595D01*
X145948D01*
X146815Y264827D01*
X147591Y265275D01*
X148225Y265909D01*
X148673Y266686D01*
X148906Y267552D01*
Y268448D01*
X148673Y269315D01*
X148225Y270091D01*
X147591Y270725D01*
X146815Y271173D01*
X145948Y271406D01*
D02*
G37*
G36*
X114688D02*
X113792D01*
X112926Y271173D01*
X112149Y270725D01*
X111515Y270091D01*
X111067Y269315D01*
X110835Y268448D01*
Y267552D01*
X111067Y266686D01*
X111515Y265909D01*
X112149Y265275D01*
X112926Y264827D01*
X113792Y264595D01*
X114688D01*
X115554Y264827D01*
X116331Y265275D01*
X116965Y265909D01*
X117413Y266686D01*
X117646Y267552D01*
Y268448D01*
X117413Y269315D01*
X116965Y270091D01*
X116331Y270725D01*
X115554Y271173D01*
X114688Y271406D01*
D02*
G37*
G36*
X570961Y271000D02*
X570039D01*
X569149Y270761D01*
X568351Y270301D01*
X567699Y269649D01*
X567239Y268851D01*
X567000Y267961D01*
Y267039D01*
X567239Y266149D01*
X567699Y265351D01*
X568351Y264699D01*
X569149Y264239D01*
X570039Y264000D01*
X570961D01*
X571851Y264239D01*
X572649Y264699D01*
X573301Y265351D01*
X573762Y266149D01*
X574000Y267039D01*
Y267961D01*
X573762Y268851D01*
X573301Y269649D01*
X572649Y270301D01*
X571851Y270761D01*
X570961Y271000D01*
D02*
G37*
G36*
X417461Y268500D02*
X416539D01*
X415649Y268262D01*
X414851Y267801D01*
X414199Y267149D01*
X413738Y266351D01*
X413500Y265461D01*
Y264539D01*
X413738Y263649D01*
X414199Y262851D01*
X414851Y262199D01*
X415649Y261738D01*
X416539Y261500D01*
X417461D01*
X418351Y261738D01*
X419149Y262199D01*
X419801Y262851D01*
X420261Y263649D01*
X420500Y264539D01*
Y265461D01*
X420261Y266351D01*
X419801Y267149D01*
X419149Y267801D01*
X418351Y268262D01*
X417461Y268500D01*
D02*
G37*
G36*
X283961Y277000D02*
X283039D01*
X282149Y276762D01*
X281351Y276301D01*
X280699Y275649D01*
X280239Y274851D01*
X280000Y273961D01*
Y273039D01*
X280239Y272149D01*
X280699Y271351D01*
X281351Y270699D01*
X282149Y270238D01*
X283039Y270000D01*
X283961D01*
X284214Y270068D01*
X284568Y269714D01*
X284500Y269461D01*
Y268539D01*
X284738Y267649D01*
X285199Y266851D01*
X285851Y266199D01*
X286649Y265739D01*
X287539Y265500D01*
X288461D01*
X289351Y265739D01*
X289567Y265863D01*
X290000Y265613D01*
Y265539D01*
X290238Y264649D01*
X290699Y263851D01*
X291351Y263199D01*
X292149Y262738D01*
X293039Y262500D01*
X293961D01*
X294851Y262738D01*
X295094Y262879D01*
X295524Y262550D01*
X295500Y262461D01*
Y261539D01*
X295739Y260649D01*
X296199Y259851D01*
X296851Y259199D01*
X297649Y258738D01*
X298539Y258500D01*
X299461D01*
X300351Y258738D01*
X301149Y259199D01*
X301801Y259851D01*
X302261Y260649D01*
X302500Y261539D01*
Y262461D01*
X302261Y263351D01*
X301801Y264149D01*
X301149Y264801D01*
X300351Y265262D01*
X299461Y265500D01*
X298539D01*
X297649Y265262D01*
X297406Y265121D01*
X296976Y265450D01*
X297000Y265539D01*
Y266461D01*
X296761Y267351D01*
X296301Y268149D01*
X295649Y268801D01*
X294851Y269262D01*
X293961Y269500D01*
X293039D01*
X292149Y269262D01*
X291933Y269137D01*
X291500Y269387D01*
Y269461D01*
X291262Y270351D01*
X290801Y271149D01*
X290149Y271801D01*
X289351Y272262D01*
X288461Y272500D01*
X287539D01*
X287286Y272432D01*
X286932Y272786D01*
X287000Y273039D01*
Y273961D01*
X286761Y274851D01*
X286301Y275649D01*
X285649Y276301D01*
X284851Y276762D01*
X283961Y277000D01*
D02*
G37*
G36*
X114740Y261204D02*
Y258500D01*
X117444D01*
X117245Y259245D01*
X116820Y259980D01*
X116220Y260580D01*
X115485Y261005D01*
X114740Y261204D01*
D02*
G37*
G36*
X113740D02*
X112995Y261005D01*
X112260Y260580D01*
X111660Y259980D01*
X111235Y259245D01*
X111036Y258500D01*
X113740D01*
Y261204D01*
D02*
G37*
G36*
X576961Y265000D02*
X576039D01*
X575149Y264761D01*
X574351Y264301D01*
X573699Y263649D01*
X573239Y262851D01*
X573000Y261961D01*
Y261039D01*
X573239Y260149D01*
X573699Y259351D01*
X574351Y258699D01*
X575149Y258239D01*
X576039Y258000D01*
X576961D01*
X577851Y258239D01*
X578649Y258699D01*
X579301Y259351D01*
X579762Y260149D01*
X580000Y261039D01*
Y261961D01*
X579762Y262851D01*
X579301Y263649D01*
X578649Y264301D01*
X577851Y264761D01*
X576961Y265000D01*
D02*
G37*
G36*
X609961Y264500D02*
X609039D01*
X608149Y264262D01*
X607351Y263801D01*
X606699Y263149D01*
X606239Y262351D01*
X606000Y261461D01*
Y260539D01*
X606239Y259649D01*
X606699Y258851D01*
X607351Y258199D01*
X608149Y257738D01*
X609039Y257500D01*
X609961D01*
X610851Y257738D01*
X611649Y258199D01*
X612301Y258851D01*
X612761Y259649D01*
X613000Y260539D01*
Y261461D01*
X612761Y262351D01*
X612301Y263149D01*
X611649Y263801D01*
X610851Y264262D01*
X609961Y264500D01*
D02*
G37*
G36*
X519961D02*
X519039D01*
X518149Y264262D01*
X517351Y263801D01*
X516699Y263149D01*
X516238Y262351D01*
X516000Y261461D01*
Y260539D01*
X516238Y259649D01*
X516699Y258851D01*
X517351Y258199D01*
X518149Y257738D01*
X519039Y257500D01*
X519961D01*
X520851Y257738D01*
X521649Y258199D01*
X522301Y258851D01*
X522761Y259649D01*
X523000Y260539D01*
Y261461D01*
X522761Y262351D01*
X522301Y263149D01*
X521649Y263801D01*
X520851Y264262D01*
X519961Y264500D01*
D02*
G37*
G36*
X632048Y264848D02*
X630952D01*
X629894Y264565D01*
X628946Y264017D01*
X628172Y263243D01*
X627624Y262295D01*
X627341Y261237D01*
Y260141D01*
X627624Y259084D01*
X628172Y258135D01*
X628946Y257361D01*
X629894Y256813D01*
X630952Y256530D01*
X632048D01*
X633106Y256813D01*
X634054Y257361D01*
X634828Y258135D01*
X635376Y259084D01*
X635660Y260141D01*
Y261237D01*
X635376Y262295D01*
X634828Y263243D01*
X634054Y264017D01*
X633106Y264565D01*
X632048Y264848D01*
D02*
G37*
G36*
X620237D02*
X619141D01*
X618083Y264565D01*
X617135Y264017D01*
X616361Y263243D01*
X615813Y262295D01*
X615530Y261237D01*
Y260141D01*
X615813Y259084D01*
X616361Y258135D01*
X617135Y257361D01*
X618083Y256813D01*
X619141Y256530D01*
X620237D01*
X621294Y256813D01*
X622243Y257361D01*
X623017Y258135D01*
X623565Y259084D01*
X623848Y260141D01*
Y261237D01*
X623565Y262295D01*
X623017Y263243D01*
X622243Y264017D01*
X621294Y264565D01*
X620237Y264848D01*
D02*
G37*
G36*
X117444Y257500D02*
X114740D01*
Y254796D01*
X115485Y254995D01*
X116220Y255420D01*
X116820Y256020D01*
X117245Y256755D01*
X117444Y257500D01*
D02*
G37*
G36*
X113740D02*
X111036D01*
X111235Y256755D01*
X111660Y256020D01*
X112260Y255420D01*
X112995Y254995D01*
X113740Y254796D01*
Y257500D01*
D02*
G37*
G36*
X145948Y261405D02*
X145052D01*
X144185Y261173D01*
X143409Y260725D01*
X142775Y260091D01*
X142327Y259314D01*
X142095Y258448D01*
Y257552D01*
X142327Y256685D01*
X142775Y255909D01*
X143409Y255275D01*
X144185Y254827D01*
X145052Y254594D01*
X145948D01*
X146815Y254827D01*
X147591Y255275D01*
X148225Y255909D01*
X148673Y256685D01*
X148906Y257552D01*
Y258448D01*
X148673Y259314D01*
X148225Y260091D01*
X147591Y260725D01*
X146815Y261173D01*
X145948Y261405D01*
D02*
G37*
G36*
X267100Y256847D02*
Y254000D01*
X269947D01*
X269733Y254798D01*
X269290Y255564D01*
X268664Y256190D01*
X267898Y256633D01*
X267100Y256847D01*
D02*
G37*
G36*
X266100D02*
X265302Y256633D01*
X264536Y256190D01*
X263910Y255564D01*
X263467Y254798D01*
X263253Y254000D01*
X266100D01*
Y256847D01*
D02*
G37*
G36*
X269947Y253000D02*
X267100D01*
Y250153D01*
X267898Y250367D01*
X268664Y250810D01*
X269290Y251436D01*
X269733Y252202D01*
X269947Y253000D01*
D02*
G37*
G36*
X266100D02*
X263253D01*
X263467Y252202D01*
X263910Y251436D01*
X264536Y250810D01*
X265302Y250367D01*
X266100Y250153D01*
Y253000D01*
D02*
G37*
G36*
X207066Y257043D02*
X206134D01*
X205458Y256862D01*
X203238D01*
Y254642D01*
X203057Y253966D01*
Y253033D01*
X203238Y252358D01*
Y250138D01*
X205458D01*
X206134Y249957D01*
X207066D01*
X207742Y250138D01*
X209962D01*
Y252358D01*
X210143Y253033D01*
Y253966D01*
X209962Y254642D01*
Y256862D01*
X207742D01*
X207066Y257043D01*
D02*
G37*
G36*
X373461Y256000D02*
X372539D01*
X371649Y255762D01*
X370851Y255301D01*
X370199Y254649D01*
X369739Y253851D01*
X369500Y252961D01*
Y252039D01*
X369739Y251149D01*
X370199Y250351D01*
X370851Y249699D01*
X371649Y249238D01*
X372539Y249000D01*
X373461D01*
X374351Y249238D01*
X375149Y249699D01*
X375801Y250351D01*
X376261Y251149D01*
X376500Y252039D01*
Y252961D01*
X376261Y253851D01*
X375801Y254649D01*
X375149Y255301D01*
X374351Y255762D01*
X373461Y256000D01*
D02*
G37*
G36*
X114740Y251204D02*
Y248500D01*
X117444D01*
X117245Y249245D01*
X116820Y249980D01*
X116220Y250580D01*
X115485Y251005D01*
X114740Y251204D01*
D02*
G37*
G36*
X113740D02*
X112995Y251005D01*
X112260Y250580D01*
X111660Y249980D01*
X111235Y249245D01*
X111036Y248500D01*
X113740D01*
Y251204D01*
D02*
G37*
G36*
X571461Y253500D02*
X570539D01*
X569649Y253261D01*
X568851Y252801D01*
X568199Y252149D01*
X567738Y251351D01*
X567500Y250461D01*
Y249539D01*
X567738Y248649D01*
X568199Y247851D01*
X568851Y247199D01*
X569649Y246739D01*
X570539Y246500D01*
X571461D01*
X572351Y246739D01*
X573149Y247199D01*
X573801Y247851D01*
X574262Y248649D01*
X574500Y249539D01*
Y250461D01*
X574262Y251351D01*
X573801Y252149D01*
X573149Y252801D01*
X572351Y253261D01*
X571461Y253500D01*
D02*
G37*
G36*
X117444Y247500D02*
X114740D01*
Y244796D01*
X115485Y244995D01*
X116220Y245420D01*
X116820Y246020D01*
X117245Y246755D01*
X117444Y247500D01*
D02*
G37*
G36*
X113740D02*
X111036D01*
X111235Y246755D01*
X111660Y246020D01*
X112260Y245420D01*
X112995Y244995D01*
X113740Y244796D01*
Y247500D01*
D02*
G37*
G36*
X632048Y253037D02*
X630952D01*
X629894Y252754D01*
X628946Y252206D01*
X628172Y251432D01*
X627624Y250483D01*
X627341Y249426D01*
Y248330D01*
X627624Y247272D01*
X628172Y246324D01*
X628946Y245550D01*
X629894Y245002D01*
X630952Y244719D01*
X632048D01*
X633106Y245002D01*
X634054Y245550D01*
X634828Y246324D01*
X635376Y247272D01*
X635660Y248330D01*
Y249426D01*
X635376Y250483D01*
X634828Y251432D01*
X634054Y252206D01*
X633106Y252754D01*
X632048Y253037D01*
D02*
G37*
G36*
X620237D02*
X619141D01*
X618083Y252754D01*
X617135Y252206D01*
X616361Y251432D01*
X615813Y250483D01*
X615530Y249426D01*
Y248330D01*
X615813Y247272D01*
X616361Y246324D01*
X617135Y245550D01*
X618083Y245002D01*
X619141Y244719D01*
X620237D01*
X621294Y245002D01*
X622243Y245550D01*
X623017Y246324D01*
X623565Y247272D01*
X623848Y248330D01*
Y249426D01*
X623565Y250483D01*
X623017Y251432D01*
X622243Y252206D01*
X621294Y252754D01*
X620237Y253037D01*
D02*
G37*
G36*
X145948Y251406D02*
X145052D01*
X144185Y251173D01*
X143409Y250725D01*
X142775Y250091D01*
X142327Y249314D01*
X142095Y248448D01*
Y247552D01*
X142327Y246686D01*
X142775Y245909D01*
X143409Y245275D01*
X144185Y244827D01*
X145052Y244595D01*
X145948D01*
X146815Y244827D01*
X147591Y245275D01*
X148225Y245909D01*
X148673Y246686D01*
X148906Y247552D01*
Y248448D01*
X148673Y249314D01*
X148225Y250091D01*
X147591Y250725D01*
X146815Y251173D01*
X145948Y251406D01*
D02*
G37*
G36*
X386461Y251500D02*
X385539D01*
X384649Y251261D01*
X383851Y250801D01*
X383199Y250149D01*
X382738Y249351D01*
X382500Y248461D01*
Y247539D01*
X382738Y246649D01*
X383199Y245851D01*
X383851Y245199D01*
X384649Y244739D01*
X385539Y244500D01*
X386461D01*
X387351Y244739D01*
X388149Y245199D01*
X388801Y245851D01*
X389262Y246649D01*
X389500Y247539D01*
Y248461D01*
X389262Y249351D01*
X388801Y250149D01*
X388149Y250801D01*
X387351Y251261D01*
X386461Y251500D01*
D02*
G37*
G36*
X267067Y247043D02*
X266133D01*
X265232Y246802D01*
X264424Y246335D01*
X263765Y245676D01*
X263298Y244868D01*
X263057Y243967D01*
Y243034D01*
X263298Y242132D01*
X263765Y241324D01*
X264424Y240665D01*
X265232Y240198D01*
X266133Y239957D01*
X267067D01*
X267968Y240198D01*
X268776Y240665D01*
X269435Y241324D01*
X269902Y242132D01*
X270143Y243034D01*
Y243967D01*
X269902Y244868D01*
X269435Y245676D01*
X268776Y246335D01*
X267968Y246802D01*
X267067Y247043D01*
D02*
G37*
G36*
X207066D02*
X206134D01*
X205232Y246802D01*
X204424Y246335D01*
X203765Y245676D01*
X203298Y244868D01*
X203057Y243967D01*
Y243034D01*
X203298Y242132D01*
X203765Y241324D01*
X204424Y240665D01*
X205232Y240198D01*
X206134Y239957D01*
X207066D01*
X207968Y240198D01*
X208776Y240665D01*
X209435Y241324D01*
X209902Y242132D01*
X210143Y243034D01*
Y243967D01*
X209902Y244868D01*
X209435Y245676D01*
X208776Y246335D01*
X207968Y246802D01*
X207066Y247043D01*
D02*
G37*
G36*
X488961Y246000D02*
X488039D01*
X487149Y245761D01*
X486351Y245301D01*
X485699Y244649D01*
X485239Y243851D01*
X485000Y242961D01*
Y242039D01*
X485239Y241149D01*
X485699Y240351D01*
X486351Y239699D01*
X487149Y239239D01*
X488039Y239000D01*
X488961D01*
X489851Y239239D01*
X490649Y239699D01*
X491301Y240351D01*
X491761Y241149D01*
X492000Y242039D01*
Y242961D01*
X491761Y243851D01*
X491301Y244649D01*
X490649Y245301D01*
X489851Y245761D01*
X488961Y246000D01*
D02*
G37*
G36*
X632048Y241227D02*
X630952D01*
X629894Y240943D01*
X628946Y240395D01*
X628172Y239621D01*
X627624Y238672D01*
X627341Y237615D01*
Y236519D01*
X627624Y235461D01*
X628172Y234513D01*
X628946Y233739D01*
X629894Y233191D01*
X630952Y232908D01*
X632048D01*
X633106Y233191D01*
X634054Y233739D01*
X634828Y234513D01*
X635376Y235461D01*
X635660Y236519D01*
Y237615D01*
X635376Y238672D01*
X634828Y239621D01*
X634054Y240395D01*
X633106Y240943D01*
X632048Y241227D01*
D02*
G37*
G36*
X620237D02*
X619141D01*
X618083Y240943D01*
X617135Y240395D01*
X616361Y239621D01*
X615813Y238672D01*
X615530Y237615D01*
Y236519D01*
X615813Y235461D01*
X616361Y234513D01*
X617135Y233739D01*
X618083Y233191D01*
X619141Y232908D01*
X620237D01*
X621294Y233191D01*
X622243Y233739D01*
X623017Y234513D01*
X623565Y235461D01*
X623848Y236519D01*
Y237615D01*
X623565Y238672D01*
X623017Y239621D01*
X622243Y240395D01*
X621294Y240943D01*
X620237Y241227D01*
D02*
G37*
G36*
X267067Y237043D02*
X266133D01*
X265232Y236802D01*
X264424Y236335D01*
X263765Y235676D01*
X263298Y234868D01*
X263057Y233966D01*
Y233033D01*
X263298Y232132D01*
X263765Y231324D01*
X264424Y230665D01*
X265232Y230198D01*
X266133Y229957D01*
X267067D01*
X267968Y230198D01*
X268776Y230665D01*
X269435Y231324D01*
X269902Y232132D01*
X270143Y233033D01*
Y233966D01*
X269902Y234868D01*
X269435Y235676D01*
X268776Y236335D01*
X267968Y236802D01*
X267067Y237043D01*
D02*
G37*
G36*
X207066D02*
X206134D01*
X205232Y236802D01*
X204424Y236335D01*
X203765Y235676D01*
X203298Y234868D01*
X203057Y233966D01*
Y233033D01*
X203298Y232132D01*
X203765Y231324D01*
X204424Y230665D01*
X205232Y230198D01*
X206134Y229957D01*
X207066D01*
X207968Y230198D01*
X208776Y230665D01*
X209435Y231324D01*
X209902Y232132D01*
X210143Y233033D01*
Y233966D01*
X209902Y234868D01*
X209435Y235676D01*
X208776Y236335D01*
X207968Y236802D01*
X207066Y237043D01*
D02*
G37*
G36*
X574461Y234500D02*
X573539D01*
X572649Y234261D01*
X571851Y233801D01*
X571199Y233149D01*
X570739Y232351D01*
X570500Y231461D01*
Y230539D01*
X570739Y229649D01*
X571199Y228851D01*
X571851Y228199D01*
X572649Y227738D01*
X573539Y227500D01*
X574461D01*
X575351Y227738D01*
X576149Y228199D01*
X576801Y228851D01*
X577261Y229649D01*
X577500Y230539D01*
Y231461D01*
X577261Y232351D01*
X576801Y233149D01*
X576149Y233801D01*
X575351Y234261D01*
X574461Y234500D01*
D02*
G37*
G36*
X534961Y234000D02*
X534039D01*
X533149Y233762D01*
X532351Y233301D01*
X531699Y232649D01*
X531239Y231851D01*
X531000Y230961D01*
Y230039D01*
X531239Y229149D01*
X531699Y228351D01*
X532351Y227699D01*
X533149Y227238D01*
X534039Y227000D01*
X534961D01*
X535851Y227238D01*
X536649Y227699D01*
X537301Y228351D01*
X537761Y229149D01*
X538000Y230039D01*
Y230961D01*
X537761Y231851D01*
X537301Y232649D01*
X536649Y233301D01*
X535851Y233762D01*
X534961Y234000D01*
D02*
G37*
G36*
X649293Y241693D02*
X647723D01*
X646182Y241387D01*
X644731Y240786D01*
X643426Y239913D01*
X642315Y238803D01*
X641443Y237497D01*
X640842Y236046D01*
X640535Y234506D01*
Y232935D01*
X640842Y231395D01*
X641443Y229944D01*
X642315Y228638D01*
X643426Y227528D01*
X644731Y226655D01*
X646182Y226054D01*
X647723Y225748D01*
X649293D01*
X650833Y226054D01*
X652284Y226655D01*
X653590Y227528D01*
X654700Y228638D01*
X655573Y229944D01*
X656174Y231395D01*
X656480Y232935D01*
Y234506D01*
X656174Y236046D01*
X655573Y237497D01*
X654700Y238803D01*
X653590Y239913D01*
X652284Y240786D01*
X650833Y241387D01*
X649293Y241693D01*
D02*
G37*
G36*
X632048Y229415D02*
X630952D01*
X629894Y229132D01*
X628946Y228584D01*
X628172Y227810D01*
X627624Y226862D01*
X627341Y225804D01*
Y224708D01*
X627624Y223651D01*
X628172Y222702D01*
X628946Y221928D01*
X629894Y221380D01*
X630952Y221096D01*
X632048D01*
X633106Y221380D01*
X634054Y221928D01*
X634828Y222702D01*
X635376Y223651D01*
X635660Y224708D01*
Y225804D01*
X635376Y226862D01*
X634828Y227810D01*
X634054Y228584D01*
X633106Y229132D01*
X632048Y229415D01*
D02*
G37*
G36*
X620237D02*
X619141D01*
X618083Y229132D01*
X617135Y228584D01*
X616361Y227810D01*
X615813Y226862D01*
X615530Y225804D01*
Y224708D01*
X615813Y223651D01*
X616361Y222702D01*
X617135Y221928D01*
X618083Y221380D01*
X619141Y221096D01*
X620237D01*
X621294Y221380D01*
X622243Y221928D01*
X623017Y222702D01*
X623565Y223651D01*
X623848Y224708D01*
Y225804D01*
X623565Y226862D01*
X623017Y227810D01*
X622243Y228584D01*
X621294Y229132D01*
X620237Y229415D01*
D02*
G37*
G36*
X388461Y228000D02*
X387539D01*
X386649Y227762D01*
X385851Y227301D01*
X385199Y226649D01*
X384738Y225851D01*
X384500Y224961D01*
Y224039D01*
X384738Y223149D01*
X385199Y222351D01*
X385851Y221699D01*
X386649Y221238D01*
X387539Y221000D01*
X388461D01*
X389351Y221238D01*
X390149Y221699D01*
X390801Y222351D01*
X391262Y223149D01*
X391500Y224039D01*
Y224961D01*
X391262Y225851D01*
X390801Y226649D01*
X390149Y227301D01*
X389351Y227762D01*
X388461Y228000D01*
D02*
G37*
G36*
X145448Y226905D02*
X144552D01*
X143685Y226673D01*
X142909Y226225D01*
X142275Y225591D01*
X141827Y224815D01*
X141595Y223948D01*
Y223052D01*
X141827Y222185D01*
X142275Y221409D01*
X142909Y220775D01*
X143685Y220327D01*
X144552Y220094D01*
X145448D01*
X146315Y220327D01*
X147091Y220775D01*
X147725Y221409D01*
X148173Y222185D01*
X148406Y223052D01*
Y223948D01*
X148173Y224815D01*
X147725Y225591D01*
X147091Y226225D01*
X146315Y226673D01*
X145448Y226905D01*
D02*
G37*
G36*
X114188D02*
X113292D01*
X112616Y226724D01*
X110516D01*
Y224624D01*
X110335Y223948D01*
Y223052D01*
X110516Y222376D01*
Y220276D01*
X112616D01*
X113292Y220094D01*
X114188D01*
X114864Y220276D01*
X116964D01*
Y222376D01*
X117146Y223052D01*
Y223948D01*
X116964Y224624D01*
Y226724D01*
X114864D01*
X114188Y226905D01*
D02*
G37*
G36*
X123961Y227000D02*
X123039D01*
X122149Y226762D01*
X121351Y226301D01*
X120699Y225649D01*
X120238Y224851D01*
X120000Y223961D01*
Y223039D01*
X120238Y222149D01*
X120699Y221351D01*
X121351Y220699D01*
X122149Y220238D01*
X123039Y220000D01*
X123961D01*
X124851Y220238D01*
X125649Y220699D01*
X126301Y221351D01*
X126761Y222149D01*
X127000Y223039D01*
Y223961D01*
X126761Y224851D01*
X126301Y225649D01*
X125649Y226301D01*
X124851Y226762D01*
X123961Y227000D01*
D02*
G37*
G36*
X267067Y227043D02*
X266133D01*
X265232Y226802D01*
X264424Y226335D01*
X263765Y225676D01*
X263298Y224868D01*
X263057Y223967D01*
Y223033D01*
X263298Y222132D01*
X263765Y221324D01*
X264424Y220665D01*
X265232Y220198D01*
X266133Y219957D01*
X267067D01*
X267968Y220198D01*
X268776Y220665D01*
X269435Y221324D01*
X269902Y222132D01*
X270143Y223033D01*
Y223967D01*
X269902Y224868D01*
X269435Y225676D01*
X268776Y226335D01*
X267968Y226802D01*
X267067Y227043D01*
D02*
G37*
G36*
X207066D02*
X206134D01*
X205232Y226802D01*
X204424Y226335D01*
X203765Y225676D01*
X203298Y224868D01*
X203057Y223967D01*
Y223033D01*
X203298Y222132D01*
X203765Y221324D01*
X204424Y220665D01*
X205232Y220198D01*
X206134Y219957D01*
X207066D01*
X207968Y220198D01*
X208776Y220665D01*
X209435Y221324D01*
X209902Y222132D01*
X210143Y223033D01*
Y223967D01*
X209902Y224868D01*
X209435Y225676D01*
X208776Y226335D01*
X207968Y226802D01*
X207066Y227043D01*
D02*
G37*
G36*
X492961Y219000D02*
X492039D01*
X491149Y218761D01*
X490351Y218301D01*
X489699Y217649D01*
X489239Y216851D01*
X489000Y215961D01*
Y215039D01*
X489239Y214149D01*
X489699Y213351D01*
X490351Y212699D01*
X491149Y212239D01*
X492039Y212000D01*
X492961D01*
X493851Y212239D01*
X494649Y212699D01*
X495301Y213351D01*
X495761Y214149D01*
X496000Y215039D01*
Y215961D01*
X495761Y216851D01*
X495301Y217649D01*
X494649Y218301D01*
X493851Y218761D01*
X492961Y219000D01*
D02*
G37*
G36*
X123461Y218000D02*
X122539D01*
X121649Y217761D01*
X120851Y217301D01*
X120199Y216649D01*
X119738Y215851D01*
X119500Y214961D01*
Y214039D01*
X119738Y213149D01*
X120199Y212351D01*
X120851Y211699D01*
X121649Y211239D01*
X122539Y211000D01*
X123461D01*
X124351Y211239D01*
X125149Y211699D01*
X125801Y212351D01*
X126261Y213149D01*
X126500Y214039D01*
Y214961D01*
X126261Y215851D01*
X125801Y216649D01*
X125149Y217301D01*
X124351Y217761D01*
X123461Y218000D01*
D02*
G37*
G36*
X145448Y216905D02*
X144552D01*
X143685Y216673D01*
X142909Y216225D01*
X142275Y215591D01*
X141827Y214814D01*
X141595Y213948D01*
Y213052D01*
X141827Y212186D01*
X142275Y211409D01*
X142909Y210775D01*
X143685Y210327D01*
X144552Y210094D01*
X145448D01*
X146315Y210327D01*
X147091Y210775D01*
X147725Y211409D01*
X148173Y212186D01*
X148406Y213052D01*
Y213948D01*
X148173Y214814D01*
X147725Y215591D01*
X147091Y216225D01*
X146315Y216673D01*
X145448Y216905D01*
D02*
G37*
G36*
X114188D02*
X113292D01*
X112425Y216673D01*
X111649Y216225D01*
X111015Y215591D01*
X110567Y214814D01*
X110335Y213948D01*
Y213052D01*
X110567Y212186D01*
X111015Y211409D01*
X111649Y210775D01*
X112425Y210327D01*
X113292Y210094D01*
X114188D01*
X115055Y210327D01*
X115831Y210775D01*
X116465Y211409D01*
X116913Y212186D01*
X117146Y213052D01*
Y213948D01*
X116913Y214814D01*
X116465Y215591D01*
X115831Y216225D01*
X115055Y216673D01*
X114188Y216905D01*
D02*
G37*
G36*
X267067Y217043D02*
X266133D01*
X265232Y216802D01*
X264424Y216335D01*
X263765Y215676D01*
X263298Y214868D01*
X263057Y213966D01*
Y213034D01*
X263298Y212132D01*
X263765Y211324D01*
X264424Y210665D01*
X265232Y210198D01*
X266133Y209957D01*
X267067D01*
X267968Y210198D01*
X268776Y210665D01*
X269435Y211324D01*
X269902Y212132D01*
X270143Y213034D01*
Y213966D01*
X269902Y214868D01*
X269435Y215676D01*
X268776Y216335D01*
X267968Y216802D01*
X267067Y217043D01*
D02*
G37*
G36*
X207066D02*
X206134D01*
X205232Y216802D01*
X204424Y216335D01*
X203765Y215676D01*
X203298Y214868D01*
X203057Y213966D01*
Y213034D01*
X203298Y212132D01*
X203765Y211324D01*
X204424Y210665D01*
X205232Y210198D01*
X206134Y209957D01*
X207066D01*
X207968Y210198D01*
X208776Y210665D01*
X209435Y211324D01*
X209902Y212132D01*
X210143Y213034D01*
Y213966D01*
X209902Y214868D01*
X209435Y215676D01*
X208776Y216335D01*
X207968Y216802D01*
X207066Y217043D01*
D02*
G37*
G36*
X603961Y210500D02*
X603039D01*
X602149Y210262D01*
X601351Y209801D01*
X600699Y209149D01*
X600239Y208351D01*
X600000Y207461D01*
Y206539D01*
X600239Y205649D01*
X600699Y204851D01*
X601351Y204199D01*
X602149Y203738D01*
X603039Y203500D01*
X603961D01*
X604851Y203738D01*
X605649Y204199D01*
X606301Y204851D01*
X606762Y205649D01*
X607000Y206539D01*
Y207461D01*
X606762Y208351D01*
X606301Y209149D01*
X605649Y209801D01*
X604851Y210262D01*
X603961Y210500D01*
D02*
G37*
G36*
X123461Y208000D02*
X122539D01*
X121649Y207762D01*
X120851Y207301D01*
X120199Y206649D01*
X119738Y205851D01*
X119500Y204961D01*
Y204039D01*
X119738Y203149D01*
X120199Y202351D01*
X120851Y201699D01*
X121649Y201238D01*
X122539Y201000D01*
X123461D01*
X124351Y201238D01*
X125149Y201699D01*
X125801Y202351D01*
X126261Y203149D01*
X126500Y204039D01*
Y204961D01*
X126261Y205851D01*
X125801Y206649D01*
X125149Y207301D01*
X124351Y207762D01*
X123461Y208000D01*
D02*
G37*
G36*
X145448Y206906D02*
X144552D01*
X143685Y206673D01*
X142909Y206225D01*
X142275Y205591D01*
X141827Y204815D01*
X141595Y203948D01*
Y203052D01*
X141827Y202186D01*
X142275Y201409D01*
X142909Y200775D01*
X143685Y200327D01*
X144552Y200095D01*
X145448D01*
X146315Y200327D01*
X147091Y200775D01*
X147725Y201409D01*
X148173Y202186D01*
X148406Y203052D01*
Y203948D01*
X148173Y204815D01*
X147725Y205591D01*
X147091Y206225D01*
X146315Y206673D01*
X145448Y206906D01*
D02*
G37*
G36*
X114188D02*
X113292D01*
X112425Y206673D01*
X111649Y206225D01*
X111015Y205591D01*
X110567Y204815D01*
X110335Y203948D01*
Y203052D01*
X110567Y202186D01*
X111015Y201409D01*
X111649Y200775D01*
X112425Y200327D01*
X113292Y200095D01*
X114188D01*
X115055Y200327D01*
X115831Y200775D01*
X116465Y201409D01*
X116913Y202186D01*
X117146Y203052D01*
Y203948D01*
X116913Y204815D01*
X116465Y205591D01*
X115831Y206225D01*
X115055Y206673D01*
X114188Y206906D01*
D02*
G37*
G36*
X267600Y200847D02*
Y198000D01*
X270447D01*
X270233Y198798D01*
X269790Y199564D01*
X269164Y200190D01*
X268398Y200633D01*
X267600Y200847D01*
D02*
G37*
G36*
X266600D02*
X265802Y200633D01*
X265036Y200190D01*
X264410Y199564D01*
X263967Y198798D01*
X263753Y198000D01*
X266600D01*
Y200847D01*
D02*
G37*
G36*
X270447Y197000D02*
X267600D01*
Y194153D01*
X268398Y194367D01*
X269164Y194810D01*
X269790Y195436D01*
X270233Y196202D01*
X270447Y197000D01*
D02*
G37*
G36*
X266600D02*
X263753D01*
X263967Y196202D01*
X264410Y195436D01*
X265036Y194810D01*
X265802Y194367D01*
X266600Y194153D01*
Y197000D01*
D02*
G37*
G36*
X207566Y201043D02*
X206633D01*
X205958Y200862D01*
X203738D01*
Y198642D01*
X203557Y197967D01*
Y197034D01*
X203738Y196358D01*
Y194138D01*
X205958D01*
X206633Y193957D01*
X207566D01*
X208242Y194138D01*
X210462D01*
Y196358D01*
X210643Y197034D01*
Y197967D01*
X210462Y198642D01*
Y200862D01*
X208242D01*
X207566Y201043D01*
D02*
G37*
G36*
X123461Y198000D02*
X122539D01*
X121649Y197761D01*
X120851Y197301D01*
X120199Y196649D01*
X119738Y195851D01*
X119500Y194961D01*
Y194039D01*
X119738Y193149D01*
X120199Y192351D01*
X120851Y191699D01*
X121649Y191238D01*
X122539Y191000D01*
X123461D01*
X124351Y191238D01*
X125149Y191699D01*
X125801Y192351D01*
X126261Y193149D01*
X126500Y194039D01*
Y194961D01*
X126261Y195851D01*
X125801Y196649D01*
X125149Y197301D01*
X124351Y197761D01*
X123461Y198000D01*
D02*
G37*
G36*
X325461Y197500D02*
X324539D01*
X323649Y197262D01*
X322851Y196801D01*
X322199Y196149D01*
X321739Y195351D01*
X321500Y194461D01*
Y193539D01*
X321739Y192649D01*
X322199Y191851D01*
X322851Y191199D01*
X323649Y190738D01*
X324539Y190500D01*
X325461D01*
X326351Y190738D01*
X327149Y191199D01*
X327801Y191851D01*
X328261Y192649D01*
X328500Y193539D01*
Y194461D01*
X328261Y195351D01*
X327801Y196149D01*
X327149Y196801D01*
X326351Y197262D01*
X325461Y197500D01*
D02*
G37*
G36*
X145448Y196906D02*
X144552D01*
X143685Y196673D01*
X142909Y196225D01*
X142275Y195591D01*
X141827Y194815D01*
X141595Y193948D01*
Y193052D01*
X141827Y192185D01*
X142275Y191409D01*
X142909Y190775D01*
X143685Y190327D01*
X144552Y190094D01*
X145448D01*
X146315Y190327D01*
X147091Y190775D01*
X147725Y191409D01*
X148173Y192185D01*
X148406Y193052D01*
Y193948D01*
X148173Y194815D01*
X147725Y195591D01*
X147091Y196225D01*
X146315Y196673D01*
X145448Y196906D01*
D02*
G37*
G36*
X114188D02*
X113292D01*
X112425Y196673D01*
X111649Y196225D01*
X111015Y195591D01*
X110567Y194815D01*
X110335Y193948D01*
Y193052D01*
X110567Y192185D01*
X111015Y191409D01*
X111649Y190775D01*
X112425Y190327D01*
X113292Y190094D01*
X114188D01*
X115055Y190327D01*
X115831Y190775D01*
X116465Y191409D01*
X116913Y192185D01*
X117146Y193052D01*
Y193948D01*
X116913Y194815D01*
X116465Y195591D01*
X115831Y196225D01*
X115055Y196673D01*
X114188Y196906D01*
D02*
G37*
G36*
X267566Y191043D02*
X266634D01*
X265732Y190802D01*
X264924Y190335D01*
X264265Y189676D01*
X263798Y188868D01*
X263557Y187967D01*
Y187033D01*
X263798Y186132D01*
X264265Y185324D01*
X264924Y184665D01*
X265732Y184198D01*
X266634Y183957D01*
X267566D01*
X268468Y184198D01*
X269276Y184665D01*
X269935Y185324D01*
X270402Y186132D01*
X270643Y187033D01*
Y187967D01*
X270402Y188868D01*
X269935Y189676D01*
X269276Y190335D01*
X268468Y190802D01*
X267566Y191043D01*
D02*
G37*
G36*
X207566D02*
X206633D01*
X205732Y190802D01*
X204924Y190335D01*
X204265Y189676D01*
X203798Y188868D01*
X203557Y187967D01*
Y187033D01*
X203798Y186132D01*
X204265Y185324D01*
X204924Y184665D01*
X205732Y184198D01*
X206633Y183957D01*
X207566D01*
X208468Y184198D01*
X209276Y184665D01*
X209935Y185324D01*
X210402Y186132D01*
X210643Y187033D01*
Y187967D01*
X210402Y188868D01*
X209935Y189676D01*
X209276Y190335D01*
X208468Y190802D01*
X207566Y191043D01*
D02*
G37*
G36*
X145448Y186906D02*
X144552D01*
X143685Y186673D01*
X142909Y186225D01*
X142275Y185591D01*
X141827Y184815D01*
X141595Y183948D01*
Y183052D01*
X141827Y182185D01*
X142275Y181409D01*
X142909Y180775D01*
X143685Y180327D01*
X144552Y180095D01*
X145448D01*
X146315Y180327D01*
X147091Y180775D01*
X147725Y181409D01*
X148173Y182185D01*
X148406Y183052D01*
Y183948D01*
X148173Y184815D01*
X147725Y185591D01*
X147091Y186225D01*
X146315Y186673D01*
X145448Y186906D01*
D02*
G37*
G36*
X114188D02*
X113292D01*
X112425Y186673D01*
X111649Y186225D01*
X111015Y185591D01*
X110567Y184815D01*
X110335Y183948D01*
Y183052D01*
X110567Y182185D01*
X111015Y181409D01*
X111649Y180775D01*
X112425Y180327D01*
X113292Y180095D01*
X114188D01*
X115055Y180327D01*
X115831Y180775D01*
X116465Y181409D01*
X116913Y182185D01*
X117146Y183052D01*
Y183948D01*
X116913Y184815D01*
X116465Y185591D01*
X115831Y186225D01*
X115055Y186673D01*
X114188Y186906D01*
D02*
G37*
G36*
X267566Y181043D02*
X266634D01*
X265732Y180802D01*
X264924Y180335D01*
X264265Y179676D01*
X263798Y178868D01*
X263557Y177966D01*
Y177033D01*
X263798Y176132D01*
X264265Y175324D01*
X264924Y174665D01*
X265732Y174198D01*
X266634Y173957D01*
X267566D01*
X268468Y174198D01*
X269276Y174665D01*
X269935Y175324D01*
X270402Y176132D01*
X270643Y177033D01*
Y177966D01*
X270402Y178868D01*
X269935Y179676D01*
X269276Y180335D01*
X268468Y180802D01*
X267566Y181043D01*
D02*
G37*
G36*
X207566D02*
X206633D01*
X205732Y180802D01*
X204924Y180335D01*
X204265Y179676D01*
X203798Y178868D01*
X203557Y177966D01*
Y177033D01*
X203798Y176132D01*
X204265Y175324D01*
X204924Y174665D01*
X205732Y174198D01*
X206633Y173957D01*
X207566D01*
X208468Y174198D01*
X209276Y174665D01*
X209935Y175324D01*
X210402Y176132D01*
X210643Y177033D01*
Y177966D01*
X210402Y178868D01*
X209935Y179676D01*
X209276Y180335D01*
X208468Y180802D01*
X207566Y181043D01*
D02*
G37*
G36*
X631961Y177500D02*
X631039D01*
X630149Y177261D01*
X629351Y176801D01*
X628699Y176149D01*
X628238Y175351D01*
X628000Y174461D01*
Y173539D01*
X628238Y172649D01*
X628699Y171851D01*
X629351Y171199D01*
X630149Y170738D01*
X631039Y170500D01*
X631961D01*
X632851Y170738D01*
X633649Y171199D01*
X634301Y171851D01*
X634761Y172649D01*
X635000Y173539D01*
Y174461D01*
X634761Y175351D01*
X634301Y176149D01*
X633649Y176801D01*
X632851Y177261D01*
X631961Y177500D01*
D02*
G37*
G36*
X623461D02*
X622539D01*
X621649Y177261D01*
X620851Y176801D01*
X620199Y176149D01*
X619738Y175351D01*
X619500Y174461D01*
Y173539D01*
X619738Y172649D01*
X620199Y171851D01*
X620851Y171199D01*
X621649Y170738D01*
X622539Y170500D01*
X623461D01*
X624351Y170738D01*
X625149Y171199D01*
X625801Y171851D01*
X626262Y172649D01*
X626500Y173539D01*
Y174461D01*
X626262Y175351D01*
X625801Y176149D01*
X625149Y176801D01*
X624351Y177261D01*
X623461Y177500D01*
D02*
G37*
G36*
X145448Y176906D02*
X144552D01*
X143685Y176673D01*
X142909Y176225D01*
X142275Y175591D01*
X141827Y174814D01*
X141595Y173948D01*
Y173052D01*
X141827Y172186D01*
X142275Y171409D01*
X142909Y170775D01*
X143685Y170327D01*
X144552Y170095D01*
X145448D01*
X146315Y170327D01*
X147091Y170775D01*
X147725Y171409D01*
X148173Y172186D01*
X148406Y173052D01*
Y173948D01*
X148173Y174814D01*
X147725Y175591D01*
X147091Y176225D01*
X146315Y176673D01*
X145448Y176906D01*
D02*
G37*
G36*
X114188D02*
X113292D01*
X112425Y176673D01*
X111649Y176225D01*
X111015Y175591D01*
X110567Y174814D01*
X110335Y173948D01*
Y173052D01*
X110567Y172186D01*
X111015Y171409D01*
X111649Y170775D01*
X112425Y170327D01*
X113292Y170095D01*
X114188D01*
X115055Y170327D01*
X115831Y170775D01*
X116465Y171409D01*
X116913Y172186D01*
X117146Y173052D01*
Y173948D01*
X116913Y174814D01*
X116465Y175591D01*
X115831Y176225D01*
X115055Y176673D01*
X114188Y176906D01*
D02*
G37*
G36*
X114240Y166704D02*
Y164000D01*
X116944D01*
X116745Y164745D01*
X116320Y165480D01*
X115720Y166080D01*
X114985Y166505D01*
X114240Y166704D01*
D02*
G37*
G36*
X113240D02*
X112495Y166505D01*
X111760Y166080D01*
X111160Y165480D01*
X110735Y164745D01*
X110536Y164000D01*
X113240D01*
Y166704D01*
D02*
G37*
G36*
X267566Y171043D02*
X266634D01*
X265732Y170802D01*
X264924Y170335D01*
X264265Y169676D01*
X263798Y168868D01*
X263557Y167966D01*
Y167034D01*
X263798Y166132D01*
X264265Y165324D01*
X264924Y164665D01*
X265732Y164198D01*
X266634Y163957D01*
X267566D01*
X268468Y164198D01*
X269276Y164665D01*
X269935Y165324D01*
X270402Y166132D01*
X270643Y167034D01*
Y167966D01*
X270402Y168868D01*
X269935Y169676D01*
X269276Y170335D01*
X268468Y170802D01*
X267566Y171043D01*
D02*
G37*
G36*
X207566D02*
X206633D01*
X205732Y170802D01*
X204924Y170335D01*
X204265Y169676D01*
X203798Y168868D01*
X203557Y167966D01*
Y167034D01*
X203798Y166132D01*
X204265Y165324D01*
X204924Y164665D01*
X205732Y164198D01*
X206633Y163957D01*
X207566D01*
X208468Y164198D01*
X209276Y164665D01*
X209935Y165324D01*
X210402Y166132D01*
X210643Y167034D01*
Y167966D01*
X210402Y168868D01*
X209935Y169676D01*
X209276Y170335D01*
X208468Y170802D01*
X207566Y171043D01*
D02*
G37*
G36*
X623461Y170000D02*
X622539D01*
X621649Y169762D01*
X620851Y169301D01*
X620199Y168649D01*
X619738Y167851D01*
X619500Y166961D01*
Y166039D01*
X619738Y165149D01*
X620199Y164351D01*
X620851Y163699D01*
X621649Y163239D01*
X622539Y163000D01*
X623461D01*
X624351Y163239D01*
X625149Y163699D01*
X625801Y164351D01*
X626262Y165149D01*
X626500Y166039D01*
Y166961D01*
X626262Y167851D01*
X625801Y168649D01*
X625149Y169301D01*
X624351Y169762D01*
X623461Y170000D01*
D02*
G37*
G36*
X116944Y163000D02*
X114240D01*
Y160296D01*
X114985Y160495D01*
X115720Y160920D01*
X116320Y161520D01*
X116745Y162255D01*
X116944Y163000D01*
D02*
G37*
G36*
X113240D02*
X110536D01*
X110735Y162255D01*
X111160Y161520D01*
X111760Y160920D01*
X112495Y160495D01*
X113240Y160296D01*
Y163000D01*
D02*
G37*
G36*
X145448Y166905D02*
X144552D01*
X143685Y166673D01*
X142909Y166225D01*
X142275Y165591D01*
X141827Y164814D01*
X141595Y163948D01*
Y163052D01*
X141827Y162186D01*
X142275Y161409D01*
X142909Y160775D01*
X143685Y160327D01*
X144552Y160094D01*
X145448D01*
X146315Y160327D01*
X147091Y160775D01*
X147725Y161409D01*
X148173Y162186D01*
X148406Y163052D01*
Y163948D01*
X148173Y164814D01*
X147725Y165591D01*
X147091Y166225D01*
X146315Y166673D01*
X145448Y166905D01*
D02*
G37*
G36*
X632461Y161500D02*
X631539D01*
X630649Y161261D01*
X629851Y160801D01*
X629199Y160149D01*
X628738Y159351D01*
X628500Y158461D01*
Y157539D01*
X628738Y156649D01*
X629199Y155851D01*
X629851Y155199D01*
X630649Y154738D01*
X631539Y154500D01*
X632461D01*
X633351Y154738D01*
X634149Y155199D01*
X634801Y155851D01*
X635261Y156649D01*
X635500Y157539D01*
Y158461D01*
X635261Y159351D01*
X634801Y160149D01*
X634149Y160801D01*
X633351Y161261D01*
X632461Y161500D01*
D02*
G37*
G36*
X623961D02*
X623039D01*
X622149Y161261D01*
X621351Y160801D01*
X620699Y160149D01*
X620238Y159351D01*
X620000Y158461D01*
Y157539D01*
X620238Y156649D01*
X620699Y155851D01*
X621351Y155199D01*
X622149Y154738D01*
X623039Y154500D01*
X623961D01*
X624851Y154738D01*
X625649Y155199D01*
X626301Y155851D01*
X626761Y156649D01*
X627000Y157539D01*
Y158461D01*
X626761Y159351D01*
X626301Y160149D01*
X625649Y160801D01*
X624851Y161261D01*
X623961Y161500D01*
D02*
G37*
G36*
X114240Y156704D02*
Y154000D01*
X116944D01*
X116745Y154745D01*
X116320Y155480D01*
X115720Y156080D01*
X114985Y156505D01*
X114240Y156704D01*
D02*
G37*
G36*
X113240D02*
X112495Y156505D01*
X111760Y156080D01*
X111160Y155480D01*
X110735Y154745D01*
X110536Y154000D01*
X113240D01*
Y156704D01*
D02*
G37*
G36*
X267566Y161043D02*
X266634D01*
X265732Y160802D01*
X264924Y160335D01*
X264265Y159676D01*
X263798Y158868D01*
X263557Y157966D01*
Y157034D01*
X263798Y156132D01*
X264265Y155324D01*
X264924Y154665D01*
X265732Y154198D01*
X266634Y153957D01*
X267566D01*
X268468Y154198D01*
X269276Y154665D01*
X269935Y155324D01*
X270402Y156132D01*
X270643Y157034D01*
Y157966D01*
X270402Y158868D01*
X269935Y159676D01*
X269276Y160335D01*
X268468Y160802D01*
X267566Y161043D01*
D02*
G37*
G36*
X207566D02*
X206633D01*
X205732Y160802D01*
X204924Y160335D01*
X204265Y159676D01*
X203798Y158868D01*
X203557Y157966D01*
Y157034D01*
X203798Y156132D01*
X204265Y155324D01*
X204924Y154665D01*
X205732Y154198D01*
X206633Y153957D01*
X207566D01*
X208468Y154198D01*
X209276Y154665D01*
X209935Y155324D01*
X210402Y156132D01*
X210643Y157034D01*
Y157966D01*
X210402Y158868D01*
X209935Y159676D01*
X209276Y160335D01*
X208468Y160802D01*
X207566Y161043D01*
D02*
G37*
G36*
X116944Y153000D02*
X114240D01*
Y150296D01*
X114985Y150495D01*
X115720Y150920D01*
X116320Y151520D01*
X116745Y152255D01*
X116944Y153000D01*
D02*
G37*
G36*
X113240D02*
X110536D01*
X110735Y152255D01*
X111160Y151520D01*
X111760Y150920D01*
X112495Y150495D01*
X113240Y150296D01*
Y153000D01*
D02*
G37*
G36*
X145448Y156905D02*
X144552D01*
X143685Y156673D01*
X142909Y156225D01*
X142275Y155591D01*
X141827Y154815D01*
X141595Y153948D01*
Y153052D01*
X141827Y152185D01*
X142275Y151409D01*
X142909Y150775D01*
X143685Y150327D01*
X144552Y150094D01*
X145448D01*
X146315Y150327D01*
X147091Y150775D01*
X147725Y151409D01*
X148173Y152185D01*
X148406Y153052D01*
Y153948D01*
X148173Y154815D01*
X147725Y155591D01*
X147091Y156225D01*
X146315Y156673D01*
X145448Y156905D01*
D02*
G37*
G36*
X389916Y156756D02*
X388927D01*
X387971Y156500D01*
X387115Y156006D01*
X386416Y155306D01*
X385921Y154450D01*
X385665Y153495D01*
Y152506D01*
X385921Y151550D01*
X386416Y150694D01*
X387115Y149995D01*
X387971Y149500D01*
X388927Y149244D01*
X389916D01*
X390871Y149500D01*
X391727Y149995D01*
X392427Y150694D01*
X392921Y151550D01*
X393177Y152506D01*
Y153495D01*
X392921Y154450D01*
X392427Y155306D01*
X391727Y156006D01*
X390871Y156500D01*
X389916Y156756D01*
D02*
G37*
G36*
X359995D02*
X359005D01*
X358050Y156500D01*
X357194Y156006D01*
X356494Y155306D01*
X356000Y154450D01*
X355744Y153495D01*
Y152506D01*
X356000Y151550D01*
X356494Y150694D01*
X357194Y149995D01*
X358050Y149500D01*
X359005Y149244D01*
X359995D01*
X360950Y149500D01*
X361806Y149995D01*
X362506Y150694D01*
X363000Y151550D01*
X363256Y152506D01*
Y153495D01*
X363000Y154450D01*
X362506Y155306D01*
X361806Y156006D01*
X360950Y156500D01*
X359995Y156756D01*
D02*
G37*
G36*
X632961Y153500D02*
X632039D01*
X631149Y153261D01*
X630351Y152801D01*
X629699Y152149D01*
X629239Y151351D01*
X629000Y150461D01*
Y149539D01*
X629239Y148649D01*
X629699Y147851D01*
X630351Y147199D01*
X631149Y146739D01*
X632039Y146500D01*
X632961D01*
X633851Y146739D01*
X634649Y147199D01*
X635301Y147851D01*
X635761Y148649D01*
X636000Y149539D01*
Y150461D01*
X635761Y151351D01*
X635301Y152149D01*
X634649Y152801D01*
X633851Y153261D01*
X632961Y153500D01*
D02*
G37*
G36*
X623961Y153000D02*
X623039D01*
X622149Y152761D01*
X621351Y152301D01*
X620699Y151649D01*
X620238Y150851D01*
X620000Y149961D01*
Y149039D01*
X620238Y148149D01*
X620699Y147351D01*
X621351Y146699D01*
X622149Y146239D01*
X623039Y146000D01*
X623961D01*
X624851Y146239D01*
X625649Y146699D01*
X626301Y147351D01*
X626761Y148149D01*
X627000Y149039D01*
Y149961D01*
X626761Y150851D01*
X626301Y151649D01*
X625649Y152301D01*
X624851Y152761D01*
X623961Y153000D01*
D02*
G37*
G36*
X615461D02*
X614539D01*
X613649Y152761D01*
X612851Y152301D01*
X612199Y151649D01*
X611738Y150851D01*
X611500Y149961D01*
Y149039D01*
X611738Y148149D01*
X612199Y147351D01*
X612851Y146699D01*
X613649Y146239D01*
X614539Y146000D01*
X615461D01*
X616351Y146239D01*
X617149Y146699D01*
X617801Y147351D01*
X618261Y148149D01*
X618500Y149039D01*
Y149961D01*
X618261Y150851D01*
X617801Y151649D01*
X617149Y152301D01*
X616351Y152761D01*
X615461Y153000D01*
D02*
G37*
G36*
X589438Y192106D02*
X586562D01*
X583704Y191784D01*
X580900Y191144D01*
X578186Y190194D01*
X575594Y188947D01*
X573159Y187416D01*
X570910Y185623D01*
X568877Y183590D01*
X567084Y181341D01*
X565553Y178906D01*
X564306Y176315D01*
X563356Y173600D01*
X562716Y170796D01*
X562394Y167938D01*
Y165062D01*
X562716Y162204D01*
X563356Y159400D01*
X564306Y156685D01*
X565553Y154094D01*
X567084Y151659D01*
X568877Y149410D01*
X570910Y147377D01*
X573159Y145584D01*
X575594Y144053D01*
X578186Y142806D01*
X580900Y141856D01*
X583704Y141216D01*
X586562Y140894D01*
X589438D01*
X592296Y141216D01*
X595100Y141856D01*
X597815Y142806D01*
X600406Y144053D01*
X602841Y145584D01*
X605090Y147377D01*
X607123Y149410D01*
X608916Y151659D01*
X610447Y154094D01*
X611694Y156685D01*
X612644Y159400D01*
X613284Y162204D01*
X613606Y165062D01*
Y167938D01*
X613284Y170796D01*
X612644Y173600D01*
X611694Y176315D01*
X610447Y178906D01*
X608916Y181341D01*
X607123Y183590D01*
X605090Y185623D01*
X602841Y187416D01*
X600406Y188947D01*
X597815Y190194D01*
X595100Y191144D01*
X592296Y191784D01*
X589438Y192106D01*
D02*
G37*
G36*
X656964Y146783D02*
X655036D01*
X653146Y146407D01*
X651366Y145670D01*
X649763Y144599D01*
X648401Y143237D01*
X647330Y141634D01*
X646593Y139854D01*
X646216Y137964D01*
Y136036D01*
X646593Y134146D01*
X647330Y132366D01*
X648401Y130763D01*
X649763Y129401D01*
X651366Y128330D01*
X653146Y127593D01*
X655036Y127216D01*
X656964D01*
X658854Y127593D01*
X660634Y128330D01*
X662237Y129401D01*
X663599Y130763D01*
X664670Y132366D01*
X665408Y134146D01*
X665784Y136036D01*
Y137964D01*
X665408Y139854D01*
X664670Y141634D01*
X663599Y143237D01*
X662237Y144599D01*
X660634Y145670D01*
X658854Y146407D01*
X656964Y146783D01*
D02*
G37*
G36*
X116964Y144283D02*
X115036D01*
X113146Y143907D01*
X111366Y143170D01*
X109763Y142099D01*
X108401Y140737D01*
X107330Y139134D01*
X106593Y137354D01*
X106217Y135464D01*
Y133536D01*
X106593Y131646D01*
X107330Y129866D01*
X108401Y128263D01*
X109763Y126901D01*
X111366Y125830D01*
X113146Y125092D01*
X115036Y124716D01*
X116964D01*
X118854Y125092D01*
X120634Y125830D01*
X122237Y126901D01*
X123599Y128263D01*
X124670Y129866D01*
X125408Y131646D01*
X125784Y133536D01*
Y135464D01*
X125408Y137354D01*
X124670Y139134D01*
X123599Y140737D01*
X122237Y142099D01*
X120634Y143170D01*
X118854Y143907D01*
X116964Y144283D01*
D02*
G37*
%LPD*%
D17*
X563500Y408693D02*
Y409748D01*
D115*
X212000Y440500D02*
D03*
X272500Y441500D02*
D03*
D116*
X202000Y440500D02*
D03*
X262500Y441500D02*
D03*
D117*
X125500Y404500D02*
D03*
X144004D02*
D03*
X162508D02*
D03*
D118*
X609500Y467748D02*
D03*
X563500D02*
D03*
Y408693D02*
D03*
Y392945D02*
D03*
Y452000D02*
D03*
X609500D02*
D03*
Y392945D02*
D03*
Y408693D02*
D03*
D119*
X656000Y137000D02*
D03*
X658000Y485000D02*
D03*
X118000Y484000D02*
D03*
X116000Y134500D02*
D03*
D120*
X531500Y166500D02*
D03*
X588000D02*
D03*
D121*
X145000Y203500D02*
D03*
Y223500D02*
D03*
Y183500D02*
D03*
Y193500D02*
D03*
Y213500D02*
D03*
Y173500D02*
D03*
Y153500D02*
D03*
Y163500D02*
D03*
X113740Y193500D02*
D03*
Y183500D02*
D03*
Y213500D02*
D03*
Y203500D02*
D03*
Y153500D02*
D03*
Y173500D02*
D03*
Y163500D02*
D03*
X145500Y298000D02*
D03*
Y318000D02*
D03*
Y278000D02*
D03*
Y288000D02*
D03*
Y308000D02*
D03*
Y268000D02*
D03*
Y248000D02*
D03*
Y258000D02*
D03*
X114240Y288000D02*
D03*
Y278000D02*
D03*
Y308000D02*
D03*
Y298000D02*
D03*
Y248000D02*
D03*
Y268000D02*
D03*
Y258000D02*
D03*
D122*
X113740Y223500D02*
D03*
X114240Y318000D02*
D03*
D123*
X631500Y296122D02*
D03*
Y284311D02*
D03*
Y272500D02*
D03*
Y260689D02*
D03*
Y248878D02*
D03*
Y237067D02*
D03*
Y225256D02*
D03*
X619689Y307933D02*
D03*
Y296122D02*
D03*
Y284311D02*
D03*
Y272500D02*
D03*
Y260689D02*
D03*
Y248878D02*
D03*
Y237067D02*
D03*
Y225256D02*
D03*
X631500Y307933D02*
D03*
D124*
X648508Y233720D02*
D03*
Y299469D02*
D03*
D125*
X266600Y253500D02*
D03*
X267100Y197500D02*
D03*
X266600Y243500D02*
D03*
Y233500D02*
D03*
Y223500D02*
D03*
Y213500D02*
D03*
X206600D02*
D03*
Y223500D02*
D03*
Y233500D02*
D03*
Y243500D02*
D03*
X207100Y187500D02*
D03*
Y177500D02*
D03*
Y167500D02*
D03*
Y157500D02*
D03*
X267100D02*
D03*
Y167500D02*
D03*
Y177500D02*
D03*
Y187500D02*
D03*
D126*
X206600Y253500D02*
D03*
X207100Y197500D02*
D03*
D127*
X359500Y153000D02*
D03*
X389421D02*
D03*
D128*
X310500Y409500D02*
D03*
X325000Y409000D02*
D03*
X450500Y445000D02*
D03*
Y452000D02*
D03*
X569500Y349500D02*
D03*
X430500Y433500D02*
D03*
X422500Y435000D02*
D03*
X520500Y390500D02*
D03*
Y399000D02*
D03*
Y408000D02*
D03*
X501500Y390500D02*
D03*
Y399500D02*
D03*
Y408500D02*
D03*
X431500Y392000D02*
D03*
Y398500D02*
D03*
X528500Y446500D02*
D03*
X535000D02*
D03*
X521000D02*
D03*
X444000Y416000D02*
D03*
X476500Y465500D02*
D03*
Y473500D02*
D03*
Y481500D02*
D03*
Y489500D02*
D03*
X310500Y418000D02*
D03*
X325000D02*
D03*
X318500Y330000D02*
D03*
X386000Y248000D02*
D03*
X373000Y252500D02*
D03*
X268000Y296500D02*
D03*
X472000Y444500D02*
D03*
X207000Y386000D02*
D03*
X198000Y393000D02*
D03*
X337500Y136500D02*
D03*
X312000D02*
D03*
X288000D02*
D03*
X261500D02*
D03*
X235000D02*
D03*
X196500Y466500D02*
D03*
X228000D02*
D03*
X212500Y460500D02*
D03*
X205500Y490500D02*
D03*
X156500Y424000D02*
D03*
X153000Y430000D02*
D03*
X217500Y427000D02*
D03*
X226000Y423500D02*
D03*
X339500Y292500D02*
D03*
X257500Y185500D02*
D03*
Y246000D02*
D03*
Y254000D02*
D03*
Y193500D02*
D03*
X124500Y271500D02*
D03*
Y177500D02*
D03*
X204000Y410000D02*
D03*
X208000Y420500D02*
D03*
X480500Y164500D02*
D03*
Y179500D02*
D03*
X481000Y192000D02*
D03*
X494000Y192500D02*
D03*
Y165000D02*
D03*
X415000Y170000D02*
D03*
X334500Y214000D02*
D03*
X344500Y202000D02*
D03*
X311500Y210000D02*
D03*
X303000Y210500D02*
D03*
Y229000D02*
D03*
Y220500D02*
D03*
X252000Y330000D02*
D03*
X242500Y340000D02*
D03*
X190000Y408500D02*
D03*
X192000Y417500D02*
D03*
X248500Y415500D02*
D03*
X241000Y411500D02*
D03*
X183000Y415000D02*
D03*
X158000Y455500D02*
D03*
X222500D02*
D03*
X259500Y470000D02*
D03*
X268000Y491000D02*
D03*
X259500Y477500D02*
D03*
X228000Y474000D02*
D03*
Y481500D02*
D03*
X218000Y490500D02*
D03*
X196500Y474000D02*
D03*
Y481000D02*
D03*
X166000Y466000D02*
D03*
Y474000D02*
D03*
X145500Y470000D02*
D03*
Y478000D02*
D03*
X141000Y449000D02*
D03*
X130000Y434500D02*
D03*
X119500Y450000D02*
D03*
X159500Y142000D02*
D03*
X188000Y141500D02*
D03*
X188500Y133000D02*
D03*
X159500D02*
D03*
X415500Y203000D02*
D03*
X426000Y185500D02*
D03*
X404500Y186000D02*
D03*
X575000Y410500D02*
D03*
Y390000D02*
D03*
X563500Y379000D02*
D03*
X553000Y389000D02*
D03*
Y400000D02*
D03*
Y410500D02*
D03*
X622000Y410000D02*
D03*
X622500Y396000D02*
D03*
X622000Y386500D02*
D03*
X610500Y380000D02*
D03*
X597500Y384500D02*
D03*
Y395500D02*
D03*
Y409500D02*
D03*
X559500Y349500D02*
D03*
X584000Y340500D02*
D03*
X600000Y341000D02*
D03*
X611500Y341500D02*
D03*
X611000Y350000D02*
D03*
X481000Y368500D02*
D03*
X467500D02*
D03*
X423000Y285000D02*
D03*
X413000D02*
D03*
X392500D02*
D03*
X381500Y256000D02*
D03*
X344000Y273000D02*
D03*
X356000Y285500D02*
D03*
X287000Y313500D02*
D03*
X274000D02*
D03*
X230000Y281500D02*
D03*
X223500Y295500D02*
D03*
X221500Y304000D02*
D03*
X238500Y294500D02*
D03*
X242500Y281500D02*
D03*
X275000Y255500D02*
D03*
Y193500D02*
D03*
X131500Y163500D02*
D03*
X131000Y156000D02*
D03*
X122500D02*
D03*
X123000Y164000D02*
D03*
X131000Y250000D02*
D03*
Y258000D02*
D03*
X123000D02*
D03*
X217500Y386000D02*
D03*
X175000Y365500D02*
D03*
X167000Y365000D02*
D03*
X175500Y358500D02*
D03*
X424000Y489000D02*
D03*
Y480500D02*
D03*
Y472000D02*
D03*
Y463000D02*
D03*
X516000Y359000D02*
D03*
X310500Y401000D02*
D03*
X538500Y374500D02*
D03*
X195500Y425500D02*
D03*
X122500Y355000D02*
D03*
X256311Y426000D02*
D03*
X623000Y166500D02*
D03*
X495000Y179500D02*
D03*
X648500Y325500D02*
D03*
X640500Y318000D02*
D03*
X297000Y290000D02*
D03*
X631500Y174000D02*
D03*
X219000Y313500D02*
D03*
X247500Y321500D02*
D03*
X615000Y149500D02*
D03*
X632500Y150000D02*
D03*
X623500Y149500D02*
D03*
X623000Y174000D02*
D03*
X632000Y158000D02*
D03*
X623500D02*
D03*
X244574Y348926D02*
D03*
X232000Y368500D02*
D03*
X325000Y194000D02*
D03*
X185000Y442000D02*
D03*
X246500Y442500D02*
D03*
X123500Y223500D02*
D03*
X123000Y214500D02*
D03*
Y194500D02*
D03*
Y204500D02*
D03*
X146000Y327000D02*
D03*
X139500Y332500D02*
D03*
X132000Y337000D02*
D03*
X402000Y284500D02*
D03*
X287500Y299500D02*
D03*
X325500Y271000D02*
D03*
X231500Y347000D02*
D03*
X336500Y329500D02*
D03*
X329500Y306500D02*
D03*
X320000Y307000D02*
D03*
X354490Y275048D02*
D03*
X352500Y357000D02*
D03*
X335500Y356500D02*
D03*
X328500Y343000D02*
D03*
X316000Y357000D02*
D03*
X293500Y352000D02*
D03*
X603500Y207000D02*
D03*
X576500Y261500D02*
D03*
X252500Y281000D02*
D03*
X577500Y322000D02*
D03*
X586000Y325000D02*
D03*
X596500Y325500D02*
D03*
X609500Y261000D02*
D03*
X574000Y310500D02*
D03*
X534500Y230500D02*
D03*
X639500Y290500D02*
D03*
X541000Y334000D02*
D03*
X513500Y343500D02*
D03*
X570500Y267500D02*
D03*
X401500Y299500D02*
D03*
X411000Y300500D02*
D03*
X425500Y276500D02*
D03*
X417000Y265000D02*
D03*
X574000Y231000D02*
D03*
X492500Y215500D02*
D03*
X571000Y250000D02*
D03*
X488500Y242500D02*
D03*
X519500Y261000D02*
D03*
X490500Y270500D02*
D03*
X522500Y287000D02*
D03*
X603500Y279500D02*
D03*
X487500Y330000D02*
D03*
X607000Y298000D02*
D03*
X515000Y318000D02*
D03*
X489500Y303000D02*
D03*
X570500Y291000D02*
D03*
X543000Y348000D02*
D03*
X490000Y349000D02*
D03*
X203500Y333500D02*
D03*
X368000Y317500D02*
D03*
X284000Y339000D02*
D03*
X390500Y296500D02*
D03*
X388000Y224500D02*
D03*
X363500Y304500D02*
D03*
X355500Y295000D02*
D03*
X218000Y324500D02*
D03*
X225000Y319500D02*
D03*
X214500Y299000D02*
D03*
X396500Y276000D02*
D03*
X293500Y266000D02*
D03*
X297000Y303000D02*
D03*
X283500Y273500D02*
D03*
X288000Y269000D02*
D03*
X299000Y262000D02*
D03*
D129*
X587500Y475000D02*
D03*
X312500Y175000D02*
D03*
X475000Y150000D02*
D03*
X137500Y475000D02*
D03*
X550000Y450000D02*
D03*
X337500Y175000D02*
D03*
X425000Y150000D02*
D03*
X337500Y225000D02*
D03*
X575000Y400000D02*
D03*
X162500Y375000D02*
D03*
X662500Y175000D02*
D03*
X525000Y200000D02*
D03*
X362500Y175000D02*
D03*
X250000Y150000D02*
D03*
X312500Y425000D02*
D03*
X137500Y175000D02*
D03*
X187500Y375000D02*
D03*
X637500D02*
D03*
X325000Y150000D02*
D03*
X350000D02*
D03*
X587500Y425000D02*
D03*
X150000Y200000D02*
D03*
X425000D02*
D03*
X300000D02*
D03*
X662500Y275000D02*
D03*
X137500D02*
D03*
X575000Y350000D02*
D03*
X662500Y425000D02*
D03*
X437500Y225000D02*
D03*
X450000Y150000D02*
D03*
X575000Y450000D02*
D03*
X275000Y300000D02*
D03*
X600000Y200000D02*
D03*
X637500Y425000D02*
D03*
X362500Y375000D02*
D03*
X387500D02*
D03*
X237500Y225000D02*
D03*
X350000Y250000D02*
D03*
X525000D02*
D03*
X150000Y350000D02*
D03*
X612500Y425000D02*
D03*
X662500Y325000D02*
D03*
X650000Y450000D02*
D03*
X513000Y381000D02*
D03*
X437500Y175000D02*
D03*
X200000Y150000D02*
D03*
X400000Y200000D02*
D03*
X137500Y425000D02*
D03*
X500000Y200000D02*
D03*
X162500Y425000D02*
D03*
X412500Y275000D02*
D03*
X425000Y350000D02*
D03*
X250000Y250000D02*
D03*
X187500Y475000D02*
D03*
X275000Y150000D02*
D03*
X125000D02*
D03*
X450000Y200000D02*
D03*
X400000Y400000D02*
D03*
X312500Y475000D02*
D03*
X162500Y325000D02*
D03*
X375000Y350000D02*
D03*
X450000D02*
D03*
X487500Y425000D02*
D03*
X175000Y200000D02*
D03*
X287500Y375000D02*
D03*
X262500Y325000D02*
D03*
X462500Y175000D02*
D03*
X650000Y150000D02*
D03*
X500000D02*
D03*
X375000D02*
D03*
X150000D02*
D03*
X400000D02*
D03*
X375000Y200000D02*
D03*
X650000Y400000D02*
D03*
X512500Y425000D02*
D03*
X550000Y200000D02*
D03*
Y350000D02*
D03*
X175000D02*
D03*
X300000Y150000D02*
D03*
Y450000D02*
D03*
X275000Y200000D02*
D03*
X237500Y175000D02*
D03*
X150000Y450000D02*
D03*
X350000D02*
D03*
X225000D02*
D03*
X600000Y350000D02*
D03*
X575000Y200000D02*
D03*
X337500Y275000D02*
D03*
X412500Y175000D02*
D03*
X175000Y150000D02*
D03*
X362500Y225000D02*
D03*
X250000Y200000D02*
D03*
X562500Y425000D02*
D03*
X225000Y150000D02*
D03*
X487500Y225000D02*
D03*
X637500Y475000D02*
D03*
X462500Y375000D02*
D03*
X287500Y175000D02*
D03*
X600000Y250000D02*
D03*
X125000D02*
D03*
X475000Y200000D02*
D03*
X325000Y400000D02*
D03*
X275000Y250000D02*
D03*
X287500Y225000D02*
D03*
X187500D02*
D03*
X462500D02*
D03*
X487500Y175000D02*
D03*
X412500Y375000D02*
D03*
X612500Y275000D02*
D03*
X662500Y375000D02*
D03*
X225000Y350000D02*
D03*
M02*
