G04*
G04 #@! TF.GenerationSoftware,Altium Limited,Altium Designer,22.4.2 (48)*
G04*
G04 Layer_Color=16711935*
%FSLAX25Y25*%
%MOIN*%
G70*
G04*
G04 #@! TF.SameCoordinates,D9C1796D-00DA-4533-86C4-8477C41658A7*
G04*
G04*
G04 #@! TF.FilePolarity,Negative*
G04*
G01*
G75*
%ADD89R,0.06706X0.06706*%
%ADD90C,0.06706*%
%ADD91C,0.11725*%
%ADD92C,0.09800*%
%ADD93C,0.17992*%
%ADD94C,0.50013*%
%ADD95C,0.05249*%
%ADD96R,0.05249X0.05249*%
%ADD97C,0.07119*%
%ADD98C,0.06804*%
%ADD99C,0.05524*%
%ADD100R,0.05524X0.05524*%
%ADD101C,0.06312*%
D89*
X212000Y440500D02*
D03*
X272500Y441500D02*
D03*
D90*
X202000Y440500D02*
D03*
X262500Y441500D02*
D03*
D91*
X125500Y404500D02*
D03*
X144004D02*
D03*
X162508D02*
D03*
D92*
X609500Y467748D02*
D03*
X563500D02*
D03*
Y408693D02*
D03*
Y392945D02*
D03*
Y452000D02*
D03*
X609500D02*
D03*
Y392945D02*
D03*
Y408693D02*
D03*
D93*
X656000Y137000D02*
D03*
X658000Y485000D02*
D03*
X118000Y484000D02*
D03*
X116000Y134500D02*
D03*
D94*
X531500Y166500D02*
D03*
X588000D02*
D03*
D95*
X145000Y203500D02*
D03*
Y223500D02*
D03*
Y183500D02*
D03*
Y193500D02*
D03*
Y213500D02*
D03*
Y173500D02*
D03*
Y153500D02*
D03*
Y163500D02*
D03*
X113740Y193500D02*
D03*
Y183500D02*
D03*
Y213500D02*
D03*
Y203500D02*
D03*
Y153500D02*
D03*
Y173500D02*
D03*
Y163500D02*
D03*
X145500Y298000D02*
D03*
Y318000D02*
D03*
Y278000D02*
D03*
Y288000D02*
D03*
Y308000D02*
D03*
Y268000D02*
D03*
Y248000D02*
D03*
Y258000D02*
D03*
X114240Y288000D02*
D03*
Y278000D02*
D03*
Y308000D02*
D03*
Y298000D02*
D03*
Y248000D02*
D03*
Y268000D02*
D03*
Y258000D02*
D03*
D96*
X113740Y223500D02*
D03*
X114240Y318000D02*
D03*
D97*
X631500Y296122D02*
D03*
Y284311D02*
D03*
Y272500D02*
D03*
Y260689D02*
D03*
Y248878D02*
D03*
Y237067D02*
D03*
Y225256D02*
D03*
X619689Y307933D02*
D03*
Y296122D02*
D03*
Y284311D02*
D03*
Y272500D02*
D03*
Y260689D02*
D03*
Y248878D02*
D03*
Y237067D02*
D03*
Y225256D02*
D03*
X631500Y307933D02*
D03*
D98*
X648508Y233720D02*
D03*
Y299469D02*
D03*
D99*
X266600Y253500D02*
D03*
X267100Y197500D02*
D03*
X266600Y243500D02*
D03*
Y233500D02*
D03*
Y223500D02*
D03*
Y213500D02*
D03*
X206600D02*
D03*
Y223500D02*
D03*
Y233500D02*
D03*
Y243500D02*
D03*
X207100Y187500D02*
D03*
Y177500D02*
D03*
Y167500D02*
D03*
Y157500D02*
D03*
X267100D02*
D03*
Y167500D02*
D03*
Y177500D02*
D03*
Y187500D02*
D03*
D100*
X206600Y253500D02*
D03*
X207100Y197500D02*
D03*
D101*
X359500Y153000D02*
D03*
X389421D02*
D03*
M02*
