G04*
G04 #@! TF.GenerationSoftware,Altium Limited,Altium Designer,23.5.1 (21)*
G04*
G04 Layer_Physical_Order=1*
G04 Layer_Color=255*
%FSLAX25Y25*%
%MOIN*%
G70*
G04*
G04 #@! TF.SameCoordinates,F2DA617C-CCEF-44E5-B4ED-05EE2DC053E7*
G04*
G04*
G04 #@! TF.FilePolarity,Positive*
G04*
G01*
G75*
%ADD11C,0.00984*%
G04:AMPARAMS|DCode=15|XSize=62.99mil|YSize=118.11mil|CornerRadius=4.72mil|HoleSize=0mil|Usage=FLASHONLY|Rotation=90.000|XOffset=0mil|YOffset=0mil|HoleType=Round|Shape=RoundedRectangle|*
%AMROUNDEDRECTD15*
21,1,0.06299,0.10866,0,0,90.0*
21,1,0.05354,0.11811,0,0,90.0*
1,1,0.00945,0.05433,0.02677*
1,1,0.00945,0.05433,-0.02677*
1,1,0.00945,-0.05433,-0.02677*
1,1,0.00945,-0.05433,0.02677*
%
%ADD15ROUNDEDRECTD15*%
%ADD16R,0.11221X0.04921*%
%ADD17R,0.25591X0.21850*%
%ADD18C,0.03937*%
G04:AMPARAMS|DCode=19|XSize=55.12mil|YSize=35.43mil|CornerRadius=2.66mil|HoleSize=0mil|Usage=FLASHONLY|Rotation=180.000|XOffset=0mil|YOffset=0mil|HoleType=Round|Shape=RoundedRectangle|*
%AMROUNDEDRECTD19*
21,1,0.05512,0.03012,0,0,180.0*
21,1,0.04980,0.03543,0,0,180.0*
1,1,0.00532,-0.02490,0.01506*
1,1,0.00532,0.02490,0.01506*
1,1,0.00532,0.02490,-0.01506*
1,1,0.00532,-0.02490,-0.01506*
%
%ADD19ROUNDEDRECTD19*%
G04:AMPARAMS|DCode=20|XSize=49.21mil|YSize=62.99mil|CornerRadius=4.92mil|HoleSize=0mil|Usage=FLASHONLY|Rotation=90.000|XOffset=0mil|YOffset=0mil|HoleType=Round|Shape=RoundedRectangle|*
%AMROUNDEDRECTD20*
21,1,0.04921,0.05315,0,0,90.0*
21,1,0.03937,0.06299,0,0,90.0*
1,1,0.00984,0.02657,0.01968*
1,1,0.00984,0.02657,-0.01968*
1,1,0.00984,-0.02657,-0.01968*
1,1,0.00984,-0.02657,0.01968*
%
%ADD20ROUNDEDRECTD20*%
%ADD22R,0.02362X0.01181*%
G04:AMPARAMS|DCode=23|XSize=51.18mil|YSize=51.18mil|CornerRadius=5.12mil|HoleSize=0mil|Usage=FLASHONLY|Rotation=270.000|XOffset=0mil|YOffset=0mil|HoleType=Round|Shape=RoundedRectangle|*
%AMROUNDEDRECTD23*
21,1,0.05118,0.04095,0,0,270.0*
21,1,0.04095,0.05118,0,0,270.0*
1,1,0.01024,-0.02047,-0.02047*
1,1,0.01024,-0.02047,0.02047*
1,1,0.01024,0.02047,0.02047*
1,1,0.01024,0.02047,-0.02047*
%
%ADD23ROUNDEDRECTD23*%
G04:AMPARAMS|DCode=24|XSize=55.12mil|YSize=35.43mil|CornerRadius=2.66mil|HoleSize=0mil|Usage=FLASHONLY|Rotation=270.000|XOffset=0mil|YOffset=0mil|HoleType=Round|Shape=RoundedRectangle|*
%AMROUNDEDRECTD24*
21,1,0.05512,0.03012,0,0,270.0*
21,1,0.04980,0.03543,0,0,270.0*
1,1,0.00532,-0.01506,-0.02490*
1,1,0.00532,-0.01506,0.02490*
1,1,0.00532,0.01506,0.02490*
1,1,0.00532,0.01506,-0.02490*
%
%ADD24ROUNDEDRECTD24*%
%ADD25R,0.12500X0.12992*%
%ADD42R,0.10236X0.11811*%
%ADD43C,0.01968*%
%ADD44C,0.00600*%
%ADD45C,0.07874*%
%ADD46C,0.09055*%
%ADD47C,0.17717*%
%ADD48C,0.10000*%
%ADD49C,0.05000*%
G36*
X269511Y152176D02*
X272160Y151649D01*
X274744Y150866D01*
X277239Y149832D01*
X279621Y148559D01*
X281867Y147058D01*
X283955Y145345D01*
X285865Y143435D01*
X287578Y141347D01*
X289078Y139102D01*
X290352Y136720D01*
X291385Y134224D01*
X292169Y131640D01*
X292696Y128991D01*
X292961Y126303D01*
Y124953D01*
Y26528D01*
Y25177D01*
X292696Y22489D01*
X292169Y19840D01*
X291385Y17256D01*
X290352Y14761D01*
X289078Y12379D01*
X287578Y10133D01*
X285865Y8045D01*
X283955Y6135D01*
X281867Y4422D01*
X279621Y2922D01*
X277239Y1648D01*
X274744Y615D01*
X272160Y-169D01*
X270465Y-506D01*
X187916Y-961D01*
X27902D01*
X25214Y-696D01*
X22565Y-169D01*
X19980Y615D01*
X17485Y1648D01*
X15103Y2922D01*
X12857Y4422D01*
X10770Y6135D01*
X8860Y8045D01*
X7147Y10133D01*
X5646Y12379D01*
X4373Y14761D01*
X3339Y17256D01*
X2555Y19840D01*
X2028Y22489D01*
X1764Y25177D01*
Y26528D01*
Y124953D01*
Y126303D01*
X2028Y128991D01*
X2555Y131640D01*
X3339Y134224D01*
X4373Y136720D01*
X5646Y139102D01*
X7146Y141347D01*
X8860Y143435D01*
X10770Y145345D01*
X12857Y147058D01*
X15103Y148559D01*
X17485Y149832D01*
X19980Y150866D01*
X22565Y151649D01*
X25214Y152176D01*
X27902Y152441D01*
X266823D01*
X269511Y152176D01*
D02*
G37*
%LPC*%
G36*
X266404Y134931D02*
X264541D01*
X262714Y134567D01*
X260992Y133854D01*
X259443Y132819D01*
X258126Y131502D01*
X257091Y129953D01*
X256378Y128231D01*
X256014Y126404D01*
Y124541D01*
X256378Y122714D01*
X257091Y120992D01*
X258126Y119443D01*
X259443Y118126D01*
X260992Y117091D01*
X262714Y116378D01*
X264541Y116014D01*
X266404D01*
X268231Y116378D01*
X269953Y117091D01*
X271502Y118126D01*
X272819Y119443D01*
X273854Y120992D01*
X274567Y122714D01*
X274931Y124541D01*
Y126404D01*
X274567Y128231D01*
X273854Y129953D01*
X272819Y131502D01*
X271502Y132819D01*
X269953Y133854D01*
X268231Y134567D01*
X266404Y134931D01*
D02*
G37*
G36*
X30184Y134411D02*
X28320D01*
X26493Y134047D01*
X24772Y133335D01*
X23223Y132299D01*
X21905Y130982D01*
X20870Y129433D01*
X20157Y127712D01*
X19794Y125884D01*
Y124021D01*
X20157Y122194D01*
X20870Y120473D01*
X21905Y118923D01*
X23223Y117606D01*
X24772Y116571D01*
X26493Y115858D01*
X28320Y115495D01*
X30184D01*
X32011Y115858D01*
X33732Y116571D01*
X35281Y117606D01*
X36599Y118923D01*
X37634Y120473D01*
X38347Y122194D01*
X38710Y124021D01*
Y125884D01*
X38347Y127712D01*
X37634Y129433D01*
X36599Y130982D01*
X35281Y132299D01*
X33732Y133335D01*
X32011Y134047D01*
X30184Y134411D01*
D02*
G37*
G36*
X242425Y127849D02*
X154325D01*
X153866Y127659D01*
X153675Y127200D01*
Y89641D01*
X153575Y89400D01*
X153765Y88941D01*
X162051Y80656D01*
Y77963D01*
X161986Y77490D01*
X158424D01*
Y75750D01*
X157983Y75568D01*
X157793Y75109D01*
Y71959D01*
X157983Y71500D01*
X158442Y71310D01*
X183351D01*
Y58401D01*
X182889Y58210D01*
X181733Y59365D01*
X181771Y59555D01*
Y63492D01*
X181686Y63918D01*
X181445Y64280D01*
X181084Y64521D01*
X180657Y64606D01*
X175343D01*
X174916Y64521D01*
X174555Y64280D01*
X174314Y63918D01*
X174229Y63492D01*
Y59555D01*
X174314Y59129D01*
X174555Y58768D01*
X174916Y58526D01*
X175343Y58442D01*
Y57966D01*
X174760Y57850D01*
X174267Y57521D01*
X173937Y57027D01*
X173821Y56445D01*
Y54976D01*
X178000D01*
Y54476D01*
X178500D01*
Y50986D01*
X178829D01*
X179084Y50486D01*
X179002Y50373D01*
X175990D01*
X175652Y50306D01*
X175366Y50114D01*
X175175Y49828D01*
X175107Y49490D01*
Y44510D01*
X175175Y44172D01*
X175366Y43886D01*
X175652Y43694D01*
X175990Y43627D01*
X179002D01*
X179340Y43694D01*
X179626Y43886D01*
X179817Y44172D01*
X179885Y44510D01*
Y47814D01*
X182890Y50819D01*
X183352Y50627D01*
Y48742D01*
X183419Y48404D01*
X183610Y48118D01*
X183897Y47927D01*
X184234Y47859D01*
X188453D01*
X188812Y47436D01*
X188861Y46936D01*
X188964Y46743D01*
X189007Y46641D01*
X188795Y46141D01*
X184234D01*
X183897Y46073D01*
X183610Y45882D01*
X183419Y45596D01*
X183352Y45258D01*
Y42246D01*
X183419Y41908D01*
X183610Y41622D01*
X183897Y41431D01*
X184234Y41363D01*
X185611D01*
Y40637D01*
X184510D01*
X184172Y40569D01*
X183886Y40378D01*
X183694Y40092D01*
X183627Y39754D01*
Y37434D01*
X183307Y37113D01*
X158323D01*
X158055Y37577D01*
X157577Y38055D01*
X157576Y38056D01*
Y60088D01*
X159998Y62510D01*
X161986D01*
Y64891D01*
X158424D01*
Y64085D01*
X155675Y61336D01*
X155434Y60975D01*
X155349Y60549D01*
Y38485D01*
X155009Y38394D01*
X154423Y38055D01*
X153945Y37577D01*
X153606Y36991D01*
X153431Y36338D01*
Y35662D01*
X153606Y35009D01*
X153945Y34423D01*
X154423Y33945D01*
X155009Y33606D01*
X155662Y33432D01*
X156338D01*
X156991Y33606D01*
X157577Y33945D01*
X158055Y34423D01*
X158323Y34887D01*
X183724D01*
X183768Y34887D01*
X183812Y34881D01*
X183967Y34418D01*
X183872Y34354D01*
X183597Y34170D01*
X183317Y33752D01*
X183219Y33258D01*
Y32252D01*
X186500D01*
Y34548D01*
X184510D01*
X184343Y34515D01*
X184194Y34971D01*
X184326Y35059D01*
X184555Y35213D01*
X185202Y35859D01*
X189490D01*
X189828Y35927D01*
X190114Y36118D01*
X190306Y36404D01*
X190373Y36742D01*
Y39754D01*
X190306Y40092D01*
X190114Y40378D01*
X189828Y40569D01*
X189490Y40637D01*
X187838D01*
Y41363D01*
X189215D01*
X189552Y41431D01*
X189839Y41622D01*
X190030Y41908D01*
X190097Y42246D01*
Y45258D01*
X190030Y45596D01*
X189860Y45851D01*
X189896Y46018D01*
X190038Y46351D01*
X249472D01*
X249504Y46363D01*
X249536Y46354D01*
X249729Y46457D01*
X249754Y46467D01*
X249876Y46285D01*
X250243Y46039D01*
X250677Y45953D01*
X254772D01*
X255205Y46039D01*
X255573Y46285D01*
X255819Y46653D01*
X255905Y47087D01*
Y47886D01*
X257351D01*
Y47494D01*
X257419Y47156D01*
X257610Y46870D01*
X257896Y46679D01*
X258234Y46611D01*
X263215D01*
X263552Y46679D01*
X264022Y46541D01*
X264217Y46460D01*
X264400Y46356D01*
X264442Y46367D01*
X264481Y46351D01*
X289000D01*
X289459Y46541D01*
X289649Y47000D01*
X289649Y88000D01*
X289459Y88459D01*
X289000Y88649D01*
X243074D01*
Y127200D01*
X242884Y127659D01*
X242425Y127849D01*
D02*
G37*
G36*
X50047Y54315D02*
X45953D01*
X45519Y54228D01*
X45151Y53983D01*
X44905Y53615D01*
X44819Y53181D01*
Y52247D01*
X41373D01*
Y53258D01*
X41306Y53596D01*
X41114Y53882D01*
X40828Y54073D01*
X40490Y54141D01*
X35510D01*
X35172Y54073D01*
X34886Y53882D01*
X34694Y53596D01*
X34627Y53258D01*
Y50246D01*
X34694Y49908D01*
X34886Y49622D01*
X35172Y49431D01*
X35510Y49363D01*
X40490D01*
X40828Y49431D01*
X41114Y49622D01*
X41306Y49908D01*
X41328Y50020D01*
X44819D01*
Y49087D01*
X44905Y48653D01*
X45151Y48285D01*
X45519Y48039D01*
X45953Y47953D01*
X50047D01*
X50481Y48039D01*
X50849Y48285D01*
X51095Y48653D01*
X51181Y49087D01*
Y53181D01*
X51095Y53615D01*
X50849Y53983D01*
X50481Y54228D01*
X50047Y54315D01*
D02*
G37*
G36*
X134908Y93400D02*
X134092D01*
X133303Y93189D01*
X132597Y92781D01*
X132019Y92203D01*
X131611Y91497D01*
X131400Y90708D01*
Y89892D01*
X131611Y89103D01*
X132019Y88397D01*
X132597Y87819D01*
X132885Y87653D01*
Y86164D01*
X133008Y85546D01*
X133358Y85022D01*
X134427Y83952D01*
Y82449D01*
X32300D01*
X31841Y82259D01*
X31651Y81800D01*
Y55800D01*
X31841Y55341D01*
X32300Y55151D01*
X34016D01*
X34076Y55176D01*
X34140Y55163D01*
X34299Y55268D01*
X34475Y55341D01*
X34500Y55401D01*
X34554Y55437D01*
X34826Y55840D01*
X35172Y55927D01*
X35510Y55859D01*
X40490D01*
X40828Y55927D01*
X41174Y55840D01*
X41446Y55437D01*
X41500Y55401D01*
X41525Y55341D01*
X41701Y55268D01*
X41860Y55163D01*
X41924Y55176D01*
X41984Y55151D01*
X87199D01*
X87839Y54782D01*
X89263Y54400D01*
X90737D01*
X92162Y54782D01*
X92800Y55151D01*
X98327D01*
X98460Y55206D01*
X98586Y55018D01*
X98872Y54827D01*
X99210Y54759D01*
X104190D01*
X104528Y54827D01*
X104814Y55018D01*
X105006Y55304D01*
X105073Y55642D01*
Y56836D01*
X107214D01*
X107234Y56762D01*
X107572Y56177D01*
X108050Y55699D01*
X108636Y55361D01*
X109289Y55185D01*
X109965D01*
X110618Y55361D01*
X110883Y55513D01*
X111226Y55525D01*
X111504Y55395D01*
X111555Y55344D01*
X111556Y55341D01*
X111685Y55287D01*
X111786Y55192D01*
X111905Y55196D01*
X112015Y55151D01*
X140990D01*
Y53353D01*
X141039Y53109D01*
X140043Y52113D01*
X138323D01*
X138055Y52577D01*
X137577Y53055D01*
X136991Y53394D01*
X136338Y53569D01*
X135662D01*
X135009Y53394D01*
X134423Y53055D01*
X133945Y52577D01*
X133607Y51991D01*
X133431Y51338D01*
Y50662D01*
X133607Y50009D01*
X133945Y49423D01*
X134423Y48945D01*
X135009Y48607D01*
X135662Y48432D01*
X136338D01*
X136991Y48607D01*
X137577Y48945D01*
X138055Y49423D01*
X138323Y49887D01*
X140108D01*
X140506Y49872D01*
X140582Y49400D01*
Y48863D01*
X143863D01*
Y51159D01*
X142891D01*
X142700Y51621D01*
X143549Y52470D01*
X146853D01*
X147191Y52538D01*
X147477Y52729D01*
X147669Y53015D01*
X147736Y53353D01*
Y56365D01*
X147669Y56703D01*
X147477Y56989D01*
X147191Y57181D01*
X146853Y57248D01*
X145476D01*
Y62510D01*
X147025D01*
Y64891D01*
X144256D01*
X143991Y65362D01*
X144162Y65660D01*
X147025D01*
Y68041D01*
X146674D01*
Y68809D01*
X147025D01*
Y71191D01*
X146674D01*
Y71959D01*
X147025D01*
Y74340D01*
X146759D01*
X146545Y74763D01*
X146832Y75109D01*
X147025D01*
Y77490D01*
X146987D01*
X146932Y77527D01*
X146668Y77952D01*
X146656Y77997D01*
X146674Y78039D01*
Y81800D01*
X146484Y82259D01*
X146024Y82449D01*
X141173D01*
Y85354D01*
X141106Y85692D01*
X140914Y85978D01*
X140628Y86169D01*
X140290Y86237D01*
X136712D01*
X136115Y86833D01*
Y87653D01*
X136403Y87819D01*
X136981Y88397D01*
X137389Y89103D01*
X137600Y89892D01*
Y90708D01*
X137389Y91497D01*
X136981Y92203D01*
X136403Y92781D01*
X135697Y93189D01*
X134908Y93400D01*
D02*
G37*
G36*
X104190Y53448D02*
X102200D01*
Y51152D01*
X105481D01*
Y52158D01*
X105383Y52652D01*
X105103Y53070D01*
X104684Y53350D01*
X104190Y53448D01*
D02*
G37*
G36*
X101200D02*
X99210D01*
X98716Y53350D01*
X98297Y53070D01*
X98018Y52652D01*
X97919Y52158D01*
Y51152D01*
X101200D01*
Y53448D01*
D02*
G37*
G36*
X177500Y53976D02*
X173821D01*
Y52508D01*
X173937Y51926D01*
X174267Y51432D01*
X174760Y51102D01*
X175343Y50986D01*
X177500D01*
Y53976D01*
D02*
G37*
G36*
X172179D02*
X168500D01*
Y50986D01*
X170658D01*
X171240Y51102D01*
X171733Y51432D01*
X172063Y51926D01*
X172179Y52508D01*
Y53976D01*
D02*
G37*
G36*
X161986Y68041D02*
X158424D01*
Y65660D01*
X161986D01*
Y65737D01*
X166389D01*
X166886Y65240D01*
Y64606D01*
X165342D01*
X164916Y64521D01*
X164555Y64280D01*
X164314Y63918D01*
X164229Y63492D01*
Y60016D01*
X161531Y57318D01*
X161289Y56957D01*
X161204Y56531D01*
Y47053D01*
X161240Y46873D01*
X160945Y46577D01*
X160607Y45991D01*
X160432Y45338D01*
Y44662D01*
X160607Y44009D01*
X160945Y43423D01*
X161423Y42945D01*
X162009Y42606D01*
X162662Y42432D01*
X163338D01*
X163991Y42606D01*
X164577Y42945D01*
X165055Y43423D01*
X165323Y43887D01*
X168869D01*
X168870Y43886D01*
X169156Y43694D01*
X169494Y43627D01*
X172506D01*
X172844Y43694D01*
X173130Y43886D01*
X173321Y44172D01*
X173389Y44510D01*
Y49490D01*
X173321Y49828D01*
X173130Y50114D01*
X172844Y50306D01*
X172506Y50373D01*
X169494D01*
X169156Y50306D01*
X168870Y50114D01*
X168679Y49828D01*
X168611Y49490D01*
Y46113D01*
X165323D01*
X165055Y46577D01*
X164577Y47055D01*
X163991Y47394D01*
X163432Y47543D01*
Y51904D01*
X163932Y51953D01*
X163937Y51926D01*
X164267Y51432D01*
X164760Y51102D01*
X165342Y50986D01*
X167500D01*
Y54476D01*
X168000D01*
Y54976D01*
X172179D01*
Y56445D01*
X172063Y57027D01*
X171733Y57521D01*
X171240Y57850D01*
X170658Y57966D01*
Y58442D01*
X171084Y58526D01*
X171445Y58768D01*
X171686Y59129D01*
X171771Y59555D01*
Y63492D01*
X171686Y63918D01*
X171445Y64280D01*
X171084Y64521D01*
X170658Y64606D01*
X169114D01*
Y65701D01*
X169029Y66127D01*
X168787Y66488D01*
X168787Y66488D01*
X167638Y67638D01*
X167277Y67879D01*
X166850Y67964D01*
X161986D01*
Y68041D01*
D02*
G37*
G36*
X146853Y51159D02*
X144863D01*
Y48863D01*
X148144D01*
Y49869D01*
X148046Y50363D01*
X147766Y50782D01*
X147347Y51061D01*
X146853Y51159D01*
D02*
G37*
G36*
X105481Y50152D02*
X102200D01*
Y47855D01*
X104190D01*
X104684Y47954D01*
X105103Y48234D01*
X105383Y48652D01*
X105481Y49146D01*
Y50152D01*
D02*
G37*
G36*
X101200D02*
X97919D01*
Y49146D01*
X98018Y48652D01*
X98297Y48234D01*
X98716Y47954D01*
X99210Y47855D01*
X101200D01*
Y50152D01*
D02*
G37*
G36*
X148144Y47863D02*
X144863D01*
Y45567D01*
X146853D01*
X147347Y45665D01*
X147766Y45944D01*
X148046Y46363D01*
X148144Y46857D01*
Y47863D01*
D02*
G37*
G36*
X143863D02*
X140582D01*
Y46857D01*
X140681Y46363D01*
X140960Y45944D01*
X141379Y45665D01*
X141873Y45567D01*
X143863D01*
Y47863D01*
D02*
G37*
G36*
X189490Y34548D02*
X187500D01*
Y32252D01*
X190781D01*
Y33258D01*
X190682Y33752D01*
X190403Y34170D01*
X189984Y34450D01*
X189490Y34548D01*
D02*
G37*
G36*
X190781Y31252D02*
X187500D01*
Y28956D01*
X189490D01*
X189984Y29054D01*
X190403Y29333D01*
X190682Y29752D01*
X190781Y30246D01*
Y31252D01*
D02*
G37*
G36*
X186500D02*
X183219D01*
Y30246D01*
X183317Y29752D01*
X183597Y29333D01*
X184016Y29054D01*
X184510Y28956D01*
X186500D01*
Y31252D01*
D02*
G37*
G36*
X117108Y25500D02*
X116292D01*
X115503Y25289D01*
X114797Y24881D01*
X114219Y24303D01*
X113811Y23597D01*
X113762Y23414D01*
X111465D01*
X111255Y23777D01*
X110777Y24255D01*
X110191Y24593D01*
X109538Y24769D01*
X108862D01*
X108209Y24593D01*
X107623Y24255D01*
X107145Y23777D01*
X106807Y23191D01*
X106632Y22538D01*
Y21862D01*
X106807Y21209D01*
X107145Y20623D01*
X107623Y20145D01*
X108209Y19806D01*
X108862Y19632D01*
X109538D01*
X110191Y19806D01*
X110777Y20145D01*
X111255Y20623D01*
X111581Y21186D01*
X113205D01*
X113412Y20686D01*
X113247Y20522D01*
X113006Y20161D01*
X112921Y19735D01*
Y13573D01*
X112283Y13402D01*
X111249Y12804D01*
X110404Y11960D01*
X109807Y10925D01*
X109498Y9771D01*
Y8577D01*
X109807Y7423D01*
X110404Y6388D01*
X111249Y5544D01*
X112283Y4946D01*
X113437Y4637D01*
X114632D01*
X115786Y4946D01*
X116820Y5544D01*
X117665Y6388D01*
X118263Y7423D01*
X118572Y8577D01*
Y9771D01*
X118263Y10925D01*
X117665Y11960D01*
X116820Y12804D01*
X115786Y13402D01*
X115148Y13573D01*
Y19161D01*
X115304Y19315D01*
X115555Y19497D01*
X116292Y19300D01*
X117108D01*
X117897Y19511D01*
X118603Y19919D01*
X119181Y20497D01*
X119589Y21203D01*
X119800Y21992D01*
Y22808D01*
X119589Y23597D01*
X119181Y24303D01*
X118603Y24881D01*
X117897Y25289D01*
X117108Y25500D01*
D02*
G37*
G36*
X30459Y38986D02*
X28596D01*
X26769Y38622D01*
X25047Y37909D01*
X23498Y36874D01*
X22181Y35557D01*
X21146Y34008D01*
X20433Y32286D01*
X20069Y30459D01*
Y28596D01*
X20433Y26769D01*
X21146Y25047D01*
X22181Y23498D01*
X23498Y22181D01*
X25047Y21146D01*
X26769Y20433D01*
X28596Y20069D01*
X30459D01*
X32286Y20433D01*
X34008Y21146D01*
X35557Y22181D01*
X36874Y23498D01*
X37909Y25047D01*
X38622Y26769D01*
X38986Y28596D01*
Y30459D01*
X38622Y32286D01*
X37909Y34008D01*
X36874Y35557D01*
X35557Y36874D01*
X34008Y37909D01*
X32286Y38622D01*
X30459Y38986D01*
D02*
G37*
G36*
X266404Y35986D02*
X264541D01*
X262714Y35622D01*
X260992Y34909D01*
X259443Y33874D01*
X258126Y32557D01*
X257091Y31008D01*
X256378Y29286D01*
X256014Y27459D01*
Y25596D01*
X256378Y23769D01*
X257091Y22047D01*
X258126Y20498D01*
X259443Y19181D01*
X260992Y18146D01*
X262714Y17433D01*
X264541Y17069D01*
X266404D01*
X268231Y17433D01*
X269953Y18146D01*
X271502Y19181D01*
X272819Y20498D01*
X273854Y22047D01*
X274567Y23769D01*
X274931Y25596D01*
Y27459D01*
X274567Y29286D01*
X273854Y31008D01*
X272819Y32557D01*
X271502Y33874D01*
X269953Y34909D01*
X268231Y35622D01*
X266404Y35986D01*
D02*
G37*
G36*
X104789Y13711D02*
X103595D01*
X102441Y13402D01*
X101406Y12804D01*
X100562Y11960D01*
X99964Y10925D01*
X99655Y9771D01*
Y8577D01*
X99964Y7423D01*
X100562Y6388D01*
X101406Y5544D01*
X102441Y4946D01*
X103595Y4637D01*
X104789D01*
X105943Y4946D01*
X106978Y5544D01*
X107823Y6388D01*
X108420Y7423D01*
X108729Y8577D01*
Y9771D01*
X108420Y10925D01*
X107823Y11960D01*
X106978Y12804D01*
X105943Y13402D01*
X104789Y13711D01*
D02*
G37*
%LPD*%
G36*
X242425Y88649D02*
X184000D01*
X183541Y88459D01*
X183351Y88000D01*
Y80900D01*
Y71959D01*
X158442D01*
Y75109D01*
X161986D01*
Y75109D01*
X161987Y75110D01*
X162700Y75097D01*
Y80900D01*
X162725D01*
X154225Y89400D01*
X154325Y89500D01*
Y127200D01*
X242425D01*
Y88649D01*
D02*
G37*
G36*
X289000Y47000D02*
X264481D01*
X264097Y47494D01*
Y50506D01*
X264030Y50844D01*
X263839Y51130D01*
X263552Y51321D01*
X263215Y51389D01*
X258234D01*
X257896Y51321D01*
X257610Y51130D01*
X257419Y50844D01*
X257351Y50506D01*
Y50113D01*
X255905D01*
Y51181D01*
X255819Y51615D01*
X255573Y51983D01*
X255205Y52228D01*
X254772Y52315D01*
X250677D01*
X250243Y52228D01*
X249876Y51983D01*
X249630Y51615D01*
X249544Y51181D01*
Y47087D01*
X249472Y47000D01*
X189507D01*
X189458Y47500D01*
X189708Y47550D01*
X190127Y47830D01*
X190407Y48248D01*
X190505Y48742D01*
Y49748D01*
X186724D01*
Y50248D01*
X186224D01*
Y53044D01*
X184234D01*
X184114Y53144D01*
Y56524D01*
X184114Y56524D01*
X184029Y56950D01*
X184000Y56993D01*
Y88000D01*
X289000D01*
X289000Y47000D01*
D02*
G37*
%LPC*%
G36*
X184094Y121225D02*
X170798D01*
Y109800D01*
X184094D01*
Y121225D01*
D02*
G37*
G36*
X169798D02*
X156503D01*
Y109800D01*
X169798D01*
Y121225D01*
D02*
G37*
G36*
X184094Y108800D02*
X170798D01*
Y97375D01*
X184094D01*
Y108800D01*
D02*
G37*
G36*
X169798D02*
X156503D01*
Y97375D01*
X169798D01*
Y108800D01*
D02*
G37*
G36*
X263215Y58293D02*
X261224D01*
Y55996D01*
X264505D01*
Y57002D01*
X264407Y57496D01*
X264127Y57915D01*
X263708Y58194D01*
X263215Y58293D01*
D02*
G37*
G36*
X260224D02*
X258234D01*
X257740Y58194D01*
X257322Y57915D01*
X257042Y57496D01*
X256944Y57002D01*
Y55996D01*
X260224D01*
Y58293D01*
D02*
G37*
G36*
X264505Y54996D02*
X261224D01*
Y52700D01*
X263215D01*
X263708Y52798D01*
X264127Y53078D01*
X264407Y53496D01*
X264505Y53990D01*
Y54996D01*
D02*
G37*
G36*
X260224D02*
X256944D01*
Y53990D01*
X257042Y53496D01*
X257322Y53078D01*
X257740Y52798D01*
X258234Y52700D01*
X260224D01*
Y54996D01*
D02*
G37*
G36*
X189215Y53044D02*
X187224D01*
Y50748D01*
X190505D01*
Y51754D01*
X190407Y52248D01*
X190127Y52666D01*
X189708Y52946D01*
X189215Y53044D01*
D02*
G37*
%LPD*%
G36*
X146024Y78039D02*
X145524Y77659D01*
X145244Y77715D01*
X141173D01*
Y78858D01*
X141106Y79196D01*
X140914Y79482D01*
X140628Y79673D01*
X140290Y79741D01*
X135310D01*
X134972Y79673D01*
X134686Y79482D01*
X134494Y79196D01*
X134427Y78858D01*
Y75846D01*
X134494Y75508D01*
X134686Y75222D01*
X134972Y75031D01*
X135310Y74963D01*
X137904D01*
X137910Y74958D01*
X138434Y74608D01*
X139052Y74485D01*
X145244D01*
X145524Y74541D01*
X146024Y74160D01*
Y71191D01*
X143463D01*
Y71114D01*
X138592D01*
X138166Y71029D01*
X137805Y70787D01*
X136574Y69557D01*
X136500Y69600D01*
X135712Y69811D01*
X134895D01*
X134107Y69600D01*
X133400Y69192D01*
X132823Y68615D01*
X132415Y67908D01*
X132203Y67119D01*
Y66303D01*
X132415Y65515D01*
X132823Y64808D01*
X133400Y64231D01*
X134107Y63823D01*
X134895Y63611D01*
X135712D01*
X136500Y63823D01*
X137207Y64231D01*
X137784Y64808D01*
X138192Y65515D01*
X138403Y66303D01*
Y67119D01*
X138192Y67908D01*
X138149Y67982D01*
X139053Y68887D01*
X143463D01*
Y68809D01*
X146024D01*
Y68041D01*
X143463D01*
Y67962D01*
X143354D01*
X142928Y67878D01*
X142567Y67636D01*
X133798Y58867D01*
X111950D01*
X111682Y59331D01*
X111204Y59809D01*
X110618Y60147D01*
X109965Y60322D01*
X109289D01*
X108636Y60147D01*
X108050Y59809D01*
X107572Y59331D01*
X107234Y58745D01*
X107214Y58672D01*
X105069D01*
X105006Y58992D01*
X104814Y59278D01*
X104528Y59469D01*
X104190Y59537D01*
X99210D01*
X98872Y59469D01*
X98586Y59278D01*
X98394Y58992D01*
X98327Y58654D01*
Y55800D01*
X41984D01*
X41713Y56203D01*
X41693Y56300D01*
X41781Y56742D01*
Y57748D01*
X34219D01*
Y56742D01*
X34307Y56300D01*
X34287Y56203D01*
X34016Y55800D01*
X32300D01*
Y81800D01*
X134631D01*
X134686Y81718D01*
X134972Y81527D01*
X135310Y81459D01*
X140290D01*
X140628Y81527D01*
X140914Y81718D01*
X140969Y81800D01*
X146024D01*
Y78039D01*
D02*
G37*
G36*
X143463Y64676D02*
Y64029D01*
X143334Y63836D01*
X143249Y63410D01*
Y57248D01*
X141873D01*
X141535Y57181D01*
X141249Y56989D01*
X141057Y56703D01*
X140990Y56365D01*
Y55800D01*
X112015D01*
X111814Y56243D01*
X112067Y56640D01*
X134259D01*
X134686Y56725D01*
X135047Y56967D01*
X142963Y64883D01*
X143463Y64676D01*
D02*
G37*
%LPC*%
G36*
X40490Y61045D02*
X38500D01*
Y58748D01*
X41781D01*
Y59754D01*
X41682Y60248D01*
X41403Y60667D01*
X40984Y60946D01*
X40490Y61045D01*
D02*
G37*
G36*
X37500D02*
X35510D01*
X35016Y60946D01*
X34597Y60667D01*
X34317Y60248D01*
X34219Y59754D01*
Y58748D01*
X37500D01*
Y61045D01*
D02*
G37*
%LPD*%
D11*
X135303Y66711D02*
X138592Y70000D01*
X145244D01*
X140504Y51000D02*
X144115Y54611D01*
X114035Y19735D02*
X116600Y22300D01*
X109627Y57754D02*
X134259D01*
X143354Y66849D01*
X114035Y9174D02*
Y19735D01*
X109300Y22300D02*
X116600D01*
X38000Y51134D02*
X48000D01*
X145243Y66849D02*
X145244Y66850D01*
X143354Y66849D02*
X145243D01*
X136000Y51000D02*
X140504D01*
X144363Y54859D02*
Y63410D01*
X177496Y47000D02*
X183000Y52504D01*
Y56524D01*
X178000Y61524D02*
X183000Y56524D01*
X162435Y45565D02*
X163000Y45000D01*
X162435Y45565D02*
Y46936D01*
X162318Y47053D02*
X162435Y46936D01*
X162318Y47053D02*
Y56531D01*
X167311Y61524D01*
X168000D01*
Y65701D01*
X166850Y66850D02*
X168000Y65701D01*
X171000Y46279D02*
Y47000D01*
X169720Y45000D02*
X171000Y46279D01*
X163000Y45000D02*
X169720D01*
X183768Y36000D02*
X186016Y38248D01*
X156000Y36000D02*
X183768D01*
X156462Y60549D02*
X159614Y63701D01*
X156462Y36462D02*
Y60549D01*
X156000Y36000D02*
X156462Y36462D01*
X186016Y38248D02*
X187000D01*
X160205Y66850D02*
X166850D01*
X185740Y43752D02*
X186724D01*
X159614Y63701D02*
X160205D01*
X186724Y38248D02*
Y43752D01*
X252724Y49134D02*
X252858Y49000D01*
X260724D01*
D15*
X236724Y36113D02*
D03*
Y50287D02*
D03*
X91000Y90087D02*
D03*
Y75913D02*
D03*
X108000Y90087D02*
D03*
Y75913D02*
D03*
X123100Y90187D02*
D03*
Y76013D02*
D03*
X218824Y36313D02*
D03*
Y50487D02*
D03*
X201024Y36613D02*
D03*
Y50787D02*
D03*
D16*
X145102Y118454D02*
D03*
Y100146D02*
D03*
D17*
X170298Y109300D02*
D03*
D18*
X208724Y61200D02*
D03*
X109200Y22200D02*
D03*
X136000Y51000D02*
D03*
X109627Y57754D02*
D03*
X163000Y45000D02*
D03*
X156000Y36000D02*
D03*
X179500Y90700D02*
D03*
D19*
X186724Y43752D02*
D03*
Y50248D02*
D03*
X38000Y58248D02*
D03*
Y51752D02*
D03*
X187000Y38248D02*
D03*
Y31752D02*
D03*
X144363Y48363D02*
D03*
Y54859D02*
D03*
X101700Y57148D02*
D03*
Y50652D02*
D03*
X137800Y83848D02*
D03*
Y77352D02*
D03*
X260724Y49000D02*
D03*
Y55496D02*
D03*
D20*
X168000Y61524D02*
D03*
Y54476D02*
D03*
X178000D02*
D03*
Y61524D02*
D03*
D22*
X160205Y63701D02*
D03*
Y66850D02*
D03*
Y70000D02*
D03*
Y73150D02*
D03*
Y76299D02*
D03*
X145244Y63701D02*
D03*
Y66850D02*
D03*
Y70000D02*
D03*
Y73150D02*
D03*
Y76299D02*
D03*
D23*
X48000Y51134D02*
D03*
Y42866D02*
D03*
X252724Y49134D02*
D03*
Y40866D02*
D03*
D24*
X177496Y47000D02*
D03*
X171000D02*
D03*
D25*
X211700Y70600D02*
D03*
Y115600D02*
D03*
D42*
X152724Y70000D02*
D03*
D43*
X139052Y76100D02*
X145244D01*
X134500Y86164D02*
X136816Y83848D01*
X134500Y86164D02*
Y90300D01*
X136816Y83848D02*
X137800D01*
Y77352D02*
X139052Y76100D01*
D44*
X136816Y77352D02*
X137800D01*
X101700Y57148D02*
X102306Y57754D01*
X109627D01*
X144239Y54735D02*
X144363Y54859D01*
X144115Y54611D02*
X144239Y54735D01*
X116600Y22300D02*
X116700Y22400D01*
X109200Y22200D02*
X109300Y22300D01*
X179709Y68300D02*
X180900D01*
X178009Y70000D02*
X179709Y68300D01*
X160205Y70000D02*
X178009D01*
X144653Y63701D02*
X145244D01*
X144363Y63410D02*
X144653Y63701D01*
X144363Y54859D02*
X144726Y55222D01*
D45*
X104192Y9174D02*
D03*
X114035D02*
D03*
X123877D02*
D03*
D46*
X267000Y97843D02*
D03*
Y78158D02*
D03*
X64000Y73000D02*
D03*
Y92685D02*
D03*
D47*
X29528Y29528D02*
D03*
X265472Y125472D02*
D03*
Y26528D02*
D03*
X29252Y124953D02*
D03*
D48*
X9000Y55000D02*
D03*
X90000Y60000D02*
D03*
X287000Y118000D02*
D03*
X273000Y58000D02*
D03*
X284000Y38000D02*
D03*
D49*
X159400Y90500D02*
D03*
X134500Y90300D02*
D03*
X135303Y66711D02*
D03*
X154400Y72758D02*
D03*
X150700Y67357D02*
D03*
X275200Y109200D02*
D03*
X262600D02*
D03*
X287100Y100700D02*
D03*
X286700Y92400D02*
D03*
X251600Y100200D02*
D03*
X251500Y91900D02*
D03*
X286928Y109202D02*
D03*
X251494D02*
D03*
X106400Y32100D02*
D03*
X116700Y22400D02*
D03*
X180900Y68300D02*
D03*
X14000Y106000D02*
D03*
Y86000D02*
D03*
Y67000D02*
D03*
X37000Y86000D02*
D03*
Y96000D02*
D03*
X85000Y108000D02*
D03*
X72000D02*
D03*
X58000D02*
D03*
X38000Y107000D02*
D03*
X288500Y132158D02*
D03*
Y32157D02*
D03*
X276000Y7158D02*
D03*
X251000D02*
D03*
X238500Y132158D02*
D03*
X226000Y7158D02*
D03*
X213500Y132158D02*
D03*
Y32157D02*
D03*
X201000Y7158D02*
D03*
X188500Y132158D02*
D03*
X176000Y7158D02*
D03*
X163500Y132158D02*
D03*
X151000Y57157D02*
D03*
X163500Y32157D02*
D03*
X151000Y7158D02*
D03*
X138500Y132158D02*
D03*
X126000Y107158D02*
D03*
X138500Y32157D02*
D03*
X113500Y132158D02*
D03*
X101000Y107158D02*
D03*
X88500Y132158D02*
D03*
Y32157D02*
D03*
X76000Y7158D02*
D03*
X63500Y132158D02*
D03*
Y32157D02*
D03*
X51000Y7158D02*
D03*
X26000D02*
D03*
M02*
