G04*
G04 #@! TF.GenerationSoftware,Altium Limited,Altium Designer,23.5.1 (21)*
G04*
G04 Layer_Physical_Order=2*
G04 Layer_Color=32768*
%FSLAX25Y25*%
%MOIN*%
G70*
G04*
G04 #@! TF.SameCoordinates,F2DA617C-CCEF-44E5-B4ED-05EE2DC053E7*
G04*
G04*
G04 #@! TF.FilePolarity,Negative*
G04*
G01*
G75*
%ADD50C,0.04000*%
%ADD51C,0.07937*%
G04:AMPARAMS|DCode=52|XSize=99.37mil|YSize=99.37mil|CornerRadius=0mil|HoleSize=0mil|Usage=FLASHONLY|Rotation=0.000|XOffset=0mil|YOffset=0mil|HoleType=Round|Shape=Relief|Width=10mil|Gap=10mil|Entries=4|*
%AMTHD52*
7,0,0,0.09937,0.07937,0.01000,45*
%
%ADD52THD52*%
G04:AMPARAMS|DCode=53|XSize=112.165mil|YSize=112.165mil|CornerRadius=0mil|HoleSize=0mil|Usage=FLASHONLY|Rotation=0.000|XOffset=0mil|YOffset=0mil|HoleType=Round|Shape=Relief|Width=10mil|Gap=10mil|Entries=4|*
%AMTHD53*
7,0,0,0.11217,0.09217,0.01000,45*
%
%ADD53THD53*%
%ADD54C,0.09217*%
%ADD55C,0.16000*%
G04:AMPARAMS|DCode=56|XSize=100.157mil|YSize=100.157mil|CornerRadius=0mil|HoleSize=0mil|Usage=FLASHONLY|Rotation=0.000|XOffset=0mil|YOffset=0mil|HoleType=Round|Shape=Relief|Width=10mil|Gap=10mil|Entries=4|*
%AMTHD56*
7,0,0,0.10016,0.08016,0.01000,45*
%
%ADD56THD56*%
%ADD57C,0.08016*%
%ADD58C,0.06800*%
D50*
X-276Y26528D02*
X-258Y25519D01*
X-207Y24512D01*
X-121Y23508D01*
X-1Y22507D01*
X154Y21510D01*
X342Y20520D01*
X564Y19536D01*
X819Y18561D01*
X1108Y17595D01*
X1429Y16639D01*
X1783Y15695D01*
X2169Y14764D01*
X2586Y13846D01*
X3035Y12943D01*
X3514Y12056D01*
X4023Y11186D01*
X4562Y10333D01*
X5129Y9500D01*
X5724Y8686D01*
X6347Y7893D01*
X6997Y7122D01*
X7672Y6373D01*
X8373Y5648D01*
X9098Y4948D01*
X9846Y4272D01*
X10617Y3623D01*
X11410Y3000D01*
X12224Y2404D01*
X13058Y1837D01*
X13910Y1299D01*
X14780Y790D01*
X15667Y310D01*
X16570Y-138D01*
X17488Y-556D01*
X18420Y-941D01*
X19364Y-1295D01*
X20320Y-1616D01*
X21286Y-1905D01*
X22261Y-2160D01*
X23245Y-2382D01*
X24235Y-2571D01*
X25231Y-2725D01*
X26232Y-2845D01*
X27237Y-2931D01*
X28244Y-2983D01*
X29252Y-3000D01*
X265472D02*
X266480Y-2983D01*
X267488Y-2931D01*
X268492Y-2845D01*
X269493Y-2725D01*
X270490Y-2571D01*
X271480Y-2382D01*
X272463Y-2160D01*
X273439Y-1905D01*
X274405Y-1616D01*
X275361Y-1295D01*
X276305Y-941D01*
X277236Y-556D01*
X278154Y-138D01*
X279057Y310D01*
X279944Y790D01*
X280814Y1299D01*
X281667Y1837D01*
X282500Y2404D01*
X283314Y3000D01*
X284107Y3623D01*
X284878Y4272D01*
X285627Y4948D01*
X286351Y5648D01*
X287052Y6373D01*
X287728Y7122D01*
X288377Y7893D01*
X289000Y8686D01*
X289596Y9499D01*
X290163Y10333D01*
X290701Y11185D01*
X291210Y12056D01*
X291689Y12943D01*
X292138Y13846D01*
X292555Y14764D01*
X292941Y15695D01*
X293295Y16639D01*
X293616Y17595D01*
X293905Y18561D01*
X294160Y19536D01*
X294382Y20520D01*
X294571Y21510D01*
X294725Y22507D01*
X294845Y23508D01*
X294931Y24512D01*
X294983Y25519D01*
X295000Y26527D01*
Y124953D02*
X294983Y125961D01*
X294931Y126968D01*
X294845Y127972D01*
X294725Y128973D01*
X294571Y129970D01*
X294382Y130960D01*
X294160Y131944D01*
X293905Y132919D01*
X293617Y133885D01*
X293295Y134841D01*
X292941Y135785D01*
X292555Y136717D01*
X292138Y137634D01*
X291689Y138537D01*
X291210Y139425D01*
X290701Y140295D01*
X290163Y141147D01*
X289596Y141981D01*
X289000Y142794D01*
X288377Y143587D01*
X287728Y144358D01*
X287052Y145107D01*
X286352Y145832D01*
X285627Y146532D01*
X284878Y147208D01*
X284107Y147858D01*
X283314Y148480D01*
X282500Y149076D01*
X281667Y149643D01*
X280815Y150182D01*
X279944Y150691D01*
X279057Y151170D01*
X278154Y151618D01*
X277236Y152036D01*
X276305Y152422D01*
X275361Y152775D01*
X274405Y153097D01*
X273439Y153385D01*
X272463Y153641D01*
X271480Y153863D01*
X270490Y154051D01*
X269493Y154205D01*
X268492Y154325D01*
X267488Y154411D01*
X266481Y154463D01*
X265473Y154480D01*
X29252D02*
X28244Y154463D01*
X27237Y154411D01*
X26232Y154325D01*
X25231Y154205D01*
X24235Y154051D01*
X23244Y153863D01*
X22261Y153641D01*
X21285Y153385D01*
X20320Y153097D01*
X19364Y152775D01*
X18420Y152422D01*
X17488Y152036D01*
X16570Y151618D01*
X15667Y151170D01*
X14780Y150691D01*
X13910Y150182D01*
X13058Y149643D01*
X12224Y149076D01*
X11410Y148480D01*
X10617Y147858D01*
X9846Y147208D01*
X9098Y146533D01*
X8373Y145832D01*
X7672Y145107D01*
X6997Y144358D01*
X6347Y143587D01*
X5724Y142794D01*
X5129Y141981D01*
X4561Y141147D01*
X4023Y140295D01*
X3514Y139425D01*
X3035Y138537D01*
X2586Y137634D01*
X2169Y136716D01*
X1783Y135785D01*
X1429Y134841D01*
X1108Y133885D01*
X819Y132919D01*
X564Y131944D01*
X342Y130960D01*
X154Y129970D01*
X-1Y128973D01*
X-121Y127972D01*
X-207Y126968D01*
X-258Y125961D01*
X-276Y124953D01*
Y26528D02*
Y124953D01*
X29252Y154480D02*
X265472D01*
X295000Y26528D02*
Y124953D01*
X29252Y-3000D02*
X265472D01*
D51*
X104192Y9174D02*
D03*
X114035D02*
D03*
D52*
X123877D02*
D03*
D53*
X267000Y97843D02*
D03*
X64000Y92685D02*
D03*
D54*
X267000Y78158D02*
D03*
X64000Y73000D02*
D03*
D55*
X29528Y29528D02*
D03*
X265472Y125472D02*
D03*
Y26528D02*
D03*
X29252Y124953D02*
D03*
D56*
X9000Y55000D02*
D03*
X287000Y118000D02*
D03*
X284000Y38000D02*
D03*
D57*
X90000Y60000D02*
D03*
X273000Y58000D02*
D03*
D58*
X159400Y90500D02*
D03*
X134500Y90300D02*
D03*
X135303Y66711D02*
D03*
X116700Y22400D02*
D03*
M02*
