G04*
G04 #@! TF.GenerationSoftware,Altium Limited,Altium Designer,23.5.1 (21)*
G04*
G04 Layer_Color=16711935*
%FSLAX25Y25*%
%MOIN*%
G70*
G04*
G04 #@! TF.SameCoordinates,F2DA617C-CCEF-44E5-B4ED-05EE2DC053E7*
G04*
G04*
G04 #@! TF.FilePolarity,Negative*
G04*
G01*
G75*
%ADD37C,0.08674*%
%ADD38C,0.09855*%
%ADD40C,0.10800*%
%ADD41C,0.05800*%
%ADD61C,0.23032*%
D37*
X104192Y9174D02*
D03*
X114035D02*
D03*
X123877D02*
D03*
D38*
X267000Y97843D02*
D03*
Y78158D02*
D03*
X64000Y73000D02*
D03*
Y92685D02*
D03*
D40*
X9000Y55000D02*
D03*
X90000Y60000D02*
D03*
X287000Y118000D02*
D03*
X273000Y58000D02*
D03*
X284000Y38000D02*
D03*
D41*
X135303Y66711D02*
D03*
X154400Y72758D02*
D03*
X150700Y67357D02*
D03*
X275200Y109200D02*
D03*
X262600D02*
D03*
X287100Y100700D02*
D03*
X286700Y92400D02*
D03*
X251600Y100200D02*
D03*
X251500Y91900D02*
D03*
X286928Y109202D02*
D03*
X251494D02*
D03*
X106400Y32100D02*
D03*
X116700Y22400D02*
D03*
X14000Y106000D02*
D03*
Y86000D02*
D03*
Y67000D02*
D03*
X37000Y86000D02*
D03*
Y96000D02*
D03*
X85000Y108000D02*
D03*
X72000D02*
D03*
X58000D02*
D03*
X38000Y107000D02*
D03*
X288500Y132158D02*
D03*
Y32157D02*
D03*
X276000Y7158D02*
D03*
X251000D02*
D03*
X238500Y132158D02*
D03*
X226000Y7158D02*
D03*
X213500Y132158D02*
D03*
Y32157D02*
D03*
X201000Y7158D02*
D03*
X188500Y132158D02*
D03*
X176000Y7158D02*
D03*
X163500Y132158D02*
D03*
X151000Y57157D02*
D03*
X163500Y32157D02*
D03*
X151000Y7158D02*
D03*
X138500Y132158D02*
D03*
X126000Y107158D02*
D03*
X138500Y32157D02*
D03*
X113500Y132158D02*
D03*
X101000Y107158D02*
D03*
X88500Y132158D02*
D03*
Y32157D02*
D03*
X76000Y7158D02*
D03*
X63500Y132158D02*
D03*
Y32157D02*
D03*
X51000Y7158D02*
D03*
X26000D02*
D03*
D61*
X29528Y29528D02*
D03*
X265472Y125472D02*
D03*
Y26528D02*
D03*
X29252Y124953D02*
D03*
M02*
