M48
;Layer_Color=9474304
;FILE_FORMAT=2:5
INCH,TZ
;TYPE=PLATED
T1F00S00C0.01000
T2F00S00C0.01200
T3F00S00C0.02800
T4F00S00C0.03543
T5F00S00C0.04016
T6F00S00C0.04331
T7F00S00C0.05217
T8F00S00C0.06693
;TYPE=NON_PLATED
T9F00S00C0.15630
%
T01
X36260Y71575
X115516Y71232
X281071Y67117
X276460Y128815
X312031Y125985
X226981Y145015
Y155815
X217343Y223489
X300860Y303815
X180000Y285000
X164060Y289715
X157737Y290170
X156207Y281772
X156295Y268940
X142616Y273153
X134816Y275294
X127603Y275237
X126460Y271321
X126698Y279553
X127660Y283517
X119030Y285821
X116070Y288769
X112352Y290244
X118060Y275294
X117801Y271255
X116608Y265876
X113873Y257378
X108808Y257757
X94760Y256315
X101368Y248115
X98760Y235035
X107654Y235815
X119475Y241783
X131070Y239695
X130357Y259839
X137722Y267411
X146260Y252315
X145826Y227942
X142920Y225193
X138912Y224915
X145861Y218927
X149016Y221385
X152560Y218038
X149905Y215045
X153121Y224351
X156478Y226527
X179660Y236115
X207360Y244415
X210971Y226309
X198746Y265326
X134324Y289939
X89000Y296000
X77622Y270311
X77386Y220141
X91260Y218315
X110285Y207621
X118760Y203515
X128150Y214022
X127789Y218735
X140813Y205359
X139477Y177715
X132977
X137034Y169858
X155712Y165000
Y179467
X148308Y182863
X165360Y184115
X170360Y185315
X174689Y180857
X167660Y202715
X54800Y211800
X40779Y173513
X41260Y168218
X14760Y168515
X13741Y172815
X12600Y160600
X7035Y159579
X-15800Y156100
X20260Y268815
X17818Y291415
X17235Y295477
X43660Y295915
Y291915
X42900Y375200
X43360Y379815
X4160Y380315
Y374515
X156560Y370615
X222780Y369436
X284012Y322689
X302315
X318008Y323709
X322500Y318700
T02
X31944Y95315
X110260Y95815
X276260Y77945
X300760Y128315
X322760Y313815
T03
X-70000Y1772
X-60000Y0
X-45000Y-5000
X-30000Y1772
X-35000Y45000
X-55000Y45412
X-70000Y41772
X-60000Y61772
X-70000Y81772
X-60000Y101772
X-40000Y105000
X-30000Y121772
X-70000
X28760Y127815
Y140315
X-20000Y61772
X-60000Y21772
X55000Y0
X70000Y1772
X90000
X110000
X140000Y0
X150000Y1772
X170000
X160000Y21772
X140000
X80000
X60000
X90000Y41772
X73355Y85579
Y94448
X62373
X141760Y91815
X148260Y86815
X155051Y77815
X165260Y67815
X176746Y71558
X175000Y140000
X160000Y141772
X150000Y150000
X140000Y141772
X120000
X100000
X231260Y150315
X241260Y140315
X231260Y130315
X271260Y150315
X340000Y141772
X360000
X350000Y121772
X360000Y101772
X340000
X350000Y81772
X360000Y61772
Y50000
X340000Y61772
X302760Y81315
Y90815
X270000Y41772
X250000
X230000
Y1772
X250000
X270000
X290000
X280000Y21772
X260000
X261260Y160315
X281260
Y180315
X271260Y170315
X261260Y180315
X241260
X251260Y170315
X231260
X241260Y160315
X230000Y201772
X240000Y221772
X250000Y241772
X260000Y261772
X240000
X220000
X215000Y245000
X230000Y281772
X250000
X360000Y275000
Y261772
Y301772
Y221772
Y181772
X340000
X350000Y161772
X200000Y181772
X179400Y189800
X156900Y193200
X157100Y171900
X110000Y161772
X100000Y171521
X90000Y161772
X80000Y181772
X100000Y221772
X70000Y241772
X93760Y280315
X86687Y288178
X101260Y287915
X170000Y281772
X180000Y301772
X200000
X205000Y255000
X184200Y230700
X152900Y248300
X138912Y239695
X28760Y202815
Y190315
Y177815
Y165315
Y152815
X-30000Y161772
X-40000Y170000
Y181772
X-20000
X-60000
Y170000
X-50000Y161772
X-70000
Y201772
X-65000Y230000
X-70000Y241772
X-50000
X-30000
Y255000
X-60000
X-70000Y281772
X-60000Y301772
X-40000
X-20000
X-40000Y230000
X-30000Y321772
X-60000
X-70000
Y390000
Y401772
Y415000
X-50000
Y390000
X-11360
X0
X-10000Y401772
X-11360Y415000
X0
X70000Y401772
X60000Y381772
X100000
X120000
X140000
X150000Y361772
X130000
X110000
X90000
X100000Y341772
X120000
X140000
X160000
X150000Y321772
X190000
X210000
X200000Y341772
X210000Y361772
X190000
X200000Y381772
X180000
X170000Y401772
X110000
Y321772
X70000
X220000Y341772
X260000
X250000Y321772
X260000Y381772
X240000
X220000
X250000Y401772
X270000
X290000
X310000
X330000
X320000Y381772
X360000
Y341772
X340000
X350000Y321772
T04
X173281Y366772
X183281
X240000
X250000
T05
X230260Y264615
X194860Y225015
T06
X85047Y206528
X92118Y199457
X99189Y192386
X106260Y185315
X113331Y178244
X120402Y171173
X177118
X184189Y178244
X191260Y185315
X198331Y192386
X205402Y199457
X212473Y206528
T07
X-45000Y6929
Y26614
Y56772
Y76457
Y126929
Y146614
X42061Y13200
X61746
X126903
X146588
X345760Y31972
Y51657
X339760Y203472
Y223157
X340000Y251772
Y271457
Y301772
X-45000Y276457
Y256772
Y211614
Y191929
Y321772
Y341457
X-49843Y401772
X-30157
X0
X19685
X340000Y381457
Y361772
Y321457
T08
X201746Y18200
Y58200
X241746
Y18200
T09
X0Y0
X354331
X-59055Y370079
X354331Y413386
M30
