G04*
G04 #@! TF.GenerationSoftware,Altium Limited,Altium Designer,19.1.7 (138)*
G04*
G04 Layer_Color=16711935*
%FSLAX25Y25*%
%MOIN*%
G70*
G01*
G75*
%ADD65C,0.10500*%
%ADD66C,0.11425*%
%ADD67C,0.10461*%
%ADD68C,0.08453*%
%ADD69C,0.11484*%
%ADD70C,0.16248*%
%ADD71C,0.09555*%
%ADD73C,0.06200*%
%ADD74C,0.05500*%
%ADD75C,0.02480*%
%ADD95C,0.05224*%
D65*
X216400Y322500D02*
D03*
X547600Y399000D02*
D03*
X572500Y112300D02*
D03*
X635700Y211500D02*
D03*
X470900Y287600D02*
D03*
X49100Y112500D02*
D03*
X14900Y210900D02*
D03*
X250600Y344000D02*
D03*
D66*
X205100Y415700D02*
D03*
Y397196D02*
D03*
Y378692D02*
D03*
X137900D02*
D03*
Y397196D02*
D03*
Y415700D02*
D03*
D67*
X317800Y258500D02*
D03*
Y195508D02*
D03*
D68*
Y232437D02*
D03*
Y221571D02*
D03*
Y210744D02*
D03*
D69*
X464257Y259484D02*
D03*
Y237831D02*
D03*
Y216177D02*
D03*
Y194524D02*
D03*
D70*
X625000Y25000D02*
D03*
X25000D02*
D03*
X625000Y419000D02*
D03*
X25000D02*
D03*
D71*
X688100Y45443D02*
D03*
Y25758D02*
D03*
Y97751D02*
D03*
Y78066D02*
D03*
Y150059D02*
D03*
Y130374D02*
D03*
Y202367D02*
D03*
Y182682D02*
D03*
Y411600D02*
D03*
Y391915D02*
D03*
Y254675D02*
D03*
Y234990D02*
D03*
Y306984D02*
D03*
Y287298D02*
D03*
Y359292D02*
D03*
Y339607D02*
D03*
X25100Y366357D02*
D03*
Y386042D02*
D03*
D73*
X535900Y267500D02*
D03*
Y237972D02*
D03*
D74*
X292500Y112300D02*
D03*
X222500D02*
D03*
X117500D02*
D03*
X187500D02*
D03*
X590000Y147300D02*
D03*
X310000Y77300D02*
D03*
X467500Y42300D02*
D03*
X485000Y77300D02*
D03*
X625000D02*
D03*
X607500Y42300D02*
D03*
X555000Y77300D02*
D03*
X170000D02*
D03*
X502500Y42300D02*
D03*
X240000Y77300D02*
D03*
X117500Y42300D02*
D03*
X520000Y147300D02*
D03*
X275000D02*
D03*
X222500Y42300D02*
D03*
X607500Y112300D02*
D03*
X82500D02*
D03*
X537500Y42300D02*
D03*
X555000Y147300D02*
D03*
X47500Y42300D02*
D03*
X572500D02*
D03*
X467500Y112300D02*
D03*
X502500D02*
D03*
X485000Y147300D02*
D03*
X537500Y112300D02*
D03*
X30000Y77300D02*
D03*
X310000Y147300D02*
D03*
X520000Y77300D02*
D03*
X152500Y42300D02*
D03*
X187500D02*
D03*
X327500Y112300D02*
D03*
X292500Y42300D02*
D03*
X257500D02*
D03*
X82500D02*
D03*
X275000Y77300D02*
D03*
X590000D02*
D03*
X100000D02*
D03*
X65000D02*
D03*
X135000D02*
D03*
X625000Y147300D02*
D03*
X205000Y77300D02*
D03*
X152500Y112300D02*
D03*
X257500D02*
D03*
X292500Y182300D02*
D03*
X425750Y168300D02*
D03*
X386050Y167900D02*
D03*
X346350D02*
D03*
X405900D02*
D03*
X366200D02*
D03*
X371200Y220900D02*
D03*
X410900D02*
D03*
X351350D02*
D03*
X391050D02*
D03*
X430750Y221300D02*
D03*
X359225Y191450D02*
D03*
X379075D02*
D03*
X398925D02*
D03*
X418775D02*
D03*
Y250350D02*
D03*
X398925D02*
D03*
X379075D02*
D03*
X359225D02*
D03*
X429200Y279800D02*
D03*
X409350D02*
D03*
X389500D02*
D03*
X369650D02*
D03*
X349800D02*
D03*
X371600Y310300D02*
D03*
X163305Y381305D02*
D03*
X252300Y406900D02*
D03*
X213900Y361700D02*
D03*
X292500Y322300D02*
D03*
X275000Y287300D02*
D03*
X257500Y322300D02*
D03*
X240000Y287300D02*
D03*
X205000D02*
D03*
X187500Y322300D02*
D03*
X170000Y287300D02*
D03*
X152500Y322300D02*
D03*
X135000Y287300D02*
D03*
X117500Y322300D02*
D03*
X100000Y287300D02*
D03*
X65000D02*
D03*
X30000D02*
D03*
D75*
X329541Y323369D02*
D03*
X334659D02*
D03*
Y332031D02*
D03*
X329541D02*
D03*
Y327700D02*
D03*
X334659D02*
D03*
D95*
X164540Y331200D02*
D03*
X7060D02*
D03*
M02*
