G04*
G04 #@! TF.GenerationSoftware,Altium Limited,Altium Designer,19.1.7 (138)*
G04*
G04 Layer_Color=8388736*
%FSLAX25Y25*%
%MOIN*%
G70*
G01*
G75*
%ADD32R,0.31500X0.08700*%
G04:AMPARAMS|DCode=43|XSize=54.21mil|YSize=67.99mil|CornerRadius=7.42mil|HoleSize=0mil|Usage=FLASHONLY|Rotation=270.000|XOffset=0mil|YOffset=0mil|HoleType=Round|Shape=RoundedRectangle|*
%AMROUNDEDRECTD43*
21,1,0.05421,0.05315,0,0,270.0*
21,1,0.03937,0.06799,0,0,270.0*
1,1,0.01484,-0.02657,-0.01968*
1,1,0.01484,-0.02657,0.01968*
1,1,0.01484,0.02657,0.01968*
1,1,0.01484,0.02657,-0.01968*
%
%ADD43ROUNDEDRECTD43*%
G04:AMPARAMS|DCode=44|XSize=79.8mil|YSize=73.9mil|CornerRadius=9.39mil|HoleSize=0mil|Usage=FLASHONLY|Rotation=180.000|XOffset=0mil|YOffset=0mil|HoleType=Round|Shape=RoundedRectangle|*
%AMROUNDEDRECTD44*
21,1,0.07980,0.05512,0,0,180.0*
21,1,0.06102,0.07390,0,0,180.0*
1,1,0.01878,-0.03051,0.02756*
1,1,0.01878,0.03051,0.02756*
1,1,0.01878,0.03051,-0.02756*
1,1,0.01878,-0.03051,-0.02756*
%
%ADD44ROUNDEDRECTD44*%
%ADD45R,0.06799X0.14279*%
%ADD46R,0.05618X0.06012*%
G04:AMPARAMS|DCode=47|XSize=46.34mil|YSize=64.06mil|CornerRadius=6.63mil|HoleSize=0mil|Usage=FLASHONLY|Rotation=180.000|XOffset=0mil|YOffset=0mil|HoleType=Round|Shape=RoundedRectangle|*
%AMROUNDEDRECTD47*
21,1,0.04634,0.05079,0,0,180.0*
21,1,0.03307,0.06406,0,0,180.0*
1,1,0.01327,-0.01654,0.02539*
1,1,0.01327,0.01654,0.02539*
1,1,0.01327,0.01654,-0.02539*
1,1,0.01327,-0.01654,-0.02539*
%
%ADD47ROUNDEDRECTD47*%
G04:AMPARAMS|DCode=48|XSize=46.34mil|YSize=64.06mil|CornerRadius=6.63mil|HoleSize=0mil|Usage=FLASHONLY|Rotation=270.000|XOffset=0mil|YOffset=0mil|HoleType=Round|Shape=RoundedRectangle|*
%AMROUNDEDRECTD48*
21,1,0.04634,0.05079,0,0,270.0*
21,1,0.03307,0.06406,0,0,270.0*
1,1,0.01327,-0.02539,-0.01654*
1,1,0.01327,-0.02539,0.01654*
1,1,0.01327,0.02539,0.01654*
1,1,0.01327,0.02539,-0.01654*
%
%ADD48ROUNDEDRECTD48*%
%ADD49R,0.09949X0.12705*%
G04:AMPARAMS|DCode=50|XSize=91.61mil|YSize=28.62mil|CornerRadius=4.27mil|HoleSize=0mil|Usage=FLASHONLY|Rotation=0.000|XOffset=0mil|YOffset=0mil|HoleType=Round|Shape=RoundedRectangle|*
%AMROUNDEDRECTD50*
21,1,0.09161,0.02008,0,0,0.0*
21,1,0.08307,0.02862,0,0,0.0*
1,1,0.00854,0.04153,-0.01004*
1,1,0.00854,-0.04153,-0.01004*
1,1,0.00854,-0.04153,0.01004*
1,1,0.00854,0.04153,0.01004*
%
%ADD50ROUNDEDRECTD50*%
G04:AMPARAMS|DCode=51|XSize=150.67mil|YSize=79.8mil|CornerRadius=9.98mil|HoleSize=0mil|Usage=FLASHONLY|Rotation=90.000|XOffset=0mil|YOffset=0mil|HoleType=Round|Shape=RoundedRectangle|*
%AMROUNDEDRECTD51*
21,1,0.15067,0.05984,0,0,90.0*
21,1,0.13071,0.07980,0,0,90.0*
1,1,0.01996,0.02992,0.06535*
1,1,0.01996,0.02992,-0.06535*
1,1,0.01996,-0.02992,-0.06535*
1,1,0.01996,-0.02992,0.06535*
%
%ADD51ROUNDEDRECTD51*%
G04:AMPARAMS|DCode=52|XSize=83.74mil|YSize=56.18mil|CornerRadius=7.62mil|HoleSize=0mil|Usage=FLASHONLY|Rotation=0.000|XOffset=0mil|YOffset=0mil|HoleType=Round|Shape=RoundedRectangle|*
%AMROUNDEDRECTD52*
21,1,0.08374,0.04095,0,0,0.0*
21,1,0.06850,0.05618,0,0,0.0*
1,1,0.01524,0.03425,-0.02047*
1,1,0.01524,-0.03425,-0.02047*
1,1,0.01524,-0.03425,0.02047*
1,1,0.01524,0.03425,0.02047*
%
%ADD52ROUNDEDRECTD52*%
%ADD53R,0.22350X0.26091*%
%ADD54R,0.05421X0.11721*%
%ADD55R,0.10343X0.20185*%
%ADD56R,0.20185X0.10343*%
%ADD57R,0.05224X0.05224*%
%ADD58R,0.10146X0.12902*%
%ADD59R,0.05224X0.05224*%
%ADD60R,0.04043X0.02862*%
%ADD61R,0.06917X0.09084*%
G04:AMPARAMS|DCode=62|XSize=54.21mil|YSize=67.99mil|CornerRadius=7.42mil|HoleSize=0mil|Usage=FLASHONLY|Rotation=0.000|XOffset=0mil|YOffset=0mil|HoleType=Round|Shape=RoundedRectangle|*
%AMROUNDEDRECTD62*
21,1,0.05421,0.05315,0,0,0.0*
21,1,0.03937,0.06799,0,0,0.0*
1,1,0.01484,0.01968,-0.02657*
1,1,0.01484,-0.01968,-0.02657*
1,1,0.01484,-0.01968,0.02657*
1,1,0.01484,0.01968,0.02657*
%
%ADD62ROUNDEDRECTD62*%
G04:AMPARAMS|DCode=63|XSize=83.74mil|YSize=280.59mil|CornerRadius=10.37mil|HoleSize=0mil|Usage=FLASHONLY|Rotation=90.000|XOffset=0mil|YOffset=0mil|HoleType=Round|Shape=RoundedRectangle|*
%AMROUNDEDRECTD63*
21,1,0.08374,0.25984,0,0,90.0*
21,1,0.06299,0.28059,0,0,90.0*
1,1,0.02075,0.12992,0.03150*
1,1,0.02075,0.12992,-0.03150*
1,1,0.02075,-0.12992,-0.03150*
1,1,0.02075,-0.12992,0.03150*
%
%ADD63ROUNDEDRECTD63*%
%ADD64R,0.06012X0.05618*%
%ADD65C,0.10500*%
%ADD66C,0.11425*%
%ADD67C,0.10461*%
%ADD68C,0.08453*%
%ADD69C,0.11484*%
%ADD70C,0.16248*%
%ADD71C,0.09555*%
%ADD72C,0.06327*%
%ADD73C,0.06200*%
%ADD74C,0.05500*%
%ADD75C,0.02480*%
D32*
X365900Y376650D02*
D03*
Y399150D02*
D03*
D43*
X659600Y85364D02*
D03*
Y92412D02*
D03*
Y137673D02*
D03*
Y144720D02*
D03*
Y242289D02*
D03*
Y249336D02*
D03*
Y346905D02*
D03*
Y353953D02*
D03*
Y399214D02*
D03*
Y406261D02*
D03*
Y33056D02*
D03*
Y40103D02*
D03*
Y189981D02*
D03*
Y197028D02*
D03*
X659400Y292776D02*
D03*
Y299824D02*
D03*
X243500Y401420D02*
D03*
Y394372D02*
D03*
D44*
X635300Y167501D02*
D03*
Y180099D02*
D03*
X610560Y167501D02*
D03*
Y180099D02*
D03*
X585820Y167501D02*
D03*
Y180099D02*
D03*
X561080Y167501D02*
D03*
Y180099D02*
D03*
X536340Y167501D02*
D03*
Y180099D02*
D03*
X511600Y167501D02*
D03*
Y180099D02*
D03*
X277900Y342099D02*
D03*
Y329501D02*
D03*
D45*
X264735Y391346D02*
D03*
Y369299D02*
D03*
X299500Y391347D02*
D03*
Y369300D02*
D03*
D46*
X355650Y299000D02*
D03*
X361950D02*
D03*
X329750Y380400D02*
D03*
X336050D02*
D03*
D47*
X355240Y310300D02*
D03*
X362760D02*
D03*
X163140Y402800D02*
D03*
X170660D02*
D03*
X355193Y322000D02*
D03*
X362713D02*
D03*
X581860Y389600D02*
D03*
X574340D02*
D03*
X277340Y214500D02*
D03*
X284860D02*
D03*
X581190Y369500D02*
D03*
X573671D02*
D03*
X217960Y344100D02*
D03*
X210440D02*
D03*
D48*
X230900Y394336D02*
D03*
Y401856D02*
D03*
X181700Y352060D02*
D03*
Y344540D02*
D03*
X311700Y305440D02*
D03*
Y312960D02*
D03*
X290800Y198069D02*
D03*
Y190550D02*
D03*
X100700Y393360D02*
D03*
Y385840D02*
D03*
D49*
X332100Y327700D02*
D03*
D50*
X322000Y335200D02*
D03*
Y330200D02*
D03*
Y325200D02*
D03*
Y320200D02*
D03*
X342200D02*
D03*
Y325200D02*
D03*
Y330200D02*
D03*
Y335200D02*
D03*
D51*
X609221Y218500D02*
D03*
X586779D02*
D03*
X609821Y240000D02*
D03*
X587380D02*
D03*
D52*
X169300Y261191D02*
D03*
Y272609D02*
D03*
D53*
X80200Y387898D02*
D03*
D54*
X89354Y362702D02*
D03*
X71047D02*
D03*
D55*
X586694Y282200D02*
D03*
X635906D02*
D03*
D56*
X213200Y276113D02*
D03*
Y226900D02*
D03*
D57*
X591432Y389800D02*
D03*
X599700D02*
D03*
X591266Y369500D02*
D03*
X599534D02*
D03*
X218334Y353700D02*
D03*
X210066D02*
D03*
D58*
X347000Y355100D02*
D03*
X322591D02*
D03*
D59*
X272826Y197774D02*
D03*
Y189506D02*
D03*
D60*
X109828Y366700D02*
D03*
X100772Y362960D02*
D03*
Y370440D02*
D03*
D61*
X53100Y377111D02*
D03*
Y362488D02*
D03*
D62*
X170266Y391500D02*
D03*
X163219D02*
D03*
D63*
X242000Y173911D02*
D03*
Y150289D02*
D03*
X210914Y173911D02*
D03*
Y150289D02*
D03*
X179829Y173911D02*
D03*
Y150289D02*
D03*
X148743Y173911D02*
D03*
Y150289D02*
D03*
X117657Y173911D02*
D03*
Y150289D02*
D03*
X86571Y173911D02*
D03*
Y150289D02*
D03*
X55486Y173911D02*
D03*
Y150289D02*
D03*
X24400Y173911D02*
D03*
Y150289D02*
D03*
D64*
X364100Y338150D02*
D03*
Y331850D02*
D03*
D65*
X216400Y322500D02*
D03*
X547600Y399000D02*
D03*
X572500Y112300D02*
D03*
X635700Y211500D02*
D03*
X470900Y287600D02*
D03*
X49100Y112500D02*
D03*
X14900Y210900D02*
D03*
X250600Y344000D02*
D03*
D66*
X205100Y415700D02*
D03*
Y397196D02*
D03*
Y378692D02*
D03*
X137900D02*
D03*
Y397196D02*
D03*
Y415700D02*
D03*
D67*
X317800Y258500D02*
D03*
Y195508D02*
D03*
D68*
Y232437D02*
D03*
Y221571D02*
D03*
Y210744D02*
D03*
D69*
X464257Y259484D02*
D03*
Y237831D02*
D03*
Y216177D02*
D03*
Y194524D02*
D03*
D70*
X625000Y25000D02*
D03*
X25000D02*
D03*
X625000Y419000D02*
D03*
X25000D02*
D03*
D71*
X688100Y45443D02*
D03*
Y25758D02*
D03*
Y97751D02*
D03*
Y78066D02*
D03*
Y150059D02*
D03*
Y130374D02*
D03*
Y202367D02*
D03*
Y182682D02*
D03*
Y411600D02*
D03*
Y391915D02*
D03*
Y254675D02*
D03*
Y234990D02*
D03*
Y306984D02*
D03*
Y287298D02*
D03*
Y359292D02*
D03*
Y339607D02*
D03*
X25100Y366357D02*
D03*
Y386042D02*
D03*
D72*
X164540Y331200D02*
D03*
X7060D02*
D03*
D73*
X535900Y267500D02*
D03*
Y237972D02*
D03*
D74*
X292500Y112300D02*
D03*
X222500D02*
D03*
X117500D02*
D03*
X187500D02*
D03*
X590000Y147300D02*
D03*
X310000Y77300D02*
D03*
X467500Y42300D02*
D03*
X485000Y77300D02*
D03*
X625000D02*
D03*
X607500Y42300D02*
D03*
X555000Y77300D02*
D03*
X170000D02*
D03*
X502500Y42300D02*
D03*
X240000Y77300D02*
D03*
X117500Y42300D02*
D03*
X520000Y147300D02*
D03*
X275000D02*
D03*
X222500Y42300D02*
D03*
X607500Y112300D02*
D03*
X82500D02*
D03*
X537500Y42300D02*
D03*
X555000Y147300D02*
D03*
X47500Y42300D02*
D03*
X572500D02*
D03*
X467500Y112300D02*
D03*
X502500D02*
D03*
X485000Y147300D02*
D03*
X537500Y112300D02*
D03*
X30000Y77300D02*
D03*
X310000Y147300D02*
D03*
X520000Y77300D02*
D03*
X152500Y42300D02*
D03*
X187500D02*
D03*
X327500Y112300D02*
D03*
X292500Y42300D02*
D03*
X257500D02*
D03*
X82500D02*
D03*
X275000Y77300D02*
D03*
X590000D02*
D03*
X100000D02*
D03*
X65000D02*
D03*
X135000D02*
D03*
X625000Y147300D02*
D03*
X205000Y77300D02*
D03*
X152500Y112300D02*
D03*
X257500D02*
D03*
X292500Y182300D02*
D03*
X425750Y168300D02*
D03*
X386050Y167900D02*
D03*
X346350D02*
D03*
X405900D02*
D03*
X366200D02*
D03*
X371200Y220900D02*
D03*
X410900D02*
D03*
X351350D02*
D03*
X391050D02*
D03*
X430750Y221300D02*
D03*
X359225Y191450D02*
D03*
X379075D02*
D03*
X398925D02*
D03*
X418775D02*
D03*
Y250350D02*
D03*
X398925D02*
D03*
X379075D02*
D03*
X359225D02*
D03*
X429200Y279800D02*
D03*
X409350D02*
D03*
X389500D02*
D03*
X369650D02*
D03*
X349800D02*
D03*
X371600Y310300D02*
D03*
X163305Y381305D02*
D03*
X252300Y406900D02*
D03*
X213900Y361700D02*
D03*
X292500Y322300D02*
D03*
X275000Y287300D02*
D03*
X257500Y322300D02*
D03*
X240000Y287300D02*
D03*
X205000D02*
D03*
X187500Y322300D02*
D03*
X170000Y287300D02*
D03*
X152500Y322300D02*
D03*
X135000Y287300D02*
D03*
X117500Y322300D02*
D03*
X100000Y287300D02*
D03*
X65000D02*
D03*
X30000D02*
D03*
D75*
X329541Y323369D02*
D03*
X334659D02*
D03*
Y332031D02*
D03*
X329541D02*
D03*
Y327700D02*
D03*
X334659D02*
D03*
M02*
