G04*
G04 #@! TF.GenerationSoftware,Altium Limited,Altium Designer,20.2.6 (244)*
G04*
G04 Layer_Color=16711935*
%FSLAX25Y25*%
%MOIN*%
G70*
G04*
G04 #@! TF.SameCoordinates,9D63BACA-A2BA-4A5B-992E-1B0141E69424*
G04*
G04*
G04 #@! TF.FilePolarity,Negative*
G04*
G01*
G75*
%ADD73C,0.09455*%
%ADD74C,0.10400*%
%ADD75C,0.11325*%
%ADD76C,0.17992*%
%ADD77C,0.10361*%
%ADD78C,0.08353*%
%ADD79C,0.11384*%
%ADD80C,0.06306*%
%ADD81R,0.06306X0.06306*%
%ADD82R,0.06306X0.06306*%
%ADD83C,0.06200*%
%ADD84C,0.02480*%
D73*
X649000Y31157D02*
D03*
Y50842D02*
D03*
X10000Y360842D02*
D03*
Y341158D02*
D03*
X150228Y9000D02*
D03*
X130543D02*
D03*
X179157D02*
D03*
X198843D02*
D03*
X81929D02*
D03*
X101614D02*
D03*
X33315D02*
D03*
X53000D02*
D03*
X650000Y163842D02*
D03*
Y144158D02*
D03*
Y218000D02*
D03*
Y198315D02*
D03*
Y271843D02*
D03*
Y252157D02*
D03*
Y323000D02*
D03*
Y303315D02*
D03*
X651000Y373843D02*
D03*
Y354157D02*
D03*
D74*
X140000Y275000D02*
D03*
X6000Y26000D02*
D03*
X147500Y78000D02*
D03*
X475000Y359000D02*
D03*
X242000Y319000D02*
D03*
X46000Y388000D02*
D03*
X280455Y226100D02*
D03*
X244500Y221500D02*
D03*
X615500Y15500D02*
D03*
X518000Y215000D02*
D03*
X467000Y244000D02*
D03*
X576000Y384000D02*
D03*
D75*
X240992Y377000D02*
D03*
X259496D02*
D03*
X278000D02*
D03*
X357504D02*
D03*
X339000D02*
D03*
X320496D02*
D03*
X437504D02*
D03*
X419000D02*
D03*
X400496D02*
D03*
D76*
X600000Y0D02*
D03*
X0D02*
D03*
X600000Y383000D02*
D03*
X0D02*
D03*
D77*
X286772Y319496D02*
D03*
Y256504D02*
D03*
D78*
Y293433D02*
D03*
Y282567D02*
D03*
Y271740D02*
D03*
D79*
X433228Y320480D02*
D03*
Y298827D02*
D03*
Y277173D02*
D03*
Y255520D02*
D03*
D80*
X503000Y76000D02*
D03*
X239976Y53709D02*
D03*
X314000Y54000D02*
D03*
D81*
X503000Y66000D02*
D03*
D82*
X249976Y53709D02*
D03*
X324000Y54000D02*
D03*
D83*
X485000Y287472D02*
D03*
Y317000D02*
D03*
D84*
X213441Y241000D02*
D03*
X218559D02*
D03*
Y236669D02*
D03*
X213441D02*
D03*
Y245331D02*
D03*
X218559D02*
D03*
M02*
