G04*
G04 #@! TF.GenerationSoftware,Altium Limited,Altium Designer,23.5.1 (21)*
G04*
G04 Layer_Physical_Order=1*
G04 Layer_Color=255*
%FSLAX25Y25*%
%MOIN*%
G70*
G04*
G04 #@! TF.SameCoordinates,615E306F-8B44-468D-B2DF-EE0A1C7CF722*
G04*
G04*
G04 #@! TF.FilePolarity,Positive*
G04*
G01*
G75*
%ADD13C,0.01000*%
%ADD16C,0.03937*%
%ADD17R,0.02362X0.01181*%
G04:AMPARAMS|DCode=18|XSize=55.12mil|YSize=35.43mil|CornerRadius=2.66mil|HoleSize=0mil|Usage=FLASHONLY|Rotation=270.000|XOffset=0mil|YOffset=0mil|HoleType=Round|Shape=RoundedRectangle|*
%AMROUNDEDRECTD18*
21,1,0.05512,0.03012,0,0,270.0*
21,1,0.04980,0.03543,0,0,270.0*
1,1,0.00532,-0.01506,-0.02490*
1,1,0.00532,-0.01506,0.02490*
1,1,0.00532,0.01506,0.02490*
1,1,0.00532,0.01506,-0.02490*
%
%ADD18ROUNDEDRECTD18*%
G04:AMPARAMS|DCode=19|XSize=55.12mil|YSize=35.43mil|CornerRadius=2.66mil|HoleSize=0mil|Usage=FLASHONLY|Rotation=0.000|XOffset=0mil|YOffset=0mil|HoleType=Round|Shape=RoundedRectangle|*
%AMROUNDEDRECTD19*
21,1,0.05512,0.03012,0,0,0.0*
21,1,0.04980,0.03543,0,0,0.0*
1,1,0.00532,0.02490,-0.01506*
1,1,0.00532,-0.02490,-0.01506*
1,1,0.00532,-0.02490,0.01506*
1,1,0.00532,0.02490,0.01506*
%
%ADD19ROUNDEDRECTD19*%
G04:AMPARAMS|DCode=20|XSize=62.99mil|YSize=118.11mil|CornerRadius=4.72mil|HoleSize=0mil|Usage=FLASHONLY|Rotation=90.000|XOffset=0mil|YOffset=0mil|HoleType=Round|Shape=RoundedRectangle|*
%AMROUNDEDRECTD20*
21,1,0.06299,0.10866,0,0,90.0*
21,1,0.05354,0.11811,0,0,90.0*
1,1,0.00945,0.05433,0.02677*
1,1,0.00945,0.05433,-0.02677*
1,1,0.00945,-0.05433,-0.02677*
1,1,0.00945,-0.05433,0.02677*
%
%ADD20ROUNDEDRECTD20*%
%ADD21R,0.07284X0.13976*%
%ADD23R,0.02480X0.03268*%
%ADD24R,0.15748X0.15748*%
G04:AMPARAMS|DCode=25|XSize=51.18mil|YSize=51.18mil|CornerRadius=5.12mil|HoleSize=0mil|Usage=FLASHONLY|Rotation=180.000|XOffset=0mil|YOffset=0mil|HoleType=Round|Shape=RoundedRectangle|*
%AMROUNDEDRECTD25*
21,1,0.05118,0.04095,0,0,180.0*
21,1,0.04095,0.05118,0,0,180.0*
1,1,0.01024,-0.02047,0.02047*
1,1,0.01024,0.02047,0.02047*
1,1,0.01024,0.02047,-0.02047*
1,1,0.01024,-0.02047,-0.02047*
%
%ADD25ROUNDEDRECTD25*%
G04:AMPARAMS|DCode=26|XSize=74.8mil|YSize=68.9mil|CornerRadius=6.89mil|HoleSize=0mil|Usage=FLASHONLY|Rotation=0.000|XOffset=0mil|YOffset=0mil|HoleType=Round|Shape=RoundedRectangle|*
%AMROUNDEDRECTD26*
21,1,0.07480,0.05512,0,0,0.0*
21,1,0.06102,0.06890,0,0,0.0*
1,1,0.01378,0.03051,-0.02756*
1,1,0.01378,-0.03051,-0.02756*
1,1,0.01378,-0.03051,0.02756*
1,1,0.01378,0.03051,0.02756*
%
%ADD26ROUNDEDRECTD26*%
%ADD42R,0.10236X0.11811*%
%ADD43C,0.10000*%
%ADD44C,0.09055*%
%ADD45C,0.07874*%
%ADD46C,0.17717*%
%ADD47C,0.02000*%
%ADD48C,0.05000*%
G36*
X247413Y-2039D02*
X250101Y-2304D01*
X252750Y-2831D01*
X255335Y-3615D01*
X257830Y-4648D01*
X260212Y-5922D01*
X262457Y-7422D01*
X264545Y-9136D01*
X266455Y-11045D01*
X268168Y-13133D01*
X269669Y-15379D01*
X270942Y-17761D01*
X271976Y-20256D01*
X272760Y-22840D01*
X273287Y-25489D01*
X273551Y-28177D01*
X273551Y-29528D01*
X273551Y-147638D01*
X273551Y-148988D01*
X273287Y-151676D01*
X272760Y-154325D01*
X271976Y-156910D01*
X270942Y-159405D01*
X269669Y-161787D01*
X268168Y-164032D01*
X266455Y-166120D01*
X264545Y-168030D01*
X262457Y-169743D01*
X260212Y-171244D01*
X257830Y-172517D01*
X255334Y-173550D01*
X252750Y-174334D01*
X250101Y-174861D01*
X247413Y-175126D01*
X246063Y-175126D01*
X29406D01*
X28062Y-175120D01*
X25377Y-174845D01*
X22733Y-174307D01*
X20154Y-173514D01*
X17665Y-172471D01*
X15290Y-171190D01*
X13052Y-169683D01*
X10972Y-167964D01*
X9071Y-166049D01*
X7366Y-163957D01*
X5875Y-161708D01*
X4610Y-159324D01*
X3586Y-156828D01*
X2811Y-154243D01*
X2292Y-151595D01*
X2035Y-148909D01*
X2039Y-147560D01*
X2039Y-147557D01*
X2039Y-147554D01*
X2039Y-29528D01*
X2039Y-28177D01*
X2304Y-25489D01*
X2831Y-22840D01*
X3615Y-20256D01*
X4648Y-17761D01*
X5922Y-15379D01*
X7422Y-13133D01*
X9135Y-11045D01*
X11045Y-9135D01*
X13133Y-7422D01*
X15379Y-5922D01*
X17761Y-4648D01*
X20256Y-3615D01*
X22840Y-2831D01*
X25489Y-2304D01*
X28177Y-2039D01*
X29528D01*
X246063Y-2039D01*
X247413Y-2039D01*
D02*
G37*
%LPC*%
G36*
X20656Y-9827D02*
X18714D01*
X16809Y-10206D01*
X15015Y-10949D01*
X13401Y-12028D01*
X12028Y-13401D01*
X10949Y-15015D01*
X10206Y-16809D01*
X9827Y-18714D01*
Y-20656D01*
X10206Y-22561D01*
X10949Y-24355D01*
X12028Y-25969D01*
X13401Y-27343D01*
X15015Y-28421D01*
X16809Y-29164D01*
X18714Y-29543D01*
X20656D01*
X22561Y-29164D01*
X24355Y-28421D01*
X25969Y-27343D01*
X27343Y-25969D01*
X28421Y-24355D01*
X29164Y-22561D01*
X29543Y-20656D01*
Y-18714D01*
X29164Y-16809D01*
X28421Y-15015D01*
X27343Y-13401D01*
X25969Y-12028D01*
X24355Y-10949D01*
X22561Y-10206D01*
X20656Y-9827D01*
D02*
G37*
G36*
X256876D02*
X254935D01*
X253030Y-10206D01*
X251236Y-10949D01*
X249621Y-12028D01*
X248248Y-13401D01*
X247169Y-15015D01*
X246426Y-16809D01*
X246047Y-18714D01*
Y-20656D01*
X246426Y-22561D01*
X246764Y-23376D01*
X246486Y-23792D01*
X229207D01*
X228817Y-23870D01*
X228486Y-24091D01*
X228265Y-24421D01*
X228265Y-24421D01*
X228074Y-24883D01*
X228074Y-24883D01*
X227996Y-25274D01*
X228074Y-25664D01*
X228294Y-25995D01*
X230200Y-27900D01*
Y-35400D01*
X223300Y-42300D01*
X207400D01*
X207329Y-42229D01*
X201671Y-36571D01*
X201600Y-36500D01*
Y-36400D01*
Y-28000D01*
Y-27900D01*
X201671Y-27829D01*
X203505Y-25995D01*
X203727Y-25664D01*
X203804Y-25274D01*
X203727Y-24883D01*
X203535Y-24421D01*
X203314Y-24091D01*
X202983Y-23870D01*
X202593Y-23792D01*
X121394Y-23792D01*
X121004Y-23870D01*
X120673Y-24091D01*
X118249Y-26515D01*
X118028Y-26845D01*
X117950Y-27235D01*
Y-49435D01*
X118028Y-49826D01*
X118249Y-50156D01*
X133111Y-65018D01*
X132920Y-65480D01*
X125075D01*
X124955Y-65504D01*
X124834Y-65509D01*
X124762Y-65543D01*
X124684Y-65558D01*
X124583Y-65626D01*
X124473Y-65677D01*
X117298Y-70920D01*
X117245Y-70978D01*
X117179Y-71022D01*
X117112Y-71123D01*
X117029Y-71213D01*
X117002Y-71287D01*
X116958Y-71353D01*
X116934Y-71472D01*
X116893Y-71586D01*
X116896Y-71665D01*
X116880Y-71743D01*
Y-95419D01*
X116510Y-95723D01*
X114333D01*
X113979Y-95359D01*
X113957Y-95251D01*
X113955Y-95141D01*
X113919Y-95058D01*
X113901Y-94969D01*
X113840Y-94877D01*
X113796Y-94776D01*
X113731Y-94713D01*
X113680Y-94638D01*
X94021Y-74979D01*
X93690Y-74758D01*
X93300Y-74680D01*
X24574D01*
X24548Y-74686D01*
X24521Y-74682D01*
X24354Y-74724D01*
X24184Y-74758D01*
X24162Y-74773D01*
X24136Y-74780D01*
X23997Y-74883D01*
X23853Y-74979D01*
X23838Y-75002D01*
X23817Y-75018D01*
X10243Y-90086D01*
X10154Y-90235D01*
X10058Y-90379D01*
X10053Y-90405D01*
X10039Y-90428D01*
X10014Y-90599D01*
X9980Y-90769D01*
X9980Y-105300D01*
X10058Y-105690D01*
X10279Y-106021D01*
X13434Y-109176D01*
X13275Y-109717D01*
X12841Y-110007D01*
X12551Y-110441D01*
X12449Y-110953D01*
Y-115047D01*
X12551Y-115559D01*
X12841Y-115993D01*
X13275Y-116283D01*
X13787Y-116385D01*
X17881D01*
X18393Y-116283D01*
X18827Y-115993D01*
X19117Y-115559D01*
X19219Y-115047D01*
Y-114554D01*
X19239Y-114529D01*
X20482D01*
X21594Y-115642D01*
X21743Y-115801D01*
X21841Y-115924D01*
X21869Y-115963D01*
X21867Y-116033D01*
X21844Y-116150D01*
X21859Y-116230D01*
X21857Y-116312D01*
X21898Y-116423D01*
X21921Y-116540D01*
X21967Y-116608D01*
X21995Y-116685D01*
X22023Y-116715D01*
Y-118006D01*
X22106Y-118422D01*
X22342Y-118774D01*
X22694Y-119010D01*
X23110Y-119093D01*
X28090D01*
X28506Y-119010D01*
X28859Y-118774D01*
X29094Y-118422D01*
X29177Y-118006D01*
Y-114994D01*
X29094Y-114578D01*
X28988Y-114420D01*
X29232Y-113920D01*
X95268D01*
X95536Y-114420D01*
X95487Y-114492D01*
X95371Y-115078D01*
Y-140579D01*
X95368Y-140607D01*
X95356Y-140681D01*
X95343Y-140733D01*
X95335Y-140756D01*
X95323Y-140764D01*
X95257Y-140831D01*
X95179Y-140883D01*
X95120Y-140972D01*
X95045Y-141048D01*
X95010Y-141136D01*
X94958Y-141214D01*
X94937Y-141319D01*
X94918Y-141367D01*
X94685Y-141600D01*
X94320Y-142231D01*
X94131Y-142936D01*
Y-143665D01*
X94320Y-144369D01*
X94685Y-145000D01*
X94851Y-145167D01*
X94867Y-145210D01*
X94884Y-145314D01*
X94934Y-145395D01*
X94966Y-145484D01*
X95037Y-145563D01*
X95093Y-145653D01*
X95170Y-145708D01*
X95234Y-145779D01*
X95256Y-145795D01*
X95259Y-145801D01*
X95271Y-145836D01*
X95284Y-145892D01*
X95297Y-145969D01*
X95299Y-145998D01*
Y-152793D01*
X95297Y-152820D01*
X95262Y-152961D01*
X95191Y-153149D01*
X95074Y-153379D01*
X94910Y-153645D01*
X94697Y-153944D01*
X94441Y-154262D01*
X93754Y-155006D01*
X93341Y-155409D01*
X93286Y-155490D01*
X92807Y-155969D01*
X92157Y-157094D01*
X92086Y-157358D01*
X91586D01*
X91515Y-157094D01*
X90865Y-155969D01*
X89946Y-155049D01*
X88821Y-154399D01*
X87565Y-154063D01*
X86265D01*
X85009Y-154399D01*
X83884Y-155049D01*
X82964Y-155969D01*
X82314Y-157094D01*
X81978Y-158350D01*
Y-159650D01*
X82314Y-160906D01*
X82964Y-162031D01*
X83884Y-162951D01*
X85009Y-163601D01*
X86265Y-163937D01*
X87565D01*
X88821Y-163601D01*
X89946Y-162951D01*
X90865Y-162031D01*
X91515Y-160906D01*
X91586Y-160642D01*
X92086D01*
X92157Y-160906D01*
X92807Y-162031D01*
X93726Y-162951D01*
X94852Y-163601D01*
X96108Y-163937D01*
X97407D01*
X98663Y-163601D01*
X99789Y-162951D01*
X100708Y-162031D01*
X101358Y-160906D01*
X101695Y-159650D01*
Y-158350D01*
X101358Y-157094D01*
X100708Y-155969D01*
X100348Y-155609D01*
X100301Y-155534D01*
X99893Y-155108D01*
X99215Y-154326D01*
X98960Y-153992D01*
X98748Y-153681D01*
X98584Y-153404D01*
X98467Y-153166D01*
X98394Y-152973D01*
X98360Y-152832D01*
X98358Y-152810D01*
Y-146042D01*
X98361Y-146013D01*
X98373Y-145942D01*
X98385Y-145895D01*
X98387Y-145889D01*
X98453Y-145826D01*
X98532Y-145777D01*
X98595Y-145690D01*
X98673Y-145616D01*
X98711Y-145530D01*
X98765Y-145455D01*
X98790Y-145350D01*
X98809Y-145306D01*
X99115Y-145000D01*
X99480Y-144369D01*
X99669Y-143665D01*
Y-142936D01*
X99480Y-142231D01*
X99115Y-141600D01*
X98882Y-141367D01*
X98863Y-141319D01*
X98842Y-141214D01*
X98790Y-141136D01*
X98755Y-141048D01*
X98680Y-140972D01*
X98621Y-140883D01*
X98543Y-140831D01*
X98477Y-140764D01*
X98465Y-140756D01*
X98457Y-140733D01*
X98444Y-140681D01*
X98432Y-140607D01*
X98429Y-140579D01*
Y-118252D01*
X98929Y-118045D01*
X99000Y-118115D01*
X99631Y-118480D01*
X100336Y-118668D01*
X101065D01*
X101769Y-118480D01*
X102400Y-118115D01*
X102633Y-117882D01*
X102681Y-117863D01*
X102786Y-117842D01*
X102864Y-117790D01*
X102952Y-117755D01*
X103028Y-117680D01*
X103117Y-117621D01*
X103169Y-117543D01*
X103236Y-117477D01*
X103244Y-117465D01*
X103267Y-117457D01*
X103319Y-117444D01*
X103393Y-117432D01*
X103421Y-117429D01*
X105502D01*
X105548Y-117484D01*
X105606Y-117774D01*
X105842Y-118126D01*
X106194Y-118362D01*
X106610Y-118445D01*
X111590D01*
X112006Y-118362D01*
X112358Y-118126D01*
X112594Y-117774D01*
X112664Y-117421D01*
X112698Y-117381D01*
X116729D01*
Y-120054D01*
X117726D01*
X117771Y-120092D01*
Y-124579D01*
X117768Y-124607D01*
X117756Y-124681D01*
X117743Y-124733D01*
X117735Y-124756D01*
X117723Y-124764D01*
X117657Y-124831D01*
X117579Y-124883D01*
X117520Y-124972D01*
X117445Y-125048D01*
X117410Y-125136D01*
X117358Y-125214D01*
X117337Y-125319D01*
X117318Y-125367D01*
X117085Y-125600D01*
X116720Y-126231D01*
X116532Y-126936D01*
Y-127664D01*
X116720Y-128369D01*
X117085Y-129000D01*
X117600Y-129515D01*
X118231Y-129880D01*
X118439Y-129936D01*
X118449Y-129983D01*
X118781Y-130480D01*
X119694Y-131394D01*
X119843Y-131553D01*
X119941Y-131676D01*
X119969Y-131715D01*
X119967Y-131785D01*
X119943Y-131902D01*
X119959Y-131982D01*
X119957Y-132064D01*
X119998Y-132175D01*
X120021Y-132292D01*
X120067Y-132360D01*
X120095Y-132437D01*
X120123Y-132467D01*
Y-133758D01*
X120206Y-134174D01*
X120441Y-134526D01*
X120794Y-134762D01*
X121210Y-134845D01*
X126190D01*
X126606Y-134762D01*
X126959Y-134526D01*
X127194Y-134174D01*
X127277Y-133758D01*
Y-130746D01*
X127194Y-130330D01*
X126959Y-129978D01*
X126606Y-129742D01*
X126190Y-129659D01*
X122931D01*
X122901Y-129632D01*
X122824Y-129603D01*
X122756Y-129557D01*
X122639Y-129534D01*
X122528Y-129493D01*
X122446Y-129496D01*
X122365Y-129480D01*
X122249Y-129503D01*
X122179Y-129505D01*
X122151Y-129485D01*
X121895Y-129268D01*
X121556Y-128929D01*
X121880Y-128369D01*
X122069Y-127664D01*
Y-126936D01*
X121880Y-126231D01*
X121515Y-125600D01*
X121282Y-125367D01*
X121263Y-125319D01*
X121242Y-125214D01*
X121190Y-125136D01*
X121155Y-125048D01*
X121080Y-124972D01*
X121021Y-124883D01*
X120943Y-124831D01*
X120877Y-124764D01*
X120865Y-124756D01*
X120857Y-124733D01*
X120844Y-124681D01*
X120832Y-124607D01*
X120829Y-124579D01*
Y-119725D01*
X120831Y-119656D01*
X120841Y-119535D01*
X120879Y-119444D01*
X120879Y-119346D01*
X120899Y-119250D01*
X120880Y-119149D01*
X120880Y-119047D01*
X120843Y-118956D01*
X120829Y-118886D01*
Y-118754D01*
X120713Y-118169D01*
X120691Y-118137D01*
Y-117405D01*
X120691Y-117273D01*
X120691D01*
Y-116905D01*
X120691D01*
Y-114124D01*
X120691Y-114124D01*
Y-113755D01*
X120691D01*
X120691Y-113624D01*
Y-111799D01*
X120847Y-111695D01*
X120993Y-111548D01*
X121214Y-111218D01*
X121292Y-110828D01*
Y-107456D01*
X121234Y-107163D01*
X121254Y-107069D01*
X121379Y-106880D01*
X121557Y-106679D01*
X123796D01*
X123894Y-106659D01*
X123995D01*
X124087Y-106621D01*
X124186Y-106601D01*
X124269Y-106545D01*
X124304Y-106531D01*
X124623Y-106467D01*
X125883D01*
X126203Y-106531D01*
X126237Y-106545D01*
X126321Y-106601D01*
X126419Y-106621D01*
X126512Y-106659D01*
X126612D01*
X126711Y-106679D01*
X130824D01*
X130944Y-106815D01*
X131144Y-107179D01*
X131089Y-107456D01*
Y-110200D01*
X131167Y-110590D01*
X131388Y-110921D01*
X131719Y-111142D01*
X132109Y-111220D01*
X139632Y-111220D01*
X139731Y-111200D01*
X139831D01*
X139924Y-111162D01*
X140023Y-111142D01*
X140106Y-111086D01*
X140199Y-111048D01*
X140270Y-110977D01*
X140353Y-110921D01*
X140409Y-110837D01*
X140480Y-110766D01*
X140519Y-110674D01*
X140574Y-110590D01*
X140594Y-110492D01*
X140632Y-110399D01*
X140666Y-110228D01*
X140677Y-110213D01*
X140692Y-110203D01*
X140810Y-110179D01*
X145590D01*
X145708Y-110203D01*
X145723Y-110213D01*
X145734Y-110228D01*
X145764Y-110381D01*
X145785Y-110432D01*
X145791Y-110486D01*
X145831Y-110559D01*
X145837Y-110590D01*
X145873Y-110645D01*
X145916Y-110749D01*
X145937Y-110769D01*
Y-110752D01*
X145939Y-110772D01*
X145955Y-110788D01*
X145981Y-110836D01*
X145996Y-110853D01*
X146032Y-110882D01*
X146058Y-110921D01*
X146150Y-110983D01*
X146198Y-111030D01*
X146234Y-111045D01*
X146305Y-111103D01*
X146350Y-111116D01*
X146388Y-111142D01*
X146539Y-111172D01*
X146540Y-111172D01*
X146565Y-111183D01*
X146575D01*
X146687Y-111215D01*
X146733Y-111211D01*
X146779Y-111220D01*
X148921D01*
X148967Y-111211D01*
X149013Y-111215D01*
X149125Y-111183D01*
X149135D01*
X149160Y-111172D01*
X149161Y-111172D01*
X149311Y-111142D01*
X149350Y-111116D01*
X149395Y-111103D01*
X149466Y-111045D01*
X149502Y-111030D01*
X149550Y-110983D01*
X149642Y-110921D01*
X149668Y-110882D01*
X149704Y-110853D01*
X149719Y-110836D01*
X149745Y-110788D01*
X149761Y-110772D01*
X149763Y-110752D01*
Y-110769D01*
X149784Y-110749D01*
X149827Y-110645D01*
X149863Y-110590D01*
X149870Y-110559D01*
X149909Y-110487D01*
X149915Y-110432D01*
X149936Y-110381D01*
X149966Y-110228D01*
X149977Y-110213D01*
X149992Y-110203D01*
X150110Y-110179D01*
X151374D01*
X151517Y-110151D01*
X151663Y-110137D01*
X151711Y-110112D01*
X151764Y-110101D01*
X151885Y-110020D01*
X152015Y-109952D01*
X154542Y-107907D01*
X154572Y-107870D01*
X154612Y-107844D01*
X154699Y-107718D01*
X154796Y-107601D01*
X154810Y-107555D01*
X154837Y-107516D01*
X154869Y-107367D01*
X154914Y-107221D01*
X154910Y-107173D01*
X154920Y-107126D01*
X155022Y-98613D01*
X155526Y-98254D01*
X155642Y-98277D01*
X158654D01*
X159070Y-98194D01*
X159422Y-97958D01*
X159658Y-97606D01*
X159741Y-97190D01*
Y-92210D01*
X159658Y-91794D01*
X159422Y-91442D01*
X159070Y-91206D01*
X158717Y-91136D01*
X158677Y-91102D01*
Y-77007D01*
X168329Y-67355D01*
X209084D01*
X209418Y-67855D01*
X209131Y-68550D01*
X208900Y-69709D01*
Y-70891D01*
X209131Y-72050D01*
X209583Y-73142D01*
X210240Y-74125D01*
X211075Y-74961D01*
X212058Y-75617D01*
X213150Y-76069D01*
X214309Y-76300D01*
X215491D01*
X216650Y-76069D01*
X217742Y-75617D01*
X218725Y-74961D01*
X219561Y-74125D01*
X220217Y-73142D01*
X220669Y-72050D01*
X220900Y-70891D01*
Y-69709D01*
X220669Y-68550D01*
X220382Y-67855D01*
X220716Y-67355D01*
X245618D01*
X245769Y-67855D01*
X245742Y-67874D01*
X245506Y-68226D01*
X245423Y-68642D01*
Y-71654D01*
X245506Y-72070D01*
X245742Y-72422D01*
X246094Y-72658D01*
X246510Y-72741D01*
X251490D01*
X251906Y-72658D01*
X252258Y-72422D01*
X252494Y-72070D01*
X252563Y-71724D01*
X252597Y-71683D01*
X253361D01*
X253381Y-71708D01*
Y-72747D01*
X253483Y-73259D01*
X253773Y-73693D01*
X254207Y-73983D01*
X254719Y-74085D01*
X258813D01*
X259325Y-73983D01*
X259759Y-73693D01*
X260049Y-73259D01*
X260151Y-72747D01*
Y-68653D01*
X260049Y-68141D01*
X259858Y-67855D01*
X260051Y-67386D01*
X260080Y-67355D01*
X265370D01*
X265760Y-67277D01*
X266091Y-67057D01*
X266312Y-66726D01*
X266390Y-66335D01*
Y-38936D01*
X266312Y-38545D01*
X266091Y-38215D01*
X257705Y-29828D01*
X257850Y-29350D01*
X258781Y-29164D01*
X260575Y-28421D01*
X262190Y-27343D01*
X263563Y-25969D01*
X264642Y-24355D01*
X265385Y-22561D01*
X265764Y-20656D01*
Y-18714D01*
X265385Y-16809D01*
X264642Y-15015D01*
X263563Y-13401D01*
X262190Y-12028D01*
X260575Y-10949D01*
X258781Y-10206D01*
X256876Y-9827D01*
D02*
G37*
G36*
X134762Y-113919D02*
X134656Y-113949D01*
X134545Y-113960D01*
X134466Y-114002D01*
X134417Y-114016D01*
X134261Y-113985D01*
X133671D01*
X133086Y-114101D01*
X133052Y-114124D01*
X131690D01*
Y-116773D01*
X131690Y-116905D01*
X131690D01*
Y-117273D01*
X131690D01*
Y-119064D01*
X131672Y-119122D01*
X131676Y-119177D01*
X131666Y-119230D01*
X131690Y-119351D01*
Y-120054D01*
X132112D01*
X132156Y-120091D01*
Y-122814D01*
X132156Y-122816D01*
X132004Y-122967D01*
X131700Y-123702D01*
Y-124498D01*
X132004Y-125233D01*
X132271Y-125499D01*
Y-130813D01*
X132268Y-130842D01*
X132256Y-130920D01*
X132242Y-130977D01*
X132229Y-131014D01*
X132224Y-131026D01*
X132199Y-131045D01*
X132135Y-131117D01*
X132059Y-131174D01*
X132004Y-131264D01*
X131935Y-131343D01*
X131904Y-131434D01*
X131855Y-131516D01*
X131839Y-131620D01*
X131826Y-131659D01*
X131685Y-131800D01*
X131320Y-132431D01*
X131131Y-133135D01*
Y-133864D01*
X131320Y-134569D01*
X131685Y-135200D01*
X132200Y-135715D01*
X132831Y-136080D01*
X133536Y-136268D01*
X134265D01*
X134969Y-136080D01*
X135600Y-135715D01*
X136115Y-135200D01*
X136480Y-134569D01*
X136669Y-133864D01*
Y-133135D01*
X136480Y-132431D01*
X136115Y-131800D01*
X135778Y-131463D01*
X135760Y-131423D01*
X135733Y-131318D01*
X135678Y-131244D01*
X135639Y-131159D01*
X135560Y-131086D01*
X135496Y-130999D01*
X135416Y-130951D01*
X135356Y-130896D01*
X135356Y-130895D01*
X135344Y-130849D01*
X135332Y-130779D01*
X135329Y-130751D01*
Y-125309D01*
X135330Y-125301D01*
X135330Y-125298D01*
X135396Y-125233D01*
X135700Y-124498D01*
Y-123702D01*
X135396Y-122967D01*
X135215Y-122787D01*
X135215Y-122782D01*
Y-120091D01*
X135259Y-120054D01*
X135652D01*
Y-119775D01*
X136144Y-119571D01*
X136157Y-119572D01*
X136366Y-119781D01*
X136862Y-120113D01*
X137447Y-120229D01*
X139602D01*
X139661Y-120300D01*
X139742Y-120421D01*
X139788Y-120451D01*
X139823Y-120493D01*
X139952Y-120561D01*
X140073Y-120642D01*
X140127Y-120653D01*
X140173Y-120677D01*
X140294Y-120758D01*
X140710Y-120841D01*
X142598D01*
X142623Y-120861D01*
Y-121903D01*
X142583Y-121936D01*
X142230Y-122006D01*
X141878Y-122241D01*
X141642Y-122594D01*
X141559Y-123010D01*
Y-127990D01*
X141642Y-128406D01*
X141878Y-128759D01*
X142230Y-128994D01*
X142646Y-129077D01*
X145658D01*
X146074Y-128994D01*
X146426Y-128759D01*
X146662Y-128406D01*
X146745Y-127990D01*
Y-123010D01*
X146662Y-122594D01*
X146426Y-122241D01*
X146074Y-122006D01*
X145721Y-121936D01*
X145681Y-121903D01*
Y-120861D01*
X145711Y-120836D01*
X146106Y-120758D01*
X146458Y-120522D01*
X146694Y-120170D01*
X146777Y-119754D01*
Y-116742D01*
X146694Y-116326D01*
X146458Y-115974D01*
X146106Y-115738D01*
X145690Y-115656D01*
X140710D01*
X140294Y-115738D01*
X139942Y-115974D01*
X139706Y-116326D01*
X139623Y-116742D01*
Y-117146D01*
X139602Y-117171D01*
X138081D01*
X136101Y-115191D01*
X135982Y-115053D01*
X135930Y-114983D01*
X135888Y-114919D01*
X135862Y-114874D01*
X135857Y-114862D01*
X135857Y-114858D01*
X135827Y-114751D01*
X135816Y-114641D01*
X135774Y-114562D01*
X135749Y-114475D01*
X135681Y-114388D01*
X135652Y-114333D01*
Y-114124D01*
X135436D01*
X135407Y-114108D01*
X135322Y-114037D01*
X135236Y-114011D01*
X135157Y-113967D01*
X135047Y-113953D01*
X134941Y-113921D01*
X134852Y-113930D01*
X134762Y-113919D01*
D02*
G37*
G36*
X154990Y-115656D02*
X150010D01*
X149594Y-115738D01*
X149241Y-115974D01*
X149006Y-116326D01*
X148923Y-116742D01*
Y-119754D01*
X149006Y-120170D01*
X149241Y-120522D01*
X149594Y-120758D01*
X150010Y-120841D01*
X150946D01*
X150971Y-120861D01*
Y-121923D01*
X149142D01*
X148726Y-122006D01*
X148374Y-122241D01*
X148138Y-122594D01*
X148056Y-123010D01*
Y-127990D01*
X148138Y-128406D01*
X148374Y-128759D01*
X148726Y-128994D01*
X149142Y-129077D01*
X152154D01*
X152570Y-128994D01*
X152922Y-128759D01*
X153158Y-128406D01*
X153241Y-127990D01*
Y-124086D01*
X153581Y-123745D01*
X153913Y-123249D01*
X154029Y-122664D01*
Y-120861D01*
X154054Y-120841D01*
X154990D01*
X155406Y-120758D01*
X155759Y-120522D01*
X155994Y-120170D01*
X156077Y-119754D01*
Y-116742D01*
X155994Y-116326D01*
X155759Y-115974D01*
X155406Y-115738D01*
X154990Y-115656D01*
D02*
G37*
G36*
X256876Y-147622D02*
X254935D01*
X253030Y-148001D01*
X251236Y-148744D01*
X249621Y-149823D01*
X248248Y-151196D01*
X247169Y-152811D01*
X246426Y-154605D01*
X246047Y-156509D01*
Y-158451D01*
X246426Y-160356D01*
X247169Y-162150D01*
X248248Y-163765D01*
X249621Y-165138D01*
X251236Y-166217D01*
X253030Y-166960D01*
X254935Y-167339D01*
X256876D01*
X258781Y-166960D01*
X260575Y-166217D01*
X262190Y-165138D01*
X263563Y-163765D01*
X264642Y-162150D01*
X265385Y-160356D01*
X265764Y-158451D01*
Y-156509D01*
X265385Y-154605D01*
X264642Y-152811D01*
X263563Y-151196D01*
X262190Y-149823D01*
X260575Y-148744D01*
X258781Y-148001D01*
X256876Y-147622D01*
D02*
G37*
G36*
X20656D02*
X18714D01*
X16809Y-148001D01*
X15015Y-148744D01*
X13401Y-149823D01*
X12028Y-151196D01*
X10949Y-152811D01*
X10206Y-154605D01*
X9827Y-156509D01*
Y-158451D01*
X10206Y-160356D01*
X10949Y-162150D01*
X12028Y-163765D01*
X13401Y-165138D01*
X15015Y-166217D01*
X16809Y-166960D01*
X18714Y-167339D01*
X20656D01*
X22561Y-166960D01*
X24355Y-166217D01*
X25969Y-165138D01*
X27343Y-163765D01*
X28421Y-162150D01*
X29164Y-160356D01*
X29543Y-158451D01*
Y-156509D01*
X29164Y-154605D01*
X28421Y-152811D01*
X27343Y-151196D01*
X25969Y-149823D01*
X24355Y-148744D01*
X22561Y-148001D01*
X20656Y-147622D01*
D02*
G37*
%LPD*%
G36*
X202593Y-24812D02*
X202784Y-25274D01*
X200879Y-27179D01*
X200658Y-27510D01*
X200580Y-27900D01*
Y-36500D01*
X200658Y-36890D01*
X200879Y-37221D01*
X206679Y-43021D01*
X207010Y-43242D01*
X207400Y-43320D01*
X223300D01*
X223690Y-43242D01*
X224021Y-43021D01*
X230921Y-36121D01*
X231142Y-35790D01*
X231220Y-35400D01*
Y-27900D01*
X231142Y-27510D01*
X230921Y-27179D01*
X229015Y-25274D01*
X229207Y-24812D01*
X247475D01*
X248248Y-25969D01*
X249621Y-27343D01*
X251236Y-28421D01*
X253030Y-29164D01*
X254935Y-29543D01*
X255978D01*
X265370Y-38936D01*
Y-66335D01*
X135870D01*
X118970Y-49435D01*
Y-27235D01*
X121394Y-24812D01*
X202593Y-24812D01*
D02*
G37*
G36*
X254221Y-71153D02*
X254211Y-71058D01*
X254181Y-70973D01*
X254130Y-70898D01*
X254059Y-70833D01*
X253968Y-70778D01*
X253857Y-70733D01*
X253725Y-70698D01*
X253574Y-70673D01*
X253402Y-70658D01*
X253209Y-70653D01*
Y-69653D01*
X253402Y-69648D01*
X253574Y-69633D01*
X253725Y-69608D01*
X253857Y-69573D01*
X253968Y-69528D01*
X254059Y-69473D01*
X254130Y-69408D01*
X254181Y-69333D01*
X254211Y-69248D01*
X254221Y-69153D01*
Y-71153D01*
D02*
G37*
G36*
X251747Y-69248D02*
X251777Y-69333D01*
X251828Y-69408D01*
X251899Y-69473D01*
X251990Y-69528D01*
X252101Y-69573D01*
X252233Y-69608D01*
X252384Y-69633D01*
X252557Y-69648D01*
X252749Y-69653D01*
Y-70653D01*
X252557Y-70658D01*
X252384Y-70673D01*
X252233Y-70698D01*
X252101Y-70733D01*
X251990Y-70778D01*
X251899Y-70833D01*
X251828Y-70898D01*
X251777Y-70973D01*
X251747Y-71058D01*
X251737Y-71153D01*
Y-69153D01*
X251747Y-69248D01*
D02*
G37*
G36*
X157653Y-91143D02*
X157668Y-91315D01*
X157693Y-91467D01*
X157728Y-91599D01*
X157773Y-91710D01*
X157828Y-91801D01*
X157893Y-91872D01*
X157968Y-91923D01*
X158053Y-91953D01*
X158148Y-91963D01*
X156148D01*
X156243Y-91953D01*
X156328Y-91923D01*
X156403Y-91872D01*
X156468Y-91801D01*
X156523Y-91710D01*
X156568Y-91599D01*
X156603Y-91467D01*
X156628Y-91315D01*
X156643Y-91143D01*
X156648Y-90951D01*
X157648D01*
X157653Y-91143D01*
D02*
G37*
G36*
X112959Y-95359D02*
X112852Y-95960D01*
X112730Y-96042D01*
X112494Y-96394D01*
X112411Y-96810D01*
Y-97446D01*
X112391Y-97471D01*
X108421D01*
X108393Y-97468D01*
X108319Y-97456D01*
X108267Y-97443D01*
X108244Y-97435D01*
X108236Y-97423D01*
X108169Y-97357D01*
X108117Y-97279D01*
X108028Y-97220D01*
X107952Y-97145D01*
X107864Y-97110D01*
X107786Y-97058D01*
X107681Y-97037D01*
X107633Y-97018D01*
X107400Y-96785D01*
X106769Y-96420D01*
X106064Y-96232D01*
X105335D01*
X104631Y-96420D01*
X104000Y-96785D01*
X103485Y-97300D01*
X103120Y-97931D01*
X102931Y-98636D01*
Y-99365D01*
X103120Y-100069D01*
X103485Y-100700D01*
X104000Y-101215D01*
X104631Y-101580D01*
X105335Y-101769D01*
X106064D01*
X106769Y-101580D01*
X107400Y-101215D01*
X107633Y-100982D01*
X107681Y-100963D01*
X107786Y-100942D01*
X107864Y-100890D01*
X107952Y-100855D01*
X108028Y-100780D01*
X108117Y-100721D01*
X108169Y-100643D01*
X108236Y-100577D01*
X108244Y-100565D01*
X108267Y-100557D01*
X108319Y-100544D01*
X108393Y-100532D01*
X108421Y-100529D01*
X112391D01*
X112411Y-100554D01*
Y-101790D01*
X112494Y-102206D01*
X112730Y-102559D01*
X113082Y-102794D01*
X113498Y-102877D01*
X114671D01*
Y-105480D01*
X114788Y-106065D01*
X115119Y-106561D01*
X115705Y-107147D01*
X116201Y-107478D01*
X116787Y-107595D01*
X118710D01*
X119296Y-107478D01*
X119329Y-107456D01*
X120272D01*
Y-110828D01*
X120126Y-110974D01*
X119329D01*
X119296Y-110952D01*
X118710Y-110835D01*
X118620Y-110853D01*
X118529Y-110835D01*
X117887D01*
X117833Y-110825D01*
X117742Y-110786D01*
X117640Y-110786D01*
X117541Y-110766D01*
X117443Y-110786D01*
X117344Y-110786D01*
X117295Y-110806D01*
X116839Y-110835D01*
X99613D01*
X99028Y-110952D01*
X98532Y-111283D01*
X96915Y-112900D01*
X23179D01*
X22197Y-111919D01*
X21701Y-111587D01*
X21116Y-111471D01*
X19239D01*
X19219Y-111446D01*
Y-110953D01*
X19117Y-110441D01*
X18827Y-110007D01*
X18393Y-109717D01*
X17881Y-109615D01*
X15315D01*
X11000Y-105300D01*
X11000Y-90769D01*
X24574Y-75700D01*
X93300D01*
X112959Y-95359D01*
D02*
G37*
G36*
X113251Y-100000D02*
X113241Y-99905D01*
X113211Y-99820D01*
X113160Y-99745D01*
X113089Y-99680D01*
X112998Y-99625D01*
X112887Y-99580D01*
X112755Y-99545D01*
X112604Y-99520D01*
X112432Y-99505D01*
X112239Y-99500D01*
Y-98500D01*
X112432Y-98495D01*
X112604Y-98480D01*
X112755Y-98455D01*
X112887Y-98420D01*
X112998Y-98375D01*
X113089Y-98320D01*
X113160Y-98255D01*
X113211Y-98180D01*
X113241Y-98095D01*
X113251Y-98000D01*
Y-100000D01*
D02*
G37*
G36*
X107461Y-98095D02*
X107538Y-98180D01*
X107628Y-98255D01*
X107730Y-98320D01*
X107845Y-98375D01*
X107972Y-98420D01*
X108112Y-98455D01*
X108263Y-98480D01*
X108427Y-98495D01*
X108604Y-98500D01*
Y-99500D01*
X108427Y-99505D01*
X108263Y-99520D01*
X108112Y-99545D01*
X107972Y-99580D01*
X107845Y-99625D01*
X107730Y-99680D01*
X107628Y-99745D01*
X107538Y-99820D01*
X107461Y-99905D01*
X107396Y-100000D01*
Y-98000D01*
X107461Y-98095D01*
D02*
G37*
G36*
X135149Y-67057D02*
X135480Y-67277D01*
X135870Y-67355D01*
X140967D01*
X154200Y-82100D01*
X153900Y-107114D01*
X151374Y-109159D01*
X150010D01*
X149594Y-109242D01*
X149241Y-109478D01*
X149006Y-109830D01*
X148936Y-110183D01*
X148921Y-110200D01*
X146779D01*
X146764Y-110183D01*
X146694Y-109830D01*
X146458Y-109478D01*
X146106Y-109242D01*
X145690Y-109159D01*
X140710D01*
X140294Y-109242D01*
X139942Y-109478D01*
X139706Y-109830D01*
X139632Y-110200D01*
X132109Y-110200D01*
Y-107456D01*
X133257D01*
X133500Y-107504D01*
X133743Y-107456D01*
X135652D01*
Y-104675D01*
X135029D01*
Y-102299D01*
X135196Y-102133D01*
X135500Y-101398D01*
Y-100602D01*
X135196Y-99867D01*
X134633Y-99304D01*
X133898Y-99000D01*
X133102D01*
X132367Y-99304D01*
X131805Y-99867D01*
X131500Y-100602D01*
Y-101398D01*
X131805Y-102133D01*
X131971Y-102299D01*
Y-104675D01*
X131690D01*
Y-105659D01*
X126711D01*
X126569Y-105564D01*
X125984Y-105448D01*
X124523D01*
X123938Y-105564D01*
X123796Y-105659D01*
X121378D01*
X120691Y-104919D01*
Y-104675D01*
X120465D01*
X117900Y-101910D01*
Y-71743D01*
X125075Y-66500D01*
X134593D01*
X135149Y-67057D01*
D02*
G37*
G36*
X117541Y-112943D02*
X117531Y-112928D01*
X117501Y-112915D01*
X117451Y-112903D01*
X117381Y-112893D01*
X117181Y-112877D01*
X116541Y-112865D01*
Y-111865D01*
X116731Y-111864D01*
X117501Y-111814D01*
X117531Y-111801D01*
X117541Y-111786D01*
Y-112943D01*
D02*
G37*
G36*
X18389Y-112095D02*
X18419Y-112180D01*
X18470Y-112255D01*
X18541Y-112320D01*
X18632Y-112375D01*
X18743Y-112420D01*
X18875Y-112455D01*
X19026Y-112480D01*
X19198Y-112495D01*
X19391Y-112500D01*
Y-113500D01*
X19198Y-113505D01*
X19026Y-113520D01*
X18875Y-113545D01*
X18743Y-113580D01*
X18632Y-113625D01*
X18541Y-113680D01*
X18470Y-113745D01*
X18419Y-113820D01*
X18389Y-113905D01*
X18379Y-114000D01*
Y-112000D01*
X18389Y-112095D01*
D02*
G37*
G36*
X23057Y-114227D02*
X23426Y-114541D01*
X23589Y-114655D01*
X23738Y-114741D01*
X23872Y-114799D01*
X23992Y-114829D01*
X24098Y-114830D01*
X24189Y-114803D01*
X24265Y-114747D01*
X22863Y-116150D01*
X22919Y-116073D01*
X22946Y-115982D01*
X22944Y-115876D01*
X22915Y-115756D01*
X22857Y-115622D01*
X22771Y-115474D01*
X22657Y-115311D01*
X22514Y-115133D01*
X22144Y-114735D01*
X22851Y-114028D01*
X23057Y-114227D01*
D02*
G37*
G36*
X117541Y-116093D02*
X117531Y-116142D01*
X117501Y-116186D01*
X117451Y-116225D01*
X117381Y-116259D01*
X117291Y-116287D01*
X117181Y-116311D01*
X117051Y-116329D01*
X116901Y-116342D01*
X116541Y-116352D01*
Y-115352D01*
X116731Y-115348D01*
X117051Y-115314D01*
X117181Y-115285D01*
X117291Y-115248D01*
X117381Y-115202D01*
X117451Y-115148D01*
X117501Y-115085D01*
X117531Y-115015D01*
X117541Y-114936D01*
Y-116093D01*
D02*
G37*
G36*
X111847Y-114947D02*
X111877Y-115032D01*
X111928Y-115107D01*
X111999Y-115172D01*
X112090Y-115227D01*
X112201Y-115272D01*
X112333Y-115307D01*
X112485Y-115332D01*
X112657Y-115347D01*
X112849Y-115352D01*
Y-116352D01*
X112657Y-116357D01*
X112485Y-116372D01*
X112333Y-116397D01*
X112201Y-116432D01*
X112090Y-116477D01*
X111999Y-116532D01*
X111928Y-116597D01*
X111877Y-116672D01*
X111847Y-116757D01*
X111837Y-116852D01*
Y-114852D01*
X111847Y-114947D01*
D02*
G37*
G36*
X106363Y-116900D02*
X106353Y-116805D01*
X106323Y-116720D01*
X106272Y-116645D01*
X106201Y-116580D01*
X106110Y-116525D01*
X105999Y-116480D01*
X105867Y-116445D01*
X105716Y-116420D01*
X105543Y-116405D01*
X105351Y-116400D01*
Y-115400D01*
X105543Y-115395D01*
X105716Y-115380D01*
X105867Y-115355D01*
X105999Y-115320D01*
X106110Y-115275D01*
X106201Y-115220D01*
X106272Y-115155D01*
X106323Y-115080D01*
X106353Y-114995D01*
X106363Y-114900D01*
Y-116900D01*
D02*
G37*
G36*
X102461Y-114995D02*
X102538Y-115080D01*
X102628Y-115155D01*
X102731Y-115220D01*
X102845Y-115275D01*
X102972Y-115320D01*
X103112Y-115355D01*
X103263Y-115380D01*
X103427Y-115395D01*
X103604Y-115400D01*
Y-116400D01*
X103427Y-116405D01*
X103263Y-116420D01*
X103112Y-116445D01*
X102972Y-116480D01*
X102845Y-116525D01*
X102731Y-116580D01*
X102628Y-116645D01*
X102538Y-116720D01*
X102461Y-116805D01*
X102396Y-116900D01*
Y-114900D01*
X102461Y-114995D01*
D02*
G37*
G36*
X119879Y-119242D02*
X119864Y-119252D01*
X119851Y-119282D01*
X119839Y-119332D01*
X119829Y-119402D01*
X119813Y-119602D01*
X119801Y-120052D01*
X119800Y-120242D01*
X118800D01*
X118795Y-120051D01*
X118780Y-119879D01*
X118755Y-119728D01*
X118720Y-119597D01*
X118675Y-119485D01*
X118620Y-119394D01*
X118555Y-119323D01*
X118480Y-119272D01*
X118395Y-119241D01*
X118300Y-119230D01*
X119879Y-119242D01*
D02*
G37*
G36*
X119805Y-124573D02*
X119820Y-124737D01*
X119845Y-124889D01*
X119880Y-125028D01*
X119925Y-125155D01*
X119980Y-125269D01*
X120045Y-125372D01*
X120120Y-125462D01*
X120205Y-125539D01*
X120300Y-125604D01*
X118300D01*
X118395Y-125539D01*
X118480Y-125462D01*
X118555Y-125372D01*
X118620Y-125269D01*
X118675Y-125155D01*
X118720Y-125028D01*
X118755Y-124889D01*
X118780Y-124737D01*
X118795Y-124573D01*
X118800Y-124396D01*
X119800D01*
X119805Y-124573D01*
D02*
G37*
G36*
X121157Y-129979D02*
X121526Y-130293D01*
X121689Y-130407D01*
X121838Y-130493D01*
X121972Y-130551D01*
X122092Y-130581D01*
X122198Y-130582D01*
X122289Y-130555D01*
X122365Y-130499D01*
X120963Y-131902D01*
X121019Y-131825D01*
X121046Y-131734D01*
X121044Y-131628D01*
X121015Y-131509D01*
X120957Y-131374D01*
X120871Y-131226D01*
X120757Y-131063D01*
X120614Y-130885D01*
X120244Y-130487D01*
X120951Y-129780D01*
X121157Y-129979D01*
D02*
G37*
G36*
X97405Y-140573D02*
X97420Y-140737D01*
X97445Y-140889D01*
X97480Y-141028D01*
X97525Y-141155D01*
X97580Y-141270D01*
X97645Y-141372D01*
X97720Y-141462D01*
X97805Y-141539D01*
X97900Y-141604D01*
X95900D01*
X95995Y-141539D01*
X96080Y-141462D01*
X96155Y-141372D01*
X96220Y-141270D01*
X96275Y-141155D01*
X96320Y-141028D01*
X96355Y-140889D01*
X96380Y-140737D01*
X96395Y-140573D01*
X96400Y-140396D01*
X97400D01*
X97405Y-140573D01*
D02*
G37*
G36*
X97838Y-145031D02*
X97741Y-145092D01*
X97655Y-145167D01*
X97578Y-145254D01*
X97512Y-145354D01*
X97456Y-145466D01*
X97410Y-145592D01*
X97375Y-145730D01*
X97349Y-145881D01*
X97334Y-146045D01*
X97329Y-146221D01*
X96329Y-146184D01*
X96324Y-146007D01*
X96309Y-145843D01*
X96285Y-145690D01*
X96250Y-145550D01*
X96206Y-145421D01*
X96153Y-145305D01*
X96089Y-145200D01*
X96016Y-145107D01*
X95932Y-145027D01*
X95839Y-144958D01*
X97838Y-145031D01*
D02*
G37*
G36*
X97329Y-152743D02*
X97351Y-152998D01*
X97418Y-153274D01*
X97530Y-153571D01*
X97686Y-153890D01*
X97887Y-154229D01*
X98133Y-154589D01*
X98424Y-154970D01*
X99139Y-155795D01*
X99564Y-156239D01*
X94053Y-156139D01*
X94485Y-155718D01*
X95214Y-154928D01*
X95509Y-154560D01*
X95760Y-154210D01*
X95965Y-153877D01*
X96124Y-153562D01*
X96238Y-153265D01*
X96306Y-152986D01*
X96329Y-152724D01*
X97329Y-152743D01*
D02*
G37*
%LPC*%
G36*
X91365Y-89231D02*
X90636D01*
X89931Y-89420D01*
X89300Y-89785D01*
X88785Y-90300D01*
X88420Y-90931D01*
X88231Y-91636D01*
Y-92365D01*
X88420Y-93069D01*
X88785Y-93700D01*
X89300Y-94215D01*
X89931Y-94580D01*
X90636Y-94769D01*
X91365D01*
X92069Y-94580D01*
X92700Y-94215D01*
X93215Y-93700D01*
X93314Y-93529D01*
X97762D01*
X97804Y-93633D01*
X98367Y-94195D01*
X99102Y-94500D01*
X99898D01*
X100633Y-94195D01*
X101196Y-93633D01*
X101500Y-92898D01*
Y-92102D01*
X101196Y-91367D01*
X100633Y-90804D01*
X99898Y-90500D01*
X99102D01*
X99029Y-90530D01*
X98729Y-90471D01*
X93314D01*
X93215Y-90300D01*
X92700Y-89785D01*
X92069Y-89420D01*
X91365Y-89231D01*
D02*
G37*
G36*
X152158Y-91123D02*
X149146D01*
X148730Y-91206D01*
X148378Y-91442D01*
X148142Y-91794D01*
X148059Y-92210D01*
Y-97190D01*
X148142Y-97606D01*
X148378Y-97958D01*
X148730Y-98194D01*
X149083Y-98264D01*
X149123Y-98298D01*
Y-99002D01*
X149083Y-99036D01*
X148730Y-99106D01*
X148378Y-99341D01*
X148142Y-99694D01*
X148059Y-100110D01*
Y-100458D01*
X147698Y-100700D01*
X146902D01*
X146167Y-101005D01*
X145605Y-101567D01*
X145300Y-102302D01*
Y-103098D01*
X145605Y-103833D01*
X146167Y-104395D01*
X146902Y-104700D01*
X147698D01*
X148059Y-104942D01*
Y-105090D01*
X148142Y-105506D01*
X148378Y-105859D01*
X148730Y-106094D01*
X149146Y-106177D01*
X152158D01*
X152574Y-106094D01*
X152926Y-105859D01*
X153162Y-105506D01*
X153244Y-105090D01*
Y-100110D01*
X153162Y-99694D01*
X152926Y-99341D01*
X152574Y-99106D01*
X152221Y-99036D01*
X152181Y-99002D01*
Y-98298D01*
X152221Y-98264D01*
X152574Y-98194D01*
X152926Y-97958D01*
X153162Y-97606D01*
X153244Y-97190D01*
Y-92210D01*
X153162Y-91794D01*
X152926Y-91442D01*
X152574Y-91206D01*
X152158Y-91123D01*
D02*
G37*
%LPD*%
G36*
X151557Y-97447D02*
X151472Y-97477D01*
X151397Y-97528D01*
X151332Y-97599D01*
X151277Y-97690D01*
X151232Y-97801D01*
X151197Y-97933D01*
X151172Y-98085D01*
X151157Y-98257D01*
X151152Y-98449D01*
X150152D01*
X150147Y-98257D01*
X150132Y-98085D01*
X150107Y-97933D01*
X150072Y-97801D01*
X150027Y-97690D01*
X149972Y-97599D01*
X149907Y-97528D01*
X149832Y-97477D01*
X149747Y-97447D01*
X149652Y-97437D01*
X151652D01*
X151557Y-97447D01*
D02*
G37*
G36*
X151157Y-99043D02*
X151172Y-99215D01*
X151197Y-99367D01*
X151232Y-99499D01*
X151277Y-99610D01*
X151332Y-99701D01*
X151397Y-99772D01*
X151472Y-99823D01*
X151557Y-99853D01*
X151652Y-99863D01*
X149652D01*
X149747Y-99853D01*
X149832Y-99823D01*
X149907Y-99772D01*
X149972Y-99701D01*
X150027Y-99610D01*
X150072Y-99499D01*
X150107Y-99367D01*
X150132Y-99215D01*
X150147Y-99043D01*
X150152Y-98851D01*
X151152D01*
X151157Y-99043D01*
D02*
G37*
G36*
X148899Y-103700D02*
X148889Y-103605D01*
X148859Y-103520D01*
X148808Y-103445D01*
X148737Y-103380D01*
X148646Y-103325D01*
X148535Y-103280D01*
X148404Y-103245D01*
X148356Y-103237D01*
X148300Y-103250D01*
X148229Y-103272D01*
X148164Y-103298D01*
X148107Y-103328D01*
X148057Y-103362D01*
X148014Y-103400D01*
Y-103203D01*
X147887Y-103200D01*
Y-102200D01*
X148014Y-102197D01*
Y-102000D01*
X148057Y-102038D01*
X148107Y-102072D01*
X148164Y-102102D01*
X148229Y-102128D01*
X148300Y-102150D01*
X148356Y-102163D01*
X148404Y-102155D01*
X148535Y-102120D01*
X148646Y-102075D01*
X148737Y-102020D01*
X148808Y-101955D01*
X148859Y-101880D01*
X148889Y-101795D01*
X148899Y-101700D01*
Y-103700D01*
D02*
G37*
G36*
X134847Y-115028D02*
X134868Y-115126D01*
X134904Y-115229D01*
X134953Y-115337D01*
X135017Y-115450D01*
X135094Y-115568D01*
X135186Y-115692D01*
X135413Y-115954D01*
X135547Y-116093D01*
X134840Y-116800D01*
X134641Y-116608D01*
X134282Y-116306D01*
X134122Y-116194D01*
X133974Y-116110D01*
X133839Y-116053D01*
X133716Y-116023D01*
X133607Y-116019D01*
X133510Y-116042D01*
X133426Y-116093D01*
X134840Y-114936D01*
X134847Y-115028D01*
D02*
G37*
G36*
X140463Y-119700D02*
X140453Y-119605D01*
X140423Y-119520D01*
X140372Y-119445D01*
X140301Y-119380D01*
X140210Y-119325D01*
X140099Y-119280D01*
X139967Y-119245D01*
X139815Y-119220D01*
X139643Y-119205D01*
X139451Y-119200D01*
Y-118200D01*
X139643Y-118195D01*
X139815Y-118180D01*
X139967Y-118155D01*
X140099Y-118120D01*
X140210Y-118075D01*
X140301Y-118020D01*
X140372Y-117955D01*
X140423Y-117880D01*
X140453Y-117795D01*
X140463Y-117700D01*
Y-119700D01*
D02*
G37*
G36*
X134590Y-119240D02*
X134505Y-119271D01*
X134430Y-119321D01*
X134365Y-119392D01*
X134310Y-119483D01*
X134265Y-119595D01*
X134230Y-119726D01*
X134205Y-119878D01*
X134190Y-120050D01*
X134185Y-120242D01*
X133185D01*
X133180Y-120050D01*
X133165Y-119878D01*
X133140Y-119726D01*
X133105Y-119595D01*
X133060Y-119483D01*
X133005Y-119392D01*
X132940Y-119321D01*
X132865Y-119271D01*
X132780Y-119240D01*
X132685Y-119230D01*
X134685D01*
X134590Y-119240D01*
D02*
G37*
G36*
X145057Y-120011D02*
X144972Y-120041D01*
X144897Y-120092D01*
X144832Y-120163D01*
X144777Y-120254D01*
X144732Y-120365D01*
X144697Y-120496D01*
X144672Y-120648D01*
X144657Y-120820D01*
X144652Y-121013D01*
X143652D01*
X143647Y-120820D01*
X143632Y-120648D01*
X143607Y-120496D01*
X143572Y-120365D01*
X143527Y-120254D01*
X143472Y-120163D01*
X143407Y-120092D01*
X143332Y-120041D01*
X143247Y-120011D01*
X143152Y-120001D01*
X145152D01*
X145057Y-120011D01*
D02*
G37*
G36*
X144657Y-121943D02*
X144672Y-122116D01*
X144697Y-122267D01*
X144732Y-122399D01*
X144777Y-122510D01*
X144832Y-122601D01*
X144897Y-122672D01*
X144972Y-122723D01*
X145057Y-122753D01*
X145152Y-122763D01*
X143152D01*
X143247Y-122753D01*
X143332Y-122723D01*
X143407Y-122672D01*
X143472Y-122601D01*
X143527Y-122510D01*
X143572Y-122399D01*
X143607Y-122267D01*
X143632Y-122116D01*
X143647Y-121943D01*
X143652Y-121751D01*
X144652D01*
X144657Y-121943D01*
D02*
G37*
G36*
X134187Y-122733D02*
X134204Y-122927D01*
X134218Y-123012D01*
X134236Y-123091D01*
X134259Y-123162D01*
X134285Y-123227D01*
X134316Y-123284D01*
X134351Y-123333D01*
X134389Y-123376D01*
X132990Y-123396D01*
X133027Y-123353D01*
X133060Y-123303D01*
X133089Y-123245D01*
X133115Y-123181D01*
X133136Y-123109D01*
X133154Y-123030D01*
X133168Y-122944D01*
X133178Y-122851D01*
X133185Y-122643D01*
X134185Y-122626D01*
X134187Y-122733D01*
D02*
G37*
G36*
X134436Y-124784D02*
X134407Y-124835D01*
X134382Y-124893D01*
X134360Y-124959D01*
X134342Y-125031D01*
X134327Y-125111D01*
X134315Y-125197D01*
X134302Y-125392D01*
X134300Y-125500D01*
X133300Y-125617D01*
X133298Y-125509D01*
X133280Y-125317D01*
X133264Y-125232D01*
X133244Y-125155D01*
X133219Y-125085D01*
X133190Y-125022D01*
X133156Y-124968D01*
X133118Y-124920D01*
X133075Y-124881D01*
X134468Y-124741D01*
X134436Y-124784D01*
D02*
G37*
G36*
X134305Y-130749D02*
X134320Y-130913D01*
X134346Y-131063D01*
X134382Y-131201D01*
X134428Y-131326D01*
X134485Y-131438D01*
X134551Y-131537D01*
X134628Y-131623D01*
X134715Y-131696D01*
X134813Y-131756D01*
X132815Y-131857D01*
X132907Y-131787D01*
X132990Y-131706D01*
X133062Y-131612D01*
X133125Y-131507D01*
X133179Y-131389D01*
X133222Y-131260D01*
X133256Y-131119D01*
X133281Y-130966D01*
X133295Y-130802D01*
X133300Y-130625D01*
X134300Y-130573D01*
X134305Y-130749D01*
D02*
G37*
G36*
X153405Y-120011D02*
X153320Y-120041D01*
X153245Y-120092D01*
X153180Y-120163D01*
X153125Y-120254D01*
X153080Y-120365D01*
X153045Y-120496D01*
X153020Y-120648D01*
X153005Y-120820D01*
X153000Y-121013D01*
X152000D01*
X151995Y-120820D01*
X151980Y-120648D01*
X151955Y-120496D01*
X151920Y-120365D01*
X151875Y-120254D01*
X151820Y-120163D01*
X151755Y-120092D01*
X151680Y-120041D01*
X151595Y-120011D01*
X151500Y-120001D01*
X153500D01*
X153405Y-120011D01*
D02*
G37*
D13*
X133500Y-105975D02*
Y-101000D01*
X91000Y-92000D02*
X98729D01*
X99229Y-92500D01*
X99500D01*
X124523Y-106977D02*
X125984D01*
X123525Y-107975D02*
X124523Y-106977D01*
X116787Y-106065D02*
X118710D01*
X116201Y-105480D02*
X116787Y-106065D01*
X116201Y-105480D02*
Y-100497D01*
X115004Y-99300D02*
X116201Y-100497D01*
X105700Y-99000D02*
X114704D01*
X115004Y-99300D01*
X133800Y-133400D02*
X133900Y-133500D01*
X133800Y-133400D02*
Y-124200D01*
X133700Y-124100D02*
X133800Y-124200D01*
X119300Y-127300D02*
Y-118754D01*
X119209Y-118664D02*
X119300Y-118754D01*
X118710Y-118664D02*
X119209D01*
X122716Y-132252D02*
X123700D01*
X119862Y-129398D02*
X122716Y-132252D01*
X119862Y-129398D02*
Y-127862D01*
X119300Y-127300D02*
X119862Y-127862D01*
X157148Y-94700D02*
Y-76373D01*
X178611Y-54910D01*
Y-51564D01*
X150552Y-103484D02*
Y-102700D01*
X150652Y-102600D01*
X147300Y-102700D02*
X150552D01*
X133671Y-118664D02*
X133685Y-118678D01*
Y-124085D02*
Y-118678D01*
Y-124085D02*
X133700Y-124100D01*
X143200Y-111752D02*
X152500D01*
X25600Y-110004D02*
X26584D01*
X33266Y-103322D02*
X35878D01*
X37600Y-101600D01*
X48844Y-106013D02*
X51600D01*
X37600Y-101600D02*
X37743Y-101457D01*
Y-82626D02*
X37887Y-82483D01*
X15834Y-113000D02*
X21116D01*
X24616Y-116500D01*
X25600D01*
X249000Y-70148D02*
X249005Y-70153D01*
X256220D01*
X256766Y-70700D01*
X118529Y-112365D02*
X118620Y-112455D01*
X99613Y-112365D02*
X118529D01*
X96900Y-115078D02*
X99613Y-112365D01*
X100700Y-115900D02*
X109052D01*
X109100Y-115852D01*
X117782D01*
X118120Y-115514D01*
X118710D01*
X123700Y-138748D02*
X124684D01*
X96900Y-143300D02*
Y-115078D01*
X126191Y-112365D02*
X130259Y-116433D01*
X79200Y-106113D02*
X79300Y-106013D01*
X157148Y-103584D02*
Y-102600D01*
X134261Y-115514D02*
X137447Y-118700D01*
X133671Y-115514D02*
X134261D01*
X137447Y-118700D02*
X142748D01*
X134257Y-115532D02*
X134330Y-115605D01*
X118120Y-109215D02*
X118710D01*
X133671Y-112365D02*
X142587D01*
X143200Y-111752D01*
X150652Y-102600D02*
Y-94700D01*
X142748Y-118700D02*
X143200Y-118248D01*
X144152Y-125500D02*
Y-119200D01*
X143200Y-118248D02*
X144152Y-119200D01*
X152500Y-122664D02*
Y-118248D01*
X150648Y-124516D02*
X152500Y-122664D01*
X150648Y-125500D02*
Y-124516D01*
X96829Y-143371D02*
X96900Y-143300D01*
X96829Y-158929D02*
Y-143371D01*
X96758Y-159000D02*
X96829Y-158929D01*
X128083Y-33004D02*
X128191Y-32897D01*
X118620Y-112455D02*
X118710Y-112365D01*
X214891Y-33057D02*
X215090Y-32857D01*
X215300Y-11500D02*
X216805Y-9995D01*
X215990Y-33022D02*
X216319Y-32693D01*
X118116Y-109233D02*
X118706D01*
X134257D02*
X134280D01*
X134352Y-109306D01*
Y-109328D02*
Y-109306D01*
D16*
X91000Y-92000D02*
D03*
X133900Y-133500D02*
D03*
X119300Y-127300D02*
D03*
X138371Y-96672D02*
D03*
X100600Y-106500D02*
D03*
X96900Y-143300D02*
D03*
X105700Y-99000D02*
D03*
X100700Y-115900D02*
D03*
D17*
X133671Y-106065D02*
D03*
X118710D02*
D03*
Y-109215D02*
D03*
Y-112365D02*
D03*
Y-115514D02*
D03*
Y-118664D02*
D03*
X133671Y-109215D02*
D03*
Y-112365D02*
D03*
Y-115514D02*
D03*
Y-118664D02*
D03*
D18*
X115004Y-99300D02*
D03*
X121500D02*
D03*
X157148Y-102600D02*
D03*
X150652D02*
D03*
Y-94700D02*
D03*
X157148D02*
D03*
X150648Y-125500D02*
D03*
X144152D02*
D03*
D19*
X152500Y-111752D02*
D03*
Y-118248D02*
D03*
X181200Y-21552D02*
D03*
Y-28048D02*
D03*
X171900Y-21452D02*
D03*
Y-27948D02*
D03*
X123700Y-138748D02*
D03*
Y-132252D02*
D03*
X143200Y-118248D02*
D03*
Y-111752D02*
D03*
X109100Y-122348D02*
D03*
Y-115852D02*
D03*
X163700Y-27948D02*
D03*
Y-21452D02*
D03*
X249000Y-70148D02*
D03*
Y-63652D02*
D03*
X25600Y-110004D02*
D03*
Y-116500D02*
D03*
D20*
X79200Y-106113D02*
D03*
Y-120287D02*
D03*
X51600Y-106013D02*
D03*
Y-120187D02*
D03*
X65392Y-105991D02*
D03*
Y-120165D02*
D03*
D21*
X178800Y-56170D02*
D03*
Y-77430D02*
D03*
D23*
X113210Y-90600D02*
D03*
X121990D02*
D03*
D24*
X129400Y-78885D02*
D03*
Y-39515D02*
D03*
D25*
X265034Y-70700D02*
D03*
X256766D02*
D03*
X15834Y-113000D02*
D03*
X7566D02*
D03*
D26*
X191600Y-30499D02*
D03*
Y-17901D02*
D03*
D42*
X126191Y-112365D02*
D03*
D43*
X214900Y-70300D02*
D03*
X37600Y-101600D02*
D03*
X36900Y-44200D02*
D03*
X215300Y-11500D02*
D03*
X167600Y-43100D02*
D03*
X139500Y-148000D02*
D03*
D44*
X37887Y-82483D02*
D03*
Y-62798D02*
D03*
X214891Y-52742D02*
D03*
Y-33057D02*
D03*
D45*
X106600Y-159000D02*
D03*
X96758D02*
D03*
X86915D02*
D03*
D46*
X255906Y-19685D02*
D03*
X19685D02*
D03*
Y-157480D02*
D03*
X255906D02*
D03*
D47*
X133500Y-101000D02*
D03*
X99500Y-92500D02*
D03*
X123525Y-107975D02*
D03*
X123500Y-116500D02*
D03*
Y-112500D02*
D03*
X129025Y-107975D02*
D03*
X129000Y-112500D02*
D03*
Y-116500D02*
D03*
X147300Y-102700D02*
D03*
X133700Y-124100D02*
D03*
D48*
X108800Y-71700D02*
D03*
X254600Y-100800D02*
D03*
X267100Y-125800D02*
D03*
X242100Y-75800D02*
D03*
X229600Y-100800D02*
D03*
X242100Y-125800D02*
D03*
X229600Y-150800D02*
D03*
X204600Y-100800D02*
D03*
X217100Y-125800D02*
D03*
X204600Y-150800D02*
D03*
X192100Y-75800D02*
D03*
X179600Y-100800D02*
D03*
X192100Y-125800D02*
D03*
X179600Y-150800D02*
D03*
X167100Y-75800D02*
D03*
Y-125800D02*
D03*
X154600Y-150800D02*
D03*
X129600D02*
D03*
X104600Y-50800D02*
D03*
Y-150800D02*
D03*
X92100Y-25800D02*
D03*
X79600Y-50800D02*
D03*
X92100Y-125800D02*
D03*
X79600Y-150800D02*
D03*
X67100Y-25800D02*
D03*
X54600Y-50800D02*
D03*
Y-150800D02*
D03*
X42100Y-25800D02*
D03*
X29600Y-50800D02*
D03*
X42100Y-125800D02*
D03*
X108700Y-78900D02*
D03*
X208900Y-39400D02*
D03*
X221700D02*
D03*
X224000Y-28000D02*
D03*
X206200Y-28700D02*
D03*
X48200Y-70000D02*
D03*
X31000Y-69300D02*
D03*
M02*
