G04*
G04 #@! TF.GenerationSoftware,Altium Limited,Altium Designer,20.1.8 (145)*
G04*
G04 Layer_Color=8421504*
%FSAX25Y25*%
%MOIN*%
G70*
G04*
G04 #@! TF.SameCoordinates,C8FD6469-2E7A-482B-AA5C-A4B5A51A614C*
G04*
G04*
G04 #@! TF.FilePolarity,Positive*
G04*
G01*
G75*
%ADD19R,0.01400X0.06600*%
G04:AMPARAMS|DCode=20|XSize=25.2mil|YSize=8.66mil|CornerRadius=1.08mil|HoleSize=0mil|Usage=FLASHONLY|Rotation=270.000|XOffset=0mil|YOffset=0mil|HoleType=Round|Shape=RoundedRectangle|*
%AMROUNDEDRECTD20*
21,1,0.02520,0.00650,0,0,270.0*
21,1,0.02303,0.00866,0,0,270.0*
1,1,0.00217,-0.00325,-0.01152*
1,1,0.00217,-0.00325,0.01152*
1,1,0.00217,0.00325,0.01152*
1,1,0.00217,0.00325,-0.01152*
%
%ADD20ROUNDEDRECTD20*%
G04:AMPARAMS|DCode=21|XSize=25.2mil|YSize=8.66mil|CornerRadius=1.08mil|HoleSize=0mil|Usage=FLASHONLY|Rotation=180.000|XOffset=0mil|YOffset=0mil|HoleType=Round|Shape=RoundedRectangle|*
%AMROUNDEDRECTD21*
21,1,0.02520,0.00650,0,0,180.0*
21,1,0.02303,0.00866,0,0,180.0*
1,1,0.00217,-0.01152,0.00325*
1,1,0.00217,0.01152,0.00325*
1,1,0.00217,0.01152,-0.00325*
1,1,0.00217,-0.01152,-0.00325*
%
%ADD21ROUNDEDRECTD21*%
%ADD22R,0.01500X0.05500*%
%ADD23R,0.07874X0.07874*%
%ADD24R,0.03937X0.07874*%
%ADD25R,0.07874X0.04331*%
%ADD26R,0.08898X0.08504*%
%ADD27R,0.02756X0.03386*%
%ADD28R,0.03937X0.03543*%
%ADD29R,0.03937X0.03543*%
%ADD30R,0.04252X0.05591*%
%ADD31R,0.05591X0.04252*%
%ADD32R,0.04724X0.04724*%
%ADD33R,0.03543X0.03937*%
%ADD34R,0.07480X0.07480*%
%ADD35R,0.07480X0.07087*%
%ADD36R,0.05315X0.01575*%
%ADD37R,0.03543X0.03150*%
%ADD38R,0.06693X0.04724*%
%ADD39R,0.04724X0.06693*%
%ADD40R,0.11811X0.06299*%
%ADD41R,0.24410X0.22835*%
%ADD42R,0.03110X0.03661*%
G04:AMPARAMS|DCode=43|XSize=23.62mil|YSize=43.31mil|CornerRadius=1.77mil|HoleSize=0mil|Usage=FLASHONLY|Rotation=0.000|XOffset=0mil|YOffset=0mil|HoleType=Round|Shape=RoundedRectangle|*
%AMROUNDEDRECTD43*
21,1,0.02362,0.03976,0,0,0.0*
21,1,0.02008,0.04331,0,0,0.0*
1,1,0.00354,0.01004,-0.01988*
1,1,0.00354,-0.01004,-0.01988*
1,1,0.00354,-0.01004,0.01988*
1,1,0.00354,0.01004,0.01988*
%
%ADD43ROUNDEDRECTD43*%
%ADD44O,0.06299X0.01181*%
%ADD45O,0.01181X0.06299*%
%ADD46R,0.03150X0.06693*%
%ADD47R,0.02600X0.03000*%
%ADD48R,0.03819X0.03622*%
%ADD49R,0.03543X0.02362*%
%ADD50R,0.05197X0.07087*%
G36*
X0272677Y0095591D02*
X0269843D01*
Y0097874D01*
X0272677D01*
Y0095591D01*
D02*
G37*
G36*
X0268740D02*
X0265905D01*
Y0097874D01*
X0268740D01*
Y0095591D01*
D02*
G37*
G36*
X0272677Y0091496D02*
X0269843D01*
Y0093779D01*
X0272677D01*
Y0091496D01*
D02*
G37*
G36*
X0268740D02*
X0265905D01*
Y0093779D01*
X0268740D01*
Y0091496D01*
D02*
G37*
G36*
X0272677Y0088110D02*
X0269843D01*
Y0090394D01*
X0272677D01*
Y0088110D01*
D02*
G37*
G36*
X0268740D02*
X0265905D01*
Y0090394D01*
X0268740D01*
Y0088110D01*
D02*
G37*
G36*
X0272677Y0084016D02*
X0269843D01*
Y0086299D01*
X0272677D01*
Y0084016D01*
D02*
G37*
G36*
X0268740D02*
X0265905D01*
Y0086299D01*
X0268740D01*
Y0084016D01*
D02*
G37*
G36*
X0272677Y0080630D02*
X0269843D01*
Y0082913D01*
X0272677D01*
Y0080630D01*
D02*
G37*
G36*
X0268740D02*
X0265905D01*
Y0082913D01*
X0268740D01*
Y0080630D01*
D02*
G37*
G36*
X0295000Y0073268D02*
X0292165D01*
Y0075551D01*
X0295000D01*
Y0073268D01*
D02*
G37*
G36*
X0290905D02*
X0288071D01*
Y0075551D01*
X0290905D01*
Y0073268D01*
D02*
G37*
G36*
X0287520D02*
X0284685D01*
Y0075551D01*
X0287520D01*
Y0073268D01*
D02*
G37*
G36*
X0283425D02*
X0280591D01*
Y0075551D01*
X0283425D01*
Y0073268D01*
D02*
G37*
G36*
X0280039D02*
X0277205D01*
Y0075551D01*
X0280039D01*
Y0073268D01*
D02*
G37*
G36*
X0295000Y0069331D02*
X0292165D01*
Y0071614D01*
X0295000D01*
Y0069331D01*
D02*
G37*
G36*
X0290905D02*
X0288071D01*
Y0071614D01*
X0290905D01*
Y0069331D01*
D02*
G37*
G36*
X0287520D02*
X0284685D01*
Y0071614D01*
X0287520D01*
Y0069331D01*
D02*
G37*
G36*
X0283425D02*
X0280591D01*
Y0071614D01*
X0283425D01*
Y0069331D01*
D02*
G37*
G36*
X0280039D02*
X0277205D01*
Y0071614D01*
X0280039D01*
Y0069331D01*
D02*
G37*
G36*
X0272677Y0113937D02*
X0269843D01*
Y0116220D01*
X0272677D01*
Y0113937D01*
D02*
G37*
G36*
X0268740D02*
X0265905D01*
Y0116220D01*
X0268740D01*
Y0113937D01*
D02*
G37*
G36*
X0272677Y0110551D02*
X0269843D01*
Y0112835D01*
X0272677D01*
Y0110551D01*
D02*
G37*
G36*
X0268740D02*
X0265905D01*
Y0112835D01*
X0268740D01*
Y0110551D01*
D02*
G37*
G36*
X0272677Y0106457D02*
X0269843D01*
Y0108740D01*
X0272677D01*
Y0106457D01*
D02*
G37*
G36*
X0268740D02*
X0265905D01*
Y0108740D01*
X0268740D01*
Y0106457D01*
D02*
G37*
G36*
X0272677Y0103071D02*
X0269843D01*
Y0105354D01*
X0272677D01*
Y0103071D01*
D02*
G37*
G36*
X0268740D02*
X0265905D01*
Y0105354D01*
X0268740D01*
Y0103071D01*
D02*
G37*
G36*
X0272677Y0098976D02*
X0269843D01*
Y0101260D01*
X0272677D01*
Y0098976D01*
D02*
G37*
G36*
X0268740D02*
X0265905D01*
Y0101260D01*
X0268740D01*
Y0098976D01*
D02*
G37*
G36*
X0295000Y0125236D02*
X0292165D01*
Y0127520D01*
X0295000D01*
Y0125236D01*
D02*
G37*
G36*
X0290905D02*
X0288071D01*
Y0127520D01*
X0290905D01*
Y0125236D01*
D02*
G37*
G36*
X0287520D02*
X0284685D01*
Y0127520D01*
X0287520D01*
Y0125236D01*
D02*
G37*
G36*
X0283425D02*
X0280591D01*
Y0127520D01*
X0283425D01*
Y0125236D01*
D02*
G37*
G36*
X0280039D02*
X0277205D01*
Y0127520D01*
X0280039D01*
Y0125236D01*
D02*
G37*
G36*
X0295000Y0121299D02*
X0292165D01*
Y0123583D01*
X0295000D01*
Y0121299D01*
D02*
G37*
G36*
X0290905D02*
X0288071D01*
Y0123583D01*
X0290905D01*
Y0121299D01*
D02*
G37*
G36*
X0287520D02*
X0284685D01*
Y0123583D01*
X0287520D01*
Y0121299D01*
D02*
G37*
G36*
X0283425D02*
X0280591D01*
Y0123583D01*
X0283425D01*
Y0121299D01*
D02*
G37*
G36*
X0280039D02*
X0277205D01*
Y0123583D01*
X0280039D01*
Y0121299D01*
D02*
G37*
G36*
X0313347Y0073268D02*
X0310512D01*
Y0075551D01*
X0313347D01*
Y0073268D01*
D02*
G37*
G36*
X0309961D02*
X0307126D01*
Y0075551D01*
X0309961D01*
Y0073268D01*
D02*
G37*
G36*
X0305866D02*
X0303031D01*
Y0075551D01*
X0305866D01*
Y0073268D01*
D02*
G37*
G36*
X0302480D02*
X0299646D01*
Y0075551D01*
X0302480D01*
Y0073268D01*
D02*
G37*
G36*
X0298386D02*
X0295551D01*
Y0075551D01*
X0298386D01*
Y0073268D01*
D02*
G37*
G36*
X0313347Y0069331D02*
X0310512D01*
Y0071614D01*
X0313347D01*
Y0069331D01*
D02*
G37*
G36*
X0309961D02*
X0307126D01*
Y0071614D01*
X0309961D01*
Y0069331D01*
D02*
G37*
G36*
X0305866D02*
X0303031D01*
Y0071614D01*
X0305866D01*
Y0069331D01*
D02*
G37*
G36*
X0302480D02*
X0299646D01*
Y0071614D01*
X0302480D01*
Y0069331D01*
D02*
G37*
G36*
X0298386D02*
X0295551D01*
Y0071614D01*
X0298386D01*
Y0069331D01*
D02*
G37*
G36*
X0324646Y0095591D02*
X0321811D01*
Y0097874D01*
X0324646D01*
Y0095591D01*
D02*
G37*
G36*
X0320709D02*
X0317874D01*
Y0097874D01*
X0320709D01*
Y0095591D01*
D02*
G37*
G36*
X0324646Y0091496D02*
X0321811D01*
Y0093779D01*
X0324646D01*
Y0091496D01*
D02*
G37*
G36*
X0320709D02*
X0317874D01*
Y0093779D01*
X0320709D01*
Y0091496D01*
D02*
G37*
G36*
X0324646Y0088110D02*
X0321811D01*
Y0090394D01*
X0324646D01*
Y0088110D01*
D02*
G37*
G36*
X0320709D02*
X0317874D01*
Y0090394D01*
X0320709D01*
Y0088110D01*
D02*
G37*
G36*
X0324646Y0084016D02*
X0321811D01*
Y0086299D01*
X0324646D01*
Y0084016D01*
D02*
G37*
G36*
X0320709D02*
X0317874D01*
Y0086299D01*
X0320709D01*
Y0084016D01*
D02*
G37*
G36*
X0324646Y0080630D02*
X0321811D01*
Y0082913D01*
X0324646D01*
Y0080630D01*
D02*
G37*
G36*
X0320709D02*
X0317874D01*
Y0082913D01*
X0320709D01*
Y0080630D01*
D02*
G37*
G36*
X0313347Y0125236D02*
X0310512D01*
Y0127520D01*
X0313347D01*
Y0125236D01*
D02*
G37*
G36*
X0309961D02*
X0307126D01*
Y0127520D01*
X0309961D01*
Y0125236D01*
D02*
G37*
G36*
X0305866D02*
X0303031D01*
Y0127520D01*
X0305866D01*
Y0125236D01*
D02*
G37*
G36*
X0302480D02*
X0299646D01*
Y0127520D01*
X0302480D01*
Y0125236D01*
D02*
G37*
G36*
X0298386D02*
X0295551D01*
Y0127520D01*
X0298386D01*
Y0125236D01*
D02*
G37*
G36*
X0313347Y0121299D02*
X0310512D01*
Y0123583D01*
X0313347D01*
Y0121299D01*
D02*
G37*
G36*
X0309961D02*
X0307126D01*
Y0123583D01*
X0309961D01*
Y0121299D01*
D02*
G37*
G36*
X0305866D02*
X0303031D01*
Y0123583D01*
X0305866D01*
Y0121299D01*
D02*
G37*
G36*
X0302480D02*
X0299646D01*
Y0123583D01*
X0302480D01*
Y0121299D01*
D02*
G37*
G36*
X0298386D02*
X0295551D01*
Y0123583D01*
X0298386D01*
Y0121299D01*
D02*
G37*
G36*
X0324646Y0113937D02*
X0321811D01*
Y0116220D01*
X0324646D01*
Y0113937D01*
D02*
G37*
G36*
X0320709D02*
X0317874D01*
Y0116220D01*
X0320709D01*
Y0113937D01*
D02*
G37*
G36*
X0324646Y0110551D02*
X0321811D01*
Y0112835D01*
X0324646D01*
Y0110551D01*
D02*
G37*
G36*
X0320709D02*
X0317874D01*
Y0112835D01*
X0320709D01*
Y0110551D01*
D02*
G37*
G36*
X0324646Y0106457D02*
X0321811D01*
Y0108740D01*
X0324646D01*
Y0106457D01*
D02*
G37*
G36*
X0320709D02*
X0317874D01*
Y0108740D01*
X0320709D01*
Y0106457D01*
D02*
G37*
G36*
X0324646Y0103071D02*
X0321811D01*
Y0105354D01*
X0324646D01*
Y0103071D01*
D02*
G37*
G36*
X0320709D02*
X0317874D01*
Y0105354D01*
X0320709D01*
Y0103071D01*
D02*
G37*
G36*
X0324646Y0098976D02*
X0321811D01*
Y0101260D01*
X0324646D01*
Y0098976D01*
D02*
G37*
G36*
X0320709D02*
X0317874D01*
Y0101260D01*
X0320709D01*
Y0098976D01*
D02*
G37*
D19*
X0325208Y0352514D02*
D03*
X0327767D02*
D03*
X0330326D02*
D03*
X0332885D02*
D03*
X0335444D02*
D03*
X0338003D02*
D03*
X0340562D02*
D03*
X0340562Y0330314D02*
D03*
X0338003D02*
D03*
X0335444D02*
D03*
X0332885D02*
D03*
X0330326D02*
D03*
X0327767D02*
D03*
X0325208D02*
D03*
X0341062Y0263766D02*
D03*
X0338503D02*
D03*
X0335944D02*
D03*
X0333385D02*
D03*
X0330826D02*
D03*
X0328267D02*
D03*
X0325708D02*
D03*
X0325708Y0241566D02*
D03*
X0328267D02*
D03*
X0330826D02*
D03*
X0333385D02*
D03*
X0335944D02*
D03*
X0338503D02*
D03*
X0341062D02*
D03*
D20*
X0328475Y0313477D02*
D03*
X0330050D02*
D03*
X0331625D02*
D03*
X0333200D02*
D03*
X0334775D02*
D03*
X0336349D02*
D03*
Y0301311D02*
D03*
X0334775D02*
D03*
X0333200D02*
D03*
X0331625D02*
D03*
X0330050D02*
D03*
X0328475D02*
D03*
D21*
X0338495Y0311331D02*
D03*
Y0309756D02*
D03*
Y0308182D02*
D03*
Y0306607D02*
D03*
Y0305032D02*
D03*
Y0303457D02*
D03*
X0326330D02*
D03*
Y0305032D02*
D03*
Y0306607D02*
D03*
Y0308182D02*
D03*
X0326310Y0309756D02*
D03*
X0326330Y0311331D02*
D03*
D22*
X0091750Y0093327D02*
D03*
X0094250D02*
D03*
X0096750D02*
D03*
X0099250D02*
D03*
X0101750D02*
D03*
X0104250D02*
D03*
X0106750D02*
D03*
X0109250D02*
D03*
Y0072327D02*
D03*
X0106750D02*
D03*
X0104250D02*
D03*
X0101750D02*
D03*
X0099250D02*
D03*
X0096750D02*
D03*
X0094250D02*
D03*
X0091750D02*
D03*
D23*
X0028858Y0155512D02*
D03*
Y0269685D02*
D03*
X0102284Y0155512D02*
D03*
Y0269685D02*
D03*
D24*
X0038504Y0268110D02*
D03*
X0048740D02*
D03*
X0083976D02*
D03*
D25*
X0128858Y0178839D02*
D03*
Y0254134D02*
D03*
Y0247441D02*
D03*
Y0237894D02*
D03*
Y0228051D02*
D03*
Y0218209D02*
D03*
Y0208366D02*
D03*
Y0198524D02*
D03*
Y0188681D02*
D03*
D26*
X0058661Y0317913D02*
D03*
Y0337205D02*
D03*
D27*
X0307214Y0311283D02*
D03*
X0313021D02*
D03*
X0307214Y0321716D02*
D03*
X0313021D02*
D03*
D28*
X0295276Y0135827D02*
D03*
X0287795D02*
D03*
D29*
X0295276Y0142126D02*
D03*
X0287795D02*
D03*
X0179342Y0341611D02*
D03*
Y0335311D02*
D03*
X0153543Y0030642D02*
D03*
Y0024342D02*
D03*
X0258082Y0305193D02*
D03*
Y0298894D02*
D03*
X0213020Y0328033D02*
D03*
Y0334333D02*
D03*
X0104250Y0117833D02*
D03*
Y0124132D02*
D03*
X0029000Y0096527D02*
D03*
Y0102827D02*
D03*
D30*
X0280532Y0057284D02*
D03*
X0287579D02*
D03*
X0095976Y0060327D02*
D03*
X0103024D02*
D03*
X0295295Y0057284D02*
D03*
X0302343D02*
D03*
X0316653Y0241957D02*
D03*
X0309605D02*
D03*
X0342097Y0288477D02*
D03*
X0335050D02*
D03*
X0327074D02*
D03*
X0320027D02*
D03*
X0375779Y0347319D02*
D03*
X0368731D02*
D03*
X0375779Y0314839D02*
D03*
X0368731D02*
D03*
X0233574Y0255477D02*
D03*
X0226527D02*
D03*
X0198456Y0329603D02*
D03*
X0205503D02*
D03*
X0227853Y0327477D02*
D03*
X0234901D02*
D03*
X0098532Y0104327D02*
D03*
X0091484D02*
D03*
D31*
X0256693Y0112972D02*
D03*
Y0105925D02*
D03*
X0350601Y0303264D02*
D03*
Y0310311D02*
D03*
X0142000Y0217272D02*
D03*
Y0210224D02*
D03*
X0313534Y0352500D02*
D03*
Y0345453D02*
D03*
X0352050Y0352500D02*
D03*
Y0345453D02*
D03*
X0351050Y0241453D02*
D03*
Y0248500D02*
D03*
X0249300Y0305824D02*
D03*
Y0298776D02*
D03*
X0251050Y0277500D02*
D03*
Y0270453D02*
D03*
X0179145Y0275882D02*
D03*
Y0282929D02*
D03*
D32*
X0308279Y0261689D02*
D03*
X0300011D02*
D03*
X0223098Y0369311D02*
D03*
X0214831D02*
D03*
X0051323Y0129595D02*
D03*
X0043055D02*
D03*
X0142000Y0093327D02*
D03*
X0133732D02*
D03*
X0141768Y0071827D02*
D03*
X0133500D02*
D03*
X0123850Y0289748D02*
D03*
X0115583D02*
D03*
D33*
X0285247Y0261642D02*
D03*
X0291546D02*
D03*
X0197614Y0369311D02*
D03*
X0191315D02*
D03*
X0027134Y0129488D02*
D03*
X0020835D02*
D03*
X0347700Y0275977D02*
D03*
X0341401D02*
D03*
X0325901D02*
D03*
X0332200D02*
D03*
X0242901Y0231177D02*
D03*
X0249200D02*
D03*
Y0240737D02*
D03*
X0242901D02*
D03*
X0297527Y0329631D02*
D03*
X0291227D02*
D03*
X0297527Y0316783D02*
D03*
X0291227D02*
D03*
Y0302072D02*
D03*
X0297527D02*
D03*
X0242901Y0250296D02*
D03*
X0249200D02*
D03*
X0205250Y0250679D02*
D03*
X0198951D02*
D03*
X0227853Y0336477D02*
D03*
X0234153D02*
D03*
X0085000Y0281748D02*
D03*
X0078701D02*
D03*
X0050150D02*
D03*
X0043850D02*
D03*
X0114650Y0104327D02*
D03*
X0108350D02*
D03*
X0062850Y0087327D02*
D03*
Y0078327D02*
D03*
X0069150D02*
D03*
Y0087327D02*
D03*
X0263901Y0275477D02*
D03*
X0270200D02*
D03*
X0270200Y0293477D02*
D03*
X0263901D02*
D03*
X0157016Y0093327D02*
D03*
X0150716D02*
D03*
X0156783Y0071727D02*
D03*
X0150484D02*
D03*
X0133567Y0289748D02*
D03*
X0139866D02*
D03*
D34*
X0012500Y0086051D02*
D03*
Y0076602D02*
D03*
D35*
Y0097075D02*
D03*
Y0065579D02*
D03*
D36*
X0023031Y0086445D02*
D03*
Y0076209D02*
D03*
Y0083886D02*
D03*
Y0081327D02*
D03*
Y0078768D02*
D03*
D37*
X0110236Y0321913D02*
D03*
Y0330968D02*
D03*
X0153543Y0048020D02*
D03*
Y0038965D02*
D03*
X0098425Y0321913D02*
D03*
Y0330968D02*
D03*
D38*
X0090551Y0347047D02*
D03*
Y0359646D02*
D03*
D39*
X0127362Y0375984D02*
D03*
X0114764D02*
D03*
D40*
X0107559Y0362343D02*
D03*
Y0344350D02*
D03*
D41*
X0135827Y0353346D02*
D03*
D42*
X0341322Y0362977D02*
D03*
X0347779D02*
D03*
X0316279Y0230977D02*
D03*
X0309822D02*
D03*
D43*
X0375932Y0325437D02*
D03*
X0368452D02*
D03*
Y0335674D02*
D03*
X0372192D02*
D03*
X0375932D02*
D03*
D44*
X0239184Y0277634D02*
D03*
X0239184Y0279603D02*
D03*
Y0281571D02*
D03*
X0239184Y0283540D02*
D03*
Y0285508D02*
D03*
Y0287477D02*
D03*
Y0289445D02*
D03*
Y0291414D02*
D03*
X0239184Y0293382D02*
D03*
Y0295351D02*
D03*
X0239184Y0297319D02*
D03*
Y0299288D02*
D03*
Y0301256D02*
D03*
Y0303225D02*
D03*
Y0305193D02*
D03*
Y0307162D02*
D03*
X0193515Y0307162D02*
D03*
Y0305193D02*
D03*
Y0303225D02*
D03*
X0193515Y0301256D02*
D03*
Y0299288D02*
D03*
X0193515Y0297319D02*
D03*
Y0295351D02*
D03*
Y0293382D02*
D03*
Y0291414D02*
D03*
Y0289445D02*
D03*
Y0287477D02*
D03*
Y0285508D02*
D03*
Y0283540D02*
D03*
Y0281571D02*
D03*
Y0279603D02*
D03*
Y0277634D02*
D03*
D45*
X0231113Y0315233D02*
D03*
X0229145D02*
D03*
X0227176D02*
D03*
X0225208D02*
D03*
X0223239D02*
D03*
X0221271D02*
D03*
X0219302D02*
D03*
X0217334D02*
D03*
X0215365D02*
D03*
X0213397D02*
D03*
X0211428D02*
D03*
X0209460Y0315233D02*
D03*
X0207491D02*
D03*
X0205523Y0315233D02*
D03*
X0203554D02*
D03*
X0201586D02*
D03*
X0201586Y0269563D02*
D03*
X0203554D02*
D03*
X0205523D02*
D03*
X0207491D02*
D03*
X0209460D02*
D03*
X0211428D02*
D03*
X0213397Y0269563D02*
D03*
X0215365D02*
D03*
X0217334Y0269563D02*
D03*
X0219302D02*
D03*
X0221271D02*
D03*
X0223239D02*
D03*
X0225208D02*
D03*
X0227176Y0269563D02*
D03*
X0229145D02*
D03*
X0231113Y0269563D02*
D03*
D46*
X0270090Y0244957D02*
D03*
X0283475D02*
D03*
X0165956Y0319760D02*
D03*
X0179342D02*
D03*
D47*
X0267100Y0287646D02*
D03*
Y0281308D02*
D03*
X0263000D02*
D03*
Y0287646D02*
D03*
D48*
X0052000Y0093378D02*
D03*
Y0087276D02*
D03*
X0052202Y0078625D02*
D03*
Y0072522D02*
D03*
D49*
X0034497Y0086365D02*
D03*
Y0078884D02*
D03*
X0043552Y0082625D02*
D03*
D50*
X0075492Y0318138D02*
D03*
X0086476D02*
D03*
M02*
