G04*
G04 #@! TF.GenerationSoftware,Altium Limited,Altium Designer,21.2.2 (38)*
G04*
G04 Layer_Physical_Order=1*
G04 Layer_Color=255*
%FSLAX25Y25*%
%MOIN*%
G70*
G04*
G04 #@! TF.SameCoordinates,90C86947-368E-407B-B9CD-2D6109664978*
G04*
G04*
G04 #@! TF.FilePolarity,Positive*
G04*
G01*
G75*
%ADD11C,0.01968*%
%ADD12C,0.00700*%
%ADD14R,0.18500X0.28000*%
%ADD15R,0.06100X0.02200*%
G04:AMPARAMS|DCode=23|XSize=43.31mil|YSize=39.37mil|CornerRadius=2.95mil|HoleSize=0mil|Usage=FLASHONLY|Rotation=90.000|XOffset=0mil|YOffset=0mil|HoleType=Round|Shape=RoundedRectangle|*
%AMROUNDEDRECTD23*
21,1,0.04331,0.03347,0,0,90.0*
21,1,0.03740,0.03937,0,0,90.0*
1,1,0.00591,0.01673,0.01870*
1,1,0.00591,0.01673,-0.01870*
1,1,0.00591,-0.01673,-0.01870*
1,1,0.00591,-0.01673,0.01870*
%
%ADD23ROUNDEDRECTD23*%
G04:AMPARAMS|DCode=24|XSize=43.31mil|YSize=39.37mil|CornerRadius=3.94mil|HoleSize=0mil|Usage=FLASHONLY|Rotation=90.000|XOffset=0mil|YOffset=0mil|HoleType=Round|Shape=RoundedRectangle|*
%AMROUNDEDRECTD24*
21,1,0.04331,0.03150,0,0,90.0*
21,1,0.03543,0.03937,0,0,90.0*
1,1,0.00787,0.01575,0.01772*
1,1,0.00787,0.01575,-0.01772*
1,1,0.00787,-0.01575,-0.01772*
1,1,0.00787,-0.01575,0.01772*
%
%ADD24ROUNDEDRECTD24*%
G04:AMPARAMS|DCode=25|XSize=43.31mil|YSize=39.37mil|CornerRadius=3.94mil|HoleSize=0mil|Usage=FLASHONLY|Rotation=0.000|XOffset=0mil|YOffset=0mil|HoleType=Round|Shape=RoundedRectangle|*
%AMROUNDEDRECTD25*
21,1,0.04331,0.03150,0,0,0.0*
21,1,0.03543,0.03937,0,0,0.0*
1,1,0.00787,0.01772,-0.01575*
1,1,0.00787,-0.01772,-0.01575*
1,1,0.00787,-0.01772,0.01575*
1,1,0.00787,0.01772,0.01575*
%
%ADD25ROUNDEDRECTD25*%
G04:AMPARAMS|DCode=26|XSize=74.8mil|YSize=68.9mil|CornerRadius=6.89mil|HoleSize=0mil|Usage=FLASHONLY|Rotation=90.000|XOffset=0mil|YOffset=0mil|HoleType=Round|Shape=RoundedRectangle|*
%AMROUNDEDRECTD26*
21,1,0.07480,0.05512,0,0,90.0*
21,1,0.06102,0.06890,0,0,90.0*
1,1,0.01378,0.02756,0.03051*
1,1,0.01378,0.02756,-0.03051*
1,1,0.01378,-0.02756,-0.03051*
1,1,0.01378,-0.02756,0.03051*
%
%ADD26ROUNDEDRECTD26*%
%ADD27C,0.02953*%
%ADD28C,0.07874*%
%ADD29C,0.03937*%
%ADD30C,0.17717*%
%ADD31C,0.09055*%
%ADD32C,0.06693*%
%ADD33R,0.06693X0.06693*%
%ADD34C,0.02362*%
G36*
X9673Y144480D02*
X9673Y144480D01*
X255681Y144480D01*
X255682Y144480D01*
Y144480D01*
X256909Y144359D01*
X258089Y144001D01*
X259177Y143420D01*
X260130Y142637D01*
X260912Y141684D01*
X261494Y140596D01*
X261852Y139416D01*
X261972Y138189D01*
X261972Y138189D01*
X261972D01*
X261973Y137689D01*
X261972Y8374D01*
X261972Y7874D01*
X261972Y7874D01*
X261928Y7393D01*
X261843Y6536D01*
X261453Y5250D01*
X260820Y4064D01*
X259967Y3025D01*
X258928Y2173D01*
X257742Y1539D01*
X256456Y1149D01*
X255127Y1018D01*
X255118Y1020D01*
X11129Y1020D01*
X10629Y1020D01*
X10142Y1052D01*
X8751Y1189D01*
X6946Y1736D01*
X5282Y2626D01*
X3823Y3823D01*
X2626Y5282D01*
X1736Y6946D01*
X1189Y8751D01*
X1051Y10143D01*
X1020Y10630D01*
X1020Y10630D01*
X1020Y11130D01*
X1020Y135827D01*
X1012Y135865D01*
X1175Y137518D01*
X1668Y139143D01*
X2468Y140641D01*
X3546Y141954D01*
X4859Y143032D01*
X6357Y143832D01*
X7982Y144325D01*
X9188Y144444D01*
X9673Y144480D01*
X9673Y144480D01*
D02*
G37*
%LPC*%
G36*
X13126Y142035D02*
X11283D01*
X9475Y141676D01*
X7772Y140970D01*
X6239Y139946D01*
X4936Y138643D01*
X3912Y137110D01*
X3206Y135407D01*
X2847Y133599D01*
Y131755D01*
X3206Y129947D01*
X3912Y128244D01*
X4936Y126712D01*
X6239Y125408D01*
X7772Y124384D01*
X9475Y123679D01*
X11283Y123319D01*
X13126D01*
X14934Y123679D01*
X16637Y124384D01*
X18170Y125408D01*
X19474Y126712D01*
X20498Y128244D01*
X21203Y129947D01*
X21563Y131755D01*
Y133599D01*
X21203Y135407D01*
X20498Y137110D01*
X19474Y138643D01*
X18170Y139946D01*
X16637Y140970D01*
X14934Y141676D01*
X13126Y142035D01*
D02*
G37*
G36*
X248166Y141642D02*
X246322D01*
X244514Y141282D01*
X242811Y140577D01*
X241279Y139552D01*
X239975Y138249D01*
X238951Y136716D01*
X238245Y135013D01*
X237886Y133205D01*
Y131362D01*
X238245Y129554D01*
X238951Y127851D01*
X239975Y126318D01*
X241279Y125014D01*
X242811Y123990D01*
X244514Y123285D01*
X246322Y122925D01*
X248166D01*
X249974Y123285D01*
X251677Y123990D01*
X253210Y125014D01*
X254513Y126318D01*
X255537Y127851D01*
X256243Y129554D01*
X256602Y131362D01*
Y133205D01*
X256243Y135013D01*
X255537Y136716D01*
X254513Y138249D01*
X253210Y139552D01*
X251677Y140577D01*
X249974Y141282D01*
X248166Y141642D01*
D02*
G37*
G36*
X96260Y104964D02*
X95965D01*
Y103445D01*
X97681D01*
Y103543D01*
X97573Y104087D01*
X97265Y104548D01*
X96804Y104856D01*
X96260Y104964D01*
D02*
G37*
G36*
X93012D02*
X92716D01*
X92173Y104856D01*
X91712Y104548D01*
X91404Y104087D01*
X91295Y103543D01*
Y103445D01*
X93012D01*
Y104964D01*
D02*
G37*
G36*
Y100492D02*
X91295D01*
Y100394D01*
X91404Y99850D01*
X91712Y99389D01*
X92173Y99081D01*
X92716Y98973D01*
X93012D01*
Y100492D01*
D02*
G37*
G36*
X214835Y122350D02*
X213511D01*
X212233Y122008D01*
X211086Y121346D01*
X210150Y120410D01*
X209488Y119263D01*
X209380Y118858D01*
X182004Y91483D01*
X141448D01*
Y91758D01*
X134348D01*
Y89670D01*
X134022Y89245D01*
X133718Y88513D01*
X133218Y88612D01*
Y91339D01*
X133060Y91721D01*
X132677Y91880D01*
X111959Y91880D01*
X111959Y98819D01*
X111800Y99202D01*
X111417Y99360D01*
X97847Y99360D01*
X97573Y99850D01*
X97575Y99860D01*
X97681Y100394D01*
Y100492D01*
X95965D01*
Y98913D01*
X96354Y98524D01*
X96363Y98483D01*
X96362Y98322D01*
X96303Y98202D01*
X96247Y98165D01*
X96170Y98155D01*
X92716D01*
X92368Y98086D01*
X92072Y97888D01*
X91875Y97593D01*
X91805Y97244D01*
Y94095D01*
X91875Y93746D01*
X92072Y93450D01*
X92368Y93253D01*
X92716Y93183D01*
X95760D01*
X95915Y93075D01*
X96144Y92704D01*
X96193Y92204D01*
X96348Y91758D01*
X96348Y91758D01*
X96348Y91758D01*
Y89108D01*
X95848D01*
Y88484D01*
X99438D01*
X99515Y88298D01*
X99898Y88140D01*
Y85532D01*
X95848D01*
Y84908D01*
X95423Y84725D01*
X94454D01*
X88662Y90517D01*
Y94059D01*
X88596Y94391D01*
X88408Y94672D01*
X83648Y99432D01*
X83367Y99620D01*
X83035Y99686D01*
X42091D01*
X32109Y109668D01*
X31828Y109856D01*
X31496Y109922D01*
X26271D01*
X25940Y109856D01*
X25659Y109668D01*
X22835Y106844D01*
X22780Y106824D01*
X22515Y106577D01*
X22420Y106500D01*
X22341Y106445D01*
X22201D01*
X22159Y106462D01*
X22118Y106445D01*
X22115D01*
X22072Y106455D01*
X22056Y106445D01*
X15968D01*
Y98752D01*
X23661D01*
Y104839D01*
X23671Y104856D01*
X23661Y104899D01*
Y104901D01*
X23678Y104943D01*
X23661Y104984D01*
Y105125D01*
X23712Y105198D01*
X23905Y105424D01*
X24033Y105557D01*
X24056Y105614D01*
X26630Y108188D01*
X31137D01*
X41120Y98206D01*
X41401Y98018D01*
X41732Y97952D01*
X50957D01*
X51109Y97452D01*
X50964Y97355D01*
X50656Y96894D01*
X50547Y96350D01*
Y96055D01*
X53543D01*
Y93102D01*
X50547D01*
Y92807D01*
X50622Y92430D01*
X50323Y91930D01*
X45161D01*
X34824Y102267D01*
X34543Y102455D01*
X34348Y102493D01*
X34243Y102544D01*
X34101Y102553D01*
X34014Y102570D01*
X33948Y102593D01*
X33897Y102622D01*
X33854Y102658D01*
X33812Y102706D01*
X33770Y102775D01*
X33729Y102869D01*
X33693Y102991D01*
X33660Y103166D01*
X33634Y103206D01*
X33604Y103317D01*
X33604Y103325D01*
X33602Y103326D01*
X33399Y104083D01*
X32893Y104960D01*
X32177Y105676D01*
X31299Y106183D01*
X30321Y106445D01*
X29308D01*
X28330Y106183D01*
X27453Y105676D01*
X26737Y104960D01*
X26230Y104083D01*
X25968Y103105D01*
Y102092D01*
X26230Y101114D01*
X26737Y100237D01*
X27453Y99520D01*
X28330Y99014D01*
X29308Y98752D01*
X30321D01*
X31299Y99014D01*
X32177Y99520D01*
X32590Y99934D01*
X32606Y99936D01*
X32663Y100006D01*
X32744Y100043D01*
X32888Y100198D01*
X33020Y100321D01*
X33155Y100427D01*
X33293Y100517D01*
X33433Y100592D01*
X33577Y100653D01*
X33725Y100700D01*
X33880Y100734D01*
X33902Y100737D01*
X44189Y90451D01*
X44470Y90263D01*
X44802Y90197D01*
X59174D01*
X59505Y90263D01*
X59786Y90451D01*
X60496Y91161D01*
X60684Y91442D01*
X60726Y91650D01*
X60775Y91761D01*
X60777Y91870D01*
X60779Y91896D01*
X61417D01*
X61766Y91965D01*
X62062Y92163D01*
X62259Y92458D01*
X62328Y92807D01*
Y93678D01*
X62402Y93685D01*
X62520Y93688D01*
X62575Y93712D01*
X63724D01*
X67076Y90360D01*
X67357Y90172D01*
X67689Y90106D01*
X80737D01*
X81068Y90172D01*
X81349Y90360D01*
X82060Y91070D01*
X82247Y91351D01*
X82289Y91559D01*
X82338Y91670D01*
X82340Y91780D01*
X82342Y91807D01*
X83169D01*
X83480Y91869D01*
X83743Y92045D01*
X83918Y92308D01*
X83980Y92618D01*
Y93334D01*
X84480Y93428D01*
X85229Y92680D01*
Y88708D01*
X85295Y88376D01*
X85483Y88095D01*
X93482Y80096D01*
X93763Y79908D01*
X94095Y79842D01*
X96091D01*
X96146Y79818D01*
X96264Y79815D01*
X96348Y79807D01*
Y79125D01*
X93718D01*
X84218Y88626D01*
X83937Y88814D01*
X83605Y88880D01*
X43055D01*
X34027Y97908D01*
X33745Y98096D01*
X33414Y98162D01*
X24511D01*
X24180Y98096D01*
X23898Y97908D01*
X23041Y97050D01*
X22996Y97036D01*
X22868Y96931D01*
X22733Y96852D01*
X22544Y96772D01*
X22304Y96697D01*
X22013Y96631D01*
X21684Y96577D01*
X20366Y96488D01*
X19846Y96486D01*
X19748Y96445D01*
X19308D01*
X18330Y96183D01*
X17453Y95676D01*
X16737Y94960D01*
X16230Y94083D01*
X15968Y93105D01*
Y92092D01*
X16230Y91114D01*
X16737Y90237D01*
X17453Y89521D01*
X18330Y89014D01*
X19308Y88752D01*
X20321D01*
X21299Y89014D01*
X22176Y89521D01*
X22893Y90237D01*
X23399Y91114D01*
X23661Y92092D01*
Y92532D01*
X23702Y92630D01*
X23704Y93159D01*
X23720Y93632D01*
X23793Y94462D01*
X23847Y94797D01*
X23913Y95087D01*
X23988Y95328D01*
X24068Y95517D01*
X24148Y95652D01*
X24253Y95780D01*
X24266Y95825D01*
X24870Y96428D01*
X27755D01*
X27889Y95928D01*
X27453Y95676D01*
X26737Y94960D01*
X26230Y94083D01*
X25968Y93105D01*
Y92092D01*
X26230Y91114D01*
X26737Y90237D01*
X27453Y89521D01*
X28330Y89014D01*
X29308Y88752D01*
X30321D01*
X31299Y89014D01*
X32177Y89521D01*
X32893Y90237D01*
X33105Y90604D01*
X33355Y90683D01*
X33616Y90675D01*
X33705Y90660D01*
X44938Y79427D01*
X45005Y79382D01*
X44854Y78882D01*
X43604D01*
X34578Y87908D01*
X34297Y88096D01*
X33965Y88161D01*
X24511D01*
X24180Y88096D01*
X23898Y87908D01*
X23041Y87050D01*
X22996Y87036D01*
X22868Y86931D01*
X22733Y86852D01*
X22544Y86772D01*
X22304Y86697D01*
X22013Y86631D01*
X21684Y86577D01*
X20366Y86488D01*
X19846Y86486D01*
X19748Y86445D01*
X19308D01*
X18330Y86183D01*
X17453Y85676D01*
X16737Y84960D01*
X16230Y84083D01*
X15968Y83105D01*
Y82092D01*
X16230Y81114D01*
X16737Y80237D01*
X17453Y79520D01*
X18330Y79014D01*
X19308Y78752D01*
X20321D01*
X21299Y79014D01*
X22176Y79520D01*
X22893Y80237D01*
X23399Y81114D01*
X23661Y82092D01*
Y82532D01*
X23702Y82630D01*
X23704Y83159D01*
X23720Y83632D01*
X23793Y84462D01*
X23847Y84797D01*
X23913Y85087D01*
X23988Y85328D01*
X24068Y85517D01*
X24148Y85652D01*
X24253Y85780D01*
X24266Y85825D01*
X24870Y86428D01*
X27755D01*
X27889Y85928D01*
X27453Y85676D01*
X26737Y84960D01*
X26230Y84083D01*
X25968Y83105D01*
Y82092D01*
X26230Y81114D01*
X26737Y80237D01*
X27453Y79520D01*
X28330Y79014D01*
X29308Y78752D01*
X30321D01*
X31299Y79014D01*
X32177Y79520D01*
X32601Y79945D01*
X32689Y79982D01*
X32693Y79992D01*
X32703Y79996D01*
X33024Y80343D01*
X33626Y80921D01*
X33893Y81143D01*
X34147Y81329D01*
X34381Y81476D01*
X34593Y81584D01*
X34780Y81655D01*
X34791Y81658D01*
X46077Y70372D01*
X46358Y70184D01*
X46690Y70118D01*
X59407D01*
X59738Y70184D01*
X60019Y70372D01*
X60455Y70808D01*
X60643Y71089D01*
X60709Y71420D01*
Y71570D01*
X60733Y71625D01*
X60737Y71744D01*
X60743Y71817D01*
X61417D01*
X61766Y71886D01*
X62062Y72084D01*
X62259Y72380D01*
X62328Y72728D01*
Y73600D01*
X62402Y73606D01*
X62520Y73609D01*
X62575Y73633D01*
X64117D01*
X67470Y70281D01*
X67751Y70093D01*
X68082Y70028D01*
X81060D01*
X81392Y70093D01*
X81673Y70281D01*
X82109Y70717D01*
X82297Y70998D01*
X82363Y71330D01*
Y71482D01*
X82387Y71537D01*
X82390Y71655D01*
X82397Y71728D01*
X83169D01*
X83480Y71790D01*
X83743Y71966D01*
X83918Y72229D01*
X83980Y72539D01*
Y72802D01*
X84442Y72994D01*
X89911Y67524D01*
X90193Y67337D01*
X90524Y67271D01*
X96091D01*
X96146Y67246D01*
X96264Y67243D01*
X96348Y67236D01*
Y65862D01*
X96264Y65855D01*
X96146Y65852D01*
X96091Y65827D01*
X89771D01*
X86419Y69179D01*
X86138Y69367D01*
X85806Y69433D01*
X44398D01*
X35923Y77908D01*
X35642Y78096D01*
X35310Y78162D01*
X24511D01*
X24180Y78096D01*
X23898Y77908D01*
X23041Y77050D01*
X22996Y77036D01*
X22868Y76931D01*
X22733Y76852D01*
X22544Y76772D01*
X22304Y76697D01*
X22013Y76631D01*
X21684Y76577D01*
X20366Y76488D01*
X19846Y76486D01*
X19748Y76445D01*
X19308D01*
X18330Y76183D01*
X17453Y75676D01*
X16737Y74960D01*
X16230Y74083D01*
X15968Y73105D01*
Y72092D01*
X16230Y71114D01*
X16737Y70237D01*
X17453Y69520D01*
X18330Y69014D01*
X19308Y68752D01*
X20321D01*
X21299Y69014D01*
X22176Y69520D01*
X22893Y70237D01*
X23399Y71114D01*
X23661Y72092D01*
Y72532D01*
X23702Y72630D01*
X23704Y73159D01*
X23720Y73632D01*
X23793Y74462D01*
X23847Y74796D01*
X23913Y75087D01*
X23988Y75328D01*
X24068Y75516D01*
X24148Y75652D01*
X24253Y75780D01*
X24266Y75825D01*
X24870Y76428D01*
X27755D01*
X27889Y75928D01*
X27453Y75676D01*
X26737Y74960D01*
X26230Y74083D01*
X25968Y73105D01*
Y72092D01*
X26230Y71114D01*
X26737Y70237D01*
X27453Y69520D01*
X28330Y69014D01*
X29308Y68752D01*
X29748D01*
X29846Y68711D01*
X30375Y68709D01*
X30848Y68694D01*
X31679Y68620D01*
X32013Y68566D01*
X32304Y68500D01*
X32544Y68425D01*
X32733Y68345D01*
X32868Y68266D01*
X32996Y68160D01*
X33041Y68147D01*
X40264Y60923D01*
X40546Y60735D01*
X40877Y60669D01*
X59407D01*
X59738Y60735D01*
X60019Y60923D01*
X60455Y61359D01*
X60643Y61640D01*
X60709Y61972D01*
Y62122D01*
X60733Y62176D01*
X60737Y62295D01*
X60743Y62368D01*
X61417D01*
X61766Y62438D01*
X62062Y62635D01*
X62259Y62931D01*
X62328Y63279D01*
Y64151D01*
X62402Y64157D01*
X62520Y64160D01*
X62575Y64184D01*
X63724D01*
X67076Y60832D01*
X67357Y60645D01*
X67689Y60579D01*
X81060D01*
X81392Y60645D01*
X81673Y60833D01*
X82109Y61268D01*
X82297Y61549D01*
X82363Y61881D01*
Y62033D01*
X82387Y62088D01*
X82390Y62207D01*
X82397Y62280D01*
X83169D01*
X83480Y62341D01*
X83743Y62517D01*
X83918Y62780D01*
X83980Y63091D01*
Y64060D01*
X84053Y64066D01*
X84172Y64070D01*
X84227Y64094D01*
X85074D01*
X88039Y61129D01*
X88320Y60941D01*
X88652Y60875D01*
X96091D01*
X96146Y60851D01*
X96264Y60848D01*
X96348Y60841D01*
Y59563D01*
X96264Y59556D01*
X96146Y59552D01*
X96091Y59528D01*
X34163D01*
X34148Y59546D01*
X34069Y59681D01*
X33989Y59870D01*
X33914Y60111D01*
X33848Y60402D01*
X33794Y60730D01*
X33705Y62048D01*
X33703Y62568D01*
X33662Y62666D01*
Y63106D01*
X33400Y64084D01*
X32893Y64961D01*
X32177Y65677D01*
X31300Y66184D01*
X30322Y66446D01*
X29309D01*
X28331Y66184D01*
X27454Y65677D01*
X26737Y64961D01*
X26231Y64084D01*
X25969Y63106D01*
Y62093D01*
X26231Y61115D01*
X26737Y60238D01*
X27454Y59522D01*
X28331Y59015D01*
X29309Y58753D01*
X29749D01*
X29847Y58712D01*
X30376Y58710D01*
X30849Y58695D01*
X31679Y58622D01*
X32013Y58567D01*
X32304Y58501D01*
X32545Y58426D01*
X32734Y58346D01*
X32869Y58267D01*
X32996Y58162D01*
X33042Y58148D01*
X33141Y58049D01*
X33422Y57861D01*
X33754Y57795D01*
X93974D01*
X94186Y57353D01*
X94178Y57309D01*
X94130Y57122D01*
X94072Y56937D01*
X94079Y56923D01*
X94075Y56908D01*
X94111Y56654D01*
X93709Y56235D01*
X93667Y56226D01*
X90551D01*
X90202Y56157D01*
X89907Y55959D01*
X89709Y55664D01*
X89640Y55315D01*
Y51862D01*
X89630Y51785D01*
X89593Y51729D01*
X89473Y51669D01*
X89312Y51669D01*
X89271Y51677D01*
X88882Y52067D01*
X87303D01*
Y50351D01*
X87402D01*
X87935Y50457D01*
X87945Y50459D01*
X88435Y50185D01*
Y46063D01*
X88435Y10236D01*
X88594Y9854D01*
X88976Y9695D01*
X126772Y9695D01*
X127154Y9854D01*
X127313Y10236D01*
Y24074D01*
X127813Y24257D01*
X128969Y23589D01*
X129626Y23413D01*
Y28740D01*
Y34067D01*
X128969Y33891D01*
X127813Y33224D01*
X127313Y33407D01*
X127313Y53002D01*
X132677D01*
X133060Y53161D01*
X133218Y53543D01*
Y56664D01*
X133718Y56763D01*
X134022Y56030D01*
X134348Y55606D01*
Y53912D01*
X136991D01*
X137898Y53792D01*
X211417D01*
X211786Y53841D01*
X212233Y53583D01*
X213511Y53240D01*
X214835D01*
X216114Y53583D01*
X217260Y54245D01*
X218196Y55181D01*
X218858Y56327D01*
X219201Y57606D01*
Y58930D01*
X218858Y60208D01*
X218196Y61355D01*
X217260Y62291D01*
X216114Y62953D01*
X214835Y63295D01*
X213511D01*
X212233Y62953D01*
X211786Y62695D01*
X211417Y62743D01*
X141448D01*
Y63635D01*
X202145Y63635D01*
X203078Y63758D01*
X204011Y63635D01*
X205169Y63787D01*
X206249Y64235D01*
X207176Y64946D01*
X215272Y73042D01*
X216114Y73268D01*
X217260Y73930D01*
X218196Y74866D01*
X218858Y76012D01*
X219201Y77291D01*
Y78615D01*
X218858Y79893D01*
X218196Y81040D01*
X217260Y81976D01*
X216114Y82638D01*
X214835Y82980D01*
X213511D01*
X212233Y82638D01*
X211086Y81976D01*
X210150Y81040D01*
X209520Y79948D01*
X202156Y72584D01*
X202145Y72585D01*
X192233D01*
X192228Y73084D01*
X193161Y73207D01*
X194095Y73084D01*
X195253Y73236D01*
X196332Y73683D01*
X197259Y74395D01*
X215709Y92844D01*
X216114Y92953D01*
X217260Y93615D01*
X218196Y94551D01*
X218858Y95697D01*
X219201Y96976D01*
Y98300D01*
X218858Y99578D01*
X218196Y100725D01*
X217260Y101661D01*
X216114Y102323D01*
X214835Y102665D01*
X213511D01*
X212233Y102323D01*
X211086Y101661D01*
X210150Y100725D01*
X209488Y99578D01*
X209380Y99173D01*
X192239Y82033D01*
X192228Y82034D01*
X183863D01*
X183858Y82533D01*
X185017Y82685D01*
X186096Y83132D01*
X187023Y83843D01*
X215709Y112529D01*
X216114Y112638D01*
X217260Y113300D01*
X218196Y114236D01*
X218858Y115382D01*
X219201Y116661D01*
Y117985D01*
X218858Y119263D01*
X218196Y120410D01*
X217260Y121346D01*
X216114Y122008D01*
X214835Y122350D01*
D02*
G37*
G36*
X21291Y66703D02*
Y64075D01*
X23919D01*
X23865Y64276D01*
X23293Y65267D01*
X22483Y66076D01*
X21492Y66649D01*
X21291Y66703D01*
D02*
G37*
G36*
X18338D02*
X18137Y66649D01*
X17146Y66076D01*
X16337Y65267D01*
X15764Y64276D01*
X15710Y64075D01*
X18338D01*
Y66703D01*
D02*
G37*
G36*
X23919Y61122D02*
X21291D01*
Y58494D01*
X21492Y58548D01*
X22483Y59120D01*
X23293Y59930D01*
X23865Y60921D01*
X23919Y61122D01*
D02*
G37*
G36*
X18338D02*
X15710D01*
X15764Y60921D01*
X16337Y59930D01*
X17146Y59120D01*
X18137Y58548D01*
X18338Y58494D01*
Y61122D01*
D02*
G37*
G36*
X87402Y56736D02*
X87303D01*
Y55020D01*
X88823D01*
Y55315D01*
X88714Y55859D01*
X88406Y56320D01*
X87945Y56628D01*
X87402Y56736D01*
D02*
G37*
G36*
X84350D02*
X84252D01*
X83708Y56628D01*
X83247Y56320D01*
X82939Y55859D01*
X82831Y55315D01*
Y55020D01*
X84350D01*
Y56736D01*
D02*
G37*
G36*
Y52067D02*
X82831D01*
Y51772D01*
X82939Y51228D01*
X83247Y50767D01*
X83708Y50459D01*
X84252Y50351D01*
X84350D01*
Y52067D01*
D02*
G37*
G36*
X85433Y44931D02*
X84153D01*
Y41634D01*
X87155D01*
Y43209D01*
X87024Y43868D01*
X86651Y44426D01*
X86092Y44800D01*
X85433Y44931D01*
D02*
G37*
G36*
X81201D02*
X79921D01*
X79262Y44800D01*
X78704Y44426D01*
X78330Y43868D01*
X78199Y43209D01*
Y41634D01*
X81201D01*
Y44931D01*
D02*
G37*
G36*
X215650Y43910D02*
Y40059D01*
X219500D01*
X219324Y40716D01*
X218596Y41977D01*
X217567Y43006D01*
X216307Y43734D01*
X215650Y43910D01*
D02*
G37*
G36*
X212697D02*
X212040Y43734D01*
X210779Y43006D01*
X209750Y41977D01*
X209022Y40716D01*
X208846Y40059D01*
X212697D01*
Y43910D01*
D02*
G37*
G36*
X87155Y38681D02*
X84153D01*
Y35384D01*
X85433D01*
X86092Y35515D01*
X86651Y35889D01*
X87024Y36447D01*
X87155Y37106D01*
Y38681D01*
D02*
G37*
G36*
X81201D02*
X78199D01*
Y37106D01*
X78330Y36447D01*
X78704Y35889D01*
X79262Y35515D01*
X79921Y35384D01*
X81201D01*
Y38681D01*
D02*
G37*
G36*
X212697Y37106D02*
X208846D01*
X209022Y36449D01*
X209750Y35189D01*
X210779Y34159D01*
X212040Y33432D01*
X212697Y33256D01*
Y37106D01*
D02*
G37*
G36*
X219500D02*
X215650D01*
Y33256D01*
X216307Y33432D01*
X217567Y34159D01*
X218596Y35189D01*
X219324Y36449D01*
X219500Y37106D01*
D02*
G37*
G36*
X132579Y34067D02*
Y30217D01*
X136429D01*
X136253Y30874D01*
X135526Y32134D01*
X134496Y33163D01*
X133236Y33891D01*
X132579Y34067D01*
D02*
G37*
G36*
X85433Y32332D02*
X84153D01*
Y29035D01*
X87155D01*
Y30610D01*
X87024Y31269D01*
X86651Y31828D01*
X86092Y32201D01*
X85433Y32332D01*
D02*
G37*
G36*
X81201D02*
X79921D01*
X79262Y32201D01*
X78704Y31828D01*
X78330Y31269D01*
X78199Y30610D01*
Y29035D01*
X81201D01*
Y32332D01*
D02*
G37*
G36*
X136429Y27264D02*
X132579D01*
Y23413D01*
X133236Y23589D01*
X134496Y24317D01*
X135526Y25346D01*
X136253Y26607D01*
X136429Y27264D01*
D02*
G37*
G36*
X87155Y26083D02*
X84153D01*
Y22786D01*
X85433D01*
X86092Y22917D01*
X86651Y23290D01*
X87024Y23849D01*
X87155Y24508D01*
Y26083D01*
D02*
G37*
G36*
X81201D02*
X78199D01*
Y24508D01*
X78330Y23849D01*
X78704Y23290D01*
X79262Y22917D01*
X79921Y22786D01*
X81201D01*
Y26083D01*
D02*
G37*
G36*
X215650Y24225D02*
Y20374D01*
X219500D01*
X219324Y21031D01*
X218596Y22292D01*
X217567Y23321D01*
X216307Y24048D01*
X215650Y24225D01*
D02*
G37*
G36*
X212697D02*
X212040Y24048D01*
X210779Y23321D01*
X209750Y22292D01*
X209022Y21031D01*
X208846Y20374D01*
X212697D01*
Y24225D01*
D02*
G37*
G36*
X85433Y20521D02*
X84153D01*
Y17224D01*
X87155D01*
Y18799D01*
X87024Y19458D01*
X86651Y20017D01*
X86092Y20390D01*
X85433Y20521D01*
D02*
G37*
G36*
X81201D02*
X79921D01*
X79262Y20390D01*
X78704Y20017D01*
X78330Y19458D01*
X78199Y18799D01*
Y17224D01*
X81201D01*
Y20521D01*
D02*
G37*
G36*
X212697Y17421D02*
X208846D01*
X209022Y16764D01*
X209750Y15504D01*
X210779Y14475D01*
X212040Y13747D01*
X212697Y13571D01*
Y17421D01*
D02*
G37*
G36*
X219500D02*
X215650D01*
Y13571D01*
X216307Y13747D01*
X217567Y14475D01*
X218596Y15504D01*
X219324Y16764D01*
X219500Y17421D01*
D02*
G37*
G36*
X87155Y14272D02*
X84153D01*
Y10975D01*
X85433D01*
X86092Y11106D01*
X86651Y11479D01*
X87024Y12038D01*
X87155Y12697D01*
Y14272D01*
D02*
G37*
G36*
X81201D02*
X78199D01*
Y12697D01*
X78330Y12038D01*
X78704Y11479D01*
X79262Y11106D01*
X79921Y10975D01*
X81201D01*
Y14272D01*
D02*
G37*
G36*
X252497Y21563D02*
X250653D01*
X248845Y21203D01*
X247142Y20498D01*
X245609Y19474D01*
X244306Y18170D01*
X243282Y16637D01*
X242576Y14934D01*
X242216Y13126D01*
Y11283D01*
X242576Y9475D01*
X243282Y7772D01*
X244306Y6239D01*
X245609Y4936D01*
X247142Y3912D01*
X248845Y3206D01*
X250653Y2847D01*
X252497D01*
X254305Y3206D01*
X256008Y3912D01*
X257540Y4936D01*
X258844Y6239D01*
X259868Y7772D01*
X260573Y9475D01*
X260933Y11283D01*
Y13126D01*
X260573Y14934D01*
X259868Y16637D01*
X258844Y18170D01*
X257540Y19474D01*
X256008Y20498D01*
X254305Y21203D01*
X252497Y21563D01*
D02*
G37*
G36*
X13914Y20776D02*
X12070D01*
X10262Y20416D01*
X8559Y19711D01*
X7027Y18686D01*
X5723Y17383D01*
X4699Y15850D01*
X3994Y14147D01*
X3634Y12339D01*
Y10496D01*
X3994Y8688D01*
X4699Y6984D01*
X5723Y5452D01*
X7027Y4148D01*
X8559Y3124D01*
X10262Y2419D01*
X12070Y2059D01*
X13914D01*
X15722Y2419D01*
X17425Y3124D01*
X18958Y4148D01*
X20261Y5452D01*
X21285Y6984D01*
X21991Y8688D01*
X22350Y10496D01*
Y12339D01*
X21991Y14147D01*
X21285Y15850D01*
X20261Y17383D01*
X18958Y18686D01*
X17425Y19711D01*
X15722Y20416D01*
X13914Y20776D01*
D02*
G37*
%LPD*%
G36*
X23644Y105933D02*
X23504Y105788D01*
X23284Y105529D01*
X23204Y105415D01*
X23143Y105311D01*
X23102Y105217D01*
X23081Y105133D01*
X23080Y105060D01*
X23099Y104996D01*
X23137Y104943D01*
X22159Y105921D01*
X22213Y105883D01*
X22276Y105864D01*
X22350Y105865D01*
X22433Y105886D01*
X22527Y105927D01*
X22632Y105988D01*
X22746Y106068D01*
X22870Y106168D01*
X23149Y106428D01*
X23644Y105933D01*
D02*
G37*
G36*
X33166Y102864D02*
X33220Y102684D01*
X33289Y102524D01*
X33373Y102386D01*
X33474Y102269D01*
X33590Y102174D01*
X33722Y102100D01*
X33869Y102047D01*
X34032Y102015D01*
X34211Y102004D01*
Y101304D01*
X33996Y101295D01*
X33787Y101268D01*
X33584Y101224D01*
X33389Y101161D01*
X33199Y101081D01*
X33016Y100982D01*
X32839Y100866D01*
X32669Y100733D01*
X32505Y100581D01*
X32347Y100411D01*
X33128Y103066D01*
X33166Y102864D01*
D02*
G37*
G36*
X61802Y95212D02*
X61823Y95153D01*
X61859Y95100D01*
X61908Y95055D01*
X61972Y95016D01*
X62051Y94985D01*
X62143Y94960D01*
X62250Y94943D01*
X62371Y94932D01*
X62507Y94929D01*
Y94229D01*
X62371Y94225D01*
X62250Y94215D01*
X62143Y94197D01*
X62051Y94173D01*
X61972Y94141D01*
X61908Y94103D01*
X61859Y94057D01*
X61823Y94005D01*
X61802Y93945D01*
X61795Y93879D01*
Y95279D01*
X61802Y95212D01*
D02*
G37*
G36*
X71804Y95224D02*
X71899Y95143D01*
X71995Y95072D01*
X72093Y95010D01*
X72192Y94957D01*
X72291Y94915D01*
X72393Y94881D01*
X72495Y94857D01*
X72598Y94843D01*
X72642Y94841D01*
X72670Y94842D01*
X72791Y94852D01*
X72898Y94870D01*
X72991Y94894D01*
X73069Y94926D01*
X73133Y94964D01*
X73183Y95010D01*
X73218Y95062D01*
X73240Y95122D01*
X73247Y95188D01*
Y93788D01*
X73240Y93855D01*
X73218Y93914D01*
X73183Y93967D01*
X73133Y94012D01*
X73069Y94051D01*
X72991Y94082D01*
X72898Y94107D01*
X72791Y94124D01*
X72670Y94135D01*
X72642Y94135D01*
X72598Y94133D01*
X72495Y94119D01*
X72393Y94095D01*
X72291Y94062D01*
X72192Y94019D01*
X72093Y93967D01*
X71995Y93905D01*
X71899Y93833D01*
X71804Y93752D01*
X71710Y93661D01*
Y95315D01*
X71804Y95224D01*
D02*
G37*
G36*
X83453Y94995D02*
X83475Y94935D01*
X83510Y94883D01*
X83560Y94837D01*
X83624Y94799D01*
X83702Y94767D01*
X83795Y94743D01*
X83902Y94725D01*
X84023Y94715D01*
X84158Y94711D01*
Y94011D01*
X84023Y94008D01*
X83902Y93997D01*
X83795Y93980D01*
X83702Y93955D01*
X83624Y93924D01*
X83560Y93885D01*
X83510Y93840D01*
X83475Y93787D01*
X83453Y93728D01*
X83446Y93661D01*
Y95061D01*
X83453Y94995D01*
D02*
G37*
G36*
X23835Y96124D02*
X23702Y95963D01*
X23584Y95760D01*
X23480Y95515D01*
X23390Y95228D01*
X23316Y94900D01*
X23256Y94530D01*
X23179Y93664D01*
X23163Y93169D01*
X23161Y92632D01*
X19848Y95945D01*
X20385Y95946D01*
X21746Y96039D01*
X22116Y96099D01*
X22445Y96174D01*
X22731Y96263D01*
X22976Y96367D01*
X23179Y96486D01*
X23340Y96619D01*
X23835Y96124D01*
D02*
G37*
G36*
X60472Y92423D02*
X60422Y92404D01*
X60378Y92371D01*
X60340Y92325D01*
X60307Y92266D01*
X60281Y92194D01*
X60260Y92108D01*
X60245Y92010D01*
X60237Y91898D01*
X60234Y91773D01*
X59534D01*
X59531Y91898D01*
X59522Y92010D01*
X59507Y92108D01*
X59487Y92194D01*
X59460Y92266D01*
X59428Y92325D01*
X59389Y92371D01*
X59345Y92404D01*
X59295Y92423D01*
X59239Y92430D01*
X60528D01*
X60472Y92423D01*
D02*
G37*
G36*
X82037Y92335D02*
X81986Y92315D01*
X81942Y92282D01*
X81903Y92236D01*
X81871Y92177D01*
X81844Y92104D01*
X81823Y92019D01*
X81809Y91920D01*
X81800Y91808D01*
X81797Y91683D01*
X81097D01*
X81094Y91808D01*
X81085Y91920D01*
X81070Y92019D01*
X81049Y92104D01*
X81023Y92177D01*
X80990Y92236D01*
X80951Y92282D01*
X80907Y92315D01*
X80857Y92335D01*
X80800Y92341D01*
X82093D01*
X82037Y92335D01*
D02*
G37*
G36*
X33169Y92556D02*
X33189Y92469D01*
X33222Y92391D01*
X33267Y92325D01*
X33325Y92268D01*
X33395Y92222D01*
X33478Y92186D01*
X33573Y92160D01*
X33681Y92145D01*
X33801Y92139D01*
Y91439D01*
X33646Y91435D01*
X33502Y91421D01*
X33369Y91398D01*
X33246Y91366D01*
X33135Y91325D01*
X33035Y91274D01*
X32945Y91214D01*
X32867Y91145D01*
X32800Y91067D01*
X32744Y90980D01*
X33161Y92654D01*
X33169Y92556D01*
D02*
G37*
G36*
X96872Y83158D02*
X96864Y83225D01*
X96843Y83284D01*
X96808Y83337D01*
X96758Y83382D01*
X96694Y83421D01*
X96615Y83452D01*
X96523Y83477D01*
X96416Y83494D01*
X96295Y83505D01*
X96160Y83508D01*
Y84208D01*
X96295Y84212D01*
X96416Y84222D01*
X96523Y84240D01*
X96615Y84264D01*
X96694Y84296D01*
X96758Y84334D01*
X96808Y84380D01*
X96843Y84432D01*
X96864Y84492D01*
X96872Y84558D01*
Y83158D01*
D02*
G37*
G36*
X61802Y84189D02*
X61823Y84129D01*
X61859Y84077D01*
X61908Y84031D01*
X61972Y83993D01*
X62051Y83961D01*
X62143Y83937D01*
X62250Y83919D01*
X62371Y83909D01*
X62507Y83905D01*
Y83205D01*
X62371Y83202D01*
X62250Y83191D01*
X62143Y83174D01*
X62051Y83149D01*
X61972Y83118D01*
X61908Y83079D01*
X61859Y83034D01*
X61823Y82981D01*
X61802Y82922D01*
X61795Y82855D01*
Y84255D01*
X61802Y84189D01*
D02*
G37*
G36*
X50100Y84205D02*
X50195Y84124D01*
X50291Y84052D01*
X50389Y83990D01*
X50488Y83938D01*
X50587Y83895D01*
X50688Y83861D01*
X50791Y83837D01*
X50894Y83823D01*
X50956Y83820D01*
X51015Y83822D01*
X51136Y83832D01*
X51242Y83850D01*
X51335Y83874D01*
X51413Y83906D01*
X51477Y83944D01*
X51527Y83990D01*
X51563Y84042D01*
X51584Y84102D01*
X51591Y84168D01*
Y82768D01*
X51584Y82835D01*
X51563Y82894D01*
X51527Y82947D01*
X51477Y82992D01*
X51413Y83031D01*
X51335Y83062D01*
X51242Y83087D01*
X51136Y83104D01*
X51015Y83115D01*
X50956Y83117D01*
X50894Y83114D01*
X50791Y83099D01*
X50688Y83075D01*
X50587Y83042D01*
X50488Y82999D01*
X50389Y82947D01*
X50291Y82885D01*
X50195Y82813D01*
X50100Y82732D01*
X50006Y82642D01*
Y84295D01*
X50100Y84205D01*
D02*
G37*
G36*
X71804Y84201D02*
X71899Y84120D01*
X71995Y84048D01*
X72093Y83986D01*
X72192Y83934D01*
X72291Y83891D01*
X72393Y83858D01*
X72495Y83834D01*
X72598Y83819D01*
X72642Y83817D01*
X72670Y83818D01*
X72791Y83829D01*
X72898Y83846D01*
X72991Y83871D01*
X73069Y83902D01*
X73133Y83941D01*
X73183Y83986D01*
X73218Y84039D01*
X73240Y84098D01*
X73247Y84165D01*
Y82765D01*
X73240Y82831D01*
X73218Y82891D01*
X73183Y82943D01*
X73133Y82989D01*
X73069Y83027D01*
X72991Y83059D01*
X72898Y83083D01*
X72791Y83101D01*
X72670Y83111D01*
X72642Y83112D01*
X72598Y83110D01*
X72495Y83096D01*
X72393Y83072D01*
X72291Y83038D01*
X72192Y82995D01*
X72093Y82943D01*
X71995Y82881D01*
X71899Y82810D01*
X71804Y82728D01*
X71710Y82638D01*
Y84291D01*
X71804Y84201D01*
D02*
G37*
G36*
X23835Y86124D02*
X23702Y85963D01*
X23584Y85760D01*
X23480Y85515D01*
X23390Y85228D01*
X23316Y84900D01*
X23256Y84530D01*
X23179Y83664D01*
X23163Y83169D01*
X23161Y82632D01*
X19848Y85945D01*
X20385Y85946D01*
X21746Y86039D01*
X22116Y86099D01*
X22445Y86174D01*
X22731Y86263D01*
X22976Y86367D01*
X23179Y86486D01*
X23340Y86619D01*
X23835Y86124D01*
D02*
G37*
G36*
X83453Y83808D02*
X83473Y83758D01*
X83505Y83714D01*
X83551Y83675D01*
X83611Y83642D01*
X83683Y83616D01*
X83769Y83595D01*
X83868Y83580D01*
X83979Y83571D01*
X84105Y83568D01*
Y82868D01*
X83979Y82865D01*
X83868Y82857D01*
X83769Y82842D01*
X83683Y82821D01*
X83611Y82794D01*
X83551Y82762D01*
X83505Y82723D01*
X83473Y82679D01*
X83453Y82628D01*
X83446Y82572D01*
Y83865D01*
X83453Y83808D01*
D02*
G37*
G36*
X60476Y81399D02*
X60417Y81378D01*
X60364Y81342D01*
X60318Y81292D01*
X60280Y81228D01*
X60249Y81150D01*
X60224Y81057D01*
X60207Y80951D01*
X60196Y80830D01*
X60193Y80694D01*
X59492D01*
X59489Y80830D01*
X59478Y80951D01*
X59461Y81057D01*
X59437Y81150D01*
X59405Y81228D01*
X59367Y81292D01*
X59321Y81342D01*
X59268Y81378D01*
X59209Y81399D01*
X59143Y81406D01*
X60543D01*
X60476Y81399D01*
D02*
G37*
G36*
X82130Y81311D02*
X82070Y81289D01*
X82018Y81254D01*
X81972Y81204D01*
X81934Y81140D01*
X81902Y81061D01*
X81878Y80969D01*
X81860Y80862D01*
X81850Y80741D01*
X81846Y80606D01*
X81146D01*
X81143Y80741D01*
X81132Y80862D01*
X81115Y80969D01*
X81090Y81061D01*
X81059Y81140D01*
X81020Y81204D01*
X80975Y81254D01*
X80922Y81289D01*
X80863Y81311D01*
X80796Y81318D01*
X82196D01*
X82130Y81311D01*
D02*
G37*
G36*
X32638Y84475D02*
X33265Y83872D01*
X33560Y83627D01*
X33843Y83420D01*
X34114Y83250D01*
X34373Y83118D01*
X34620Y83024D01*
X34854Y82967D01*
X35076Y82948D01*
Y82248D01*
X34854Y82230D01*
X34620Y82173D01*
X34373Y82079D01*
X34114Y81947D01*
X33843Y81777D01*
X33560Y81570D01*
X33265Y81325D01*
X32638Y80722D01*
X32306Y80364D01*
Y84833D01*
X32638Y84475D01*
D02*
G37*
G36*
X96872Y80009D02*
X96864Y80075D01*
X96843Y80135D01*
X96808Y80187D01*
X96758Y80233D01*
X96694Y80271D01*
X96615Y80303D01*
X96523Y80327D01*
X96416Y80345D01*
X96295Y80355D01*
X96160Y80359D01*
Y81059D01*
X96295Y81062D01*
X96416Y81073D01*
X96523Y81090D01*
X96615Y81115D01*
X96694Y81146D01*
X96758Y81185D01*
X96808Y81230D01*
X96843Y81283D01*
X96864Y81342D01*
X96872Y81409D01*
Y80009D01*
D02*
G37*
G36*
X50100Y75303D02*
X50195Y75222D01*
X50291Y75151D01*
X50389Y75089D01*
X50488Y75036D01*
X50587Y74993D01*
X50688Y74960D01*
X50791Y74936D01*
X50894Y74922D01*
X50956Y74919D01*
X51015Y74921D01*
X51136Y74931D01*
X51242Y74949D01*
X51335Y74973D01*
X51413Y75005D01*
X51477Y75043D01*
X51527Y75089D01*
X51563Y75141D01*
X51584Y75201D01*
X51591Y75267D01*
Y73867D01*
X51584Y73934D01*
X51563Y73993D01*
X51527Y74046D01*
X51477Y74091D01*
X51413Y74130D01*
X51335Y74161D01*
X51242Y74186D01*
X51136Y74203D01*
X51015Y74214D01*
X50956Y74215D01*
X50894Y74212D01*
X50791Y74198D01*
X50688Y74174D01*
X50587Y74141D01*
X50488Y74098D01*
X50389Y74045D01*
X50291Y73984D01*
X50195Y73912D01*
X50100Y73831D01*
X50006Y73740D01*
Y75394D01*
X50100Y75303D01*
D02*
G37*
G36*
X71804Y75254D02*
X71899Y75173D01*
X71995Y75102D01*
X72093Y75040D01*
X72192Y74987D01*
X72291Y74944D01*
X72393Y74911D01*
X72495Y74887D01*
X72598Y74873D01*
X72642Y74871D01*
X72670Y74871D01*
X72791Y74882D01*
X72898Y74900D01*
X72991Y74924D01*
X73069Y74955D01*
X73133Y74994D01*
X73183Y75039D01*
X73218Y75092D01*
X73240Y75151D01*
X73247Y75218D01*
Y73818D01*
X73240Y73884D01*
X73218Y73944D01*
X73183Y73997D01*
X73133Y74042D01*
X73069Y74080D01*
X72991Y74112D01*
X72898Y74137D01*
X72791Y74154D01*
X72670Y74164D01*
X72642Y74165D01*
X72598Y74163D01*
X72495Y74149D01*
X72393Y74125D01*
X72291Y74092D01*
X72192Y74049D01*
X72093Y73996D01*
X71995Y73934D01*
X71899Y73863D01*
X71804Y73782D01*
X71710Y73691D01*
Y75345D01*
X71804Y75254D01*
D02*
G37*
G36*
X61802Y75134D02*
X61823Y75074D01*
X61859Y75021D01*
X61908Y74976D01*
X61972Y74937D01*
X62051Y74906D01*
X62143Y74882D01*
X62250Y74864D01*
X62371Y74853D01*
X62507Y74850D01*
Y74150D01*
X62371Y74146D01*
X62250Y74136D01*
X62143Y74119D01*
X62051Y74094D01*
X61972Y74063D01*
X61908Y74024D01*
X61859Y73979D01*
X61823Y73926D01*
X61802Y73866D01*
X61795Y73800D01*
Y75200D01*
X61802Y75134D01*
D02*
G37*
G36*
X96872Y73709D02*
X96864Y73776D01*
X96843Y73835D01*
X96808Y73888D01*
X96758Y73934D01*
X96694Y73972D01*
X96615Y74003D01*
X96523Y74028D01*
X96416Y74045D01*
X96295Y74056D01*
X96160Y74059D01*
Y74760D01*
X96295Y74763D01*
X96416Y74774D01*
X96523Y74791D01*
X96615Y74815D01*
X96694Y74847D01*
X96758Y74885D01*
X96808Y74931D01*
X96843Y74984D01*
X96864Y75043D01*
X96872Y75109D01*
Y73709D01*
D02*
G37*
G36*
X83453Y75043D02*
X83475Y74984D01*
X83510Y74931D01*
X83560Y74885D01*
X83624Y74847D01*
X83702Y74815D01*
X83795Y74791D01*
X83902Y74774D01*
X84023Y74763D01*
X84158Y74760D01*
Y74059D01*
X84023Y74056D01*
X83902Y74045D01*
X83795Y74028D01*
X83702Y74003D01*
X83624Y73972D01*
X83560Y73934D01*
X83510Y73888D01*
X83475Y73835D01*
X83453Y73776D01*
X83446Y73709D01*
Y75109D01*
X83453Y75043D01*
D02*
G37*
G36*
X23835Y76124D02*
X23702Y75963D01*
X23584Y75760D01*
X23480Y75515D01*
X23390Y75228D01*
X23316Y74900D01*
X23256Y74530D01*
X23179Y73664D01*
X23163Y73169D01*
X23161Y72632D01*
X19848Y75945D01*
X20385Y75946D01*
X21746Y76039D01*
X22116Y76099D01*
X22445Y76174D01*
X22731Y76263D01*
X22976Y76367D01*
X23179Y76486D01*
X23340Y76619D01*
X23835Y76124D01*
D02*
G37*
G36*
X60476Y72344D02*
X60417Y72323D01*
X60364Y72287D01*
X60318Y72237D01*
X60280Y72173D01*
X60249Y72095D01*
X60224Y72002D01*
X60207Y71895D01*
X60196Y71775D01*
X60193Y71639D01*
X59492D01*
X59489Y71775D01*
X59478Y71895D01*
X59461Y72002D01*
X59437Y72095D01*
X59405Y72173D01*
X59367Y72237D01*
X59321Y72287D01*
X59268Y72323D01*
X59209Y72344D01*
X59143Y72351D01*
X60543D01*
X60476Y72344D01*
D02*
G37*
G36*
X82130Y72255D02*
X82070Y72234D01*
X82018Y72198D01*
X81972Y72149D01*
X81934Y72085D01*
X81902Y72006D01*
X81878Y71914D01*
X81860Y71807D01*
X81850Y71686D01*
X81846Y71551D01*
X81146D01*
X81143Y71686D01*
X81132Y71807D01*
X81115Y71914D01*
X81090Y72006D01*
X81059Y72085D01*
X81020Y72149D01*
X80975Y72198D01*
X80922Y72234D01*
X80863Y72255D01*
X80796Y72263D01*
X82196D01*
X82130Y72255D01*
D02*
G37*
G36*
X96872Y70560D02*
X96864Y70626D01*
X96843Y70686D01*
X96808Y70738D01*
X96758Y70784D01*
X96694Y70822D01*
X96615Y70854D01*
X96523Y70878D01*
X96416Y70896D01*
X96295Y70906D01*
X96160Y70910D01*
Y71610D01*
X96295Y71613D01*
X96416Y71624D01*
X96523Y71641D01*
X96615Y71666D01*
X96694Y71697D01*
X96758Y71736D01*
X96808Y71781D01*
X96843Y71834D01*
X96864Y71893D01*
X96872Y71960D01*
Y70560D01*
D02*
G37*
G36*
X33163Y72028D02*
X33255Y70667D01*
X33316Y70297D01*
X33390Y69969D01*
X33480Y69682D01*
X33584Y69437D01*
X33702Y69234D01*
X33835Y69073D01*
X33340Y68578D01*
X33179Y68711D01*
X32976Y68830D01*
X32731Y68933D01*
X32445Y69023D01*
X32116Y69098D01*
X31746Y69158D01*
X30881Y69234D01*
X30385Y69250D01*
X29848Y69252D01*
X33161Y72565D01*
X33163Y72028D01*
D02*
G37*
G36*
X96872Y67437D02*
X96864Y67504D01*
X96843Y67563D01*
X96808Y67616D01*
X96758Y67661D01*
X96694Y67700D01*
X96615Y67731D01*
X96523Y67756D01*
X96416Y67773D01*
X96295Y67784D01*
X96160Y67787D01*
Y68487D01*
X96295Y68491D01*
X96416Y68501D01*
X96523Y68519D01*
X96615Y68543D01*
X96694Y68575D01*
X96758Y68613D01*
X96808Y68659D01*
X96843Y68711D01*
X96864Y68771D01*
X96872Y68837D01*
Y67437D01*
D02*
G37*
G36*
X61802Y65685D02*
X61823Y65625D01*
X61859Y65573D01*
X61908Y65527D01*
X61972Y65489D01*
X62051Y65457D01*
X62143Y65433D01*
X62250Y65415D01*
X62371Y65405D01*
X62507Y65401D01*
Y64701D01*
X62371Y64698D01*
X62250Y64687D01*
X62143Y64670D01*
X62051Y64645D01*
X61972Y64614D01*
X61908Y64575D01*
X61859Y64530D01*
X61823Y64477D01*
X61802Y64418D01*
X61795Y64351D01*
Y65751D01*
X61802Y65685D01*
D02*
G37*
G36*
X96872Y64261D02*
X96864Y64327D01*
X96843Y64387D01*
X96808Y64439D01*
X96758Y64485D01*
X96694Y64523D01*
X96615Y64555D01*
X96523Y64579D01*
X96416Y64597D01*
X96295Y64607D01*
X96160Y64611D01*
Y65311D01*
X96295Y65314D01*
X96416Y65325D01*
X96523Y65342D01*
X96615Y65367D01*
X96694Y65398D01*
X96758Y65437D01*
X96808Y65482D01*
X96843Y65535D01*
X96864Y65594D01*
X96872Y65661D01*
Y64261D01*
D02*
G37*
G36*
X83453Y65594D02*
X83475Y65535D01*
X83510Y65482D01*
X83560Y65437D01*
X83624Y65398D01*
X83702Y65367D01*
X83795Y65342D01*
X83902Y65325D01*
X84023Y65314D01*
X84158Y65311D01*
Y64611D01*
X84023Y64607D01*
X83902Y64597D01*
X83795Y64579D01*
X83702Y64555D01*
X83624Y64523D01*
X83560Y64485D01*
X83510Y64439D01*
X83475Y64387D01*
X83453Y64327D01*
X83446Y64261D01*
Y65661D01*
X83453Y65594D01*
D02*
G37*
G36*
X71804Y65697D02*
X71899Y65616D01*
X71995Y65544D01*
X72093Y65482D01*
X72192Y65430D01*
X72291Y65387D01*
X72393Y65354D01*
X72495Y65330D01*
X72598Y65315D01*
X72642Y65313D01*
X72670Y65314D01*
X72791Y65325D01*
X72898Y65342D01*
X72991Y65367D01*
X73069Y65398D01*
X73133Y65437D01*
X73183Y65482D01*
X73218Y65535D01*
X73240Y65594D01*
X73247Y65661D01*
Y64261D01*
X73240Y64327D01*
X73218Y64387D01*
X73183Y64439D01*
X73133Y64485D01*
X73069Y64523D01*
X72991Y64555D01*
X72898Y64579D01*
X72791Y64597D01*
X72670Y64607D01*
X72642Y64608D01*
X72598Y64606D01*
X72495Y64592D01*
X72393Y64568D01*
X72291Y64534D01*
X72192Y64491D01*
X72093Y64439D01*
X71995Y64377D01*
X71899Y64306D01*
X71804Y64224D01*
X71710Y64134D01*
Y65787D01*
X71804Y65697D01*
D02*
G37*
G36*
X43426Y67954D02*
X43707Y67766D01*
X44039Y67700D01*
X50323D01*
X50622Y67200D01*
X50547Y66823D01*
Y66527D01*
X53543D01*
Y63575D01*
X50547D01*
Y63279D01*
X50622Y62902D01*
X50323Y62402D01*
X41236D01*
X34266Y69372D01*
X34253Y69417D01*
X34147Y69545D01*
X34068Y69680D01*
X33988Y69869D01*
X33913Y70109D01*
X33847Y70400D01*
X33794Y70729D01*
X33704Y72047D01*
X33702Y72567D01*
X33661Y72665D01*
Y73105D01*
X33399Y74083D01*
X32893Y74960D01*
X32177Y75676D01*
X31740Y75928D01*
X31874Y76428D01*
X34951D01*
X43426Y67954D01*
D02*
G37*
G36*
X60476Y62895D02*
X60417Y62874D01*
X60364Y62838D01*
X60318Y62788D01*
X60280Y62724D01*
X60249Y62646D01*
X60224Y62553D01*
X60207Y62447D01*
X60196Y62326D01*
X60193Y62190D01*
X59492D01*
X59489Y62326D01*
X59478Y62447D01*
X59461Y62553D01*
X59437Y62646D01*
X59405Y62724D01*
X59367Y62788D01*
X59321Y62838D01*
X59268Y62874D01*
X59209Y62895D01*
X59143Y62902D01*
X60543D01*
X60476Y62895D01*
D02*
G37*
G36*
X82130Y62807D02*
X82070Y62785D01*
X82018Y62750D01*
X81972Y62700D01*
X81934Y62636D01*
X81902Y62557D01*
X81878Y62465D01*
X81860Y62358D01*
X81850Y62237D01*
X81846Y62102D01*
X81146D01*
X81143Y62237D01*
X81132Y62358D01*
X81115Y62465D01*
X81090Y62557D01*
X81059Y62636D01*
X81020Y62700D01*
X80975Y62750D01*
X80922Y62785D01*
X80863Y62807D01*
X80796Y62814D01*
X82196D01*
X82130Y62807D01*
D02*
G37*
G36*
X96872Y61042D02*
X96864Y61108D01*
X96843Y61168D01*
X96808Y61221D01*
X96758Y61266D01*
X96694Y61304D01*
X96615Y61336D01*
X96523Y61361D01*
X96416Y61378D01*
X96295Y61388D01*
X96160Y61392D01*
Y62092D01*
X96295Y62095D01*
X96416Y62106D01*
X96523Y62124D01*
X96615Y62148D01*
X96694Y62179D01*
X96758Y62218D01*
X96808Y62264D01*
X96843Y62316D01*
X96864Y62375D01*
X96872Y62442D01*
Y61042D01*
D02*
G37*
G36*
X33163Y62029D02*
X33256Y60668D01*
X33316Y60298D01*
X33391Y59970D01*
X33480Y59683D01*
X33584Y59438D01*
X33703Y59235D01*
X33836Y59074D01*
X33341Y58579D01*
X33180Y58712D01*
X32977Y58831D01*
X32732Y58935D01*
X32445Y59024D01*
X32117Y59099D01*
X31747Y59159D01*
X30881Y59235D01*
X30386Y59252D01*
X29849Y59253D01*
X33162Y62566D01*
X33163Y62029D01*
D02*
G37*
G36*
X96872Y57961D02*
X96864Y58028D01*
X96843Y58087D01*
X96808Y58140D01*
X96758Y58185D01*
X96694Y58224D01*
X96615Y58255D01*
X96523Y58280D01*
X96416Y58297D01*
X96295Y58308D01*
X96160Y58311D01*
Y59011D01*
X96295Y59015D01*
X96416Y59025D01*
X96523Y59043D01*
X96615Y59067D01*
X96694Y59099D01*
X96758Y59137D01*
X96808Y59183D01*
X96843Y59235D01*
X96864Y59295D01*
X96872Y59361D01*
Y57961D01*
D02*
G37*
G36*
X111417Y98819D02*
X111417Y91339D01*
X132677Y91339D01*
X132677Y53543D01*
X126772D01*
X126772Y31294D01*
X126417Y30681D01*
X126075Y29402D01*
Y28078D01*
X126417Y26800D01*
X126772Y26186D01*
Y10236D01*
X88976Y10236D01*
X88976Y46063D01*
Y50720D01*
X89476Y50872D01*
X89546Y50767D01*
X90007Y50459D01*
X90551Y50351D01*
X90650D01*
Y53543D01*
X92126D01*
Y55020D01*
X95122D01*
Y55315D01*
X95014Y55859D01*
X94706Y56320D01*
X94611Y56984D01*
X94696Y57087D01*
X95848D01*
Y56988D01*
X103948D01*
Y57087D01*
X104331D01*
Y88583D01*
X103948D01*
Y88681D01*
X99898D01*
Y90158D01*
X98421D01*
Y92257D01*
X96731D01*
X96682Y92757D01*
X96804Y92782D01*
X97265Y93090D01*
X97573Y93551D01*
X97681Y94095D01*
Y94193D01*
X94488D01*
Y97146D01*
X97681D01*
Y97244D01*
X97573Y97788D01*
X97265Y98249D01*
X97160Y98319D01*
X97312Y98819D01*
X111417Y98819D01*
D02*
G37*
G36*
X138531Y57566D02*
X138472Y57545D01*
X138419Y57510D01*
X138374Y57461D01*
X138335Y57398D01*
X138304Y57321D01*
X138279Y57230D01*
X138262Y57125D01*
X138258Y57085D01*
X138262Y57043D01*
X138279Y56937D01*
X138304Y56844D01*
X138335Y56766D01*
X138374Y56702D01*
X138419Y56652D01*
X138472Y56616D01*
X138531Y56595D01*
X138598Y56588D01*
X137198D01*
X137264Y56595D01*
X137324Y56616D01*
X137376Y56652D01*
X137422Y56702D01*
X137460Y56766D01*
X137492Y56844D01*
X137516Y56937D01*
X137534Y57043D01*
X137537Y57085D01*
X137534Y57125D01*
X137516Y57230D01*
X137492Y57321D01*
X137460Y57398D01*
X137422Y57461D01*
X137376Y57510D01*
X137324Y57545D01*
X137264Y57566D01*
X137198Y57573D01*
X138598D01*
X138531Y57566D01*
D02*
G37*
%LPC*%
G36*
X103948Y92257D02*
X101374D01*
Y91634D01*
X103948D01*
Y92257D01*
D02*
G37*
G36*
Y54035D02*
X101374D01*
Y53412D01*
X103948D01*
Y54035D01*
D02*
G37*
G36*
X98421D02*
X95848D01*
Y53412D01*
X98421D01*
Y54035D01*
D02*
G37*
G36*
X95122Y52067D02*
X93602D01*
Y50351D01*
X93701D01*
X94245Y50459D01*
X94706Y50767D01*
X95014Y51228D01*
X95122Y51772D01*
Y52067D01*
D02*
G37*
G36*
X98032Y44931D02*
X96752D01*
Y41634D01*
X99753D01*
Y43209D01*
X99622Y43868D01*
X99249Y44426D01*
X98690Y44800D01*
X98032Y44931D01*
D02*
G37*
G36*
X93799D02*
X92520D01*
X91861Y44800D01*
X91302Y44426D01*
X90929Y43868D01*
X90798Y43209D01*
Y41634D01*
X93799D01*
Y44931D01*
D02*
G37*
G36*
X99753Y38681D02*
X96752D01*
Y35384D01*
X98032D01*
X98690Y35515D01*
X99249Y35889D01*
X99622Y36447D01*
X99753Y37106D01*
Y38681D01*
D02*
G37*
G36*
X93799D02*
X90798D01*
Y37106D01*
X90929Y36447D01*
X91302Y35889D01*
X91861Y35515D01*
X92520Y35384D01*
X93799D01*
Y38681D01*
D02*
G37*
G36*
X112894Y34067D02*
Y30217D01*
X116744D01*
X116568Y30874D01*
X115840Y32134D01*
X114811Y33163D01*
X113551Y33891D01*
X112894Y34067D01*
D02*
G37*
G36*
X109941D02*
X109284Y33891D01*
X108023Y33163D01*
X106994Y32134D01*
X106266Y30874D01*
X106090Y30217D01*
X109941D01*
Y34067D01*
D02*
G37*
G36*
X98032Y32332D02*
X96752D01*
Y29035D01*
X99753D01*
Y30610D01*
X99622Y31269D01*
X99249Y31828D01*
X98690Y32201D01*
X98032Y32332D01*
D02*
G37*
G36*
X93799D02*
X92520D01*
X91861Y32201D01*
X91302Y31828D01*
X90929Y31269D01*
X90798Y30610D01*
Y29035D01*
X93799D01*
Y32332D01*
D02*
G37*
G36*
X116744Y27264D02*
X112894D01*
Y23413D01*
X113551Y23589D01*
X114811Y24317D01*
X115840Y25346D01*
X116568Y26607D01*
X116744Y27264D01*
D02*
G37*
G36*
X109941D02*
X106090D01*
X106266Y26607D01*
X106994Y25346D01*
X108023Y24317D01*
X109284Y23589D01*
X109941Y23413D01*
Y27264D01*
D02*
G37*
G36*
X99753Y26083D02*
X96752D01*
Y22786D01*
X98032D01*
X98690Y22917D01*
X99249Y23290D01*
X99622Y23849D01*
X99753Y24508D01*
Y26083D01*
D02*
G37*
G36*
X93799D02*
X90798D01*
Y24508D01*
X90929Y23849D01*
X91302Y23290D01*
X91861Y22917D01*
X92520Y22786D01*
X93799D01*
Y26083D01*
D02*
G37*
G36*
X98032Y20521D02*
X96752D01*
Y17224D01*
X99753D01*
Y18799D01*
X99622Y19458D01*
X99249Y20017D01*
X98690Y20390D01*
X98032Y20521D01*
D02*
G37*
G36*
X93799D02*
X92520D01*
X91861Y20390D01*
X91302Y20017D01*
X90929Y19458D01*
X90798Y18799D01*
Y17224D01*
X93799D01*
Y20521D01*
D02*
G37*
G36*
X99753Y14272D02*
X96752D01*
Y10975D01*
X98032D01*
X98690Y11106D01*
X99249Y11479D01*
X99622Y12038D01*
X99753Y12697D01*
Y14272D01*
D02*
G37*
G36*
X93799D02*
X90798D01*
Y12697D01*
X90929Y12038D01*
X91302Y11479D01*
X91861Y11106D01*
X92520Y10975D01*
X93799D01*
Y14272D01*
D02*
G37*
%LPD*%
D11*
X94882Y87008D02*
X97244D01*
X94882Y87008D02*
X94882Y87008D01*
D12*
X42696Y88013D02*
X83605D01*
X24511Y97295D02*
X33414D01*
X42696Y88013D01*
X43244Y78015D02*
X85370D01*
X24511Y87295D02*
X33965D01*
X43244Y78015D01*
X45551Y80040D02*
X59433D01*
X30624Y91789D02*
X33801D01*
X29815Y92598D02*
X30624Y91789D01*
X33801D02*
X45551Y80040D01*
X29815Y82598D02*
X35076D01*
X46690Y70985D01*
X59407D01*
X44039Y68567D02*
X85806D01*
X89412Y64961D02*
X99898D01*
X85806Y68567D02*
X89412Y64961D01*
X88652Y61742D02*
X99829D01*
X85433Y64961D02*
X88652Y61742D01*
X82898Y64961D02*
X85433D01*
X92126Y71260D02*
X99898D01*
X85370Y78015D02*
X92126Y71260D01*
X59842Y80450D02*
Y83555D01*
X59433Y80040D02*
X59842Y80450D01*
X86095Y88708D02*
X94095Y80709D01*
X87795Y90158D02*
X94095Y83858D01*
X83035Y98819D02*
X87795Y94059D01*
Y90158D02*
Y94059D01*
X84773Y94361D02*
X86095Y93039D01*
Y88708D02*
Y93039D01*
X94095Y83858D02*
X99898D01*
X94095Y80709D02*
X99898D01*
X92913Y74410D02*
X99898D01*
X81742Y83218D02*
X84105D01*
X81496Y83465D02*
X81742Y83218D01*
X84105D02*
X92913Y74410D01*
X63295Y83555D02*
X66901Y79949D01*
X80868D01*
X64083Y65051D02*
X67689Y61445D01*
X59842Y65051D02*
X64083D01*
X67689Y61445D02*
X81060D01*
X59884Y94579D02*
X64083D01*
X67689Y90973D01*
X80737D01*
X59842Y74500D02*
X64476D01*
X68082Y70894D02*
X81060D01*
X64476Y74500D02*
X68082Y70894D01*
X59842Y83555D02*
X63295D01*
X81496Y80577D02*
Y83465D01*
X80868Y79949D02*
X81496Y80577D01*
X44802Y91063D02*
X59174D01*
X59842Y94579D02*
X59884Y94538D01*
X59174Y91063D02*
X59884Y91773D01*
Y94538D01*
X53332Y64840D02*
X53543Y65051D01*
X49162Y64840D02*
X53332D01*
X52886Y74567D02*
X52953Y74500D01*
X48894Y74567D02*
X52886D01*
X52543Y94366D02*
X52756Y94579D01*
X49162Y94366D02*
X52543D01*
X53457Y83468D02*
X53543Y83555D01*
X49009Y83468D02*
X53457D01*
X41732Y98819D02*
X83035D01*
X31496Y109055D02*
X41732Y98819D01*
X26271Y109055D02*
X31496D01*
X19815Y102598D02*
X26271Y109055D01*
X34211Y101654D02*
X44802Y91063D01*
X30759Y101654D02*
X34211D01*
X29815Y102598D02*
X30759Y101654D01*
X80737Y90973D02*
X81447Y91683D01*
Y94439D02*
X81496Y94488D01*
X81447Y91683D02*
Y94439D01*
X81060Y61445D02*
X81496Y61881D01*
Y63145D01*
X82898Y64547D01*
Y64653D01*
X40877Y61536D02*
X59407D01*
X29815Y72598D02*
X40877Y61536D01*
X81060Y70894D02*
X81496Y71330D01*
X35310Y77295D02*
X44039Y68567D01*
X24511Y77295D02*
X35310D01*
X81496Y71330D02*
Y74410D01*
X59842Y71420D02*
Y74016D01*
X59407Y70985D02*
X59842Y71420D01*
Y61972D02*
Y65051D01*
X59407Y61536D02*
X59842Y61972D01*
X99198Y78259D02*
X99898Y77559D01*
X93360Y78259D02*
X99198D01*
X83605Y88013D02*
X93360Y78259D01*
X19815Y72598D02*
X24511Y77295D01*
X33754Y58661D02*
X99898D01*
X81447Y94361D02*
X84773D01*
X81496Y74410D02*
X84252D01*
X90524Y68137D02*
X99871D01*
X84252Y74410D02*
X90524Y68137D01*
X81496Y64961D02*
X82898D01*
X19815Y82598D02*
X24511Y87295D01*
X19815Y92598D02*
X24511Y97295D01*
X99871Y68137D02*
X99898Y68110D01*
X99829Y61742D02*
X99898Y61811D01*
X81496Y74410D02*
X81496Y74410D01*
X74016Y94488D02*
X74410Y94095D01*
X70079Y94488D02*
X74016D01*
X70866Y83465D02*
X74405D01*
X74410Y83469D01*
X70866Y64961D02*
X75197D01*
X29815Y62600D02*
X33754Y58661D01*
X70899Y74518D02*
X74813D01*
X137898Y90055D02*
Y90158D01*
Y55512D02*
Y57874D01*
Y58661D02*
X138447Y58112D01*
X137898Y87008D02*
X139848D01*
X214173Y115270D02*
Y117323D01*
D14*
X118898Y72835D02*
D03*
D15*
X137898Y90158D02*
D03*
Y87008D02*
D03*
Y83858D02*
D03*
Y80709D02*
D03*
Y77559D02*
D03*
Y74410D02*
D03*
Y71260D02*
D03*
Y68110D02*
D03*
Y64961D02*
D03*
Y61811D02*
D03*
Y58661D02*
D03*
Y55512D02*
D03*
X99898D02*
D03*
Y58661D02*
D03*
Y61811D02*
D03*
Y64961D02*
D03*
Y68110D02*
D03*
Y71260D02*
D03*
Y74410D02*
D03*
Y77559D02*
D03*
Y80709D02*
D03*
Y83858D02*
D03*
Y87008D02*
D03*
Y90158D02*
D03*
D23*
X75197Y74410D02*
D03*
X81496D02*
D03*
X75197Y83465D02*
D03*
X81496D02*
D03*
X75197Y64961D02*
D03*
X81496D02*
D03*
Y94488D02*
D03*
X75197D02*
D03*
D24*
X59842Y65051D02*
D03*
X53543D02*
D03*
X59842Y74500D02*
D03*
X53543D02*
D03*
X59842Y83555D02*
D03*
X53543D02*
D03*
X59842Y94579D02*
D03*
X53543D02*
D03*
X92126Y53543D02*
D03*
X85827D02*
D03*
D25*
X94488Y95669D02*
D03*
Y101969D02*
D03*
D26*
X95276Y15748D02*
D03*
X82677D02*
D03*
X95276Y27559D02*
D03*
X82677D02*
D03*
X95276Y40157D02*
D03*
X82677D02*
D03*
D27*
X94488Y101969D02*
X94488Y101969D01*
D28*
X137898Y87008D02*
X183858D01*
X214173Y117323D01*
X137898Y58268D02*
X211417D01*
X214173D02*
X214173Y58268D01*
X194095Y77559D02*
X214173Y97638D01*
X137898Y77559D02*
X192228D01*
X204011Y68110D02*
X213854Y77953D01*
X137898Y68110D02*
X202145Y68110D01*
X213854Y77953D02*
X214173D01*
D29*
X82284Y26757D02*
X83071Y27544D01*
Y40157D02*
X83071Y40157D01*
D30*
X251575Y12205D02*
D03*
X12992Y11417D02*
D03*
X247244Y132283D02*
D03*
X12205Y132677D02*
D03*
D31*
X214173Y38583D02*
D03*
Y18898D02*
D03*
Y97638D02*
D03*
Y117323D02*
D03*
Y77953D02*
D03*
Y58268D02*
D03*
X131102Y28740D02*
D03*
X111417D02*
D03*
D32*
X29815Y62600D02*
D03*
X19815Y62598D02*
D03*
X29815Y92598D02*
D03*
Y72598D02*
D03*
Y82598D02*
D03*
Y102598D02*
D03*
X19815Y72598D02*
D03*
Y82598D02*
D03*
Y92598D02*
D03*
D33*
Y102598D02*
D03*
D34*
X254331Y120472D02*
D03*
X246457Y104724D02*
D03*
X254331Y88976D02*
D03*
Y57480D02*
D03*
X246457Y41732D02*
D03*
X254331Y25984D02*
D03*
X230709Y136221D02*
D03*
X238583Y120472D02*
D03*
X230709Y104724D02*
D03*
X238583Y88976D02*
D03*
X230709Y73228D02*
D03*
Y41732D02*
D03*
X238583Y25984D02*
D03*
X230709Y10236D02*
D03*
X222835Y120472D02*
D03*
X214961Y104724D02*
D03*
X222835Y88976D02*
D03*
Y25984D02*
D03*
X214961Y10236D02*
D03*
X199213Y136221D02*
D03*
X207087Y120472D02*
D03*
X199213Y41732D02*
D03*
X207087Y25984D02*
D03*
X199213Y10236D02*
D03*
X183465Y136221D02*
D03*
X191339Y120472D02*
D03*
X183465Y104724D02*
D03*
Y41732D02*
D03*
X191339Y25984D02*
D03*
X183465Y10236D02*
D03*
X167717Y136221D02*
D03*
X175591Y120472D02*
D03*
X167717Y104724D02*
D03*
Y41732D02*
D03*
X175591Y25984D02*
D03*
X167717Y10236D02*
D03*
X151969Y136221D02*
D03*
X159843Y120472D02*
D03*
X151969Y104724D02*
D03*
Y41732D02*
D03*
X159843Y25984D02*
D03*
X151969Y10236D02*
D03*
X136221Y136221D02*
D03*
X144095Y120472D02*
D03*
X136221Y104724D02*
D03*
Y41732D02*
D03*
X120472Y136221D02*
D03*
X128346Y120472D02*
D03*
X120472Y104724D02*
D03*
X104724Y136221D02*
D03*
X112598Y120472D02*
D03*
X104724Y104724D02*
D03*
X88976Y136221D02*
D03*
X96850Y120472D02*
D03*
X88976Y104724D02*
D03*
X73228Y136221D02*
D03*
X81102Y120472D02*
D03*
X73228Y104724D02*
D03*
Y10236D02*
D03*
X57480Y136221D02*
D03*
X65354Y120472D02*
D03*
X57480Y104724D02*
D03*
Y41732D02*
D03*
X65354Y25984D02*
D03*
X57480Y10236D02*
D03*
X41732Y136221D02*
D03*
X49606Y120472D02*
D03*
X41732Y41732D02*
D03*
X49606Y25984D02*
D03*
X41732Y10236D02*
D03*
X25984Y136221D02*
D03*
X33858Y120472D02*
D03*
Y25984D02*
D03*
X25984Y10236D02*
D03*
X18110Y120472D02*
D03*
X10236Y41732D02*
D03*
X18110Y25984D02*
D03*
X94882Y87008D02*
D03*
X49162Y64840D02*
D03*
Y74567D02*
D03*
Y94366D02*
D03*
Y83468D02*
D03*
X70866Y94488D02*
D03*
Y64961D02*
D03*
Y74518D02*
D03*
Y83465D02*
D03*
M02*
