%TF.GenerationSoftware,Altium Limited,Altium Designer,24.2.2 (26)*%
G04 Layer_Color=0*
%FSLAX45Y45*%
%MOMM*%
%TF.SameCoordinates,3B1DD697-BB8E-4966-B076-04D6E0BCF24A*%
%TF.FilePolarity,Positive*%
%TF.FileFunction,Plated,1,4,PTH,Drill*%
%TF.Part,Single*%
G01*
G75*
%TA.AperFunction,ComponentDrill*%
%ADD58C,1.02000*%
%ADD59C,1.00000*%
%ADD60C,1.04000*%
%TA.AperFunction,ViaDrill,NotFilled*%
%ADD61C,0.71120*%
%ADD62C,0.30480*%
%ADD63C,0.40640*%
D58*
X1295400Y2590800D02*
D03*
X2603500Y3111500D02*
D03*
X4064000Y1094740D02*
D03*
X825500Y1206500D02*
D03*
D59*
X1324800Y3200400D02*
D03*
X1574800D02*
D03*
X1824800D02*
D03*
D60*
X1792710Y208800D02*
D03*
X1604710D02*
D03*
X1792710Y462800D02*
D03*
X1604710D02*
D03*
X1792710Y716800D02*
D03*
X1604710D02*
D03*
X3292710Y208800D02*
D03*
X3104710D02*
D03*
X3292710Y462800D02*
D03*
X3104710D02*
D03*
X3292710Y716800D02*
D03*
X3104710D02*
D03*
X2792710Y208800D02*
D03*
X2604710D02*
D03*
X2792710Y462800D02*
D03*
X2604710D02*
D03*
X2792710Y716800D02*
D03*
X2604710D02*
D03*
X2292710Y208800D02*
D03*
X2104710D02*
D03*
X2292710Y462800D02*
D03*
X2104710D02*
D03*
X2292710Y716800D02*
D03*
X2104710D02*
D03*
D61*
X4883150Y3238500D02*
D03*
Y1333500D02*
D03*
X4724400Y1016000D02*
D03*
X3295650Y3238500D02*
D03*
X3454400Y2921000D02*
D03*
Y2286000D02*
D03*
X2978150Y3238500D02*
D03*
X3136900Y1651000D02*
D03*
X2819400Y1016000D02*
D03*
X2343150Y3238500D02*
D03*
X2501900Y1016000D02*
D03*
X2025650Y3238500D02*
D03*
X1866900Y2921000D02*
D03*
X1708150Y2603500D02*
D03*
X1866900Y2286000D02*
D03*
X1073150Y3238500D02*
D03*
X1231900Y2921000D02*
D03*
X755650Y3238500D02*
D03*
X914400Y2921000D02*
D03*
X1574800Y1574800D02*
D03*
X2336800Y2057400D02*
D03*
X4978400Y3098800D02*
D03*
Y2794000D02*
D03*
Y2057400D02*
D03*
Y2413000D02*
D03*
X4846398Y1143628D02*
D03*
X4839863Y1622919D02*
D03*
X4445000Y1079500D02*
D03*
Y1460500D02*
D03*
X4064000Y3048000D02*
D03*
X3683000D02*
D03*
X3810000Y127000D02*
D03*
X3556000D02*
D03*
X1333500Y190500D02*
D03*
X1016000D02*
D03*
X1587500Y952500D02*
D03*
X1206500D02*
D03*
X825500Y1587500D02*
D03*
X1206500D02*
D03*
Y1270000D02*
D03*
X1587500D02*
D03*
X3683000Y2667000D02*
D03*
X4064000Y2286000D02*
D03*
X3683000D02*
D03*
X4064000Y1841500D02*
D03*
Y1460500D02*
D03*
X3683000Y1841500D02*
D03*
Y1460500D02*
D03*
Y1016000D02*
D03*
X2895600Y2082800D02*
D03*
X2616200Y2057400D02*
D03*
Y2819400D02*
D03*
D62*
X2004196Y1975173D02*
D03*
X1823714Y1492828D02*
D03*
X2946400Y1117600D02*
D03*
X2463800Y1905000D02*
D03*
D63*
X2266460Y1508760D02*
D03*
X2142260D02*
D03*
X2266460Y1610360D02*
D03*
X2142260D02*
D03*
X2266460Y1711960D02*
D03*
X2142260D02*
D03*
%TF.MD5,2f9ef2b3b205cfdaeb4ccc00c275c0bf*%
M02*
