G04*
G04 #@! TF.GenerationSoftware,Altium Limited,Altium Designer,21.0.9 (235)*
G04*
G04 Layer_Color=8388736*
%FSLAX25Y25*%
%MOIN*%
G70*
G04*
G04 #@! TF.SameCoordinates,EF3E8415-0D1F-43D6-88A8-43D94B7D360D*
G04*
G04*
G04 #@! TF.FilePolarity,Negative*
G04*
G01*
G75*
G04:AMPARAMS|DCode=21|XSize=43.37mil|YSize=43.37mil|CornerRadius=5.94mil|HoleSize=0mil|Usage=FLASHONLY|Rotation=270.000|XOffset=0mil|YOffset=0mil|HoleType=Round|Shape=RoundedRectangle|*
%AMROUNDEDRECTD21*
21,1,0.04337,0.03150,0,0,270.0*
21,1,0.03150,0.04337,0,0,270.0*
1,1,0.01187,-0.01575,-0.01575*
1,1,0.01187,-0.01575,0.01575*
1,1,0.01187,0.01575,0.01575*
1,1,0.01187,0.01575,-0.01575*
%
%ADD21ROUNDEDRECTD21*%
G04:AMPARAMS|DCode=22|XSize=28.74mil|YSize=55.12mil|CornerRadius=3.83mil|HoleSize=0mil|Usage=FLASHONLY|Rotation=180.000|XOffset=0mil|YOffset=0mil|HoleType=Round|Shape=RoundedRectangle|*
%AMROUNDEDRECTD22*
21,1,0.02874,0.04746,0,0,180.0*
21,1,0.02108,0.05512,0,0,180.0*
1,1,0.00766,-0.01054,0.02373*
1,1,0.00766,0.01054,0.02373*
1,1,0.00766,0.01054,-0.02373*
1,1,0.00766,-0.01054,-0.02373*
%
%ADD22ROUNDEDRECTD22*%
G04:AMPARAMS|DCode=23|XSize=94.55mil|YSize=102.43mil|CornerRadius=8.79mil|HoleSize=0mil|Usage=FLASHONLY|Rotation=180.000|XOffset=0mil|YOffset=0mil|HoleType=Round|Shape=RoundedRectangle|*
%AMROUNDEDRECTD23*
21,1,0.09455,0.08484,0,0,180.0*
21,1,0.07697,0.10243,0,0,180.0*
1,1,0.01758,-0.03848,0.04242*
1,1,0.01758,0.03848,0.04242*
1,1,0.01758,0.03848,-0.04242*
1,1,0.01758,-0.03848,-0.04242*
%
%ADD23ROUNDEDRECTD23*%
G04:AMPARAMS|DCode=24|XSize=28.61mil|YSize=97.5mil|CornerRadius=4.46mil|HoleSize=0mil|Usage=FLASHONLY|Rotation=0.000|XOffset=0mil|YOffset=0mil|HoleType=Round|Shape=RoundedRectangle|*
%AMROUNDEDRECTD24*
21,1,0.02861,0.08858,0,0,0.0*
21,1,0.01968,0.09750,0,0,0.0*
1,1,0.00892,0.00984,-0.04429*
1,1,0.00892,-0.00984,-0.04429*
1,1,0.00892,-0.00984,0.04429*
1,1,0.00892,0.00984,0.04429*
%
%ADD24ROUNDEDRECTD24*%
G04:AMPARAMS|DCode=25|XSize=47.31mil|YSize=43.37mil|CornerRadius=4.95mil|HoleSize=0mil|Usage=FLASHONLY|Rotation=270.000|XOffset=0mil|YOffset=0mil|HoleType=Round|Shape=RoundedRectangle|*
%AMROUNDEDRECTD25*
21,1,0.04731,0.03347,0,0,270.0*
21,1,0.03740,0.04337,0,0,270.0*
1,1,0.00991,-0.01673,-0.01870*
1,1,0.00991,-0.01673,0.01870*
1,1,0.00991,0.01673,0.01870*
1,1,0.00991,0.01673,-0.01870*
%
%ADD25ROUNDEDRECTD25*%
G04:AMPARAMS|DCode=26|XSize=84mil|YSize=29mil|CornerRadius=3.88mil|HoleSize=0mil|Usage=FLASHONLY|Rotation=0.000|XOffset=0mil|YOffset=0mil|HoleType=Round|Shape=RoundedRectangle|*
%AMROUNDEDRECTD26*
21,1,0.08400,0.02125,0,0,0.0*
21,1,0.07625,0.02900,0,0,0.0*
1,1,0.00775,0.03813,-0.01063*
1,1,0.00775,-0.03813,-0.01063*
1,1,0.00775,-0.03813,0.01063*
1,1,0.00775,0.03813,0.01063*
%
%ADD26ROUNDEDRECTD26*%
G04:AMPARAMS|DCode=27|XSize=53.21mil|YSize=66.99mil|CornerRadius=6.92mil|HoleSize=0mil|Usage=FLASHONLY|Rotation=0.000|XOffset=0mil|YOffset=0mil|HoleType=Round|Shape=RoundedRectangle|*
%AMROUNDEDRECTD27*
21,1,0.05321,0.05315,0,0,0.0*
21,1,0.03937,0.06699,0,0,0.0*
1,1,0.01384,0.01968,-0.02657*
1,1,0.01384,-0.01968,-0.02657*
1,1,0.01384,-0.01968,0.02657*
1,1,0.01384,0.01968,0.02657*
%
%ADD27ROUNDEDRECTD27*%
G04:AMPARAMS|DCode=28|XSize=90.61mil|YSize=27.62mil|CornerRadius=3.77mil|HoleSize=0mil|Usage=FLASHONLY|Rotation=270.000|XOffset=0mil|YOffset=0mil|HoleType=Round|Shape=RoundedRectangle|*
%AMROUNDEDRECTD28*
21,1,0.09061,0.02008,0,0,270.0*
21,1,0.08307,0.02762,0,0,270.0*
1,1,0.00754,-0.01004,-0.04153*
1,1,0.00754,-0.01004,0.04153*
1,1,0.00754,0.01004,0.04153*
1,1,0.00754,0.01004,-0.04153*
%
%ADD28ROUNDEDRECTD28*%
G04:AMPARAMS|DCode=29|XSize=43.37mil|YSize=63.06mil|CornerRadius=5.94mil|HoleSize=0mil|Usage=FLASHONLY|Rotation=0.000|XOffset=0mil|YOffset=0mil|HoleType=Round|Shape=RoundedRectangle|*
%AMROUNDEDRECTD29*
21,1,0.04337,0.05118,0,0,0.0*
21,1,0.03150,0.06306,0,0,0.0*
1,1,0.01187,0.01575,-0.02559*
1,1,0.01187,-0.01575,-0.02559*
1,1,0.01187,-0.01575,0.02559*
1,1,0.01187,0.01575,0.02559*
%
%ADD29ROUNDEDRECTD29*%
%ADD30C,0.04337*%
%ADD31R,0.08200X0.04700*%
G04:AMPARAMS|DCode=32|XSize=102.43mil|YSize=181.17mil|CornerRadius=9.38mil|HoleSize=0mil|Usage=FLASHONLY|Rotation=90.000|XOffset=0mil|YOffset=0mil|HoleType=Round|Shape=RoundedRectangle|*
%AMROUNDEDRECTD32*
21,1,0.10243,0.16240,0,0,90.0*
21,1,0.08366,0.18117,0,0,90.0*
1,1,0.01876,0.08120,0.04183*
1,1,0.01876,0.08120,-0.04183*
1,1,0.01876,-0.08120,-0.04183*
1,1,0.01876,-0.08120,0.04183*
%
%ADD32ROUNDEDRECTD32*%
G04:AMPARAMS|DCode=33|XSize=33.53mil|YSize=78.8mil|CornerRadius=4.22mil|HoleSize=0mil|Usage=FLASHONLY|Rotation=90.000|XOffset=0mil|YOffset=0mil|HoleType=Round|Shape=RoundedRectangle|*
%AMROUNDEDRECTD33*
21,1,0.03353,0.07037,0,0,90.0*
21,1,0.02510,0.07880,0,0,90.0*
1,1,0.00843,0.03519,0.01255*
1,1,0.00843,0.03519,-0.01255*
1,1,0.00843,-0.03519,-0.01255*
1,1,0.00843,-0.03519,0.01255*
%
%ADD33ROUNDEDRECTD33*%
%ADD34O,0.07880X0.03353*%
G04:AMPARAMS|DCode=35|XSize=47.31mil|YSize=43.37mil|CornerRadius=5.94mil|HoleSize=0mil|Usage=FLASHONLY|Rotation=90.000|XOffset=0mil|YOffset=0mil|HoleType=Round|Shape=RoundedRectangle|*
%AMROUNDEDRECTD35*
21,1,0.04731,0.03150,0,0,90.0*
21,1,0.03543,0.04337,0,0,90.0*
1,1,0.01187,0.01575,0.01772*
1,1,0.01187,0.01575,-0.01772*
1,1,0.01187,-0.01575,-0.01772*
1,1,0.01187,-0.01575,0.01772*
%
%ADD35ROUNDEDRECTD35*%
G04:AMPARAMS|DCode=36|XSize=47.31mil|YSize=43.37mil|CornerRadius=4.95mil|HoleSize=0mil|Usage=FLASHONLY|Rotation=180.000|XOffset=0mil|YOffset=0mil|HoleType=Round|Shape=RoundedRectangle|*
%AMROUNDEDRECTD36*
21,1,0.04731,0.03347,0,0,180.0*
21,1,0.03740,0.04337,0,0,180.0*
1,1,0.00991,-0.01870,0.01673*
1,1,0.00991,0.01870,0.01673*
1,1,0.00991,0.01870,-0.01673*
1,1,0.00991,-0.01870,-0.01673*
%
%ADD36ROUNDEDRECTD36*%
G04:AMPARAMS|DCode=37|XSize=59.12mil|YSize=39.43mil|CornerRadius=4.66mil|HoleSize=0mil|Usage=FLASHONLY|Rotation=270.000|XOffset=0mil|YOffset=0mil|HoleType=Round|Shape=RoundedRectangle|*
%AMROUNDEDRECTD37*
21,1,0.05912,0.03012,0,0,270.0*
21,1,0.04980,0.03943,0,0,270.0*
1,1,0.00932,-0.01506,-0.02490*
1,1,0.00932,-0.01506,0.02490*
1,1,0.00932,0.01506,0.02490*
1,1,0.00932,0.01506,-0.02490*
%
%ADD37ROUNDEDRECTD37*%
%ADD38R,0.03353X0.01384*%
G04:AMPARAMS|DCode=39|XSize=47.31mil|YSize=43.37mil|CornerRadius=5.94mil|HoleSize=0mil|Usage=FLASHONLY|Rotation=0.000|XOffset=0mil|YOffset=0mil|HoleType=Round|Shape=RoundedRectangle|*
%AMROUNDEDRECTD39*
21,1,0.04731,0.03150,0,0,0.0*
21,1,0.03543,0.04337,0,0,0.0*
1,1,0.01187,0.01772,-0.01575*
1,1,0.01187,-0.01772,-0.01575*
1,1,0.01187,-0.01772,0.01575*
1,1,0.01187,0.01772,0.01575*
%
%ADD39ROUNDEDRECTD39*%
G04:AMPARAMS|DCode=40|XSize=55.18mil|YSize=55.18mil|CornerRadius=7.12mil|HoleSize=0mil|Usage=FLASHONLY|Rotation=270.000|XOffset=0mil|YOffset=0mil|HoleType=Round|Shape=RoundedRectangle|*
%AMROUNDEDRECTD40*
21,1,0.05518,0.04095,0,0,270.0*
21,1,0.04095,0.05518,0,0,270.0*
1,1,0.01424,-0.02047,-0.02047*
1,1,0.01424,-0.02047,0.02047*
1,1,0.01424,0.02047,0.02047*
1,1,0.01424,0.02047,-0.02047*
%
%ADD40ROUNDEDRECTD40*%
G04:AMPARAMS|DCode=41|XSize=59.12mil|YSize=39.43mil|CornerRadius=4.66mil|HoleSize=0mil|Usage=FLASHONLY|Rotation=180.000|XOffset=0mil|YOffset=0mil|HoleType=Round|Shape=RoundedRectangle|*
%AMROUNDEDRECTD41*
21,1,0.05912,0.03012,0,0,180.0*
21,1,0.04980,0.03943,0,0,180.0*
1,1,0.00932,-0.02490,0.01506*
1,1,0.00932,0.02490,0.01506*
1,1,0.00932,0.02490,-0.01506*
1,1,0.00932,-0.02490,-0.01506*
%
%ADD41ROUNDEDRECTD41*%
G04:AMPARAMS|DCode=42|XSize=37.47mil|YSize=46.91mil|CornerRadius=4.51mil|HoleSize=0mil|Usage=FLASHONLY|Rotation=180.000|XOffset=0mil|YOffset=0mil|HoleType=Round|Shape=RoundedRectangle|*
%AMROUNDEDRECTD42*
21,1,0.03747,0.03789,0,0,180.0*
21,1,0.02845,0.04691,0,0,180.0*
1,1,0.00902,-0.01422,0.01895*
1,1,0.00902,0.01422,0.01895*
1,1,0.00902,0.01422,-0.01895*
1,1,0.00902,-0.01422,-0.01895*
%
%ADD42ROUNDEDRECTD42*%
G04:AMPARAMS|DCode=43|XSize=55.18mil|YSize=55.18mil|CornerRadius=7.12mil|HoleSize=0mil|Usage=FLASHONLY|Rotation=0.000|XOffset=0mil|YOffset=0mil|HoleType=Round|Shape=RoundedRectangle|*
%AMROUNDEDRECTD43*
21,1,0.05518,0.04095,0,0,0.0*
21,1,0.04095,0.05518,0,0,0.0*
1,1,0.01424,0.02047,-0.02047*
1,1,0.01424,-0.02047,-0.02047*
1,1,0.01424,-0.02047,0.02047*
1,1,0.01424,0.02047,0.02047*
%
%ADD43ROUNDEDRECTD43*%
G04:AMPARAMS|DCode=44|XSize=43.37mil|YSize=70.93mil|CornerRadius=5.94mil|HoleSize=0mil|Usage=FLASHONLY|Rotation=90.000|XOffset=0mil|YOffset=0mil|HoleType=Round|Shape=RoundedRectangle|*
%AMROUNDEDRECTD44*
21,1,0.04337,0.05906,0,0,90.0*
21,1,0.03150,0.07093,0,0,90.0*
1,1,0.01187,0.02953,0.01575*
1,1,0.01187,0.02953,-0.01575*
1,1,0.01187,-0.02953,-0.01575*
1,1,0.01187,-0.02953,0.01575*
%
%ADD44ROUNDEDRECTD44*%
%ADD45C,0.10400*%
%ADD46C,0.09455*%
%ADD47R,0.06306X0.06306*%
%ADD48C,0.06306*%
%ADD49O,0.07400X0.05900*%
%ADD50R,0.07400X0.05900*%
%ADD51R,0.06306X0.06306*%
%ADD52C,0.05518*%
%ADD53C,0.02800*%
D21*
X383000Y779500D02*
D03*
D22*
X452260Y720035D02*
D03*
X459740D02*
D03*
Y709965D02*
D03*
X456000D02*
D03*
X452260D02*
D03*
D23*
X167209Y796500D02*
D03*
X186500D02*
D03*
D24*
X189000Y593051D02*
D03*
X194000D02*
D03*
X199000D02*
D03*
X204000D02*
D03*
X189000Y611949D02*
D03*
X194000D02*
D03*
X199000D02*
D03*
X204000D02*
D03*
X205000Y745949D02*
D03*
X200000D02*
D03*
X195000D02*
D03*
X190000D02*
D03*
X205000Y727051D02*
D03*
X200000D02*
D03*
X195000D02*
D03*
X190000D02*
D03*
D25*
X180701Y777500D02*
D03*
X187000D02*
D03*
X376701Y770500D02*
D03*
X383000D02*
D03*
X329000Y754500D02*
D03*
X322701D02*
D03*
X376701Y754000D02*
D03*
X383000D02*
D03*
X376500Y765000D02*
D03*
X382799D02*
D03*
X325500Y777500D02*
D03*
X319201D02*
D03*
X180701Y783000D02*
D03*
X187000D02*
D03*
D26*
X297000Y644000D02*
D03*
Y649000D02*
D03*
Y659000D02*
D03*
Y664000D02*
D03*
Y639000D02*
D03*
Y654000D02*
D03*
Y669000D02*
D03*
X277000Y644000D02*
D03*
Y649000D02*
D03*
Y659000D02*
D03*
Y664000D02*
D03*
Y639000D02*
D03*
Y654000D02*
D03*
Y669000D02*
D03*
D27*
X193000Y622000D02*
D03*
X200047D02*
D03*
X414453Y657000D02*
D03*
X421500D02*
D03*
X194953Y759000D02*
D03*
X202000D02*
D03*
X458000Y577000D02*
D03*
X450953D02*
D03*
X503500Y579000D02*
D03*
X496453D02*
D03*
X444547Y720000D02*
D03*
X437500D02*
D03*
D28*
X414000Y686744D02*
D03*
X409000D02*
D03*
X404000D02*
D03*
X399000D02*
D03*
Y667256D02*
D03*
X404000D02*
D03*
X409000D02*
D03*
X414000D02*
D03*
D29*
X297240Y763874D02*
D03*
X300980Y756000D02*
D03*
X293500D02*
D03*
D30*
X308500Y771500D02*
D03*
X293500Y743500D02*
D03*
X402000Y754000D02*
D03*
X462000Y738500D02*
D03*
X324000Y749000D02*
D03*
X459500Y728500D02*
D03*
D31*
X243000Y812500D02*
D03*
Y802000D02*
D03*
D32*
X179626Y829000D02*
D03*
X145374D02*
D03*
D33*
X366744Y745000D02*
D03*
Y750000D02*
D03*
Y755000D02*
D03*
Y760000D02*
D03*
Y765000D02*
D03*
Y770000D02*
D03*
Y775000D02*
D03*
Y780000D02*
D03*
X344500Y745000D02*
D03*
Y750000D02*
D03*
Y755000D02*
D03*
Y760000D02*
D03*
Y765000D02*
D03*
Y770000D02*
D03*
Y775000D02*
D03*
D34*
Y780000D02*
D03*
D35*
X327701Y760000D02*
D03*
X334000D02*
D03*
X376500Y759500D02*
D03*
X382799D02*
D03*
X327201Y765500D02*
D03*
X333500D02*
D03*
X506701Y532500D02*
D03*
X513000D02*
D03*
D36*
X320000Y765000D02*
D03*
Y771299D02*
D03*
X283500Y743799D02*
D03*
Y737500D02*
D03*
D37*
X261000Y623931D02*
D03*
X254504D02*
D03*
X291500Y617000D02*
D03*
X297996D02*
D03*
X179504Y583500D02*
D03*
X186000D02*
D03*
X192504Y712500D02*
D03*
X199000D02*
D03*
X254504Y616930D02*
D03*
X261000D02*
D03*
X502004Y718500D02*
D03*
X508500D02*
D03*
D38*
X467500Y575095D02*
D03*
Y577063D02*
D03*
Y579032D02*
D03*
Y581000D02*
D03*
X479705D02*
D03*
Y579032D02*
D03*
Y577063D02*
D03*
Y575095D02*
D03*
D39*
X257000Y659799D02*
D03*
Y653500D02*
D03*
X268000Y659799D02*
D03*
Y653500D02*
D03*
D40*
X508500Y710000D02*
D03*
Y701732D02*
D03*
D41*
X399000Y521500D02*
D03*
Y515004D02*
D03*
X205000Y716996D02*
D03*
Y710500D02*
D03*
X204000Y583996D02*
D03*
Y577500D02*
D03*
X308000Y659496D02*
D03*
Y653000D02*
D03*
D42*
X513000Y543500D02*
D03*
X505087D02*
D03*
D43*
X187232Y771000D02*
D03*
X195500D02*
D03*
D44*
X270094Y622883D02*
D03*
Y616978D02*
D03*
X281906D02*
D03*
Y622883D02*
D03*
D45*
X420000Y532500D02*
D03*
X200000Y848500D02*
D03*
D46*
X155000Y609000D02*
D03*
Y589315D02*
D03*
Y549945D02*
D03*
Y569630D02*
D03*
Y648370D02*
D03*
Y628685D02*
D03*
X453315Y491000D02*
D03*
X433630D02*
D03*
X473000D02*
D03*
X492685D02*
D03*
X512370D02*
D03*
X406000Y492000D02*
D03*
X386315D02*
D03*
X223315Y835000D02*
D03*
X243000D02*
D03*
X282370D02*
D03*
X262685D02*
D03*
X231343Y492500D02*
D03*
X211658D02*
D03*
X294657Y490000D02*
D03*
X314342D02*
D03*
X155000Y732500D02*
D03*
Y712815D02*
D03*
Y673445D02*
D03*
Y693130D02*
D03*
Y771870D02*
D03*
Y752185D02*
D03*
D47*
X192000Y702500D02*
D03*
X388500Y535500D02*
D03*
D48*
X182000Y702500D02*
D03*
X185500Y563500D02*
D03*
X398500Y535500D02*
D03*
D49*
X224000Y778500D02*
D03*
X234000D02*
D03*
X224000Y768500D02*
D03*
X234000D02*
D03*
X224000Y758500D02*
D03*
X234000D02*
D03*
X224000Y748500D02*
D03*
X234000D02*
D03*
X224000Y738500D02*
D03*
X234000D02*
D03*
X224000Y728500D02*
D03*
X234000D02*
D03*
X224000Y718500D02*
D03*
X234000D02*
D03*
X224000Y708500D02*
D03*
X234000D02*
D03*
X224000Y698500D02*
D03*
X234000D02*
D03*
X224000Y688500D02*
D03*
X234000D02*
D03*
X224000Y678500D02*
D03*
X234000D02*
D03*
X224000Y668500D02*
D03*
X234000D02*
D03*
X224000Y658500D02*
D03*
X234000D02*
D03*
X224000Y648500D02*
D03*
X234000D02*
D03*
X224000Y638500D02*
D03*
X234000D02*
D03*
X224000Y628500D02*
D03*
X234000D02*
D03*
X224000Y618500D02*
D03*
X234000D02*
D03*
X224000Y608500D02*
D03*
X234000D02*
D03*
X224000Y598500D02*
D03*
X474000Y778500D02*
D03*
X484000D02*
D03*
X474000Y768500D02*
D03*
X484000D02*
D03*
X474000Y758500D02*
D03*
X484000D02*
D03*
X474000Y748500D02*
D03*
X484000D02*
D03*
X474000Y738500D02*
D03*
X484000D02*
D03*
X474000Y728500D02*
D03*
X484000D02*
D03*
X474000Y718500D02*
D03*
X484000D02*
D03*
X474000Y708500D02*
D03*
X484000D02*
D03*
X474000Y698500D02*
D03*
X484000D02*
D03*
X474000Y688500D02*
D03*
X484000D02*
D03*
X474000Y678500D02*
D03*
X484000D02*
D03*
X474000Y668500D02*
D03*
X484000D02*
D03*
X474000Y658500D02*
D03*
X484000D02*
D03*
X474000Y648500D02*
D03*
X484000D02*
D03*
X474000Y638500D02*
D03*
X484000D02*
D03*
X474000Y628500D02*
D03*
X484000D02*
D03*
X474000Y618500D02*
D03*
X484000D02*
D03*
X474000Y608500D02*
D03*
X484000D02*
D03*
X474000Y598500D02*
D03*
D50*
X234000D02*
D03*
X484000D02*
D03*
D51*
X185500Y573500D02*
D03*
D52*
X323799Y737303D02*
D03*
X411988D02*
D03*
D53*
X510000Y840000D02*
D03*
X517500Y825000D02*
D03*
X510000Y810000D02*
D03*
X517500Y795000D02*
D03*
X510000Y780000D02*
D03*
X517500Y765000D02*
D03*
X510000Y750000D02*
D03*
X517500Y735000D02*
D03*
Y705000D02*
D03*
X510000Y690000D02*
D03*
X517500Y675000D02*
D03*
X510000Y660000D02*
D03*
X517500Y645000D02*
D03*
X510000Y630000D02*
D03*
X517500Y615000D02*
D03*
X510000Y600000D02*
D03*
X517500Y585000D02*
D03*
X510000Y570000D02*
D03*
X517500Y555000D02*
D03*
Y525000D02*
D03*
X510000Y480000D02*
D03*
X495000Y840000D02*
D03*
X502500Y825000D02*
D03*
X495000Y810000D02*
D03*
X502500Y795000D02*
D03*
X495000Y780000D02*
D03*
X502500Y765000D02*
D03*
X495000Y750000D02*
D03*
X502500Y735000D02*
D03*
Y705000D02*
D03*
X495000Y690000D02*
D03*
X502500Y675000D02*
D03*
X495000Y660000D02*
D03*
X502500Y645000D02*
D03*
X495000Y630000D02*
D03*
X502500Y615000D02*
D03*
X495000Y600000D02*
D03*
X502500Y585000D02*
D03*
Y555000D02*
D03*
Y525000D02*
D03*
Y495000D02*
D03*
X495000Y480000D02*
D03*
X480000Y840000D02*
D03*
X487500Y825000D02*
D03*
X480000Y810000D02*
D03*
X487500Y795000D02*
D03*
Y585000D02*
D03*
X480000Y570000D02*
D03*
X487500Y555000D02*
D03*
X480000Y540000D02*
D03*
X487500Y525000D02*
D03*
X480000Y480000D02*
D03*
X465000Y840000D02*
D03*
X472500Y825000D02*
D03*
X465000Y810000D02*
D03*
X472500Y795000D02*
D03*
X465000Y720000D02*
D03*
Y660000D02*
D03*
Y630000D02*
D03*
Y570000D02*
D03*
X472500Y555000D02*
D03*
X465000Y540000D02*
D03*
X472500Y525000D02*
D03*
X465000Y480000D02*
D03*
X450000Y840000D02*
D03*
X457500Y825000D02*
D03*
X450000Y810000D02*
D03*
X457500Y795000D02*
D03*
X450000Y780000D02*
D03*
Y750000D02*
D03*
X457500Y735000D02*
D03*
X450000Y690000D02*
D03*
Y660000D02*
D03*
X457500Y645000D02*
D03*
X450000Y630000D02*
D03*
X457500Y615000D02*
D03*
X450000Y600000D02*
D03*
X457500Y585000D02*
D03*
X450000Y570000D02*
D03*
X457500Y555000D02*
D03*
X450000Y540000D02*
D03*
X457500Y525000D02*
D03*
X450000Y480000D02*
D03*
X435000Y840000D02*
D03*
X442500Y825000D02*
D03*
X435000Y810000D02*
D03*
X442500Y795000D02*
D03*
X435000Y780000D02*
D03*
X442500Y765000D02*
D03*
Y705000D02*
D03*
X435000Y690000D02*
D03*
X442500Y675000D02*
D03*
Y645000D02*
D03*
X435000Y630000D02*
D03*
X442500Y615000D02*
D03*
X435000Y600000D02*
D03*
X442500Y585000D02*
D03*
Y555000D02*
D03*
Y525000D02*
D03*
Y495000D02*
D03*
X435000Y480000D02*
D03*
X420000Y840000D02*
D03*
Y810000D02*
D03*
X427500Y795000D02*
D03*
X420000Y780000D02*
D03*
X427500Y765000D02*
D03*
X420000Y750000D02*
D03*
X427500Y705000D02*
D03*
X420000Y690000D02*
D03*
X427500Y675000D02*
D03*
Y645000D02*
D03*
X420000Y630000D02*
D03*
X427500Y615000D02*
D03*
X420000Y600000D02*
D03*
X427500Y585000D02*
D03*
X420000Y570000D02*
D03*
X427500Y555000D02*
D03*
Y525000D02*
D03*
X420000Y510000D02*
D03*
X427500Y495000D02*
D03*
X420000Y480000D02*
D03*
X405000Y840000D02*
D03*
X412500Y825000D02*
D03*
X405000Y810000D02*
D03*
X412500Y795000D02*
D03*
X405000Y780000D02*
D03*
X412500Y765000D02*
D03*
X405000Y750000D02*
D03*
X412500Y675000D02*
D03*
Y585000D02*
D03*
Y555000D02*
D03*
Y525000D02*
D03*
Y495000D02*
D03*
X405000Y480000D02*
D03*
X390000Y840000D02*
D03*
X397500Y825000D02*
D03*
X390000Y810000D02*
D03*
X397500Y795000D02*
D03*
X390000Y780000D02*
D03*
X397500Y765000D02*
D03*
X390000Y750000D02*
D03*
X397500Y705000D02*
D03*
X390000Y690000D02*
D03*
Y660000D02*
D03*
X397500Y645000D02*
D03*
X390000Y630000D02*
D03*
Y600000D02*
D03*
X397500Y585000D02*
D03*
X390000Y570000D02*
D03*
X397500Y555000D02*
D03*
X390000Y480000D02*
D03*
X375000Y840000D02*
D03*
X382500Y825000D02*
D03*
X375000Y810000D02*
D03*
X382500Y795000D02*
D03*
X375000Y780000D02*
D03*
X382500Y705000D02*
D03*
X375000Y690000D02*
D03*
X382500Y675000D02*
D03*
X375000Y660000D02*
D03*
X382500Y645000D02*
D03*
X375000Y630000D02*
D03*
Y600000D02*
D03*
X382500Y585000D02*
D03*
X375000Y570000D02*
D03*
X382500Y555000D02*
D03*
X375000Y540000D02*
D03*
X382500Y525000D02*
D03*
X375000Y480000D02*
D03*
X360000Y840000D02*
D03*
X367500Y825000D02*
D03*
X360000Y810000D02*
D03*
X367500Y795000D02*
D03*
X360000Y780000D02*
D03*
Y720000D02*
D03*
X367500Y705000D02*
D03*
X360000Y690000D02*
D03*
X367500Y675000D02*
D03*
X360000Y660000D02*
D03*
X367500Y645000D02*
D03*
X360000Y630000D02*
D03*
Y600000D02*
D03*
X367500Y585000D02*
D03*
X360000Y570000D02*
D03*
X367500Y555000D02*
D03*
X360000Y540000D02*
D03*
X367500Y525000D02*
D03*
X360000Y510000D02*
D03*
X367500Y495000D02*
D03*
X360000Y480000D02*
D03*
X345000Y840000D02*
D03*
X352500Y825000D02*
D03*
X345000Y810000D02*
D03*
X352500Y795000D02*
D03*
Y705000D02*
D03*
X345000Y690000D02*
D03*
X352500Y675000D02*
D03*
X345000Y660000D02*
D03*
X352500Y645000D02*
D03*
X345000Y630000D02*
D03*
Y600000D02*
D03*
X352500Y585000D02*
D03*
X345000Y570000D02*
D03*
X352500Y555000D02*
D03*
X345000Y540000D02*
D03*
X352500Y525000D02*
D03*
X345000Y510000D02*
D03*
X352500Y495000D02*
D03*
X345000Y480000D02*
D03*
X330000Y840000D02*
D03*
X337500Y825000D02*
D03*
X330000Y810000D02*
D03*
X337500Y795000D02*
D03*
X330000Y690000D02*
D03*
X337500Y675000D02*
D03*
X330000Y660000D02*
D03*
X337500Y645000D02*
D03*
X330000Y630000D02*
D03*
Y600000D02*
D03*
X337500Y585000D02*
D03*
X330000Y570000D02*
D03*
X337500Y555000D02*
D03*
X330000Y540000D02*
D03*
X337500Y525000D02*
D03*
Y495000D02*
D03*
X330000Y480000D02*
D03*
X315000Y840000D02*
D03*
X322500Y825000D02*
D03*
Y705000D02*
D03*
Y675000D02*
D03*
X315000Y630000D02*
D03*
Y600000D02*
D03*
Y570000D02*
D03*
Y540000D02*
D03*
X322500Y495000D02*
D03*
X315000Y480000D02*
D03*
X300000Y840000D02*
D03*
X307500Y795000D02*
D03*
Y735000D02*
D03*
Y705000D02*
D03*
Y675000D02*
D03*
X300000Y630000D02*
D03*
Y600000D02*
D03*
X307500Y585000D02*
D03*
X300000Y570000D02*
D03*
X307500Y555000D02*
D03*
X300000Y540000D02*
D03*
X307500Y525000D02*
D03*
X300000Y480000D02*
D03*
X292500Y795000D02*
D03*
X285000Y780000D02*
D03*
X292500Y735000D02*
D03*
Y705000D02*
D03*
Y675000D02*
D03*
X285000Y630000D02*
D03*
Y600000D02*
D03*
Y570000D02*
D03*
X292500Y555000D02*
D03*
X285000Y540000D02*
D03*
X292500Y525000D02*
D03*
X285000Y480000D02*
D03*
X270000Y840000D02*
D03*
Y810000D02*
D03*
X277500Y795000D02*
D03*
X270000Y780000D02*
D03*
X277500Y765000D02*
D03*
Y735000D02*
D03*
Y705000D02*
D03*
Y675000D02*
D03*
X270000Y600000D02*
D03*
X277500Y585000D02*
D03*
X270000Y570000D02*
D03*
X277500Y555000D02*
D03*
X270000Y540000D02*
D03*
X277500Y525000D02*
D03*
X270000Y510000D02*
D03*
X277500Y495000D02*
D03*
X270000Y480000D02*
D03*
X255000Y840000D02*
D03*
Y810000D02*
D03*
Y780000D02*
D03*
Y750000D02*
D03*
X262500Y735000D02*
D03*
Y705000D02*
D03*
X255000Y690000D02*
D03*
X262500Y675000D02*
D03*
X255000Y600000D02*
D03*
X262500Y585000D02*
D03*
X255000Y570000D02*
D03*
Y540000D02*
D03*
X262500Y525000D02*
D03*
Y495000D02*
D03*
X255000Y480000D02*
D03*
X247500Y795000D02*
D03*
X240000Y780000D02*
D03*
X247500Y765000D02*
D03*
X240000Y750000D02*
D03*
X247500Y735000D02*
D03*
Y705000D02*
D03*
X240000Y690000D02*
D03*
X247500Y675000D02*
D03*
X240000Y600000D02*
D03*
X247500Y585000D02*
D03*
X240000Y570000D02*
D03*
X247500Y555000D02*
D03*
X240000Y540000D02*
D03*
X247500Y525000D02*
D03*
Y495000D02*
D03*
X240000Y480000D02*
D03*
X232500Y825000D02*
D03*
X225000Y810000D02*
D03*
X232500Y585000D02*
D03*
X225000Y570000D02*
D03*
X232500Y555000D02*
D03*
X225000Y540000D02*
D03*
Y480000D02*
D03*
X210000Y840000D02*
D03*
X217500Y825000D02*
D03*
Y795000D02*
D03*
X210000Y780000D02*
D03*
X217500Y765000D02*
D03*
Y735000D02*
D03*
Y705000D02*
D03*
Y645000D02*
D03*
Y615000D02*
D03*
Y585000D02*
D03*
X210000Y570000D02*
D03*
X217500Y555000D02*
D03*
X210000Y540000D02*
D03*
X217500Y525000D02*
D03*
X210000Y480000D02*
D03*
X195000Y840000D02*
D03*
Y810000D02*
D03*
Y780000D02*
D03*
X202500Y765000D02*
D03*
Y735000D02*
D03*
Y705000D02*
D03*
X195000Y690000D02*
D03*
X202500Y675000D02*
D03*
X195000Y660000D02*
D03*
X202500Y645000D02*
D03*
Y555000D02*
D03*
X195000Y540000D02*
D03*
X202500Y525000D02*
D03*
X195000Y510000D02*
D03*
X202500Y495000D02*
D03*
X195000Y480000D02*
D03*
X180000Y840000D02*
D03*
X187500Y765000D02*
D03*
X180000Y720000D02*
D03*
Y690000D02*
D03*
X187500Y675000D02*
D03*
X180000Y660000D02*
D03*
Y630000D02*
D03*
Y600000D02*
D03*
X187500Y555000D02*
D03*
X180000Y540000D02*
D03*
X187500Y525000D02*
D03*
X180000Y510000D02*
D03*
X187500Y495000D02*
D03*
X180000Y480000D02*
D03*
X165000Y840000D02*
D03*
Y810000D02*
D03*
Y780000D02*
D03*
X172500Y765000D02*
D03*
X165000Y750000D02*
D03*
Y720000D02*
D03*
X172500Y705000D02*
D03*
X165000Y690000D02*
D03*
X172500Y675000D02*
D03*
X165000Y660000D02*
D03*
X172500Y645000D02*
D03*
X165000Y630000D02*
D03*
Y600000D02*
D03*
X172500Y585000D02*
D03*
X165000Y570000D02*
D03*
X172500Y555000D02*
D03*
X165000Y540000D02*
D03*
X172500Y525000D02*
D03*
X165000Y510000D02*
D03*
X172500Y495000D02*
D03*
X165000Y480000D02*
D03*
X150000Y840000D02*
D03*
X157500Y825000D02*
D03*
X150000Y810000D02*
D03*
X157500Y795000D02*
D03*
X150000Y780000D02*
D03*
X157500Y765000D02*
D03*
X150000Y720000D02*
D03*
X157500Y705000D02*
D03*
X150000Y660000D02*
D03*
Y540000D02*
D03*
X157500Y525000D02*
D03*
X150000Y510000D02*
D03*
X157500Y495000D02*
D03*
X150000Y480000D02*
D03*
M02*
