G04*
G04 #@! TF.GenerationSoftware,Altium Limited,Altium Designer,21.2.1 (34)*
G04*
G04 Layer_Color=32768*
%FSLAX25Y25*%
%MOIN*%
G70*
G04*
G04 #@! TF.SameCoordinates,AE92AA6D-A1AF-4C4E-97E0-57C7D8E8F249*
G04*
G04*
G04 #@! TF.FilePolarity,Positive*
G04*
G01*
G75*
%ADD49C,0.00394*%
%ADD50C,0.00197*%
D49*
X30503Y51449D02*
X34440D01*
X32471Y49481D02*
Y53417D01*
X105771Y60980D02*
Y64917D01*
X103803Y62949D02*
X107740D01*
D50*
X69071Y32579D02*
Y36319D01*
X67201Y34449D02*
X70941D01*
X126500Y56730D02*
Y60470D01*
X124630Y58600D02*
X128370D01*
X81779Y75000D02*
X85520D01*
X83650Y73130D02*
Y76870D01*
X46500Y48980D02*
Y52720D01*
X44630Y50850D02*
X48370D01*
X68978Y87410D02*
X72718D01*
X70848Y85540D02*
Y89280D01*
X55901Y14199D02*
X59641D01*
X57771Y12329D02*
Y16069D01*
X56500Y48980D02*
Y52720D01*
X54630Y50850D02*
X58370D01*
X55901Y20949D02*
X59641D01*
X57771Y19079D02*
Y22819D01*
X55901Y7449D02*
X59641D01*
X57771Y5579D02*
Y9319D01*
X40837Y44362D02*
Y58536D01*
X24105Y44362D02*
Y58536D01*
Y44362D02*
X40837D01*
X24105Y58536D02*
X40837D01*
X89433Y74760D02*
X122110D01*
X89433Y51138D02*
X122110D01*
X89433D02*
Y74760D01*
X122110Y51138D02*
Y74760D01*
M02*
