G04*
G04 #@! TF.GenerationSoftware,Altium Limited,Altium Designer,21.2.1 (34)*
G04*
G04 Layer_Color=16711935*
%FSLAX25Y25*%
%MOIN*%
G70*
G04*
G04 #@! TF.SameCoordinates,AE92AA6D-A1AF-4C4E-97E0-57C7D8E8F249*
G04*
G04*
G04 #@! TF.FilePolarity,Positive*
G04*
G01*
G75*
%ADD49C,0.00394*%
D49*
X112070Y56649D02*
X111806Y57634D01*
X111086Y58354D01*
X110102Y58618D01*
X109117Y58354D01*
X108397Y57634D01*
X108133Y56649D01*
X108397Y55665D01*
X109117Y54945D01*
X110102Y54681D01*
X111086Y54945D01*
X111806Y55665D01*
X112070Y56649D01*
X67201Y31004D02*
X70941D01*
X67201Y37894D02*
X70941D01*
X124630Y62045D02*
X128370D01*
X124630Y55155D02*
X128370D01*
X80205Y73130D02*
Y76870D01*
X87094Y73130D02*
Y76870D01*
X44630Y54295D02*
X48370D01*
X44630Y47405D02*
X48370D01*
X74293Y85540D02*
Y89280D01*
X67403Y85540D02*
Y89280D01*
X61216Y12329D02*
Y16069D01*
X54326Y12329D02*
Y16069D01*
X54630Y54295D02*
X58370D01*
X54630Y47405D02*
X58370D01*
X61216Y19079D02*
Y22819D01*
X54326Y19079D02*
Y22819D01*
X61216Y5579D02*
Y9319D01*
X54326Y5579D02*
Y9319D01*
X35916Y45445D02*
Y57453D01*
X29026Y45445D02*
Y57453D01*
Y45445D02*
X35916D01*
X29026Y57453D02*
X35916D01*
X97897Y72791D02*
X113645D01*
X97897Y53106D02*
X113645D01*
X97897D02*
Y72791D01*
X113645Y53106D02*
Y72791D01*
M02*
