M48
;Layer_Color=9474304
;FILE_FORMAT=2:5
INCH
;TYPE=PLATED
T1F00S00C0.01400
T2F00S00C0.02800
T3F00S00C0.03150
T4F00S00C0.03500
T5F00S00C0.03543
T7F00S00C0.04016
T8F00S00C0.04331
T9F00S00C0.04724
T10F00S00C0.05118
T11F00S00C0.05500
T12F00S00C0.06693
T13F00S00C0.07283
T14F00S00C0.11706
;TYPE=NON_PLATED
T15F00S00C0.02756
T16F00S00C0.11811
%
T01
X0030497Y0128497
X0103000Y0105000
X0117000Y0112500
X0114500Y0063500
X0121709Y0063497
X0182497Y0062997
X0189500Y0063000
X0186497Y0103997
X0193524Y0104000
X0190000Y0151500
X0184000
X0261000Y0139500
Y0130500
X0279527Y0118655
X0274250Y0051000
X0231625Y0053750
X0358000Y0120000
X0366000Y0134000
X0378500Y0141500
X0345793Y0148997
X0351500Y0167500
X0345796Y0173259
X0322997Y0160997
X0385000Y0157500
Y0167000
X0379000Y0183000
X0258000Y0178750
X0237250Y0179000
X0234250Y0190000
X0229750
X0225466Y0189998
X0221000Y0178000
X0215500Y0173500
X0213000Y0157500
X0205500
X0181000
X0163500Y0193250
Y0201000
X0159250
Y0204750
X0173500Y0218500
X0165500Y0228000
X0159000Y0234000
X0177500Y0243250
X0184000Y0238000
X0202725
X0221250Y0267000
X0231000Y0302500
X0254743Y0302000
X0261500
X0252500Y0214000
X0234500Y0208750
X0258000Y0157625
X0155000Y0193250
Y0201000
X0147500Y0220000
X0152500Y0228262
X0133500Y0189500
X0094997Y0169997
X0089000Y0219500
X0074997Y0226997
X0010997Y0303997
X0070000Y0363000
X0103000
X0158000Y0361500
Y0371000
Y0381000
X0241497Y0351497
X0264500Y0351500
X0256500Y0364500
X0345000Y0322000
T02
X0030000Y0030000
X0060000
X0075000Y0060000
X0105000
X0120000Y0030000
X0150000
Y0090000
X0090000
X0060000
X0030000
X0045000Y0060000
X0060000Y0150000
X0090000
X0030000
X0210000
Y0090000
X0240000
X0255000Y0120000
X0285000
X0300000Y0150000
X0285000Y0060000
X0300000Y0030000
X0240000
X0210000
X0180000
X0195000Y0060000
X0225000
X0315000
X0345000
X0375000
X0360000Y0090000
X0330000
X0345000Y0120000
X0375000
X0315000
X0330000Y0150000
Y0030000
X0360000
X0345000Y0180000
X0315000
X0330000Y0210000
X0360000
X0375000Y0240000
X0345000
X0285000
X0255000
X0270000Y0270000
Y0210000
X0300000
X0210000
Y0270000
X0225000Y0300000
X0165000Y0240000
X0105000
X0075000
X0045000
X0060000Y0270000
X0090000
X0120000
X0105000Y0300000
X0075000
X0030000Y0270000
X0060000Y0210000
X0090000
X0120000
X0045000Y0180000
X0060000Y0330000
X0030000
X0045000Y0360000
X0120000Y0330000
X0180000
X0210000
X0225000Y0360000
X0285000
X0300000Y0330000
X0270000
X0330000
X0360000
X0375000Y0360000
X0345000
X0315000
T03
X0143000Y0081000
X0153000
X0163000
T04
X0070500Y0258000
X0080500
X0090500
X0040500Y0288000
Y0298000
Y0308000
T05
X0039693Y0142567
X0047567
X0055441
X0228000Y0267000
Y0277000
X0238000
X0248000
X0258000
Y0267000
X0248000
X0238000
X0083000Y0185874
Y0178000
Y0170126
X0093000Y0328000
Y0348000
X0068000
Y0328000
T07
X0247000Y0190000
Y0201750
X0262750Y0201500
Y0190000
X0238250Y0240000
X0217750
X0307000Y0282500
Y0295000
Y0307500
X0135750Y0162750
T08
X0302500Y0092087
Y0111772
X0322185
Y0092087
T09
X0086421Y0025646
X0216342
Y0039425
X0185500Y0276000
X0175657
X0165815
T10
X0287394Y0025679
Y0045365
X0336606
Y0025679
T11
X0050500Y0271750
X0110500
Y0324250
X0050500
T12
X0106500Y0016000
X0101776Y0049071
X0200988
X0196264Y0016000
T13
X0134496Y0122000
X0153000
X0171504
T14
X0158335Y0303559
X0192980
T15
X0359449Y0154104
Y0170443
T16
X0019685Y0019685
X0374016
X0019685Y0374016
X0374016
M30
