G04*
G04 #@! TF.GenerationSoftware,Altium Limited,Altium Designer,20.1.12 (249)*
G04*
G04 Layer_Physical_Order=4*
G04 Layer_Color=16711680*
%FSAX25Y25*%
%MOIN*%
G70*
G04*
G04 #@! TF.SameCoordinates,E615C54C-B037-43E9-BB6F-F1E88275B31A*
G04*
G04*
G04 #@! TF.FilePolarity,Positive*
G04*
G01*
G75*
%ADD67C,0.09000*%
%ADD82C,0.00799*%
%ADD83C,0.00800*%
%ADD84C,0.10000*%
%ADD85C,0.10039*%
%ADD86C,0.07087*%
%ADD87C,0.17559*%
%ADD88C,0.06457*%
%ADD89C,0.08500*%
%ADD90C,0.05118*%
%ADD91C,0.10925*%
%ADD92C,0.15748*%
%ADD93R,0.05906X0.05906*%
%ADD94C,0.05906*%
%ADD95O,0.11874X0.05937*%
%ADD96O,0.05937X0.11874*%
%ADD97C,0.02756*%
%ADD98C,0.07000*%
%ADD99O,0.11812X0.05906*%
%ADD100O,0.05906X0.11812*%
%ADD101C,0.05000*%
%ADD102C,0.02800*%
G36*
X0392172Y0001529D02*
X0001529D01*
Y0392172D01*
X0392172D01*
Y0001529D01*
D02*
G37*
%LPC*%
G36*
X0158000Y0383447D02*
X0157064Y0383261D01*
X0156270Y0382730D01*
X0156198Y0382623D01*
X0156132Y0382567D01*
X0156072Y0382521D01*
X0156018Y0382486D01*
X0155971Y0382461D01*
X0155931Y0382444D01*
X0155898Y0382432D01*
X0155877Y0382427D01*
X0151500D01*
X0151500Y0382427D01*
X0150954Y0382318D01*
X0150491Y0382009D01*
X0150491Y0382009D01*
X0131991Y0363509D01*
X0131682Y0363046D01*
X0131573Y0362500D01*
X0131573Y0362500D01*
X0131573Y0222673D01*
X0131573Y0222673D01*
X0131682Y0222127D01*
X0131991Y0221664D01*
X0152401Y0201254D01*
X0152424Y0201219D01*
X0152451Y0201170D01*
X0152480Y0201109D01*
X0152509Y0201037D01*
X0152533Y0200964D01*
X0152590Y0200734D01*
X0152613Y0200604D01*
X0152651Y0200507D01*
X0152739Y0200064D01*
X0153270Y0199270D01*
X0154064Y0198739D01*
X0155000Y0198553D01*
X0155936Y0198739D01*
X0156730Y0199270D01*
X0156875Y0199486D01*
X0157375D01*
X0157520Y0199270D01*
X0158314Y0198739D01*
X0159250Y0198553D01*
X0160186Y0198739D01*
X0160980Y0199270D01*
X0161125Y0199486D01*
X0161625D01*
X0161770Y0199270D01*
X0162564Y0198739D01*
X0163500Y0198553D01*
X0164436Y0198739D01*
X0165230Y0199270D01*
X0165761Y0200064D01*
X0165947Y0201000D01*
X0165897Y0201252D01*
X0165901Y0201296D01*
X0165889Y0201411D01*
X0165887Y0201480D01*
X0165890Y0201535D01*
X0165895Y0201577D01*
X0165902Y0201608D01*
X0165910Y0201630D01*
X0165917Y0201647D01*
X0165920Y0201652D01*
X0171267Y0206999D01*
X0171267Y0206999D01*
X0171576Y0207462D01*
X0171685Y0208008D01*
X0171685Y0208008D01*
Y0216225D01*
X0172185Y0216492D01*
X0172564Y0216239D01*
X0173500Y0216053D01*
X0174436Y0216239D01*
X0175230Y0216770D01*
X0175761Y0217564D01*
X0175947Y0218500D01*
X0175761Y0219436D01*
X0175739Y0219470D01*
X0220758Y0264490D01*
X0220777Y0264501D01*
X0220809Y0264517D01*
X0220849Y0264532D01*
X0220900Y0264547D01*
X0220962Y0264561D01*
X0221038Y0264572D01*
X0221123Y0264578D01*
X0221250Y0264553D01*
X0222186Y0264739D01*
X0222980Y0265270D01*
X0223511Y0266064D01*
X0223584Y0266431D01*
X0224090Y0266414D01*
X0224149Y0265968D01*
X0224547Y0265007D01*
X0225181Y0264181D01*
X0226007Y0263547D01*
X0226968Y0263149D01*
X0228000Y0263013D01*
X0229032Y0263149D01*
X0229993Y0263547D01*
X0230819Y0264181D01*
X0231453Y0265007D01*
X0231851Y0265968D01*
X0231987Y0267000D01*
X0231851Y0268032D01*
X0231453Y0268993D01*
X0230819Y0269819D01*
X0229993Y0270453D01*
X0229032Y0270851D01*
X0228000Y0270987D01*
X0226968Y0270851D01*
X0226007Y0270453D01*
X0225181Y0269819D01*
X0224547Y0268993D01*
X0224149Y0268032D01*
X0224090Y0267586D01*
X0223584Y0267569D01*
X0223511Y0267936D01*
X0222980Y0268730D01*
X0222186Y0269261D01*
X0221250Y0269447D01*
X0220314Y0269261D01*
X0219520Y0268730D01*
X0218989Y0267936D01*
X0218803Y0267000D01*
X0218828Y0266873D01*
X0218822Y0266788D01*
X0218811Y0266712D01*
X0218797Y0266650D01*
X0218782Y0266599D01*
X0218767Y0266559D01*
X0218751Y0266527D01*
X0218740Y0266508D01*
X0173386Y0221154D01*
X0173256Y0221064D01*
X0173208Y0221035D01*
X0172726Y0220798D01*
X0172704Y0220789D01*
X0172564Y0220761D01*
X0172185Y0220508D01*
X0171685Y0220775D01*
Y0272893D01*
X0172185Y0273062D01*
X0172417Y0272760D01*
X0173366Y0272031D01*
X0174471Y0271574D01*
X0175657Y0271417D01*
X0176844Y0271574D01*
X0177949Y0272031D01*
X0178898Y0272760D01*
X0179626Y0273709D01*
X0180084Y0274814D01*
X0180240Y0276000D01*
X0180084Y0277186D01*
X0179626Y0278291D01*
X0178898Y0279240D01*
X0177949Y0279969D01*
X0176844Y0280426D01*
X0175657Y0280582D01*
X0174471Y0280426D01*
X0173366Y0279969D01*
X0172417Y0279240D01*
X0172185Y0278938D01*
X0171685Y0279107D01*
Y0348992D01*
X0171685Y0348992D01*
X0171576Y0349538D01*
X0171267Y0350001D01*
X0160420Y0360848D01*
X0160417Y0360853D01*
X0160409Y0360870D01*
X0160402Y0360892D01*
X0160395Y0360923D01*
X0160389Y0360965D01*
X0160387Y0361020D01*
X0160389Y0361089D01*
X0160401Y0361204D01*
X0160397Y0361248D01*
X0160447Y0361500D01*
X0160261Y0362436D01*
X0159730Y0363230D01*
X0158936Y0363761D01*
X0158000Y0363947D01*
X0157280Y0363804D01*
X0157033Y0364264D01*
X0159009Y0366241D01*
X0159009Y0366241D01*
X0159319Y0366704D01*
X0159427Y0367250D01*
X0159427Y0367250D01*
Y0368877D01*
X0159433Y0368898D01*
X0159444Y0368932D01*
X0159461Y0368972D01*
X0159487Y0369018D01*
X0159521Y0369072D01*
X0159567Y0369133D01*
X0159623Y0369198D01*
X0159730Y0369270D01*
X0160261Y0370064D01*
X0160447Y0371000D01*
X0160261Y0371936D01*
X0159730Y0372730D01*
X0158936Y0373261D01*
X0158000Y0373447D01*
X0157280Y0373304D01*
X0157033Y0373764D01*
X0157841Y0374573D01*
X0244409D01*
X0253990Y0364992D01*
X0254001Y0364973D01*
X0254017Y0364941D01*
X0254032Y0364901D01*
X0254047Y0364850D01*
X0254061Y0364788D01*
X0254072Y0364713D01*
X0254078Y0364627D01*
X0254053Y0364500D01*
X0254239Y0363564D01*
X0254770Y0362770D01*
X0255564Y0362239D01*
X0256500Y0362053D01*
X0257436Y0362239D01*
X0258230Y0362770D01*
X0258761Y0363564D01*
X0258947Y0364500D01*
X0258761Y0365436D01*
X0258230Y0366230D01*
X0257436Y0366761D01*
X0256500Y0366947D01*
X0256373Y0366922D01*
X0256288Y0366928D01*
X0256212Y0366939D01*
X0256150Y0366953D01*
X0256099Y0366968D01*
X0256059Y0366983D01*
X0256027Y0366999D01*
X0256008Y0367010D01*
X0246009Y0377009D01*
X0245546Y0377319D01*
X0245000Y0377427D01*
X0245000Y0377427D01*
X0157250D01*
X0157250Y0377427D01*
X0156704Y0377319D01*
X0156241Y0377009D01*
X0156241Y0377009D01*
X0139491Y0360259D01*
X0139181Y0359796D01*
X0139073Y0359250D01*
X0139073Y0359250D01*
Y0235250D01*
X0139073Y0235250D01*
X0139181Y0234704D01*
X0139491Y0234241D01*
X0157823Y0215909D01*
Y0206873D01*
X0157817Y0206852D01*
X0157806Y0206818D01*
X0157789Y0206778D01*
X0157763Y0206732D01*
X0157729Y0206678D01*
X0157683Y0206617D01*
X0157627Y0206552D01*
X0157520Y0206480D01*
X0156989Y0205686D01*
X0156803Y0204750D01*
X0156989Y0203814D01*
X0157376Y0203235D01*
X0157447Y0202984D01*
X0157302Y0202733D01*
X0156737Y0202721D01*
X0156730Y0202730D01*
X0155936Y0203261D01*
X0155000Y0203447D01*
X0154683Y0203384D01*
X0154612Y0203388D01*
X0154501Y0203372D01*
X0154439Y0203368D01*
X0154391Y0203369D01*
X0154355Y0203373D01*
X0154331Y0203378D01*
X0154315Y0203383D01*
X0154303Y0203388D01*
X0154303Y0203388D01*
X0134427Y0223264D01*
X0134427Y0361909D01*
X0152091Y0379573D01*
X0155877D01*
X0155898Y0379568D01*
X0155931Y0379556D01*
X0155971Y0379539D01*
X0156018Y0379514D01*
X0156072Y0379479D01*
X0156132Y0379433D01*
X0156198Y0379377D01*
X0156270Y0379270D01*
X0157064Y0378739D01*
X0158000Y0378553D01*
X0158936Y0378739D01*
X0159730Y0379270D01*
X0160261Y0380064D01*
X0160447Y0381000D01*
X0160261Y0381936D01*
X0159730Y0382730D01*
X0158936Y0383261D01*
X0158000Y0383447D01*
D02*
G37*
G36*
X0374016Y0382933D02*
X0372276Y0382761D01*
X0370603Y0382254D01*
X0369062Y0381430D01*
X0367710Y0380321D01*
X0366602Y0378970D01*
X0365778Y0377428D01*
X0365270Y0375755D01*
X0365099Y0374016D01*
X0365270Y0372276D01*
X0365778Y0370603D01*
X0366602Y0369062D01*
X0367710Y0367710D01*
X0369062Y0366602D01*
X0370603Y0365778D01*
X0372276Y0365270D01*
X0374016Y0365099D01*
X0375755Y0365270D01*
X0377428Y0365778D01*
X0378970Y0366602D01*
X0380321Y0367710D01*
X0381430Y0369062D01*
X0382254Y0370603D01*
X0382761Y0372276D01*
X0382933Y0374016D01*
X0382761Y0375755D01*
X0382254Y0377428D01*
X0381430Y0378970D01*
X0380321Y0380321D01*
X0378970Y0381430D01*
X0377428Y0382254D01*
X0375755Y0382761D01*
X0374016Y0382933D01*
D02*
G37*
G36*
X0019685D02*
X0017945Y0382761D01*
X0016273Y0382254D01*
X0014731Y0381430D01*
X0013380Y0380321D01*
X0012271Y0378970D01*
X0011447Y0377428D01*
X0010939Y0375755D01*
X0010768Y0374016D01*
X0010939Y0372276D01*
X0011447Y0370603D01*
X0012271Y0369062D01*
X0013380Y0367710D01*
X0014731Y0366602D01*
X0016273Y0365778D01*
X0017945Y0365270D01*
X0019685Y0365099D01*
X0021425Y0365270D01*
X0023097Y0365778D01*
X0024639Y0366602D01*
X0025990Y0367710D01*
X0027099Y0369062D01*
X0027923Y0370603D01*
X0028431Y0372276D01*
X0028602Y0374016D01*
X0028431Y0375755D01*
X0027923Y0377428D01*
X0027099Y0378970D01*
X0025990Y0380321D01*
X0024639Y0381430D01*
X0023097Y0382254D01*
X0021425Y0382761D01*
X0019685Y0382933D01*
D02*
G37*
G36*
X0375000Y0363530D02*
X0374086Y0363410D01*
X0373235Y0363057D01*
X0372504Y0362496D01*
X0371943Y0361765D01*
X0371590Y0360914D01*
X0371470Y0360000D01*
X0371590Y0359086D01*
X0371943Y0358235D01*
X0372504Y0357504D01*
X0373235Y0356943D01*
X0374086Y0356590D01*
X0375000Y0356470D01*
X0375914Y0356590D01*
X0376765Y0356943D01*
X0377496Y0357504D01*
X0378057Y0358235D01*
X0378410Y0359086D01*
X0378530Y0360000D01*
X0378410Y0360914D01*
X0378057Y0361765D01*
X0377496Y0362496D01*
X0376765Y0363057D01*
X0375914Y0363410D01*
X0375000Y0363530D01*
D02*
G37*
G36*
X0345000D02*
X0344086Y0363410D01*
X0343235Y0363057D01*
X0342504Y0362496D01*
X0341943Y0361765D01*
X0341590Y0360914D01*
X0341470Y0360000D01*
X0341590Y0359086D01*
X0341943Y0358235D01*
X0342504Y0357504D01*
X0343235Y0356943D01*
X0344086Y0356590D01*
X0345000Y0356470D01*
X0345914Y0356590D01*
X0346765Y0356943D01*
X0347496Y0357504D01*
X0348057Y0358235D01*
X0348410Y0359086D01*
X0348530Y0360000D01*
X0348410Y0360914D01*
X0348057Y0361765D01*
X0347496Y0362496D01*
X0346765Y0363057D01*
X0345914Y0363410D01*
X0345000Y0363530D01*
D02*
G37*
G36*
X0315000D02*
X0314086Y0363410D01*
X0313235Y0363057D01*
X0312504Y0362496D01*
X0311943Y0361765D01*
X0311590Y0360914D01*
X0311470Y0360000D01*
X0311590Y0359086D01*
X0311943Y0358235D01*
X0312504Y0357504D01*
X0313235Y0356943D01*
X0314086Y0356590D01*
X0315000Y0356470D01*
X0315914Y0356590D01*
X0316765Y0356943D01*
X0317496Y0357504D01*
X0318057Y0358235D01*
X0318410Y0359086D01*
X0318530Y0360000D01*
X0318410Y0360914D01*
X0318057Y0361765D01*
X0317496Y0362496D01*
X0316765Y0363057D01*
X0315914Y0363410D01*
X0315000Y0363530D01*
D02*
G37*
G36*
X0285000D02*
X0284086Y0363410D01*
X0283235Y0363057D01*
X0282504Y0362496D01*
X0281943Y0361765D01*
X0281590Y0360914D01*
X0281470Y0360000D01*
X0281590Y0359086D01*
X0281943Y0358235D01*
X0282504Y0357504D01*
X0283235Y0356943D01*
X0284086Y0356590D01*
X0285000Y0356470D01*
X0285914Y0356590D01*
X0286765Y0356943D01*
X0287496Y0357504D01*
X0288057Y0358235D01*
X0288410Y0359086D01*
X0288530Y0360000D01*
X0288410Y0360914D01*
X0288057Y0361765D01*
X0287496Y0362496D01*
X0286765Y0363057D01*
X0285914Y0363410D01*
X0285000Y0363530D01*
D02*
G37*
G36*
X0225000D02*
X0224086Y0363410D01*
X0223235Y0363057D01*
X0222504Y0362496D01*
X0221943Y0361765D01*
X0221590Y0360914D01*
X0221470Y0360000D01*
X0221590Y0359086D01*
X0221943Y0358235D01*
X0222504Y0357504D01*
X0223235Y0356943D01*
X0224086Y0356590D01*
X0225000Y0356470D01*
X0225914Y0356590D01*
X0226765Y0356943D01*
X0227496Y0357504D01*
X0228057Y0358235D01*
X0228410Y0359086D01*
X0228530Y0360000D01*
X0228410Y0360914D01*
X0228057Y0361765D01*
X0227496Y0362496D01*
X0226765Y0363057D01*
X0225914Y0363410D01*
X0225000Y0363530D01*
D02*
G37*
G36*
X0045000D02*
X0044086Y0363410D01*
X0043235Y0363057D01*
X0042504Y0362496D01*
X0041943Y0361765D01*
X0041590Y0360914D01*
X0041470Y0360000D01*
X0041590Y0359086D01*
X0041943Y0358235D01*
X0042504Y0357504D01*
X0043235Y0356943D01*
X0044086Y0356590D01*
X0045000Y0356470D01*
X0045914Y0356590D01*
X0046765Y0356943D01*
X0047496Y0357504D01*
X0048057Y0358235D01*
X0048410Y0359086D01*
X0048530Y0360000D01*
X0048410Y0360914D01*
X0048057Y0361765D01*
X0047496Y0362496D01*
X0046765Y0363057D01*
X0045914Y0363410D01*
X0045000Y0363530D01*
D02*
G37*
G36*
X0093000Y0352539D02*
X0091825Y0352384D01*
X0090731Y0351931D01*
X0089791Y0351209D01*
X0089069Y0350269D01*
X0088616Y0349175D01*
X0088461Y0348000D01*
X0088616Y0346825D01*
X0089069Y0345731D01*
X0089791Y0344791D01*
X0090731Y0344069D01*
X0091825Y0343616D01*
X0093000Y0343461D01*
X0094175Y0343616D01*
X0095269Y0344069D01*
X0096209Y0344791D01*
X0096931Y0345731D01*
X0097384Y0346825D01*
X0097539Y0348000D01*
X0097384Y0349175D01*
X0096931Y0350269D01*
X0096209Y0351209D01*
X0095269Y0351931D01*
X0094175Y0352384D01*
X0093000Y0352539D01*
D02*
G37*
G36*
X0068000D02*
X0066825Y0352384D01*
X0065731Y0351931D01*
X0064791Y0351209D01*
X0064069Y0350269D01*
X0063616Y0349175D01*
X0063461Y0348000D01*
X0063616Y0346825D01*
X0064069Y0345731D01*
X0064791Y0344791D01*
X0065731Y0344069D01*
X0066825Y0343616D01*
X0068000Y0343461D01*
X0069175Y0343616D01*
X0070269Y0344069D01*
X0071209Y0344791D01*
X0071931Y0345731D01*
X0072384Y0346825D01*
X0072539Y0348000D01*
X0072384Y0349175D01*
X0071931Y0350269D01*
X0071209Y0351209D01*
X0070269Y0351931D01*
X0069175Y0352384D01*
X0068000Y0352539D01*
D02*
G37*
G36*
X0103000Y0365447D02*
X0102064Y0365261D01*
X0101270Y0364730D01*
X0100739Y0363936D01*
X0100553Y0363000D01*
X0100739Y0362064D01*
X0101270Y0361270D01*
X0102064Y0360739D01*
X0103000Y0360553D01*
X0103127Y0360578D01*
X0103213Y0360572D01*
X0103288Y0360561D01*
X0103351Y0360547D01*
X0103402Y0360532D01*
X0103442Y0360517D01*
X0103474Y0360501D01*
X0103492Y0360490D01*
X0122323Y0341659D01*
Y0333194D01*
X0121874Y0332973D01*
X0121765Y0333057D01*
X0120914Y0333410D01*
X0120000Y0333530D01*
X0119086Y0333410D01*
X0118235Y0333057D01*
X0117504Y0332496D01*
X0116943Y0331765D01*
X0116590Y0330914D01*
X0116470Y0330000D01*
X0116590Y0329086D01*
X0116943Y0328235D01*
X0117504Y0327504D01*
X0118235Y0326943D01*
X0119086Y0326590D01*
X0120000Y0326470D01*
X0120914Y0326590D01*
X0121765Y0326943D01*
X0121874Y0327027D01*
X0122323Y0326806D01*
X0122323Y0273194D01*
X0121874Y0272973D01*
X0121765Y0273057D01*
X0120914Y0273410D01*
X0120000Y0273530D01*
X0119086Y0273410D01*
X0118235Y0273057D01*
X0117504Y0272496D01*
X0116943Y0271765D01*
X0116590Y0270914D01*
X0116470Y0270000D01*
X0116590Y0269086D01*
X0116943Y0268235D01*
X0117504Y0267504D01*
X0118235Y0266943D01*
X0119086Y0266590D01*
X0120000Y0266470D01*
X0120914Y0266590D01*
X0121765Y0266943D01*
X0121874Y0267027D01*
X0122323Y0266806D01*
Y0213194D01*
X0121874Y0212973D01*
X0121765Y0213057D01*
X0120914Y0213410D01*
X0120000Y0213530D01*
X0119086Y0213410D01*
X0118235Y0213057D01*
X0117504Y0212496D01*
X0116943Y0211765D01*
X0116590Y0210914D01*
X0116470Y0210000D01*
X0116590Y0209086D01*
X0116943Y0208235D01*
X0117504Y0207504D01*
X0118235Y0206943D01*
X0119086Y0206590D01*
X0120000Y0206470D01*
X0120914Y0206590D01*
X0121765Y0206943D01*
X0122496Y0207504D01*
X0123057Y0208235D01*
X0123272Y0208753D01*
X0123862Y0208870D01*
X0181345Y0151386D01*
X0181436Y0151257D01*
X0181465Y0151209D01*
X0181702Y0150726D01*
X0181711Y0150704D01*
X0181739Y0150564D01*
X0182270Y0149770D01*
X0183064Y0149239D01*
X0184000Y0149053D01*
X0184936Y0149239D01*
X0185170Y0149396D01*
X0185489Y0149007D01*
X0183409Y0146927D01*
X0172841D01*
X0099759Y0220009D01*
X0099296Y0220318D01*
X0098750Y0220427D01*
X0098750Y0220427D01*
X0091263D01*
X0091261Y0220436D01*
X0090730Y0221230D01*
X0089936Y0221761D01*
X0089000Y0221947D01*
X0088064Y0221761D01*
X0087270Y0221230D01*
X0086739Y0220436D01*
X0086553Y0219500D01*
X0086739Y0218564D01*
X0087270Y0217770D01*
X0088064Y0217239D01*
X0089000Y0217053D01*
X0089936Y0217239D01*
X0090062Y0217323D01*
X0090271Y0217413D01*
X0090507Y0217498D01*
X0090587Y0217522D01*
X0090773Y0217566D01*
X0090819Y0217573D01*
X0098159D01*
X0171241Y0144491D01*
X0171241Y0144491D01*
X0171704Y0144182D01*
X0172250Y0144073D01*
X0172250Y0144073D01*
X0184000D01*
X0184000Y0144073D01*
X0184546Y0144182D01*
X0185009Y0144491D01*
X0189508Y0148990D01*
X0189526Y0149001D01*
X0189558Y0149017D01*
X0189598Y0149032D01*
X0189649Y0149047D01*
X0189712Y0149061D01*
X0189787Y0149072D01*
X0189873Y0149078D01*
X0190000Y0149053D01*
X0190936Y0149239D01*
X0191730Y0149770D01*
X0192261Y0150564D01*
X0192447Y0151500D01*
X0192261Y0152436D01*
X0191730Y0153230D01*
X0190936Y0153761D01*
X0190000Y0153947D01*
X0189064Y0153761D01*
X0188270Y0153230D01*
X0187739Y0152436D01*
X0187553Y0151500D01*
X0187578Y0151373D01*
X0187572Y0151287D01*
X0187561Y0151212D01*
X0187547Y0151149D01*
X0187532Y0151098D01*
X0187517Y0151058D01*
X0187501Y0151026D01*
X0187490Y0151008D01*
X0186493Y0150011D01*
X0186105Y0150330D01*
X0186261Y0150564D01*
X0186447Y0151500D01*
X0186261Y0152436D01*
X0185730Y0153230D01*
X0184936Y0153761D01*
X0184000Y0153947D01*
X0183064Y0153761D01*
X0183030Y0153738D01*
X0125177Y0211591D01*
X0125177Y0342250D01*
X0125177Y0342250D01*
X0125068Y0342796D01*
X0124759Y0343259D01*
X0124759Y0343259D01*
X0105510Y0362508D01*
X0105499Y0362526D01*
X0105483Y0362558D01*
X0105468Y0362598D01*
X0105453Y0362649D01*
X0105439Y0362712D01*
X0105428Y0362787D01*
X0105422Y0362873D01*
X0105447Y0363000D01*
X0105261Y0363936D01*
X0104730Y0364730D01*
X0103936Y0365261D01*
X0103000Y0365447D01*
D02*
G37*
G36*
X0068500Y0332069D02*
Y0328500D01*
X0072070D01*
X0071995Y0329070D01*
X0071581Y0330068D01*
X0070924Y0330924D01*
X0070068Y0331581D01*
X0069070Y0331995D01*
X0068500Y0332069D01*
D02*
G37*
G36*
X0067500D02*
X0066930Y0331995D01*
X0065932Y0331581D01*
X0065076Y0330924D01*
X0064419Y0330068D01*
X0064006Y0329070D01*
X0063930Y0328500D01*
X0067500D01*
Y0332069D01*
D02*
G37*
G36*
X0360000Y0333530D02*
X0359086Y0333410D01*
X0358235Y0333057D01*
X0357504Y0332496D01*
X0356943Y0331765D01*
X0356590Y0330914D01*
X0356470Y0330000D01*
X0356590Y0329086D01*
X0356943Y0328235D01*
X0357504Y0327504D01*
X0358235Y0326943D01*
X0359086Y0326590D01*
X0360000Y0326470D01*
X0360914Y0326590D01*
X0361765Y0326943D01*
X0362496Y0327504D01*
X0363057Y0328235D01*
X0363410Y0329086D01*
X0363530Y0330000D01*
X0363410Y0330914D01*
X0363057Y0331765D01*
X0362496Y0332496D01*
X0361765Y0333057D01*
X0360914Y0333410D01*
X0360000Y0333530D01*
D02*
G37*
G36*
X0330000D02*
X0329086Y0333410D01*
X0328235Y0333057D01*
X0327504Y0332496D01*
X0326943Y0331765D01*
X0326590Y0330914D01*
X0326470Y0330000D01*
X0326590Y0329086D01*
X0326943Y0328235D01*
X0327504Y0327504D01*
X0328235Y0326943D01*
X0329086Y0326590D01*
X0330000Y0326470D01*
X0330914Y0326590D01*
X0331765Y0326943D01*
X0332496Y0327504D01*
X0333057Y0328235D01*
X0333410Y0329086D01*
X0333530Y0330000D01*
X0333410Y0330914D01*
X0333057Y0331765D01*
X0332496Y0332496D01*
X0331765Y0333057D01*
X0330914Y0333410D01*
X0330000Y0333530D01*
D02*
G37*
G36*
X0300000D02*
X0299086Y0333410D01*
X0298235Y0333057D01*
X0297504Y0332496D01*
X0296943Y0331765D01*
X0296590Y0330914D01*
X0296470Y0330000D01*
X0296590Y0329086D01*
X0296943Y0328235D01*
X0297504Y0327504D01*
X0298235Y0326943D01*
X0299086Y0326590D01*
X0300000Y0326470D01*
X0300914Y0326590D01*
X0301765Y0326943D01*
X0302496Y0327504D01*
X0303057Y0328235D01*
X0303410Y0329086D01*
X0303530Y0330000D01*
X0303410Y0330914D01*
X0303057Y0331765D01*
X0302496Y0332496D01*
X0301765Y0333057D01*
X0300914Y0333410D01*
X0300000Y0333530D01*
D02*
G37*
G36*
X0270000D02*
X0269086Y0333410D01*
X0268235Y0333057D01*
X0267504Y0332496D01*
X0266943Y0331765D01*
X0266590Y0330914D01*
X0266470Y0330000D01*
X0266590Y0329086D01*
X0266943Y0328235D01*
X0267504Y0327504D01*
X0268235Y0326943D01*
X0269086Y0326590D01*
X0270000Y0326470D01*
X0270914Y0326590D01*
X0271765Y0326943D01*
X0272496Y0327504D01*
X0273057Y0328235D01*
X0273410Y0329086D01*
X0273530Y0330000D01*
X0273410Y0330914D01*
X0273057Y0331765D01*
X0272496Y0332496D01*
X0271765Y0333057D01*
X0270914Y0333410D01*
X0270000Y0333530D01*
D02*
G37*
G36*
X0210000D02*
X0209086Y0333410D01*
X0208235Y0333057D01*
X0207504Y0332496D01*
X0206943Y0331765D01*
X0206590Y0330914D01*
X0206470Y0330000D01*
X0206590Y0329086D01*
X0206943Y0328235D01*
X0207504Y0327504D01*
X0208235Y0326943D01*
X0209086Y0326590D01*
X0210000Y0326470D01*
X0210914Y0326590D01*
X0211765Y0326943D01*
X0212496Y0327504D01*
X0213057Y0328235D01*
X0213410Y0329086D01*
X0213530Y0330000D01*
X0213410Y0330914D01*
X0213057Y0331765D01*
X0212496Y0332496D01*
X0211765Y0333057D01*
X0210914Y0333410D01*
X0210000Y0333530D01*
D02*
G37*
G36*
X0180000D02*
X0179086Y0333410D01*
X0178235Y0333057D01*
X0177504Y0332496D01*
X0176943Y0331765D01*
X0176590Y0330914D01*
X0176470Y0330000D01*
X0176590Y0329086D01*
X0176943Y0328235D01*
X0177504Y0327504D01*
X0178235Y0326943D01*
X0179086Y0326590D01*
X0180000Y0326470D01*
X0180914Y0326590D01*
X0181765Y0326943D01*
X0182496Y0327504D01*
X0183057Y0328235D01*
X0183410Y0329086D01*
X0183530Y0330000D01*
X0183410Y0330914D01*
X0183057Y0331765D01*
X0182496Y0332496D01*
X0181765Y0333057D01*
X0180914Y0333410D01*
X0180000Y0333530D01*
D02*
G37*
G36*
X0060000D02*
X0059086Y0333410D01*
X0058235Y0333057D01*
X0057504Y0332496D01*
X0056943Y0331765D01*
X0056590Y0330914D01*
X0056470Y0330000D01*
X0056590Y0329086D01*
X0056943Y0328235D01*
X0057504Y0327504D01*
X0058235Y0326943D01*
X0059086Y0326590D01*
X0060000Y0326470D01*
X0060914Y0326590D01*
X0061765Y0326943D01*
X0062496Y0327504D01*
X0063057Y0328235D01*
X0063410Y0329086D01*
X0063530Y0330000D01*
X0063410Y0330914D01*
X0063057Y0331765D01*
X0062496Y0332496D01*
X0061765Y0333057D01*
X0060914Y0333410D01*
X0060000Y0333530D01*
D02*
G37*
G36*
X0030000D02*
X0029086Y0333410D01*
X0028235Y0333057D01*
X0027504Y0332496D01*
X0026943Y0331765D01*
X0026590Y0330914D01*
X0026470Y0330000D01*
X0026590Y0329086D01*
X0026943Y0328235D01*
X0027504Y0327504D01*
X0028235Y0326943D01*
X0029086Y0326590D01*
X0030000Y0326470D01*
X0030914Y0326590D01*
X0031765Y0326943D01*
X0032496Y0327504D01*
X0033057Y0328235D01*
X0033410Y0329086D01*
X0033530Y0330000D01*
X0033410Y0330914D01*
X0033057Y0331765D01*
X0032496Y0332496D01*
X0031765Y0333057D01*
X0030914Y0333410D01*
X0030000Y0333530D01*
D02*
G37*
G36*
X0072070Y0327500D02*
X0068500D01*
Y0323931D01*
X0069070Y0324006D01*
X0070068Y0324419D01*
X0070924Y0325076D01*
X0071581Y0325932D01*
X0071995Y0326930D01*
X0072070Y0327500D01*
D02*
G37*
G36*
X0067500D02*
X0063930D01*
X0064006Y0326930D01*
X0064419Y0325932D01*
X0065076Y0325076D01*
X0065932Y0324419D01*
X0066930Y0324006D01*
X0067500Y0323931D01*
Y0327500D01*
D02*
G37*
G36*
X0093000Y0332539D02*
X0091825Y0332384D01*
X0090731Y0331931D01*
X0089791Y0331209D01*
X0089069Y0330269D01*
X0088616Y0329175D01*
X0088461Y0328000D01*
X0088616Y0326825D01*
X0089069Y0325731D01*
X0089791Y0324791D01*
X0090731Y0324069D01*
X0091825Y0323616D01*
X0093000Y0323461D01*
X0094175Y0323616D01*
X0095269Y0324069D01*
X0096209Y0324791D01*
X0096931Y0325731D01*
X0097384Y0326825D01*
X0097539Y0328000D01*
X0097384Y0329175D01*
X0096931Y0330269D01*
X0096209Y0331209D01*
X0095269Y0331931D01*
X0094175Y0332384D01*
X0093000Y0332539D01*
D02*
G37*
G36*
X0110500Y0329798D02*
X0109064Y0329608D01*
X0107726Y0329054D01*
X0106577Y0328173D01*
X0105696Y0327024D01*
X0105142Y0325686D01*
X0104953Y0324250D01*
X0105142Y0322814D01*
X0105696Y0321476D01*
X0106577Y0320327D01*
X0107726Y0319446D01*
X0109064Y0318892D01*
X0110500Y0318703D01*
X0111936Y0318892D01*
X0113274Y0319446D01*
X0114423Y0320327D01*
X0115304Y0321476D01*
X0115858Y0322814D01*
X0116048Y0324250D01*
X0115858Y0325686D01*
X0115304Y0327024D01*
X0114423Y0328173D01*
X0113274Y0329054D01*
X0111936Y0329608D01*
X0110500Y0329798D01*
D02*
G37*
G36*
X0050500D02*
X0049064Y0329608D01*
X0047726Y0329054D01*
X0046577Y0328173D01*
X0045696Y0327024D01*
X0045142Y0325686D01*
X0044952Y0324250D01*
X0045142Y0322814D01*
X0045696Y0321476D01*
X0046577Y0320327D01*
X0047726Y0319446D01*
X0049064Y0318892D01*
X0050500Y0318703D01*
X0051936Y0318892D01*
X0053274Y0319446D01*
X0054423Y0320327D01*
X0055304Y0321476D01*
X0055858Y0322814D01*
X0056047Y0324250D01*
X0055858Y0325686D01*
X0055304Y0327024D01*
X0054423Y0328173D01*
X0053274Y0329054D01*
X0051936Y0329608D01*
X0050500Y0329798D01*
D02*
G37*
G36*
X0040500Y0312539D02*
X0039325Y0312384D01*
X0038231Y0311931D01*
X0037291Y0311209D01*
X0036569Y0310269D01*
X0036116Y0309175D01*
X0035961Y0308000D01*
X0036116Y0306825D01*
X0036569Y0305731D01*
X0037291Y0304791D01*
X0038231Y0304069D01*
X0039325Y0303616D01*
X0040500Y0303461D01*
X0041675Y0303616D01*
X0042769Y0304069D01*
X0043709Y0304791D01*
X0044431Y0305731D01*
X0044884Y0306825D01*
X0045039Y0308000D01*
X0044884Y0309175D01*
X0044431Y0310269D01*
X0043709Y0311209D01*
X0042769Y0311931D01*
X0041675Y0312384D01*
X0040500Y0312539D01*
D02*
G37*
G36*
X0307000Y0313529D02*
X0305824Y0313413D01*
X0304693Y0313070D01*
X0303650Y0312513D01*
X0302737Y0311763D01*
X0301987Y0310849D01*
X0301430Y0309807D01*
X0301087Y0308676D01*
X0300971Y0307500D01*
X0301087Y0306324D01*
X0301430Y0305193D01*
X0301987Y0304151D01*
X0302737Y0303237D01*
X0303650Y0302487D01*
X0304693Y0301930D01*
X0305824Y0301587D01*
X0307000Y0301471D01*
X0308176Y0301587D01*
X0309307Y0301930D01*
X0310349Y0302487D01*
X0311263Y0303237D01*
X0312013Y0304151D01*
X0312570Y0305193D01*
X0312913Y0306324D01*
X0313029Y0307500D01*
X0312913Y0308676D01*
X0312570Y0309807D01*
X0312013Y0310849D01*
X0311263Y0311763D01*
X0310349Y0312513D01*
X0309307Y0313070D01*
X0308176Y0313413D01*
X0307000Y0313529D01*
D02*
G37*
G36*
X0261500Y0304447D02*
X0260564Y0304261D01*
X0259770Y0303730D01*
X0259239Y0302936D01*
X0259053Y0302000D01*
X0259078Y0301873D01*
X0259072Y0301787D01*
X0259061Y0301712D01*
X0259047Y0301649D01*
X0259032Y0301598D01*
X0259017Y0301558D01*
X0259001Y0301526D01*
X0258990Y0301508D01*
X0241991Y0284509D01*
X0241682Y0284046D01*
X0241573Y0283500D01*
X0241573Y0283500D01*
Y0279658D01*
X0241073Y0279488D01*
X0240819Y0279819D01*
X0239993Y0280453D01*
X0239032Y0280851D01*
X0238000Y0280987D01*
X0236968Y0280851D01*
X0236007Y0280453D01*
X0235181Y0279819D01*
X0234547Y0278993D01*
X0234149Y0278032D01*
X0234013Y0277000D01*
X0234149Y0275968D01*
X0234547Y0275007D01*
X0235181Y0274181D01*
X0236007Y0273547D01*
X0236968Y0273149D01*
X0238000Y0273013D01*
X0239032Y0273149D01*
X0239993Y0273547D01*
X0240819Y0274181D01*
X0241073Y0274512D01*
X0241573Y0274342D01*
Y0269658D01*
X0241073Y0269488D01*
X0240819Y0269819D01*
X0239993Y0270453D01*
X0239032Y0270851D01*
X0238000Y0270987D01*
X0236968Y0270851D01*
X0236007Y0270453D01*
X0235181Y0269819D01*
X0234547Y0268993D01*
X0234149Y0268032D01*
X0234013Y0267000D01*
X0234149Y0265968D01*
X0234547Y0265007D01*
X0235181Y0264181D01*
X0236007Y0263547D01*
X0236968Y0263149D01*
X0238000Y0263013D01*
X0239032Y0263149D01*
X0239993Y0263547D01*
X0240819Y0264181D01*
X0241073Y0264512D01*
X0241573Y0264342D01*
Y0253684D01*
X0214491Y0226602D01*
X0214182Y0226139D01*
X0214073Y0225593D01*
X0214073Y0225593D01*
Y0175623D01*
X0214068Y0175602D01*
X0214056Y0175568D01*
X0214039Y0175529D01*
X0214014Y0175482D01*
X0213979Y0175428D01*
X0213933Y0175368D01*
X0213877Y0175302D01*
X0213770Y0175230D01*
X0213239Y0174436D01*
X0213053Y0173500D01*
X0213239Y0172564D01*
X0213770Y0171770D01*
X0214564Y0171239D01*
X0215500Y0171053D01*
X0216436Y0171239D01*
X0217230Y0171770D01*
X0217761Y0172564D01*
X0217947Y0173500D01*
X0217761Y0174436D01*
X0217230Y0175230D01*
X0217123Y0175302D01*
X0217067Y0175368D01*
X0217021Y0175428D01*
X0216986Y0175482D01*
X0216961Y0175529D01*
X0216944Y0175568D01*
X0216932Y0175602D01*
X0216927Y0175623D01*
Y0225002D01*
X0231737Y0239812D01*
X0232258Y0239626D01*
X0232337Y0238824D01*
X0232680Y0237693D01*
X0233237Y0236650D01*
X0233987Y0235737D01*
X0234900Y0234987D01*
X0235943Y0234430D01*
X0237074Y0234087D01*
X0238250Y0233971D01*
X0239426Y0234087D01*
X0240557Y0234430D01*
X0241599Y0234987D01*
X0242513Y0235737D01*
X0243263Y0236650D01*
X0243820Y0237693D01*
X0244163Y0238824D01*
X0244279Y0240000D01*
X0244163Y0241176D01*
X0243820Y0242307D01*
X0243263Y0243350D01*
X0242513Y0244263D01*
X0241599Y0245013D01*
X0240557Y0245570D01*
X0239426Y0245913D01*
X0238624Y0245992D01*
X0238438Y0246513D01*
X0244009Y0252084D01*
X0244009Y0252084D01*
X0244318Y0252547D01*
X0244427Y0253093D01*
Y0264342D01*
X0244927Y0264512D01*
X0245181Y0264181D01*
X0246007Y0263547D01*
X0246968Y0263149D01*
X0248000Y0263013D01*
X0249032Y0263149D01*
X0249993Y0263547D01*
X0250819Y0264181D01*
X0251453Y0265007D01*
X0251851Y0265968D01*
X0251987Y0267000D01*
X0251851Y0268032D01*
X0251453Y0268993D01*
X0250819Y0269819D01*
X0249993Y0270453D01*
X0249032Y0270851D01*
X0248000Y0270987D01*
X0246968Y0270851D01*
X0246007Y0270453D01*
X0245181Y0269819D01*
X0244927Y0269488D01*
X0244427Y0269658D01*
Y0274342D01*
X0244927Y0274512D01*
X0245181Y0274181D01*
X0246007Y0273547D01*
X0246968Y0273149D01*
X0248000Y0273013D01*
X0249032Y0273149D01*
X0249993Y0273547D01*
X0250819Y0274181D01*
X0251453Y0275007D01*
X0251851Y0275968D01*
X0251987Y0277000D01*
X0251851Y0278032D01*
X0251453Y0278993D01*
X0250819Y0279819D01*
X0249993Y0280453D01*
X0249032Y0280851D01*
X0248000Y0280987D01*
X0246968Y0280851D01*
X0246007Y0280453D01*
X0245181Y0279819D01*
X0244927Y0279488D01*
X0244427Y0279658D01*
Y0282909D01*
X0261008Y0299490D01*
X0261026Y0299501D01*
X0261058Y0299517D01*
X0261098Y0299532D01*
X0261149Y0299547D01*
X0261212Y0299561D01*
X0261287Y0299572D01*
X0261373Y0299578D01*
X0261500Y0299553D01*
X0262436Y0299739D01*
X0263230Y0300270D01*
X0263761Y0301064D01*
X0263947Y0302000D01*
X0263761Y0302936D01*
X0263230Y0303730D01*
X0262436Y0304261D01*
X0261500Y0304447D01*
D02*
G37*
G36*
X0225000Y0303530D02*
X0224086Y0303410D01*
X0223235Y0303057D01*
X0222504Y0302496D01*
X0221943Y0301765D01*
X0221590Y0300914D01*
X0221470Y0300000D01*
X0221590Y0299086D01*
X0221943Y0298235D01*
X0222504Y0297504D01*
X0223235Y0296943D01*
X0224086Y0296590D01*
X0225000Y0296470D01*
X0225914Y0296590D01*
X0226765Y0296943D01*
X0227496Y0297504D01*
X0228057Y0298235D01*
X0228410Y0299086D01*
X0228530Y0300000D01*
X0228410Y0300914D01*
X0228057Y0301765D01*
X0227496Y0302496D01*
X0226765Y0303057D01*
X0225914Y0303410D01*
X0225000Y0303530D01*
D02*
G37*
G36*
X0105000D02*
X0104086Y0303410D01*
X0103235Y0303057D01*
X0102504Y0302496D01*
X0101943Y0301765D01*
X0101590Y0300914D01*
X0101470Y0300000D01*
X0101590Y0299086D01*
X0101943Y0298235D01*
X0102504Y0297504D01*
X0103235Y0296943D01*
X0104086Y0296590D01*
X0105000Y0296470D01*
X0105914Y0296590D01*
X0106765Y0296943D01*
X0107496Y0297504D01*
X0108057Y0298235D01*
X0108410Y0299086D01*
X0108530Y0300000D01*
X0108410Y0300914D01*
X0108057Y0301765D01*
X0107496Y0302496D01*
X0106765Y0303057D01*
X0105914Y0303410D01*
X0105000Y0303530D01*
D02*
G37*
G36*
X0075000D02*
X0074086Y0303410D01*
X0073235Y0303057D01*
X0072504Y0302496D01*
X0071943Y0301765D01*
X0071590Y0300914D01*
X0071470Y0300000D01*
X0071590Y0299086D01*
X0071943Y0298235D01*
X0072504Y0297504D01*
X0073235Y0296943D01*
X0074086Y0296590D01*
X0075000Y0296470D01*
X0075914Y0296590D01*
X0076765Y0296943D01*
X0077496Y0297504D01*
X0078057Y0298235D01*
X0078410Y0299086D01*
X0078530Y0300000D01*
X0078410Y0300914D01*
X0078057Y0301765D01*
X0077496Y0302496D01*
X0076765Y0303057D01*
X0075914Y0303410D01*
X0075000Y0303530D01*
D02*
G37*
G36*
X0307500Y0300583D02*
Y0295500D01*
X0312582D01*
X0312456Y0296462D01*
X0311892Y0297824D01*
X0310994Y0298994D01*
X0309824Y0299892D01*
X0308462Y0300456D01*
X0307500Y0300583D01*
D02*
G37*
G36*
X0306500D02*
X0305538Y0300456D01*
X0304176Y0299892D01*
X0303006Y0298994D01*
X0302108Y0297824D01*
X0301544Y0296462D01*
X0301417Y0295500D01*
X0306500D01*
Y0300583D01*
D02*
G37*
G36*
X0192980Y0313386D02*
X0191063Y0313197D01*
X0189220Y0312638D01*
X0187521Y0311730D01*
X0186032Y0310508D01*
X0184810Y0309019D01*
X0183902Y0307320D01*
X0183342Y0305476D01*
X0183153Y0303559D01*
X0183342Y0301642D01*
X0183902Y0299798D01*
X0184810Y0298099D01*
X0186032Y0296610D01*
X0187521Y0295388D01*
X0189220Y0294480D01*
X0191063Y0293921D01*
X0192980Y0293732D01*
X0194897Y0293921D01*
X0196741Y0294480D01*
X0198440Y0295388D01*
X0199929Y0296610D01*
X0201151Y0298099D01*
X0202059Y0299798D01*
X0202618Y0301642D01*
X0202807Y0303559D01*
X0202618Y0305476D01*
X0202059Y0307320D01*
X0201151Y0309019D01*
X0199929Y0310508D01*
X0198440Y0311730D01*
X0196741Y0312638D01*
X0194897Y0313197D01*
X0192980Y0313386D01*
D02*
G37*
G36*
X0040500Y0302539D02*
X0039325Y0302384D01*
X0038231Y0301931D01*
X0037291Y0301209D01*
X0036569Y0300269D01*
X0036116Y0299175D01*
X0035961Y0298000D01*
X0036116Y0296825D01*
X0036569Y0295731D01*
X0037291Y0294791D01*
X0038231Y0294069D01*
X0039325Y0293616D01*
X0040500Y0293461D01*
X0041675Y0293616D01*
X0042769Y0294069D01*
X0043709Y0294791D01*
X0044431Y0295731D01*
X0044884Y0296825D01*
X0045039Y0298000D01*
X0044884Y0299175D01*
X0044431Y0300269D01*
X0043709Y0301209D01*
X0042769Y0301931D01*
X0041675Y0302384D01*
X0040500Y0302539D01*
D02*
G37*
G36*
X0312582Y0294500D02*
X0307500D01*
Y0289418D01*
X0308462Y0289544D01*
X0309824Y0290108D01*
X0310994Y0291006D01*
X0311892Y0292176D01*
X0312456Y0293538D01*
X0312582Y0294500D01*
D02*
G37*
G36*
X0306500D02*
X0301417D01*
X0301544Y0293538D01*
X0302108Y0292176D01*
X0303006Y0291006D01*
X0304176Y0290108D01*
X0305538Y0289544D01*
X0306500Y0289418D01*
Y0294500D01*
D02*
G37*
G36*
X0041000Y0292070D02*
Y0288500D01*
X0044570D01*
X0044495Y0289070D01*
X0044081Y0290068D01*
X0043424Y0290924D01*
X0042568Y0291581D01*
X0041570Y0291995D01*
X0041000Y0292070D01*
D02*
G37*
G36*
X0040000D02*
X0039430Y0291995D01*
X0038432Y0291581D01*
X0037576Y0290924D01*
X0036919Y0290068D01*
X0036505Y0289070D01*
X0036430Y0288500D01*
X0040000D01*
Y0292070D01*
D02*
G37*
G36*
X0044570Y0287500D02*
X0041000D01*
Y0283930D01*
X0041570Y0284005D01*
X0042568Y0284419D01*
X0043424Y0285076D01*
X0044081Y0285932D01*
X0044495Y0286930D01*
X0044570Y0287500D01*
D02*
G37*
G36*
X0040000D02*
X0036430D01*
X0036505Y0286930D01*
X0036919Y0285932D01*
X0037576Y0285076D01*
X0038432Y0284419D01*
X0039430Y0284005D01*
X0040000Y0283930D01*
Y0287500D01*
D02*
G37*
G36*
X0307000Y0288529D02*
X0305824Y0288413D01*
X0304693Y0288070D01*
X0303650Y0287513D01*
X0302737Y0286763D01*
X0301987Y0285849D01*
X0301430Y0284807D01*
X0301087Y0283676D01*
X0300971Y0282500D01*
X0301087Y0281324D01*
X0301430Y0280193D01*
X0301987Y0279151D01*
X0302737Y0278237D01*
X0303650Y0277487D01*
X0304693Y0276930D01*
X0305824Y0276587D01*
X0307000Y0276471D01*
X0308176Y0276587D01*
X0309307Y0276930D01*
X0310349Y0277487D01*
X0311263Y0278237D01*
X0312013Y0279151D01*
X0312570Y0280193D01*
X0312913Y0281324D01*
X0313029Y0282500D01*
X0312913Y0283676D01*
X0312570Y0284807D01*
X0312013Y0285849D01*
X0311263Y0286763D01*
X0310349Y0287513D01*
X0309307Y0288070D01*
X0308176Y0288413D01*
X0307000Y0288529D01*
D02*
G37*
G36*
X0261953Y0280953D02*
X0254047D01*
Y0273047D01*
X0261953D01*
Y0280953D01*
D02*
G37*
G36*
X0228000Y0280987D02*
X0226968Y0280851D01*
X0226007Y0280453D01*
X0225181Y0279819D01*
X0224547Y0278993D01*
X0224149Y0278032D01*
X0224013Y0277000D01*
X0224149Y0275968D01*
X0224547Y0275007D01*
X0225181Y0274181D01*
X0226007Y0273547D01*
X0226968Y0273149D01*
X0228000Y0273013D01*
X0229032Y0273149D01*
X0229993Y0273547D01*
X0230819Y0274181D01*
X0231453Y0275007D01*
X0231851Y0275968D01*
X0231987Y0277000D01*
X0231851Y0278032D01*
X0231453Y0278993D01*
X0230819Y0279819D01*
X0229993Y0280453D01*
X0229032Y0280851D01*
X0228000Y0280987D01*
D02*
G37*
G36*
X0185500Y0280582D02*
X0184314Y0280426D01*
X0183209Y0279969D01*
X0182260Y0279240D01*
X0181531Y0278291D01*
X0181074Y0277186D01*
X0180918Y0276000D01*
X0181074Y0274814D01*
X0181531Y0273709D01*
X0182260Y0272760D01*
X0183209Y0272031D01*
X0184314Y0271574D01*
X0185500Y0271417D01*
X0186686Y0271574D01*
X0187791Y0272031D01*
X0188740Y0272760D01*
X0189469Y0273709D01*
X0189926Y0274814D01*
X0190083Y0276000D01*
X0189926Y0277186D01*
X0189469Y0278291D01*
X0188740Y0279240D01*
X0187791Y0279969D01*
X0186686Y0280426D01*
X0185500Y0280582D01*
D02*
G37*
G36*
X0258500Y0270518D02*
Y0267500D01*
X0261518D01*
X0261461Y0267927D01*
X0261103Y0268792D01*
X0260534Y0269534D01*
X0259792Y0270103D01*
X0258927Y0270461D01*
X0258500Y0270518D01*
D02*
G37*
G36*
X0257500D02*
X0257073Y0270461D01*
X0256208Y0270103D01*
X0255466Y0269534D01*
X0254897Y0268792D01*
X0254539Y0267927D01*
X0254482Y0267500D01*
X0257500D01*
Y0270518D01*
D02*
G37*
G36*
X0270000Y0273530D02*
X0269086Y0273410D01*
X0268235Y0273057D01*
X0267504Y0272496D01*
X0266943Y0271765D01*
X0266590Y0270914D01*
X0266470Y0270000D01*
X0266590Y0269086D01*
X0266943Y0268235D01*
X0267504Y0267504D01*
X0268235Y0266943D01*
X0269086Y0266590D01*
X0270000Y0266470D01*
X0270914Y0266590D01*
X0271765Y0266943D01*
X0272496Y0267504D01*
X0273057Y0268235D01*
X0273410Y0269086D01*
X0273530Y0270000D01*
X0273410Y0270914D01*
X0273057Y0271765D01*
X0272496Y0272496D01*
X0271765Y0273057D01*
X0270914Y0273410D01*
X0270000Y0273530D01*
D02*
G37*
G36*
X0210000D02*
X0209086Y0273410D01*
X0208235Y0273057D01*
X0207504Y0272496D01*
X0206943Y0271765D01*
X0206590Y0270914D01*
X0206470Y0270000D01*
X0206590Y0269086D01*
X0206943Y0268235D01*
X0207504Y0267504D01*
X0208235Y0266943D01*
X0209086Y0266590D01*
X0210000Y0266470D01*
X0210914Y0266590D01*
X0211765Y0266943D01*
X0212496Y0267504D01*
X0213057Y0268235D01*
X0213410Y0269086D01*
X0213530Y0270000D01*
X0213410Y0270914D01*
X0213057Y0271765D01*
X0212496Y0272496D01*
X0211765Y0273057D01*
X0210914Y0273410D01*
X0210000Y0273530D01*
D02*
G37*
G36*
X0090000D02*
X0089086Y0273410D01*
X0088235Y0273057D01*
X0087504Y0272496D01*
X0086943Y0271765D01*
X0086590Y0270914D01*
X0086470Y0270000D01*
X0086590Y0269086D01*
X0086943Y0268235D01*
X0087504Y0267504D01*
X0088235Y0266943D01*
X0089086Y0266590D01*
X0090000Y0266470D01*
X0090914Y0266590D01*
X0091765Y0266943D01*
X0092496Y0267504D01*
X0093057Y0268235D01*
X0093410Y0269086D01*
X0093530Y0270000D01*
X0093410Y0270914D01*
X0093057Y0271765D01*
X0092496Y0272496D01*
X0091765Y0273057D01*
X0090914Y0273410D01*
X0090000Y0273530D01*
D02*
G37*
G36*
X0060000D02*
X0059086Y0273410D01*
X0058235Y0273057D01*
X0057504Y0272496D01*
X0056943Y0271765D01*
X0056590Y0270914D01*
X0056470Y0270000D01*
X0056590Y0269086D01*
X0056943Y0268235D01*
X0057504Y0267504D01*
X0058235Y0266943D01*
X0059086Y0266590D01*
X0060000Y0266470D01*
X0060914Y0266590D01*
X0061765Y0266943D01*
X0062496Y0267504D01*
X0063057Y0268235D01*
X0063410Y0269086D01*
X0063530Y0270000D01*
X0063410Y0270914D01*
X0063057Y0271765D01*
X0062496Y0272496D01*
X0061765Y0273057D01*
X0060914Y0273410D01*
X0060000Y0273530D01*
D02*
G37*
G36*
X0030000D02*
X0029086Y0273410D01*
X0028235Y0273057D01*
X0027504Y0272496D01*
X0026943Y0271765D01*
X0026590Y0270914D01*
X0026470Y0270000D01*
X0026590Y0269086D01*
X0026943Y0268235D01*
X0027504Y0267504D01*
X0028235Y0266943D01*
X0029086Y0266590D01*
X0030000Y0266470D01*
X0030914Y0266590D01*
X0031765Y0266943D01*
X0032496Y0267504D01*
X0033057Y0268235D01*
X0033410Y0269086D01*
X0033530Y0270000D01*
X0033410Y0270914D01*
X0033057Y0271765D01*
X0032496Y0272496D01*
X0031765Y0273057D01*
X0030914Y0273410D01*
X0030000Y0273530D01*
D02*
G37*
G36*
X0110500Y0277297D02*
X0109064Y0277108D01*
X0107726Y0276554D01*
X0106577Y0275673D01*
X0105696Y0274524D01*
X0105142Y0273186D01*
X0104953Y0271750D01*
X0105142Y0270314D01*
X0105696Y0268976D01*
X0106577Y0267827D01*
X0107726Y0266946D01*
X0109064Y0266392D01*
X0110500Y0266202D01*
X0111936Y0266392D01*
X0113274Y0266946D01*
X0114423Y0267827D01*
X0115304Y0268976D01*
X0115858Y0270314D01*
X0116048Y0271750D01*
X0115858Y0273186D01*
X0115304Y0274524D01*
X0114423Y0275673D01*
X0113274Y0276554D01*
X0111936Y0277108D01*
X0110500Y0277297D01*
D02*
G37*
G36*
X0050500D02*
X0049064Y0277108D01*
X0047726Y0276554D01*
X0046577Y0275673D01*
X0045696Y0274524D01*
X0045142Y0273186D01*
X0044952Y0271750D01*
X0045142Y0270314D01*
X0045696Y0268976D01*
X0046577Y0267827D01*
X0047726Y0266946D01*
X0049064Y0266392D01*
X0050500Y0266202D01*
X0051936Y0266392D01*
X0053274Y0266946D01*
X0054423Y0267827D01*
X0055304Y0268976D01*
X0055858Y0270314D01*
X0056047Y0271750D01*
X0055858Y0273186D01*
X0055304Y0274524D01*
X0054423Y0275673D01*
X0053274Y0276554D01*
X0051936Y0277108D01*
X0050500Y0277297D01*
D02*
G37*
G36*
X0261518Y0266500D02*
X0258500D01*
Y0263482D01*
X0258927Y0263539D01*
X0259792Y0263897D01*
X0260534Y0264466D01*
X0261103Y0265208D01*
X0261461Y0266073D01*
X0261518Y0266500D01*
D02*
G37*
G36*
X0257500D02*
X0254482D01*
X0254539Y0266073D01*
X0254897Y0265208D01*
X0255466Y0264466D01*
X0256208Y0263897D01*
X0257073Y0263539D01*
X0257500Y0263482D01*
Y0266500D01*
D02*
G37*
G36*
X0091000Y0262070D02*
Y0258500D01*
X0094570D01*
X0094494Y0259070D01*
X0094081Y0260068D01*
X0093424Y0260924D01*
X0092568Y0261581D01*
X0091570Y0261995D01*
X0091000Y0262070D01*
D02*
G37*
G36*
X0090000D02*
X0089430Y0261995D01*
X0088432Y0261581D01*
X0087576Y0260924D01*
X0086919Y0260068D01*
X0086506Y0259070D01*
X0086430Y0258500D01*
X0090000D01*
Y0262070D01*
D02*
G37*
G36*
X0094570Y0257500D02*
X0091000D01*
Y0253930D01*
X0091570Y0254006D01*
X0092568Y0254419D01*
X0093424Y0255076D01*
X0094081Y0255932D01*
X0094494Y0256930D01*
X0094570Y0257500D01*
D02*
G37*
G36*
X0090000D02*
X0086430D01*
X0086506Y0256930D01*
X0086919Y0255932D01*
X0087576Y0255076D01*
X0088432Y0254419D01*
X0089430Y0254006D01*
X0090000Y0253930D01*
Y0257500D01*
D02*
G37*
G36*
X0080500Y0262539D02*
X0079325Y0262384D01*
X0078231Y0261931D01*
X0077291Y0261209D01*
X0076569Y0260269D01*
X0076116Y0259175D01*
X0075961Y0258000D01*
X0076116Y0256825D01*
X0076569Y0255731D01*
X0077291Y0254791D01*
X0078231Y0254069D01*
X0079325Y0253616D01*
X0080500Y0253461D01*
X0081675Y0253616D01*
X0082769Y0254069D01*
X0083709Y0254791D01*
X0084431Y0255731D01*
X0084884Y0256825D01*
X0085039Y0258000D01*
X0084884Y0259175D01*
X0084431Y0260269D01*
X0083709Y0261209D01*
X0082769Y0261931D01*
X0081675Y0262384D01*
X0080500Y0262539D01*
D02*
G37*
G36*
X0070500D02*
X0069325Y0262384D01*
X0068231Y0261931D01*
X0067291Y0261209D01*
X0066569Y0260269D01*
X0066116Y0259175D01*
X0065961Y0258000D01*
X0066116Y0256825D01*
X0066569Y0255731D01*
X0067291Y0254791D01*
X0068231Y0254069D01*
X0069325Y0253616D01*
X0070500Y0253461D01*
X0071675Y0253616D01*
X0072769Y0254069D01*
X0073709Y0254791D01*
X0074431Y0255731D01*
X0074884Y0256825D01*
X0075039Y0258000D01*
X0074884Y0259175D01*
X0074431Y0260269D01*
X0073709Y0261209D01*
X0072769Y0261931D01*
X0071675Y0262384D01*
X0070500Y0262539D01*
D02*
G37*
G36*
X0339469Y0253503D02*
X0333531D01*
X0332495Y0253366D01*
X0331530Y0252966D01*
X0330701Y0252330D01*
X0330065Y0251501D01*
X0329665Y0250536D01*
X0329529Y0249500D01*
X0329665Y0248464D01*
X0330065Y0247499D01*
X0330701Y0246670D01*
X0331530Y0246034D01*
X0332495Y0245634D01*
X0333531Y0245497D01*
X0339469D01*
X0340505Y0245634D01*
X0341470Y0246034D01*
X0342299Y0246670D01*
X0342935Y0247499D01*
X0343335Y0248464D01*
X0343471Y0249500D01*
X0343335Y0250536D01*
X0342935Y0251501D01*
X0342299Y0252330D01*
X0341470Y0252966D01*
X0340505Y0253366D01*
X0339469Y0253503D01*
D02*
G37*
G36*
X0255000Y0243530D02*
X0254086Y0243410D01*
X0253235Y0243057D01*
X0252504Y0242496D01*
X0251943Y0241765D01*
X0251590Y0240914D01*
X0251470Y0240000D01*
X0251590Y0239086D01*
X0251943Y0238235D01*
X0252504Y0237504D01*
X0253235Y0236943D01*
X0254086Y0236590D01*
X0255000Y0236470D01*
X0255914Y0236590D01*
X0256765Y0236943D01*
X0257496Y0237504D01*
X0258057Y0238235D01*
X0258410Y0239086D01*
X0258530Y0240000D01*
X0258410Y0240914D01*
X0258057Y0241765D01*
X0257496Y0242496D01*
X0256765Y0243057D01*
X0255914Y0243410D01*
X0255000Y0243530D01*
D02*
G37*
G36*
X0105000D02*
X0104086Y0243410D01*
X0103235Y0243057D01*
X0102504Y0242496D01*
X0101943Y0241765D01*
X0101590Y0240914D01*
X0101470Y0240000D01*
X0101590Y0239086D01*
X0101943Y0238235D01*
X0102504Y0237504D01*
X0103235Y0236943D01*
X0104086Y0236590D01*
X0105000Y0236470D01*
X0105914Y0236590D01*
X0106765Y0236943D01*
X0107496Y0237504D01*
X0108057Y0238235D01*
X0108410Y0239086D01*
X0108530Y0240000D01*
X0108410Y0240914D01*
X0108057Y0241765D01*
X0107496Y0242496D01*
X0106765Y0243057D01*
X0105914Y0243410D01*
X0105000Y0243530D01*
D02*
G37*
G36*
X0075000D02*
X0074086Y0243410D01*
X0073235Y0243057D01*
X0072504Y0242496D01*
X0071943Y0241765D01*
X0071590Y0240914D01*
X0071470Y0240000D01*
X0071590Y0239086D01*
X0071943Y0238235D01*
X0072504Y0237504D01*
X0073235Y0236943D01*
X0074086Y0236590D01*
X0075000Y0236470D01*
X0075914Y0236590D01*
X0076765Y0236943D01*
X0077496Y0237504D01*
X0078057Y0238235D01*
X0078410Y0239086D01*
X0078530Y0240000D01*
X0078410Y0240914D01*
X0078057Y0241765D01*
X0077496Y0242496D01*
X0076765Y0243057D01*
X0075914Y0243410D01*
X0075000Y0243530D01*
D02*
G37*
G36*
X0045000D02*
X0044086Y0243410D01*
X0043235Y0243057D01*
X0042504Y0242496D01*
X0041943Y0241765D01*
X0041590Y0240914D01*
X0041470Y0240000D01*
X0041590Y0239086D01*
X0041943Y0238235D01*
X0042504Y0237504D01*
X0043235Y0236943D01*
X0044086Y0236590D01*
X0045000Y0236470D01*
X0045914Y0236590D01*
X0046765Y0236943D01*
X0047496Y0237504D01*
X0048057Y0238235D01*
X0048410Y0239086D01*
X0048530Y0240000D01*
X0048410Y0240914D01*
X0048057Y0241765D01*
X0047496Y0242496D01*
X0046765Y0243057D01*
X0045914Y0243410D01*
X0045000Y0243530D01*
D02*
G37*
G36*
X0217750Y0246029D02*
X0216574Y0245913D01*
X0215443Y0245570D01*
X0214401Y0245013D01*
X0213487Y0244263D01*
X0212737Y0243350D01*
X0212180Y0242307D01*
X0211837Y0241176D01*
X0211721Y0240000D01*
X0211837Y0238824D01*
X0212180Y0237693D01*
X0212737Y0236650D01*
X0213487Y0235737D01*
X0214401Y0234987D01*
X0215443Y0234430D01*
X0216574Y0234087D01*
X0217750Y0233971D01*
X0218926Y0234087D01*
X0220057Y0234430D01*
X0221099Y0234987D01*
X0222013Y0235737D01*
X0222763Y0236650D01*
X0223320Y0237693D01*
X0223663Y0238824D01*
X0223779Y0240000D01*
X0223663Y0241176D01*
X0223320Y0242307D01*
X0222763Y0243350D01*
X0222013Y0244263D01*
X0221099Y0245013D01*
X0220057Y0245570D01*
X0218926Y0245913D01*
X0217750Y0246029D01*
D02*
G37*
G36*
X0348811Y0237498D02*
Y0231496D01*
X0351910D01*
Y0233965D01*
X0351788Y0234896D01*
X0351428Y0235764D01*
X0350856Y0236510D01*
X0350111Y0237082D01*
X0349243Y0237441D01*
X0348811Y0237498D01*
D02*
G37*
G36*
X0347811Y0237498D02*
X0347379Y0237441D01*
X0346511Y0237082D01*
X0345766Y0236510D01*
X0345194Y0235764D01*
X0344834Y0234896D01*
X0344712Y0233965D01*
Y0231496D01*
X0347811D01*
Y0237498D01*
D02*
G37*
G36*
X0351910Y0230496D02*
X0348811D01*
Y0224494D01*
X0349243Y0224551D01*
X0350111Y0224910D01*
X0350856Y0225483D01*
X0351428Y0226228D01*
X0351788Y0227096D01*
X0351910Y0228028D01*
Y0230496D01*
D02*
G37*
G36*
X0347811D02*
X0344712D01*
Y0228028D01*
X0344834Y0227096D01*
X0345194Y0226228D01*
X0345766Y0225483D01*
X0346511Y0224910D01*
X0347379Y0224551D01*
X0347811Y0224494D01*
Y0230496D01*
D02*
G37*
G36*
X0324689Y0237967D02*
X0323653Y0237831D01*
X0322688Y0237431D01*
X0321859Y0236795D01*
X0321222Y0235966D01*
X0320823Y0235001D01*
X0320686Y0233965D01*
Y0228028D01*
X0320823Y0226992D01*
X0321222Y0226026D01*
X0321859Y0225197D01*
X0322688Y0224561D01*
X0323653Y0224161D01*
X0324689Y0224025D01*
X0325725Y0224161D01*
X0326690Y0224561D01*
X0327519Y0225197D01*
X0328155Y0226026D01*
X0328555Y0226992D01*
X0328692Y0228028D01*
Y0233965D01*
X0328555Y0235001D01*
X0328155Y0235966D01*
X0327519Y0236795D01*
X0326690Y0237431D01*
X0325725Y0237831D01*
X0324689Y0237967D01*
D02*
G37*
G36*
X0270000Y0213530D02*
X0269086Y0213410D01*
X0268235Y0213057D01*
X0267504Y0212496D01*
X0266943Y0211765D01*
X0266590Y0210914D01*
X0266470Y0210000D01*
X0266590Y0209086D01*
X0266943Y0208235D01*
X0267504Y0207504D01*
X0268235Y0206943D01*
X0269086Y0206590D01*
X0270000Y0206470D01*
X0270914Y0206590D01*
X0271765Y0206943D01*
X0272496Y0207504D01*
X0273057Y0208235D01*
X0273410Y0209086D01*
X0273530Y0210000D01*
X0273410Y0210914D01*
X0273057Y0211765D01*
X0272496Y0212496D01*
X0271765Y0213057D01*
X0270914Y0213410D01*
X0270000Y0213530D01*
D02*
G37*
G36*
X0210000D02*
X0209086Y0213410D01*
X0208235Y0213057D01*
X0207504Y0212496D01*
X0206943Y0211765D01*
X0206590Y0210914D01*
X0206470Y0210000D01*
X0206590Y0209086D01*
X0206943Y0208235D01*
X0207504Y0207504D01*
X0208235Y0206943D01*
X0209086Y0206590D01*
X0210000Y0206470D01*
X0210914Y0206590D01*
X0211765Y0206943D01*
X0212496Y0207504D01*
X0213057Y0208235D01*
X0213410Y0209086D01*
X0213530Y0210000D01*
X0213410Y0210914D01*
X0213057Y0211765D01*
X0212496Y0212496D01*
X0211765Y0213057D01*
X0210914Y0213410D01*
X0210000Y0213530D01*
D02*
G37*
G36*
X0090000D02*
X0089086Y0213410D01*
X0088235Y0213057D01*
X0087504Y0212496D01*
X0086943Y0211765D01*
X0086590Y0210914D01*
X0086470Y0210000D01*
X0086590Y0209086D01*
X0086943Y0208235D01*
X0087504Y0207504D01*
X0088235Y0206943D01*
X0089086Y0206590D01*
X0090000Y0206470D01*
X0090914Y0206590D01*
X0091765Y0206943D01*
X0092496Y0207504D01*
X0093057Y0208235D01*
X0093410Y0209086D01*
X0093530Y0210000D01*
X0093410Y0210914D01*
X0093057Y0211765D01*
X0092496Y0212496D01*
X0091765Y0213057D01*
X0090914Y0213410D01*
X0090000Y0213530D01*
D02*
G37*
G36*
X0060000D02*
X0059086Y0213410D01*
X0058235Y0213057D01*
X0057504Y0212496D01*
X0056943Y0211765D01*
X0056590Y0210914D01*
X0056470Y0210000D01*
X0056590Y0209086D01*
X0056943Y0208235D01*
X0057504Y0207504D01*
X0058235Y0206943D01*
X0059086Y0206590D01*
X0060000Y0206470D01*
X0060914Y0206590D01*
X0061765Y0206943D01*
X0062496Y0207504D01*
X0063057Y0208235D01*
X0063410Y0209086D01*
X0063530Y0210000D01*
X0063410Y0210914D01*
X0063057Y0211765D01*
X0062496Y0212496D01*
X0061765Y0213057D01*
X0060914Y0213410D01*
X0060000Y0213530D01*
D02*
G37*
G36*
X0234250Y0192447D02*
X0233314Y0192261D01*
X0232520Y0191730D01*
X0232250Y0191327D01*
X0231750D01*
X0231480Y0191730D01*
X0230686Y0192261D01*
X0229750Y0192447D01*
X0228814Y0192261D01*
X0228020Y0191730D01*
X0227858Y0191488D01*
X0227358D01*
X0227197Y0191728D01*
X0226403Y0192259D01*
X0225466Y0192445D01*
X0224530Y0192259D01*
X0223736Y0191728D01*
X0223206Y0190935D01*
X0223020Y0189998D01*
X0223206Y0189062D01*
X0223736Y0188268D01*
X0223844Y0188196D01*
X0223900Y0188130D01*
X0223945Y0188070D01*
X0223980Y0188016D01*
X0224006Y0187969D01*
X0224023Y0187930D01*
X0224034Y0187896D01*
X0224039Y0187875D01*
Y0127558D01*
X0197909Y0101427D01*
X0194893D01*
X0194741Y0101927D01*
X0195254Y0102270D01*
X0195784Y0103064D01*
X0195971Y0104000D01*
X0195945Y0104127D01*
X0195952Y0104213D01*
X0195963Y0104288D01*
X0195976Y0104351D01*
X0195991Y0104402D01*
X0196007Y0104442D01*
X0196023Y0104474D01*
X0196034Y0104492D01*
X0222009Y0130467D01*
X0222009Y0130467D01*
X0222318Y0130930D01*
X0222427Y0131476D01*
X0222427Y0131476D01*
Y0175877D01*
X0222432Y0175898D01*
X0222444Y0175932D01*
X0222461Y0175971D01*
X0222486Y0176018D01*
X0222521Y0176072D01*
X0222567Y0176132D01*
X0222623Y0176198D01*
X0222730Y0176270D01*
X0223261Y0177064D01*
X0223447Y0178000D01*
X0223261Y0178936D01*
X0222730Y0179730D01*
X0221936Y0180261D01*
X0221000Y0180447D01*
X0220064Y0180261D01*
X0219270Y0179730D01*
X0218739Y0178936D01*
X0218553Y0178000D01*
X0218739Y0177064D01*
X0219270Y0176270D01*
X0219377Y0176198D01*
X0219433Y0176132D01*
X0219479Y0176072D01*
X0219514Y0176018D01*
X0219539Y0175971D01*
X0219556Y0175932D01*
X0219568Y0175898D01*
X0219573Y0175877D01*
Y0132068D01*
X0194016Y0106510D01*
X0193997Y0106499D01*
X0193966Y0106483D01*
X0193925Y0106468D01*
X0193874Y0106453D01*
X0193812Y0106439D01*
X0193736Y0106428D01*
X0193650Y0106422D01*
X0193524Y0106447D01*
X0192587Y0106261D01*
X0191793Y0105730D01*
X0191263Y0104936D01*
X0191077Y0104000D01*
X0191263Y0103064D01*
X0191793Y0102270D01*
X0192306Y0101927D01*
X0192155Y0101427D01*
X0109091D01*
X0105630Y0104888D01*
X0105601Y0104930D01*
X0105574Y0104975D01*
X0105489Y0105150D01*
X0105460Y0105223D01*
X0105380Y0105467D01*
X0105343Y0105604D01*
X0105316Y0105658D01*
X0105261Y0105936D01*
X0104730Y0106730D01*
X0103936Y0107261D01*
X0103000Y0107447D01*
X0102064Y0107261D01*
X0101270Y0106730D01*
X0100739Y0105936D01*
X0100553Y0105000D01*
X0100739Y0104064D01*
X0101270Y0103270D01*
X0102064Y0102739D01*
X0103000Y0102553D01*
X0103500Y0102653D01*
X0103596Y0102655D01*
X0103696Y0102678D01*
X0103743Y0102685D01*
X0103774Y0102687D01*
X0103793Y0102686D01*
X0103797Y0102685D01*
X0107491Y0098991D01*
X0107491Y0098991D01*
X0107954Y0098682D01*
X0108500Y0098573D01*
X0108500Y0098573D01*
X0198500D01*
X0198500Y0098573D01*
X0199046Y0098682D01*
X0199509Y0098991D01*
X0226476Y0125957D01*
X0226476Y0125957D01*
X0226785Y0126420D01*
X0226893Y0126967D01*
X0226893Y0126967D01*
Y0187875D01*
X0226899Y0187896D01*
X0226910Y0187930D01*
X0226927Y0187969D01*
X0226953Y0188016D01*
X0226988Y0188070D01*
X0227033Y0188130D01*
X0227089Y0188196D01*
X0227197Y0188268D01*
X0227359Y0188510D01*
X0227859D01*
X0228020Y0188270D01*
X0228127Y0188198D01*
X0228183Y0188132D01*
X0228229Y0188072D01*
X0228264Y0188018D01*
X0228289Y0187971D01*
X0228306Y0187932D01*
X0228318Y0187898D01*
X0228323Y0187877D01*
Y0120841D01*
X0167909Y0060427D01*
X0119591D01*
X0117010Y0063008D01*
X0116999Y0063026D01*
X0116983Y0063058D01*
X0116968Y0063098D01*
X0116953Y0063149D01*
X0116939Y0063212D01*
X0116928Y0063287D01*
X0116922Y0063373D01*
X0116947Y0063500D01*
X0116761Y0064436D01*
X0116230Y0065230D01*
X0115436Y0065761D01*
X0114500Y0065947D01*
X0113564Y0065761D01*
X0112770Y0065230D01*
X0112239Y0064436D01*
X0112053Y0063500D01*
X0112239Y0062564D01*
X0112770Y0061770D01*
X0113564Y0061239D01*
X0114500Y0061053D01*
X0114627Y0061078D01*
X0114713Y0061072D01*
X0114788Y0061061D01*
X0114851Y0061047D01*
X0114902Y0061032D01*
X0114942Y0061016D01*
X0114974Y0061001D01*
X0114992Y0060990D01*
X0117991Y0057991D01*
X0117991Y0057991D01*
X0118454Y0057682D01*
X0119000Y0057573D01*
X0119000Y0057573D01*
X0168500D01*
X0168500Y0057573D01*
X0169046Y0057682D01*
X0169509Y0057991D01*
X0230759Y0119241D01*
X0231068Y0119704D01*
X0231177Y0120250D01*
X0231177Y0120250D01*
Y0187877D01*
X0231182Y0187898D01*
X0231193Y0187932D01*
X0231211Y0187971D01*
X0231236Y0188018D01*
X0231271Y0188072D01*
X0231317Y0188132D01*
X0231373Y0188198D01*
X0231480Y0188270D01*
X0231750Y0188673D01*
X0232250D01*
X0232520Y0188270D01*
X0232627Y0188198D01*
X0232683Y0188132D01*
X0232729Y0188072D01*
X0232764Y0188018D01*
X0232789Y0187971D01*
X0232806Y0187932D01*
X0232818Y0187898D01*
X0232823Y0187877D01*
Y0108341D01*
X0213967Y0089485D01*
X0213493Y0089718D01*
X0213530Y0090000D01*
X0213410Y0090914D01*
X0213057Y0091765D01*
X0212496Y0092496D01*
X0211765Y0093057D01*
X0210914Y0093410D01*
X0210000Y0093530D01*
X0209086Y0093410D01*
X0208235Y0093057D01*
X0207504Y0092496D01*
X0206943Y0091765D01*
X0206590Y0090914D01*
X0206470Y0090000D01*
X0206590Y0089086D01*
X0206943Y0088235D01*
X0207504Y0087504D01*
X0208235Y0086943D01*
X0209086Y0086590D01*
X0210000Y0086470D01*
X0210282Y0086507D01*
X0210515Y0086033D01*
X0189992Y0065510D01*
X0189974Y0065499D01*
X0189942Y0065483D01*
X0189902Y0065468D01*
X0189851Y0065453D01*
X0189788Y0065439D01*
X0189713Y0065428D01*
X0189627Y0065422D01*
X0189500Y0065447D01*
X0188564Y0065261D01*
X0187770Y0064730D01*
X0187239Y0063936D01*
X0187053Y0063000D01*
X0187239Y0062064D01*
X0187770Y0061270D01*
X0188564Y0060739D01*
X0189500Y0060553D01*
X0190436Y0060739D01*
X0191183Y0061238D01*
X0191217Y0061227D01*
X0191590Y0060914D01*
X0191470Y0060000D01*
X0191590Y0059086D01*
X0191943Y0058235D01*
X0192504Y0057504D01*
X0193235Y0056943D01*
X0194086Y0056590D01*
X0195000Y0056470D01*
X0195914Y0056590D01*
X0196765Y0056943D01*
X0197496Y0057504D01*
X0198057Y0058235D01*
X0198410Y0059086D01*
X0198530Y0060000D01*
X0198410Y0060914D01*
X0198057Y0061765D01*
X0197496Y0062496D01*
X0196765Y0063057D01*
X0195914Y0063410D01*
X0195000Y0063530D01*
X0194086Y0063410D01*
X0193235Y0063057D01*
X0192504Y0062496D01*
X0192305Y0062237D01*
X0191838Y0062449D01*
X0191947Y0063000D01*
X0191922Y0063127D01*
X0191928Y0063213D01*
X0191939Y0063288D01*
X0191953Y0063351D01*
X0191968Y0063402D01*
X0191983Y0063442D01*
X0191999Y0063474D01*
X0192010Y0063492D01*
X0235259Y0106741D01*
X0235259Y0106741D01*
X0235568Y0107204D01*
X0235677Y0107750D01*
X0235677Y0107750D01*
Y0187877D01*
X0235682Y0187898D01*
X0235694Y0187932D01*
X0235711Y0187971D01*
X0235736Y0188018D01*
X0235771Y0188072D01*
X0235817Y0188132D01*
X0235873Y0188198D01*
X0235980Y0188270D01*
X0236511Y0189064D01*
X0236697Y0190000D01*
X0236511Y0190936D01*
X0235980Y0191730D01*
X0235186Y0192261D01*
X0234250Y0192447D01*
D02*
G37*
G36*
X0262750Y0207529D02*
X0261574Y0207413D01*
X0260443Y0207070D01*
X0259401Y0206513D01*
X0258487Y0205763D01*
X0257737Y0204850D01*
X0257180Y0203807D01*
X0256837Y0202676D01*
X0256721Y0201500D01*
X0256837Y0200324D01*
X0257180Y0199193D01*
X0257737Y0198151D01*
X0258487Y0197237D01*
X0259401Y0196487D01*
X0260267Y0196024D01*
X0260278Y0195996D01*
Y0195504D01*
X0260267Y0195476D01*
X0259401Y0195013D01*
X0258487Y0194263D01*
X0257737Y0193350D01*
X0257180Y0192307D01*
X0256837Y0191176D01*
X0256721Y0190000D01*
X0256837Y0188824D01*
X0257180Y0187693D01*
X0257737Y0186651D01*
X0258487Y0185737D01*
X0259401Y0184987D01*
X0260443Y0184430D01*
X0261574Y0184087D01*
X0262750Y0183971D01*
X0263926Y0184087D01*
X0265057Y0184430D01*
X0266100Y0184987D01*
X0267013Y0185737D01*
X0267763Y0186651D01*
X0268320Y0187693D01*
X0268663Y0188824D01*
X0268779Y0190000D01*
X0268663Y0191176D01*
X0268320Y0192307D01*
X0267763Y0193350D01*
X0267013Y0194263D01*
X0266100Y0195013D01*
X0265233Y0195476D01*
X0265222Y0195504D01*
Y0195996D01*
X0265233Y0196024D01*
X0266100Y0196487D01*
X0267013Y0197237D01*
X0267763Y0198151D01*
X0268320Y0199193D01*
X0268663Y0200324D01*
X0268779Y0201500D01*
X0268663Y0202676D01*
X0268320Y0203807D01*
X0267763Y0204850D01*
X0267013Y0205763D01*
X0266100Y0206513D01*
X0265057Y0207070D01*
X0263926Y0207413D01*
X0262750Y0207529D01*
D02*
G37*
G36*
X0247000Y0207779D02*
X0245824Y0207663D01*
X0244693Y0207320D01*
X0243651Y0206763D01*
X0242737Y0206013D01*
X0241987Y0205100D01*
X0241430Y0204057D01*
X0241087Y0202926D01*
X0240971Y0201750D01*
X0241087Y0200574D01*
X0241430Y0199443D01*
X0241987Y0198400D01*
X0242737Y0197487D01*
X0243651Y0196737D01*
X0244693Y0196180D01*
X0244874Y0196125D01*
Y0195625D01*
X0244693Y0195570D01*
X0243651Y0195013D01*
X0242737Y0194263D01*
X0241987Y0193350D01*
X0241430Y0192307D01*
X0241087Y0191176D01*
X0240971Y0190000D01*
X0241087Y0188824D01*
X0241430Y0187693D01*
X0241987Y0186651D01*
X0242737Y0185737D01*
X0243651Y0184987D01*
X0244693Y0184430D01*
X0245824Y0184087D01*
X0247000Y0183971D01*
X0248176Y0184087D01*
X0249307Y0184430D01*
X0250349Y0184987D01*
X0251263Y0185737D01*
X0252013Y0186651D01*
X0252570Y0187693D01*
X0252913Y0188824D01*
X0253029Y0190000D01*
X0252913Y0191176D01*
X0252570Y0192307D01*
X0252013Y0193350D01*
X0251263Y0194263D01*
X0250349Y0195013D01*
X0249307Y0195570D01*
X0249126Y0195625D01*
Y0196125D01*
X0249307Y0196180D01*
X0250349Y0196737D01*
X0251263Y0197487D01*
X0252013Y0198400D01*
X0252570Y0199443D01*
X0252913Y0200574D01*
X0253029Y0201750D01*
X0252913Y0202926D01*
X0252570Y0204057D01*
X0252013Y0205100D01*
X0251263Y0206013D01*
X0250349Y0206763D01*
X0249307Y0207320D01*
X0248176Y0207663D01*
X0247000Y0207779D01*
D02*
G37*
G36*
X0345000Y0183530D02*
X0344086Y0183410D01*
X0343235Y0183057D01*
X0342504Y0182496D01*
X0341943Y0181765D01*
X0341590Y0180914D01*
X0341470Y0180000D01*
X0341590Y0179086D01*
X0341943Y0178235D01*
X0342504Y0177504D01*
X0343235Y0176943D01*
X0344086Y0176590D01*
X0345000Y0176470D01*
X0345914Y0176590D01*
X0346765Y0176943D01*
X0347496Y0177504D01*
X0348057Y0178235D01*
X0348410Y0179086D01*
X0348530Y0180000D01*
X0348410Y0180914D01*
X0348057Y0181765D01*
X0347496Y0182496D01*
X0346765Y0183057D01*
X0345914Y0183410D01*
X0345000Y0183530D01*
D02*
G37*
G36*
X0315000D02*
X0314086Y0183410D01*
X0313235Y0183057D01*
X0312504Y0182496D01*
X0311943Y0181765D01*
X0311590Y0180914D01*
X0311470Y0180000D01*
X0311590Y0179086D01*
X0311943Y0178235D01*
X0312504Y0177504D01*
X0313235Y0176943D01*
X0314086Y0176590D01*
X0315000Y0176470D01*
X0315914Y0176590D01*
X0316765Y0176943D01*
X0317496Y0177504D01*
X0318057Y0178235D01*
X0318410Y0179086D01*
X0318530Y0180000D01*
X0318410Y0180914D01*
X0318057Y0181765D01*
X0317496Y0182496D01*
X0316765Y0183057D01*
X0315914Y0183410D01*
X0315000Y0183530D01*
D02*
G37*
G36*
X0045000D02*
X0044086Y0183410D01*
X0043235Y0183057D01*
X0042504Y0182496D01*
X0041943Y0181765D01*
X0041590Y0180914D01*
X0041470Y0180000D01*
X0041590Y0179086D01*
X0041943Y0178235D01*
X0042504Y0177504D01*
X0043235Y0176943D01*
X0044086Y0176590D01*
X0045000Y0176470D01*
X0045914Y0176590D01*
X0046765Y0176943D01*
X0047496Y0177504D01*
X0048057Y0178235D01*
X0048410Y0179086D01*
X0048530Y0180000D01*
X0048410Y0180914D01*
X0048057Y0181765D01*
X0047496Y0182496D01*
X0046765Y0183057D01*
X0045914Y0183410D01*
X0045000Y0183530D01*
D02*
G37*
G36*
X0085953Y0189861D02*
X0080047D01*
X0079015Y0189725D01*
X0078053Y0189327D01*
X0077228Y0188693D01*
X0076594Y0187868D01*
X0076196Y0186906D01*
X0076060Y0185874D01*
X0076196Y0184842D01*
X0076594Y0183880D01*
X0077228Y0183055D01*
X0078053Y0182421D01*
X0078569Y0182208D01*
Y0181666D01*
X0078053Y0181453D01*
X0077228Y0180819D01*
X0076594Y0179994D01*
X0076196Y0179032D01*
X0076060Y0178000D01*
X0076196Y0176968D01*
X0076594Y0176006D01*
X0077228Y0175181D01*
X0078053Y0174547D01*
X0079015Y0174149D01*
X0079283Y0174113D01*
X0079283Y0173609D01*
X0079119Y0173588D01*
X0078255Y0173230D01*
X0077513Y0172660D01*
X0076943Y0171918D01*
X0076586Y0171054D01*
X0076529Y0170626D01*
X0089471D01*
X0089415Y0171054D01*
X0089056Y0171918D01*
X0088487Y0172660D01*
X0087745Y0173230D01*
X0086880Y0173588D01*
X0086717Y0173609D01*
X0086717Y0174113D01*
X0086985Y0174149D01*
X0087947Y0174547D01*
X0088772Y0175181D01*
X0089406Y0176006D01*
X0089804Y0176968D01*
X0089940Y0178000D01*
X0089804Y0179032D01*
X0089406Y0179994D01*
X0088772Y0180819D01*
X0087947Y0181453D01*
X0087431Y0181666D01*
Y0182208D01*
X0087947Y0182421D01*
X0088772Y0183055D01*
X0089406Y0183880D01*
X0089804Y0184842D01*
X0089940Y0185874D01*
X0089804Y0186906D01*
X0089406Y0187868D01*
X0088772Y0188693D01*
X0087947Y0189327D01*
X0086985Y0189725D01*
X0085953Y0189861D01*
D02*
G37*
G36*
X0359449Y0172868D02*
X0358521Y0172683D01*
X0357734Y0172157D01*
X0357209Y0171371D01*
X0357024Y0170443D01*
X0357209Y0169515D01*
X0357734Y0168728D01*
X0358521Y0168203D01*
X0359449Y0168018D01*
X0360377Y0168203D01*
X0361163Y0168728D01*
X0361689Y0169515D01*
X0361873Y0170443D01*
X0361689Y0171371D01*
X0361163Y0172157D01*
X0360377Y0172683D01*
X0359449Y0172868D01*
D02*
G37*
G36*
X0089471Y0169626D02*
X0083500D01*
Y0166542D01*
X0085953D01*
X0086880Y0166665D01*
X0087745Y0167023D01*
X0088487Y0167592D01*
X0089056Y0168334D01*
X0089415Y0169199D01*
X0089471Y0169626D01*
D02*
G37*
G36*
X0082500D02*
X0076529D01*
X0076586Y0169199D01*
X0076943Y0168334D01*
X0077513Y0167592D01*
X0078255Y0167023D01*
X0079119Y0166665D01*
X0080047Y0166542D01*
X0082500D01*
Y0169626D01*
D02*
G37*
G36*
X0136250Y0168333D02*
Y0163250D01*
X0141332D01*
X0141206Y0164212D01*
X0140642Y0165574D01*
X0139744Y0166744D01*
X0138574Y0167642D01*
X0137212Y0168206D01*
X0136250Y0168333D01*
D02*
G37*
G36*
X0135250D02*
X0134288Y0168206D01*
X0132926Y0167642D01*
X0131756Y0166744D01*
X0130858Y0165574D01*
X0130294Y0164212D01*
X0130167Y0163250D01*
X0135250D01*
Y0168333D01*
D02*
G37*
G36*
X0141332Y0162250D02*
X0136250D01*
Y0157167D01*
X0137212Y0157294D01*
X0138574Y0157858D01*
X0139744Y0158756D01*
X0140642Y0159926D01*
X0141206Y0161288D01*
X0141332Y0162250D01*
D02*
G37*
G36*
X0135250D02*
X0130167D01*
X0130294Y0161288D01*
X0130858Y0159926D01*
X0131756Y0158756D01*
X0132926Y0157858D01*
X0134288Y0157294D01*
X0135250Y0157167D01*
Y0162250D01*
D02*
G37*
G36*
X0258000Y0181197D02*
X0257064Y0181011D01*
X0256270Y0180480D01*
X0255739Y0179686D01*
X0255553Y0178750D01*
X0255739Y0177814D01*
X0256270Y0177020D01*
X0256377Y0176948D01*
X0256433Y0176883D01*
X0256479Y0176822D01*
X0256513Y0176768D01*
X0256539Y0176722D01*
X0256556Y0176682D01*
X0256567Y0176648D01*
X0256573Y0176627D01*
Y0159748D01*
X0256567Y0159727D01*
X0256556Y0159693D01*
X0256539Y0159653D01*
X0256513Y0159607D01*
X0256479Y0159553D01*
X0256433Y0159492D01*
X0256377Y0159427D01*
X0256270Y0159355D01*
X0255739Y0158561D01*
X0255553Y0157625D01*
X0255739Y0156689D01*
X0256270Y0155895D01*
X0257064Y0155364D01*
X0258000Y0155178D01*
X0258936Y0155364D01*
X0259730Y0155895D01*
X0260261Y0156689D01*
X0260447Y0157625D01*
X0260261Y0158561D01*
X0259730Y0159355D01*
X0259623Y0159427D01*
X0259567Y0159492D01*
X0259521Y0159553D01*
X0259487Y0159607D01*
X0259461Y0159653D01*
X0259444Y0159693D01*
X0259433Y0159727D01*
X0259427Y0159748D01*
Y0176627D01*
X0259433Y0176648D01*
X0259444Y0176682D01*
X0259461Y0176722D01*
X0259487Y0176768D01*
X0259521Y0176822D01*
X0259567Y0176883D01*
X0259623Y0176948D01*
X0259730Y0177020D01*
X0260261Y0177814D01*
X0260447Y0178750D01*
X0260261Y0179686D01*
X0259730Y0180480D01*
X0258936Y0181011D01*
X0258000Y0181197D01*
D02*
G37*
G36*
X0359449Y0156529D02*
X0358521Y0156344D01*
X0357734Y0155819D01*
X0357209Y0155032D01*
X0357024Y0154104D01*
X0357209Y0153176D01*
X0357734Y0152390D01*
X0358521Y0151864D01*
X0359449Y0151680D01*
X0360377Y0151864D01*
X0361163Y0152390D01*
X0361689Y0153176D01*
X0361873Y0154104D01*
X0361689Y0155032D01*
X0361163Y0155819D01*
X0360377Y0156344D01*
X0359449Y0156529D01*
D02*
G37*
G36*
X0060000Y0153530D02*
X0059086Y0153410D01*
X0058235Y0153057D01*
X0057504Y0152496D01*
X0056943Y0151765D01*
X0056590Y0150914D01*
X0056470Y0150000D01*
X0056486Y0149874D01*
X0056041Y0149428D01*
X0055441Y0149507D01*
X0054409Y0149371D01*
X0053447Y0148973D01*
X0052622Y0148339D01*
X0051988Y0147514D01*
X0051775Y0146998D01*
X0051233D01*
X0051020Y0147514D01*
X0050386Y0148339D01*
X0049561Y0148973D01*
X0048599Y0149371D01*
X0047567Y0149507D01*
X0046535Y0149371D01*
X0045573Y0148973D01*
X0044748Y0148339D01*
X0044114Y0147514D01*
X0043716Y0146552D01*
X0043680Y0146284D01*
X0043176Y0146284D01*
X0043155Y0146448D01*
X0042796Y0147312D01*
X0042227Y0148054D01*
X0041485Y0148624D01*
X0040620Y0148981D01*
X0040193Y0149038D01*
Y0142567D01*
Y0136096D01*
X0040620Y0136152D01*
X0041485Y0136511D01*
X0042227Y0137080D01*
X0042796Y0137822D01*
X0043155Y0138687D01*
X0043176Y0138850D01*
X0043680Y0138850D01*
X0043716Y0138582D01*
X0044114Y0137620D01*
X0044748Y0136795D01*
X0045573Y0136161D01*
X0046535Y0135763D01*
X0047567Y0135627D01*
X0048599Y0135763D01*
X0049561Y0136161D01*
X0050386Y0136795D01*
X0051020Y0137620D01*
X0051233Y0138136D01*
X0051775D01*
X0051988Y0137620D01*
X0052622Y0136795D01*
X0053447Y0136161D01*
X0054409Y0135763D01*
X0055441Y0135627D01*
X0056473Y0135763D01*
X0057435Y0136161D01*
X0058260Y0136795D01*
X0058894Y0137620D01*
X0059292Y0138582D01*
X0059428Y0139614D01*
Y0145520D01*
X0059358Y0146050D01*
X0059804Y0146496D01*
X0060000Y0146470D01*
X0060914Y0146590D01*
X0061765Y0146943D01*
X0062496Y0147504D01*
X0063057Y0148235D01*
X0063410Y0149086D01*
X0063530Y0150000D01*
X0063410Y0150914D01*
X0063057Y0151765D01*
X0062496Y0152496D01*
X0061765Y0153057D01*
X0060914Y0153410D01*
X0060000Y0153530D01*
D02*
G37*
G36*
X0330000D02*
X0329086Y0153410D01*
X0328235Y0153057D01*
X0327504Y0152496D01*
X0326943Y0151765D01*
X0326590Y0150914D01*
X0326470Y0150000D01*
X0326590Y0149086D01*
X0326943Y0148235D01*
X0327504Y0147504D01*
X0328235Y0146943D01*
X0329086Y0146590D01*
X0330000Y0146470D01*
X0330914Y0146590D01*
X0331765Y0146943D01*
X0332496Y0147504D01*
X0333057Y0148235D01*
X0333410Y0149086D01*
X0333530Y0150000D01*
X0333410Y0150914D01*
X0333057Y0151765D01*
X0332496Y0152496D01*
X0331765Y0153057D01*
X0330914Y0153410D01*
X0330000Y0153530D01*
D02*
G37*
G36*
X0300000D02*
X0299086Y0153410D01*
X0298235Y0153057D01*
X0297504Y0152496D01*
X0296943Y0151765D01*
X0296590Y0150914D01*
X0296470Y0150000D01*
X0296590Y0149086D01*
X0296943Y0148235D01*
X0297504Y0147504D01*
X0298235Y0146943D01*
X0299086Y0146590D01*
X0300000Y0146470D01*
X0300914Y0146590D01*
X0301765Y0146943D01*
X0302496Y0147504D01*
X0303057Y0148235D01*
X0303410Y0149086D01*
X0303530Y0150000D01*
X0303410Y0150914D01*
X0303057Y0151765D01*
X0302496Y0152496D01*
X0301765Y0153057D01*
X0300914Y0153410D01*
X0300000Y0153530D01*
D02*
G37*
G36*
X0210000D02*
X0209086Y0153410D01*
X0208235Y0153057D01*
X0207504Y0152496D01*
X0206943Y0151765D01*
X0206590Y0150914D01*
X0206470Y0150000D01*
X0206590Y0149086D01*
X0206943Y0148235D01*
X0207504Y0147504D01*
X0208235Y0146943D01*
X0209086Y0146590D01*
X0210000Y0146470D01*
X0210914Y0146590D01*
X0211765Y0146943D01*
X0212496Y0147504D01*
X0213057Y0148235D01*
X0213410Y0149086D01*
X0213530Y0150000D01*
X0213410Y0150914D01*
X0213057Y0151765D01*
X0212496Y0152496D01*
X0211765Y0153057D01*
X0210914Y0153410D01*
X0210000Y0153530D01*
D02*
G37*
G36*
X0090000D02*
X0089086Y0153410D01*
X0088235Y0153057D01*
X0087504Y0152496D01*
X0086943Y0151765D01*
X0086590Y0150914D01*
X0086470Y0150000D01*
X0086590Y0149086D01*
X0086943Y0148235D01*
X0087504Y0147504D01*
X0088235Y0146943D01*
X0089086Y0146590D01*
X0090000Y0146470D01*
X0090914Y0146590D01*
X0091765Y0146943D01*
X0092496Y0147504D01*
X0093057Y0148235D01*
X0093410Y0149086D01*
X0093530Y0150000D01*
X0093410Y0150914D01*
X0093057Y0151765D01*
X0092496Y0152496D01*
X0091765Y0153057D01*
X0090914Y0153410D01*
X0090000Y0153530D01*
D02*
G37*
G36*
X0030000D02*
X0029086Y0153410D01*
X0028235Y0153057D01*
X0027504Y0152496D01*
X0026943Y0151765D01*
X0026590Y0150914D01*
X0026470Y0150000D01*
X0026590Y0149086D01*
X0026943Y0148235D01*
X0027504Y0147504D01*
X0028235Y0146943D01*
X0029086Y0146590D01*
X0030000Y0146470D01*
X0030914Y0146590D01*
X0031765Y0146943D01*
X0032496Y0147504D01*
X0033057Y0148235D01*
X0033410Y0149086D01*
X0033530Y0150000D01*
X0033410Y0150914D01*
X0033057Y0151765D01*
X0032496Y0152496D01*
X0031765Y0153057D01*
X0030914Y0153410D01*
X0030000Y0153530D01*
D02*
G37*
G36*
X0039193Y0149038D02*
X0038765Y0148981D01*
X0037901Y0148624D01*
X0037159Y0148054D01*
X0036590Y0147312D01*
X0036231Y0146448D01*
X0036109Y0145520D01*
Y0143067D01*
X0039193D01*
Y0149038D01*
D02*
G37*
G36*
Y0142067D02*
X0036109D01*
Y0139614D01*
X0036231Y0138687D01*
X0036590Y0137822D01*
X0037159Y0137080D01*
X0037901Y0136511D01*
X0038765Y0136152D01*
X0039193Y0136096D01*
Y0142067D01*
D02*
G37*
G36*
X0153500Y0128043D02*
Y0122500D01*
X0159043D01*
X0158975Y0123188D01*
X0158628Y0124331D01*
X0158065Y0125384D01*
X0157308Y0126308D01*
X0156385Y0127065D01*
X0155331Y0127628D01*
X0154189Y0127975D01*
X0153500Y0128043D01*
D02*
G37*
G36*
X0152500D02*
X0151812Y0127975D01*
X0150669Y0127628D01*
X0149616Y0127065D01*
X0148692Y0126308D01*
X0147935Y0125384D01*
X0147372Y0124331D01*
X0147025Y0123188D01*
X0146957Y0122500D01*
X0152500D01*
Y0128043D01*
D02*
G37*
G36*
X0375000Y0123530D02*
X0374086Y0123410D01*
X0373235Y0123057D01*
X0372504Y0122496D01*
X0371943Y0121765D01*
X0371590Y0120914D01*
X0371470Y0120000D01*
X0371590Y0119086D01*
X0371943Y0118235D01*
X0372504Y0117504D01*
X0373235Y0116943D01*
X0374086Y0116590D01*
X0375000Y0116470D01*
X0375914Y0116590D01*
X0376765Y0116943D01*
X0377496Y0117504D01*
X0378057Y0118235D01*
X0378410Y0119086D01*
X0378530Y0120000D01*
X0378410Y0120914D01*
X0378057Y0121765D01*
X0377496Y0122496D01*
X0376765Y0123057D01*
X0375914Y0123410D01*
X0375000Y0123530D01*
D02*
G37*
G36*
X0345000D02*
X0344086Y0123410D01*
X0343235Y0123057D01*
X0342504Y0122496D01*
X0341943Y0121765D01*
X0341590Y0120914D01*
X0341470Y0120000D01*
X0341590Y0119086D01*
X0341943Y0118235D01*
X0342504Y0117504D01*
X0343235Y0116943D01*
X0344086Y0116590D01*
X0345000Y0116470D01*
X0345914Y0116590D01*
X0346765Y0116943D01*
X0347496Y0117504D01*
X0348057Y0118235D01*
X0348410Y0119086D01*
X0348530Y0120000D01*
X0348410Y0120914D01*
X0348057Y0121765D01*
X0347496Y0122496D01*
X0346765Y0123057D01*
X0345914Y0123410D01*
X0345000Y0123530D01*
D02*
G37*
G36*
X0315000D02*
X0314086Y0123410D01*
X0313235Y0123057D01*
X0312504Y0122496D01*
X0311943Y0121765D01*
X0311590Y0120914D01*
X0311470Y0120000D01*
X0311590Y0119086D01*
X0311943Y0118235D01*
X0312504Y0117504D01*
X0313235Y0116943D01*
X0314086Y0116590D01*
X0315000Y0116470D01*
X0315914Y0116590D01*
X0316765Y0116943D01*
X0317496Y0117504D01*
X0318057Y0118235D01*
X0318410Y0119086D01*
X0318530Y0120000D01*
X0318410Y0120914D01*
X0318057Y0121765D01*
X0317496Y0122496D01*
X0316765Y0123057D01*
X0315914Y0123410D01*
X0315000Y0123530D01*
D02*
G37*
G36*
X0285000D02*
X0284086Y0123410D01*
X0283235Y0123057D01*
X0282504Y0122496D01*
X0281943Y0121765D01*
X0281590Y0120914D01*
X0281470Y0120000D01*
X0281590Y0119086D01*
X0281943Y0118235D01*
X0282504Y0117504D01*
X0283235Y0116943D01*
X0284086Y0116590D01*
X0285000Y0116470D01*
X0285914Y0116590D01*
X0286765Y0116943D01*
X0287496Y0117504D01*
X0288057Y0118235D01*
X0288410Y0119086D01*
X0288530Y0120000D01*
X0288410Y0120914D01*
X0288057Y0121765D01*
X0287496Y0122496D01*
X0286765Y0123057D01*
X0285914Y0123410D01*
X0285000Y0123530D01*
D02*
G37*
G36*
X0255000D02*
X0254086Y0123410D01*
X0253235Y0123057D01*
X0252504Y0122496D01*
X0251943Y0121765D01*
X0251590Y0120914D01*
X0251470Y0120000D01*
X0251590Y0119086D01*
X0251943Y0118235D01*
X0252504Y0117504D01*
X0253235Y0116943D01*
X0254086Y0116590D01*
X0255000Y0116470D01*
X0255914Y0116590D01*
X0256765Y0116943D01*
X0257496Y0117504D01*
X0258057Y0118235D01*
X0258410Y0119086D01*
X0258530Y0120000D01*
X0258410Y0120914D01*
X0258057Y0121765D01*
X0257496Y0122496D01*
X0256765Y0123057D01*
X0255914Y0123410D01*
X0255000Y0123530D01*
D02*
G37*
G36*
X0159043Y0121500D02*
X0153500D01*
Y0115957D01*
X0154189Y0116025D01*
X0155331Y0116372D01*
X0156385Y0116935D01*
X0157308Y0117692D01*
X0158065Y0118615D01*
X0158628Y0119669D01*
X0158975Y0120811D01*
X0159043Y0121500D01*
D02*
G37*
G36*
X0152500D02*
X0146957D01*
X0147025Y0120811D01*
X0147372Y0119669D01*
X0147935Y0118615D01*
X0148692Y0117692D01*
X0149616Y0116935D01*
X0150669Y0116372D01*
X0151812Y0116025D01*
X0152500Y0115957D01*
Y0121500D01*
D02*
G37*
G36*
X0171504Y0128494D02*
X0170237Y0128369D01*
X0169019Y0127999D01*
X0167896Y0127400D01*
X0166912Y0126592D01*
X0166104Y0125608D01*
X0165504Y0124485D01*
X0165135Y0123267D01*
X0165010Y0122000D01*
X0165135Y0120733D01*
X0165504Y0119515D01*
X0166104Y0118392D01*
X0166912Y0117408D01*
X0167896Y0116601D01*
X0169019Y0116000D01*
X0170237Y0115631D01*
X0171504Y0115506D01*
X0172771Y0115631D01*
X0173989Y0116000D01*
X0175112Y0116601D01*
X0176096Y0117408D01*
X0176903Y0118392D01*
X0177504Y0119515D01*
X0177873Y0120733D01*
X0177998Y0122000D01*
X0177873Y0123267D01*
X0177504Y0124485D01*
X0176903Y0125608D01*
X0176096Y0126592D01*
X0175112Y0127400D01*
X0173989Y0127999D01*
X0172771Y0128369D01*
X0171504Y0128494D01*
D02*
G37*
G36*
X0134496D02*
X0133229Y0128369D01*
X0132011Y0127999D01*
X0130888Y0127400D01*
X0129904Y0126592D01*
X0129097Y0125608D01*
X0128497Y0124485D01*
X0128127Y0123267D01*
X0128002Y0122000D01*
X0128127Y0120733D01*
X0128497Y0119515D01*
X0129097Y0118392D01*
X0129904Y0117408D01*
X0130888Y0116601D01*
X0132011Y0116000D01*
X0133229Y0115631D01*
X0134496Y0115506D01*
X0135763Y0115631D01*
X0136981Y0116000D01*
X0138104Y0116601D01*
X0139088Y0117408D01*
X0139895Y0118392D01*
X0140496Y0119515D01*
X0140865Y0120733D01*
X0140990Y0122000D01*
X0140865Y0123267D01*
X0140496Y0124485D01*
X0139895Y0125608D01*
X0139088Y0126592D01*
X0138104Y0127400D01*
X0136981Y0127999D01*
X0135763Y0128369D01*
X0134496Y0128494D01*
D02*
G37*
G36*
X0322685Y0115568D02*
Y0112272D01*
X0325981D01*
X0325915Y0112771D01*
X0325529Y0113703D01*
X0324915Y0114502D01*
X0324116Y0115116D01*
X0323184Y0115502D01*
X0322685Y0115568D01*
D02*
G37*
G36*
X0321685D02*
X0321186Y0115502D01*
X0320254Y0115116D01*
X0319455Y0114502D01*
X0318841Y0113703D01*
X0318455Y0112771D01*
X0318390Y0112272D01*
X0321685D01*
Y0115568D01*
D02*
G37*
G36*
X0325981Y0111272D02*
X0322685D01*
Y0107976D01*
X0323184Y0108042D01*
X0324116Y0108428D01*
X0324915Y0109042D01*
X0325529Y0109841D01*
X0325915Y0110773D01*
X0325981Y0111272D01*
D02*
G37*
G36*
X0321685D02*
X0318390D01*
X0318455Y0110773D01*
X0318841Y0109841D01*
X0319455Y0109042D01*
X0320254Y0108428D01*
X0321186Y0108042D01*
X0321685Y0107976D01*
Y0111272D01*
D02*
G37*
G36*
X0302500Y0116037D02*
X0301396Y0115892D01*
X0300368Y0115465D01*
X0299484Y0114788D01*
X0298807Y0113904D01*
X0298380Y0112876D01*
X0298235Y0111772D01*
X0298380Y0110668D01*
X0298807Y0109640D01*
X0299484Y0108756D01*
X0300368Y0108079D01*
X0301396Y0107652D01*
X0302500Y0107507D01*
X0303604Y0107652D01*
X0304632Y0108079D01*
X0305516Y0108756D01*
X0306193Y0109640D01*
X0306620Y0110668D01*
X0306765Y0111772D01*
X0306620Y0112876D01*
X0306193Y0113904D01*
X0305516Y0114788D01*
X0304632Y0115465D01*
X0303604Y0115892D01*
X0302500Y0116037D01*
D02*
G37*
G36*
Y0096352D02*
X0301396Y0096206D01*
X0300368Y0095780D01*
X0299484Y0095103D01*
X0298807Y0094219D01*
X0298380Y0093191D01*
X0298235Y0092087D01*
X0298380Y0090983D01*
X0298807Y0089955D01*
X0299484Y0089071D01*
X0300368Y0088393D01*
X0301396Y0087967D01*
X0302500Y0087822D01*
X0303604Y0087967D01*
X0304632Y0088393D01*
X0305516Y0089071D01*
X0306193Y0089955D01*
X0306620Y0090983D01*
X0306765Y0092087D01*
X0306620Y0093191D01*
X0306193Y0094219D01*
X0305516Y0095103D01*
X0304632Y0095780D01*
X0303604Y0096206D01*
X0302500Y0096352D01*
D02*
G37*
G36*
X0360000Y0093530D02*
X0359086Y0093410D01*
X0358235Y0093057D01*
X0357504Y0092496D01*
X0356943Y0091765D01*
X0356590Y0090914D01*
X0356470Y0090000D01*
X0356590Y0089086D01*
X0356943Y0088235D01*
X0357504Y0087504D01*
X0358235Y0086943D01*
X0359086Y0086590D01*
X0360000Y0086470D01*
X0360914Y0086590D01*
X0361765Y0086943D01*
X0362496Y0087504D01*
X0363057Y0088235D01*
X0363410Y0089086D01*
X0363530Y0090000D01*
X0363410Y0090914D01*
X0363057Y0091765D01*
X0362496Y0092496D01*
X0361765Y0093057D01*
X0360914Y0093410D01*
X0360000Y0093530D01*
D02*
G37*
G36*
X0322185Y0096352D02*
X0321081Y0096206D01*
X0320053Y0095780D01*
X0319169Y0095103D01*
X0318492Y0094219D01*
X0318066Y0093191D01*
X0317920Y0092087D01*
X0318066Y0090983D01*
X0318492Y0089955D01*
X0319169Y0089071D01*
X0320053Y0088393D01*
X0321081Y0087967D01*
X0322185Y0087822D01*
X0323289Y0087967D01*
X0324318Y0088393D01*
X0325201Y0089071D01*
X0325879Y0089955D01*
X0325997Y0090241D01*
X0326484Y0090111D01*
X0326470Y0090000D01*
X0326590Y0089086D01*
X0326943Y0088235D01*
X0327504Y0087504D01*
X0328235Y0086943D01*
X0329086Y0086590D01*
X0330000Y0086470D01*
X0330914Y0086590D01*
X0331765Y0086943D01*
X0332496Y0087504D01*
X0333057Y0088235D01*
X0333410Y0089086D01*
X0333530Y0090000D01*
X0333410Y0090914D01*
X0333057Y0091765D01*
X0332496Y0092496D01*
X0331765Y0093057D01*
X0330914Y0093410D01*
X0330000Y0093530D01*
X0329086Y0093410D01*
X0328235Y0093057D01*
X0327504Y0092496D01*
X0326943Y0091765D01*
X0326897Y0091656D01*
X0326410Y0091786D01*
X0326450Y0092087D01*
X0326305Y0093191D01*
X0325879Y0094219D01*
X0325201Y0095103D01*
X0324318Y0095780D01*
X0323289Y0096206D01*
X0322185Y0096352D01*
D02*
G37*
G36*
X0240000Y0093530D02*
X0239086Y0093410D01*
X0238235Y0093057D01*
X0237504Y0092496D01*
X0236943Y0091765D01*
X0236590Y0090914D01*
X0236470Y0090000D01*
X0236590Y0089086D01*
X0236943Y0088235D01*
X0237504Y0087504D01*
X0238235Y0086943D01*
X0239086Y0086590D01*
X0240000Y0086470D01*
X0240914Y0086590D01*
X0241765Y0086943D01*
X0242496Y0087504D01*
X0243057Y0088235D01*
X0243410Y0089086D01*
X0243530Y0090000D01*
X0243410Y0090914D01*
X0243057Y0091765D01*
X0242496Y0092496D01*
X0241765Y0093057D01*
X0240914Y0093410D01*
X0240000Y0093530D01*
D02*
G37*
G36*
X0150000D02*
X0149086Y0093410D01*
X0148235Y0093057D01*
X0147504Y0092496D01*
X0146943Y0091765D01*
X0146590Y0090914D01*
X0146470Y0090000D01*
X0146590Y0089086D01*
X0146943Y0088235D01*
X0147504Y0087504D01*
X0148235Y0086943D01*
X0149086Y0086590D01*
X0150000Y0086470D01*
X0150914Y0086590D01*
X0151765Y0086943D01*
X0152496Y0087504D01*
X0153057Y0088235D01*
X0153410Y0089086D01*
X0153530Y0090000D01*
X0153410Y0090914D01*
X0153057Y0091765D01*
X0152496Y0092496D01*
X0151765Y0093057D01*
X0150914Y0093410D01*
X0150000Y0093530D01*
D02*
G37*
G36*
X0090000D02*
X0089086Y0093410D01*
X0088235Y0093057D01*
X0087504Y0092496D01*
X0086943Y0091765D01*
X0086590Y0090914D01*
X0086470Y0090000D01*
X0086590Y0089086D01*
X0086943Y0088235D01*
X0087504Y0087504D01*
X0088235Y0086943D01*
X0089086Y0086590D01*
X0090000Y0086470D01*
X0090914Y0086590D01*
X0091765Y0086943D01*
X0092496Y0087504D01*
X0093057Y0088235D01*
X0093410Y0089086D01*
X0093530Y0090000D01*
X0093410Y0090914D01*
X0093057Y0091765D01*
X0092496Y0092496D01*
X0091765Y0093057D01*
X0090914Y0093410D01*
X0090000Y0093530D01*
D02*
G37*
G36*
X0060000D02*
X0059086Y0093410D01*
X0058235Y0093057D01*
X0057504Y0092496D01*
X0056943Y0091765D01*
X0056590Y0090914D01*
X0056470Y0090000D01*
X0056590Y0089086D01*
X0056943Y0088235D01*
X0057504Y0087504D01*
X0058235Y0086943D01*
X0059086Y0086590D01*
X0060000Y0086470D01*
X0060914Y0086590D01*
X0061765Y0086943D01*
X0062496Y0087504D01*
X0063057Y0088235D01*
X0063410Y0089086D01*
X0063530Y0090000D01*
X0063410Y0090914D01*
X0063057Y0091765D01*
X0062496Y0092496D01*
X0061765Y0093057D01*
X0060914Y0093410D01*
X0060000Y0093530D01*
D02*
G37*
G36*
X0030000D02*
X0029086Y0093410D01*
X0028235Y0093057D01*
X0027504Y0092496D01*
X0026943Y0091765D01*
X0026590Y0090914D01*
X0026470Y0090000D01*
X0026590Y0089086D01*
X0026943Y0088235D01*
X0027504Y0087504D01*
X0028235Y0086943D01*
X0029086Y0086590D01*
X0030000Y0086470D01*
X0030914Y0086590D01*
X0031765Y0086943D01*
X0032496Y0087504D01*
X0033057Y0088235D01*
X0033410Y0089086D01*
X0033530Y0090000D01*
X0033410Y0090914D01*
X0033057Y0091765D01*
X0032496Y0092496D01*
X0031765Y0093057D01*
X0030914Y0093410D01*
X0030000Y0093530D01*
D02*
G37*
G36*
X0153500Y0084121D02*
Y0081500D01*
X0156121D01*
X0156078Y0081825D01*
X0155759Y0082593D01*
X0155253Y0083253D01*
X0154593Y0083759D01*
X0153825Y0084078D01*
X0153500Y0084121D01*
D02*
G37*
G36*
X0152500D02*
X0152175Y0084078D01*
X0151407Y0083759D01*
X0150747Y0083253D01*
X0150241Y0082593D01*
X0149922Y0081825D01*
X0149880Y0081500D01*
X0152500D01*
Y0084121D01*
D02*
G37*
G36*
X0156121Y0080500D02*
X0153500D01*
Y0077880D01*
X0153825Y0077922D01*
X0154593Y0078241D01*
X0155253Y0078747D01*
X0155759Y0079407D01*
X0156078Y0080175D01*
X0156121Y0080500D01*
D02*
G37*
G36*
X0152500D02*
X0149880D01*
X0149922Y0080175D01*
X0150241Y0079407D01*
X0150747Y0078747D01*
X0151407Y0078241D01*
X0152175Y0077922D01*
X0152500Y0077880D01*
Y0080500D01*
D02*
G37*
G36*
X0163000Y0084590D02*
X0162071Y0084467D01*
X0161205Y0084109D01*
X0160462Y0083538D01*
X0159891Y0082795D01*
X0159533Y0081929D01*
X0159410Y0081000D01*
X0159533Y0080071D01*
X0159891Y0079205D01*
X0160462Y0078462D01*
X0161205Y0077891D01*
X0162071Y0077533D01*
X0163000Y0077410D01*
X0163929Y0077533D01*
X0164795Y0077891D01*
X0165538Y0078462D01*
X0166109Y0079205D01*
X0166467Y0080071D01*
X0166590Y0081000D01*
X0166467Y0081929D01*
X0166109Y0082795D01*
X0165538Y0083538D01*
X0164795Y0084109D01*
X0163929Y0084467D01*
X0163000Y0084590D01*
D02*
G37*
G36*
X0143000D02*
X0142071Y0084467D01*
X0141205Y0084109D01*
X0140462Y0083538D01*
X0139891Y0082795D01*
X0139533Y0081929D01*
X0139410Y0081000D01*
X0139533Y0080071D01*
X0139891Y0079205D01*
X0140462Y0078462D01*
X0141205Y0077891D01*
X0142071Y0077533D01*
X0143000Y0077410D01*
X0143929Y0077533D01*
X0144795Y0077891D01*
X0145538Y0078462D01*
X0146109Y0079205D01*
X0146467Y0080071D01*
X0146590Y0081000D01*
X0146467Y0081929D01*
X0146109Y0082795D01*
X0145538Y0083538D01*
X0144795Y0084109D01*
X0143929Y0084467D01*
X0143000Y0084590D01*
D02*
G37*
G36*
X0375000Y0063530D02*
X0374086Y0063410D01*
X0373235Y0063057D01*
X0372504Y0062496D01*
X0371943Y0061765D01*
X0371590Y0060914D01*
X0371470Y0060000D01*
X0371590Y0059086D01*
X0371943Y0058235D01*
X0372504Y0057504D01*
X0373235Y0056943D01*
X0374086Y0056590D01*
X0375000Y0056470D01*
X0375914Y0056590D01*
X0376765Y0056943D01*
X0377496Y0057504D01*
X0378057Y0058235D01*
X0378410Y0059086D01*
X0378530Y0060000D01*
X0378410Y0060914D01*
X0378057Y0061765D01*
X0377496Y0062496D01*
X0376765Y0063057D01*
X0375914Y0063410D01*
X0375000Y0063530D01*
D02*
G37*
G36*
X0345000D02*
X0344086Y0063410D01*
X0343235Y0063057D01*
X0342504Y0062496D01*
X0341943Y0061765D01*
X0341590Y0060914D01*
X0341470Y0060000D01*
X0341590Y0059086D01*
X0341943Y0058235D01*
X0342504Y0057504D01*
X0343235Y0056943D01*
X0344086Y0056590D01*
X0345000Y0056470D01*
X0345914Y0056590D01*
X0346765Y0056943D01*
X0347496Y0057504D01*
X0348057Y0058235D01*
X0348410Y0059086D01*
X0348530Y0060000D01*
X0348410Y0060914D01*
X0348057Y0061765D01*
X0347496Y0062496D01*
X0346765Y0063057D01*
X0345914Y0063410D01*
X0345000Y0063530D01*
D02*
G37*
G36*
X0315000D02*
X0314086Y0063410D01*
X0313235Y0063057D01*
X0312504Y0062496D01*
X0311943Y0061765D01*
X0311590Y0060914D01*
X0311470Y0060000D01*
X0311590Y0059086D01*
X0311943Y0058235D01*
X0312504Y0057504D01*
X0313235Y0056943D01*
X0314086Y0056590D01*
X0315000Y0056470D01*
X0315914Y0056590D01*
X0316765Y0056943D01*
X0317496Y0057504D01*
X0318057Y0058235D01*
X0318410Y0059086D01*
X0318530Y0060000D01*
X0318410Y0060914D01*
X0318057Y0061765D01*
X0317496Y0062496D01*
X0316765Y0063057D01*
X0315914Y0063410D01*
X0315000Y0063530D01*
D02*
G37*
G36*
X0285000D02*
X0284086Y0063410D01*
X0283235Y0063057D01*
X0282504Y0062496D01*
X0281943Y0061765D01*
X0281590Y0060914D01*
X0281470Y0060000D01*
X0281590Y0059086D01*
X0281943Y0058235D01*
X0282504Y0057504D01*
X0283235Y0056943D01*
X0284086Y0056590D01*
X0285000Y0056470D01*
X0285914Y0056590D01*
X0286765Y0056943D01*
X0287496Y0057504D01*
X0288057Y0058235D01*
X0288410Y0059086D01*
X0288530Y0060000D01*
X0288410Y0060914D01*
X0288057Y0061765D01*
X0287496Y0062496D01*
X0286765Y0063057D01*
X0285914Y0063410D01*
X0285000Y0063530D01*
D02*
G37*
G36*
X0225000D02*
X0224086Y0063410D01*
X0223235Y0063057D01*
X0222504Y0062496D01*
X0221943Y0061765D01*
X0221590Y0060914D01*
X0221470Y0060000D01*
X0221590Y0059086D01*
X0221943Y0058235D01*
X0222504Y0057504D01*
X0223235Y0056943D01*
X0224086Y0056590D01*
X0225000Y0056470D01*
X0225914Y0056590D01*
X0226765Y0056943D01*
X0227496Y0057504D01*
X0228057Y0058235D01*
X0228410Y0059086D01*
X0228530Y0060000D01*
X0228410Y0060914D01*
X0228057Y0061765D01*
X0227496Y0062496D01*
X0226765Y0063057D01*
X0225914Y0063410D01*
X0225000Y0063530D01*
D02*
G37*
G36*
X0105000D02*
X0104086Y0063410D01*
X0103235Y0063057D01*
X0102504Y0062496D01*
X0101943Y0061765D01*
X0101590Y0060914D01*
X0101470Y0060000D01*
X0101590Y0059086D01*
X0101943Y0058235D01*
X0102504Y0057504D01*
X0103235Y0056943D01*
X0104086Y0056590D01*
X0105000Y0056470D01*
X0105914Y0056590D01*
X0106765Y0056943D01*
X0107496Y0057504D01*
X0108057Y0058235D01*
X0108410Y0059086D01*
X0108530Y0060000D01*
X0108410Y0060914D01*
X0108057Y0061765D01*
X0107496Y0062496D01*
X0106765Y0063057D01*
X0105914Y0063410D01*
X0105000Y0063530D01*
D02*
G37*
G36*
X0075000D02*
X0074086Y0063410D01*
X0073235Y0063057D01*
X0072504Y0062496D01*
X0071943Y0061765D01*
X0071590Y0060914D01*
X0071470Y0060000D01*
X0071590Y0059086D01*
X0071943Y0058235D01*
X0072504Y0057504D01*
X0073235Y0056943D01*
X0074086Y0056590D01*
X0075000Y0056470D01*
X0075914Y0056590D01*
X0076765Y0056943D01*
X0077496Y0057504D01*
X0078057Y0058235D01*
X0078410Y0059086D01*
X0078530Y0060000D01*
X0078410Y0060914D01*
X0078057Y0061765D01*
X0077496Y0062496D01*
X0076765Y0063057D01*
X0075914Y0063410D01*
X0075000Y0063530D01*
D02*
G37*
G36*
X0045000D02*
X0044086Y0063410D01*
X0043235Y0063057D01*
X0042504Y0062496D01*
X0041943Y0061765D01*
X0041590Y0060914D01*
X0041470Y0060000D01*
X0041590Y0059086D01*
X0041943Y0058235D01*
X0042504Y0057504D01*
X0043235Y0056943D01*
X0044086Y0056590D01*
X0045000Y0056470D01*
X0045914Y0056590D01*
X0046765Y0056943D01*
X0047496Y0057504D01*
X0048057Y0058235D01*
X0048410Y0059086D01*
X0048530Y0060000D01*
X0048410Y0060914D01*
X0048057Y0061765D01*
X0047496Y0062496D01*
X0046765Y0063057D01*
X0045914Y0063410D01*
X0045000Y0063530D01*
D02*
G37*
G36*
X0200988Y0055120D02*
X0199808Y0055003D01*
X0198673Y0054659D01*
X0197628Y0054100D01*
X0196711Y0053348D01*
X0195959Y0052431D01*
X0195400Y0051386D01*
X0195056Y0050251D01*
X0194939Y0049071D01*
X0195056Y0047891D01*
X0195400Y0046756D01*
X0195959Y0045710D01*
X0196711Y0044794D01*
X0197628Y0044041D01*
X0198673Y0043483D01*
X0199808Y0043138D01*
X0200988Y0043022D01*
X0202168Y0043138D01*
X0203303Y0043483D01*
X0204349Y0044041D01*
X0205265Y0044794D01*
X0206018Y0045710D01*
X0206577Y0046756D01*
X0206921Y0047891D01*
X0207037Y0049071D01*
X0206921Y0050251D01*
X0206577Y0051386D01*
X0206018Y0052431D01*
X0205265Y0053348D01*
X0204349Y0054100D01*
X0203303Y0054659D01*
X0202168Y0055003D01*
X0200988Y0055120D01*
D02*
G37*
G36*
X0101776D02*
X0100595Y0055003D01*
X0099461Y0054659D01*
X0098415Y0054100D01*
X0097498Y0053348D01*
X0096746Y0052431D01*
X0096187Y0051386D01*
X0095843Y0050251D01*
X0095727Y0049071D01*
X0095843Y0047891D01*
X0096187Y0046756D01*
X0096746Y0045710D01*
X0097498Y0044794D01*
X0098415Y0044041D01*
X0099461Y0043483D01*
X0100595Y0043138D01*
X0101776Y0043022D01*
X0102956Y0043138D01*
X0104090Y0043483D01*
X0105136Y0044041D01*
X0106053Y0044794D01*
X0106805Y0045710D01*
X0107364Y0046756D01*
X0107708Y0047891D01*
X0107824Y0049071D01*
X0107708Y0050251D01*
X0107364Y0051386D01*
X0106805Y0052431D01*
X0106053Y0053348D01*
X0105136Y0054100D01*
X0104090Y0054659D01*
X0102956Y0055003D01*
X0101776Y0055120D01*
D02*
G37*
G36*
X0336606Y0050660D02*
X0335236Y0050480D01*
X0333958Y0049951D01*
X0332862Y0049109D01*
X0332020Y0048013D01*
X0331491Y0046736D01*
X0331311Y0045365D01*
X0331491Y0043995D01*
X0332020Y0042717D01*
X0332862Y0041621D01*
X0333958Y0040779D01*
X0335236Y0040250D01*
X0336606Y0040070D01*
X0337977Y0040250D01*
X0339254Y0040779D01*
X0340350Y0041621D01*
X0341192Y0042717D01*
X0341721Y0043995D01*
X0341901Y0045365D01*
X0341721Y0046736D01*
X0341192Y0048013D01*
X0340350Y0049109D01*
X0339254Y0049951D01*
X0337977Y0050480D01*
X0336606Y0050660D01*
D02*
G37*
G36*
X0216342Y0044008D02*
X0215157Y0043852D01*
X0214051Y0043394D01*
X0213102Y0042665D01*
X0212374Y0041716D01*
X0211916Y0040611D01*
X0211760Y0039425D01*
X0211916Y0038239D01*
X0212374Y0037134D01*
X0213102Y0036185D01*
X0214051Y0035457D01*
X0215157Y0034999D01*
X0216342Y0034843D01*
X0217529Y0034999D01*
X0218634Y0035457D01*
X0219583Y0036185D01*
X0220311Y0037134D01*
X0220769Y0038239D01*
X0220925Y0039425D01*
X0220769Y0040611D01*
X0220311Y0041716D01*
X0219583Y0042665D01*
X0218634Y0043394D01*
X0217529Y0043852D01*
X0216342Y0044008D01*
D02*
G37*
G36*
X0360000Y0033530D02*
X0359086Y0033410D01*
X0358235Y0033057D01*
X0357504Y0032496D01*
X0356943Y0031765D01*
X0356590Y0030914D01*
X0356470Y0030000D01*
X0356590Y0029086D01*
X0356943Y0028235D01*
X0357504Y0027504D01*
X0358235Y0026943D01*
X0359086Y0026590D01*
X0360000Y0026470D01*
X0360914Y0026590D01*
X0361765Y0026943D01*
X0362496Y0027504D01*
X0363057Y0028235D01*
X0363410Y0029086D01*
X0363530Y0030000D01*
X0363410Y0030914D01*
X0363057Y0031765D01*
X0362496Y0032496D01*
X0361765Y0033057D01*
X0360914Y0033410D01*
X0360000Y0033530D01*
D02*
G37*
G36*
X0300000D02*
X0299086Y0033410D01*
X0298235Y0033057D01*
X0297504Y0032496D01*
X0296943Y0031765D01*
X0296590Y0030914D01*
X0296470Y0030000D01*
X0296590Y0029086D01*
X0296943Y0028235D01*
X0297504Y0027504D01*
X0298235Y0026943D01*
X0299086Y0026590D01*
X0300000Y0026470D01*
X0300914Y0026590D01*
X0301765Y0026943D01*
X0302496Y0027504D01*
X0303057Y0028235D01*
X0303410Y0029086D01*
X0303530Y0030000D01*
X0303410Y0030914D01*
X0303057Y0031765D01*
X0302496Y0032496D01*
X0301765Y0033057D01*
X0300914Y0033410D01*
X0300000Y0033530D01*
D02*
G37*
G36*
X0240000D02*
X0239086Y0033410D01*
X0238235Y0033057D01*
X0237504Y0032496D01*
X0236943Y0031765D01*
X0236590Y0030914D01*
X0236470Y0030000D01*
X0236590Y0029086D01*
X0236943Y0028235D01*
X0237504Y0027504D01*
X0238235Y0026943D01*
X0239086Y0026590D01*
X0240000Y0026470D01*
X0240914Y0026590D01*
X0241765Y0026943D01*
X0242496Y0027504D01*
X0243057Y0028235D01*
X0243410Y0029086D01*
X0243530Y0030000D01*
X0243410Y0030914D01*
X0243057Y0031765D01*
X0242496Y0032496D01*
X0241765Y0033057D01*
X0240914Y0033410D01*
X0240000Y0033530D01*
D02*
G37*
G36*
X0180000D02*
X0179086Y0033410D01*
X0178235Y0033057D01*
X0177504Y0032496D01*
X0176943Y0031765D01*
X0176590Y0030914D01*
X0176470Y0030000D01*
X0176590Y0029086D01*
X0176943Y0028235D01*
X0177504Y0027504D01*
X0178235Y0026943D01*
X0179086Y0026590D01*
X0180000Y0026470D01*
X0180914Y0026590D01*
X0181765Y0026943D01*
X0182496Y0027504D01*
X0183057Y0028235D01*
X0183410Y0029086D01*
X0183530Y0030000D01*
X0183410Y0030914D01*
X0183057Y0031765D01*
X0182496Y0032496D01*
X0181765Y0033057D01*
X0180914Y0033410D01*
X0180000Y0033530D01*
D02*
G37*
G36*
X0150000D02*
X0149086Y0033410D01*
X0148235Y0033057D01*
X0147504Y0032496D01*
X0146943Y0031765D01*
X0146590Y0030914D01*
X0146470Y0030000D01*
X0146590Y0029086D01*
X0146943Y0028235D01*
X0147504Y0027504D01*
X0148235Y0026943D01*
X0149086Y0026590D01*
X0150000Y0026470D01*
X0150914Y0026590D01*
X0151765Y0026943D01*
X0152496Y0027504D01*
X0153057Y0028235D01*
X0153410Y0029086D01*
X0153530Y0030000D01*
X0153410Y0030914D01*
X0153057Y0031765D01*
X0152496Y0032496D01*
X0151765Y0033057D01*
X0150914Y0033410D01*
X0150000Y0033530D01*
D02*
G37*
G36*
X0120000D02*
X0119086Y0033410D01*
X0118235Y0033057D01*
X0117504Y0032496D01*
X0116943Y0031765D01*
X0116590Y0030914D01*
X0116470Y0030000D01*
X0116590Y0029086D01*
X0116943Y0028235D01*
X0117504Y0027504D01*
X0118235Y0026943D01*
X0119086Y0026590D01*
X0120000Y0026470D01*
X0120914Y0026590D01*
X0121765Y0026943D01*
X0122496Y0027504D01*
X0123057Y0028235D01*
X0123410Y0029086D01*
X0123530Y0030000D01*
X0123410Y0030914D01*
X0123057Y0031765D01*
X0122496Y0032496D01*
X0121765Y0033057D01*
X0120914Y0033410D01*
X0120000Y0033530D01*
D02*
G37*
G36*
X0060000D02*
X0059086Y0033410D01*
X0058235Y0033057D01*
X0057504Y0032496D01*
X0056943Y0031765D01*
X0056590Y0030914D01*
X0056470Y0030000D01*
X0056590Y0029086D01*
X0056943Y0028235D01*
X0057504Y0027504D01*
X0058235Y0026943D01*
X0059086Y0026590D01*
X0060000Y0026470D01*
X0060914Y0026590D01*
X0061765Y0026943D01*
X0062496Y0027504D01*
X0063057Y0028235D01*
X0063410Y0029086D01*
X0063530Y0030000D01*
X0063410Y0030914D01*
X0063057Y0031765D01*
X0062496Y0032496D01*
X0061765Y0033057D01*
X0060914Y0033410D01*
X0060000Y0033530D01*
D02*
G37*
G36*
X0030000D02*
X0029086Y0033410D01*
X0028235Y0033057D01*
X0027504Y0032496D01*
X0026943Y0031765D01*
X0026590Y0030914D01*
X0026470Y0030000D01*
X0026590Y0029086D01*
X0026943Y0028235D01*
X0027504Y0027504D01*
X0028235Y0026943D01*
X0029086Y0026590D01*
X0030000Y0026470D01*
X0030914Y0026590D01*
X0031765Y0026943D01*
X0032496Y0027504D01*
X0033057Y0028235D01*
X0033410Y0029086D01*
X0033530Y0030000D01*
X0033410Y0030914D01*
X0033057Y0031765D01*
X0032496Y0032496D01*
X0031765Y0033057D01*
X0030914Y0033410D01*
X0030000Y0033530D01*
D02*
G37*
G36*
X0216843Y0029759D02*
Y0026146D01*
X0220456D01*
X0220379Y0026727D01*
X0219962Y0027735D01*
X0219298Y0028601D01*
X0218432Y0029265D01*
X0217424Y0029682D01*
X0216843Y0029759D01*
D02*
G37*
G36*
X0210000Y0033530D02*
X0209086Y0033410D01*
X0208235Y0033057D01*
X0207504Y0032496D01*
X0206943Y0031765D01*
X0206590Y0030914D01*
X0206470Y0030000D01*
X0206590Y0029086D01*
X0206943Y0028235D01*
X0207504Y0027504D01*
X0208235Y0026943D01*
X0209086Y0026590D01*
X0210000Y0026470D01*
X0210914Y0026590D01*
X0211765Y0026943D01*
X0211895Y0027043D01*
X0212306Y0026728D01*
X0212306Y0026727D01*
X0212229Y0026146D01*
X0215843D01*
Y0029759D01*
X0215261Y0029682D01*
X0214253Y0029265D01*
X0213882Y0028980D01*
X0213434Y0029266D01*
X0213530Y0030000D01*
X0213410Y0030914D01*
X0213057Y0031765D01*
X0212496Y0032496D01*
X0211765Y0033057D01*
X0210914Y0033410D01*
X0210000Y0033530D01*
D02*
G37*
G36*
X0220456Y0025146D02*
X0216843D01*
Y0021532D01*
X0217424Y0021609D01*
X0218432Y0022027D01*
X0219298Y0022691D01*
X0219962Y0023556D01*
X0220379Y0024564D01*
X0220456Y0025146D01*
D02*
G37*
G36*
X0215843D02*
X0212229D01*
X0212306Y0024564D01*
X0212723Y0023556D01*
X0213387Y0022691D01*
X0214253Y0022027D01*
X0215261Y0021609D01*
X0215843Y0021532D01*
Y0025146D01*
D02*
G37*
G36*
X0086421Y0030228D02*
X0085235Y0030072D01*
X0084130Y0029614D01*
X0083181Y0028886D01*
X0082453Y0027937D01*
X0081995Y0026832D01*
X0081839Y0025646D01*
X0081995Y0024460D01*
X0082453Y0023354D01*
X0083181Y0022405D01*
X0084130Y0021677D01*
X0085235Y0021219D01*
X0086421Y0021063D01*
X0087607Y0021219D01*
X0088713Y0021677D01*
X0089662Y0022405D01*
X0090390Y0023354D01*
X0090848Y0024460D01*
X0091004Y0025646D01*
X0090848Y0026832D01*
X0090390Y0027937D01*
X0089662Y0028886D01*
X0088713Y0029614D01*
X0087607Y0030072D01*
X0086421Y0030228D01*
D02*
G37*
G36*
X0330000Y0033530D02*
X0329086Y0033410D01*
X0328235Y0033057D01*
X0327504Y0032496D01*
X0326943Y0031765D01*
X0326590Y0030914D01*
X0326470Y0030000D01*
X0326590Y0029086D01*
X0326943Y0028235D01*
X0327504Y0027504D01*
X0328235Y0026943D01*
X0329086Y0026590D01*
X0330000Y0026470D01*
X0330914Y0026590D01*
X0330998Y0026625D01*
X0331395Y0026321D01*
X0331311Y0025679D01*
X0331491Y0024308D01*
X0332020Y0023031D01*
X0332862Y0021935D01*
X0333958Y0021093D01*
X0335236Y0020564D01*
X0336606Y0020384D01*
X0337977Y0020564D01*
X0339254Y0021093D01*
X0340350Y0021935D01*
X0341192Y0023031D01*
X0341721Y0024308D01*
X0341901Y0025679D01*
X0341721Y0027049D01*
X0341192Y0028327D01*
X0340350Y0029423D01*
X0339254Y0030265D01*
X0337977Y0030794D01*
X0336606Y0030974D01*
X0335236Y0030794D01*
X0333998Y0030281D01*
X0333932Y0030278D01*
X0333462Y0030515D01*
X0333410Y0030914D01*
X0333057Y0031765D01*
X0332496Y0032496D01*
X0331765Y0033057D01*
X0330914Y0033410D01*
X0330000Y0033530D01*
D02*
G37*
G36*
X0287394Y0030974D02*
X0286023Y0030794D01*
X0284746Y0030265D01*
X0283650Y0029423D01*
X0282808Y0028327D01*
X0282279Y0027049D01*
X0282099Y0025679D01*
X0282279Y0024308D01*
X0282808Y0023031D01*
X0283650Y0021935D01*
X0284746Y0021093D01*
X0286023Y0020564D01*
X0287394Y0020384D01*
X0288765Y0020564D01*
X0290042Y0021093D01*
X0291138Y0021935D01*
X0291980Y0023031D01*
X0292509Y0024308D01*
X0292689Y0025679D01*
X0292509Y0027049D01*
X0291980Y0028327D01*
X0291138Y0029423D01*
X0290042Y0030265D01*
X0288765Y0030794D01*
X0287394Y0030974D01*
D02*
G37*
G36*
X0374016Y0028602D02*
X0372276Y0028431D01*
X0370603Y0027923D01*
X0369062Y0027099D01*
X0367710Y0025990D01*
X0366602Y0024639D01*
X0365778Y0023097D01*
X0365270Y0021425D01*
X0365099Y0019685D01*
X0365270Y0017945D01*
X0365778Y0016273D01*
X0366602Y0014731D01*
X0367710Y0013380D01*
X0369062Y0012271D01*
X0370603Y0011447D01*
X0372276Y0010939D01*
X0374016Y0010768D01*
X0375755Y0010939D01*
X0377428Y0011447D01*
X0378970Y0012271D01*
X0380321Y0013380D01*
X0381430Y0014731D01*
X0382254Y0016273D01*
X0382761Y0017945D01*
X0382933Y0019685D01*
X0382761Y0021425D01*
X0382254Y0023097D01*
X0381430Y0024639D01*
X0380321Y0025990D01*
X0378970Y0027099D01*
X0377428Y0027923D01*
X0375755Y0028431D01*
X0374016Y0028602D01*
D02*
G37*
G36*
X0019685D02*
X0017945Y0028431D01*
X0016273Y0027923D01*
X0014731Y0027099D01*
X0013380Y0025990D01*
X0012271Y0024639D01*
X0011447Y0023097D01*
X0010939Y0021425D01*
X0010768Y0019685D01*
X0010939Y0017945D01*
X0011447Y0016273D01*
X0012271Y0014731D01*
X0013380Y0013380D01*
X0014731Y0012271D01*
X0016273Y0011447D01*
X0017945Y0010939D01*
X0019685Y0010768D01*
X0021425Y0010939D01*
X0023097Y0011447D01*
X0024639Y0012271D01*
X0025990Y0013380D01*
X0027099Y0014731D01*
X0027923Y0016273D01*
X0028431Y0017945D01*
X0028602Y0019685D01*
X0028431Y0021425D01*
X0027923Y0023097D01*
X0027099Y0024639D01*
X0025990Y0025990D01*
X0024639Y0027099D01*
X0023097Y0027923D01*
X0021425Y0028431D01*
X0019685Y0028602D01*
D02*
G37*
G36*
X0196264Y0022049D02*
X0195084Y0021933D01*
X0193949Y0021588D01*
X0192903Y0021029D01*
X0191987Y0020277D01*
X0191234Y0019361D01*
X0190675Y0018315D01*
X0190331Y0017180D01*
X0190215Y0016000D01*
X0190331Y0014820D01*
X0190675Y0013685D01*
X0191234Y0012640D01*
X0191987Y0011723D01*
X0192903Y0010971D01*
X0193949Y0010412D01*
X0195084Y0010067D01*
X0196264Y0009951D01*
X0197444Y0010067D01*
X0198579Y0010412D01*
X0199624Y0010971D01*
X0200541Y0011723D01*
X0201293Y0012640D01*
X0201852Y0013685D01*
X0202196Y0014820D01*
X0202313Y0016000D01*
X0202196Y0017180D01*
X0201852Y0018315D01*
X0201293Y0019361D01*
X0200541Y0020277D01*
X0199624Y0021029D01*
X0198579Y0021588D01*
X0197444Y0021933D01*
X0196264Y0022049D01*
D02*
G37*
G36*
X0106500D02*
X0105320Y0021933D01*
X0104185Y0021588D01*
X0103139Y0021029D01*
X0102223Y0020277D01*
X0101471Y0019361D01*
X0100912Y0018315D01*
X0100567Y0017180D01*
X0100451Y0016000D01*
X0100567Y0014820D01*
X0100912Y0013685D01*
X0101471Y0012640D01*
X0102223Y0011723D01*
X0103139Y0010971D01*
X0104185Y0010412D01*
X0105320Y0010067D01*
X0106500Y0009951D01*
X0107680Y0010067D01*
X0108815Y0010412D01*
X0109861Y0010971D01*
X0110777Y0011723D01*
X0111529Y0012640D01*
X0112088Y0013685D01*
X0112433Y0014820D01*
X0112549Y0016000D01*
X0112433Y0017180D01*
X0112088Y0018315D01*
X0111529Y0019361D01*
X0110777Y0020277D01*
X0109861Y0021029D01*
X0108815Y0021588D01*
X0107680Y0021933D01*
X0106500Y0022049D01*
D02*
G37*
%LPD*%
G36*
X0157000Y0380020D02*
X0156886Y0380130D01*
X0156771Y0380229D01*
X0156655Y0380316D01*
X0156538Y0380391D01*
X0156420Y0380455D01*
X0156302Y0380507D01*
X0156182Y0380548D01*
X0156062Y0380577D01*
X0155940Y0380595D01*
X0155818Y0380600D01*
Y0381400D01*
X0155940Y0381405D01*
X0156062Y0381423D01*
X0156182Y0381452D01*
X0156302Y0381492D01*
X0156420Y0381545D01*
X0156538Y0381609D01*
X0156655Y0381684D01*
X0156771Y0381771D01*
X0156886Y0381870D01*
X0157000Y0381980D01*
Y0380020D01*
D02*
G37*
G36*
X0158870Y0369886D02*
X0158771Y0369771D01*
X0158684Y0369655D01*
X0158609Y0369538D01*
X0158545Y0369421D01*
X0158493Y0369302D01*
X0158452Y0369182D01*
X0158423Y0369062D01*
X0158406Y0368941D01*
X0158400Y0368818D01*
X0157600D01*
X0157594Y0368941D01*
X0157577Y0369062D01*
X0157548Y0369182D01*
X0157507Y0369302D01*
X0157455Y0369421D01*
X0157391Y0369538D01*
X0157316Y0369655D01*
X0157229Y0369771D01*
X0157130Y0369886D01*
X0157020Y0370000D01*
X0158980D01*
X0158870Y0369886D01*
D02*
G37*
G36*
X0255331Y0366243D02*
X0255429Y0366170D01*
X0255535Y0366105D01*
X0255648Y0366049D01*
X0255768Y0366002D01*
X0255897Y0365964D01*
X0256033Y0365935D01*
X0256176Y0365914D01*
X0256327Y0365903D01*
X0256486Y0365900D01*
X0255100Y0364514D01*
X0255097Y0364673D01*
X0255086Y0364824D01*
X0255065Y0364967D01*
X0255036Y0365103D01*
X0254998Y0365231D01*
X0254951Y0365352D01*
X0254895Y0365465D01*
X0254830Y0365571D01*
X0254757Y0365669D01*
X0254675Y0365760D01*
X0255240Y0366325D01*
X0255331Y0366243D01*
D02*
G37*
G36*
X0159371Y0361158D02*
X0159367Y0361013D01*
X0159373Y0360874D01*
X0159391Y0360742D01*
X0159419Y0360616D01*
X0159459Y0360497D01*
X0159510Y0360385D01*
X0159572Y0360279D01*
X0159645Y0360179D01*
X0159729Y0360086D01*
X0159089Y0359596D01*
X0159001Y0359676D01*
X0158906Y0359750D01*
X0158801Y0359817D01*
X0158689Y0359878D01*
X0158568Y0359932D01*
X0158439Y0359980D01*
X0158301Y0360022D01*
X0158155Y0360058D01*
X0157837Y0360109D01*
X0159387Y0361309D01*
X0159371Y0361158D01*
D02*
G37*
G36*
X0155696Y0362221D02*
X0155553Y0361500D01*
X0155739Y0360564D01*
X0156270Y0359770D01*
X0157064Y0359239D01*
X0157588Y0359135D01*
X0157673Y0359103D01*
X0157952Y0359058D01*
X0158033Y0359038D01*
X0158113Y0359014D01*
X0158180Y0358989D01*
X0158237Y0358963D01*
X0158282Y0358939D01*
X0158314Y0358918D01*
X0168831Y0348401D01*
Y0279539D01*
X0168331Y0279292D01*
X0167904Y0279619D01*
X0166897Y0280037D01*
X0166315Y0280113D01*
Y0276000D01*
Y0271887D01*
X0166897Y0271963D01*
X0167904Y0272381D01*
X0168331Y0272708D01*
X0168831Y0272461D01*
Y0241204D01*
X0168331Y0241105D01*
X0168057Y0241765D01*
X0167496Y0242496D01*
X0166765Y0243057D01*
X0165914Y0243410D01*
X0165000Y0243530D01*
X0164086Y0243410D01*
X0163235Y0243057D01*
X0162504Y0242496D01*
X0161943Y0241765D01*
X0161590Y0240914D01*
X0161470Y0240000D01*
X0161583Y0239143D01*
X0161474Y0239036D01*
X0161131Y0238887D01*
X0149177Y0250841D01*
Y0298885D01*
X0149677Y0299010D01*
X0150164Y0298099D01*
X0151386Y0296610D01*
X0152875Y0295388D01*
X0154574Y0294480D01*
X0156418Y0293921D01*
X0158335Y0293732D01*
X0160252Y0293921D01*
X0162095Y0294480D01*
X0163794Y0295388D01*
X0165283Y0296610D01*
X0166505Y0298099D01*
X0167413Y0299798D01*
X0167973Y0301642D01*
X0168161Y0303559D01*
X0167973Y0305476D01*
X0167413Y0307320D01*
X0166505Y0309019D01*
X0165283Y0310508D01*
X0163794Y0311730D01*
X0162095Y0312638D01*
X0160252Y0313197D01*
X0158335Y0313386D01*
X0156418Y0313197D01*
X0154574Y0312638D01*
X0152875Y0311730D01*
X0151386Y0310508D01*
X0150164Y0309019D01*
X0149677Y0308108D01*
X0149177Y0308234D01*
Y0356409D01*
X0155236Y0362467D01*
X0155696Y0362221D01*
D02*
G37*
G36*
X0221236Y0265600D02*
X0221077Y0265597D01*
X0220926Y0265586D01*
X0220783Y0265565D01*
X0220647Y0265536D01*
X0220518Y0265498D01*
X0220398Y0265451D01*
X0220285Y0265395D01*
X0220179Y0265330D01*
X0220081Y0265257D01*
X0219990Y0265175D01*
X0219425Y0265740D01*
X0219507Y0265831D01*
X0219580Y0265929D01*
X0219645Y0266035D01*
X0219701Y0266148D01*
X0219748Y0266268D01*
X0219786Y0266397D01*
X0219815Y0266533D01*
X0219836Y0266676D01*
X0219847Y0266827D01*
X0219850Y0266986D01*
X0221236Y0265600D01*
D02*
G37*
G36*
X0168831Y0238796D02*
Y0208599D01*
X0164162Y0203930D01*
X0164070Y0203944D01*
X0163677Y0204153D01*
Y0235750D01*
X0163677Y0235750D01*
X0163576Y0236260D01*
X0163671Y0236397D01*
X0163931Y0236654D01*
X0164086Y0236590D01*
X0165000Y0236470D01*
X0165914Y0236590D01*
X0166765Y0236943D01*
X0167496Y0237504D01*
X0168057Y0238235D01*
X0168331Y0238896D01*
X0168831Y0238796D01*
D02*
G37*
G36*
X0174987Y0220172D02*
X0174900Y0220075D01*
X0174828Y0219975D01*
X0174771Y0219871D01*
X0174729Y0219764D01*
X0174702Y0219653D01*
X0174689Y0219538D01*
X0174692Y0219420D01*
X0174710Y0219298D01*
X0174743Y0219173D01*
X0174790Y0219043D01*
X0172983Y0219801D01*
X0173145Y0219867D01*
X0173698Y0220140D01*
X0173813Y0220209D01*
X0174013Y0220349D01*
X0174099Y0220420D01*
X0174176Y0220492D01*
X0174987Y0220172D01*
D02*
G37*
G36*
X0155696Y0371721D02*
X0155553Y0371000D01*
X0155739Y0370064D01*
X0156270Y0369270D01*
X0156377Y0369198D01*
X0156433Y0369133D01*
X0156479Y0369072D01*
X0156513Y0369018D01*
X0156539Y0368971D01*
X0156556Y0368932D01*
X0156567Y0368898D01*
X0156573Y0368877D01*
Y0367841D01*
X0146741Y0358009D01*
X0146431Y0357546D01*
X0146323Y0357000D01*
X0146323Y0357000D01*
Y0250250D01*
X0146323Y0250250D01*
X0146431Y0249704D01*
X0146741Y0249241D01*
X0160823Y0235159D01*
Y0217566D01*
X0160323Y0217415D01*
X0160259Y0217509D01*
X0160259Y0217509D01*
X0141927Y0235841D01*
Y0358659D01*
X0155236Y0371967D01*
X0155696Y0371721D01*
D02*
G37*
G36*
X0159656Y0206809D02*
X0159673Y0206688D01*
X0159702Y0206568D01*
X0159743Y0206448D01*
X0159795Y0206329D01*
X0159859Y0206212D01*
X0159934Y0206095D01*
X0160021Y0205979D01*
X0160120Y0205864D01*
X0160230Y0205750D01*
X0158270D01*
X0158380Y0205864D01*
X0158479Y0205979D01*
X0158566Y0206095D01*
X0158641Y0206212D01*
X0158705Y0206329D01*
X0158757Y0206448D01*
X0158798Y0206568D01*
X0158827Y0206688D01*
X0158844Y0206809D01*
X0158850Y0206932D01*
X0159650D01*
X0159656Y0206809D01*
D02*
G37*
G36*
X0165229Y0202414D02*
X0165145Y0202321D01*
X0165072Y0202221D01*
X0165010Y0202115D01*
X0164959Y0202003D01*
X0164919Y0201884D01*
X0164891Y0201758D01*
X0164873Y0201626D01*
X0164867Y0201487D01*
X0164871Y0201342D01*
X0164887Y0201191D01*
X0163337Y0202391D01*
X0163500Y0202413D01*
X0163801Y0202478D01*
X0163939Y0202520D01*
X0164068Y0202568D01*
X0164189Y0202622D01*
X0164302Y0202683D01*
X0164406Y0202750D01*
X0164501Y0202824D01*
X0164589Y0202904D01*
X0165229Y0202414D01*
D02*
G37*
G36*
X0161075Y0202260D02*
X0160993Y0202169D01*
X0160920Y0202071D01*
X0160855Y0201965D01*
X0160799Y0201852D01*
X0160752Y0201731D01*
X0160714Y0201603D01*
X0160685Y0201467D01*
X0160664Y0201324D01*
X0160653Y0201173D01*
X0160650Y0201014D01*
X0159264Y0202400D01*
X0159423Y0202403D01*
X0159574Y0202414D01*
X0159717Y0202435D01*
X0159853Y0202464D01*
X0159982Y0202502D01*
X0160102Y0202549D01*
X0160215Y0202605D01*
X0160321Y0202670D01*
X0160419Y0202743D01*
X0160510Y0202825D01*
X0161075Y0202260D01*
D02*
G37*
G36*
X0153636Y0202611D02*
X0153736Y0202538D01*
X0153842Y0202477D01*
X0153954Y0202428D01*
X0154072Y0202390D01*
X0154196Y0202364D01*
X0154327Y0202350D01*
X0154463Y0202348D01*
X0154606Y0202357D01*
X0154755Y0202378D01*
X0153617Y0200783D01*
X0153588Y0200946D01*
X0153513Y0201248D01*
X0153467Y0201386D01*
X0153416Y0201515D01*
X0153359Y0201636D01*
X0153297Y0201748D01*
X0153229Y0201851D01*
X0153155Y0201946D01*
X0153076Y0202032D01*
X0153542Y0202696D01*
X0153636Y0202611D01*
D02*
G37*
%LPC*%
G36*
X0165315Y0280113D02*
X0164733Y0280037D01*
X0163725Y0279619D01*
X0162860Y0278955D01*
X0162196Y0278089D01*
X0161778Y0277082D01*
X0161702Y0276500D01*
X0165315D01*
Y0280113D01*
D02*
G37*
G36*
Y0275500D02*
X0161702D01*
X0161778Y0274918D01*
X0162196Y0273910D01*
X0162860Y0273045D01*
X0163725Y0272381D01*
X0164733Y0271963D01*
X0165315Y0271887D01*
Y0275500D01*
D02*
G37*
%LPD*%
G36*
X0104403Y0362827D02*
X0104414Y0362676D01*
X0104435Y0362532D01*
X0104464Y0362397D01*
X0104502Y0362268D01*
X0104549Y0362147D01*
X0104605Y0362034D01*
X0104670Y0361928D01*
X0104743Y0361830D01*
X0104825Y0361740D01*
X0104260Y0361175D01*
X0104170Y0361257D01*
X0104072Y0361330D01*
X0103966Y0361395D01*
X0103853Y0361451D01*
X0103732Y0361498D01*
X0103603Y0361536D01*
X0103468Y0361565D01*
X0103324Y0361586D01*
X0103173Y0361597D01*
X0103014Y0361600D01*
X0104400Y0362986D01*
X0104403Y0362827D01*
D02*
G37*
G36*
X0090345Y0219933D02*
X0090414Y0219821D01*
X0090490Y0219722D01*
X0090574Y0219637D01*
X0090665Y0219564D01*
X0090764Y0219505D01*
X0090871Y0219459D01*
X0090985Y0219426D01*
X0091107Y0219406D01*
X0091236Y0219400D01*
X0090913Y0218600D01*
X0090807Y0218597D01*
X0090694Y0218585D01*
X0090576Y0218567D01*
X0090322Y0218507D01*
X0090187Y0218466D01*
X0089897Y0218362D01*
X0089584Y0218228D01*
X0090284Y0220058D01*
X0090345Y0219933D01*
D02*
G37*
G36*
X0182424Y0152900D02*
X0182525Y0152828D01*
X0182628Y0152771D01*
X0182736Y0152729D01*
X0182847Y0152701D01*
X0182961Y0152689D01*
X0183080Y0152692D01*
X0183202Y0152710D01*
X0183327Y0152743D01*
X0183457Y0152790D01*
X0182699Y0150983D01*
X0182632Y0151145D01*
X0182360Y0151699D01*
X0182291Y0151813D01*
X0182151Y0152014D01*
X0182080Y0152100D01*
X0182009Y0152176D01*
X0182328Y0152987D01*
X0182424Y0152900D01*
D02*
G37*
G36*
X0189986Y0150100D02*
X0189827Y0150097D01*
X0189676Y0150086D01*
X0189532Y0150065D01*
X0189397Y0150036D01*
X0189268Y0149998D01*
X0189147Y0149951D01*
X0189034Y0149895D01*
X0188928Y0149830D01*
X0188830Y0149757D01*
X0188740Y0149675D01*
X0188175Y0150240D01*
X0188257Y0150330D01*
X0188330Y0150428D01*
X0188395Y0150534D01*
X0188451Y0150647D01*
X0188498Y0150768D01*
X0188536Y0150897D01*
X0188565Y0151032D01*
X0188586Y0151176D01*
X0188597Y0151327D01*
X0188600Y0151486D01*
X0189986Y0150100D01*
D02*
G37*
G36*
X0261486Y0300600D02*
X0261327Y0300597D01*
X0261176Y0300586D01*
X0261033Y0300565D01*
X0260896Y0300536D01*
X0260768Y0300498D01*
X0260647Y0300451D01*
X0260534Y0300395D01*
X0260428Y0300330D01*
X0260330Y0300257D01*
X0260240Y0300175D01*
X0259675Y0300740D01*
X0259757Y0300830D01*
X0259830Y0300928D01*
X0259895Y0301034D01*
X0259951Y0301147D01*
X0259998Y0301268D01*
X0260036Y0301396D01*
X0260065Y0301533D01*
X0260086Y0301676D01*
X0260097Y0301827D01*
X0260100Y0301986D01*
X0261486Y0300600D01*
D02*
G37*
G36*
X0215905Y0175560D02*
X0215923Y0175438D01*
X0215952Y0175318D01*
X0215992Y0175198D01*
X0216045Y0175080D01*
X0216109Y0174962D01*
X0216184Y0174845D01*
X0216271Y0174729D01*
X0216370Y0174614D01*
X0216480Y0174500D01*
X0214520D01*
X0214630Y0174614D01*
X0214729Y0174729D01*
X0214816Y0174845D01*
X0214891Y0174962D01*
X0214955Y0175080D01*
X0215007Y0175198D01*
X0215048Y0175318D01*
X0215077Y0175438D01*
X0215095Y0175560D01*
X0215100Y0175682D01*
X0215900D01*
X0215905Y0175560D01*
D02*
G37*
G36*
X0235120Y0188886D02*
X0235021Y0188771D01*
X0234934Y0188655D01*
X0234859Y0188538D01*
X0234795Y0188420D01*
X0234742Y0188302D01*
X0234702Y0188182D01*
X0234673Y0188062D01*
X0234655Y0187940D01*
X0234650Y0187818D01*
X0233850D01*
X0233845Y0187940D01*
X0233827Y0188062D01*
X0233798Y0188182D01*
X0233757Y0188302D01*
X0233705Y0188420D01*
X0233641Y0188538D01*
X0233566Y0188655D01*
X0233479Y0188771D01*
X0233380Y0188886D01*
X0233270Y0189000D01*
X0235230D01*
X0235120Y0188886D01*
D02*
G37*
G36*
X0230620D02*
X0230521Y0188771D01*
X0230434Y0188655D01*
X0230359Y0188538D01*
X0230295Y0188420D01*
X0230242Y0188302D01*
X0230202Y0188182D01*
X0230173Y0188062D01*
X0230155Y0187940D01*
X0230150Y0187818D01*
X0229350D01*
X0229345Y0187940D01*
X0229327Y0188062D01*
X0229298Y0188182D01*
X0229257Y0188302D01*
X0229205Y0188420D01*
X0229141Y0188538D01*
X0229066Y0188655D01*
X0228979Y0188771D01*
X0228880Y0188886D01*
X0228770Y0189000D01*
X0230730D01*
X0230620Y0188886D01*
D02*
G37*
G36*
X0226336Y0188884D02*
X0226238Y0188769D01*
X0226150Y0188653D01*
X0226075Y0188536D01*
X0226011Y0188418D01*
X0225959Y0188300D01*
X0225918Y0188180D01*
X0225889Y0188060D01*
X0225872Y0187938D01*
X0225866Y0187816D01*
X0225067D01*
X0225061Y0187938D01*
X0225044Y0188060D01*
X0225015Y0188180D01*
X0224974Y0188300D01*
X0224922Y0188418D01*
X0224858Y0188536D01*
X0224782Y0188653D01*
X0224695Y0188769D01*
X0224597Y0188884D01*
X0224486Y0188998D01*
X0226447D01*
X0226336Y0188884D01*
D02*
G37*
G36*
X0221870Y0176886D02*
X0221771Y0176771D01*
X0221684Y0176655D01*
X0221609Y0176538D01*
X0221545Y0176420D01*
X0221493Y0176302D01*
X0221452Y0176182D01*
X0221423Y0176062D01*
X0221405Y0175940D01*
X0221400Y0175818D01*
X0220600D01*
X0220595Y0175940D01*
X0220577Y0176062D01*
X0220548Y0176182D01*
X0220508Y0176302D01*
X0220455Y0176420D01*
X0220391Y0176538D01*
X0220316Y0176655D01*
X0220229Y0176771D01*
X0220130Y0176886D01*
X0220020Y0177000D01*
X0221980D01*
X0221870Y0176886D01*
D02*
G37*
G36*
X0195349Y0105260D02*
X0195267Y0105170D01*
X0195193Y0105072D01*
X0195129Y0104966D01*
X0195073Y0104853D01*
X0195026Y0104732D01*
X0194988Y0104604D01*
X0194958Y0104467D01*
X0194938Y0104324D01*
X0194926Y0104173D01*
X0194924Y0104014D01*
X0193538Y0105400D01*
X0193696Y0105403D01*
X0193848Y0105414D01*
X0193991Y0105435D01*
X0194127Y0105464D01*
X0194255Y0105502D01*
X0194376Y0105549D01*
X0194490Y0105605D01*
X0194595Y0105670D01*
X0194693Y0105743D01*
X0194784Y0105825D01*
X0195349Y0105260D01*
D02*
G37*
G36*
X0104402Y0105176D02*
X0104501Y0104874D01*
X0104556Y0104737D01*
X0104677Y0104490D01*
X0104742Y0104380D01*
X0104812Y0104279D01*
X0104885Y0104187D01*
X0104961Y0104104D01*
X0104551Y0103384D01*
X0104456Y0103470D01*
X0104356Y0103542D01*
X0104251Y0103602D01*
X0104140Y0103648D01*
X0104024Y0103681D01*
X0103903Y0103701D01*
X0103777Y0103708D01*
X0103646Y0103701D01*
X0103509Y0103682D01*
X0103367Y0103649D01*
X0104358Y0105340D01*
X0104402Y0105176D01*
D02*
G37*
G36*
X0191325Y0064260D02*
X0191243Y0064170D01*
X0191170Y0064072D01*
X0191105Y0063966D01*
X0191049Y0063853D01*
X0191002Y0063732D01*
X0190964Y0063604D01*
X0190935Y0063468D01*
X0190914Y0063324D01*
X0190903Y0063173D01*
X0190900Y0063014D01*
X0189514Y0064400D01*
X0189673Y0064403D01*
X0189824Y0064414D01*
X0189968Y0064435D01*
X0190103Y0064464D01*
X0190232Y0064502D01*
X0190353Y0064549D01*
X0190466Y0064605D01*
X0190572Y0064670D01*
X0190670Y0064743D01*
X0190760Y0064825D01*
X0191325Y0064260D01*
D02*
G37*
G36*
X0115903Y0063327D02*
X0115914Y0063176D01*
X0115935Y0063033D01*
X0115964Y0062897D01*
X0116002Y0062768D01*
X0116049Y0062647D01*
X0116105Y0062534D01*
X0116170Y0062428D01*
X0116243Y0062330D01*
X0116325Y0062240D01*
X0115760Y0061675D01*
X0115670Y0061757D01*
X0115572Y0061830D01*
X0115466Y0061895D01*
X0115353Y0061951D01*
X0115232Y0061998D01*
X0115103Y0062036D01*
X0114968Y0062065D01*
X0114824Y0062086D01*
X0114673Y0062097D01*
X0114514Y0062100D01*
X0115900Y0063486D01*
X0115903Y0063327D01*
D02*
G37*
G36*
X0258870Y0177636D02*
X0258771Y0177521D01*
X0258684Y0177405D01*
X0258609Y0177288D01*
X0258545Y0177171D01*
X0258493Y0177052D01*
X0258452Y0176932D01*
X0258423Y0176812D01*
X0258406Y0176691D01*
X0258400Y0176568D01*
X0257600D01*
X0257594Y0176691D01*
X0257577Y0176812D01*
X0257548Y0176932D01*
X0257507Y0177052D01*
X0257455Y0177171D01*
X0257391Y0177288D01*
X0257316Y0177405D01*
X0257229Y0177521D01*
X0257130Y0177636D01*
X0257020Y0177750D01*
X0258980D01*
X0258870Y0177636D01*
D02*
G37*
G36*
X0258406Y0159684D02*
X0258423Y0159563D01*
X0258452Y0159443D01*
X0258493Y0159323D01*
X0258545Y0159204D01*
X0258609Y0159087D01*
X0258684Y0158970D01*
X0258771Y0158854D01*
X0258870Y0158739D01*
X0258980Y0158625D01*
X0257020D01*
X0257130Y0158739D01*
X0257229Y0158854D01*
X0257316Y0158970D01*
X0257391Y0159087D01*
X0257455Y0159204D01*
X0257507Y0159323D01*
X0257548Y0159443D01*
X0257577Y0159563D01*
X0257594Y0159684D01*
X0257600Y0159807D01*
X0258400D01*
X0258406Y0159684D01*
D02*
G37*
D67*
X0050500Y0324250D02*
D03*
Y0271750D02*
D03*
X0110500D02*
D03*
Y0324250D02*
D03*
D82*
X0234250Y0107750D02*
Y0190000D01*
X0189500Y0063000D02*
X0234250Y0107750D01*
X0229750Y0120250D02*
Y0190000D01*
X0168500Y0059000D02*
X0229750Y0120250D01*
X0225466Y0126967D02*
Y0189998D01*
X0198500Y0100000D02*
X0225466Y0126967D01*
X0158000Y0361250D02*
X0170258Y0348992D01*
Y0208008D02*
Y0348992D01*
X0163500Y0201250D02*
X0170258Y0208008D01*
X0243000Y0283500D02*
X0261500Y0302000D01*
X0243000Y0253093D02*
Y0283500D01*
X0215500Y0225593D02*
X0243000Y0253093D01*
X0215500Y0173500D02*
Y0225593D01*
X0088500Y0219000D02*
X0098750D01*
X0172250Y0145500D02*
X0184000D01*
X0098750Y0219000D02*
X0172250Y0145500D01*
X0158000Y0361250D02*
Y0361500D01*
X0133000Y0222673D02*
X0154673Y0201000D01*
X0133000Y0362500D02*
X0133000Y0222673D01*
X0133000Y0362500D02*
X0151500Y0381000D01*
X0154673Y0201000D02*
X0155000D01*
X0123750Y0211000D02*
X0183250Y0151500D01*
X0123750Y0342250D02*
X0123750Y0211000D01*
X0103000Y0363000D02*
X0123750Y0342250D01*
X0151500Y0381000D02*
X0158000D01*
X0183250Y0151500D02*
X0184000D01*
X0163500Y0201000D02*
Y0201250D01*
X0108500Y0100000D02*
X0198500D01*
X0119000Y0059000D02*
X0168500D01*
X0221000Y0131476D02*
Y0178000D01*
X0193524Y0104000D02*
X0221000Y0131476D01*
X0114500Y0063500D02*
X0119000Y0059000D01*
X0103500Y0105000D02*
X0108500Y0100000D01*
X0103000Y0105000D02*
X0103500D01*
X0184000Y0145500D02*
X0190000Y0151500D01*
D83*
X0258000Y0157625D02*
Y0178750D01*
X0173500Y0219250D02*
X0221250Y0267000D01*
X0173500Y0218500D02*
Y0219250D01*
X0162250Y0204000D02*
Y0235750D01*
X0159250Y0201000D02*
X0162250Y0204000D01*
X0147750Y0250250D02*
X0162250Y0235750D01*
X0147750Y0250250D02*
Y0357000D01*
X0158000Y0367250D02*
Y0371000D01*
X0147750Y0357000D02*
X0158000Y0367250D01*
X0159250Y0204750D02*
Y0216500D01*
X0140500Y0235250D02*
X0159250Y0216500D01*
X0140500Y0235250D02*
Y0359250D01*
X0157250Y0376000D01*
X0245000D01*
X0256500Y0364500D01*
D84*
X0262750Y0201500D02*
D03*
Y0190000D02*
D03*
X0135750Y0162750D02*
D03*
X0247000Y0201750D02*
D03*
Y0190000D02*
D03*
X0307000Y0295000D02*
D03*
Y0307500D02*
D03*
Y0282500D02*
D03*
X0217750Y0240000D02*
D03*
X0238250D02*
D03*
D85*
X0101776Y0049071D02*
D03*
X0106500Y0016000D02*
D03*
X0196264D02*
D03*
X0200988Y0049071D02*
D03*
D86*
X0086421Y0025646D02*
D03*
X0216342Y0039425D02*
D03*
Y0025646D02*
D03*
X0185500Y0276000D02*
D03*
X0175657D02*
D03*
X0165815D02*
D03*
D87*
X0192980Y0303559D02*
D03*
X0158335D02*
D03*
D88*
X0322185Y0111772D02*
D03*
Y0092087D02*
D03*
X0302500D02*
D03*
Y0111772D02*
D03*
D89*
X0287394Y0025679D02*
D03*
Y0045365D02*
D03*
X0336606D02*
D03*
Y0025679D02*
D03*
D90*
X0143000Y0081000D02*
D03*
X0153000D02*
D03*
X0163000D02*
D03*
D91*
X0171504Y0122000D02*
D03*
X0153000D02*
D03*
X0134496D02*
D03*
D92*
X0374016Y0019685D02*
D03*
X0019685D02*
D03*
Y0374016D02*
D03*
X0374016D02*
D03*
D93*
X0258000Y0277000D02*
D03*
D94*
X0248000D02*
D03*
X0238000D02*
D03*
X0228000D02*
D03*
X0258000Y0267000D02*
D03*
X0248000D02*
D03*
X0238000D02*
D03*
X0228000D02*
D03*
D95*
X0336500Y0249500D02*
D03*
D96*
X0348311Y0230996D02*
D03*
X0324689D02*
D03*
D97*
X0359449Y0154104D02*
D03*
Y0170443D02*
D03*
D98*
X0068000Y0348000D02*
D03*
X0093000D02*
D03*
X0068000Y0328000D02*
D03*
X0093000D02*
D03*
X0070500Y0258000D02*
D03*
X0080500D02*
D03*
X0090500D02*
D03*
X0040500Y0308000D02*
D03*
Y0298000D02*
D03*
Y0288000D02*
D03*
D99*
X0083000Y0178000D02*
D03*
Y0185874D02*
D03*
Y0170126D02*
D03*
D100*
X0047567Y0142567D02*
D03*
X0055441D02*
D03*
X0039693D02*
D03*
D101*
X0375000Y0240000D02*
D03*
X0360000Y0210000D02*
D03*
X0345000Y0240000D02*
D03*
X0330000Y0210000D02*
D03*
X0300000D02*
D03*
X0285000Y0240000D02*
D03*
X0375000Y0360000D02*
D03*
X0360000Y0330000D02*
D03*
X0375000Y0120000D02*
D03*
X0360000Y0090000D02*
D03*
X0375000Y0060000D02*
D03*
X0360000Y0030000D02*
D03*
X0345000Y0360000D02*
D03*
X0330000Y0330000D02*
D03*
X0345000Y0180000D02*
D03*
X0330000Y0150000D02*
D03*
X0345000Y0120000D02*
D03*
X0330000Y0090000D02*
D03*
X0345000Y0060000D02*
D03*
X0330000Y0030000D02*
D03*
X0315000Y0360000D02*
D03*
X0300000Y0330000D02*
D03*
X0315000Y0180000D02*
D03*
X0300000Y0150000D02*
D03*
X0315000Y0120000D02*
D03*
Y0060000D02*
D03*
X0300000Y0030000D02*
D03*
X0285000Y0360000D02*
D03*
X0270000Y0330000D02*
D03*
Y0270000D02*
D03*
Y0210000D02*
D03*
X0285000Y0120000D02*
D03*
Y0060000D02*
D03*
X0255000Y0240000D02*
D03*
Y0120000D02*
D03*
X0240000Y0090000D02*
D03*
Y0030000D02*
D03*
X0225000Y0360000D02*
D03*
X0210000Y0330000D02*
D03*
X0225000Y0300000D02*
D03*
X0210000Y0270000D02*
D03*
Y0210000D02*
D03*
Y0150000D02*
D03*
Y0090000D02*
D03*
X0225000Y0060000D02*
D03*
X0210000Y0030000D02*
D03*
X0180000Y0330000D02*
D03*
X0195000Y0060000D02*
D03*
X0180000Y0030000D02*
D03*
X0165000Y0240000D02*
D03*
X0150000Y0090000D02*
D03*
Y0030000D02*
D03*
X0120000Y0330000D02*
D03*
Y0270000D02*
D03*
Y0210000D02*
D03*
Y0030000D02*
D03*
X0105000Y0300000D02*
D03*
X0090000Y0270000D02*
D03*
X0105000Y0240000D02*
D03*
X0090000Y0210000D02*
D03*
Y0150000D02*
D03*
Y0090000D02*
D03*
X0105000Y0060000D02*
D03*
X0060000Y0330000D02*
D03*
X0075000Y0300000D02*
D03*
X0060000Y0270000D02*
D03*
X0075000Y0240000D02*
D03*
X0060000Y0210000D02*
D03*
Y0150000D02*
D03*
Y0090000D02*
D03*
X0075000Y0060000D02*
D03*
X0060000Y0030000D02*
D03*
X0045000Y0360000D02*
D03*
X0030000Y0330000D02*
D03*
Y0270000D02*
D03*
X0045000Y0240000D02*
D03*
Y0180000D02*
D03*
X0030000Y0150000D02*
D03*
Y0090000D02*
D03*
X0045000Y0060000D02*
D03*
X0030000Y0030000D02*
D03*
D102*
X0258000Y0157625D02*
D03*
Y0178750D02*
D03*
X0231625Y0053750D02*
D03*
X0237250Y0179000D02*
D03*
X0234250Y0190000D02*
D03*
X0229750D02*
D03*
X0225466Y0189998D02*
D03*
X0234500Y0208750D02*
D03*
X0173500Y0218500D02*
D03*
X0177500Y0243250D02*
D03*
X0221250Y0267000D02*
D03*
X0159250Y0204750D02*
D03*
X0163500Y0201000D02*
D03*
X0159250D02*
D03*
X0155000D02*
D03*
X0163500Y0193250D02*
D03*
X0155000D02*
D03*
X0379000Y0183000D02*
D03*
X0378500Y0141500D02*
D03*
X0279527Y0118655D02*
D03*
X0274250Y0051000D02*
D03*
X0117000Y0112500D02*
D03*
X0159000Y0234000D02*
D03*
X0165500Y0228000D02*
D03*
X0152500Y0228262D02*
D03*
X0256500Y0364500D02*
D03*
X0103000Y0363000D02*
D03*
X0221000Y0178000D02*
D03*
X0215500Y0173500D02*
D03*
X0147500Y0220000D02*
D03*
X0202725Y0238000D02*
D03*
X0345000Y0322000D02*
D03*
X0252500Y0214000D02*
D03*
X0345793Y0148997D02*
D03*
X0158000Y0361500D02*
D03*
X0089000Y0219500D02*
D03*
X0184000Y0151500D02*
D03*
X0190000D02*
D03*
X0158000Y0371000D02*
D03*
Y0381000D02*
D03*
X0261500Y0302000D02*
D03*
X0254743D02*
D03*
X0193524Y0104000D02*
D03*
X0103000Y0105000D02*
D03*
X0114500Y0063500D02*
D03*
X0189500Y0063000D02*
D03*
X0121709Y0063497D02*
D03*
X0182497Y0062997D02*
D03*
X0186497Y0103997D02*
D03*
X0030497Y0128497D02*
D03*
X0094997Y0169997D02*
D03*
X0074997Y0226997D02*
D03*
X0070000Y0363000D02*
D03*
X0010997Y0303997D02*
D03*
X0264500Y0351500D02*
D03*
X0241497Y0351497D02*
D03*
X0231000Y0302500D02*
D03*
X0385000Y0157500D02*
D03*
Y0167000D02*
D03*
X0366000Y0134000D02*
D03*
X0358000Y0120000D02*
D03*
X0351500Y0167500D02*
D03*
X0345796Y0173259D02*
D03*
X0322997Y0160997D02*
D03*
X0261000Y0139500D02*
D03*
Y0130500D02*
D03*
X0213000Y0157500D02*
D03*
X0205500D02*
D03*
X0181000D02*
D03*
X0133500Y0189500D02*
D03*
X0184000Y0238000D02*
D03*
M02*
