M48
;Layer_Color=9474304
;FILE_FORMAT=2:5
INCH,LZ
;TYPE=PLATED
T1F00S00C0.01299
T2F00S00C0.02800
T3F00S00C0.03189
T4F00S00C0.04016
T5F00S00C0.04200
T6F00S00C0.05217
T7F00S00C0.05984
T8F00S00C0.07283
T9F00S00C0.07992
;TYPE=NON_PLATED
T10F00S00C0.11811
%
T01
X0329541Y0323369
Y03277
Y0332031
X0334659
Y03277
Y0323369
T02
X00475Y00423
X00825
X01Y00773
X0065
X003
X0135
X017
X0205
X024
X02225Y00423
X01875
X01525
X01175
X02575
X02925
X031Y00773
X0275
X0485
X052
X0555
X05375Y00423
X05025
X04675
X05725
X06075
X0625Y00773
X059
X06075Y01123
X059Y01473
X0625
X06242Y02073
X06392Y02373
X05725
X056Y02123
X0535
X051
X0485
X04975Y02373
X043075Y02213
X0485Y01473
X052
X0555
X05375Y01123
X05025
X04675
X042575Y01683
X04059Y01679
X038605
X03662
X034635
X0359225Y019145
X0379075
X0398925
X0418775
X04109Y02209
X039105
X03712
X035135
X029Y02373
X02925Y01823
X0275Y01473
X031
X02925Y01123
X03275
X02575
X02225
X01875
X01525
X01175
X0125Y02073
X0155
X0185
X0215
X0245
X026Y02373
X023
X02
X017
X014
X011
X008
X005
X002
X0035Y02073
X0065
X0095
X00825Y01123
X01Y02873
X0065
X003
X01107Y03936
X0163305Y0381305
X01803Y0382
X02139Y03617
X023425Y038275
X0254Y03573
X026518
X02575Y03223
X024Y02873
X0205
X017
X0135
X01525Y03223
X01875
X01175
X02925
X03011Y03139
X03012Y0305
Y0296
X0322
Y0305
X03498Y02798
X036965
X03895
X040935
X0418775Y025035
X0398925
X0379075
X0359225
X03716Y03103
X03851Y0324
X04142Y03273
X03642Y03465
X03099Y03573
X029872
X028754
X027636
X0275Y02873
X03226Y0399
X03976
X04226
X04476
X04726
X04976
X05226
X05192Y03573
X05492
X05792
X05642Y03273
X05342
X05042
X04742
X04442
X04292Y03573
X04592
X04892
X04975Y02873
X05225
X05475
X05725
X056Y02623
X051
X0485
X04292Y02798
X0585Y02623
X06242Y02673
X06542
X06392Y02973
X06092
X05942Y03273
X06242
X06542
X06392Y03573
X06071Y03617
X0608Y03973
X06226Y0399
X05851Y0424
X05601
X05351
X05101
X04851
X04601
X04351
X04101
X03851
X03601
X03351
X03101
X02851
X02601
X02523Y04069
T03
X000706Y03312
X016454
T04
X06357Y02115
X05725Y01123
X00491Y01125
X00149Y02109
X02164Y03225
X02506Y0344
X04709Y02876
X05476Y0399
T05
X05359Y0237972
Y02675
T06
X06881Y0025758
Y0045443
Y0078066
Y0097751
Y0130374
Y0150059
Y0182682
Y0202367
Y023499
X00251Y0366357
Y0386042
X06881Y0391915
Y0359292
Y0339607
Y0306984
Y0287298
Y0254675
Y04116
T07
X03178Y0210744
Y0221571
Y0232437
T08
X01379Y0378692
Y0397196
X02051
Y0378692
Y04157
X01379
T09
X0464257Y0194524
Y0216177
Y0237831
X03178Y0195508
Y02585
X0464257Y0259484
T10
X0025Y0025
X0625
Y0419
X0025
M30
