G04*
G04 #@! TF.GenerationSoftware,Altium Limited,Altium Designer,22.0.2 (36)*
G04*
G04 Layer_Physical_Order=2*
G04 Layer_Color=16711680*
%FSLAX25Y25*%
%MOIN*%
G70*
G04*
G04 #@! TF.SameCoordinates,8F1ED235-4021-42EF-82FE-ED0713BC9050*
G04*
G04*
G04 #@! TF.FilePolarity,Positive*
G04*
G01*
G75*
%ADD31C,0.01200*%
%ADD33C,0.07193*%
%ADD34R,0.07193X0.07193*%
%ADD35C,0.02362*%
G36*
X111953Y136440D02*
X113172Y135935D01*
X114269Y135202D01*
X115202Y134269D01*
X115935Y133172D01*
X116440Y131954D01*
X116697Y130660D01*
Y130000D01*
Y7500D01*
Y6840D01*
X116440Y5547D01*
X115935Y4328D01*
X115202Y3231D01*
X114269Y2298D01*
X113172Y1565D01*
X111953Y1060D01*
X110660Y803D01*
X110000D01*
X7500Y803D01*
X6840D01*
X5547Y1060D01*
X4328Y1565D01*
X3231Y2298D01*
X2298Y3231D01*
X1565Y4328D01*
X1060Y5547D01*
X803Y6840D01*
X803Y7500D01*
Y130000D01*
Y130660D01*
X1060Y131954D01*
X1565Y133172D01*
X2298Y134269D01*
X3231Y135202D01*
X4328Y135935D01*
X5547Y136440D01*
X6840Y136697D01*
X7500Y136697D01*
X110660D01*
X111953Y136440D01*
D02*
G37*
%LPC*%
G36*
X60000Y135020D02*
X42000D01*
X41610Y134942D01*
X41279Y134721D01*
X27779Y121221D01*
X27558Y120890D01*
X27480Y120500D01*
Y116000D01*
X27558Y115610D01*
X27779Y115279D01*
X28110Y115058D01*
X28500Y114980D01*
X30500D01*
X30890Y115058D01*
X31221Y115279D01*
X44422Y128480D01*
X56578D01*
X62779Y122279D01*
X63110Y122058D01*
X63500Y121980D01*
X72000D01*
X72390Y122058D01*
X72721Y122279D01*
X74721Y124279D01*
X74942Y124610D01*
X75020Y125000D01*
Y126000D01*
X74942Y126390D01*
X74721Y126721D01*
X72721Y128721D01*
X72390Y128942D01*
X72000Y129020D01*
X66422D01*
X60721Y134721D01*
X60390Y134942D01*
X60000Y135020D01*
D02*
G37*
G36*
X113414Y128347D02*
X104221D01*
Y119153D01*
X113414D01*
Y128347D01*
D02*
G37*
G36*
X57756Y114025D02*
X56905Y113856D01*
X56183Y113374D01*
X55701Y112652D01*
X55532Y111801D01*
X55419Y111720D01*
X55079Y111516D01*
X54500Y111631D01*
X48506D01*
X48500Y111632D01*
X48478Y111635D01*
X47851Y112055D01*
X47000Y112224D01*
X46149Y112055D01*
X45428Y111573D01*
X44945Y110851D01*
X44776Y110000D01*
X44945Y109149D01*
X45428Y108428D01*
X46149Y107946D01*
X46335Y107908D01*
X46286Y107408D01*
X33061D01*
X32825Y107566D01*
X32755Y107580D01*
X32572Y107854D01*
X31851Y108336D01*
X31000Y108505D01*
X30149Y108336D01*
X29427Y107854D01*
X28945Y107132D01*
X28776Y106281D01*
X28945Y105430D01*
X29250Y104974D01*
X29388Y104600D01*
X29250Y104226D01*
X28945Y103770D01*
X28776Y102919D01*
X28945Y102068D01*
X29427Y101347D01*
X30149Y100864D01*
X31000Y100695D01*
X31851Y100864D01*
X32572Y101347D01*
X32739Y101595D01*
X32934Y101634D01*
X33055Y101715D01*
X45458D01*
X53334Y93838D01*
Y92890D01*
X52928Y92618D01*
X52446Y91897D01*
X52276Y91046D01*
X52446Y90195D01*
X52928Y89473D01*
X53649Y88991D01*
X54500Y88822D01*
X55351Y88991D01*
X55786Y89282D01*
X56290Y89428D01*
X57011Y88946D01*
X57862Y88776D01*
X58713Y88946D01*
X59435Y89428D01*
X59917Y90149D01*
X60086Y91000D01*
X59917Y91851D01*
X59435Y92572D01*
X59028Y92844D01*
Y95521D01*
X58904Y96145D01*
X58550Y96674D01*
X48294Y106931D01*
X47765Y107284D01*
X47427Y107351D01*
Y107861D01*
X47851Y107946D01*
X48478Y108365D01*
X48489Y108366D01*
X48519Y108369D01*
X53824D01*
X77346Y84847D01*
X77876Y84493D01*
X78500Y84369D01*
X78500Y84369D01*
X85994D01*
X86000Y84368D01*
X86022Y84365D01*
X86649Y83946D01*
X87500Y83776D01*
X88351Y83946D01*
X89073Y84427D01*
X89555Y85149D01*
X89724Y86000D01*
X89555Y86851D01*
X89073Y87572D01*
X88351Y88055D01*
X87500Y88224D01*
X86649Y88055D01*
X86022Y87635D01*
X86011Y87634D01*
X85981Y87631D01*
X79176D01*
X59396Y107411D01*
X59415Y107505D01*
X59988Y107893D01*
X60108Y107869D01*
X82994D01*
X82999Y107868D01*
X83022Y107865D01*
X83649Y107446D01*
X84500Y107276D01*
X85351Y107446D01*
X86072Y107928D01*
X86554Y108649D01*
X86724Y109500D01*
X86554Y110351D01*
X86072Y111073D01*
X85351Y111555D01*
X84500Y111724D01*
X83649Y111555D01*
X83022Y111135D01*
X83012Y111134D01*
X82981Y111131D01*
X60784D01*
X59986Y111929D01*
X59969Y111950D01*
X59947Y111978D01*
X59943Y111985D01*
X59810Y112652D01*
X59328Y113374D01*
X58607Y113856D01*
X57756Y114025D01*
D02*
G37*
G36*
X108817Y118386D02*
X107617Y118228D01*
X106499Y117765D01*
X105539Y117028D01*
X104802Y116068D01*
X104339Y114950D01*
X104181Y113750D01*
X104339Y112550D01*
X104802Y111432D01*
X105539Y110472D01*
X106499Y109735D01*
X107617Y109272D01*
X108817Y109114D01*
X110017Y109272D01*
X111135Y109735D01*
X112095Y110472D01*
X112832Y111432D01*
X113295Y112550D01*
X113453Y113750D01*
X113295Y114950D01*
X112832Y116068D01*
X112095Y117028D01*
X111135Y117765D01*
X110017Y118228D01*
X108817Y118386D01*
D02*
G37*
G36*
Y108386D02*
X107617Y108228D01*
X106499Y107765D01*
X105539Y107028D01*
X104802Y106068D01*
X104339Y104950D01*
X104181Y103750D01*
X104339Y102550D01*
X104802Y101432D01*
X105539Y100472D01*
X106499Y99735D01*
X107617Y99272D01*
X108817Y99114D01*
X110017Y99272D01*
X111135Y99735D01*
X112095Y100472D01*
X112832Y101432D01*
X113295Y102550D01*
X113453Y103750D01*
X113295Y104950D01*
X112832Y106068D01*
X112095Y107028D01*
X111135Y107765D01*
X110017Y108228D01*
X108817Y108386D01*
D02*
G37*
G36*
Y98386D02*
X107617Y98228D01*
X106499Y97765D01*
X105539Y97028D01*
X104802Y96068D01*
X104339Y94950D01*
X104181Y93750D01*
X104339Y92550D01*
X104802Y91432D01*
X105539Y90472D01*
X106499Y89735D01*
X107617Y89272D01*
X108817Y89114D01*
X110017Y89272D01*
X111135Y89735D01*
X112095Y90472D01*
X112832Y91432D01*
X113295Y92550D01*
X113453Y93750D01*
X113295Y94950D01*
X112832Y96068D01*
X112095Y97028D01*
X111135Y97765D01*
X110017Y98228D01*
X108817Y98386D01*
D02*
G37*
G36*
X19222Y100446D02*
X18371Y100277D01*
X17650Y99795D01*
X17168Y99073D01*
X17133Y98900D01*
X16976Y98795D01*
X15347Y97166D01*
X14993Y96636D01*
X14869Y96012D01*
Y79000D01*
X14993Y78376D01*
X15347Y77846D01*
X17932Y75261D01*
X18462Y74907D01*
X19086Y74783D01*
X30743D01*
X31367Y74907D01*
X31896Y75261D01*
X34653Y78018D01*
X35007Y78547D01*
X35131Y79172D01*
Y87898D01*
X35789Y88555D01*
X36500Y88414D01*
X37351Y88583D01*
X38072Y89065D01*
X38555Y89787D01*
X38724Y90638D01*
X38555Y91489D01*
X38250Y91945D01*
X38112Y92319D01*
X38250Y92693D01*
X38555Y93149D01*
X38724Y94000D01*
X38555Y94851D01*
X38072Y95573D01*
X37351Y96055D01*
X36500Y96224D01*
X35649Y96055D01*
X34927Y95573D01*
X34748Y95304D01*
X34653Y95285D01*
X34124Y94931D01*
X30347Y91154D01*
X29993Y90624D01*
X29869Y90000D01*
Y80676D01*
X29239Y80046D01*
X20590D01*
X20131Y80504D01*
Y92805D01*
X20132Y92806D01*
X20854Y93288D01*
X21336Y94009D01*
X21505Y94860D01*
X21336Y95711D01*
X20854Y96433D01*
X20968Y96908D01*
X21277Y97371D01*
X21446Y98222D01*
X21277Y99073D01*
X20795Y99795D01*
X20073Y100277D01*
X19222Y100446D01*
D02*
G37*
G36*
X108817Y88386D02*
X107617Y88228D01*
X106499Y87765D01*
X105539Y87028D01*
X104802Y86068D01*
X104339Y84950D01*
X104181Y83750D01*
X104339Y82550D01*
X104802Y81432D01*
X105539Y80472D01*
X106499Y79735D01*
X107617Y79272D01*
X108817Y79114D01*
X110017Y79272D01*
X111135Y79735D01*
X112095Y80472D01*
X112832Y81432D01*
X113295Y82550D01*
X113453Y83750D01*
X113295Y84950D01*
X112832Y86068D01*
X112095Y87028D01*
X111135Y87765D01*
X110017Y88228D01*
X108817Y88386D01*
D02*
G37*
G36*
X109317Y78320D02*
Y74250D01*
X113388D01*
X113295Y74950D01*
X112832Y76068D01*
X112095Y77028D01*
X111135Y77765D01*
X110017Y78228D01*
X109317Y78320D01*
D02*
G37*
G36*
X108317Y78320D02*
X107617Y78228D01*
X106499Y77765D01*
X105539Y77028D01*
X104802Y76068D01*
X104339Y74950D01*
X104247Y74250D01*
X108317D01*
Y78320D01*
D02*
G37*
G36*
X113388Y73250D02*
X109317D01*
Y69180D01*
X110017Y69272D01*
X111135Y69735D01*
X112095Y70472D01*
X112832Y71432D01*
X113295Y72550D01*
X113388Y73250D01*
D02*
G37*
G36*
X108317D02*
X104247D01*
X104339Y72550D01*
X104802Y71432D01*
X105539Y70472D01*
X106499Y69735D01*
X107617Y69272D01*
X108317Y69180D01*
Y73250D01*
D02*
G37*
G36*
X108817Y68386D02*
X107617Y68228D01*
X106499Y67765D01*
X105539Y67028D01*
X104802Y66068D01*
X104339Y64950D01*
X104181Y63750D01*
X104339Y62550D01*
X104802Y61432D01*
X105539Y60472D01*
X106499Y59735D01*
X107617Y59272D01*
X108817Y59114D01*
X110017Y59272D01*
X111135Y59735D01*
X112095Y60472D01*
X112832Y61432D01*
X113295Y62550D01*
X113453Y63750D01*
X113295Y64950D01*
X112832Y66068D01*
X112095Y67028D01*
X111135Y67765D01*
X110017Y68228D01*
X108817Y68386D01*
D02*
G37*
G36*
Y58386D02*
X107617Y58228D01*
X106499Y57765D01*
X105539Y57028D01*
X104802Y56068D01*
X104339Y54950D01*
X104181Y53750D01*
X104339Y52550D01*
X104802Y51432D01*
X105539Y50472D01*
X106499Y49735D01*
X107617Y49272D01*
X108817Y49114D01*
X110017Y49272D01*
X111135Y49735D01*
X112095Y50472D01*
X112832Y51432D01*
X113295Y52550D01*
X113453Y53750D01*
X113295Y54950D01*
X112832Y56068D01*
X112095Y57028D01*
X111135Y57765D01*
X110017Y58228D01*
X108817Y58386D01*
D02*
G37*
G36*
X57500Y45224D02*
X56649Y45055D01*
X55927Y44572D01*
X55445Y43851D01*
X55316Y43198D01*
X54805Y43002D01*
X54154Y43654D01*
X53624Y44007D01*
X53000Y44131D01*
X48506D01*
X48500Y44132D01*
X48478Y44135D01*
X47851Y44555D01*
X47000Y44724D01*
X46149Y44555D01*
X45428Y44072D01*
X44945Y43351D01*
X44776Y42500D01*
X44945Y41649D01*
X45428Y40927D01*
X46149Y40445D01*
X47000Y40276D01*
X47851Y40445D01*
X48478Y40865D01*
X48489Y40866D01*
X48519Y40869D01*
X52324D01*
X68347Y24847D01*
X68876Y24493D01*
X69500Y24369D01*
X76494D01*
X76499Y24368D01*
X76522Y24365D01*
X77149Y23945D01*
X78000Y23776D01*
X78851Y23945D01*
X79572Y24428D01*
X80054Y25149D01*
X80224Y26000D01*
X80054Y26851D01*
X79572Y27573D01*
X78851Y28055D01*
X78000Y28224D01*
X77149Y28055D01*
X76522Y27635D01*
X76512Y27634D01*
X76481Y27631D01*
X70176D01*
X57502Y40305D01*
X57699Y40816D01*
X58351Y40945D01*
X58978Y41365D01*
X58988Y41366D01*
X59019Y41369D01*
X78902D01*
X78945Y41149D01*
X79427Y40428D01*
X80149Y39945D01*
X81000Y39776D01*
X81851Y39945D01*
X82573Y40428D01*
X83055Y41149D01*
X83224Y42000D01*
X83055Y42851D01*
X82573Y43573D01*
X81851Y44055D01*
X81069Y44210D01*
X80624Y44507D01*
X80000Y44631D01*
X59006D01*
X59000Y44632D01*
X58978Y44635D01*
X58351Y45055D01*
X57500Y45224D01*
D02*
G37*
G36*
X108817Y48386D02*
X107617Y48228D01*
X106499Y47765D01*
X105539Y47028D01*
X104802Y46068D01*
X104339Y44950D01*
X104181Y43750D01*
X104339Y42550D01*
X104802Y41432D01*
X105539Y40472D01*
X106499Y39735D01*
X107617Y39272D01*
X108817Y39114D01*
X110017Y39272D01*
X111135Y39735D01*
X112095Y40472D01*
X112832Y41432D01*
X113295Y42550D01*
X113453Y43750D01*
X113295Y44950D01*
X112832Y46068D01*
X112095Y47028D01*
X111135Y47765D01*
X110017Y48228D01*
X108817Y48386D01*
D02*
G37*
G36*
Y38386D02*
X107617Y38228D01*
X106499Y37765D01*
X105539Y37028D01*
X104802Y36068D01*
X104339Y34950D01*
X104181Y33750D01*
X104339Y32550D01*
X104802Y31432D01*
X105539Y30472D01*
X106499Y29735D01*
X107617Y29272D01*
X108817Y29114D01*
X110017Y29272D01*
X111135Y29735D01*
X112095Y30472D01*
X112832Y31432D01*
X113295Y32550D01*
X113453Y33750D01*
X113295Y34950D01*
X112832Y36068D01*
X112095Y37028D01*
X111135Y37765D01*
X110017Y38228D01*
X108817Y38386D01*
D02*
G37*
G36*
X31000Y40724D02*
X30149Y40555D01*
X29427Y40073D01*
X28945Y39351D01*
X28776Y38500D01*
X28945Y37649D01*
X29250Y37193D01*
X29388Y36819D01*
X29250Y36445D01*
X28945Y35989D01*
X28776Y35138D01*
X28945Y34287D01*
X29427Y33565D01*
X30149Y33083D01*
X31000Y32914D01*
X31851Y33083D01*
X32572Y33565D01*
X32844Y33972D01*
X46100D01*
X53739Y26333D01*
Y25385D01*
X53333Y25113D01*
X52851Y24392D01*
X52681Y23541D01*
X52851Y22690D01*
X53333Y21968D01*
X54054Y21486D01*
X54905Y21317D01*
X55756Y21486D01*
X56189Y21775D01*
X56695Y21919D01*
X57416Y21437D01*
X58267Y21267D01*
X59118Y21437D01*
X59840Y21919D01*
X60322Y22640D01*
X60491Y23491D01*
X60322Y24342D01*
X59840Y25064D01*
X59433Y25335D01*
Y28016D01*
X59309Y28640D01*
X58955Y29169D01*
X48936Y39188D01*
X48407Y39542D01*
X47783Y39666D01*
X32844D01*
X32572Y40073D01*
X31851Y40555D01*
X31000Y40724D01*
D02*
G37*
G36*
X19393Y33116D02*
X18542Y32947D01*
X17820Y32465D01*
X17338Y31744D01*
X17304Y31571D01*
X17146Y31465D01*
X15347Y29666D01*
X14993Y29136D01*
X14869Y28512D01*
Y11500D01*
X14993Y10876D01*
X15347Y10346D01*
X17932Y7761D01*
X18462Y7407D01*
X19086Y7283D01*
X30743D01*
X31367Y7407D01*
X31896Y7761D01*
X34653Y10518D01*
X35007Y11047D01*
X35131Y11672D01*
Y20398D01*
X35789Y21055D01*
X36500Y20914D01*
X37351Y21083D01*
X38072Y21565D01*
X38555Y22287D01*
X38724Y23138D01*
X38555Y23989D01*
X38250Y24445D01*
X38112Y24819D01*
X38250Y25193D01*
X38555Y25649D01*
X38724Y26500D01*
X38555Y27351D01*
X38072Y28073D01*
X37351Y28555D01*
X36500Y28724D01*
X35649Y28555D01*
X34927Y28073D01*
X34748Y27804D01*
X34653Y27785D01*
X34124Y27431D01*
X30347Y23653D01*
X29993Y23124D01*
X29869Y22500D01*
Y13176D01*
X29239Y12546D01*
X20590D01*
X20131Y13004D01*
Y25442D01*
X20302Y25476D01*
X21024Y25958D01*
X21506Y26680D01*
X21675Y27531D01*
X21506Y28381D01*
X21024Y29103D01*
X21161Y29613D01*
X21447Y30042D01*
X21617Y30893D01*
X21447Y31744D01*
X20965Y32465D01*
X20244Y32947D01*
X19393Y33116D01*
D02*
G37*
G36*
X108817Y28386D02*
X107617Y28228D01*
X106499Y27765D01*
X105539Y27028D01*
X104802Y26068D01*
X104339Y24950D01*
X104181Y23750D01*
X104339Y22550D01*
X104802Y21432D01*
X105539Y20472D01*
X106499Y19735D01*
X107617Y19272D01*
X108817Y19114D01*
X110017Y19272D01*
X111135Y19735D01*
X112095Y20472D01*
X112832Y21432D01*
X113295Y22550D01*
X113453Y23750D01*
X113295Y24950D01*
X112832Y26068D01*
X112095Y27028D01*
X111135Y27765D01*
X110017Y28228D01*
X108817Y28386D01*
D02*
G37*
G36*
X109317Y18320D02*
Y14250D01*
X113388D01*
X113295Y14950D01*
X112832Y16068D01*
X112095Y17028D01*
X111135Y17765D01*
X110017Y18228D01*
X109317Y18320D01*
D02*
G37*
G36*
X108317Y18320D02*
X107617Y18228D01*
X106499Y17765D01*
X105539Y17028D01*
X104802Y16068D01*
X104339Y14950D01*
X104247Y14250D01*
X108317D01*
Y18320D01*
D02*
G37*
G36*
Y13250D02*
X104247D01*
X104339Y12550D01*
X104802Y11432D01*
X105539Y10472D01*
X106499Y9735D01*
X107617Y9272D01*
X108317Y9180D01*
Y13250D01*
D02*
G37*
G36*
X113388D02*
X109317D01*
Y9180D01*
X110017Y9272D01*
X111135Y9735D01*
X112095Y10472D01*
X112832Y11432D01*
X113295Y12550D01*
X113388Y13250D01*
D02*
G37*
%LPD*%
G36*
X66000Y128000D02*
X72000D01*
X74000Y126000D01*
Y125000D01*
X72000Y123000D01*
X63500D01*
X57000Y129500D01*
X44000D01*
X30500Y116000D01*
X28500D01*
Y120500D01*
X42000Y134000D01*
X60000D01*
X66000Y128000D01*
D02*
G37*
G36*
X58942Y111762D02*
X58957Y111695D01*
X58982Y111625D01*
X59015Y111551D01*
X59058Y111475D01*
X59110Y111395D01*
X59171Y111313D01*
X59321Y111138D01*
X59410Y111046D01*
X58592Y110168D01*
X58500Y110256D01*
X58325Y110404D01*
X58242Y110464D01*
X58162Y110514D01*
X58084Y110555D01*
X58010Y110586D01*
X57938Y110607D01*
X57870Y110619D01*
X57804Y110621D01*
X58937Y111826D01*
X58942Y111762D01*
D02*
G37*
G36*
X47892Y110784D02*
X47950Y110745D01*
X48016Y110711D01*
X48091Y110682D01*
X48175Y110657D01*
X48268Y110636D01*
X48369Y110620D01*
X48479Y110609D01*
X48726Y110600D01*
Y109400D01*
X48598Y109398D01*
X48369Y109380D01*
X48268Y109364D01*
X48175Y109343D01*
X48091Y109318D01*
X48016Y109289D01*
X47950Y109255D01*
X47892Y109216D01*
X47844Y109173D01*
Y110827D01*
X47892Y110784D01*
D02*
G37*
G36*
X83657Y108673D02*
X83608Y108716D01*
X83550Y108755D01*
X83484Y108789D01*
X83409Y108818D01*
X83325Y108843D01*
X83232Y108864D01*
X83131Y108880D01*
X83021Y108891D01*
X82774Y108900D01*
Y110100D01*
X82902Y110102D01*
X83131Y110120D01*
X83232Y110136D01*
X83325Y110157D01*
X83409Y110182D01*
X83484Y110211D01*
X83550Y110245D01*
X83608Y110284D01*
X83657Y110327D01*
Y108673D01*
D02*
G37*
G36*
X86656Y85173D02*
X86608Y85216D01*
X86550Y85255D01*
X86484Y85289D01*
X86409Y85318D01*
X86325Y85343D01*
X86232Y85364D01*
X86131Y85380D01*
X86021Y85391D01*
X85774Y85400D01*
Y86600D01*
X85902Y86602D01*
X86131Y86620D01*
X86232Y86636D01*
X86325Y86657D01*
X86409Y86682D01*
X86484Y86711D01*
X86550Y86745D01*
X86608Y86784D01*
X86656Y86827D01*
Y85173D01*
D02*
G37*
G36*
X35829Y89666D02*
X35780Y89691D01*
X35727Y89704D01*
X35669Y89704D01*
X35605Y89691D01*
X35537Y89665D01*
X35464Y89627D01*
X35386Y89576D01*
X35303Y89512D01*
X35214Y89435D01*
X35121Y89346D01*
X34415Y90337D01*
X35471Y91217D01*
X35829Y89666D01*
D02*
G37*
G36*
X58392Y43784D02*
X58450Y43745D01*
X58516Y43711D01*
X58591Y43682D01*
X58675Y43657D01*
X58768Y43636D01*
X58869Y43620D01*
X58979Y43609D01*
X59226Y43600D01*
Y42400D01*
X59098Y42398D01*
X58869Y42380D01*
X58768Y42364D01*
X58675Y42343D01*
X58591Y42318D01*
X58516Y42289D01*
X58450Y42255D01*
X58392Y42216D01*
X58343Y42173D01*
Y43827D01*
X58392Y43784D01*
D02*
G37*
G36*
X47892Y43284D02*
X47950Y43245D01*
X48016Y43211D01*
X48091Y43182D01*
X48175Y43157D01*
X48268Y43136D01*
X48369Y43120D01*
X48479Y43109D01*
X48726Y43100D01*
Y41900D01*
X48598Y41898D01*
X48369Y41880D01*
X48268Y41864D01*
X48175Y41843D01*
X48091Y41818D01*
X48016Y41789D01*
X47950Y41755D01*
X47892Y41716D01*
X47844Y41673D01*
Y43327D01*
X47892Y43284D01*
D02*
G37*
G36*
X77157Y25173D02*
X77108Y25216D01*
X77050Y25255D01*
X76984Y25289D01*
X76909Y25318D01*
X76825Y25343D01*
X76732Y25364D01*
X76631Y25380D01*
X76521Y25391D01*
X76274Y25400D01*
Y26600D01*
X76402Y26602D01*
X76631Y26620D01*
X76732Y26636D01*
X76825Y26657D01*
X76909Y26682D01*
X76984Y26711D01*
X77050Y26745D01*
X77108Y26784D01*
X77157Y26827D01*
Y25173D01*
D02*
G37*
G36*
X35829Y22166D02*
X35780Y22191D01*
X35727Y22204D01*
X35669Y22204D01*
X35605Y22191D01*
X35537Y22165D01*
X35464Y22127D01*
X35386Y22076D01*
X35303Y22012D01*
X35214Y21935D01*
X35121Y21846D01*
X34415Y22837D01*
X35471Y23718D01*
X35829Y22166D01*
D02*
G37*
D31*
X31500Y90000D02*
X35278Y93778D01*
X36278D02*
X36500Y94000D01*
X35278Y93778D02*
X36278D01*
X35342Y90415D02*
X36278D01*
X31500Y80000D02*
Y90000D01*
X33500Y79172D02*
Y88573D01*
X36278Y90415D02*
X36500Y90638D01*
X33500Y88573D02*
X35342Y90415D01*
Y22915D02*
X36278D01*
Y26278D02*
X36500Y26500D01*
X31500Y12500D02*
Y22500D01*
X36278Y22915D02*
X36500Y23138D01*
X35278Y26278D02*
X36278D01*
X31500Y22500D02*
X35278Y26278D01*
X33500Y21073D02*
X35342Y22915D01*
X33500Y11672D02*
Y21073D01*
X78500Y86000D02*
X87500D01*
X54500Y110000D02*
X78500Y86000D01*
X47000Y110000D02*
X54500D01*
X57807Y111801D02*
X60108Y109500D01*
X57756Y111801D02*
X57807D01*
X80000Y43000D02*
X81000Y42000D01*
X57500Y43000D02*
X80000D01*
X47000Y42500D02*
X53000D01*
X69500Y26000D02*
X78000D01*
X53000Y42500D02*
X69500Y26000D01*
X60108Y109500D02*
X84500D01*
X30743Y8914D02*
X33500Y11672D01*
X31222Y35360D02*
X32041D01*
X58045Y23714D02*
Y24532D01*
X57802Y24775D02*
Y28016D01*
X55128Y24041D02*
Y24582D01*
X32284Y38034D02*
X47783D01*
X55371Y24825D02*
Y27009D01*
X31222Y38278D02*
X32041D01*
X32284Y35603D02*
X46776D01*
X55371Y27009D01*
X31000Y38500D02*
X31222Y38278D01*
X32041D02*
X32284Y38034D01*
X47783D02*
X57802Y28016D01*
X31000Y35138D02*
X31222Y35360D01*
X54850Y23763D02*
X55128Y24041D01*
Y24582D02*
X55371Y24825D01*
X58045Y23714D02*
X58267Y23491D01*
X32041Y35360D02*
X32284Y35603D01*
X57802Y24775D02*
X58045Y24532D01*
X57640Y91222D02*
Y92041D01*
X32483Y105777D02*
X47140D01*
X31222Y106059D02*
X32201D01*
X54723Y91268D02*
Y92087D01*
X54966Y92330D01*
Y94513D01*
X32515Y103346D02*
X46133D01*
X31222Y103141D02*
X32310D01*
X32515Y103346D01*
X46133D02*
X54966Y94513D01*
X31000Y102919D02*
X31222Y103141D01*
X31000Y106281D02*
X31222Y106059D01*
X54500Y91046D02*
X54723Y91268D01*
X57397Y92284D02*
Y95521D01*
X32201Y106059D02*
X32483Y105777D01*
X47140D02*
X57397Y95521D01*
Y92284D02*
X57640Y92041D01*
Y91222D02*
X57862Y91000D01*
X16500Y11500D02*
Y28512D01*
X18500Y12328D02*
Y26265D01*
X19086Y8914D02*
X30743D01*
X16500Y11500D02*
X19086Y8914D01*
X29914Y10914D02*
X31500Y12500D01*
X19914Y10914D02*
X29914D01*
X18500Y12328D02*
X19914Y10914D01*
X19078Y30893D02*
X19393D01*
X18497Y30312D02*
X19078Y30893D01*
X19451Y27216D02*
Y27531D01*
X18500Y26265D02*
X19451Y27216D01*
X18299Y30312D02*
X18497D01*
X16500Y28512D02*
X18299Y30312D01*
X19281Y94546D02*
Y94860D01*
X18129Y97641D02*
X18327D01*
X16500Y79000D02*
Y96012D01*
X18500Y93765D02*
X19281Y94546D01*
X18500Y79828D02*
Y93765D01*
X16500Y96012D02*
X18129Y97641D01*
X18908Y98222D02*
X19222D01*
X16500Y79000D02*
X19086Y76414D01*
X30743D01*
X19914Y78414D02*
X29914D01*
X18327Y97641D02*
X18908Y98222D01*
X18500Y79828D02*
X19914Y78414D01*
X29914D02*
X31500Y80000D01*
X30743Y76414D02*
X33500Y79172D01*
D33*
X108817Y53750D02*
D03*
Y63750D02*
D03*
Y43750D02*
D03*
X108817Y83750D02*
D03*
Y73750D02*
D03*
X108817Y23750D02*
D03*
Y33750D02*
D03*
X108817Y13750D02*
D03*
X108817Y113750D02*
D03*
Y103750D02*
D03*
Y93750D02*
D03*
D34*
Y123750D02*
D03*
D35*
X87500Y82500D02*
D03*
X83750Y15000D02*
D03*
X31250Y30000D02*
D03*
X35000Y7500D02*
D03*
X113750Y30000D02*
D03*
X110000Y7500D02*
D03*
X83750Y30000D02*
D03*
X87500Y22500D02*
D03*
X91250Y15000D02*
D03*
X72500Y7500D02*
D03*
X8750Y15000D02*
D03*
X5000Y22500D02*
D03*
X12500D02*
D03*
X8750Y30000D02*
D03*
X5000Y37500D02*
D03*
X12500D02*
D03*
X16250Y45000D02*
D03*
X8750D02*
D03*
X5000Y52500D02*
D03*
X12500D02*
D03*
X16250Y60000D02*
D03*
X23750D02*
D03*
X27500Y67500D02*
D03*
X5000D02*
D03*
X12500D02*
D03*
X20000D02*
D03*
X16250Y75000D02*
D03*
X57500Y82500D02*
D03*
X68750Y75000D02*
D03*
X65000Y67500D02*
D03*
X72500D02*
D03*
X76250Y75000D02*
D03*
X83750D02*
D03*
X95000Y67500D02*
D03*
X102500D02*
D03*
X80000Y82500D02*
D03*
X83750Y90000D02*
D03*
X68750Y105000D02*
D03*
X35000Y97500D02*
D03*
X12500Y82500D02*
D03*
X5000D02*
D03*
X8750Y90000D02*
D03*
X5000Y97500D02*
D03*
X12500D02*
D03*
X16250Y105000D02*
D03*
X8750D02*
D03*
X80000Y112500D02*
D03*
X87500D02*
D03*
X102500Y127500D02*
D03*
X5000Y112500D02*
D03*
X12500D02*
D03*
X16250Y120000D02*
D03*
X8750D02*
D03*
X27500Y127500D02*
D03*
X20000D02*
D03*
X36500Y90638D02*
D03*
Y23138D02*
D03*
X81000Y42000D02*
D03*
X87500Y86000D02*
D03*
X57756Y111801D02*
D03*
X57500Y43000D02*
D03*
X84500Y109500D02*
D03*
X36500Y26500D02*
D03*
Y94000D02*
D03*
X58267Y23491D02*
D03*
X31000Y38500D02*
D03*
Y35138D02*
D03*
Y106281D02*
D03*
X54500Y91046D02*
D03*
X31000Y102919D02*
D03*
X19393Y30893D02*
D03*
X19451Y27531D02*
D03*
X19281Y94860D02*
D03*
X19222Y98222D02*
D03*
X47000Y42500D02*
D03*
X54905Y23541D02*
D03*
X78000Y26000D02*
D03*
X57862Y91000D02*
D03*
X47000Y110000D02*
D03*
X30500Y118500D02*
D03*
X33000Y121000D02*
D03*
X65000Y125000D02*
D03*
X70000D02*
D03*
M02*
