G04*
G04 #@! TF.GenerationSoftware,Altium Limited,Altium Designer,22.2.1 (43)*
G04*
G04 Layer_Color=32896*
%FSLAX25Y25*%
%MOIN*%
G70*
G04*
G04 #@! TF.SameCoordinates,8C13D30C-EDE4-482D-8627-422F1F93D62C*
G04*
G04*
G04 #@! TF.FilePolarity,Positive*
G04*
G01*
G75*
%ADD14C,0.00500*%
D14*
X357744Y285102D02*
X363256D01*
X357744Y293528D02*
X363256D01*
X357744Y285102D02*
Y293528D01*
X363256Y285102D02*
Y293528D01*
X357744Y285102D02*
X363256D01*
X357744Y293528D02*
X363256D01*
X357744Y285102D02*
Y293528D01*
X363256Y285102D02*
Y293528D01*
X367744Y285102D02*
X373256D01*
X367744Y293528D02*
X373256D01*
X367744Y285102D02*
Y293528D01*
X373256Y285102D02*
Y293528D01*
X367744Y285102D02*
X373256D01*
X367744Y293528D02*
X373256D01*
X367744Y285102D02*
Y293528D01*
X373256Y285102D02*
Y293528D01*
X426256Y340487D02*
Y348913D01*
X420744Y340487D02*
Y348913D01*
X426256D01*
X420744Y340487D02*
X426256D01*
Y348913D01*
X420744Y340487D02*
Y348913D01*
X426256D01*
X420744Y340487D02*
X426256D01*
X415756D02*
Y348913D01*
X410244Y340487D02*
Y348913D01*
X415756D01*
X410244Y340487D02*
X415756D01*
Y348913D01*
X410244Y340487D02*
Y348913D01*
X415756D01*
X410244Y340487D02*
X415756D01*
M02*
