G04*
G04 #@! TF.GenerationSoftware,Altium Limited,Altium Designer,23.5.1 (21)*
G04*
G04 Layer_Physical_Order=1*
G04 Layer_Color=255*
%FSLAX25Y25*%
%MOIN*%
G70*
G04*
G04 #@! TF.SameCoordinates,86227DCE-1063-40F1-909C-4B7B8863FCA1*
G04*
G04*
G04 #@! TF.FilePolarity,Positive*
G04*
G01*
G75*
%ADD13C,0.01000*%
G04:AMPARAMS|DCode=30|XSize=55.12mil|YSize=35.43mil|CornerRadius=2.66mil|HoleSize=0mil|Usage=FLASHONLY|Rotation=270.000|XOffset=0mil|YOffset=0mil|HoleType=Round|Shape=RoundedRectangle|*
%AMROUNDEDRECTD30*
21,1,0.05512,0.03012,0,0,270.0*
21,1,0.04980,0.03543,0,0,270.0*
1,1,0.00532,-0.01506,-0.02490*
1,1,0.00532,-0.01506,0.02490*
1,1,0.00532,0.01506,0.02490*
1,1,0.00532,0.01506,-0.02490*
%
%ADD30ROUNDEDRECTD30*%
G04:AMPARAMS|DCode=31|XSize=49.21mil|YSize=62.99mil|CornerRadius=4.92mil|HoleSize=0mil|Usage=FLASHONLY|Rotation=270.000|XOffset=0mil|YOffset=0mil|HoleType=Round|Shape=RoundedRectangle|*
%AMROUNDEDRECTD31*
21,1,0.04921,0.05315,0,0,270.0*
21,1,0.03937,0.06299,0,0,270.0*
1,1,0.00984,-0.02657,-0.01968*
1,1,0.00984,-0.02657,0.01968*
1,1,0.00984,0.02657,0.01968*
1,1,0.00984,0.02657,-0.01968*
%
%ADD31ROUNDEDRECTD31*%
G04:AMPARAMS|DCode=32|XSize=62.99mil|YSize=118.11mil|CornerRadius=4.72mil|HoleSize=0mil|Usage=FLASHONLY|Rotation=270.000|XOffset=0mil|YOffset=0mil|HoleType=Round|Shape=RoundedRectangle|*
%AMROUNDEDRECTD32*
21,1,0.06299,0.10866,0,0,270.0*
21,1,0.05354,0.11811,0,0,270.0*
1,1,0.00945,-0.05433,-0.02677*
1,1,0.00945,-0.05433,0.02677*
1,1,0.00945,0.05433,0.02677*
1,1,0.00945,0.05433,-0.02677*
%
%ADD32ROUNDEDRECTD32*%
G04:AMPARAMS|DCode=33|XSize=55.12mil|YSize=35.43mil|CornerRadius=2.66mil|HoleSize=0mil|Usage=FLASHONLY|Rotation=180.000|XOffset=0mil|YOffset=0mil|HoleType=Round|Shape=RoundedRectangle|*
%AMROUNDEDRECTD33*
21,1,0.05512,0.03012,0,0,180.0*
21,1,0.04980,0.03543,0,0,180.0*
1,1,0.00532,-0.02490,0.01506*
1,1,0.00532,0.02490,0.01506*
1,1,0.00532,0.02490,-0.01506*
1,1,0.00532,-0.02490,-0.01506*
%
%ADD33ROUNDEDRECTD33*%
G04:AMPARAMS|DCode=34|XSize=51.18mil|YSize=51.18mil|CornerRadius=5.12mil|HoleSize=0mil|Usage=FLASHONLY|Rotation=180.000|XOffset=0mil|YOffset=0mil|HoleType=Round|Shape=RoundedRectangle|*
%AMROUNDEDRECTD34*
21,1,0.05118,0.04095,0,0,180.0*
21,1,0.04095,0.05118,0,0,180.0*
1,1,0.01024,-0.02047,0.02047*
1,1,0.01024,0.02047,0.02047*
1,1,0.01024,0.02047,-0.02047*
1,1,0.01024,-0.02047,-0.02047*
%
%ADD34ROUNDEDRECTD34*%
%ADD35R,0.15748X0.15748*%
%ADD36R,0.09843X0.09055*%
%ADD37R,0.02362X0.01181*%
%ADD38R,0.10236X0.11811*%
%ADD39C,0.03937*%
G04:AMPARAMS|DCode=40|XSize=49.21mil|YSize=62.99mil|CornerRadius=4.92mil|HoleSize=0mil|Usage=FLASHONLY|Rotation=180.000|XOffset=0mil|YOffset=0mil|HoleType=Round|Shape=RoundedRectangle|*
%AMROUNDEDRECTD40*
21,1,0.04921,0.05315,0,0,180.0*
21,1,0.03937,0.06299,0,0,180.0*
1,1,0.00984,-0.01968,0.02657*
1,1,0.00984,0.01968,0.02657*
1,1,0.00984,0.01968,-0.02657*
1,1,0.00984,-0.01968,-0.02657*
%
%ADD40ROUNDEDRECTD40*%
%ADD41C,0.01800*%
%ADD42C,0.01700*%
%ADD43C,0.06142*%
%ADD44C,0.14016*%
%ADD45C,0.10000*%
%ADD46C,0.07874*%
%ADD47C,0.05000*%
%ADD48C,0.02400*%
%ADD49C,0.02800*%
G36*
X213900Y-140100D02*
X195500D01*
X195400Y-140000D01*
Y-174568D01*
X195046Y-174921D01*
X185203Y-174893D01*
X185150Y-174903D01*
X185097Y-174895D01*
X184570Y-174921D01*
X184423Y-174958D01*
X184272D01*
X184061Y-175000D01*
X179207D01*
X177832Y-176375D01*
Y-181569D01*
X177803Y-181688D01*
X177777Y-182216D01*
X177784Y-182268D01*
X177774Y-182320D01*
X177831Y-212947D01*
X177832Y-212954D01*
Y-213068D01*
X177790Y-213288D01*
X177706Y-213494D01*
X177584Y-213679D01*
X177427Y-213837D01*
X177243Y-213961D01*
X177243Y-213961D01*
X134839D01*
X134700Y-213519D01*
Y-180700D01*
X134540Y-174387D01*
X134889Y-174029D01*
X140300D01*
X140885Y-173913D01*
X141381Y-173581D01*
X142163Y-172800D01*
X165700D01*
X168000Y-170500D01*
Y-144239D01*
X170100D01*
Y-88400D01*
X178166D01*
X178539Y-88500D01*
X179461D01*
X179834Y-88400D01*
X188166D01*
X188539Y-88500D01*
X189461D01*
X189834Y-88400D01*
X203583D01*
X203850Y-88900D01*
X203818Y-88948D01*
X203719Y-89442D01*
Y-90448D01*
X207500D01*
X211281D01*
Y-89442D01*
X211182Y-88948D01*
X211150Y-88900D01*
X211418Y-88400D01*
X213900D01*
Y-140100D01*
D02*
G37*
G36*
X89100Y-137454D02*
Y-145800D01*
X89300Y-146000D01*
X100977D01*
X101129Y-146030D01*
X101720D01*
X101871Y-146000D01*
X103282D01*
Y-149409D01*
X102339D01*
X102305Y-149387D01*
X101720Y-149271D01*
X99500D01*
X98915Y-149387D01*
X98419Y-149719D01*
X92766Y-155371D01*
X90582D01*
X90246Y-155035D01*
X89438Y-154700D01*
X88562D01*
X87754Y-155035D01*
X87135Y-155654D01*
X86800Y-156462D01*
Y-157338D01*
X87135Y-158146D01*
X87754Y-158765D01*
X88562Y-159100D01*
X89438D01*
X90246Y-158765D01*
X90582Y-158429D01*
X93400D01*
X93985Y-158313D01*
X94481Y-157981D01*
X96152Y-156311D01*
X96614Y-156502D01*
Y-158200D01*
X96500D01*
X95900Y-158800D01*
Y-212600D01*
X55100D01*
X54700Y-212200D01*
Y-175000D01*
X43911D01*
X43824Y-174983D01*
X43673D01*
X43526Y-174946D01*
X42808Y-174911D01*
X42751Y-174919D01*
X42695Y-174908D01*
X29899Y-174993D01*
X29863Y-175000D01*
X29471D01*
X28491Y-174805D01*
X28000Y-174602D01*
Y-152616D01*
X28462Y-152425D01*
X30419Y-154381D01*
X30915Y-154713D01*
X31500Y-154829D01*
X32085Y-154713D01*
X32581Y-154381D01*
X32913Y-153885D01*
X33029Y-153300D01*
X32913Y-152715D01*
X32581Y-152219D01*
X29781Y-149418D01*
Y-137212D01*
X88746Y-137101D01*
X89100Y-137454D01*
D02*
G37*
G36*
X117585Y-157676D02*
X117500Y-157706D01*
X117425Y-157757D01*
X117360Y-157828D01*
X117305Y-157919D01*
X117260Y-158030D01*
X117225Y-158162D01*
X117200Y-158313D01*
X117185Y-158485D01*
X117180Y-158678D01*
X116180D01*
X116175Y-158485D01*
X116160Y-158313D01*
X116135Y-158162D01*
X116100Y-158030D01*
X116055Y-157919D01*
X116000Y-157828D01*
X115935Y-157757D01*
X115860Y-157706D01*
X115775Y-157676D01*
X115680Y-157666D01*
X117680D01*
X117585Y-157676D01*
D02*
G37*
G36*
X150696Y-164967D02*
X150706Y-165018D01*
X150942Y-165371D01*
X151294Y-165606D01*
X151710Y-165689D01*
X154782D01*
X154818Y-165713D01*
X155403Y-165829D01*
X162408D01*
Y-166790D01*
X162490Y-167206D01*
X162726Y-167559D01*
X163078Y-167794D01*
X163494Y-167877D01*
X166506D01*
X166980Y-168292D01*
Y-170078D01*
X165278Y-171780D01*
X143836D01*
X143644Y-171318D01*
X150154Y-164808D01*
X150696Y-164967D01*
D02*
G37*
G36*
X126573Y-68539D02*
X126574Y-68539D01*
X126575Y-68539D01*
X226461Y-68539D01*
X226900D01*
X227760Y-68711D01*
X228570Y-69046D01*
X229298Y-69533D01*
X229919Y-70153D01*
X230405Y-70882D01*
X230741Y-71692D01*
X230912Y-72552D01*
Y-72989D01*
X230882Y-169266D01*
X230882Y-169266D01*
X230882Y-169266D01*
Y-169832D01*
X230661Y-170941D01*
X230228Y-171986D01*
X229600Y-172927D01*
X228800Y-173726D01*
X227859Y-174355D01*
X226814Y-174788D01*
X225705Y-175008D01*
X225142D01*
X196829Y-174927D01*
X196425Y-174575D01*
X196420Y-174568D01*
Y-141120D01*
X213900D01*
X214290Y-141042D01*
X214621Y-140821D01*
X214842Y-140490D01*
X214920Y-140100D01*
Y-88400D01*
X214842Y-88010D01*
X214621Y-87679D01*
X214290Y-87458D01*
X213900Y-87380D01*
X211418D01*
X211271Y-87410D01*
X211122Y-87424D01*
X211077Y-87448D01*
X211027Y-87458D01*
X210903Y-87541D01*
X210771Y-87612D01*
X210739Y-87651D01*
X210697Y-87679D01*
X210613Y-87804D01*
X210518Y-87919D01*
X210257Y-88408D01*
X209990Y-88355D01*
X205010D01*
X204743Y-88408D01*
X204482Y-87919D01*
X204387Y-87804D01*
X204304Y-87679D01*
X204261Y-87651D01*
X204229Y-87612D01*
X204097Y-87541D01*
X203973Y-87458D01*
X203923Y-87448D01*
X203878Y-87424D01*
X203729Y-87410D01*
X203583Y-87380D01*
X189834D01*
X189703Y-87406D01*
X189570Y-87415D01*
X189327Y-87480D01*
X188673D01*
X188430Y-87415D01*
X188297Y-87406D01*
X188166Y-87380D01*
X179834D01*
X179703Y-87406D01*
X179570Y-87415D01*
X179326Y-87480D01*
X178674D01*
X178430Y-87415D01*
X178297Y-87406D01*
X178166Y-87380D01*
X170100D01*
X169710Y-87458D01*
X169379Y-87679D01*
X169158Y-88010D01*
X169080Y-88400D01*
Y-143220D01*
X168000D01*
X167610Y-143297D01*
X167279Y-143518D01*
X167058Y-143849D01*
X166980Y-144239D01*
Y-150579D01*
X166480Y-150713D01*
X166415Y-150600D01*
X165900Y-150085D01*
X165269Y-149720D01*
X164565Y-149531D01*
X163836D01*
X163131Y-149720D01*
X162500Y-150085D01*
X161985Y-150600D01*
X161620Y-151231D01*
X161432Y-151936D01*
Y-152664D01*
X161620Y-153369D01*
X161985Y-154000D01*
X162500Y-154515D01*
X162671Y-154614D01*
Y-161124D01*
X162490Y-161394D01*
X162408Y-161810D01*
Y-162771D01*
X157777D01*
Y-161591D01*
X157694Y-161175D01*
X157458Y-160822D01*
X157106Y-160587D01*
X156690Y-160504D01*
X151710D01*
X151294Y-160587D01*
X150942Y-160822D01*
X150706Y-161175D01*
X150628Y-161567D01*
X149704D01*
X149118Y-161683D01*
X148622Y-162015D01*
X139666Y-170971D01*
X137256D01*
X137004Y-170663D01*
Y-165683D01*
X136921Y-165267D01*
X136807Y-165096D01*
X137041Y-164596D01*
X138210D01*
X138715Y-164496D01*
X139142Y-164211D01*
X139428Y-163783D01*
X139528Y-163279D01*
Y-159342D01*
X139428Y-158838D01*
X139142Y-158411D01*
X138715Y-158125D01*
X138210Y-158025D01*
X132896D01*
X132391Y-158125D01*
X131964Y-158411D01*
X131678Y-158838D01*
X131578Y-159342D01*
Y-163279D01*
X131678Y-163783D01*
X131964Y-164211D01*
X132127Y-164320D01*
X132137Y-164914D01*
X132135Y-164916D01*
X131901Y-165267D01*
X131818Y-165683D01*
Y-170663D01*
X131566Y-170971D01*
X130760D01*
X130508Y-170663D01*
Y-165683D01*
X130425Y-165267D01*
X130189Y-164914D01*
X129889Y-164714D01*
X129810Y-164444D01*
X129778Y-164157D01*
X130028Y-163783D01*
X130128Y-163279D01*
Y-159342D01*
X130028Y-158838D01*
X129742Y-158411D01*
X129315Y-158125D01*
X128810Y-158025D01*
X123495D01*
X122991Y-158125D01*
X122564Y-158411D01*
X122278Y-158838D01*
X122178Y-159342D01*
Y-163279D01*
X122278Y-163783D01*
X122564Y-164211D01*
X122991Y-164496D01*
X123495Y-164596D01*
X124624D01*
Y-165427D01*
X124740Y-166012D01*
X124828Y-166143D01*
X124561Y-166643D01*
X121806D01*
X121529Y-166367D01*
Y-156679D01*
X121413Y-156094D01*
X121081Y-155597D01*
X118661Y-153177D01*
Y-152559D01*
X117890D01*
X117856Y-152537D01*
X117271Y-152420D01*
X116680D01*
X116095Y-152537D01*
X116061Y-152559D01*
X114699D01*
Y-155340D01*
X114699D01*
Y-155709D01*
X114699D01*
Y-157453D01*
X114666Y-157558D01*
X114671Y-157612D01*
X114661Y-157666D01*
X114689Y-157809D01*
X114699Y-157920D01*
Y-158490D01*
X115107D01*
X115151Y-158526D01*
Y-169494D01*
X115173Y-169605D01*
X114702Y-169800D01*
X114567Y-169597D01*
X114148Y-169317D01*
X113654Y-169219D01*
X112648D01*
Y-172500D01*
X114945D01*
Y-170510D01*
X114941Y-170491D01*
X115412Y-170296D01*
X115599Y-170576D01*
X118604Y-173581D01*
X119100Y-173913D01*
X119686Y-174029D01*
X133123D01*
X133481Y-174364D01*
X133521Y-174413D01*
X133680Y-180713D01*
Y-213499D01*
X133678Y-213522D01*
X133454Y-213873D01*
X133296Y-213998D01*
X96622Y-213921D01*
X96471Y-213421D01*
X96621Y-213321D01*
X96842Y-212990D01*
X96920Y-212600D01*
Y-173798D01*
X97420Y-173591D01*
X98162Y-174334D01*
X98774Y-174743D01*
X99496Y-174886D01*
X103059D01*
Y-175490D01*
X103142Y-175906D01*
X103378Y-176259D01*
X103730Y-176494D01*
X104146Y-176577D01*
X107158D01*
X107574Y-176494D01*
X107926Y-176259D01*
X108162Y-175906D01*
X108245Y-175490D01*
Y-170510D01*
X108162Y-170094D01*
X107926Y-169741D01*
X107574Y-169506D01*
X107158Y-169423D01*
X104146D01*
X103730Y-169506D01*
X103378Y-169741D01*
X103142Y-170094D01*
X103059Y-170510D01*
Y-171114D01*
X100386D01*
Y-165645D01*
X100886Y-165361D01*
X100959Y-165405D01*
Y-167290D01*
X101042Y-167706D01*
X101278Y-168059D01*
X101630Y-168294D01*
X102046Y-168377D01*
X105058D01*
X105474Y-168294D01*
X105826Y-168059D01*
X106062Y-167706D01*
X106144Y-167290D01*
Y-162310D01*
X106062Y-161894D01*
X105826Y-161541D01*
X105474Y-161306D01*
X105058Y-161223D01*
X103830D01*
X103606Y-160999D01*
Y-158490D01*
X103701D01*
Y-155709D01*
X103701D01*
Y-155340D01*
X103701D01*
Y-152691D01*
X103701Y-152559D01*
X103701D01*
Y-152190D01*
X103701D01*
Y-150332D01*
X104003Y-150130D01*
X104224Y-149800D01*
X104302Y-149409D01*
Y-146000D01*
X104224Y-145610D01*
X104003Y-145279D01*
X103701Y-145077D01*
Y-143110D01*
X102369D01*
X102120Y-142738D01*
X99489Y-140108D01*
X98993Y-139776D01*
X98408Y-139660D01*
X97900D01*
X97822Y-139267D01*
X97587Y-138915D01*
X97234Y-138679D01*
X96818Y-138596D01*
X91838D01*
X91422Y-138679D01*
X91070Y-138915D01*
X90834Y-139267D01*
X90751Y-139683D01*
Y-142695D01*
X90834Y-143111D01*
X91070Y-143463D01*
X91422Y-143699D01*
X91838Y-143781D01*
X96818D01*
X97234Y-143699D01*
X97587Y-143463D01*
X97677Y-143328D01*
X98272Y-143216D01*
X99520Y-144464D01*
X99546Y-144594D01*
X99229Y-144980D01*
X90120D01*
Y-137454D01*
X90119Y-137453D01*
X90120Y-137453D01*
X90080Y-137257D01*
X90042Y-137064D01*
X90042Y-137063D01*
X90042Y-137063D01*
X89932Y-136899D01*
X89821Y-136733D01*
X89820Y-136733D01*
X89820Y-136732D01*
X89466Y-136379D01*
X89466Y-136379D01*
X89466Y-136378D01*
X89299Y-136267D01*
X89135Y-136158D01*
X89135Y-136158D01*
X89135Y-136158D01*
X88937Y-136119D01*
X88745Y-136081D01*
X88745Y-136081D01*
X88744Y-136081D01*
X30135Y-136192D01*
X29781Y-135839D01*
Y-124972D01*
X30174Y-124894D01*
X30526Y-124659D01*
X30762Y-124306D01*
X30845Y-123890D01*
Y-118910D01*
X30762Y-118494D01*
X30526Y-118141D01*
X30174Y-117906D01*
X29758Y-117823D01*
X26746D01*
X26330Y-117906D01*
X25978Y-118141D01*
X25742Y-118494D01*
X25659Y-118910D01*
Y-123890D01*
X25742Y-124306D01*
X25978Y-124659D01*
X26330Y-124894D01*
X26723Y-124972D01*
Y-150052D01*
X26839Y-150637D01*
X27171Y-151133D01*
X27310Y-151273D01*
X27279Y-151895D01*
X27058Y-152226D01*
X26980Y-152616D01*
Y-173372D01*
X26480Y-173580D01*
X26126Y-173225D01*
X25592Y-172426D01*
X25225Y-171539D01*
X25038Y-170597D01*
Y-170118D01*
X25074Y-73380D01*
X25074Y-73380D01*
X25074Y-73379D01*
Y-72892D01*
X25264Y-71938D01*
X25637Y-71038D01*
X26177Y-70229D01*
X26866Y-69541D01*
X27675Y-69000D01*
X28575Y-68627D01*
X29530Y-68437D01*
X30014D01*
X126573Y-68539D01*
D02*
G37*
G36*
X53680Y-212200D02*
X53758Y-212590D01*
X53866Y-212752D01*
X53506Y-213113D01*
X53365Y-213019D01*
X52856Y-212509D01*
X52455Y-211910D01*
X52180Y-211245D01*
X52039Y-210538D01*
Y-210177D01*
X52039Y-210177D01*
X52039Y-210177D01*
X52039Y-190220D01*
X52076Y-184290D01*
X52065Y-184233D01*
X52074Y-184177D01*
X52039Y-183458D01*
X52002Y-183312D01*
Y-183160D01*
X51722Y-181751D01*
X51645Y-181566D01*
X51606Y-181369D01*
X51100Y-180148D01*
Y-177000D01*
X48575D01*
X48491Y-176916D01*
X47898Y-176520D01*
X48050Y-176020D01*
X53680D01*
Y-212200D01*
D02*
G37*
%LPC*%
G36*
X211281Y-91448D02*
X208000D01*
Y-93744D01*
X209990D01*
X210484Y-93646D01*
X210903Y-93366D01*
X211182Y-92948D01*
X211281Y-92454D01*
Y-91448D01*
D02*
G37*
G36*
X207000D02*
X203719D01*
Y-92454D01*
X203818Y-92948D01*
X204097Y-93366D01*
X204516Y-93646D01*
X205010Y-93744D01*
X207000D01*
Y-91448D01*
D02*
G37*
G36*
X173002Y-160519D02*
X171996D01*
Y-163800D01*
X174293D01*
Y-161810D01*
X174194Y-161316D01*
X173915Y-160897D01*
X173496Y-160617D01*
X173002Y-160519D01*
D02*
G37*
G36*
X170996D02*
X169990D01*
X169496Y-160617D01*
X169078Y-160897D01*
X168798Y-161316D01*
X168700Y-161810D01*
Y-163800D01*
X170996D01*
Y-160519D01*
D02*
G37*
G36*
X174293Y-164800D02*
X171996D01*
Y-168081D01*
X173002D01*
X173496Y-167982D01*
X173915Y-167703D01*
X174194Y-167284D01*
X174293Y-166790D01*
Y-164800D01*
D02*
G37*
G36*
X170996D02*
X168700D01*
Y-166790D01*
X168798Y-167284D01*
X169078Y-167703D01*
X169496Y-167982D01*
X169990Y-168081D01*
X170996D01*
Y-164800D01*
D02*
G37*
G36*
X147600Y-180754D02*
X147029Y-180907D01*
X146100Y-181442D01*
X145343Y-182200D01*
X145149Y-182535D01*
X144649D01*
X144456Y-182200D01*
X143698Y-181442D01*
X142770Y-180907D01*
X142198Y-180754D01*
Y-184700D01*
Y-188646D01*
X142770Y-188493D01*
X143698Y-187958D01*
X144456Y-187200D01*
X144649Y-186865D01*
X145149D01*
X145343Y-187200D01*
X146100Y-187958D01*
X147029Y-188493D01*
X147600Y-188646D01*
Y-184700D01*
Y-180754D01*
D02*
G37*
G36*
X149600D02*
Y-183700D01*
X152547D01*
X152393Y-183129D01*
X151857Y-182200D01*
X151100Y-181442D01*
X150171Y-180907D01*
X149600Y-180754D01*
D02*
G37*
G36*
X140198D02*
X139627Y-180907D01*
X138699Y-181442D01*
X137941Y-182200D01*
X137405Y-183129D01*
X137252Y-183700D01*
X140198D01*
Y-180754D01*
D02*
G37*
G36*
X152547Y-185700D02*
X149600D01*
Y-188646D01*
X150171Y-188493D01*
X151100Y-187958D01*
X151857Y-187200D01*
X152393Y-186271D01*
X152547Y-185700D01*
D02*
G37*
G36*
X140198D02*
X137252D01*
X137405Y-186271D01*
X137941Y-187200D01*
X138699Y-187958D01*
X139627Y-188493D01*
X140198Y-188646D01*
Y-185700D01*
D02*
G37*
G36*
X147600Y-190753D02*
X147029Y-190907D01*
X146100Y-191443D01*
X145343Y-192200D01*
X145149Y-192535D01*
X144649D01*
X144456Y-192200D01*
X143698Y-191443D01*
X142770Y-190907D01*
X142198Y-190753D01*
Y-194700D01*
Y-198646D01*
X142770Y-198493D01*
X143698Y-197958D01*
X144456Y-197200D01*
X144649Y-196865D01*
X145149D01*
X145343Y-197200D01*
X146100Y-197958D01*
X147029Y-198493D01*
X147600Y-198646D01*
Y-194700D01*
Y-190753D01*
D02*
G37*
G36*
X149600D02*
Y-193700D01*
X152547D01*
X152393Y-193129D01*
X151857Y-192200D01*
X151100Y-191443D01*
X150171Y-190907D01*
X149600Y-190753D01*
D02*
G37*
G36*
X140198D02*
X139627Y-190907D01*
X138699Y-191443D01*
X137941Y-192200D01*
X137405Y-193129D01*
X137252Y-193700D01*
X140198D01*
Y-190753D01*
D02*
G37*
G36*
X152547Y-195700D02*
X149600D01*
Y-198646D01*
X150171Y-198493D01*
X151100Y-197958D01*
X151857Y-197200D01*
X152393Y-196271D01*
X152547Y-195700D01*
D02*
G37*
G36*
X140198D02*
X137252D01*
X137405Y-196271D01*
X137941Y-197200D01*
X138699Y-197958D01*
X139627Y-198493D01*
X140198Y-198646D01*
Y-195700D01*
D02*
G37*
G36*
X167893Y-183700D02*
X166315D01*
X164768Y-184008D01*
X163311Y-184611D01*
X161999Y-185488D01*
X160884Y-186603D01*
X160007Y-187915D01*
X159404Y-189372D01*
X159096Y-190919D01*
Y-192497D01*
X159404Y-194044D01*
X160007Y-195501D01*
X160884Y-196813D01*
X161999Y-197928D01*
X163311Y-198804D01*
X164768Y-199408D01*
X166315Y-199716D01*
X167893D01*
X169440Y-199408D01*
X170897Y-198804D01*
X172209Y-197928D01*
X173324Y-196813D01*
X174200Y-195501D01*
X174804Y-194044D01*
X175112Y-192497D01*
Y-190919D01*
X174804Y-189372D01*
X174200Y-187915D01*
X173324Y-186603D01*
X172209Y-185488D01*
X170897Y-184611D01*
X169440Y-184008D01*
X167893Y-183700D01*
D02*
G37*
G36*
X147600Y-200753D02*
X147029Y-200907D01*
X146100Y-201443D01*
X145343Y-202200D01*
X145149Y-202535D01*
X144649D01*
X144456Y-202200D01*
X143698Y-201443D01*
X142770Y-200907D01*
X142198Y-200753D01*
Y-204700D01*
Y-208646D01*
X142770Y-208493D01*
X143698Y-207958D01*
X144456Y-207200D01*
X144649Y-206865D01*
X145149D01*
X145343Y-207200D01*
X146100Y-207958D01*
X147029Y-208493D01*
X147600Y-208646D01*
Y-204700D01*
Y-200753D01*
D02*
G37*
G36*
X149600D02*
Y-203700D01*
X152547D01*
X152393Y-203129D01*
X151857Y-202200D01*
X151100Y-201443D01*
X150171Y-200907D01*
X149600Y-200753D01*
D02*
G37*
G36*
X140198D02*
X139627Y-200907D01*
X138699Y-201443D01*
X137941Y-202200D01*
X137405Y-203129D01*
X137252Y-203700D01*
X140198D01*
Y-200753D01*
D02*
G37*
G36*
X152547Y-205700D02*
X149600D01*
Y-208646D01*
X150171Y-208493D01*
X151100Y-207958D01*
X151857Y-207200D01*
X152393Y-206271D01*
X152547Y-205700D01*
D02*
G37*
G36*
X140198D02*
X137252D01*
X137405Y-206271D01*
X137941Y-207200D01*
X138699Y-207958D01*
X139627Y-208493D01*
X140198Y-208646D01*
Y-205700D01*
D02*
G37*
G36*
X88545Y-180754D02*
X87974Y-180907D01*
X87045Y-181442D01*
X86287Y-182200D01*
X86094Y-182535D01*
X85594D01*
X85401Y-182200D01*
X84643Y-181442D01*
X83715Y-180907D01*
X83143Y-180754D01*
Y-184700D01*
Y-188646D01*
X83715Y-188493D01*
X84643Y-187958D01*
X85401Y-187200D01*
X85594Y-186865D01*
X86094D01*
X86287Y-187200D01*
X87045Y-187958D01*
X87974Y-188493D01*
X88545Y-188646D01*
Y-184700D01*
Y-180754D01*
D02*
G37*
G36*
X90545D02*
Y-183700D01*
X93491D01*
X93338Y-183129D01*
X92802Y-182200D01*
X92044Y-181442D01*
X91116Y-180907D01*
X90545Y-180754D01*
D02*
G37*
G36*
X81143D02*
X80572Y-180907D01*
X79644Y-181442D01*
X78886Y-182200D01*
X78350Y-183129D01*
X78197Y-183700D01*
X81143D01*
Y-180754D01*
D02*
G37*
G36*
X93491Y-185700D02*
X90545D01*
Y-188646D01*
X91116Y-188493D01*
X92044Y-187958D01*
X92802Y-187200D01*
X93338Y-186271D01*
X93491Y-185700D01*
D02*
G37*
G36*
X81143D02*
X78197D01*
X78350Y-186271D01*
X78886Y-187200D01*
X79644Y-187958D01*
X80572Y-188493D01*
X81143Y-188646D01*
Y-185700D01*
D02*
G37*
G36*
X88545Y-190753D02*
X87974Y-190907D01*
X87045Y-191443D01*
X86287Y-192200D01*
X86094Y-192535D01*
X85594D01*
X85401Y-192200D01*
X84643Y-191443D01*
X83715Y-190907D01*
X83143Y-190753D01*
Y-194700D01*
Y-198646D01*
X83715Y-198493D01*
X84643Y-197958D01*
X85401Y-197200D01*
X85594Y-196865D01*
X86094D01*
X86287Y-197200D01*
X87045Y-197958D01*
X87974Y-198493D01*
X88545Y-198646D01*
Y-194700D01*
Y-190753D01*
D02*
G37*
G36*
X90545D02*
Y-193700D01*
X93491D01*
X93338Y-193129D01*
X92802Y-192200D01*
X92044Y-191443D01*
X91116Y-190907D01*
X90545Y-190753D01*
D02*
G37*
G36*
X81143D02*
X80572Y-190907D01*
X79644Y-191443D01*
X78886Y-192200D01*
X78350Y-193129D01*
X78197Y-193700D01*
X81143D01*
Y-190753D01*
D02*
G37*
G36*
X93491Y-195700D02*
X90545D01*
Y-198646D01*
X91116Y-198493D01*
X92044Y-197958D01*
X92802Y-197200D01*
X93338Y-196271D01*
X93491Y-195700D01*
D02*
G37*
G36*
X81143D02*
X78197D01*
X78350Y-196271D01*
X78886Y-197200D01*
X79644Y-197958D01*
X80572Y-198493D01*
X81143Y-198646D01*
Y-195700D01*
D02*
G37*
G36*
X64428Y-183700D02*
X62851D01*
X61304Y-184008D01*
X59846Y-184611D01*
X58535Y-185488D01*
X57419Y-186603D01*
X56543Y-187915D01*
X55939Y-189372D01*
X55632Y-190919D01*
Y-192497D01*
X55939Y-194044D01*
X56543Y-195501D01*
X57419Y-196813D01*
X58535Y-197928D01*
X59846Y-198804D01*
X61304Y-199408D01*
X62851Y-199716D01*
X64428D01*
X65975Y-199408D01*
X67432Y-198804D01*
X68744Y-197928D01*
X69859Y-196813D01*
X70736Y-195501D01*
X71339Y-194044D01*
X71647Y-192497D01*
Y-190919D01*
X71339Y-189372D01*
X70736Y-187915D01*
X69859Y-186603D01*
X68744Y-185488D01*
X67432Y-184611D01*
X65975Y-184008D01*
X64428Y-183700D01*
D02*
G37*
G36*
X88545Y-200753D02*
X87974Y-200907D01*
X87045Y-201443D01*
X86287Y-202200D01*
X86094Y-202535D01*
X85594D01*
X85401Y-202200D01*
X84643Y-201443D01*
X83715Y-200907D01*
X83143Y-200753D01*
Y-204700D01*
Y-208646D01*
X83715Y-208493D01*
X84643Y-207958D01*
X85401Y-207200D01*
X85594Y-206865D01*
X86094D01*
X86287Y-207200D01*
X87045Y-207958D01*
X87974Y-208493D01*
X88545Y-208646D01*
Y-204700D01*
Y-200753D01*
D02*
G37*
G36*
X90545D02*
Y-203700D01*
X93491D01*
X93338Y-203129D01*
X92802Y-202200D01*
X92044Y-201443D01*
X91116Y-200907D01*
X90545Y-200753D01*
D02*
G37*
G36*
X81143D02*
X80572Y-200907D01*
X79644Y-201443D01*
X78886Y-202200D01*
X78350Y-203129D01*
X78197Y-203700D01*
X81143D01*
Y-200753D01*
D02*
G37*
G36*
X93491Y-205700D02*
X90545D01*
Y-208646D01*
X91116Y-208493D01*
X92044Y-207958D01*
X92802Y-207200D01*
X93338Y-206271D01*
X93491Y-205700D01*
D02*
G37*
G36*
X81143D02*
X78197D01*
X78350Y-206271D01*
X78886Y-207200D01*
X79644Y-207958D01*
X80572Y-208493D01*
X81143Y-208646D01*
Y-205700D01*
D02*
G37*
G36*
X203615Y-74315D02*
X199521D01*
X199009Y-74417D01*
X198575Y-74707D01*
X198285Y-75141D01*
X198183Y-75653D01*
Y-79747D01*
X198285Y-80259D01*
X198575Y-80693D01*
X199009Y-80983D01*
X199521Y-81085D01*
X203615D01*
X204127Y-80983D01*
X204561Y-80693D01*
X204851Y-80259D01*
X204852Y-80252D01*
X205395Y-80088D01*
X205971Y-80664D01*
Y-81859D01*
X205010D01*
X204594Y-81942D01*
X204241Y-82178D01*
X204006Y-82530D01*
X203923Y-82946D01*
Y-85958D01*
X204006Y-86374D01*
X204241Y-86726D01*
X204594Y-86962D01*
X205010Y-87045D01*
X209990D01*
X210406Y-86962D01*
X210758Y-86726D01*
X210994Y-86374D01*
X211077Y-85958D01*
Y-82946D01*
X210994Y-82530D01*
X210758Y-82178D01*
X210406Y-81942D01*
X209990Y-81859D01*
X209029D01*
Y-80031D01*
X208913Y-79445D01*
X208581Y-78949D01*
X206251Y-76619D01*
X205755Y-76287D01*
X205169Y-76171D01*
X204953D01*
Y-75653D01*
X204851Y-75141D01*
X204561Y-74707D01*
X204127Y-74417D01*
X203615Y-74315D01*
D02*
G37*
G36*
X93664Y-71031D02*
X92936D01*
X92231Y-71220D01*
X91600Y-71585D01*
X91085Y-72100D01*
X90720Y-72731D01*
X90531Y-73435D01*
Y-74164D01*
X90720Y-74869D01*
X91085Y-75500D01*
X91600Y-76015D01*
X91687Y-76066D01*
X91694Y-76077D01*
X91734Y-76181D01*
X91795Y-76246D01*
X91842Y-76323D01*
X91931Y-76389D01*
X92007Y-76470D01*
X92087Y-76506D01*
X92097Y-76562D01*
X92099Y-76589D01*
Y-82854D01*
X92098Y-82867D01*
X92065Y-83007D01*
X91992Y-83207D01*
X91875Y-83458D01*
X91712Y-83753D01*
X91512Y-84071D01*
X90587Y-85309D01*
X90197Y-85772D01*
X90188Y-85788D01*
X90007Y-85969D01*
X89357Y-87094D01*
X89286Y-87358D01*
X88786D01*
X88715Y-87094D01*
X88065Y-85969D01*
X87146Y-85049D01*
X86021Y-84399D01*
X84765Y-84063D01*
X83465D01*
X82209Y-84399D01*
X81084Y-85049D01*
X80164Y-85969D01*
X79514Y-87094D01*
X79178Y-88350D01*
Y-89650D01*
X79514Y-90906D01*
X80164Y-92031D01*
X81084Y-92951D01*
X82209Y-93601D01*
X83465Y-93937D01*
X84765D01*
X86021Y-93601D01*
X87146Y-92951D01*
X88065Y-92031D01*
X88715Y-90906D01*
X88786Y-90642D01*
X89286D01*
X89357Y-90906D01*
X90007Y-92031D01*
X90288Y-92312D01*
X90322Y-92369D01*
X90730Y-92819D01*
X91077Y-93224D01*
X91655Y-93979D01*
X91860Y-94290D01*
X92024Y-94575D01*
X92141Y-94818D01*
X92214Y-95014D01*
X92248Y-95155D01*
X92249Y-95174D01*
Y-104539D01*
X91735Y-105054D01*
X91400Y-105862D01*
Y-106738D01*
X91735Y-107546D01*
X92354Y-108165D01*
X93162Y-108500D01*
X94038D01*
X94846Y-108165D01*
X95465Y-107546D01*
X95800Y-106738D01*
Y-105862D01*
X95465Y-105054D01*
X95369Y-104958D01*
X95366Y-104953D01*
X95358Y-104940D01*
X95349Y-104922D01*
X95340Y-104898D01*
X95330Y-104867D01*
X95320Y-104829D01*
X95314Y-104796D01*
X95308Y-104732D01*
Y-95217D01*
X95311Y-95187D01*
X95345Y-95047D01*
X95417Y-94862D01*
X95533Y-94638D01*
X95697Y-94379D01*
X95910Y-94090D01*
X96166Y-93784D01*
X96858Y-93068D01*
X96978Y-92957D01*
X96989Y-92951D01*
X97036Y-92903D01*
X97275Y-92682D01*
X97323Y-92616D01*
X97908Y-92031D01*
X98558Y-90906D01*
X98895Y-89650D01*
Y-88350D01*
X98558Y-87094D01*
X97908Y-85969D01*
X97150Y-85211D01*
X97147Y-85207D01*
X97139Y-85199D01*
X96989Y-85049D01*
X96937Y-85019D01*
X96330Y-84478D01*
X96022Y-84165D01*
X95757Y-83865D01*
X95544Y-83590D01*
X95381Y-83342D01*
X95266Y-83126D01*
X95196Y-82947D01*
X95161Y-82808D01*
X95158Y-82774D01*
Y-76382D01*
X95160Y-76356D01*
X95173Y-76267D01*
X95188Y-76196D01*
X95204Y-76144D01*
X95218Y-76108D01*
X95228Y-76088D01*
X95233Y-76081D01*
X95272Y-76043D01*
X95329Y-75963D01*
X95400Y-75895D01*
X95442Y-75802D01*
X95501Y-75718D01*
X95523Y-75622D01*
X95563Y-75532D01*
X95566Y-75430D01*
X95572Y-75401D01*
X95880Y-74869D01*
X96069Y-74164D01*
Y-73435D01*
X95880Y-72731D01*
X95515Y-72100D01*
X95000Y-71585D01*
X94369Y-71220D01*
X93664Y-71031D01*
D02*
G37*
G36*
X164800Y-86680D02*
X161250D01*
X160860Y-86758D01*
X160529Y-86979D01*
X160523Y-86985D01*
X159957Y-87311D01*
X159327Y-87480D01*
X158674D01*
X158043Y-87311D01*
X157477Y-86985D01*
X157471Y-86979D01*
X157140Y-86758D01*
X156750Y-86680D01*
X150250D01*
X149860Y-86758D01*
X149529Y-86979D01*
X149523Y-86985D01*
X148957Y-87311D01*
X148327Y-87480D01*
X147673D01*
X147043Y-87311D01*
X146477Y-86985D01*
X146471Y-86979D01*
X146140Y-86758D01*
X145750Y-86680D01*
X122200D01*
X121810Y-86758D01*
X121479Y-86979D01*
X121258Y-87310D01*
X121180Y-87700D01*
Y-143561D01*
X118661D01*
Y-143110D01*
X114699D01*
Y-144969D01*
X114397Y-145170D01*
X114176Y-145501D01*
X114099Y-145891D01*
Y-149409D01*
X114176Y-149800D01*
X114397Y-150130D01*
X114728Y-150351D01*
X115118Y-150429D01*
X118332D01*
X118661Y-150495D01*
X128300D01*
X128690Y-150417D01*
X129021Y-150196D01*
X129242Y-149865D01*
X129320Y-149475D01*
X129320Y-140020D01*
X164800D01*
X165190Y-139942D01*
X165521Y-139721D01*
X165742Y-139390D01*
X165820Y-139000D01*
Y-87700D01*
X165742Y-87310D01*
X165521Y-86979D01*
X165190Y-86758D01*
X164800Y-86680D01*
D02*
G37*
G36*
X36313Y-110115D02*
X32219D01*
X31707Y-110217D01*
X31273Y-110507D01*
X30983Y-110941D01*
X30881Y-111453D01*
Y-115547D01*
X30983Y-116059D01*
X31273Y-116493D01*
X31707Y-116783D01*
X32219Y-116885D01*
X33219D01*
Y-117828D01*
X32826Y-117906D01*
X32474Y-118141D01*
X32238Y-118494D01*
X32155Y-118910D01*
Y-123890D01*
X32238Y-124306D01*
X32474Y-124659D01*
X32826Y-124894D01*
X33242Y-124977D01*
X36254D01*
X36670Y-124894D01*
X37022Y-124659D01*
X37258Y-124306D01*
X37341Y-123890D01*
Y-118910D01*
X37258Y-118494D01*
X37022Y-118141D01*
X36670Y-117906D01*
X36277Y-117828D01*
Y-116885D01*
X36313D01*
X36825Y-116783D01*
X37259Y-116493D01*
X37549Y-116059D01*
X37651Y-115547D01*
Y-111453D01*
X37549Y-110941D01*
X37259Y-110507D01*
X36825Y-110217D01*
X36313Y-110115D01*
D02*
G37*
G36*
X96818Y-132100D02*
X91838D01*
X91422Y-132183D01*
X91070Y-132419D01*
X90834Y-132771D01*
X90751Y-133187D01*
Y-136199D01*
X90834Y-136615D01*
X91070Y-136967D01*
X91422Y-137203D01*
X91838Y-137285D01*
X96818D01*
X97234Y-137203D01*
X97587Y-136967D01*
X97673Y-136837D01*
X99728D01*
X100362Y-137100D01*
X101238D01*
X102046Y-136765D01*
X102665Y-136146D01*
X103000Y-135338D01*
Y-134462D01*
X102665Y-133654D01*
X102046Y-133035D01*
X101238Y-132700D01*
X100362D01*
X99728Y-132963D01*
X97860D01*
X97822Y-132771D01*
X97587Y-132419D01*
X97234Y-132183D01*
X96818Y-132100D01*
D02*
G37*
G36*
X111554Y-161019D02*
X110548D01*
Y-164300D01*
X112845D01*
Y-162310D01*
X112746Y-161816D01*
X112467Y-161397D01*
X112048Y-161117D01*
X111554Y-161019D01*
D02*
G37*
G36*
X109548D02*
X108542D01*
X108048Y-161117D01*
X107630Y-161397D01*
X107350Y-161816D01*
X107252Y-162310D01*
Y-164300D01*
X109548D01*
Y-161019D01*
D02*
G37*
G36*
X112845Y-165300D02*
X110548D01*
Y-168581D01*
X111554D01*
X112048Y-168482D01*
X112467Y-168203D01*
X112746Y-167784D01*
X112845Y-167290D01*
Y-165300D01*
D02*
G37*
G36*
X109548D02*
X107252D01*
Y-167290D01*
X107350Y-167784D01*
X107630Y-168203D01*
X108048Y-168482D01*
X108542Y-168581D01*
X109548D01*
Y-165300D01*
D02*
G37*
G36*
X111648Y-169219D02*
X110642D01*
X110148Y-169317D01*
X109730Y-169597D01*
X109450Y-170016D01*
X109352Y-170510D01*
Y-172500D01*
X111648D01*
Y-169219D01*
D02*
G37*
G36*
X114945Y-173500D02*
X112648D01*
Y-176781D01*
X113654D01*
X114148Y-176682D01*
X114567Y-176403D01*
X114846Y-175984D01*
X114945Y-175490D01*
Y-173500D01*
D02*
G37*
G36*
X111648D02*
X109352D01*
Y-175490D01*
X109450Y-175984D01*
X109730Y-176403D01*
X110148Y-176682D01*
X110642Y-176781D01*
X111648D01*
Y-173500D01*
D02*
G37*
G36*
X127915Y-180754D02*
X127344Y-180907D01*
X126415Y-181442D01*
X125657Y-182200D01*
X125464Y-182535D01*
X124964D01*
X124771Y-182200D01*
X124013Y-181442D01*
X123085Y-180907D01*
X122513Y-180754D01*
Y-184700D01*
Y-188646D01*
X123085Y-188493D01*
X124013Y-187958D01*
X124771Y-187200D01*
X124964Y-186865D01*
X125464D01*
X125657Y-187200D01*
X126415Y-187958D01*
X127344Y-188493D01*
X127915Y-188646D01*
Y-184700D01*
Y-180754D01*
D02*
G37*
G36*
X108230D02*
X107659Y-180907D01*
X106730Y-181442D01*
X105972Y-182200D01*
X105779Y-182535D01*
X105279D01*
X105086Y-182200D01*
X104328Y-181442D01*
X103400Y-180907D01*
X102828Y-180754D01*
Y-184700D01*
Y-188646D01*
X103400Y-188493D01*
X104328Y-187958D01*
X105086Y-187200D01*
X105279Y-186865D01*
X105779D01*
X105972Y-187200D01*
X106730Y-187958D01*
X107659Y-188493D01*
X108230Y-188646D01*
Y-184700D01*
Y-180754D01*
D02*
G37*
G36*
X129915D02*
Y-183700D01*
X132861D01*
X132708Y-183129D01*
X132173Y-182200D01*
X131414Y-181442D01*
X130486Y-180907D01*
X129915Y-180754D01*
D02*
G37*
G36*
X120513D02*
X119942Y-180907D01*
X119014Y-181442D01*
X118256Y-182200D01*
X117720Y-183129D01*
X117567Y-183700D01*
X120513D01*
Y-180754D01*
D02*
G37*
G36*
X110230D02*
Y-183700D01*
X113176D01*
X113023Y-183129D01*
X112487Y-182200D01*
X111730Y-181442D01*
X110801Y-180907D01*
X110230Y-180754D01*
D02*
G37*
G36*
X100828D02*
X100257Y-180907D01*
X99329Y-181442D01*
X98571Y-182200D01*
X98035Y-183129D01*
X97882Y-183700D01*
X100828D01*
Y-180754D01*
D02*
G37*
G36*
X132861Y-185700D02*
X129915D01*
Y-188646D01*
X130486Y-188493D01*
X131414Y-187958D01*
X132173Y-187200D01*
X132708Y-186271D01*
X132861Y-185700D01*
D02*
G37*
G36*
X120513D02*
X117567D01*
X117720Y-186271D01*
X118256Y-187200D01*
X119014Y-187958D01*
X119942Y-188493D01*
X120513Y-188646D01*
Y-185700D01*
D02*
G37*
G36*
X113176D02*
X110230D01*
Y-188646D01*
X110801Y-188493D01*
X111730Y-187958D01*
X112487Y-187200D01*
X113023Y-186271D01*
X113176Y-185700D01*
D02*
G37*
G36*
X100828D02*
X97882D01*
X98035Y-186271D01*
X98571Y-187200D01*
X99329Y-187958D01*
X100257Y-188493D01*
X100828Y-188646D01*
Y-185700D01*
D02*
G37*
G36*
X127915Y-190753D02*
X127344Y-190907D01*
X126415Y-191443D01*
X125657Y-192200D01*
X125464Y-192535D01*
X124964D01*
X124771Y-192200D01*
X124013Y-191443D01*
X123085Y-190907D01*
X122513Y-190753D01*
Y-194700D01*
Y-198646D01*
X123085Y-198493D01*
X124013Y-197958D01*
X124771Y-197200D01*
X124964Y-196865D01*
X125464D01*
X125657Y-197200D01*
X126415Y-197958D01*
X127344Y-198493D01*
X127915Y-198646D01*
Y-194700D01*
Y-190753D01*
D02*
G37*
G36*
X108230D02*
X107659Y-190907D01*
X106730Y-191443D01*
X105972Y-192200D01*
X105779Y-192535D01*
X105279D01*
X105086Y-192200D01*
X104328Y-191443D01*
X103400Y-190907D01*
X102828Y-190753D01*
Y-194700D01*
Y-198646D01*
X103400Y-198493D01*
X104328Y-197958D01*
X105086Y-197200D01*
X105279Y-196865D01*
X105779D01*
X105972Y-197200D01*
X106730Y-197958D01*
X107659Y-198493D01*
X108230Y-198646D01*
Y-194700D01*
Y-190753D01*
D02*
G37*
G36*
X129915D02*
Y-193700D01*
X132861D01*
X132708Y-193129D01*
X132173Y-192200D01*
X131414Y-191443D01*
X130486Y-190907D01*
X129915Y-190753D01*
D02*
G37*
G36*
X120513D02*
X119942Y-190907D01*
X119014Y-191443D01*
X118256Y-192200D01*
X117720Y-193129D01*
X117567Y-193700D01*
X120513D01*
Y-190753D01*
D02*
G37*
G36*
X110230D02*
Y-193700D01*
X113176D01*
X113023Y-193129D01*
X112487Y-192200D01*
X111730Y-191443D01*
X110801Y-190907D01*
X110230Y-190753D01*
D02*
G37*
G36*
X100828D02*
X100257Y-190907D01*
X99329Y-191443D01*
X98571Y-192200D01*
X98035Y-193129D01*
X97882Y-193700D01*
X100828D01*
Y-190753D01*
D02*
G37*
G36*
X132861Y-195700D02*
X129915D01*
Y-198646D01*
X130486Y-198493D01*
X131414Y-197958D01*
X132173Y-197200D01*
X132708Y-196271D01*
X132861Y-195700D01*
D02*
G37*
G36*
X120513D02*
X117567D01*
X117720Y-196271D01*
X118256Y-197200D01*
X119014Y-197958D01*
X119942Y-198493D01*
X120513Y-198646D01*
Y-195700D01*
D02*
G37*
G36*
X113176D02*
X110230D01*
Y-198646D01*
X110801Y-198493D01*
X111730Y-197958D01*
X112487Y-197200D01*
X113023Y-196271D01*
X113176Y-195700D01*
D02*
G37*
G36*
X100828D02*
X97882D01*
X98035Y-196271D01*
X98571Y-197200D01*
X99329Y-197958D01*
X100257Y-198493D01*
X100828Y-198646D01*
Y-195700D01*
D02*
G37*
G36*
X127915Y-200753D02*
X127344Y-200907D01*
X126415Y-201443D01*
X125657Y-202200D01*
X125464Y-202535D01*
X124964D01*
X124771Y-202200D01*
X124013Y-201443D01*
X123085Y-200907D01*
X122513Y-200753D01*
Y-204700D01*
Y-208646D01*
X123085Y-208493D01*
X124013Y-207958D01*
X124771Y-207200D01*
X124964Y-206865D01*
X125464D01*
X125657Y-207200D01*
X126415Y-207958D01*
X127344Y-208493D01*
X127915Y-208646D01*
Y-204700D01*
Y-200753D01*
D02*
G37*
G36*
X108230D02*
X107659Y-200907D01*
X106730Y-201443D01*
X105972Y-202200D01*
X105779Y-202535D01*
X105279D01*
X105086Y-202200D01*
X104328Y-201443D01*
X103400Y-200907D01*
X102828Y-200753D01*
Y-204700D01*
Y-208646D01*
X103400Y-208493D01*
X104328Y-207958D01*
X105086Y-207200D01*
X105279Y-206865D01*
X105779D01*
X105972Y-207200D01*
X106730Y-207958D01*
X107659Y-208493D01*
X108230Y-208646D01*
Y-204700D01*
Y-200753D01*
D02*
G37*
G36*
X129915D02*
Y-203700D01*
X132861D01*
X132708Y-203129D01*
X132173Y-202200D01*
X131414Y-201443D01*
X130486Y-200907D01*
X129915Y-200753D01*
D02*
G37*
G36*
X120513D02*
X119942Y-200907D01*
X119014Y-201443D01*
X118256Y-202200D01*
X117720Y-203129D01*
X117567Y-203700D01*
X120513D01*
Y-200753D01*
D02*
G37*
G36*
X110230D02*
Y-203700D01*
X113176D01*
X113023Y-203129D01*
X112487Y-202200D01*
X111730Y-201443D01*
X110801Y-200907D01*
X110230Y-200753D01*
D02*
G37*
G36*
X100828D02*
X100257Y-200907D01*
X99329Y-201443D01*
X98571Y-202200D01*
X98035Y-203129D01*
X97882Y-203700D01*
X100828D01*
Y-200753D01*
D02*
G37*
G36*
X132861Y-205700D02*
X129915D01*
Y-208646D01*
X130486Y-208493D01*
X131414Y-207958D01*
X132173Y-207200D01*
X132708Y-206271D01*
X132861Y-205700D01*
D02*
G37*
G36*
X120513D02*
X117567D01*
X117720Y-206271D01*
X118256Y-207200D01*
X119014Y-207958D01*
X119942Y-208493D01*
X120513Y-208646D01*
Y-205700D01*
D02*
G37*
G36*
X113176D02*
X110230D01*
Y-208646D01*
X110801Y-208493D01*
X111730Y-207958D01*
X112487Y-207200D01*
X113023Y-206271D01*
X113176Y-205700D01*
D02*
G37*
G36*
X100828D02*
X97882D01*
X98035Y-206271D01*
X98571Y-207200D01*
X99329Y-207958D01*
X100257Y-208493D01*
X100828Y-208646D01*
Y-205700D01*
D02*
G37*
%LPD*%
G36*
X94485Y-75384D02*
X94411Y-75475D01*
X94345Y-75576D01*
X94287Y-75688D01*
X94239Y-75811D01*
X94199Y-75944D01*
X94168Y-76088D01*
X94146Y-76243D01*
X94133Y-76409D01*
X94129Y-76586D01*
X93129Y-76761D01*
X93123Y-76584D01*
X93107Y-76422D01*
X93081Y-76274D01*
X93044Y-76140D01*
X92996Y-76021D01*
X92937Y-75916D01*
X92868Y-75825D01*
X92789Y-75749D01*
X92698Y-75687D01*
X92597Y-75639D01*
X94569Y-75305D01*
X94485Y-75384D01*
D02*
G37*
G36*
X94152Y-82976D02*
X94222Y-83259D01*
X94339Y-83555D01*
X94503Y-83863D01*
X94714Y-84183D01*
X94971Y-84515D01*
X95275Y-84860D01*
X95626Y-85217D01*
X96469Y-85968D01*
X90976Y-86428D01*
X91385Y-85943D01*
X92354Y-84649D01*
X92591Y-84271D01*
X92784Y-83921D01*
X92935Y-83597D01*
X93043Y-83301D01*
X93107Y-83031D01*
X93129Y-82789D01*
X94129Y-82705D01*
X94152Y-82976D01*
D02*
G37*
G36*
X96583Y-91934D02*
X96145Y-92339D01*
X95408Y-93102D01*
X95108Y-93460D01*
X94855Y-93803D01*
X94647Y-94130D01*
X94486Y-94442D01*
X94371Y-94739D01*
X94302Y-95020D01*
X94279Y-95286D01*
X93279Y-95240D01*
X93257Y-94990D01*
X93191Y-94716D01*
X93081Y-94419D01*
X92926Y-94099D01*
X92728Y-93755D01*
X92486Y-93387D01*
X91869Y-92582D01*
X91495Y-92145D01*
X91077Y-91684D01*
X96583Y-91934D01*
D02*
G37*
G36*
X94279Y-104590D02*
X94282Y-104711D01*
X94304Y-104938D01*
X94323Y-105044D01*
X94349Y-105146D01*
X94379Y-105242D01*
X94416Y-105333D01*
X94458Y-105420D01*
X94505Y-105501D01*
X94558Y-105578D01*
X92897Y-105327D01*
X92970Y-105269D01*
X93034Y-105203D01*
X93092Y-105130D01*
X93141Y-105050D01*
X93183Y-104964D01*
X93218Y-104870D01*
X93244Y-104769D01*
X93264Y-104661D01*
X93275Y-104546D01*
X93279Y-104424D01*
X94279Y-104590D01*
D02*
G37*
G36*
X164800Y-139000D02*
X128300D01*
X128300Y-149475D01*
X118661D01*
Y-149409D01*
X115118D01*
Y-145891D01*
X118661D01*
Y-144580D01*
X122200D01*
Y-87700D01*
X145750D01*
X145851Y-87801D01*
X146649Y-88261D01*
X147539Y-88500D01*
X148461D01*
X149351Y-88261D01*
X150149Y-87801D01*
X150250Y-87700D01*
X156750D01*
X156851Y-87801D01*
X157649Y-88261D01*
X158539Y-88500D01*
X159461D01*
X160351Y-88261D01*
X161149Y-87801D01*
X161250Y-87700D01*
X164800D01*
Y-139000D01*
D02*
G37*
D13*
X164200Y-163500D02*
Y-152300D01*
Y-163500D02*
X165000Y-164300D01*
X154200Y-163096D02*
X155403Y-164300D01*
X165000D01*
X149704Y-163096D02*
X154200D01*
X121173Y-168173D02*
X127915D01*
X134982Y-167602D02*
Y-161881D01*
X126153Y-165427D02*
Y-161311D01*
Y-165427D02*
X127915Y-167189D01*
Y-168173D02*
Y-167189D01*
X119686Y-172500D02*
X140300D01*
X149704Y-163096D01*
X94328Y-134693D02*
X94535Y-134900D01*
X99500Y-150800D02*
X101720D01*
X93400Y-156900D02*
X99500Y-150800D01*
X89000Y-156900D02*
X93400D01*
X207500Y-84452D02*
Y-80031D01*
X205169Y-77700D02*
X207500Y-80031D01*
X201568Y-77700D02*
X205169D01*
X28252Y-150052D02*
Y-121400D01*
Y-150052D02*
X31500Y-153300D01*
X34266Y-113500D02*
X34748Y-113982D01*
Y-121400D02*
Y-113982D01*
X34186Y-113580D02*
X34266Y-113500D01*
X93344Y-141189D02*
X94328D01*
X98408D01*
X101039Y-143820D01*
Y-144410D02*
Y-143820D01*
Y-144410D02*
X101129Y-144501D01*
X101720D01*
X160580Y-176580D02*
X161000Y-177000D01*
X120000Y-167000D02*
X121173Y-168173D01*
X116680Y-153950D02*
X117271D01*
X120000Y-156679D01*
Y-167000D02*
Y-156679D01*
X133348Y-162080D02*
X134490Y-160938D01*
X93779Y-89179D02*
X93958Y-89000D01*
X93779Y-106121D02*
Y-89179D01*
X93600Y-106300D02*
X93779Y-106121D01*
X93300Y-73800D02*
X93629Y-74129D01*
Y-88671D02*
Y-74129D01*
Y-88671D02*
X93958Y-89000D01*
X130171Y-125900D02*
X130565D01*
X126143Y-129928D02*
X130171Y-125900D01*
X116680Y-169494D02*
X119686Y-172500D01*
X103552Y-165784D02*
Y-164800D01*
X116680Y-169494D02*
Y-157099D01*
X103020Y-164268D02*
X103552Y-164800D01*
D30*
X134411Y-168173D02*
D03*
X127915D02*
D03*
X210352Y-127500D02*
D03*
X216848D02*
D03*
X28252Y-121400D02*
D03*
X34748D02*
D03*
X105652Y-173000D02*
D03*
X112148D02*
D03*
X216948Y-120100D02*
D03*
X210452D02*
D03*
X216848Y-134500D02*
D03*
X210352D02*
D03*
X165000Y-164300D02*
D03*
X171496D02*
D03*
X217008Y-112812D02*
D03*
X210512D02*
D03*
X210452Y-96900D02*
D03*
X216948D02*
D03*
X103552Y-164800D02*
D03*
X110048D02*
D03*
D31*
X126153Y-154263D02*
D03*
Y-161311D02*
D03*
X135553Y-154263D02*
D03*
Y-161311D02*
D03*
X78100Y-139724D02*
D03*
Y-132676D02*
D03*
D32*
X41600Y-143987D02*
D03*
Y-129813D02*
D03*
X67600Y-143987D02*
D03*
Y-129813D02*
D03*
X54600Y-143987D02*
D03*
Y-129813D02*
D03*
D33*
X207500Y-90948D02*
D03*
Y-84452D02*
D03*
X85100Y-133152D02*
D03*
Y-139648D02*
D03*
X94328Y-141189D02*
D03*
Y-134693D02*
D03*
X154200Y-163096D02*
D03*
Y-156600D02*
D03*
D34*
X42534Y-113500D02*
D03*
X34266D02*
D03*
X193300Y-77700D02*
D03*
X201568D02*
D03*
D35*
X150430Y-111400D02*
D03*
X189800D02*
D03*
D36*
X130565Y-125900D02*
D03*
X113635D02*
D03*
D37*
X116680Y-144501D02*
D03*
X101720D02*
D03*
Y-147650D02*
D03*
Y-150800D02*
D03*
Y-153950D02*
D03*
Y-157099D02*
D03*
X116680Y-147650D02*
D03*
Y-150800D02*
D03*
Y-153950D02*
D03*
Y-157099D02*
D03*
D38*
X109200Y-150800D02*
D03*
D39*
X134600Y-109100D02*
D03*
X164200Y-152300D02*
D03*
X93300Y-73800D02*
D03*
D40*
X217424Y-104500D02*
D03*
X210376D02*
D03*
D41*
X134982Y-161881D02*
X135553Y-161311D01*
X134411Y-168173D02*
X134982Y-167602D01*
X94535Y-134900D02*
X100800D01*
D42*
X98500Y-154946D02*
X99496Y-153950D01*
X98500Y-172004D02*
Y-154946D01*
X99496Y-153950D02*
X101720D01*
X102120Y-162180D02*
X103379Y-163440D01*
X99496Y-173000D02*
X105652D01*
X98500Y-172004D02*
X99496Y-173000D01*
X101720Y-163280D02*
Y-157099D01*
D43*
X101828Y-184700D02*
D03*
X109230D02*
D03*
X101828Y-194700D02*
D03*
X109230D02*
D03*
X101828Y-204700D02*
D03*
X109230D02*
D03*
X121513Y-184700D02*
D03*
X128915D02*
D03*
X121513Y-194700D02*
D03*
X128915D02*
D03*
X121513Y-204700D02*
D03*
X128915D02*
D03*
X141198Y-184700D02*
D03*
X148600D02*
D03*
X141198Y-194700D02*
D03*
X148600D02*
D03*
X141198Y-204700D02*
D03*
X148600D02*
D03*
X82143Y-184700D02*
D03*
X89545D02*
D03*
X82143Y-194700D02*
D03*
X89545D02*
D03*
X82143Y-204700D02*
D03*
X89545D02*
D03*
D44*
X63639Y-191708D02*
D03*
X167104D02*
D03*
D45*
X44300Y-168500D02*
D03*
X186300Y-144600D02*
D03*
X104700Y-110900D02*
D03*
D46*
X103800Y-89000D02*
D03*
X93958D02*
D03*
X84115D02*
D03*
D47*
X136600Y-94700D02*
D03*
X191600Y-170600D02*
D03*
X202500Y-170400D02*
D03*
X202600Y-158100D02*
D03*
X202500Y-147500D02*
D03*
X223200Y-170300D02*
D03*
X213900Y-170600D02*
D03*
X223700Y-158300D02*
D03*
X213900Y-158400D02*
D03*
X213500Y-147200D02*
D03*
X223000Y-147400D02*
D03*
X85200Y-118000D02*
D03*
X31500Y-153300D02*
D03*
X78000Y-154000D02*
D03*
X44700Y-154100D02*
D03*
X118000Y-211000D02*
D03*
X111000D02*
D03*
X184900Y-165200D02*
D03*
X175800Y-149900D02*
D03*
X201000Y-102000D02*
D03*
X157000Y-184000D02*
D03*
X201000Y-136000D02*
D03*
Y-125000D02*
D03*
X191700Y-153400D02*
D03*
X143000Y-177000D02*
D03*
X161000D02*
D03*
X172000Y-175000D02*
D03*
X174000Y-203000D02*
D03*
X168000Y-209000D02*
D03*
X159000D02*
D03*
X186000Y-134000D02*
D03*
X174000D02*
D03*
X185000Y-93000D02*
D03*
X174000D02*
D03*
Y-107000D02*
D03*
Y-123000D02*
D03*
X138000Y-135000D02*
D03*
X149000Y-98000D02*
D03*
X157000Y-97000D02*
D03*
X144328Y-127935D02*
D03*
X158000Y-125000D02*
D03*
X127700Y-113600D02*
D03*
X128000Y-106000D02*
D03*
X117000Y-109000D02*
D03*
X100354Y-121540D02*
D03*
X104000Y-128000D02*
D03*
X131000Y-81000D02*
D03*
X189000Y-85000D02*
D03*
X179000D02*
D03*
X168000D02*
D03*
X159000D02*
D03*
X148000D02*
D03*
X112000Y-97000D02*
D03*
X116947Y-87402D02*
D03*
X110000Y-81000D02*
D03*
X71000Y-118000D02*
D03*
X77000Y-108000D02*
D03*
X67000Y-94000D02*
D03*
X55000D02*
D03*
X43000D02*
D03*
X67000Y-82000D02*
D03*
X55000D02*
D03*
X128500Y-94500D02*
D03*
X43000Y-82000D02*
D03*
X73000Y-185500D02*
D03*
X72500Y-205500D02*
D03*
X61000Y-205000D02*
D03*
X87500Y-166200D02*
D03*
X61700Y-154300D02*
D03*
X34400Y-165900D02*
D03*
X70300Y-166100D02*
D03*
X53600Y-166000D02*
D03*
D48*
X100800Y-134900D02*
D03*
X89000Y-156900D02*
D03*
X125238Y-138700D02*
D03*
X167000Y-130000D02*
D03*
Y-119000D02*
D03*
Y-109000D02*
D03*
Y-98000D02*
D03*
X93600Y-106300D02*
D03*
D49*
X106641Y-146800D02*
D03*
X111531D02*
D03*
X106641Y-150800D02*
D03*
X111531D02*
D03*
X106641Y-154800D02*
D03*
X111531D02*
D03*
M02*
