G04*
G04 #@! TF.GenerationSoftware,Altium Limited,Altium Designer,20.1.11 (218)*
G04*
G04 Layer_Color=255*
%FSAX25Y25*%
%MOIN*%
G70*
G04*
G04 #@! TF.SameCoordinates,AC60C541-8D92-4DB1-9754-A0BA6A31DCDC*
G04*
G04*
G04 #@! TF.FilePolarity,Positive*
G04*
G01*
G75*
G04:AMPARAMS|DCode=16|XSize=90.55mil|YSize=98.43mil|CornerRadius=6.79mil|HoleSize=0mil|Usage=FLASHONLY|Rotation=90.000|XOffset=0mil|YOffset=0mil|HoleType=Round|Shape=RoundedRectangle|*
%AMROUNDEDRECTD16*
21,1,0.09055,0.08484,0,0,90.0*
21,1,0.07697,0.09843,0,0,90.0*
1,1,0.01358,0.04242,0.03848*
1,1,0.01358,0.04242,-0.03848*
1,1,0.01358,-0.04242,-0.03848*
1,1,0.01358,-0.04242,0.03848*
%
%ADD16ROUNDEDRECTD16*%
G04:AMPARAMS|DCode=17|XSize=43.31mil|YSize=39.37mil|CornerRadius=3.94mil|HoleSize=0mil|Usage=FLASHONLY|Rotation=270.000|XOffset=0mil|YOffset=0mil|HoleType=Round|Shape=RoundedRectangle|*
%AMROUNDEDRECTD17*
21,1,0.04331,0.03150,0,0,270.0*
21,1,0.03543,0.03937,0,0,270.0*
1,1,0.00787,-0.01575,-0.01772*
1,1,0.00787,-0.01575,0.01772*
1,1,0.00787,0.01575,0.01772*
1,1,0.00787,0.01575,-0.01772*
%
%ADD17ROUNDEDRECTD17*%
G04:AMPARAMS|DCode=18|XSize=43.31mil|YSize=39.37mil|CornerRadius=2.95mil|HoleSize=0mil|Usage=FLASHONLY|Rotation=270.000|XOffset=0mil|YOffset=0mil|HoleType=Round|Shape=RoundedRectangle|*
%AMROUNDEDRECTD18*
21,1,0.04331,0.03347,0,0,270.0*
21,1,0.03740,0.03937,0,0,270.0*
1,1,0.00591,-0.01673,-0.01870*
1,1,0.00591,-0.01673,0.01870*
1,1,0.00591,0.01673,0.01870*
1,1,0.00591,0.01673,-0.01870*
%
%ADD18ROUNDEDRECTD18*%
G04:AMPARAMS|DCode=19|XSize=39.37mil|YSize=59.06mil|CornerRadius=3.94mil|HoleSize=0mil|Usage=FLASHONLY|Rotation=270.000|XOffset=0mil|YOffset=0mil|HoleType=Round|Shape=RoundedRectangle|*
%AMROUNDEDRECTD19*
21,1,0.03937,0.05118,0,0,270.0*
21,1,0.03150,0.05906,0,0,270.0*
1,1,0.00787,-0.02559,-0.01575*
1,1,0.00787,-0.02559,0.01575*
1,1,0.00787,0.02559,0.01575*
1,1,0.00787,0.02559,-0.01575*
%
%ADD19ROUNDEDRECTD19*%
%ADD20C,0.03937*%
%ADD21R,0.08000X0.04500*%
G04:AMPARAMS|DCode=22|XSize=43.31mil|YSize=39.37mil|CornerRadius=2.95mil|HoleSize=0mil|Usage=FLASHONLY|Rotation=180.000|XOffset=0mil|YOffset=0mil|HoleType=Round|Shape=RoundedRectangle|*
%AMROUNDEDRECTD22*
21,1,0.04331,0.03347,0,0,180.0*
21,1,0.03740,0.03937,0,0,180.0*
1,1,0.00591,-0.01870,0.01673*
1,1,0.00591,0.01870,0.01673*
1,1,0.00591,0.01870,-0.01673*
1,1,0.00591,-0.01870,-0.01673*
%
%ADD22ROUNDEDRECTD22*%
G04:AMPARAMS|DCode=23|XSize=98.43mil|YSize=177.17mil|CornerRadius=7.38mil|HoleSize=0mil|Usage=FLASHONLY|Rotation=0.000|XOffset=0mil|YOffset=0mil|HoleType=Round|Shape=RoundedRectangle|*
%AMROUNDEDRECTD23*
21,1,0.09843,0.16240,0,0,0.0*
21,1,0.08366,0.17717,0,0,0.0*
1,1,0.01476,0.04183,-0.08120*
1,1,0.01476,-0.04183,-0.08120*
1,1,0.01476,-0.04183,0.08120*
1,1,0.01476,0.04183,0.08120*
%
%ADD23ROUNDEDRECTD23*%
G04:AMPARAMS|DCode=24|XSize=51.18mil|YSize=51.18mil|CornerRadius=5.12mil|HoleSize=0mil|Usage=FLASHONLY|Rotation=0.000|XOffset=0mil|YOffset=0mil|HoleType=Round|Shape=RoundedRectangle|*
%AMROUNDEDRECTD24*
21,1,0.05118,0.04095,0,0,0.0*
21,1,0.04095,0.05118,0,0,0.0*
1,1,0.01024,0.02047,-0.02047*
1,1,0.01024,-0.02047,-0.02047*
1,1,0.01024,-0.02047,0.02047*
1,1,0.01024,0.02047,0.02047*
%
%ADD24ROUNDEDRECTD24*%
G04:AMPARAMS|DCode=25|XSize=39.37mil|YSize=39.37mil|CornerRadius=3.94mil|HoleSize=0mil|Usage=FLASHONLY|Rotation=0.000|XOffset=0mil|YOffset=0mil|HoleType=Round|Shape=RoundedRectangle|*
%AMROUNDEDRECTD25*
21,1,0.03937,0.03150,0,0,0.0*
21,1,0.03150,0.03937,0,0,0.0*
1,1,0.00787,0.01575,-0.01575*
1,1,0.00787,-0.01575,-0.01575*
1,1,0.00787,-0.01575,0.01575*
1,1,0.00787,0.01575,0.01575*
%
%ADD25ROUNDEDRECTD25*%
%ADD26O,0.07480X0.02953*%
G04:AMPARAMS|DCode=27|XSize=29.53mil|YSize=74.8mil|CornerRadius=2.22mil|HoleSize=0mil|Usage=FLASHONLY|Rotation=270.000|XOffset=0mil|YOffset=0mil|HoleType=Round|Shape=RoundedRectangle|*
%AMROUNDEDRECTD27*
21,1,0.02953,0.07037,0,0,270.0*
21,1,0.02510,0.07480,0,0,270.0*
1,1,0.00443,-0.03519,-0.01255*
1,1,0.00443,-0.03519,0.01255*
1,1,0.00443,0.03519,0.01255*
1,1,0.00443,0.03519,-0.01255*
%
%ADD27ROUNDEDRECTD27*%
%ADD47C,0.09055*%
%ADD48C,0.10000*%
%ADD49C,0.17717*%
D16*
X0095750Y0095342D02*
D03*
Y0076051D02*
D03*
D17*
X0084701Y0019000D02*
D03*
X0091000D02*
D03*
X0084701Y0027658D02*
D03*
X0091000D02*
D03*
X0042299Y0029963D02*
D03*
X0036000D02*
D03*
D18*
X0033484Y0074120D02*
D03*
X0027185D02*
D03*
Y0064250D02*
D03*
X0033484D02*
D03*
X0036000Y0005000D02*
D03*
X0042299D02*
D03*
X0036000Y0018342D02*
D03*
X0042299D02*
D03*
X0036000Y0042000D02*
D03*
X0042299D02*
D03*
X0036000Y0052000D02*
D03*
X0042299D02*
D03*
X0023325Y-0000963D02*
D03*
X0029625D02*
D03*
D19*
X0029000Y0012000D02*
D03*
X0021126Y0008260D02*
D03*
Y0015740D02*
D03*
D20*
X0012300Y0091700D02*
D03*
X0022000Y0050000D02*
D03*
X0029000Y0025000D02*
D03*
X0019800Y-0009200D02*
D03*
D21*
X0096000Y0066250D02*
D03*
Y0055750D02*
D03*
D22*
X0029000Y0043000D02*
D03*
Y0036701D02*
D03*
X0022000Y0031299D02*
D03*
Y0025000D02*
D03*
D23*
X0064000Y0100126D02*
D03*
Y0065874D02*
D03*
D24*
X0027106Y0086894D02*
D03*
X0035374D02*
D03*
D25*
X0049336Y-0009200D02*
D03*
D26*
X0074921Y0005842D02*
D03*
D27*
Y0010842D02*
D03*
Y0015842D02*
D03*
Y0020842D02*
D03*
Y0025842D02*
D03*
Y0030842D02*
D03*
Y0035842D02*
D03*
Y0040842D02*
D03*
X0052677Y0005842D02*
D03*
Y0010842D02*
D03*
Y0015842D02*
D03*
Y0020842D02*
D03*
Y0025842D02*
D03*
Y0030842D02*
D03*
Y0035842D02*
D03*
Y0040842D02*
D03*
D47*
X-0001000Y0025315D02*
D03*
Y0045000D02*
D03*
Y0064685D02*
D03*
X0124000Y0060315D02*
D03*
Y0040630D02*
D03*
Y0080000D02*
D03*
Y0020945D02*
D03*
D48*
X0107000Y0099900D02*
D03*
X0027000Y0104000D02*
D03*
D49*
X0000000Y0103000D02*
D03*
X0124000D02*
D03*
Y-0002000D02*
D03*
X0000000Y0000000D02*
D03*
M02*
