G04*
G04 #@! TF.GenerationSoftware,Altium Limited,Altium Designer,21.2.1 (34)*
G04*
G04 Layer_Physical_Order=3*
G04 Layer_Color=16440176*
%FSLAX25Y25*%
%MOIN*%
G70*
G04*
G04 #@! TF.SameCoordinates,CAF5E883-0079-4658-97C8-B00E4F8C62D9*
G04*
G04*
G04 #@! TF.FilePolarity,Positive*
G04*
G01*
G75*
%ADD38C,0.10000*%
%ADD40C,0.05000*%
G36*
X39863Y292794D02*
X41101Y292462D01*
X42284Y291972D01*
X43393Y291331D01*
X44410Y290552D01*
X45315Y289646D01*
X46095Y288630D01*
X46736Y287520D01*
X47226Y286337D01*
X47558Y285099D01*
X47725Y283830D01*
X47725Y283189D01*
X47725Y283189D01*
X47725Y283189D01*
X47725Y-83146D01*
X47725Y-83787D01*
X47558Y-85057D01*
X47226Y-86294D01*
X46736Y-87478D01*
X46095Y-88587D01*
X45315Y-89603D01*
X44410Y-90509D01*
X43393Y-91289D01*
X42284Y-91929D01*
X41101Y-92420D01*
X39863Y-92751D01*
X38538Y-92926D01*
X37897Y-92961D01*
X-328189Y-92925D01*
X-328189Y-92925D01*
X-328189Y-92925D01*
X-328829D01*
X-330100Y-92757D01*
X-331337Y-92426D01*
X-332520Y-91936D01*
X-333630Y-91295D01*
X-334646Y-90515D01*
X-335552Y-89610D01*
X-336331Y-88593D01*
X-336972Y-87484D01*
X-337462Y-86301D01*
X-337794Y-85063D01*
X-337961Y-83793D01*
X-337961Y-83153D01*
X-337961Y247000D01*
Y283189D01*
Y283829D01*
X-337794Y285100D01*
X-337462Y286337D01*
X-336972Y287520D01*
X-336331Y288630D01*
X-335552Y289646D01*
X-334646Y290552D01*
X-333630Y291331D01*
X-332520Y291972D01*
X-331337Y292462D01*
X-330100Y292794D01*
X-328830Y292961D01*
X-328189Y292961D01*
X-328189Y292961D01*
X-328189Y292961D01*
X37953Y292961D01*
X38593D01*
X39863Y292794D01*
D02*
G37*
%LPC*%
G36*
X-2000Y275228D02*
X-2757Y275129D01*
X-3463Y274836D01*
X-4068Y274372D01*
X-4533Y273766D01*
X-4825Y273060D01*
X-4925Y272303D01*
X-4825Y271546D01*
X-4533Y270841D01*
X-4068Y270235D01*
X-3463Y269770D01*
X-2757Y269478D01*
X-2000Y269378D01*
X-1243Y269478D01*
X-538Y269770D01*
X68Y270235D01*
X533Y270841D01*
X825Y271546D01*
X925Y272303D01*
X825Y273060D01*
X533Y273766D01*
X68Y274372D01*
X-538Y274836D01*
X-1243Y275129D01*
X-2000Y275228D01*
D02*
G37*
G36*
X-108667D02*
X-109424Y275129D01*
X-110129Y274836D01*
X-110735Y274372D01*
X-111200Y273766D01*
X-111492Y273060D01*
X-111592Y272303D01*
X-111492Y271546D01*
X-111200Y270841D01*
X-110735Y270235D01*
X-110129Y269770D01*
X-109424Y269478D01*
X-108667Y269378D01*
X-107910Y269478D01*
X-107204Y269770D01*
X-106598Y270235D01*
X-106133Y270841D01*
X-105841Y271546D01*
X-105742Y272303D01*
X-105841Y273060D01*
X-106133Y273766D01*
X-106598Y274372D01*
X-107204Y274836D01*
X-107910Y275129D01*
X-108667Y275228D01*
D02*
G37*
G36*
X-215333D02*
X-216090Y275129D01*
X-216796Y274836D01*
X-217402Y274372D01*
X-217866Y273766D01*
X-218159Y273060D01*
X-218258Y272303D01*
X-218159Y271546D01*
X-217866Y270841D01*
X-217402Y270235D01*
X-216796Y269770D01*
X-216090Y269478D01*
X-215333Y269378D01*
X-214576Y269478D01*
X-213871Y269770D01*
X-213265Y270235D01*
X-212800Y270841D01*
X-212508Y271546D01*
X-212408Y272303D01*
X-212508Y273060D01*
X-212800Y273766D01*
X-213265Y274372D01*
X-213871Y274836D01*
X-214576Y275129D01*
X-215333Y275228D01*
D02*
G37*
G36*
X-322000Y275228D02*
X-322757Y275129D01*
X-323463Y274836D01*
X-324068Y274372D01*
X-324533Y273766D01*
X-324825Y273060D01*
X-324925Y272303D01*
X-324825Y271546D01*
X-324533Y270841D01*
X-324068Y270235D01*
X-323463Y269770D01*
X-322757Y269478D01*
X-322000Y269378D01*
X-321243Y269478D01*
X-320537Y269770D01*
X-319932Y270235D01*
X-319467Y270841D01*
X-319175Y271546D01*
X-319075Y272303D01*
X-319175Y273060D01*
X-319467Y273766D01*
X-319932Y274372D01*
X-320537Y274836D01*
X-321243Y275129D01*
X-322000Y275228D01*
D02*
G37*
G36*
X-76263Y245622D02*
X-77020Y245522D01*
X-77726Y245230D01*
X-78331Y244765D01*
X-78796Y244159D01*
X-79088Y243454D01*
X-79188Y242697D01*
X-79088Y241940D01*
X-78796Y241234D01*
X-78331Y240629D01*
X-77726Y240164D01*
X-77020Y239872D01*
X-76263Y239772D01*
X-75506Y239872D01*
X-74801Y240164D01*
X-74195Y240629D01*
X-73730Y241234D01*
X-73438Y241940D01*
X-73338Y242697D01*
X-73438Y243454D01*
X-73730Y244159D01*
X-74195Y244765D01*
X-74801Y245230D01*
X-75506Y245522D01*
X-76263Y245622D01*
D02*
G37*
G36*
X-182930D02*
X-183687Y245522D01*
X-184392Y245230D01*
X-184998Y244765D01*
X-185463Y244159D01*
X-185755Y243454D01*
X-185855Y242697D01*
X-185755Y241940D01*
X-185463Y241234D01*
X-184998Y240629D01*
X-184392Y240164D01*
X-183687Y239872D01*
X-182930Y239772D01*
X-182173Y239872D01*
X-181467Y240164D01*
X-180861Y240629D01*
X-180397Y241234D01*
X-180104Y241940D01*
X-180005Y242697D01*
X-180104Y243454D01*
X-180397Y244159D01*
X-180861Y244765D01*
X-181467Y245230D01*
X-182173Y245522D01*
X-182930Y245622D01*
D02*
G37*
G36*
X-289596Y245622D02*
X-290353Y245522D01*
X-291059Y245230D01*
X-291665Y244765D01*
X-292129Y244159D01*
X-292422Y243454D01*
X-292521Y242697D01*
X-292422Y241940D01*
X-292129Y241234D01*
X-291665Y240629D01*
X-291059Y240164D01*
X-290353Y239872D01*
X-289596Y239772D01*
X-288839Y239872D01*
X-288134Y240164D01*
X-287528Y240629D01*
X-287063Y241234D01*
X-286771Y241940D01*
X-286671Y242697D01*
X-286771Y243454D01*
X-287063Y244159D01*
X-287528Y244765D01*
X-288134Y245230D01*
X-288839Y245522D01*
X-289596Y245622D01*
D02*
G37*
G36*
X30404Y245622D02*
X29647Y245522D01*
X28941Y245230D01*
X28335Y244765D01*
X27870Y244159D01*
X27578Y243454D01*
X27479Y242697D01*
X27578Y241940D01*
X27870Y241234D01*
X28335Y240629D01*
X28941Y240164D01*
X29647Y239872D01*
X30404Y239772D01*
X31161Y239872D01*
X31866Y240164D01*
X32472Y240629D01*
X32937Y241234D01*
X33229Y241940D01*
X33329Y242697D01*
X33229Y243454D01*
X32937Y244159D01*
X32472Y244765D01*
X31866Y245230D01*
X31161Y245522D01*
X30404Y245622D01*
D02*
G37*
G36*
X12047D02*
X11290Y245522D01*
X10585Y245230D01*
X9979Y244765D01*
X9514Y244159D01*
X9222Y243454D01*
X9122Y242697D01*
X9222Y241940D01*
X9514Y241234D01*
X9979Y240629D01*
X10585Y240164D01*
X11290Y239872D01*
X12047Y239772D01*
X12804Y239872D01*
X13510Y240164D01*
X14116Y240629D01*
X14580Y241234D01*
X14873Y241940D01*
X14972Y242697D01*
X14873Y243454D01*
X14580Y244159D01*
X14116Y244765D01*
X13510Y245230D01*
X12804Y245522D01*
X12047Y245622D01*
D02*
G37*
G36*
X-404D02*
X-1161Y245522D01*
X-1866Y245230D01*
X-2472Y244765D01*
X-2937Y244159D01*
X-3229Y243454D01*
X-3329Y242697D01*
X-3229Y241940D01*
X-2937Y241234D01*
X-2472Y240629D01*
X-1866Y240164D01*
X-1161Y239872D01*
X-404Y239772D01*
X353Y239872D01*
X1059Y240164D01*
X1665Y240629D01*
X2129Y241234D01*
X2422Y241940D01*
X2521Y242697D01*
X2422Y243454D01*
X2129Y244159D01*
X1665Y244765D01*
X1059Y245230D01*
X353Y245522D01*
X-404Y245622D01*
D02*
G37*
G36*
X-94619D02*
X-95376Y245522D01*
X-96082Y245230D01*
X-96688Y244765D01*
X-97153Y244159D01*
X-97445Y243454D01*
X-97544Y242697D01*
X-97445Y241940D01*
X-97153Y241234D01*
X-96688Y240629D01*
X-96082Y240164D01*
X-95376Y239872D01*
X-94619Y239772D01*
X-93862Y239872D01*
X-93157Y240164D01*
X-92551Y240629D01*
X-92086Y241234D01*
X-91794Y241940D01*
X-91694Y242697D01*
X-91794Y243454D01*
X-92086Y244159D01*
X-92551Y244765D01*
X-93157Y245230D01*
X-93862Y245522D01*
X-94619Y245622D01*
D02*
G37*
G36*
X-107070D02*
X-107827Y245522D01*
X-108533Y245230D01*
X-109139Y244765D01*
X-109603Y244159D01*
X-109896Y243454D01*
X-109995Y242697D01*
X-109896Y241940D01*
X-109603Y241234D01*
X-109139Y240629D01*
X-108533Y240164D01*
X-107827Y239872D01*
X-107070Y239772D01*
X-106313Y239872D01*
X-105608Y240164D01*
X-105002Y240629D01*
X-104537Y241234D01*
X-104245Y241940D01*
X-104145Y242697D01*
X-104245Y243454D01*
X-104537Y244159D01*
X-105002Y244765D01*
X-105608Y245230D01*
X-106313Y245522D01*
X-107070Y245622D01*
D02*
G37*
G36*
X-201286D02*
X-202043Y245522D01*
X-202749Y245230D01*
X-203354Y244765D01*
X-203819Y244159D01*
X-204111Y243454D01*
X-204211Y242697D01*
X-204111Y241940D01*
X-203819Y241234D01*
X-203354Y240629D01*
X-202749Y240164D01*
X-202043Y239872D01*
X-201286Y239772D01*
X-200529Y239872D01*
X-199824Y240164D01*
X-199218Y240629D01*
X-198753Y241234D01*
X-198461Y241940D01*
X-198361Y242697D01*
X-198461Y243454D01*
X-198753Y244159D01*
X-199218Y244765D01*
X-199824Y245230D01*
X-200529Y245522D01*
X-201286Y245622D01*
D02*
G37*
G36*
X-213737D02*
X-214494Y245522D01*
X-215199Y245230D01*
X-215805Y244765D01*
X-216270Y244159D01*
X-216562Y243454D01*
X-216662Y242697D01*
X-216562Y241940D01*
X-216270Y241234D01*
X-215805Y240629D01*
X-215199Y240164D01*
X-214494Y239872D01*
X-213737Y239772D01*
X-212980Y239872D01*
X-212274Y240164D01*
X-211669Y240629D01*
X-211204Y241234D01*
X-210912Y241940D01*
X-210812Y242697D01*
X-210912Y243454D01*
X-211204Y244159D01*
X-211669Y244765D01*
X-212274Y245230D01*
X-212980Y245522D01*
X-213737Y245622D01*
D02*
G37*
G36*
X-307953D02*
X-308710Y245522D01*
X-309415Y245230D01*
X-310021Y244765D01*
X-310486Y244159D01*
X-310778Y243454D01*
X-310878Y242697D01*
X-310778Y241940D01*
X-310486Y241234D01*
X-310021Y240629D01*
X-309415Y240164D01*
X-308710Y239872D01*
X-307953Y239772D01*
X-307196Y239872D01*
X-306490Y240164D01*
X-305885Y240629D01*
X-305420Y241234D01*
X-305127Y241940D01*
X-305028Y242697D01*
X-305127Y243454D01*
X-305420Y244159D01*
X-305885Y244765D01*
X-306490Y245230D01*
X-307196Y245522D01*
X-307953Y245622D01*
D02*
G37*
G36*
X-320404Y245622D02*
X-321161Y245522D01*
X-321866Y245230D01*
X-322472Y244765D01*
X-322937Y244159D01*
X-323229Y243454D01*
X-323329Y242697D01*
X-323229Y241940D01*
X-322937Y241234D01*
X-322472Y240629D01*
X-321866Y240164D01*
X-321161Y239872D01*
X-320404Y239772D01*
X-319647Y239872D01*
X-318941Y240164D01*
X-318335Y240629D01*
X-317870Y241234D01*
X-317578Y241940D01*
X-317479Y242697D01*
X-317578Y243454D01*
X-317870Y244159D01*
X-318335Y244765D01*
X-318941Y245230D01*
X-319647Y245522D01*
X-320404Y245622D01*
D02*
G37*
G36*
X-71000Y219728D02*
X-71757Y219629D01*
X-72462Y219336D01*
X-73068Y218871D01*
X-73533Y218266D01*
X-73825Y217560D01*
X-73925Y216803D01*
X-73825Y216046D01*
X-73533Y215341D01*
X-73068Y214735D01*
X-72462Y214270D01*
X-71757Y213978D01*
X-71000Y213878D01*
X-70243Y213978D01*
X-69538Y214270D01*
X-68932Y214735D01*
X-68467Y215341D01*
X-68175Y216046D01*
X-68075Y216803D01*
X-68175Y217560D01*
X-68467Y218266D01*
X-68932Y218871D01*
X-69538Y219336D01*
X-70243Y219629D01*
X-71000Y219728D01*
D02*
G37*
G36*
X0Y208949D02*
X-1746Y208777D01*
X-3424Y208267D01*
X-4972Y207440D01*
X-6328Y206328D01*
X-7440Y204972D01*
X-8267Y203425D01*
X-8777Y201746D01*
X-8949Y200000D01*
X-8777Y198254D01*
X-8267Y196575D01*
X-7440Y195028D01*
X-6328Y193672D01*
X-4972Y192560D01*
X-3424Y191733D01*
X-1746Y191223D01*
X0Y191051D01*
X1746Y191223D01*
X3424Y191733D01*
X4972Y192560D01*
X6328Y193672D01*
X7440Y195028D01*
X8267Y196575D01*
X8777Y198254D01*
X8949Y200000D01*
X8777Y201746D01*
X8267Y203425D01*
X7440Y204972D01*
X6328Y206328D01*
X4972Y207440D01*
X3424Y208267D01*
X1746Y208777D01*
X0Y208949D01*
D02*
G37*
G36*
X-38596Y187622D02*
X-39353Y187522D01*
X-40059Y187230D01*
X-40665Y186765D01*
X-41130Y186159D01*
X-41422Y185454D01*
X-41521Y184697D01*
X-41422Y183940D01*
X-41130Y183234D01*
X-40665Y182629D01*
X-40059Y182164D01*
X-39353Y181871D01*
X-38596Y181772D01*
X-37839Y181871D01*
X-37134Y182164D01*
X-36528Y182629D01*
X-36063Y183234D01*
X-35771Y183940D01*
X-35671Y184697D01*
X-35771Y185454D01*
X-36063Y186159D01*
X-36528Y186765D01*
X-37134Y187230D01*
X-37839Y187522D01*
X-38596Y187622D01*
D02*
G37*
G36*
X-56953D02*
X-57710Y187522D01*
X-58415Y187230D01*
X-59021Y186765D01*
X-59486Y186159D01*
X-59778Y185454D01*
X-59878Y184697D01*
X-59778Y183940D01*
X-59486Y183234D01*
X-59021Y182629D01*
X-58415Y182164D01*
X-57710Y181871D01*
X-56953Y181772D01*
X-56196Y181871D01*
X-55490Y182164D01*
X-54884Y182629D01*
X-54420Y183234D01*
X-54127Y183940D01*
X-54028Y184697D01*
X-54127Y185454D01*
X-54420Y186159D01*
X-54884Y186765D01*
X-55490Y187230D01*
X-56196Y187522D01*
X-56953Y187622D01*
D02*
G37*
G36*
X-69404D02*
X-70161Y187522D01*
X-70866Y187230D01*
X-71472Y186765D01*
X-71937Y186159D01*
X-72229Y185454D01*
X-72329Y184697D01*
X-72229Y183940D01*
X-71937Y183234D01*
X-71472Y182629D01*
X-70866Y182164D01*
X-70161Y181871D01*
X-69404Y181772D01*
X-68647Y181871D01*
X-67941Y182164D01*
X-67335Y182629D01*
X-66870Y183234D01*
X-66578Y183940D01*
X-66479Y184697D01*
X-66578Y185454D01*
X-66870Y186159D01*
X-67335Y186765D01*
X-67941Y187230D01*
X-68647Y187522D01*
X-69404Y187622D01*
D02*
G37*
G36*
X-322000Y171062D02*
X-322757Y170962D01*
X-323463Y170670D01*
X-324068Y170205D01*
X-324533Y169599D01*
X-324825Y168894D01*
X-324925Y168137D01*
X-324825Y167379D01*
X-324533Y166674D01*
X-324068Y166068D01*
X-323463Y165603D01*
X-322757Y165311D01*
X-322000Y165211D01*
X-321243Y165311D01*
X-320537Y165603D01*
X-319932Y166068D01*
X-319467Y166674D01*
X-319175Y167379D01*
X-319075Y168137D01*
X-319175Y168894D01*
X-319467Y169599D01*
X-319932Y170205D01*
X-320537Y170670D01*
X-321243Y170962D01*
X-322000Y171062D01*
D02*
G37*
G36*
X-151617Y169270D02*
X-152374Y169170D01*
X-153080Y168878D01*
X-153686Y168413D01*
X-154150Y167807D01*
X-154443Y167102D01*
X-154542Y166345D01*
X-154443Y165588D01*
X-154150Y164882D01*
X-153686Y164276D01*
X-153080Y163812D01*
X-152374Y163519D01*
X-151617Y163420D01*
X-150860Y163519D01*
X-150155Y163812D01*
X-149549Y164276D01*
X-149084Y164882D01*
X-148792Y165588D01*
X-148692Y166345D01*
X-148792Y167102D01*
X-149084Y167807D01*
X-149549Y168413D01*
X-150155Y168878D01*
X-150860Y169170D01*
X-151617Y169270D01*
D02*
G37*
G36*
X-233333Y168562D02*
X-234090Y168462D01*
X-234796Y168170D01*
X-235402Y167705D01*
X-235866Y167099D01*
X-236159Y166394D01*
X-236258Y165637D01*
X-236159Y164880D01*
X-235866Y164174D01*
X-235402Y163568D01*
X-234796Y163103D01*
X-234090Y162811D01*
X-233333Y162712D01*
X-232576Y162811D01*
X-231871Y163103D01*
X-231265Y163568D01*
X-230800Y164174D01*
X-230508Y164880D01*
X-230408Y165637D01*
X-230508Y166394D01*
X-230800Y167099D01*
X-231265Y167705D01*
X-231871Y168170D01*
X-232576Y168462D01*
X-233333Y168562D01*
D02*
G37*
G36*
X-72500Y161925D02*
X-73257Y161825D01*
X-73962Y161533D01*
X-74568Y161068D01*
X-75033Y160462D01*
X-75325Y159757D01*
X-75425Y159000D01*
X-75325Y158243D01*
X-75033Y157537D01*
X-74568Y156932D01*
X-73962Y156467D01*
X-73257Y156175D01*
X-72500Y156075D01*
X-71743Y156175D01*
X-71038Y156467D01*
X-70432Y156932D01*
X-69967Y157537D01*
X-69675Y158243D01*
X-69575Y159000D01*
X-69675Y159757D01*
X-69967Y160462D01*
X-70432Y161068D01*
X-71038Y161533D01*
X-71743Y161825D01*
X-72500Y161925D01*
D02*
G37*
G36*
X-86500D02*
X-87257Y161825D01*
X-87963Y161533D01*
X-88568Y161068D01*
X-89033Y160462D01*
X-89325Y159757D01*
X-89425Y159000D01*
X-89325Y158243D01*
X-89033Y157537D01*
X-88568Y156932D01*
X-87963Y156467D01*
X-87257Y156175D01*
X-86500Y156075D01*
X-85743Y156175D01*
X-85037Y156467D01*
X-84432Y156932D01*
X-83967Y157537D01*
X-83675Y158243D01*
X-83575Y159000D01*
X-83675Y159757D01*
X-83967Y160462D01*
X-84432Y161068D01*
X-85037Y161533D01*
X-85743Y161825D01*
X-86500Y161925D01*
D02*
G37*
G36*
X-79500Y152425D02*
X-80257Y152325D01*
X-80963Y152033D01*
X-81568Y151568D01*
X-82033Y150962D01*
X-82325Y150257D01*
X-82425Y149500D01*
X-82325Y148743D01*
X-82033Y148038D01*
X-81568Y147432D01*
X-80963Y146967D01*
X-80257Y146675D01*
X-79500Y146575D01*
X-78743Y146675D01*
X-78038Y146967D01*
X-77432Y147432D01*
X-76967Y148038D01*
X-76675Y148743D01*
X-76575Y149500D01*
X-76675Y150257D01*
X-76967Y150962D01*
X-77432Y151568D01*
X-78038Y152033D01*
X-78743Y152325D01*
X-79500Y152425D01*
D02*
G37*
G36*
X-72500Y142925D02*
X-73257Y142825D01*
X-73962Y142533D01*
X-74568Y142068D01*
X-75033Y141463D01*
X-75325Y140757D01*
X-75425Y140000D01*
X-75325Y139243D01*
X-75033Y138538D01*
X-74568Y137932D01*
X-73962Y137467D01*
X-73257Y137175D01*
X-72500Y137075D01*
X-71743Y137175D01*
X-71038Y137467D01*
X-70432Y137932D01*
X-69967Y138538D01*
X-69675Y139243D01*
X-69575Y140000D01*
X-69675Y140757D01*
X-69967Y141463D01*
X-70432Y142068D01*
X-71038Y142533D01*
X-71743Y142825D01*
X-72500Y142925D01*
D02*
G37*
G36*
X-86500D02*
X-87257Y142825D01*
X-87963Y142533D01*
X-88568Y142068D01*
X-89033Y141463D01*
X-89325Y140757D01*
X-89425Y140000D01*
X-89325Y139243D01*
X-89033Y138538D01*
X-88568Y137932D01*
X-87963Y137467D01*
X-87257Y137175D01*
X-86500Y137075D01*
X-85743Y137175D01*
X-85037Y137467D01*
X-84432Y137932D01*
X-83967Y138538D01*
X-83675Y139243D01*
X-83575Y140000D01*
X-83675Y140757D01*
X-83967Y141463D01*
X-84432Y142068D01*
X-85037Y142533D01*
X-85743Y142825D01*
X-86500Y142925D01*
D02*
G37*
G36*
X-41500Y142038D02*
X-42416Y141918D01*
X-43269Y141564D01*
X-44002Y141002D01*
X-44564Y140269D01*
X-44918Y139416D01*
X-45038Y138500D01*
X-44918Y137584D01*
X-44564Y136731D01*
X-44002Y135998D01*
X-43269Y135436D01*
X-42416Y135082D01*
X-41500Y134962D01*
X-40584Y135082D01*
X-39731Y135436D01*
X-38998Y135998D01*
X-38436Y136731D01*
X-38082Y137584D01*
X-37962Y138500D01*
X-38082Y139416D01*
X-38436Y140269D01*
X-38998Y141002D01*
X-39731Y141564D01*
X-40584Y141918D01*
X-41500Y142038D01*
D02*
G37*
G36*
X-289596Y138955D02*
X-290353Y138856D01*
X-291059Y138563D01*
X-291665Y138099D01*
X-292129Y137493D01*
X-292422Y136787D01*
X-292521Y136030D01*
X-292422Y135273D01*
X-292129Y134568D01*
X-291665Y133962D01*
X-291059Y133497D01*
X-290353Y133205D01*
X-289596Y133105D01*
X-288839Y133205D01*
X-288134Y133497D01*
X-287528Y133962D01*
X-287063Y134568D01*
X-286771Y135273D01*
X-286671Y136030D01*
X-286771Y136787D01*
X-287063Y137493D01*
X-287528Y138099D01*
X-288134Y138563D01*
X-288839Y138856D01*
X-289596Y138955D01*
D02*
G37*
G36*
X-307953D02*
X-308710Y138856D01*
X-309415Y138563D01*
X-310021Y138099D01*
X-310486Y137493D01*
X-310778Y136787D01*
X-310878Y136030D01*
X-310778Y135273D01*
X-310486Y134568D01*
X-310021Y133962D01*
X-309415Y133497D01*
X-308710Y133205D01*
X-307953Y133105D01*
X-307196Y133205D01*
X-306490Y133497D01*
X-305885Y133962D01*
X-305420Y134568D01*
X-305127Y135273D01*
X-305028Y136030D01*
X-305127Y136787D01*
X-305420Y137493D01*
X-305885Y138099D01*
X-306490Y138563D01*
X-307196Y138856D01*
X-307953Y138955D01*
D02*
G37*
G36*
X-320404D02*
X-321161Y138856D01*
X-321866Y138563D01*
X-322472Y138099D01*
X-322937Y137493D01*
X-323229Y136787D01*
X-323329Y136030D01*
X-323229Y135273D01*
X-322937Y134568D01*
X-322472Y133962D01*
X-321866Y133497D01*
X-321161Y133205D01*
X-320404Y133105D01*
X-319647Y133205D01*
X-318941Y133497D01*
X-318335Y133962D01*
X-317870Y134568D01*
X-317578Y135273D01*
X-317479Y136030D01*
X-317578Y136787D01*
X-317870Y137493D01*
X-318335Y138099D01*
X-318941Y138563D01*
X-319647Y138856D01*
X-320404Y138955D01*
D02*
G37*
G36*
X500Y138425D02*
X-257Y138325D01*
X-962Y138033D01*
X-1568Y137568D01*
X-2033Y136962D01*
X-2325Y136257D01*
X-2425Y135500D01*
X-2325Y134743D01*
X-2033Y134037D01*
X-1568Y133432D01*
X-962Y132967D01*
X-257Y132675D01*
X500Y132575D01*
X1257Y132675D01*
X1963Y132967D01*
X2568Y133432D01*
X3033Y134037D01*
X3325Y134743D01*
X3425Y135500D01*
X3325Y136257D01*
X3033Y136962D01*
X2568Y137568D01*
X1963Y138033D01*
X1257Y138325D01*
X500Y138425D01*
D02*
G37*
G36*
X-119214Y137163D02*
X-119971Y137064D01*
X-120676Y136771D01*
X-121282Y136307D01*
X-121747Y135701D01*
X-122039Y134995D01*
X-122139Y134238D01*
X-122039Y133481D01*
X-121747Y132776D01*
X-121282Y132170D01*
X-120676Y131705D01*
X-119971Y131413D01*
X-119214Y131313D01*
X-118457Y131413D01*
X-117751Y131705D01*
X-117145Y132170D01*
X-116681Y132776D01*
X-116388Y133481D01*
X-116289Y134238D01*
X-116388Y134995D01*
X-116681Y135701D01*
X-117145Y136307D01*
X-117751Y136771D01*
X-118457Y137064D01*
X-119214Y137163D01*
D02*
G37*
G36*
X-137570D02*
X-138327Y137064D01*
X-139033Y136771D01*
X-139638Y136307D01*
X-140103Y135701D01*
X-140395Y134995D01*
X-140495Y134238D01*
X-140395Y133481D01*
X-140103Y132776D01*
X-139638Y132170D01*
X-139033Y131705D01*
X-138327Y131413D01*
X-137570Y131313D01*
X-136813Y131413D01*
X-136108Y131705D01*
X-135502Y132170D01*
X-135037Y132776D01*
X-134745Y133481D01*
X-134645Y134238D01*
X-134745Y134995D01*
X-135037Y135701D01*
X-135502Y136307D01*
X-136108Y136771D01*
X-136813Y137064D01*
X-137570Y137163D01*
D02*
G37*
G36*
X-150021D02*
X-150778Y137064D01*
X-151483Y136771D01*
X-152089Y136307D01*
X-152554Y135701D01*
X-152846Y134995D01*
X-152946Y134238D01*
X-152846Y133481D01*
X-152554Y132776D01*
X-152089Y132170D01*
X-151483Y131705D01*
X-150778Y131413D01*
X-150021Y131313D01*
X-149264Y131413D01*
X-148558Y131705D01*
X-147953Y132170D01*
X-147488Y132776D01*
X-147196Y133481D01*
X-147096Y134238D01*
X-147196Y134995D01*
X-147488Y135701D01*
X-147953Y136307D01*
X-148558Y136771D01*
X-149264Y137064D01*
X-150021Y137163D01*
D02*
G37*
G36*
X-200930Y136455D02*
X-201687Y136355D01*
X-202392Y136063D01*
X-202998Y135599D01*
X-203463Y134993D01*
X-203755Y134287D01*
X-203855Y133530D01*
X-203755Y132773D01*
X-203463Y132068D01*
X-202998Y131462D01*
X-202392Y130997D01*
X-201687Y130705D01*
X-200930Y130605D01*
X-200173Y130705D01*
X-199467Y130997D01*
X-198861Y131462D01*
X-198397Y132068D01*
X-198104Y132773D01*
X-198005Y133530D01*
X-198104Y134287D01*
X-198397Y134993D01*
X-198861Y135599D01*
X-199467Y136063D01*
X-200173Y136355D01*
X-200930Y136455D01*
D02*
G37*
G36*
X-219286D02*
X-220043Y136355D01*
X-220749Y136063D01*
X-221354Y135599D01*
X-221819Y134993D01*
X-222112Y134287D01*
X-222211Y133530D01*
X-222112Y132773D01*
X-221819Y132068D01*
X-221354Y131462D01*
X-220749Y130997D01*
X-220043Y130705D01*
X-219286Y130605D01*
X-218529Y130705D01*
X-217824Y130997D01*
X-217218Y131462D01*
X-216753Y132068D01*
X-216461Y132773D01*
X-216361Y133530D01*
X-216461Y134287D01*
X-216753Y134993D01*
X-217218Y135599D01*
X-217824Y136063D01*
X-218529Y136355D01*
X-219286Y136455D01*
D02*
G37*
G36*
X-231737D02*
X-232494Y136355D01*
X-233199Y136063D01*
X-233805Y135599D01*
X-234270Y134993D01*
X-234562Y134287D01*
X-234662Y133530D01*
X-234562Y132773D01*
X-234270Y132068D01*
X-233805Y131462D01*
X-233199Y130997D01*
X-232494Y130705D01*
X-231737Y130605D01*
X-230980Y130705D01*
X-230274Y130997D01*
X-229669Y131462D01*
X-229204Y132068D01*
X-228912Y132773D01*
X-228812Y133530D01*
X-228912Y134287D01*
X-229204Y134993D01*
X-229669Y135599D01*
X-230274Y136063D01*
X-230980Y136355D01*
X-231737Y136455D01*
D02*
G37*
G36*
X-15500Y130925D02*
X-16257Y130825D01*
X-16962Y130533D01*
X-17568Y130068D01*
X-18033Y129463D01*
X-18325Y128757D01*
X-18425Y128000D01*
X-18325Y127243D01*
X-18033Y126538D01*
X-17568Y125932D01*
X-16962Y125467D01*
X-16257Y125175D01*
X-15500Y125075D01*
X-14743Y125175D01*
X-14038Y125467D01*
X-13432Y125932D01*
X-12967Y126538D01*
X-12675Y127243D01*
X-12575Y128000D01*
X-12675Y128757D01*
X-12967Y129463D01*
X-13432Y130068D01*
X-14038Y130533D01*
X-14743Y130825D01*
X-15500Y130925D01*
D02*
G37*
G36*
X-41500Y102538D02*
X-42416Y102418D01*
X-43269Y102064D01*
X-44002Y101502D01*
X-44564Y100769D01*
X-44918Y99916D01*
X-45038Y99000D01*
X-44918Y98084D01*
X-44564Y97231D01*
X-44002Y96498D01*
X-43269Y95936D01*
X-42416Y95582D01*
X-41500Y95462D01*
X-40584Y95582D01*
X-39731Y95936D01*
X-38998Y96498D01*
X-38436Y97231D01*
X-38082Y98084D01*
X-37962Y99000D01*
X-38082Y99916D01*
X-38436Y100769D01*
X-38998Y101502D01*
X-39731Y102064D01*
X-40584Y102418D01*
X-41500Y102538D01*
D02*
G37*
G36*
X-9500Y98925D02*
X-10257Y98825D01*
X-10962Y98533D01*
X-11568Y98068D01*
X-12033Y97462D01*
X-12325Y96757D01*
X-12425Y96000D01*
X-12325Y95243D01*
X-12033Y94538D01*
X-11568Y93932D01*
X-10962Y93467D01*
X-10257Y93175D01*
X-9500Y93075D01*
X-8743Y93175D01*
X-8038Y93467D01*
X-7432Y93932D01*
X-6967Y94538D01*
X-6675Y95243D01*
X-6575Y96000D01*
X-6675Y96757D01*
X-6967Y97462D01*
X-7432Y98068D01*
X-8038Y98533D01*
X-8743Y98825D01*
X-9500Y98925D01*
D02*
G37*
G36*
X-500Y85925D02*
X-1257Y85825D01*
X-1963Y85533D01*
X-2568Y85068D01*
X-3033Y84462D01*
X-3325Y83757D01*
X-3425Y83000D01*
X-3325Y82243D01*
X-3033Y81537D01*
X-2568Y80932D01*
X-1963Y80467D01*
X-1257Y80175D01*
X-500Y80075D01*
X257Y80175D01*
X962Y80467D01*
X1568Y80932D01*
X2033Y81537D01*
X2325Y82243D01*
X2425Y83000D01*
X2325Y83757D01*
X2033Y84462D01*
X1568Y85068D01*
X962Y85533D01*
X257Y85825D01*
X-500Y85925D01*
D02*
G37*
G36*
X-72500Y83925D02*
X-73257Y83825D01*
X-73962Y83533D01*
X-74568Y83068D01*
X-75033Y82463D01*
X-75325Y81757D01*
X-75425Y81000D01*
X-75325Y80243D01*
X-75033Y79537D01*
X-74568Y78932D01*
X-73962Y78467D01*
X-73257Y78175D01*
X-72500Y78075D01*
X-71743Y78175D01*
X-71038Y78467D01*
X-70432Y78932D01*
X-69967Y79537D01*
X-69675Y80243D01*
X-69575Y81000D01*
X-69675Y81757D01*
X-69967Y82463D01*
X-70432Y83068D01*
X-71038Y83533D01*
X-71743Y83825D01*
X-72500Y83925D01*
D02*
G37*
G36*
X-86500D02*
X-87257Y83825D01*
X-87963Y83533D01*
X-88568Y83068D01*
X-89033Y82463D01*
X-89325Y81757D01*
X-89425Y81000D01*
X-89325Y80243D01*
X-89033Y79537D01*
X-88568Y78932D01*
X-87963Y78467D01*
X-87257Y78175D01*
X-86500Y78075D01*
X-85743Y78175D01*
X-85037Y78467D01*
X-84432Y78932D01*
X-83967Y79537D01*
X-83675Y80243D01*
X-83575Y81000D01*
X-83675Y81757D01*
X-83967Y82463D01*
X-84432Y83068D01*
X-85037Y83533D01*
X-85743Y83825D01*
X-86500Y83925D01*
D02*
G37*
G36*
X-79500Y74425D02*
X-80257Y74325D01*
X-80963Y74033D01*
X-81568Y73568D01*
X-82033Y72962D01*
X-82325Y72257D01*
X-82425Y71500D01*
X-82325Y70743D01*
X-82033Y70038D01*
X-81568Y69432D01*
X-80963Y68967D01*
X-80257Y68675D01*
X-79500Y68575D01*
X-78743Y68675D01*
X-78038Y68967D01*
X-77432Y69432D01*
X-76967Y70038D01*
X-76675Y70743D01*
X-76575Y71500D01*
X-76675Y72257D01*
X-76967Y72962D01*
X-77432Y73568D01*
X-78038Y74033D01*
X-78743Y74325D01*
X-79500Y74425D01*
D02*
G37*
G36*
X-72500Y64925D02*
X-73257Y64825D01*
X-73962Y64533D01*
X-74568Y64068D01*
X-75033Y63463D01*
X-75325Y62757D01*
X-75425Y62000D01*
X-75325Y61243D01*
X-75033Y60537D01*
X-74568Y59932D01*
X-73962Y59467D01*
X-73257Y59175D01*
X-72500Y59075D01*
X-71743Y59175D01*
X-71038Y59467D01*
X-70432Y59932D01*
X-69967Y60537D01*
X-69675Y61243D01*
X-69575Y62000D01*
X-69675Y62757D01*
X-69967Y63463D01*
X-70432Y64068D01*
X-71038Y64533D01*
X-71743Y64825D01*
X-72500Y64925D01*
D02*
G37*
G36*
X-86500D02*
X-87257Y64825D01*
X-87963Y64533D01*
X-88568Y64068D01*
X-89033Y63463D01*
X-89325Y62757D01*
X-89425Y62000D01*
X-89325Y61243D01*
X-89033Y60537D01*
X-88568Y59932D01*
X-87963Y59467D01*
X-87257Y59175D01*
X-86500Y59075D01*
X-85743Y59175D01*
X-85037Y59467D01*
X-84432Y59932D01*
X-83967Y60537D01*
X-83675Y61243D01*
X-83575Y62000D01*
X-83675Y62757D01*
X-83967Y63463D01*
X-84432Y64068D01*
X-85037Y64533D01*
X-85743Y64825D01*
X-86500Y64925D01*
D02*
G37*
G36*
X-322000Y64395D02*
X-322757Y64295D01*
X-323463Y64003D01*
X-324068Y63538D01*
X-324533Y62932D01*
X-324825Y62227D01*
X-324925Y61470D01*
X-324825Y60713D01*
X-324533Y60007D01*
X-324068Y59402D01*
X-323463Y58937D01*
X-322757Y58644D01*
X-322000Y58545D01*
X-321243Y58644D01*
X-320537Y58937D01*
X-319932Y59402D01*
X-319467Y60007D01*
X-319175Y60713D01*
X-319075Y61470D01*
X-319175Y62227D01*
X-319467Y62932D01*
X-319932Y63538D01*
X-320537Y64003D01*
X-321243Y64295D01*
X-322000Y64395D01*
D02*
G37*
G36*
X-41500Y64538D02*
X-42416Y64418D01*
X-43269Y64064D01*
X-44002Y63502D01*
X-44564Y62769D01*
X-44918Y61916D01*
X-45038Y61000D01*
X-44918Y60084D01*
X-44564Y59231D01*
X-44002Y58498D01*
X-43269Y57936D01*
X-42416Y57582D01*
X-41500Y57462D01*
X-40584Y57582D01*
X-39731Y57936D01*
X-38998Y58498D01*
X-38436Y59231D01*
X-38082Y60084D01*
X-37962Y61000D01*
X-38082Y61916D01*
X-38436Y62769D01*
X-38998Y63502D01*
X-39731Y64064D01*
X-40584Y64418D01*
X-41500Y64538D01*
D02*
G37*
G36*
X-151617Y62603D02*
X-152374Y62503D01*
X-153080Y62211D01*
X-153686Y61746D01*
X-154150Y61141D01*
X-154443Y60435D01*
X-154542Y59678D01*
X-154443Y58921D01*
X-154150Y58215D01*
X-153686Y57610D01*
X-153080Y57145D01*
X-152374Y56853D01*
X-151617Y56753D01*
X-150860Y56853D01*
X-150155Y57145D01*
X-149549Y57610D01*
X-149084Y58215D01*
X-148792Y58921D01*
X-148692Y59678D01*
X-148792Y60435D01*
X-149084Y61141D01*
X-149549Y61746D01*
X-150155Y62211D01*
X-150860Y62503D01*
X-151617Y62603D01*
D02*
G37*
G36*
X-233333Y61895D02*
X-234090Y61795D01*
X-234796Y61503D01*
X-235402Y61038D01*
X-235866Y60432D01*
X-236159Y59727D01*
X-236258Y58970D01*
X-236159Y58213D01*
X-235866Y57507D01*
X-235402Y56902D01*
X-234796Y56437D01*
X-234090Y56144D01*
X-233333Y56045D01*
X-232576Y56144D01*
X-231871Y56437D01*
X-231265Y56902D01*
X-230800Y57507D01*
X-230508Y58213D01*
X-230408Y58970D01*
X-230508Y59727D01*
X-230800Y60432D01*
X-231265Y61038D01*
X-231871Y61503D01*
X-232576Y61795D01*
X-233333Y61895D01*
D02*
G37*
G36*
X-56500Y48038D02*
X-57416Y47918D01*
X-58269Y47564D01*
X-59002Y47002D01*
X-59564Y46269D01*
X-59918Y45416D01*
X-60038Y44500D01*
X-59918Y43584D01*
X-59564Y42731D01*
X-59002Y41998D01*
X-58269Y41436D01*
X-57416Y41082D01*
X-56500Y40962D01*
X-55584Y41082D01*
X-54731Y41436D01*
X-53998Y41998D01*
X-53436Y42731D01*
X-53082Y43584D01*
X-52962Y44500D01*
X-53082Y45416D01*
X-53436Y46269D01*
X-53998Y47002D01*
X-54731Y47564D01*
X-55584Y47918D01*
X-56500Y48038D01*
D02*
G37*
G36*
X-289596Y32289D02*
X-290353Y32189D01*
X-291059Y31897D01*
X-291665Y31432D01*
X-292129Y30826D01*
X-292422Y30121D01*
X-292521Y29364D01*
X-292422Y28607D01*
X-292129Y27901D01*
X-291665Y27295D01*
X-291059Y26830D01*
X-290353Y26538D01*
X-289596Y26439D01*
X-288839Y26538D01*
X-288134Y26830D01*
X-287528Y27295D01*
X-287063Y27901D01*
X-286771Y28607D01*
X-286671Y29364D01*
X-286771Y30121D01*
X-287063Y30826D01*
X-287528Y31432D01*
X-288134Y31897D01*
X-288839Y32189D01*
X-289596Y32289D01*
D02*
G37*
G36*
X-307953D02*
X-308710Y32189D01*
X-309415Y31897D01*
X-310021Y31432D01*
X-310486Y30826D01*
X-310778Y30121D01*
X-310878Y29364D01*
X-310778Y28607D01*
X-310486Y27901D01*
X-310021Y27295D01*
X-309415Y26830D01*
X-308710Y26538D01*
X-307953Y26439D01*
X-307196Y26538D01*
X-306490Y26830D01*
X-305885Y27295D01*
X-305420Y27901D01*
X-305127Y28607D01*
X-305028Y29364D01*
X-305127Y30121D01*
X-305420Y30826D01*
X-305885Y31432D01*
X-306490Y31897D01*
X-307196Y32189D01*
X-307953Y32289D01*
D02*
G37*
G36*
X-320404D02*
X-321161Y32189D01*
X-321866Y31897D01*
X-322472Y31432D01*
X-322937Y30826D01*
X-323229Y30121D01*
X-323329Y29364D01*
X-323229Y28607D01*
X-322937Y27901D01*
X-322472Y27295D01*
X-321866Y26830D01*
X-321161Y26538D01*
X-320404Y26439D01*
X-319647Y26538D01*
X-318941Y26830D01*
X-318335Y27295D01*
X-317870Y27901D01*
X-317578Y28607D01*
X-317479Y29364D01*
X-317578Y30121D01*
X-317870Y30826D01*
X-318335Y31432D01*
X-318941Y31897D01*
X-319647Y32189D01*
X-320404Y32289D01*
D02*
G37*
G36*
X-119214Y30861D02*
X-119971Y30761D01*
X-120676Y30469D01*
X-121282Y30004D01*
X-121747Y29398D01*
X-122039Y28693D01*
X-122139Y27936D01*
X-122039Y27179D01*
X-121747Y26473D01*
X-121282Y25867D01*
X-120676Y25403D01*
X-119971Y25110D01*
X-119214Y25011D01*
X-118457Y25110D01*
X-117751Y25403D01*
X-117145Y25867D01*
X-116681Y26473D01*
X-116388Y27179D01*
X-116289Y27936D01*
X-116388Y28693D01*
X-116681Y29398D01*
X-117145Y30004D01*
X-117751Y30469D01*
X-118457Y30761D01*
X-119214Y30861D01*
D02*
G37*
G36*
X-137570D02*
X-138327Y30761D01*
X-139033Y30469D01*
X-139638Y30004D01*
X-140103Y29398D01*
X-140395Y28693D01*
X-140495Y27936D01*
X-140395Y27179D01*
X-140103Y26473D01*
X-139638Y25867D01*
X-139033Y25403D01*
X-138327Y25110D01*
X-137570Y25011D01*
X-136813Y25110D01*
X-136108Y25403D01*
X-135502Y25867D01*
X-135037Y26473D01*
X-134745Y27179D01*
X-134645Y27936D01*
X-134745Y28693D01*
X-135037Y29398D01*
X-135502Y30004D01*
X-136108Y30469D01*
X-136813Y30761D01*
X-137570Y30861D01*
D02*
G37*
G36*
X-150021D02*
X-150778Y30761D01*
X-151483Y30469D01*
X-152089Y30004D01*
X-152554Y29398D01*
X-152846Y28693D01*
X-152946Y27936D01*
X-152846Y27179D01*
X-152554Y26473D01*
X-152089Y25867D01*
X-151483Y25403D01*
X-150778Y25110D01*
X-150021Y25011D01*
X-149264Y25110D01*
X-148558Y25403D01*
X-147953Y25867D01*
X-147488Y26473D01*
X-147196Y27179D01*
X-147096Y27936D01*
X-147196Y28693D01*
X-147488Y29398D01*
X-147953Y30004D01*
X-148558Y30469D01*
X-149264Y30761D01*
X-150021Y30861D01*
D02*
G37*
G36*
X-200930Y30153D02*
X-201687Y30053D01*
X-202392Y29761D01*
X-202998Y29296D01*
X-203463Y28690D01*
X-203755Y27985D01*
X-203855Y27228D01*
X-203755Y26471D01*
X-203463Y25765D01*
X-202998Y25159D01*
X-202392Y24694D01*
X-201687Y24402D01*
X-200930Y24303D01*
X-200173Y24402D01*
X-199467Y24694D01*
X-198861Y25159D01*
X-198397Y25765D01*
X-198104Y26471D01*
X-198005Y27228D01*
X-198104Y27985D01*
X-198397Y28690D01*
X-198861Y29296D01*
X-199467Y29761D01*
X-200173Y30053D01*
X-200930Y30153D01*
D02*
G37*
G36*
X-219286D02*
X-220043Y30053D01*
X-220749Y29761D01*
X-221354Y29296D01*
X-221819Y28690D01*
X-222112Y27985D01*
X-222211Y27228D01*
X-222112Y26471D01*
X-221819Y25765D01*
X-221354Y25159D01*
X-220749Y24694D01*
X-220043Y24402D01*
X-219286Y24303D01*
X-218529Y24402D01*
X-217824Y24694D01*
X-217218Y25159D01*
X-216753Y25765D01*
X-216461Y26471D01*
X-216361Y27228D01*
X-216461Y27985D01*
X-216753Y28690D01*
X-217218Y29296D01*
X-217824Y29761D01*
X-218529Y30053D01*
X-219286Y30153D01*
D02*
G37*
G36*
X-231737D02*
X-232494Y30053D01*
X-233199Y29761D01*
X-233805Y29296D01*
X-234270Y28690D01*
X-234562Y27985D01*
X-234662Y27228D01*
X-234562Y26471D01*
X-234270Y25765D01*
X-233805Y25159D01*
X-233199Y24694D01*
X-232494Y24402D01*
X-231737Y24303D01*
X-230980Y24402D01*
X-230274Y24694D01*
X-229669Y25159D01*
X-229204Y25765D01*
X-228912Y26471D01*
X-228812Y27228D01*
X-228912Y27985D01*
X-229204Y28690D01*
X-229669Y29296D01*
X-230274Y29761D01*
X-230980Y30053D01*
X-231737Y30153D01*
D02*
G37*
G36*
X-71000Y12228D02*
X-71757Y12129D01*
X-72462Y11836D01*
X-73068Y11372D01*
X-73533Y10766D01*
X-73825Y10060D01*
X-73925Y9303D01*
X-73825Y8546D01*
X-73533Y7841D01*
X-73068Y7235D01*
X-72462Y6770D01*
X-71757Y6478D01*
X-71000Y6378D01*
X-70243Y6478D01*
X-69538Y6770D01*
X-68932Y7235D01*
X-68467Y7841D01*
X-68175Y8546D01*
X-68075Y9303D01*
X-68175Y10060D01*
X-68467Y10766D01*
X-68932Y11372D01*
X-69538Y11836D01*
X-70243Y12129D01*
X-71000Y12228D01*
D02*
G37*
G36*
X0Y8949D02*
X-1746Y8777D01*
X-3424Y8267D01*
X-4972Y7440D01*
X-6328Y6328D01*
X-7440Y4972D01*
X-8267Y3424D01*
X-8777Y1746D01*
X-8949Y0D01*
X-8777Y-1746D01*
X-8267Y-3424D01*
X-7440Y-4972D01*
X-6328Y-6328D01*
X-4972Y-7440D01*
X-3424Y-8267D01*
X-1746Y-8777D01*
X0Y-8949D01*
X1746Y-8777D01*
X3424Y-8267D01*
X4972Y-7440D01*
X6328Y-6328D01*
X7440Y-4972D01*
X8267Y-3424D01*
X8777Y-1746D01*
X8949Y0D01*
X8777Y1746D01*
X8267Y3424D01*
X7440Y4972D01*
X6328Y6328D01*
X4972Y7440D01*
X3424Y8267D01*
X1746Y8777D01*
X0Y8949D01*
D02*
G37*
G36*
X-172000Y-13070D02*
Y-18000D01*
X-167069D01*
X-167087Y-17824D01*
X-167430Y-16693D01*
X-167987Y-15651D01*
X-168737Y-14737D01*
X-169650Y-13987D01*
X-170693Y-13430D01*
X-171824Y-13087D01*
X-172000Y-13070D01*
D02*
G37*
G36*
X-174000D02*
X-174176Y-13087D01*
X-175307Y-13430D01*
X-176349Y-13987D01*
X-177263Y-14737D01*
X-178013Y-15651D01*
X-178570Y-16693D01*
X-178913Y-17824D01*
X-178930Y-18000D01*
X-174000D01*
Y-13070D01*
D02*
G37*
G36*
X-167069Y-20000D02*
X-172000D01*
Y-24930D01*
X-171824Y-24913D01*
X-170693Y-24570D01*
X-169650Y-24013D01*
X-168737Y-23263D01*
X-167987Y-22350D01*
X-167430Y-21307D01*
X-167087Y-20176D01*
X-167069Y-20000D01*
D02*
G37*
G36*
X-174000D02*
X-178930D01*
X-178913Y-20176D01*
X-178570Y-21307D01*
X-178013Y-22350D01*
X-177263Y-23263D01*
X-176349Y-24013D01*
X-175307Y-24570D01*
X-174176Y-24913D01*
X-174000Y-24930D01*
Y-20000D01*
D02*
G37*
G36*
X-38596Y-19878D02*
X-39353Y-19978D01*
X-40059Y-20270D01*
X-40665Y-20735D01*
X-41130Y-21341D01*
X-41422Y-22046D01*
X-41521Y-22803D01*
X-41422Y-23560D01*
X-41130Y-24266D01*
X-40665Y-24871D01*
X-40059Y-25336D01*
X-39353Y-25629D01*
X-38596Y-25728D01*
X-37839Y-25629D01*
X-37134Y-25336D01*
X-36528Y-24871D01*
X-36063Y-24266D01*
X-35771Y-23560D01*
X-35671Y-22803D01*
X-35771Y-22046D01*
X-36063Y-21341D01*
X-36528Y-20735D01*
X-37134Y-20270D01*
X-37839Y-19978D01*
X-38596Y-19878D01*
D02*
G37*
G36*
X-56453D02*
X-57210Y-19978D01*
X-57915Y-20270D01*
X-58521Y-20735D01*
X-58986Y-21341D01*
X-59278Y-22046D01*
X-59378Y-22803D01*
X-59278Y-23560D01*
X-58986Y-24266D01*
X-58521Y-24871D01*
X-57915Y-25336D01*
X-57210Y-25629D01*
X-56453Y-25728D01*
X-55696Y-25629D01*
X-54990Y-25336D01*
X-54384Y-24871D01*
X-53920Y-24266D01*
X-53627Y-23560D01*
X-53528Y-22803D01*
X-53627Y-22046D01*
X-53920Y-21341D01*
X-54384Y-20735D01*
X-54990Y-20270D01*
X-55696Y-19978D01*
X-56453Y-19878D01*
D02*
G37*
G36*
X-69404D02*
X-70161Y-19978D01*
X-70866Y-20270D01*
X-71472Y-20735D01*
X-71937Y-21341D01*
X-72229Y-22046D01*
X-72329Y-22803D01*
X-72229Y-23560D01*
X-71937Y-24266D01*
X-71472Y-24871D01*
X-70866Y-25336D01*
X-70161Y-25629D01*
X-69404Y-25728D01*
X-68647Y-25629D01*
X-67941Y-25336D01*
X-67335Y-24871D01*
X-66870Y-24266D01*
X-66578Y-23560D01*
X-66479Y-22803D01*
X-66578Y-22046D01*
X-66870Y-21341D01*
X-67335Y-20735D01*
X-67941Y-20270D01*
X-68647Y-19978D01*
X-69404Y-19878D01*
D02*
G37*
G36*
X-2000Y-42272D02*
X-2757Y-42371D01*
X-3463Y-42664D01*
X-4068Y-43128D01*
X-4533Y-43734D01*
X-4825Y-44440D01*
X-4925Y-45197D01*
X-4825Y-45954D01*
X-4533Y-46659D01*
X-4068Y-47265D01*
X-3463Y-47730D01*
X-2757Y-48022D01*
X-2000Y-48122D01*
X-1243Y-48022D01*
X-538Y-47730D01*
X68Y-47265D01*
X533Y-46659D01*
X825Y-45954D01*
X925Y-45197D01*
X825Y-44440D01*
X533Y-43734D01*
X68Y-43128D01*
X-538Y-42664D01*
X-1243Y-42371D01*
X-2000Y-42272D01*
D02*
G37*
G36*
X-108667D02*
X-109424Y-42371D01*
X-110129Y-42664D01*
X-110735Y-43128D01*
X-111200Y-43734D01*
X-111492Y-44440D01*
X-111592Y-45197D01*
X-111492Y-45954D01*
X-111200Y-46659D01*
X-110735Y-47265D01*
X-110129Y-47730D01*
X-109424Y-48022D01*
X-108667Y-48122D01*
X-107910Y-48022D01*
X-107204Y-47730D01*
X-106598Y-47265D01*
X-106133Y-46659D01*
X-105841Y-45954D01*
X-105742Y-45197D01*
X-105841Y-44440D01*
X-106133Y-43734D01*
X-106598Y-43128D01*
X-107204Y-42664D01*
X-107910Y-42371D01*
X-108667Y-42272D01*
D02*
G37*
G36*
X-215333D02*
X-216090Y-42371D01*
X-216796Y-42664D01*
X-217402Y-43128D01*
X-217866Y-43734D01*
X-218159Y-44440D01*
X-218258Y-45197D01*
X-218159Y-45954D01*
X-217866Y-46659D01*
X-217402Y-47265D01*
X-216796Y-47730D01*
X-216090Y-48022D01*
X-215333Y-48122D01*
X-214576Y-48022D01*
X-213871Y-47730D01*
X-213265Y-47265D01*
X-212800Y-46659D01*
X-212508Y-45954D01*
X-212408Y-45197D01*
X-212508Y-44440D01*
X-212800Y-43734D01*
X-213265Y-43128D01*
X-213871Y-42664D01*
X-214576Y-42371D01*
X-215333Y-42272D01*
D02*
G37*
G36*
X-322000D02*
X-322757Y-42371D01*
X-323463Y-42664D01*
X-324068Y-43128D01*
X-324533Y-43734D01*
X-324825Y-44440D01*
X-324925Y-45197D01*
X-324825Y-45954D01*
X-324533Y-46659D01*
X-324068Y-47265D01*
X-323463Y-47730D01*
X-322757Y-48022D01*
X-322000Y-48122D01*
X-321243Y-48022D01*
X-320537Y-47730D01*
X-319932Y-47265D01*
X-319467Y-46659D01*
X-319175Y-45954D01*
X-319075Y-45197D01*
X-319175Y-44440D01*
X-319467Y-43734D01*
X-319932Y-43128D01*
X-320537Y-42664D01*
X-321243Y-42371D01*
X-322000Y-42272D01*
D02*
G37*
G36*
X-133000Y-41462D02*
X-133916Y-41582D01*
X-134769Y-41936D01*
X-135502Y-42498D01*
X-136064Y-43231D01*
X-136418Y-44084D01*
X-136538Y-45000D01*
X-136418Y-45916D01*
X-136064Y-46769D01*
X-135502Y-47502D01*
X-134769Y-48064D01*
X-133916Y-48418D01*
X-133000Y-48538D01*
X-132084Y-48418D01*
X-131231Y-48064D01*
X-130498Y-47502D01*
X-129936Y-46769D01*
X-129582Y-45916D01*
X-129462Y-45000D01*
X-129582Y-44084D01*
X-129936Y-43231D01*
X-130498Y-42498D01*
X-131231Y-41936D01*
X-132084Y-41582D01*
X-133000Y-41462D01*
D02*
G37*
G36*
X-35000Y-50462D02*
X-35916Y-50582D01*
X-36769Y-50936D01*
X-37502Y-51498D01*
X-38064Y-52231D01*
X-38418Y-53084D01*
X-38538Y-54000D01*
X-38418Y-54916D01*
X-38064Y-55769D01*
X-37502Y-56502D01*
X-36769Y-57064D01*
X-35916Y-57418D01*
X-35000Y-57538D01*
X-34084Y-57418D01*
X-33231Y-57064D01*
X-32498Y-56502D01*
X-31936Y-55769D01*
X-31582Y-54916D01*
X-31462Y-54000D01*
X-31582Y-53084D01*
X-31936Y-52231D01*
X-32498Y-51498D01*
X-33231Y-50936D01*
X-34084Y-50582D01*
X-35000Y-50462D01*
D02*
G37*
G36*
X-258000Y-71265D02*
X-258916Y-71386D01*
X-259769Y-71739D01*
X-260502Y-72301D01*
X-261064Y-73034D01*
X-261418Y-73887D01*
X-261538Y-74803D01*
X-261418Y-75719D01*
X-261064Y-76572D01*
X-260502Y-77305D01*
X-259769Y-77867D01*
X-258916Y-78221D01*
X-258000Y-78341D01*
X-257084Y-78221D01*
X-256231Y-77867D01*
X-255498Y-77305D01*
X-254936Y-76572D01*
X-254582Y-75719D01*
X-254462Y-74803D01*
X-254582Y-73887D01*
X-254936Y-73034D01*
X-255498Y-72301D01*
X-256231Y-71739D01*
X-257084Y-71386D01*
X-258000Y-71265D01*
D02*
G37*
G36*
X30404Y-74378D02*
X29647Y-74478D01*
X28941Y-74770D01*
X28335Y-75235D01*
X27870Y-75841D01*
X27578Y-76546D01*
X27479Y-77303D01*
X27578Y-78060D01*
X27870Y-78766D01*
X28335Y-79372D01*
X28941Y-79836D01*
X29647Y-80129D01*
X30404Y-80228D01*
X31161Y-80129D01*
X31866Y-79836D01*
X32472Y-79372D01*
X32937Y-78766D01*
X33229Y-78060D01*
X33329Y-77303D01*
X33229Y-76546D01*
X32937Y-75841D01*
X32472Y-75235D01*
X31866Y-74770D01*
X31161Y-74478D01*
X30404Y-74378D01*
D02*
G37*
G36*
X12047D02*
X11290Y-74478D01*
X10585Y-74770D01*
X9979Y-75235D01*
X9514Y-75841D01*
X9222Y-76546D01*
X9122Y-77303D01*
X9222Y-78060D01*
X9514Y-78766D01*
X9979Y-79372D01*
X10585Y-79836D01*
X11290Y-80129D01*
X12047Y-80228D01*
X12804Y-80129D01*
X13510Y-79836D01*
X14116Y-79372D01*
X14580Y-78766D01*
X14873Y-78060D01*
X14972Y-77303D01*
X14873Y-76546D01*
X14580Y-75841D01*
X14116Y-75235D01*
X13510Y-74770D01*
X12804Y-74478D01*
X12047Y-74378D01*
D02*
G37*
G36*
X-404D02*
X-1161Y-74478D01*
X-1866Y-74770D01*
X-2472Y-75235D01*
X-2937Y-75841D01*
X-3229Y-76546D01*
X-3329Y-77303D01*
X-3229Y-78060D01*
X-2937Y-78766D01*
X-2472Y-79372D01*
X-1866Y-79836D01*
X-1161Y-80129D01*
X-404Y-80228D01*
X353Y-80129D01*
X1059Y-79836D01*
X1665Y-79372D01*
X2129Y-78766D01*
X2422Y-78060D01*
X2521Y-77303D01*
X2422Y-76546D01*
X2129Y-75841D01*
X1665Y-75235D01*
X1059Y-74770D01*
X353Y-74478D01*
X-404Y-74378D01*
D02*
G37*
G36*
X-76263D02*
X-77020Y-74478D01*
X-77726Y-74770D01*
X-78331Y-75235D01*
X-78796Y-75841D01*
X-79088Y-76546D01*
X-79188Y-77303D01*
X-79088Y-78060D01*
X-78796Y-78766D01*
X-78331Y-79372D01*
X-77726Y-79836D01*
X-77020Y-80129D01*
X-76263Y-80228D01*
X-75506Y-80129D01*
X-74801Y-79836D01*
X-74195Y-79372D01*
X-73730Y-78766D01*
X-73438Y-78060D01*
X-73338Y-77303D01*
X-73438Y-76546D01*
X-73730Y-75841D01*
X-74195Y-75235D01*
X-74801Y-74770D01*
X-75506Y-74478D01*
X-76263Y-74378D01*
D02*
G37*
G36*
X-94619D02*
X-95376Y-74478D01*
X-96082Y-74770D01*
X-96688Y-75235D01*
X-97153Y-75841D01*
X-97445Y-76546D01*
X-97544Y-77303D01*
X-97445Y-78060D01*
X-97153Y-78766D01*
X-96688Y-79372D01*
X-96082Y-79836D01*
X-95376Y-80129D01*
X-94619Y-80228D01*
X-93862Y-80129D01*
X-93157Y-79836D01*
X-92551Y-79372D01*
X-92086Y-78766D01*
X-91794Y-78060D01*
X-91694Y-77303D01*
X-91794Y-76546D01*
X-92086Y-75841D01*
X-92551Y-75235D01*
X-93157Y-74770D01*
X-93862Y-74478D01*
X-94619Y-74378D01*
D02*
G37*
G36*
X-107070D02*
X-107827Y-74478D01*
X-108533Y-74770D01*
X-109139Y-75235D01*
X-109603Y-75841D01*
X-109896Y-76546D01*
X-109995Y-77303D01*
X-109896Y-78060D01*
X-109603Y-78766D01*
X-109139Y-79372D01*
X-108533Y-79836D01*
X-107827Y-80129D01*
X-107070Y-80228D01*
X-106313Y-80129D01*
X-105608Y-79836D01*
X-105002Y-79372D01*
X-104537Y-78766D01*
X-104245Y-78060D01*
X-104145Y-77303D01*
X-104245Y-76546D01*
X-104537Y-75841D01*
X-105002Y-75235D01*
X-105608Y-74770D01*
X-106313Y-74478D01*
X-107070Y-74378D01*
D02*
G37*
G36*
X-182930D02*
X-183687Y-74478D01*
X-184392Y-74770D01*
X-184998Y-75235D01*
X-185463Y-75841D01*
X-185755Y-76546D01*
X-185855Y-77303D01*
X-185755Y-78060D01*
X-185463Y-78766D01*
X-184998Y-79372D01*
X-184392Y-79836D01*
X-183687Y-80129D01*
X-182930Y-80228D01*
X-182173Y-80129D01*
X-181467Y-79836D01*
X-180861Y-79372D01*
X-180397Y-78766D01*
X-180104Y-78060D01*
X-180005Y-77303D01*
X-180104Y-76546D01*
X-180397Y-75841D01*
X-180861Y-75235D01*
X-181467Y-74770D01*
X-182173Y-74478D01*
X-182930Y-74378D01*
D02*
G37*
G36*
X-201286D02*
X-202043Y-74478D01*
X-202749Y-74770D01*
X-203354Y-75235D01*
X-203819Y-75841D01*
X-204111Y-76546D01*
X-204211Y-77303D01*
X-204111Y-78060D01*
X-203819Y-78766D01*
X-203354Y-79372D01*
X-202749Y-79836D01*
X-202043Y-80129D01*
X-201286Y-80228D01*
X-200529Y-80129D01*
X-199824Y-79836D01*
X-199218Y-79372D01*
X-198753Y-78766D01*
X-198461Y-78060D01*
X-198361Y-77303D01*
X-198461Y-76546D01*
X-198753Y-75841D01*
X-199218Y-75235D01*
X-199824Y-74770D01*
X-200529Y-74478D01*
X-201286Y-74378D01*
D02*
G37*
G36*
X-213737D02*
X-214494Y-74478D01*
X-215199Y-74770D01*
X-215805Y-75235D01*
X-216270Y-75841D01*
X-216562Y-76546D01*
X-216662Y-77303D01*
X-216562Y-78060D01*
X-216270Y-78766D01*
X-215805Y-79372D01*
X-215199Y-79836D01*
X-214494Y-80129D01*
X-213737Y-80228D01*
X-212980Y-80129D01*
X-212274Y-79836D01*
X-211669Y-79372D01*
X-211204Y-78766D01*
X-210912Y-78060D01*
X-210812Y-77303D01*
X-210912Y-76546D01*
X-211204Y-75841D01*
X-211669Y-75235D01*
X-212274Y-74770D01*
X-212980Y-74478D01*
X-213737Y-74378D01*
D02*
G37*
G36*
X-289596D02*
X-290353Y-74478D01*
X-291059Y-74770D01*
X-291665Y-75235D01*
X-292129Y-75841D01*
X-292422Y-76546D01*
X-292521Y-77303D01*
X-292422Y-78060D01*
X-292129Y-78766D01*
X-291665Y-79372D01*
X-291059Y-79836D01*
X-290353Y-80129D01*
X-289596Y-80228D01*
X-288839Y-80129D01*
X-288134Y-79836D01*
X-287528Y-79372D01*
X-287063Y-78766D01*
X-286771Y-78060D01*
X-286671Y-77303D01*
X-286771Y-76546D01*
X-287063Y-75841D01*
X-287528Y-75235D01*
X-288134Y-74770D01*
X-288839Y-74478D01*
X-289596Y-74378D01*
D02*
G37*
G36*
X-307953D02*
X-308710Y-74478D01*
X-309415Y-74770D01*
X-310021Y-75235D01*
X-310486Y-75841D01*
X-310778Y-76546D01*
X-310878Y-77303D01*
X-310778Y-78060D01*
X-310486Y-78766D01*
X-310021Y-79372D01*
X-309415Y-79836D01*
X-308710Y-80129D01*
X-307953Y-80228D01*
X-307196Y-80129D01*
X-306490Y-79836D01*
X-305885Y-79372D01*
X-305420Y-78766D01*
X-305127Y-78060D01*
X-305028Y-77303D01*
X-305127Y-76546D01*
X-305420Y-75841D01*
X-305885Y-75235D01*
X-306490Y-74770D01*
X-307196Y-74478D01*
X-307953Y-74378D01*
D02*
G37*
G36*
X-320404D02*
X-321161Y-74478D01*
X-321866Y-74770D01*
X-322472Y-75235D01*
X-322937Y-75841D01*
X-323229Y-76546D01*
X-323329Y-77303D01*
X-323229Y-78060D01*
X-322937Y-78766D01*
X-322472Y-79372D01*
X-321866Y-79836D01*
X-321161Y-80129D01*
X-320404Y-80228D01*
X-319647Y-80129D01*
X-318941Y-79836D01*
X-318335Y-79372D01*
X-317870Y-78766D01*
X-317578Y-78060D01*
X-317479Y-77303D01*
X-317578Y-76546D01*
X-317870Y-75841D01*
X-318335Y-75235D01*
X-318941Y-74770D01*
X-319647Y-74478D01*
X-320404Y-74378D01*
D02*
G37*
%LPD*%
D38*
X-173000Y-19000D02*
D03*
D40*
X-86500Y98000D02*
D03*
X-72500D02*
D03*
X-79500Y108000D02*
D03*
X-86500Y118000D02*
D03*
X-72500D02*
D03*
X-28884Y12217D02*
D03*
X-63146Y22500D02*
D03*
X-314646Y-32000D02*
D03*
X-207979D02*
D03*
X-101312D02*
D03*
X5354D02*
D03*
X-144263Y73239D02*
D03*
X-225979Y72531D02*
D03*
X-63646Y230000D02*
D03*
X-314646Y74667D02*
D03*
X-144263Y179541D02*
D03*
X-225979Y178833D02*
D03*
X-314646Y181333D02*
D03*
Y288000D02*
D03*
X-207979D02*
D03*
X-101312D02*
D03*
X5354D02*
D03*
X40116Y-42283D02*
D03*
X-279884D02*
D03*
X-66551D02*
D03*
X-173217D02*
D03*
X-109501Y62591D02*
D03*
X-191217Y61883D02*
D03*
X-279884Y64383D02*
D03*
X40116Y275217D02*
D03*
X-28884Y219717D02*
D03*
X-66551Y275217D02*
D03*
X-109501Y169258D02*
D03*
X-191217Y168550D02*
D03*
X-279884Y171050D02*
D03*
X-173217Y275217D02*
D03*
X-279884Y275217D02*
D03*
M02*
