G04*
G04 #@! TF.GenerationSoftware,Altium Limited,Altium Designer,20.0.14 (345)*
G04*
G04 Layer_Physical_Order=1*
G04 Layer_Color=255*
%FSAX25Y25*%
%MOIN*%
G70*
G01*
G75*
%ADD16R,0.03937X0.03543*%
%ADD17R,0.03543X0.03937*%
%ADD18R,0.03268X0.02480*%
%ADD19R,0.04500X0.08000*%
%ADD20O,0.06496X0.02559*%
%ADD21R,0.04724X0.04724*%
%ADD22R,0.04921X0.11221*%
%ADD23R,0.21850X0.25591*%
%ADD24R,0.10630X0.03937*%
%ADD25R,0.14961X0.07087*%
%ADD26R,0.06417X0.08584*%
%ADD27R,0.07874X0.16142*%
%ADD44C,0.01200*%
%ADD45C,0.00800*%
%ADD46C,0.02000*%
%ADD47C,0.06000*%
%ADD48C,0.10000*%
%ADD49C,0.09055*%
%ADD50C,0.02400*%
%ADD51C,0.05000*%
G36*
X0140000Y0068500D02*
X0157500Y0068500D01*
X0157500Y0050000D01*
X0103743D01*
X0103572Y0050858D01*
X0103086Y0051586D01*
X0102358Y0052072D01*
X0101500Y0052243D01*
X0100642Y0052072D01*
X0099914Y0051586D01*
X0099428Y0050858D01*
X0099257Y0050000D01*
X0097589D01*
X0097480Y0050072D01*
X0096622Y0050243D01*
X0095764Y0050072D01*
X0095655Y0050000D01*
X0092700D01*
X0092480Y0050147D01*
X0091988Y0050245D01*
Y0050755D01*
X0092480Y0050853D01*
X0093234Y0051357D01*
X0093738Y0052111D01*
X0093915Y0053000D01*
X0093738Y0053889D01*
X0093234Y0054643D01*
X0092480Y0055147D01*
X0091988Y0055245D01*
Y0055755D01*
X0092480Y0055853D01*
X0093234Y0056357D01*
X0093738Y0057111D01*
X0093915Y0058000D01*
X0093738Y0058889D01*
X0093234Y0059643D01*
X0092480Y0060147D01*
X0091590Y0060324D01*
X0091253D01*
Y0065699D01*
X0091254Y0065709D01*
X0091258Y0065732D01*
X0091694Y0066385D01*
X0091865Y0067243D01*
X0091694Y0068102D01*
X0091208Y0068829D01*
X0090480Y0069315D01*
X0089622Y0069486D01*
X0088764Y0069315D01*
X0088036Y0068829D01*
X0087908Y0068638D01*
X0087411Y0068589D01*
X0068500Y0087500D01*
X0068099D01*
X0068000Y0087520D01*
X0054000Y0087520D01*
X0053902Y0087500D01*
X0053500D01*
X0025000Y0059000D01*
X0002039Y0059000D01*
Y0113000D01*
Y0113292D01*
X0002153Y0113864D01*
X0002376Y0114402D01*
X0002700Y0114887D01*
X0003113Y0115300D01*
X0003598Y0115624D01*
X0004136Y0115847D01*
X0004708Y0115961D01*
X0064478D01*
X0064527Y0115461D01*
X0064142Y0115384D01*
X0063414Y0114898D01*
X0062928Y0114170D01*
X0062757Y0113312D01*
X0062821Y0112990D01*
X0062504Y0112604D01*
X0061841D01*
X0061803Y0112611D01*
X0061765Y0112604D01*
X0060791D01*
Y0111849D01*
X0060526Y0111743D01*
X0060087Y0111629D01*
X0059519Y0111530D01*
X0056937Y0111346D01*
X0043229D01*
X0042185Y0111209D01*
X0041212Y0110806D01*
X0040376Y0110165D01*
X0023002Y0092790D01*
X0023000Y0092788D01*
X0022339Y0092189D01*
X0022262Y0092127D01*
X0021057Y0091968D01*
X0019712Y0091411D01*
X0018558Y0090525D01*
X0017672Y0089370D01*
X0017115Y0088026D01*
X0016925Y0086583D01*
X0017115Y0085140D01*
X0017672Y0083795D01*
X0018558Y0082640D01*
X0019712Y0081754D01*
X0021057Y0081197D01*
X0022500Y0081007D01*
X0023943Y0081197D01*
X0025288Y0081754D01*
X0026442Y0082640D01*
X0027328Y0083795D01*
X0027885Y0085140D01*
X0028034Y0086269D01*
X0029169Y0087546D01*
X0044900Y0103277D01*
X0056956D01*
X0058778Y0103180D01*
X0059497Y0103097D01*
X0060087Y0102995D01*
X0060526Y0102880D01*
X0060791Y0102775D01*
Y0102020D01*
X0061765D01*
X0061803Y0102012D01*
X0061841Y0102020D01*
X0068163D01*
X0068202Y0102012D01*
X0068239Y0102020D01*
X0069209D01*
Y0102369D01*
X0071456D01*
X0071466Y0102368D01*
X0071489Y0102364D01*
X0072142Y0101928D01*
X0073000Y0101757D01*
X0073858Y0101928D01*
X0074586Y0102414D01*
X0075072Y0103142D01*
X0075243Y0104000D01*
X0075072Y0104858D01*
X0074586Y0105586D01*
Y0105664D01*
X0075072Y0106392D01*
X0075243Y0107250D01*
X0075072Y0108108D01*
X0074586Y0108836D01*
Y0108914D01*
X0075072Y0109642D01*
X0075243Y0110500D01*
X0075072Y0111358D01*
X0074586Y0112086D01*
X0073858Y0112572D01*
X0073000Y0112743D01*
X0072142Y0112572D01*
X0071489Y0112136D01*
X0071478Y0112134D01*
X0071441Y0112131D01*
X0069209D01*
Y0112604D01*
X0068239D01*
X0068202Y0112611D01*
X0068163Y0112604D01*
X0067496D01*
X0067179Y0112990D01*
X0067243Y0113312D01*
X0067072Y0114170D01*
X0066586Y0114898D01*
X0065858Y0115384D01*
X0065473Y0115461D01*
X0065522Y0115961D01*
X0140000D01*
Y0068500D01*
D02*
G37*
G36*
X0072143Y0109660D02*
X0072092Y0109706D01*
X0072032Y0109746D01*
X0071963Y0109782D01*
X0071886Y0109814D01*
X0071800Y0109840D01*
X0071705Y0109862D01*
X0071602Y0109878D01*
X0071490Y0109890D01*
X0071241Y0109900D01*
Y0111100D01*
X0071370Y0111102D01*
X0071602Y0111122D01*
X0071705Y0111138D01*
X0071800Y0111160D01*
X0071886Y0111186D01*
X0071963Y0111218D01*
X0072032Y0111254D01*
X0072092Y0111294D01*
X0072143Y0111340D01*
Y0109660D01*
D02*
G37*
G36*
X0068209Y0111498D02*
X0068245Y0111415D01*
X0068305Y0111341D01*
X0068389Y0111277D01*
X0068497Y0111223D01*
X0068629Y0111179D01*
X0068785Y0111144D01*
X0068965Y0111120D01*
X0069169Y0111105D01*
X0069397Y0111100D01*
Y0109900D01*
X0069167Y0109894D01*
X0068961Y0109876D01*
X0068780Y0109846D01*
X0068622Y0109804D01*
X0068489Y0109750D01*
X0068380Y0109684D01*
X0068295Y0109606D01*
X0068234Y0109516D01*
X0068197Y0109414D01*
X0068185Y0109300D01*
X0068197Y0111592D01*
X0068209Y0111498D01*
D02*
G37*
G36*
X0065618Y0112935D02*
X0065671Y0112549D01*
X0065692Y0112455D01*
X0065840D01*
X0065794Y0112404D01*
X0065754Y0112344D01*
X0065728Y0112295D01*
X0065760Y0112155D01*
X0065884Y0111751D01*
X0065908Y0111691D01*
X0065984Y0111640D01*
X0066086Y0111604D01*
X0066200Y0111592D01*
X0065946D01*
X0066044Y0111339D01*
X0066240Y0110917D01*
X0066471Y0110487D01*
X0066737Y0110047D01*
X0067377Y0109142D01*
X0062623D01*
X0062960Y0109599D01*
X0063529Y0110487D01*
X0063760Y0110917D01*
X0063956Y0111339D01*
X0064054Y0111592D01*
X0063800D01*
X0063914Y0111604D01*
X0064016Y0111640D01*
X0064092Y0111691D01*
X0064116Y0111751D01*
X0064240Y0112155D01*
X0064272Y0112295D01*
X0064246Y0112344D01*
X0064206Y0112404D01*
X0064160Y0112455D01*
X0064308D01*
X0064329Y0112549D01*
X0064382Y0112935D01*
X0064400Y0113312D01*
X0065600D01*
X0065618Y0112935D01*
D02*
G37*
G36*
X0071987Y0106607D02*
X0071945Y0106663D01*
X0071893Y0106712D01*
X0071832Y0106756D01*
X0071761Y0106795D01*
X0071680Y0106827D01*
X0071590Y0106853D01*
X0071490Y0106874D01*
X0071380Y0106888D01*
X0071261Y0106897D01*
X0071132Y0106900D01*
X0071433Y0108100D01*
X0071564Y0108101D01*
X0071903Y0108124D01*
X0071998Y0108138D01*
X0072160Y0108174D01*
X0072228Y0108196D01*
X0072287Y0108222D01*
X0072337Y0108250D01*
X0071987Y0106607D01*
D02*
G37*
G36*
X0068197Y0108586D02*
X0068233Y0108484D01*
X0068294Y0108394D01*
X0068379Y0108316D01*
X0068488Y0108250D01*
X0068621Y0108196D01*
X0068779Y0108154D01*
X0068960Y0108124D01*
X0069166Y0108106D01*
X0069397Y0108100D01*
Y0106900D01*
X0069166Y0106894D01*
X0068960Y0106876D01*
X0068779Y0106846D01*
X0068621Y0106804D01*
X0068488Y0106750D01*
X0068379Y0106684D01*
X0068294Y0106606D01*
X0068233Y0106516D01*
X0068197Y0106414D01*
X0068185Y0106300D01*
Y0108700D01*
X0068197Y0108586D01*
D02*
G37*
G36*
X0272641Y0115461D02*
X0272157Y0115413D01*
X0271026Y0115070D01*
X0269984Y0114513D01*
X0269070Y0113763D01*
X0268320Y0112849D01*
X0267763Y0111807D01*
X0267420Y0110676D01*
X0267304Y0109500D01*
X0267420Y0108324D01*
X0267763Y0107193D01*
X0268320Y0106150D01*
X0269070Y0105237D01*
X0269145Y0105175D01*
X0269643Y0104674D01*
X0270532Y0103683D01*
X0270872Y0103252D01*
X0271156Y0102849D01*
X0271378Y0102486D01*
X0271540Y0102167D01*
X0271643Y0101900D01*
X0271696Y0101689D01*
X0271702Y0101621D01*
Y0096610D01*
X0271826Y0095986D01*
X0272180Y0095456D01*
X0282869Y0084767D01*
Y0081709D01*
X0270555D01*
Y0080371D01*
X0243339D01*
X0237122Y0086589D01*
X0236936Y0086788D01*
X0236809Y0086946D01*
X0236772Y0087000D01*
Y0090569D01*
X0233815D01*
X0233789Y0090575D01*
X0233747Y0090569D01*
X0233633D01*
X0233623Y0090569D01*
X0233621Y0090569D01*
X0233394D01*
X0233375Y0090581D01*
X0233045Y0090862D01*
X0229721Y0094186D01*
X0229772Y0094306D01*
X0229854Y0094446D01*
X0229957Y0094582D01*
X0230086Y0094715D01*
X0230245Y0094848D01*
X0230439Y0094978D01*
X0230706Y0095124D01*
X0230770Y0095177D01*
X0231349Y0095487D01*
X0232263Y0096237D01*
X0233013Y0097150D01*
X0233570Y0098193D01*
X0233913Y0099324D01*
X0234029Y0100500D01*
X0233913Y0101676D01*
X0233570Y0102807D01*
X0233013Y0103849D01*
X0232263Y0104763D01*
X0231349Y0105513D01*
X0230307Y0106070D01*
X0229176Y0106413D01*
X0228000Y0106529D01*
X0226824Y0106413D01*
X0225693Y0106070D01*
X0224651Y0105513D01*
X0223737Y0104763D01*
X0222987Y0103849D01*
X0222430Y0102807D01*
X0222087Y0101676D01*
X0221971Y0100500D01*
X0222087Y0099324D01*
X0222430Y0098193D01*
X0222987Y0097150D01*
X0223737Y0096237D01*
X0224651Y0095487D01*
X0225230Y0095177D01*
X0225294Y0095124D01*
X0225560Y0094978D01*
X0225754Y0094848D01*
X0225914Y0094715D01*
X0226043Y0094582D01*
X0226146Y0094446D01*
X0226228Y0094306D01*
X0226291Y0094157D01*
X0226339Y0093992D01*
X0226368Y0093808D01*
X0226369Y0093803D01*
Y0093600D01*
X0226493Y0092976D01*
X0226847Y0092447D01*
X0228262Y0091030D01*
X0228071Y0090569D01*
X0224929D01*
Y0089231D01*
X0222245D01*
X0222235Y0089232D01*
X0222212Y0089236D01*
X0221559Y0089672D01*
X0221000Y0089784D01*
Y0115961D01*
X0251450D01*
X0251475Y0115461D01*
X0250991Y0115413D01*
X0249859Y0115070D01*
X0248817Y0114513D01*
X0247903Y0113763D01*
X0247154Y0112849D01*
X0246597Y0111807D01*
X0246253Y0110676D01*
X0246138Y0109500D01*
X0246253Y0108324D01*
X0246597Y0107193D01*
X0247154Y0106150D01*
X0247903Y0105237D01*
X0248817Y0104487D01*
X0249859Y0103930D01*
X0250991Y0103587D01*
X0252167Y0103471D01*
X0253343Y0103587D01*
X0254474Y0103930D01*
X0255516Y0104487D01*
X0256430Y0105237D01*
X0257180Y0106150D01*
X0257737Y0107193D01*
X0258080Y0108324D01*
X0258196Y0109500D01*
X0258080Y0110676D01*
X0257737Y0111807D01*
X0257180Y0112849D01*
X0256430Y0113763D01*
X0255516Y0114513D01*
X0254474Y0115070D01*
X0253343Y0115413D01*
X0252859Y0115461D01*
X0252883Y0115961D01*
X0272617D01*
X0272641Y0115461D01*
D02*
G37*
G36*
X0072143Y0103160D02*
X0072092Y0103206D01*
X0072032Y0103246D01*
X0071963Y0103282D01*
X0071886Y0103314D01*
X0071800Y0103340D01*
X0071705Y0103362D01*
X0071602Y0103378D01*
X0071490Y0103390D01*
X0071241Y0103400D01*
Y0104600D01*
X0071370Y0104602D01*
X0071602Y0104622D01*
X0071705Y0104638D01*
X0071800Y0104660D01*
X0071886Y0104686D01*
X0071963Y0104718D01*
X0072032Y0104754D01*
X0072092Y0104794D01*
X0072143Y0104840D01*
Y0103160D01*
D02*
G37*
G36*
X0068197Y0105086D02*
X0068234Y0104984D01*
X0068295Y0104894D01*
X0068380Y0104816D01*
X0068489Y0104750D01*
X0068623Y0104696D01*
X0068780Y0104654D01*
X0068961Y0104624D01*
X0069167Y0104606D01*
X0069397Y0104600D01*
Y0103400D01*
X0069169Y0103396D01*
X0068785Y0103367D01*
X0068629Y0103341D01*
X0068497Y0103308D01*
X0068389Y0103267D01*
X0068305Y0103219D01*
X0068245Y0103164D01*
X0068209Y0103102D01*
X0068197Y0103032D01*
X0068185Y0105200D01*
X0068197Y0105086D01*
D02*
G37*
G36*
X0061803Y0103032D02*
X0061743Y0103275D01*
X0061563Y0103492D01*
X0061263Y0103684D01*
X0060843Y0103851D01*
X0060303Y0103992D01*
X0059643Y0104107D01*
X0058863Y0104197D01*
X0056943Y0104299D01*
X0055803Y0104312D01*
Y0110312D01*
X0056943Y0110325D01*
X0059643Y0110517D01*
X0060303Y0110632D01*
X0060843Y0110773D01*
X0061263Y0110939D01*
X0061563Y0111131D01*
X0061743Y0111349D01*
X0061803Y0111592D01*
Y0103032D01*
D02*
G37*
G36*
X0276282Y0105374D02*
X0274977Y0103862D01*
X0274658Y0103410D01*
X0274397Y0102983D01*
X0274194Y0102583D01*
X0274049Y0102208D01*
X0273962Y0101859D01*
X0273933Y0101536D01*
X0272733D01*
X0272704Y0101859D01*
X0272617Y0102208D01*
X0272472Y0102583D01*
X0272269Y0102983D01*
X0272008Y0103410D01*
X0271689Y0103862D01*
X0271312Y0104340D01*
X0270384Y0105374D01*
X0269833Y0105929D01*
X0276833D01*
X0276282Y0105374D01*
D02*
G37*
G36*
X0229909Y0095850D02*
X0229635Y0095666D01*
X0229392Y0095465D01*
X0229182Y0095248D01*
X0229004Y0095014D01*
X0228859Y0094764D01*
X0228746Y0094498D01*
X0228665Y0094215D01*
X0228616Y0093915D01*
X0228600Y0093600D01*
X0227400D01*
X0227384Y0093915D01*
X0227335Y0094215D01*
X0227255Y0094498D01*
X0227141Y0094764D01*
X0226996Y0095014D01*
X0226818Y0095248D01*
X0226608Y0095465D01*
X0226365Y0095666D01*
X0226091Y0095850D01*
X0225783Y0096018D01*
X0230217D01*
X0229909Y0095850D01*
D02*
G37*
G36*
X0219500Y0089444D02*
X0219190Y0089236D01*
X0219179Y0089234D01*
X0219142Y0089231D01*
X0218576D01*
X0213272Y0094535D01*
Y0097969D01*
X0207728D01*
Y0092032D01*
X0211161D01*
X0216746Y0086446D01*
X0217276Y0086093D01*
X0217900Y0085969D01*
X0219157D01*
X0219166Y0085968D01*
X0219190Y0085964D01*
X0219500Y0085756D01*
Y0078144D01*
X0219115Y0077886D01*
X0218857Y0077500D01*
X0218442D01*
X0218393Y0077515D01*
X0218343Y0077510D01*
X0218294Y0077520D01*
X0190000D01*
X0189901Y0077500D01*
X0189079D01*
X0188980Y0077520D01*
X0175000D01*
X0174902Y0077500D01*
X0174000D01*
Y0076599D01*
X0173980Y0076500D01*
X0173980Y0069520D01*
X0158520Y0069520D01*
X0158129Y0069442D01*
X0158010Y0069362D01*
X0157890Y0069442D01*
X0157500Y0069520D01*
X0141020Y0069520D01*
Y0115961D01*
X0219500D01*
Y0089444D01*
D02*
G37*
G36*
X0232298Y0090159D02*
X0232751Y0089773D01*
X0232950Y0089635D01*
X0233129Y0089532D01*
X0233289Y0089465D01*
X0233430Y0089434D01*
X0233553Y0089439D01*
X0233656Y0089480D01*
X0233741Y0089556D01*
X0232240Y0087663D01*
X0232299Y0087765D01*
X0232326Y0087882D01*
X0232322Y0088014D01*
X0232285Y0088161D01*
X0232216Y0088324D01*
X0232115Y0088501D01*
X0231982Y0088693D01*
X0231817Y0088900D01*
X0231621Y0089122D01*
X0231392Y0089360D01*
X0232044Y0090405D01*
X0232298Y0090159D01*
D02*
G37*
G36*
X0221609Y0088394D02*
X0221669Y0088354D01*
X0221738Y0088318D01*
X0221815Y0088286D01*
X0221901Y0088260D01*
X0221995Y0088238D01*
X0222099Y0088222D01*
X0222211Y0088210D01*
X0222460Y0088200D01*
Y0087000D01*
X0222331Y0086998D01*
X0222099Y0086978D01*
X0221995Y0086962D01*
X0221901Y0086940D01*
X0221815Y0086914D01*
X0221738Y0086882D01*
X0221669Y0086846D01*
X0221609Y0086806D01*
X0221558Y0086760D01*
Y0088440D01*
X0221609Y0088394D01*
D02*
G37*
G36*
X0219844Y0086760D02*
X0219793Y0086806D01*
X0219732Y0086846D01*
X0219664Y0086882D01*
X0219586Y0086914D01*
X0219501Y0086940D01*
X0219406Y0086962D01*
X0219303Y0086978D01*
X0219191Y0086990D01*
X0218942Y0087000D01*
Y0088200D01*
X0219071Y0088202D01*
X0219303Y0088222D01*
X0219406Y0088238D01*
X0219501Y0088260D01*
X0219586Y0088286D01*
X0219664Y0088318D01*
X0219732Y0088354D01*
X0219793Y0088394D01*
X0219844Y0088440D01*
Y0086760D01*
D02*
G37*
G36*
X0028940Y0088780D02*
X0028576Y0088414D01*
X0027046Y0086692D01*
X0027027Y0086628D01*
X0022545Y0091110D01*
X0022610Y0091129D01*
X0022707Y0091186D01*
X0022839Y0091281D01*
X0023003Y0091415D01*
X0023699Y0092046D01*
X0024697Y0093023D01*
X0028940Y0088780D01*
D02*
G37*
G36*
X0225941Y0086400D02*
X0225929Y0086514D01*
X0225893Y0086616D01*
X0225833Y0086706D01*
X0225749Y0086784D01*
X0225641Y0086850D01*
X0225509Y0086904D01*
X0225353Y0086946D01*
X0225173Y0086976D01*
X0224969Y0086994D01*
X0224741Y0087000D01*
Y0088200D01*
X0224969Y0088206D01*
X0225173Y0088224D01*
X0225353Y0088254D01*
X0225509Y0088296D01*
X0225641Y0088350D01*
X0225749Y0088416D01*
X0225833Y0088494D01*
X0225893Y0088584D01*
X0225929Y0088686D01*
X0225941Y0088800D01*
Y0086400D01*
D02*
G37*
G36*
X0235681Y0087248D02*
X0235648Y0087139D01*
X0235649Y0087012D01*
X0235685Y0086868D01*
X0235754Y0086707D01*
X0235857Y0086529D01*
X0235994Y0086333D01*
X0236164Y0086121D01*
X0236608Y0085644D01*
X0235760Y0084795D01*
X0235512Y0085034D01*
X0235070Y0085409D01*
X0234874Y0085546D01*
X0234696Y0085650D01*
X0234535Y0085719D01*
X0234391Y0085754D01*
X0234264Y0085755D01*
X0234155Y0085722D01*
X0234063Y0085655D01*
X0235748Y0087341D01*
X0235681Y0087248D01*
D02*
G37*
G36*
X0271579Y0077540D02*
X0271567Y0077654D01*
X0271531Y0077756D01*
X0271470Y0077846D01*
X0271385Y0077924D01*
X0271276Y0077990D01*
X0271143Y0078044D01*
X0270985Y0078086D01*
X0270803Y0078116D01*
X0270597Y0078134D01*
X0270367Y0078140D01*
Y0079340D01*
X0270597Y0079346D01*
X0270803Y0079364D01*
X0270985Y0079394D01*
X0271143Y0079436D01*
X0271276Y0079490D01*
X0271385Y0079556D01*
X0271470Y0079634D01*
X0271531Y0079724D01*
X0271567Y0079826D01*
X0271579Y0079940D01*
Y0077540D01*
D02*
G37*
G36*
X0221609Y0077094D02*
X0221669Y0077054D01*
X0221738Y0077018D01*
X0221815Y0076986D01*
X0221901Y0076960D01*
X0221995Y0076938D01*
X0222099Y0076922D01*
X0222211Y0076910D01*
X0222460Y0076900D01*
Y0075700D01*
X0222331Y0075698D01*
X0222099Y0075678D01*
X0221995Y0075662D01*
X0221901Y0075640D01*
X0221815Y0075614D01*
X0221738Y0075582D01*
X0221669Y0075546D01*
X0221609Y0075506D01*
X0221558Y0075460D01*
Y0077140D01*
X0221609Y0077094D01*
D02*
G37*
G36*
X0225941Y0075100D02*
X0225929Y0075214D01*
X0225893Y0075316D01*
X0225833Y0075406D01*
X0225749Y0075484D01*
X0225641Y0075550D01*
X0225509Y0075604D01*
X0225353Y0075646D01*
X0225173Y0075676D01*
X0224969Y0075694D01*
X0224741Y0075700D01*
Y0076900D01*
X0224969Y0076906D01*
X0225173Y0076924D01*
X0225353Y0076954D01*
X0225509Y0076996D01*
X0225641Y0077050D01*
X0225749Y0077116D01*
X0225833Y0077194D01*
X0225893Y0077284D01*
X0225929Y0077386D01*
X0225941Y0077500D01*
Y0075100D01*
D02*
G37*
G36*
X0310864Y0115847D02*
X0311403Y0115624D01*
X0311887Y0115300D01*
X0312300Y0114887D01*
X0312624Y0114402D01*
X0312847Y0113864D01*
X0312961Y0113292D01*
Y0113000D01*
Y0005000D01*
Y0004708D01*
X0312847Y0004136D01*
X0312624Y0003598D01*
X0312300Y0003112D01*
X0311887Y0002700D01*
X0311403Y0002376D01*
X0310864Y0002153D01*
X0310292Y0002039D01*
X0221000D01*
Y0025693D01*
X0221854Y0026547D01*
X0222208Y0027077D01*
X0222332Y0027701D01*
Y0029469D01*
X0224929D01*
Y0028131D01*
X0230472D01*
Y0034069D01*
X0224929D01*
Y0032731D01*
X0222245D01*
X0222235Y0032732D01*
X0222212Y0032736D01*
X0221559Y0033172D01*
X0221000Y0033284D01*
Y0040416D01*
X0221559Y0040528D01*
X0222212Y0040964D01*
X0222223Y0040966D01*
X0222260Y0040969D01*
X0224929D01*
Y0039632D01*
X0230472D01*
Y0045568D01*
X0224929D01*
Y0044231D01*
X0222245D01*
X0222235Y0044232D01*
X0222212Y0044236D01*
X0221559Y0044672D01*
X0221000Y0044784D01*
Y0062816D01*
X0221559Y0062928D01*
X0222212Y0063364D01*
X0222223Y0063366D01*
X0222260Y0063369D01*
X0224929D01*
Y0062032D01*
X0226069D01*
Y0056669D01*
X0224929D01*
Y0050731D01*
X0230472D01*
Y0056669D01*
X0229332D01*
Y0062032D01*
X0230472D01*
Y0067968D01*
X0224929D01*
Y0066631D01*
X0222245D01*
X0222235Y0066632D01*
X0222212Y0066636D01*
X0221559Y0067072D01*
X0221000Y0067184D01*
Y0074116D01*
X0221559Y0074228D01*
X0222212Y0074664D01*
X0222223Y0074666D01*
X0222260Y0074669D01*
X0224929D01*
Y0073331D01*
X0230472D01*
Y0079268D01*
X0224929D01*
Y0077931D01*
X0222245D01*
X0222235Y0077932D01*
X0222212Y0077936D01*
X0221559Y0078372D01*
X0221000Y0078484D01*
Y0085416D01*
X0221559Y0085528D01*
X0222212Y0085964D01*
X0222223Y0085966D01*
X0222260Y0085969D01*
X0224929D01*
Y0084632D01*
X0230472D01*
Y0088036D01*
X0230952Y0088216D01*
X0231228Y0087926D01*
Y0087555D01*
X0231228Y0087545D01*
X0231228Y0087543D01*
Y0084632D01*
X0234403D01*
X0234446Y0084602D01*
X0234766Y0084330D01*
X0241510Y0077587D01*
X0242039Y0077233D01*
X0242663Y0077109D01*
X0270555D01*
Y0075772D01*
X0282162D01*
X0282353Y0075310D01*
X0281232Y0074189D01*
X0281032Y0074003D01*
X0280875Y0073878D01*
X0280814Y0073835D01*
X0280514D01*
X0280476Y0073842D01*
X0280438Y0073835D01*
X0270555D01*
Y0072497D01*
X0239913D01*
X0237122Y0075288D01*
X0236936Y0075488D01*
X0236809Y0075646D01*
X0236772Y0075700D01*
Y0079268D01*
X0231228D01*
Y0073331D01*
X0234403D01*
X0234446Y0073302D01*
X0234766Y0073030D01*
X0238084Y0069713D01*
X0238613Y0069359D01*
X0239237Y0069235D01*
X0270555D01*
Y0067898D01*
X0283185D01*
Y0071087D01*
X0283193Y0071126D01*
X0283185Y0071164D01*
Y0071463D01*
X0283220Y0071513D01*
X0283490Y0071833D01*
X0285653Y0073996D01*
X0286007Y0074525D01*
X0286131Y0075150D01*
X0286131Y0075150D01*
Y0085443D01*
X0286007Y0086067D01*
X0285653Y0086597D01*
X0274965Y0097285D01*
Y0101621D01*
X0274971Y0101689D01*
X0275023Y0101900D01*
X0275127Y0102167D01*
X0275288Y0102486D01*
X0275511Y0102849D01*
X0275782Y0103234D01*
X0277031Y0104681D01*
X0277522Y0105175D01*
X0277596Y0105237D01*
X0278346Y0106150D01*
X0278903Y0107193D01*
X0279246Y0108324D01*
X0279362Y0109500D01*
X0279246Y0110676D01*
X0278903Y0111807D01*
X0278346Y0112849D01*
X0277596Y0113763D01*
X0276683Y0114513D01*
X0275641Y0115070D01*
X0274510Y0115413D01*
X0274025Y0115461D01*
X0274050Y0115961D01*
X0310292D01*
X0310864Y0115847D01*
D02*
G37*
G36*
X0235681Y0075948D02*
X0235648Y0075839D01*
X0235649Y0075712D01*
X0235685Y0075568D01*
X0235754Y0075407D01*
X0235857Y0075229D01*
X0235994Y0075033D01*
X0236164Y0074821D01*
X0236608Y0074344D01*
X0235760Y0073495D01*
X0235512Y0073734D01*
X0235070Y0074110D01*
X0234874Y0074247D01*
X0234696Y0074349D01*
X0234535Y0074419D01*
X0234391Y0074454D01*
X0234264Y0074455D01*
X0234155Y0074422D01*
X0234063Y0074356D01*
X0235748Y0076041D01*
X0235681Y0075948D01*
D02*
G37*
G36*
X0283022Y0072823D02*
X0282784Y0072577D01*
X0282411Y0072135D01*
X0282275Y0071940D01*
X0282173Y0071762D01*
X0282105Y0071601D01*
X0282071Y0071456D01*
Y0071329D01*
X0282105Y0071219D01*
X0282173Y0071126D01*
X0280476Y0072823D01*
X0280569Y0072755D01*
X0280680Y0072721D01*
X0280807D01*
X0280951Y0072755D01*
X0281112Y0072823D01*
X0281291Y0072925D01*
X0281486Y0073060D01*
X0281698Y0073230D01*
X0282173Y0073671D01*
X0283022Y0072823D01*
D02*
G37*
G36*
X0271579Y0069666D02*
X0271567Y0069780D01*
X0271531Y0069882D01*
X0271470Y0069972D01*
X0271385Y0070050D01*
X0271276Y0070116D01*
X0271143Y0070170D01*
X0270985Y0070212D01*
X0270803Y0070242D01*
X0270597Y0070260D01*
X0270367Y0070266D01*
Y0071466D01*
X0270597Y0071472D01*
X0270803Y0071490D01*
X0270985Y0071520D01*
X0271143Y0071562D01*
X0271276Y0071616D01*
X0271385Y0071682D01*
X0271470Y0071760D01*
X0271531Y0071850D01*
X0271567Y0071952D01*
X0271579Y0072066D01*
Y0069666D01*
D02*
G37*
G36*
X0188980Y0050020D02*
X0158520Y0050020D01*
X0158520Y0068500D01*
X0175000Y0068500D01*
X0175000Y0076500D01*
X0188980D01*
X0188980Y0050020D01*
D02*
G37*
G36*
X0090416Y0066335D02*
X0090376Y0066275D01*
X0090340Y0066206D01*
X0090308Y0066129D01*
X0090282Y0066043D01*
X0090260Y0065948D01*
X0090244Y0065845D01*
X0090232Y0065733D01*
X0090222Y0065484D01*
X0089022D01*
X0089020Y0065613D01*
X0089000Y0065845D01*
X0088984Y0065948D01*
X0088962Y0066043D01*
X0088936Y0066129D01*
X0088904Y0066206D01*
X0088868Y0066275D01*
X0088828Y0066335D01*
X0088782Y0066386D01*
X0090462D01*
X0090416Y0066335D01*
D02*
G37*
G36*
X0221609Y0065794D02*
X0221669Y0065754D01*
X0221738Y0065718D01*
X0221815Y0065686D01*
X0221901Y0065660D01*
X0221995Y0065638D01*
X0222099Y0065622D01*
X0222211Y0065610D01*
X0222460Y0065600D01*
Y0064400D01*
X0222331Y0064398D01*
X0222099Y0064378D01*
X0221995Y0064362D01*
X0221901Y0064340D01*
X0221815Y0064314D01*
X0221738Y0064282D01*
X0221669Y0064246D01*
X0221609Y0064206D01*
X0221558Y0064160D01*
Y0065840D01*
X0221609Y0065794D01*
D02*
G37*
G36*
X0225953Y0063800D02*
X0225941Y0063914D01*
X0225905Y0064016D01*
X0225844Y0064106D01*
X0225759Y0064184D01*
X0225650Y0064250D01*
X0225517Y0064304D01*
X0225359Y0064346D01*
X0225178Y0064376D01*
X0224971Y0064394D01*
X0224741Y0064400D01*
Y0065600D01*
X0224971Y0065606D01*
X0225178Y0065624D01*
X0225359Y0065654D01*
X0225517Y0065696D01*
X0225650Y0065750D01*
X0225759Y0065816D01*
X0225844Y0065894D01*
X0225905Y0065984D01*
X0225941Y0066086D01*
X0225953Y0066200D01*
Y0063800D01*
D02*
G37*
G36*
X0228787Y0063043D02*
X0228685Y0063007D01*
X0228595Y0062946D01*
X0228517Y0062862D01*
X0228451Y0062752D01*
X0228397Y0062619D01*
X0228355Y0062462D01*
X0228325Y0062280D01*
X0228307Y0062074D01*
X0228301Y0061844D01*
X0227101D01*
X0227095Y0062074D01*
X0227077Y0062280D01*
X0227047Y0062462D01*
X0227005Y0062619D01*
X0226951Y0062752D01*
X0226885Y0062862D01*
X0226807Y0062946D01*
X0226717Y0063007D01*
X0226615Y0063043D01*
X0226501Y0063055D01*
X0228901D01*
X0228787Y0063043D01*
D02*
G37*
G36*
X0068172Y0062592D02*
X0068132Y0062532D01*
X0068096Y0062463D01*
X0068064Y0062386D01*
X0068038Y0062300D01*
X0068016Y0062205D01*
X0068000Y0062102D01*
X0067988Y0061990D01*
X0067978Y0061741D01*
X0066778D01*
X0066776Y0061870D01*
X0066756Y0062102D01*
X0066740Y0062205D01*
X0066718Y0062300D01*
X0066692Y0062386D01*
X0066660Y0062463D01*
X0066624Y0062532D01*
X0066584Y0062592D01*
X0066538Y0062643D01*
X0068218D01*
X0068172Y0062592D01*
D02*
G37*
G36*
X0090228Y0060248D02*
X0090246Y0060042D01*
X0090276Y0059860D01*
X0090318Y0059703D01*
X0090372Y0059570D01*
X0090438Y0059460D01*
X0090516Y0059376D01*
X0090606Y0059315D01*
X0090708Y0059279D01*
X0090822Y0059267D01*
X0088422D01*
X0088536Y0059279D01*
X0088638Y0059315D01*
X0088728Y0059376D01*
X0088806Y0059460D01*
X0088872Y0059570D01*
X0088926Y0059703D01*
X0088968Y0059860D01*
X0088998Y0060042D01*
X0089016Y0060248D01*
X0089022Y0060479D01*
X0090222D01*
X0090228Y0060248D01*
D02*
G37*
G36*
X0067984D02*
X0068002Y0060042D01*
X0068032Y0059860D01*
X0068074Y0059703D01*
X0068128Y0059570D01*
X0068194Y0059460D01*
X0068272Y0059376D01*
X0068362Y0059315D01*
X0068464Y0059279D01*
X0068578Y0059267D01*
X0066178D01*
X0066292Y0059279D01*
X0066394Y0059315D01*
X0066484Y0059376D01*
X0066562Y0059460D01*
X0066628Y0059570D01*
X0066682Y0059703D01*
X0066724Y0059860D01*
X0066754Y0060042D01*
X0066772Y0060248D01*
X0066778Y0060479D01*
X0067978D01*
X0067984Y0060248D01*
D02*
G37*
G36*
X0228307Y0056626D02*
X0228325Y0056420D01*
X0228355Y0056238D01*
X0228397Y0056081D01*
X0228451Y0055948D01*
X0228517Y0055838D01*
X0228595Y0055754D01*
X0228685Y0055693D01*
X0228787Y0055657D01*
X0228901Y0055645D01*
X0226501D01*
X0226615Y0055657D01*
X0226717Y0055693D01*
X0226807Y0055754D01*
X0226885Y0055838D01*
X0226951Y0055948D01*
X0227005Y0056081D01*
X0227047Y0056238D01*
X0227077Y0056420D01*
X0227095Y0056626D01*
X0227101Y0056857D01*
X0228301D01*
X0228307Y0056626D01*
D02*
G37*
G36*
X0087409Y0067091D02*
X0087550Y0066385D01*
X0087986Y0065732D01*
X0087988Y0065721D01*
X0087991Y0065684D01*
Y0060324D01*
X0087653D01*
X0086764Y0060147D01*
X0086010Y0059643D01*
X0085506Y0058889D01*
X0085329Y0058000D01*
X0085506Y0057111D01*
X0086010Y0056357D01*
X0086764Y0055853D01*
X0087653Y0055676D01*
X0089500D01*
Y0050500D01*
X0067000D01*
Y0055676D01*
X0069346D01*
X0070236Y0055853D01*
X0070990Y0056357D01*
X0071494Y0057111D01*
X0071671Y0058000D01*
X0071494Y0058889D01*
X0070990Y0059643D01*
X0070236Y0060147D01*
X0069346Y0060324D01*
X0069009D01*
Y0061956D01*
X0069010Y0061966D01*
X0069014Y0061989D01*
X0069450Y0062642D01*
X0069621Y0063500D01*
X0069450Y0064358D01*
X0068964Y0065086D01*
X0068236Y0065572D01*
X0067378Y0065743D01*
X0066520Y0065572D01*
X0065792Y0065086D01*
X0065400Y0064500D01*
X0055500Y0064500D01*
X0034500Y0043500D01*
X0034500Y0036020D01*
X0002039Y0036020D01*
Y0057916D01*
X0025416Y0057916D01*
X0054000Y0086500D01*
X0068000Y0086500D01*
X0087409Y0067091D01*
D02*
G37*
G36*
X0095765Y0047160D02*
X0095714Y0047206D01*
X0095654Y0047246D01*
X0095585Y0047282D01*
X0095508Y0047314D01*
X0095422Y0047340D01*
X0095327Y0047362D01*
X0095224Y0047378D01*
X0095112Y0047390D01*
X0094863Y0047400D01*
Y0048600D01*
X0094992Y0048602D01*
X0095224Y0048622D01*
X0095327Y0048638D01*
X0095422Y0048660D01*
X0095508Y0048686D01*
X0095585Y0048718D01*
X0095654Y0048754D01*
X0095714Y0048794D01*
X0095765Y0048840D01*
Y0047160D01*
D02*
G37*
G36*
X0073521D02*
X0073470Y0047206D01*
X0073410Y0047246D01*
X0073341Y0047282D01*
X0073264Y0047314D01*
X0073178Y0047340D01*
X0073083Y0047362D01*
X0072980Y0047378D01*
X0072868Y0047390D01*
X0072619Y0047400D01*
Y0048600D01*
X0072748Y0048602D01*
X0072980Y0048622D01*
X0073083Y0048638D01*
X0073178Y0048660D01*
X0073264Y0048686D01*
X0073341Y0048718D01*
X0073410Y0048754D01*
X0073470Y0048794D01*
X0073521Y0048840D01*
Y0047160D01*
D02*
G37*
G36*
X0092366Y0049011D02*
X0092509Y0048925D01*
X0092659Y0048849D01*
X0092817Y0048783D01*
X0092981Y0048727D01*
X0093153Y0048681D01*
X0093333Y0048646D01*
X0093519Y0048620D01*
X0093713Y0048605D01*
X0093914Y0048600D01*
Y0047400D01*
X0093713Y0047395D01*
X0093519Y0047380D01*
X0093333Y0047354D01*
X0093153Y0047319D01*
X0092981Y0047273D01*
X0092817Y0047217D01*
X0092659Y0047151D01*
X0092509Y0047075D01*
X0092366Y0046989D01*
X0092230Y0046893D01*
Y0049107D01*
X0092366Y0049011D01*
D02*
G37*
G36*
X0070122D02*
X0070265Y0048925D01*
X0070415Y0048849D01*
X0070572Y0048783D01*
X0070737Y0048727D01*
X0070909Y0048681D01*
X0071088Y0048646D01*
X0071275Y0048620D01*
X0071469Y0048605D01*
X0071670Y0048600D01*
Y0047400D01*
X0071469Y0047395D01*
X0071275Y0047380D01*
X0071088Y0047354D01*
X0070909Y0047319D01*
X0070737Y0047273D01*
X0070572Y0047217D01*
X0070415Y0047151D01*
X0070265Y0047075D01*
X0070122Y0046989D01*
X0069986Y0046893D01*
Y0049107D01*
X0070122Y0049011D01*
D02*
G37*
G36*
X0095765Y0042160D02*
X0095714Y0042206D01*
X0095654Y0042246D01*
X0095585Y0042282D01*
X0095508Y0042314D01*
X0095422Y0042340D01*
X0095327Y0042362D01*
X0095224Y0042378D01*
X0095112Y0042390D01*
X0094863Y0042400D01*
Y0043600D01*
X0094992Y0043602D01*
X0095224Y0043622D01*
X0095327Y0043638D01*
X0095422Y0043660D01*
X0095508Y0043686D01*
X0095585Y0043718D01*
X0095654Y0043754D01*
X0095714Y0043794D01*
X0095765Y0043840D01*
Y0042160D01*
D02*
G37*
G36*
X0092366Y0044011D02*
X0092509Y0043925D01*
X0092659Y0043848D01*
X0092817Y0043783D01*
X0092981Y0043727D01*
X0093153Y0043681D01*
X0093333Y0043646D01*
X0093519Y0043620D01*
X0093713Y0043605D01*
X0093914Y0043600D01*
Y0042400D01*
X0093713Y0042395D01*
X0093519Y0042380D01*
X0093333Y0042354D01*
X0093153Y0042319D01*
X0092981Y0042273D01*
X0092817Y0042217D01*
X0092659Y0042151D01*
X0092509Y0042075D01*
X0092366Y0041989D01*
X0092230Y0041893D01*
Y0044107D01*
X0092366Y0044011D01*
D02*
G37*
G36*
X0221609Y0043394D02*
X0221669Y0043354D01*
X0221738Y0043318D01*
X0221815Y0043286D01*
X0221901Y0043260D01*
X0221995Y0043238D01*
X0222099Y0043222D01*
X0222211Y0043210D01*
X0222460Y0043200D01*
Y0042000D01*
X0222331Y0041998D01*
X0222099Y0041978D01*
X0221995Y0041962D01*
X0221901Y0041940D01*
X0221815Y0041914D01*
X0221738Y0041882D01*
X0221669Y0041846D01*
X0221609Y0041806D01*
X0221558Y0041760D01*
Y0043440D01*
X0221609Y0043394D01*
D02*
G37*
G36*
X0225941Y0041400D02*
X0225929Y0041514D01*
X0225893Y0041616D01*
X0225833Y0041706D01*
X0225749Y0041784D01*
X0225641Y0041850D01*
X0225509Y0041904D01*
X0225353Y0041946D01*
X0225173Y0041976D01*
X0224969Y0041994D01*
X0224741Y0042000D01*
Y0043200D01*
X0224969Y0043206D01*
X0225173Y0043224D01*
X0225353Y0043254D01*
X0225509Y0043296D01*
X0225641Y0043350D01*
X0225749Y0043416D01*
X0225833Y0043494D01*
X0225893Y0043584D01*
X0225929Y0043686D01*
X0225941Y0043800D01*
Y0041400D01*
D02*
G37*
G36*
X0218458Y0076300D02*
X0218628Y0075442D01*
X0219115Y0074714D01*
X0219500Y0074456D01*
Y0066844D01*
X0219115Y0066586D01*
X0218628Y0065858D01*
X0218458Y0065000D01*
X0218628Y0064142D01*
X0219115Y0063414D01*
X0219500Y0063156D01*
Y0044444D01*
X0219115Y0044186D01*
X0218628Y0043458D01*
X0218458Y0042600D01*
X0218628Y0041742D01*
X0219115Y0041014D01*
X0219500Y0040756D01*
Y0032944D01*
X0219115Y0032686D01*
X0218628Y0031958D01*
X0218458Y0031100D01*
X0218628Y0030242D01*
X0219065Y0029589D01*
X0219066Y0029578D01*
X0219069Y0029541D01*
Y0028376D01*
X0216968Y0026276D01*
X0216469Y0026483D01*
Y0026921D01*
X0210531D01*
Y0021378D01*
X0216469D01*
Y0022518D01*
X0217150D01*
X0217774Y0022642D01*
X0218303Y0022996D01*
X0219038Y0023731D01*
X0219500Y0023540D01*
Y0002039D01*
X0087020D01*
Y0003803D01*
X0087449Y0004061D01*
X0087693Y0003930D01*
X0088824Y0003587D01*
X0090000Y0003471D01*
X0091176Y0003587D01*
X0092307Y0003930D01*
X0093349Y0004487D01*
X0094263Y0005237D01*
X0095013Y0006151D01*
X0095570Y0007193D01*
X0095913Y0008324D01*
X0096029Y0009500D01*
X0095913Y0010676D01*
X0095570Y0011807D01*
X0095013Y0012849D01*
X0094263Y0013763D01*
X0093349Y0014513D01*
X0092307Y0015070D01*
X0091176Y0015413D01*
X0090000Y0015529D01*
X0088824Y0015413D01*
X0087693Y0015070D01*
X0087449Y0014940D01*
X0087020Y0015197D01*
Y0017744D01*
X0087520Y0017793D01*
X0087550Y0017642D01*
X0088036Y0016914D01*
X0088764Y0016428D01*
X0089622Y0016257D01*
X0090480Y0016428D01*
X0091208Y0016914D01*
X0091694Y0017642D01*
X0091865Y0018500D01*
X0091694Y0019358D01*
X0091258Y0020011D01*
X0091256Y0020022D01*
X0091253Y0020059D01*
Y0020676D01*
X0091590D01*
X0092480Y0020853D01*
X0093234Y0021357D01*
X0093738Y0022111D01*
X0093915Y0023000D01*
X0093738Y0023889D01*
X0093234Y0024644D01*
X0092480Y0025147D01*
X0091988Y0025245D01*
Y0025755D01*
X0092480Y0025853D01*
X0093234Y0026357D01*
X0093738Y0027111D01*
X0093915Y0028000D01*
X0093738Y0028889D01*
X0093234Y0029643D01*
X0092480Y0030147D01*
X0091988Y0030245D01*
Y0030755D01*
X0092480Y0030853D01*
X0092736Y0031024D01*
X0092820Y0031061D01*
X0092925Y0031136D01*
X0093003Y0031183D01*
X0093087Y0031225D01*
X0093177Y0031263D01*
X0093276Y0031297D01*
X0093383Y0031325D01*
X0093500Y0031348D01*
X0093628Y0031365D01*
X0093668Y0031369D01*
X0095078D01*
X0095088Y0031368D01*
X0095111Y0031364D01*
X0095764Y0030928D01*
X0096622Y0030757D01*
X0097480Y0030928D01*
X0098208Y0031414D01*
X0098694Y0032142D01*
X0098865Y0033000D01*
X0098694Y0033858D01*
X0098208Y0034586D01*
X0097480Y0035072D01*
X0096622Y0035243D01*
X0095764Y0035072D01*
X0095111Y0034636D01*
X0095100Y0034634D01*
X0095063Y0034631D01*
X0093668D01*
X0093628Y0034635D01*
X0093500Y0034652D01*
X0093383Y0034675D01*
X0093276Y0034703D01*
X0093177Y0034737D01*
X0093086Y0034775D01*
X0093003Y0034817D01*
X0092924Y0034864D01*
X0092820Y0034939D01*
X0092736Y0034976D01*
X0092480Y0035147D01*
X0091590Y0035324D01*
X0087653D01*
X0087387Y0035271D01*
X0087000Y0035588D01*
Y0040412D01*
X0087387Y0040729D01*
X0087653Y0040676D01*
X0091590D01*
X0092480Y0040853D01*
X0092736Y0041024D01*
X0092820Y0041061D01*
X0092925Y0041136D01*
X0093003Y0041183D01*
X0093087Y0041225D01*
X0093177Y0041263D01*
X0093276Y0041296D01*
X0093383Y0041325D01*
X0093500Y0041348D01*
X0093628Y0041366D01*
X0093668Y0041369D01*
X0095078D01*
X0095088Y0041368D01*
X0095111Y0041364D01*
X0095764Y0040928D01*
X0096622Y0040757D01*
X0097480Y0040928D01*
X0098208Y0041414D01*
X0098249Y0041475D01*
X0098532Y0041878D01*
Y0041878D01*
X0098532Y0041878D01*
X0104469D01*
Y0047421D01*
X0103539D01*
Y0048515D01*
X0103743Y0048980D01*
X0157500D01*
X0157599Y0049000D01*
X0190000Y0049000D01*
X0190000Y0076500D01*
X0218294D01*
X0218458Y0076300D01*
D02*
G37*
G36*
X0095765Y0032160D02*
X0095714Y0032206D01*
X0095654Y0032246D01*
X0095585Y0032282D01*
X0095508Y0032314D01*
X0095422Y0032340D01*
X0095327Y0032362D01*
X0095224Y0032378D01*
X0095112Y0032390D01*
X0094863Y0032400D01*
Y0033600D01*
X0094992Y0033602D01*
X0095224Y0033622D01*
X0095327Y0033638D01*
X0095422Y0033660D01*
X0095508Y0033686D01*
X0095585Y0033718D01*
X0095654Y0033754D01*
X0095714Y0033794D01*
X0095765Y0033840D01*
Y0032160D01*
D02*
G37*
G36*
X0061286Y0033794D02*
X0061346Y0033754D01*
X0061415Y0033718D01*
X0061492Y0033686D01*
X0061578Y0033660D01*
X0061673Y0033638D01*
X0061776Y0033622D01*
X0061888Y0033610D01*
X0062137Y0033600D01*
Y0032400D01*
X0062008Y0032398D01*
X0061776Y0032378D01*
X0061673Y0032362D01*
X0061578Y0032340D01*
X0061492Y0032314D01*
X0061415Y0032282D01*
X0061346Y0032246D01*
X0061286Y0032206D01*
X0061235Y0032160D01*
Y0033840D01*
X0061286Y0033794D01*
D02*
G37*
G36*
X0092366Y0034011D02*
X0092509Y0033925D01*
X0092659Y0033849D01*
X0092817Y0033783D01*
X0092981Y0033727D01*
X0093153Y0033681D01*
X0093333Y0033646D01*
X0093519Y0033620D01*
X0093713Y0033605D01*
X0093914Y0033600D01*
Y0032400D01*
X0093713Y0032395D01*
X0093519Y0032380D01*
X0093333Y0032354D01*
X0093153Y0032319D01*
X0092981Y0032273D01*
X0092817Y0032217D01*
X0092659Y0032151D01*
X0092509Y0032075D01*
X0092366Y0031989D01*
X0092230Y0031893D01*
Y0034107D01*
X0092366Y0034011D01*
D02*
G37*
G36*
X0064770Y0031893D02*
X0064634Y0031989D01*
X0064491Y0032075D01*
X0064341Y0032151D01*
X0064183Y0032217D01*
X0064019Y0032273D01*
X0063847Y0032319D01*
X0063667Y0032354D01*
X0063481Y0032380D01*
X0063287Y0032395D01*
X0063086Y0032400D01*
Y0033600D01*
X0063287Y0033605D01*
X0063481Y0033620D01*
X0063667Y0033646D01*
X0063847Y0033681D01*
X0064019Y0033727D01*
X0064183Y0033783D01*
X0064341Y0033849D01*
X0064491Y0033925D01*
X0064634Y0034011D01*
X0064770Y0034107D01*
Y0031893D01*
D02*
G37*
G36*
X0050408Y0033294D02*
X0050468Y0033254D01*
X0050537Y0033218D01*
X0050614Y0033186D01*
X0050700Y0033160D01*
X0050795Y0033138D01*
X0050898Y0033122D01*
X0051010Y0033110D01*
X0051259Y0033100D01*
Y0031900D01*
X0051130Y0031898D01*
X0050898Y0031878D01*
X0050795Y0031862D01*
X0050700Y0031840D01*
X0050614Y0031814D01*
X0050537Y0031782D01*
X0050468Y0031746D01*
X0050408Y0031706D01*
X0050357Y0031660D01*
Y0033340D01*
X0050408Y0033294D01*
D02*
G37*
G36*
X0065306Y0062642D02*
X0065742Y0061989D01*
X0065744Y0061978D01*
X0065747Y0061941D01*
Y0060324D01*
X0065409D01*
X0064520Y0060147D01*
X0063766Y0059643D01*
X0063262Y0058889D01*
X0063085Y0058000D01*
X0063262Y0057111D01*
X0063766Y0056357D01*
X0064520Y0055853D01*
X0065012Y0055755D01*
Y0055245D01*
X0064520Y0055147D01*
X0063766Y0054643D01*
X0063262Y0053889D01*
X0063085Y0053000D01*
X0063262Y0052111D01*
X0063766Y0051357D01*
X0064520Y0050853D01*
X0065012Y0050755D01*
Y0050245D01*
X0064520Y0050147D01*
X0063766Y0049643D01*
X0063262Y0048889D01*
X0063085Y0048000D01*
X0063262Y0047111D01*
X0063766Y0046356D01*
X0064520Y0045853D01*
X0065409Y0045676D01*
X0069346D01*
X0070236Y0045853D01*
X0070492Y0046024D01*
X0070576Y0046061D01*
X0070680Y0046136D01*
X0070759Y0046183D01*
X0070842Y0046225D01*
X0070933Y0046263D01*
X0071032Y0046297D01*
X0071139Y0046325D01*
X0071256Y0046348D01*
X0071384Y0046365D01*
X0071424Y0046369D01*
X0072834D01*
X0072844Y0046368D01*
X0072867Y0046364D01*
X0073520Y0045928D01*
X0074378Y0045757D01*
X0075236Y0045928D01*
X0075964Y0046414D01*
X0076450Y0047142D01*
X0076621Y0048000D01*
X0076450Y0048858D01*
X0076329Y0049039D01*
X0076565Y0049480D01*
X0085500D01*
X0085500Y0048858D01*
X0085329Y0048000D01*
X0085500Y0047142D01*
X0085500Y0043858D01*
X0085329Y0043000D01*
X0085500Y0042142D01*
X0085500Y0033858D01*
X0085329Y0033000D01*
X0085500Y0032142D01*
Y0031520D01*
X0071629Y0031520D01*
X0071394Y0031960D01*
X0071494Y0032111D01*
X0071671Y0033000D01*
X0071494Y0033889D01*
X0070990Y0034644D01*
X0070236Y0035147D01*
X0069346Y0035324D01*
X0065409D01*
X0064520Y0035147D01*
X0064264Y0034976D01*
X0064180Y0034939D01*
X0064075Y0034864D01*
X0063997Y0034817D01*
X0063914Y0034775D01*
X0063823Y0034737D01*
X0063724Y0034703D01*
X0063617Y0034675D01*
X0063500Y0034652D01*
X0063372Y0034635D01*
X0063332Y0034631D01*
X0061922D01*
X0061912Y0034632D01*
X0061889Y0034636D01*
X0061236Y0035072D01*
X0060378Y0035243D01*
X0059520Y0035072D01*
X0058792Y0034586D01*
X0058469Y0034102D01*
X0057968Y0034254D01*
Y0035122D01*
X0052031D01*
Y0034131D01*
X0051044D01*
X0051034Y0034132D01*
X0051011Y0034136D01*
X0050358Y0034572D01*
X0049500Y0034743D01*
X0048642Y0034572D01*
X0047914Y0034086D01*
X0047428Y0033358D01*
X0047257Y0032500D01*
X0047428Y0031642D01*
X0047914Y0030914D01*
X0048642Y0030428D01*
X0049500Y0030257D01*
X0050358Y0030428D01*
X0051011Y0030864D01*
X0051022Y0030866D01*
X0051059Y0030869D01*
X0052031D01*
Y0029579D01*
X0057968D01*
Y0031746D01*
X0058469Y0031898D01*
X0058792Y0031414D01*
X0059520Y0030928D01*
X0060378Y0030757D01*
X0061236Y0030928D01*
X0061889Y0031364D01*
X0061900Y0031366D01*
X0061937Y0031369D01*
X0063332D01*
X0063372Y0031365D01*
X0063500Y0031348D01*
X0063617Y0031325D01*
X0063724Y0031297D01*
X0063823Y0031263D01*
X0063914Y0031225D01*
X0063997Y0031183D01*
X0064075Y0031136D01*
X0064180Y0031061D01*
X0064264Y0031024D01*
X0064520Y0030853D01*
X0065012Y0030755D01*
Y0030245D01*
X0064520Y0030147D01*
X0063766Y0029643D01*
X0063262Y0028889D01*
X0063085Y0028000D01*
X0063262Y0027111D01*
X0063766Y0026357D01*
X0064520Y0025853D01*
X0065012Y0025755D01*
Y0025245D01*
X0064520Y0025147D01*
X0064264Y0024976D01*
X0064180Y0024939D01*
X0064075Y0024864D01*
X0063997Y0024817D01*
X0063914Y0024775D01*
X0063823Y0024737D01*
X0063724Y0024703D01*
X0063617Y0024675D01*
X0063500Y0024652D01*
X0063372Y0024634D01*
X0063332Y0024631D01*
X0061922D01*
X0061912Y0024632D01*
X0061889Y0024636D01*
X0061236Y0025072D01*
X0060378Y0025243D01*
X0059520Y0025072D01*
X0058792Y0024586D01*
X0058306Y0023858D01*
X0058135Y0023000D01*
X0058306Y0022142D01*
X0058792Y0021414D01*
X0059520Y0020928D01*
X0060378Y0020757D01*
X0061236Y0020928D01*
X0061889Y0021364D01*
X0061900Y0021366D01*
X0061937Y0021369D01*
X0063332D01*
X0063372Y0021365D01*
X0063500Y0021348D01*
X0063617Y0021325D01*
X0063724Y0021296D01*
X0063823Y0021263D01*
X0063914Y0021225D01*
X0063997Y0021183D01*
X0064075Y0021136D01*
X0064180Y0021061D01*
X0064264Y0021024D01*
X0064520Y0020853D01*
X0065409Y0020676D01*
X0067161D01*
X0067480Y0020322D01*
X0067480Y0017922D01*
X0066578Y0017020D01*
X0035520D01*
Y0035000D01*
X0035500Y0035098D01*
Y0035921D01*
X0035520Y0036020D01*
X0035520Y0043078D01*
X0055922Y0063480D01*
X0065139Y0063480D01*
X0065306Y0062642D01*
D02*
G37*
G36*
X0053056Y0031300D02*
X0053043Y0031414D01*
X0053007Y0031516D01*
X0052946Y0031606D01*
X0052862Y0031684D01*
X0052753Y0031750D01*
X0052619Y0031804D01*
X0052462Y0031846D01*
X0052280Y0031876D01*
X0052074Y0031894D01*
X0051844Y0031900D01*
Y0033100D01*
X0052074Y0033106D01*
X0052280Y0033124D01*
X0052462Y0033154D01*
X0052619Y0033196D01*
X0052753Y0033250D01*
X0052862Y0033316D01*
X0052946Y0033394D01*
X0053007Y0033484D01*
X0053043Y0033586D01*
X0053056Y0033700D01*
Y0031300D01*
D02*
G37*
G36*
X0221609Y0031894D02*
X0221669Y0031854D01*
X0221738Y0031818D01*
X0221815Y0031786D01*
X0221901Y0031760D01*
X0221995Y0031738D01*
X0222099Y0031722D01*
X0222211Y0031710D01*
X0222460Y0031700D01*
Y0030500D01*
X0222331Y0030498D01*
X0222099Y0030478D01*
X0221995Y0030462D01*
X0221901Y0030440D01*
X0221815Y0030414D01*
X0221738Y0030382D01*
X0221669Y0030346D01*
X0221609Y0030306D01*
X0221558Y0030260D01*
Y0031940D01*
X0221609Y0031894D01*
D02*
G37*
G36*
X0225941Y0029900D02*
X0225929Y0030014D01*
X0225893Y0030116D01*
X0225833Y0030206D01*
X0225749Y0030284D01*
X0225641Y0030350D01*
X0225509Y0030404D01*
X0225353Y0030446D01*
X0225173Y0030476D01*
X0224969Y0030494D01*
X0224741Y0030500D01*
Y0031700D01*
X0224969Y0031706D01*
X0225173Y0031724D01*
X0225353Y0031754D01*
X0225509Y0031796D01*
X0225641Y0031850D01*
X0225749Y0031916D01*
X0225833Y0031994D01*
X0225893Y0032084D01*
X0225929Y0032186D01*
X0225941Y0032300D01*
Y0029900D01*
D02*
G37*
G36*
X0221495Y0030192D02*
X0221454Y0030132D01*
X0221418Y0030063D01*
X0221387Y0029986D01*
X0221361Y0029900D01*
X0221339Y0029805D01*
X0221322Y0029702D01*
X0221310Y0029590D01*
X0221301Y0029341D01*
X0220101D01*
X0220098Y0029470D01*
X0220079Y0029702D01*
X0220062Y0029805D01*
X0220041Y0029900D01*
X0220014Y0029986D01*
X0219983Y0030063D01*
X0219947Y0030132D01*
X0219906Y0030192D01*
X0219861Y0030243D01*
X0221541D01*
X0221495Y0030192D01*
D02*
G37*
G36*
X0215457Y0025236D02*
X0215493Y0025134D01*
X0215554Y0025044D01*
X0215638Y0024966D01*
X0215747Y0024900D01*
X0215881Y0024846D01*
X0216038Y0024804D01*
X0216220Y0024774D01*
X0216426Y0024756D01*
X0216656Y0024750D01*
Y0023550D01*
X0216426Y0023544D01*
X0216220Y0023526D01*
X0216038Y0023496D01*
X0215881Y0023454D01*
X0215747Y0023400D01*
X0215638Y0023334D01*
X0215554Y0023256D01*
X0215493Y0023166D01*
X0215457Y0023064D01*
X0215444Y0022950D01*
Y0025350D01*
X0215457Y0025236D01*
D02*
G37*
G36*
X0061286Y0023794D02*
X0061346Y0023754D01*
X0061415Y0023718D01*
X0061492Y0023686D01*
X0061578Y0023660D01*
X0061673Y0023638D01*
X0061776Y0023622D01*
X0061888Y0023610D01*
X0062137Y0023600D01*
Y0022400D01*
X0062008Y0022398D01*
X0061776Y0022378D01*
X0061673Y0022362D01*
X0061578Y0022340D01*
X0061492Y0022314D01*
X0061415Y0022282D01*
X0061346Y0022246D01*
X0061286Y0022206D01*
X0061235Y0022160D01*
Y0023840D01*
X0061286Y0023794D01*
D02*
G37*
G36*
X0064770Y0021893D02*
X0064634Y0021989D01*
X0064491Y0022075D01*
X0064341Y0022151D01*
X0064183Y0022217D01*
X0064019Y0022273D01*
X0063847Y0022319D01*
X0063667Y0022354D01*
X0063481Y0022380D01*
X0063287Y0022395D01*
X0063086Y0022400D01*
Y0023600D01*
X0063287Y0023605D01*
X0063481Y0023620D01*
X0063667Y0023646D01*
X0063847Y0023681D01*
X0064019Y0023727D01*
X0064183Y0023783D01*
X0064341Y0023848D01*
X0064491Y0023925D01*
X0064634Y0024011D01*
X0064770Y0024107D01*
Y0021893D01*
D02*
G37*
G36*
X0090708Y0021721D02*
X0090606Y0021685D01*
X0090516Y0021624D01*
X0090438Y0021540D01*
X0090372Y0021430D01*
X0090318Y0021297D01*
X0090276Y0021140D01*
X0090246Y0020958D01*
X0090228Y0020752D01*
X0090222Y0020522D01*
X0089022D01*
X0089016Y0020752D01*
X0088998Y0020958D01*
X0088968Y0021140D01*
X0088926Y0021297D01*
X0088872Y0021430D01*
X0088806Y0021540D01*
X0088728Y0021624D01*
X0088638Y0021685D01*
X0088536Y0021721D01*
X0088422Y0021734D01*
X0090822D01*
X0090708Y0021721D01*
D02*
G37*
G36*
X0090224Y0020130D02*
X0090244Y0019898D01*
X0090260Y0019795D01*
X0090282Y0019700D01*
X0090308Y0019614D01*
X0090340Y0019537D01*
X0090376Y0019468D01*
X0090416Y0019408D01*
X0090462Y0019357D01*
X0088782D01*
X0088828Y0019408D01*
X0088868Y0019468D01*
X0088904Y0019537D01*
X0088936Y0019614D01*
X0088962Y0019700D01*
X0088984Y0019795D01*
X0089000Y0019898D01*
X0089012Y0020010D01*
X0089022Y0020259D01*
X0090222D01*
X0090224Y0020130D01*
D02*
G37*
G36*
X0034500Y0016000D02*
X0067000D01*
X0068500Y0017500D01*
X0068500Y0020322D01*
X0068854Y0020676D01*
X0069346D01*
X0070236Y0020853D01*
X0070990Y0021357D01*
X0071494Y0022111D01*
X0071671Y0023000D01*
X0071494Y0023889D01*
X0070990Y0024644D01*
X0070236Y0025147D01*
X0069346Y0025324D01*
X0068500D01*
X0068500Y0026500D01*
X0067378D01*
Y0030500D01*
X0089732Y0030500D01*
X0089732Y0026853D01*
X0089378Y0026500D01*
X0086000D01*
Y0024628D01*
X0085506Y0023889D01*
X0085329Y0023000D01*
X0085506Y0022111D01*
X0086000Y0021372D01*
Y0013979D01*
X0085737Y0013763D01*
X0084987Y0012849D01*
X0084430Y0011807D01*
X0084087Y0010676D01*
X0083971Y0009500D01*
X0084087Y0008324D01*
X0084430Y0007193D01*
X0084987Y0006151D01*
X0085737Y0005237D01*
X0086000Y0005021D01*
Y0002039D01*
X0004708D01*
X0004136Y0002153D01*
X0003598Y0002376D01*
X0003112Y0002700D01*
X0002700Y0003113D01*
X0002376Y0003598D01*
X0002153Y0004136D01*
X0002039Y0004708D01*
Y0005000D01*
Y0035000D01*
X0034500Y0035000D01*
Y0016000D01*
D02*
G37*
%LPC*%
G36*
X0116437Y0114197D02*
X0106563D01*
Y0111631D01*
X0106044D01*
X0106034Y0111632D01*
X0106011Y0111636D01*
X0105358Y0112072D01*
X0104500Y0112243D01*
X0103642Y0112072D01*
X0102914Y0111586D01*
X0102428Y0110858D01*
X0102257Y0110000D01*
X0102428Y0109142D01*
X0102914Y0108414D01*
X0103642Y0107928D01*
X0104193Y0107818D01*
Y0107308D01*
X0103642Y0107198D01*
X0102914Y0106712D01*
X0102428Y0105984D01*
X0102257Y0105126D01*
X0102428Y0104268D01*
X0102914Y0103540D01*
X0103609Y0103076D01*
X0103640Y0102813D01*
X0103609Y0102550D01*
X0102914Y0102086D01*
X0102428Y0101358D01*
X0102257Y0100500D01*
X0102428Y0099642D01*
X0102914Y0098914D01*
X0103642Y0098428D01*
X0104500Y0098257D01*
X0105358Y0098428D01*
X0106011Y0098864D01*
X0106022Y0098866D01*
X0106059Y0098869D01*
X0106563D01*
Y0096055D01*
X0109869D01*
Y0095044D01*
X0109868Y0095034D01*
X0109864Y0095011D01*
X0109428Y0094358D01*
X0109257Y0093500D01*
X0109428Y0092642D01*
X0109914Y0091914D01*
X0110642Y0091428D01*
X0111500Y0091257D01*
X0112358Y0091428D01*
X0113086Y0091914D01*
X0113572Y0092642D01*
X0113743Y0093500D01*
X0113572Y0094358D01*
X0113136Y0095011D01*
X0113134Y0095022D01*
X0113131Y0095059D01*
Y0096055D01*
X0116437D01*
Y0098869D01*
X0116956D01*
X0116966Y0098868D01*
X0116989Y0098864D01*
X0117642Y0098428D01*
X0118500Y0098257D01*
X0119358Y0098428D01*
X0120086Y0098914D01*
X0120572Y0099642D01*
X0120743Y0100500D01*
X0120572Y0101358D01*
X0120086Y0102086D01*
X0119391Y0102550D01*
X0119360Y0102813D01*
X0119391Y0103076D01*
X0120086Y0103540D01*
X0120572Y0104268D01*
X0120743Y0105126D01*
X0120572Y0105984D01*
X0120086Y0106712D01*
X0119358Y0107198D01*
X0118807Y0107308D01*
Y0107818D01*
X0119358Y0107928D01*
X0120086Y0108414D01*
X0120572Y0109142D01*
X0120743Y0110000D01*
X0120572Y0110858D01*
X0120086Y0111586D01*
X0119358Y0112072D01*
X0118500Y0112243D01*
X0117642Y0112072D01*
X0116989Y0111636D01*
X0116978Y0111634D01*
X0116941Y0111631D01*
X0116437D01*
Y0114197D01*
D02*
G37*
%LPD*%
G36*
X0117643Y0109160D02*
X0117592Y0109206D01*
X0117532Y0109246D01*
X0117463Y0109282D01*
X0117386Y0109314D01*
X0117300Y0109340D01*
X0117205Y0109362D01*
X0117102Y0109378D01*
X0116990Y0109390D01*
X0116741Y0109400D01*
Y0110600D01*
X0116870Y0110602D01*
X0117102Y0110622D01*
X0117205Y0110638D01*
X0117300Y0110660D01*
X0117386Y0110686D01*
X0117463Y0110718D01*
X0117532Y0110754D01*
X0117592Y0110794D01*
X0117643Y0110840D01*
Y0109160D01*
D02*
G37*
G36*
X0105408Y0110794D02*
X0105468Y0110754D01*
X0105537Y0110718D01*
X0105614Y0110686D01*
X0105700Y0110660D01*
X0105795Y0110638D01*
X0105898Y0110622D01*
X0106010Y0110610D01*
X0106259Y0110600D01*
Y0109400D01*
X0106130Y0109398D01*
X0105898Y0109378D01*
X0105795Y0109362D01*
X0105700Y0109340D01*
X0105614Y0109314D01*
X0105537Y0109282D01*
X0105468Y0109246D01*
X0105408Y0109206D01*
X0105357Y0109160D01*
Y0110840D01*
X0105408Y0110794D01*
D02*
G37*
G36*
X0115425Y0111086D02*
X0115462Y0110984D01*
X0115522Y0110894D01*
X0115607Y0110816D01*
X0115716Y0110750D01*
X0115849Y0110696D01*
X0116007Y0110654D01*
X0116189Y0110624D01*
X0116395Y0110606D01*
X0116625Y0110600D01*
Y0109400D01*
X0116395Y0109394D01*
X0116189Y0109376D01*
X0116007Y0109346D01*
X0115849Y0109304D01*
X0115716Y0109250D01*
X0115607Y0109184D01*
X0115522Y0109106D01*
X0115462Y0109016D01*
X0115425Y0108914D01*
X0115413Y0108800D01*
Y0111200D01*
X0115425Y0111086D01*
D02*
G37*
G36*
X0107587Y0108800D02*
X0107575Y0108914D01*
X0107538Y0109016D01*
X0107478Y0109106D01*
X0107393Y0109184D01*
X0107284Y0109250D01*
X0107151Y0109304D01*
X0106993Y0109346D01*
X0106811Y0109376D01*
X0106605Y0109394D01*
X0106375Y0109400D01*
Y0110600D01*
X0106605Y0110606D01*
X0106811Y0110624D01*
X0106993Y0110654D01*
X0107151Y0110696D01*
X0107284Y0110750D01*
X0107393Y0110816D01*
X0107478Y0110894D01*
X0107538Y0110984D01*
X0107575Y0111086D01*
X0107587Y0111200D01*
Y0108800D01*
D02*
G37*
G36*
X0117643Y0104286D02*
X0117592Y0104332D01*
X0117532Y0104372D01*
X0117463Y0104408D01*
X0117386Y0104440D01*
X0117300Y0104466D01*
X0117205Y0104488D01*
X0117102Y0104504D01*
X0116990Y0104516D01*
X0116741Y0104526D01*
Y0105726D01*
X0116870Y0105728D01*
X0117102Y0105748D01*
X0117205Y0105764D01*
X0117300Y0105786D01*
X0117386Y0105812D01*
X0117463Y0105844D01*
X0117532Y0105880D01*
X0117592Y0105920D01*
X0117643Y0105966D01*
Y0104286D01*
D02*
G37*
G36*
X0105408Y0105920D02*
X0105468Y0105880D01*
X0105537Y0105844D01*
X0105614Y0105812D01*
X0105700Y0105786D01*
X0105795Y0105764D01*
X0105898Y0105748D01*
X0106010Y0105736D01*
X0106259Y0105726D01*
Y0104526D01*
X0106130Y0104524D01*
X0105898Y0104504D01*
X0105795Y0104488D01*
X0105700Y0104466D01*
X0105614Y0104440D01*
X0105537Y0104408D01*
X0105468Y0104372D01*
X0105408Y0104332D01*
X0105357Y0104286D01*
Y0105966D01*
X0105408Y0105920D01*
D02*
G37*
G36*
X0115425Y0106212D02*
X0115462Y0106110D01*
X0115522Y0106020D01*
X0115607Y0105942D01*
X0115716Y0105876D01*
X0115849Y0105822D01*
X0116007Y0105780D01*
X0116189Y0105750D01*
X0116395Y0105732D01*
X0116625Y0105726D01*
Y0104526D01*
X0116395Y0104520D01*
X0116189Y0104502D01*
X0116007Y0104472D01*
X0115849Y0104430D01*
X0115716Y0104376D01*
X0115607Y0104310D01*
X0115522Y0104232D01*
X0115462Y0104142D01*
X0115425Y0104040D01*
X0115413Y0103926D01*
Y0106326D01*
X0115425Y0106212D01*
D02*
G37*
G36*
X0107587Y0103926D02*
X0107575Y0104040D01*
X0107538Y0104142D01*
X0107478Y0104232D01*
X0107393Y0104310D01*
X0107284Y0104376D01*
X0107151Y0104430D01*
X0106993Y0104472D01*
X0106811Y0104502D01*
X0106605Y0104520D01*
X0106375Y0104526D01*
Y0105726D01*
X0106605Y0105732D01*
X0106811Y0105750D01*
X0106993Y0105780D01*
X0107151Y0105822D01*
X0107284Y0105876D01*
X0107393Y0105942D01*
X0107478Y0106020D01*
X0107538Y0106110D01*
X0107575Y0106212D01*
X0107587Y0106326D01*
Y0103926D01*
D02*
G37*
G36*
X0117643Y0099660D02*
X0117592Y0099706D01*
X0117532Y0099746D01*
X0117463Y0099782D01*
X0117386Y0099814D01*
X0117300Y0099840D01*
X0117205Y0099862D01*
X0117102Y0099878D01*
X0116990Y0099890D01*
X0116741Y0099900D01*
Y0101100D01*
X0116870Y0101102D01*
X0117102Y0101122D01*
X0117205Y0101138D01*
X0117300Y0101160D01*
X0117386Y0101186D01*
X0117463Y0101218D01*
X0117532Y0101254D01*
X0117592Y0101294D01*
X0117643Y0101340D01*
Y0099660D01*
D02*
G37*
G36*
X0105408Y0101294D02*
X0105468Y0101254D01*
X0105537Y0101218D01*
X0105614Y0101186D01*
X0105700Y0101160D01*
X0105795Y0101138D01*
X0105898Y0101122D01*
X0106010Y0101110D01*
X0106259Y0101100D01*
Y0099900D01*
X0106130Y0099898D01*
X0105898Y0099878D01*
X0105795Y0099862D01*
X0105700Y0099840D01*
X0105614Y0099814D01*
X0105537Y0099782D01*
X0105468Y0099746D01*
X0105408Y0099706D01*
X0105357Y0099660D01*
Y0101340D01*
X0105408Y0101294D01*
D02*
G37*
G36*
X0115425Y0101586D02*
X0115462Y0101484D01*
X0115522Y0101394D01*
X0115607Y0101316D01*
X0115716Y0101250D01*
X0115849Y0101196D01*
X0116007Y0101154D01*
X0116189Y0101124D01*
X0116395Y0101106D01*
X0116625Y0101100D01*
Y0099900D01*
X0116395Y0099894D01*
X0116189Y0099876D01*
X0116007Y0099846D01*
X0115849Y0099804D01*
X0115716Y0099750D01*
X0115607Y0099684D01*
X0115522Y0099606D01*
X0115462Y0099516D01*
X0115425Y0099414D01*
X0115413Y0099300D01*
Y0101700D01*
X0115425Y0101586D01*
D02*
G37*
G36*
X0107587Y0099300D02*
X0107575Y0099414D01*
X0107538Y0099516D01*
X0107478Y0099606D01*
X0107393Y0099684D01*
X0107284Y0099750D01*
X0107151Y0099804D01*
X0106993Y0099846D01*
X0106811Y0099876D01*
X0106605Y0099894D01*
X0106375Y0099900D01*
Y0101100D01*
X0106605Y0101106D01*
X0106811Y0101124D01*
X0106993Y0101154D01*
X0107151Y0101196D01*
X0107284Y0101250D01*
X0107393Y0101316D01*
X0107478Y0101394D01*
X0107538Y0101484D01*
X0107575Y0101586D01*
X0107587Y0101700D01*
Y0099300D01*
D02*
G37*
G36*
X0112586Y0097055D02*
X0112484Y0097019D01*
X0112394Y0096959D01*
X0112316Y0096875D01*
X0112250Y0096767D01*
X0112196Y0096635D01*
X0112154Y0096479D01*
X0112124Y0096299D01*
X0112106Y0096095D01*
X0112100Y0095867D01*
X0110900D01*
X0110894Y0096095D01*
X0110876Y0096299D01*
X0110846Y0096479D01*
X0110804Y0096635D01*
X0110750Y0096767D01*
X0110684Y0096875D01*
X0110606Y0096959D01*
X0110516Y0097019D01*
X0110414Y0097055D01*
X0110300Y0097067D01*
X0112700D01*
X0112586Y0097055D01*
D02*
G37*
G36*
X0112102Y0095130D02*
X0112122Y0094898D01*
X0112138Y0094795D01*
X0112160Y0094700D01*
X0112186Y0094614D01*
X0112218Y0094537D01*
X0112254Y0094468D01*
X0112294Y0094408D01*
X0112340Y0094357D01*
X0110660D01*
X0110706Y0094408D01*
X0110746Y0094468D01*
X0110782Y0094537D01*
X0110814Y0094614D01*
X0110840Y0094700D01*
X0110862Y0094795D01*
X0110878Y0094898D01*
X0110890Y0095010D01*
X0110900Y0095259D01*
X0112100D01*
X0112102Y0095130D01*
D02*
G37*
%LPC*%
G36*
X0204201Y0103543D02*
X0203342Y0103372D01*
X0202615Y0102886D01*
X0202128Y0102158D01*
X0201958Y0101300D01*
X0202128Y0100442D01*
X0202565Y0099789D01*
X0202566Y0099778D01*
X0202569Y0099741D01*
Y0097969D01*
X0201429D01*
Y0092032D01*
X0206972D01*
Y0097969D01*
X0205832D01*
Y0099756D01*
X0205833Y0099766D01*
X0205837Y0099789D01*
X0206273Y0100442D01*
X0206444Y0101300D01*
X0206273Y0102158D01*
X0205787Y0102886D01*
X0205059Y0103372D01*
X0204201Y0103543D01*
D02*
G37*
G36*
X0204299Y0090043D02*
X0203441Y0089872D01*
X0202713Y0089386D01*
X0202227Y0088658D01*
X0202056Y0087800D01*
X0202227Y0086942D01*
X0202663Y0086289D01*
X0202665Y0086278D01*
X0202668Y0086241D01*
Y0084469D01*
X0201528D01*
Y0078531D01*
X0207071D01*
Y0084469D01*
X0205931D01*
Y0086256D01*
X0205932Y0086266D01*
X0205935Y0086289D01*
X0206372Y0086942D01*
X0206542Y0087800D01*
X0206372Y0088658D01*
X0205885Y0089386D01*
X0205158Y0089872D01*
X0204299Y0090043D01*
D02*
G37*
%LPD*%
G36*
X0204995Y0100392D02*
X0204954Y0100332D01*
X0204918Y0100263D01*
X0204887Y0100186D01*
X0204861Y0100100D01*
X0204839Y0100005D01*
X0204822Y0099902D01*
X0204810Y0099790D01*
X0204801Y0099541D01*
X0203601D01*
X0203598Y0099670D01*
X0203579Y0099902D01*
X0203562Y0100005D01*
X0203541Y0100100D01*
X0203514Y0100186D01*
X0203483Y0100263D01*
X0203447Y0100332D01*
X0203406Y0100392D01*
X0203361Y0100443D01*
X0205041D01*
X0204995Y0100392D01*
D02*
G37*
G36*
X0204807Y0097926D02*
X0204825Y0097720D01*
X0204855Y0097538D01*
X0204897Y0097381D01*
X0204951Y0097247D01*
X0205017Y0097138D01*
X0205095Y0097054D01*
X0205185Y0096993D01*
X0205287Y0096957D01*
X0205401Y0096944D01*
X0204845D01*
X0204908Y0095707D01*
X0203493D01*
X0203514Y0095747D01*
X0203532Y0095825D01*
X0203548Y0095940D01*
X0203574Y0096284D01*
X0203586Y0096944D01*
X0203001D01*
X0203115Y0096957D01*
X0203217Y0096993D01*
X0203307Y0097054D01*
X0203385Y0097138D01*
X0203451Y0097247D01*
X0203505Y0097381D01*
X0203547Y0097538D01*
X0203577Y0097720D01*
X0203595Y0097926D01*
X0203601Y0098156D01*
X0204801D01*
X0204807Y0097926D01*
D02*
G37*
G36*
X0205094Y0086892D02*
X0205053Y0086832D01*
X0205017Y0086763D01*
X0204986Y0086686D01*
X0204959Y0086600D01*
X0204938Y0086505D01*
X0204921Y0086402D01*
X0204909Y0086290D01*
X0204899Y0086041D01*
X0203699D01*
X0203697Y0086170D01*
X0203678Y0086402D01*
X0203661Y0086505D01*
X0203639Y0086600D01*
X0203613Y0086686D01*
X0203582Y0086763D01*
X0203546Y0086832D01*
X0203505Y0086892D01*
X0203459Y0086943D01*
X0205139D01*
X0205094Y0086892D01*
D02*
G37*
G36*
X0204905Y0084426D02*
X0204923Y0084220D01*
X0204953Y0084038D01*
X0204995Y0083881D01*
X0205049Y0083748D01*
X0205115Y0083638D01*
X0205193Y0083554D01*
X0205283Y0083493D01*
X0205385Y0083457D01*
X0205499Y0083444D01*
X0203099D01*
X0203213Y0083457D01*
X0203315Y0083493D01*
X0203405Y0083554D01*
X0203483Y0083638D01*
X0203549Y0083748D01*
X0203603Y0083881D01*
X0203645Y0084038D01*
X0203675Y0084220D01*
X0203693Y0084426D01*
X0203699Y0084657D01*
X0204899D01*
X0204905Y0084426D01*
D02*
G37*
%LPC*%
G36*
X0236772Y0067968D02*
X0231228D01*
Y0062032D01*
X0234024D01*
X0234063Y0062024D01*
X0234101Y0062032D01*
X0234400D01*
X0234451Y0061997D01*
X0234770Y0061726D01*
X0236150Y0060347D01*
X0236679Y0059993D01*
X0237303Y0059869D01*
X0258032D01*
Y0058728D01*
X0263968D01*
Y0059869D01*
X0267500D01*
X0268124Y0059993D01*
X0268653Y0060347D01*
X0269676Y0061369D01*
X0270555D01*
Y0060024D01*
X0283185D01*
Y0060497D01*
X0283572Y0060815D01*
X0283862Y0060757D01*
X0284721Y0060928D01*
X0285448Y0061414D01*
X0285934Y0062142D01*
X0286105Y0063000D01*
X0285934Y0063858D01*
X0285448Y0064586D01*
X0284721Y0065072D01*
X0283862Y0065243D01*
X0283572Y0065185D01*
X0283185Y0065503D01*
Y0065961D01*
X0270555D01*
Y0064631D01*
X0269000D01*
X0268376Y0064507D01*
X0267846Y0064153D01*
X0266824Y0063131D01*
X0263968D01*
Y0064272D01*
X0258032D01*
Y0063131D01*
X0237979D01*
X0237126Y0063984D01*
X0236940Y0064185D01*
X0236815Y0064341D01*
X0236772Y0064403D01*
Y0064702D01*
X0236779Y0064741D01*
X0236772Y0064779D01*
Y0067968D01*
D02*
G37*
G36*
X0283185Y0050213D02*
X0270555D01*
Y0048875D01*
X0238447D01*
X0237823Y0048751D01*
X0237294Y0048398D01*
X0234815Y0045919D01*
X0234615Y0045733D01*
X0234457Y0045606D01*
X0234403Y0045568D01*
X0231228D01*
Y0039632D01*
X0236772D01*
Y0043200D01*
X0236802Y0043243D01*
X0237073Y0043563D01*
X0239123Y0045613D01*
X0270555D01*
Y0044276D01*
X0283185D01*
Y0044643D01*
X0283647Y0044834D01*
X0284073Y0044409D01*
Y0038591D01*
X0283647Y0038166D01*
X0283185Y0038357D01*
Y0042339D01*
X0270555D01*
Y0041001D01*
X0242073D01*
X0241449Y0040877D01*
X0240920Y0040524D01*
X0234815Y0034419D01*
X0234615Y0034233D01*
X0234457Y0034106D01*
X0234403Y0034069D01*
X0231228D01*
Y0028131D01*
X0232369D01*
Y0015834D01*
X0231869Y0015443D01*
X0231000Y0015529D01*
X0229824Y0015413D01*
X0228693Y0015070D01*
X0227650Y0014513D01*
X0226737Y0013763D01*
X0225987Y0012849D01*
X0225430Y0011807D01*
X0225087Y0010676D01*
X0224971Y0009500D01*
X0225087Y0008324D01*
X0225430Y0007193D01*
X0225987Y0006151D01*
X0226737Y0005237D01*
X0227650Y0004487D01*
X0228693Y0003930D01*
X0229824Y0003587D01*
X0231000Y0003471D01*
X0232176Y0003587D01*
X0233307Y0003930D01*
X0234349Y0004487D01*
X0235263Y0005237D01*
X0236013Y0006151D01*
X0236570Y0007193D01*
X0236913Y0008324D01*
X0237029Y0009500D01*
X0236913Y0010676D01*
X0236570Y0011807D01*
X0236013Y0012849D01*
X0235331Y0013681D01*
X0235507Y0013944D01*
X0235631Y0014569D01*
Y0028131D01*
X0236772D01*
Y0031700D01*
X0236802Y0031743D01*
X0237073Y0032063D01*
X0242749Y0037739D01*
X0270555D01*
Y0036402D01*
X0281230D01*
X0281421Y0035940D01*
X0271033Y0025551D01*
X0266791D01*
X0266791Y0025551D01*
X0266244Y0025443D01*
X0265781Y0025133D01*
X0265781Y0025133D01*
X0256789Y0016141D01*
X0256729Y0016093D01*
X0256569Y0016004D01*
X0256314Y0015903D01*
X0255969Y0015804D01*
X0255538Y0015715D01*
X0255046Y0015643D01*
X0253020Y0015521D01*
X0252264Y0015519D01*
X0252167Y0015529D01*
X0250991Y0015413D01*
X0249859Y0015070D01*
X0248817Y0014513D01*
X0247903Y0013763D01*
X0247154Y0012849D01*
X0246597Y0011807D01*
X0246253Y0010676D01*
X0246138Y0009500D01*
X0246253Y0008324D01*
X0246597Y0007193D01*
X0247154Y0006151D01*
X0247903Y0005237D01*
X0248817Y0004487D01*
X0249859Y0003930D01*
X0250991Y0003587D01*
X0252167Y0003471D01*
X0253343Y0003587D01*
X0254474Y0003930D01*
X0255516Y0004487D01*
X0256430Y0005237D01*
X0257180Y0006151D01*
X0257737Y0007193D01*
X0258080Y0008324D01*
X0258196Y0009500D01*
X0258187Y0009591D01*
X0258209Y0011104D01*
X0258308Y0012370D01*
X0258381Y0012871D01*
X0258471Y0013302D01*
X0258570Y0013647D01*
X0258670Y0013902D01*
X0258759Y0014063D01*
X0258808Y0014122D01*
X0267382Y0022696D01*
X0271624D01*
X0271624Y0022696D01*
X0272170Y0022805D01*
X0272633Y0023114D01*
X0286509Y0036991D01*
X0286819Y0037454D01*
X0286927Y0038000D01*
X0286927Y0038000D01*
Y0045000D01*
X0286819Y0045546D01*
X0286509Y0046009D01*
X0286509Y0046009D01*
X0284265Y0048253D01*
X0283802Y0048563D01*
X0283256Y0048671D01*
X0283185Y0049157D01*
Y0050213D01*
D02*
G37*
%LPD*%
G36*
X0235692Y0064647D02*
X0235658Y0064537D01*
Y0064410D01*
X0235692Y0064265D01*
X0235760Y0064104D01*
X0235861Y0063926D01*
X0235997Y0063731D01*
X0236167Y0063519D01*
X0236608Y0063043D01*
X0235760Y0062195D01*
X0235514Y0062433D01*
X0235072Y0062806D01*
X0234877Y0062942D01*
X0234699Y0063043D01*
X0234538Y0063111D01*
X0234394Y0063145D01*
X0234266D01*
X0234156Y0063111D01*
X0234063Y0063043D01*
X0235760Y0064741D01*
X0235692Y0064647D01*
D02*
G37*
G36*
X0282185Y0064086D02*
X0282221Y0063984D01*
X0282281Y0063894D01*
X0282365Y0063816D01*
X0282473Y0063750D01*
X0282605Y0063696D01*
X0282698Y0063671D01*
X0282748Y0063686D01*
X0282825Y0063718D01*
X0282894Y0063754D01*
X0282954Y0063794D01*
X0283005Y0063840D01*
Y0063618D01*
X0283145Y0063606D01*
X0283373Y0063600D01*
Y0062400D01*
X0283145Y0062394D01*
X0283005Y0062382D01*
Y0062160D01*
X0282954Y0062206D01*
X0282894Y0062246D01*
X0282825Y0062282D01*
X0282748Y0062314D01*
X0282698Y0062329D01*
X0282605Y0062304D01*
X0282473Y0062250D01*
X0282365Y0062184D01*
X0282281Y0062106D01*
X0282221Y0062016D01*
X0282185Y0061914D01*
X0282173Y0061800D01*
Y0062397D01*
X0282103Y0062400D01*
Y0063600D01*
X0282173Y0063601D01*
Y0064200D01*
X0282185Y0064086D01*
D02*
G37*
G36*
X0271579Y0061800D02*
X0271567Y0061914D01*
X0271531Y0062016D01*
X0271470Y0062106D01*
X0271385Y0062184D01*
X0271276Y0062250D01*
X0271143Y0062304D01*
X0270985Y0062346D01*
X0270803Y0062376D01*
X0270597Y0062394D01*
X0270367Y0062400D01*
Y0063600D01*
X0270597Y0063606D01*
X0270803Y0063624D01*
X0270985Y0063654D01*
X0271143Y0063696D01*
X0271276Y0063750D01*
X0271385Y0063816D01*
X0271470Y0063894D01*
X0271531Y0063984D01*
X0271567Y0064086D01*
X0271579Y0064200D01*
Y0061800D01*
D02*
G37*
G36*
X0262957Y0062586D02*
X0262993Y0062484D01*
X0263054Y0062394D01*
X0263138Y0062316D01*
X0263247Y0062250D01*
X0263381Y0062196D01*
X0263538Y0062154D01*
X0263720Y0062124D01*
X0263926Y0062106D01*
X0264157Y0062100D01*
Y0060900D01*
X0263926Y0060894D01*
X0263720Y0060876D01*
X0263538Y0060846D01*
X0263381Y0060804D01*
X0263247Y0060750D01*
X0263138Y0060684D01*
X0263054Y0060606D01*
X0262993Y0060516D01*
X0262957Y0060414D01*
X0262945Y0060300D01*
Y0062700D01*
X0262957Y0062586D01*
D02*
G37*
G36*
X0259055Y0060300D02*
X0259043Y0060414D01*
X0259007Y0060516D01*
X0258946Y0060606D01*
X0258862Y0060684D01*
X0258752Y0060750D01*
X0258619Y0060804D01*
X0258462Y0060846D01*
X0258280Y0060876D01*
X0258074Y0060894D01*
X0257843Y0060900D01*
Y0062100D01*
X0258074Y0062106D01*
X0258280Y0062124D01*
X0258462Y0062154D01*
X0258619Y0062196D01*
X0258752Y0062250D01*
X0258862Y0062316D01*
X0258946Y0062394D01*
X0259007Y0062484D01*
X0259043Y0062586D01*
X0259055Y0062700D01*
Y0060300D01*
D02*
G37*
G36*
X0277311Y0047664D02*
X0277351Y0047660D01*
X0277502Y0047653D01*
X0278517Y0047644D01*
Y0046844D01*
X0277294Y0046820D01*
Y0047669D01*
X0277311Y0047664D01*
D02*
G37*
G36*
X0282181Y0047968D02*
X0282205Y0047900D01*
X0282245Y0047840D01*
X0282301Y0047788D01*
X0282373Y0047744D01*
X0282461Y0047708D01*
X0282565Y0047680D01*
X0282685Y0047660D01*
X0282821Y0047648D01*
X0282973Y0047644D01*
Y0046844D01*
X0282821Y0046840D01*
X0282685Y0046828D01*
X0282565Y0046808D01*
X0282461Y0046780D01*
X0282373Y0046744D01*
X0282301Y0046700D01*
X0282245Y0046648D01*
X0282205Y0046588D01*
X0282181Y0046520D01*
X0282173Y0046444D01*
Y0048044D01*
X0282181Y0047968D01*
D02*
G37*
G36*
X0271579Y0046044D02*
X0271567Y0046158D01*
X0271531Y0046260D01*
X0271470Y0046350D01*
X0271385Y0046428D01*
X0271276Y0046494D01*
X0271143Y0046548D01*
X0270985Y0046590D01*
X0270803Y0046620D01*
X0270597Y0046638D01*
X0270367Y0046644D01*
Y0047844D01*
X0270597Y0047850D01*
X0270803Y0047868D01*
X0270985Y0047898D01*
X0271143Y0047940D01*
X0271276Y0047994D01*
X0271385Y0048060D01*
X0271470Y0048138D01*
X0271531Y0048228D01*
X0271567Y0048330D01*
X0271579Y0048444D01*
Y0046044D01*
D02*
G37*
G36*
X0236608Y0044556D02*
X0236369Y0044309D01*
X0235994Y0043867D01*
X0235857Y0043671D01*
X0235754Y0043493D01*
X0235685Y0043332D01*
X0235649Y0043188D01*
X0235648Y0043061D01*
X0235681Y0042952D01*
X0235748Y0042859D01*
X0234063Y0044545D01*
X0234155Y0044478D01*
X0234264Y0044445D01*
X0234391Y0044446D01*
X0234535Y0044481D01*
X0234696Y0044550D01*
X0234874Y0044653D01*
X0235070Y0044791D01*
X0235282Y0044961D01*
X0235760Y0045405D01*
X0236608Y0044556D01*
D02*
G37*
G36*
X0271579Y0038170D02*
X0271567Y0038284D01*
X0271531Y0038386D01*
X0271470Y0038476D01*
X0271385Y0038554D01*
X0271276Y0038620D01*
X0271143Y0038674D01*
X0270985Y0038716D01*
X0270803Y0038746D01*
X0270597Y0038764D01*
X0270367Y0038770D01*
Y0039970D01*
X0270597Y0039976D01*
X0270803Y0039994D01*
X0270985Y0040024D01*
X0271143Y0040066D01*
X0271276Y0040120D01*
X0271385Y0040186D01*
X0271470Y0040264D01*
X0271531Y0040354D01*
X0271567Y0040456D01*
X0271579Y0040570D01*
Y0038170D01*
D02*
G37*
G36*
X0236608Y0033057D02*
X0236369Y0032809D01*
X0235994Y0032367D01*
X0235857Y0032171D01*
X0235754Y0031993D01*
X0235685Y0031832D01*
X0235649Y0031688D01*
X0235648Y0031561D01*
X0235681Y0031452D01*
X0235748Y0031359D01*
X0234063Y0033044D01*
X0234155Y0032978D01*
X0234264Y0032945D01*
X0234391Y0032946D01*
X0234535Y0032981D01*
X0234696Y0033051D01*
X0234874Y0033154D01*
X0235070Y0033290D01*
X0235282Y0033461D01*
X0235760Y0033905D01*
X0236608Y0033057D01*
D02*
G37*
G36*
X0235086Y0029143D02*
X0234984Y0029107D01*
X0234894Y0029046D01*
X0234816Y0028962D01*
X0234750Y0028852D01*
X0234696Y0028719D01*
X0234654Y0028562D01*
X0234624Y0028380D01*
X0234606Y0028174D01*
X0234600Y0027944D01*
X0233400D01*
X0233394Y0028174D01*
X0233376Y0028380D01*
X0233346Y0028562D01*
X0233304Y0028719D01*
X0233250Y0028852D01*
X0233184Y0028962D01*
X0233106Y0029046D01*
X0233016Y0029107D01*
X0232914Y0029143D01*
X0232800Y0029155D01*
X0235200D01*
X0235086Y0029143D01*
D02*
G37*
G36*
X0234424Y0014144D02*
X0234326Y0014040D01*
X0234245Y0013939D01*
X0234183Y0013844D01*
X0234138Y0013753D01*
X0234111Y0013667D01*
X0234102Y0013585D01*
X0234110Y0013508D01*
X0234137Y0013436D01*
X0234181Y0013368D01*
X0234243Y0013305D01*
X0232339Y0014317D01*
X0232431Y0014302D01*
X0232529Y0014305D01*
X0232635Y0014327D01*
X0232748Y0014367D01*
X0232868Y0014425D01*
X0232995Y0014502D01*
X0233130Y0014597D01*
X0233271Y0014711D01*
X0233576Y0014993D01*
X0234424Y0014144D01*
D02*
G37*
G36*
X0258095Y0014863D02*
X0257911Y0014635D01*
X0257747Y0014339D01*
X0257603Y0013976D01*
X0257480Y0013546D01*
X0257377Y0013048D01*
X0257294Y0012483D01*
X0257190Y0011152D01*
X0257166Y0009550D01*
X0252217Y0014500D01*
X0253051Y0014501D01*
X0255150Y0014627D01*
X0255715Y0014710D01*
X0256213Y0014813D01*
X0256643Y0014936D01*
X0257006Y0015080D01*
X0257301Y0015244D01*
X0257529Y0015428D01*
X0258095Y0014863D01*
D02*
G37*
%LPC*%
G36*
X0169362Y0012362D02*
X0162638D01*
Y0010631D01*
X0160544D01*
X0160534Y0010632D01*
X0160511Y0010636D01*
X0159858Y0011072D01*
X0159000Y0011243D01*
X0158142Y0011072D01*
X0157414Y0010586D01*
X0156928Y0009858D01*
X0156757Y0009000D01*
X0156928Y0008142D01*
X0157414Y0007414D01*
X0158142Y0006928D01*
X0159000Y0006757D01*
X0159858Y0006928D01*
X0160511Y0007364D01*
X0160522Y0007366D01*
X0160559Y0007369D01*
X0162638D01*
Y0005638D01*
X0169362D01*
Y0012362D01*
D02*
G37*
G36*
X0216469Y0020622D02*
X0210531D01*
Y0015079D01*
X0211869D01*
Y0012394D01*
X0211868Y0012385D01*
X0211864Y0012362D01*
X0211428Y0011709D01*
X0211257Y0010850D01*
X0211428Y0009992D01*
X0211914Y0009264D01*
X0212642Y0008778D01*
X0213500Y0008607D01*
X0214358Y0008778D01*
X0215086Y0009264D01*
X0215572Y0009992D01*
X0215743Y0010850D01*
X0215572Y0011709D01*
X0215136Y0012362D01*
X0215134Y0012372D01*
X0215131Y0012409D01*
Y0015079D01*
X0216469D01*
Y0020622D01*
D02*
G37*
G36*
X0177630Y0012362D02*
X0170905D01*
Y0005638D01*
X0177630D01*
Y0007369D01*
X0188228D01*
Y0006032D01*
X0193772D01*
Y0011969D01*
X0188228D01*
Y0010631D01*
X0177630D01*
Y0012362D01*
D02*
G37*
%LPD*%
G36*
X0159908Y0009794D02*
X0159968Y0009754D01*
X0160037Y0009718D01*
X0160114Y0009686D01*
X0160200Y0009660D01*
X0160295Y0009638D01*
X0160398Y0009622D01*
X0160510Y0009610D01*
X0160759Y0009600D01*
Y0008400D01*
X0160630Y0008398D01*
X0160398Y0008378D01*
X0160295Y0008362D01*
X0160200Y0008340D01*
X0160114Y0008314D01*
X0160037Y0008282D01*
X0159968Y0008246D01*
X0159908Y0008206D01*
X0159857Y0008160D01*
Y0009840D01*
X0159908Y0009794D01*
D02*
G37*
G36*
X0163662Y0007800D02*
X0163650Y0007914D01*
X0163613Y0008016D01*
X0163553Y0008106D01*
X0163468Y0008184D01*
X0163359Y0008250D01*
X0163225Y0008304D01*
X0163068Y0008346D01*
X0162886Y0008376D01*
X0162680Y0008394D01*
X0162450Y0008400D01*
Y0009600D01*
X0162680Y0009606D01*
X0162886Y0009624D01*
X0163068Y0009654D01*
X0163225Y0009696D01*
X0163359Y0009750D01*
X0163468Y0009816D01*
X0163553Y0009894D01*
X0163613Y0009984D01*
X0163650Y0010086D01*
X0163662Y0010200D01*
Y0007800D01*
D02*
G37*
G36*
X0214586Y0016091D02*
X0214484Y0016054D01*
X0214394Y0015994D01*
X0214316Y0015909D01*
X0214250Y0015800D01*
X0214196Y0015666D01*
X0214154Y0015509D01*
X0214124Y0015327D01*
X0214106Y0015121D01*
X0214100Y0014891D01*
X0212900D01*
X0212894Y0015121D01*
X0212876Y0015327D01*
X0212846Y0015509D01*
X0212804Y0015666D01*
X0212750Y0015800D01*
X0212684Y0015909D01*
X0212606Y0015994D01*
X0212516Y0016054D01*
X0212414Y0016091D01*
X0212300Y0016103D01*
X0214700D01*
X0214586Y0016091D01*
D02*
G37*
G36*
X0214102Y0012481D02*
X0214122Y0012248D01*
X0214138Y0012145D01*
X0214160Y0012051D01*
X0214186Y0011965D01*
X0214218Y0011887D01*
X0214254Y0011819D01*
X0214294Y0011759D01*
X0214340Y0011707D01*
X0212660D01*
X0212706Y0011759D01*
X0212746Y0011819D01*
X0212782Y0011887D01*
X0212814Y0011965D01*
X0212840Y0012051D01*
X0212862Y0012145D01*
X0212878Y0012248D01*
X0212890Y0012360D01*
X0212900Y0012610D01*
X0214100D01*
X0214102Y0012481D01*
D02*
G37*
G36*
X0189252Y0007800D02*
X0189240Y0007914D01*
X0189204Y0008016D01*
X0189143Y0008106D01*
X0189058Y0008184D01*
X0188949Y0008250D01*
X0188816Y0008304D01*
X0188658Y0008346D01*
X0188477Y0008376D01*
X0188271Y0008394D01*
X0188040Y0008400D01*
Y0009600D01*
X0188271Y0009606D01*
X0188477Y0009624D01*
X0188658Y0009654D01*
X0188816Y0009696D01*
X0188949Y0009750D01*
X0189058Y0009816D01*
X0189143Y0009894D01*
X0189204Y0009984D01*
X0189240Y0010086D01*
X0189252Y0010200D01*
Y0007800D01*
D02*
G37*
G36*
X0176618Y0010086D02*
X0176654Y0009984D01*
X0176715Y0009894D01*
X0176800Y0009816D01*
X0176909Y0009750D01*
X0177042Y0009696D01*
X0177200Y0009654D01*
X0177382Y0009624D01*
X0177588Y0009606D01*
X0177818Y0009600D01*
Y0008400D01*
X0177588Y0008394D01*
X0177382Y0008376D01*
X0177200Y0008346D01*
X0177042Y0008304D01*
X0176909Y0008250D01*
X0176800Y0008184D01*
X0176715Y0008106D01*
X0176654Y0008016D01*
X0176618Y0007914D01*
X0176606Y0007800D01*
Y0010200D01*
X0176618Y0010086D01*
D02*
G37*
%LPC*%
G36*
X0058200Y0055609D02*
X0052263D01*
Y0054631D01*
X0051544D01*
X0051534Y0054632D01*
X0051511Y0054636D01*
X0050858Y0055072D01*
X0050000Y0055243D01*
X0049142Y0055072D01*
X0048414Y0054586D01*
X0047928Y0053858D01*
X0047757Y0053000D01*
X0047928Y0052142D01*
X0048414Y0051414D01*
X0049142Y0050928D01*
X0050000Y0050757D01*
X0050858Y0050928D01*
X0051511Y0051364D01*
X0051522Y0051366D01*
X0051559Y0051369D01*
X0052263D01*
Y0050065D01*
X0058200D01*
Y0055609D01*
D02*
G37*
%LPD*%
G36*
X0050908Y0053794D02*
X0050968Y0053754D01*
X0051037Y0053718D01*
X0051114Y0053686D01*
X0051200Y0053660D01*
X0051295Y0053638D01*
X0051398Y0053622D01*
X0051510Y0053610D01*
X0051759Y0053600D01*
Y0052400D01*
X0051630Y0052398D01*
X0051398Y0052378D01*
X0051295Y0052362D01*
X0051200Y0052340D01*
X0051114Y0052314D01*
X0051037Y0052282D01*
X0050968Y0052246D01*
X0050908Y0052206D01*
X0050857Y0052160D01*
Y0053840D01*
X0050908Y0053794D01*
D02*
G37*
G36*
X0053287Y0051800D02*
X0053275Y0051914D01*
X0053239Y0052016D01*
X0053178Y0052106D01*
X0053093Y0052184D01*
X0052984Y0052250D01*
X0052851Y0052304D01*
X0052694Y0052346D01*
X0052512Y0052376D01*
X0052306Y0052394D01*
X0052075Y0052400D01*
Y0053600D01*
X0052306Y0053606D01*
X0052512Y0053624D01*
X0052694Y0053654D01*
X0052851Y0053696D01*
X0052984Y0053750D01*
X0053093Y0053816D01*
X0053178Y0053894D01*
X0053239Y0053984D01*
X0053275Y0054086D01*
X0053287Y0054200D01*
Y0051800D01*
D02*
G37*
D16*
X0213500Y0024150D02*
D03*
Y0017850D02*
D03*
X0261000Y0061500D02*
D03*
Y0055201D02*
D03*
X0101500Y0044650D02*
D03*
Y0038350D02*
D03*
X0055232Y0046538D02*
D03*
Y0052837D02*
D03*
X0055000Y0038650D02*
D03*
Y0032350D02*
D03*
D17*
X0210500Y0095000D02*
D03*
X0204201D02*
D03*
X0204299Y0081500D02*
D03*
X0198000D02*
D03*
X0227701Y0053700D02*
D03*
X0234000D02*
D03*
X0197299Y0009000D02*
D03*
X0191000D02*
D03*
X0234000Y0065000D02*
D03*
X0227701D02*
D03*
Y0042600D02*
D03*
X0234000D02*
D03*
X0227701Y0076300D02*
D03*
X0234000D02*
D03*
X0227701Y0087600D02*
D03*
X0234000D02*
D03*
X0227701Y0031100D02*
D03*
X0234000D02*
D03*
D18*
X0186500Y0081279D02*
D03*
Y0072500D02*
D03*
D19*
X0197000Y0060500D02*
D03*
X0186500D02*
D03*
D20*
X0067378Y0058000D02*
D03*
Y0053000D02*
D03*
Y0048000D02*
D03*
Y0043000D02*
D03*
Y0038000D02*
D03*
Y0033000D02*
D03*
Y0028000D02*
D03*
Y0023000D02*
D03*
X0089622Y0058000D02*
D03*
Y0053000D02*
D03*
Y0048000D02*
D03*
Y0043000D02*
D03*
Y0038000D02*
D03*
Y0033000D02*
D03*
Y0028000D02*
D03*
Y0023000D02*
D03*
D21*
X0174268Y0009000D02*
D03*
X0166000D02*
D03*
D22*
X0148315Y0060240D02*
D03*
X0166622D02*
D03*
D23*
X0157468Y0085437D02*
D03*
D24*
X0276870Y0039370D02*
D03*
Y0047244D02*
D03*
Y0055118D02*
D03*
Y0078740D02*
D03*
Y0070866D02*
D03*
Y0062992D02*
D03*
D25*
X0293996Y0087992D02*
D03*
Y0030118D02*
D03*
D26*
X0065000Y0107312D02*
D03*
Y0092688D02*
D03*
D27*
X0111500Y0070874D02*
D03*
Y0105126D02*
D03*
D44*
X0089622Y0058000D02*
Y0067243D01*
X0204201Y0095000D02*
Y0101300D01*
X0217150Y0024150D02*
X0220701Y0027701D01*
Y0031100D01*
X0213500Y0024150D02*
X0217150D01*
X0212069Y0093432D02*
X0217900Y0087600D01*
X0220701D01*
X0227701D01*
X0213500Y0010850D02*
Y0017850D01*
X0050000Y0053000D02*
X0055069D01*
X0055116Y0052953D01*
X0049500Y0032500D02*
X0054850D01*
X0055000Y0032350D01*
X0220701Y0065000D02*
X0227701D01*
X0232727Y0088873D02*
X0234000Y0087600D01*
X0233902Y0087502D02*
X0242663Y0078740D01*
X0228000Y0093600D02*
Y0100500D01*
Y0093600D02*
X0232727Y0088873D01*
X0299000Y0081000D02*
Y0093500D01*
X0289000Y0081000D02*
Y0093500D01*
X0299000Y0025000D02*
Y0037000D01*
X0289000Y0025000D02*
Y0037000D01*
X0104500Y0110000D02*
X0118500D01*
X0111500Y0100500D02*
X0118500D01*
X0104500D02*
X0111500D01*
X0066000Y0107500D02*
X0073000D01*
X0293996Y0087992D02*
Y0093492D01*
X0055116Y0052953D02*
X0055232Y0052837D01*
X0055000Y0053069D02*
X0055116Y0052953D01*
X0276862Y0063000D02*
X0283862D01*
X0204299Y0081500D02*
Y0087800D01*
X0234000Y0058692D02*
X0234200Y0058892D01*
X0234000Y0053700D02*
X0234200Y0053900D01*
X0234000Y0053700D02*
Y0058692D01*
X0174268Y0009000D02*
X0191000D01*
X0159000D02*
X0166000D01*
X0238447Y0047244D02*
X0276870D01*
X0065000Y0107312D02*
Y0113312D01*
X0293996Y0025118D02*
Y0030118D01*
Y0037118D01*
Y0080992D02*
Y0087992D01*
X0280217Y0070866D02*
X0284500Y0075150D01*
X0273333Y0096610D02*
X0284500Y0085443D01*
Y0075150D02*
Y0085443D01*
X0276870Y0070866D02*
X0280217D01*
X0239237D02*
X0276870D01*
X0273333Y0096610D02*
Y0109500D01*
X0067378Y0048000D02*
X0074378D01*
X0220701Y0076300D02*
X0227701D01*
X0089622Y0043000D02*
X0096622D01*
X0089622Y0048000D02*
X0096622D01*
X0067378Y0058000D02*
Y0063500D01*
X0220701Y0031100D02*
X0227701D01*
X0220701Y0042600D02*
X0227701D01*
X0060378Y0033000D02*
X0067378D01*
X0089622D02*
X0096622D01*
X0267000Y0055000D02*
X0276752D01*
X0276870Y0055118D01*
X0254000Y0055201D02*
X0261000D01*
X0066000Y0104000D02*
X0073000D01*
X0066000Y0110500D02*
X0073000D01*
X0111500Y0093500D02*
Y0100500D01*
X0104500Y0105126D02*
X0111500D01*
X0118500D01*
X0089622Y0018500D02*
Y0023000D01*
X0060378D02*
X0067378D01*
X0231000Y0009500D02*
Y0011569D01*
X0234000Y0014569D02*
Y0031297D01*
X0231000Y0011569D02*
X0234000Y0014569D01*
X0242073Y0039370D02*
X0276870D01*
X0234000Y0031297D02*
X0242073Y0039370D01*
X0234000Y0042797D02*
X0238447Y0047244D01*
X0234000Y0042600D02*
Y0042797D01*
X0227701Y0053700D02*
Y0065000D01*
X0261000Y0061500D02*
X0267500D01*
X0276862Y0063000D02*
X0276870Y0062992D01*
X0267500Y0061500D02*
X0269000Y0063000D01*
X0276862D01*
X0237303Y0061500D02*
X0261000D01*
X0234000Y0064803D02*
X0237303Y0061500D01*
X0234000Y0064803D02*
Y0065000D01*
Y0076103D02*
X0239237Y0070866D01*
X0234000Y0076103D02*
Y0076300D01*
X0242663Y0078740D02*
X0276870D01*
D45*
X0210500Y0094803D02*
X0211872Y0093432D01*
X0210500Y0094803D02*
Y0095000D01*
X0211872Y0093432D02*
X0212069D01*
X0285500Y0038000D02*
Y0045000D01*
X0266791Y0024124D02*
X0271624D01*
X0285500Y0038000D01*
X0283256Y0047244D02*
X0285500Y0045000D01*
X0276870Y0047244D02*
X0283256D01*
X0252167Y0009500D02*
X0266791Y0024124D01*
D46*
X0204201Y0095000D02*
X0204250Y0094951D01*
Y0087849D02*
X0204299Y0087800D01*
X0101500Y0044650D02*
Y0050000D01*
D47*
X0043229Y0107312D02*
X0065000D01*
X0022500Y0086583D02*
X0043229Y0107312D01*
D48*
X0294500Y0109500D02*
D03*
X0273333Y0009500D02*
D03*
X0252167D02*
D03*
X0231000D02*
D03*
X0090000D02*
D03*
X0059500Y0075000D02*
D03*
X0073000Y0009500D02*
D03*
X0252167Y0109500D02*
D03*
X0273333D02*
D03*
X0228000Y0100500D02*
D03*
X0126500Y0009500D02*
D03*
D49*
X0022500Y0086583D02*
D03*
Y0066898D02*
D03*
Y0027528D02*
D03*
Y0047213D02*
D03*
D50*
X0089622Y0067243D02*
D03*
X0311250Y0105000D02*
D03*
X0307500Y0097500D02*
D03*
X0311250Y0090000D02*
D03*
X0307500Y0082500D02*
D03*
X0311250Y0075000D02*
D03*
X0307500Y0067500D02*
D03*
X0311250Y0060000D02*
D03*
X0307500Y0052500D02*
D03*
X0311250Y0045000D02*
D03*
X0307500Y0037500D02*
D03*
X0311250Y0030000D02*
D03*
Y0015000D02*
D03*
X0307500Y0007500D02*
D03*
X0303750Y0105000D02*
D03*
Y0090000D02*
D03*
Y0075000D02*
D03*
X0300000Y0067500D02*
D03*
X0303750Y0060000D02*
D03*
X0300000Y0052500D02*
D03*
X0303750Y0045000D02*
D03*
Y0030000D02*
D03*
Y0015000D02*
D03*
X0300000Y0007500D02*
D03*
X0296250Y0075000D02*
D03*
X0292500Y0067500D02*
D03*
X0296250Y0060000D02*
D03*
X0292500Y0052500D02*
D03*
X0296250Y0045000D02*
D03*
X0292500Y0022500D02*
D03*
X0296250Y0015000D02*
D03*
X0292500Y0007500D02*
D03*
X0288750Y0105000D02*
D03*
X0285000Y0097500D02*
D03*
X0288750Y0075000D02*
D03*
X0285000Y0067500D02*
D03*
X0288750Y0060000D02*
D03*
X0285000Y0052500D02*
D03*
X0288750Y0045000D02*
D03*
X0285000Y0022500D02*
D03*
X0288750Y0015000D02*
D03*
X0285000Y0007500D02*
D03*
X0281250Y0105000D02*
D03*
Y0030000D02*
D03*
Y0015000D02*
D03*
X0273750Y0030000D02*
D03*
X0266250Y0105000D02*
D03*
X0262500Y0097500D02*
D03*
X0266250Y0075000D02*
D03*
Y0030000D02*
D03*
Y0015000D02*
D03*
X0262500Y0007500D02*
D03*
X0258750Y0105000D02*
D03*
X0255000Y0067500D02*
D03*
X0258750Y0030000D02*
D03*
X0247500Y0097500D02*
D03*
Y0067500D02*
D03*
Y0052500D02*
D03*
X0251250Y0030000D02*
D03*
X0243750Y0105000D02*
D03*
X0240000Y0022500D02*
D03*
X0243750Y0015000D02*
D03*
X0240000Y0007500D02*
D03*
X0236250Y0105000D02*
D03*
X0232500Y0037500D02*
D03*
X0225000Y0022500D02*
D03*
X0217500Y0052500D02*
D03*
Y0037500D02*
D03*
Y0007500D02*
D03*
X0210000Y0067500D02*
D03*
Y0052500D02*
D03*
X0213750Y0045000D02*
D03*
X0210000Y0037500D02*
D03*
X0213750Y0030000D02*
D03*
X0210000Y0007500D02*
D03*
X0202500Y0067500D02*
D03*
Y0052500D02*
D03*
Y0022500D02*
D03*
X0206250Y0015000D02*
D03*
X0202500Y0007500D02*
D03*
X0198750Y0045000D02*
D03*
X0195000Y0022500D02*
D03*
X0198750Y0015000D02*
D03*
X0191250Y0060000D02*
D03*
Y0045000D02*
D03*
X0187500Y0022500D02*
D03*
X0180000Y0037500D02*
D03*
X0183750Y0030000D02*
D03*
X0180000Y0022500D02*
D03*
X0183750Y0015000D02*
D03*
X0176250Y0045000D02*
D03*
X0172500Y0037500D02*
D03*
X0176250Y0030000D02*
D03*
X0172500Y0022500D02*
D03*
X0176250Y0015000D02*
D03*
X0168750Y0045000D02*
D03*
X0165000Y0037500D02*
D03*
X0168750Y0030000D02*
D03*
X0165000Y0022500D02*
D03*
X0161250Y0045000D02*
D03*
X0157500Y0037500D02*
D03*
X0161250Y0030000D02*
D03*
X0157500Y0022500D02*
D03*
X0161250Y0015000D02*
D03*
X0153750Y0045000D02*
D03*
X0150000Y0037500D02*
D03*
X0153750Y0030000D02*
D03*
X0150000Y0022500D02*
D03*
X0153750Y0015000D02*
D03*
X0150000Y0007500D02*
D03*
X0146250Y0045000D02*
D03*
X0142500Y0037500D02*
D03*
X0146250Y0030000D02*
D03*
X0142500Y0022500D02*
D03*
X0146250Y0015000D02*
D03*
X0142500Y0007500D02*
D03*
X0138750Y0045000D02*
D03*
X0135000Y0037500D02*
D03*
X0138750Y0030000D02*
D03*
X0135000Y0022500D02*
D03*
X0138750Y0015000D02*
D03*
X0131250Y0045000D02*
D03*
X0127500Y0037500D02*
D03*
X0131250Y0030000D02*
D03*
X0127500Y0022500D02*
D03*
X0131250Y0015000D02*
D03*
X0123750Y0045000D02*
D03*
X0120000Y0037500D02*
D03*
X0123750Y0030000D02*
D03*
X0120000Y0022500D02*
D03*
Y0007500D02*
D03*
X0116250Y0045000D02*
D03*
X0112500Y0037500D02*
D03*
X0116250Y0030000D02*
D03*
X0112500Y0022500D02*
D03*
X0116250Y0015000D02*
D03*
X0112500Y0007500D02*
D03*
X0108750Y0030000D02*
D03*
X0105000Y0022500D02*
D03*
X0108750Y0015000D02*
D03*
X0097500Y0022500D02*
D03*
X0101250Y0015000D02*
D03*
X0082500Y0037500D02*
D03*
X0078750Y0045000D02*
D03*
X0075000Y0037500D02*
D03*
X0060000Y0052500D02*
D03*
Y0037500D02*
D03*
X0048750Y0045000D02*
D03*
X0045000Y0037500D02*
D03*
Y0022500D02*
D03*
X0037500Y0037500D02*
D03*
X0204201Y0101300D02*
D03*
X0213500Y0010850D02*
D03*
X0101500Y0050000D02*
D03*
X0050000Y0053000D02*
D03*
X0049500Y0032500D02*
D03*
X0220701Y0065000D02*
D03*
X0204299Y0087800D02*
D03*
X0234000Y0058692D02*
D03*
X0159000Y0009000D02*
D03*
X0065000Y0113312D02*
D03*
X0299000Y0025000D02*
D03*
X0289000D02*
D03*
X0293996Y0025118D02*
D03*
X0289000Y0037000D02*
D03*
X0299000D02*
D03*
X0293996Y0037118D02*
D03*
X0299000Y0093500D02*
D03*
X0293996Y0093492D02*
D03*
X0289000Y0093500D02*
D03*
Y0081000D02*
D03*
X0299000D02*
D03*
X0293996Y0080992D02*
D03*
X0283862Y0063000D02*
D03*
X0074378Y0048000D02*
D03*
X0220701Y0076300D02*
D03*
X0096622Y0043000D02*
D03*
Y0048000D02*
D03*
X0067378Y0063500D02*
D03*
X0220701Y0031100D02*
D03*
Y0042600D02*
D03*
Y0087600D02*
D03*
X0060378Y0033000D02*
D03*
X0096622D02*
D03*
X0267000Y0055000D02*
D03*
X0254000Y0055201D02*
D03*
X0073000Y0107250D02*
D03*
Y0104000D02*
D03*
Y0110500D02*
D03*
X0111500Y0093500D02*
D03*
X0104500Y0100500D02*
D03*
X0118500D02*
D03*
Y0110000D02*
D03*
X0104500D02*
D03*
Y0105126D02*
D03*
X0118500D02*
D03*
X0089622Y0018500D02*
D03*
X0060378Y0023000D02*
D03*
D51*
X0293996Y0030118D02*
D03*
Y0087992D02*
D03*
M02*
