G04*
G04 #@! TF.GenerationSoftware,Altium Limited,Altium Designer,20.0.14 (345)*
G04*
G04 Layer_Physical_Order=2*
G04 Layer_Color=36540*
%FSAX25Y25*%
%MOIN*%
G70*
G01*
G75*
%ADD48C,0.10000*%
%ADD49C,0.09055*%
%ADD50C,0.02400*%
%ADD51C,0.05000*%
%ADD52C,0.01200*%
G36*
X0310864Y0115847D02*
X0311403Y0115624D01*
X0311887Y0115300D01*
X0312300Y0114887D01*
X0312624Y0114402D01*
X0312847Y0113864D01*
X0312961Y0113292D01*
Y0113000D01*
Y0005000D01*
Y0004708D01*
X0312847Y0004136D01*
X0312624Y0003598D01*
X0312300Y0003112D01*
X0311887Y0002700D01*
X0311403Y0002376D01*
X0310864Y0002153D01*
X0310292Y0002039D01*
X0004708D01*
X0004136Y0002153D01*
X0003598Y0002376D01*
X0003112Y0002700D01*
X0002700Y0003113D01*
X0002376Y0003598D01*
X0002153Y0004136D01*
X0002039Y0004708D01*
Y0005000D01*
Y0113000D01*
Y0113292D01*
X0002153Y0113864D01*
X0002376Y0114402D01*
X0002700Y0114887D01*
X0003113Y0115300D01*
X0003598Y0115624D01*
X0004136Y0115847D01*
X0004708Y0115961D01*
X0251450D01*
X0251475Y0115461D01*
X0250991Y0115413D01*
X0249859Y0115070D01*
X0248817Y0114513D01*
X0247903Y0113763D01*
X0247154Y0112849D01*
X0246597Y0111807D01*
X0246253Y0110676D01*
X0246138Y0109500D01*
X0246253Y0108324D01*
X0246597Y0107193D01*
X0247154Y0106150D01*
X0247903Y0105237D01*
X0248817Y0104487D01*
X0249859Y0103930D01*
X0250991Y0103587D01*
X0252167Y0103471D01*
X0253343Y0103587D01*
X0254474Y0103930D01*
X0255516Y0104487D01*
X0256430Y0105237D01*
X0257180Y0106150D01*
X0257737Y0107193D01*
X0258080Y0108324D01*
X0258196Y0109500D01*
X0258080Y0110676D01*
X0257737Y0111807D01*
X0257180Y0112849D01*
X0256430Y0113763D01*
X0255516Y0114513D01*
X0254474Y0115070D01*
X0253343Y0115413D01*
X0252859Y0115461D01*
X0252883Y0115961D01*
X0272617D01*
X0272641Y0115461D01*
X0272157Y0115413D01*
X0271026Y0115070D01*
X0269984Y0114513D01*
X0269070Y0113763D01*
X0268320Y0112849D01*
X0267763Y0111807D01*
X0267420Y0110676D01*
X0267304Y0109500D01*
X0267420Y0108324D01*
X0267763Y0107193D01*
X0268320Y0106150D01*
X0269070Y0105237D01*
X0269984Y0104487D01*
X0271026Y0103930D01*
X0272157Y0103587D01*
X0273333Y0103471D01*
X0274510Y0103587D01*
X0275641Y0103930D01*
X0276683Y0104487D01*
X0277596Y0105237D01*
X0278346Y0106150D01*
X0278903Y0107193D01*
X0279246Y0108324D01*
X0279362Y0109500D01*
X0279246Y0110676D01*
X0278903Y0111807D01*
X0278346Y0112849D01*
X0277596Y0113763D01*
X0276683Y0114513D01*
X0275641Y0115070D01*
X0274510Y0115413D01*
X0274025Y0115461D01*
X0274050Y0115961D01*
X0310292D01*
X0310864Y0115847D01*
D02*
G37*
%LPC*%
G36*
X0228000Y0106529D02*
X0226824Y0106413D01*
X0225693Y0106070D01*
X0224651Y0105513D01*
X0223737Y0104763D01*
X0222987Y0103849D01*
X0222430Y0102807D01*
X0222087Y0101676D01*
X0221971Y0100500D01*
X0222087Y0099324D01*
X0222430Y0098193D01*
X0222987Y0097150D01*
X0223737Y0096237D01*
X0224651Y0095487D01*
X0225693Y0094930D01*
X0226824Y0094587D01*
X0228000Y0094471D01*
X0229176Y0094587D01*
X0230307Y0094930D01*
X0231349Y0095487D01*
X0232263Y0096237D01*
X0233013Y0097150D01*
X0233570Y0098193D01*
X0233913Y0099324D01*
X0234029Y0100500D01*
X0233913Y0101676D01*
X0233570Y0102807D01*
X0233013Y0103849D01*
X0232263Y0104763D01*
X0231349Y0105513D01*
X0230307Y0106070D01*
X0229176Y0106413D01*
X0228000Y0106529D01*
D02*
G37*
G36*
X0220701Y0089231D02*
X0220076Y0089107D01*
X0219547Y0088753D01*
X0219194Y0088224D01*
X0219069Y0087600D01*
X0219194Y0086976D01*
X0219547Y0086446D01*
X0220076Y0086093D01*
X0220701Y0085969D01*
X0221325Y0086093D01*
X0221854Y0086446D01*
X0222208Y0086976D01*
X0222332Y0087600D01*
X0222208Y0088224D01*
X0221854Y0088753D01*
X0221325Y0089107D01*
X0220701Y0089231D01*
D02*
G37*
G36*
Y0077931D02*
X0220076Y0077807D01*
X0219547Y0077454D01*
X0219194Y0076924D01*
X0219069Y0076300D01*
X0219194Y0075676D01*
X0219547Y0075147D01*
X0220076Y0074793D01*
X0220701Y0074669D01*
X0221325Y0074793D01*
X0221854Y0075147D01*
X0222208Y0075676D01*
X0222332Y0076300D01*
X0222208Y0076924D01*
X0221854Y0077454D01*
X0221325Y0077807D01*
X0220701Y0077931D01*
D02*
G37*
G36*
X0059500Y0081029D02*
X0058324Y0080913D01*
X0057193Y0080570D01*
X0056151Y0080013D01*
X0055237Y0079263D01*
X0054487Y0078350D01*
X0053930Y0077307D01*
X0053587Y0076176D01*
X0053471Y0075000D01*
X0053587Y0073824D01*
X0053930Y0072693D01*
X0054487Y0071650D01*
X0055237Y0070737D01*
X0056151Y0069987D01*
X0057193Y0069430D01*
X0058324Y0069087D01*
X0059500Y0068971D01*
X0060676Y0069087D01*
X0061807Y0069430D01*
X0062849Y0069987D01*
X0063763Y0070737D01*
X0064513Y0071650D01*
X0065070Y0072693D01*
X0065413Y0073824D01*
X0065529Y0075000D01*
X0065413Y0076176D01*
X0065070Y0077307D01*
X0064513Y0078350D01*
X0063763Y0079263D01*
X0062849Y0080013D01*
X0061807Y0080570D01*
X0060676Y0080913D01*
X0059500Y0081029D01*
D02*
G37*
G36*
X0210000Y0069743D02*
X0209142Y0069572D01*
X0208414Y0069086D01*
X0207928Y0068358D01*
X0207757Y0067500D01*
X0207928Y0066642D01*
X0208414Y0065914D01*
X0209142Y0065428D01*
X0210000Y0065257D01*
X0210858Y0065428D01*
X0211586Y0065914D01*
X0212072Y0066642D01*
X0212243Y0067500D01*
X0212072Y0068358D01*
X0211586Y0069086D01*
X0210858Y0069572D01*
X0210000Y0069743D01*
D02*
G37*
G36*
X0202500D02*
X0201642Y0069572D01*
X0200914Y0069086D01*
X0200428Y0068358D01*
X0200257Y0067500D01*
X0200428Y0066642D01*
X0200914Y0065914D01*
X0201642Y0065428D01*
X0202500Y0065257D01*
X0203358Y0065428D01*
X0204086Y0065914D01*
X0204572Y0066642D01*
X0204743Y0067500D01*
X0204572Y0068358D01*
X0204086Y0069086D01*
X0203358Y0069572D01*
X0202500Y0069743D01*
D02*
G37*
G36*
X0220701Y0066631D02*
X0220076Y0066507D01*
X0219547Y0066154D01*
X0219194Y0065624D01*
X0219069Y0065000D01*
X0219194Y0064376D01*
X0219547Y0063846D01*
X0220076Y0063493D01*
X0220701Y0063369D01*
X0221325Y0063493D01*
X0221854Y0063846D01*
X0222208Y0064376D01*
X0222332Y0065000D01*
X0222208Y0065624D01*
X0221854Y0066154D01*
X0221325Y0066507D01*
X0220701Y0066631D01*
D02*
G37*
G36*
X0283862Y0064631D02*
X0283238Y0064507D01*
X0282709Y0064153D01*
X0282355Y0063624D01*
X0282231Y0063000D01*
X0282355Y0062376D01*
X0282709Y0061847D01*
X0283238Y0061493D01*
X0283862Y0061369D01*
X0284487Y0061493D01*
X0285016Y0061847D01*
X0285369Y0062376D01*
X0285493Y0063000D01*
X0285369Y0063624D01*
X0285016Y0064153D01*
X0284487Y0064507D01*
X0283862Y0064631D01*
D02*
G37*
G36*
X0022500Y0072473D02*
X0021057Y0072283D01*
X0019712Y0071726D01*
X0018558Y0070840D01*
X0017672Y0069685D01*
X0017115Y0068341D01*
X0016925Y0066898D01*
X0017115Y0065455D01*
X0017672Y0064110D01*
X0018558Y0062955D01*
X0019712Y0062069D01*
X0021057Y0061512D01*
X0022500Y0061322D01*
X0023943Y0061512D01*
X0025288Y0062069D01*
X0026442Y0062955D01*
X0027328Y0064110D01*
X0027885Y0065455D01*
X0028075Y0066898D01*
X0027885Y0068341D01*
X0027328Y0069685D01*
X0026442Y0070840D01*
X0025288Y0071726D01*
X0023943Y0072283D01*
X0022500Y0072473D01*
D02*
G37*
G36*
X0191250Y0062243D02*
X0190392Y0062072D01*
X0189664Y0061586D01*
X0189178Y0060858D01*
X0189007Y0060000D01*
X0189178Y0059142D01*
X0189664Y0058414D01*
X0190392Y0057928D01*
X0191250Y0057757D01*
X0192108Y0057928D01*
X0192836Y0058414D01*
X0193322Y0059142D01*
X0193493Y0060000D01*
X0193322Y0060858D01*
X0192836Y0061586D01*
X0192108Y0062072D01*
X0191250Y0062243D01*
D02*
G37*
G36*
X0217500Y0054743D02*
X0216642Y0054572D01*
X0215914Y0054086D01*
X0215428Y0053358D01*
X0215257Y0052500D01*
X0215428Y0051642D01*
X0215914Y0050914D01*
X0216642Y0050428D01*
X0217500Y0050257D01*
X0218358Y0050428D01*
X0219086Y0050914D01*
X0219572Y0051642D01*
X0219743Y0052500D01*
X0219572Y0053358D01*
X0219086Y0054086D01*
X0218358Y0054572D01*
X0217500Y0054743D01*
D02*
G37*
G36*
X0210000D02*
X0209142Y0054572D01*
X0208414Y0054086D01*
X0207928Y0053358D01*
X0207757Y0052500D01*
X0207928Y0051642D01*
X0208414Y0050914D01*
X0209142Y0050428D01*
X0210000Y0050257D01*
X0210858Y0050428D01*
X0211586Y0050914D01*
X0212072Y0051642D01*
X0212243Y0052500D01*
X0212072Y0053358D01*
X0211586Y0054086D01*
X0210858Y0054572D01*
X0210000Y0054743D01*
D02*
G37*
G36*
X0202500D02*
X0201642Y0054572D01*
X0200914Y0054086D01*
X0200428Y0053358D01*
X0200257Y0052500D01*
X0200428Y0051642D01*
X0200914Y0050914D01*
X0201642Y0050428D01*
X0202500Y0050257D01*
X0203358Y0050428D01*
X0204086Y0050914D01*
X0204572Y0051642D01*
X0204743Y0052500D01*
X0204572Y0053358D01*
X0204086Y0054086D01*
X0203358Y0054572D01*
X0202500Y0054743D01*
D02*
G37*
G36*
X0060000D02*
X0059142Y0054572D01*
X0058414Y0054086D01*
X0057928Y0053358D01*
X0057757Y0052500D01*
X0057928Y0051642D01*
X0058414Y0050914D01*
X0059142Y0050428D01*
X0060000Y0050257D01*
X0060858Y0050428D01*
X0061586Y0050914D01*
X0062072Y0051642D01*
X0062243Y0052500D01*
X0062072Y0053358D01*
X0061586Y0054086D01*
X0060858Y0054572D01*
X0060000Y0054743D01*
D02*
G37*
G36*
X0096622Y0049631D02*
X0095998Y0049507D01*
X0095468Y0049154D01*
X0095115Y0048624D01*
X0094991Y0048000D01*
X0095115Y0047376D01*
X0095468Y0046847D01*
X0095998Y0046493D01*
X0096622Y0046369D01*
X0097246Y0046493D01*
X0097776Y0046847D01*
X0098129Y0047376D01*
X0098253Y0048000D01*
X0098129Y0048624D01*
X0097776Y0049154D01*
X0097246Y0049507D01*
X0096622Y0049631D01*
D02*
G37*
G36*
X0074378D02*
X0073754Y0049507D01*
X0073224Y0049154D01*
X0072871Y0048624D01*
X0072747Y0048000D01*
X0072871Y0047376D01*
X0073224Y0046847D01*
X0073754Y0046493D01*
X0074378Y0046369D01*
X0075002Y0046493D01*
X0075532Y0046847D01*
X0075885Y0047376D01*
X0076009Y0048000D01*
X0075885Y0048624D01*
X0075532Y0049154D01*
X0075002Y0049507D01*
X0074378Y0049631D01*
D02*
G37*
G36*
X0213750Y0047243D02*
X0212892Y0047072D01*
X0212164Y0046586D01*
X0211678Y0045858D01*
X0211507Y0045000D01*
X0211678Y0044142D01*
X0212164Y0043414D01*
X0212892Y0042928D01*
X0213750Y0042757D01*
X0214608Y0042928D01*
X0215336Y0043414D01*
X0215822Y0044142D01*
X0215993Y0045000D01*
X0215822Y0045858D01*
X0215336Y0046586D01*
X0214608Y0047072D01*
X0213750Y0047243D01*
D02*
G37*
G36*
X0198750D02*
X0197892Y0047072D01*
X0197164Y0046586D01*
X0196678Y0045858D01*
X0196507Y0045000D01*
X0196678Y0044142D01*
X0197164Y0043414D01*
X0197892Y0042928D01*
X0198750Y0042757D01*
X0199608Y0042928D01*
X0200336Y0043414D01*
X0200822Y0044142D01*
X0200993Y0045000D01*
X0200822Y0045858D01*
X0200336Y0046586D01*
X0199608Y0047072D01*
X0198750Y0047243D01*
D02*
G37*
G36*
X0191250D02*
X0190392Y0047072D01*
X0189664Y0046586D01*
X0189178Y0045858D01*
X0189007Y0045000D01*
X0189178Y0044142D01*
X0189664Y0043414D01*
X0190392Y0042928D01*
X0191250Y0042757D01*
X0192108Y0042928D01*
X0192836Y0043414D01*
X0193322Y0044142D01*
X0193493Y0045000D01*
X0193322Y0045858D01*
X0192836Y0046586D01*
X0192108Y0047072D01*
X0191250Y0047243D01*
D02*
G37*
G36*
X0176250D02*
X0175392Y0047072D01*
X0174664Y0046586D01*
X0174178Y0045858D01*
X0174007Y0045000D01*
X0174178Y0044142D01*
X0174664Y0043414D01*
X0175392Y0042928D01*
X0176250Y0042757D01*
X0177108Y0042928D01*
X0177836Y0043414D01*
X0178322Y0044142D01*
X0178493Y0045000D01*
X0178322Y0045858D01*
X0177836Y0046586D01*
X0177108Y0047072D01*
X0176250Y0047243D01*
D02*
G37*
G36*
X0168750D02*
X0167892Y0047072D01*
X0167164Y0046586D01*
X0166678Y0045858D01*
X0166507Y0045000D01*
X0166678Y0044142D01*
X0167164Y0043414D01*
X0167892Y0042928D01*
X0168750Y0042757D01*
X0169608Y0042928D01*
X0170336Y0043414D01*
X0170822Y0044142D01*
X0170993Y0045000D01*
X0170822Y0045858D01*
X0170336Y0046586D01*
X0169608Y0047072D01*
X0168750Y0047243D01*
D02*
G37*
G36*
X0161250D02*
X0160392Y0047072D01*
X0159664Y0046586D01*
X0159178Y0045858D01*
X0159007Y0045000D01*
X0159178Y0044142D01*
X0159664Y0043414D01*
X0160392Y0042928D01*
X0161250Y0042757D01*
X0162108Y0042928D01*
X0162836Y0043414D01*
X0163322Y0044142D01*
X0163493Y0045000D01*
X0163322Y0045858D01*
X0162836Y0046586D01*
X0162108Y0047072D01*
X0161250Y0047243D01*
D02*
G37*
G36*
X0153750D02*
X0152892Y0047072D01*
X0152164Y0046586D01*
X0151678Y0045858D01*
X0151507Y0045000D01*
X0151678Y0044142D01*
X0152164Y0043414D01*
X0152892Y0042928D01*
X0153750Y0042757D01*
X0154608Y0042928D01*
X0155336Y0043414D01*
X0155822Y0044142D01*
X0155993Y0045000D01*
X0155822Y0045858D01*
X0155336Y0046586D01*
X0154608Y0047072D01*
X0153750Y0047243D01*
D02*
G37*
G36*
X0146250D02*
X0145392Y0047072D01*
X0144664Y0046586D01*
X0144178Y0045858D01*
X0144007Y0045000D01*
X0144178Y0044142D01*
X0144664Y0043414D01*
X0145392Y0042928D01*
X0146250Y0042757D01*
X0147108Y0042928D01*
X0147836Y0043414D01*
X0148322Y0044142D01*
X0148493Y0045000D01*
X0148322Y0045858D01*
X0147836Y0046586D01*
X0147108Y0047072D01*
X0146250Y0047243D01*
D02*
G37*
G36*
X0138750D02*
X0137892Y0047072D01*
X0137164Y0046586D01*
X0136678Y0045858D01*
X0136507Y0045000D01*
X0136678Y0044142D01*
X0137164Y0043414D01*
X0137892Y0042928D01*
X0138750Y0042757D01*
X0139608Y0042928D01*
X0140336Y0043414D01*
X0140822Y0044142D01*
X0140993Y0045000D01*
X0140822Y0045858D01*
X0140336Y0046586D01*
X0139608Y0047072D01*
X0138750Y0047243D01*
D02*
G37*
G36*
X0131250D02*
X0130392Y0047072D01*
X0129664Y0046586D01*
X0129178Y0045858D01*
X0129007Y0045000D01*
X0129178Y0044142D01*
X0129664Y0043414D01*
X0130392Y0042928D01*
X0131250Y0042757D01*
X0132108Y0042928D01*
X0132836Y0043414D01*
X0133322Y0044142D01*
X0133493Y0045000D01*
X0133322Y0045858D01*
X0132836Y0046586D01*
X0132108Y0047072D01*
X0131250Y0047243D01*
D02*
G37*
G36*
X0123750D02*
X0122892Y0047072D01*
X0122164Y0046586D01*
X0121678Y0045858D01*
X0121507Y0045000D01*
X0121678Y0044142D01*
X0122164Y0043414D01*
X0122892Y0042928D01*
X0123750Y0042757D01*
X0124608Y0042928D01*
X0125336Y0043414D01*
X0125822Y0044142D01*
X0125993Y0045000D01*
X0125822Y0045858D01*
X0125336Y0046586D01*
X0124608Y0047072D01*
X0123750Y0047243D01*
D02*
G37*
G36*
X0116250D02*
X0115392Y0047072D01*
X0114664Y0046586D01*
X0114178Y0045858D01*
X0114007Y0045000D01*
X0114178Y0044142D01*
X0114664Y0043414D01*
X0115392Y0042928D01*
X0116250Y0042757D01*
X0117108Y0042928D01*
X0117836Y0043414D01*
X0118322Y0044142D01*
X0118493Y0045000D01*
X0118322Y0045858D01*
X0117836Y0046586D01*
X0117108Y0047072D01*
X0116250Y0047243D01*
D02*
G37*
G36*
X0078750D02*
X0077892Y0047072D01*
X0077164Y0046586D01*
X0076678Y0045858D01*
X0076507Y0045000D01*
X0076678Y0044142D01*
X0077164Y0043414D01*
X0077892Y0042928D01*
X0078750Y0042757D01*
X0079608Y0042928D01*
X0080336Y0043414D01*
X0080822Y0044142D01*
X0080993Y0045000D01*
X0080822Y0045858D01*
X0080336Y0046586D01*
X0079608Y0047072D01*
X0078750Y0047243D01*
D02*
G37*
G36*
X0048750D02*
X0047892Y0047072D01*
X0047164Y0046586D01*
X0046678Y0045858D01*
X0046507Y0045000D01*
X0046678Y0044142D01*
X0047164Y0043414D01*
X0047892Y0042928D01*
X0048750Y0042757D01*
X0049608Y0042928D01*
X0050336Y0043414D01*
X0050822Y0044142D01*
X0050993Y0045000D01*
X0050822Y0045858D01*
X0050336Y0046586D01*
X0049608Y0047072D01*
X0048750Y0047243D01*
D02*
G37*
G36*
X0022500Y0052788D02*
X0021057Y0052598D01*
X0019712Y0052041D01*
X0018558Y0051155D01*
X0017672Y0050000D01*
X0017115Y0048656D01*
X0016925Y0047213D01*
X0017115Y0045770D01*
X0017672Y0044425D01*
X0018558Y0043270D01*
X0019712Y0042384D01*
X0021057Y0041827D01*
X0022500Y0041637D01*
X0023943Y0041827D01*
X0025288Y0042384D01*
X0026442Y0043270D01*
X0027328Y0044425D01*
X0027885Y0045770D01*
X0028075Y0047213D01*
X0027885Y0048656D01*
X0027328Y0050000D01*
X0026442Y0051155D01*
X0025288Y0052041D01*
X0023943Y0052598D01*
X0022500Y0052788D01*
D02*
G37*
G36*
X0096622Y0044631D02*
X0095998Y0044507D01*
X0095468Y0044153D01*
X0095115Y0043624D01*
X0094991Y0043000D01*
X0095115Y0042376D01*
X0095468Y0041846D01*
X0095998Y0041493D01*
X0096622Y0041369D01*
X0097246Y0041493D01*
X0097776Y0041846D01*
X0098129Y0042376D01*
X0098253Y0043000D01*
X0098129Y0043624D01*
X0097776Y0044153D01*
X0097246Y0044507D01*
X0096622Y0044631D01*
D02*
G37*
G36*
X0220701Y0044231D02*
X0220076Y0044107D01*
X0219547Y0043753D01*
X0219194Y0043224D01*
X0219069Y0042600D01*
X0219194Y0041976D01*
X0219547Y0041447D01*
X0220076Y0041093D01*
X0220701Y0040969D01*
X0221325Y0041093D01*
X0221854Y0041447D01*
X0222208Y0041976D01*
X0222332Y0042600D01*
X0222208Y0043224D01*
X0221854Y0043753D01*
X0221325Y0044107D01*
X0220701Y0044231D01*
D02*
G37*
G36*
X0217500Y0039743D02*
X0216642Y0039572D01*
X0215914Y0039086D01*
X0215428Y0038358D01*
X0215257Y0037500D01*
X0215428Y0036642D01*
X0215914Y0035914D01*
X0216642Y0035428D01*
X0217500Y0035257D01*
X0218358Y0035428D01*
X0219086Y0035914D01*
X0219572Y0036642D01*
X0219743Y0037500D01*
X0219572Y0038358D01*
X0219086Y0039086D01*
X0218358Y0039572D01*
X0217500Y0039743D01*
D02*
G37*
G36*
X0210000D02*
X0209142Y0039572D01*
X0208414Y0039086D01*
X0207928Y0038358D01*
X0207757Y0037500D01*
X0207928Y0036642D01*
X0208414Y0035914D01*
X0209142Y0035428D01*
X0210000Y0035257D01*
X0210858Y0035428D01*
X0211586Y0035914D01*
X0212072Y0036642D01*
X0212243Y0037500D01*
X0212072Y0038358D01*
X0211586Y0039086D01*
X0210858Y0039572D01*
X0210000Y0039743D01*
D02*
G37*
G36*
X0180000D02*
X0179142Y0039572D01*
X0178414Y0039086D01*
X0177928Y0038358D01*
X0177757Y0037500D01*
X0177928Y0036642D01*
X0178414Y0035914D01*
X0179142Y0035428D01*
X0180000Y0035257D01*
X0180858Y0035428D01*
X0181586Y0035914D01*
X0182072Y0036642D01*
X0182243Y0037500D01*
X0182072Y0038358D01*
X0181586Y0039086D01*
X0180858Y0039572D01*
X0180000Y0039743D01*
D02*
G37*
G36*
X0172500D02*
X0171642Y0039572D01*
X0170914Y0039086D01*
X0170428Y0038358D01*
X0170257Y0037500D01*
X0170428Y0036642D01*
X0170914Y0035914D01*
X0171642Y0035428D01*
X0172500Y0035257D01*
X0173358Y0035428D01*
X0174086Y0035914D01*
X0174572Y0036642D01*
X0174743Y0037500D01*
X0174572Y0038358D01*
X0174086Y0039086D01*
X0173358Y0039572D01*
X0172500Y0039743D01*
D02*
G37*
G36*
X0165000D02*
X0164142Y0039572D01*
X0163414Y0039086D01*
X0162928Y0038358D01*
X0162757Y0037500D01*
X0162928Y0036642D01*
X0163414Y0035914D01*
X0164142Y0035428D01*
X0165000Y0035257D01*
X0165858Y0035428D01*
X0166586Y0035914D01*
X0167072Y0036642D01*
X0167243Y0037500D01*
X0167072Y0038358D01*
X0166586Y0039086D01*
X0165858Y0039572D01*
X0165000Y0039743D01*
D02*
G37*
G36*
X0157500D02*
X0156642Y0039572D01*
X0155914Y0039086D01*
X0155428Y0038358D01*
X0155257Y0037500D01*
X0155428Y0036642D01*
X0155914Y0035914D01*
X0156642Y0035428D01*
X0157500Y0035257D01*
X0158358Y0035428D01*
X0159086Y0035914D01*
X0159572Y0036642D01*
X0159743Y0037500D01*
X0159572Y0038358D01*
X0159086Y0039086D01*
X0158358Y0039572D01*
X0157500Y0039743D01*
D02*
G37*
G36*
X0150000D02*
X0149142Y0039572D01*
X0148414Y0039086D01*
X0147928Y0038358D01*
X0147757Y0037500D01*
X0147928Y0036642D01*
X0148414Y0035914D01*
X0149142Y0035428D01*
X0150000Y0035257D01*
X0150858Y0035428D01*
X0151586Y0035914D01*
X0152072Y0036642D01*
X0152243Y0037500D01*
X0152072Y0038358D01*
X0151586Y0039086D01*
X0150858Y0039572D01*
X0150000Y0039743D01*
D02*
G37*
G36*
X0142500D02*
X0141642Y0039572D01*
X0140914Y0039086D01*
X0140428Y0038358D01*
X0140257Y0037500D01*
X0140428Y0036642D01*
X0140914Y0035914D01*
X0141642Y0035428D01*
X0142500Y0035257D01*
X0143358Y0035428D01*
X0144086Y0035914D01*
X0144572Y0036642D01*
X0144743Y0037500D01*
X0144572Y0038358D01*
X0144086Y0039086D01*
X0143358Y0039572D01*
X0142500Y0039743D01*
D02*
G37*
G36*
X0135000D02*
X0134142Y0039572D01*
X0133414Y0039086D01*
X0132928Y0038358D01*
X0132757Y0037500D01*
X0132928Y0036642D01*
X0133414Y0035914D01*
X0134142Y0035428D01*
X0135000Y0035257D01*
X0135858Y0035428D01*
X0136586Y0035914D01*
X0137072Y0036642D01*
X0137243Y0037500D01*
X0137072Y0038358D01*
X0136586Y0039086D01*
X0135858Y0039572D01*
X0135000Y0039743D01*
D02*
G37*
G36*
X0127500D02*
X0126642Y0039572D01*
X0125914Y0039086D01*
X0125428Y0038358D01*
X0125257Y0037500D01*
X0125428Y0036642D01*
X0125914Y0035914D01*
X0126642Y0035428D01*
X0127500Y0035257D01*
X0128358Y0035428D01*
X0129086Y0035914D01*
X0129572Y0036642D01*
X0129743Y0037500D01*
X0129572Y0038358D01*
X0129086Y0039086D01*
X0128358Y0039572D01*
X0127500Y0039743D01*
D02*
G37*
G36*
X0120000D02*
X0119142Y0039572D01*
X0118414Y0039086D01*
X0117928Y0038358D01*
X0117757Y0037500D01*
X0117928Y0036642D01*
X0118414Y0035914D01*
X0119142Y0035428D01*
X0120000Y0035257D01*
X0120858Y0035428D01*
X0121586Y0035914D01*
X0122072Y0036642D01*
X0122243Y0037500D01*
X0122072Y0038358D01*
X0121586Y0039086D01*
X0120858Y0039572D01*
X0120000Y0039743D01*
D02*
G37*
G36*
X0112500D02*
X0111642Y0039572D01*
X0110914Y0039086D01*
X0110428Y0038358D01*
X0110257Y0037500D01*
X0110428Y0036642D01*
X0110914Y0035914D01*
X0111642Y0035428D01*
X0112500Y0035257D01*
X0113358Y0035428D01*
X0114086Y0035914D01*
X0114572Y0036642D01*
X0114743Y0037500D01*
X0114572Y0038358D01*
X0114086Y0039086D01*
X0113358Y0039572D01*
X0112500Y0039743D01*
D02*
G37*
G36*
X0082500D02*
X0081642Y0039572D01*
X0080914Y0039086D01*
X0080428Y0038358D01*
X0080257Y0037500D01*
X0080428Y0036642D01*
X0080914Y0035914D01*
X0081642Y0035428D01*
X0082500Y0035257D01*
X0083358Y0035428D01*
X0084086Y0035914D01*
X0084572Y0036642D01*
X0084743Y0037500D01*
X0084572Y0038358D01*
X0084086Y0039086D01*
X0083358Y0039572D01*
X0082500Y0039743D01*
D02*
G37*
G36*
X0075000D02*
X0074142Y0039572D01*
X0073414Y0039086D01*
X0072928Y0038358D01*
X0072757Y0037500D01*
X0072928Y0036642D01*
X0073414Y0035914D01*
X0074142Y0035428D01*
X0075000Y0035257D01*
X0075858Y0035428D01*
X0076586Y0035914D01*
X0077072Y0036642D01*
X0077243Y0037500D01*
X0077072Y0038358D01*
X0076586Y0039086D01*
X0075858Y0039572D01*
X0075000Y0039743D01*
D02*
G37*
G36*
X0060000D02*
X0059142Y0039572D01*
X0058414Y0039086D01*
X0057928Y0038358D01*
X0057757Y0037500D01*
X0057928Y0036642D01*
X0058414Y0035914D01*
X0059142Y0035428D01*
X0060000Y0035257D01*
X0060858Y0035428D01*
X0061586Y0035914D01*
X0062072Y0036642D01*
X0062243Y0037500D01*
X0062072Y0038358D01*
X0061586Y0039086D01*
X0060858Y0039572D01*
X0060000Y0039743D01*
D02*
G37*
G36*
X0045000D02*
X0044142Y0039572D01*
X0043414Y0039086D01*
X0042928Y0038358D01*
X0042757Y0037500D01*
X0042928Y0036642D01*
X0043414Y0035914D01*
X0044142Y0035428D01*
X0045000Y0035257D01*
X0045858Y0035428D01*
X0046586Y0035914D01*
X0047072Y0036642D01*
X0047243Y0037500D01*
X0047072Y0038358D01*
X0046586Y0039086D01*
X0045858Y0039572D01*
X0045000Y0039743D01*
D02*
G37*
G36*
X0037500D02*
X0036642Y0039572D01*
X0035914Y0039086D01*
X0035428Y0038358D01*
X0035257Y0037500D01*
X0035428Y0036642D01*
X0035914Y0035914D01*
X0036642Y0035428D01*
X0037500Y0035257D01*
X0038358Y0035428D01*
X0039086Y0035914D01*
X0039572Y0036642D01*
X0039743Y0037500D01*
X0039572Y0038358D01*
X0039086Y0039086D01*
X0038358Y0039572D01*
X0037500Y0039743D01*
D02*
G37*
G36*
X0096622Y0034631D02*
X0095998Y0034507D01*
X0095468Y0034154D01*
X0095115Y0033624D01*
X0094991Y0033000D01*
X0095115Y0032376D01*
X0095468Y0031846D01*
X0095998Y0031493D01*
X0096622Y0031369D01*
X0097246Y0031493D01*
X0097776Y0031846D01*
X0098129Y0032376D01*
X0098253Y0033000D01*
X0098129Y0033624D01*
X0097776Y0034154D01*
X0097246Y0034507D01*
X0096622Y0034631D01*
D02*
G37*
G36*
X0060378D02*
X0059754Y0034507D01*
X0059224Y0034154D01*
X0058871Y0033624D01*
X0058747Y0033000D01*
X0058871Y0032376D01*
X0059224Y0031846D01*
X0059754Y0031493D01*
X0060378Y0031369D01*
X0061002Y0031493D01*
X0061532Y0031846D01*
X0061885Y0032376D01*
X0062009Y0033000D01*
X0061885Y0033624D01*
X0061532Y0034154D01*
X0061002Y0034507D01*
X0060378Y0034631D01*
D02*
G37*
G36*
X0220701Y0032731D02*
X0220076Y0032607D01*
X0219547Y0032254D01*
X0219194Y0031724D01*
X0219069Y0031100D01*
X0219194Y0030476D01*
X0219547Y0029947D01*
X0220076Y0029593D01*
X0220701Y0029469D01*
X0221325Y0029593D01*
X0221854Y0029947D01*
X0222208Y0030476D01*
X0222332Y0031100D01*
X0222208Y0031724D01*
X0221854Y0032254D01*
X0221325Y0032607D01*
X0220701Y0032731D01*
D02*
G37*
G36*
X0213750Y0032243D02*
X0212892Y0032072D01*
X0212164Y0031586D01*
X0211678Y0030858D01*
X0211507Y0030000D01*
X0211678Y0029142D01*
X0212164Y0028414D01*
X0212892Y0027928D01*
X0213750Y0027757D01*
X0214608Y0027928D01*
X0215336Y0028414D01*
X0215822Y0029142D01*
X0215993Y0030000D01*
X0215822Y0030858D01*
X0215336Y0031586D01*
X0214608Y0032072D01*
X0213750Y0032243D01*
D02*
G37*
G36*
X0183750D02*
X0182892Y0032072D01*
X0182164Y0031586D01*
X0181678Y0030858D01*
X0181507Y0030000D01*
X0181678Y0029142D01*
X0182164Y0028414D01*
X0182892Y0027928D01*
X0183750Y0027757D01*
X0184608Y0027928D01*
X0185336Y0028414D01*
X0185822Y0029142D01*
X0185993Y0030000D01*
X0185822Y0030858D01*
X0185336Y0031586D01*
X0184608Y0032072D01*
X0183750Y0032243D01*
D02*
G37*
G36*
X0176250D02*
X0175392Y0032072D01*
X0174664Y0031586D01*
X0174178Y0030858D01*
X0174007Y0030000D01*
X0174178Y0029142D01*
X0174664Y0028414D01*
X0175392Y0027928D01*
X0176250Y0027757D01*
X0177108Y0027928D01*
X0177836Y0028414D01*
X0178322Y0029142D01*
X0178493Y0030000D01*
X0178322Y0030858D01*
X0177836Y0031586D01*
X0177108Y0032072D01*
X0176250Y0032243D01*
D02*
G37*
G36*
X0168750D02*
X0167892Y0032072D01*
X0167164Y0031586D01*
X0166678Y0030858D01*
X0166507Y0030000D01*
X0166678Y0029142D01*
X0167164Y0028414D01*
X0167892Y0027928D01*
X0168750Y0027757D01*
X0169608Y0027928D01*
X0170336Y0028414D01*
X0170822Y0029142D01*
X0170993Y0030000D01*
X0170822Y0030858D01*
X0170336Y0031586D01*
X0169608Y0032072D01*
X0168750Y0032243D01*
D02*
G37*
G36*
X0161250D02*
X0160392Y0032072D01*
X0159664Y0031586D01*
X0159178Y0030858D01*
X0159007Y0030000D01*
X0159178Y0029142D01*
X0159664Y0028414D01*
X0160392Y0027928D01*
X0161250Y0027757D01*
X0162108Y0027928D01*
X0162836Y0028414D01*
X0163322Y0029142D01*
X0163493Y0030000D01*
X0163322Y0030858D01*
X0162836Y0031586D01*
X0162108Y0032072D01*
X0161250Y0032243D01*
D02*
G37*
G36*
X0153750D02*
X0152892Y0032072D01*
X0152164Y0031586D01*
X0151678Y0030858D01*
X0151507Y0030000D01*
X0151678Y0029142D01*
X0152164Y0028414D01*
X0152892Y0027928D01*
X0153750Y0027757D01*
X0154608Y0027928D01*
X0155336Y0028414D01*
X0155822Y0029142D01*
X0155993Y0030000D01*
X0155822Y0030858D01*
X0155336Y0031586D01*
X0154608Y0032072D01*
X0153750Y0032243D01*
D02*
G37*
G36*
X0146250D02*
X0145392Y0032072D01*
X0144664Y0031586D01*
X0144178Y0030858D01*
X0144007Y0030000D01*
X0144178Y0029142D01*
X0144664Y0028414D01*
X0145392Y0027928D01*
X0146250Y0027757D01*
X0147108Y0027928D01*
X0147836Y0028414D01*
X0148322Y0029142D01*
X0148493Y0030000D01*
X0148322Y0030858D01*
X0147836Y0031586D01*
X0147108Y0032072D01*
X0146250Y0032243D01*
D02*
G37*
G36*
X0138750D02*
X0137892Y0032072D01*
X0137164Y0031586D01*
X0136678Y0030858D01*
X0136507Y0030000D01*
X0136678Y0029142D01*
X0137164Y0028414D01*
X0137892Y0027928D01*
X0138750Y0027757D01*
X0139608Y0027928D01*
X0140336Y0028414D01*
X0140822Y0029142D01*
X0140993Y0030000D01*
X0140822Y0030858D01*
X0140336Y0031586D01*
X0139608Y0032072D01*
X0138750Y0032243D01*
D02*
G37*
G36*
X0131250D02*
X0130392Y0032072D01*
X0129664Y0031586D01*
X0129178Y0030858D01*
X0129007Y0030000D01*
X0129178Y0029142D01*
X0129664Y0028414D01*
X0130392Y0027928D01*
X0131250Y0027757D01*
X0132108Y0027928D01*
X0132836Y0028414D01*
X0133322Y0029142D01*
X0133493Y0030000D01*
X0133322Y0030858D01*
X0132836Y0031586D01*
X0132108Y0032072D01*
X0131250Y0032243D01*
D02*
G37*
G36*
X0123750D02*
X0122892Y0032072D01*
X0122164Y0031586D01*
X0121678Y0030858D01*
X0121507Y0030000D01*
X0121678Y0029142D01*
X0122164Y0028414D01*
X0122892Y0027928D01*
X0123750Y0027757D01*
X0124608Y0027928D01*
X0125336Y0028414D01*
X0125822Y0029142D01*
X0125993Y0030000D01*
X0125822Y0030858D01*
X0125336Y0031586D01*
X0124608Y0032072D01*
X0123750Y0032243D01*
D02*
G37*
G36*
X0116250D02*
X0115392Y0032072D01*
X0114664Y0031586D01*
X0114178Y0030858D01*
X0114007Y0030000D01*
X0114178Y0029142D01*
X0114664Y0028414D01*
X0115392Y0027928D01*
X0116250Y0027757D01*
X0117108Y0027928D01*
X0117836Y0028414D01*
X0118322Y0029142D01*
X0118493Y0030000D01*
X0118322Y0030858D01*
X0117836Y0031586D01*
X0117108Y0032072D01*
X0116250Y0032243D01*
D02*
G37*
G36*
X0108750D02*
X0107892Y0032072D01*
X0107164Y0031586D01*
X0106678Y0030858D01*
X0106507Y0030000D01*
X0106678Y0029142D01*
X0107164Y0028414D01*
X0107892Y0027928D01*
X0108750Y0027757D01*
X0109608Y0027928D01*
X0110336Y0028414D01*
X0110822Y0029142D01*
X0110993Y0030000D01*
X0110822Y0030858D01*
X0110336Y0031586D01*
X0109608Y0032072D01*
X0108750Y0032243D01*
D02*
G37*
G36*
X0022500Y0033103D02*
X0021057Y0032913D01*
X0019712Y0032356D01*
X0018558Y0031470D01*
X0017672Y0030315D01*
X0017115Y0028971D01*
X0016925Y0027528D01*
X0017115Y0026085D01*
X0017672Y0024740D01*
X0018558Y0023585D01*
X0019712Y0022699D01*
X0021057Y0022142D01*
X0022500Y0021952D01*
X0023943Y0022142D01*
X0025288Y0022699D01*
X0026442Y0023585D01*
X0027328Y0024740D01*
X0027885Y0026085D01*
X0028075Y0027528D01*
X0027885Y0028971D01*
X0027328Y0030315D01*
X0026442Y0031470D01*
X0025288Y0032356D01*
X0023943Y0032913D01*
X0022500Y0033103D01*
D02*
G37*
G36*
X0202500Y0024743D02*
X0201642Y0024572D01*
X0200914Y0024086D01*
X0200428Y0023358D01*
X0200257Y0022500D01*
X0200428Y0021642D01*
X0200914Y0020914D01*
X0201642Y0020428D01*
X0202500Y0020257D01*
X0203358Y0020428D01*
X0204086Y0020914D01*
X0204572Y0021642D01*
X0204743Y0022500D01*
X0204572Y0023358D01*
X0204086Y0024086D01*
X0203358Y0024572D01*
X0202500Y0024743D01*
D02*
G37*
G36*
X0195000D02*
X0194142Y0024572D01*
X0193414Y0024086D01*
X0192928Y0023358D01*
X0192757Y0022500D01*
X0192928Y0021642D01*
X0193414Y0020914D01*
X0194142Y0020428D01*
X0195000Y0020257D01*
X0195858Y0020428D01*
X0196586Y0020914D01*
X0197072Y0021642D01*
X0197243Y0022500D01*
X0197072Y0023358D01*
X0196586Y0024086D01*
X0195858Y0024572D01*
X0195000Y0024743D01*
D02*
G37*
G36*
X0187500D02*
X0186642Y0024572D01*
X0185914Y0024086D01*
X0185428Y0023358D01*
X0185257Y0022500D01*
X0185428Y0021642D01*
X0185914Y0020914D01*
X0186642Y0020428D01*
X0187500Y0020257D01*
X0188358Y0020428D01*
X0189086Y0020914D01*
X0189572Y0021642D01*
X0189743Y0022500D01*
X0189572Y0023358D01*
X0189086Y0024086D01*
X0188358Y0024572D01*
X0187500Y0024743D01*
D02*
G37*
G36*
X0180000D02*
X0179142Y0024572D01*
X0178414Y0024086D01*
X0177928Y0023358D01*
X0177757Y0022500D01*
X0177928Y0021642D01*
X0178414Y0020914D01*
X0179142Y0020428D01*
X0180000Y0020257D01*
X0180858Y0020428D01*
X0181586Y0020914D01*
X0182072Y0021642D01*
X0182243Y0022500D01*
X0182072Y0023358D01*
X0181586Y0024086D01*
X0180858Y0024572D01*
X0180000Y0024743D01*
D02*
G37*
G36*
X0172500D02*
X0171642Y0024572D01*
X0170914Y0024086D01*
X0170428Y0023358D01*
X0170257Y0022500D01*
X0170428Y0021642D01*
X0170914Y0020914D01*
X0171642Y0020428D01*
X0172500Y0020257D01*
X0173358Y0020428D01*
X0174086Y0020914D01*
X0174572Y0021642D01*
X0174743Y0022500D01*
X0174572Y0023358D01*
X0174086Y0024086D01*
X0173358Y0024572D01*
X0172500Y0024743D01*
D02*
G37*
G36*
X0165000D02*
X0164142Y0024572D01*
X0163414Y0024086D01*
X0162928Y0023358D01*
X0162757Y0022500D01*
X0162928Y0021642D01*
X0163414Y0020914D01*
X0164142Y0020428D01*
X0165000Y0020257D01*
X0165858Y0020428D01*
X0166586Y0020914D01*
X0167072Y0021642D01*
X0167243Y0022500D01*
X0167072Y0023358D01*
X0166586Y0024086D01*
X0165858Y0024572D01*
X0165000Y0024743D01*
D02*
G37*
G36*
X0157500D02*
X0156642Y0024572D01*
X0155914Y0024086D01*
X0155428Y0023358D01*
X0155257Y0022500D01*
X0155428Y0021642D01*
X0155914Y0020914D01*
X0156642Y0020428D01*
X0157500Y0020257D01*
X0158358Y0020428D01*
X0159086Y0020914D01*
X0159572Y0021642D01*
X0159743Y0022500D01*
X0159572Y0023358D01*
X0159086Y0024086D01*
X0158358Y0024572D01*
X0157500Y0024743D01*
D02*
G37*
G36*
X0150000D02*
X0149142Y0024572D01*
X0148414Y0024086D01*
X0147928Y0023358D01*
X0147757Y0022500D01*
X0147928Y0021642D01*
X0148414Y0020914D01*
X0149142Y0020428D01*
X0150000Y0020257D01*
X0150858Y0020428D01*
X0151586Y0020914D01*
X0152072Y0021642D01*
X0152243Y0022500D01*
X0152072Y0023358D01*
X0151586Y0024086D01*
X0150858Y0024572D01*
X0150000Y0024743D01*
D02*
G37*
G36*
X0142500D02*
X0141642Y0024572D01*
X0140914Y0024086D01*
X0140428Y0023358D01*
X0140257Y0022500D01*
X0140428Y0021642D01*
X0140914Y0020914D01*
X0141642Y0020428D01*
X0142500Y0020257D01*
X0143358Y0020428D01*
X0144086Y0020914D01*
X0144572Y0021642D01*
X0144743Y0022500D01*
X0144572Y0023358D01*
X0144086Y0024086D01*
X0143358Y0024572D01*
X0142500Y0024743D01*
D02*
G37*
G36*
X0135000D02*
X0134142Y0024572D01*
X0133414Y0024086D01*
X0132928Y0023358D01*
X0132757Y0022500D01*
X0132928Y0021642D01*
X0133414Y0020914D01*
X0134142Y0020428D01*
X0135000Y0020257D01*
X0135858Y0020428D01*
X0136586Y0020914D01*
X0137072Y0021642D01*
X0137243Y0022500D01*
X0137072Y0023358D01*
X0136586Y0024086D01*
X0135858Y0024572D01*
X0135000Y0024743D01*
D02*
G37*
G36*
X0127500D02*
X0126642Y0024572D01*
X0125914Y0024086D01*
X0125428Y0023358D01*
X0125257Y0022500D01*
X0125428Y0021642D01*
X0125914Y0020914D01*
X0126642Y0020428D01*
X0127500Y0020257D01*
X0128358Y0020428D01*
X0129086Y0020914D01*
X0129572Y0021642D01*
X0129743Y0022500D01*
X0129572Y0023358D01*
X0129086Y0024086D01*
X0128358Y0024572D01*
X0127500Y0024743D01*
D02*
G37*
G36*
X0120000D02*
X0119142Y0024572D01*
X0118414Y0024086D01*
X0117928Y0023358D01*
X0117757Y0022500D01*
X0117928Y0021642D01*
X0118414Y0020914D01*
X0119142Y0020428D01*
X0120000Y0020257D01*
X0120858Y0020428D01*
X0121586Y0020914D01*
X0122072Y0021642D01*
X0122243Y0022500D01*
X0122072Y0023358D01*
X0121586Y0024086D01*
X0120858Y0024572D01*
X0120000Y0024743D01*
D02*
G37*
G36*
X0112500D02*
X0111642Y0024572D01*
X0110914Y0024086D01*
X0110428Y0023358D01*
X0110257Y0022500D01*
X0110428Y0021642D01*
X0110914Y0020914D01*
X0111642Y0020428D01*
X0112500Y0020257D01*
X0113358Y0020428D01*
X0114086Y0020914D01*
X0114572Y0021642D01*
X0114743Y0022500D01*
X0114572Y0023358D01*
X0114086Y0024086D01*
X0113358Y0024572D01*
X0112500Y0024743D01*
D02*
G37*
G36*
X0105000D02*
X0104142Y0024572D01*
X0103414Y0024086D01*
X0102928Y0023358D01*
X0102757Y0022500D01*
X0102928Y0021642D01*
X0103414Y0020914D01*
X0104142Y0020428D01*
X0105000Y0020257D01*
X0105858Y0020428D01*
X0106586Y0020914D01*
X0107072Y0021642D01*
X0107243Y0022500D01*
X0107072Y0023358D01*
X0106586Y0024086D01*
X0105858Y0024572D01*
X0105000Y0024743D01*
D02*
G37*
G36*
X0097500D02*
X0096642Y0024572D01*
X0095914Y0024086D01*
X0095428Y0023358D01*
X0095257Y0022500D01*
X0095428Y0021642D01*
X0095914Y0020914D01*
X0096642Y0020428D01*
X0097500Y0020257D01*
X0098358Y0020428D01*
X0099086Y0020914D01*
X0099572Y0021642D01*
X0099743Y0022500D01*
X0099572Y0023358D01*
X0099086Y0024086D01*
X0098358Y0024572D01*
X0097500Y0024743D01*
D02*
G37*
G36*
X0045000D02*
X0044142Y0024572D01*
X0043414Y0024086D01*
X0042928Y0023358D01*
X0042757Y0022500D01*
X0042928Y0021642D01*
X0043414Y0020914D01*
X0044142Y0020428D01*
X0045000Y0020257D01*
X0045858Y0020428D01*
X0046586Y0020914D01*
X0047072Y0021642D01*
X0047243Y0022500D01*
X0047072Y0023358D01*
X0046586Y0024086D01*
X0045858Y0024572D01*
X0045000Y0024743D01*
D02*
G37*
G36*
X0131250Y0017243D02*
X0130392Y0017072D01*
X0129664Y0016586D01*
X0129178Y0015858D01*
X0129102Y0015479D01*
X0129056Y0015415D01*
X0128528Y0015155D01*
X0127676Y0015413D01*
X0126500Y0015529D01*
X0125324Y0015413D01*
X0124193Y0015070D01*
X0123151Y0014513D01*
X0122237Y0013763D01*
X0121487Y0012849D01*
X0120930Y0011807D01*
X0120587Y0010676D01*
X0120522Y0010017D01*
X0120120Y0009719D01*
X0120000Y0009743D01*
X0119142Y0009572D01*
X0118414Y0009086D01*
X0117928Y0008358D01*
X0117757Y0007500D01*
X0117928Y0006642D01*
X0118414Y0005914D01*
X0119142Y0005428D01*
X0120000Y0005257D01*
X0120858Y0005428D01*
X0121586Y0005914D01*
X0121677Y0005918D01*
X0122237Y0005237D01*
X0123151Y0004487D01*
X0124193Y0003930D01*
X0125324Y0003587D01*
X0126500Y0003471D01*
X0127676Y0003587D01*
X0128807Y0003930D01*
X0129850Y0004487D01*
X0130763Y0005237D01*
X0131513Y0006151D01*
X0132070Y0007193D01*
X0132413Y0008324D01*
X0132529Y0009500D01*
X0132413Y0010676D01*
X0132070Y0011807D01*
X0131730Y0012443D01*
X0131944Y0012895D01*
X0132108Y0012928D01*
X0132836Y0013414D01*
X0133322Y0014142D01*
X0133493Y0015000D01*
X0133322Y0015858D01*
X0132836Y0016586D01*
X0132108Y0017072D01*
X0131250Y0017243D01*
D02*
G37*
G36*
X0206250D02*
X0205392Y0017072D01*
X0204664Y0016586D01*
X0204178Y0015858D01*
X0204007Y0015000D01*
X0204178Y0014142D01*
X0204664Y0013414D01*
X0205392Y0012928D01*
X0206250Y0012757D01*
X0207108Y0012928D01*
X0207836Y0013414D01*
X0208322Y0014142D01*
X0208493Y0015000D01*
X0208322Y0015858D01*
X0207836Y0016586D01*
X0207108Y0017072D01*
X0206250Y0017243D01*
D02*
G37*
G36*
X0198750D02*
X0197892Y0017072D01*
X0197164Y0016586D01*
X0196678Y0015858D01*
X0196507Y0015000D01*
X0196678Y0014142D01*
X0197164Y0013414D01*
X0197892Y0012928D01*
X0198750Y0012757D01*
X0199608Y0012928D01*
X0200336Y0013414D01*
X0200822Y0014142D01*
X0200993Y0015000D01*
X0200822Y0015858D01*
X0200336Y0016586D01*
X0199608Y0017072D01*
X0198750Y0017243D01*
D02*
G37*
G36*
X0183750D02*
X0182892Y0017072D01*
X0182164Y0016586D01*
X0181678Y0015858D01*
X0181507Y0015000D01*
X0181678Y0014142D01*
X0182164Y0013414D01*
X0182892Y0012928D01*
X0183750Y0012757D01*
X0184608Y0012928D01*
X0185336Y0013414D01*
X0185822Y0014142D01*
X0185993Y0015000D01*
X0185822Y0015858D01*
X0185336Y0016586D01*
X0184608Y0017072D01*
X0183750Y0017243D01*
D02*
G37*
G36*
X0176250D02*
X0175392Y0017072D01*
X0174664Y0016586D01*
X0174178Y0015858D01*
X0174007Y0015000D01*
X0174178Y0014142D01*
X0174664Y0013414D01*
X0175392Y0012928D01*
X0176250Y0012757D01*
X0177108Y0012928D01*
X0177836Y0013414D01*
X0178322Y0014142D01*
X0178493Y0015000D01*
X0178322Y0015858D01*
X0177836Y0016586D01*
X0177108Y0017072D01*
X0176250Y0017243D01*
D02*
G37*
G36*
X0161250D02*
X0160392Y0017072D01*
X0159664Y0016586D01*
X0159178Y0015858D01*
X0159007Y0015000D01*
X0159178Y0014142D01*
X0159664Y0013414D01*
X0160392Y0012928D01*
X0161250Y0012757D01*
X0162108Y0012928D01*
X0162836Y0013414D01*
X0163322Y0014142D01*
X0163493Y0015000D01*
X0163322Y0015858D01*
X0162836Y0016586D01*
X0162108Y0017072D01*
X0161250Y0017243D01*
D02*
G37*
G36*
X0153750D02*
X0152892Y0017072D01*
X0152164Y0016586D01*
X0151678Y0015858D01*
X0151507Y0015000D01*
X0151678Y0014142D01*
X0152164Y0013414D01*
X0152892Y0012928D01*
X0153750Y0012757D01*
X0154608Y0012928D01*
X0155336Y0013414D01*
X0155822Y0014142D01*
X0155993Y0015000D01*
X0155822Y0015858D01*
X0155336Y0016586D01*
X0154608Y0017072D01*
X0153750Y0017243D01*
D02*
G37*
G36*
X0146250D02*
X0145392Y0017072D01*
X0144664Y0016586D01*
X0144178Y0015858D01*
X0144007Y0015000D01*
X0144178Y0014142D01*
X0144664Y0013414D01*
X0145392Y0012928D01*
X0146250Y0012757D01*
X0147108Y0012928D01*
X0147836Y0013414D01*
X0148322Y0014142D01*
X0148493Y0015000D01*
X0148322Y0015858D01*
X0147836Y0016586D01*
X0147108Y0017072D01*
X0146250Y0017243D01*
D02*
G37*
G36*
X0138750D02*
X0137892Y0017072D01*
X0137164Y0016586D01*
X0136678Y0015858D01*
X0136507Y0015000D01*
X0136678Y0014142D01*
X0137164Y0013414D01*
X0137892Y0012928D01*
X0138750Y0012757D01*
X0139608Y0012928D01*
X0140336Y0013414D01*
X0140822Y0014142D01*
X0140993Y0015000D01*
X0140822Y0015858D01*
X0140336Y0016586D01*
X0139608Y0017072D01*
X0138750Y0017243D01*
D02*
G37*
G36*
X0116250D02*
X0115392Y0017072D01*
X0114664Y0016586D01*
X0114178Y0015858D01*
X0114007Y0015000D01*
X0114178Y0014142D01*
X0114664Y0013414D01*
X0115392Y0012928D01*
X0116250Y0012757D01*
X0117108Y0012928D01*
X0117836Y0013414D01*
X0118322Y0014142D01*
X0118493Y0015000D01*
X0118322Y0015858D01*
X0117836Y0016586D01*
X0117108Y0017072D01*
X0116250Y0017243D01*
D02*
G37*
G36*
X0108750D02*
X0107892Y0017072D01*
X0107164Y0016586D01*
X0106678Y0015858D01*
X0106507Y0015000D01*
X0106678Y0014142D01*
X0107164Y0013414D01*
X0107892Y0012928D01*
X0108750Y0012757D01*
X0109608Y0012928D01*
X0110336Y0013414D01*
X0110822Y0014142D01*
X0110993Y0015000D01*
X0110822Y0015858D01*
X0110336Y0016586D01*
X0109608Y0017072D01*
X0108750Y0017243D01*
D02*
G37*
G36*
X0101250D02*
X0100392Y0017072D01*
X0099664Y0016586D01*
X0099178Y0015858D01*
X0099007Y0015000D01*
X0099178Y0014142D01*
X0099664Y0013414D01*
X0100392Y0012928D01*
X0101250Y0012757D01*
X0102108Y0012928D01*
X0102836Y0013414D01*
X0103322Y0014142D01*
X0103493Y0015000D01*
X0103322Y0015858D01*
X0102836Y0016586D01*
X0102108Y0017072D01*
X0101250Y0017243D01*
D02*
G37*
G36*
X0217500Y0009743D02*
X0216642Y0009572D01*
X0215914Y0009086D01*
X0215428Y0008358D01*
X0215257Y0007500D01*
X0215428Y0006642D01*
X0215914Y0005914D01*
X0216642Y0005428D01*
X0217500Y0005257D01*
X0218358Y0005428D01*
X0219086Y0005914D01*
X0219572Y0006642D01*
X0219743Y0007500D01*
X0219572Y0008358D01*
X0219086Y0009086D01*
X0218358Y0009572D01*
X0217500Y0009743D01*
D02*
G37*
G36*
X0210000D02*
X0209142Y0009572D01*
X0208414Y0009086D01*
X0207928Y0008358D01*
X0207757Y0007500D01*
X0207928Y0006642D01*
X0208414Y0005914D01*
X0209142Y0005428D01*
X0210000Y0005257D01*
X0210858Y0005428D01*
X0211586Y0005914D01*
X0212072Y0006642D01*
X0212243Y0007500D01*
X0212072Y0008358D01*
X0211586Y0009086D01*
X0210858Y0009572D01*
X0210000Y0009743D01*
D02*
G37*
G36*
X0202500D02*
X0201642Y0009572D01*
X0200914Y0009086D01*
X0200428Y0008358D01*
X0200257Y0007500D01*
X0200428Y0006642D01*
X0200914Y0005914D01*
X0201642Y0005428D01*
X0202500Y0005257D01*
X0203358Y0005428D01*
X0204086Y0005914D01*
X0204572Y0006642D01*
X0204743Y0007500D01*
X0204572Y0008358D01*
X0204086Y0009086D01*
X0203358Y0009572D01*
X0202500Y0009743D01*
D02*
G37*
G36*
X0150000D02*
X0149142Y0009572D01*
X0148414Y0009086D01*
X0147928Y0008358D01*
X0147757Y0007500D01*
X0147928Y0006642D01*
X0148414Y0005914D01*
X0149142Y0005428D01*
X0150000Y0005257D01*
X0150858Y0005428D01*
X0151586Y0005914D01*
X0152072Y0006642D01*
X0152243Y0007500D01*
X0152072Y0008358D01*
X0151586Y0009086D01*
X0150858Y0009572D01*
X0150000Y0009743D01*
D02*
G37*
G36*
X0142500D02*
X0141642Y0009572D01*
X0140914Y0009086D01*
X0140428Y0008358D01*
X0140257Y0007500D01*
X0140428Y0006642D01*
X0140914Y0005914D01*
X0141642Y0005428D01*
X0142500Y0005257D01*
X0143358Y0005428D01*
X0144086Y0005914D01*
X0144572Y0006642D01*
X0144743Y0007500D01*
X0144572Y0008358D01*
X0144086Y0009086D01*
X0143358Y0009572D01*
X0142500Y0009743D01*
D02*
G37*
G36*
X0112500D02*
X0111642Y0009572D01*
X0110914Y0009086D01*
X0110428Y0008358D01*
X0110257Y0007500D01*
X0110428Y0006642D01*
X0110914Y0005914D01*
X0111642Y0005428D01*
X0112500Y0005257D01*
X0113358Y0005428D01*
X0114086Y0005914D01*
X0114572Y0006642D01*
X0114743Y0007500D01*
X0114572Y0008358D01*
X0114086Y0009086D01*
X0113358Y0009572D01*
X0112500Y0009743D01*
D02*
G37*
G36*
X0252167Y0015529D02*
X0250991Y0015413D01*
X0249859Y0015070D01*
X0248817Y0014513D01*
X0247903Y0013763D01*
X0247154Y0012849D01*
X0246597Y0011807D01*
X0246253Y0010676D01*
X0246138Y0009500D01*
X0246253Y0008324D01*
X0246597Y0007193D01*
X0247154Y0006151D01*
X0247903Y0005237D01*
X0248817Y0004487D01*
X0249859Y0003930D01*
X0250991Y0003587D01*
X0252167Y0003471D01*
X0253343Y0003587D01*
X0254474Y0003930D01*
X0255516Y0004487D01*
X0256430Y0005237D01*
X0257180Y0006151D01*
X0257737Y0007193D01*
X0258080Y0008324D01*
X0258196Y0009500D01*
X0258080Y0010676D01*
X0257737Y0011807D01*
X0257180Y0012849D01*
X0256430Y0013763D01*
X0255516Y0014513D01*
X0254474Y0015070D01*
X0253343Y0015413D01*
X0252167Y0015529D01*
D02*
G37*
G36*
X0231000D02*
X0229824Y0015413D01*
X0228693Y0015070D01*
X0227650Y0014513D01*
X0226737Y0013763D01*
X0225987Y0012849D01*
X0225430Y0011807D01*
X0225087Y0010676D01*
X0224971Y0009500D01*
X0225087Y0008324D01*
X0225430Y0007193D01*
X0225987Y0006151D01*
X0226737Y0005237D01*
X0227650Y0004487D01*
X0228693Y0003930D01*
X0229824Y0003587D01*
X0231000Y0003471D01*
X0232176Y0003587D01*
X0233307Y0003930D01*
X0234349Y0004487D01*
X0235263Y0005237D01*
X0236013Y0006151D01*
X0236570Y0007193D01*
X0236913Y0008324D01*
X0237029Y0009500D01*
X0236913Y0010676D01*
X0236570Y0011807D01*
X0236013Y0012849D01*
X0235263Y0013763D01*
X0234349Y0014513D01*
X0233307Y0015070D01*
X0232176Y0015413D01*
X0231000Y0015529D01*
D02*
G37*
G36*
X0073000D02*
X0071824Y0015413D01*
X0070693Y0015070D01*
X0069651Y0014513D01*
X0068737Y0013763D01*
X0067987Y0012849D01*
X0067430Y0011807D01*
X0067087Y0010676D01*
X0066971Y0009500D01*
X0067087Y0008324D01*
X0067430Y0007193D01*
X0067987Y0006151D01*
X0068737Y0005237D01*
X0069651Y0004487D01*
X0070693Y0003930D01*
X0071824Y0003587D01*
X0073000Y0003471D01*
X0074176Y0003587D01*
X0075307Y0003930D01*
X0076350Y0004487D01*
X0077263Y0005237D01*
X0078013Y0006151D01*
X0078570Y0007193D01*
X0078913Y0008324D01*
X0079029Y0009500D01*
X0078913Y0010676D01*
X0078570Y0011807D01*
X0078013Y0012849D01*
X0077263Y0013763D01*
X0076350Y0014513D01*
X0075307Y0015070D01*
X0074176Y0015413D01*
X0073000Y0015529D01*
D02*
G37*
%LPD*%
D48*
X0294500Y0109500D02*
D03*
X0273333Y0009500D02*
D03*
X0090000D02*
D03*
D49*
X0022500Y0086583D02*
D03*
D50*
X0311250Y0105000D02*
D03*
X0307500Y0097500D02*
D03*
X0311250Y0090000D02*
D03*
X0307500Y0082500D02*
D03*
X0311250Y0075000D02*
D03*
X0307500Y0067500D02*
D03*
X0311250Y0060000D02*
D03*
X0307500Y0052500D02*
D03*
X0311250Y0045000D02*
D03*
X0307500Y0037500D02*
D03*
X0311250Y0030000D02*
D03*
Y0015000D02*
D03*
X0307500Y0007500D02*
D03*
X0303750Y0105000D02*
D03*
Y0090000D02*
D03*
Y0075000D02*
D03*
X0300000Y0067500D02*
D03*
X0303750Y0060000D02*
D03*
X0300000Y0052500D02*
D03*
X0303750Y0045000D02*
D03*
Y0030000D02*
D03*
Y0015000D02*
D03*
X0300000Y0007500D02*
D03*
X0296250Y0075000D02*
D03*
X0292500Y0067500D02*
D03*
X0296250Y0060000D02*
D03*
X0292500Y0052500D02*
D03*
X0296250Y0045000D02*
D03*
X0292500Y0022500D02*
D03*
X0296250Y0015000D02*
D03*
X0292500Y0007500D02*
D03*
X0288750Y0105000D02*
D03*
X0285000Y0097500D02*
D03*
X0288750Y0075000D02*
D03*
X0285000Y0067500D02*
D03*
X0288750Y0060000D02*
D03*
X0285000Y0052500D02*
D03*
X0288750Y0045000D02*
D03*
X0285000Y0022500D02*
D03*
X0288750Y0015000D02*
D03*
X0285000Y0007500D02*
D03*
X0281250Y0105000D02*
D03*
Y0030000D02*
D03*
Y0015000D02*
D03*
X0273750Y0030000D02*
D03*
X0266250Y0105000D02*
D03*
X0262500Y0097500D02*
D03*
X0266250Y0075000D02*
D03*
Y0030000D02*
D03*
Y0015000D02*
D03*
X0262500Y0007500D02*
D03*
X0258750Y0105000D02*
D03*
X0255000Y0067500D02*
D03*
X0258750Y0030000D02*
D03*
X0247500Y0097500D02*
D03*
Y0067500D02*
D03*
Y0052500D02*
D03*
X0251250Y0030000D02*
D03*
X0243750Y0105000D02*
D03*
X0240000Y0022500D02*
D03*
X0243750Y0015000D02*
D03*
X0240000Y0007500D02*
D03*
X0236250Y0105000D02*
D03*
X0232500Y0037500D02*
D03*
X0225000Y0022500D02*
D03*
D51*
X0293996Y0030118D02*
D03*
Y0087992D02*
D03*
D52*
X0089622Y0067243D02*
D03*
X0204201Y0101300D02*
D03*
X0213500Y0010850D02*
D03*
X0101500Y0050000D02*
D03*
X0050000Y0053000D02*
D03*
X0049500Y0032500D02*
D03*
X0204299Y0087800D02*
D03*
X0234000Y0058692D02*
D03*
X0159000Y0009000D02*
D03*
X0065000Y0113312D02*
D03*
X0299000Y0025000D02*
D03*
X0289000D02*
D03*
X0293996Y0025118D02*
D03*
X0289000Y0037000D02*
D03*
X0299000D02*
D03*
X0293996Y0037118D02*
D03*
X0299000Y0093500D02*
D03*
X0293996Y0093492D02*
D03*
X0289000Y0093500D02*
D03*
Y0081000D02*
D03*
X0299000D02*
D03*
X0293996Y0080992D02*
D03*
X0067378Y0063500D02*
D03*
X0267000Y0055000D02*
D03*
X0254000Y0055201D02*
D03*
X0073000Y0107250D02*
D03*
Y0104000D02*
D03*
Y0110500D02*
D03*
X0111500Y0093500D02*
D03*
X0104500Y0100500D02*
D03*
X0118500D02*
D03*
Y0110000D02*
D03*
X0104500D02*
D03*
Y0105126D02*
D03*
X0118500D02*
D03*
X0089622Y0018500D02*
D03*
X0060378Y0023000D02*
D03*
M02*
