M48
;Layer_Color=9474304
;FILE_FORMAT=2:5
INCH
;TYPE=PLATED
T1F00S00C0.01200
T2F00S00C0.03200
T3F00S00C0.04016
T4F00S00C0.05217
%
T01
X0045000Y0022500
X0049500Y0032500
X0045000Y0037500
X0037500
X0048750Y0045000
X0050000Y0053000
X0060000Y0052500
Y0037500
X0060378Y0033000
Y0023000
X0075000Y0037500
X0082500
X0078750Y0045000
X0074378Y0048000
X0096622
Y0043000
Y0033000
X0097500Y0022500
X0105000
X0112500
X0120000
X0127500
X0135000
X0142500
X0150000
X0153750Y0030000
X0146250
X0138750
X0131250
X0123750
X0116250
X0108750
X0112500Y0037500
X0120000
X0127500
X0135000
X0142500
X0150000
X0153750Y0045000
X0146250
X0138750
X0131250
X0123750
X0116250
X0101500Y0050000
X0089622Y0067243
X0067378Y0063500
X0073000Y0104000
Y0107250
Y0110500
X0065000Y0113312
X0104500Y0110000
Y0105126
Y0100500
X0111500Y0093500
X0118500Y0100500
Y0105126
Y0110000
X0116250Y0015000
X0108750
X0101250
X0089622Y0018500
X0112500Y0007500
X0120000
X0131250Y0015000
X0138750
X0146250
X0153750
X0150000Y0007500
X0142500
X0159000Y0009000
X0161250Y0015000
X0165000Y0022500
X0172500
X0180000
X0187500
X0195000
X0202500
X0206250Y0015000
X0198750
X0202500Y0007500
X0210000
X0213500Y0010850
X0217500Y0007500
X0240000
X0243750Y0015000
X0240000Y0022500
X0225000
X0220701Y0031100
X0213750Y0030000
X0217500Y0037500
X0210000
X0213750Y0045000
X0220701Y0042600
X0217500Y0052500
X0210000
X0202500
X0198750Y0045000
X0191250
Y0060000
X0202500Y0067500
X0210000
X0220701Y0065000
Y0076300
Y0087600
X0204299Y0087800
X0204201Y0101300
X0236250Y0105000
X0243750
X0247500Y0097500
X0262500
X0266250Y0105000
X0258750
X0281250
X0288750
X0285000Y0097500
X0289000Y0093500
X0293996Y0093492
X0299000Y0093500
X0303750Y0090000
X0311250
X0307500Y0097500
X0311250Y0105000
X0303750
X0307500Y0082500
X0299000Y0081000
X0293996Y0080992
X0289000Y0081000
X0288750Y0075000
X0296250
X0303750
X0311250
X0307500Y0067500
X0300000
X0292500
X0285000
X0283862Y0063000
X0288750Y0060000
X0296250
X0303750
X0311250
X0307500Y0052500
X0300000
X0292500
X0285000
X0288750Y0045000
X0296250
X0303750
X0311250
X0307500Y0037500
X0299000Y0037000
X0293996Y0037118
X0289000Y0037000
Y0025000
X0293996Y0025118
X0292500Y0022500
X0285000
X0288750Y0015000
X0296250
X0303750
X0311250
X0307500Y0007500
X0300000
X0292500
X0285000
X0281250Y0015000
Y0030000
X0273750
X0266250
X0258750
X0251250
X0247500Y0052500
X0254000Y0055201
X0267000Y0055000
X0266250Y0075000
X0255000Y0067500
X0247500
X0234000Y0058692
X0232500Y0037500
X0180000
X0172500
X0165000
X0157500
X0161250Y0045000
X0168750
X0176250
Y0030000
X0183750
Y0015000
X0176250
X0168750Y0030000
X0161250
X0157500Y0022500
X0266250Y0015000
X0262500Y0007500
X0299000Y0025000
X0303750Y0030000
X0311250
T02
X0293996Y0030118
Y0087992
T03
X0073000Y0009500
X0090000
X0126500
X0059500Y0075000
X0228000Y0100500
X0252167Y0109500
X0273333
X0294500
X0273333Y0009500
X0252167
X0231000
T04
X0022500Y0027528
Y0047213
Y0066898
Y0086583
M30
