M48
INCH
T01C0.0157
T02C0.0276
T03C0.0315
T04C0.0433
T05C0.1181
%
T01
X+017991Y+010492
X+017061Y+010567
X+016953Y+009574
X+018421Y+009191
X+018859Y+009198
X+019646Y+009355
X+019959Y+009482
X+020679Y+010042
X+022504Y+009413
X+023001Y+009390
X+023136Y+007368
X+022185Y+007349
X+022020Y+004391
X+023795Y+011571
X+021717Y+013379
X+021649Y+014130
X+021135Y+014188
X+020649Y+014021
X+020630Y+014950
X+020954Y+015230
X+021589Y+015201
X+022045Y+015209
X+022877Y+014736
X+024744Y+014713
X+018230Y+014118
X+017392Y+014095
X+016682Y+013983
X+016170Y+013953
X+015910Y+013107
X+016027Y+012712
X+017136Y+011612
X+015697Y+010975
X+015118Y+011084
X+013839Y+012073
X+014119Y+013906
X+013355Y+013906
X+012610Y+013910
X+011860Y+013906
X+011096Y+013912
X+010423Y+013902
X+009604Y+013914
X+008863Y+013940
X+008538Y+013264
X+007803Y+013819
X+009796Y+011641
X+009976Y+008691
X+011143Y+008187
X+010804Y+006460
X+009397Y+007308
X+014848Y+015307
X+016239Y+015655
X+016377Y+015128
X+017094Y+014860
X+016914Y+017025
X+018530Y+016949
X+012231Y+017257
X+012220Y+016783
X+012206Y+017785
X+010847Y+018516
X+007903Y+017564
T02
X+012928Y+007393
X+012928Y+006606
X+015380Y+006654
X+015380Y+007442
T03
X+004703Y+010681
X+005474Y+010681
X+006241Y+010682
X+006964Y+010681
X+007717Y+010666
X+008486Y+010650
X+005490Y+009830
X+004767Y+009886
X+004759Y+009001
X+005489Y+008987
X+005473Y+008160
X+004758Y+008160
X+004685Y+007314
X+005491Y+007347
X+005508Y+006500
X+006275Y+006517
X+007016Y+006515
X+007800Y+006517
X+008534Y+006514
X+004718Y+006480
T04
X+012259Y+007984
X+014710Y+008032
T05
X+005251Y+018507
X+005072Y+004974
X+025226Y+005224
X+025173Y+018567
T00
M30
