G04 DipTrace 3.2.0.1*
G04 TopSilk.gbr*
%MOIN*%
G04 #@! TF.FileFunction,Legend,Top*
G04 #@! TF.Part,Single*
%ADD10C,0.009843*%
%ADD22C,0.015415*%
%ADD34C,0.02075*%
%ADD37C,0.02501*%
%ADD39C,0.015408*%
%ADD96C,0.005906*%
%FSLAX26Y26*%
G04*
G70*
G90*
G75*
G01*
G04 TopSilk*
%LPD*%
X1149743Y1217825D2*
D10*
X921396D1*
Y1007196D1*
X1149743D1*
Y1217825D1*
X1122181Y1042623D2*
X1086742D1*
X1104462Y1062317D2*
Y1024910D1*
D22*
X968650Y1751591D3*
X981775Y1785992D2*
D10*
X1060522D1*
Y1805667D1*
X981775D1*
Y1785992D1*
X2406419Y433497D2*
X2050119D1*
Y720899D1*
X2406419D1*
Y433497D1*
X1397125Y818095D2*
X1188454D1*
Y581869D1*
X1397125D1*
Y818095D1*
X1642297Y822915D2*
X1433626D1*
Y586689D1*
X1642297D1*
Y822915D1*
X1939839Y1632507D2*
X1620941D1*
Y1927782D1*
X1939839D1*
Y1632507D1*
X2475898Y1522323D2*
X1964087D1*
Y1807756D1*
X2475898D1*
Y1522323D1*
X1506675Y1368432D2*
X1221241D1*
Y856621D1*
X1506675D1*
Y1368432D1*
X931692Y1882209D2*
X644290D1*
Y1525909D1*
X931692D1*
Y1882209D1*
X759185Y1514159D2*
X471783D1*
Y1157860D1*
X759185D1*
Y1514159D1*
X1740379Y441382D2*
X2023844D1*
Y874453D1*
X1740379D1*
Y441382D1*
X2500583Y1106744D2*
X2205307D1*
Y787846D1*
X2500583D1*
Y1106744D1*
X2202919Y1445059D2*
X2521816D1*
Y1149783D1*
X2202919D1*
Y1445059D1*
X1734854Y1383871D2*
X2045854D1*
Y1072871D1*
X1734854D1*
Y1383871D1*
G36*
D2*
Y1347621D1*
X1771104Y1383871D1*
X1734854D1*
G37*
D34*
X1672629Y1420171D3*
X1195269Y1641907D2*
D10*
Y1866913D1*
X1345270D1*
Y1641907D1*
X1295279D1*
X1195269D2*
X1245259D1*
X1295279D2*
G03X1245259Y1641907I-25010J-4D01*
G01*
D37*
X1391035Y1633050D3*
X924385Y743309D2*
D10*
Y1003151D1*
X648796Y743309D2*
X924385D1*
X648796D2*
Y751174D1*
Y1003151D2*
X924385D1*
X648796D2*
Y995286D1*
D39*
X1039331Y744242D3*
X1018961Y1266718D2*
D96*
X1017060Y1270521D1*
X1013213Y1274368D1*
X1009411Y1276269D1*
X1001761D1*
X997914Y1274368D1*
X994112Y1270521D1*
X992166Y1266718D1*
X990265Y1260970D1*
Y1251375D1*
X992166Y1245672D1*
X994112Y1241825D1*
X997914Y1238022D1*
X1001761Y1236077D1*
X1009411D1*
X1013213Y1238022D1*
X1017060Y1241825D1*
X1018961Y1245672D1*
X1030772Y1268575D2*
X1034619Y1270521D1*
X1040367Y1276225D1*
Y1236077D1*
X1071323D2*
Y1276225D1*
X1052178Y1249474D1*
X1080874D1*
X902500Y1771729D2*
X942692D1*
Y1785127D1*
X940746Y1790875D1*
X936944Y1794721D1*
X933097Y1796623D1*
X927393Y1798524D1*
X917798D1*
X912050Y1796623D1*
X908248Y1794721D1*
X904401Y1790875D1*
X902500Y1785127D1*
Y1771729D1*
X910193Y1810335D2*
X908248Y1814182D1*
X902544Y1819930D1*
X942692D1*
X1185671Y1588161D2*
Y1547969D1*
X1199069D1*
X1204817Y1549915D1*
X1208663Y1553717D1*
X1210565Y1557564D1*
X1212466Y1563268D1*
Y1572863D1*
X1210565Y1578611D1*
X1208663Y1582413D1*
X1204817Y1586260D1*
X1199069Y1588161D1*
X1185671D1*
X1226222Y1578566D2*
Y1580468D1*
X1228124Y1584314D1*
X1230025Y1586216D1*
X1233872Y1588117D1*
X1241521D1*
X1245324Y1586216D1*
X1247225Y1584314D1*
X1249170Y1580468D1*
Y1576665D1*
X1247225Y1572818D1*
X1243422Y1567115D1*
X1224277Y1547969D1*
X1251072D1*
X1048809Y1582135D2*
Y1541943D1*
X1062206D1*
X1067954Y1543888D1*
X1071801Y1547691D1*
X1073702Y1551538D1*
X1075604Y1557242D1*
Y1566836D1*
X1073702Y1572584D1*
X1071801Y1576387D1*
X1067954Y1580234D1*
X1062206Y1582135D1*
X1048809D1*
X1091261Y1582091D2*
X1112264D1*
X1100812Y1566792D1*
X1106560D1*
X1110363Y1564891D1*
X1112264Y1562990D1*
X1114209Y1557242D1*
Y1553439D1*
X1112264Y1547691D1*
X1108461Y1543844D1*
X1102713Y1541943D1*
X1096965D1*
X1091261Y1543844D1*
X1089360Y1545790D1*
X1087415Y1549592D1*
X944152Y1586247D2*
Y1546055D1*
X957550D1*
X963298Y1548000D1*
X967144Y1551803D1*
X969046Y1555649D1*
X970947Y1561353D1*
Y1570948D1*
X969046Y1576696D1*
X967144Y1580498D1*
X963298Y1584345D1*
X957550Y1586247D1*
X944152D1*
X1001903Y1546055D2*
Y1586202D1*
X982758Y1559452D1*
X1011454D1*
X1332386Y1591729D2*
Y1551537D1*
X1345784D1*
X1351532Y1553483D1*
X1355379Y1557285D1*
X1357280Y1561132D1*
X1359181Y1566836D1*
Y1576431D1*
X1357280Y1582179D1*
X1355379Y1585981D1*
X1351532Y1589828D1*
X1345784Y1591729D1*
X1332386D1*
X1393940Y1591685D2*
X1374839D1*
X1372938Y1574485D1*
X1374839Y1576387D1*
X1380587Y1578332D1*
X1386291D1*
X1392039Y1576387D1*
X1395886Y1572584D1*
X1397787Y1566836D1*
Y1563034D1*
X1395886Y1557285D1*
X1392039Y1553439D1*
X1386291Y1551537D1*
X1380587D1*
X1374839Y1553439D1*
X1372938Y1555384D1*
X1370992Y1559187D1*
X962595Y627286D2*
Y587094D1*
X975993D1*
X981741Y589039D1*
X985588Y592842D1*
X987489Y596689D1*
X989390Y602392D1*
Y611987D1*
X987489Y617735D1*
X985588Y621538D1*
X981741Y625385D1*
X975993Y627286D1*
X962595D1*
X1024149Y621538D2*
X1022248Y625340D1*
X1016500Y627242D1*
X1012697D1*
X1006949Y625340D1*
X1003102Y619592D1*
X1001201Y610042D1*
Y600491D1*
X1003102Y592842D1*
X1006949Y588995D1*
X1012697Y587094D1*
X1014598D1*
X1020302Y588995D1*
X1024149Y592842D1*
X1026050Y598590D1*
Y600491D1*
X1024149Y606239D1*
X1020302Y610042D1*
X1014598Y611943D1*
X1012697D1*
X1006949Y610042D1*
X1003102Y606239D1*
X1001201Y600491D1*
X2073697Y785660D2*
Y755063D1*
X2071795Y749315D1*
X2069850Y747413D1*
X2066047Y745468D1*
X2062200D1*
X2058398Y747413D1*
X2056497Y749315D1*
X2054551Y755063D1*
Y758865D1*
X2085508Y777966D2*
X2089354Y779912D1*
X2095102Y785616D1*
Y745468D1*
X1161507Y877080D2*
Y846483D1*
X1159606Y840735D1*
X1157661Y838833D1*
X1153858Y836888D1*
X1150011D1*
X1146209Y838833D1*
X1144307Y840735D1*
X1142362Y846483D1*
Y850285D1*
X1175264Y867485D2*
Y869386D1*
X1177165Y873233D1*
X1179066Y875134D1*
X1182913Y877036D1*
X1190562D1*
X1194365Y875134D1*
X1196266Y873233D1*
X1198212Y869386D1*
Y865584D1*
X1196266Y861737D1*
X1192464Y856033D1*
X1173318Y836888D1*
X1200113D1*
X1540648Y885727D2*
Y855130D1*
X1538747Y849382D1*
X1536801Y847480D1*
X1532998Y845535D1*
X1529152D1*
X1525349Y847480D1*
X1523448Y849382D1*
X1521502Y855130D1*
Y858932D1*
X1556306Y885683D2*
X1577308D1*
X1565856Y870384D1*
X1571604D1*
X1575407Y868483D1*
X1577308Y866581D1*
X1579253Y860833D1*
Y857031D1*
X1577308Y851283D1*
X1573505Y847436D1*
X1567757Y845535D1*
X1562009D1*
X1556306Y847436D1*
X1554404Y849382D1*
X1552459Y853184D1*
X1560450Y1917250D2*
Y1886653D1*
X1558548Y1880905D1*
X1556603Y1879004D1*
X1552800Y1877058D1*
X1548954D1*
X1545151Y1879004D1*
X1543250Y1880905D1*
X1541304Y1886653D1*
Y1890456D1*
X1595209Y1917206D2*
X1576107D1*
X1574206Y1900006D1*
X1576107Y1901908D1*
X1581855Y1903853D1*
X1587559D1*
X1593307Y1901908D1*
X1597154Y1898105D1*
X1599055Y1892357D1*
Y1888555D1*
X1597154Y1882806D1*
X1593307Y1878960D1*
X1587559Y1877058D1*
X1581855D1*
X1576107Y1878960D1*
X1574206Y1880905D1*
X1572261Y1884708D1*
X2211235Y1866199D2*
Y1835602D1*
X2209333Y1829854D1*
X2207388Y1827953D1*
X2203585Y1826007D1*
X2199739D1*
X2195936Y1827953D1*
X2194035Y1829854D1*
X2192089Y1835602D1*
Y1839405D1*
X2245994Y1860451D2*
X2244092Y1864254D1*
X2238344Y1866155D1*
X2234542D1*
X2228794Y1864254D1*
X2224947Y1858506D1*
X2223046Y1848955D1*
Y1839405D1*
X2224947Y1831755D1*
X2228794Y1827909D1*
X2234542Y1826007D1*
X2236443D1*
X2242147Y1827909D1*
X2245994Y1831755D1*
X2247895Y1837503D1*
Y1839405D1*
X2245994Y1845153D1*
X2242147Y1848955D1*
X2236443Y1850856D1*
X2234542D1*
X2228794Y1848955D1*
X2224947Y1845153D1*
X2223046Y1839405D1*
X1367625Y1425201D2*
Y1394603D1*
X1365724Y1388855D1*
X1363779Y1386954D1*
X1359976Y1385009D1*
X1356129D1*
X1352327Y1386954D1*
X1350426Y1388855D1*
X1348480Y1394603D1*
Y1398406D1*
X1387086Y1385009D2*
X1406231Y1425156D1*
X1379437D1*
X778283Y1940652D2*
Y1910055D1*
X776381Y1904307D1*
X774436Y1902406D1*
X770633Y1900460D1*
X766787D1*
X762984Y1902406D1*
X761083Y1904307D1*
X759137Y1910055D1*
Y1913857D1*
X799644Y1940608D2*
X793941Y1938707D1*
X791995Y1934904D1*
Y1931057D1*
X793941Y1927255D1*
X797743Y1925309D1*
X805392Y1923408D1*
X811140Y1921507D1*
X814943Y1917660D1*
X816844Y1913857D1*
Y1908109D1*
X814943Y1904307D1*
X813042Y1902361D1*
X807294Y1900460D1*
X799644D1*
X793941Y1902361D1*
X791995Y1904307D1*
X790094Y1908109D1*
Y1913857D1*
X791995Y1917660D1*
X795842Y1921507D1*
X801546Y1923408D1*
X809195Y1925309D1*
X813042Y1927255D1*
X814943Y1931057D1*
Y1934904D1*
X813042Y1938707D1*
X807294Y1940608D1*
X799644D1*
X507419Y1579172D2*
Y1548575D1*
X505517Y1542826D1*
X503572Y1540925D1*
X499769Y1538980D1*
X495923D1*
X492120Y1540925D1*
X490219Y1542826D1*
X488273Y1548575D1*
Y1552377D1*
X544123Y1565774D2*
X542178Y1560026D1*
X538375Y1556180D1*
X532627Y1554278D1*
X530726D1*
X524978Y1556180D1*
X521175Y1560026D1*
X519230Y1565774D1*
Y1567676D1*
X521175Y1573424D1*
X524978Y1577226D1*
X530726Y1579127D1*
X532627D1*
X538375Y1577226D1*
X542178Y1573424D1*
X544123Y1565774D1*
Y1556180D1*
X542178Y1546629D1*
X538375Y1540881D1*
X532627Y1538980D1*
X528824D1*
X523076Y1540881D1*
X521175Y1544728D1*
X1675036Y480423D2*
X1705633D1*
X1711381Y478522D1*
X1713282Y476576D1*
X1715228Y472774D1*
Y468927D1*
X1713282Y465124D1*
X1711381Y463223D1*
X1705633Y461278D1*
X1701830D1*
X1682729Y492234D2*
X1680784Y496081D1*
X1675080Y501829D1*
X1715228D1*
X1682729Y513640D2*
X1680784Y517486D1*
X1675080Y523234D1*
X1715228D1*
X2522000Y1055027D2*
X2552597D1*
X2558346Y1053126D1*
X2560247Y1051180D1*
X2562192Y1047378D1*
Y1043531D1*
X2560247Y1039729D1*
X2558345Y1037827D1*
X2552597Y1035882D1*
X2548795D1*
X2529694Y1066838D2*
X2527748Y1070685D1*
X2522044Y1076433D1*
X2562192D1*
Y1107389D2*
X2522044D1*
X2548795Y1088244D1*
Y1116940D1*
X2378335Y1503502D2*
Y1472905D1*
X2376433Y1467157D1*
X2374488Y1465256D1*
X2370685Y1463310D1*
X2366839D1*
X2363036Y1465256D1*
X2361135Y1467157D1*
X2359189Y1472905D1*
Y1476708D1*
X2390146Y1495809D2*
X2393992Y1497754D1*
X2399740Y1503458D1*
Y1463310D1*
X2434499Y1503458D2*
X2415398D1*
X2413497Y1486258D1*
X2415398Y1488160D1*
X2421146Y1490105D1*
X2426850D1*
X2432598Y1488160D1*
X2436445Y1484357D1*
X2438346Y1478609D1*
Y1474806D1*
X2436445Y1469058D1*
X2432598Y1465212D1*
X2426850Y1463310D1*
X2421146D1*
X2415398Y1465212D1*
X2413497Y1467157D1*
X2411551Y1470960D1*
X828223Y1273882D2*
X824377Y1270080D1*
X822475Y1264332D1*
Y1256682D1*
X824377Y1250934D1*
X828223Y1247088D1*
X832026D1*
X835873Y1249033D1*
X837774Y1250934D1*
X839675Y1254737D1*
X843522Y1266233D1*
X845423Y1270080D1*
X847369Y1271981D1*
X851171Y1273882D1*
X856919D1*
X860722Y1270080D1*
X862667Y1264332D1*
Y1256682D1*
X860722Y1250934D1*
X856919Y1247088D1*
X830169Y1285693D2*
X828223Y1289540D1*
X822520Y1295288D1*
X862667D1*
X1641221Y1041407D2*
X1637419Y1045253D1*
X1631671Y1047155D1*
X1624021D1*
X1618273Y1045253D1*
X1614427Y1041407D1*
Y1037604D1*
X1616372Y1033757D1*
X1618273Y1031856D1*
X1622076Y1029955D1*
X1633572Y1026108D1*
X1637419Y1024207D1*
X1639320Y1022261D1*
X1641221Y1018459D1*
Y1012711D1*
X1637419Y1008908D1*
X1631671Y1006963D1*
X1624021D1*
X1618273Y1008908D1*
X1614427Y1012711D1*
X1672178Y1006963D2*
Y1047110D1*
X1653032Y1020360D1*
X1681728D1*
X1866254Y1536815D2*
Y1508119D1*
X1868155Y1502371D1*
X1872002Y1498568D1*
X1877750Y1496623D1*
X1881553D1*
X1887301Y1498568D1*
X1891147Y1502371D1*
X1893049Y1508119D1*
Y1536815D1*
X1904860Y1529121D2*
X1908707Y1531067D1*
X1914455Y1536771D1*
Y1496623D1*
X1237569Y1925356D2*
Y1896660D1*
X1239470Y1890912D1*
X1243317Y1887110D1*
X1249065Y1885164D1*
X1252867D1*
X1258615Y1887110D1*
X1262462Y1890912D1*
X1264364Y1896660D1*
Y1925356D1*
X1278120Y1915761D2*
Y1917663D1*
X1280021Y1921509D1*
X1281923Y1923411D1*
X1285769Y1925312D1*
X1293419D1*
X1297221Y1923411D1*
X1299122Y1921509D1*
X1301068Y1917663D1*
Y1913860D1*
X1299122Y1910013D1*
X1295320Y1904309D1*
X1276175Y1885164D1*
X1302969D1*
X797217Y1061594D2*
Y1032898D1*
X799118Y1027150D1*
X802965Y1023348D1*
X808713Y1021402D1*
X812516D1*
X818264Y1023348D1*
X822111Y1027150D1*
X824012Y1032898D1*
Y1061594D1*
X839670Y1061550D2*
X860672D1*
X849220Y1046251D1*
X854968D1*
X858771Y1044350D1*
X860672Y1042449D1*
X862618Y1036701D1*
Y1032898D1*
X860672Y1027150D1*
X856869Y1023304D1*
X851121Y1021402D1*
X845373D1*
X839670Y1023304D1*
X837768Y1025249D1*
X835823Y1029052D1*
X1527259Y1491463D2*
X1546404Y1506762D1*
X1567451D1*
X1527259Y1522060D2*
X1546404Y1506762D1*
X1534952Y1533871D2*
X1533007Y1537718D1*
X1527303Y1543466D1*
X1567451D1*
M02*
