G04 DipTrace 3.2.0.1*
G04 Plated_Through.gbr*
%MOIN*%
G04 #@! TF.FileFunction,Plated,1,2,PTH,Drill*
G04 #@! TF.Part,Single*
G04 Drill Symbols*
G04 D=0.015748 - Cross*
G04 D=0.027559 - X*
G04 D=0.035433 - Y*
G04 D=0.043307 - T*
G04 D=0.11811 - V*
%ADD10C,0.007874*%
%FSLAX26Y26*%
G04*
G70*
G90*
G75*
G01*
X1813924Y629906D2*
D10*
X1861168Y582661D1*
Y629906D2*
X1813924Y582661D1*
Y708646D2*
X1861168Y661402D1*
Y708646D2*
X1813924Y661402D1*
Y787386D2*
X1861168Y740142D1*
Y787386D2*
X1813924Y740142D1*
X720079Y554823D2*
X767323Y507579D1*
Y554823D2*
X720079Y507579D1*
X798819Y554823D2*
X846063Y507579D1*
Y554823D2*
X798819Y507579D1*
X830315Y1301083D2*
X877559Y1253839D1*
Y1301083D2*
X830315Y1253839D1*
X751575Y1301083D2*
X798819Y1253839D1*
Y1301083D2*
X751575Y1253839D1*
X2026402Y628659D2*
X2073646Y581415D1*
Y628659D2*
X2026402Y581415D1*
Y707399D2*
X2073646Y660155D1*
Y707399D2*
X2026402Y660155D1*
Y786139D2*
X2073646Y738895D1*
Y786139D2*
X2026402Y738895D1*
X1556325Y817386D2*
Y770142D1*
X1532703Y793764D2*
X1579948D1*
X1918701Y1873573D2*
Y1826329D1*
X1895079Y1849951D2*
X1942323D1*
X499951Y1473573D2*
Y1426329D1*
X476329Y1449951D2*
X523573D1*
X706201Y1492323D2*
Y1445079D1*
X682579Y1468701D2*
X729823D1*
X1068701Y629820D2*
Y582576D1*
X1045079Y606198D2*
X1092323D1*
X1268701Y629820D2*
Y582576D1*
X1245079Y606198D2*
X1292323D1*
X2249951Y1529823D2*
Y1482579D1*
X2226329Y1506201D2*
X2273573D1*
X1068701Y1292323D2*
Y1245079D1*
X1045079Y1268701D2*
X1092323D1*
X474951Y1211073D2*
Y1163829D1*
X451329Y1187451D2*
X498573D1*
X956201Y1217323D2*
Y1170079D1*
X932579Y1193701D2*
X979823D1*
X956201Y1079823D2*
Y1032579D1*
X932579Y1056201D2*
X979823D1*
X956201Y942323D2*
Y895079D1*
X932579Y918701D2*
X979823D1*
X956201Y804823D2*
Y757579D1*
X932579Y781201D2*
X979823D1*
X1837451Y842323D2*
Y795079D1*
X1813829Y818701D2*
X1861073D1*
X1106201Y1592323D2*
Y1545079D1*
X1082579Y1568701D2*
X1129823D1*
X568701Y1129823D2*
Y1082579D1*
X545079Y1106201D2*
X592323D1*
X568701Y1079823D2*
Y1032579D1*
X545079Y1056201D2*
X592323D1*
X568701Y1029823D2*
Y982579D1*
X545079Y1006201D2*
X592323D1*
X568701Y979823D2*
Y932579D1*
X545079Y956201D2*
X592323D1*
X568701Y929823D2*
Y882579D1*
X545079Y906201D2*
X592323D1*
X568701Y879823D2*
Y832579D1*
X545079Y856201D2*
X592323D1*
X506201Y879823D2*
Y832579D1*
X482579Y856201D2*
X529823D1*
X506201Y929823D2*
Y882579D1*
X482579Y906201D2*
X529823D1*
X506201Y979823D2*
Y932579D1*
X482579Y956201D2*
X529823D1*
X506201Y1029823D2*
Y982579D1*
X482579Y1006201D2*
X529823D1*
X506201Y1079823D2*
Y1032579D1*
X482579Y1056201D2*
X529823D1*
X506201Y1129823D2*
Y1082579D1*
X482579Y1106201D2*
X529823D1*
X893701Y1129823D2*
Y1082579D1*
X870079Y1106201D2*
X917323D1*
X893701Y1079823D2*
Y1032579D1*
X870079Y1056201D2*
X917323D1*
X893701Y1029823D2*
Y982579D1*
X870079Y1006201D2*
X917323D1*
X893701Y979823D2*
Y932579D1*
X870079Y956201D2*
X917323D1*
X893701Y929823D2*
Y882579D1*
X870079Y906201D2*
X917323D1*
X893701Y879823D2*
Y832579D1*
X870079Y856201D2*
X917323D1*
X1218701Y1404823D2*
Y1357579D1*
X1195079Y1381201D2*
X1242323D1*
X1218701Y1542323D2*
Y1495079D1*
X1195079Y1518701D2*
X1242323D1*
X2299951Y1404823D2*
Y1357579D1*
X2276329Y1381201D2*
X2323573D1*
X2243701Y1892323D2*
Y1845079D1*
X2220079Y1868701D2*
X2267323D1*
X1518701Y1561073D2*
Y1513829D1*
X1495079Y1537451D2*
X1542323D1*
X2043774Y836134D2*
Y788890D1*
X2020152Y812512D2*
X2067396D1*
X532808Y742394D2*
X556430Y718772D1*
X580052Y742394D1*
X556430Y718772D2*
Y695150D1*
X2170136Y629906D2*
X2193759Y606283D1*
X2217381Y629906D1*
X2193759Y606283D2*
Y582661D1*
X1468701Y1429823D2*
Y1382579D1*
X1445079Y1406201D2*
X1492323D1*
X1418701Y1392323D2*
Y1345079D1*
X1395079Y1368701D2*
X1442323D1*
X1442913Y1168602D2*
Y1121358D1*
X1419291Y1144980D2*
X1466535D1*
X1768701Y1404823D2*
Y1357579D1*
X1745079Y1381201D2*
X1792323D1*
X1743701Y1079823D2*
Y1032579D1*
X1720079Y1056201D2*
X1767323D1*
X1486811Y1101378D2*
Y1054134D1*
X1463189Y1077756D2*
X1510433D1*
X981201Y1842323D2*
Y1795079D1*
X957579Y1818701D2*
X1004823D1*
X1281201Y1842323D2*
Y1795079D1*
X1257579Y1818701D2*
X1304823D1*
X1428543Y1212402D2*
Y1165157D1*
X1404921Y1188780D2*
X1452165D1*
X1451575Y1079528D2*
Y1032283D1*
X1427953Y1055906D2*
X1475197D1*
X1699951Y954823D2*
Y907579D1*
X1676329Y931201D2*
X1723573D1*
X1974951Y1411073D2*
Y1363829D1*
X1951329Y1387451D2*
X1998573D1*
X1393701Y1561073D2*
Y1513829D1*
X1370079Y1537451D2*
X1417323D1*
X2243701Y1792323D2*
Y1745079D1*
X2220079Y1768701D2*
X2267323D1*
X1681201Y2004823D2*
Y1957579D1*
X1657579Y1981201D2*
X1704823D1*
X2243701Y1942323D2*
Y1895079D1*
X2220079Y1918701D2*
X2267323D1*
X1518701Y2042323D2*
Y1995079D1*
X1495079Y2018701D2*
X1542323D1*
X1806201Y1517323D2*
Y1470079D1*
X1782579Y1493701D2*
X1829823D1*
X1581201Y1292323D2*
Y1245079D1*
X1557579Y1268701D2*
X1604823D1*
M02*
