G04 DipTrace 3.2.0.1*
G04 BottomSilk.gbr*
%MOIN*%
G04 #@! TF.FileFunction,Legend,Bot*
G04 #@! TF.Part,Single*
%ADD132C,0.005906*%
%FSLAX26Y26*%
G04*
G70*
G90*
G75*
G01*
G04 BotSilk*
%LPD*%
X2430783Y1346575D2*
D132*
X2426936Y1348521D1*
X2421188Y1354225D1*
Y1314077D1*
X2407431Y1344674D2*
Y1346575D1*
X2405530Y1350422D1*
X2403629Y1352323D1*
X2399782Y1354225D1*
X2392133D1*
X2388330Y1352323D1*
X2386429Y1350422D1*
X2384483Y1346575D1*
Y1342773D1*
X2386429Y1338926D1*
X2390231Y1333222D1*
X2409377Y1314077D1*
X2382582D1*
X2370771Y1335123D2*
X2353571D1*
X2347823Y1337069D1*
X2345878Y1338970D1*
X2343976Y1342773D1*
Y1346620D1*
X2345878Y1350422D1*
X2347823Y1352368D1*
X2353571Y1354269D1*
X2370771D1*
Y1314077D1*
X2357374Y1335123D2*
X2343976Y1314077D1*
X2307316Y1354269D2*
X2332165D1*
Y1314077D1*
X2307316D1*
X2332165Y1335123D2*
X2316867D1*
X2295505Y1354269D2*
Y1314077D1*
X2272557D1*
X2230105D2*
X2245448Y1354269D1*
X2260746Y1314077D1*
X2254998Y1327474D2*
X2235853D1*
X2218294Y1354269D2*
X2202995Y1335123D1*
Y1314077D1*
X2187697Y1354269D2*
X2202995Y1335123D1*
X2175886Y1346575D2*
X2172039Y1348521D1*
X2166291Y1354225D1*
Y1314077D1*
X2960262Y1708539D2*
X2956415Y1710484D1*
X2950667Y1716188D1*
Y1676040D1*
X2936911Y1706637D2*
Y1708539D1*
X2935009Y1712385D1*
X2933108Y1714287D1*
X2929261Y1716188D1*
X2921612D1*
X2917809Y1714287D1*
X2915908Y1712385D1*
X2913963Y1708539D1*
Y1704736D1*
X2915908Y1700889D1*
X2919711Y1695185D1*
X2938856Y1676040D1*
X2912061D1*
X2900250Y1697087D2*
X2883050D1*
X2877302Y1699032D1*
X2875357Y1700933D1*
X2873456Y1704736D1*
Y1708583D1*
X2875357Y1712385D1*
X2877302Y1714331D1*
X2883050Y1716232D1*
X2900250D1*
Y1676040D1*
X2886853Y1697087D2*
X2873456Y1676040D1*
X2836795Y1716232D2*
X2861645D1*
Y1676040D1*
X2836795D1*
X2861645Y1697087D2*
X2846346D1*
X2824984Y1716232D2*
Y1676040D1*
X2802037D1*
X2759584D2*
X2774927Y1716232D1*
X2790226Y1676040D1*
X2784477Y1689437D2*
X2765332D1*
X2747773Y1716232D2*
X2732474Y1697087D1*
Y1676040D1*
X2717176Y1716232D2*
X2732474Y1697087D1*
X2703419Y1706637D2*
Y1708539D1*
X2701518Y1712385D1*
X2699617Y1714287D1*
X2695770Y1716188D1*
X2688121D1*
X2684318Y1714287D1*
X2682417Y1712385D1*
X2680471Y1708539D1*
Y1704736D1*
X2682417Y1700889D1*
X2686219Y1695185D1*
X2705365Y1676040D1*
X2678570D1*
X3525619Y1119647D2*
X3521773Y1121593D1*
X3516025Y1127297D1*
Y1087149D1*
X3502268Y1117746D2*
Y1119647D1*
X3500367Y1123494D1*
X3498465Y1125396D1*
X3494619Y1127297D1*
X3486969D1*
X3483167Y1125396D1*
X3481266Y1123494D1*
X3479320Y1119647D1*
Y1115845D1*
X3481266Y1111998D1*
X3485068Y1106294D1*
X3504214Y1087149D1*
X3477419D1*
X3465608Y1127341D2*
X3450309Y1087149D1*
X3435011Y1127341D1*
X2648596Y1489973D2*
Y1491875D1*
X2646694Y1495721D1*
X2644793Y1497623D1*
X2640946Y1499524D1*
X2633297D1*
X2629494Y1497623D1*
X2627593Y1495721D1*
X2625648Y1491875D1*
Y1488072D1*
X2627593Y1484225D1*
X2631396Y1478521D1*
X2650541Y1459376D1*
X2623746D1*
X2592790D2*
Y1499524D1*
X2611935Y1472773D1*
X2583239D1*
X2571428Y1480423D2*
X2554229D1*
X2548481Y1482368D1*
X2546535Y1484269D1*
X2544634Y1488072D1*
Y1491919D1*
X2546535Y1495721D1*
X2548481Y1497667D1*
X2554229Y1499568D1*
X2571428D1*
Y1459376D1*
X2558031Y1480423D2*
X2544634Y1459376D1*
X2507974Y1499568D2*
X2532823D1*
Y1459376D1*
X2507974D1*
X2532823Y1480423D2*
X2517524D1*
X2496163Y1499568D2*
Y1459376D1*
X2473215D1*
X2430762D2*
X2446105Y1499568D1*
X2461404Y1459376D1*
X2455656Y1472773D2*
X2436510D1*
X2418951Y1499568D2*
X2403653Y1480423D1*
Y1459376D1*
X2388354Y1499568D2*
X2403653Y1480423D1*
X3493009Y1358038D2*
X3494955Y1352290D1*
X3498757Y1348443D1*
X3504505Y1346542D1*
X3506407D1*
X3512155Y1348443D1*
X3515957Y1352290D1*
X3517903Y1358038D1*
Y1359939D1*
X3515957Y1365687D1*
X3512155Y1369490D1*
X3506407Y1371391D1*
X3504505D1*
X3498757Y1369490D1*
X3494955Y1365687D1*
X3493009Y1358038D1*
Y1348443D1*
X3494955Y1338893D1*
X3498757Y1333145D1*
X3504505Y1331243D1*
X3508308D1*
X3514056Y1333145D1*
X3515957Y1336992D1*
X3481198Y1371435D2*
X3465900Y1331243D1*
X3450601Y1371435D1*
X1488189Y1438657D2*
X1490090Y1442459D1*
X1493937Y1446306D1*
X1497740Y1448207D1*
X1505389D1*
X1509236Y1446306D1*
X1513038Y1442459D1*
X1514984Y1438657D1*
X1516885Y1432909D1*
Y1423314D1*
X1514984Y1417610D1*
X1513038Y1413763D1*
X1509236Y1409961D1*
X1505389Y1408015D1*
X1497740D1*
X1493937Y1409961D1*
X1490090Y1413763D1*
X1488189Y1417610D1*
X1457233Y1408015D2*
Y1448163D1*
X1476378Y1421412D1*
X1447682D1*
X1971490Y1411098D2*
X1973392Y1414900D1*
X1977238Y1418747D1*
X1981041Y1420648D1*
X1988690D1*
X1992537Y1418747D1*
X1996339Y1414900D1*
X1998285Y1411098D1*
X2000186Y1405349D1*
Y1395755D1*
X1998285Y1390051D1*
X1996339Y1386204D1*
X1992537Y1382402D1*
X1988690Y1380456D1*
X1981041D1*
X1977238Y1382402D1*
X1973392Y1386204D1*
X1971490Y1390051D1*
X1936731Y1420604D2*
X1955833D1*
X1957734Y1403404D1*
X1955833Y1405305D1*
X1950084Y1407251D1*
X1944381D1*
X1938633Y1405305D1*
X1934786Y1401503D1*
X1932885Y1395755D1*
Y1391952D1*
X1934786Y1386204D1*
X1938633Y1382357D1*
X1944381Y1380456D1*
X1950084D1*
X1955833Y1382357D1*
X1957734Y1384303D1*
X1959679Y1388105D1*
X1561069Y1009523D2*
X1562970Y1013325D1*
X1566817Y1017172D1*
X1570619Y1019073D1*
X1578269D1*
X1582115Y1017172D1*
X1585918Y1013325D1*
X1587863Y1009523D1*
X1589765Y1003775D1*
Y994180D1*
X1587863Y988476D1*
X1585918Y984629D1*
X1582115Y980827D1*
X1578269Y978881D1*
X1570619D1*
X1566817Y980827D1*
X1562970Y984629D1*
X1561069Y988476D1*
X1526310Y1013325D2*
X1528211Y1017128D1*
X1533959Y1019029D1*
X1537762D1*
X1543510Y1017128D1*
X1547356Y1011380D1*
X1549258Y1001829D1*
Y992279D1*
X1547356Y984629D1*
X1543510Y980783D1*
X1537762Y978881D1*
X1535860D1*
X1530157Y980783D1*
X1526310Y984629D1*
X1524409Y990377D1*
Y992279D1*
X1526310Y998027D1*
X1530157Y1001829D1*
X1535860Y1003730D1*
X1537762D1*
X1543510Y1001829D1*
X1547356Y998027D1*
X1549258Y992279D1*
X1979364Y1348105D2*
X1981266Y1351908D1*
X1985112Y1355755D1*
X1988915Y1357656D1*
X1996564D1*
X2000411Y1355755D1*
X2004214Y1351908D1*
X2006159Y1348105D1*
X2008060Y1342357D1*
Y1332763D1*
X2006159Y1327059D1*
X2004214Y1323212D1*
X2000411Y1319409D1*
X1996564Y1317464D1*
X1988915D1*
X1985112Y1319409D1*
X1981266Y1323212D1*
X1979364Y1327059D1*
X1959904Y1317464D2*
X1940759Y1357612D1*
X1967553D1*
X1912413Y1048893D2*
X1914314Y1052695D1*
X1918161Y1056542D1*
X1921964Y1058443D1*
X1929613D1*
X1933460Y1056542D1*
X1937262Y1052695D1*
X1939208Y1048893D1*
X1941109Y1043145D1*
Y1033550D1*
X1939208Y1027846D1*
X1937262Y1023999D1*
X1933460Y1020197D1*
X1929613Y1018251D1*
X1921964D1*
X1918161Y1020197D1*
X1914314Y1023999D1*
X1912413Y1027846D1*
X1891051Y1058399D2*
X1896755Y1056498D1*
X1898701Y1052695D1*
Y1048849D1*
X1896755Y1045046D1*
X1892953Y1043101D1*
X1885303Y1041199D1*
X1879555Y1039298D1*
X1875753Y1035451D1*
X1873852Y1031649D1*
Y1025901D1*
X1875753Y1022098D1*
X1877654Y1020153D1*
X1883402Y1018251D1*
X1891051D1*
X1896755Y1020153D1*
X1898701Y1022098D1*
X1900602Y1025901D1*
Y1031649D1*
X1898701Y1035451D1*
X1894854Y1039298D1*
X1889150Y1041199D1*
X1881501Y1043101D1*
X1877654Y1045046D1*
X1875753Y1048849D1*
Y1052695D1*
X1877654Y1056498D1*
X1883402Y1058399D1*
X1891051D1*
X1903611Y1104011D2*
X1905512Y1107813D1*
X1909359Y1111660D1*
X1913161Y1113561D1*
X1920810D1*
X1924657Y1111660D1*
X1928460Y1107813D1*
X1930405Y1104011D1*
X1932306Y1098263D1*
Y1088668D1*
X1930405Y1082964D1*
X1928460Y1079118D1*
X1924657Y1075315D1*
X1920810Y1073369D1*
X1913161D1*
X1909359Y1075315D1*
X1905512Y1079118D1*
X1903611Y1082964D1*
X1866906Y1100164D2*
X1868852Y1094416D1*
X1872654Y1090569D1*
X1878402Y1088668D1*
X1880303D1*
X1886051Y1090569D1*
X1889854Y1094416D1*
X1891800Y1100164D1*
Y1102065D1*
X1889854Y1107813D1*
X1886051Y1111616D1*
X1880303Y1113517D1*
X1878402D1*
X1872654Y1111616D1*
X1868852Y1107813D1*
X1866906Y1100164D1*
Y1090569D1*
X1868852Y1081019D1*
X1872654Y1075271D1*
X1878402Y1073369D1*
X1882205D1*
X1887953Y1075271D1*
X1889854Y1079118D1*
X1297564Y1328650D2*
X1293761Y1330551D1*
X1289915Y1334398D1*
X1288013Y1338201D1*
Y1345850D1*
X1289915Y1349697D1*
X1293761Y1353499D1*
X1297564Y1355445D1*
X1303312Y1357346D1*
X1312907D1*
X1318611Y1355445D1*
X1322457Y1353499D1*
X1326260Y1349697D1*
X1328205Y1345850D1*
Y1338200D1*
X1326260Y1334398D1*
X1322457Y1330551D1*
X1318611Y1328650D1*
X1295707Y1316839D2*
X1293761Y1312992D1*
X1288058Y1307244D1*
X1328205D1*
X1288058Y1283937D2*
X1289959Y1289685D1*
X1295707Y1293532D1*
X1305257Y1295433D1*
X1311006D1*
X1320556Y1293532D1*
X1326304Y1289685D1*
X1328205Y1283937D1*
Y1280135D1*
X1326304Y1274387D1*
X1320556Y1270584D1*
X1311005Y1268639D1*
X1305257D1*
X1295707Y1270584D1*
X1289959Y1274387D1*
X1288058Y1280135D1*
Y1283937D1*
X1295707Y1270584D2*
X1320556Y1293532D1*
X1354651Y1329893D2*
X1350848Y1331794D1*
X1347001Y1335641D1*
X1345100Y1339443D1*
Y1347092D1*
X1347001Y1350939D1*
X1350848Y1354742D1*
X1354651Y1356687D1*
X1360399Y1358588D1*
X1369993D1*
X1375697Y1356687D1*
X1379544Y1354742D1*
X1383346Y1350939D1*
X1385292Y1347092D1*
Y1339443D1*
X1383346Y1335641D1*
X1379544Y1331794D1*
X1375697Y1329893D1*
X1352794Y1318082D2*
X1350848Y1314235D1*
X1345144Y1308487D1*
X1385292D1*
X1352793Y1296676D2*
X1350848Y1292829D1*
X1345144Y1287081D1*
X1385292D1*
X1168756Y1525221D2*
X1170658Y1529023D1*
X1174504Y1532870D1*
X1178307Y1534771D1*
X1185956D1*
X1189803Y1532870D1*
X1193605Y1529023D1*
X1195551Y1525221D1*
X1197452Y1519473D1*
Y1509878D1*
X1195551Y1504174D1*
X1193605Y1500327D1*
X1189803Y1496525D1*
X1185956Y1494579D1*
X1178307D1*
X1174504Y1496525D1*
X1170658Y1500327D1*
X1168756Y1504174D1*
X1126304Y1494579D2*
X1141647Y1534771D1*
X1156945Y1494579D1*
X1151197Y1507977D2*
X1132052D1*
X1087698Y1534771D2*
Y1494579D1*
X1114493Y1534771D1*
Y1494579D1*
X1075887Y1487947D2*
X1039542D1*
X1027731Y1534771D2*
Y1494579D1*
X1000936Y1534771D2*
Y1494579D1*
X1027731Y1515626D2*
X1000936D1*
X723946Y1681953D2*
X725847Y1685756D1*
X729694Y1689602D1*
X733496Y1691504D1*
X741146D1*
X744992Y1689602D1*
X748795Y1685756D1*
X750740Y1681953D1*
X752642Y1676205D1*
Y1666610D1*
X750740Y1660907D1*
X748795Y1657060D1*
X744992Y1653257D1*
X741146Y1651312D1*
X733496D1*
X729694Y1653257D1*
X725847Y1657060D1*
X723946Y1660907D1*
X681493Y1651312D2*
X696836Y1691504D1*
X712135Y1651312D1*
X706387Y1664709D2*
X687241D1*
X642888Y1691504D2*
Y1651312D1*
X669682Y1691504D1*
Y1651312D1*
X631077Y1644679D2*
X594731D1*
X582920Y1691504D2*
Y1651312D1*
X559972D1*
X3810215Y1051300D2*
X3835108D1*
Y1011108D1*
Y1032155D2*
X3819810D1*
X3767762Y1011108D2*
X3783105Y1051300D1*
X3798404Y1011108D1*
X3792656Y1024506D2*
X3773510D1*
X3729157Y1051300D2*
Y1011108D1*
X3755951Y1051300D1*
Y1011108D1*
X2478030Y1422459D2*
X2460830D1*
X2455082Y1424405D1*
X2453136Y1426306D1*
X2451235Y1430109D1*
Y1433955D1*
X2453136Y1437758D1*
X2455082Y1439704D1*
X2460830Y1441605D1*
X2478030D1*
Y1401413D1*
X2464632Y1422459D2*
X2451235Y1401413D1*
X2439424Y1433911D2*
X2435577Y1435857D1*
X2429829Y1441561D1*
Y1401413D1*
X2398873D2*
Y1441561D1*
X2418018Y1414810D1*
X2389322D1*
X1488803Y2267262D2*
X1492605Y2271109D1*
X1498353Y2273010D1*
X1506002D1*
X1511750Y2271109D1*
X1515597Y2267262D1*
Y2263460D1*
X1513652Y2259613D1*
X1511750Y2257712D1*
X1507948Y2255810D1*
X1496452Y2251964D1*
X1492605Y2250062D1*
X1490704Y2248117D1*
X1488803Y2244314D1*
Y2238566D1*
X1492605Y2234764D1*
X1498353Y2232818D1*
X1506002D1*
X1511750Y2234764D1*
X1515597Y2238566D1*
X1448296Y2263460D2*
X1450197Y2267262D1*
X1454044Y2271109D1*
X1457846Y2273010D1*
X1465495D1*
X1469342Y2271109D1*
X1473145Y2267262D1*
X1475090Y2263460D1*
X1476992Y2257712D1*
Y2248117D1*
X1475090Y2242413D1*
X1473145Y2238566D1*
X1469342Y2234764D1*
X1465495Y2232818D1*
X1457846D1*
X1454044Y2234764D1*
X1450197Y2238566D1*
X1448296Y2242413D1*
X1436485Y2273010D2*
Y2232818D1*
X1413537D1*
X1436581Y1948365D2*
X1440383Y1952211D1*
X1446131Y1954113D1*
X1453780D1*
X1459528Y1952211D1*
X1463375Y1948365D1*
Y1944562D1*
X1461430Y1940715D1*
X1459528Y1938814D1*
X1455726Y1936913D1*
X1444230Y1933066D1*
X1440383Y1931165D1*
X1438482Y1929219D1*
X1436581Y1925417D1*
Y1919669D1*
X1440383Y1915866D1*
X1446131Y1913921D1*
X1453780D1*
X1459528Y1915866D1*
X1463375Y1919669D1*
X1424770Y1954113D2*
Y1913921D1*
X1411372D1*
X1405624Y1915866D1*
X1401777Y1919669D1*
X1399876Y1923515D1*
X1397975Y1929219D1*
Y1938814D1*
X1399876Y1944562D1*
X1401777Y1948365D1*
X1405624Y1952211D1*
X1411372Y1954113D1*
X1424770D1*
X1355522Y1913921D2*
X1370865Y1954113D1*
X1386164Y1913921D1*
X1380416Y1927318D2*
X1361270D1*
X2593146Y1944034D2*
X2596949Y1947881D1*
X2602697Y1949782D1*
X2610346D1*
X2616094Y1947881D1*
X2619941Y1944034D1*
Y1940231D1*
X2617995Y1936385D1*
X2616094Y1934483D1*
X2612292Y1932582D1*
X2600795Y1928735D1*
X2596949Y1926834D1*
X2595047Y1924889D1*
X2593146Y1921086D1*
Y1915338D1*
X2596949Y1911535D1*
X2602697Y1909590D1*
X2610346D1*
X2616094Y1911535D1*
X2619941Y1915338D1*
X2581335Y1949782D2*
X2571740Y1909590D1*
X2562190Y1949782D1*
X2552639Y1909590D1*
X2543044Y1949782D1*
X2531233D2*
Y1909590D1*
X2517836D1*
X2512088Y1911535D1*
X2508241Y1915338D1*
X2506340Y1919185D1*
X2504439Y1924889D1*
Y1934483D1*
X2506340Y1940231D1*
X2508241Y1944034D1*
X2512088Y1947881D1*
X2517836Y1949782D1*
X2531233D1*
X2492628Y1902958D2*
X2456282D1*
X2415775Y1940231D2*
X2417677Y1944034D1*
X2421524Y1947881D1*
X2425326Y1949782D1*
X2432975D1*
X2436822Y1947881D1*
X2440625Y1944034D1*
X2442570Y1940231D1*
X2444471Y1934483D1*
Y1924889D1*
X2442570Y1919185D1*
X2440625Y1915338D1*
X2436822Y1911535D1*
X2432975Y1909590D1*
X2425326D1*
X2421524Y1911535D1*
X2417677Y1915338D1*
X2415775Y1919185D1*
X2403964Y1949782D2*
Y1909590D1*
X2381017D1*
X2369206Y1949782D2*
Y1909590D1*
X2342411Y1949782D2*
X2369206Y1922987D1*
X2359655Y1932582D2*
X2342411Y1909590D1*
X2535761Y1778491D2*
X2539563Y1782337D1*
X2545312Y1784239D1*
X2552961D1*
X2558709Y1782337D1*
X2562556Y1778491D1*
Y1774688D1*
X2560610Y1770841D1*
X2558709Y1768940D1*
X2554906Y1767039D1*
X2543410Y1763192D1*
X2539563Y1761291D1*
X2537662Y1759345D1*
X2535761Y1755543D1*
Y1749795D1*
X2539563Y1745992D1*
X2545312Y1744047D1*
X2552961D1*
X2558709Y1745992D1*
X2562556Y1749795D1*
X2523950Y1784239D2*
X2514355Y1744047D1*
X2504805Y1784239D1*
X2495254Y1744047D1*
X2485659Y1784239D1*
X2473848D2*
Y1744047D1*
X2460451D1*
X2454703Y1745992D1*
X2450856Y1749795D1*
X2448955Y1753641D1*
X2447054Y1759345D1*
Y1768940D1*
X2448955Y1774688D1*
X2450856Y1778491D1*
X2454703Y1782337D1*
X2460451Y1784239D1*
X2473848D1*
X2435242Y1737414D2*
X2398897D1*
X2387086Y1784239D2*
Y1744047D1*
X2363779Y1784239D2*
X2367626Y1782337D1*
X2371428Y1778491D1*
X2373374Y1774688D1*
X2375275Y1768940D1*
Y1759345D1*
X2373374Y1753641D1*
X2371428Y1749795D1*
X2367626Y1745992D1*
X2363779Y1744047D1*
X2356130D1*
X2352327Y1745992D1*
X2348481Y1749795D1*
X2346579Y1753641D1*
X2344678Y1759345D1*
Y1768940D1*
X2346579Y1774688D1*
X2348481Y1778491D1*
X2352327Y1782337D1*
X2356130Y1784239D1*
X2363779D1*
M02*
