%TF.GenerationSoftware,Altium Limited,Altium Designer,24.2.2 (26)*%
G04 Layer_Physical_Order=1*
G04 Layer_Color=255*
%FSLAX45Y45*%
%MOMM*%
%TF.SameCoordinates,49D751E1-909A-4D1D-99CC-CC6D119DB9C5*%
%TF.FilePolarity,Positive*%
%TF.FileFunction,Copper,L1,Top,Signal*%
%TF.Part,Single*%
G01*
G75*
%TA.AperFunction,SMDPad,CuDef*%
%ADD10R,1.30000X1.30000*%
%ADD11R,4.60000X3.40000*%
G04:AMPARAMS|DCode=12|XSize=1.4mm|YSize=0.9mm|CornerRadius=0.0675mm|HoleSize=0mm|Usage=FLASHONLY|Rotation=90.000|XOffset=0mm|YOffset=0mm|HoleType=Round|Shape=RoundedRectangle|*
%AMROUNDEDRECTD12*
21,1,1.40000,0.76500,0,0,90.0*
21,1,1.26500,0.90000,0,0,90.0*
1,1,0.13500,0.38250,0.63250*
1,1,0.13500,0.38250,-0.63250*
1,1,0.13500,-0.38250,-0.63250*
1,1,0.13500,-0.38250,0.63250*
%
%ADD12ROUNDEDRECTD12*%
G04:AMPARAMS|DCode=13|XSize=1.3mm|YSize=1.3mm|CornerRadius=0.13mm|HoleSize=0mm|Usage=FLASHONLY|Rotation=180.000|XOffset=0mm|YOffset=0mm|HoleType=Round|Shape=RoundedRectangle|*
%AMROUNDEDRECTD13*
21,1,1.30000,1.04000,0,0,180.0*
21,1,1.04000,1.30000,0,0,180.0*
1,1,0.26000,-0.52000,0.52000*
1,1,0.26000,0.52000,0.52000*
1,1,0.26000,0.52000,-0.52000*
1,1,0.26000,-0.52000,-0.52000*
%
%ADD13ROUNDEDRECTD13*%
G04:AMPARAMS|DCode=14|XSize=1.6mm|YSize=3.15mm|CornerRadius=0.12mm|HoleSize=0mm|Usage=FLASHONLY|Rotation=180.000|XOffset=0mm|YOffset=0mm|HoleType=Round|Shape=RoundedRectangle|*
%AMROUNDEDRECTD14*
21,1,1.60000,2.91000,0,0,180.0*
21,1,1.36000,3.15000,0,0,180.0*
1,1,0.24000,-0.68000,1.45500*
1,1,0.24000,0.68000,1.45500*
1,1,0.24000,0.68000,-1.45500*
1,1,0.24000,-0.68000,-1.45500*
%
%ADD14ROUNDEDRECTD14*%
G04:AMPARAMS|DCode=15|XSize=1.25mm|YSize=1.6mm|CornerRadius=0.125mm|HoleSize=0mm|Usage=FLASHONLY|Rotation=270.000|XOffset=0mm|YOffset=0mm|HoleType=Round|Shape=RoundedRectangle|*
%AMROUNDEDRECTD15*
21,1,1.25000,1.35000,0,0,270.0*
21,1,1.00000,1.60000,0,0,270.0*
1,1,0.25000,-0.67500,-0.50000*
1,1,0.25000,-0.67500,0.50000*
1,1,0.25000,0.67500,0.50000*
1,1,0.25000,0.67500,-0.50000*
%
%ADD15ROUNDEDRECTD15*%
G04:AMPARAMS|DCode=16|XSize=1.6mm|YSize=3mm|CornerRadius=0.12mm|HoleSize=0mm|Usage=FLASHONLY|Rotation=270.000|XOffset=0mm|YOffset=0mm|HoleType=Round|Shape=RoundedRectangle|*
%AMROUNDEDRECTD16*
21,1,1.60000,2.76000,0,0,270.0*
21,1,1.36000,3.00000,0,0,270.0*
1,1,0.24000,-1.38000,-0.68000*
1,1,0.24000,-1.38000,0.68000*
1,1,0.24000,1.38000,0.68000*
1,1,0.24000,1.38000,-0.68000*
%
%ADD16ROUNDEDRECTD16*%
G04:AMPARAMS|DCode=17|XSize=1.4mm|YSize=0.9mm|CornerRadius=0.0675mm|HoleSize=0mm|Usage=FLASHONLY|Rotation=0.000|XOffset=0mm|YOffset=0mm|HoleType=Round|Shape=RoundedRectangle|*
%AMROUNDEDRECTD17*
21,1,1.40000,0.76500,0,0,0.0*
21,1,1.26500,0.90000,0,0,0.0*
1,1,0.13500,0.63250,-0.38250*
1,1,0.13500,-0.63250,-0.38250*
1,1,0.13500,-0.63250,0.38250*
1,1,0.13500,0.63250,0.38250*
%
%ADD17ROUNDEDRECTD17*%
%ADD18R,4.00000X4.00000*%
%ADD19R,0.60000X0.30000*%
%ADD20R,2.60000X3.00000*%
%ADD21C,1.00000*%
G04:AMPARAMS|DCode=22|XSize=1.25mm|YSize=1.6mm|CornerRadius=0.125mm|HoleSize=0mm|Usage=FLASHONLY|Rotation=180.000|XOffset=0mm|YOffset=0mm|HoleType=Round|Shape=RoundedRectangle|*
%AMROUNDEDRECTD22*
21,1,1.25000,1.35000,0,0,180.0*
21,1,1.00000,1.60000,0,0,180.0*
1,1,0.25000,-0.50000,0.67500*
1,1,0.25000,0.50000,0.67500*
1,1,0.25000,0.50000,-0.67500*
1,1,0.25000,-0.50000,-0.67500*
%
%ADD22ROUNDEDRECTD22*%
%TA.AperFunction,Conductor*%
%ADD23C,0.45720*%
%ADD24C,0.25400*%
%ADD25C,0.43180*%
%TA.AperFunction,ComponentPad*%
%ADD26C,3.56000*%
%ADD27C,1.56000*%
%ADD28C,2.54000*%
%ADD29C,2.00000*%
%TA.AperFunction,ViaPad*%
%ADD30C,1.27000*%
%ADD31C,0.60960*%
%TA.AperFunction,TestPad*%
%ADD32C,0.60960*%
%ADD33C,0.71120*%
G36*
X5433060Y-3944620D02*
X4963160D01*
Y-4045963D01*
X4950460Y-4049815D01*
X4949709Y-4048691D01*
X4939074Y-4041586D01*
X4926530Y-4039090D01*
X4900980D01*
Y-4135119D01*
Y-4231150D01*
X4926530D01*
X4939074Y-4228654D01*
X4949709Y-4221549D01*
X4950460Y-4220425D01*
X4963160Y-4224277D01*
Y-4434037D01*
X4954167Y-4443004D01*
X4704162Y-4442281D01*
X4702821Y-4442544D01*
X4701470Y-4442343D01*
X4688066Y-4443002D01*
X4684343Y-4443935D01*
X4680503D01*
X4675148Y-4445000D01*
X4551869D01*
X4516946Y-4479923D01*
Y-4611847D01*
X4516186Y-4614884D01*
X4515527Y-4628287D01*
X4515724Y-4629611D01*
X4515465Y-4630925D01*
X4516910Y-5408852D01*
X4516946Y-5409033D01*
Y-5411914D01*
X4515871Y-5417521D01*
X4513743Y-5422744D01*
X4510631Y-5427450D01*
X4506659Y-5431454D01*
X4501978Y-5434602D01*
X4501967Y-5434606D01*
X3424914D01*
X3421380Y-5423370D01*
Y-4589780D01*
X3417321Y-4429440D01*
X3426187Y-4420347D01*
X3563620D01*
X3578486Y-4417389D01*
X3591089Y-4408969D01*
X3610937Y-4389120D01*
X4208780D01*
X4267200Y-4330700D01*
Y-3663676D01*
X4320540D01*
Y-2245360D01*
X4525417D01*
X4534896Y-2247900D01*
X4558304D01*
X4567783Y-2245360D01*
X4779417D01*
X4788896Y-2247900D01*
X4812304D01*
X4821783Y-2245360D01*
X5433060D01*
Y-3944620D01*
D02*
G37*
G36*
X2263140Y-3491329D02*
Y-3703320D01*
X2268220Y-3708400D01*
X2564826D01*
X2568680Y-3709167D01*
X2583680D01*
X2587534Y-3708400D01*
X2623360D01*
Y-3795000D01*
X2599398D01*
X2598546Y-3794431D01*
X2583680Y-3791473D01*
X2527300D01*
X2512434Y-3794431D01*
X2499831Y-3802851D01*
X2356269Y-3946413D01*
X2300780D01*
X2292253Y-3937887D01*
X2271715Y-3929380D01*
X2249485D01*
X2228947Y-3937887D01*
X2213227Y-3953607D01*
X2204720Y-3974145D01*
Y-3996375D01*
X2213227Y-4016913D01*
X2228947Y-4032633D01*
X2249485Y-4041140D01*
X2271715D01*
X2292253Y-4032633D01*
X2300780Y-4024107D01*
X2372360D01*
X2387226Y-4021149D01*
X2399829Y-4012729D01*
X2442256Y-3970301D01*
X2453990Y-3975161D01*
Y-4018280D01*
X2451100D01*
X2435860Y-4033520D01*
Y-5400040D01*
X1399540D01*
X1389380Y-5389880D01*
Y-4445000D01*
X1115341D01*
X1113133Y-4444561D01*
X1109294D01*
X1105571Y-4443628D01*
X1087324Y-4442732D01*
X1085877Y-4442946D01*
X1084441Y-4442670D01*
X759445Y-4444809D01*
X758519Y-4445000D01*
X748552D01*
X723665Y-4440050D01*
X711200Y-4434887D01*
Y-3876451D01*
X722933Y-3871590D01*
X772631Y-3921289D01*
X785234Y-3929709D01*
X800100Y-3932667D01*
X814966Y-3929709D01*
X827569Y-3921289D01*
X835989Y-3908686D01*
X838947Y-3893820D01*
X835989Y-3878954D01*
X827569Y-3866351D01*
X756447Y-3795229D01*
Y-3485194D01*
X2254151Y-3482357D01*
X2263140Y-3491329D01*
D02*
G37*
G36*
X2986667Y-4004968D02*
X2984508Y-4005739D01*
X2982603Y-4007024D01*
X2980952Y-4008823D01*
X2979555Y-4011137D01*
X2978412Y-4013964D01*
X2977523Y-4017306D01*
X2976888Y-4021162D01*
X2976507Y-4025531D01*
X2976380Y-4030415D01*
X2950980D01*
X2950853Y-4025531D01*
X2950472Y-4021162D01*
X2949837Y-4017306D01*
X2948948Y-4013964D01*
X2947805Y-4011137D01*
X2946408Y-4008823D01*
X2944757Y-4007024D01*
X2942852Y-4005739D01*
X2940693Y-4004968D01*
X2938280Y-4004711D01*
X2989080D01*
X2986667Y-4004968D01*
D02*
G37*
G36*
X3214950Y-1740894D02*
X3214978Y-1740889D01*
X3215005Y-1740894D01*
X5752120Y-1740902D01*
X5763254D01*
X5785095Y-1745246D01*
X5805668Y-1753768D01*
X5824183Y-1766140D01*
X5839929Y-1781886D01*
X5852300Y-1800401D01*
X5860822Y-1820973D01*
X5865166Y-1842814D01*
Y-1853931D01*
X5864392Y-4299350D01*
X5864394Y-4299358D01*
X5864392Y-4299366D01*
Y-4313731D01*
X5858787Y-4341909D01*
X5847793Y-4368451D01*
X5831832Y-4392339D01*
X5811517Y-4412654D01*
X5787629Y-4428615D01*
X5761087Y-4439610D01*
X5732909Y-4445214D01*
X5718606D01*
X4999449Y-4443135D01*
X4989202Y-4434200D01*
X4989058Y-4434036D01*
Y-4228847D01*
X4998660Y-4222430D01*
X5001497Y-4221884D01*
X5004468Y-4223869D01*
X5015030Y-4225970D01*
X5091530D01*
X5102092Y-4223869D01*
X5111046Y-4217886D01*
X5117029Y-4208932D01*
X5119130Y-4198370D01*
Y-4188135D01*
X5198907D01*
Y-4194740D01*
X5201493Y-4207741D01*
X5208858Y-4218762D01*
X5219879Y-4226127D01*
X5232880Y-4228713D01*
X5336880D01*
X5349881Y-4226127D01*
X5360902Y-4218762D01*
X5368267Y-4207741D01*
X5370853Y-4194740D01*
Y-4090740D01*
X5368267Y-4077739D01*
X5360902Y-4066718D01*
X5349881Y-4059353D01*
X5336880Y-4056767D01*
X5232880D01*
X5219879Y-4059353D01*
X5208858Y-4066718D01*
X5201493Y-4077739D01*
X5199109Y-4089725D01*
X5120093D01*
X5119130Y-4088283D01*
Y-4071870D01*
X5117029Y-4061308D01*
X5111046Y-4052354D01*
X5102092Y-4046371D01*
X5091530Y-4044270D01*
X5015030D01*
X5004468Y-4046371D01*
X5001497Y-4048356D01*
X4998660Y-4047810D01*
X4989058Y-4041393D01*
Y-3970518D01*
X5433060D01*
X5442971Y-3968546D01*
X5451372Y-3962932D01*
X5456986Y-3954531D01*
X5458958Y-3944620D01*
Y-2245360D01*
X5456986Y-2235449D01*
X5451372Y-2227048D01*
X5442971Y-2221434D01*
X5433060Y-2219462D01*
X4821783D01*
X4818461Y-2220123D01*
X4815081Y-2220345D01*
X4808894Y-2222002D01*
X4792306D01*
X4786119Y-2220345D01*
X4782739Y-2220123D01*
X4779417Y-2219462D01*
X4567783D01*
X4564461Y-2220123D01*
X4561081Y-2220345D01*
X4554894Y-2222002D01*
X4538306D01*
X4532119Y-2220345D01*
X4528739Y-2220123D01*
X4525417Y-2219462D01*
X4320540D01*
X4310629Y-2221434D01*
X4302228Y-2227048D01*
X4296614Y-2235449D01*
X4294642Y-2245360D01*
Y-3637779D01*
X4267200D01*
X4257289Y-3639750D01*
X4248888Y-3645364D01*
X4243274Y-3653766D01*
X4241302Y-3663676D01*
Y-3824702D01*
X4228602Y-3828105D01*
X4226950Y-3825243D01*
X4213857Y-3812150D01*
X4197822Y-3802892D01*
X4179938Y-3798100D01*
X4161422D01*
X4143538Y-3802892D01*
X4127503Y-3812150D01*
X4114410Y-3825243D01*
X4105152Y-3841278D01*
X4100360Y-3859162D01*
Y-3877678D01*
X4105152Y-3895562D01*
X4114410Y-3911597D01*
X4127503Y-3924690D01*
X4131833Y-3927190D01*
Y-4092549D01*
X4127251Y-4099408D01*
X4125150Y-4109970D01*
Y-4134373D01*
X4007530D01*
Y-4104400D01*
X4005429Y-4093838D01*
X3999446Y-4084884D01*
X3990492Y-4078900D01*
X3979930Y-4076800D01*
X3853430D01*
X3842868Y-4078900D01*
X3833914Y-4084884D01*
X3827931Y-4093838D01*
X3825948Y-4103803D01*
X3802470D01*
X3787604Y-4106760D01*
X3775002Y-4115181D01*
X3547529Y-4342653D01*
X3486305D01*
X3479891Y-4334838D01*
Y-4208338D01*
X3477790Y-4197776D01*
X3474900Y-4193450D01*
X3480846Y-4180750D01*
X3510545D01*
X3523351Y-4178203D01*
X3534207Y-4170949D01*
X3541461Y-4160093D01*
X3544008Y-4147287D01*
Y-4047288D01*
X3541461Y-4034482D01*
X3534207Y-4023626D01*
X3523351Y-4016372D01*
X3510545Y-4013825D01*
X3375545D01*
X3362740Y-4016372D01*
X3351884Y-4023626D01*
X3344630Y-4034482D01*
X3342082Y-4047288D01*
Y-4147287D01*
X3344630Y-4160093D01*
X3351884Y-4170949D01*
X3356023Y-4173715D01*
X3356274Y-4188816D01*
X3356240Y-4188874D01*
X3350291Y-4197776D01*
X3348190Y-4208338D01*
Y-4334838D01*
X3341776Y-4342653D01*
X3321305D01*
X3314891Y-4334838D01*
Y-4208338D01*
X3312790Y-4197776D01*
X3306807Y-4188822D01*
X3299183Y-4183727D01*
X3297177Y-4176868D01*
X3296354Y-4169592D01*
X3302701Y-4160093D01*
X3305248Y-4147287D01*
Y-4047288D01*
X3302701Y-4034482D01*
X3295447Y-4023626D01*
X3284591Y-4016372D01*
X3271785Y-4013825D01*
X3136785D01*
X3123980Y-4016372D01*
X3113124Y-4023626D01*
X3105870Y-4034482D01*
X3103322Y-4047288D01*
Y-4147287D01*
X3105870Y-4160093D01*
X3113124Y-4170949D01*
X3123980Y-4178203D01*
X3136785Y-4180750D01*
X3165439D01*
Y-4201833D01*
X3168396Y-4216699D01*
X3170629Y-4220042D01*
X3163841Y-4232742D01*
X3093879D01*
X3086847Y-4225709D01*
Y-3979640D01*
X3083889Y-3964774D01*
X3075469Y-3952172D01*
X3014000Y-3890703D01*
Y-3875000D01*
X2994398D01*
X2993546Y-3874431D01*
X2978680Y-3871474D01*
X2963680D01*
X2948814Y-3874431D01*
X2947962Y-3875000D01*
X2913360D01*
Y-3945640D01*
X2913359D01*
Y-3955001D01*
X2913360D01*
Y-3999301D01*
X2912528Y-4001967D01*
X2912653Y-4003350D01*
X2912382Y-4004711D01*
X2913105Y-4008342D01*
X2913360Y-4011163D01*
Y-4025640D01*
X2923718D01*
X2924833Y-4026571D01*
Y-4305161D01*
X2925391Y-4307962D01*
X2913427Y-4312917D01*
X2909989Y-4307771D01*
X2899354Y-4300666D01*
X2886810Y-4298170D01*
X2861260D01*
Y-4381500D01*
X2919590D01*
Y-4330950D01*
X2919494Y-4330470D01*
X2931457Y-4325515D01*
X2936211Y-4332629D01*
X3012550Y-4408969D01*
X3025153Y-4417389D01*
X3040019Y-4420347D01*
X3381319D01*
X3390422Y-4428832D01*
X3391432Y-4430096D01*
X3395482Y-4590104D01*
Y-5422879D01*
X3395429Y-5423454D01*
X3389738Y-5432379D01*
X3385718Y-5435559D01*
X2454209Y-5433602D01*
X2450368Y-5420894D01*
X2454172Y-5418352D01*
X2459786Y-5409951D01*
X2461758Y-5400040D01*
Y-5210008D01*
X2474458Y-5208337D01*
X2476626Y-5216431D01*
X2490239Y-5240009D01*
X2509491Y-5259260D01*
X2533069Y-5272873D01*
X2547580Y-5276762D01*
Y-5176520D01*
Y-5076278D01*
X2533069Y-5080167D01*
X2509491Y-5093779D01*
X2490239Y-5113031D01*
X2476626Y-5136609D01*
X2474458Y-5144703D01*
X2461758Y-5143032D01*
Y-4956008D01*
X2474458Y-4954337D01*
X2476626Y-4962431D01*
X2490239Y-4986009D01*
X2509491Y-5005260D01*
X2533069Y-5018873D01*
X2547580Y-5022762D01*
Y-4922520D01*
Y-4822278D01*
X2533069Y-4826167D01*
X2509491Y-4839779D01*
X2490239Y-4859031D01*
X2476626Y-4882609D01*
X2474458Y-4890703D01*
X2461758Y-4889032D01*
Y-4702008D01*
X2474458Y-4700337D01*
X2476626Y-4708431D01*
X2490239Y-4732009D01*
X2509491Y-4751261D01*
X2533069Y-4764873D01*
X2547580Y-4768762D01*
Y-4668520D01*
Y-4568278D01*
X2533069Y-4572167D01*
X2509491Y-4585779D01*
X2490239Y-4605031D01*
X2476626Y-4628609D01*
X2474458Y-4636703D01*
X2461758Y-4635032D01*
Y-4414479D01*
X2474458Y-4409219D01*
X2493317Y-4428078D01*
X2508860Y-4438464D01*
X2527195Y-4442110D01*
X2617710D01*
Y-4457450D01*
X2619811Y-4468012D01*
X2625794Y-4476966D01*
X2634748Y-4482949D01*
X2645310Y-4485050D01*
X2721810D01*
X2732372Y-4482949D01*
X2741326Y-4476966D01*
X2747309Y-4468012D01*
X2749410Y-4457450D01*
Y-4330950D01*
X2747309Y-4320388D01*
X2741326Y-4311434D01*
X2732372Y-4305451D01*
X2721810Y-4303350D01*
X2645310D01*
X2634748Y-4305451D01*
X2625794Y-4311434D01*
X2619811Y-4320388D01*
X2617710Y-4330950D01*
Y-4346290D01*
X2549811D01*
Y-4207371D01*
X2562511Y-4200176D01*
X2564370Y-4201290D01*
Y-4249170D01*
X2566471Y-4259732D01*
X2572454Y-4268686D01*
X2581408Y-4274669D01*
X2591970Y-4276770D01*
X2668470D01*
X2679032Y-4274669D01*
X2687986Y-4268686D01*
X2693969Y-4259732D01*
X2696070Y-4249170D01*
Y-4122670D01*
X2693969Y-4112108D01*
X2687986Y-4103154D01*
X2679032Y-4097171D01*
X2668470Y-4095070D01*
X2637288D01*
X2631591Y-4089373D01*
Y-4025640D01*
X2634000D01*
Y-3955001D01*
X2634001D01*
Y-3945640D01*
X2634000D01*
Y-3878340D01*
X2634000Y-3875001D01*
X2634001D01*
Y-3865639D01*
X2634000D01*
Y-3818439D01*
X2641672Y-3813312D01*
X2647286Y-3804911D01*
X2649258Y-3795000D01*
Y-3708400D01*
X2647286Y-3698489D01*
X2641672Y-3690088D01*
X2634000Y-3684961D01*
Y-3635000D01*
X2600162D01*
X2593849Y-3625552D01*
X2527030Y-3558733D01*
X2514427Y-3550312D01*
X2499561Y-3547355D01*
X2486665D01*
X2484682Y-3537389D01*
X2478699Y-3528435D01*
X2469745Y-3522452D01*
X2459183Y-3520351D01*
X2332683D01*
X2322121Y-3522452D01*
X2313167Y-3528435D01*
X2307184Y-3537389D01*
X2305083Y-3547951D01*
Y-3624451D01*
X2307184Y-3635013D01*
X2313167Y-3643967D01*
X2322121Y-3649951D01*
X2332683Y-3652051D01*
X2459183D01*
X2469745Y-3649951D01*
X2478699Y-3643967D01*
X2480995Y-3640532D01*
X2496113Y-3637690D01*
X2527804Y-3669382D01*
X2528462Y-3672685D01*
X2520405Y-3682502D01*
X2289038D01*
Y-3491329D01*
X2289035Y-3491317D01*
X2289038Y-3491304D01*
X2288042Y-3486324D01*
X2287066Y-3481418D01*
X2287059Y-3481408D01*
X2287057Y-3481395D01*
X2284272Y-3477236D01*
X2281452Y-3473016D01*
X2281442Y-3473009D01*
X2281435Y-3472999D01*
X2272446Y-3464027D01*
X2272436Y-3464021D01*
X2272429Y-3464010D01*
X2268194Y-3461192D01*
X2264039Y-3458421D01*
X2264027Y-3458419D01*
X2264017Y-3458412D01*
X2259010Y-3457426D01*
X2254127Y-3456459D01*
X2254114Y-3456462D01*
X2254102Y-3456459D01*
X765435Y-3459279D01*
X756447Y-3450307D01*
Y-3174292D01*
X766412Y-3172309D01*
X775366Y-3166326D01*
X781349Y-3157372D01*
X783450Y-3146810D01*
Y-3020310D01*
X781349Y-3009748D01*
X775366Y-3000794D01*
X766412Y-2994811D01*
X755850Y-2992710D01*
X679350D01*
X668788Y-2994811D01*
X659834Y-3000794D01*
X653851Y-3009748D01*
X651750Y-3020310D01*
Y-3146810D01*
X653851Y-3157372D01*
X659834Y-3166326D01*
X668788Y-3172309D01*
X678754Y-3174292D01*
Y-3811320D01*
X681711Y-3826186D01*
X690131Y-3838789D01*
X693679Y-3842336D01*
X692888Y-3858138D01*
X687273Y-3866540D01*
X685302Y-3876451D01*
Y-4403658D01*
X672602Y-4408919D01*
X663598Y-4399914D01*
X650045Y-4379632D01*
X640711Y-4357096D01*
X635952Y-4333172D01*
Y-4320995D01*
X636886Y-1863851D01*
X636884Y-1863841D01*
X636886Y-1863831D01*
Y-1851468D01*
X641710Y-1827216D01*
X651172Y-1804373D01*
X664909Y-1783813D01*
X682394Y-1766329D01*
X702954Y-1752591D01*
X725797Y-1743129D01*
X750049Y-1738305D01*
X762357D01*
X3214950Y-1740894D01*
D02*
G37*
G36*
X3827672Y-4190161D02*
X3827931Y-4191462D01*
X3833914Y-4200416D01*
X3842868Y-4206399D01*
X3853430Y-4208500D01*
X3931472D01*
X3932384Y-4209109D01*
X3947250Y-4212067D01*
X4125150D01*
Y-4236470D01*
X4127251Y-4247032D01*
X4133234Y-4255986D01*
X4142188Y-4261969D01*
X4152750Y-4264070D01*
X4229250D01*
X4241302Y-4274622D01*
Y-4319973D01*
X4198053Y-4363222D01*
X3653428D01*
X3648568Y-4351489D01*
X3813922Y-4186135D01*
X3827672Y-4190161D01*
D02*
G37*
G36*
X1363482Y-5389880D02*
X1365454Y-5399791D01*
X1368204Y-5403907D01*
X1359048Y-5413063D01*
X1355477Y-5410677D01*
X1342536Y-5397736D01*
X1332367Y-5382518D01*
X1325364Y-5365610D01*
X1321793Y-5347660D01*
Y-5338509D01*
X1321793Y-5338508D01*
X1321793Y-5338507D01*
X1321779Y-4831593D01*
X1322739Y-4680958D01*
X1322464Y-4679526D01*
X1322678Y-4678085D01*
X1321781Y-4659839D01*
X1320848Y-4656115D01*
Y-4652276D01*
X1313729Y-4616483D01*
X1311776Y-4611769D01*
X1310781Y-4606766D01*
X1297940Y-4575764D01*
Y-4495800D01*
X1233803D01*
X1231658Y-4493655D01*
X1216606Y-4483598D01*
X1220458Y-4470898D01*
X1363482D01*
Y-5389880D01*
D02*
G37*
%LPC*%
G36*
X4875580Y-4039090D02*
X4850030D01*
X4837486Y-4041586D01*
X4826851Y-4048691D01*
X4819746Y-4059326D01*
X4817250Y-4071870D01*
Y-4122419D01*
X4875580D01*
Y-4039090D01*
D02*
G37*
G36*
X4394250Y-4077190D02*
X4368700D01*
Y-4160520D01*
X4427030D01*
Y-4109970D01*
X4424534Y-4097426D01*
X4417429Y-4086791D01*
X4406794Y-4079686D01*
X4394250Y-4077190D01*
D02*
G37*
G36*
X4343300D02*
X4317750D01*
X4305206Y-4079686D01*
X4294571Y-4086791D01*
X4287465Y-4097426D01*
X4284970Y-4109970D01*
Y-4160520D01*
X4343300D01*
Y-4077190D01*
D02*
G37*
G36*
X4875580Y-4147819D02*
X4817250D01*
Y-4198370D01*
X4819746Y-4210914D01*
X4826851Y-4221549D01*
X4837486Y-4228654D01*
X4850030Y-4231150D01*
X4875580D01*
Y-4147819D01*
D02*
G37*
G36*
X4427030Y-4185920D02*
X4368700D01*
Y-4269250D01*
X4394250D01*
X4406794Y-4266754D01*
X4417429Y-4259649D01*
X4424534Y-4249014D01*
X4427030Y-4236470D01*
Y-4185920D01*
D02*
G37*
G36*
X4343300D02*
X4284970D01*
Y-4236470D01*
X4287465Y-4249014D01*
X4294571Y-4259649D01*
X4305206Y-4266754D01*
X4317750Y-4269250D01*
X4343300D01*
Y-4185920D01*
D02*
G37*
G36*
X3735580Y-4568278D02*
X3721069Y-4572167D01*
X3697491Y-4585779D01*
X3678240Y-4605031D01*
X3673330Y-4613534D01*
X3660630D01*
X3655720Y-4605031D01*
X3636469Y-4585779D01*
X3612891Y-4572167D01*
X3598380Y-4568278D01*
Y-4668520D01*
Y-4768762D01*
X3612891Y-4764873D01*
X3636469Y-4751261D01*
X3655720Y-4732009D01*
X3660630Y-4723506D01*
X3673330D01*
X3678240Y-4732009D01*
X3697491Y-4751261D01*
X3721069Y-4764873D01*
X3735580Y-4768762D01*
Y-4668520D01*
Y-4568278D01*
D02*
G37*
G36*
X3786380D02*
Y-4643120D01*
X3861222D01*
X3857333Y-4628609D01*
X3843721Y-4605031D01*
X3824469Y-4585779D01*
X3800891Y-4572167D01*
X3786380Y-4568278D01*
D02*
G37*
G36*
X3547580D02*
X3533069Y-4572167D01*
X3509491Y-4585779D01*
X3490239Y-4605031D01*
X3476627Y-4628609D01*
X3472738Y-4643120D01*
X3547580D01*
Y-4568278D01*
D02*
G37*
G36*
X3861222Y-4693920D02*
X3786380D01*
Y-4768762D01*
X3800891Y-4764873D01*
X3824469Y-4751261D01*
X3843721Y-4732009D01*
X3857333Y-4708431D01*
X3861222Y-4693920D01*
D02*
G37*
G36*
X3547580D02*
X3472738D01*
X3476627Y-4708431D01*
X3490239Y-4732009D01*
X3509491Y-4751261D01*
X3533069Y-4764873D01*
X3547580Y-4768762D01*
Y-4693920D01*
D02*
G37*
G36*
X3735580Y-4822278D02*
X3721069Y-4826167D01*
X3697491Y-4839779D01*
X3678240Y-4859031D01*
X3673330Y-4867534D01*
X3660630D01*
X3655720Y-4859031D01*
X3636469Y-4839779D01*
X3612891Y-4826167D01*
X3598380Y-4822278D01*
Y-4922520D01*
Y-5022762D01*
X3612891Y-5018873D01*
X3636469Y-5005260D01*
X3655720Y-4986009D01*
X3660630Y-4977506D01*
X3673330D01*
X3678240Y-4986009D01*
X3697491Y-5005260D01*
X3721069Y-5018873D01*
X3735580Y-5022762D01*
Y-4922520D01*
Y-4822278D01*
D02*
G37*
G36*
X3786380D02*
Y-4897120D01*
X3861222D01*
X3857333Y-4882609D01*
X3843721Y-4859031D01*
X3824469Y-4839779D01*
X3800891Y-4826167D01*
X3786380Y-4822278D01*
D02*
G37*
G36*
X3547580D02*
X3533069Y-4826167D01*
X3509491Y-4839779D01*
X3490239Y-4859031D01*
X3476627Y-4882609D01*
X3472738Y-4897120D01*
X3547580D01*
Y-4822278D01*
D02*
G37*
G36*
X3861222Y-4947920D02*
X3786380D01*
Y-5022762D01*
X3800891Y-5018873D01*
X3824469Y-5005260D01*
X3843721Y-4986009D01*
X3857333Y-4962431D01*
X3861222Y-4947920D01*
D02*
G37*
G36*
X3547580D02*
X3472738D01*
X3476627Y-4962431D01*
X3490239Y-4986009D01*
X3509491Y-5005260D01*
X3533069Y-5018873D01*
X3547580Y-5022762D01*
Y-4947920D01*
D02*
G37*
G36*
X4250513Y-4648200D02*
X4211447D01*
X4173132Y-4655821D01*
X4137040Y-4670771D01*
X4104558Y-4692475D01*
X4076935Y-4720098D01*
X4055231Y-4752580D01*
X4040281Y-4788672D01*
X4032660Y-4826987D01*
Y-4866053D01*
X4040281Y-4904368D01*
X4055231Y-4940460D01*
X4076935Y-4972942D01*
X4104558Y-5000565D01*
X4137040Y-5022269D01*
X4173132Y-5037219D01*
X4211447Y-5044840D01*
X4250513D01*
X4288828Y-5037219D01*
X4324919Y-5022269D01*
X4357401Y-5000565D01*
X4385025Y-4972942D01*
X4406729Y-4940460D01*
X4421678Y-4904368D01*
X4429300Y-4866053D01*
Y-4826987D01*
X4421678Y-4788672D01*
X4406729Y-4752580D01*
X4385025Y-4720098D01*
X4357401Y-4692475D01*
X4324919Y-4670771D01*
X4288828Y-4655821D01*
X4250513Y-4648200D01*
D02*
G37*
G36*
X3735580Y-5076278D02*
X3721069Y-5080167D01*
X3697491Y-5093779D01*
X3678240Y-5113031D01*
X3673330Y-5121534D01*
X3660630D01*
X3655720Y-5113031D01*
X3636469Y-5093779D01*
X3612891Y-5080167D01*
X3598380Y-5076278D01*
Y-5176520D01*
Y-5276762D01*
X3612891Y-5272873D01*
X3636469Y-5259260D01*
X3655720Y-5240009D01*
X3660630Y-5231506D01*
X3673330D01*
X3678240Y-5240009D01*
X3697491Y-5259260D01*
X3721069Y-5272873D01*
X3735580Y-5276762D01*
Y-5176520D01*
Y-5076278D01*
D02*
G37*
G36*
X3786380D02*
Y-5151120D01*
X3861222D01*
X3857333Y-5136609D01*
X3843721Y-5113031D01*
X3824469Y-5093779D01*
X3800891Y-5080167D01*
X3786380Y-5076278D01*
D02*
G37*
G36*
X3547580D02*
X3533069Y-5080167D01*
X3509491Y-5093779D01*
X3490239Y-5113031D01*
X3476627Y-5136609D01*
X3472738Y-5151120D01*
X3547580D01*
Y-5076278D01*
D02*
G37*
G36*
X3861222Y-5201920D02*
X3786380D01*
Y-5276762D01*
X3800891Y-5272873D01*
X3824469Y-5259260D01*
X3843721Y-5240009D01*
X3857333Y-5216431D01*
X3861222Y-5201920D01*
D02*
G37*
G36*
X3547580D02*
X3472738D01*
X3476627Y-5216431D01*
X3490239Y-5240009D01*
X3509491Y-5259260D01*
X3533069Y-5272873D01*
X3547580Y-5276762D01*
Y-5201920D01*
D02*
G37*
G36*
X2235580Y-4568278D02*
X2221069Y-4572167D01*
X2197491Y-4585779D01*
X2178239Y-4605031D01*
X2173330Y-4613534D01*
X2160630D01*
X2155720Y-4605031D01*
X2136469Y-4585779D01*
X2112891Y-4572167D01*
X2098380Y-4568278D01*
Y-4668520D01*
Y-4768762D01*
X2112891Y-4764873D01*
X2136469Y-4751261D01*
X2155720Y-4732009D01*
X2160630Y-4723506D01*
X2173330D01*
X2178239Y-4732009D01*
X2197491Y-4751261D01*
X2221069Y-4764873D01*
X2235580Y-4768762D01*
Y-4668520D01*
Y-4568278D01*
D02*
G37*
G36*
X2286380D02*
Y-4643120D01*
X2361222D01*
X2357333Y-4628609D01*
X2343720Y-4605031D01*
X2324469Y-4585779D01*
X2300891Y-4572167D01*
X2286380Y-4568278D01*
D02*
G37*
G36*
X2047580D02*
X2033069Y-4572167D01*
X2009491Y-4585779D01*
X1990239Y-4605031D01*
X1976626Y-4628609D01*
X1972738Y-4643120D01*
X2047580D01*
Y-4568278D01*
D02*
G37*
G36*
X2361222Y-4693920D02*
X2286380D01*
Y-4768762D01*
X2300891Y-4764873D01*
X2324469Y-4751261D01*
X2343720Y-4732009D01*
X2357333Y-4708431D01*
X2361222Y-4693920D01*
D02*
G37*
G36*
X2047580D02*
X1972738D01*
X1976626Y-4708431D01*
X1990239Y-4732009D01*
X2009491Y-4751261D01*
X2033069Y-4764873D01*
X2047580Y-4768762D01*
Y-4693920D01*
D02*
G37*
G36*
X2235580Y-4822278D02*
X2221069Y-4826167D01*
X2197491Y-4839779D01*
X2178239Y-4859031D01*
X2173330Y-4867534D01*
X2160630D01*
X2155720Y-4859031D01*
X2136469Y-4839779D01*
X2112891Y-4826167D01*
X2098380Y-4822278D01*
Y-4922520D01*
Y-5022762D01*
X2112891Y-5018873D01*
X2136469Y-5005260D01*
X2155720Y-4986009D01*
X2160630Y-4977506D01*
X2173330D01*
X2178239Y-4986009D01*
X2197491Y-5005260D01*
X2221069Y-5018873D01*
X2235580Y-5022762D01*
Y-4922520D01*
Y-4822278D01*
D02*
G37*
G36*
X2286380D02*
Y-4897120D01*
X2361222D01*
X2357333Y-4882609D01*
X2343720Y-4859031D01*
X2324469Y-4839779D01*
X2300891Y-4826167D01*
X2286380Y-4822278D01*
D02*
G37*
G36*
X2047580D02*
X2033069Y-4826167D01*
X2009491Y-4839779D01*
X1990239Y-4859031D01*
X1976626Y-4882609D01*
X1972738Y-4897120D01*
X2047580D01*
Y-4822278D01*
D02*
G37*
G36*
X2361222Y-4947920D02*
X2286380D01*
Y-5022762D01*
X2300891Y-5018873D01*
X2324469Y-5005260D01*
X2343720Y-4986009D01*
X2357333Y-4962431D01*
X2361222Y-4947920D01*
D02*
G37*
G36*
X2047580D02*
X1972738D01*
X1976626Y-4962431D01*
X1990239Y-4986009D01*
X2009491Y-5005260D01*
X2033069Y-5018873D01*
X2047580Y-5022762D01*
Y-4947920D01*
D02*
G37*
G36*
X1622513Y-4648200D02*
X1583447D01*
X1545132Y-4655821D01*
X1509040Y-4670771D01*
X1476558Y-4692475D01*
X1448935Y-4720098D01*
X1427231Y-4752580D01*
X1412281Y-4788672D01*
X1404660Y-4826987D01*
Y-4866053D01*
X1412281Y-4904368D01*
X1427231Y-4940460D01*
X1448935Y-4972942D01*
X1476558Y-5000565D01*
X1509040Y-5022269D01*
X1545132Y-5037219D01*
X1583447Y-5044840D01*
X1622513D01*
X1660828Y-5037219D01*
X1696920Y-5022269D01*
X1729402Y-5000565D01*
X1757025Y-4972942D01*
X1778729Y-4940460D01*
X1793679Y-4904368D01*
X1801300Y-4866053D01*
Y-4826987D01*
X1793679Y-4788672D01*
X1778729Y-4752580D01*
X1757025Y-4720098D01*
X1729402Y-4692475D01*
X1696920Y-4670771D01*
X1660828Y-4655821D01*
X1622513Y-4648200D01*
D02*
G37*
G36*
X2235580Y-5076278D02*
X2221069Y-5080167D01*
X2197491Y-5093779D01*
X2178239Y-5113031D01*
X2173330Y-5121534D01*
X2160630D01*
X2155720Y-5113031D01*
X2136469Y-5093779D01*
X2112891Y-5080167D01*
X2098380Y-5076278D01*
Y-5176520D01*
Y-5276762D01*
X2112891Y-5272873D01*
X2136469Y-5259260D01*
X2155720Y-5240009D01*
X2160630Y-5231506D01*
X2173330D01*
X2178239Y-5240009D01*
X2197491Y-5259260D01*
X2221069Y-5272873D01*
X2235580Y-5276762D01*
Y-5176520D01*
Y-5076278D01*
D02*
G37*
G36*
X2286380D02*
Y-5151120D01*
X2361222D01*
X2357333Y-5136609D01*
X2343720Y-5113031D01*
X2324469Y-5093779D01*
X2300891Y-5080167D01*
X2286380Y-5076278D01*
D02*
G37*
G36*
X2047580D02*
X2033069Y-5080167D01*
X2009491Y-5093779D01*
X1990239Y-5113031D01*
X1976626Y-5136609D01*
X1972738Y-5151120D01*
X2047580D01*
Y-5076278D01*
D02*
G37*
G36*
X2361222Y-5201920D02*
X2286380D01*
Y-5276762D01*
X2300891Y-5272873D01*
X2324469Y-5259260D01*
X2343720Y-5240009D01*
X2357333Y-5216431D01*
X2361222Y-5201920D01*
D02*
G37*
G36*
X2047580D02*
X1972738D01*
X1976626Y-5216431D01*
X1990239Y-5240009D01*
X2009491Y-5259260D01*
X2033069Y-5272873D01*
X2047580Y-5276762D01*
Y-5201920D01*
D02*
G37*
G36*
X2379078Y-1804200D02*
X2360562D01*
X2342678Y-1808992D01*
X2326643Y-1818250D01*
X2313550Y-1831343D01*
X2304292Y-1847378D01*
X2299500Y-1865262D01*
Y-1883778D01*
X2304292Y-1901662D01*
X2313550Y-1917697D01*
X2326643Y-1930790D01*
X2328856Y-1932068D01*
X2329031Y-1932360D01*
X2330034Y-1934992D01*
X2331602Y-1936652D01*
X2332775Y-1938611D01*
X2335037Y-1940290D01*
X2336972Y-1942338D01*
X2339000Y-1943247D01*
X2339257Y-1944679D01*
X2339323Y-1945352D01*
Y-2104497D01*
X2339296Y-2104810D01*
X2338440Y-2108379D01*
X2336594Y-2113464D01*
X2333625Y-2119837D01*
X2329484Y-2127330D01*
X2324416Y-2135409D01*
X2300899Y-2166837D01*
X2290994Y-2178596D01*
X2290764Y-2179014D01*
X2286175Y-2183603D01*
X2269666Y-2212198D01*
X2267870Y-2218899D01*
X2255170D01*
X2253374Y-2212198D01*
X2236865Y-2183603D01*
X2213517Y-2160255D01*
X2184922Y-2143746D01*
X2153029Y-2135200D01*
X2120011D01*
X2088117Y-2143746D01*
X2059523Y-2160255D01*
X2036175Y-2183603D01*
X2019666Y-2212198D01*
X2011120Y-2244091D01*
Y-2277109D01*
X2019666Y-2309002D01*
X2036175Y-2337597D01*
X2059523Y-2360945D01*
X2088117Y-2377454D01*
X2120011Y-2386000D01*
X2153029D01*
X2184922Y-2377454D01*
X2213517Y-2360945D01*
X2236865Y-2337597D01*
X2253374Y-2309002D01*
X2255170Y-2302301D01*
X2267870D01*
X2269666Y-2309002D01*
X2286175Y-2337597D01*
X2293313Y-2344735D01*
X2294172Y-2346166D01*
X2304541Y-2357593D01*
X2313351Y-2367892D01*
X2328029Y-2387056D01*
X2333248Y-2394972D01*
X2337409Y-2402195D01*
X2340383Y-2408380D01*
X2342227Y-2413356D01*
X2343092Y-2416940D01*
X2343133Y-2417411D01*
Y-2655300D01*
X2330067Y-2668367D01*
X2321560Y-2688905D01*
Y-2711135D01*
X2330067Y-2731673D01*
X2345787Y-2747393D01*
X2366325Y-2755900D01*
X2388555D01*
X2409093Y-2747393D01*
X2424813Y-2731673D01*
X2433320Y-2711135D01*
Y-2688905D01*
X2424813Y-2668367D01*
X2422383Y-2665936D01*
X2422294Y-2665808D01*
X2422096Y-2665469D01*
X2421874Y-2665011D01*
X2421632Y-2664403D01*
X2421383Y-2663624D01*
X2421140Y-2662647D01*
X2420985Y-2661805D01*
X2420827Y-2660196D01*
Y-2418516D01*
X2420893Y-2417750D01*
X2421769Y-2414185D01*
X2423588Y-2409501D01*
X2426531Y-2403807D01*
X2430691Y-2397237D01*
X2436118Y-2389894D01*
X2442630Y-2382103D01*
X2460203Y-2363917D01*
X2463254Y-2361097D01*
X2463517Y-2360945D01*
X2464724Y-2359738D01*
X2470784Y-2354136D01*
X2472003Y-2352460D01*
X2486865Y-2337597D01*
X2503374Y-2309002D01*
X2511920Y-2277109D01*
Y-2244091D01*
X2503374Y-2212198D01*
X2486865Y-2183603D01*
X2467619Y-2164357D01*
X2467544Y-2164257D01*
X2467317Y-2164055D01*
X2463517Y-2160255D01*
X2462201Y-2159495D01*
X2446780Y-2145751D01*
X2438953Y-2137790D01*
X2432237Y-2130179D01*
X2426820Y-2123183D01*
X2422680Y-2116887D01*
X2419765Y-2111409D01*
X2417967Y-2106866D01*
X2417091Y-2103328D01*
X2417017Y-2102465D01*
Y-1940102D01*
X2417070Y-1939434D01*
X2417390Y-1937176D01*
X2417774Y-1935383D01*
X2418169Y-1934052D01*
X2418525Y-1933151D01*
X2418785Y-1932642D01*
X2418907Y-1932456D01*
X2419914Y-1931496D01*
X2421352Y-1929454D01*
X2423169Y-1927738D01*
X2424234Y-1925362D01*
X2425732Y-1923235D01*
X2426279Y-1920798D01*
X2427301Y-1918517D01*
X2427376Y-1915914D01*
X2427538Y-1915188D01*
X2435348Y-1901662D01*
X2440140Y-1883778D01*
Y-1865262D01*
X2435348Y-1847378D01*
X2426090Y-1831343D01*
X2412997Y-1818250D01*
X2396962Y-1808992D01*
X2379078Y-1804200D01*
D02*
G37*
G36*
X4185920Y-2201682D02*
X4095744D01*
X4085833Y-2203654D01*
X4077431Y-2209268D01*
X4077284Y-2209414D01*
X4062918Y-2217709D01*
X4046894Y-2222002D01*
X4030306D01*
X4014282Y-2217709D01*
X3999916Y-2209415D01*
X3999769Y-2209268D01*
X3991367Y-2203654D01*
X3981456Y-2201682D01*
X3816344D01*
X3806433Y-2203654D01*
X3798031Y-2209268D01*
X3797884Y-2209414D01*
X3783518Y-2217709D01*
X3767494Y-2222002D01*
X3750906D01*
X3734882Y-2217709D01*
X3720516Y-2209415D01*
X3720369Y-2209268D01*
X3711967Y-2203654D01*
X3702056Y-2201682D01*
X3103880D01*
X3093969Y-2203654D01*
X3085568Y-2209268D01*
X3079954Y-2217669D01*
X3077982Y-2227580D01*
Y-3646445D01*
X3014000D01*
Y-3635000D01*
X2913360D01*
Y-3682201D01*
X2905688Y-3687328D01*
X2900074Y-3695729D01*
X2898102Y-3705640D01*
Y-3795000D01*
X2900074Y-3804911D01*
X2905688Y-3813312D01*
X2914089Y-3818926D01*
X2924000Y-3820898D01*
X3005641D01*
X3014000Y-3822560D01*
X3258820D01*
X3268731Y-3820589D01*
X3277132Y-3814975D01*
X3282746Y-3806573D01*
X3284718Y-3796663D01*
X3284717Y-3556498D01*
X4185920D01*
X4195830Y-3554526D01*
X4204232Y-3548912D01*
X4209846Y-3540511D01*
X4211817Y-3530600D01*
Y-2227580D01*
X4209846Y-2217669D01*
X4204232Y-2209268D01*
X4195830Y-2203654D01*
X4185920Y-2201682D01*
D02*
G37*
G36*
X922360Y-2796927D02*
X818360D01*
X805359Y-2799513D01*
X794338Y-2806878D01*
X786973Y-2817899D01*
X784387Y-2830900D01*
Y-2934900D01*
X786973Y-2947901D01*
X794338Y-2958922D01*
X805359Y-2966287D01*
X818360Y-2968873D01*
X843753D01*
Y-2992828D01*
X833788Y-2994811D01*
X824834Y-3000794D01*
X818851Y-3009748D01*
X816750Y-3020310D01*
Y-3146810D01*
X818851Y-3157372D01*
X824834Y-3166326D01*
X833788Y-3172309D01*
X844350Y-3174410D01*
X920850D01*
X931412Y-3172309D01*
X940366Y-3166326D01*
X946349Y-3157372D01*
X948450Y-3146810D01*
Y-3020310D01*
X946349Y-3009748D01*
X940366Y-3000794D01*
X931412Y-2994811D01*
X921446Y-2992828D01*
Y-2968873D01*
X922360D01*
X935361Y-2966287D01*
X946382Y-2958922D01*
X953747Y-2947901D01*
X956333Y-2934900D01*
Y-2830900D01*
X953747Y-2817899D01*
X946382Y-2806878D01*
X935361Y-2799513D01*
X922360Y-2796927D01*
D02*
G37*
G36*
X2459183Y-3355351D02*
X2332683D01*
X2322121Y-3357452D01*
X2313167Y-3363435D01*
X2307184Y-3372389D01*
X2305083Y-3382951D01*
Y-3459451D01*
X2307184Y-3470013D01*
X2313167Y-3478967D01*
X2322121Y-3484951D01*
X2332683Y-3487051D01*
X2459183D01*
X2469745Y-3484951D01*
X2478699Y-3478967D01*
X2480906Y-3475665D01*
X2533091D01*
X2549205Y-3482340D01*
X2571435D01*
X2591973Y-3473833D01*
X2607693Y-3458113D01*
X2616200Y-3437575D01*
Y-3415345D01*
X2607693Y-3394807D01*
X2591973Y-3379087D01*
X2571435Y-3370580D01*
X2549205D01*
X2533091Y-3377255D01*
X2485650D01*
X2484682Y-3372389D01*
X2478699Y-3363435D01*
X2469745Y-3357452D01*
X2459183Y-3355351D01*
D02*
G37*
G36*
X2833470Y-4089890D02*
X2807920D01*
Y-4173220D01*
X2866250D01*
Y-4122670D01*
X2863754Y-4110126D01*
X2856649Y-4099491D01*
X2846014Y-4092386D01*
X2833470Y-4089890D01*
D02*
G37*
G36*
X2782520D02*
X2756970D01*
X2744426Y-4092386D01*
X2733791Y-4099491D01*
X2726685Y-4110126D01*
X2724190Y-4122670D01*
Y-4173220D01*
X2782520D01*
Y-4089890D01*
D02*
G37*
G36*
X2866250Y-4198620D02*
X2807920D01*
Y-4281950D01*
X2833470D01*
X2846014Y-4279454D01*
X2856649Y-4272349D01*
X2863754Y-4261714D01*
X2866250Y-4249170D01*
Y-4198620D01*
D02*
G37*
G36*
X2782520D02*
X2724190D01*
Y-4249170D01*
X2726685Y-4261714D01*
X2733791Y-4272349D01*
X2744426Y-4279454D01*
X2756970Y-4281950D01*
X2782520D01*
Y-4198620D01*
D02*
G37*
G36*
X2835860Y-4298170D02*
X2810310D01*
X2797766Y-4300666D01*
X2787131Y-4307771D01*
X2780025Y-4318406D01*
X2777530Y-4330950D01*
Y-4381500D01*
X2835860D01*
Y-4298170D01*
D02*
G37*
G36*
X2919590Y-4406900D02*
X2861260D01*
Y-4490230D01*
X2886810D01*
X2899354Y-4487734D01*
X2909989Y-4480629D01*
X2917094Y-4469994D01*
X2919590Y-4457450D01*
Y-4406900D01*
D02*
G37*
G36*
X2835860D02*
X2777530D01*
Y-4457450D01*
X2780025Y-4469994D01*
X2787131Y-4480629D01*
X2797766Y-4487734D01*
X2810310Y-4490230D01*
X2835860D01*
Y-4406900D01*
D02*
G37*
G36*
X3235580Y-4568278D02*
X3221069Y-4572167D01*
X3197491Y-4585779D01*
X3178240Y-4605031D01*
X3173330Y-4613534D01*
X3160630D01*
X3155720Y-4605031D01*
X3136469Y-4585779D01*
X3112891Y-4572167D01*
X3098380Y-4568278D01*
Y-4668520D01*
Y-4768762D01*
X3112891Y-4764873D01*
X3136469Y-4751261D01*
X3155720Y-4732009D01*
X3160630Y-4723506D01*
X3173330D01*
X3178240Y-4732009D01*
X3197491Y-4751261D01*
X3221069Y-4764873D01*
X3235580Y-4768762D01*
Y-4668520D01*
Y-4568278D01*
D02*
G37*
G36*
X2735580D02*
X2721069Y-4572167D01*
X2697491Y-4585779D01*
X2678240Y-4605031D01*
X2673330Y-4613534D01*
X2660630D01*
X2655720Y-4605031D01*
X2636469Y-4585779D01*
X2612891Y-4572167D01*
X2598380Y-4568278D01*
Y-4668520D01*
Y-4768762D01*
X2612891Y-4764873D01*
X2636469Y-4751261D01*
X2655720Y-4732009D01*
X2660630Y-4723506D01*
X2673330D01*
X2678240Y-4732009D01*
X2697491Y-4751261D01*
X2721069Y-4764873D01*
X2735580Y-4768762D01*
Y-4668520D01*
Y-4568278D01*
D02*
G37*
G36*
X3286380D02*
Y-4643120D01*
X3361222D01*
X3357333Y-4628609D01*
X3343721Y-4605031D01*
X3324469Y-4585779D01*
X3300891Y-4572167D01*
X3286380Y-4568278D01*
D02*
G37*
G36*
X3047580D02*
X3033069Y-4572167D01*
X3009491Y-4585779D01*
X2990239Y-4605031D01*
X2976627Y-4628609D01*
X2972738Y-4643120D01*
X3047580D01*
Y-4568278D01*
D02*
G37*
G36*
X2786380D02*
Y-4643120D01*
X2861222D01*
X2857333Y-4628609D01*
X2843720Y-4605031D01*
X2824469Y-4585779D01*
X2800891Y-4572167D01*
X2786380Y-4568278D01*
D02*
G37*
G36*
X3361222Y-4693920D02*
X3286380D01*
Y-4768762D01*
X3300891Y-4764873D01*
X3324469Y-4751261D01*
X3343721Y-4732009D01*
X3357333Y-4708431D01*
X3361222Y-4693920D01*
D02*
G37*
G36*
X3047580D02*
X2972738D01*
X2976627Y-4708431D01*
X2990239Y-4732009D01*
X3009491Y-4751261D01*
X3033069Y-4764873D01*
X3047580Y-4768762D01*
Y-4693920D01*
D02*
G37*
G36*
X2861222D02*
X2786380D01*
Y-4768762D01*
X2800891Y-4764873D01*
X2824469Y-4751261D01*
X2843720Y-4732009D01*
X2857333Y-4708431D01*
X2861222Y-4693920D01*
D02*
G37*
G36*
X3235580Y-4822278D02*
X3221069Y-4826167D01*
X3197491Y-4839779D01*
X3178240Y-4859031D01*
X3173330Y-4867534D01*
X3160630D01*
X3155720Y-4859031D01*
X3136469Y-4839779D01*
X3112891Y-4826167D01*
X3098380Y-4822278D01*
Y-4922520D01*
Y-5022762D01*
X3112891Y-5018873D01*
X3136469Y-5005260D01*
X3155720Y-4986009D01*
X3160630Y-4977506D01*
X3173330D01*
X3178240Y-4986009D01*
X3197491Y-5005260D01*
X3221069Y-5018873D01*
X3235580Y-5022762D01*
Y-4922520D01*
Y-4822278D01*
D02*
G37*
G36*
X2735580D02*
X2721069Y-4826167D01*
X2697491Y-4839779D01*
X2678240Y-4859031D01*
X2673330Y-4867534D01*
X2660630D01*
X2655720Y-4859031D01*
X2636469Y-4839779D01*
X2612891Y-4826167D01*
X2598380Y-4822278D01*
Y-4922520D01*
Y-5022762D01*
X2612891Y-5018873D01*
X2636469Y-5005260D01*
X2655720Y-4986009D01*
X2660630Y-4977506D01*
X2673330D01*
X2678240Y-4986009D01*
X2697491Y-5005260D01*
X2721069Y-5018873D01*
X2735580Y-5022762D01*
Y-4922520D01*
Y-4822278D01*
D02*
G37*
G36*
X3286380D02*
Y-4897120D01*
X3361222D01*
X3357333Y-4882609D01*
X3343721Y-4859031D01*
X3324469Y-4839779D01*
X3300891Y-4826167D01*
X3286380Y-4822278D01*
D02*
G37*
G36*
X3047580D02*
X3033069Y-4826167D01*
X3009491Y-4839779D01*
X2990239Y-4859031D01*
X2976627Y-4882609D01*
X2972738Y-4897120D01*
X3047580D01*
Y-4822278D01*
D02*
G37*
G36*
X2786380D02*
Y-4897120D01*
X2861222D01*
X2857333Y-4882609D01*
X2843720Y-4859031D01*
X2824469Y-4839779D01*
X2800891Y-4826167D01*
X2786380Y-4822278D01*
D02*
G37*
G36*
X3361222Y-4947920D02*
X3286380D01*
Y-5022762D01*
X3300891Y-5018873D01*
X3324469Y-5005260D01*
X3343721Y-4986009D01*
X3357333Y-4962431D01*
X3361222Y-4947920D01*
D02*
G37*
G36*
X3047580D02*
X2972738D01*
X2976627Y-4962431D01*
X2990239Y-4986009D01*
X3009491Y-5005260D01*
X3033069Y-5018873D01*
X3047580Y-5022762D01*
Y-4947920D01*
D02*
G37*
G36*
X2861222D02*
X2786380D01*
Y-5022762D01*
X2800891Y-5018873D01*
X2824469Y-5005260D01*
X2843720Y-4986009D01*
X2857333Y-4962431D01*
X2861222Y-4947920D01*
D02*
G37*
G36*
X3235580Y-5076278D02*
X3221069Y-5080167D01*
X3197491Y-5093779D01*
X3178240Y-5113031D01*
X3173330Y-5121534D01*
X3160630D01*
X3155720Y-5113031D01*
X3136469Y-5093779D01*
X3112891Y-5080167D01*
X3098380Y-5076278D01*
Y-5176520D01*
Y-5276762D01*
X3112891Y-5272873D01*
X3136469Y-5259260D01*
X3155720Y-5240009D01*
X3160630Y-5231506D01*
X3173330D01*
X3178240Y-5240009D01*
X3197491Y-5259260D01*
X3221069Y-5272873D01*
X3235580Y-5276762D01*
Y-5176520D01*
Y-5076278D01*
D02*
G37*
G36*
X2735580D02*
X2721069Y-5080167D01*
X2697491Y-5093779D01*
X2678240Y-5113031D01*
X2673330Y-5121534D01*
X2660630D01*
X2655720Y-5113031D01*
X2636469Y-5093779D01*
X2612891Y-5080167D01*
X2598380Y-5076278D01*
Y-5176520D01*
Y-5276762D01*
X2612891Y-5272873D01*
X2636469Y-5259260D01*
X2655720Y-5240009D01*
X2660630Y-5231506D01*
X2673330D01*
X2678240Y-5240009D01*
X2697491Y-5259260D01*
X2721069Y-5272873D01*
X2735580Y-5276762D01*
Y-5176520D01*
Y-5076278D01*
D02*
G37*
G36*
X3286380D02*
Y-5151120D01*
X3361222D01*
X3357333Y-5136609D01*
X3343721Y-5113031D01*
X3324469Y-5093779D01*
X3300891Y-5080167D01*
X3286380Y-5076278D01*
D02*
G37*
G36*
X3047580D02*
X3033069Y-5080167D01*
X3009491Y-5093779D01*
X2990239Y-5113031D01*
X2976627Y-5136609D01*
X2972738Y-5151120D01*
X3047580D01*
Y-5076278D01*
D02*
G37*
G36*
X2786380D02*
Y-5151120D01*
X2861222D01*
X2857333Y-5136609D01*
X2843720Y-5113031D01*
X2824469Y-5093779D01*
X2800891Y-5080167D01*
X2786380Y-5076278D01*
D02*
G37*
G36*
X3361222Y-5201920D02*
X3286380D01*
Y-5276762D01*
X3300891Y-5272873D01*
X3324469Y-5259260D01*
X3343721Y-5240009D01*
X3357333Y-5216431D01*
X3361222Y-5201920D01*
D02*
G37*
G36*
X3047580D02*
X2972738D01*
X2976627Y-5216431D01*
X2990239Y-5240009D01*
X3009491Y-5259260D01*
X3033069Y-5272873D01*
X3047580Y-5276762D01*
Y-5201920D01*
D02*
G37*
G36*
X2861222D02*
X2786380D01*
Y-5276762D01*
X2800891Y-5272873D01*
X2824469Y-5259260D01*
X2843720Y-5240009D01*
X2857333Y-5216431D01*
X2861222Y-5201920D01*
D02*
G37*
%LPD*%
G36*
X2399930Y-1914765D02*
X2398029Y-1917061D01*
X2396351Y-1919631D01*
X2394897Y-1922475D01*
X2393666Y-1925591D01*
X2392660Y-1928981D01*
X2391877Y-1932644D01*
X2391318Y-1936581D01*
X2390982Y-1940790D01*
X2390870Y-1945273D01*
X2365470Y-1949730D01*
X2365335Y-1945243D01*
X2364930Y-1941120D01*
X2364255Y-1937360D01*
X2363310Y-1933964D01*
X2362095Y-1930931D01*
X2360610Y-1928263D01*
X2358855Y-1925958D01*
X2356829Y-1924016D01*
X2354534Y-1922439D01*
X2351969Y-1921225D01*
X2402056Y-1912741D01*
X2399930Y-1914765D01*
D02*
G37*
G36*
X2391464Y-2107582D02*
X2393248Y-2114780D01*
X2396220Y-2122290D01*
X2400381Y-2130112D01*
X2405731Y-2138246D01*
X2412269Y-2146691D01*
X2419997Y-2155449D01*
X2428913Y-2164517D01*
X2450313Y-2183590D01*
X2310801Y-2195280D01*
X2321188Y-2182949D01*
X2345789Y-2150071D01*
X2351803Y-2140484D01*
X2356723Y-2131583D01*
X2360550Y-2123369D01*
X2363283Y-2115840D01*
X2364923Y-2108997D01*
X2365470Y-2102841D01*
X2390870Y-2100695D01*
X2391464Y-2107582D01*
D02*
G37*
G36*
X2453206Y-2335119D02*
X2442086Y-2345397D01*
X2423358Y-2364779D01*
X2415749Y-2373882D01*
X2409311Y-2382593D01*
X2404044Y-2390911D01*
X2399947Y-2398838D01*
X2397021Y-2406373D01*
X2395265Y-2413516D01*
X2394680Y-2420267D01*
X2369280Y-2419103D01*
X2368721Y-2412745D01*
X2367043Y-2405793D01*
X2364246Y-2398246D01*
X2360331Y-2390104D01*
X2355298Y-2381367D01*
X2349145Y-2372036D01*
X2333485Y-2351589D01*
X2323977Y-2340473D01*
X2313350Y-2328763D01*
X2453206Y-2335119D01*
D02*
G37*
G36*
X2394680Y-2656596D02*
X2394751Y-2659665D01*
X2395319Y-2665429D01*
X2395816Y-2668124D01*
X2396455Y-2670694D01*
X2397236Y-2673140D01*
X2398159Y-2675460D01*
X2399224Y-2677656D01*
X2400431Y-2679727D01*
X2401780Y-2681674D01*
X2359584Y-2675318D01*
X2361426Y-2673827D01*
X2363075Y-2672157D01*
X2364529Y-2670308D01*
X2365790Y-2668281D01*
X2366856Y-2666075D01*
X2367729Y-2663691D01*
X2368407Y-2661127D01*
X2368892Y-2658385D01*
X2369183Y-2655464D01*
X2369280Y-2652365D01*
X2394680Y-2656596D01*
D02*
G37*
G36*
X4185920Y-3530600D02*
X3258820D01*
X3258820Y-3796663D01*
X3014000D01*
Y-3795000D01*
X2924000D01*
Y-3705640D01*
X3014000D01*
Y-3672342D01*
X3103880D01*
Y-2227580D01*
X3702056D01*
X3704614Y-2230138D01*
X3724886Y-2241842D01*
X3747496Y-2247900D01*
X3770904D01*
X3793514Y-2241842D01*
X3813786Y-2230138D01*
X3816344Y-2227580D01*
X3981456D01*
X3984014Y-2230138D01*
X4004286Y-2241842D01*
X4026896Y-2247900D01*
X4050304D01*
X4072914Y-2241842D01*
X4093186Y-2230138D01*
X4095744Y-2227580D01*
X4185920D01*
Y-3530600D01*
D02*
G37*
D10*
X2957230Y-3275994D02*
D03*
Y-3089994D02*
D03*
D11*
X3352230Y-3182994D02*
D03*
D12*
X5053280Y-4135120D02*
D03*
X4888280D02*
D03*
X3414040Y-4271588D02*
D03*
X3249040D02*
D03*
X717600Y-3083560D02*
D03*
X882600D02*
D03*
X2683560Y-4394200D02*
D03*
X2848560D02*
D03*
X4191000Y-4173220D02*
D03*
X4356000D02*
D03*
X5523180Y-2733040D02*
D03*
X5358180D02*
D03*
Y-2339340D02*
D03*
X5523180D02*
D03*
X2630220Y-4185920D02*
D03*
X2795220D02*
D03*
D13*
X5494880Y-4142740D02*
D03*
X5284880D02*
D03*
X1080360Y-2882900D02*
D03*
X870360D02*
D03*
D14*
X5608260Y-3670300D02*
D03*
X5283260D02*
D03*
X5605720Y-3327400D02*
D03*
X5280720D02*
D03*
X5605720Y-2984500D02*
D03*
X5280720D02*
D03*
D15*
X3204285Y-3918288D02*
D03*
Y-4097287D02*
D03*
X3443045Y-3918288D02*
D03*
Y-4097287D02*
D03*
X1983740Y-3548980D02*
D03*
Y-3369980D02*
D03*
D16*
X1056640Y-3657260D02*
D03*
Y-3297260D02*
D03*
X1717040Y-3657260D02*
D03*
Y-3297260D02*
D03*
X1386840Y-3657260D02*
D03*
Y-3297260D02*
D03*
D17*
X2161540Y-3382060D02*
D03*
Y-3547060D02*
D03*
X2395933Y-3586201D02*
D03*
Y-3421201D02*
D03*
X3916680Y-4142650D02*
D03*
Y-3977650D02*
D03*
D18*
X3820920Y-2829560D02*
D03*
X4820920D02*
D03*
D19*
X2963680Y-3670320D02*
D03*
X2583680D02*
D03*
Y-3750320D02*
D03*
Y-3830320D02*
D03*
Y-3910320D02*
D03*
Y-3990320D02*
D03*
X2963680Y-3750320D02*
D03*
Y-3830320D02*
D03*
Y-3910320D02*
D03*
Y-3990320D02*
D03*
D20*
X2773680Y-3830320D02*
D03*
D21*
X3418840Y-2771140D02*
D03*
X4170680Y-3868420D02*
D03*
X2369820Y-1874520D02*
D03*
D22*
X5535260Y-2537460D02*
D03*
X5356260D02*
D03*
D23*
X5053280Y-4135120D02*
X5057090Y-4138930D01*
X5281070D01*
X5284880Y-4142740D01*
X5053280Y-4135120D02*
Y-4131872D01*
X5075420Y-4109732D01*
X3428543Y-4111790D02*
X3443045Y-4097287D01*
X3414040Y-4271588D02*
X3428543Y-4257086D01*
X2401192Y-3426460D02*
X2560320D01*
D24*
X4170680Y-4152900D02*
Y-3868420D01*
Y-4152900D02*
X4191000Y-4173220D01*
X3916680Y-4142650D02*
X3947250Y-4173220D01*
X4191000D01*
X3802470Y-4142650D02*
X3916680D01*
X3077788Y-4271588D02*
X3249040D01*
X3428543Y-4257086D02*
Y-4111790D01*
X3204285Y-4201833D02*
Y-4097287D01*
Y-4201833D02*
X3249040Y-4246588D01*
Y-4271588D02*
Y-4246588D01*
X3040019Y-4381500D02*
X3563620D01*
X3802470Y-4142650D01*
X2395933Y-3421201D02*
X2401192Y-3426460D01*
X2527300Y-3830320D02*
X2583680D01*
X2372360Y-3985260D02*
X2527300Y-3830320D01*
X2260600Y-3985260D02*
X2372360D01*
X717600Y-3811320D02*
Y-3083560D01*
Y-3811320D02*
X800100Y-3893820D01*
X870360Y-2882900D02*
X882600Y-2895140D01*
Y-3083560D02*
Y-2895140D01*
X868320Y-2884940D02*
X870360Y-2882900D01*
X2370933Y-3586201D02*
X2395933D01*
X2499561D01*
X2566380Y-3653020D01*
Y-3668020D02*
Y-3653020D01*
Y-3668020D02*
X2568680Y-3670320D01*
X2583680D01*
X4078740Y-4485140D02*
X4089400Y-4495800D01*
X3048000Y-4241800D02*
X3077788Y-4271588D01*
X2963680Y-3910320D02*
X2978680D01*
X3048000Y-3979640D01*
Y-4241800D02*
Y-3979640D01*
X3387040Y-4116824D02*
X3416045Y-4087819D01*
X2381980Y-2265140D02*
X2386520Y-2260600D01*
X2381980Y-2695480D02*
Y-2265140D01*
X2377440Y-2700020D02*
X2381980Y-2695480D01*
X2369820Y-1874520D02*
X2378170Y-1882870D01*
Y-2252250D02*
Y-1882870D01*
Y-2252250D02*
X2386520Y-2260600D01*
X2963680Y-4305161D02*
X3040019Y-4381500D01*
X2630220Y-4210920D02*
Y-4185920D01*
X2963680Y-4305161D02*
Y-3990320D01*
X2616700Y-4172400D02*
X2630220Y-4185920D01*
D25*
X2501900Y-3935614D02*
X2527195Y-3910320D01*
X2501900Y-4368906D02*
Y-3935614D01*
X2527195Y-3910320D02*
X2583680D01*
X2593840Y-4119378D02*
X2625836Y-4151374D01*
X2527195Y-4394200D02*
X2683560D01*
X2501900Y-4368906D02*
X2527195Y-4394200D01*
X2583680Y-4147318D02*
Y-3990320D01*
D26*
X4230980Y-4846520D02*
D03*
X1602980D02*
D03*
D27*
X2260980Y-5176520D02*
D03*
X2072980D02*
D03*
X2260980Y-4922520D02*
D03*
X2072980D02*
D03*
X2260980Y-4668520D02*
D03*
X2072980D02*
D03*
X3760980Y-5176520D02*
D03*
X3572980D02*
D03*
X3760980Y-4922520D02*
D03*
X3572980D02*
D03*
X3760980Y-4668520D02*
D03*
X3572980D02*
D03*
X3260980Y-5176520D02*
D03*
X3072980D02*
D03*
X3260980Y-4922520D02*
D03*
X3072980D02*
D03*
X3260980Y-4668520D02*
D03*
X3072980D02*
D03*
X2760980Y-5176520D02*
D03*
X2572980D02*
D03*
X2760980Y-4922520D02*
D03*
X2572980D02*
D03*
X2760980Y-4668520D02*
D03*
X2572980D02*
D03*
D28*
X1125220Y-4279900D02*
D03*
X4732020Y-3672840D02*
D03*
X2659380Y-2816860D02*
D03*
D29*
X2636520Y-2260600D02*
D03*
X2386520D02*
D03*
X2136520D02*
D03*
D30*
X5613400Y-1938020D02*
D03*
X5336540Y-1917700D02*
D03*
X5062220Y-1925320D02*
D03*
X3469640Y-2405380D02*
D03*
X4866640Y-4333240D02*
D03*
X5143500Y-4328160D02*
D03*
X5669280Y-4325620D02*
D03*
X5433060Y-4333240D02*
D03*
X2164080Y-2997200D02*
D03*
X800100Y-3893820D02*
D03*
X1981200Y-3911600D02*
D03*
X1135380Y-3914140D02*
D03*
X2997200Y-5359400D02*
D03*
X2819400D02*
D03*
X4696460Y-4196080D02*
D03*
X4465320Y-3807460D02*
D03*
X5105400Y-2590800D02*
D03*
X3987800Y-4673600D02*
D03*
X5105400Y-3454400D02*
D03*
Y-3175000D02*
D03*
X4869180Y-3896360D02*
D03*
X3632200Y-4495800D02*
D03*
X4089400D02*
D03*
X4368800Y-4445000D02*
D03*
X4419600Y-5156200D02*
D03*
X4267200Y-5308600D02*
D03*
X4038600D02*
D03*
X4724400Y-3403600D02*
D03*
X4419600D02*
D03*
X4699000Y-2362200D02*
D03*
X4419600D02*
D03*
Y-2717800D02*
D03*
Y-3124200D02*
D03*
X3505200Y-3429000D02*
D03*
X3784600Y-2489200D02*
D03*
X3987800Y-2463800D02*
D03*
X3665920Y-3249560D02*
D03*
X4013200Y-3175000D02*
D03*
X3243580Y-2885440D02*
D03*
X3251200Y-2692400D02*
D03*
X2971800Y-2768600D02*
D03*
X2548988Y-3087119D02*
D03*
X2641600Y-3251200D02*
D03*
X3327400Y-2057400D02*
D03*
X4800600Y-2159000D02*
D03*
X4546600D02*
D03*
X4267200D02*
D03*
X4038600D02*
D03*
X3759200D02*
D03*
X2844800Y-2463800D02*
D03*
X2970455Y-2220017D02*
D03*
X2794000Y-2057400D02*
D03*
X1803400Y-2997200D02*
D03*
X1955800Y-2743200D02*
D03*
X1701800Y-2387600D02*
D03*
X1397000D02*
D03*
X1092200D02*
D03*
X1701800Y-2082800D02*
D03*
X1397000D02*
D03*
X3263900Y-2400300D02*
D03*
X1092200Y-2082800D02*
D03*
X1854200Y-4711700D02*
D03*
X1841500Y-5219700D02*
D03*
X1549400Y-5207000D02*
D03*
X2222500Y-4221480D02*
D03*
X1567180Y-3919220D02*
D03*
X873760Y-4213860D02*
D03*
X1785620Y-4218940D02*
D03*
X1361440Y-4216400D02*
D03*
D31*
X2560320Y-3426460D02*
D03*
X3181035Y-3522980D02*
D03*
X4241800Y-3302000D02*
D03*
Y-3022600D02*
D03*
Y-2768600D02*
D03*
Y-2489200D02*
D03*
D32*
X2260600Y-3985260D02*
D03*
X2377440Y-2700020D02*
D03*
D33*
X2708680Y-3728720D02*
D03*
X2832880D02*
D03*
X2708680Y-3830320D02*
D03*
X2832880D02*
D03*
X2708680Y-3931920D02*
D03*
X2832880D02*
D03*
%TF.MD5,52fe334b6347ffce034ea87b18640fe8*%
M02*
