%TF.GenerationSoftware,Altium Limited,Altium Designer,24.2.2 (26)*%
G04 Layer_Color=0*
%FSLAX45Y45*%
%MOMM*%
%TF.SameCoordinates,49D751E1-909A-4D1D-99CC-CC6D119DB9C5*%
%TF.FilePolarity,Positive*%
%TF.FileFunction,Plated,1,4,PTH,Drill*%
%TF.Part,Single*%
G01*
G75*
%TA.AperFunction,ComponentDrill*%
%ADD62C,1.04000*%
%ADD63C,1.02000*%
%ADD64C,1.00000*%
%ADD65C,1.02000*%
%TA.AperFunction,ViaDrill,NotFilled*%
%ADD66C,0.71120*%
%ADD67C,0.30480*%
%ADD68C,0.40640*%
D62*
X2260980Y-5176520D02*
D03*
X2072980D02*
D03*
X2260980Y-4922520D02*
D03*
X2072980D02*
D03*
X2260980Y-4668520D02*
D03*
X2072980D02*
D03*
X3760980Y-5176520D02*
D03*
X3572980D02*
D03*
X3760980Y-4922520D02*
D03*
X3572980D02*
D03*
X3760980Y-4668520D02*
D03*
X3572980D02*
D03*
X3260980Y-5176520D02*
D03*
X3072980D02*
D03*
X3260980Y-4922520D02*
D03*
X3072980D02*
D03*
X3260980Y-4668520D02*
D03*
X3072980D02*
D03*
X2760980Y-5176520D02*
D03*
X2572980D02*
D03*
X2760980Y-4922520D02*
D03*
X2572980D02*
D03*
X2760980Y-4668520D02*
D03*
X2572980D02*
D03*
D63*
X1125220Y-4279900D02*
D03*
X4732020Y-3672840D02*
D03*
D64*
X2636520Y-2260600D02*
D03*
X2386520D02*
D03*
X2136520D02*
D03*
D65*
X2659380Y-2816860D02*
D03*
D66*
X5613400Y-1938020D02*
D03*
X5336540Y-1917700D02*
D03*
X5062220Y-1925320D02*
D03*
X3469640Y-2405380D02*
D03*
X4866640Y-4333240D02*
D03*
X5143500Y-4328160D02*
D03*
X5669280Y-4325620D02*
D03*
X5433060Y-4333240D02*
D03*
X2164080Y-2997200D02*
D03*
X800100Y-3893820D02*
D03*
X1981200Y-3911600D02*
D03*
X1135380Y-3914140D02*
D03*
X2997200Y-5359400D02*
D03*
X2819400D02*
D03*
X4696460Y-4196080D02*
D03*
X4465320Y-3807460D02*
D03*
X5105400Y-2590800D02*
D03*
X3987800Y-4673600D02*
D03*
X5105400Y-3454400D02*
D03*
Y-3175000D02*
D03*
X4869180Y-3896360D02*
D03*
X3632200Y-4495800D02*
D03*
X4089400D02*
D03*
X4368800Y-4445000D02*
D03*
X4419600Y-5156200D02*
D03*
X4267200Y-5308600D02*
D03*
X4038600D02*
D03*
X4724400Y-3403600D02*
D03*
X4419600D02*
D03*
X4699000Y-2362200D02*
D03*
X4419600D02*
D03*
Y-2717800D02*
D03*
Y-3124200D02*
D03*
X3505200Y-3429000D02*
D03*
X3784600Y-2489200D02*
D03*
X3987800Y-2463800D02*
D03*
X3665920Y-3249560D02*
D03*
X4013200Y-3175000D02*
D03*
X3243580Y-2885440D02*
D03*
X3251200Y-2692400D02*
D03*
X2971800Y-2768600D02*
D03*
X2548988Y-3087119D02*
D03*
X2641600Y-3251200D02*
D03*
X3327400Y-2057400D02*
D03*
X4800600Y-2159000D02*
D03*
X4546600D02*
D03*
X4267200D02*
D03*
X4038600D02*
D03*
X3759200D02*
D03*
X2844800Y-2463800D02*
D03*
X2970455Y-2220017D02*
D03*
X2794000Y-2057400D02*
D03*
X1803400Y-2997200D02*
D03*
X1955800Y-2743200D02*
D03*
X1701800Y-2387600D02*
D03*
X1397000D02*
D03*
X1092200D02*
D03*
X1701800Y-2082800D02*
D03*
X1397000D02*
D03*
X3263900Y-2400300D02*
D03*
X1092200Y-2082800D02*
D03*
X1854200Y-4711700D02*
D03*
X1841500Y-5219700D02*
D03*
X1549400Y-5207000D02*
D03*
X2222500Y-4221480D02*
D03*
X1567180Y-3919220D02*
D03*
X873760Y-4213860D02*
D03*
X1785620Y-4218940D02*
D03*
X1361440Y-4216400D02*
D03*
D67*
X2560320Y-3426460D02*
D03*
X2260600Y-3985260D02*
D03*
X3181035Y-3522980D02*
D03*
X4241800Y-3302000D02*
D03*
Y-3022600D02*
D03*
Y-2768600D02*
D03*
Y-2489200D02*
D03*
X2377440Y-2700020D02*
D03*
D68*
X2708680Y-3728720D02*
D03*
X2832880D02*
D03*
X2708680Y-3830320D02*
D03*
X2832880D02*
D03*
X2708680Y-3931920D02*
D03*
X2832880D02*
D03*
%TF.MD5,21caf00fa8b11fc39e86a1c7ff3730cb*%
M02*
