G04*
G04 #@! TF.GenerationSoftware,Altium Limited,Altium Designer,24.5.2 (23)*
G04*
G04 Layer_Physical_Order=1*
G04 Layer_Color=255*
%FSLAX25Y25*%
%MOIN*%
G70*
G04*
G04 #@! TF.SameCoordinates,5CCFB9DE-5C0A-4CCD-A088-F0D1A9D58223*
G04*
G04*
G04 #@! TF.FilePolarity,Positive*
G04*
G01*
G75*
%ADD12C,0.01000*%
%ADD15R,0.05118X0.05118*%
%ADD16R,0.18110X0.13386*%
G04:AMPARAMS|DCode=17|XSize=55.12mil|YSize=35.43mil|CornerRadius=2.66mil|HoleSize=0mil|Usage=FLASHONLY|Rotation=90.000|XOffset=0mil|YOffset=0mil|HoleType=Round|Shape=RoundedRectangle|*
%AMROUNDEDRECTD17*
21,1,0.05512,0.03012,0,0,90.0*
21,1,0.04980,0.03543,0,0,90.0*
1,1,0.00532,0.01506,0.02490*
1,1,0.00532,0.01506,-0.02490*
1,1,0.00532,-0.01506,-0.02490*
1,1,0.00532,-0.01506,0.02490*
%
%ADD17ROUNDEDRECTD17*%
G04:AMPARAMS|DCode=18|XSize=51.18mil|YSize=51.18mil|CornerRadius=5.12mil|HoleSize=0mil|Usage=FLASHONLY|Rotation=180.000|XOffset=0mil|YOffset=0mil|HoleType=Round|Shape=RoundedRectangle|*
%AMROUNDEDRECTD18*
21,1,0.05118,0.04095,0,0,180.0*
21,1,0.04095,0.05118,0,0,180.0*
1,1,0.01024,-0.02047,0.02047*
1,1,0.01024,0.02047,0.02047*
1,1,0.01024,0.02047,-0.02047*
1,1,0.01024,-0.02047,-0.02047*
%
%ADD18ROUNDEDRECTD18*%
G04:AMPARAMS|DCode=19|XSize=62.99mil|YSize=124.02mil|CornerRadius=4.72mil|HoleSize=0mil|Usage=FLASHONLY|Rotation=180.000|XOffset=0mil|YOffset=0mil|HoleType=Round|Shape=RoundedRectangle|*
%AMROUNDEDRECTD19*
21,1,0.06299,0.11457,0,0,180.0*
21,1,0.05354,0.12402,0,0,180.0*
1,1,0.00945,-0.02677,0.05728*
1,1,0.00945,0.02677,0.05728*
1,1,0.00945,0.02677,-0.05728*
1,1,0.00945,-0.02677,-0.05728*
%
%ADD19ROUNDEDRECTD19*%
G04:AMPARAMS|DCode=20|XSize=49.21mil|YSize=62.99mil|CornerRadius=4.92mil|HoleSize=0mil|Usage=FLASHONLY|Rotation=270.000|XOffset=0mil|YOffset=0mil|HoleType=Round|Shape=RoundedRectangle|*
%AMROUNDEDRECTD20*
21,1,0.04921,0.05315,0,0,270.0*
21,1,0.03937,0.06299,0,0,270.0*
1,1,0.00984,-0.02657,-0.01968*
1,1,0.00984,-0.02657,0.01968*
1,1,0.00984,0.02657,0.01968*
1,1,0.00984,0.02657,-0.01968*
%
%ADD20ROUNDEDRECTD20*%
G04:AMPARAMS|DCode=21|XSize=62.99mil|YSize=118.11mil|CornerRadius=4.72mil|HoleSize=0mil|Usage=FLASHONLY|Rotation=270.000|XOffset=0mil|YOffset=0mil|HoleType=Round|Shape=RoundedRectangle|*
%AMROUNDEDRECTD21*
21,1,0.06299,0.10866,0,0,270.0*
21,1,0.05354,0.11811,0,0,270.0*
1,1,0.00945,-0.05433,-0.02677*
1,1,0.00945,-0.05433,0.02677*
1,1,0.00945,0.05433,0.02677*
1,1,0.00945,0.05433,-0.02677*
%
%ADD21ROUNDEDRECTD21*%
G04:AMPARAMS|DCode=22|XSize=55.12mil|YSize=35.43mil|CornerRadius=2.66mil|HoleSize=0mil|Usage=FLASHONLY|Rotation=0.000|XOffset=0mil|YOffset=0mil|HoleType=Round|Shape=RoundedRectangle|*
%AMROUNDEDRECTD22*
21,1,0.05512,0.03012,0,0,0.0*
21,1,0.04980,0.03543,0,0,0.0*
1,1,0.00532,0.02490,-0.01506*
1,1,0.00532,-0.02490,-0.01506*
1,1,0.00532,-0.02490,0.01506*
1,1,0.00532,0.02490,0.01506*
%
%ADD22ROUNDEDRECTD22*%
%ADD23R,0.15748X0.15748*%
%ADD24R,0.02362X0.01181*%
%ADD26C,0.03937*%
G04:AMPARAMS|DCode=27|XSize=49.21mil|YSize=62.99mil|CornerRadius=4.92mil|HoleSize=0mil|Usage=FLASHONLY|Rotation=180.000|XOffset=0mil|YOffset=0mil|HoleType=Round|Shape=RoundedRectangle|*
%AMROUNDEDRECTD27*
21,1,0.04921,0.05315,0,0,180.0*
21,1,0.03937,0.06299,0,0,180.0*
1,1,0.00984,-0.01968,0.02657*
1,1,0.00984,0.01968,0.02657*
1,1,0.00984,0.01968,-0.02657*
1,1,0.00984,-0.01968,-0.02657*
%
%ADD27ROUNDEDRECTD27*%
%ADD46R,0.10236X0.11811*%
%ADD47C,0.01800*%
%ADD48C,0.01700*%
%ADD49C,0.14016*%
%ADD50C,0.06142*%
%ADD51C,0.10000*%
%ADD52C,0.07874*%
%ADD53C,0.05000*%
%ADD54C,0.02400*%
%ADD55C,0.02800*%
G36*
X213900Y-155300D02*
X195400D01*
Y-159290D01*
X194900Y-159441D01*
X194870Y-159397D01*
X194452Y-159117D01*
X193958Y-159019D01*
X192952D01*
Y-162800D01*
Y-166581D01*
X193958D01*
X194452Y-166482D01*
X194870Y-166203D01*
X194900Y-166158D01*
X195400Y-166310D01*
Y-174568D01*
X195046Y-174921D01*
X185203Y-174893D01*
X185150Y-174903D01*
X185097Y-174895D01*
X184570Y-174921D01*
X184423Y-174958D01*
X184272D01*
X184061Y-175000D01*
X179207D01*
X177832Y-176375D01*
Y-181569D01*
X177803Y-181688D01*
X177777Y-182216D01*
X177784Y-182268D01*
X177774Y-182320D01*
X177831Y-212947D01*
X177832Y-212954D01*
Y-213068D01*
X177790Y-213288D01*
X177706Y-213494D01*
X177584Y-213679D01*
X177427Y-213837D01*
X177243Y-213961D01*
X177243Y-213961D01*
X134839D01*
X134700Y-213519D01*
Y-180700D01*
X134540Y-174387D01*
X134889Y-174029D01*
X140300D01*
X140885Y-173913D01*
X141381Y-173581D01*
X142163Y-172800D01*
X165700D01*
X168000Y-170500D01*
Y-144239D01*
X170100D01*
Y-88400D01*
X178166D01*
X178539Y-88500D01*
X179461D01*
X179834Y-88400D01*
X188166D01*
X188539Y-88500D01*
X189461D01*
X189834Y-88400D01*
X213900D01*
Y-155300D01*
D02*
G37*
G36*
X89100Y-137454D02*
Y-145800D01*
X89300Y-146000D01*
X100977D01*
X101129Y-146030D01*
X101720D01*
X101871Y-146000D01*
X103282D01*
Y-149409D01*
X102339D01*
X102305Y-149387D01*
X101720Y-149271D01*
X99500D01*
X98915Y-149387D01*
X98419Y-149719D01*
X92766Y-155371D01*
X90582D01*
X90246Y-155035D01*
X89438Y-154700D01*
X88562D01*
X87754Y-155035D01*
X87135Y-155654D01*
X86800Y-156462D01*
Y-157338D01*
X87135Y-158146D01*
X87754Y-158765D01*
X88562Y-159100D01*
X89438D01*
X90246Y-158765D01*
X90582Y-158429D01*
X93400D01*
X93985Y-158313D01*
X94481Y-157981D01*
X96152Y-156311D01*
X96614Y-156502D01*
Y-158200D01*
X96500D01*
X95900Y-158800D01*
Y-212600D01*
X55100D01*
X54700Y-212200D01*
Y-175000D01*
X43911D01*
X43824Y-174983D01*
X43673D01*
X43526Y-174946D01*
X42808Y-174911D01*
X42751Y-174919D01*
X42695Y-174908D01*
X29899Y-174993D01*
X29863Y-175000D01*
X29471D01*
X28491Y-174805D01*
X28000Y-174602D01*
Y-152616D01*
X28462Y-152425D01*
X30419Y-154381D01*
X30915Y-154713D01*
X31500Y-154829D01*
X32085Y-154713D01*
X32581Y-154381D01*
X32913Y-153885D01*
X33029Y-153300D01*
X32913Y-152715D01*
X32581Y-152219D01*
X29781Y-149418D01*
Y-137212D01*
X88746Y-137101D01*
X89100Y-137454D01*
D02*
G37*
G36*
X117585Y-157676D02*
X117500Y-157706D01*
X117425Y-157757D01*
X117360Y-157828D01*
X117305Y-157919D01*
X117260Y-158030D01*
X117225Y-158162D01*
X117200Y-158313D01*
X117185Y-158485D01*
X117180Y-158678D01*
X116180D01*
X116175Y-158485D01*
X116160Y-158313D01*
X116135Y-158162D01*
X116100Y-158030D01*
X116055Y-157919D01*
X116000Y-157828D01*
X115935Y-157757D01*
X115860Y-157706D01*
X115775Y-157676D01*
X115680Y-157666D01*
X117680D01*
X117585Y-157676D01*
D02*
G37*
G36*
X126573Y-68539D02*
X126574Y-68539D01*
X126575Y-68539D01*
X226461Y-68539D01*
X226900D01*
X227760Y-68711D01*
X228570Y-69046D01*
X229298Y-69533D01*
X229919Y-70153D01*
X230405Y-70882D01*
X230741Y-71692D01*
X230912Y-72552D01*
Y-72989D01*
X230882Y-169266D01*
X230882Y-169266D01*
X230882Y-169266D01*
Y-169832D01*
X230661Y-170941D01*
X230228Y-171986D01*
X229600Y-172927D01*
X228800Y-173726D01*
X227859Y-174355D01*
X226814Y-174788D01*
X225705Y-175008D01*
X225142D01*
X196829Y-174927D01*
X196425Y-174575D01*
X196420Y-174568D01*
Y-166490D01*
X196798Y-166237D01*
X196909Y-166216D01*
X197026Y-166294D01*
X197442Y-166377D01*
X200454D01*
X200870Y-166294D01*
X201222Y-166059D01*
X201458Y-165706D01*
X201541Y-165290D01*
Y-164887D01*
X204681D01*
Y-165147D01*
X204783Y-165659D01*
X205073Y-166093D01*
X205507Y-166383D01*
X206019Y-166485D01*
X210113D01*
X210625Y-166383D01*
X211059Y-166093D01*
X211349Y-165659D01*
X211451Y-165147D01*
Y-161053D01*
X211349Y-160541D01*
X211059Y-160107D01*
X210625Y-159817D01*
X210113Y-159715D01*
X206019D01*
X205507Y-159817D01*
X205073Y-160107D01*
X204783Y-160541D01*
X204689Y-161013D01*
X201578D01*
X201541Y-160956D01*
Y-160310D01*
X201458Y-159894D01*
X201222Y-159541D01*
X200870Y-159306D01*
X200454Y-159223D01*
X197442D01*
X197026Y-159306D01*
X196909Y-159384D01*
X196798Y-159363D01*
X196420Y-159110D01*
Y-156320D01*
X213900D01*
X214290Y-156242D01*
X214621Y-156021D01*
X214842Y-155690D01*
X214920Y-155300D01*
Y-88400D01*
X214842Y-88010D01*
X214621Y-87679D01*
X214290Y-87458D01*
X213900Y-87380D01*
X189834D01*
X189703Y-87406D01*
X189570Y-87415D01*
X189327Y-87480D01*
X188673D01*
X188430Y-87415D01*
X188297Y-87406D01*
X188166Y-87380D01*
X179834D01*
X179703Y-87406D01*
X179570Y-87415D01*
X179326Y-87480D01*
X178674D01*
X178430Y-87415D01*
X178297Y-87406D01*
X178166Y-87380D01*
X170100D01*
X169710Y-87458D01*
X169379Y-87679D01*
X169158Y-88010D01*
X169080Y-88400D01*
Y-143220D01*
X168000D01*
X167610Y-143297D01*
X167279Y-143518D01*
X167058Y-143849D01*
X166980Y-144239D01*
Y-150579D01*
X166480Y-150713D01*
X166415Y-150600D01*
X165900Y-150085D01*
X165269Y-149720D01*
X164565Y-149531D01*
X163836D01*
X163131Y-149720D01*
X162500Y-150085D01*
X161985Y-150600D01*
X161620Y-151231D01*
X161432Y-151936D01*
Y-152664D01*
X161620Y-153369D01*
X161985Y-154000D01*
X162500Y-154515D01*
X162671Y-154614D01*
Y-161124D01*
X162490Y-161394D01*
X162408Y-161810D01*
Y-162771D01*
X157777D01*
Y-161591D01*
X157694Y-161175D01*
X157458Y-160822D01*
X157106Y-160587D01*
X156690Y-160504D01*
X151710D01*
X151294Y-160587D01*
X150942Y-160822D01*
X150706Y-161175D01*
X150628Y-161567D01*
X149704D01*
X149118Y-161683D01*
X148622Y-162015D01*
X139666Y-170971D01*
X137256D01*
X137004Y-170663D01*
Y-165683D01*
X136921Y-165267D01*
X136807Y-165096D01*
X137041Y-164596D01*
X138210D01*
X138715Y-164496D01*
X139142Y-164211D01*
X139428Y-163783D01*
X139528Y-163279D01*
Y-159342D01*
X139428Y-158838D01*
X139142Y-158411D01*
X138715Y-158125D01*
X138210Y-158025D01*
X132896D01*
X132391Y-158125D01*
X131964Y-158411D01*
X131678Y-158838D01*
X131578Y-159342D01*
Y-163279D01*
X131678Y-163783D01*
X131964Y-164211D01*
X132127Y-164320D01*
X132137Y-164914D01*
X132135Y-164916D01*
X131901Y-165267D01*
X131818Y-165683D01*
Y-170663D01*
X131566Y-170971D01*
X130760D01*
X130508Y-170663D01*
Y-165683D01*
X130425Y-165267D01*
X130189Y-164914D01*
X129889Y-164714D01*
X129810Y-164444D01*
X129778Y-164157D01*
X130028Y-163783D01*
X130128Y-163279D01*
Y-159342D01*
X130028Y-158838D01*
X129742Y-158411D01*
X129315Y-158125D01*
X128810Y-158025D01*
X123495D01*
X122991Y-158125D01*
X122564Y-158411D01*
X122278Y-158838D01*
X122178Y-159342D01*
Y-163279D01*
X122278Y-163783D01*
X122564Y-164211D01*
X122991Y-164496D01*
X123495Y-164596D01*
X124624D01*
Y-165427D01*
X124740Y-166012D01*
X124828Y-166143D01*
X124561Y-166643D01*
X121806D01*
X121529Y-166367D01*
Y-156679D01*
X121413Y-156094D01*
X121081Y-155597D01*
X118661Y-153177D01*
Y-152559D01*
X117890D01*
X117856Y-152537D01*
X117271Y-152420D01*
X116680D01*
X116095Y-152537D01*
X116061Y-152559D01*
X114699D01*
Y-155340D01*
X114699D01*
Y-155709D01*
X114699D01*
Y-157453D01*
X114666Y-157558D01*
X114671Y-157612D01*
X114661Y-157666D01*
X114689Y-157809D01*
X114699Y-157920D01*
Y-158490D01*
X115107D01*
X115151Y-158526D01*
Y-169494D01*
X115173Y-169605D01*
X114702Y-169800D01*
X114567Y-169597D01*
X114148Y-169317D01*
X113654Y-169219D01*
X112648D01*
Y-172500D01*
X114945D01*
Y-170510D01*
X114941Y-170491D01*
X115412Y-170296D01*
X115599Y-170576D01*
X118604Y-173581D01*
X119100Y-173913D01*
X119686Y-174029D01*
X133123D01*
X133481Y-174364D01*
X133521Y-174413D01*
X133680Y-180713D01*
Y-213499D01*
X133678Y-213522D01*
X133454Y-213873D01*
X133296Y-213998D01*
X96622Y-213921D01*
X96471Y-213421D01*
X96621Y-213321D01*
X96842Y-212990D01*
X96920Y-212600D01*
Y-205118D01*
X97420Y-205053D01*
X97505Y-205371D01*
X98041Y-206300D01*
X98799Y-207057D01*
X99727Y-207593D01*
X100298Y-207747D01*
Y-203800D01*
Y-199854D01*
X99727Y-200007D01*
X98799Y-200542D01*
X98041Y-201300D01*
X97505Y-202229D01*
X97420Y-202547D01*
X96920Y-202482D01*
Y-195118D01*
X97420Y-195053D01*
X97505Y-195371D01*
X98041Y-196300D01*
X98799Y-197057D01*
X99727Y-197593D01*
X100298Y-197747D01*
Y-193800D01*
Y-189854D01*
X99727Y-190007D01*
X98799Y-190542D01*
X98041Y-191300D01*
X97505Y-192229D01*
X97420Y-192547D01*
X96920Y-192482D01*
Y-185118D01*
X97420Y-185053D01*
X97505Y-185371D01*
X98041Y-186300D01*
X98799Y-187057D01*
X99727Y-187593D01*
X100298Y-187747D01*
Y-183800D01*
Y-179853D01*
X99727Y-180007D01*
X98799Y-180543D01*
X98041Y-181300D01*
X97505Y-182229D01*
X97420Y-182547D01*
X96920Y-182482D01*
Y-173798D01*
X97420Y-173591D01*
X98162Y-174334D01*
X98774Y-174743D01*
X99496Y-174886D01*
X103059D01*
Y-175490D01*
X103142Y-175906D01*
X103378Y-176259D01*
X103730Y-176494D01*
X104146Y-176577D01*
X107158D01*
X107574Y-176494D01*
X107926Y-176259D01*
X108162Y-175906D01*
X108245Y-175490D01*
Y-170510D01*
X108162Y-170094D01*
X107926Y-169741D01*
X107574Y-169506D01*
X107158Y-169423D01*
X104146D01*
X103730Y-169506D01*
X103378Y-169741D01*
X103142Y-170094D01*
X103059Y-170510D01*
Y-171114D01*
X100386D01*
Y-165645D01*
X100886Y-165361D01*
X100959Y-165405D01*
Y-167290D01*
X101042Y-167706D01*
X101278Y-168059D01*
X101630Y-168294D01*
X102046Y-168377D01*
X105058D01*
X105474Y-168294D01*
X105826Y-168059D01*
X106062Y-167706D01*
X106144Y-167290D01*
Y-162310D01*
X106062Y-161894D01*
X105826Y-161541D01*
X105474Y-161306D01*
X105058Y-161223D01*
X103830D01*
X103606Y-160999D01*
Y-158490D01*
X103701D01*
Y-155709D01*
X103701D01*
Y-155340D01*
X103701D01*
Y-152691D01*
X103701Y-152559D01*
X103701D01*
Y-152190D01*
X103701D01*
Y-150332D01*
X104003Y-150130D01*
X104224Y-149800D01*
X104302Y-149409D01*
Y-146000D01*
X104224Y-145610D01*
X104003Y-145279D01*
X103701Y-145077D01*
Y-143110D01*
X102369D01*
X102120Y-142738D01*
X99489Y-140108D01*
X98993Y-139776D01*
X98408Y-139660D01*
X97900D01*
X97822Y-139267D01*
X97587Y-138915D01*
X97234Y-138679D01*
X96818Y-138596D01*
X91838D01*
X91422Y-138679D01*
X91070Y-138915D01*
X90834Y-139267D01*
X90751Y-139683D01*
Y-142695D01*
X90834Y-143111D01*
X91070Y-143463D01*
X91422Y-143699D01*
X91838Y-143781D01*
X96818D01*
X97234Y-143699D01*
X97587Y-143463D01*
X97677Y-143328D01*
X98272Y-143216D01*
X99520Y-144464D01*
X99546Y-144594D01*
X99229Y-144980D01*
X90120D01*
Y-137454D01*
X90119Y-137453D01*
X90120Y-137453D01*
X90080Y-137257D01*
X90042Y-137064D01*
X90042Y-137063D01*
X90042Y-137063D01*
X89932Y-136899D01*
X89821Y-136733D01*
X89820Y-136733D01*
X89820Y-136732D01*
X89466Y-136379D01*
X89466Y-136379D01*
X89466Y-136378D01*
X89299Y-136267D01*
X89135Y-136158D01*
X89135Y-136158D01*
X89135Y-136158D01*
X88937Y-136119D01*
X88745Y-136081D01*
X88745Y-136081D01*
X88744Y-136081D01*
X30135Y-136192D01*
X29781Y-135839D01*
Y-124972D01*
X30174Y-124894D01*
X30526Y-124659D01*
X30762Y-124306D01*
X30845Y-123890D01*
Y-118910D01*
X30762Y-118494D01*
X30526Y-118141D01*
X30174Y-117906D01*
X29758Y-117823D01*
X26746D01*
X26330Y-117906D01*
X25978Y-118141D01*
X25742Y-118494D01*
X25659Y-118910D01*
Y-123890D01*
X25742Y-124306D01*
X25978Y-124659D01*
X26330Y-124894D01*
X26723Y-124972D01*
Y-150052D01*
X26839Y-150637D01*
X27171Y-151133D01*
X27310Y-151273D01*
X27279Y-151895D01*
X27058Y-152226D01*
X26980Y-152616D01*
Y-173372D01*
X26480Y-173580D01*
X26126Y-173225D01*
X25592Y-172426D01*
X25225Y-171539D01*
X25038Y-170597D01*
Y-170118D01*
X25074Y-73380D01*
X25074Y-73380D01*
X25074Y-73379D01*
Y-72892D01*
X25264Y-71938D01*
X25637Y-71038D01*
X26177Y-70229D01*
X26866Y-69541D01*
X27675Y-69000D01*
X28575Y-68627D01*
X29530Y-68437D01*
X30014D01*
X126573Y-68539D01*
D02*
G37*
G36*
X150696Y-164967D02*
X150706Y-165018D01*
X150942Y-165371D01*
X151294Y-165606D01*
X151710Y-165689D01*
X154782D01*
X154818Y-165713D01*
X155403Y-165829D01*
X162408D01*
Y-166790D01*
X162490Y-167206D01*
X162726Y-167559D01*
X163078Y-167794D01*
X163494Y-167877D01*
X166506D01*
X166980Y-168292D01*
Y-170078D01*
X165278Y-171780D01*
X143836D01*
X143644Y-171318D01*
X150154Y-164808D01*
X150696Y-164967D01*
D02*
G37*
G36*
X53680Y-212200D02*
X53758Y-212590D01*
X53866Y-212752D01*
X53506Y-213113D01*
X53365Y-213019D01*
X52856Y-212509D01*
X52455Y-211910D01*
X52180Y-211245D01*
X52039Y-210538D01*
Y-210177D01*
X52039Y-210177D01*
X52039Y-210177D01*
X52039Y-190220D01*
X52076Y-184290D01*
X52065Y-184233D01*
X52074Y-184177D01*
X52039Y-183458D01*
X52002Y-183312D01*
Y-183160D01*
X51722Y-181751D01*
X51645Y-181566D01*
X51606Y-181369D01*
X51100Y-180148D01*
Y-177000D01*
X48575D01*
X48491Y-176916D01*
X47898Y-176520D01*
X48050Y-176020D01*
X53680D01*
Y-212200D01*
D02*
G37*
%LPC*%
G36*
X191952Y-159019D02*
X190946D01*
X190452Y-159117D01*
X190033Y-159397D01*
X189754Y-159816D01*
X189655Y-160310D01*
Y-162300D01*
X191952D01*
Y-159019D01*
D02*
G37*
G36*
X173002Y-160519D02*
X171996D01*
Y-163800D01*
X174293D01*
Y-161810D01*
X174194Y-161316D01*
X173915Y-160897D01*
X173496Y-160617D01*
X173002Y-160519D01*
D02*
G37*
G36*
X170996D02*
X169990D01*
X169496Y-160617D01*
X169078Y-160897D01*
X168798Y-161316D01*
X168700Y-161810D01*
Y-163800D01*
X170996D01*
Y-160519D01*
D02*
G37*
G36*
X191952Y-163300D02*
X189655D01*
Y-165290D01*
X189754Y-165784D01*
X190033Y-166203D01*
X190452Y-166482D01*
X190946Y-166581D01*
X191952D01*
Y-163300D01*
D02*
G37*
G36*
X174293Y-164800D02*
X171996D01*
Y-168081D01*
X173002D01*
X173496Y-167982D01*
X173915Y-167703D01*
X174194Y-167284D01*
X174293Y-166790D01*
Y-164800D01*
D02*
G37*
G36*
X170996D02*
X168700D01*
Y-166790D01*
X168798Y-167284D01*
X169078Y-167703D01*
X169496Y-167982D01*
X169990Y-168081D01*
X170996D01*
Y-164800D01*
D02*
G37*
G36*
X147070Y-179853D02*
X146499Y-180007D01*
X145571Y-180543D01*
X144813Y-181300D01*
X144619Y-181635D01*
X144119D01*
X143926Y-181300D01*
X143168Y-180543D01*
X142240Y-180007D01*
X141668Y-179853D01*
Y-183800D01*
Y-187747D01*
X142240Y-187593D01*
X143168Y-187057D01*
X143926Y-186300D01*
X144119Y-185965D01*
X144619D01*
X144813Y-186300D01*
X145571Y-187057D01*
X146499Y-187593D01*
X147070Y-187747D01*
Y-183800D01*
Y-179853D01*
D02*
G37*
G36*
X149070D02*
Y-182800D01*
X152017D01*
X151864Y-182229D01*
X151328Y-181300D01*
X150570Y-180543D01*
X149641Y-180007D01*
X149070Y-179853D01*
D02*
G37*
G36*
X139669D02*
X139097Y-180007D01*
X138169Y-180543D01*
X137411Y-181300D01*
X136875Y-182229D01*
X136722Y-182800D01*
X139669D01*
Y-179853D01*
D02*
G37*
G36*
X152017Y-184800D02*
X149070D01*
Y-187747D01*
X149641Y-187593D01*
X150570Y-187057D01*
X151328Y-186300D01*
X151864Y-185371D01*
X152017Y-184800D01*
D02*
G37*
G36*
X139669D02*
X136722D01*
X136875Y-185371D01*
X137411Y-186300D01*
X138169Y-187057D01*
X139097Y-187593D01*
X139669Y-187747D01*
Y-184800D01*
D02*
G37*
G36*
X147070Y-189854D02*
X146499Y-190007D01*
X145571Y-190542D01*
X144813Y-191300D01*
X144619Y-191635D01*
X144119D01*
X143926Y-191300D01*
X143168Y-190542D01*
X142240Y-190007D01*
X141668Y-189854D01*
Y-193800D01*
Y-197747D01*
X142240Y-197593D01*
X143168Y-197057D01*
X143926Y-196300D01*
X144119Y-195965D01*
X144619D01*
X144813Y-196300D01*
X145571Y-197057D01*
X146499Y-197593D01*
X147070Y-197747D01*
Y-193800D01*
Y-189854D01*
D02*
G37*
G36*
X149070D02*
Y-192800D01*
X152017D01*
X151864Y-192229D01*
X151328Y-191300D01*
X150570Y-190542D01*
X149641Y-190007D01*
X149070Y-189854D01*
D02*
G37*
G36*
X139669D02*
X139097Y-190007D01*
X138169Y-190542D01*
X137411Y-191300D01*
X136875Y-192229D01*
X136722Y-192800D01*
X139669D01*
Y-189854D01*
D02*
G37*
G36*
X152017Y-194800D02*
X149070D01*
Y-197747D01*
X149641Y-197593D01*
X150570Y-197057D01*
X151328Y-196300D01*
X151864Y-195371D01*
X152017Y-194800D01*
D02*
G37*
G36*
X139669D02*
X136722D01*
X136875Y-195371D01*
X137411Y-196300D01*
X138169Y-197057D01*
X139097Y-197593D01*
X139669Y-197747D01*
Y-194800D01*
D02*
G37*
G36*
X167343Y-183000D02*
X165805D01*
X164296Y-183300D01*
X162876Y-183889D01*
X161597Y-184743D01*
X160509Y-185831D01*
X159655Y-187109D01*
X159066Y-188530D01*
X158766Y-190039D01*
Y-191577D01*
X159066Y-193085D01*
X159655Y-194506D01*
X160509Y-195785D01*
X161597Y-196873D01*
X162876Y-197727D01*
X164296Y-198316D01*
X165805Y-198616D01*
X167343D01*
X168851Y-198316D01*
X170272Y-197727D01*
X171551Y-196873D01*
X172639Y-195785D01*
X173493Y-194506D01*
X174082Y-193085D01*
X174382Y-191577D01*
Y-190039D01*
X174082Y-188530D01*
X173493Y-187109D01*
X172639Y-185831D01*
X171551Y-184743D01*
X170272Y-183889D01*
X168851Y-183300D01*
X167343Y-183000D01*
D02*
G37*
G36*
X147070Y-199854D02*
X146499Y-200007D01*
X145571Y-200542D01*
X144813Y-201300D01*
X144619Y-201635D01*
X144119D01*
X143926Y-201300D01*
X143168Y-200542D01*
X142240Y-200007D01*
X141668Y-199854D01*
Y-203800D01*
Y-207747D01*
X142240Y-207593D01*
X143168Y-207057D01*
X143926Y-206300D01*
X144119Y-205965D01*
X144619D01*
X144813Y-206300D01*
X145571Y-207057D01*
X146499Y-207593D01*
X147070Y-207747D01*
Y-203800D01*
Y-199854D01*
D02*
G37*
G36*
X149070D02*
Y-202800D01*
X152017D01*
X151864Y-202229D01*
X151328Y-201300D01*
X150570Y-200542D01*
X149641Y-200007D01*
X149070Y-199854D01*
D02*
G37*
G36*
X139669D02*
X139097Y-200007D01*
X138169Y-200542D01*
X137411Y-201300D01*
X136875Y-202229D01*
X136722Y-202800D01*
X139669D01*
Y-199854D01*
D02*
G37*
G36*
X152017Y-204800D02*
X149070D01*
Y-207747D01*
X149641Y-207593D01*
X150570Y-207057D01*
X151328Y-206300D01*
X151864Y-205371D01*
X152017Y-204800D01*
D02*
G37*
G36*
X139669D02*
X136722D01*
X136875Y-205371D01*
X137411Y-206300D01*
X138169Y-207057D01*
X139097Y-207593D01*
X139669Y-207747D01*
Y-204800D01*
D02*
G37*
G36*
X88015Y-179853D02*
X87444Y-180007D01*
X86515Y-180543D01*
X85757Y-181300D01*
X85564Y-181635D01*
X85064D01*
X84871Y-181300D01*
X84113Y-180543D01*
X83185Y-180007D01*
X82613Y-179853D01*
Y-183800D01*
Y-187747D01*
X83185Y-187593D01*
X84113Y-187057D01*
X84871Y-186300D01*
X85064Y-185965D01*
X85564D01*
X85757Y-186300D01*
X86515Y-187057D01*
X87444Y-187593D01*
X88015Y-187747D01*
Y-183800D01*
Y-179853D01*
D02*
G37*
G36*
X90015D02*
Y-182800D01*
X92962D01*
X92808Y-182229D01*
X92273Y-181300D01*
X91514Y-180543D01*
X90586Y-180007D01*
X90015Y-179853D01*
D02*
G37*
G36*
X80613D02*
X80042Y-180007D01*
X79114Y-180543D01*
X78356Y-181300D01*
X77820Y-182229D01*
X77667Y-182800D01*
X80613D01*
Y-179853D01*
D02*
G37*
G36*
X92962Y-184800D02*
X90015D01*
Y-187747D01*
X90586Y-187593D01*
X91514Y-187057D01*
X92273Y-186300D01*
X92808Y-185371D01*
X92962Y-184800D01*
D02*
G37*
G36*
X80613D02*
X77667D01*
X77820Y-185371D01*
X78356Y-186300D01*
X79114Y-187057D01*
X80042Y-187593D01*
X80613Y-187747D01*
Y-184800D01*
D02*
G37*
G36*
X88015Y-189854D02*
X87444Y-190007D01*
X86515Y-190542D01*
X85757Y-191300D01*
X85564Y-191635D01*
X85064D01*
X84871Y-191300D01*
X84113Y-190542D01*
X83185Y-190007D01*
X82613Y-189854D01*
Y-193800D01*
Y-197747D01*
X83185Y-197593D01*
X84113Y-197057D01*
X84871Y-196300D01*
X85064Y-195965D01*
X85564D01*
X85757Y-196300D01*
X86515Y-197057D01*
X87444Y-197593D01*
X88015Y-197747D01*
Y-193800D01*
Y-189854D01*
D02*
G37*
G36*
X90015D02*
Y-192800D01*
X92962D01*
X92808Y-192229D01*
X92273Y-191300D01*
X91514Y-190542D01*
X90586Y-190007D01*
X90015Y-189854D01*
D02*
G37*
G36*
X80613D02*
X80042Y-190007D01*
X79114Y-190542D01*
X78356Y-191300D01*
X77820Y-192229D01*
X77667Y-192800D01*
X80613D01*
Y-189854D01*
D02*
G37*
G36*
X92962Y-194800D02*
X90015D01*
Y-197747D01*
X90586Y-197593D01*
X91514Y-197057D01*
X92273Y-196300D01*
X92808Y-195371D01*
X92962Y-194800D01*
D02*
G37*
G36*
X80613D02*
X77667D01*
X77820Y-195371D01*
X78356Y-196300D01*
X79114Y-197057D01*
X80042Y-197593D01*
X80613Y-197747D01*
Y-194800D01*
D02*
G37*
G36*
X63879Y-183000D02*
X62340D01*
X60832Y-183300D01*
X59411Y-183889D01*
X58132Y-184743D01*
X57045Y-185831D01*
X56190Y-187109D01*
X55602Y-188530D01*
X55302Y-190039D01*
Y-191577D01*
X55602Y-193085D01*
X56190Y-194506D01*
X57045Y-195785D01*
X58132Y-196873D01*
X59411Y-197727D01*
X60832Y-198316D01*
X62340Y-198616D01*
X63879D01*
X65387Y-198316D01*
X66808Y-197727D01*
X68087Y-196873D01*
X69174Y-195785D01*
X70029Y-194506D01*
X70617Y-193085D01*
X70917Y-191577D01*
Y-190039D01*
X70617Y-188530D01*
X70029Y-187109D01*
X69174Y-185831D01*
X68087Y-184743D01*
X66808Y-183889D01*
X65387Y-183300D01*
X63879Y-183000D01*
D02*
G37*
G36*
X88015Y-199854D02*
X87444Y-200007D01*
X86515Y-200542D01*
X85757Y-201300D01*
X85564Y-201635D01*
X85064D01*
X84871Y-201300D01*
X84113Y-200542D01*
X83185Y-200007D01*
X82613Y-199854D01*
Y-203800D01*
Y-207747D01*
X83185Y-207593D01*
X84113Y-207057D01*
X84871Y-206300D01*
X85064Y-205965D01*
X85564D01*
X85757Y-206300D01*
X86515Y-207057D01*
X87444Y-207593D01*
X88015Y-207747D01*
Y-203800D01*
Y-199854D01*
D02*
G37*
G36*
X90015D02*
Y-202800D01*
X92962D01*
X92808Y-202229D01*
X92273Y-201300D01*
X91514Y-200542D01*
X90586Y-200007D01*
X90015Y-199854D01*
D02*
G37*
G36*
X80613D02*
X80042Y-200007D01*
X79114Y-200542D01*
X78356Y-201300D01*
X77820Y-202229D01*
X77667Y-202800D01*
X80613D01*
Y-199854D01*
D02*
G37*
G36*
X92962Y-204800D02*
X90015D01*
Y-207747D01*
X90586Y-207593D01*
X91514Y-207057D01*
X92273Y-206300D01*
X92808Y-205371D01*
X92962Y-204800D01*
D02*
G37*
G36*
X80613D02*
X77667D01*
X77820Y-205371D01*
X78356Y-206300D01*
X79114Y-207057D01*
X80042Y-207593D01*
X80613Y-207747D01*
Y-204800D01*
D02*
G37*
G36*
X93664Y-71031D02*
X92936D01*
X92231Y-71220D01*
X91600Y-71585D01*
X91085Y-72100D01*
X90720Y-72731D01*
X90531Y-73435D01*
Y-74164D01*
X90720Y-74869D01*
X91085Y-75500D01*
X91600Y-76015D01*
X91687Y-76066D01*
X91694Y-76077D01*
X91734Y-76181D01*
X91795Y-76246D01*
X91842Y-76323D01*
X91931Y-76389D01*
X92007Y-76470D01*
X92087Y-76506D01*
X92097Y-76562D01*
X92099Y-76589D01*
Y-82854D01*
X92098Y-82867D01*
X92065Y-83007D01*
X91992Y-83207D01*
X91875Y-83458D01*
X91712Y-83753D01*
X91512Y-84071D01*
X90587Y-85309D01*
X90197Y-85772D01*
X90188Y-85788D01*
X90007Y-85969D01*
X89357Y-87094D01*
X89286Y-87358D01*
X88786D01*
X88715Y-87094D01*
X88065Y-85969D01*
X87146Y-85049D01*
X86021Y-84399D01*
X84765Y-84063D01*
X83465D01*
X82209Y-84399D01*
X81084Y-85049D01*
X80164Y-85969D01*
X79514Y-87094D01*
X79178Y-88350D01*
Y-89650D01*
X79514Y-90906D01*
X80164Y-92031D01*
X81084Y-92951D01*
X82209Y-93601D01*
X83465Y-93937D01*
X84765D01*
X86021Y-93601D01*
X87146Y-92951D01*
X88065Y-92031D01*
X88715Y-90906D01*
X88786Y-90642D01*
X89286D01*
X89357Y-90906D01*
X90007Y-92031D01*
X90288Y-92312D01*
X90322Y-92369D01*
X90730Y-92819D01*
X91077Y-93224D01*
X91655Y-93979D01*
X91860Y-94290D01*
X92024Y-94575D01*
X92141Y-94818D01*
X92214Y-95014D01*
X92248Y-95155D01*
X92249Y-95174D01*
Y-104539D01*
X91735Y-105054D01*
X91400Y-105862D01*
Y-106738D01*
X91735Y-107546D01*
X92354Y-108165D01*
X93162Y-108500D01*
X94038D01*
X94846Y-108165D01*
X95465Y-107546D01*
X95800Y-106738D01*
Y-105862D01*
X95465Y-105054D01*
X95369Y-104958D01*
X95366Y-104953D01*
X95358Y-104940D01*
X95349Y-104922D01*
X95340Y-104898D01*
X95330Y-104867D01*
X95320Y-104829D01*
X95314Y-104796D01*
X95308Y-104732D01*
Y-95217D01*
X95311Y-95187D01*
X95345Y-95047D01*
X95417Y-94862D01*
X95533Y-94638D01*
X95697Y-94379D01*
X95910Y-94090D01*
X96166Y-93784D01*
X96858Y-93068D01*
X96978Y-92957D01*
X96989Y-92951D01*
X97036Y-92903D01*
X97275Y-92682D01*
X97323Y-92616D01*
X97908Y-92031D01*
X98558Y-90906D01*
X98895Y-89650D01*
Y-88350D01*
X98558Y-87094D01*
X97908Y-85969D01*
X97150Y-85211D01*
X97147Y-85207D01*
X97139Y-85199D01*
X96989Y-85049D01*
X96937Y-85019D01*
X96330Y-84478D01*
X96022Y-84165D01*
X95757Y-83865D01*
X95544Y-83590D01*
X95381Y-83342D01*
X95266Y-83126D01*
X95196Y-82947D01*
X95161Y-82808D01*
X95158Y-82774D01*
Y-76382D01*
X95160Y-76356D01*
X95173Y-76267D01*
X95188Y-76196D01*
X95204Y-76144D01*
X95218Y-76108D01*
X95228Y-76088D01*
X95233Y-76081D01*
X95272Y-76043D01*
X95329Y-75963D01*
X95400Y-75895D01*
X95442Y-75802D01*
X95501Y-75718D01*
X95523Y-75622D01*
X95563Y-75532D01*
X95566Y-75430D01*
X95572Y-75401D01*
X95880Y-74869D01*
X96069Y-74164D01*
Y-73435D01*
X95880Y-72731D01*
X95515Y-72100D01*
X95000Y-71585D01*
X94369Y-71220D01*
X93664Y-71031D01*
D02*
G37*
G36*
X164800Y-86680D02*
X161250D01*
X160860Y-86758D01*
X160529Y-86979D01*
X160523Y-86985D01*
X159957Y-87311D01*
X159327Y-87480D01*
X158674D01*
X158043Y-87311D01*
X157477Y-86985D01*
X157471Y-86979D01*
X157140Y-86758D01*
X156750Y-86680D01*
X150250D01*
X149860Y-86758D01*
X149529Y-86979D01*
X149523Y-86985D01*
X148957Y-87311D01*
X148327Y-87480D01*
X147673D01*
X147043Y-87311D01*
X146477Y-86985D01*
X146471Y-86979D01*
X146140Y-86758D01*
X145750Y-86680D01*
X122200D01*
X121810Y-86758D01*
X121479Y-86979D01*
X121258Y-87310D01*
X121180Y-87700D01*
Y-143561D01*
X118661D01*
Y-143110D01*
X114699D01*
Y-144969D01*
X114397Y-145170D01*
X114176Y-145501D01*
X114099Y-145891D01*
Y-149409D01*
X114176Y-149800D01*
X114397Y-150130D01*
X114728Y-150351D01*
X115118Y-150429D01*
X118332D01*
X118661Y-150495D01*
X128300D01*
X128690Y-150417D01*
X129021Y-150196D01*
X129242Y-149865D01*
X129320Y-149475D01*
X129320Y-140020D01*
X164800D01*
X165190Y-139942D01*
X165521Y-139721D01*
X165742Y-139390D01*
X165820Y-139000D01*
Y-87700D01*
X165742Y-87310D01*
X165521Y-86979D01*
X165190Y-86758D01*
X164800Y-86680D01*
D02*
G37*
G36*
X36313Y-110115D02*
X32219D01*
X31707Y-110217D01*
X31273Y-110507D01*
X30983Y-110941D01*
X30881Y-111453D01*
Y-115547D01*
X30983Y-116059D01*
X31273Y-116493D01*
X31707Y-116783D01*
X32219Y-116885D01*
X33219D01*
Y-117828D01*
X32826Y-117906D01*
X32474Y-118141D01*
X32238Y-118494D01*
X32155Y-118910D01*
Y-123890D01*
X32238Y-124306D01*
X32474Y-124659D01*
X32826Y-124894D01*
X33242Y-124977D01*
X36254D01*
X36670Y-124894D01*
X37022Y-124659D01*
X37258Y-124306D01*
X37341Y-123890D01*
Y-118910D01*
X37258Y-118494D01*
X37022Y-118141D01*
X36670Y-117906D01*
X36277Y-117828D01*
Y-116885D01*
X36313D01*
X36825Y-116783D01*
X37259Y-116493D01*
X37549Y-116059D01*
X37651Y-115547D01*
Y-111453D01*
X37549Y-110941D01*
X37259Y-110507D01*
X36825Y-110217D01*
X36313Y-110115D01*
D02*
G37*
G36*
X96818Y-132100D02*
X91838D01*
X91422Y-132183D01*
X91070Y-132419D01*
X90834Y-132771D01*
X90751Y-133187D01*
Y-136199D01*
X90834Y-136615D01*
X91070Y-136967D01*
X91422Y-137203D01*
X91838Y-137285D01*
X96818D01*
X97234Y-137203D01*
X97587Y-136967D01*
X97673Y-136837D01*
X99728D01*
X100362Y-137100D01*
X101238D01*
X102046Y-136765D01*
X102665Y-136146D01*
X103000Y-135338D01*
Y-134462D01*
X102665Y-133654D01*
X102046Y-133035D01*
X101238Y-132700D01*
X100362D01*
X99728Y-132963D01*
X97860D01*
X97822Y-132771D01*
X97587Y-132419D01*
X97234Y-132183D01*
X96818Y-132100D01*
D02*
G37*
G36*
X111554Y-161019D02*
X110548D01*
Y-164300D01*
X112845D01*
Y-162310D01*
X112746Y-161816D01*
X112467Y-161397D01*
X112048Y-161117D01*
X111554Y-161019D01*
D02*
G37*
G36*
X109548D02*
X108542D01*
X108048Y-161117D01*
X107630Y-161397D01*
X107350Y-161816D01*
X107252Y-162310D01*
Y-164300D01*
X109548D01*
Y-161019D01*
D02*
G37*
G36*
X112845Y-165300D02*
X110548D01*
Y-168581D01*
X111554D01*
X112048Y-168482D01*
X112467Y-168203D01*
X112746Y-167784D01*
X112845Y-167290D01*
Y-165300D01*
D02*
G37*
G36*
X109548D02*
X107252D01*
Y-167290D01*
X107350Y-167784D01*
X107630Y-168203D01*
X108048Y-168482D01*
X108542Y-168581D01*
X109548D01*
Y-165300D01*
D02*
G37*
G36*
X111648Y-169219D02*
X110642D01*
X110148Y-169317D01*
X109730Y-169597D01*
X109450Y-170016D01*
X109352Y-170510D01*
Y-172500D01*
X111648D01*
Y-169219D01*
D02*
G37*
G36*
X114945Y-173500D02*
X112648D01*
Y-176781D01*
X113654D01*
X114148Y-176682D01*
X114567Y-176403D01*
X114846Y-175984D01*
X114945Y-175490D01*
Y-173500D01*
D02*
G37*
G36*
X111648D02*
X109352D01*
Y-175490D01*
X109450Y-175984D01*
X109730Y-176403D01*
X110148Y-176682D01*
X110642Y-176781D01*
X111648D01*
Y-173500D01*
D02*
G37*
G36*
X127385Y-179853D02*
X126814Y-180007D01*
X125885Y-180543D01*
X125127Y-181300D01*
X124934Y-181635D01*
X124434D01*
X124241Y-181300D01*
X123483Y-180543D01*
X122555Y-180007D01*
X121984Y-179853D01*
Y-183800D01*
Y-187747D01*
X122555Y-187593D01*
X123483Y-187057D01*
X124241Y-186300D01*
X124434Y-185965D01*
X124934D01*
X125127Y-186300D01*
X125885Y-187057D01*
X126814Y-187593D01*
X127385Y-187747D01*
Y-183800D01*
Y-179853D01*
D02*
G37*
G36*
X107700D02*
X107129Y-180007D01*
X106200Y-180543D01*
X105443Y-181300D01*
X105249Y-181635D01*
X104749D01*
X104556Y-181300D01*
X103798Y-180543D01*
X102870Y-180007D01*
X102298Y-179853D01*
Y-183800D01*
Y-187747D01*
X102870Y-187593D01*
X103798Y-187057D01*
X104556Y-186300D01*
X104749Y-185965D01*
X105249D01*
X105443Y-186300D01*
X106200Y-187057D01*
X107129Y-187593D01*
X107700Y-187747D01*
Y-183800D01*
Y-179853D01*
D02*
G37*
G36*
X129385D02*
Y-182800D01*
X132332D01*
X132178Y-182229D01*
X131642Y-181300D01*
X130885Y-180543D01*
X129956Y-180007D01*
X129385Y-179853D01*
D02*
G37*
G36*
X119983D02*
X119412Y-180007D01*
X118484Y-180543D01*
X117726Y-181300D01*
X117190Y-182229D01*
X117037Y-182800D01*
X119983D01*
Y-179853D01*
D02*
G37*
G36*
X109700D02*
Y-182800D01*
X112646D01*
X112493Y-182229D01*
X111958Y-181300D01*
X111200Y-180543D01*
X110271Y-180007D01*
X109700Y-179853D01*
D02*
G37*
G36*
X132332Y-184800D02*
X129385D01*
Y-187747D01*
X129956Y-187593D01*
X130885Y-187057D01*
X131642Y-186300D01*
X132178Y-185371D01*
X132332Y-184800D01*
D02*
G37*
G36*
X119983D02*
X117037D01*
X117190Y-185371D01*
X117726Y-186300D01*
X118484Y-187057D01*
X119412Y-187593D01*
X119983Y-187747D01*
Y-184800D01*
D02*
G37*
G36*
X112646D02*
X109700D01*
Y-187747D01*
X110271Y-187593D01*
X111200Y-187057D01*
X111958Y-186300D01*
X112493Y-185371D01*
X112646Y-184800D01*
D02*
G37*
G36*
X127385Y-189854D02*
X126814Y-190007D01*
X125885Y-190542D01*
X125127Y-191300D01*
X124934Y-191635D01*
X124434D01*
X124241Y-191300D01*
X123483Y-190542D01*
X122555Y-190007D01*
X121984Y-189854D01*
Y-193800D01*
Y-197747D01*
X122555Y-197593D01*
X123483Y-197057D01*
X124241Y-196300D01*
X124434Y-195965D01*
X124934D01*
X125127Y-196300D01*
X125885Y-197057D01*
X126814Y-197593D01*
X127385Y-197747D01*
Y-193800D01*
Y-189854D01*
D02*
G37*
G36*
X107700D02*
X107129Y-190007D01*
X106200Y-190542D01*
X105443Y-191300D01*
X105249Y-191635D01*
X104749D01*
X104556Y-191300D01*
X103798Y-190542D01*
X102870Y-190007D01*
X102298Y-189854D01*
Y-193800D01*
Y-197747D01*
X102870Y-197593D01*
X103798Y-197057D01*
X104556Y-196300D01*
X104749Y-195965D01*
X105249D01*
X105443Y-196300D01*
X106200Y-197057D01*
X107129Y-197593D01*
X107700Y-197747D01*
Y-193800D01*
Y-189854D01*
D02*
G37*
G36*
X129385D02*
Y-192800D01*
X132332D01*
X132178Y-192229D01*
X131642Y-191300D01*
X130885Y-190542D01*
X129956Y-190007D01*
X129385Y-189854D01*
D02*
G37*
G36*
X119983D02*
X119412Y-190007D01*
X118484Y-190542D01*
X117726Y-191300D01*
X117190Y-192229D01*
X117037Y-192800D01*
X119983D01*
Y-189854D01*
D02*
G37*
G36*
X109700D02*
Y-192800D01*
X112646D01*
X112493Y-192229D01*
X111958Y-191300D01*
X111200Y-190542D01*
X110271Y-190007D01*
X109700Y-189854D01*
D02*
G37*
G36*
X132332Y-194800D02*
X129385D01*
Y-197747D01*
X129956Y-197593D01*
X130885Y-197057D01*
X131642Y-196300D01*
X132178Y-195371D01*
X132332Y-194800D01*
D02*
G37*
G36*
X119983D02*
X117037D01*
X117190Y-195371D01*
X117726Y-196300D01*
X118484Y-197057D01*
X119412Y-197593D01*
X119983Y-197747D01*
Y-194800D01*
D02*
G37*
G36*
X112646D02*
X109700D01*
Y-197747D01*
X110271Y-197593D01*
X111200Y-197057D01*
X111958Y-196300D01*
X112493Y-195371D01*
X112646Y-194800D01*
D02*
G37*
G36*
X127385Y-199854D02*
X126814Y-200007D01*
X125885Y-200542D01*
X125127Y-201300D01*
X124934Y-201635D01*
X124434D01*
X124241Y-201300D01*
X123483Y-200542D01*
X122555Y-200007D01*
X121984Y-199854D01*
Y-203800D01*
Y-207747D01*
X122555Y-207593D01*
X123483Y-207057D01*
X124241Y-206300D01*
X124434Y-205965D01*
X124934D01*
X125127Y-206300D01*
X125885Y-207057D01*
X126814Y-207593D01*
X127385Y-207747D01*
Y-203800D01*
Y-199854D01*
D02*
G37*
G36*
X107700D02*
X107129Y-200007D01*
X106200Y-200542D01*
X105443Y-201300D01*
X105249Y-201635D01*
X104749D01*
X104556Y-201300D01*
X103798Y-200542D01*
X102870Y-200007D01*
X102298Y-199854D01*
Y-203800D01*
Y-207747D01*
X102870Y-207593D01*
X103798Y-207057D01*
X104556Y-206300D01*
X104749Y-205965D01*
X105249D01*
X105443Y-206300D01*
X106200Y-207057D01*
X107129Y-207593D01*
X107700Y-207747D01*
Y-203800D01*
Y-199854D01*
D02*
G37*
G36*
X129385D02*
Y-202800D01*
X132332D01*
X132178Y-202229D01*
X131642Y-201300D01*
X130885Y-200542D01*
X129956Y-200007D01*
X129385Y-199854D01*
D02*
G37*
G36*
X119983D02*
X119412Y-200007D01*
X118484Y-200542D01*
X117726Y-201300D01*
X117190Y-202229D01*
X117037Y-202800D01*
X119983D01*
Y-199854D01*
D02*
G37*
G36*
X109700D02*
Y-202800D01*
X112646D01*
X112493Y-202229D01*
X111958Y-201300D01*
X111200Y-200542D01*
X110271Y-200007D01*
X109700Y-199854D01*
D02*
G37*
G36*
X132332Y-204800D02*
X129385D01*
Y-207747D01*
X129956Y-207593D01*
X130885Y-207057D01*
X131642Y-206300D01*
X132178Y-205371D01*
X132332Y-204800D01*
D02*
G37*
G36*
X119983D02*
X117037D01*
X117190Y-205371D01*
X117726Y-206300D01*
X118484Y-207057D01*
X119412Y-207593D01*
X119983Y-207747D01*
Y-204800D01*
D02*
G37*
G36*
X112646D02*
X109700D01*
Y-207747D01*
X110271Y-207593D01*
X111200Y-207057D01*
X111958Y-206300D01*
X112493Y-205371D01*
X112646Y-204800D01*
D02*
G37*
%LPD*%
G36*
X94485Y-75384D02*
X94411Y-75475D01*
X94345Y-75576D01*
X94287Y-75688D01*
X94239Y-75811D01*
X94199Y-75944D01*
X94168Y-76088D01*
X94146Y-76243D01*
X94133Y-76409D01*
X94129Y-76586D01*
X93129Y-76761D01*
X93123Y-76584D01*
X93107Y-76422D01*
X93081Y-76274D01*
X93044Y-76140D01*
X92996Y-76021D01*
X92937Y-75916D01*
X92868Y-75825D01*
X92789Y-75749D01*
X92698Y-75687D01*
X92597Y-75639D01*
X94569Y-75305D01*
X94485Y-75384D01*
D02*
G37*
G36*
X94152Y-82976D02*
X94222Y-83259D01*
X94339Y-83555D01*
X94503Y-83863D01*
X94714Y-84183D01*
X94971Y-84515D01*
X95275Y-84860D01*
X95626Y-85217D01*
X96469Y-85968D01*
X90976Y-86428D01*
X91385Y-85943D01*
X92354Y-84649D01*
X92591Y-84271D01*
X92784Y-83921D01*
X92935Y-83597D01*
X93043Y-83301D01*
X93107Y-83031D01*
X93129Y-82789D01*
X94129Y-82705D01*
X94152Y-82976D01*
D02*
G37*
G36*
X96583Y-91934D02*
X96145Y-92339D01*
X95408Y-93102D01*
X95108Y-93460D01*
X94855Y-93803D01*
X94647Y-94130D01*
X94486Y-94442D01*
X94371Y-94739D01*
X94302Y-95020D01*
X94279Y-95286D01*
X93279Y-95240D01*
X93257Y-94990D01*
X93191Y-94716D01*
X93081Y-94419D01*
X92926Y-94099D01*
X92728Y-93755D01*
X92486Y-93387D01*
X91869Y-92582D01*
X91495Y-92145D01*
X91077Y-91684D01*
X96583Y-91934D01*
D02*
G37*
G36*
X94279Y-104590D02*
X94282Y-104711D01*
X94304Y-104938D01*
X94323Y-105044D01*
X94349Y-105146D01*
X94379Y-105242D01*
X94416Y-105333D01*
X94458Y-105420D01*
X94505Y-105501D01*
X94558Y-105578D01*
X92897Y-105327D01*
X92970Y-105269D01*
X93034Y-105203D01*
X93092Y-105130D01*
X93141Y-105050D01*
X93183Y-104964D01*
X93218Y-104870D01*
X93244Y-104769D01*
X93264Y-104661D01*
X93275Y-104546D01*
X93279Y-104424D01*
X94279Y-104590D01*
D02*
G37*
G36*
X164800Y-139000D02*
X128300D01*
X128300Y-149475D01*
X118661D01*
Y-149409D01*
X115118D01*
Y-145891D01*
X118661D01*
Y-144580D01*
X122200D01*
Y-87700D01*
X145750D01*
X145851Y-87801D01*
X146649Y-88261D01*
X147539Y-88500D01*
X148461D01*
X149351Y-88261D01*
X150149Y-87801D01*
X150250Y-87700D01*
X156750D01*
X156851Y-87801D01*
X157649Y-88261D01*
X158539Y-88500D01*
X159461D01*
X160351Y-88261D01*
X161149Y-87801D01*
X161250Y-87700D01*
X164800D01*
Y-139000D01*
D02*
G37*
D12*
X164200Y-163500D02*
Y-152300D01*
Y-163500D02*
X165000Y-164300D01*
X154200Y-163096D02*
X155403Y-164300D01*
X165000D01*
X149704Y-163096D02*
X154200D01*
X121173Y-168173D02*
X127915D01*
X134982Y-167602D02*
Y-161881D01*
X126153Y-165427D02*
Y-161311D01*
Y-165427D02*
X127915Y-167189D01*
Y-168173D02*
Y-167189D01*
X119686Y-172500D02*
X140300D01*
X149704Y-163096D01*
X94328Y-134693D02*
X94535Y-134900D01*
X99500Y-150800D02*
X101720D01*
X93400Y-156900D02*
X99500Y-150800D01*
X89000Y-156900D02*
X93400D01*
X28252Y-150052D02*
Y-121400D01*
Y-150052D02*
X31500Y-153300D01*
X34266Y-113500D02*
X34748Y-113982D01*
Y-121400D02*
Y-113982D01*
X34186Y-113580D02*
X34266Y-113500D01*
X93344Y-141189D02*
X94328D01*
X98408D01*
X101039Y-143820D01*
Y-144410D02*
Y-143820D01*
Y-144410D02*
X101129Y-144501D01*
X101720D01*
X160580Y-176580D02*
X161000Y-177000D01*
X120000Y-167000D02*
X121173Y-168173D01*
X116680Y-153950D02*
X117271D01*
X120000Y-156679D01*
Y-167000D02*
Y-156679D01*
X133348Y-162080D02*
X134490Y-160938D01*
X93779Y-89179D02*
X93958Y-89000D01*
X93779Y-106121D02*
Y-89179D01*
X93600Y-106300D02*
X93779Y-106121D01*
X93300Y-73800D02*
X93629Y-74129D01*
Y-88671D02*
Y-74129D01*
Y-88671D02*
X93958Y-89000D01*
X116680Y-169494D02*
X119686Y-172500D01*
X103552Y-165784D02*
Y-164800D01*
X116680Y-169494D02*
Y-157099D01*
X103020Y-164268D02*
X103552Y-164800D01*
D15*
X116426Y-128976D02*
D03*
Y-121653D02*
D03*
D16*
X131977Y-125315D02*
D03*
D17*
X198948Y-162800D02*
D03*
X192452D02*
D03*
X134411Y-168173D02*
D03*
X127915D02*
D03*
X28252Y-121400D02*
D03*
X34748D02*
D03*
X105652Y-173000D02*
D03*
X112148D02*
D03*
X165000Y-164300D02*
D03*
X171496D02*
D03*
X217448Y-107600D02*
D03*
X210952D02*
D03*
Y-92100D02*
D03*
X217448D02*
D03*
X103552Y-164800D02*
D03*
X110048D02*
D03*
D18*
X216334Y-163100D02*
D03*
X208066D02*
D03*
X42534Y-113500D02*
D03*
X34266D02*
D03*
D19*
X220798Y-144500D02*
D03*
X208002D02*
D03*
X220698Y-131000D02*
D03*
X207902D02*
D03*
X220698Y-117500D02*
D03*
X207902D02*
D03*
D20*
X126153Y-154263D02*
D03*
Y-161311D02*
D03*
X135553Y-154263D02*
D03*
Y-161311D02*
D03*
X78100Y-139724D02*
D03*
Y-132676D02*
D03*
D21*
X41600Y-143987D02*
D03*
Y-129813D02*
D03*
X67600Y-143987D02*
D03*
Y-129813D02*
D03*
X54600Y-143987D02*
D03*
Y-129813D02*
D03*
D22*
X85100Y-133152D02*
D03*
Y-139648D02*
D03*
X94328Y-141189D02*
D03*
Y-134693D02*
D03*
X154200Y-163096D02*
D03*
Y-156600D02*
D03*
D23*
X150430Y-111400D02*
D03*
X189800D02*
D03*
D24*
X116680Y-144501D02*
D03*
X101720D02*
D03*
Y-147650D02*
D03*
Y-150800D02*
D03*
Y-153950D02*
D03*
Y-157099D02*
D03*
X116680Y-147650D02*
D03*
Y-150800D02*
D03*
Y-153950D02*
D03*
Y-157099D02*
D03*
D26*
X134600Y-109100D02*
D03*
X164200Y-152300D02*
D03*
X93300Y-73800D02*
D03*
D27*
X217924Y-99900D02*
D03*
X210876D02*
D03*
D46*
X109200Y-150800D02*
D03*
D47*
X198948Y-162800D02*
X199098Y-162950D01*
X207916D01*
X208066Y-163100D01*
X198948Y-162800D02*
Y-162672D01*
X199820Y-161801D01*
X134982Y-161881D02*
X135553Y-161311D01*
X134411Y-168173D02*
X134982Y-167602D01*
X94535Y-134900D02*
X100800D01*
D48*
X98500Y-154946D02*
X99496Y-153950D01*
X98500Y-172004D02*
Y-154946D01*
X99496Y-153950D02*
X101720D01*
X102120Y-162180D02*
X103379Y-163440D01*
X99496Y-173000D02*
X105652D01*
X98500Y-172004D02*
X99496Y-173000D01*
X101720Y-163280D02*
Y-157099D01*
D49*
X166574Y-190808D02*
D03*
X63109D02*
D03*
D50*
X89015Y-203800D02*
D03*
X81613D02*
D03*
X89015Y-193800D02*
D03*
X81613D02*
D03*
X89015Y-183800D02*
D03*
X81613D02*
D03*
X148070Y-203800D02*
D03*
X140668D02*
D03*
X148070Y-193800D02*
D03*
X140668D02*
D03*
X148070Y-183800D02*
D03*
X140668D02*
D03*
X128385Y-203800D02*
D03*
X120984D02*
D03*
X128385Y-193800D02*
D03*
X120984D02*
D03*
X128385Y-183800D02*
D03*
X120984D02*
D03*
X108700Y-203800D02*
D03*
X101298D02*
D03*
X108700Y-193800D02*
D03*
X101298D02*
D03*
X108700Y-183800D02*
D03*
X101298D02*
D03*
D51*
X44300Y-168500D02*
D03*
X186300Y-144600D02*
D03*
X104700Y-110900D02*
D03*
D52*
X103800Y-89000D02*
D03*
X93958D02*
D03*
X84115D02*
D03*
D53*
X221000Y-76300D02*
D03*
X210100Y-75500D02*
D03*
X199300Y-75800D02*
D03*
X136600Y-94700D02*
D03*
X191600Y-170600D02*
D03*
X202500Y-170400D02*
D03*
X223200Y-170300D02*
D03*
X213900Y-170600D02*
D03*
X85200Y-118000D02*
D03*
X31500Y-153300D02*
D03*
X78000Y-154000D02*
D03*
X44700Y-154100D02*
D03*
X118000Y-211000D02*
D03*
X111000D02*
D03*
X184900Y-165200D02*
D03*
X175800Y-149900D02*
D03*
X201000Y-102000D02*
D03*
X157000Y-184000D02*
D03*
X201000Y-136000D02*
D03*
Y-125000D02*
D03*
X191700Y-153400D02*
D03*
X143000Y-177000D02*
D03*
X161000D02*
D03*
X172000Y-175000D02*
D03*
X174000Y-203000D02*
D03*
X168000Y-209000D02*
D03*
X159000D02*
D03*
X186000Y-134000D02*
D03*
X174000D02*
D03*
X185000Y-93000D02*
D03*
X174000D02*
D03*
Y-107000D02*
D03*
Y-123000D02*
D03*
X138000Y-135000D02*
D03*
X149000Y-98000D02*
D03*
X157000Y-97000D02*
D03*
X144328Y-127935D02*
D03*
X158000Y-125000D02*
D03*
X127700Y-113600D02*
D03*
X128000Y-106000D02*
D03*
X117000Y-109000D02*
D03*
X100354Y-121540D02*
D03*
X104000Y-128000D02*
D03*
X131000Y-81000D02*
D03*
X189000Y-85000D02*
D03*
X179000D02*
D03*
X168000D02*
D03*
X159000D02*
D03*
X148000D02*
D03*
X112000Y-97000D02*
D03*
X116947Y-87402D02*
D03*
X110000Y-81000D02*
D03*
X71000Y-118000D02*
D03*
X77000Y-108000D02*
D03*
X67000Y-94000D02*
D03*
X55000D02*
D03*
X43000D02*
D03*
X67000Y-82000D02*
D03*
X55000D02*
D03*
X128500Y-94500D02*
D03*
X43000Y-82000D02*
D03*
X73000Y-185500D02*
D03*
X72500Y-205500D02*
D03*
X61000Y-205000D02*
D03*
X87500Y-166200D02*
D03*
X61700Y-154300D02*
D03*
X34400Y-165900D02*
D03*
X70300Y-166100D02*
D03*
X53600Y-166000D02*
D03*
D54*
X100800Y-134900D02*
D03*
X89000Y-156900D02*
D03*
X125238Y-138700D02*
D03*
X167000Y-130000D02*
D03*
Y-119000D02*
D03*
Y-109000D02*
D03*
Y-98000D02*
D03*
X93600Y-106300D02*
D03*
D55*
X106641Y-146800D02*
D03*
X111531D02*
D03*
X106641Y-150800D02*
D03*
X111531D02*
D03*
X106641Y-154800D02*
D03*
X111531D02*
D03*
M02*
