%TF.GenerationSoftware,Altium Limited,Altium Designer,24.2.2 (26)*%
G04 Layer_Color=128*
%FSLAX45Y45*%
%MOMM*%
%TF.SameCoordinates,49D751E1-909A-4D1D-99CC-CC6D119DB9C5*%
%TF.FilePolarity,Positive*%
%TF.FileFunction,Drillmap*%
%TF.Part,Single*%
G01*
G75*
%TA.AperFunction,NonConductor*%
%ADD37C,0.12700*%
D37*
X4052980Y-4846520D02*
X4408980D01*
X4230980Y-5024520D02*
Y-4668520D01*
X1424980Y-4846520D02*
X1780980D01*
X1602980Y-5024520D02*
Y-4668520D01*
X2208980Y-5176520D02*
X2312980D01*
X2260980Y-5228520D02*
Y-5124520D01*
X2020980Y-5176520D02*
X2124980D01*
X2072980Y-5228520D02*
Y-5124520D01*
X2208980Y-4922520D02*
X2312980D01*
X2260980Y-4974520D02*
Y-4870520D01*
X2020980Y-4922520D02*
X2124980D01*
X2072980Y-4974520D02*
Y-4870520D01*
X2208980Y-4668520D02*
X2312980D01*
X2260980Y-4720520D02*
Y-4616520D01*
X2020980Y-4668520D02*
X2124980D01*
X2072980Y-4720520D02*
Y-4616520D01*
X3708980Y-5176520D02*
X3812980D01*
X3760980Y-5228520D02*
Y-5124520D01*
X3520980Y-5176520D02*
X3624980D01*
X3572980Y-5228520D02*
Y-5124520D01*
X3708980Y-4922520D02*
X3812980D01*
X3760980Y-4974520D02*
Y-4870520D01*
X3520980Y-4922520D02*
X3624980D01*
X3572980Y-4974520D02*
Y-4870520D01*
X3708980Y-4668520D02*
X3812980D01*
X3760980Y-4720520D02*
Y-4616520D01*
X3520980Y-4668520D02*
X3624980D01*
X3572980Y-4720520D02*
Y-4616520D01*
X3208980Y-5176520D02*
X3312980D01*
X3260980Y-5228520D02*
Y-5124520D01*
X3020980Y-5176520D02*
X3124980D01*
X3072980Y-5228520D02*
Y-5124520D01*
X3208980Y-4922520D02*
X3312980D01*
X3260980Y-4974520D02*
Y-4870520D01*
X3020980Y-4922520D02*
X3124980D01*
X3072980Y-4974520D02*
Y-4870520D01*
X3208980Y-4668520D02*
X3312980D01*
X3260980Y-4720520D02*
Y-4616520D01*
X3020980Y-4668520D02*
X3124980D01*
X3072980Y-4720520D02*
Y-4616520D01*
X2708980Y-5176520D02*
X2812980D01*
X2760980Y-5228520D02*
Y-5124520D01*
X2520980Y-5176520D02*
X2624980D01*
X2572980Y-5228520D02*
Y-5124520D01*
X2708980Y-4922520D02*
X2812980D01*
X2760980Y-4974520D02*
Y-4870520D01*
X2520980Y-4922520D02*
X2624980D01*
X2572980Y-4974520D02*
Y-4870520D01*
X2708980Y-4668520D02*
X2812980D01*
X2760980Y-4720520D02*
Y-4616520D01*
X2520980Y-4668520D02*
X2624980D01*
X2572980Y-4720520D02*
Y-4616520D01*
X1074220Y-4279900D02*
X1176220D01*
X1125220Y-4330900D02*
Y-4228900D01*
X4681020Y-3672840D02*
X4783020D01*
X4732020Y-3723840D02*
Y-3621840D01*
X2586520Y-2260600D02*
X2686520D01*
X2636520Y-2310600D02*
Y-2210600D01*
X2336520Y-2260600D02*
X2436520D01*
X2386520Y-2310600D02*
Y-2210600D01*
X2086520Y-2260600D02*
X2186520D01*
X2136520Y-2310600D02*
Y-2210600D01*
X2608380Y-2816860D02*
X2710380D01*
X2659380Y-2867860D02*
Y-2765860D01*
X5577840Y-1938020D02*
X5648960D01*
X5613400Y-1973580D02*
Y-1902460D01*
X5300980Y-1917700D02*
X5372100D01*
X5336540Y-1953260D02*
Y-1882140D01*
X5026660Y-1925320D02*
X5097780D01*
X5062220Y-1960880D02*
Y-1889760D01*
X3434080Y-2405380D02*
X3505200D01*
X3469640Y-2440940D02*
Y-2369820D01*
X4831080Y-4333240D02*
X4902200D01*
X4866640Y-4368800D02*
Y-4297680D01*
X5107940Y-4328160D02*
X5179060D01*
X5143500Y-4363720D02*
Y-4292600D01*
X5633720Y-4325620D02*
X5704840D01*
X5669280Y-4361180D02*
Y-4290060D01*
X5397500Y-4333240D02*
X5468620D01*
X5433060Y-4368800D02*
Y-4297680D01*
X2545080Y-3426460D02*
X2575560D01*
X2560320Y-3441700D02*
Y-3411220D01*
X2245360Y-3985260D02*
X2275840D01*
X2260600Y-4000500D02*
Y-3970020D01*
X2128520Y-2997200D02*
X2199640D01*
X2164080Y-3032760D02*
Y-2961640D01*
X764540Y-3893820D02*
X835660D01*
X800100Y-3929380D02*
Y-3858260D01*
X1945640Y-3911600D02*
X2016760D01*
X1981200Y-3947160D02*
Y-3876040D01*
X1099820Y-3914140D02*
X1170940D01*
X1135380Y-3949700D02*
Y-3878580D01*
X2961640Y-5359400D02*
X3032760D01*
X2997200Y-5394960D02*
Y-5323840D01*
X2783840Y-5359400D02*
X2854960D01*
X2819400Y-5394960D02*
Y-5323840D01*
X4660900Y-4196080D02*
X4732020D01*
X4696460Y-4231640D02*
Y-4160520D01*
X4429760Y-3807460D02*
X4500880D01*
X4465320Y-3843020D02*
Y-3771900D01*
X5069840Y-2590800D02*
X5140960D01*
X5105400Y-2626360D02*
Y-2555240D01*
X3952240Y-4673600D02*
X4023360D01*
X3987800Y-4709160D02*
Y-4638040D01*
X5069840Y-3454400D02*
X5140960D01*
X5105400Y-3489960D02*
Y-3418840D01*
X5069840Y-3175000D02*
X5140960D01*
X5105400Y-3210560D02*
Y-3139440D01*
X4833620Y-3896360D02*
X4904740D01*
X4869180Y-3931920D02*
Y-3860800D01*
X3596640Y-4495800D02*
X3667760D01*
X3632200Y-4531360D02*
Y-4460240D01*
X4053840Y-4495800D02*
X4124960D01*
X4089400Y-4531360D02*
Y-4460240D01*
X4333240Y-4445000D02*
X4404360D01*
X4368800Y-4480560D02*
Y-4409440D01*
X4384040Y-5156200D02*
X4455160D01*
X4419600Y-5191760D02*
Y-5120640D01*
X4231640Y-5308600D02*
X4302760D01*
X4267200Y-5344160D02*
Y-5273040D01*
X4003040Y-5308600D02*
X4074160D01*
X4038600Y-5344160D02*
Y-5273040D01*
X4688840Y-3403600D02*
X4759960D01*
X4724400Y-3439160D02*
Y-3368040D01*
X4384040Y-3403600D02*
X4455160D01*
X4419600Y-3439160D02*
Y-3368040D01*
X4663440Y-2362200D02*
X4734560D01*
X4699000Y-2397760D02*
Y-2326640D01*
X4384040Y-2362200D02*
X4455160D01*
X4419600Y-2397760D02*
Y-2326640D01*
X4384040Y-2717800D02*
X4455160D01*
X4419600Y-2753360D02*
Y-2682240D01*
X4384040Y-3124200D02*
X4455160D01*
X4419600Y-3159760D02*
Y-3088640D01*
X3165795Y-3522980D02*
X3196275D01*
X3181035Y-3538220D02*
Y-3507740D01*
X3469640Y-3429000D02*
X3540760D01*
X3505200Y-3464560D02*
Y-3393440D01*
X3749040Y-2489200D02*
X3820160D01*
X3784600Y-2524760D02*
Y-2453640D01*
X3952240Y-2463800D02*
X4023360D01*
X3987800Y-2499360D02*
Y-2428240D01*
X3630360Y-3249560D02*
X3701480D01*
X3665920Y-3285120D02*
Y-3214000D01*
X3977640Y-3175000D02*
X4048760D01*
X4013200Y-3210560D02*
Y-3139440D01*
X3208020Y-2885440D02*
X3279140D01*
X3243580Y-2921000D02*
Y-2849880D01*
X3215640Y-2692400D02*
X3286760D01*
X3251200Y-2727960D02*
Y-2656840D01*
X2936240Y-2768600D02*
X3007360D01*
X2971800Y-2804160D02*
Y-2733040D01*
X2513428Y-3087119D02*
X2584548D01*
X2548988Y-3122679D02*
Y-3051559D01*
X2606040Y-3251200D02*
X2677160D01*
X2641600Y-3286760D02*
Y-3215640D01*
X4226560Y-3302000D02*
X4257040D01*
X4241800Y-3317240D02*
Y-3286760D01*
X4226560Y-3022600D02*
X4257040D01*
X4241800Y-3037840D02*
Y-3007360D01*
X4226560Y-2768600D02*
X4257040D01*
X4241800Y-2783840D02*
Y-2753360D01*
X4226560Y-2489200D02*
X4257040D01*
X4241800Y-2504440D02*
Y-2473960D01*
X3291840Y-2057400D02*
X3362960D01*
X3327400Y-2092960D02*
Y-2021840D01*
X4765040Y-2159000D02*
X4836160D01*
X4800600Y-2194560D02*
Y-2123440D01*
X4511040Y-2159000D02*
X4582160D01*
X4546600Y-2194560D02*
Y-2123440D01*
X4231640Y-2159000D02*
X4302760D01*
X4267200Y-2194560D02*
Y-2123440D01*
X4003040Y-2159000D02*
X4074160D01*
X4038600Y-2194560D02*
Y-2123440D01*
X3723640Y-2159000D02*
X3794760D01*
X3759200Y-2194560D02*
Y-2123440D01*
X2809240Y-2463800D02*
X2880360D01*
X2844800Y-2499360D02*
Y-2428240D01*
X2934895Y-2220017D02*
X3006015D01*
X2970455Y-2255577D02*
Y-2184457D01*
X2758440Y-2057400D02*
X2829560D01*
X2794000Y-2092960D02*
Y-2021840D01*
X1767840Y-2997200D02*
X1838960D01*
X1803400Y-3032760D02*
Y-2961640D01*
X1920240Y-2743200D02*
X1991360D01*
X1955800Y-2778760D02*
Y-2707640D01*
X1666240Y-2387600D02*
X1737360D01*
X1701800Y-2423160D02*
Y-2352040D01*
X1361440Y-2387600D02*
X1432560D01*
X1397000Y-2423160D02*
Y-2352040D01*
X1056640Y-2387600D02*
X1127760D01*
X1092200Y-2423160D02*
Y-2352040D01*
X1666240Y-2082800D02*
X1737360D01*
X1701800Y-2118360D02*
Y-2047240D01*
X1361440Y-2082800D02*
X1432560D01*
X1397000Y-2118360D02*
Y-2047240D01*
X3228340Y-2400300D02*
X3299460D01*
X3263900Y-2435860D02*
Y-2364740D01*
X1056640Y-2082800D02*
X1127760D01*
X1092200Y-2118360D02*
Y-2047240D01*
X1818640Y-4711700D02*
X1889760D01*
X1854200Y-4747260D02*
Y-4676140D01*
X1805940Y-5219700D02*
X1877060D01*
X1841500Y-5255260D02*
Y-5184140D01*
X1513840Y-5207000D02*
X1584960D01*
X1549400Y-5242560D02*
Y-5171440D01*
X2186940Y-4221480D02*
X2258060D01*
X2222500Y-4257040D02*
Y-4185920D01*
X1531620Y-3919220D02*
X1602740D01*
X1567180Y-3954780D02*
Y-3883660D01*
X838200Y-4213860D02*
X909320D01*
X873760Y-4249420D02*
Y-4178300D01*
X1750060Y-4218940D02*
X1821180D01*
X1785620Y-4254500D02*
Y-4183380D01*
X1325880Y-4216400D02*
X1397000D01*
X1361440Y-4251960D02*
Y-4180840D01*
X2688360Y-3728720D02*
X2729000D01*
X2708680Y-3749040D02*
Y-3708400D01*
X2812560Y-3728720D02*
X2853200D01*
X2832880Y-3749040D02*
Y-3708400D01*
X2688360Y-3830320D02*
X2729000D01*
X2708680Y-3850640D02*
Y-3810000D01*
X2812560Y-3830320D02*
X2853200D01*
X2832880Y-3850640D02*
Y-3810000D01*
X2688360Y-3931920D02*
X2729000D01*
X2708680Y-3952240D02*
Y-3911600D01*
X2812560Y-3931920D02*
X2853200D01*
X2832880Y-3952240D02*
Y-3911600D01*
X2362200Y-2700020D02*
X2392680D01*
X2377440Y-2715260D02*
Y-2684780D01*
%TF.MD5,f73b41079ce8acff0691a16b66b41861*%
M02*
