G04*
G04 #@! TF.GenerationSoftware,Altium Limited,Altium Designer,24.5.2 (23)*
G04*
G04 Layer_Color=8388736*
%FSLAX25Y25*%
%MOIN*%
G70*
G04*
G04 #@! TF.SameCoordinates,5CCFB9DE-5C0A-4CCD-A088-F0D1A9D58223*
G04*
G04*
G04 #@! TF.FilePolarity,Negative*
G04*
G01*
G75*
%ADD28R,0.05518X0.05518*%
%ADD29R,0.18510X0.13786*%
G04:AMPARAMS|DCode=30|XSize=59.12mil|YSize=39.43mil|CornerRadius=4.66mil|HoleSize=0mil|Usage=FLASHONLY|Rotation=90.000|XOffset=0mil|YOffset=0mil|HoleType=Round|Shape=RoundedRectangle|*
%AMROUNDEDRECTD30*
21,1,0.05912,0.03012,0,0,90.0*
21,1,0.04980,0.03943,0,0,90.0*
1,1,0.00932,0.01506,0.02490*
1,1,0.00932,0.01506,-0.02490*
1,1,0.00932,-0.01506,-0.02490*
1,1,0.00932,-0.01506,0.02490*
%
%ADD30ROUNDEDRECTD30*%
G04:AMPARAMS|DCode=31|XSize=55.18mil|YSize=55.18mil|CornerRadius=7.12mil|HoleSize=0mil|Usage=FLASHONLY|Rotation=180.000|XOffset=0mil|YOffset=0mil|HoleType=Round|Shape=RoundedRectangle|*
%AMROUNDEDRECTD31*
21,1,0.05518,0.04095,0,0,180.0*
21,1,0.04095,0.05518,0,0,180.0*
1,1,0.01424,-0.02047,0.02047*
1,1,0.01424,0.02047,0.02047*
1,1,0.01424,0.02047,-0.02047*
1,1,0.01424,-0.02047,-0.02047*
%
%ADD31ROUNDEDRECTD31*%
G04:AMPARAMS|DCode=32|XSize=66.99mil|YSize=128.02mil|CornerRadius=6.72mil|HoleSize=0mil|Usage=FLASHONLY|Rotation=180.000|XOffset=0mil|YOffset=0mil|HoleType=Round|Shape=RoundedRectangle|*
%AMROUNDEDRECTD32*
21,1,0.06699,0.11457,0,0,180.0*
21,1,0.05354,0.12802,0,0,180.0*
1,1,0.01345,-0.02677,0.05728*
1,1,0.01345,0.02677,0.05728*
1,1,0.01345,0.02677,-0.05728*
1,1,0.01345,-0.02677,-0.05728*
%
%ADD32ROUNDEDRECTD32*%
G04:AMPARAMS|DCode=33|XSize=53.21mil|YSize=66.99mil|CornerRadius=6.92mil|HoleSize=0mil|Usage=FLASHONLY|Rotation=270.000|XOffset=0mil|YOffset=0mil|HoleType=Round|Shape=RoundedRectangle|*
%AMROUNDEDRECTD33*
21,1,0.05321,0.05315,0,0,270.0*
21,1,0.03937,0.06699,0,0,270.0*
1,1,0.01384,-0.02657,-0.01968*
1,1,0.01384,-0.02657,0.01968*
1,1,0.01384,0.02657,0.01968*
1,1,0.01384,0.02657,-0.01968*
%
%ADD33ROUNDEDRECTD33*%
G04:AMPARAMS|DCode=34|XSize=66.99mil|YSize=122.11mil|CornerRadius=6.72mil|HoleSize=0mil|Usage=FLASHONLY|Rotation=270.000|XOffset=0mil|YOffset=0mil|HoleType=Round|Shape=RoundedRectangle|*
%AMROUNDEDRECTD34*
21,1,0.06699,0.10866,0,0,270.0*
21,1,0.05354,0.12211,0,0,270.0*
1,1,0.01345,-0.05433,-0.02677*
1,1,0.01345,-0.05433,0.02677*
1,1,0.01345,0.05433,0.02677*
1,1,0.01345,0.05433,-0.02677*
%
%ADD34ROUNDEDRECTD34*%
G04:AMPARAMS|DCode=35|XSize=59.12mil|YSize=39.43mil|CornerRadius=4.66mil|HoleSize=0mil|Usage=FLASHONLY|Rotation=0.000|XOffset=0mil|YOffset=0mil|HoleType=Round|Shape=RoundedRectangle|*
%AMROUNDEDRECTD35*
21,1,0.05912,0.03012,0,0,0.0*
21,1,0.04980,0.03943,0,0,0.0*
1,1,0.00932,0.02490,-0.01506*
1,1,0.00932,-0.02490,-0.01506*
1,1,0.00932,-0.02490,0.01506*
1,1,0.00932,0.02490,0.01506*
%
%ADD35ROUNDEDRECTD35*%
%ADD36R,0.16148X0.16148*%
%ADD37R,0.02762X0.01581*%
%ADD38R,0.10636X0.12211*%
%ADD39C,0.04337*%
G04:AMPARAMS|DCode=40|XSize=53.21mil|YSize=66.99mil|CornerRadius=6.92mil|HoleSize=0mil|Usage=FLASHONLY|Rotation=180.000|XOffset=0mil|YOffset=0mil|HoleType=Round|Shape=RoundedRectangle|*
%AMROUNDEDRECTD40*
21,1,0.05321,0.05315,0,0,180.0*
21,1,0.03937,0.06699,0,0,180.0*
1,1,0.01384,-0.01968,0.02657*
1,1,0.01384,0.01968,0.02657*
1,1,0.01384,0.01968,-0.02657*
1,1,0.01384,-0.01968,-0.02657*
%
%ADD40ROUNDEDRECTD40*%
%ADD41C,0.14416*%
%ADD42C,0.06542*%
%ADD43C,0.10400*%
%ADD44C,0.08274*%
%ADD45C,0.03200*%
D28*
X116426Y-128976D02*
D03*
Y-121653D02*
D03*
D29*
X131977Y-125315D02*
D03*
D30*
X198948Y-162800D02*
D03*
X192452D02*
D03*
X134411Y-168173D02*
D03*
X127915D02*
D03*
X28252Y-121400D02*
D03*
X34748D02*
D03*
X105652Y-173000D02*
D03*
X112148D02*
D03*
X165000Y-164300D02*
D03*
X171496D02*
D03*
X217448Y-107600D02*
D03*
X210952D02*
D03*
Y-92100D02*
D03*
X217448D02*
D03*
X103552Y-164800D02*
D03*
X110048D02*
D03*
D31*
X216334Y-163100D02*
D03*
X208066D02*
D03*
X42534Y-113500D02*
D03*
X34266D02*
D03*
D32*
X220798Y-144500D02*
D03*
X208002D02*
D03*
X220698Y-131000D02*
D03*
X207902D02*
D03*
X220698Y-117500D02*
D03*
X207902D02*
D03*
D33*
X126153Y-154263D02*
D03*
Y-161311D02*
D03*
X135553Y-154263D02*
D03*
Y-161311D02*
D03*
X78100Y-139724D02*
D03*
Y-132676D02*
D03*
D34*
X41600Y-143987D02*
D03*
Y-129813D02*
D03*
X67600Y-143987D02*
D03*
Y-129813D02*
D03*
X54600Y-143987D02*
D03*
Y-129813D02*
D03*
D35*
X85100Y-133152D02*
D03*
Y-139648D02*
D03*
X94328Y-141189D02*
D03*
Y-134693D02*
D03*
X154200Y-163096D02*
D03*
Y-156600D02*
D03*
D36*
X150430Y-111400D02*
D03*
X189800D02*
D03*
D37*
X116680Y-144501D02*
D03*
X101720D02*
D03*
Y-147650D02*
D03*
Y-150800D02*
D03*
Y-153950D02*
D03*
Y-157099D02*
D03*
X116680Y-147650D02*
D03*
Y-150800D02*
D03*
Y-153950D02*
D03*
Y-157099D02*
D03*
D38*
X109200Y-150800D02*
D03*
D39*
X134600Y-109100D02*
D03*
X164200Y-152300D02*
D03*
X93300Y-73800D02*
D03*
D40*
X217924Y-99900D02*
D03*
X210876D02*
D03*
D41*
X166574Y-190808D02*
D03*
X63109D02*
D03*
D42*
X89015Y-203800D02*
D03*
X81613D02*
D03*
X89015Y-193800D02*
D03*
X81613D02*
D03*
X89015Y-183800D02*
D03*
X81613D02*
D03*
X148070Y-203800D02*
D03*
X140668D02*
D03*
X148070Y-193800D02*
D03*
X140668D02*
D03*
X148070Y-183800D02*
D03*
X140668D02*
D03*
X128385Y-203800D02*
D03*
X120984D02*
D03*
X128385Y-193800D02*
D03*
X120984D02*
D03*
X128385Y-183800D02*
D03*
X120984D02*
D03*
X108700Y-203800D02*
D03*
X101298D02*
D03*
X108700Y-193800D02*
D03*
X101298D02*
D03*
X108700Y-183800D02*
D03*
X101298D02*
D03*
D43*
X44300Y-168500D02*
D03*
X186300Y-144600D02*
D03*
X104700Y-110900D02*
D03*
D44*
X103800Y-89000D02*
D03*
X93958D02*
D03*
X84115D02*
D03*
D45*
X106641Y-146800D02*
D03*
X111531D02*
D03*
X106641Y-150800D02*
D03*
X111531D02*
D03*
X106641Y-154800D02*
D03*
X111531D02*
D03*
M02*
