G04*
G04 #@! TF.GenerationSoftware,Altium Limited,Altium Designer,20.1.14 (287)*
G04*
G04 Layer_Physical_Order=4*
G04 Layer_Color=16711680*
%FSAX25Y25*%
%MOIN*%
G70*
G04*
G04 #@! TF.SameCoordinates,FC2F126E-21AF-4EAC-9D32-16AAFC288CF4*
G04*
G04*
G04 #@! TF.FilePolarity,Positive*
G04*
G01*
G75*
%ADD11C,0.01000*%
%ADD73C,0.01500*%
%ADD74C,0.02000*%
%ADD76C,0.03000*%
%ADD79C,0.09055*%
%ADD80C,0.15748*%
%ADD81C,0.06000*%
%ADD82C,0.05000*%
%ADD83C,0.02200*%
%ADD84C,0.02800*%
%ADD85C,0.02400*%
G36*
X0346764Y0361834D02*
X0348184Y0361246D01*
X0349463Y0360392D01*
X0350550Y0359305D01*
X0351403Y0358027D01*
X0351992Y0356607D01*
X0352292Y0355099D01*
Y0354331D01*
Y0009843D01*
Y0009074D01*
X0351992Y0007566D01*
X0351403Y0006146D01*
X0350550Y0004868D01*
X0349463Y0003781D01*
X0348184Y0002927D01*
X0346764Y0002339D01*
X0345257Y0002039D01*
X0009074D01*
X0007566Y0002339D01*
X0006146Y0002927D01*
X0004868Y0003781D01*
X0003781Y0004868D01*
X0002927Y0006146D01*
X0002339Y0007566D01*
X0002039Y0009074D01*
Y0009843D01*
Y0354331D01*
Y0355099D01*
X0002339Y0356607D01*
X0002927Y0358027D01*
X0003781Y0359305D01*
X0004868Y0360392D01*
X0006146Y0361246D01*
X0007566Y0361834D01*
X0009074Y0362134D01*
X0345257D01*
X0346764Y0361834D01*
D02*
G37*
%LPC*%
G36*
X0334646Y0356399D02*
X0332782Y0356252D01*
X0330965Y0355816D01*
X0329238Y0355101D01*
X0327645Y0354124D01*
X0326223Y0352910D01*
X0325010Y0351489D01*
X0324033Y0349896D01*
X0323318Y0348169D01*
X0322882Y0346351D01*
X0322735Y0344488D01*
X0322882Y0342625D01*
X0323318Y0340808D01*
X0324033Y0339081D01*
X0325010Y0337487D01*
X0326223Y0336066D01*
X0327645Y0334852D01*
X0329238Y0333876D01*
X0330965Y0333160D01*
X0332782Y0332724D01*
X0334646Y0332577D01*
X0336509Y0332724D01*
X0338326Y0333160D01*
X0340053Y0333876D01*
X0341647Y0334852D01*
X0343068Y0336066D01*
X0344282Y0337487D01*
X0345258Y0339081D01*
X0345973Y0340808D01*
X0346410Y0342625D01*
X0346556Y0344488D01*
X0346410Y0346351D01*
X0345973Y0348169D01*
X0345258Y0349896D01*
X0344282Y0351489D01*
X0343068Y0352910D01*
X0341647Y0354124D01*
X0340053Y0355101D01*
X0338326Y0355816D01*
X0336509Y0356252D01*
X0334646Y0356399D01*
D02*
G37*
G36*
X0019685D02*
X0017822Y0356252D01*
X0016004Y0355816D01*
X0014278Y0355101D01*
X0012684Y0354124D01*
X0011263Y0352910D01*
X0010049Y0351489D01*
X0009072Y0349896D01*
X0008357Y0348169D01*
X0007921Y0346351D01*
X0007774Y0344488D01*
X0007921Y0342625D01*
X0008357Y0340808D01*
X0009072Y0339081D01*
X0010049Y0337487D01*
X0011263Y0336066D01*
X0012684Y0334852D01*
X0014278Y0333876D01*
X0016004Y0333160D01*
X0017822Y0332724D01*
X0019685Y0332577D01*
X0021548Y0332724D01*
X0023366Y0333160D01*
X0025092Y0333876D01*
X0026686Y0334852D01*
X0028107Y0336066D01*
X0029321Y0337487D01*
X0030298Y0339081D01*
X0031013Y0340808D01*
X0031449Y0342625D01*
X0031596Y0344488D01*
X0031449Y0346351D01*
X0031013Y0348169D01*
X0030298Y0349896D01*
X0029321Y0351489D01*
X0028107Y0352910D01*
X0026686Y0354124D01*
X0025092Y0355101D01*
X0023366Y0355816D01*
X0021548Y0356252D01*
X0019685Y0356399D01*
D02*
G37*
G36*
X0301848Y0310786D02*
X0301107Y0310638D01*
X0300794Y0310429D01*
X0290848D01*
X0290244Y0310309D01*
X0289731Y0309966D01*
X0269766Y0290001D01*
X0269359Y0289920D01*
X0268730Y0289500D01*
X0268310Y0288872D01*
X0268163Y0288130D01*
X0268310Y0287389D01*
X0268730Y0286760D01*
X0269359Y0286340D01*
X0270100Y0286193D01*
X0270841Y0286340D01*
X0271470Y0286760D01*
X0271890Y0287389D01*
X0271956Y0287721D01*
X0291503Y0307268D01*
X0300794D01*
X0301107Y0307059D01*
X0301848Y0306911D01*
X0302590Y0307059D01*
X0303218Y0307479D01*
X0303638Y0308107D01*
X0303786Y0308848D01*
X0303638Y0309590D01*
X0303218Y0310218D01*
X0302590Y0310638D01*
X0301848Y0310786D01*
D02*
G37*
G36*
X0210000Y0304034D02*
X0208956Y0303897D01*
X0207983Y0303494D01*
X0207147Y0302853D01*
X0206506Y0302017D01*
X0206103Y0301044D01*
X0205965Y0300000D01*
X0206103Y0298956D01*
X0206506Y0297983D01*
X0207147Y0297147D01*
X0207983Y0296506D01*
X0208956Y0296103D01*
X0210000Y0295966D01*
X0211044Y0296103D01*
X0212017Y0296506D01*
X0212853Y0297147D01*
X0213494Y0297983D01*
X0213897Y0298956D01*
X0214035Y0300000D01*
X0213897Y0301044D01*
X0213494Y0302017D01*
X0212853Y0302853D01*
X0212017Y0303494D01*
X0211044Y0303897D01*
X0210000Y0304034D01*
D02*
G37*
G36*
X0190000D02*
X0188956Y0303897D01*
X0187983Y0303494D01*
X0187147Y0302853D01*
X0186506Y0302017D01*
X0186103Y0301044D01*
X0185966Y0300000D01*
X0186103Y0298956D01*
X0186506Y0297983D01*
X0187147Y0297147D01*
X0187983Y0296506D01*
X0188956Y0296103D01*
X0190000Y0295966D01*
X0191044Y0296103D01*
X0192017Y0296506D01*
X0192853Y0297147D01*
X0193494Y0297983D01*
X0193897Y0298956D01*
X0194035Y0300000D01*
X0193897Y0301044D01*
X0193494Y0302017D01*
X0192853Y0302853D01*
X0192017Y0303494D01*
X0191044Y0303897D01*
X0190000Y0304034D01*
D02*
G37*
G36*
X0170000D02*
X0168956Y0303897D01*
X0167983Y0303494D01*
X0167147Y0302853D01*
X0166506Y0302017D01*
X0166103Y0301044D01*
X0165965Y0300000D01*
X0166103Y0298956D01*
X0166506Y0297983D01*
X0167147Y0297147D01*
X0167983Y0296506D01*
X0168956Y0296103D01*
X0170000Y0295966D01*
X0171044Y0296103D01*
X0172017Y0296506D01*
X0172853Y0297147D01*
X0173494Y0297983D01*
X0173897Y0298956D01*
X0174035Y0300000D01*
X0173897Y0301044D01*
X0173494Y0302017D01*
X0172853Y0302853D01*
X0172017Y0303494D01*
X0171044Y0303897D01*
X0170000Y0304034D01*
D02*
G37*
G36*
X0146843Y0315057D02*
X0145661Y0314940D01*
X0144525Y0314596D01*
X0143478Y0314036D01*
X0142560Y0313283D01*
X0141806Y0312365D01*
X0141247Y0311318D01*
X0140902Y0310182D01*
X0140786Y0309000D01*
X0140902Y0307818D01*
X0141247Y0306682D01*
X0141806Y0305635D01*
X0142560Y0304717D01*
X0143478Y0303964D01*
X0144525Y0303404D01*
X0145661Y0303060D01*
X0146604Y0302967D01*
X0146845Y0302466D01*
X0146845Y0302460D01*
X0146506Y0302017D01*
X0146103Y0301044D01*
X0145966Y0300000D01*
X0146103Y0298956D01*
X0146506Y0297983D01*
X0147147Y0297147D01*
X0147983Y0296506D01*
X0148956Y0296103D01*
X0150000Y0295966D01*
X0151044Y0296103D01*
X0152017Y0296506D01*
X0152853Y0297147D01*
X0153494Y0297983D01*
X0153897Y0298956D01*
X0154034Y0300000D01*
X0153897Y0301044D01*
X0153494Y0302017D01*
X0152853Y0302853D01*
X0152017Y0303494D01*
X0151044Y0303897D01*
X0150876Y0303919D01*
X0150739Y0304400D01*
X0151125Y0304717D01*
X0151878Y0305635D01*
X0152438Y0306682D01*
X0152783Y0307818D01*
X0152899Y0309000D01*
X0152783Y0310182D01*
X0152438Y0311318D01*
X0151878Y0312365D01*
X0151125Y0313283D01*
X0150207Y0314036D01*
X0149160Y0314596D01*
X0148024Y0314940D01*
X0146843Y0315057D01*
D02*
G37*
G36*
X0294000Y0299243D02*
X0293142Y0299072D01*
X0292414Y0298586D01*
X0292166Y0298215D01*
X0292146Y0298211D01*
X0291634Y0297869D01*
X0274985Y0281220D01*
X0274960Y0281201D01*
X0274910Y0281166D01*
X0274905Y0281163D01*
X0274500Y0281243D01*
X0273642Y0281072D01*
X0272914Y0280586D01*
X0272428Y0279858D01*
X0272257Y0279000D01*
X0272428Y0278142D01*
X0272914Y0277414D01*
X0273642Y0276928D01*
X0274500Y0276757D01*
X0275358Y0276928D01*
X0276086Y0277414D01*
X0276572Y0278142D01*
X0276612Y0278343D01*
X0276840Y0278606D01*
X0293159Y0294924D01*
X0294000Y0294757D01*
X0294858Y0294928D01*
X0295586Y0295414D01*
X0296072Y0296142D01*
X0296243Y0297000D01*
X0296072Y0297858D01*
X0295586Y0298586D01*
X0294858Y0299072D01*
X0294000Y0299243D01*
D02*
G37*
G36*
X0220000Y0284034D02*
X0218956Y0283897D01*
X0217983Y0283494D01*
X0217147Y0282853D01*
X0216506Y0282017D01*
X0216103Y0281044D01*
X0215966Y0280000D01*
X0216103Y0278956D01*
X0216506Y0277983D01*
X0217147Y0277147D01*
X0217983Y0276506D01*
X0218956Y0276103D01*
X0220000Y0275965D01*
X0221044Y0276103D01*
X0222017Y0276506D01*
X0222853Y0277147D01*
X0223494Y0277983D01*
X0223897Y0278956D01*
X0224035Y0280000D01*
X0223897Y0281044D01*
X0223494Y0282017D01*
X0222853Y0282853D01*
X0222017Y0283494D01*
X0221044Y0283897D01*
X0220000Y0284034D01*
D02*
G37*
G36*
X0200000D02*
X0198956Y0283897D01*
X0197983Y0283494D01*
X0197147Y0282853D01*
X0196506Y0282017D01*
X0196103Y0281044D01*
X0195966Y0280000D01*
X0196103Y0278956D01*
X0196506Y0277983D01*
X0197147Y0277147D01*
X0197983Y0276506D01*
X0198956Y0276103D01*
X0200000Y0275965D01*
X0201044Y0276103D01*
X0202017Y0276506D01*
X0202853Y0277147D01*
X0203494Y0277983D01*
X0203897Y0278956D01*
X0204034Y0280000D01*
X0203897Y0281044D01*
X0203494Y0282017D01*
X0202853Y0282853D01*
X0202017Y0283494D01*
X0201044Y0283897D01*
X0200000Y0284034D01*
D02*
G37*
G36*
X0180000D02*
X0178956Y0283897D01*
X0177983Y0283494D01*
X0177147Y0282853D01*
X0176506Y0282017D01*
X0176103Y0281044D01*
X0175965Y0280000D01*
X0176103Y0278956D01*
X0176506Y0277983D01*
X0177147Y0277147D01*
X0177983Y0276506D01*
X0178956Y0276103D01*
X0180000Y0275965D01*
X0181044Y0276103D01*
X0182017Y0276506D01*
X0182853Y0277147D01*
X0183494Y0277983D01*
X0183897Y0278956D01*
X0184035Y0280000D01*
X0183897Y0281044D01*
X0183494Y0282017D01*
X0182853Y0282853D01*
X0182017Y0283494D01*
X0181044Y0283897D01*
X0180000Y0284034D01*
D02*
G37*
G36*
X0160000D02*
X0158956Y0283897D01*
X0157983Y0283494D01*
X0157147Y0282853D01*
X0156506Y0282017D01*
X0156103Y0281044D01*
X0155965Y0280000D01*
X0156103Y0278956D01*
X0156506Y0277983D01*
X0157147Y0277147D01*
X0157983Y0276506D01*
X0158956Y0276103D01*
X0160000Y0275965D01*
X0161044Y0276103D01*
X0162017Y0276506D01*
X0162853Y0277147D01*
X0163494Y0277983D01*
X0163897Y0278956D01*
X0164034Y0280000D01*
X0163897Y0281044D01*
X0163494Y0282017D01*
X0162853Y0282853D01*
X0162017Y0283494D01*
X0161044Y0283897D01*
X0160000Y0284034D01*
D02*
G37*
G36*
X0210000Y0264035D02*
X0208956Y0263897D01*
X0207983Y0263494D01*
X0207147Y0262853D01*
X0206506Y0262017D01*
X0206103Y0261044D01*
X0205965Y0260000D01*
X0206103Y0258956D01*
X0206506Y0257983D01*
X0207147Y0257147D01*
X0207983Y0256506D01*
X0208956Y0256103D01*
X0210000Y0255965D01*
X0211044Y0256103D01*
X0212017Y0256506D01*
X0212853Y0257147D01*
X0213494Y0257983D01*
X0213897Y0258956D01*
X0214035Y0260000D01*
X0213897Y0261044D01*
X0213494Y0262017D01*
X0212853Y0262853D01*
X0212017Y0263494D01*
X0211044Y0263897D01*
X0210000Y0264035D01*
D02*
G37*
G36*
X0190000D02*
X0188956Y0263897D01*
X0187983Y0263494D01*
X0187147Y0262853D01*
X0186506Y0262017D01*
X0186103Y0261044D01*
X0185966Y0260000D01*
X0186103Y0258956D01*
X0186506Y0257983D01*
X0187147Y0257147D01*
X0187983Y0256506D01*
X0188956Y0256103D01*
X0190000Y0255965D01*
X0191044Y0256103D01*
X0192017Y0256506D01*
X0192853Y0257147D01*
X0193494Y0257983D01*
X0193897Y0258956D01*
X0194035Y0260000D01*
X0193897Y0261044D01*
X0193494Y0262017D01*
X0192853Y0262853D01*
X0192017Y0263494D01*
X0191044Y0263897D01*
X0190000Y0264035D01*
D02*
G37*
G36*
X0170000D02*
X0168956Y0263897D01*
X0167983Y0263494D01*
X0167147Y0262853D01*
X0166506Y0262017D01*
X0166103Y0261044D01*
X0165965Y0260000D01*
X0166103Y0258956D01*
X0166506Y0257983D01*
X0167147Y0257147D01*
X0167983Y0256506D01*
X0168956Y0256103D01*
X0170000Y0255965D01*
X0171044Y0256103D01*
X0172017Y0256506D01*
X0172853Y0257147D01*
X0173494Y0257983D01*
X0173897Y0258956D01*
X0174035Y0260000D01*
X0173897Y0261044D01*
X0173494Y0262017D01*
X0172853Y0262853D01*
X0172017Y0263494D01*
X0171044Y0263897D01*
X0170000Y0264035D01*
D02*
G37*
G36*
X0150000D02*
X0148956Y0263897D01*
X0147983Y0263494D01*
X0147147Y0262853D01*
X0146506Y0262017D01*
X0146103Y0261044D01*
X0145966Y0260000D01*
X0146103Y0258956D01*
X0146506Y0257983D01*
X0147147Y0257147D01*
X0147983Y0256506D01*
X0148956Y0256103D01*
X0150000Y0255965D01*
X0151044Y0256103D01*
X0152017Y0256506D01*
X0152853Y0257147D01*
X0153494Y0257983D01*
X0153897Y0258956D01*
X0154034Y0260000D01*
X0153897Y0261044D01*
X0153494Y0262017D01*
X0152853Y0262853D01*
X0152017Y0263494D01*
X0151044Y0263897D01*
X0150000Y0264035D01*
D02*
G37*
G36*
X0219000Y0224035D02*
X0217956Y0223897D01*
X0216983Y0223494D01*
X0216147Y0222853D01*
X0215506Y0222017D01*
X0215103Y0221044D01*
X0214966Y0220000D01*
X0215103Y0218956D01*
X0215506Y0217983D01*
X0216147Y0217147D01*
X0216983Y0216506D01*
X0217956Y0216103D01*
X0219000Y0215966D01*
X0220044Y0216103D01*
X0221017Y0216506D01*
X0221853Y0217147D01*
X0222494Y0217983D01*
X0222897Y0218956D01*
X0223035Y0220000D01*
X0222897Y0221044D01*
X0222494Y0222017D01*
X0221853Y0222853D01*
X0221017Y0223494D01*
X0220044Y0223897D01*
X0219000Y0224035D01*
D02*
G37*
G36*
X0210000D02*
X0208956Y0223897D01*
X0207983Y0223494D01*
X0207147Y0222853D01*
X0206506Y0222017D01*
X0206103Y0221044D01*
X0205965Y0220000D01*
X0206103Y0218956D01*
X0206506Y0217983D01*
X0207147Y0217147D01*
X0207983Y0216506D01*
X0208956Y0216103D01*
X0210000Y0215966D01*
X0211044Y0216103D01*
X0212017Y0216506D01*
X0212853Y0217147D01*
X0213494Y0217983D01*
X0213897Y0218956D01*
X0214035Y0220000D01*
X0213897Y0221044D01*
X0213494Y0222017D01*
X0212853Y0222853D01*
X0212017Y0223494D01*
X0211044Y0223897D01*
X0210000Y0224035D01*
D02*
G37*
G36*
X0201000D02*
X0199956Y0223897D01*
X0198983Y0223494D01*
X0198147Y0222853D01*
X0197506Y0222017D01*
X0197103Y0221044D01*
X0196966Y0220000D01*
X0197103Y0218956D01*
X0197506Y0217983D01*
X0198147Y0217147D01*
X0198983Y0216506D01*
X0199956Y0216103D01*
X0201000Y0215966D01*
X0202044Y0216103D01*
X0203017Y0216506D01*
X0203853Y0217147D01*
X0204494Y0217983D01*
X0204897Y0218956D01*
X0205034Y0220000D01*
X0204897Y0221044D01*
X0204494Y0222017D01*
X0203853Y0222853D01*
X0203017Y0223494D01*
X0202044Y0223897D01*
X0201000Y0224035D01*
D02*
G37*
G36*
X0180000D02*
X0178956Y0223897D01*
X0177983Y0223494D01*
X0177147Y0222853D01*
X0176506Y0222017D01*
X0176103Y0221044D01*
X0175965Y0220000D01*
X0176103Y0218956D01*
X0176506Y0217983D01*
X0177147Y0217147D01*
X0177983Y0216506D01*
X0178956Y0216103D01*
X0180000Y0215966D01*
X0181044Y0216103D01*
X0182017Y0216506D01*
X0182853Y0217147D01*
X0183494Y0217983D01*
X0183897Y0218956D01*
X0184035Y0220000D01*
X0183897Y0221044D01*
X0183494Y0222017D01*
X0182853Y0222853D01*
X0182017Y0223494D01*
X0181044Y0223897D01*
X0180000Y0224035D01*
D02*
G37*
G36*
X0170000D02*
X0168956Y0223897D01*
X0167983Y0223494D01*
X0167147Y0222853D01*
X0166506Y0222017D01*
X0166103Y0221044D01*
X0165965Y0220000D01*
X0166103Y0218956D01*
X0166506Y0217983D01*
X0167147Y0217147D01*
X0167983Y0216506D01*
X0168956Y0216103D01*
X0170000Y0215966D01*
X0171044Y0216103D01*
X0172017Y0216506D01*
X0172853Y0217147D01*
X0173494Y0217983D01*
X0173897Y0218956D01*
X0174035Y0220000D01*
X0173897Y0221044D01*
X0173494Y0222017D01*
X0172853Y0222853D01*
X0172017Y0223494D01*
X0171044Y0223897D01*
X0170000Y0224035D01*
D02*
G37*
G36*
X0160000D02*
X0158956Y0223897D01*
X0157983Y0223494D01*
X0157147Y0222853D01*
X0156506Y0222017D01*
X0156103Y0221044D01*
X0155965Y0220000D01*
X0156103Y0218956D01*
X0156506Y0217983D01*
X0157147Y0217147D01*
X0157983Y0216506D01*
X0158956Y0216103D01*
X0160000Y0215966D01*
X0161044Y0216103D01*
X0162017Y0216506D01*
X0162853Y0217147D01*
X0163494Y0217983D01*
X0163897Y0218956D01*
X0164034Y0220000D01*
X0163897Y0221044D01*
X0163494Y0222017D01*
X0162853Y0222853D01*
X0162017Y0223494D01*
X0161044Y0223897D01*
X0160000Y0224035D01*
D02*
G37*
G36*
X0130000D02*
X0128956Y0223897D01*
X0127983Y0223494D01*
X0127147Y0222853D01*
X0126506Y0222017D01*
X0126103Y0221044D01*
X0125965Y0220000D01*
X0126103Y0218956D01*
X0126506Y0217983D01*
X0127147Y0217147D01*
X0127983Y0216506D01*
X0128956Y0216103D01*
X0130000Y0215966D01*
X0131044Y0216103D01*
X0132017Y0216506D01*
X0132853Y0217147D01*
X0133494Y0217983D01*
X0133897Y0218956D01*
X0134035Y0220000D01*
X0133897Y0221044D01*
X0133494Y0222017D01*
X0132853Y0222853D01*
X0132017Y0223494D01*
X0131044Y0223897D01*
X0130000Y0224035D01*
D02*
G37*
G36*
X0120500D02*
X0119456Y0223897D01*
X0118483Y0223494D01*
X0117647Y0222853D01*
X0117006Y0222017D01*
X0116603Y0221044D01*
X0116465Y0220000D01*
X0116603Y0218956D01*
X0117006Y0217983D01*
X0117647Y0217147D01*
X0118483Y0216506D01*
X0119456Y0216103D01*
X0120500Y0215966D01*
X0121544Y0216103D01*
X0122517Y0216506D01*
X0123353Y0217147D01*
X0123994Y0217983D01*
X0124397Y0218956D01*
X0124534Y0220000D01*
X0124397Y0221044D01*
X0123994Y0222017D01*
X0123353Y0222853D01*
X0122517Y0223494D01*
X0121544Y0223897D01*
X0120500Y0224035D01*
D02*
G37*
G36*
X0099500D02*
X0098456Y0223897D01*
X0097483Y0223494D01*
X0096647Y0222853D01*
X0096006Y0222017D01*
X0095603Y0221044D01*
X0095465Y0220000D01*
X0095603Y0218956D01*
X0096006Y0217983D01*
X0096647Y0217147D01*
X0097483Y0216506D01*
X0098456Y0216103D01*
X0099500Y0215966D01*
X0100544Y0216103D01*
X0101517Y0216506D01*
X0102353Y0217147D01*
X0102994Y0217983D01*
X0103397Y0218956D01*
X0103534Y0220000D01*
X0103397Y0221044D01*
X0102994Y0222017D01*
X0102353Y0222853D01*
X0101517Y0223494D01*
X0100544Y0223897D01*
X0099500Y0224035D01*
D02*
G37*
G36*
X0090000D02*
X0088956Y0223897D01*
X0087983Y0223494D01*
X0087147Y0222853D01*
X0086506Y0222017D01*
X0086103Y0221044D01*
X0085966Y0220000D01*
X0086103Y0218956D01*
X0086506Y0217983D01*
X0087147Y0217147D01*
X0087983Y0216506D01*
X0088956Y0216103D01*
X0090000Y0215966D01*
X0091044Y0216103D01*
X0092017Y0216506D01*
X0092853Y0217147D01*
X0093494Y0217983D01*
X0093897Y0218956D01*
X0094034Y0220000D01*
X0093897Y0221044D01*
X0093494Y0222017D01*
X0092853Y0222853D01*
X0092017Y0223494D01*
X0091044Y0223897D01*
X0090000Y0224035D01*
D02*
G37*
G36*
X0080500D02*
X0079456Y0223897D01*
X0078483Y0223494D01*
X0077647Y0222853D01*
X0077006Y0222017D01*
X0076603Y0221044D01*
X0076465Y0220000D01*
X0076603Y0218956D01*
X0077006Y0217983D01*
X0077647Y0217147D01*
X0078483Y0216506D01*
X0079456Y0216103D01*
X0080500Y0215966D01*
X0081544Y0216103D01*
X0082517Y0216506D01*
X0083353Y0217147D01*
X0083994Y0217983D01*
X0084397Y0218956D01*
X0084535Y0220000D01*
X0084397Y0221044D01*
X0083994Y0222017D01*
X0083353Y0222853D01*
X0082517Y0223494D01*
X0081544Y0223897D01*
X0080500Y0224035D01*
D02*
G37*
G36*
X0175000Y0217035D02*
X0173956Y0216897D01*
X0172983Y0216494D01*
X0172147Y0215853D01*
X0171506Y0215017D01*
X0171103Y0214044D01*
X0170966Y0213000D01*
X0171103Y0211956D01*
X0171506Y0210983D01*
X0172147Y0210147D01*
X0172983Y0209506D01*
X0173956Y0209103D01*
X0175000Y0208965D01*
X0176044Y0209103D01*
X0177017Y0209506D01*
X0177853Y0210147D01*
X0178494Y0210983D01*
X0178897Y0211956D01*
X0179034Y0213000D01*
X0178897Y0214044D01*
X0178494Y0215017D01*
X0177853Y0215853D01*
X0177017Y0216494D01*
X0176044Y0216897D01*
X0175000Y0217035D01*
D02*
G37*
G36*
X0137500Y0216534D02*
X0136456Y0216397D01*
X0135483Y0215994D01*
X0134647Y0215353D01*
X0134006Y0214517D01*
X0133603Y0213544D01*
X0133466Y0212500D01*
X0133603Y0211456D01*
X0134006Y0210483D01*
X0134647Y0209647D01*
X0135483Y0209006D01*
X0136456Y0208603D01*
X0137500Y0208466D01*
X0138544Y0208603D01*
X0139517Y0209006D01*
X0140353Y0209647D01*
X0140994Y0210483D01*
X0141397Y0211456D01*
X0141534Y0212500D01*
X0141397Y0213544D01*
X0140994Y0214517D01*
X0140353Y0215353D01*
X0139517Y0215994D01*
X0138544Y0216397D01*
X0137500Y0216534D01*
D02*
G37*
G36*
X0104500D02*
X0103456Y0216397D01*
X0102483Y0215994D01*
X0101647Y0215353D01*
X0101006Y0214517D01*
X0100603Y0213544D01*
X0100466Y0212500D01*
X0100603Y0211456D01*
X0101006Y0210483D01*
X0101647Y0209647D01*
X0102483Y0209006D01*
X0103456Y0208603D01*
X0104500Y0208466D01*
X0105544Y0208603D01*
X0106517Y0209006D01*
X0107353Y0209647D01*
X0107994Y0210483D01*
X0108397Y0211456D01*
X0108535Y0212500D01*
X0108397Y0213544D01*
X0107994Y0214517D01*
X0107353Y0215353D01*
X0106517Y0215994D01*
X0105544Y0216397D01*
X0104500Y0216534D01*
D02*
G37*
G36*
X0095000D02*
X0093956Y0216397D01*
X0092983Y0215994D01*
X0092147Y0215353D01*
X0091506Y0214517D01*
X0091103Y0213544D01*
X0090965Y0212500D01*
X0091103Y0211456D01*
X0091506Y0210483D01*
X0092147Y0209647D01*
X0092983Y0209006D01*
X0093956Y0208603D01*
X0095000Y0208466D01*
X0096044Y0208603D01*
X0097017Y0209006D01*
X0097853Y0209647D01*
X0098494Y0210483D01*
X0098897Y0211456D01*
X0099035Y0212500D01*
X0098897Y0213544D01*
X0098494Y0214517D01*
X0097853Y0215353D01*
X0097017Y0215994D01*
X0096044Y0216397D01*
X0095000Y0216534D01*
D02*
G37*
G36*
X0210000Y0214534D02*
X0208956Y0214397D01*
X0207983Y0213994D01*
X0207147Y0213353D01*
X0206506Y0212517D01*
X0206103Y0211544D01*
X0205965Y0210500D01*
X0206103Y0209456D01*
X0206506Y0208483D01*
X0207147Y0207647D01*
X0207983Y0207006D01*
X0208956Y0206603D01*
X0210000Y0206466D01*
X0211044Y0206603D01*
X0212017Y0207006D01*
X0212853Y0207647D01*
X0213494Y0208483D01*
X0213897Y0209456D01*
X0214035Y0210500D01*
X0213897Y0211544D01*
X0213494Y0212517D01*
X0212853Y0213353D01*
X0212017Y0213994D01*
X0211044Y0214397D01*
X0210000Y0214534D01*
D02*
G37*
G36*
X0237000Y0202328D02*
X0236139Y0202215D01*
X0235336Y0201883D01*
X0234762Y0201442D01*
X0234752Y0201436D01*
X0234733Y0201420D01*
X0234646Y0201354D01*
X0234627Y0201328D01*
X0234620Y0201322D01*
X0234508Y0201240D01*
X0234388Y0201168D01*
X0234260Y0201104D01*
X0234123Y0201049D01*
X0233975Y0201003D01*
X0233814Y0200966D01*
X0233641Y0200939D01*
X0233603Y0200935D01*
X0053600D01*
X0052898Y0200796D01*
X0052302Y0200398D01*
X0025710Y0173806D01*
X0025313Y0173211D01*
X0025173Y0172508D01*
Y0168142D01*
X0025167Y0168084D01*
X0025137Y0167932D01*
X0025099Y0167800D01*
X0025053Y0167686D01*
X0025001Y0167588D01*
X0024942Y0167503D01*
X0024875Y0167426D01*
X0024798Y0167356D01*
X0024672Y0167265D01*
X0024645Y0167236D01*
X0024146Y0166854D01*
X0023617Y0166164D01*
X0023285Y0165361D01*
X0023171Y0164500D01*
X0023206Y0164236D01*
X0022733Y0164002D01*
X0007328Y0179407D01*
X0007305Y0179433D01*
X0007262Y0179489D01*
X0007238Y0179525D01*
X0007072Y0180358D01*
X0006586Y0181086D01*
X0005858Y0181572D01*
X0005000Y0181743D01*
X0004142Y0181572D01*
X0003414Y0181086D01*
X0002928Y0180358D01*
X0002757Y0179500D01*
X0002928Y0178642D01*
X0003414Y0177914D01*
X0004142Y0177428D01*
X0004744Y0177308D01*
X0004853Y0177115D01*
X0004590Y0176562D01*
X0004142Y0176472D01*
X0003414Y0175986D01*
X0002928Y0175258D01*
X0002757Y0174400D01*
X0002928Y0173542D01*
X0003414Y0172814D01*
X0004142Y0172328D01*
X0004975Y0172162D01*
X0004995Y0172148D01*
X0005129Y0172036D01*
X0032283Y0144883D01*
X0032795Y0144540D01*
X0033400Y0144420D01*
X0123479D01*
X0123726Y0143920D01*
X0123227Y0143269D01*
X0122773Y0142175D01*
X0122619Y0141000D01*
X0122773Y0139825D01*
X0123227Y0138731D01*
X0123948Y0137791D01*
X0124888Y0137069D01*
X0125983Y0136616D01*
X0127157Y0136461D01*
X0128332Y0136616D01*
X0129427Y0137069D01*
X0130367Y0137791D01*
X0131088Y0138731D01*
X0131542Y0139825D01*
X0131696Y0141000D01*
X0131542Y0142175D01*
X0131088Y0143269D01*
X0130589Y0143920D01*
X0130836Y0144420D01*
X0143164D01*
X0143411Y0143920D01*
X0142912Y0143269D01*
X0142458Y0142175D01*
X0142304Y0141000D01*
X0142458Y0139825D01*
X0142912Y0138731D01*
X0143633Y0137791D01*
X0144573Y0137069D01*
X0145668Y0136616D01*
X0146843Y0136461D01*
X0148017Y0136616D01*
X0149112Y0137069D01*
X0150052Y0137791D01*
X0150773Y0138731D01*
X0151227Y0139825D01*
X0151381Y0141000D01*
X0151227Y0142175D01*
X0150773Y0143269D01*
X0150274Y0143920D01*
X0150521Y0144420D01*
X0162845D01*
X0218149Y0089116D01*
X0218205Y0089044D01*
X0218291Y0088912D01*
X0218370Y0088767D01*
X0218441Y0088608D01*
X0218505Y0088434D01*
X0218561Y0088245D01*
X0218608Y0088039D01*
X0218645Y0087818D01*
X0218674Y0087560D01*
X0218697Y0087488D01*
X0218760Y0087014D01*
X0219092Y0086211D01*
X0219621Y0085521D01*
X0220311Y0084992D01*
X0221113Y0084660D01*
X0221975Y0084547D01*
X0222836Y0084660D01*
X0223639Y0084992D01*
X0224329Y0085521D01*
X0224857Y0086211D01*
X0225190Y0087014D01*
X0225304Y0087875D01*
X0225190Y0088736D01*
X0224857Y0089539D01*
X0224329Y0090229D01*
X0223639Y0090758D01*
X0222836Y0091090D01*
X0221975Y0091203D01*
X0221696Y0091167D01*
X0221641Y0091173D01*
X0221405Y0091156D01*
X0221212Y0091155D01*
X0221035Y0091168D01*
X0220872Y0091194D01*
X0220724Y0091232D01*
X0220587Y0091281D01*
X0220460Y0091342D01*
X0220340Y0091414D01*
X0220264Y0091471D01*
X0164618Y0147117D01*
X0164105Y0147460D01*
X0163500Y0147580D01*
X0034055D01*
X0033296Y0148339D01*
X0033615Y0148727D01*
X0033895Y0148540D01*
X0034500Y0148420D01*
X0167845D01*
X0230382Y0085883D01*
X0230895Y0085540D01*
X0231500Y0085420D01*
X0274556D01*
X0274639Y0085410D01*
X0274801Y0085380D01*
X0274971Y0085336D01*
X0275148Y0085277D01*
X0275333Y0085204D01*
X0275516Y0085119D01*
X0275939Y0084885D01*
X0276158Y0084743D01*
X0276187Y0084732D01*
X0276336Y0084617D01*
X0277138Y0084285D01*
X0278000Y0084171D01*
X0278861Y0084285D01*
X0279664Y0084617D01*
X0280354Y0085146D01*
X0280883Y0085836D01*
X0281215Y0086638D01*
X0281329Y0087500D01*
X0281215Y0088362D01*
X0280883Y0089164D01*
X0280354Y0089854D01*
X0279664Y0090383D01*
X0278861Y0090715D01*
X0278000Y0090829D01*
X0277138Y0090715D01*
X0276336Y0090383D01*
X0275646Y0089854D01*
X0275266Y0089357D01*
X0275233Y0089326D01*
X0275140Y0089193D01*
X0275117Y0089164D01*
X0275115Y0089158D01*
X0275105Y0089144D01*
X0274993Y0089009D01*
X0274881Y0088898D01*
X0274770Y0088806D01*
X0274658Y0088732D01*
X0274543Y0088673D01*
X0274425Y0088627D01*
X0274299Y0088594D01*
X0274205Y0088580D01*
X0232155D01*
X0169617Y0151118D01*
X0169105Y0151460D01*
X0168500Y0151580D01*
X0035155D01*
X0026002Y0160733D01*
X0026236Y0161206D01*
X0026500Y0161171D01*
X0027362Y0161285D01*
X0028164Y0161618D01*
X0028854Y0162146D01*
X0029383Y0162836D01*
X0029715Y0163638D01*
X0029829Y0164500D01*
X0029715Y0165361D01*
X0029383Y0166164D01*
X0029277Y0166302D01*
X0029269Y0166323D01*
X0029176Y0166473D01*
X0029105Y0166607D01*
X0029041Y0166747D01*
X0028986Y0166897D01*
X0028938Y0167055D01*
X0028898Y0167222D01*
X0028868Y0167389D01*
X0028843Y0167643D01*
Y0171748D01*
X0054360Y0197265D01*
X0223513D01*
X0223734Y0196816D01*
X0223618Y0196664D01*
X0223285Y0195861D01*
X0223171Y0195000D01*
X0223285Y0194139D01*
X0223618Y0193336D01*
X0224098Y0192709D01*
X0224111Y0192657D01*
X0224127Y0192566D01*
X0224155Y0192149D01*
Y0163702D01*
X0224129Y0163448D01*
X0224111Y0163342D01*
X0224098Y0163291D01*
X0223618Y0162664D01*
X0223285Y0161862D01*
X0223171Y0161000D01*
X0223285Y0160138D01*
X0223618Y0159336D01*
X0224146Y0158646D01*
X0224836Y0158117D01*
X0225639Y0157785D01*
X0226500Y0157671D01*
X0227361Y0157785D01*
X0228164Y0158117D01*
X0228854Y0158646D01*
X0229382Y0159336D01*
X0229715Y0160138D01*
X0229829Y0161000D01*
X0229715Y0161862D01*
X0229382Y0162664D01*
X0228902Y0163291D01*
X0228889Y0163342D01*
X0228873Y0163434D01*
X0228845Y0163851D01*
Y0192298D01*
X0228871Y0192552D01*
X0228889Y0192657D01*
X0228902Y0192709D01*
X0229382Y0193336D01*
X0229715Y0194139D01*
X0229829Y0195000D01*
X0229715Y0195861D01*
X0229382Y0196664D01*
X0229266Y0196816D01*
X0229487Y0197265D01*
X0233498D01*
X0233546Y0197260D01*
X0233712Y0197231D01*
X0233863Y0197193D01*
X0234001Y0197146D01*
X0234126Y0197090D01*
X0234241Y0197026D01*
X0234348Y0196953D01*
X0234447Y0196869D01*
X0234567Y0196749D01*
X0234569Y0196747D01*
X0234646Y0196646D01*
X0235336Y0196117D01*
X0236139Y0195785D01*
X0237000Y0195671D01*
X0237861Y0195785D01*
X0238664Y0196117D01*
X0239354Y0196646D01*
X0239882Y0197336D01*
X0240215Y0198138D01*
X0240329Y0199000D01*
X0240215Y0199862D01*
X0239882Y0200664D01*
X0239354Y0201354D01*
X0238664Y0201883D01*
X0237861Y0202215D01*
X0237000Y0202328D01*
D02*
G37*
G36*
X0066500Y0195039D02*
X0065720Y0194884D01*
X0065058Y0194442D01*
X0064616Y0193780D01*
X0064461Y0193000D01*
X0064616Y0192220D01*
X0065058Y0191558D01*
X0065720Y0191116D01*
X0066244Y0191012D01*
X0066323Y0190942D01*
X0073075Y0184189D01*
X0072978Y0183699D01*
X0072483Y0183494D01*
X0071944Y0183080D01*
X0071223Y0183031D01*
X0070986Y0183029D01*
X0070970Y0183026D01*
X0064217D01*
X0058636Y0188607D01*
X0058627Y0188621D01*
X0058446Y0188805D01*
X0058162Y0189113D01*
X0057986Y0189329D01*
X0057897Y0190008D01*
X0057494Y0190981D01*
X0056853Y0191816D01*
X0056017Y0192458D01*
X0055044Y0192861D01*
X0054000Y0192998D01*
X0052956Y0192861D01*
X0051983Y0192458D01*
X0051147Y0191816D01*
X0050506Y0190981D01*
X0050103Y0190008D01*
X0049966Y0188964D01*
X0050103Y0187919D01*
X0050506Y0186946D01*
X0051147Y0186111D01*
X0051983Y0185470D01*
X0052956Y0185066D01*
X0053629Y0184978D01*
X0054174Y0184503D01*
X0054342Y0184337D01*
X0054356Y0184328D01*
X0060824Y0177860D01*
X0061451Y0177380D01*
X0062181Y0177077D01*
X0062964Y0176974D01*
X0070970D01*
X0070986Y0176971D01*
X0071244Y0176968D01*
X0071663Y0176951D01*
X0071939Y0176923D01*
X0072483Y0176506D01*
X0073456Y0176103D01*
X0074500Y0175965D01*
X0075544Y0176103D01*
X0076517Y0176506D01*
X0077353Y0177147D01*
X0077994Y0177983D01*
X0078397Y0178956D01*
X0078535Y0180000D01*
X0078397Y0181044D01*
X0077994Y0182017D01*
X0077685Y0182420D01*
X0077932Y0182920D01*
X0086265D01*
X0086720Y0182616D01*
X0087500Y0182461D01*
X0088280Y0182616D01*
X0088611Y0182837D01*
X0088990Y0182765D01*
X0089200Y0182270D01*
X0089006Y0182017D01*
X0088603Y0181044D01*
X0088465Y0180000D01*
X0088603Y0178956D01*
X0089006Y0177983D01*
X0089647Y0177147D01*
X0090483Y0176506D01*
X0091456Y0176103D01*
X0092500Y0175965D01*
X0093544Y0176103D01*
X0094517Y0176506D01*
X0095353Y0177147D01*
X0095994Y0177983D01*
X0096397Y0178956D01*
X0096535Y0180000D01*
X0096397Y0181044D01*
X0095994Y0182017D01*
X0095685Y0182420D01*
X0095932Y0182920D01*
X0106568D01*
X0106815Y0182420D01*
X0106506Y0182017D01*
X0106103Y0181044D01*
X0105965Y0180000D01*
X0106103Y0178956D01*
X0106506Y0177983D01*
X0107147Y0177147D01*
X0107983Y0176506D01*
X0108956Y0176103D01*
X0110000Y0175965D01*
X0111044Y0176103D01*
X0112017Y0176506D01*
X0112853Y0177147D01*
X0113494Y0177983D01*
X0113897Y0178956D01*
X0114034Y0180000D01*
X0113897Y0181044D01*
X0113494Y0182017D01*
X0113185Y0182420D01*
X0113432Y0182920D01*
X0128200D01*
X0128805Y0183040D01*
X0129317Y0183382D01*
X0133097Y0187162D01*
X0133633Y0187268D01*
X0134294Y0187710D01*
X0134736Y0188372D01*
X0134892Y0189152D01*
X0134736Y0189933D01*
X0134294Y0190594D01*
X0133633Y0191036D01*
X0132852Y0191192D01*
X0132072Y0191036D01*
X0131410Y0190594D01*
X0130968Y0189933D01*
X0130864Y0189409D01*
X0130794Y0189329D01*
X0127545Y0186080D01*
X0088735D01*
X0088280Y0186384D01*
X0087500Y0186539D01*
X0086720Y0186384D01*
X0086275Y0186087D01*
X0086169Y0186080D01*
X0075655D01*
X0068491Y0193244D01*
X0068384Y0193780D01*
X0067942Y0194442D01*
X0067280Y0194884D01*
X0066500Y0195039D01*
D02*
G37*
G36*
X0168462Y0191077D02*
X0167681Y0190922D01*
X0167020Y0190480D01*
X0166578Y0189819D01*
X0166423Y0189038D01*
X0166578Y0188258D01*
X0167020Y0187596D01*
X0167681Y0187154D01*
X0168205Y0187050D01*
X0168285Y0186980D01*
X0172382Y0182882D01*
X0172895Y0182540D01*
X0173500Y0182420D01*
X0186326D01*
X0186547Y0181971D01*
X0186506Y0181917D01*
X0186103Y0180944D01*
X0185966Y0179900D01*
X0186103Y0178856D01*
X0186506Y0177883D01*
X0187147Y0177047D01*
X0187983Y0176406D01*
X0188956Y0176003D01*
X0190000Y0175865D01*
X0190182Y0175890D01*
X0190536Y0175536D01*
X0190465Y0175000D01*
X0190603Y0173956D01*
X0191006Y0172983D01*
X0191647Y0172147D01*
X0192483Y0171506D01*
X0193456Y0171103D01*
X0194500Y0170966D01*
X0195544Y0171103D01*
X0196517Y0171506D01*
X0197056Y0171920D01*
X0197777Y0171969D01*
X0198014Y0171971D01*
X0198030Y0171974D01*
X0215470D01*
X0215486Y0171971D01*
X0215744Y0171968D01*
X0216163Y0171951D01*
X0216439Y0171923D01*
X0216983Y0171506D01*
X0217956Y0171103D01*
X0219000Y0170966D01*
X0220044Y0171103D01*
X0221017Y0171506D01*
X0221853Y0172147D01*
X0222494Y0172983D01*
X0222897Y0173956D01*
X0223035Y0175000D01*
X0222897Y0176044D01*
X0222494Y0177017D01*
X0221853Y0177853D01*
X0221017Y0178494D01*
X0220044Y0178897D01*
X0219000Y0179034D01*
X0217956Y0178897D01*
X0216983Y0178494D01*
X0216444Y0178080D01*
X0215723Y0178031D01*
X0215486Y0178029D01*
X0215470Y0178026D01*
X0198030D01*
X0198014Y0178029D01*
X0197756Y0178032D01*
X0197337Y0178049D01*
X0197061Y0178077D01*
X0196517Y0178494D01*
X0195544Y0178897D01*
X0194500Y0179034D01*
X0194317Y0179010D01*
X0193964Y0179364D01*
X0194035Y0179900D01*
X0193897Y0180944D01*
X0193494Y0181917D01*
X0193453Y0181971D01*
X0193674Y0182420D01*
X0201265D01*
X0201720Y0182116D01*
X0202500Y0181961D01*
X0203280Y0182116D01*
X0203942Y0182558D01*
X0204384Y0183220D01*
X0204539Y0184000D01*
X0204384Y0184780D01*
X0203942Y0185442D01*
X0203280Y0185884D01*
X0202500Y0186039D01*
X0201720Y0185884D01*
X0201275Y0185587D01*
X0201169Y0185580D01*
X0174155D01*
X0170452Y0189283D01*
X0170346Y0189819D01*
X0169904Y0190480D01*
X0169242Y0190922D01*
X0168462Y0191077D01*
D02*
G37*
G36*
X0152500Y0184035D02*
X0151456Y0183897D01*
X0150483Y0183494D01*
X0149647Y0182853D01*
X0149006Y0182017D01*
X0148603Y0181044D01*
X0148466Y0180000D01*
X0148603Y0178956D01*
X0149006Y0177983D01*
X0149647Y0177147D01*
X0150483Y0176506D01*
X0151456Y0176103D01*
X0152500Y0175965D01*
X0153544Y0176103D01*
X0154517Y0176506D01*
X0155353Y0177147D01*
X0155994Y0177983D01*
X0156397Y0178956D01*
X0156535Y0180000D01*
X0156397Y0181044D01*
X0155994Y0182017D01*
X0155353Y0182853D01*
X0154517Y0183494D01*
X0153544Y0183897D01*
X0152500Y0184035D01*
D02*
G37*
G36*
X0160000Y0164034D02*
X0158956Y0163897D01*
X0157983Y0163494D01*
X0157147Y0162853D01*
X0156506Y0162017D01*
X0156103Y0161044D01*
X0155965Y0160000D01*
X0156103Y0158956D01*
X0156506Y0157983D01*
X0157147Y0157147D01*
X0157983Y0156506D01*
X0158956Y0156103D01*
X0160000Y0155965D01*
X0161044Y0156103D01*
X0162017Y0156506D01*
X0162853Y0157147D01*
X0163494Y0157983D01*
X0163897Y0158956D01*
X0164034Y0160000D01*
X0163897Y0161044D01*
X0163494Y0162017D01*
X0162853Y0162853D01*
X0162017Y0163494D01*
X0161044Y0163897D01*
X0160000Y0164034D01*
D02*
G37*
G36*
X0120000D02*
X0118956Y0163897D01*
X0117983Y0163494D01*
X0117147Y0162853D01*
X0116506Y0162017D01*
X0116103Y0161044D01*
X0115965Y0160000D01*
X0116103Y0158956D01*
X0116506Y0157983D01*
X0117147Y0157147D01*
X0117983Y0156506D01*
X0118956Y0156103D01*
X0120000Y0155965D01*
X0121044Y0156103D01*
X0122017Y0156506D01*
X0122853Y0157147D01*
X0123494Y0157983D01*
X0123897Y0158956D01*
X0124035Y0160000D01*
X0123897Y0161044D01*
X0123494Y0162017D01*
X0122853Y0162853D01*
X0122017Y0163494D01*
X0121044Y0163897D01*
X0120000Y0164034D01*
D02*
G37*
G36*
X0160000Y0124035D02*
X0158956Y0123897D01*
X0157983Y0123494D01*
X0157147Y0122853D01*
X0156506Y0122017D01*
X0156103Y0121044D01*
X0155965Y0120000D01*
X0156103Y0118956D01*
X0156506Y0117983D01*
X0157147Y0117147D01*
X0157983Y0116506D01*
X0158956Y0116103D01*
X0160000Y0115965D01*
X0161044Y0116103D01*
X0162017Y0116506D01*
X0162853Y0117147D01*
X0163494Y0117983D01*
X0163897Y0118956D01*
X0164034Y0120000D01*
X0163897Y0121044D01*
X0163494Y0122017D01*
X0162853Y0122853D01*
X0162017Y0123494D01*
X0161044Y0123897D01*
X0160000Y0124035D01*
D02*
G37*
G36*
X0120000D02*
X0118956Y0123897D01*
X0117983Y0123494D01*
X0117147Y0122853D01*
X0116506Y0122017D01*
X0116103Y0121044D01*
X0115965Y0120000D01*
X0116103Y0118956D01*
X0116506Y0117983D01*
X0117147Y0117147D01*
X0117983Y0116506D01*
X0118956Y0116103D01*
X0120000Y0115965D01*
X0121044Y0116103D01*
X0122017Y0116506D01*
X0122853Y0117147D01*
X0123494Y0117983D01*
X0123897Y0118956D01*
X0124035Y0120000D01*
X0123897Y0121044D01*
X0123494Y0122017D01*
X0122853Y0122853D01*
X0122017Y0123494D01*
X0121044Y0123897D01*
X0120000Y0124035D01*
D02*
G37*
G36*
X0170000Y0104034D02*
X0168956Y0103897D01*
X0167983Y0103494D01*
X0167147Y0102853D01*
X0166506Y0102017D01*
X0166103Y0101044D01*
X0165965Y0100000D01*
X0166103Y0098956D01*
X0166506Y0097983D01*
X0167147Y0097147D01*
X0167983Y0096506D01*
X0168956Y0096103D01*
X0170000Y0095965D01*
X0171044Y0096103D01*
X0172017Y0096506D01*
X0172853Y0097147D01*
X0173494Y0097983D01*
X0173897Y0098956D01*
X0174035Y0100000D01*
X0173897Y0101044D01*
X0173494Y0102017D01*
X0172853Y0102853D01*
X0172017Y0103494D01*
X0171044Y0103897D01*
X0170000Y0104034D01*
D02*
G37*
G36*
X0130000D02*
X0128956Y0103897D01*
X0127983Y0103494D01*
X0127147Y0102853D01*
X0126506Y0102017D01*
X0126103Y0101044D01*
X0125965Y0100000D01*
X0126103Y0098956D01*
X0126506Y0097983D01*
X0127147Y0097147D01*
X0127983Y0096506D01*
X0128956Y0096103D01*
X0130000Y0095965D01*
X0131044Y0096103D01*
X0132017Y0096506D01*
X0132853Y0097147D01*
X0133494Y0097983D01*
X0133897Y0098956D01*
X0134035Y0100000D01*
X0133897Y0101044D01*
X0133494Y0102017D01*
X0132853Y0102853D01*
X0132017Y0103494D01*
X0131044Y0103897D01*
X0130000Y0104034D01*
D02*
G37*
G36*
X0110000D02*
X0108956Y0103897D01*
X0107983Y0103494D01*
X0107147Y0102853D01*
X0106506Y0102017D01*
X0106103Y0101044D01*
X0105965Y0100000D01*
X0106103Y0098956D01*
X0106506Y0097983D01*
X0107147Y0097147D01*
X0107983Y0096506D01*
X0108956Y0096103D01*
X0110000Y0095965D01*
X0111044Y0096103D01*
X0112017Y0096506D01*
X0112853Y0097147D01*
X0113494Y0097983D01*
X0113897Y0098956D01*
X0114034Y0100000D01*
X0113897Y0101044D01*
X0113494Y0102017D01*
X0112853Y0102853D01*
X0112017Y0103494D01*
X0111044Y0103897D01*
X0110000Y0104034D01*
D02*
G37*
G36*
X0090000D02*
X0088956Y0103897D01*
X0087983Y0103494D01*
X0087147Y0102853D01*
X0086506Y0102017D01*
X0086103Y0101044D01*
X0085966Y0100000D01*
X0086103Y0098956D01*
X0086506Y0097983D01*
X0087147Y0097147D01*
X0087983Y0096506D01*
X0088956Y0096103D01*
X0090000Y0095965D01*
X0091044Y0096103D01*
X0092017Y0096506D01*
X0092853Y0097147D01*
X0093494Y0097983D01*
X0093897Y0098956D01*
X0094034Y0100000D01*
X0093897Y0101044D01*
X0093494Y0102017D01*
X0092853Y0102853D01*
X0092017Y0103494D01*
X0091044Y0103897D01*
X0090000Y0104034D01*
D02*
G37*
G36*
X0272000Y0121828D02*
X0271139Y0121715D01*
X0270336Y0121382D01*
X0269646Y0120854D01*
X0269117Y0120164D01*
X0268785Y0119361D01*
X0268671Y0118500D01*
X0268785Y0117639D01*
X0269117Y0116836D01*
X0269646Y0116146D01*
X0270336Y0115618D01*
X0271139Y0115285D01*
X0272000Y0115172D01*
X0272082Y0115182D01*
X0272627Y0115165D01*
X0272870Y0115140D01*
X0273095Y0115104D01*
X0273292Y0115059D01*
X0273459Y0115007D01*
X0273598Y0114951D01*
X0273709Y0114892D01*
X0273785Y0114840D01*
X0276563Y0112063D01*
X0276993Y0111775D01*
X0277500Y0111674D01*
X0294042D01*
X0308174Y0097542D01*
Y0085850D01*
X0308157Y0085760D01*
X0308120Y0085640D01*
X0308062Y0085501D01*
X0307980Y0085346D01*
X0307873Y0085176D01*
X0307746Y0085000D01*
X0307386Y0084579D01*
X0307221Y0084411D01*
X0307146Y0084354D01*
X0306617Y0083664D01*
X0306285Y0082862D01*
X0306171Y0082000D01*
X0306285Y0081138D01*
X0306617Y0080336D01*
X0307146Y0079646D01*
X0307836Y0079117D01*
X0308639Y0078785D01*
X0309500Y0078671D01*
X0310362Y0078785D01*
X0311164Y0079117D01*
X0311854Y0079646D01*
X0312383Y0080336D01*
X0312715Y0081138D01*
X0312828Y0082000D01*
X0312715Y0082862D01*
X0312383Y0083664D01*
X0311854Y0084354D01*
X0311788Y0084404D01*
X0311415Y0084801D01*
X0311260Y0084991D01*
X0311127Y0085176D01*
X0311020Y0085346D01*
X0310938Y0085501D01*
X0310880Y0085640D01*
X0310843Y0085760D01*
X0310825Y0085850D01*
Y0098091D01*
X0310725Y0098598D01*
X0310437Y0099028D01*
X0295528Y0113937D01*
X0295098Y0114225D01*
X0294591Y0114325D01*
X0278049D01*
X0275660Y0116715D01*
X0275608Y0116791D01*
X0275549Y0116902D01*
X0275493Y0117041D01*
X0275441Y0117208D01*
X0275396Y0117405D01*
X0275361Y0117619D01*
X0275319Y0118171D01*
X0275316Y0118407D01*
X0275328Y0118500D01*
X0275215Y0119361D01*
X0274883Y0120164D01*
X0274354Y0120854D01*
X0273664Y0121382D01*
X0272862Y0121715D01*
X0272000Y0121828D01*
D02*
G37*
G36*
X0180000Y0084035D02*
X0178956Y0083897D01*
X0177983Y0083494D01*
X0177147Y0082853D01*
X0176506Y0082017D01*
X0176103Y0081044D01*
X0175965Y0080000D01*
X0176103Y0078956D01*
X0176506Y0077983D01*
X0177147Y0077147D01*
X0177983Y0076506D01*
X0178956Y0076103D01*
X0180000Y0075965D01*
X0181044Y0076103D01*
X0182017Y0076506D01*
X0182853Y0077147D01*
X0183494Y0077983D01*
X0183897Y0078956D01*
X0184035Y0080000D01*
X0183897Y0081044D01*
X0183494Y0082017D01*
X0182853Y0082853D01*
X0182017Y0083494D01*
X0181044Y0083897D01*
X0180000Y0084035D01*
D02*
G37*
G36*
X0100000D02*
X0098956Y0083897D01*
X0097983Y0083494D01*
X0097147Y0082853D01*
X0096506Y0082017D01*
X0096103Y0081044D01*
X0095965Y0080000D01*
X0096103Y0078956D01*
X0096506Y0077983D01*
X0097147Y0077147D01*
X0097983Y0076506D01*
X0098956Y0076103D01*
X0100000Y0075965D01*
X0101044Y0076103D01*
X0102017Y0076506D01*
X0102853Y0077147D01*
X0103494Y0077983D01*
X0103897Y0078956D01*
X0104034Y0080000D01*
X0103897Y0081044D01*
X0103494Y0082017D01*
X0102853Y0082853D01*
X0102017Y0083494D01*
X0101044Y0083897D01*
X0100000Y0084035D01*
D02*
G37*
G36*
X0146843Y0088057D02*
X0145661Y0087940D01*
X0144525Y0087596D01*
X0143478Y0087036D01*
X0142560Y0086283D01*
X0141806Y0085365D01*
X0141247Y0084318D01*
X0140902Y0083182D01*
X0140786Y0082000D01*
X0140902Y0080818D01*
X0141247Y0079682D01*
X0141806Y0078635D01*
X0142560Y0077717D01*
X0143478Y0076964D01*
X0144525Y0076404D01*
X0145661Y0076060D01*
X0146843Y0075943D01*
X0148024Y0076060D01*
X0149160Y0076404D01*
X0150207Y0076964D01*
X0151125Y0077717D01*
X0151878Y0078635D01*
X0152438Y0079682D01*
X0152783Y0080818D01*
X0152899Y0082000D01*
X0152783Y0083182D01*
X0152438Y0084318D01*
X0151878Y0085365D01*
X0151125Y0086283D01*
X0150207Y0087036D01*
X0149160Y0087596D01*
X0148024Y0087940D01*
X0146843Y0088057D01*
D02*
G37*
G36*
X0127157D02*
X0125976Y0087940D01*
X0124840Y0087596D01*
X0123793Y0087036D01*
X0122875Y0086283D01*
X0122122Y0085365D01*
X0121562Y0084318D01*
X0121217Y0083182D01*
X0121101Y0082000D01*
X0121217Y0080818D01*
X0121562Y0079682D01*
X0122122Y0078635D01*
X0122875Y0077717D01*
X0123793Y0076964D01*
X0124840Y0076404D01*
X0125976Y0076060D01*
X0127157Y0075943D01*
X0128339Y0076060D01*
X0129475Y0076404D01*
X0130522Y0076964D01*
X0131440Y0077717D01*
X0132194Y0078635D01*
X0132753Y0079682D01*
X0133098Y0080818D01*
X0133214Y0082000D01*
X0133098Y0083182D01*
X0132753Y0084318D01*
X0132194Y0085365D01*
X0131440Y0086283D01*
X0130522Y0087036D01*
X0129475Y0087596D01*
X0128339Y0087940D01*
X0127157Y0088057D01*
D02*
G37*
G36*
X0190000Y0064034D02*
X0188956Y0063897D01*
X0187983Y0063494D01*
X0187147Y0062853D01*
X0186506Y0062017D01*
X0186103Y0061044D01*
X0185966Y0060000D01*
X0186103Y0058956D01*
X0186506Y0057983D01*
X0187147Y0057147D01*
X0187983Y0056506D01*
X0188956Y0056103D01*
X0190000Y0055966D01*
X0191044Y0056103D01*
X0192017Y0056506D01*
X0192853Y0057147D01*
X0193494Y0057983D01*
X0193897Y0058956D01*
X0194035Y0060000D01*
X0193897Y0061044D01*
X0193494Y0062017D01*
X0192853Y0062853D01*
X0192017Y0063494D01*
X0191044Y0063897D01*
X0190000Y0064034D01*
D02*
G37*
G36*
X0170000D02*
X0168956Y0063897D01*
X0167983Y0063494D01*
X0167147Y0062853D01*
X0166506Y0062017D01*
X0166103Y0061044D01*
X0165965Y0060000D01*
X0166103Y0058956D01*
X0166506Y0057983D01*
X0167147Y0057147D01*
X0167983Y0056506D01*
X0168956Y0056103D01*
X0170000Y0055966D01*
X0171044Y0056103D01*
X0172017Y0056506D01*
X0172853Y0057147D01*
X0173494Y0057983D01*
X0173897Y0058956D01*
X0174035Y0060000D01*
X0173897Y0061044D01*
X0173494Y0062017D01*
X0172853Y0062853D01*
X0172017Y0063494D01*
X0171044Y0063897D01*
X0170000Y0064034D01*
D02*
G37*
G36*
X0130000D02*
X0128956Y0063897D01*
X0127983Y0063494D01*
X0127147Y0062853D01*
X0126506Y0062017D01*
X0126103Y0061044D01*
X0125965Y0060000D01*
X0126103Y0058956D01*
X0126506Y0057983D01*
X0127147Y0057147D01*
X0127983Y0056506D01*
X0128956Y0056103D01*
X0130000Y0055966D01*
X0131044Y0056103D01*
X0132017Y0056506D01*
X0132853Y0057147D01*
X0133494Y0057983D01*
X0133897Y0058956D01*
X0134035Y0060000D01*
X0133897Y0061044D01*
X0133494Y0062017D01*
X0132853Y0062853D01*
X0132017Y0063494D01*
X0131044Y0063897D01*
X0130000Y0064034D01*
D02*
G37*
G36*
X0110000D02*
X0108956Y0063897D01*
X0107983Y0063494D01*
X0107147Y0062853D01*
X0106506Y0062017D01*
X0106103Y0061044D01*
X0105965Y0060000D01*
X0106103Y0058956D01*
X0106506Y0057983D01*
X0107147Y0057147D01*
X0107983Y0056506D01*
X0108956Y0056103D01*
X0110000Y0055966D01*
X0111044Y0056103D01*
X0112017Y0056506D01*
X0112853Y0057147D01*
X0113494Y0057983D01*
X0113897Y0058956D01*
X0114034Y0060000D01*
X0113897Y0061044D01*
X0113494Y0062017D01*
X0112853Y0062853D01*
X0112017Y0063494D01*
X0111044Y0063897D01*
X0110000Y0064034D01*
D02*
G37*
G36*
X0090000D02*
X0088956Y0063897D01*
X0087983Y0063494D01*
X0087147Y0062853D01*
X0086506Y0062017D01*
X0086103Y0061044D01*
X0085966Y0060000D01*
X0086103Y0058956D01*
X0086506Y0057983D01*
X0087147Y0057147D01*
X0087983Y0056506D01*
X0088956Y0056103D01*
X0090000Y0055966D01*
X0091044Y0056103D01*
X0092017Y0056506D01*
X0092853Y0057147D01*
X0093494Y0057983D01*
X0093897Y0058956D01*
X0094034Y0060000D01*
X0093897Y0061044D01*
X0093494Y0062017D01*
X0092853Y0062853D01*
X0092017Y0063494D01*
X0091044Y0063897D01*
X0090000Y0064034D01*
D02*
G37*
G36*
X0306685Y0046374D02*
X0305294Y0046190D01*
X0303998Y0045654D01*
X0302885Y0044800D01*
X0302031Y0043687D01*
X0301495Y0042391D01*
X0301311Y0041000D01*
X0301495Y0039609D01*
X0302031Y0038313D01*
X0302885Y0037200D01*
X0303998Y0036346D01*
X0305294Y0035810D01*
X0306685Y0035627D01*
X0308076Y0035810D01*
X0309372Y0036346D01*
X0310485Y0037200D01*
X0311339Y0038313D01*
X0311876Y0039609D01*
X0312059Y0041000D01*
X0311876Y0042391D01*
X0311339Y0043687D01*
X0310485Y0044800D01*
X0309372Y0045654D01*
X0308076Y0046190D01*
X0306685Y0046374D01*
D02*
G37*
G36*
X0287500Y0110079D02*
X0286638Y0109965D01*
X0285836Y0109633D01*
X0285146Y0109104D01*
X0284617Y0108414D01*
X0284285Y0107612D01*
X0284172Y0106750D01*
X0284285Y0105888D01*
X0284617Y0105086D01*
X0285146Y0104396D01*
X0285212Y0104346D01*
X0285585Y0103949D01*
X0285740Y0103759D01*
X0285873Y0103574D01*
X0285980Y0103404D01*
X0286062Y0103249D01*
X0286120Y0103110D01*
X0286157Y0102990D01*
X0286175Y0102900D01*
Y0100500D01*
X0286275Y0099993D01*
X0286563Y0099563D01*
X0291674Y0094451D01*
Y0069139D01*
X0286063Y0063527D01*
X0285775Y0063097D01*
X0285675Y0062590D01*
Y0048149D01*
X0285667Y0048071D01*
X0285616Y0047873D01*
X0285517Y0047623D01*
X0285363Y0047327D01*
X0285154Y0046991D01*
X0284898Y0046632D01*
X0283740Y0045300D01*
X0283382Y0044939D01*
X0283200Y0044800D01*
X0282346Y0043687D01*
X0281810Y0042391D01*
X0281627Y0041000D01*
X0281810Y0039609D01*
X0282346Y0038313D01*
X0283200Y0037200D01*
X0284313Y0036346D01*
X0285609Y0035810D01*
X0287000Y0035627D01*
X0288391Y0035810D01*
X0289687Y0036346D01*
X0290800Y0037200D01*
X0291654Y0038313D01*
X0292190Y0039609D01*
X0292373Y0041000D01*
X0292190Y0042391D01*
X0291654Y0043687D01*
X0290800Y0044800D01*
X0290618Y0044939D01*
X0290250Y0045310D01*
X0289820Y0045770D01*
X0289107Y0046626D01*
X0288846Y0046991D01*
X0288637Y0047327D01*
X0288483Y0047623D01*
X0288384Y0047873D01*
X0288333Y0048071D01*
X0288326Y0048149D01*
Y0062041D01*
X0293937Y0067653D01*
X0294225Y0068083D01*
X0294325Y0068590D01*
Y0095000D01*
X0294225Y0095507D01*
X0293937Y0095937D01*
X0288825Y0101049D01*
Y0102900D01*
X0288843Y0102990D01*
X0288880Y0103110D01*
X0288938Y0103249D01*
X0289020Y0103404D01*
X0289127Y0103574D01*
X0289254Y0103750D01*
X0289614Y0104171D01*
X0289779Y0104339D01*
X0289854Y0104396D01*
X0290383Y0105086D01*
X0290715Y0105888D01*
X0290828Y0106750D01*
X0290715Y0107612D01*
X0290383Y0108414D01*
X0289854Y0109104D01*
X0289164Y0109633D01*
X0288362Y0109965D01*
X0287500Y0110079D01*
D02*
G37*
G36*
X0334646Y0031596D02*
X0332782Y0031449D01*
X0330965Y0031013D01*
X0329238Y0030298D01*
X0327645Y0029321D01*
X0326223Y0028107D01*
X0325010Y0026686D01*
X0324033Y0025092D01*
X0323318Y0023366D01*
X0322882Y0021548D01*
X0322735Y0019685D01*
X0322882Y0017822D01*
X0323318Y0016004D01*
X0324033Y0014278D01*
X0325010Y0012684D01*
X0326223Y0011263D01*
X0327645Y0010049D01*
X0329238Y0009072D01*
X0330965Y0008357D01*
X0332782Y0007921D01*
X0334646Y0007774D01*
X0336509Y0007921D01*
X0338326Y0008357D01*
X0340053Y0009072D01*
X0341647Y0010049D01*
X0343068Y0011263D01*
X0344282Y0012684D01*
X0345258Y0014278D01*
X0345973Y0016004D01*
X0346410Y0017822D01*
X0346556Y0019685D01*
X0346410Y0021548D01*
X0345973Y0023366D01*
X0345258Y0025092D01*
X0344282Y0026686D01*
X0343068Y0028107D01*
X0341647Y0029321D01*
X0340053Y0030298D01*
X0338326Y0031013D01*
X0336509Y0031449D01*
X0334646Y0031596D01*
D02*
G37*
G36*
X0019685D02*
X0017822Y0031449D01*
X0016004Y0031013D01*
X0014278Y0030298D01*
X0012684Y0029321D01*
X0011263Y0028107D01*
X0010049Y0026686D01*
X0009072Y0025092D01*
X0008357Y0023366D01*
X0007921Y0021548D01*
X0007774Y0019685D01*
X0007921Y0017822D01*
X0008357Y0016004D01*
X0009072Y0014278D01*
X0010049Y0012684D01*
X0011263Y0011263D01*
X0012684Y0010049D01*
X0014278Y0009072D01*
X0016004Y0008357D01*
X0017822Y0007921D01*
X0019685Y0007774D01*
X0021548Y0007921D01*
X0023366Y0008357D01*
X0025092Y0009072D01*
X0026686Y0010049D01*
X0028107Y0011263D01*
X0029321Y0012684D01*
X0030298Y0014278D01*
X0031013Y0016004D01*
X0031449Y0017822D01*
X0031596Y0019685D01*
X0031449Y0021548D01*
X0031013Y0023366D01*
X0030298Y0025092D01*
X0029321Y0026686D01*
X0028107Y0028107D01*
X0026686Y0029321D01*
X0025092Y0030298D01*
X0023366Y0031013D01*
X0021548Y0031449D01*
X0019685Y0031596D01*
D02*
G37*
%LPD*%
G36*
X0301063Y0308078D02*
X0301052Y0308082D01*
X0301029Y0308086D01*
X0300993Y0308089D01*
X0300722Y0308097D01*
X0300384Y0308098D01*
Y0309598D01*
X0301063Y0309618D01*
Y0308078D01*
D02*
G37*
G36*
X0271667Y0288606D02*
X0271200Y0288120D01*
X0270132Y0289230D01*
X0270144Y0289234D01*
X0270164Y0289248D01*
X0270193Y0289271D01*
X0270330Y0289397D01*
X0270634Y0289695D01*
X0271667Y0288606D01*
D02*
G37*
G36*
X0293281Y0295799D02*
X0293225Y0295823D01*
X0293163Y0295833D01*
X0293095Y0295828D01*
X0293021Y0295809D01*
X0292941Y0295775D01*
X0292854Y0295726D01*
X0292761Y0295663D01*
X0292663Y0295585D01*
X0292558Y0295493D01*
X0292447Y0295386D01*
X0291521Y0296582D01*
X0292753Y0297637D01*
X0293281Y0295799D01*
D02*
G37*
G36*
X0276483Y0279423D02*
X0276373Y0279311D01*
X0275934Y0278806D01*
X0275898Y0278749D01*
X0275873Y0278701D01*
X0275858Y0278660D01*
X0274867Y0280351D01*
X0274936Y0280340D01*
X0275009Y0280341D01*
X0275087Y0280356D01*
X0275170Y0280383D01*
X0275257Y0280424D01*
X0275349Y0280478D01*
X0275446Y0280545D01*
X0275547Y0280625D01*
X0275653Y0280718D01*
X0275763Y0280824D01*
X0276483Y0279423D01*
D02*
G37*
G36*
X0235146Y0197323D02*
X0235000Y0197470D01*
X0234842Y0197603D01*
X0234673Y0197719D01*
X0234492Y0197820D01*
X0234300Y0197906D01*
X0234096Y0197976D01*
X0233881Y0198030D01*
X0233655Y0198069D01*
X0233417Y0198092D01*
X0233168Y0198100D01*
X0233255Y0200100D01*
X0233503Y0200107D01*
X0233741Y0200129D01*
X0233970Y0200165D01*
X0234188Y0200215D01*
X0234396Y0200280D01*
X0234594Y0200359D01*
X0234782Y0200453D01*
X0234960Y0200561D01*
X0235128Y0200683D01*
X0235286Y0200820D01*
X0235146Y0197323D01*
D02*
G37*
G36*
X0228203Y0193153D02*
X0228160Y0193068D01*
X0228122Y0192957D01*
X0228090Y0192823D01*
X0228063Y0192664D01*
X0228023Y0192272D01*
X0228003Y0191782D01*
X0228000Y0191500D01*
X0225000D01*
X0224997Y0191782D01*
X0224938Y0192664D01*
X0224910Y0192823D01*
X0224878Y0192957D01*
X0224840Y0193068D01*
X0224798Y0193153D01*
X0224750Y0193215D01*
X0228250D01*
X0228203Y0193153D01*
D02*
G37*
G36*
X0006405Y0179419D02*
X0006421Y0179348D01*
X0006449Y0179271D01*
X0006488Y0179190D01*
X0006538Y0179104D01*
X0006600Y0179013D01*
X0006673Y0178917D01*
X0006853Y0178711D01*
X0006960Y0178601D01*
X0005900Y0177540D01*
X0005789Y0177647D01*
X0005487Y0177900D01*
X0005396Y0177962D01*
X0005310Y0178012D01*
X0005229Y0178051D01*
X0005153Y0178079D01*
X0005081Y0178095D01*
X0005014Y0178100D01*
X0006400Y0179486D01*
X0006405Y0179419D01*
D02*
G37*
G36*
Y0174319D02*
X0006421Y0174248D01*
X0006449Y0174171D01*
X0006488Y0174090D01*
X0006538Y0174004D01*
X0006600Y0173913D01*
X0006673Y0173817D01*
X0006853Y0173611D01*
X0006960Y0173501D01*
X0005900Y0172440D01*
X0005789Y0172547D01*
X0005487Y0172800D01*
X0005396Y0172862D01*
X0005310Y0172912D01*
X0005229Y0172951D01*
X0005153Y0172979D01*
X0005081Y0172995D01*
X0005014Y0173000D01*
X0006400Y0174386D01*
X0006405Y0174319D01*
D02*
G37*
G36*
X0028008Y0167994D02*
X0028014Y0167747D01*
X0028059Y0167278D01*
X0028099Y0167056D01*
X0028150Y0166841D01*
X0028213Y0166635D01*
X0028287Y0166437D01*
X0028372Y0166248D01*
X0028468Y0166066D01*
X0028576Y0165892D01*
X0025149Y0166604D01*
X0025313Y0166721D01*
X0025459Y0166854D01*
X0025587Y0167002D01*
X0025699Y0167164D01*
X0025793Y0167341D01*
X0025871Y0167533D01*
X0025931Y0167740D01*
X0025974Y0167963D01*
X0026000Y0168199D01*
X0026008Y0168451D01*
X0028008Y0167994D01*
D02*
G37*
G36*
X0228003Y0164218D02*
X0228063Y0163337D01*
X0228090Y0163177D01*
X0228122Y0163043D01*
X0228160Y0162932D01*
X0228203Y0162847D01*
X0228250Y0162785D01*
X0224750D01*
X0224798Y0162847D01*
X0224840Y0162932D01*
X0224878Y0163043D01*
X0224910Y0163177D01*
X0224938Y0163337D01*
X0224977Y0163728D01*
X0224997Y0164218D01*
X0225000Y0164500D01*
X0228000D01*
X0228003Y0164218D01*
D02*
G37*
G36*
X0219706Y0090870D02*
X0219884Y0090737D01*
X0220073Y0090623D01*
X0220274Y0090527D01*
X0220485Y0090452D01*
X0220707Y0090395D01*
X0220939Y0090357D01*
X0221183Y0090339D01*
X0221437Y0090340D01*
X0221703Y0090360D01*
X0219485Y0087652D01*
X0219453Y0087932D01*
X0219408Y0088198D01*
X0219351Y0088451D01*
X0219280Y0088691D01*
X0219197Y0088917D01*
X0219101Y0089130D01*
X0218992Y0089330D01*
X0218870Y0089517D01*
X0218735Y0089691D01*
X0218588Y0089851D01*
X0219538Y0091023D01*
X0219706Y0090870D01*
D02*
G37*
G36*
X0276601Y0085428D02*
X0276359Y0085584D01*
X0275886Y0085847D01*
X0275654Y0085954D01*
X0275426Y0086045D01*
X0275201Y0086119D01*
X0274979Y0086176D01*
X0274761Y0086217D01*
X0274547Y0086242D01*
X0274335Y0086250D01*
X0274012Y0087750D01*
X0274242Y0087761D01*
X0274463Y0087794D01*
X0274675Y0087850D01*
X0274877Y0087927D01*
X0275071Y0088027D01*
X0275255Y0088149D01*
X0275430Y0088293D01*
X0275596Y0088459D01*
X0275753Y0088647D01*
X0275901Y0088858D01*
X0276601Y0085428D01*
D02*
G37*
G36*
X0067705Y0192959D02*
X0067720Y0192922D01*
X0067745Y0192878D01*
X0067780Y0192827D01*
X0067825Y0192768D01*
X0067945Y0192627D01*
X0068202Y0192359D01*
X0067141Y0191298D01*
X0067044Y0191394D01*
X0066673Y0191720D01*
X0066622Y0191755D01*
X0066578Y0191780D01*
X0066541Y0191795D01*
X0066512Y0191800D01*
X0067700Y0192988D01*
X0067705Y0192959D01*
D02*
G37*
G36*
X0132840Y0187952D02*
X0132811Y0187948D01*
X0132775Y0187933D01*
X0132731Y0187908D01*
X0132679Y0187873D01*
X0132620Y0187828D01*
X0132479Y0187707D01*
X0132211Y0187451D01*
X0131150Y0188511D01*
X0131246Y0188608D01*
X0131573Y0188979D01*
X0131608Y0189031D01*
X0131633Y0189075D01*
X0131648Y0189111D01*
X0131652Y0189140D01*
X0132840Y0187952D01*
D02*
G37*
G36*
X0056510Y0188862D02*
X0056540Y0188771D01*
X0056592Y0188667D01*
X0056664Y0188548D01*
X0056757Y0188416D01*
X0057006Y0188111D01*
X0057338Y0187750D01*
X0057535Y0187549D01*
X0055414Y0185428D01*
X0055213Y0185626D01*
X0054547Y0186206D01*
X0054415Y0186300D01*
X0054297Y0186372D01*
X0054193Y0186423D01*
X0054102Y0186454D01*
X0054025Y0186464D01*
X0056500Y0188939D01*
X0056510Y0188862D01*
D02*
G37*
G36*
X0088381Y0185323D02*
X0088417Y0185308D01*
X0088466Y0185294D01*
X0088527Y0185282D01*
X0088601Y0185273D01*
X0088786Y0185258D01*
X0089157Y0185250D01*
Y0183750D01*
X0089021Y0183749D01*
X0088527Y0183718D01*
X0088466Y0183706D01*
X0088417Y0183692D01*
X0088381Y0183677D01*
X0088357Y0183660D01*
Y0185340D01*
X0088381Y0185323D01*
D02*
G37*
G36*
X0086643Y0183660D02*
X0086619Y0183677D01*
X0086583Y0183692D01*
X0086534Y0183706D01*
X0086473Y0183718D01*
X0086399Y0183728D01*
X0086214Y0183742D01*
X0085843Y0183750D01*
Y0185250D01*
X0085979Y0185251D01*
X0086473Y0185282D01*
X0086534Y0185294D01*
X0086583Y0185308D01*
X0086619Y0185323D01*
X0086643Y0185340D01*
Y0183660D01*
D02*
G37*
G36*
X0072715Y0178250D02*
X0072653Y0178297D01*
X0072568Y0178340D01*
X0072457Y0178377D01*
X0072323Y0178410D01*
X0072163Y0178437D01*
X0071772Y0178478D01*
X0071282Y0178498D01*
X0071000Y0178500D01*
Y0181500D01*
X0071282Y0181502D01*
X0072163Y0181562D01*
X0072323Y0181590D01*
X0072457Y0181623D01*
X0072568Y0181660D01*
X0072653Y0181702D01*
X0072715Y0181750D01*
Y0178250D01*
D02*
G37*
G36*
X0169667Y0188997D02*
X0169681Y0188961D01*
X0169706Y0188917D01*
X0169741Y0188865D01*
X0169787Y0188806D01*
X0169907Y0188665D01*
X0170164Y0188397D01*
X0169103Y0187336D01*
X0169006Y0187432D01*
X0168635Y0187759D01*
X0168583Y0187794D01*
X0168539Y0187819D01*
X0168503Y0187833D01*
X0168474Y0187838D01*
X0169662Y0189026D01*
X0169667Y0188997D01*
D02*
G37*
G36*
X0201643Y0183160D02*
X0201619Y0183177D01*
X0201583Y0183192D01*
X0201534Y0183206D01*
X0201473Y0183218D01*
X0201399Y0183228D01*
X0201214Y0183242D01*
X0200843Y0183250D01*
Y0184750D01*
X0200979Y0184751D01*
X0201473Y0184782D01*
X0201534Y0184794D01*
X0201583Y0184808D01*
X0201619Y0184823D01*
X0201643Y0184840D01*
Y0183160D01*
D02*
G37*
G36*
X0217215Y0173250D02*
X0217153Y0173298D01*
X0217068Y0173340D01*
X0216957Y0173378D01*
X0216823Y0173410D01*
X0216664Y0173438D01*
X0216271Y0173477D01*
X0215782Y0173497D01*
X0215500Y0173500D01*
Y0176500D01*
X0215782Y0176503D01*
X0216664Y0176562D01*
X0216823Y0176590D01*
X0216957Y0176622D01*
X0217068Y0176660D01*
X0217153Y0176702D01*
X0217215Y0176750D01*
Y0173250D01*
D02*
G37*
G36*
X0196347Y0176702D02*
X0196432Y0176660D01*
X0196543Y0176622D01*
X0196677Y0176590D01*
X0196836Y0176562D01*
X0197228Y0176523D01*
X0197718Y0176503D01*
X0198000Y0176500D01*
Y0173500D01*
X0197718Y0173497D01*
X0196836Y0173438D01*
X0196677Y0173410D01*
X0196543Y0173378D01*
X0196432Y0173340D01*
X0196347Y0173298D01*
X0196285Y0173250D01*
Y0176750D01*
X0196347Y0176702D01*
D02*
G37*
G36*
X0274503Y0118136D02*
X0274551Y0117523D01*
X0274595Y0117249D01*
X0274653Y0116996D01*
X0274724Y0116766D01*
X0274809Y0116557D01*
X0274908Y0116370D01*
X0275020Y0116205D01*
X0275146Y0116061D01*
X0274439Y0115354D01*
X0274295Y0115480D01*
X0274130Y0115592D01*
X0273943Y0115691D01*
X0273734Y0115776D01*
X0273504Y0115847D01*
X0273251Y0115905D01*
X0272977Y0115949D01*
X0272682Y0115980D01*
X0272025Y0116000D01*
X0274500Y0118475D01*
X0274503Y0118136D01*
D02*
G37*
G36*
X0310013Y0085759D02*
X0310050Y0085562D01*
X0310113Y0085360D01*
X0310200Y0085153D01*
X0310313Y0084939D01*
X0310450Y0084720D01*
X0310613Y0084495D01*
X0310800Y0084264D01*
X0311250Y0083785D01*
X0307750D01*
X0307987Y0084027D01*
X0308387Y0084495D01*
X0308550Y0084720D01*
X0308687Y0084939D01*
X0308800Y0085153D01*
X0308888Y0085360D01*
X0308950Y0085562D01*
X0308987Y0085759D01*
X0309000Y0085949D01*
X0310000D01*
X0310013Y0085759D01*
D02*
G37*
G36*
X0289013Y0104722D02*
X0288613Y0104255D01*
X0288450Y0104030D01*
X0288313Y0103811D01*
X0288200Y0103597D01*
X0288112Y0103390D01*
X0288050Y0103188D01*
X0288013Y0102991D01*
X0288000Y0102801D01*
X0287000D01*
X0286987Y0102991D01*
X0286950Y0103188D01*
X0286888Y0103390D01*
X0286800Y0103597D01*
X0286687Y0103811D01*
X0286550Y0104030D01*
X0286387Y0104255D01*
X0286200Y0104486D01*
X0285750Y0104965D01*
X0289250D01*
X0289013Y0104722D01*
D02*
G37*
G36*
X0287527Y0047931D02*
X0287607Y0047620D01*
X0287740Y0047284D01*
X0287927Y0046923D01*
X0288167Y0046537D01*
X0288461Y0046126D01*
X0289208Y0045230D01*
X0289662Y0044744D01*
X0290169Y0044233D01*
X0283831D01*
X0284338Y0044744D01*
X0285539Y0046126D01*
X0285833Y0046537D01*
X0286073Y0046923D01*
X0286260Y0047284D01*
X0286393Y0047620D01*
X0286473Y0047931D01*
X0286500Y0048216D01*
X0287500D01*
X0287527Y0047931D01*
D02*
G37*
D11*
X0287000Y0062590D02*
X0293000Y0068590D01*
X0287500Y0100500D02*
X0293000Y0095000D01*
Y0068590D02*
Y0095000D01*
X0272000Y0118500D02*
X0277500Y0113000D01*
X0294591D02*
X0309500Y0098091D01*
X0277500Y0113000D02*
X0294591D01*
X0309500Y0082000D02*
Y0098091D01*
X0287500Y0100500D02*
Y0106750D01*
X0287000Y0041000D02*
Y0062590D01*
D73*
X0270130Y0288130D02*
X0290848Y0308848D01*
X0270100Y0288130D02*
X0270130D01*
X0290848Y0308848D02*
X0301848D01*
X0168500Y0150000D02*
X0231500Y0087000D01*
X0278000D01*
X0163500Y0146000D02*
X0221625Y0087875D01*
X0033400Y0146000D02*
X0163500D01*
X0005000Y0179500D02*
X0034500Y0150000D01*
X0168500D01*
X0005000Y0174400D02*
X0033400Y0146000D01*
X0274500Y0279000D02*
X0275000D01*
X0292751Y0296751D01*
X0293751D01*
X0294000Y0297000D01*
X0128200Y0184500D02*
X0132852Y0189152D01*
X0087500Y0184500D02*
X0128200D01*
X0173500Y0184000D02*
X0202500D01*
X0168462Y0189038D02*
X0173500Y0184000D01*
X0075000Y0184500D02*
X0087500D01*
X0066500Y0193000D02*
X0075000Y0184500D01*
X0221625Y0087875D02*
X0221975D01*
D74*
X0053600Y0199100D02*
X0236900D01*
X0027008Y0172508D02*
X0053600Y0199100D01*
X0236900D02*
X0237000Y0199000D01*
X0027008Y0165008D02*
Y0172508D01*
X0026500Y0164500D02*
X0027008Y0165008D01*
D76*
X0054000Y0188964D02*
X0054000D01*
X0062964Y0180000D02*
X0074500D01*
X0054000Y0188964D02*
X0062964Y0180000D01*
X0226500Y0161000D02*
Y0195000D01*
X0194500Y0175000D02*
X0219000D01*
D79*
X0127157Y0309000D02*
D03*
X0146843D02*
D03*
Y0082000D02*
D03*
X0127157D02*
D03*
X0267315Y0041000D02*
D03*
X0306685D02*
D03*
X0287000D02*
D03*
D80*
X0019685Y0344488D02*
D03*
X0334646D02*
D03*
X0019685Y0019685D02*
D03*
X0334646D02*
D03*
D81*
X0127157Y0141000D02*
D03*
X0146843D02*
D03*
D82*
X0263000Y0289000D02*
D03*
X0237000Y0199000D02*
D03*
X0291000Y0237000D02*
D03*
X0299000Y0217000D02*
D03*
X0050500Y0154850D02*
D03*
X0058500D02*
D03*
X0067000Y0141150D02*
D03*
X0076000D02*
D03*
X0255000Y0248000D02*
D03*
Y0259000D02*
D03*
X0245000Y0270000D02*
D03*
X0236000Y0289000D02*
D03*
X0287900Y0332100D02*
D03*
X0235900Y0332200D02*
D03*
X0282100Y0338700D02*
D03*
X0272000Y0118500D02*
D03*
X0190000Y0179900D02*
D03*
X0092500Y0180000D02*
D03*
X0074500D02*
D03*
X0054000Y0188964D02*
D03*
X0226500Y0195000D02*
D03*
Y0161000D02*
D03*
X0128000Y0258000D02*
D03*
X0121500D02*
D03*
Y0247000D02*
D03*
X0117500Y0252500D02*
D03*
X0121500Y0240500D02*
D03*
X0128000Y0237500D02*
D03*
X0289000Y0278000D02*
D03*
X0276000Y0272500D02*
D03*
X0280500Y0278000D02*
D03*
X0285000Y0272500D02*
D03*
X0314000Y0232000D02*
D03*
X0322000Y0238000D02*
D03*
Y0246000D02*
D03*
Y0254000D02*
D03*
Y0262000D02*
D03*
X0254000Y0289000D02*
D03*
X0245000D02*
D03*
X0236000Y0297000D02*
D03*
X0273900Y0338900D02*
D03*
X0265900D02*
D03*
X0257900D02*
D03*
X0249900D02*
D03*
X0241900D02*
D03*
X0278000Y0087500D02*
D03*
X0287500Y0106750D02*
D03*
X0227000Y0119000D02*
D03*
X0219000Y0111500D02*
D03*
X0221975Y0087875D02*
D03*
X0192500Y0140000D02*
D03*
X0211000Y0119000D02*
D03*
X0193500Y0107500D02*
D03*
X0021000Y0149500D02*
D03*
X0194500Y0158000D02*
D03*
X0199500Y0151500D02*
D03*
X0054500Y0160000D02*
D03*
X0080500Y0134000D02*
D03*
X0071500D02*
D03*
X0255000Y0270000D02*
D03*
X0309500Y0082000D02*
D03*
X0076000Y0127000D02*
D03*
X0310500Y0060500D02*
D03*
Y0069000D02*
D03*
X0292000Y0060000D02*
D03*
X0282000D02*
D03*
X0287000Y0070000D02*
D03*
X0345000Y0301000D02*
D03*
X0330000Y0271000D02*
D03*
X0345000Y0241000D02*
D03*
X0330000Y0211000D02*
D03*
X0345000Y0181000D02*
D03*
X0330000Y0151000D02*
D03*
X0345000Y0121000D02*
D03*
X0330000Y0091000D02*
D03*
X0345000Y0061000D02*
D03*
X0300000Y0331000D02*
D03*
X0315000Y0181000D02*
D03*
X0300000Y0151000D02*
D03*
X0315000Y0121000D02*
D03*
X0300000Y0031000D02*
D03*
X0270000D02*
D03*
X0255000Y0121000D02*
D03*
X0240000Y0031000D02*
D03*
X0210000Y0091000D02*
D03*
X0225000Y0061000D02*
D03*
X0210000Y0031000D02*
D03*
X0180000Y0331000D02*
D03*
X0150000D02*
D03*
X0120000D02*
D03*
X0090000D02*
D03*
X0105000Y0301000D02*
D03*
X0090000Y0271000D02*
D03*
X0105000Y0241000D02*
D03*
X0060000Y0331000D02*
D03*
X0075000Y0301000D02*
D03*
X0060000Y0271000D02*
D03*
X0075000Y0241000D02*
D03*
X0060000Y0211000D02*
D03*
Y0091000D02*
D03*
Y0031000D02*
D03*
X0030000Y0331000D02*
D03*
X0045000Y0301000D02*
D03*
X0030000Y0271000D02*
D03*
X0045000Y0241000D02*
D03*
Y0121000D02*
D03*
X0030000Y0091000D02*
D03*
Y0031000D02*
D03*
X0152500Y0180000D02*
D03*
X0180000Y0080000D02*
D03*
X0190000Y0060000D02*
D03*
X0160000Y0160000D02*
D03*
Y0120000D02*
D03*
X0170000Y0100000D02*
D03*
Y0060000D02*
D03*
X0120000Y0160000D02*
D03*
Y0120000D02*
D03*
X0130000Y0100000D02*
D03*
Y0060000D02*
D03*
X0110000Y0180000D02*
D03*
Y0100000D02*
D03*
X0100000Y0080000D02*
D03*
X0110000Y0060000D02*
D03*
X0090000Y0100000D02*
D03*
Y0060000D02*
D03*
X0219000Y0220000D02*
D03*
X0210000Y0210500D02*
D03*
X0201000Y0220000D02*
D03*
X0175000Y0213000D02*
D03*
X0180000Y0220000D02*
D03*
X0160000D02*
D03*
X0137500Y0212500D02*
D03*
X0104500D02*
D03*
X0095000D02*
D03*
X0120500Y0220000D02*
D03*
X0099500D02*
D03*
X0080500D02*
D03*
X0220000Y0280000D02*
D03*
X0210000Y0300000D02*
D03*
X0200000Y0280000D02*
D03*
X0210000Y0260000D02*
D03*
Y0220000D02*
D03*
X0190000Y0300000D02*
D03*
X0180000Y0280000D02*
D03*
X0190000Y0260000D02*
D03*
X0170000Y0300000D02*
D03*
X0160000Y0280000D02*
D03*
X0170000Y0260000D02*
D03*
Y0220000D02*
D03*
X0150000Y0300000D02*
D03*
Y0260000D02*
D03*
X0130000Y0220000D02*
D03*
X0090000D02*
D03*
X0021500Y0171000D02*
D03*
X0196000Y0145500D02*
D03*
X0203000D02*
D03*
X0199500Y0140000D02*
D03*
X0206500D02*
D03*
X0062500Y0160000D02*
D03*
X0071500Y0121000D02*
D03*
X0062500Y0134000D02*
D03*
X0067000Y0127000D02*
D03*
X0070500Y0160000D02*
D03*
X0078500D02*
D03*
X0026500Y0164500D02*
D03*
X0194500Y0175000D02*
D03*
X0219000D02*
D03*
D83*
X0270100Y0288130D02*
D03*
X0301848Y0308848D02*
D03*
D84*
X0274500Y0279000D02*
D03*
X0294000Y0297000D02*
D03*
X0005000Y0174400D02*
D03*
Y0179500D02*
D03*
D85*
X0132852Y0189152D02*
D03*
X0168462Y0189038D02*
D03*
X0202500Y0184000D02*
D03*
X0087500Y0184500D02*
D03*
X0066500Y0193000D02*
D03*
M02*
