M48
;Layer_Color=9474304
;FILE_FORMAT=2:5
INCH
;TYPE=PLATED
T1F00S00C0.01200
T2F00S00C0.01600
T3F00S00C0.02800
T4F00S00C0.03000
T5F00S00C0.05217
;TYPE=NON_PLATED
T6F00S00C0.11811
%
T01
X0168462Y0189038
X0202500Y0184000
X0270100Y0288130
X0301848Y0308848
X0132852Y0189152
X0087500Y0184500
X0066500Y0193000
T02
X0274500Y0279000
X0294000Y0297000
X0005000Y0179500
Y0174400
T03
X0030000Y0031000
X0060000
X0090000Y0060000
X0110000
X0130000
Y0100000
X0110000
X0090000
X0100000Y0080000
X0060000Y0091000
X0030000
X0045000Y0121000
X0071500
X0076000Y0127000
X0067000
X0071500Y0134000
X0080500
X0076000Y0141150
X0067000
X0062500Y0134000
X0058500Y0154850
X0050500
X0021000Y0149500
X0120000Y0120000
X0160000
X0170000Y0100000
X0180000Y0080000
X0190000Y0060000
X0170000
X0225000Y0061000
X0221975Y0087875
X0210000Y0091000
X0211000Y0119000
X0219000Y0111500
X0227000Y0119000
X0255000Y0121000
X0272000Y0118500
X0287500Y0106750
X0278000Y0087500
X0287000Y0070000
X0292000Y0060000
X0282000
X0310500Y0060500
Y0069000
X0309500Y0082000
X0300000Y0031000
X0270000
X0240000
X0210000
X0193500Y0107500
X0192500Y0140000
X0199500
X0206500
X0203000Y0145500
X0196000
X0199500Y0151500
X0300000Y0151000
X0330000
X0345000Y0121000
X0315000
X0330000Y0091000
X0345000Y0061000
Y0181000
X0315000
X0330000Y0211000
X0322000Y0238000
Y0246000
Y0254000
Y0262000
X0330000Y0271000
X0345000Y0301000
Y0241000
X0314000Y0232000
X0291000Y0237000
X0299000Y0217000
X0285000Y0272500
X0276000
X0280500Y0278000
X0289000
X0263000Y0289000
X0254000
X0245000
X0236000
Y0297000
X0210000Y0300000
X0190000
X0170000
X0180000Y0280000
X0200000
X0220000
X0210000Y0260000
X0190000
X0170000
X0160000Y0280000
Y0220000
X0170000
X0180000
X0175000Y0213000
X0201000Y0220000
X0210000
X0219000
X0210000Y0210500
X0226500Y0195000
X0237000Y0199000
X0219000Y0175000
X0226500Y0161000
X0194500Y0158000
Y0175000
X0190000Y0179900
X0160000Y0160000
X0255000Y0248000
Y0259000
Y0270000
X0245000
X0150000Y0260000
X0128000Y0258000
X0121500
X0117500Y0252500
X0121500Y0247000
Y0240500
X0128000Y0237500
X0130000Y0220000
X0120500
X0099500
X0090000
X0080500
X0095000Y0212500
X0104500
X0105000Y0241000
X0075000
X0045000
X0060000Y0271000
X0090000
X0105000Y0301000
X0075000
X0045000
X0030000Y0271000
X0060000Y0211000
X0054000Y0188964
X0074500Y0180000
X0092500
X0110000
X0120000Y0160000
X0078500
X0070500
X0062500
X0054500
X0026500Y0164500
X0021500Y0171000
X0152500Y0180000
X0137500Y0212500
X0150000Y0300000
Y0331000
X0120000
X0090000
X0060000
X0030000
X0180000
X0235900Y0332200
X0241900Y0338900
X0249900
X0257900
X0265900
X0273900
X0282100Y0338700
X0287900Y0332100
X0300000Y0331000
T04
X0127157Y0141000
X0146843
T05
X0127157Y0082000
X0146843
X0267315Y0041000
X0287000
X0306685
X0146843Y0309000
X0127157
T06
X0019685Y0019685
X0334646
X0019685Y0344488
X0334646
M30
