G04*
G04 #@! TF.GenerationSoftware,Altium Limited,Altium Designer,20.1.14 (287)*
G04*
G04 Layer_Physical_Order=2*
G04 Layer_Color=36540*
%FSAX25Y25*%
%MOIN*%
G70*
G04*
G04 #@! TF.SameCoordinates,FC2F126E-21AF-4EAC-9D32-16AAFC288CF4*
G04*
G04*
G04 #@! TF.FilePolarity,Positive*
G04*
G01*
G75*
%ADD79C,0.09055*%
%ADD82C,0.05000*%
G36*
X0346764Y0361834D02*
X0348184Y0361246D01*
X0349463Y0360392D01*
X0350550Y0359305D01*
X0351403Y0358027D01*
X0351992Y0356607D01*
X0352292Y0355099D01*
Y0354331D01*
Y0009843D01*
Y0009074D01*
X0351992Y0007566D01*
X0351403Y0006146D01*
X0350550Y0004868D01*
X0349463Y0003781D01*
X0348184Y0002927D01*
X0346764Y0002339D01*
X0345257Y0002039D01*
X0009074D01*
X0007566Y0002339D01*
X0006146Y0002927D01*
X0004868Y0003781D01*
X0003781Y0004868D01*
X0002927Y0006146D01*
X0002339Y0007566D01*
X0002039Y0009074D01*
Y0009843D01*
Y0354331D01*
Y0355099D01*
X0002339Y0356607D01*
X0002927Y0358027D01*
X0003781Y0359305D01*
X0004868Y0360392D01*
X0006146Y0361246D01*
X0007566Y0361834D01*
X0009074Y0362134D01*
X0345257D01*
X0346764Y0361834D01*
D02*
G37*
%LPC*%
G36*
X0334646Y0354442D02*
X0332704Y0354250D01*
X0330837Y0353684D01*
X0329116Y0352764D01*
X0327607Y0351526D01*
X0326370Y0350018D01*
X0325450Y0348297D01*
X0324884Y0346430D01*
X0324692Y0344488D01*
X0324884Y0342546D01*
X0325450Y0340679D01*
X0326370Y0338958D01*
X0327607Y0337450D01*
X0329116Y0336212D01*
X0330837Y0335292D01*
X0332704Y0334726D01*
X0334646Y0334535D01*
X0336588Y0334726D01*
X0338455Y0335292D01*
X0340176Y0336212D01*
X0341684Y0337450D01*
X0342922Y0338958D01*
X0343841Y0340679D01*
X0344408Y0342546D01*
X0344599Y0344488D01*
X0344408Y0346430D01*
X0343841Y0348297D01*
X0342922Y0350018D01*
X0341684Y0351526D01*
X0340176Y0352764D01*
X0338455Y0353684D01*
X0336588Y0354250D01*
X0334646Y0354442D01*
D02*
G37*
G36*
X0019685D02*
X0017743Y0354250D01*
X0015876Y0353684D01*
X0014155Y0352764D01*
X0012647Y0351526D01*
X0011409Y0350018D01*
X0010489Y0348297D01*
X0009923Y0346430D01*
X0009732Y0344488D01*
X0009923Y0342546D01*
X0010489Y0340679D01*
X0011409Y0338958D01*
X0012647Y0337450D01*
X0014155Y0336212D01*
X0015876Y0335292D01*
X0017743Y0334726D01*
X0019685Y0334535D01*
X0021627Y0334726D01*
X0023494Y0335292D01*
X0025215Y0336212D01*
X0026723Y0337450D01*
X0027961Y0338958D01*
X0028881Y0340679D01*
X0029447Y0342546D01*
X0029638Y0344488D01*
X0029447Y0346430D01*
X0028881Y0348297D01*
X0027961Y0350018D01*
X0026723Y0351526D01*
X0025215Y0352764D01*
X0023494Y0353684D01*
X0021627Y0354250D01*
X0019685Y0354442D01*
D02*
G37*
G36*
X0301848Y0310276D02*
X0301302Y0310167D01*
X0300839Y0309858D01*
X0300530Y0309395D01*
X0300421Y0308848D01*
X0300530Y0308302D01*
X0300839Y0307839D01*
X0301302Y0307530D01*
X0301848Y0307421D01*
X0302395Y0307530D01*
X0302858Y0307839D01*
X0303167Y0308302D01*
X0303276Y0308848D01*
X0303167Y0309395D01*
X0302858Y0309858D01*
X0302395Y0310167D01*
X0301848Y0310276D01*
D02*
G37*
G36*
X0146843Y0313144D02*
X0145770Y0313002D01*
X0144771Y0312589D01*
X0143912Y0311930D01*
X0143254Y0311072D01*
X0142840Y0310072D01*
X0142699Y0309000D01*
X0142840Y0307927D01*
X0143254Y0306928D01*
X0143912Y0306070D01*
X0144771Y0305411D01*
X0145770Y0304997D01*
X0146843Y0304856D01*
X0147915Y0304997D01*
X0148914Y0305411D01*
X0149773Y0306070D01*
X0150431Y0306928D01*
X0150845Y0307927D01*
X0150986Y0309000D01*
X0150845Y0310072D01*
X0150431Y0311072D01*
X0149773Y0311930D01*
X0148914Y0312589D01*
X0147915Y0313002D01*
X0146843Y0313144D01*
D02*
G37*
G36*
X0210000Y0302925D02*
X0209243Y0302825D01*
X0208538Y0302533D01*
X0207932Y0302068D01*
X0207467Y0301463D01*
X0207175Y0300757D01*
X0207075Y0300000D01*
X0207175Y0299243D01*
X0207467Y0298537D01*
X0207932Y0297932D01*
X0208538Y0297467D01*
X0209243Y0297175D01*
X0210000Y0297075D01*
X0210757Y0297175D01*
X0211462Y0297467D01*
X0212068Y0297932D01*
X0212533Y0298537D01*
X0212825Y0299243D01*
X0212925Y0300000D01*
X0212825Y0300757D01*
X0212533Y0301463D01*
X0212068Y0302068D01*
X0211462Y0302533D01*
X0210757Y0302825D01*
X0210000Y0302925D01*
D02*
G37*
G36*
X0190000D02*
X0189243Y0302825D01*
X0188538Y0302533D01*
X0187932Y0302068D01*
X0187467Y0301463D01*
X0187175Y0300757D01*
X0187075Y0300000D01*
X0187175Y0299243D01*
X0187467Y0298537D01*
X0187932Y0297932D01*
X0188538Y0297467D01*
X0189243Y0297175D01*
X0190000Y0297075D01*
X0190757Y0297175D01*
X0191463Y0297467D01*
X0192068Y0297932D01*
X0192533Y0298537D01*
X0192825Y0299243D01*
X0192925Y0300000D01*
X0192825Y0300757D01*
X0192533Y0301463D01*
X0192068Y0302068D01*
X0191463Y0302533D01*
X0190757Y0302825D01*
X0190000Y0302925D01*
D02*
G37*
G36*
X0170000D02*
X0169243Y0302825D01*
X0168537Y0302533D01*
X0167932Y0302068D01*
X0167467Y0301463D01*
X0167175Y0300757D01*
X0167075Y0300000D01*
X0167175Y0299243D01*
X0167467Y0298537D01*
X0167932Y0297932D01*
X0168537Y0297467D01*
X0169243Y0297175D01*
X0170000Y0297075D01*
X0170757Y0297175D01*
X0171463Y0297467D01*
X0172068Y0297932D01*
X0172533Y0298537D01*
X0172825Y0299243D01*
X0172925Y0300000D01*
X0172825Y0300757D01*
X0172533Y0301463D01*
X0172068Y0302068D01*
X0171463Y0302533D01*
X0170757Y0302825D01*
X0170000Y0302925D01*
D02*
G37*
G36*
X0150000D02*
X0149243Y0302825D01*
X0148538Y0302533D01*
X0147932Y0302068D01*
X0147467Y0301463D01*
X0147175Y0300757D01*
X0147075Y0300000D01*
X0147175Y0299243D01*
X0147467Y0298537D01*
X0147932Y0297932D01*
X0148538Y0297467D01*
X0149243Y0297175D01*
X0150000Y0297075D01*
X0150757Y0297175D01*
X0151462Y0297467D01*
X0152068Y0297932D01*
X0152533Y0298537D01*
X0152825Y0299243D01*
X0152925Y0300000D01*
X0152825Y0300757D01*
X0152533Y0301463D01*
X0152068Y0302068D01*
X0151462Y0302533D01*
X0150757Y0302825D01*
X0150000Y0302925D01*
D02*
G37*
G36*
X0294000Y0298631D02*
X0293376Y0298507D01*
X0292846Y0298153D01*
X0292493Y0297624D01*
X0292369Y0297000D01*
X0292493Y0296376D01*
X0292846Y0295847D01*
X0293376Y0295493D01*
X0294000Y0295369D01*
X0294624Y0295493D01*
X0295153Y0295847D01*
X0295507Y0296376D01*
X0295631Y0297000D01*
X0295507Y0297624D01*
X0295153Y0298153D01*
X0294624Y0298507D01*
X0294000Y0298631D01*
D02*
G37*
G36*
X0270100Y0289558D02*
X0269554Y0289449D01*
X0269091Y0289140D01*
X0268781Y0288676D01*
X0268673Y0288130D01*
X0268781Y0287584D01*
X0269091Y0287121D01*
X0269554Y0286811D01*
X0270100Y0286703D01*
X0270646Y0286811D01*
X0271109Y0287121D01*
X0271419Y0287584D01*
X0271527Y0288130D01*
X0271419Y0288676D01*
X0271109Y0289140D01*
X0270646Y0289449D01*
X0270100Y0289558D01*
D02*
G37*
G36*
X0274500Y0280631D02*
X0273876Y0280507D01*
X0273346Y0280153D01*
X0272993Y0279624D01*
X0272869Y0279000D01*
X0272993Y0278376D01*
X0273346Y0277847D01*
X0273876Y0277493D01*
X0274500Y0277369D01*
X0275124Y0277493D01*
X0275654Y0277847D01*
X0276007Y0278376D01*
X0276131Y0279000D01*
X0276007Y0279624D01*
X0275654Y0280153D01*
X0275124Y0280507D01*
X0274500Y0280631D01*
D02*
G37*
G36*
X0220000Y0282925D02*
X0219243Y0282825D01*
X0218537Y0282533D01*
X0217932Y0282068D01*
X0217467Y0281463D01*
X0217175Y0280757D01*
X0217075Y0280000D01*
X0217175Y0279243D01*
X0217467Y0278538D01*
X0217932Y0277932D01*
X0218537Y0277467D01*
X0219243Y0277175D01*
X0220000Y0277075D01*
X0220757Y0277175D01*
X0221462Y0277467D01*
X0222068Y0277932D01*
X0222533Y0278538D01*
X0222825Y0279243D01*
X0222925Y0280000D01*
X0222825Y0280757D01*
X0222533Y0281463D01*
X0222068Y0282068D01*
X0221462Y0282533D01*
X0220757Y0282825D01*
X0220000Y0282925D01*
D02*
G37*
G36*
X0200000D02*
X0199243Y0282825D01*
X0198538Y0282533D01*
X0197932Y0282068D01*
X0197467Y0281463D01*
X0197175Y0280757D01*
X0197075Y0280000D01*
X0197175Y0279243D01*
X0197467Y0278538D01*
X0197932Y0277932D01*
X0198538Y0277467D01*
X0199243Y0277175D01*
X0200000Y0277075D01*
X0200757Y0277175D01*
X0201463Y0277467D01*
X0202068Y0277932D01*
X0202533Y0278538D01*
X0202825Y0279243D01*
X0202925Y0280000D01*
X0202825Y0280757D01*
X0202533Y0281463D01*
X0202068Y0282068D01*
X0201463Y0282533D01*
X0200757Y0282825D01*
X0200000Y0282925D01*
D02*
G37*
G36*
X0180000D02*
X0179243Y0282825D01*
X0178537Y0282533D01*
X0177932Y0282068D01*
X0177467Y0281463D01*
X0177175Y0280757D01*
X0177075Y0280000D01*
X0177175Y0279243D01*
X0177467Y0278538D01*
X0177932Y0277932D01*
X0178537Y0277467D01*
X0179243Y0277175D01*
X0180000Y0277075D01*
X0180757Y0277175D01*
X0181463Y0277467D01*
X0182068Y0277932D01*
X0182533Y0278538D01*
X0182825Y0279243D01*
X0182925Y0280000D01*
X0182825Y0280757D01*
X0182533Y0281463D01*
X0182068Y0282068D01*
X0181463Y0282533D01*
X0180757Y0282825D01*
X0180000Y0282925D01*
D02*
G37*
G36*
X0160000D02*
X0159243Y0282825D01*
X0158537Y0282533D01*
X0157932Y0282068D01*
X0157467Y0281463D01*
X0157175Y0280757D01*
X0157075Y0280000D01*
X0157175Y0279243D01*
X0157467Y0278538D01*
X0157932Y0277932D01*
X0158537Y0277467D01*
X0159243Y0277175D01*
X0160000Y0277075D01*
X0160757Y0277175D01*
X0161462Y0277467D01*
X0162068Y0277932D01*
X0162533Y0278538D01*
X0162825Y0279243D01*
X0162925Y0280000D01*
X0162825Y0280757D01*
X0162533Y0281463D01*
X0162068Y0282068D01*
X0161462Y0282533D01*
X0160757Y0282825D01*
X0160000Y0282925D01*
D02*
G37*
G36*
X0210000Y0262925D02*
X0209243Y0262825D01*
X0208538Y0262533D01*
X0207932Y0262068D01*
X0207467Y0261462D01*
X0207175Y0260757D01*
X0207075Y0260000D01*
X0207175Y0259243D01*
X0207467Y0258538D01*
X0207932Y0257932D01*
X0208538Y0257467D01*
X0209243Y0257175D01*
X0210000Y0257075D01*
X0210757Y0257175D01*
X0211462Y0257467D01*
X0212068Y0257932D01*
X0212533Y0258538D01*
X0212825Y0259243D01*
X0212925Y0260000D01*
X0212825Y0260757D01*
X0212533Y0261462D01*
X0212068Y0262068D01*
X0211462Y0262533D01*
X0210757Y0262825D01*
X0210000Y0262925D01*
D02*
G37*
G36*
X0190000D02*
X0189243Y0262825D01*
X0188538Y0262533D01*
X0187932Y0262068D01*
X0187467Y0261462D01*
X0187175Y0260757D01*
X0187075Y0260000D01*
X0187175Y0259243D01*
X0187467Y0258538D01*
X0187932Y0257932D01*
X0188538Y0257467D01*
X0189243Y0257175D01*
X0190000Y0257075D01*
X0190757Y0257175D01*
X0191463Y0257467D01*
X0192068Y0257932D01*
X0192533Y0258538D01*
X0192825Y0259243D01*
X0192925Y0260000D01*
X0192825Y0260757D01*
X0192533Y0261462D01*
X0192068Y0262068D01*
X0191463Y0262533D01*
X0190757Y0262825D01*
X0190000Y0262925D01*
D02*
G37*
G36*
X0170000D02*
X0169243Y0262825D01*
X0168537Y0262533D01*
X0167932Y0262068D01*
X0167467Y0261462D01*
X0167175Y0260757D01*
X0167075Y0260000D01*
X0167175Y0259243D01*
X0167467Y0258538D01*
X0167932Y0257932D01*
X0168537Y0257467D01*
X0169243Y0257175D01*
X0170000Y0257075D01*
X0170757Y0257175D01*
X0171463Y0257467D01*
X0172068Y0257932D01*
X0172533Y0258538D01*
X0172825Y0259243D01*
X0172925Y0260000D01*
X0172825Y0260757D01*
X0172533Y0261462D01*
X0172068Y0262068D01*
X0171463Y0262533D01*
X0170757Y0262825D01*
X0170000Y0262925D01*
D02*
G37*
G36*
X0150000D02*
X0149243Y0262825D01*
X0148538Y0262533D01*
X0147932Y0262068D01*
X0147467Y0261462D01*
X0147175Y0260757D01*
X0147075Y0260000D01*
X0147175Y0259243D01*
X0147467Y0258538D01*
X0147932Y0257932D01*
X0148538Y0257467D01*
X0149243Y0257175D01*
X0150000Y0257075D01*
X0150757Y0257175D01*
X0151462Y0257467D01*
X0152068Y0257932D01*
X0152533Y0258538D01*
X0152825Y0259243D01*
X0152925Y0260000D01*
X0152825Y0260757D01*
X0152533Y0261462D01*
X0152068Y0262068D01*
X0151462Y0262533D01*
X0150757Y0262825D01*
X0150000Y0262925D01*
D02*
G37*
G36*
X0219000Y0222925D02*
X0218243Y0222825D01*
X0217537Y0222533D01*
X0216932Y0222068D01*
X0216467Y0221462D01*
X0216175Y0220757D01*
X0216075Y0220000D01*
X0216175Y0219243D01*
X0216467Y0218537D01*
X0216932Y0217932D01*
X0217537Y0217467D01*
X0218243Y0217175D01*
X0219000Y0217075D01*
X0219757Y0217175D01*
X0220462Y0217467D01*
X0221068Y0217932D01*
X0221533Y0218537D01*
X0221825Y0219243D01*
X0221925Y0220000D01*
X0221825Y0220757D01*
X0221533Y0221462D01*
X0221068Y0222068D01*
X0220462Y0222533D01*
X0219757Y0222825D01*
X0219000Y0222925D01*
D02*
G37*
G36*
X0210000D02*
X0209243Y0222825D01*
X0208538Y0222533D01*
X0207932Y0222068D01*
X0207467Y0221462D01*
X0207175Y0220757D01*
X0207075Y0220000D01*
X0207175Y0219243D01*
X0207467Y0218537D01*
X0207932Y0217932D01*
X0208538Y0217467D01*
X0209243Y0217175D01*
X0210000Y0217075D01*
X0210757Y0217175D01*
X0211462Y0217467D01*
X0212068Y0217932D01*
X0212533Y0218537D01*
X0212825Y0219243D01*
X0212925Y0220000D01*
X0212825Y0220757D01*
X0212533Y0221462D01*
X0212068Y0222068D01*
X0211462Y0222533D01*
X0210757Y0222825D01*
X0210000Y0222925D01*
D02*
G37*
G36*
X0201000D02*
X0200243Y0222825D01*
X0199538Y0222533D01*
X0198932Y0222068D01*
X0198467Y0221462D01*
X0198175Y0220757D01*
X0198075Y0220000D01*
X0198175Y0219243D01*
X0198467Y0218537D01*
X0198932Y0217932D01*
X0199538Y0217467D01*
X0200243Y0217175D01*
X0201000Y0217075D01*
X0201757Y0217175D01*
X0202463Y0217467D01*
X0203068Y0217932D01*
X0203533Y0218537D01*
X0203825Y0219243D01*
X0203925Y0220000D01*
X0203825Y0220757D01*
X0203533Y0221462D01*
X0203068Y0222068D01*
X0202463Y0222533D01*
X0201757Y0222825D01*
X0201000Y0222925D01*
D02*
G37*
G36*
X0180000D02*
X0179243Y0222825D01*
X0178537Y0222533D01*
X0177932Y0222068D01*
X0177467Y0221462D01*
X0177175Y0220757D01*
X0177075Y0220000D01*
X0177175Y0219243D01*
X0177467Y0218537D01*
X0177932Y0217932D01*
X0178537Y0217467D01*
X0179243Y0217175D01*
X0180000Y0217075D01*
X0180757Y0217175D01*
X0181463Y0217467D01*
X0182068Y0217932D01*
X0182533Y0218537D01*
X0182825Y0219243D01*
X0182925Y0220000D01*
X0182825Y0220757D01*
X0182533Y0221462D01*
X0182068Y0222068D01*
X0181463Y0222533D01*
X0180757Y0222825D01*
X0180000Y0222925D01*
D02*
G37*
G36*
X0170000D02*
X0169243Y0222825D01*
X0168537Y0222533D01*
X0167932Y0222068D01*
X0167467Y0221462D01*
X0167175Y0220757D01*
X0167075Y0220000D01*
X0167175Y0219243D01*
X0167467Y0218537D01*
X0167932Y0217932D01*
X0168537Y0217467D01*
X0169243Y0217175D01*
X0170000Y0217075D01*
X0170757Y0217175D01*
X0171463Y0217467D01*
X0172068Y0217932D01*
X0172533Y0218537D01*
X0172825Y0219243D01*
X0172925Y0220000D01*
X0172825Y0220757D01*
X0172533Y0221462D01*
X0172068Y0222068D01*
X0171463Y0222533D01*
X0170757Y0222825D01*
X0170000Y0222925D01*
D02*
G37*
G36*
X0160000D02*
X0159243Y0222825D01*
X0158537Y0222533D01*
X0157932Y0222068D01*
X0157467Y0221462D01*
X0157175Y0220757D01*
X0157075Y0220000D01*
X0157175Y0219243D01*
X0157467Y0218537D01*
X0157932Y0217932D01*
X0158537Y0217467D01*
X0159243Y0217175D01*
X0160000Y0217075D01*
X0160757Y0217175D01*
X0161462Y0217467D01*
X0162068Y0217932D01*
X0162533Y0218537D01*
X0162825Y0219243D01*
X0162925Y0220000D01*
X0162825Y0220757D01*
X0162533Y0221462D01*
X0162068Y0222068D01*
X0161462Y0222533D01*
X0160757Y0222825D01*
X0160000Y0222925D01*
D02*
G37*
G36*
X0130000D02*
X0129243Y0222825D01*
X0128537Y0222533D01*
X0127932Y0222068D01*
X0127467Y0221462D01*
X0127175Y0220757D01*
X0127075Y0220000D01*
X0127175Y0219243D01*
X0127467Y0218537D01*
X0127932Y0217932D01*
X0128537Y0217467D01*
X0129243Y0217175D01*
X0130000Y0217075D01*
X0130757Y0217175D01*
X0131463Y0217467D01*
X0132068Y0217932D01*
X0132533Y0218537D01*
X0132825Y0219243D01*
X0132925Y0220000D01*
X0132825Y0220757D01*
X0132533Y0221462D01*
X0132068Y0222068D01*
X0131463Y0222533D01*
X0130757Y0222825D01*
X0130000Y0222925D01*
D02*
G37*
G36*
X0120500D02*
X0119743Y0222825D01*
X0119037Y0222533D01*
X0118432Y0222068D01*
X0117967Y0221462D01*
X0117675Y0220757D01*
X0117575Y0220000D01*
X0117675Y0219243D01*
X0117967Y0218537D01*
X0118432Y0217932D01*
X0119037Y0217467D01*
X0119743Y0217175D01*
X0120500Y0217075D01*
X0121257Y0217175D01*
X0121962Y0217467D01*
X0122568Y0217932D01*
X0123033Y0218537D01*
X0123325Y0219243D01*
X0123425Y0220000D01*
X0123325Y0220757D01*
X0123033Y0221462D01*
X0122568Y0222068D01*
X0121962Y0222533D01*
X0121257Y0222825D01*
X0120500Y0222925D01*
D02*
G37*
G36*
X0099500D02*
X0098743Y0222825D01*
X0098037Y0222533D01*
X0097432Y0222068D01*
X0096967Y0221462D01*
X0096675Y0220757D01*
X0096575Y0220000D01*
X0096675Y0219243D01*
X0096967Y0218537D01*
X0097432Y0217932D01*
X0098037Y0217467D01*
X0098743Y0217175D01*
X0099500Y0217075D01*
X0100257Y0217175D01*
X0100962Y0217467D01*
X0101568Y0217932D01*
X0102033Y0218537D01*
X0102325Y0219243D01*
X0102425Y0220000D01*
X0102325Y0220757D01*
X0102033Y0221462D01*
X0101568Y0222068D01*
X0100962Y0222533D01*
X0100257Y0222825D01*
X0099500Y0222925D01*
D02*
G37*
G36*
X0090000D02*
X0089243Y0222825D01*
X0088538Y0222533D01*
X0087932Y0222068D01*
X0087467Y0221462D01*
X0087175Y0220757D01*
X0087075Y0220000D01*
X0087175Y0219243D01*
X0087467Y0218537D01*
X0087932Y0217932D01*
X0088538Y0217467D01*
X0089243Y0217175D01*
X0090000Y0217075D01*
X0090757Y0217175D01*
X0091462Y0217467D01*
X0092068Y0217932D01*
X0092533Y0218537D01*
X0092825Y0219243D01*
X0092925Y0220000D01*
X0092825Y0220757D01*
X0092533Y0221462D01*
X0092068Y0222068D01*
X0091462Y0222533D01*
X0090757Y0222825D01*
X0090000Y0222925D01*
D02*
G37*
G36*
X0080500D02*
X0079743Y0222825D01*
X0079037Y0222533D01*
X0078432Y0222068D01*
X0077967Y0221462D01*
X0077675Y0220757D01*
X0077575Y0220000D01*
X0077675Y0219243D01*
X0077967Y0218537D01*
X0078432Y0217932D01*
X0079037Y0217467D01*
X0079743Y0217175D01*
X0080500Y0217075D01*
X0081257Y0217175D01*
X0081963Y0217467D01*
X0082568Y0217932D01*
X0083033Y0218537D01*
X0083325Y0219243D01*
X0083425Y0220000D01*
X0083325Y0220757D01*
X0083033Y0221462D01*
X0082568Y0222068D01*
X0081963Y0222533D01*
X0081257Y0222825D01*
X0080500Y0222925D01*
D02*
G37*
G36*
X0175000Y0215925D02*
X0174243Y0215825D01*
X0173538Y0215533D01*
X0172932Y0215068D01*
X0172467Y0214462D01*
X0172175Y0213757D01*
X0172075Y0213000D01*
X0172175Y0212243D01*
X0172467Y0211538D01*
X0172932Y0210932D01*
X0173538Y0210467D01*
X0174243Y0210175D01*
X0175000Y0210075D01*
X0175757Y0210175D01*
X0176462Y0210467D01*
X0177068Y0210932D01*
X0177533Y0211538D01*
X0177825Y0212243D01*
X0177925Y0213000D01*
X0177825Y0213757D01*
X0177533Y0214462D01*
X0177068Y0215068D01*
X0176462Y0215533D01*
X0175757Y0215825D01*
X0175000Y0215925D01*
D02*
G37*
G36*
X0137500Y0215425D02*
X0136743Y0215325D01*
X0136038Y0215033D01*
X0135432Y0214568D01*
X0134967Y0213963D01*
X0134675Y0213257D01*
X0134575Y0212500D01*
X0134675Y0211743D01*
X0134967Y0211037D01*
X0135432Y0210432D01*
X0136038Y0209967D01*
X0136743Y0209675D01*
X0137500Y0209575D01*
X0138257Y0209675D01*
X0138962Y0209967D01*
X0139568Y0210432D01*
X0140033Y0211037D01*
X0140325Y0211743D01*
X0140425Y0212500D01*
X0140325Y0213257D01*
X0140033Y0213963D01*
X0139568Y0214568D01*
X0138962Y0215033D01*
X0138257Y0215325D01*
X0137500Y0215425D01*
D02*
G37*
G36*
X0104500D02*
X0103743Y0215325D01*
X0103038Y0215033D01*
X0102432Y0214568D01*
X0101967Y0213963D01*
X0101675Y0213257D01*
X0101575Y0212500D01*
X0101675Y0211743D01*
X0101967Y0211037D01*
X0102432Y0210432D01*
X0103038Y0209967D01*
X0103743Y0209675D01*
X0104500Y0209575D01*
X0105257Y0209675D01*
X0105963Y0209967D01*
X0106568Y0210432D01*
X0107033Y0211037D01*
X0107325Y0211743D01*
X0107425Y0212500D01*
X0107325Y0213257D01*
X0107033Y0213963D01*
X0106568Y0214568D01*
X0105963Y0215033D01*
X0105257Y0215325D01*
X0104500Y0215425D01*
D02*
G37*
G36*
X0095000D02*
X0094243Y0215325D01*
X0093537Y0215033D01*
X0092932Y0214568D01*
X0092467Y0213963D01*
X0092175Y0213257D01*
X0092075Y0212500D01*
X0092175Y0211743D01*
X0092467Y0211037D01*
X0092932Y0210432D01*
X0093537Y0209967D01*
X0094243Y0209675D01*
X0095000Y0209575D01*
X0095757Y0209675D01*
X0096463Y0209967D01*
X0097068Y0210432D01*
X0097533Y0211037D01*
X0097825Y0211743D01*
X0097925Y0212500D01*
X0097825Y0213257D01*
X0097533Y0213963D01*
X0097068Y0214568D01*
X0096463Y0215033D01*
X0095757Y0215325D01*
X0095000Y0215425D01*
D02*
G37*
G36*
X0210000Y0213425D02*
X0209243Y0213325D01*
X0208538Y0213033D01*
X0207932Y0212568D01*
X0207467Y0211963D01*
X0207175Y0211257D01*
X0207075Y0210500D01*
X0207175Y0209743D01*
X0207467Y0209037D01*
X0207932Y0208432D01*
X0208538Y0207967D01*
X0209243Y0207675D01*
X0210000Y0207575D01*
X0210757Y0207675D01*
X0211462Y0207967D01*
X0212068Y0208432D01*
X0212533Y0209037D01*
X0212825Y0209743D01*
X0212925Y0210500D01*
X0212825Y0211257D01*
X0212533Y0211963D01*
X0212068Y0212568D01*
X0211462Y0213033D01*
X0210757Y0213325D01*
X0210000Y0213425D01*
D02*
G37*
G36*
X0237000Y0201243D02*
X0236142Y0201072D01*
X0235414Y0200586D01*
X0234928Y0199858D01*
X0234757Y0199000D01*
X0234928Y0198142D01*
X0235414Y0197414D01*
X0236142Y0196928D01*
X0237000Y0196757D01*
X0237858Y0196928D01*
X0238586Y0197414D01*
X0239072Y0198142D01*
X0239243Y0199000D01*
X0239072Y0199858D01*
X0238586Y0200586D01*
X0237858Y0201072D01*
X0237000Y0201243D01*
D02*
G37*
G36*
X0226500Y0197243D02*
X0225642Y0197072D01*
X0224914Y0196586D01*
X0224428Y0195858D01*
X0224257Y0195000D01*
X0224428Y0194142D01*
X0224914Y0193414D01*
X0225642Y0192928D01*
X0226500Y0192757D01*
X0227358Y0192928D01*
X0228086Y0193414D01*
X0228572Y0194142D01*
X0228743Y0195000D01*
X0228572Y0195858D01*
X0228086Y0196586D01*
X0227358Y0197072D01*
X0226500Y0197243D01*
D02*
G37*
G36*
X0066500Y0194427D02*
X0065954Y0194319D01*
X0065491Y0194009D01*
X0065181Y0193546D01*
X0065073Y0193000D01*
X0065181Y0192454D01*
X0065491Y0191991D01*
X0065954Y0191681D01*
X0066500Y0191573D01*
X0067046Y0191681D01*
X0067509Y0191991D01*
X0067819Y0192454D01*
X0067927Y0193000D01*
X0067819Y0193546D01*
X0067509Y0194009D01*
X0067046Y0194319D01*
X0066500Y0194427D01*
D02*
G37*
G36*
X0132852Y0190580D02*
X0132306Y0190471D01*
X0131843Y0190162D01*
X0131534Y0189699D01*
X0131425Y0189152D01*
X0131534Y0188606D01*
X0131843Y0188143D01*
X0132306Y0187834D01*
X0132852Y0187725D01*
X0133399Y0187834D01*
X0133862Y0188143D01*
X0134171Y0188606D01*
X0134280Y0189152D01*
X0134171Y0189699D01*
X0133862Y0190162D01*
X0133399Y0190471D01*
X0132852Y0190580D01*
D02*
G37*
G36*
X0168462Y0190466D02*
X0167915Y0190357D01*
X0167452Y0190048D01*
X0167143Y0189585D01*
X0167034Y0189038D01*
X0167143Y0188492D01*
X0167452Y0188029D01*
X0167915Y0187720D01*
X0168462Y0187611D01*
X0169008Y0187720D01*
X0169471Y0188029D01*
X0169781Y0188492D01*
X0169889Y0189038D01*
X0169781Y0189585D01*
X0169471Y0190048D01*
X0169008Y0190357D01*
X0168462Y0190466D01*
D02*
G37*
G36*
X0054000Y0191889D02*
X0053243Y0191789D01*
X0052538Y0191497D01*
X0051932Y0191032D01*
X0051467Y0190426D01*
X0051175Y0189721D01*
X0051075Y0188964D01*
X0051175Y0188207D01*
X0051467Y0187501D01*
X0051932Y0186895D01*
X0052538Y0186430D01*
X0053243Y0186138D01*
X0054000Y0186039D01*
X0054757Y0186138D01*
X0055462Y0186430D01*
X0056068Y0186895D01*
X0056533Y0187501D01*
X0056825Y0188207D01*
X0056925Y0188964D01*
X0056825Y0189721D01*
X0056533Y0190426D01*
X0056068Y0191032D01*
X0055462Y0191497D01*
X0054757Y0191789D01*
X0054000Y0191889D01*
D02*
G37*
G36*
X0087500Y0185927D02*
X0086954Y0185819D01*
X0086491Y0185509D01*
X0086181Y0185046D01*
X0086073Y0184500D01*
X0086181Y0183954D01*
X0086491Y0183491D01*
X0086954Y0183181D01*
X0087500Y0183073D01*
X0088046Y0183181D01*
X0088509Y0183491D01*
X0088819Y0183954D01*
X0088927Y0184500D01*
X0088819Y0185046D01*
X0088509Y0185509D01*
X0088046Y0185819D01*
X0087500Y0185927D01*
D02*
G37*
G36*
X0202500Y0185427D02*
X0201954Y0185319D01*
X0201491Y0185009D01*
X0201181Y0184546D01*
X0201073Y0184000D01*
X0201181Y0183454D01*
X0201491Y0182991D01*
X0201954Y0182681D01*
X0202500Y0182573D01*
X0203046Y0182681D01*
X0203509Y0182991D01*
X0203819Y0183454D01*
X0203927Y0184000D01*
X0203819Y0184546D01*
X0203509Y0185009D01*
X0203046Y0185319D01*
X0202500Y0185427D01*
D02*
G37*
G36*
X0005000Y0181131D02*
X0004376Y0181007D01*
X0003847Y0180654D01*
X0003493Y0180124D01*
X0003369Y0179500D01*
X0003493Y0178876D01*
X0003847Y0178347D01*
X0004376Y0177993D01*
X0005000Y0177869D01*
X0005624Y0177993D01*
X0006154Y0178347D01*
X0006507Y0178876D01*
X0006631Y0179500D01*
X0006507Y0180124D01*
X0006154Y0180654D01*
X0005624Y0181007D01*
X0005000Y0181131D01*
D02*
G37*
G36*
X0152500Y0182925D02*
X0151743Y0182825D01*
X0151038Y0182533D01*
X0150432Y0182068D01*
X0149967Y0181463D01*
X0149675Y0180757D01*
X0149575Y0180000D01*
X0149675Y0179243D01*
X0149967Y0178537D01*
X0150432Y0177932D01*
X0151038Y0177467D01*
X0151743Y0177175D01*
X0152500Y0177075D01*
X0153257Y0177175D01*
X0153963Y0177467D01*
X0154568Y0177932D01*
X0155033Y0178537D01*
X0155325Y0179243D01*
X0155425Y0180000D01*
X0155325Y0180757D01*
X0155033Y0181463D01*
X0154568Y0182068D01*
X0153963Y0182533D01*
X0153257Y0182825D01*
X0152500Y0182925D01*
D02*
G37*
G36*
X0110000D02*
X0109243Y0182825D01*
X0108537Y0182533D01*
X0107932Y0182068D01*
X0107467Y0181463D01*
X0107175Y0180757D01*
X0107075Y0180000D01*
X0107175Y0179243D01*
X0107467Y0178537D01*
X0107932Y0177932D01*
X0108537Y0177467D01*
X0109243Y0177175D01*
X0110000Y0177075D01*
X0110757Y0177175D01*
X0111462Y0177467D01*
X0112068Y0177932D01*
X0112533Y0178537D01*
X0112825Y0179243D01*
X0112925Y0180000D01*
X0112825Y0180757D01*
X0112533Y0181463D01*
X0112068Y0182068D01*
X0111462Y0182533D01*
X0110757Y0182825D01*
X0110000Y0182925D01*
D02*
G37*
G36*
X0092500D02*
X0091743Y0182825D01*
X0091037Y0182533D01*
X0090432Y0182068D01*
X0089967Y0181463D01*
X0089675Y0180757D01*
X0089575Y0180000D01*
X0089675Y0179243D01*
X0089967Y0178537D01*
X0090432Y0177932D01*
X0091037Y0177467D01*
X0091743Y0177175D01*
X0092500Y0177075D01*
X0093257Y0177175D01*
X0093963Y0177467D01*
X0094568Y0177932D01*
X0095033Y0178537D01*
X0095325Y0179243D01*
X0095425Y0180000D01*
X0095325Y0180757D01*
X0095033Y0181463D01*
X0094568Y0182068D01*
X0093963Y0182533D01*
X0093257Y0182825D01*
X0092500Y0182925D01*
D02*
G37*
G36*
X0074500D02*
X0073743Y0182825D01*
X0073037Y0182533D01*
X0072432Y0182068D01*
X0071967Y0181463D01*
X0071675Y0180757D01*
X0071575Y0180000D01*
X0071675Y0179243D01*
X0071967Y0178537D01*
X0072432Y0177932D01*
X0073037Y0177467D01*
X0073743Y0177175D01*
X0074500Y0177075D01*
X0075257Y0177175D01*
X0075963Y0177467D01*
X0076568Y0177932D01*
X0077033Y0178537D01*
X0077325Y0179243D01*
X0077425Y0180000D01*
X0077325Y0180757D01*
X0077033Y0181463D01*
X0076568Y0182068D01*
X0075963Y0182533D01*
X0075257Y0182825D01*
X0074500Y0182925D01*
D02*
G37*
G36*
X0190000Y0182825D02*
X0189243Y0182725D01*
X0188538Y0182433D01*
X0187932Y0181968D01*
X0187467Y0181362D01*
X0187175Y0180657D01*
X0187075Y0179900D01*
X0187175Y0179143D01*
X0187467Y0178437D01*
X0187932Y0177832D01*
X0188538Y0177367D01*
X0189243Y0177075D01*
X0190000Y0176975D01*
X0190757Y0177075D01*
X0191463Y0177367D01*
X0192068Y0177832D01*
X0192533Y0178437D01*
X0192825Y0179143D01*
X0192925Y0179900D01*
X0192825Y0180657D01*
X0192533Y0181362D01*
X0192068Y0181968D01*
X0191463Y0182433D01*
X0190757Y0182725D01*
X0190000Y0182825D01*
D02*
G37*
G36*
X0005000Y0176031D02*
X0004376Y0175907D01*
X0003847Y0175554D01*
X0003493Y0175024D01*
X0003369Y0174400D01*
X0003493Y0173776D01*
X0003847Y0173247D01*
X0004376Y0172893D01*
X0005000Y0172769D01*
X0005624Y0172893D01*
X0006154Y0173247D01*
X0006507Y0173776D01*
X0006631Y0174400D01*
X0006507Y0175024D01*
X0006154Y0175554D01*
X0005624Y0175907D01*
X0005000Y0176031D01*
D02*
G37*
G36*
X0219000Y0177925D02*
X0218243Y0177825D01*
X0217537Y0177533D01*
X0216932Y0177068D01*
X0216467Y0176462D01*
X0216175Y0175757D01*
X0216075Y0175000D01*
X0216175Y0174243D01*
X0216467Y0173538D01*
X0216932Y0172932D01*
X0217537Y0172467D01*
X0218243Y0172175D01*
X0219000Y0172075D01*
X0219757Y0172175D01*
X0220462Y0172467D01*
X0221068Y0172932D01*
X0221533Y0173538D01*
X0221825Y0174243D01*
X0221925Y0175000D01*
X0221825Y0175757D01*
X0221533Y0176462D01*
X0221068Y0177068D01*
X0220462Y0177533D01*
X0219757Y0177825D01*
X0219000Y0177925D01*
D02*
G37*
G36*
X0194500D02*
X0193743Y0177825D01*
X0193037Y0177533D01*
X0192432Y0177068D01*
X0191967Y0176462D01*
X0191675Y0175757D01*
X0191575Y0175000D01*
X0191675Y0174243D01*
X0191967Y0173538D01*
X0192432Y0172932D01*
X0193037Y0172467D01*
X0193743Y0172175D01*
X0194500Y0172075D01*
X0195257Y0172175D01*
X0195963Y0172467D01*
X0196568Y0172932D01*
X0197033Y0173538D01*
X0197325Y0174243D01*
X0197425Y0175000D01*
X0197325Y0175757D01*
X0197033Y0176462D01*
X0196568Y0177068D01*
X0195963Y0177533D01*
X0195257Y0177825D01*
X0194500Y0177925D01*
D02*
G37*
G36*
X0026500Y0166743D02*
X0025642Y0166572D01*
X0024914Y0166086D01*
X0024428Y0165358D01*
X0024257Y0164500D01*
X0024428Y0163642D01*
X0024914Y0162914D01*
X0025642Y0162428D01*
X0026500Y0162257D01*
X0027358Y0162428D01*
X0028086Y0162914D01*
X0028572Y0163642D01*
X0028743Y0164500D01*
X0028572Y0165358D01*
X0028086Y0166086D01*
X0027358Y0166572D01*
X0026500Y0166743D01*
D02*
G37*
G36*
X0226500Y0163243D02*
X0225642Y0163072D01*
X0224914Y0162586D01*
X0224428Y0161858D01*
X0224257Y0161000D01*
X0224428Y0160142D01*
X0224914Y0159414D01*
X0225642Y0158928D01*
X0226500Y0158757D01*
X0227358Y0158928D01*
X0228086Y0159414D01*
X0228572Y0160142D01*
X0228743Y0161000D01*
X0228572Y0161858D01*
X0228086Y0162586D01*
X0227358Y0163072D01*
X0226500Y0163243D01*
D02*
G37*
G36*
X0160000Y0162925D02*
X0159243Y0162825D01*
X0158537Y0162533D01*
X0157932Y0162068D01*
X0157467Y0161462D01*
X0157175Y0160757D01*
X0157075Y0160000D01*
X0157175Y0159243D01*
X0157467Y0158537D01*
X0157932Y0157932D01*
X0158537Y0157467D01*
X0159243Y0157175D01*
X0160000Y0157075D01*
X0160757Y0157175D01*
X0161462Y0157467D01*
X0162068Y0157932D01*
X0162533Y0158537D01*
X0162825Y0159243D01*
X0162925Y0160000D01*
X0162825Y0160757D01*
X0162533Y0161462D01*
X0162068Y0162068D01*
X0161462Y0162533D01*
X0160757Y0162825D01*
X0160000Y0162925D01*
D02*
G37*
G36*
X0120000D02*
X0119243Y0162825D01*
X0118537Y0162533D01*
X0117932Y0162068D01*
X0117467Y0161462D01*
X0117175Y0160757D01*
X0117075Y0160000D01*
X0117175Y0159243D01*
X0117467Y0158537D01*
X0117932Y0157932D01*
X0118537Y0157467D01*
X0119243Y0157175D01*
X0120000Y0157075D01*
X0120757Y0157175D01*
X0121463Y0157467D01*
X0122068Y0157932D01*
X0122533Y0158537D01*
X0122825Y0159243D01*
X0122925Y0160000D01*
X0122825Y0160757D01*
X0122533Y0161462D01*
X0122068Y0162068D01*
X0121463Y0162533D01*
X0120757Y0162825D01*
X0120000Y0162925D01*
D02*
G37*
G36*
X0146843Y0144026D02*
X0146059Y0143923D01*
X0145330Y0143621D01*
X0144703Y0143140D01*
X0144222Y0142513D01*
X0143920Y0141783D01*
X0143817Y0141000D01*
X0143920Y0140217D01*
X0144222Y0139487D01*
X0144703Y0138860D01*
X0145330Y0138380D01*
X0146059Y0138077D01*
X0146843Y0137974D01*
X0147626Y0138077D01*
X0148355Y0138380D01*
X0148982Y0138860D01*
X0149463Y0139487D01*
X0149765Y0140217D01*
X0149868Y0141000D01*
X0149765Y0141783D01*
X0149463Y0142513D01*
X0148982Y0143140D01*
X0148355Y0143621D01*
X0147626Y0143923D01*
X0146843Y0144026D01*
D02*
G37*
G36*
X0127157D02*
X0126374Y0143923D01*
X0125645Y0143621D01*
X0125018Y0143140D01*
X0124537Y0142513D01*
X0124235Y0141783D01*
X0124132Y0141000D01*
X0124235Y0140217D01*
X0124537Y0139487D01*
X0125018Y0138860D01*
X0125645Y0138380D01*
X0126374Y0138077D01*
X0127157Y0137974D01*
X0127941Y0138077D01*
X0128670Y0138380D01*
X0129297Y0138860D01*
X0129778Y0139487D01*
X0130080Y0140217D01*
X0130183Y0141000D01*
X0130080Y0141783D01*
X0129778Y0142513D01*
X0129297Y0143140D01*
X0128670Y0143621D01*
X0127941Y0143923D01*
X0127157Y0144026D01*
D02*
G37*
G36*
X0160000Y0122925D02*
X0159243Y0122825D01*
X0158537Y0122533D01*
X0157932Y0122068D01*
X0157467Y0121463D01*
X0157175Y0120757D01*
X0157075Y0120000D01*
X0157175Y0119243D01*
X0157467Y0118537D01*
X0157932Y0117932D01*
X0158537Y0117467D01*
X0159243Y0117175D01*
X0160000Y0117075D01*
X0160757Y0117175D01*
X0161462Y0117467D01*
X0162068Y0117932D01*
X0162533Y0118537D01*
X0162825Y0119243D01*
X0162925Y0120000D01*
X0162825Y0120757D01*
X0162533Y0121463D01*
X0162068Y0122068D01*
X0161462Y0122533D01*
X0160757Y0122825D01*
X0160000Y0122925D01*
D02*
G37*
G36*
X0120000D02*
X0119243Y0122825D01*
X0118537Y0122533D01*
X0117932Y0122068D01*
X0117467Y0121463D01*
X0117175Y0120757D01*
X0117075Y0120000D01*
X0117175Y0119243D01*
X0117467Y0118537D01*
X0117932Y0117932D01*
X0118537Y0117467D01*
X0119243Y0117175D01*
X0120000Y0117075D01*
X0120757Y0117175D01*
X0121463Y0117467D01*
X0122068Y0117932D01*
X0122533Y0118537D01*
X0122825Y0119243D01*
X0122925Y0120000D01*
X0122825Y0120757D01*
X0122533Y0121463D01*
X0122068Y0122068D01*
X0121463Y0122533D01*
X0120757Y0122825D01*
X0120000Y0122925D01*
D02*
G37*
G36*
X0272000Y0120743D02*
X0271142Y0120572D01*
X0270414Y0120086D01*
X0269928Y0119358D01*
X0269757Y0118500D01*
X0269928Y0117642D01*
X0270414Y0116914D01*
X0271142Y0116428D01*
X0272000Y0116257D01*
X0272858Y0116428D01*
X0273586Y0116914D01*
X0274072Y0117642D01*
X0274243Y0118500D01*
X0274072Y0119358D01*
X0273586Y0120086D01*
X0272858Y0120572D01*
X0272000Y0120743D01*
D02*
G37*
G36*
X0287500Y0108993D02*
X0286642Y0108822D01*
X0285914Y0108336D01*
X0285428Y0107608D01*
X0285257Y0106750D01*
X0285428Y0105892D01*
X0285914Y0105164D01*
X0286642Y0104678D01*
X0287500Y0104507D01*
X0288358Y0104678D01*
X0289086Y0105164D01*
X0289572Y0105892D01*
X0289743Y0106750D01*
X0289572Y0107608D01*
X0289086Y0108336D01*
X0288358Y0108822D01*
X0287500Y0108993D01*
D02*
G37*
G36*
X0170000Y0102925D02*
X0169243Y0102825D01*
X0168537Y0102533D01*
X0167932Y0102068D01*
X0167467Y0101462D01*
X0167175Y0100757D01*
X0167075Y0100000D01*
X0167175Y0099243D01*
X0167467Y0098537D01*
X0167932Y0097932D01*
X0168537Y0097467D01*
X0169243Y0097175D01*
X0170000Y0097075D01*
X0170757Y0097175D01*
X0171463Y0097467D01*
X0172068Y0097932D01*
X0172533Y0098537D01*
X0172825Y0099243D01*
X0172925Y0100000D01*
X0172825Y0100757D01*
X0172533Y0101462D01*
X0172068Y0102068D01*
X0171463Y0102533D01*
X0170757Y0102825D01*
X0170000Y0102925D01*
D02*
G37*
G36*
X0130000D02*
X0129243Y0102825D01*
X0128537Y0102533D01*
X0127932Y0102068D01*
X0127467Y0101462D01*
X0127175Y0100757D01*
X0127075Y0100000D01*
X0127175Y0099243D01*
X0127467Y0098537D01*
X0127932Y0097932D01*
X0128537Y0097467D01*
X0129243Y0097175D01*
X0130000Y0097075D01*
X0130757Y0097175D01*
X0131463Y0097467D01*
X0132068Y0097932D01*
X0132533Y0098537D01*
X0132825Y0099243D01*
X0132925Y0100000D01*
X0132825Y0100757D01*
X0132533Y0101462D01*
X0132068Y0102068D01*
X0131463Y0102533D01*
X0130757Y0102825D01*
X0130000Y0102925D01*
D02*
G37*
G36*
X0110000D02*
X0109243Y0102825D01*
X0108537Y0102533D01*
X0107932Y0102068D01*
X0107467Y0101462D01*
X0107175Y0100757D01*
X0107075Y0100000D01*
X0107175Y0099243D01*
X0107467Y0098537D01*
X0107932Y0097932D01*
X0108537Y0097467D01*
X0109243Y0097175D01*
X0110000Y0097075D01*
X0110757Y0097175D01*
X0111462Y0097467D01*
X0112068Y0097932D01*
X0112533Y0098537D01*
X0112825Y0099243D01*
X0112925Y0100000D01*
X0112825Y0100757D01*
X0112533Y0101462D01*
X0112068Y0102068D01*
X0111462Y0102533D01*
X0110757Y0102825D01*
X0110000Y0102925D01*
D02*
G37*
G36*
X0090000D02*
X0089243Y0102825D01*
X0088538Y0102533D01*
X0087932Y0102068D01*
X0087467Y0101462D01*
X0087175Y0100757D01*
X0087075Y0100000D01*
X0087175Y0099243D01*
X0087467Y0098537D01*
X0087932Y0097932D01*
X0088538Y0097467D01*
X0089243Y0097175D01*
X0090000Y0097075D01*
X0090757Y0097175D01*
X0091462Y0097467D01*
X0092068Y0097932D01*
X0092533Y0098537D01*
X0092825Y0099243D01*
X0092925Y0100000D01*
X0092825Y0100757D01*
X0092533Y0101462D01*
X0092068Y0102068D01*
X0091462Y0102533D01*
X0090757Y0102825D01*
X0090000Y0102925D01*
D02*
G37*
G36*
X0221975Y0090118D02*
X0221117Y0089947D01*
X0220389Y0089461D01*
X0219903Y0088733D01*
X0219732Y0087875D01*
X0219903Y0087017D01*
X0220389Y0086289D01*
X0221117Y0085803D01*
X0221975Y0085632D01*
X0222833Y0085803D01*
X0223561Y0086289D01*
X0224047Y0087017D01*
X0224218Y0087875D01*
X0224047Y0088733D01*
X0223561Y0089461D01*
X0222833Y0089947D01*
X0221975Y0090118D01*
D02*
G37*
G36*
X0278000Y0089743D02*
X0277142Y0089572D01*
X0276414Y0089086D01*
X0275928Y0088358D01*
X0275757Y0087500D01*
X0275928Y0086642D01*
X0276414Y0085914D01*
X0277142Y0085428D01*
X0278000Y0085257D01*
X0278858Y0085428D01*
X0279586Y0085914D01*
X0280072Y0086642D01*
X0280243Y0087500D01*
X0280072Y0088358D01*
X0279586Y0089086D01*
X0278858Y0089572D01*
X0278000Y0089743D01*
D02*
G37*
G36*
X0309500Y0084243D02*
X0308642Y0084072D01*
X0307914Y0083586D01*
X0307428Y0082858D01*
X0307257Y0082000D01*
X0307428Y0081142D01*
X0307914Y0080414D01*
X0308642Y0079928D01*
X0309500Y0079757D01*
X0310358Y0079928D01*
X0311086Y0080414D01*
X0311572Y0081142D01*
X0311743Y0082000D01*
X0311572Y0082858D01*
X0311086Y0083586D01*
X0310358Y0084072D01*
X0309500Y0084243D01*
D02*
G37*
G36*
X0146843Y0086144D02*
X0145770Y0086002D01*
X0144771Y0085589D01*
X0143912Y0084930D01*
X0143254Y0084072D01*
X0142840Y0083073D01*
X0142699Y0082000D01*
X0142840Y0080927D01*
X0143254Y0079928D01*
X0143912Y0079070D01*
X0144771Y0078411D01*
X0145770Y0077997D01*
X0146843Y0077856D01*
X0147915Y0077997D01*
X0148914Y0078411D01*
X0149773Y0079070D01*
X0150431Y0079928D01*
X0150845Y0080927D01*
X0150986Y0082000D01*
X0150845Y0083073D01*
X0150431Y0084072D01*
X0149773Y0084930D01*
X0148914Y0085589D01*
X0147915Y0086002D01*
X0146843Y0086144D01*
D02*
G37*
G36*
X0127157D02*
X0126085Y0086002D01*
X0125086Y0085589D01*
X0124227Y0084930D01*
X0123569Y0084072D01*
X0123155Y0083073D01*
X0123014Y0082000D01*
X0123155Y0080927D01*
X0123569Y0079928D01*
X0124227Y0079070D01*
X0125086Y0078411D01*
X0126085Y0077997D01*
X0127157Y0077856D01*
X0128230Y0077997D01*
X0129229Y0078411D01*
X0130087Y0079070D01*
X0130746Y0079928D01*
X0131160Y0080927D01*
X0131301Y0082000D01*
X0131160Y0083073D01*
X0130746Y0084072D01*
X0130087Y0084930D01*
X0129229Y0085589D01*
X0128230Y0086002D01*
X0127157Y0086144D01*
D02*
G37*
G36*
X0180000Y0082925D02*
X0179243Y0082825D01*
X0178537Y0082533D01*
X0177932Y0082068D01*
X0177467Y0081463D01*
X0177175Y0080757D01*
X0177075Y0080000D01*
X0177175Y0079243D01*
X0177467Y0078537D01*
X0177932Y0077932D01*
X0178537Y0077467D01*
X0179243Y0077175D01*
X0180000Y0077075D01*
X0180757Y0077175D01*
X0181463Y0077467D01*
X0182068Y0077932D01*
X0182533Y0078537D01*
X0182825Y0079243D01*
X0182925Y0080000D01*
X0182825Y0080757D01*
X0182533Y0081463D01*
X0182068Y0082068D01*
X0181463Y0082533D01*
X0180757Y0082825D01*
X0180000Y0082925D01*
D02*
G37*
G36*
X0100000D02*
X0099243Y0082825D01*
X0098537Y0082533D01*
X0097932Y0082068D01*
X0097467Y0081463D01*
X0097175Y0080757D01*
X0097075Y0080000D01*
X0097175Y0079243D01*
X0097467Y0078537D01*
X0097932Y0077932D01*
X0098537Y0077467D01*
X0099243Y0077175D01*
X0100000Y0077075D01*
X0100757Y0077175D01*
X0101462Y0077467D01*
X0102068Y0077932D01*
X0102533Y0078537D01*
X0102825Y0079243D01*
X0102925Y0080000D01*
X0102825Y0080757D01*
X0102533Y0081463D01*
X0102068Y0082068D01*
X0101462Y0082533D01*
X0100757Y0082825D01*
X0100000Y0082925D01*
D02*
G37*
G36*
X0190000Y0062925D02*
X0189243Y0062825D01*
X0188538Y0062533D01*
X0187932Y0062068D01*
X0187467Y0061462D01*
X0187175Y0060757D01*
X0187075Y0060000D01*
X0187175Y0059243D01*
X0187467Y0058538D01*
X0187932Y0057932D01*
X0188538Y0057467D01*
X0189243Y0057175D01*
X0190000Y0057075D01*
X0190757Y0057175D01*
X0191463Y0057467D01*
X0192068Y0057932D01*
X0192533Y0058538D01*
X0192825Y0059243D01*
X0192925Y0060000D01*
X0192825Y0060757D01*
X0192533Y0061462D01*
X0192068Y0062068D01*
X0191463Y0062533D01*
X0190757Y0062825D01*
X0190000Y0062925D01*
D02*
G37*
G36*
X0170000D02*
X0169243Y0062825D01*
X0168537Y0062533D01*
X0167932Y0062068D01*
X0167467Y0061462D01*
X0167175Y0060757D01*
X0167075Y0060000D01*
X0167175Y0059243D01*
X0167467Y0058538D01*
X0167932Y0057932D01*
X0168537Y0057467D01*
X0169243Y0057175D01*
X0170000Y0057075D01*
X0170757Y0057175D01*
X0171463Y0057467D01*
X0172068Y0057932D01*
X0172533Y0058538D01*
X0172825Y0059243D01*
X0172925Y0060000D01*
X0172825Y0060757D01*
X0172533Y0061462D01*
X0172068Y0062068D01*
X0171463Y0062533D01*
X0170757Y0062825D01*
X0170000Y0062925D01*
D02*
G37*
G36*
X0130000D02*
X0129243Y0062825D01*
X0128537Y0062533D01*
X0127932Y0062068D01*
X0127467Y0061462D01*
X0127175Y0060757D01*
X0127075Y0060000D01*
X0127175Y0059243D01*
X0127467Y0058538D01*
X0127932Y0057932D01*
X0128537Y0057467D01*
X0129243Y0057175D01*
X0130000Y0057075D01*
X0130757Y0057175D01*
X0131463Y0057467D01*
X0132068Y0057932D01*
X0132533Y0058538D01*
X0132825Y0059243D01*
X0132925Y0060000D01*
X0132825Y0060757D01*
X0132533Y0061462D01*
X0132068Y0062068D01*
X0131463Y0062533D01*
X0130757Y0062825D01*
X0130000Y0062925D01*
D02*
G37*
G36*
X0110000D02*
X0109243Y0062825D01*
X0108537Y0062533D01*
X0107932Y0062068D01*
X0107467Y0061462D01*
X0107175Y0060757D01*
X0107075Y0060000D01*
X0107175Y0059243D01*
X0107467Y0058538D01*
X0107932Y0057932D01*
X0108537Y0057467D01*
X0109243Y0057175D01*
X0110000Y0057075D01*
X0110757Y0057175D01*
X0111462Y0057467D01*
X0112068Y0057932D01*
X0112533Y0058538D01*
X0112825Y0059243D01*
X0112925Y0060000D01*
X0112825Y0060757D01*
X0112533Y0061462D01*
X0112068Y0062068D01*
X0111462Y0062533D01*
X0110757Y0062825D01*
X0110000Y0062925D01*
D02*
G37*
G36*
X0090000D02*
X0089243Y0062825D01*
X0088538Y0062533D01*
X0087932Y0062068D01*
X0087467Y0061462D01*
X0087175Y0060757D01*
X0087075Y0060000D01*
X0087175Y0059243D01*
X0087467Y0058538D01*
X0087932Y0057932D01*
X0088538Y0057467D01*
X0089243Y0057175D01*
X0090000Y0057075D01*
X0090757Y0057175D01*
X0091462Y0057467D01*
X0092068Y0057932D01*
X0092533Y0058538D01*
X0092825Y0059243D01*
X0092925Y0060000D01*
X0092825Y0060757D01*
X0092533Y0061462D01*
X0092068Y0062068D01*
X0091462Y0062533D01*
X0090757Y0062825D01*
X0090000Y0062925D01*
D02*
G37*
G36*
X0306685Y0044438D02*
X0305795Y0044320D01*
X0304966Y0043977D01*
X0304254Y0043431D01*
X0303708Y0042719D01*
X0303364Y0041890D01*
X0303247Y0041000D01*
X0303364Y0040110D01*
X0303708Y0039281D01*
X0304254Y0038569D01*
X0304966Y0038023D01*
X0305795Y0037679D01*
X0306685Y0037562D01*
X0307575Y0037679D01*
X0308404Y0038023D01*
X0309116Y0038569D01*
X0309662Y0039281D01*
X0310006Y0040110D01*
X0310123Y0041000D01*
X0310006Y0041890D01*
X0309662Y0042719D01*
X0309116Y0043431D01*
X0308404Y0043977D01*
X0307575Y0044320D01*
X0306685Y0044438D01*
D02*
G37*
G36*
X0287000D02*
X0286110Y0044320D01*
X0285281Y0043977D01*
X0284569Y0043431D01*
X0284023Y0042719D01*
X0283680Y0041890D01*
X0283562Y0041000D01*
X0283680Y0040110D01*
X0284023Y0039281D01*
X0284569Y0038569D01*
X0285281Y0038023D01*
X0286110Y0037679D01*
X0287000Y0037562D01*
X0287890Y0037679D01*
X0288719Y0038023D01*
X0289431Y0038569D01*
X0289977Y0039281D01*
X0290320Y0040110D01*
X0290438Y0041000D01*
X0290320Y0041890D01*
X0289977Y0042719D01*
X0289431Y0043431D01*
X0288719Y0043977D01*
X0287890Y0044320D01*
X0287000Y0044438D01*
D02*
G37*
G36*
X0334646Y0029638D02*
X0332704Y0029447D01*
X0330837Y0028881D01*
X0329116Y0027961D01*
X0327607Y0026723D01*
X0326370Y0025215D01*
X0325450Y0023494D01*
X0324884Y0021627D01*
X0324692Y0019685D01*
X0324884Y0017743D01*
X0325450Y0015876D01*
X0326370Y0014155D01*
X0327607Y0012647D01*
X0329116Y0011409D01*
X0330837Y0010489D01*
X0332704Y0009923D01*
X0334646Y0009732D01*
X0336588Y0009923D01*
X0338455Y0010489D01*
X0340176Y0011409D01*
X0341684Y0012647D01*
X0342922Y0014155D01*
X0343841Y0015876D01*
X0344408Y0017743D01*
X0344599Y0019685D01*
X0344408Y0021627D01*
X0343841Y0023494D01*
X0342922Y0025215D01*
X0341684Y0026723D01*
X0340176Y0027961D01*
X0338455Y0028881D01*
X0336588Y0029447D01*
X0334646Y0029638D01*
D02*
G37*
G36*
X0019685D02*
X0017743Y0029447D01*
X0015876Y0028881D01*
X0014155Y0027961D01*
X0012647Y0026723D01*
X0011409Y0025215D01*
X0010489Y0023494D01*
X0009923Y0021627D01*
X0009732Y0019685D01*
X0009923Y0017743D01*
X0010489Y0015876D01*
X0011409Y0014155D01*
X0012647Y0012647D01*
X0014155Y0011409D01*
X0015876Y0010489D01*
X0017743Y0009923D01*
X0019685Y0009732D01*
X0021627Y0009923D01*
X0023494Y0010489D01*
X0025215Y0011409D01*
X0026723Y0012647D01*
X0027961Y0014155D01*
X0028881Y0015876D01*
X0029447Y0017743D01*
X0029638Y0019685D01*
X0029447Y0021627D01*
X0028881Y0023494D01*
X0027961Y0025215D01*
X0026723Y0026723D01*
X0025215Y0027961D01*
X0023494Y0028881D01*
X0021627Y0029447D01*
X0019685Y0029638D01*
D02*
G37*
%LPD*%
D79*
X0127157Y0309000D02*
D03*
X0267315Y0041000D02*
D03*
D82*
X0263000Y0289000D02*
D03*
X0291000Y0237000D02*
D03*
X0299000Y0217000D02*
D03*
X0050500Y0154850D02*
D03*
X0058500D02*
D03*
X0067000Y0141150D02*
D03*
X0076000D02*
D03*
X0255000Y0248000D02*
D03*
Y0259000D02*
D03*
X0245000Y0270000D02*
D03*
X0236000Y0289000D02*
D03*
X0287900Y0332100D02*
D03*
X0235900Y0332200D02*
D03*
X0282100Y0338700D02*
D03*
X0128000Y0258000D02*
D03*
X0121500D02*
D03*
Y0247000D02*
D03*
X0117500Y0252500D02*
D03*
X0121500Y0240500D02*
D03*
X0128000Y0237500D02*
D03*
X0289000Y0278000D02*
D03*
X0276000Y0272500D02*
D03*
X0280500Y0278000D02*
D03*
X0285000Y0272500D02*
D03*
X0314000Y0232000D02*
D03*
X0322000Y0238000D02*
D03*
Y0246000D02*
D03*
Y0254000D02*
D03*
Y0262000D02*
D03*
X0254000Y0289000D02*
D03*
X0245000D02*
D03*
X0236000Y0297000D02*
D03*
X0273900Y0338900D02*
D03*
X0265900D02*
D03*
X0257900D02*
D03*
X0249900D02*
D03*
X0241900D02*
D03*
X0227000Y0119000D02*
D03*
X0219000Y0111500D02*
D03*
X0192500Y0140000D02*
D03*
X0211000Y0119000D02*
D03*
X0193500Y0107500D02*
D03*
X0021000Y0149500D02*
D03*
X0194500Y0158000D02*
D03*
X0199500Y0151500D02*
D03*
X0054500Y0160000D02*
D03*
X0080500Y0134000D02*
D03*
X0071500D02*
D03*
X0255000Y0270000D02*
D03*
X0076000Y0127000D02*
D03*
X0310500Y0060500D02*
D03*
Y0069000D02*
D03*
X0292000Y0060000D02*
D03*
X0282000D02*
D03*
X0287000Y0070000D02*
D03*
X0345000Y0301000D02*
D03*
X0330000Y0271000D02*
D03*
X0345000Y0241000D02*
D03*
X0330000Y0211000D02*
D03*
X0345000Y0181000D02*
D03*
X0330000Y0151000D02*
D03*
X0345000Y0121000D02*
D03*
X0330000Y0091000D02*
D03*
X0345000Y0061000D02*
D03*
X0300000Y0331000D02*
D03*
X0315000Y0181000D02*
D03*
X0300000Y0151000D02*
D03*
X0315000Y0121000D02*
D03*
X0300000Y0031000D02*
D03*
X0270000D02*
D03*
X0255000Y0121000D02*
D03*
X0240000Y0031000D02*
D03*
X0210000Y0091000D02*
D03*
X0225000Y0061000D02*
D03*
X0210000Y0031000D02*
D03*
X0180000Y0331000D02*
D03*
X0150000D02*
D03*
X0120000D02*
D03*
X0090000D02*
D03*
X0105000Y0301000D02*
D03*
X0090000Y0271000D02*
D03*
X0105000Y0241000D02*
D03*
X0060000Y0331000D02*
D03*
X0075000Y0301000D02*
D03*
X0060000Y0271000D02*
D03*
X0075000Y0241000D02*
D03*
X0060000Y0211000D02*
D03*
Y0091000D02*
D03*
Y0031000D02*
D03*
X0030000Y0331000D02*
D03*
X0045000Y0301000D02*
D03*
X0030000Y0271000D02*
D03*
X0045000Y0241000D02*
D03*
Y0121000D02*
D03*
X0030000Y0091000D02*
D03*
Y0031000D02*
D03*
X0021500Y0171000D02*
D03*
X0196000Y0145500D02*
D03*
X0203000D02*
D03*
X0199500Y0140000D02*
D03*
X0206500D02*
D03*
X0062500Y0160000D02*
D03*
X0071500Y0121000D02*
D03*
X0062500Y0134000D02*
D03*
X0067000Y0127000D02*
D03*
X0070500Y0160000D02*
D03*
X0078500D02*
D03*
M02*
