G04*
G04 #@! TF.GenerationSoftware,Altium Limited,Altium Designer,20.1.12 (249)*
G04*
G04 Layer_Physical_Order=3*
G04 Layer_Color=16440176*
%FSAX25Y25*%
%MOIN*%
G70*
G04*
G04 #@! TF.SameCoordinates,6129B4E8-B8F0-4C57-AE18-1B9BDFF8F3C9*
G04*
G04*
G04 #@! TF.FilePolarity,Positive*
G04*
G01*
G75*
%ADD79C,0.09000*%
%ADD81C,0.06000*%
%ADD82C,0.05000*%
G36*
X0346764Y0361834D02*
X0348184Y0361246D01*
X0349463Y0360392D01*
X0350550Y0359305D01*
X0351403Y0358027D01*
X0351992Y0356607D01*
X0352292Y0355099D01*
Y0354331D01*
Y0009843D01*
Y0009074D01*
X0351992Y0007566D01*
X0351403Y0006146D01*
X0350550Y0004868D01*
X0349463Y0003781D01*
X0348184Y0002927D01*
X0346764Y0002339D01*
X0345257Y0002039D01*
X0009074D01*
X0007566Y0002339D01*
X0006146Y0002927D01*
X0004868Y0003781D01*
X0003781Y0004868D01*
X0002927Y0006146D01*
X0002339Y0007566D01*
X0002039Y0009074D01*
Y0009843D01*
Y0354331D01*
Y0355099D01*
X0002339Y0356607D01*
X0002927Y0358027D01*
X0003781Y0359305D01*
X0004868Y0360392D01*
X0006146Y0361246D01*
X0007566Y0361834D01*
X0009074Y0362134D01*
X0345257D01*
X0346764Y0361834D01*
D02*
G37*
%LPC*%
G36*
X0273900Y0342934D02*
X0272856Y0342797D01*
X0271883Y0342394D01*
X0271047Y0341753D01*
X0270406Y0340917D01*
X0270171Y0340349D01*
X0269629D01*
X0269394Y0340917D01*
X0268753Y0341753D01*
X0267917Y0342394D01*
X0266944Y0342797D01*
X0265900Y0342934D01*
X0264856Y0342797D01*
X0263883Y0342394D01*
X0263047Y0341753D01*
X0262406Y0340917D01*
X0262171Y0340349D01*
X0261629D01*
X0261394Y0340917D01*
X0260753Y0341753D01*
X0259917Y0342394D01*
X0258944Y0342797D01*
X0257900Y0342934D01*
X0256856Y0342797D01*
X0255883Y0342394D01*
X0255047Y0341753D01*
X0254406Y0340917D01*
X0254171Y0340349D01*
X0253629D01*
X0253394Y0340917D01*
X0252753Y0341753D01*
X0251917Y0342394D01*
X0250944Y0342797D01*
X0249900Y0342934D01*
X0248856Y0342797D01*
X0247883Y0342394D01*
X0247047Y0341753D01*
X0246406Y0340917D01*
X0246171Y0340349D01*
X0245629D01*
X0245394Y0340917D01*
X0244753Y0341753D01*
X0243917Y0342394D01*
X0242944Y0342797D01*
X0241900Y0342934D01*
X0240856Y0342797D01*
X0239883Y0342394D01*
X0239047Y0341753D01*
X0238406Y0340917D01*
X0238003Y0339944D01*
X0237865Y0338900D01*
X0238003Y0337856D01*
X0238406Y0336883D01*
X0239047Y0336047D01*
X0239883Y0335406D01*
X0240856Y0335003D01*
X0241900Y0334865D01*
X0242944Y0335003D01*
X0243917Y0335406D01*
X0244753Y0336047D01*
X0245394Y0336883D01*
X0245629Y0337451D01*
X0246171D01*
X0246406Y0336883D01*
X0247047Y0336047D01*
X0247883Y0335406D01*
X0248856Y0335003D01*
X0249900Y0334865D01*
X0250944Y0335003D01*
X0251917Y0335406D01*
X0252753Y0336047D01*
X0253394Y0336883D01*
X0253629Y0337451D01*
X0254171D01*
X0254406Y0336883D01*
X0255047Y0336047D01*
X0255883Y0335406D01*
X0256856Y0335003D01*
X0257900Y0334865D01*
X0258944Y0335003D01*
X0259917Y0335406D01*
X0260753Y0336047D01*
X0261394Y0336883D01*
X0261629Y0337451D01*
X0262171D01*
X0262406Y0336883D01*
X0263047Y0336047D01*
X0263883Y0335406D01*
X0264856Y0335003D01*
X0265900Y0334865D01*
X0266944Y0335003D01*
X0267917Y0335406D01*
X0268753Y0336047D01*
X0269394Y0336883D01*
X0269629Y0337451D01*
X0270171D01*
X0270406Y0336883D01*
X0271047Y0336047D01*
X0271883Y0335406D01*
X0272856Y0335003D01*
X0273900Y0334865D01*
X0274944Y0335003D01*
X0275917Y0335406D01*
X0276753Y0336047D01*
X0277394Y0336883D01*
X0277702Y0337627D01*
X0278026Y0337646D01*
X0278229Y0337593D01*
X0278606Y0336683D01*
X0279247Y0335847D01*
X0280083Y0335206D01*
X0281056Y0334803D01*
X0282100Y0334665D01*
X0283144Y0334803D01*
X0284117Y0335206D01*
X0284953Y0335847D01*
X0285594Y0336683D01*
X0285997Y0337656D01*
X0286135Y0338700D01*
X0285997Y0339744D01*
X0285594Y0340717D01*
X0284953Y0341553D01*
X0284117Y0342194D01*
X0283144Y0342597D01*
X0282100Y0342735D01*
X0281056Y0342597D01*
X0280083Y0342194D01*
X0279247Y0341553D01*
X0278606Y0340717D01*
X0278298Y0339973D01*
X0277974Y0339954D01*
X0277771Y0340007D01*
X0277394Y0340917D01*
X0276753Y0341753D01*
X0275917Y0342394D01*
X0274944Y0342797D01*
X0273900Y0342934D01*
D02*
G37*
G36*
X0334646Y0356399D02*
X0332782Y0356252D01*
X0330965Y0355816D01*
X0329238Y0355101D01*
X0327645Y0354124D01*
X0326223Y0352910D01*
X0325010Y0351489D01*
X0324033Y0349896D01*
X0323318Y0348169D01*
X0322882Y0346351D01*
X0322735Y0344488D01*
X0322882Y0342625D01*
X0323318Y0340808D01*
X0324033Y0339081D01*
X0325010Y0337487D01*
X0326223Y0336066D01*
X0327645Y0334852D01*
X0328577Y0334281D01*
X0328533Y0333722D01*
X0327983Y0333494D01*
X0327147Y0332853D01*
X0326506Y0332017D01*
X0326103Y0331044D01*
X0325965Y0330000D01*
X0326103Y0328956D01*
X0326506Y0327983D01*
X0327147Y0327147D01*
X0327983Y0326506D01*
X0328956Y0326103D01*
X0330000Y0325965D01*
X0331044Y0326103D01*
X0332017Y0326506D01*
X0332853Y0327147D01*
X0333494Y0327983D01*
X0333897Y0328956D01*
X0334034Y0330000D01*
X0333897Y0331044D01*
X0333494Y0332017D01*
X0333337Y0332222D01*
X0333575Y0332662D01*
X0334646Y0332577D01*
X0336509Y0332724D01*
X0338326Y0333160D01*
X0340053Y0333876D01*
X0341647Y0334852D01*
X0343068Y0336066D01*
X0344282Y0337487D01*
X0345258Y0339081D01*
X0345973Y0340808D01*
X0346410Y0342625D01*
X0346556Y0344488D01*
X0346410Y0346351D01*
X0345973Y0348169D01*
X0345258Y0349896D01*
X0344282Y0351489D01*
X0343068Y0352910D01*
X0341647Y0354124D01*
X0340053Y0355101D01*
X0338326Y0355816D01*
X0336509Y0356252D01*
X0334646Y0356399D01*
D02*
G37*
G36*
X0019685D02*
X0017822Y0356252D01*
X0016004Y0355816D01*
X0014278Y0355101D01*
X0012684Y0354124D01*
X0011263Y0352910D01*
X0010049Y0351489D01*
X0009072Y0349896D01*
X0008357Y0348169D01*
X0007921Y0346351D01*
X0007774Y0344488D01*
X0007921Y0342625D01*
X0008357Y0340808D01*
X0009072Y0339081D01*
X0010049Y0337487D01*
X0011263Y0336066D01*
X0012684Y0334852D01*
X0014278Y0333876D01*
X0016004Y0333160D01*
X0017822Y0332724D01*
X0019685Y0332577D01*
X0021548Y0332724D01*
X0023366Y0333160D01*
X0025092Y0333876D01*
X0026686Y0334852D01*
X0028107Y0336066D01*
X0029321Y0337487D01*
X0030298Y0339081D01*
X0031013Y0340808D01*
X0031449Y0342625D01*
X0031596Y0344488D01*
X0031449Y0346351D01*
X0031013Y0348169D01*
X0030298Y0349896D01*
X0029321Y0351489D01*
X0028107Y0352910D01*
X0026686Y0354124D01*
X0025092Y0355101D01*
X0023366Y0355816D01*
X0021548Y0356252D01*
X0019685Y0356399D01*
D02*
G37*
G36*
X0235900Y0336234D02*
X0234856Y0336097D01*
X0233883Y0335694D01*
X0233047Y0335053D01*
X0232406Y0334217D01*
X0232003Y0333244D01*
X0231866Y0332200D01*
X0232003Y0331156D01*
X0232406Y0330183D01*
X0233047Y0329347D01*
X0233883Y0328706D01*
X0234856Y0328303D01*
X0235900Y0328166D01*
X0236944Y0328303D01*
X0237917Y0328706D01*
X0238753Y0329347D01*
X0239394Y0330183D01*
X0239797Y0331156D01*
X0239934Y0332200D01*
X0239797Y0333244D01*
X0239394Y0334217D01*
X0238753Y0335053D01*
X0237917Y0335694D01*
X0236944Y0336097D01*
X0235900Y0336234D01*
D02*
G37*
G36*
X0287900Y0336135D02*
X0286856Y0335997D01*
X0285883Y0335594D01*
X0285047Y0334953D01*
X0284406Y0334117D01*
X0284003Y0333144D01*
X0283865Y0332100D01*
X0284003Y0331056D01*
X0284406Y0330083D01*
X0285047Y0329247D01*
X0285883Y0328606D01*
X0286856Y0328203D01*
X0287900Y0328065D01*
X0288944Y0328203D01*
X0289917Y0328606D01*
X0290753Y0329247D01*
X0291394Y0330083D01*
X0291797Y0331056D01*
X0291934Y0332100D01*
X0291797Y0333144D01*
X0291394Y0334117D01*
X0290753Y0334953D01*
X0289917Y0335594D01*
X0288944Y0335997D01*
X0287900Y0336135D01*
D02*
G37*
G36*
X0300000Y0334034D02*
X0298956Y0333897D01*
X0297983Y0333494D01*
X0297147Y0332853D01*
X0296506Y0332017D01*
X0296103Y0331044D01*
X0295966Y0330000D01*
X0296103Y0328956D01*
X0296506Y0327983D01*
X0297147Y0327147D01*
X0297983Y0326506D01*
X0298956Y0326103D01*
X0300000Y0325965D01*
X0301044Y0326103D01*
X0302017Y0326506D01*
X0302853Y0327147D01*
X0303494Y0327983D01*
X0303897Y0328956D01*
X0304034Y0330000D01*
X0303897Y0331044D01*
X0303494Y0332017D01*
X0302853Y0332853D01*
X0302017Y0333494D01*
X0301044Y0333897D01*
X0300000Y0334034D01*
D02*
G37*
G36*
X0180000D02*
X0178956Y0333897D01*
X0177983Y0333494D01*
X0177147Y0332853D01*
X0176506Y0332017D01*
X0176103Y0331044D01*
X0175965Y0330000D01*
X0176103Y0328956D01*
X0176506Y0327983D01*
X0177147Y0327147D01*
X0177983Y0326506D01*
X0178956Y0326103D01*
X0180000Y0325965D01*
X0181044Y0326103D01*
X0182017Y0326506D01*
X0182853Y0327147D01*
X0183494Y0327983D01*
X0183897Y0328956D01*
X0184035Y0330000D01*
X0183897Y0331044D01*
X0183494Y0332017D01*
X0182853Y0332853D01*
X0182017Y0333494D01*
X0181044Y0333897D01*
X0180000Y0334034D01*
D02*
G37*
G36*
X0150000D02*
X0148956Y0333897D01*
X0147983Y0333494D01*
X0147147Y0332853D01*
X0146506Y0332017D01*
X0146103Y0331044D01*
X0145966Y0330000D01*
X0146103Y0328956D01*
X0146506Y0327983D01*
X0147147Y0327147D01*
X0147983Y0326506D01*
X0148956Y0326103D01*
X0150000Y0325965D01*
X0151044Y0326103D01*
X0152017Y0326506D01*
X0152853Y0327147D01*
X0153494Y0327983D01*
X0153897Y0328956D01*
X0154034Y0330000D01*
X0153897Y0331044D01*
X0153494Y0332017D01*
X0152853Y0332853D01*
X0152017Y0333494D01*
X0151044Y0333897D01*
X0150000Y0334034D01*
D02*
G37*
G36*
X0120000D02*
X0118956Y0333897D01*
X0117983Y0333494D01*
X0117147Y0332853D01*
X0116506Y0332017D01*
X0116103Y0331044D01*
X0115965Y0330000D01*
X0116103Y0328956D01*
X0116506Y0327983D01*
X0117147Y0327147D01*
X0117983Y0326506D01*
X0118956Y0326103D01*
X0120000Y0325965D01*
X0121044Y0326103D01*
X0122017Y0326506D01*
X0122853Y0327147D01*
X0123494Y0327983D01*
X0123897Y0328956D01*
X0124035Y0330000D01*
X0123897Y0331044D01*
X0123494Y0332017D01*
X0122853Y0332853D01*
X0122017Y0333494D01*
X0121044Y0333897D01*
X0120000Y0334034D01*
D02*
G37*
G36*
X0090000D02*
X0088956Y0333897D01*
X0087983Y0333494D01*
X0087147Y0332853D01*
X0086506Y0332017D01*
X0086103Y0331044D01*
X0085966Y0330000D01*
X0086103Y0328956D01*
X0086506Y0327983D01*
X0087147Y0327147D01*
X0087983Y0326506D01*
X0088956Y0326103D01*
X0090000Y0325965D01*
X0091044Y0326103D01*
X0092017Y0326506D01*
X0092853Y0327147D01*
X0093494Y0327983D01*
X0093897Y0328956D01*
X0094034Y0330000D01*
X0093897Y0331044D01*
X0093494Y0332017D01*
X0092853Y0332853D01*
X0092017Y0333494D01*
X0091044Y0333897D01*
X0090000Y0334034D01*
D02*
G37*
G36*
X0060000D02*
X0058956Y0333897D01*
X0057983Y0333494D01*
X0057147Y0332853D01*
X0056506Y0332017D01*
X0056103Y0331044D01*
X0055966Y0330000D01*
X0056103Y0328956D01*
X0056506Y0327983D01*
X0057147Y0327147D01*
X0057983Y0326506D01*
X0058956Y0326103D01*
X0060000Y0325965D01*
X0061044Y0326103D01*
X0062017Y0326506D01*
X0062853Y0327147D01*
X0063494Y0327983D01*
X0063897Y0328956D01*
X0064034Y0330000D01*
X0063897Y0331044D01*
X0063494Y0332017D01*
X0062853Y0332853D01*
X0062017Y0333494D01*
X0061044Y0333897D01*
X0060000Y0334034D01*
D02*
G37*
G36*
X0030000D02*
X0028956Y0333897D01*
X0027983Y0333494D01*
X0027147Y0332853D01*
X0026506Y0332017D01*
X0026103Y0331044D01*
X0025965Y0330000D01*
X0026103Y0328956D01*
X0026506Y0327983D01*
X0027147Y0327147D01*
X0027983Y0326506D01*
X0028956Y0326103D01*
X0030000Y0325965D01*
X0031044Y0326103D01*
X0032017Y0326506D01*
X0032853Y0327147D01*
X0033494Y0327983D01*
X0033897Y0328956D01*
X0034034Y0330000D01*
X0033897Y0331044D01*
X0033494Y0332017D01*
X0032853Y0332853D01*
X0032017Y0333494D01*
X0031044Y0333897D01*
X0030000Y0334034D01*
D02*
G37*
G36*
X0114630Y0323344D02*
X0113454Y0323228D01*
X0112323Y0322885D01*
X0111280Y0322328D01*
X0110367Y0321578D01*
X0109617Y0320665D01*
X0109060Y0319622D01*
X0108717Y0318491D01*
X0108601Y0317315D01*
X0108717Y0316139D01*
X0109060Y0315008D01*
X0109617Y0313965D01*
X0110367Y0313052D01*
X0111280Y0312302D01*
X0112323Y0311745D01*
X0113454Y0311402D01*
X0114630Y0311286D01*
X0115806Y0311402D01*
X0116937Y0311745D01*
X0117980Y0312302D01*
X0118893Y0313052D01*
X0119643Y0313965D01*
X0120200Y0315008D01*
X0120543Y0316139D01*
X0120659Y0317315D01*
X0120543Y0318491D01*
X0120200Y0319622D01*
X0119643Y0320665D01*
X0118893Y0321578D01*
X0117980Y0322328D01*
X0116937Y0322885D01*
X0115806Y0323228D01*
X0114630Y0323344D01*
D02*
G37*
G36*
X0098882D02*
X0097706Y0323228D01*
X0096575Y0322885D01*
X0095532Y0322328D01*
X0094619Y0321578D01*
X0093869Y0320665D01*
X0093312Y0319622D01*
X0092969Y0318491D01*
X0092853Y0317315D01*
X0092969Y0316139D01*
X0093312Y0315008D01*
X0093869Y0313965D01*
X0094619Y0313052D01*
X0095532Y0312302D01*
X0096575Y0311745D01*
X0097706Y0311402D01*
X0098882Y0311286D01*
X0100058Y0311402D01*
X0101189Y0311745D01*
X0102231Y0312302D01*
X0103145Y0313052D01*
X0103895Y0313965D01*
X0104452Y0315008D01*
X0104795Y0316139D01*
X0104911Y0317315D01*
X0104795Y0318491D01*
X0104452Y0319622D01*
X0103895Y0320665D01*
X0103145Y0321578D01*
X0102231Y0322328D01*
X0101189Y0322885D01*
X0100058Y0323228D01*
X0098882Y0323344D01*
D02*
G37*
G36*
X0289000Y0305243D02*
X0288142Y0305072D01*
X0287414Y0304586D01*
X0286928Y0303858D01*
X0286757Y0303000D01*
X0286928Y0302142D01*
X0287414Y0301414D01*
X0288142Y0300928D01*
X0289000Y0300757D01*
X0289858Y0300928D01*
X0290586Y0301414D01*
X0291072Y0302142D01*
X0291243Y0303000D01*
X0291072Y0303858D01*
X0290586Y0304586D01*
X0289858Y0305072D01*
X0289000Y0305243D01*
D02*
G37*
G36*
X0345000Y0304034D02*
X0343956Y0303897D01*
X0342983Y0303494D01*
X0342147Y0302853D01*
X0341506Y0302017D01*
X0341103Y0301044D01*
X0340966Y0300000D01*
X0341103Y0298956D01*
X0341506Y0297983D01*
X0342147Y0297147D01*
X0342983Y0296506D01*
X0343956Y0296103D01*
X0345000Y0295966D01*
X0346044Y0296103D01*
X0347017Y0296506D01*
X0347853Y0297147D01*
X0348494Y0297983D01*
X0348897Y0298956D01*
X0349035Y0300000D01*
X0348897Y0301044D01*
X0348494Y0302017D01*
X0347853Y0302853D01*
X0347017Y0303494D01*
X0346044Y0303897D01*
X0345000Y0304034D01*
D02*
G37*
G36*
X0105000D02*
X0103956Y0303897D01*
X0102983Y0303494D01*
X0102147Y0302853D01*
X0101506Y0302017D01*
X0101103Y0301044D01*
X0100965Y0300000D01*
X0101103Y0298956D01*
X0101506Y0297983D01*
X0102147Y0297147D01*
X0102983Y0296506D01*
X0103956Y0296103D01*
X0105000Y0295966D01*
X0106044Y0296103D01*
X0107017Y0296506D01*
X0107853Y0297147D01*
X0108494Y0297983D01*
X0108897Y0298956D01*
X0109035Y0300000D01*
X0108897Y0301044D01*
X0108494Y0302017D01*
X0107853Y0302853D01*
X0107017Y0303494D01*
X0106044Y0303897D01*
X0105000Y0304034D01*
D02*
G37*
G36*
X0075000D02*
X0073956Y0303897D01*
X0072983Y0303494D01*
X0072147Y0302853D01*
X0071506Y0302017D01*
X0071103Y0301044D01*
X0070965Y0300000D01*
X0071103Y0298956D01*
X0071506Y0297983D01*
X0072147Y0297147D01*
X0072983Y0296506D01*
X0073956Y0296103D01*
X0075000Y0295966D01*
X0076044Y0296103D01*
X0077017Y0296506D01*
X0077853Y0297147D01*
X0078494Y0297983D01*
X0078897Y0298956D01*
X0079035Y0300000D01*
X0078897Y0301044D01*
X0078494Y0302017D01*
X0077853Y0302853D01*
X0077017Y0303494D01*
X0076044Y0303897D01*
X0075000Y0304034D01*
D02*
G37*
G36*
X0045000D02*
X0043956Y0303897D01*
X0042983Y0303494D01*
X0042147Y0302853D01*
X0041506Y0302017D01*
X0041103Y0301044D01*
X0040966Y0300000D01*
X0041103Y0298956D01*
X0041506Y0297983D01*
X0042147Y0297147D01*
X0042983Y0296506D01*
X0043956Y0296103D01*
X0045000Y0295966D01*
X0046044Y0296103D01*
X0047017Y0296506D01*
X0047853Y0297147D01*
X0048494Y0297983D01*
X0048897Y0298956D01*
X0049035Y0300000D01*
X0048897Y0301044D01*
X0048494Y0302017D01*
X0047853Y0302853D01*
X0047017Y0303494D01*
X0046044Y0303897D01*
X0045000Y0304034D01*
D02*
G37*
G36*
X0263000Y0293035D02*
X0261956Y0292897D01*
X0260983Y0292494D01*
X0260147Y0291853D01*
X0259506Y0291017D01*
X0259103Y0290044D01*
X0258965Y0289000D01*
X0259103Y0287956D01*
X0259506Y0286983D01*
X0260147Y0286147D01*
X0260983Y0285506D01*
X0261956Y0285103D01*
X0263000Y0284965D01*
X0264044Y0285103D01*
X0265017Y0285506D01*
X0265853Y0286147D01*
X0266494Y0286983D01*
X0266897Y0287956D01*
X0267035Y0289000D01*
X0266897Y0290044D01*
X0266494Y0291017D01*
X0265853Y0291853D01*
X0265017Y0292494D01*
X0264044Y0292897D01*
X0263000Y0293035D01*
D02*
G37*
G36*
X0254000D02*
X0252956Y0292897D01*
X0251983Y0292494D01*
X0251147Y0291853D01*
X0250506Y0291017D01*
X0250103Y0290044D01*
X0249966Y0289000D01*
X0250103Y0287956D01*
X0250506Y0286983D01*
X0251147Y0286147D01*
X0251983Y0285506D01*
X0252956Y0285103D01*
X0254000Y0284965D01*
X0255044Y0285103D01*
X0256017Y0285506D01*
X0256853Y0286147D01*
X0257494Y0286983D01*
X0257897Y0287956D01*
X0258034Y0289000D01*
X0257897Y0290044D01*
X0257494Y0291017D01*
X0256853Y0291853D01*
X0256017Y0292494D01*
X0255044Y0292897D01*
X0254000Y0293035D01*
D02*
G37*
G36*
X0245000D02*
X0243956Y0292897D01*
X0242983Y0292494D01*
X0242147Y0291853D01*
X0241506Y0291017D01*
X0241103Y0290044D01*
X0240966Y0289000D01*
X0241103Y0287956D01*
X0241506Y0286983D01*
X0242147Y0286147D01*
X0242983Y0285506D01*
X0243956Y0285103D01*
X0245000Y0284965D01*
X0246044Y0285103D01*
X0247017Y0285506D01*
X0247853Y0286147D01*
X0248494Y0286983D01*
X0248897Y0287956D01*
X0249035Y0289000D01*
X0248897Y0290044D01*
X0248494Y0291017D01*
X0247853Y0291853D01*
X0247017Y0292494D01*
X0246044Y0292897D01*
X0245000Y0293035D01*
D02*
G37*
G36*
X0236000Y0301034D02*
X0234956Y0300897D01*
X0233983Y0300494D01*
X0233147Y0299853D01*
X0232506Y0299017D01*
X0232103Y0298044D01*
X0231965Y0297000D01*
X0232103Y0295956D01*
X0232506Y0294983D01*
X0233147Y0294147D01*
X0233983Y0293506D01*
X0234551Y0293271D01*
Y0292729D01*
X0233983Y0292494D01*
X0233147Y0291853D01*
X0232506Y0291017D01*
X0232103Y0290044D01*
X0231965Y0289000D01*
X0232103Y0287956D01*
X0232506Y0286983D01*
X0233147Y0286147D01*
X0233983Y0285506D01*
X0234956Y0285103D01*
X0236000Y0284965D01*
X0237044Y0285103D01*
X0238017Y0285506D01*
X0238853Y0286147D01*
X0239494Y0286983D01*
X0239897Y0287956D01*
X0240035Y0289000D01*
X0239897Y0290044D01*
X0239494Y0291017D01*
X0238853Y0291853D01*
X0238017Y0292494D01*
X0237449Y0292729D01*
Y0293271D01*
X0238017Y0293506D01*
X0238853Y0294147D01*
X0239494Y0294983D01*
X0239897Y0295956D01*
X0240035Y0297000D01*
X0239897Y0298044D01*
X0239494Y0299017D01*
X0238853Y0299853D01*
X0238017Y0300494D01*
X0237044Y0300897D01*
X0236000Y0301034D01*
D02*
G37*
G36*
X0270173Y0286503D02*
X0269315Y0286332D01*
X0268587Y0285846D01*
X0268101Y0285118D01*
X0267930Y0284260D01*
X0268101Y0283402D01*
X0268587Y0282674D01*
X0269315Y0282188D01*
X0270173Y0282017D01*
X0271032Y0282188D01*
X0271759Y0282674D01*
X0272246Y0283402D01*
X0272416Y0284260D01*
X0272246Y0285118D01*
X0271759Y0285846D01*
X0271032Y0286332D01*
X0270173Y0286503D01*
D02*
G37*
G36*
X0289000Y0282034D02*
X0287956Y0281897D01*
X0286983Y0281494D01*
X0286147Y0280853D01*
X0285506Y0280017D01*
X0285103Y0279044D01*
X0285002Y0278279D01*
X0284498D01*
X0284397Y0279044D01*
X0283994Y0280017D01*
X0283353Y0280853D01*
X0282517Y0281494D01*
X0281544Y0281897D01*
X0280500Y0282034D01*
X0279456Y0281897D01*
X0278483Y0281494D01*
X0277647Y0280853D01*
X0277006Y0280017D01*
X0276603Y0279044D01*
X0276466Y0278000D01*
X0276603Y0276956D01*
X0276631Y0276888D01*
X0276327Y0276491D01*
X0276000Y0276535D01*
X0274956Y0276397D01*
X0273983Y0275994D01*
X0273147Y0275353D01*
X0272506Y0274517D01*
X0272103Y0273544D01*
X0271966Y0272500D01*
X0272103Y0271456D01*
X0272506Y0270483D01*
X0273147Y0269647D01*
X0273983Y0269006D01*
X0274956Y0268603D01*
X0276000Y0268465D01*
X0277044Y0268603D01*
X0278017Y0269006D01*
X0278853Y0269647D01*
X0279494Y0270483D01*
X0279897Y0271456D01*
X0280034Y0272500D01*
X0279897Y0273544D01*
X0279869Y0273612D01*
X0280173Y0274008D01*
X0280500Y0273966D01*
X0280827Y0274008D01*
X0281131Y0273612D01*
X0281103Y0273544D01*
X0280965Y0272500D01*
X0281103Y0271456D01*
X0281506Y0270483D01*
X0282147Y0269647D01*
X0282983Y0269006D01*
X0283956Y0268603D01*
X0285000Y0268465D01*
X0286044Y0268603D01*
X0287017Y0269006D01*
X0287853Y0269647D01*
X0288494Y0270483D01*
X0288897Y0271456D01*
X0289035Y0272500D01*
X0288906Y0273474D01*
X0288927Y0273583D01*
X0289250Y0273998D01*
X0290044Y0274103D01*
X0291017Y0274506D01*
X0291853Y0275147D01*
X0292494Y0275983D01*
X0292897Y0276956D01*
X0293035Y0278000D01*
X0292897Y0279044D01*
X0292494Y0280017D01*
X0291853Y0280853D01*
X0291017Y0281494D01*
X0290044Y0281897D01*
X0289000Y0282034D01*
D02*
G37*
G36*
X0098882Y0277344D02*
X0097706Y0277228D01*
X0096575Y0276885D01*
X0095532Y0276328D01*
X0094619Y0275578D01*
X0093869Y0274664D01*
X0093312Y0273622D01*
X0093185Y0273202D01*
X0092612Y0273038D01*
X0092017Y0273494D01*
X0091044Y0273897D01*
X0090000Y0274035D01*
X0088956Y0273897D01*
X0087983Y0273494D01*
X0087147Y0272853D01*
X0086506Y0272017D01*
X0086103Y0271044D01*
X0085966Y0270000D01*
X0086103Y0268956D01*
X0086506Y0267983D01*
X0087147Y0267147D01*
X0087983Y0266506D01*
X0088956Y0266103D01*
X0090000Y0265966D01*
X0091044Y0266103D01*
X0092017Y0266506D01*
X0092853Y0267147D01*
X0093375Y0267828D01*
X0093549Y0267877D01*
X0093848Y0267875D01*
X0093975Y0267837D01*
X0094619Y0267052D01*
X0095532Y0266302D01*
X0096575Y0265745D01*
X0097706Y0265402D01*
X0098882Y0265286D01*
X0100058Y0265402D01*
X0101189Y0265745D01*
X0102231Y0266302D01*
X0103145Y0267052D01*
X0103895Y0267965D01*
X0104452Y0269008D01*
X0104795Y0270139D01*
X0104911Y0271315D01*
X0104795Y0272491D01*
X0104452Y0273622D01*
X0103895Y0274664D01*
X0103145Y0275578D01*
X0102231Y0276328D01*
X0101189Y0276885D01*
X0100058Y0277228D01*
X0098882Y0277344D01*
D02*
G37*
G36*
X0330000Y0274035D02*
X0328956Y0273897D01*
X0327983Y0273494D01*
X0327147Y0272853D01*
X0326506Y0272017D01*
X0326103Y0271044D01*
X0325965Y0270000D01*
X0326103Y0268956D01*
X0326506Y0267983D01*
X0327147Y0267147D01*
X0327983Y0266506D01*
X0328956Y0266103D01*
X0330000Y0265966D01*
X0331044Y0266103D01*
X0332017Y0266506D01*
X0332853Y0267147D01*
X0333494Y0267983D01*
X0333897Y0268956D01*
X0334034Y0270000D01*
X0333897Y0271044D01*
X0333494Y0272017D01*
X0332853Y0272853D01*
X0332017Y0273494D01*
X0331044Y0273897D01*
X0330000Y0274035D01*
D02*
G37*
G36*
X0255000D02*
X0253956Y0273897D01*
X0252983Y0273494D01*
X0252147Y0272853D01*
X0251506Y0272017D01*
X0251103Y0271044D01*
X0250965Y0270000D01*
X0251103Y0268956D01*
X0251506Y0267983D01*
X0252147Y0267147D01*
X0252983Y0266506D01*
X0253956Y0266103D01*
X0255000Y0265966D01*
X0256044Y0266103D01*
X0257017Y0266506D01*
X0257853Y0267147D01*
X0258494Y0267983D01*
X0258897Y0268956D01*
X0259034Y0270000D01*
X0258897Y0271044D01*
X0258494Y0272017D01*
X0257853Y0272853D01*
X0257017Y0273494D01*
X0256044Y0273897D01*
X0255000Y0274035D01*
D02*
G37*
G36*
X0240000D02*
X0238956Y0273897D01*
X0237983Y0273494D01*
X0237147Y0272853D01*
X0236506Y0272017D01*
X0236103Y0271044D01*
X0235965Y0270000D01*
X0236103Y0268956D01*
X0236506Y0267983D01*
X0237147Y0267147D01*
X0237983Y0266506D01*
X0238956Y0266103D01*
X0240000Y0265966D01*
X0241044Y0266103D01*
X0242017Y0266506D01*
X0242853Y0267147D01*
X0243494Y0267983D01*
X0243897Y0268956D01*
X0244035Y0270000D01*
X0243897Y0271044D01*
X0243494Y0272017D01*
X0242853Y0272853D01*
X0242017Y0273494D01*
X0241044Y0273897D01*
X0240000Y0274035D01*
D02*
G37*
G36*
X0060000D02*
X0058956Y0273897D01*
X0057983Y0273494D01*
X0057147Y0272853D01*
X0056506Y0272017D01*
X0056103Y0271044D01*
X0055966Y0270000D01*
X0056103Y0268956D01*
X0056506Y0267983D01*
X0057147Y0267147D01*
X0057983Y0266506D01*
X0058956Y0266103D01*
X0060000Y0265966D01*
X0061044Y0266103D01*
X0062017Y0266506D01*
X0062853Y0267147D01*
X0063494Y0267983D01*
X0063897Y0268956D01*
X0064034Y0270000D01*
X0063897Y0271044D01*
X0063494Y0272017D01*
X0062853Y0272853D01*
X0062017Y0273494D01*
X0061044Y0273897D01*
X0060000Y0274035D01*
D02*
G37*
G36*
X0030000D02*
X0028956Y0273897D01*
X0027983Y0273494D01*
X0027147Y0272853D01*
X0026506Y0272017D01*
X0026103Y0271044D01*
X0025965Y0270000D01*
X0026103Y0268956D01*
X0026506Y0267983D01*
X0027147Y0267147D01*
X0027983Y0266506D01*
X0028956Y0266103D01*
X0030000Y0265966D01*
X0031044Y0266103D01*
X0032017Y0266506D01*
X0032853Y0267147D01*
X0033494Y0267983D01*
X0033897Y0268956D01*
X0034034Y0270000D01*
X0033897Y0271044D01*
X0033494Y0272017D01*
X0032853Y0272853D01*
X0032017Y0273494D01*
X0031044Y0273897D01*
X0030000Y0274035D01*
D02*
G37*
G36*
X0114630Y0277344D02*
X0113454Y0277228D01*
X0112323Y0276885D01*
X0111280Y0276328D01*
X0110367Y0275578D01*
X0109617Y0274664D01*
X0109060Y0273622D01*
X0108717Y0272491D01*
X0108601Y0271315D01*
X0108717Y0270139D01*
X0109060Y0269008D01*
X0109617Y0267965D01*
X0110367Y0267052D01*
X0111280Y0266302D01*
X0112323Y0265745D01*
X0113454Y0265402D01*
X0114630Y0265286D01*
X0115806Y0265402D01*
X0116937Y0265745D01*
X0117980Y0266302D01*
X0118893Y0267052D01*
X0119643Y0267965D01*
X0120200Y0269008D01*
X0120543Y0270139D01*
X0120659Y0271315D01*
X0120543Y0272491D01*
X0120200Y0273622D01*
X0119643Y0274664D01*
X0118893Y0275578D01*
X0117980Y0276328D01*
X0116937Y0276885D01*
X0115806Y0277228D01*
X0114630Y0277344D01*
D02*
G37*
G36*
X0128000Y0262035D02*
X0126956Y0261897D01*
X0125983Y0261494D01*
X0125147Y0260853D01*
X0125000Y0260661D01*
X0124500D01*
X0124353Y0260853D01*
X0123517Y0261494D01*
X0122544Y0261897D01*
X0121500Y0262035D01*
X0120456Y0261897D01*
X0119483Y0261494D01*
X0118647Y0260853D01*
X0118006Y0260017D01*
X0117603Y0259044D01*
X0117465Y0258000D01*
X0117594Y0257027D01*
X0117573Y0256917D01*
X0117250Y0256502D01*
X0116456Y0256397D01*
X0115483Y0255994D01*
X0114647Y0255353D01*
X0114006Y0254517D01*
X0113603Y0253544D01*
X0113465Y0252500D01*
X0113603Y0251456D01*
X0114006Y0250483D01*
X0114647Y0249647D01*
X0115483Y0249006D01*
X0116456Y0248603D01*
X0117250Y0248498D01*
X0117573Y0248083D01*
X0117594Y0247973D01*
X0117465Y0247000D01*
X0117603Y0245956D01*
X0118006Y0244983D01*
X0118647Y0244147D01*
X0118839Y0244000D01*
Y0243500D01*
X0118647Y0243353D01*
X0118006Y0242517D01*
X0117603Y0241544D01*
X0117465Y0240500D01*
X0117603Y0239456D01*
X0118006Y0238483D01*
X0118647Y0237647D01*
X0119483Y0237006D01*
X0120456Y0236603D01*
X0121500Y0236466D01*
X0122544Y0236603D01*
X0123517Y0237006D01*
X0123587Y0237059D01*
X0124049Y0236868D01*
X0124103Y0236456D01*
X0124506Y0235483D01*
X0125147Y0234647D01*
X0125983Y0234006D01*
X0126956Y0233603D01*
X0128000Y0233466D01*
X0129044Y0233603D01*
X0130017Y0234006D01*
X0130853Y0234647D01*
X0131494Y0235483D01*
X0131897Y0236456D01*
X0132035Y0237500D01*
X0131897Y0238544D01*
X0131494Y0239517D01*
X0130853Y0240353D01*
X0130017Y0240994D01*
X0129044Y0241397D01*
X0128000Y0241534D01*
X0126956Y0241397D01*
X0125983Y0240994D01*
X0125913Y0240941D01*
X0125451Y0241132D01*
X0125397Y0241544D01*
X0124994Y0242517D01*
X0124353Y0243353D01*
X0124161Y0243500D01*
Y0244000D01*
X0124353Y0244147D01*
X0124994Y0244983D01*
X0125397Y0245956D01*
X0125534Y0247000D01*
X0125397Y0248044D01*
X0124994Y0249017D01*
X0124353Y0249853D01*
X0123517Y0250494D01*
X0122544Y0250897D01*
X0121750Y0251002D01*
X0121427Y0251417D01*
X0121406Y0251526D01*
X0121535Y0252500D01*
X0121406Y0253473D01*
X0121427Y0253583D01*
X0121750Y0253998D01*
X0122544Y0254103D01*
X0123517Y0254506D01*
X0124353Y0255147D01*
X0124500Y0255339D01*
X0125000D01*
X0125147Y0255147D01*
X0125983Y0254506D01*
X0126956Y0254103D01*
X0128000Y0253965D01*
X0129044Y0254103D01*
X0130017Y0254506D01*
X0130853Y0255147D01*
X0131494Y0255983D01*
X0131897Y0256956D01*
X0132035Y0258000D01*
X0131897Y0259044D01*
X0131494Y0260017D01*
X0130853Y0260853D01*
X0130017Y0261494D01*
X0129044Y0261897D01*
X0128000Y0262035D01*
D02*
G37*
G36*
X0345000Y0244035D02*
X0343956Y0243897D01*
X0342983Y0243494D01*
X0342147Y0242853D01*
X0341506Y0242017D01*
X0341103Y0241044D01*
X0340966Y0240000D01*
X0341103Y0238956D01*
X0341506Y0237983D01*
X0342147Y0237147D01*
X0342983Y0236506D01*
X0343956Y0236103D01*
X0345000Y0235965D01*
X0346044Y0236103D01*
X0347017Y0236506D01*
X0347853Y0237147D01*
X0348494Y0237983D01*
X0348897Y0238956D01*
X0349035Y0240000D01*
X0348897Y0241044D01*
X0348494Y0242017D01*
X0347853Y0242853D01*
X0347017Y0243494D01*
X0346044Y0243897D01*
X0345000Y0244035D01*
D02*
G37*
G36*
X0255000D02*
X0253956Y0243897D01*
X0252983Y0243494D01*
X0252147Y0242853D01*
X0251506Y0242017D01*
X0251103Y0241044D01*
X0250965Y0240000D01*
X0251103Y0238956D01*
X0251506Y0237983D01*
X0252147Y0237147D01*
X0252983Y0236506D01*
X0253956Y0236103D01*
X0255000Y0235965D01*
X0256044Y0236103D01*
X0257017Y0236506D01*
X0257853Y0237147D01*
X0258494Y0237983D01*
X0258897Y0238956D01*
X0259034Y0240000D01*
X0258897Y0241044D01*
X0258494Y0242017D01*
X0257853Y0242853D01*
X0257017Y0243494D01*
X0256044Y0243897D01*
X0255000Y0244035D01*
D02*
G37*
G36*
X0105000D02*
X0103956Y0243897D01*
X0102983Y0243494D01*
X0102147Y0242853D01*
X0101506Y0242017D01*
X0101103Y0241044D01*
X0100965Y0240000D01*
X0101103Y0238956D01*
X0101506Y0237983D01*
X0102147Y0237147D01*
X0102983Y0236506D01*
X0103956Y0236103D01*
X0105000Y0235965D01*
X0106044Y0236103D01*
X0107017Y0236506D01*
X0107853Y0237147D01*
X0108494Y0237983D01*
X0108897Y0238956D01*
X0109035Y0240000D01*
X0108897Y0241044D01*
X0108494Y0242017D01*
X0107853Y0242853D01*
X0107017Y0243494D01*
X0106044Y0243897D01*
X0105000Y0244035D01*
D02*
G37*
G36*
X0075000D02*
X0073956Y0243897D01*
X0072983Y0243494D01*
X0072147Y0242853D01*
X0071506Y0242017D01*
X0071103Y0241044D01*
X0070965Y0240000D01*
X0071103Y0238956D01*
X0071506Y0237983D01*
X0072147Y0237147D01*
X0072983Y0236506D01*
X0073956Y0236103D01*
X0075000Y0235965D01*
X0076044Y0236103D01*
X0077017Y0236506D01*
X0077853Y0237147D01*
X0078494Y0237983D01*
X0078897Y0238956D01*
X0079035Y0240000D01*
X0078897Y0241044D01*
X0078494Y0242017D01*
X0077853Y0242853D01*
X0077017Y0243494D01*
X0076044Y0243897D01*
X0075000Y0244035D01*
D02*
G37*
G36*
X0045000D02*
X0043956Y0243897D01*
X0042983Y0243494D01*
X0042147Y0242853D01*
X0041506Y0242017D01*
X0041103Y0241044D01*
X0040966Y0240000D01*
X0041103Y0238956D01*
X0041506Y0237983D01*
X0042147Y0237147D01*
X0042983Y0236506D01*
X0043956Y0236103D01*
X0045000Y0235965D01*
X0046044Y0236103D01*
X0047017Y0236506D01*
X0047853Y0237147D01*
X0048494Y0237983D01*
X0048897Y0238956D01*
X0049035Y0240000D01*
X0048897Y0241044D01*
X0048494Y0242017D01*
X0047853Y0242853D01*
X0047017Y0243494D01*
X0046044Y0243897D01*
X0045000Y0244035D01*
D02*
G37*
G36*
X0322000Y0266035D02*
X0320956Y0265897D01*
X0319983Y0265494D01*
X0319147Y0264853D01*
X0318506Y0264017D01*
X0318103Y0263044D01*
X0317966Y0262000D01*
X0318103Y0260956D01*
X0318506Y0259983D01*
X0319147Y0259147D01*
X0319983Y0258506D01*
X0320551Y0258271D01*
Y0257729D01*
X0319983Y0257494D01*
X0319147Y0256853D01*
X0318506Y0256017D01*
X0318103Y0255044D01*
X0317966Y0254000D01*
X0318103Y0252956D01*
X0318506Y0251983D01*
X0319147Y0251147D01*
X0319983Y0250506D01*
X0320551Y0250271D01*
Y0249729D01*
X0319983Y0249494D01*
X0319147Y0248853D01*
X0318506Y0248017D01*
X0318103Y0247044D01*
X0317966Y0246000D01*
X0318103Y0244956D01*
X0318506Y0243983D01*
X0319147Y0243147D01*
X0319983Y0242506D01*
X0320551Y0242271D01*
Y0241729D01*
X0319983Y0241494D01*
X0319147Y0240853D01*
X0318506Y0240017D01*
X0318103Y0239044D01*
X0317966Y0238000D01*
X0318103Y0236956D01*
X0318506Y0235983D01*
X0319147Y0235147D01*
X0319983Y0234506D01*
X0320956Y0234103D01*
X0322000Y0233965D01*
X0323044Y0234103D01*
X0324017Y0234506D01*
X0324853Y0235147D01*
X0325494Y0235983D01*
X0325897Y0236956D01*
X0326034Y0238000D01*
X0325897Y0239044D01*
X0325494Y0240017D01*
X0324853Y0240853D01*
X0324017Y0241494D01*
X0323449Y0241729D01*
Y0242271D01*
X0324017Y0242506D01*
X0324853Y0243147D01*
X0325494Y0243983D01*
X0325897Y0244956D01*
X0326034Y0246000D01*
X0325897Y0247044D01*
X0325494Y0248017D01*
X0324853Y0248853D01*
X0324017Y0249494D01*
X0323449Y0249729D01*
Y0250271D01*
X0324017Y0250506D01*
X0324853Y0251147D01*
X0325494Y0251983D01*
X0325897Y0252956D01*
X0326034Y0254000D01*
X0325897Y0255044D01*
X0325494Y0256017D01*
X0324853Y0256853D01*
X0324017Y0257494D01*
X0323449Y0257729D01*
Y0258271D01*
X0324017Y0258506D01*
X0324853Y0259147D01*
X0325494Y0259983D01*
X0325897Y0260956D01*
X0326034Y0262000D01*
X0325897Y0263044D01*
X0325494Y0264017D01*
X0324853Y0264853D01*
X0324017Y0265494D01*
X0323044Y0265897D01*
X0322000Y0266035D01*
D02*
G37*
G36*
X0314000Y0236034D02*
X0312956Y0235897D01*
X0311983Y0235494D01*
X0311147Y0234853D01*
X0310506Y0234017D01*
X0310103Y0233044D01*
X0309965Y0232000D01*
X0310103Y0230956D01*
X0310506Y0229983D01*
X0311147Y0229147D01*
X0311983Y0228506D01*
X0312956Y0228103D01*
X0314000Y0227965D01*
X0315044Y0228103D01*
X0316017Y0228506D01*
X0316853Y0229147D01*
X0317494Y0229983D01*
X0317897Y0230956D01*
X0318035Y0232000D01*
X0317897Y0233044D01*
X0317494Y0234017D01*
X0316853Y0234853D01*
X0316017Y0235494D01*
X0315044Y0235897D01*
X0314000Y0236034D01*
D02*
G37*
G36*
X0251000Y0229535D02*
X0249956Y0229397D01*
X0248983Y0228994D01*
X0248147Y0228353D01*
X0247506Y0227517D01*
X0247103Y0226544D01*
X0247049Y0226132D01*
X0246587Y0225941D01*
X0246517Y0225994D01*
X0245544Y0226397D01*
X0244500Y0226535D01*
X0243456Y0226397D01*
X0242483Y0225994D01*
X0241647Y0225353D01*
X0241006Y0224517D01*
X0240603Y0223544D01*
X0240465Y0222500D01*
X0240603Y0221456D01*
X0241006Y0220483D01*
X0241647Y0219647D01*
X0242080Y0219315D01*
Y0218685D01*
X0241647Y0218353D01*
X0241006Y0217517D01*
X0240603Y0216544D01*
X0240465Y0215500D01*
X0240603Y0214456D01*
X0241006Y0213483D01*
X0241647Y0212647D01*
X0242483Y0212006D01*
X0243456Y0211603D01*
X0244500Y0211466D01*
X0245544Y0211603D01*
X0246517Y0212006D01*
X0247353Y0212647D01*
X0247994Y0213483D01*
X0248397Y0214456D01*
X0248534Y0215500D01*
X0248397Y0216544D01*
X0247994Y0217517D01*
X0247353Y0218353D01*
X0246920Y0218685D01*
Y0219315D01*
X0247353Y0219647D01*
X0247994Y0220483D01*
X0248397Y0221456D01*
X0248451Y0221868D01*
X0248913Y0222059D01*
X0248983Y0222006D01*
X0249956Y0221603D01*
X0251000Y0221465D01*
X0252044Y0221603D01*
X0253017Y0222006D01*
X0253853Y0222647D01*
X0254494Y0223483D01*
X0254897Y0224456D01*
X0255034Y0225500D01*
X0254897Y0226544D01*
X0254494Y0227517D01*
X0253853Y0228353D01*
X0253017Y0228994D01*
X0252044Y0229397D01*
X0251000Y0229535D01*
D02*
G37*
G36*
X0330000Y0214035D02*
X0328956Y0213897D01*
X0327983Y0213494D01*
X0327147Y0212853D01*
X0326506Y0212017D01*
X0326103Y0211044D01*
X0325965Y0210000D01*
X0326103Y0208956D01*
X0326506Y0207983D01*
X0327147Y0207147D01*
X0327983Y0206506D01*
X0328956Y0206103D01*
X0330000Y0205965D01*
X0331044Y0206103D01*
X0332017Y0206506D01*
X0332853Y0207147D01*
X0333494Y0207983D01*
X0333897Y0208956D01*
X0334034Y0210000D01*
X0333897Y0211044D01*
X0333494Y0212017D01*
X0332853Y0212853D01*
X0332017Y0213494D01*
X0331044Y0213897D01*
X0330000Y0214035D01*
D02*
G37*
G36*
X0060000D02*
X0058956Y0213897D01*
X0057983Y0213494D01*
X0057147Y0212853D01*
X0056506Y0212017D01*
X0056103Y0211044D01*
X0055966Y0210000D01*
X0056103Y0208956D01*
X0056506Y0207983D01*
X0057147Y0207147D01*
X0057983Y0206506D01*
X0058956Y0206103D01*
X0060000Y0205965D01*
X0061044Y0206103D01*
X0062017Y0206506D01*
X0062853Y0207147D01*
X0063494Y0207983D01*
X0063897Y0208956D01*
X0064034Y0210000D01*
X0063897Y0211044D01*
X0063494Y0212017D01*
X0062853Y0212853D01*
X0062017Y0213494D01*
X0061044Y0213897D01*
X0060000Y0214035D01*
D02*
G37*
G36*
X0247500Y0203328D02*
X0246638Y0203215D01*
X0245836Y0202883D01*
X0245146Y0202354D01*
X0244618Y0201664D01*
X0244285Y0200862D01*
X0244172Y0200000D01*
X0244285Y0199138D01*
X0244618Y0198336D01*
X0245146Y0197646D01*
X0245836Y0197117D01*
X0246638Y0196785D01*
X0247500Y0196671D01*
X0248361Y0196785D01*
X0249164Y0197117D01*
X0249854Y0197646D01*
X0250382Y0198336D01*
X0250715Y0199138D01*
X0250829Y0200000D01*
X0250715Y0200862D01*
X0250382Y0201664D01*
X0249854Y0202354D01*
X0249164Y0202883D01*
X0248361Y0203215D01*
X0247500Y0203328D01*
D02*
G37*
G36*
X0226500Y0198328D02*
X0225639Y0198215D01*
X0224836Y0197882D01*
X0224146Y0197354D01*
X0223618Y0196664D01*
X0223285Y0195861D01*
X0223171Y0195000D01*
X0223285Y0194139D01*
X0223618Y0193336D01*
X0224146Y0192646D01*
X0224836Y0192118D01*
X0225639Y0191785D01*
X0226500Y0191672D01*
X0227361Y0191785D01*
X0228164Y0192118D01*
X0228854Y0192646D01*
X0229382Y0193336D01*
X0229715Y0194139D01*
X0229829Y0195000D01*
X0229715Y0195861D01*
X0229382Y0196664D01*
X0228854Y0197354D01*
X0228164Y0197882D01*
X0227361Y0198215D01*
X0226500Y0198328D01*
D02*
G37*
G36*
X0054000Y0192998D02*
X0052956Y0192861D01*
X0051983Y0192458D01*
X0051147Y0191816D01*
X0050506Y0190981D01*
X0050103Y0190008D01*
X0049966Y0188964D01*
X0050103Y0187919D01*
X0050506Y0186946D01*
X0051147Y0186111D01*
X0051983Y0185470D01*
X0052956Y0185066D01*
X0054000Y0184929D01*
X0055044Y0185066D01*
X0056017Y0185470D01*
X0056853Y0186111D01*
X0057494Y0186946D01*
X0057897Y0187919D01*
X0058034Y0188964D01*
X0057897Y0190008D01*
X0057494Y0190981D01*
X0056853Y0191816D01*
X0056017Y0192458D01*
X0055044Y0192861D01*
X0054000Y0192998D01*
D02*
G37*
G36*
X0066500Y0195039D02*
X0065720Y0194884D01*
X0065058Y0194442D01*
X0064616Y0193780D01*
X0064461Y0193000D01*
X0064616Y0192220D01*
X0065058Y0191558D01*
X0065720Y0191116D01*
X0066159Y0191029D01*
X0066323Y0190486D01*
X0065419Y0189581D01*
X0065087Y0189085D01*
X0064971Y0188500D01*
X0064971Y0173000D01*
X0065087Y0172415D01*
X0065419Y0171919D01*
X0065915Y0171587D01*
X0066500Y0171471D01*
X0080366D01*
X0089471Y0162366D01*
X0089471Y0106633D01*
X0075419Y0092581D01*
X0075087Y0092085D01*
X0074971Y0091500D01*
Y0043000D01*
X0075087Y0042415D01*
X0075419Y0041919D01*
X0095919Y0021419D01*
X0096415Y0021087D01*
X0097000Y0020971D01*
X0136000D01*
X0136585Y0021087D01*
X0136765Y0021207D01*
X0136944Y0021087D01*
X0137529Y0020971D01*
X0178000D01*
X0178585Y0021087D01*
X0179081Y0021419D01*
X0198581Y0040919D01*
X0198913Y0041415D01*
X0199029Y0042000D01*
Y0094000D01*
X0198913Y0094585D01*
X0198581Y0095081D01*
X0184969Y0108694D01*
X0185029Y0109000D01*
Y0167367D01*
X0188134Y0170471D01*
X0198000D01*
X0198585Y0170587D01*
X0199081Y0170919D01*
X0201081Y0172919D01*
X0201413Y0173415D01*
X0201529Y0174000D01*
Y0181688D01*
X0202029Y0182054D01*
X0202500Y0181961D01*
X0203280Y0182116D01*
X0203942Y0182558D01*
X0204384Y0183220D01*
X0204539Y0184000D01*
X0204384Y0184780D01*
X0203942Y0185442D01*
X0203280Y0185884D01*
X0202500Y0186039D01*
X0202029Y0185946D01*
X0201529Y0186312D01*
Y0193000D01*
X0201413Y0193585D01*
X0201081Y0194081D01*
X0200585Y0194413D01*
X0200000Y0194529D01*
X0141000D01*
X0140415Y0194413D01*
X0139919Y0194081D01*
X0135919Y0190081D01*
X0135587Y0189585D01*
X0135043Y0189378D01*
X0134822Y0189504D01*
X0134736Y0189933D01*
X0134294Y0190594D01*
X0133633Y0191036D01*
X0132852Y0191192D01*
X0132816Y0191184D01*
X0132738Y0191302D01*
X0132680Y0191441D01*
X0132574Y0191548D01*
X0132490Y0191673D01*
X0129581Y0194581D01*
X0129085Y0194913D01*
X0128500Y0195029D01*
X0071500D01*
X0070915Y0194913D01*
X0070419Y0194581D01*
X0069014Y0193177D01*
X0068471Y0193341D01*
X0068384Y0193780D01*
X0067942Y0194442D01*
X0067280Y0194884D01*
X0066500Y0195039D01*
D02*
G37*
G36*
X0005000Y0181743D02*
X0004142Y0181572D01*
X0003414Y0181086D01*
X0002928Y0180358D01*
X0002757Y0179500D01*
X0002928Y0178642D01*
X0003414Y0177914D01*
X0004142Y0177428D01*
X0005000Y0177257D01*
X0005858Y0177428D01*
X0006586Y0177914D01*
X0007072Y0178642D01*
X0007243Y0179500D01*
X0007072Y0180358D01*
X0006586Y0181086D01*
X0005858Y0181572D01*
X0005000Y0181743D01*
D02*
G37*
G36*
X0345000Y0184035D02*
X0343956Y0183897D01*
X0342983Y0183494D01*
X0342147Y0182853D01*
X0341506Y0182017D01*
X0341103Y0181044D01*
X0340966Y0180000D01*
X0341103Y0178956D01*
X0341506Y0177983D01*
X0342147Y0177147D01*
X0342983Y0176506D01*
X0343956Y0176103D01*
X0345000Y0175965D01*
X0346044Y0176103D01*
X0347017Y0176506D01*
X0347853Y0177147D01*
X0348494Y0177983D01*
X0348897Y0178956D01*
X0349035Y0180000D01*
X0348897Y0181044D01*
X0348494Y0182017D01*
X0347853Y0182853D01*
X0347017Y0183494D01*
X0346044Y0183897D01*
X0345000Y0184035D01*
D02*
G37*
G36*
X0315000D02*
X0313956Y0183897D01*
X0312983Y0183494D01*
X0312147Y0182853D01*
X0311506Y0182017D01*
X0311103Y0181044D01*
X0310965Y0180000D01*
X0311103Y0178956D01*
X0311506Y0177983D01*
X0312147Y0177147D01*
X0312983Y0176506D01*
X0313956Y0176103D01*
X0315000Y0175965D01*
X0316044Y0176103D01*
X0317017Y0176506D01*
X0317853Y0177147D01*
X0318494Y0177983D01*
X0318897Y0178956D01*
X0319035Y0180000D01*
X0318897Y0181044D01*
X0318494Y0182017D01*
X0317853Y0182853D01*
X0317017Y0183494D01*
X0316044Y0183897D01*
X0315000Y0184035D01*
D02*
G37*
G36*
X0005000Y0176643D02*
X0004142Y0176472D01*
X0003414Y0175986D01*
X0002928Y0175258D01*
X0002757Y0174400D01*
X0002928Y0173542D01*
X0003414Y0172814D01*
X0004142Y0172328D01*
X0005000Y0172157D01*
X0005858Y0172328D01*
X0006586Y0172814D01*
X0007072Y0173542D01*
X0007243Y0174400D01*
X0007072Y0175258D01*
X0006586Y0175986D01*
X0005858Y0176472D01*
X0005000Y0176643D01*
D02*
G37*
G36*
X0219000Y0179034D02*
X0217956Y0178897D01*
X0216983Y0178494D01*
X0216147Y0177853D01*
X0215506Y0177017D01*
X0215103Y0176044D01*
X0214966Y0175000D01*
X0215103Y0173956D01*
X0215506Y0172983D01*
X0216147Y0172147D01*
X0216983Y0171506D01*
X0217956Y0171103D01*
X0219000Y0170966D01*
X0220044Y0171103D01*
X0221017Y0171506D01*
X0221853Y0172147D01*
X0222494Y0172983D01*
X0222897Y0173956D01*
X0223035Y0175000D01*
X0222897Y0176044D01*
X0222494Y0177017D01*
X0221853Y0177853D01*
X0221017Y0178494D01*
X0220044Y0178897D01*
X0219000Y0179034D01*
D02*
G37*
G36*
X0021500Y0175034D02*
X0020456Y0174897D01*
X0019483Y0174494D01*
X0018647Y0173853D01*
X0018006Y0173017D01*
X0017603Y0172044D01*
X0017466Y0171000D01*
X0017603Y0169956D01*
X0018006Y0168983D01*
X0018647Y0168147D01*
X0019483Y0167506D01*
X0020456Y0167103D01*
X0021500Y0166965D01*
X0022544Y0167103D01*
X0023517Y0167506D01*
X0024353Y0168147D01*
X0024994Y0168983D01*
X0025397Y0169956D01*
X0025534Y0171000D01*
X0025397Y0172044D01*
X0024994Y0173017D01*
X0024353Y0173853D01*
X0023517Y0174494D01*
X0022544Y0174897D01*
X0021500Y0175034D01*
D02*
G37*
G36*
X0078500Y0164034D02*
X0077456Y0163897D01*
X0076483Y0163494D01*
X0075647Y0162853D01*
X0075006Y0162017D01*
X0074771Y0161449D01*
X0074229D01*
X0073994Y0162017D01*
X0073353Y0162853D01*
X0072517Y0163494D01*
X0071544Y0163897D01*
X0070500Y0164034D01*
X0069456Y0163897D01*
X0068483Y0163494D01*
X0067647Y0162853D01*
X0067006Y0162017D01*
X0066771Y0161449D01*
X0066229D01*
X0065994Y0162017D01*
X0065353Y0162853D01*
X0064517Y0163494D01*
X0063544Y0163897D01*
X0062500Y0164034D01*
X0061456Y0163897D01*
X0060483Y0163494D01*
X0059647Y0162853D01*
X0059006Y0162017D01*
X0058771Y0161449D01*
X0058229D01*
X0057994Y0162017D01*
X0057353Y0162853D01*
X0056517Y0163494D01*
X0055544Y0163897D01*
X0054500Y0164034D01*
X0053456Y0163897D01*
X0052483Y0163494D01*
X0051647Y0162853D01*
X0051006Y0162017D01*
X0050603Y0161044D01*
X0050466Y0160000D01*
X0050594Y0159027D01*
X0050573Y0158917D01*
X0050250Y0158502D01*
X0049456Y0158397D01*
X0048483Y0157994D01*
X0047647Y0157353D01*
X0047006Y0156517D01*
X0046603Y0155544D01*
X0046466Y0154500D01*
X0046603Y0153456D01*
X0047006Y0152483D01*
X0047647Y0151647D01*
X0048483Y0151006D01*
X0049456Y0150603D01*
X0050500Y0150466D01*
X0051544Y0150603D01*
X0052517Y0151006D01*
X0053353Y0151647D01*
X0053994Y0152483D01*
X0054229Y0153051D01*
X0054771D01*
X0055006Y0152483D01*
X0055647Y0151647D01*
X0056483Y0151006D01*
X0057456Y0150603D01*
X0058500Y0150466D01*
X0059544Y0150603D01*
X0060517Y0151006D01*
X0061353Y0151647D01*
X0061994Y0152483D01*
X0062397Y0153456D01*
X0062534Y0154500D01*
X0062406Y0155473D01*
X0062427Y0155583D01*
X0062750Y0155998D01*
X0063544Y0156103D01*
X0064517Y0156506D01*
X0065353Y0157147D01*
X0065994Y0157983D01*
X0066229Y0158551D01*
X0066771D01*
X0067006Y0157983D01*
X0067647Y0157147D01*
X0068483Y0156506D01*
X0069456Y0156103D01*
X0070500Y0155965D01*
X0071544Y0156103D01*
X0072517Y0156506D01*
X0073353Y0157147D01*
X0073994Y0157983D01*
X0074229Y0158551D01*
X0074771D01*
X0075006Y0157983D01*
X0075647Y0157147D01*
X0076483Y0156506D01*
X0077456Y0156103D01*
X0078500Y0155965D01*
X0079544Y0156103D01*
X0080517Y0156506D01*
X0081353Y0157147D01*
X0081994Y0157983D01*
X0082397Y0158956D01*
X0082534Y0160000D01*
X0082397Y0161044D01*
X0081994Y0162017D01*
X0081353Y0162853D01*
X0080517Y0163494D01*
X0079544Y0163897D01*
X0078500Y0164034D01*
D02*
G37*
G36*
X0026500Y0167829D02*
X0025638Y0167715D01*
X0024836Y0167383D01*
X0024146Y0166854D01*
X0023617Y0166164D01*
X0023285Y0165361D01*
X0023171Y0164500D01*
X0023285Y0163638D01*
X0023617Y0162836D01*
X0024146Y0162146D01*
X0024836Y0161618D01*
X0025638Y0161285D01*
X0026500Y0161171D01*
X0027362Y0161285D01*
X0028164Y0161618D01*
X0028854Y0162146D01*
X0029383Y0162836D01*
X0029715Y0163638D01*
X0029829Y0164500D01*
X0029715Y0165361D01*
X0029383Y0166164D01*
X0028854Y0166854D01*
X0028164Y0167383D01*
X0027362Y0167715D01*
X0026500Y0167829D01*
D02*
G37*
G36*
X0226500Y0164329D02*
X0225639Y0164215D01*
X0224836Y0163883D01*
X0224146Y0163354D01*
X0223618Y0162664D01*
X0223285Y0161862D01*
X0223171Y0161000D01*
X0223285Y0160138D01*
X0223618Y0159336D01*
X0224146Y0158646D01*
X0224836Y0158117D01*
X0225639Y0157785D01*
X0226500Y0157671D01*
X0227361Y0157785D01*
X0228164Y0158117D01*
X0228854Y0158646D01*
X0229382Y0159336D01*
X0229715Y0160138D01*
X0229829Y0161000D01*
X0229715Y0161862D01*
X0229382Y0162664D01*
X0228854Y0163354D01*
X0228164Y0163883D01*
X0227361Y0164215D01*
X0226500Y0164329D01*
D02*
G37*
G36*
X0330000Y0154034D02*
X0328956Y0153897D01*
X0327983Y0153494D01*
X0327147Y0152853D01*
X0326506Y0152017D01*
X0326103Y0151044D01*
X0325965Y0150000D01*
X0326103Y0148956D01*
X0326506Y0147983D01*
X0327147Y0147147D01*
X0327983Y0146506D01*
X0328956Y0146103D01*
X0330000Y0145966D01*
X0331044Y0146103D01*
X0332017Y0146506D01*
X0332853Y0147147D01*
X0333494Y0147983D01*
X0333897Y0148956D01*
X0334034Y0150000D01*
X0333897Y0151044D01*
X0333494Y0152017D01*
X0332853Y0152853D01*
X0332017Y0153494D01*
X0331044Y0153897D01*
X0330000Y0154034D01*
D02*
G37*
G36*
X0300000D02*
X0298956Y0153897D01*
X0297983Y0153494D01*
X0297147Y0152853D01*
X0296506Y0152017D01*
X0296103Y0151044D01*
X0295966Y0150000D01*
X0296103Y0148956D01*
X0296506Y0147983D01*
X0297147Y0147147D01*
X0297983Y0146506D01*
X0298956Y0146103D01*
X0300000Y0145966D01*
X0301044Y0146103D01*
X0302017Y0146506D01*
X0302853Y0147147D01*
X0303494Y0147983D01*
X0303897Y0148956D01*
X0304034Y0150000D01*
X0303897Y0151044D01*
X0303494Y0152017D01*
X0302853Y0152853D01*
X0302017Y0153494D01*
X0301044Y0153897D01*
X0300000Y0154034D01*
D02*
G37*
G36*
X0021000Y0153534D02*
X0019956Y0153397D01*
X0018983Y0152994D01*
X0018147Y0152353D01*
X0017506Y0151517D01*
X0017103Y0150544D01*
X0016965Y0149500D01*
X0017103Y0148456D01*
X0017506Y0147483D01*
X0018147Y0146647D01*
X0018983Y0146006D01*
X0019956Y0145603D01*
X0021000Y0145466D01*
X0022044Y0145603D01*
X0023017Y0146006D01*
X0023853Y0146647D01*
X0024494Y0147483D01*
X0024897Y0148456D01*
X0025034Y0149500D01*
X0024897Y0150544D01*
X0024494Y0151517D01*
X0023853Y0152353D01*
X0023017Y0152994D01*
X0022044Y0153397D01*
X0021000Y0153534D01*
D02*
G37*
G36*
X0076000Y0145535D02*
X0074956Y0145397D01*
X0073983Y0144994D01*
X0073147Y0144353D01*
X0072506Y0143517D01*
X0072103Y0142544D01*
X0071965Y0141500D01*
X0072103Y0140456D01*
X0072506Y0139483D01*
X0073147Y0138647D01*
X0073983Y0138006D01*
X0074956Y0137603D01*
X0076000Y0137466D01*
X0077044Y0137603D01*
X0078017Y0138006D01*
X0078853Y0138647D01*
X0079494Y0139483D01*
X0079897Y0140456D01*
X0080035Y0141500D01*
X0079897Y0142544D01*
X0079494Y0143517D01*
X0078853Y0144353D01*
X0078017Y0144994D01*
X0077044Y0145397D01*
X0076000Y0145535D01*
D02*
G37*
G36*
X0067000D02*
X0065956Y0145397D01*
X0064983Y0144994D01*
X0064147Y0144353D01*
X0063506Y0143517D01*
X0063103Y0142544D01*
X0062966Y0141500D01*
X0063103Y0140456D01*
X0063506Y0139483D01*
X0064147Y0138647D01*
X0064983Y0138006D01*
X0065956Y0137603D01*
X0067000Y0137466D01*
X0068044Y0137603D01*
X0069017Y0138006D01*
X0069853Y0138647D01*
X0070494Y0139483D01*
X0070897Y0140456D01*
X0071034Y0141500D01*
X0070897Y0142544D01*
X0070494Y0143517D01*
X0069853Y0144353D01*
X0069017Y0144994D01*
X0068044Y0145397D01*
X0067000Y0145535D01*
D02*
G37*
G36*
X0194500Y0162034D02*
X0193456Y0161897D01*
X0192483Y0161494D01*
X0191647Y0160853D01*
X0191006Y0160017D01*
X0190603Y0159044D01*
X0190465Y0158000D01*
X0190603Y0156956D01*
X0191006Y0155983D01*
X0191647Y0155147D01*
X0192483Y0154506D01*
X0193456Y0154103D01*
X0194500Y0153965D01*
X0195544Y0154103D01*
X0195956Y0154274D01*
X0196271Y0153863D01*
X0196006Y0153517D01*
X0195603Y0152544D01*
X0195466Y0151500D01*
X0195603Y0150456D01*
X0195828Y0149912D01*
X0195578Y0149479D01*
X0194956Y0149397D01*
X0193983Y0148994D01*
X0193147Y0148353D01*
X0192506Y0147517D01*
X0192103Y0146544D01*
X0191965Y0145500D01*
X0192099Y0144486D01*
X0192096Y0144325D01*
X0191882Y0143953D01*
X0191456Y0143897D01*
X0190483Y0143494D01*
X0189647Y0142853D01*
X0189006Y0142017D01*
X0188603Y0141044D01*
X0188465Y0140000D01*
X0188603Y0138956D01*
X0189006Y0137983D01*
X0189647Y0137147D01*
X0190483Y0136506D01*
X0191456Y0136103D01*
X0192500Y0135966D01*
X0193544Y0136103D01*
X0194517Y0136506D01*
X0195353Y0137147D01*
X0195685Y0137580D01*
X0196315D01*
X0196647Y0137147D01*
X0197483Y0136506D01*
X0198456Y0136103D01*
X0199500Y0135966D01*
X0200544Y0136103D01*
X0201517Y0136506D01*
X0202353Y0137147D01*
X0202685Y0137580D01*
X0203315D01*
X0203647Y0137147D01*
X0204483Y0136506D01*
X0205456Y0136103D01*
X0206500Y0135966D01*
X0207544Y0136103D01*
X0208517Y0136506D01*
X0209353Y0137147D01*
X0209994Y0137983D01*
X0210397Y0138956D01*
X0210535Y0140000D01*
X0210397Y0141044D01*
X0209994Y0142017D01*
X0209353Y0142853D01*
X0208517Y0143494D01*
X0207544Y0143897D01*
X0207118Y0143953D01*
X0206904Y0144325D01*
X0206901Y0144486D01*
X0207034Y0145500D01*
X0206897Y0146544D01*
X0206494Y0147517D01*
X0205853Y0148353D01*
X0205017Y0148994D01*
X0204044Y0149397D01*
X0203422Y0149479D01*
X0203172Y0149912D01*
X0203397Y0150456D01*
X0203535Y0151500D01*
X0203397Y0152544D01*
X0202994Y0153517D01*
X0202353Y0154353D01*
X0201517Y0154994D01*
X0200544Y0155397D01*
X0199500Y0155535D01*
X0198456Y0155397D01*
X0198044Y0155226D01*
X0197729Y0155637D01*
X0197994Y0155983D01*
X0198397Y0156956D01*
X0198535Y0158000D01*
X0198397Y0159044D01*
X0197994Y0160017D01*
X0197353Y0160853D01*
X0196517Y0161494D01*
X0195544Y0161897D01*
X0194500Y0162034D01*
D02*
G37*
G36*
X0080500Y0138034D02*
X0079456Y0137897D01*
X0078483Y0137494D01*
X0077647Y0136853D01*
X0077006Y0136017D01*
X0076603Y0135044D01*
X0076465Y0134000D01*
X0076603Y0132956D01*
X0077006Y0131983D01*
X0077310Y0131587D01*
X0077180Y0130934D01*
X0077086Y0130880D01*
X0077044Y0130897D01*
X0076000Y0131035D01*
X0074956Y0130897D01*
X0074914Y0130880D01*
X0074820Y0130934D01*
X0074691Y0131587D01*
X0074994Y0131983D01*
X0075397Y0132956D01*
X0075534Y0134000D01*
X0075397Y0135044D01*
X0074994Y0136017D01*
X0074353Y0136853D01*
X0073517Y0137494D01*
X0072544Y0137897D01*
X0071500Y0138034D01*
X0070456Y0137897D01*
X0069483Y0137494D01*
X0068647Y0136853D01*
X0068006Y0136017D01*
X0067603Y0135044D01*
X0067466Y0134000D01*
X0067603Y0132956D01*
X0068006Y0131983D01*
X0068309Y0131587D01*
X0068180Y0130934D01*
X0068086Y0130880D01*
X0068044Y0130897D01*
X0067000Y0131035D01*
X0065956Y0130897D01*
X0065914Y0130880D01*
X0065820Y0130934D01*
X0065690Y0131587D01*
X0065994Y0131983D01*
X0066397Y0132956D01*
X0066535Y0134000D01*
X0066397Y0135044D01*
X0065994Y0136017D01*
X0065353Y0136853D01*
X0064517Y0137494D01*
X0063544Y0137897D01*
X0062500Y0138034D01*
X0061456Y0137897D01*
X0060483Y0137494D01*
X0059647Y0136853D01*
X0059006Y0136017D01*
X0058603Y0135044D01*
X0058465Y0134000D01*
X0058603Y0132956D01*
X0059006Y0131983D01*
X0059647Y0131147D01*
X0060483Y0130506D01*
X0061456Y0130103D01*
X0062500Y0129965D01*
X0063544Y0130103D01*
X0063586Y0130120D01*
X0063680Y0130066D01*
X0063810Y0129413D01*
X0063506Y0129017D01*
X0063103Y0128044D01*
X0062966Y0127000D01*
X0063103Y0125956D01*
X0063506Y0124983D01*
X0064147Y0124147D01*
X0064983Y0123506D01*
X0065956Y0123103D01*
X0067000Y0122966D01*
X0067469Y0123027D01*
X0067820Y0122569D01*
X0067603Y0122044D01*
X0067466Y0121000D01*
X0067603Y0119956D01*
X0068006Y0118983D01*
X0068647Y0118147D01*
X0069483Y0117506D01*
X0070456Y0117103D01*
X0071500Y0116965D01*
X0072544Y0117103D01*
X0073517Y0117506D01*
X0074353Y0118147D01*
X0074994Y0118983D01*
X0075397Y0119956D01*
X0075534Y0121000D01*
X0075397Y0122044D01*
X0075180Y0122569D01*
X0075531Y0123027D01*
X0076000Y0122966D01*
X0077044Y0123103D01*
X0078017Y0123506D01*
X0078853Y0124147D01*
X0079494Y0124983D01*
X0079897Y0125956D01*
X0080035Y0127000D01*
X0079897Y0128044D01*
X0079494Y0129017D01*
X0079190Y0129413D01*
X0079320Y0130066D01*
X0079414Y0130120D01*
X0079456Y0130103D01*
X0080500Y0129965D01*
X0081544Y0130103D01*
X0082517Y0130506D01*
X0083353Y0131147D01*
X0083994Y0131983D01*
X0084397Y0132956D01*
X0084535Y0134000D01*
X0084397Y0135044D01*
X0083994Y0136017D01*
X0083353Y0136853D01*
X0082517Y0137494D01*
X0081544Y0137897D01*
X0080500Y0138034D01*
D02*
G37*
G36*
X0345000Y0124035D02*
X0343956Y0123897D01*
X0342983Y0123494D01*
X0342147Y0122853D01*
X0341506Y0122017D01*
X0341103Y0121044D01*
X0340966Y0120000D01*
X0341103Y0118956D01*
X0341506Y0117983D01*
X0342147Y0117147D01*
X0342983Y0116506D01*
X0343956Y0116103D01*
X0345000Y0115965D01*
X0346044Y0116103D01*
X0347017Y0116506D01*
X0347853Y0117147D01*
X0348494Y0117983D01*
X0348897Y0118956D01*
X0349035Y0120000D01*
X0348897Y0121044D01*
X0348494Y0122017D01*
X0347853Y0122853D01*
X0347017Y0123494D01*
X0346044Y0123897D01*
X0345000Y0124035D01*
D02*
G37*
G36*
X0315000D02*
X0313956Y0123897D01*
X0312983Y0123494D01*
X0312147Y0122853D01*
X0311506Y0122017D01*
X0311103Y0121044D01*
X0310965Y0120000D01*
X0311103Y0118956D01*
X0311506Y0117983D01*
X0312147Y0117147D01*
X0312983Y0116506D01*
X0313956Y0116103D01*
X0315000Y0115965D01*
X0316044Y0116103D01*
X0317017Y0116506D01*
X0317853Y0117147D01*
X0318494Y0117983D01*
X0318897Y0118956D01*
X0319035Y0120000D01*
X0318897Y0121044D01*
X0318494Y0122017D01*
X0317853Y0122853D01*
X0317017Y0123494D01*
X0316044Y0123897D01*
X0315000Y0124035D01*
D02*
G37*
G36*
X0255000D02*
X0253956Y0123897D01*
X0252983Y0123494D01*
X0252147Y0122853D01*
X0251506Y0122017D01*
X0251103Y0121044D01*
X0250965Y0120000D01*
X0251103Y0118956D01*
X0251506Y0117983D01*
X0252147Y0117147D01*
X0252983Y0116506D01*
X0253956Y0116103D01*
X0255000Y0115965D01*
X0256044Y0116103D01*
X0257017Y0116506D01*
X0257853Y0117147D01*
X0258494Y0117983D01*
X0258897Y0118956D01*
X0259034Y0120000D01*
X0258897Y0121044D01*
X0258494Y0122017D01*
X0257853Y0122853D01*
X0257017Y0123494D01*
X0256044Y0123897D01*
X0255000Y0124035D01*
D02*
G37*
G36*
X0045000D02*
X0043956Y0123897D01*
X0042983Y0123494D01*
X0042147Y0122853D01*
X0041506Y0122017D01*
X0041103Y0121044D01*
X0040966Y0120000D01*
X0041103Y0118956D01*
X0041506Y0117983D01*
X0042147Y0117147D01*
X0042983Y0116506D01*
X0043956Y0116103D01*
X0045000Y0115965D01*
X0046044Y0116103D01*
X0047017Y0116506D01*
X0047853Y0117147D01*
X0048494Y0117983D01*
X0048897Y0118956D01*
X0049035Y0120000D01*
X0048897Y0121044D01*
X0048494Y0122017D01*
X0047853Y0122853D01*
X0047017Y0123494D01*
X0046044Y0123897D01*
X0045000Y0124035D01*
D02*
G37*
G36*
X0272000Y0121828D02*
X0271139Y0121715D01*
X0270336Y0121382D01*
X0269646Y0120854D01*
X0269117Y0120164D01*
X0268785Y0119361D01*
X0268671Y0118500D01*
X0268785Y0117639D01*
X0269117Y0116836D01*
X0269646Y0116146D01*
X0270336Y0115618D01*
X0271139Y0115285D01*
X0272000Y0115172D01*
X0272862Y0115285D01*
X0273664Y0115618D01*
X0274354Y0116146D01*
X0274883Y0116836D01*
X0275215Y0117639D01*
X0275328Y0118500D01*
X0275215Y0119361D01*
X0274883Y0120164D01*
X0274354Y0120854D01*
X0273664Y0121382D01*
X0272862Y0121715D01*
X0272000Y0121828D01*
D02*
G37*
G36*
X0227000Y0123035D02*
X0225956Y0122897D01*
X0224983Y0122494D01*
X0224147Y0121853D01*
X0223506Y0121017D01*
X0223103Y0120044D01*
X0222966Y0119000D01*
X0223103Y0117956D01*
X0223506Y0116983D01*
X0224147Y0116147D01*
X0224983Y0115506D01*
X0225956Y0115103D01*
X0227000Y0114965D01*
X0228044Y0115103D01*
X0229017Y0115506D01*
X0229853Y0116147D01*
X0230494Y0116983D01*
X0230897Y0117956D01*
X0231034Y0119000D01*
X0230897Y0120044D01*
X0230494Y0121017D01*
X0229853Y0121853D01*
X0229017Y0122494D01*
X0228044Y0122897D01*
X0227000Y0123035D01*
D02*
G37*
G36*
X0211000D02*
X0209956Y0122897D01*
X0208983Y0122494D01*
X0208147Y0121853D01*
X0207506Y0121017D01*
X0207103Y0120044D01*
X0206965Y0119000D01*
X0207103Y0117956D01*
X0207506Y0116983D01*
X0208147Y0116147D01*
X0208983Y0115506D01*
X0209956Y0115103D01*
X0211000Y0114965D01*
X0212044Y0115103D01*
X0213017Y0115506D01*
X0213853Y0116147D01*
X0214494Y0116983D01*
X0214897Y0117956D01*
X0215035Y0119000D01*
X0214897Y0120044D01*
X0214494Y0121017D01*
X0213853Y0121853D01*
X0213017Y0122494D01*
X0212044Y0122897D01*
X0211000Y0123035D01*
D02*
G37*
G36*
X0219000Y0115534D02*
X0217956Y0115397D01*
X0216983Y0114994D01*
X0216147Y0114353D01*
X0215506Y0113517D01*
X0215103Y0112544D01*
X0214966Y0111500D01*
X0215103Y0110456D01*
X0215506Y0109483D01*
X0216147Y0108647D01*
X0216983Y0108006D01*
X0217956Y0107603D01*
X0219000Y0107466D01*
X0220044Y0107603D01*
X0221017Y0108006D01*
X0221853Y0108647D01*
X0222494Y0109483D01*
X0222897Y0110456D01*
X0223035Y0111500D01*
X0222897Y0112544D01*
X0222494Y0113517D01*
X0221853Y0114353D01*
X0221017Y0114994D01*
X0220044Y0115397D01*
X0219000Y0115534D01*
D02*
G37*
G36*
X0193500Y0111535D02*
X0192456Y0111397D01*
X0191483Y0110994D01*
X0190647Y0110353D01*
X0190006Y0109517D01*
X0189603Y0108544D01*
X0189465Y0107500D01*
X0189603Y0106456D01*
X0190006Y0105483D01*
X0190647Y0104647D01*
X0191483Y0104006D01*
X0192456Y0103603D01*
X0193500Y0103465D01*
X0194544Y0103603D01*
X0195517Y0104006D01*
X0196353Y0104647D01*
X0196994Y0105483D01*
X0197397Y0106456D01*
X0197535Y0107500D01*
X0197397Y0108544D01*
X0196994Y0109517D01*
X0196353Y0110353D01*
X0195517Y0110994D01*
X0194544Y0111397D01*
X0193500Y0111535D01*
D02*
G37*
G36*
X0287500Y0110079D02*
X0286638Y0109965D01*
X0285836Y0109633D01*
X0285146Y0109104D01*
X0284617Y0108414D01*
X0284285Y0107612D01*
X0284172Y0106750D01*
X0284285Y0105888D01*
X0284617Y0105086D01*
X0285146Y0104396D01*
X0285836Y0103867D01*
X0286638Y0103535D01*
X0287500Y0103421D01*
X0288362Y0103535D01*
X0289164Y0103867D01*
X0289854Y0104396D01*
X0290383Y0105086D01*
X0290715Y0105888D01*
X0290828Y0106750D01*
X0290715Y0107612D01*
X0290383Y0108414D01*
X0289854Y0109104D01*
X0289164Y0109633D01*
X0288362Y0109965D01*
X0287500Y0110079D01*
D02*
G37*
G36*
X0330000Y0094034D02*
X0328956Y0093897D01*
X0327983Y0093494D01*
X0327147Y0092853D01*
X0326506Y0092017D01*
X0326103Y0091044D01*
X0325965Y0090000D01*
X0326103Y0088956D01*
X0326506Y0087983D01*
X0327147Y0087147D01*
X0327983Y0086506D01*
X0328956Y0086103D01*
X0330000Y0085966D01*
X0331044Y0086103D01*
X0332017Y0086506D01*
X0332853Y0087147D01*
X0333494Y0087983D01*
X0333897Y0088956D01*
X0334034Y0090000D01*
X0333897Y0091044D01*
X0333494Y0092017D01*
X0332853Y0092853D01*
X0332017Y0093494D01*
X0331044Y0093897D01*
X0330000Y0094034D01*
D02*
G37*
G36*
X0210000D02*
X0208956Y0093897D01*
X0207983Y0093494D01*
X0207147Y0092853D01*
X0206506Y0092017D01*
X0206103Y0091044D01*
X0205965Y0090000D01*
X0206103Y0088956D01*
X0206506Y0087983D01*
X0207147Y0087147D01*
X0207983Y0086506D01*
X0208956Y0086103D01*
X0210000Y0085966D01*
X0211044Y0086103D01*
X0212017Y0086506D01*
X0212853Y0087147D01*
X0213494Y0087983D01*
X0213897Y0088956D01*
X0214035Y0090000D01*
X0213897Y0091044D01*
X0213494Y0092017D01*
X0212853Y0092853D01*
X0212017Y0093494D01*
X0211044Y0093897D01*
X0210000Y0094034D01*
D02*
G37*
G36*
X0060000D02*
X0058956Y0093897D01*
X0057983Y0093494D01*
X0057147Y0092853D01*
X0056506Y0092017D01*
X0056103Y0091044D01*
X0055966Y0090000D01*
X0056103Y0088956D01*
X0056506Y0087983D01*
X0057147Y0087147D01*
X0057983Y0086506D01*
X0058956Y0086103D01*
X0060000Y0085966D01*
X0061044Y0086103D01*
X0062017Y0086506D01*
X0062853Y0087147D01*
X0063494Y0087983D01*
X0063897Y0088956D01*
X0064034Y0090000D01*
X0063897Y0091044D01*
X0063494Y0092017D01*
X0062853Y0092853D01*
X0062017Y0093494D01*
X0061044Y0093897D01*
X0060000Y0094034D01*
D02*
G37*
G36*
X0030000D02*
X0028956Y0093897D01*
X0027983Y0093494D01*
X0027147Y0092853D01*
X0026506Y0092017D01*
X0026103Y0091044D01*
X0025965Y0090000D01*
X0026103Y0088956D01*
X0026506Y0087983D01*
X0027147Y0087147D01*
X0027983Y0086506D01*
X0028956Y0086103D01*
X0030000Y0085966D01*
X0031044Y0086103D01*
X0032017Y0086506D01*
X0032853Y0087147D01*
X0033494Y0087983D01*
X0033897Y0088956D01*
X0034034Y0090000D01*
X0033897Y0091044D01*
X0033494Y0092017D01*
X0032853Y0092853D01*
X0032017Y0093494D01*
X0031044Y0093897D01*
X0030000Y0094034D01*
D02*
G37*
G36*
X0221975Y0091203D02*
X0221113Y0091090D01*
X0220311Y0090758D01*
X0219621Y0090229D01*
X0219092Y0089539D01*
X0218760Y0088736D01*
X0218647Y0087875D01*
X0218760Y0087014D01*
X0219092Y0086211D01*
X0219621Y0085521D01*
X0220311Y0084992D01*
X0221113Y0084660D01*
X0221975Y0084547D01*
X0222836Y0084660D01*
X0223639Y0084992D01*
X0224329Y0085521D01*
X0224857Y0086211D01*
X0225190Y0087014D01*
X0225304Y0087875D01*
X0225190Y0088736D01*
X0224857Y0089539D01*
X0224329Y0090229D01*
X0223639Y0090758D01*
X0222836Y0091090D01*
X0221975Y0091203D01*
D02*
G37*
G36*
X0278000Y0090829D02*
X0277138Y0090715D01*
X0276336Y0090383D01*
X0275646Y0089854D01*
X0275117Y0089164D01*
X0274785Y0088362D01*
X0274672Y0087500D01*
X0274785Y0086638D01*
X0275117Y0085836D01*
X0275646Y0085146D01*
X0276336Y0084617D01*
X0277138Y0084285D01*
X0278000Y0084171D01*
X0278861Y0084285D01*
X0279664Y0084617D01*
X0280354Y0085146D01*
X0280883Y0085836D01*
X0281215Y0086638D01*
X0281329Y0087500D01*
X0281215Y0088362D01*
X0280883Y0089164D01*
X0280354Y0089854D01*
X0279664Y0090383D01*
X0278861Y0090715D01*
X0278000Y0090829D01*
D02*
G37*
G36*
X0309500Y0085329D02*
X0308639Y0085215D01*
X0307836Y0084883D01*
X0307146Y0084354D01*
X0306617Y0083664D01*
X0306285Y0082862D01*
X0306171Y0082000D01*
X0306285Y0081138D01*
X0306617Y0080336D01*
X0307146Y0079646D01*
X0307836Y0079117D01*
X0308639Y0078785D01*
X0309500Y0078671D01*
X0310362Y0078785D01*
X0311164Y0079117D01*
X0311854Y0079646D01*
X0312383Y0080336D01*
X0312715Y0081138D01*
X0312828Y0082000D01*
X0312715Y0082862D01*
X0312383Y0083664D01*
X0311854Y0084354D01*
X0311164Y0084883D01*
X0310362Y0085215D01*
X0309500Y0085329D01*
D02*
G37*
G36*
X0288000Y0073535D02*
X0286956Y0073397D01*
X0285983Y0072994D01*
X0285147Y0072353D01*
X0284506Y0071517D01*
X0284103Y0070544D01*
X0283965Y0069500D01*
X0284103Y0068456D01*
X0284506Y0067483D01*
X0285147Y0066647D01*
X0285983Y0066006D01*
X0286956Y0065603D01*
X0288000Y0065465D01*
X0289044Y0065603D01*
X0290017Y0066006D01*
X0290853Y0066647D01*
X0291494Y0067483D01*
X0291897Y0068456D01*
X0292035Y0069500D01*
X0291897Y0070544D01*
X0291494Y0071517D01*
X0290853Y0072353D01*
X0290017Y0072994D01*
X0289044Y0073397D01*
X0288000Y0073535D01*
D02*
G37*
G36*
X0310500Y0073035D02*
X0309456Y0072897D01*
X0308483Y0072494D01*
X0307647Y0071853D01*
X0307006Y0071017D01*
X0306603Y0070044D01*
X0306466Y0069000D01*
X0306603Y0067956D01*
X0307006Y0066983D01*
X0307647Y0066147D01*
X0308483Y0065506D01*
X0309456Y0065103D01*
X0310221Y0065002D01*
Y0064498D01*
X0309456Y0064397D01*
X0308483Y0063994D01*
X0307647Y0063353D01*
X0307006Y0062517D01*
X0306603Y0061544D01*
X0306466Y0060500D01*
X0306603Y0059456D01*
X0307006Y0058483D01*
X0307647Y0057647D01*
X0308483Y0057006D01*
X0309456Y0056603D01*
X0310500Y0056466D01*
X0311544Y0056603D01*
X0312517Y0057006D01*
X0313353Y0057647D01*
X0313994Y0058483D01*
X0314397Y0059456D01*
X0314534Y0060500D01*
X0314397Y0061544D01*
X0313994Y0062517D01*
X0313353Y0063353D01*
X0312517Y0063994D01*
X0311544Y0064397D01*
X0310779Y0064498D01*
Y0065002D01*
X0311544Y0065103D01*
X0312517Y0065506D01*
X0313353Y0066147D01*
X0313994Y0066983D01*
X0314397Y0067956D01*
X0314534Y0069000D01*
X0314397Y0070044D01*
X0313994Y0071017D01*
X0313353Y0071853D01*
X0312517Y0072494D01*
X0311544Y0072897D01*
X0310500Y0073035D01*
D02*
G37*
G36*
X0293000Y0064534D02*
X0291956Y0064397D01*
X0290983Y0063994D01*
X0290147Y0063353D01*
X0289506Y0062517D01*
X0289103Y0061544D01*
X0288966Y0060500D01*
X0289103Y0059456D01*
X0289506Y0058483D01*
X0290147Y0057647D01*
X0290983Y0057006D01*
X0291956Y0056603D01*
X0293000Y0056466D01*
X0294044Y0056603D01*
X0295017Y0057006D01*
X0295853Y0057647D01*
X0296494Y0058483D01*
X0296897Y0059456D01*
X0297035Y0060500D01*
X0296897Y0061544D01*
X0296494Y0062517D01*
X0295853Y0063353D01*
X0295017Y0063994D01*
X0294044Y0064397D01*
X0293000Y0064534D01*
D02*
G37*
G36*
X0282500D02*
X0281456Y0064397D01*
X0280483Y0063994D01*
X0279647Y0063353D01*
X0279006Y0062517D01*
X0278603Y0061544D01*
X0278466Y0060500D01*
X0278603Y0059456D01*
X0279006Y0058483D01*
X0279647Y0057647D01*
X0280483Y0057006D01*
X0281456Y0056603D01*
X0282500Y0056466D01*
X0283544Y0056603D01*
X0284517Y0057006D01*
X0285353Y0057647D01*
X0285994Y0058483D01*
X0286397Y0059456D01*
X0286535Y0060500D01*
X0286397Y0061544D01*
X0285994Y0062517D01*
X0285353Y0063353D01*
X0284517Y0063994D01*
X0283544Y0064397D01*
X0282500Y0064534D01*
D02*
G37*
G36*
X0345000Y0064034D02*
X0343956Y0063897D01*
X0342983Y0063494D01*
X0342147Y0062853D01*
X0341506Y0062017D01*
X0341103Y0061044D01*
X0340966Y0060000D01*
X0341103Y0058956D01*
X0341506Y0057983D01*
X0342147Y0057147D01*
X0342983Y0056506D01*
X0343956Y0056103D01*
X0345000Y0055966D01*
X0346044Y0056103D01*
X0347017Y0056506D01*
X0347853Y0057147D01*
X0348494Y0057983D01*
X0348897Y0058956D01*
X0349035Y0060000D01*
X0348897Y0061044D01*
X0348494Y0062017D01*
X0347853Y0062853D01*
X0347017Y0063494D01*
X0346044Y0063897D01*
X0345000Y0064034D01*
D02*
G37*
G36*
X0255000D02*
X0253956Y0063897D01*
X0252983Y0063494D01*
X0252147Y0062853D01*
X0251506Y0062017D01*
X0251103Y0061044D01*
X0250965Y0060000D01*
X0251103Y0058956D01*
X0251506Y0057983D01*
X0252147Y0057147D01*
X0252983Y0056506D01*
X0253956Y0056103D01*
X0255000Y0055966D01*
X0256044Y0056103D01*
X0257017Y0056506D01*
X0257853Y0057147D01*
X0258494Y0057983D01*
X0258897Y0058956D01*
X0259034Y0060000D01*
X0258897Y0061044D01*
X0258494Y0062017D01*
X0257853Y0062853D01*
X0257017Y0063494D01*
X0256044Y0063897D01*
X0255000Y0064034D01*
D02*
G37*
G36*
X0225000D02*
X0223956Y0063897D01*
X0222983Y0063494D01*
X0222147Y0062853D01*
X0221506Y0062017D01*
X0221103Y0061044D01*
X0220966Y0060000D01*
X0221103Y0058956D01*
X0221506Y0057983D01*
X0222147Y0057147D01*
X0222983Y0056506D01*
X0223956Y0056103D01*
X0225000Y0055966D01*
X0226044Y0056103D01*
X0227017Y0056506D01*
X0227853Y0057147D01*
X0228494Y0057983D01*
X0228897Y0058956D01*
X0229034Y0060000D01*
X0228897Y0061044D01*
X0228494Y0062017D01*
X0227853Y0062853D01*
X0227017Y0063494D01*
X0226044Y0063897D01*
X0225000Y0064034D01*
D02*
G37*
G36*
X0045000D02*
X0043956Y0063897D01*
X0042983Y0063494D01*
X0042147Y0062853D01*
X0041506Y0062017D01*
X0041103Y0061044D01*
X0040966Y0060000D01*
X0041103Y0058956D01*
X0041506Y0057983D01*
X0042147Y0057147D01*
X0042983Y0056506D01*
X0043956Y0056103D01*
X0045000Y0055966D01*
X0046044Y0056103D01*
X0047017Y0056506D01*
X0047853Y0057147D01*
X0048494Y0057983D01*
X0048897Y0058956D01*
X0049035Y0060000D01*
X0048897Y0061044D01*
X0048494Y0062017D01*
X0047853Y0062853D01*
X0047017Y0063494D01*
X0046044Y0063897D01*
X0045000Y0064034D01*
D02*
G37*
G36*
X0306685Y0046374D02*
X0305294Y0046190D01*
X0303998Y0045654D01*
X0302885Y0044800D01*
X0302031Y0043687D01*
X0301495Y0042391D01*
X0301311Y0041000D01*
X0301495Y0039609D01*
X0302031Y0038313D01*
X0302885Y0037200D01*
X0303998Y0036346D01*
X0305294Y0035810D01*
X0306685Y0035627D01*
X0308076Y0035810D01*
X0309372Y0036346D01*
X0310485Y0037200D01*
X0311339Y0038313D01*
X0311876Y0039609D01*
X0312059Y0041000D01*
X0311876Y0042391D01*
X0311339Y0043687D01*
X0310485Y0044800D01*
X0309372Y0045654D01*
X0308076Y0046190D01*
X0306685Y0046374D01*
D02*
G37*
G36*
X0287000D02*
X0285609Y0046190D01*
X0284313Y0045654D01*
X0283200Y0044800D01*
X0282346Y0043687D01*
X0281810Y0042391D01*
X0281627Y0041000D01*
X0281810Y0039609D01*
X0282346Y0038313D01*
X0283200Y0037200D01*
X0284313Y0036346D01*
X0285609Y0035810D01*
X0287000Y0035627D01*
X0288391Y0035810D01*
X0289687Y0036346D01*
X0290800Y0037200D01*
X0291654Y0038313D01*
X0292190Y0039609D01*
X0292373Y0041000D01*
X0292190Y0042391D01*
X0291654Y0043687D01*
X0290800Y0044800D01*
X0289687Y0045654D01*
X0288391Y0046190D01*
X0287000Y0046374D01*
D02*
G37*
G36*
X0267315Y0047057D02*
X0266133Y0046940D01*
X0264997Y0046596D01*
X0263950Y0046036D01*
X0263032Y0045283D01*
X0262279Y0044365D01*
X0261719Y0043318D01*
X0261375Y0042182D01*
X0261258Y0041000D01*
X0261375Y0039818D01*
X0261719Y0038682D01*
X0262279Y0037635D01*
X0263032Y0036717D01*
X0263950Y0035964D01*
X0264997Y0035404D01*
X0266133Y0035060D01*
X0267315Y0034943D01*
X0268497Y0035060D01*
X0269633Y0035404D01*
X0270680Y0035964D01*
X0271598Y0036717D01*
X0272351Y0037635D01*
X0272911Y0038682D01*
X0273255Y0039818D01*
X0273372Y0041000D01*
X0273255Y0042182D01*
X0272911Y0043318D01*
X0272351Y0044365D01*
X0271598Y0045283D01*
X0270680Y0046036D01*
X0269633Y0046596D01*
X0268497Y0046940D01*
X0267315Y0047057D01*
D02*
G37*
G36*
X0030000Y0034034D02*
X0028956Y0033897D01*
X0027983Y0033494D01*
X0027147Y0032853D01*
X0026506Y0032017D01*
X0026103Y0031044D01*
X0026008Y0030323D01*
X0025470Y0030066D01*
X0025092Y0030298D01*
X0023366Y0031013D01*
X0021548Y0031449D01*
X0019685Y0031596D01*
X0017822Y0031449D01*
X0016004Y0031013D01*
X0014278Y0030298D01*
X0012684Y0029321D01*
X0011263Y0028107D01*
X0010049Y0026686D01*
X0009072Y0025092D01*
X0008357Y0023366D01*
X0007921Y0021548D01*
X0007774Y0019685D01*
X0007921Y0017822D01*
X0008357Y0016004D01*
X0009072Y0014278D01*
X0010049Y0012684D01*
X0011263Y0011263D01*
X0012684Y0010049D01*
X0014278Y0009072D01*
X0016004Y0008357D01*
X0017822Y0007921D01*
X0019685Y0007774D01*
X0021548Y0007921D01*
X0023366Y0008357D01*
X0025092Y0009072D01*
X0026686Y0010049D01*
X0028107Y0011263D01*
X0029321Y0012684D01*
X0030298Y0014278D01*
X0031013Y0016004D01*
X0031449Y0017822D01*
X0031596Y0019685D01*
X0031449Y0021548D01*
X0031013Y0023366D01*
X0030298Y0025092D01*
X0030066Y0025470D01*
X0030323Y0026008D01*
X0031044Y0026103D01*
X0032017Y0026506D01*
X0032853Y0027147D01*
X0033494Y0027983D01*
X0033897Y0028956D01*
X0034034Y0030000D01*
X0033897Y0031044D01*
X0033494Y0032017D01*
X0032853Y0032853D01*
X0032017Y0033494D01*
X0031044Y0033897D01*
X0030000Y0034034D01*
D02*
G37*
G36*
X0300000D02*
X0298956Y0033897D01*
X0297983Y0033494D01*
X0297147Y0032853D01*
X0296506Y0032017D01*
X0296103Y0031044D01*
X0295966Y0030000D01*
X0296103Y0028956D01*
X0296506Y0027983D01*
X0297147Y0027147D01*
X0297983Y0026506D01*
X0298956Y0026103D01*
X0300000Y0025965D01*
X0301044Y0026103D01*
X0302017Y0026506D01*
X0302853Y0027147D01*
X0303494Y0027983D01*
X0303897Y0028956D01*
X0304034Y0030000D01*
X0303897Y0031044D01*
X0303494Y0032017D01*
X0302853Y0032853D01*
X0302017Y0033494D01*
X0301044Y0033897D01*
X0300000Y0034034D01*
D02*
G37*
G36*
X0270000D02*
X0268956Y0033897D01*
X0267983Y0033494D01*
X0267147Y0032853D01*
X0266506Y0032017D01*
X0266103Y0031044D01*
X0265966Y0030000D01*
X0266103Y0028956D01*
X0266506Y0027983D01*
X0267147Y0027147D01*
X0267983Y0026506D01*
X0268956Y0026103D01*
X0270000Y0025965D01*
X0271044Y0026103D01*
X0272017Y0026506D01*
X0272853Y0027147D01*
X0273494Y0027983D01*
X0273897Y0028956D01*
X0274035Y0030000D01*
X0273897Y0031044D01*
X0273494Y0032017D01*
X0272853Y0032853D01*
X0272017Y0033494D01*
X0271044Y0033897D01*
X0270000Y0034034D01*
D02*
G37*
G36*
X0240000D02*
X0238956Y0033897D01*
X0237983Y0033494D01*
X0237147Y0032853D01*
X0236506Y0032017D01*
X0236103Y0031044D01*
X0235965Y0030000D01*
X0236103Y0028956D01*
X0236506Y0027983D01*
X0237147Y0027147D01*
X0237983Y0026506D01*
X0238956Y0026103D01*
X0240000Y0025965D01*
X0241044Y0026103D01*
X0242017Y0026506D01*
X0242853Y0027147D01*
X0243494Y0027983D01*
X0243897Y0028956D01*
X0244035Y0030000D01*
X0243897Y0031044D01*
X0243494Y0032017D01*
X0242853Y0032853D01*
X0242017Y0033494D01*
X0241044Y0033897D01*
X0240000Y0034034D01*
D02*
G37*
G36*
X0210000D02*
X0208956Y0033897D01*
X0207983Y0033494D01*
X0207147Y0032853D01*
X0206506Y0032017D01*
X0206103Y0031044D01*
X0205965Y0030000D01*
X0206103Y0028956D01*
X0206506Y0027983D01*
X0207147Y0027147D01*
X0207983Y0026506D01*
X0208956Y0026103D01*
X0210000Y0025965D01*
X0211044Y0026103D01*
X0212017Y0026506D01*
X0212853Y0027147D01*
X0213494Y0027983D01*
X0213897Y0028956D01*
X0214035Y0030000D01*
X0213897Y0031044D01*
X0213494Y0032017D01*
X0212853Y0032853D01*
X0212017Y0033494D01*
X0211044Y0033897D01*
X0210000Y0034034D01*
D02*
G37*
G36*
X0060000D02*
X0058956Y0033897D01*
X0057983Y0033494D01*
X0057147Y0032853D01*
X0056506Y0032017D01*
X0056103Y0031044D01*
X0055966Y0030000D01*
X0056103Y0028956D01*
X0056506Y0027983D01*
X0057147Y0027147D01*
X0057983Y0026506D01*
X0058956Y0026103D01*
X0060000Y0025965D01*
X0061044Y0026103D01*
X0062017Y0026506D01*
X0062853Y0027147D01*
X0063494Y0027983D01*
X0063897Y0028956D01*
X0064034Y0030000D01*
X0063897Y0031044D01*
X0063494Y0032017D01*
X0062853Y0032853D01*
X0062017Y0033494D01*
X0061044Y0033897D01*
X0060000Y0034034D01*
D02*
G37*
G36*
X0334646Y0031596D02*
X0332782Y0031449D01*
X0330965Y0031013D01*
X0329238Y0030298D01*
X0327645Y0029321D01*
X0326223Y0028107D01*
X0325010Y0026686D01*
X0324033Y0025092D01*
X0323318Y0023366D01*
X0322882Y0021548D01*
X0322735Y0019685D01*
X0322882Y0017822D01*
X0323318Y0016004D01*
X0324033Y0014278D01*
X0325010Y0012684D01*
X0326223Y0011263D01*
X0327645Y0010049D01*
X0329238Y0009072D01*
X0330965Y0008357D01*
X0332782Y0007921D01*
X0334646Y0007774D01*
X0336509Y0007921D01*
X0338326Y0008357D01*
X0340053Y0009072D01*
X0341647Y0010049D01*
X0343068Y0011263D01*
X0344282Y0012684D01*
X0345258Y0014278D01*
X0345973Y0016004D01*
X0346410Y0017822D01*
X0346556Y0019685D01*
X0346410Y0021548D01*
X0345973Y0023366D01*
X0345258Y0025092D01*
X0344282Y0026686D01*
X0343068Y0028107D01*
X0341647Y0029321D01*
X0340053Y0030298D01*
X0338326Y0031013D01*
X0336509Y0031449D01*
X0334646Y0031596D01*
D02*
G37*
%LPD*%
G36*
X0200000Y0174000D02*
X0198000Y0172000D01*
X0187500D01*
X0183500Y0168000D01*
Y0109000D01*
X0183000Y0108500D01*
X0197500Y0094000D01*
Y0042000D01*
X0178000Y0022500D01*
X0137529D01*
Y0186000D01*
X0137432Y0186488D01*
X0137413Y0186585D01*
X0137081Y0187081D01*
X0137000Y0187163D01*
Y0189000D01*
X0141000Y0193000D01*
X0200000D01*
Y0174000D01*
D02*
G37*
G36*
X0131409Y0190592D02*
X0130968Y0189933D01*
X0130813Y0189152D01*
X0130968Y0188372D01*
X0131410Y0187710D01*
X0132072Y0187268D01*
X0132852Y0187113D01*
X0133633Y0187268D01*
X0134292Y0187708D01*
X0136000Y0186000D01*
Y0022500D01*
X0097000D01*
X0076500Y0043000D01*
Y0091500D01*
X0091000Y0106000D01*
X0091000Y0163000D01*
X0081000Y0173000D01*
X0066500D01*
X0066500Y0188500D01*
X0071500Y0193500D01*
X0128500D01*
X0131409Y0190592D01*
D02*
G37*
%LPC*%
G36*
X0168462Y0191077D02*
X0167681Y0190922D01*
X0167020Y0190480D01*
X0166578Y0189819D01*
X0166423Y0189038D01*
X0166578Y0188258D01*
X0167020Y0187596D01*
X0167681Y0187154D01*
X0168462Y0186999D01*
X0169242Y0187154D01*
X0169904Y0187596D01*
X0170346Y0188258D01*
X0170501Y0189038D01*
X0170346Y0189819D01*
X0169904Y0190480D01*
X0169242Y0190922D01*
X0168462Y0191077D01*
D02*
G37*
G36*
X0087500Y0186539D02*
X0086720Y0186384D01*
X0086058Y0185942D01*
X0085616Y0185280D01*
X0085461Y0184500D01*
X0085616Y0183720D01*
X0086058Y0183058D01*
X0086720Y0182616D01*
X0087500Y0182461D01*
X0088280Y0182616D01*
X0088942Y0183058D01*
X0089384Y0183720D01*
X0089539Y0184500D01*
X0089384Y0185280D01*
X0088942Y0185942D01*
X0088280Y0186384D01*
X0087500Y0186539D01*
D02*
G37*
%LPD*%
D79*
X0115063Y0043685D02*
D03*
X0158370Y0089685D02*
D03*
X0115063D02*
D03*
X0099315D02*
D03*
Y0043685D02*
D03*
X0174118Y0089685D02*
D03*
X0158370Y0043685D02*
D03*
X0174118D02*
D03*
X0157937Y0317315D02*
D03*
Y0271315D02*
D03*
X0173685D02*
D03*
Y0317315D02*
D03*
D81*
X0127157Y0141000D02*
D03*
X0146843D02*
D03*
D82*
X0190000Y0179900D02*
D03*
X0092500Y0180000D02*
D03*
X0074500D02*
D03*
X0152500D02*
D03*
X0180000Y0080000D02*
D03*
X0190000Y0060000D02*
D03*
X0160000Y0160000D02*
D03*
Y0120000D02*
D03*
X0170000Y0100000D02*
D03*
X0160000Y0080000D02*
D03*
X0170000Y0060000D02*
D03*
X0120000Y0160000D02*
D03*
Y0120000D02*
D03*
X0130000Y0100000D02*
D03*
X0120000Y0080000D02*
D03*
X0130000Y0060000D02*
D03*
X0110000Y0180000D02*
D03*
Y0100000D02*
D03*
X0100000Y0080000D02*
D03*
X0110000Y0060000D02*
D03*
X0090000Y0100000D02*
D03*
Y0060000D02*
D03*
X0219000Y0220000D02*
D03*
X0210000Y0210500D02*
D03*
X0201000Y0220000D02*
D03*
X0175000Y0213000D02*
D03*
X0180000Y0220000D02*
D03*
X0160000D02*
D03*
X0137500Y0212500D02*
D03*
X0104500D02*
D03*
X0095000D02*
D03*
X0120500Y0220000D02*
D03*
X0099500D02*
D03*
X0080500D02*
D03*
X0220000Y0280000D02*
D03*
X0210000Y0300000D02*
D03*
X0200000Y0280000D02*
D03*
X0210000Y0260000D02*
D03*
Y0220000D02*
D03*
X0190000Y0300000D02*
D03*
X0180000Y0280000D02*
D03*
X0190000Y0260000D02*
D03*
X0170000Y0300000D02*
D03*
X0160000Y0280000D02*
D03*
X0170000Y0260000D02*
D03*
Y0220000D02*
D03*
X0150000Y0300000D02*
D03*
Y0260000D02*
D03*
X0130000Y0220000D02*
D03*
X0090000D02*
D03*
X0194500Y0175000D02*
D03*
M02*
