M48
;Layer_Color=9474304
;FILE_FORMAT=2:5
INCH,LZ
;TYPE=PLATED
T1F00S00C0.01200
T2F00S00C0.03543
T3F00S00C0.04016
;TYPE=NON_PLATED
T4F00S00C0.11811
%
T01
X00504Y-0261
X00843Y-02545
X00919Y-02489
X01218Y-02583
X015315Y-02492
X01736Y-02538
X0161Y-02865
X0197
X00815Y-02863
X02125Y-02875
X02205
X02345Y-02665
X0241
X02473Y-02636
X02423Y-02418
X02417Y-02388
X02307Y-02355
X02707Y-01949
Y-0139332
X02135Y-01493
X02066
X01998
X0192Y-01419
X0179Y-01456
X01532Y-01407
X01497
X01457Y-01466
Y-01506
Y-0154
Y-0157
Y-016
X01332Y-01605
X01362Y-01678
X01261Y-01693
X01196Y-01711
X011865Y-018515
X01271Y-0182
Y-01891
X01532Y-0188
X01526Y-0199325
X01709Y-01881
X01854Y-01755
X01631Y-01654
Y-01624
X01419Y-0136062
X0138173
X01364Y-01407
X0119495Y-0139036
X0118874Y-0145474
X01212Y-01523
X01038Y-01585
X01043Y-01713
X00872Y-01626
X0071Y-01665
X0071376Y-0182688
X0070142Y-0206736
X0063142
X0056142
X0059642Y-0213736
X00695Y-01459
X0073Y-0111735
X0104Y-0125
Y-01315
X0132Y-01165
X0138074Y-0116626
X0144043Y-012164
X01475
X01834Y-0223193
X019915Y-02232
X0052642Y-0213736
X0045642
X0049142Y-0206736
X0017Y-01519
Y-0092
X00695Y-0087
X00874Y-00738
X00925Y-00709
X01091Y-0082
X01055Y-00525
X0122441Y-00411
X01107Y-00154
X00566
X00685Y-00411
X01765
X01648Y-00154
X021015Y-0047128
X02028Y-00705
X01941
X02218Y-00818
X0233Y-00419
X02212Y-00154
T02
X00858Y-010795
X00958
X01565Y-01115
X01665
Y-01015
Y-00915
X01565
Y-01015
X0198Y-011085
X0208
X01665Y-00815
X01565
T03
X01352Y-02537
X019Y-02536
X02195Y-02368
X0237Y-01765
X02374Y-01238
X0216Y-009535
X0198Y-00955
X0134Y-01025
X0104Y-009535
X0086Y-00955
X00635Y-0112
X00784Y-01296
X00785Y-01485
X0064Y-01755
Y-0194
X01347Y-02295
X019Y-02368
X0204
X0134Y-00895
X01495Y-00579
X00633Y-00638
T04
X0025862Y-027615
X0262083
X0025862Y-0039929
X0262083
M30
