G04*
G04 #@! TF.GenerationSoftware,Altium Limited,Altium Designer,21.2.2 (38)*
G04*
G04 Layer_Physical_Order=2*
G04 Layer_Color=16711680*
%FSLAX25Y25*%
%MOIN*%
G70*
G04*
G04 #@! TF.SameCoordinates,52117D65-C431-4FFD-8FC0-9D8E63821E45*
G04*
G04*
G04 #@! TF.FilePolarity,Positive*
G04*
G01*
G75*
%ADD30C,0.17717*%
%ADD31C,0.09055*%
%ADD32C,0.06693*%
%ADD33R,0.06693X0.06693*%
%ADD34C,0.02362*%
G36*
X9673Y144480D02*
X9673Y144480D01*
X255681Y144480D01*
X255682Y144480D01*
Y144480D01*
X256909Y144359D01*
X258089Y144001D01*
X259177Y143420D01*
X260130Y142637D01*
X260912Y141684D01*
X261494Y140596D01*
X261852Y139416D01*
X261972Y138189D01*
X261972Y138189D01*
X261972D01*
X261973Y137689D01*
X261972Y8374D01*
X261972Y7874D01*
X261972Y7874D01*
X261928Y7393D01*
X261843Y6536D01*
X261453Y5250D01*
X260820Y4064D01*
X259967Y3025D01*
X258928Y2173D01*
X257742Y1539D01*
X256456Y1149D01*
X255127Y1018D01*
X255118Y1020D01*
X11129Y1020D01*
X10629Y1020D01*
X10142Y1052D01*
X8751Y1189D01*
X6946Y1736D01*
X5282Y2626D01*
X3823Y3823D01*
X2626Y5282D01*
X1736Y6946D01*
X1189Y8751D01*
X1051Y10143D01*
X1020Y10630D01*
X1020Y10630D01*
X1020Y11130D01*
X1020Y135827D01*
X1012Y135865D01*
X1175Y137518D01*
X1668Y139143D01*
X2468Y140641D01*
X3546Y141954D01*
X4859Y143032D01*
X6357Y143832D01*
X7982Y144325D01*
X9188Y144444D01*
X9673Y144480D01*
X9673Y144480D01*
D02*
G37*
%LPC*%
G36*
X12205Y142081D02*
X10370Y141900D01*
X8606Y141365D01*
X6980Y140496D01*
X5555Y139327D01*
X4386Y137901D01*
X3517Y136276D01*
X2982Y134512D01*
X2801Y132677D01*
X2982Y130843D01*
X3517Y129079D01*
X4386Y127453D01*
X5555Y126028D01*
X6980Y124858D01*
X8606Y123989D01*
X10370Y123454D01*
X12205Y123274D01*
X14039Y123454D01*
X15803Y123989D01*
X17429Y124858D01*
X18854Y126028D01*
X20023Y127453D01*
X20892Y129079D01*
X21428Y130843D01*
X21608Y132677D01*
X21428Y134512D01*
X20892Y136276D01*
X20023Y137901D01*
X18854Y139327D01*
X17429Y140496D01*
X15803Y141365D01*
X14039Y141900D01*
X12205Y142081D01*
D02*
G37*
G36*
X247244Y141687D02*
X245409Y141506D01*
X243646Y140971D01*
X242020Y140102D01*
X240595Y138933D01*
X239425Y137508D01*
X238556Y135882D01*
X238021Y134118D01*
X237841Y132283D01*
X238021Y130449D01*
X238556Y128685D01*
X239425Y127059D01*
X240595Y125634D01*
X242020Y124465D01*
X243646Y123596D01*
X245409Y123061D01*
X247244Y122880D01*
X249079Y123061D01*
X250843Y123596D01*
X252468Y124465D01*
X253893Y125634D01*
X255063Y127059D01*
X255932Y128685D01*
X256467Y130449D01*
X256648Y132283D01*
X256467Y134118D01*
X255932Y135882D01*
X255063Y137508D01*
X253893Y138933D01*
X252468Y140102D01*
X250843Y140971D01*
X249079Y141506D01*
X247244Y141687D01*
D02*
G37*
G36*
X214173Y122394D02*
X212861Y122221D01*
X211638Y121714D01*
X210588Y120908D01*
X209782Y119858D01*
X209275Y118635D01*
X209102Y117323D01*
X209275Y116010D01*
X209782Y114787D01*
X210588Y113737D01*
X211638Y112931D01*
X212861Y112425D01*
X214173Y112252D01*
X215486Y112425D01*
X216709Y112931D01*
X217759Y113737D01*
X218565Y114787D01*
X219071Y116010D01*
X219244Y117323D01*
X219071Y118635D01*
X218565Y119858D01*
X217759Y120908D01*
X216709Y121714D01*
X215486Y122221D01*
X214173Y122394D01*
D02*
G37*
G36*
X23661Y106445D02*
X15968D01*
Y98752D01*
X23661D01*
Y106445D01*
D02*
G37*
G36*
X29815Y106478D02*
X28811Y106346D01*
X27875Y105958D01*
X27071Y105342D01*
X26455Y104538D01*
X26067Y103603D01*
X25935Y102598D01*
X26067Y101594D01*
X26455Y100659D01*
X27071Y99855D01*
X27875Y99239D01*
X28811Y98851D01*
X29815Y98719D01*
X30819Y98851D01*
X31754Y99239D01*
X32558Y99855D01*
X33175Y100659D01*
X33562Y101594D01*
X33694Y102598D01*
X33562Y103603D01*
X33175Y104538D01*
X32558Y105342D01*
X31754Y105958D01*
X30819Y106346D01*
X29815Y106478D01*
D02*
G37*
G36*
X214173Y102709D02*
X212861Y102536D01*
X211638Y102029D01*
X210588Y101224D01*
X209782Y100173D01*
X209275Y98950D01*
X209102Y97638D01*
X209275Y96325D01*
X209782Y95102D01*
X210588Y94052D01*
X211638Y93246D01*
X212861Y92740D01*
X214173Y92567D01*
X215486Y92740D01*
X216709Y93246D01*
X217759Y94052D01*
X218565Y95102D01*
X219071Y96325D01*
X219244Y97638D01*
X219071Y98950D01*
X218565Y100173D01*
X217759Y101224D01*
X216709Y102029D01*
X215486Y102536D01*
X214173Y102709D01*
D02*
G37*
G36*
X29815Y96478D02*
X28811Y96346D01*
X27875Y95958D01*
X27071Y95342D01*
X26455Y94538D01*
X26067Y93603D01*
X25935Y92598D01*
X26067Y91594D01*
X26455Y90659D01*
X27071Y89855D01*
X27875Y89239D01*
X28811Y88851D01*
X29815Y88719D01*
X30819Y88851D01*
X31754Y89239D01*
X32558Y89855D01*
X33175Y90659D01*
X33562Y91594D01*
X33694Y92598D01*
X33562Y93603D01*
X33175Y94538D01*
X32558Y95342D01*
X31754Y95958D01*
X30819Y96346D01*
X29815Y96478D01*
D02*
G37*
G36*
X19815D02*
X18811Y96346D01*
X17875Y95958D01*
X17071Y95342D01*
X16455Y94538D01*
X16067Y93603D01*
X15935Y92598D01*
X16067Y91594D01*
X16455Y90659D01*
X17071Y89855D01*
X17875Y89239D01*
X18811Y88851D01*
X19815Y88719D01*
X20819Y88851D01*
X21755Y89239D01*
X22558Y89855D01*
X23175Y90659D01*
X23562Y91594D01*
X23694Y92598D01*
X23562Y93603D01*
X23175Y94538D01*
X22558Y95342D01*
X21755Y95958D01*
X20819Y96346D01*
X19815Y96478D01*
D02*
G37*
G36*
X29815Y86478D02*
X28811Y86346D01*
X27875Y85958D01*
X27071Y85342D01*
X26455Y84538D01*
X26067Y83602D01*
X25935Y82598D01*
X26067Y81594D01*
X26455Y80659D01*
X27071Y79855D01*
X27875Y79239D01*
X28811Y78851D01*
X29815Y78719D01*
X30819Y78851D01*
X31754Y79239D01*
X32558Y79855D01*
X33175Y80659D01*
X33562Y81594D01*
X33694Y82598D01*
X33562Y83602D01*
X33175Y84538D01*
X32558Y85342D01*
X31754Y85958D01*
X30819Y86346D01*
X29815Y86478D01*
D02*
G37*
G36*
X19815D02*
X18811Y86346D01*
X17875Y85958D01*
X17071Y85342D01*
X16455Y84538D01*
X16067Y83602D01*
X15935Y82598D01*
X16067Y81594D01*
X16455Y80659D01*
X17071Y79855D01*
X17875Y79239D01*
X18811Y78851D01*
X19815Y78719D01*
X20819Y78851D01*
X21755Y79239D01*
X22558Y79855D01*
X23175Y80659D01*
X23562Y81594D01*
X23694Y82598D01*
X23562Y83602D01*
X23175Y84538D01*
X22558Y85342D01*
X21755Y85958D01*
X20819Y86346D01*
X19815Y86478D01*
D02*
G37*
G36*
X214173Y83024D02*
X212861Y82851D01*
X211638Y82344D01*
X210588Y81538D01*
X209782Y80488D01*
X209275Y79265D01*
X209102Y77953D01*
X209275Y76640D01*
X209782Y75417D01*
X210588Y74367D01*
X211638Y73561D01*
X212861Y73055D01*
X214173Y72882D01*
X215486Y73055D01*
X216709Y73561D01*
X217759Y74367D01*
X218565Y75417D01*
X219071Y76640D01*
X219244Y77953D01*
X219071Y79265D01*
X218565Y80488D01*
X217759Y81538D01*
X216709Y82344D01*
X215486Y82851D01*
X214173Y83024D01*
D02*
G37*
G36*
X29815Y76478D02*
X28811Y76346D01*
X27875Y75958D01*
X27071Y75342D01*
X26455Y74538D01*
X26067Y73602D01*
X25935Y72598D01*
X26067Y71594D01*
X26455Y70659D01*
X27071Y69855D01*
X27875Y69239D01*
X28811Y68851D01*
X29815Y68719D01*
X30819Y68851D01*
X31754Y69239D01*
X32558Y69855D01*
X33175Y70659D01*
X33562Y71594D01*
X33694Y72598D01*
X33562Y73602D01*
X33175Y74538D01*
X32558Y75342D01*
X31754Y75958D01*
X30819Y76346D01*
X29815Y76478D01*
D02*
G37*
G36*
X19815D02*
X18811Y76346D01*
X17875Y75958D01*
X17071Y75342D01*
X16455Y74538D01*
X16067Y73602D01*
X15935Y72598D01*
X16067Y71594D01*
X16455Y70659D01*
X17071Y69855D01*
X17875Y69239D01*
X18811Y68851D01*
X19815Y68719D01*
X20819Y68851D01*
X21755Y69239D01*
X22558Y69855D01*
X23175Y70659D01*
X23562Y71594D01*
X23694Y72598D01*
X23562Y73602D01*
X23175Y74538D01*
X22558Y75342D01*
X21755Y75958D01*
X20819Y76346D01*
X19815Y76478D01*
D02*
G37*
G36*
X21291Y66691D02*
Y64075D01*
X23908D01*
X23611Y64790D01*
X22915Y65698D01*
X22007Y66395D01*
X21291Y66691D01*
D02*
G37*
G36*
X18338D02*
X17623Y66395D01*
X16715Y65698D01*
X16018Y64790D01*
X15722Y64075D01*
X18338D01*
Y66691D01*
D02*
G37*
G36*
X29815Y66479D02*
X28811Y66347D01*
X27876Y65960D01*
X27072Y65343D01*
X26456Y64539D01*
X26068Y63604D01*
X25936Y62600D01*
X26068Y61595D01*
X26456Y60660D01*
X27072Y59856D01*
X27876Y59240D01*
X28811Y58852D01*
X29815Y58720D01*
X30819Y58852D01*
X31755Y59240D01*
X32559Y59856D01*
X33175Y60660D01*
X33563Y61595D01*
X33695Y62600D01*
X33563Y63604D01*
X33175Y64539D01*
X32559Y65343D01*
X31755Y65960D01*
X30819Y66347D01*
X29815Y66479D01*
D02*
G37*
G36*
X23908Y61122D02*
X21291D01*
Y58505D01*
X22007Y58802D01*
X22915Y59499D01*
X23611Y60406D01*
X23908Y61122D01*
D02*
G37*
G36*
X18338D02*
X15722D01*
X16018Y60406D01*
X16715Y59499D01*
X17623Y58802D01*
X18338Y58505D01*
Y61122D01*
D02*
G37*
G36*
X214173Y63339D02*
X212861Y63166D01*
X211638Y62659D01*
X210588Y61853D01*
X209782Y60803D01*
X209275Y59580D01*
X209102Y58268D01*
X209275Y56955D01*
X209782Y55732D01*
X210588Y54682D01*
X211638Y53876D01*
X212861Y53370D01*
X214173Y53197D01*
X215486Y53370D01*
X216709Y53876D01*
X217759Y54682D01*
X218565Y55732D01*
X219071Y56955D01*
X219244Y58268D01*
X219071Y59580D01*
X218565Y60803D01*
X217759Y61853D01*
X216709Y62659D01*
X215486Y63166D01*
X214173Y63339D01*
D02*
G37*
G36*
X215650Y43954D02*
Y40059D01*
X219545D01*
X219002Y41370D01*
X218115Y42525D01*
X216961Y43411D01*
X215650Y43954D01*
D02*
G37*
G36*
X212697Y43954D02*
X211386Y43411D01*
X210231Y42525D01*
X209345Y41370D01*
X208802Y40059D01*
X212697D01*
Y43954D01*
D02*
G37*
G36*
Y37106D02*
X208802D01*
X209345Y35795D01*
X210231Y34640D01*
X211386Y33754D01*
X212697Y33211D01*
Y37106D01*
D02*
G37*
G36*
X219545D02*
X215650D01*
Y33211D01*
X216961Y33754D01*
X218115Y34640D01*
X219002Y35795D01*
X219545Y37106D01*
D02*
G37*
G36*
X132579Y34112D02*
Y30217D01*
X136474D01*
X135931Y31528D01*
X135045Y32682D01*
X133890Y33569D01*
X132579Y34112D01*
D02*
G37*
G36*
X129626D02*
X128315Y33569D01*
X127160Y32682D01*
X126274Y31528D01*
X125731Y30217D01*
X129626D01*
Y34112D01*
D02*
G37*
G36*
X111417Y33811D02*
X110105Y33638D01*
X108882Y33132D01*
X107832Y32326D01*
X107026Y31276D01*
X106519Y30053D01*
X106346Y28740D01*
X106519Y27428D01*
X107026Y26205D01*
X107832Y25155D01*
X108882Y24349D01*
X110105Y23842D01*
X111417Y23669D01*
X112730Y23842D01*
X113953Y24349D01*
X115003Y25155D01*
X115809Y26205D01*
X116315Y27428D01*
X116488Y28740D01*
X116315Y30053D01*
X115809Y31276D01*
X115003Y32326D01*
X113953Y33132D01*
X112730Y33638D01*
X111417Y33811D01*
D02*
G37*
G36*
X136474Y27264D02*
X132579D01*
Y23369D01*
X133890Y23912D01*
X135045Y24798D01*
X135931Y25953D01*
X136474Y27264D01*
D02*
G37*
G36*
X129626D02*
X125731D01*
X126274Y25953D01*
X127160Y24798D01*
X128315Y23912D01*
X129626Y23369D01*
Y27264D01*
D02*
G37*
G36*
X215650Y24269D02*
Y20374D01*
X219545D01*
X219002Y21685D01*
X218115Y22840D01*
X216961Y23726D01*
X215650Y24269D01*
D02*
G37*
G36*
X212697Y24269D02*
X211386Y23726D01*
X210231Y22840D01*
X209345Y21685D01*
X208802Y20374D01*
X212697D01*
Y24269D01*
D02*
G37*
G36*
Y17421D02*
X208802D01*
X209345Y16110D01*
X210231Y14955D01*
X211386Y14069D01*
X212697Y13526D01*
Y17421D01*
D02*
G37*
G36*
X219545D02*
X215650D01*
Y13526D01*
X216961Y14069D01*
X218115Y14955D01*
X219002Y16110D01*
X219545Y17421D01*
D02*
G37*
G36*
X251575Y21608D02*
X249740Y21428D01*
X247976Y20892D01*
X246351Y20023D01*
X244925Y18854D01*
X243756Y17429D01*
X242887Y15803D01*
X242352Y14039D01*
X242171Y12205D01*
X242352Y10370D01*
X242887Y8606D01*
X243756Y6980D01*
X244925Y5555D01*
X246351Y4386D01*
X247976Y3517D01*
X249740Y2982D01*
X251575Y2801D01*
X253409Y2982D01*
X255173Y3517D01*
X256799Y4386D01*
X258224Y5555D01*
X259394Y6980D01*
X260262Y8606D01*
X260798Y10370D01*
X260978Y12205D01*
X260798Y14039D01*
X260262Y15803D01*
X259394Y17429D01*
X258224Y18854D01*
X256799Y20023D01*
X255173Y20892D01*
X253409Y21428D01*
X251575Y21608D01*
D02*
G37*
G36*
X12992Y20821D02*
X11158Y20640D01*
X9394Y20105D01*
X7768Y19236D01*
X6343Y18067D01*
X5173Y16642D01*
X4304Y15016D01*
X3769Y13252D01*
X3589Y11417D01*
X3769Y9583D01*
X4304Y7819D01*
X5173Y6193D01*
X6343Y4768D01*
X7768Y3599D01*
X9394Y2730D01*
X11158Y2194D01*
X12992Y2014D01*
X14827Y2194D01*
X16591Y2730D01*
X18216Y3599D01*
X19641Y4768D01*
X20811Y6193D01*
X21680Y7819D01*
X22215Y9583D01*
X22396Y11417D01*
X22215Y13252D01*
X21680Y15016D01*
X20811Y16642D01*
X19641Y18067D01*
X18216Y19236D01*
X16591Y20105D01*
X14827Y20640D01*
X12992Y20821D01*
D02*
G37*
%LPD*%
D30*
X251575Y12205D02*
D03*
X12992Y11417D02*
D03*
X247244Y132283D02*
D03*
X12205Y132677D02*
D03*
D31*
X214173Y38583D02*
D03*
Y18898D02*
D03*
Y97638D02*
D03*
Y117323D02*
D03*
Y77953D02*
D03*
Y58268D02*
D03*
X131102Y28740D02*
D03*
X111417D02*
D03*
D32*
X29815Y62600D02*
D03*
X19815Y62598D02*
D03*
X29815Y92598D02*
D03*
Y72598D02*
D03*
Y82598D02*
D03*
Y102598D02*
D03*
X19815Y72598D02*
D03*
Y82598D02*
D03*
Y92598D02*
D03*
D33*
Y102598D02*
D03*
D34*
X254331Y120472D02*
D03*
X246457Y104724D02*
D03*
X254331Y88976D02*
D03*
Y57480D02*
D03*
X246457Y41732D02*
D03*
X254331Y25984D02*
D03*
X230709Y136221D02*
D03*
X238583Y120472D02*
D03*
X230709Y104724D02*
D03*
X238583Y88976D02*
D03*
X230709Y73228D02*
D03*
Y41732D02*
D03*
X238583Y25984D02*
D03*
X230709Y10236D02*
D03*
X222835Y120472D02*
D03*
X214961Y104724D02*
D03*
X222835Y88976D02*
D03*
Y25984D02*
D03*
X214961Y10236D02*
D03*
X199213Y136221D02*
D03*
X207087Y120472D02*
D03*
X199213Y41732D02*
D03*
X207087Y25984D02*
D03*
X199213Y10236D02*
D03*
X183465Y136221D02*
D03*
X191339Y120472D02*
D03*
X183465Y104724D02*
D03*
Y41732D02*
D03*
X191339Y25984D02*
D03*
X183465Y10236D02*
D03*
X167717Y136221D02*
D03*
X175591Y120472D02*
D03*
X167717Y104724D02*
D03*
Y41732D02*
D03*
X175591Y25984D02*
D03*
X167717Y10236D02*
D03*
X151969Y136221D02*
D03*
X159843Y120472D02*
D03*
X151969Y104724D02*
D03*
Y41732D02*
D03*
X159843Y25984D02*
D03*
X151969Y10236D02*
D03*
X136221Y136221D02*
D03*
X144095Y120472D02*
D03*
X136221Y104724D02*
D03*
Y41732D02*
D03*
X120472Y136221D02*
D03*
X128346Y120472D02*
D03*
X120472Y104724D02*
D03*
X104724Y136221D02*
D03*
X112598Y120472D02*
D03*
X104724Y104724D02*
D03*
X88976Y136221D02*
D03*
X96850Y120472D02*
D03*
X88976Y104724D02*
D03*
X73228Y136221D02*
D03*
X81102Y120472D02*
D03*
X73228Y104724D02*
D03*
Y10236D02*
D03*
X57480Y136221D02*
D03*
X65354Y120472D02*
D03*
X57480Y104724D02*
D03*
Y41732D02*
D03*
X65354Y25984D02*
D03*
X57480Y10236D02*
D03*
X41732Y136221D02*
D03*
X49606Y120472D02*
D03*
X41732Y41732D02*
D03*
X49606Y25984D02*
D03*
X41732Y10236D02*
D03*
X25984Y136221D02*
D03*
X33858Y120472D02*
D03*
Y25984D02*
D03*
X25984Y10236D02*
D03*
X18110Y120472D02*
D03*
X10236Y41732D02*
D03*
X18110Y25984D02*
D03*
X94882Y87008D02*
D03*
X49162Y64840D02*
D03*
Y74567D02*
D03*
Y94366D02*
D03*
Y83468D02*
D03*
X70866Y94488D02*
D03*
Y64961D02*
D03*
Y74518D02*
D03*
Y83465D02*
D03*
M02*
