G04*
G04 #@! TF.GenerationSoftware,Altium Limited,Altium Designer,19.1.8 (144)*
G04*
G04 Layer_Color=8388736*
%FSLAX25Y25*%
%MOIN*%
G70*
G01*
G75*
%ADD36R,0.04737X0.04343*%
%ADD37R,0.04737X0.05524*%
%ADD38R,0.22454X0.04737*%
%ADD39R,0.12611X0.07099*%
%ADD40R,0.05524X0.05524*%
G04:AMPARAMS|DCode=41|XSize=33.59mil|YSize=55.24mil|CornerRadius=5.92mil|HoleSize=0mil|Usage=FLASHONLY|Rotation=90.000|XOffset=0mil|YOffset=0mil|HoleType=Round|Shape=RoundedRectangle|*
%AMROUNDEDRECTD41*
21,1,0.03359,0.04341,0,0,90.0*
21,1,0.02175,0.05524,0,0,90.0*
1,1,0.01184,0.02170,0.01088*
1,1,0.01184,0.02170,-0.01088*
1,1,0.01184,-0.02170,-0.01088*
1,1,0.01184,-0.02170,0.01088*
%
%ADD41ROUNDEDRECTD41*%
%ADD42R,0.04343X0.04737*%
%ADD43R,0.03950X0.07493*%
%ADD44R,0.03556X0.03753*%
%ADD45R,0.12611X0.07099*%
%ADD46R,0.25210X0.23635*%
%ADD47R,0.02965X0.03162*%
%ADD48R,0.03162X0.02965*%
%ADD49O,0.09461X0.03162*%
%ADD50O,0.07099X0.01981*%
%ADD51O,0.01981X0.07099*%
%ADD52R,0.07099X0.12611*%
%ADD53R,0.04737X0.22454*%
%ADD54R,0.05091X0.03800*%
%ADD55R,0.09698X0.09304*%
%ADD56R,0.05524X0.07493*%
%ADD57C,0.10800*%
%ADD58R,0.06706X0.06706*%
%ADD59C,0.06706*%
%ADD60R,0.06706X0.06706*%
%ADD61C,0.16548*%
D36*
X296000Y218850D02*
D03*
Y225150D02*
D03*
X189000Y225150D02*
D03*
Y218850D02*
D03*
X289000Y218850D02*
D03*
Y225150D02*
D03*
X244000Y217350D02*
D03*
Y223650D02*
D03*
X237000Y217350D02*
D03*
Y223650D02*
D03*
X198000Y218850D02*
D03*
Y225150D02*
D03*
X352500Y218350D02*
D03*
Y224650D02*
D03*
X331000Y300650D02*
D03*
Y294350D02*
D03*
X337500Y300650D02*
D03*
Y294350D02*
D03*
X346000Y225150D02*
D03*
Y218850D02*
D03*
X388260Y274701D02*
D03*
Y268402D02*
D03*
X389500Y326710D02*
D03*
Y320411D02*
D03*
X325905Y217201D02*
D03*
Y223500D02*
D03*
X228016Y220342D02*
D03*
Y226642D02*
D03*
X382000Y223650D02*
D03*
Y217350D02*
D03*
X274000Y218201D02*
D03*
Y224500D02*
D03*
X270500Y278650D02*
D03*
Y272350D02*
D03*
X318000Y247850D02*
D03*
Y254150D02*
D03*
X264000Y278650D02*
D03*
Y272350D02*
D03*
X309000Y247850D02*
D03*
Y254150D02*
D03*
X253500Y344850D02*
D03*
Y351150D02*
D03*
X331500Y255850D02*
D03*
Y262150D02*
D03*
X336743Y317578D02*
D03*
Y311279D02*
D03*
D37*
X268214Y297874D02*
D03*
Y291181D02*
D03*
X263096Y297874D02*
D03*
Y291181D02*
D03*
D38*
X419652Y347976D02*
D03*
Y355850D02*
D03*
X401500Y427248D02*
D03*
Y419374D02*
D03*
Y411500D02*
D03*
Y403626D02*
D03*
X368500Y427248D02*
D03*
Y419374D02*
D03*
Y411500D02*
D03*
Y403626D02*
D03*
X334500Y427248D02*
D03*
Y419374D02*
D03*
Y411500D02*
D03*
Y403626D02*
D03*
X301500Y427248D02*
D03*
Y419374D02*
D03*
Y411500D02*
D03*
Y403626D02*
D03*
X267000Y427248D02*
D03*
Y419374D02*
D03*
Y411500D02*
D03*
Y403626D02*
D03*
X232326Y427248D02*
D03*
Y419374D02*
D03*
Y411500D02*
D03*
Y403626D02*
D03*
X439466Y312224D02*
D03*
Y320098D02*
D03*
Y304350D02*
D03*
X419652Y216303D02*
D03*
Y224177D02*
D03*
Y232051D02*
D03*
X439466Y277098D02*
D03*
Y269224D02*
D03*
Y261350D02*
D03*
X419652Y363724D02*
D03*
X199605Y308028D02*
D03*
Y315901D02*
D03*
D39*
X410358Y436697D02*
D03*
Y394177D02*
D03*
X377358Y436697D02*
D03*
Y394177D02*
D03*
X343358Y436697D02*
D03*
Y394177D02*
D03*
X310358Y436697D02*
D03*
Y394177D02*
D03*
X275858Y436697D02*
D03*
Y394177D02*
D03*
X241184Y436697D02*
D03*
Y394177D02*
D03*
X430608Y329547D02*
D03*
Y294901D02*
D03*
X428510Y206854D02*
D03*
Y241500D02*
D03*
X430608Y286547D02*
D03*
Y251901D02*
D03*
X428510Y373173D02*
D03*
Y338527D02*
D03*
X208463Y298579D02*
D03*
Y325350D02*
D03*
D40*
X193866Y268992D02*
D03*
X202134D02*
D03*
X193866Y276587D02*
D03*
X202134D02*
D03*
Y261587D02*
D03*
X193866D02*
D03*
X202134Y284587D02*
D03*
X193866D02*
D03*
X202246Y410000D02*
D03*
X193978D02*
D03*
D41*
X362500Y226240D02*
D03*
Y222500D02*
D03*
Y218760D02*
D03*
X374114D02*
D03*
Y226240D02*
D03*
X317713D02*
D03*
Y218760D02*
D03*
X306098D02*
D03*
Y222500D02*
D03*
Y226240D02*
D03*
X220067Y226528D02*
D03*
Y219047D02*
D03*
X208453D02*
D03*
Y222787D02*
D03*
Y226528D02*
D03*
X266114Y227240D02*
D03*
Y219760D02*
D03*
X254500D02*
D03*
Y223500D02*
D03*
Y227240D02*
D03*
D42*
X300299Y313500D02*
D03*
X294000D02*
D03*
X215384Y261587D02*
D03*
X209085D02*
D03*
X215384Y268992D02*
D03*
X209085D02*
D03*
X387866Y192000D02*
D03*
X381567D02*
D03*
X215384Y276587D02*
D03*
X209085D02*
D03*
X367913Y192000D02*
D03*
X361614D02*
D03*
X215384Y284587D02*
D03*
X209085D02*
D03*
X306500Y323500D02*
D03*
X312799D02*
D03*
X208850Y410000D02*
D03*
X215150D02*
D03*
X300150Y323500D02*
D03*
X293850D02*
D03*
X312650Y211000D02*
D03*
X306350D02*
D03*
X214949Y211248D02*
D03*
X208650D02*
D03*
X368933Y210815D02*
D03*
X362634D02*
D03*
X261098Y212012D02*
D03*
X254799D02*
D03*
X287919Y320040D02*
D03*
X281620D02*
D03*
X285508Y254000D02*
D03*
X291807D02*
D03*
X287919Y313591D02*
D03*
X281620D02*
D03*
X269150Y304000D02*
D03*
X262850D02*
D03*
X261850Y284500D02*
D03*
X268150D02*
D03*
D43*
X401252Y180853D02*
D03*
X387866D02*
D03*
X375000Y180661D02*
D03*
X361614D02*
D03*
D44*
X272398Y351000D02*
D03*
X259602D02*
D03*
Y344504D02*
D03*
X272398D02*
D03*
D45*
X229984Y349004D02*
D03*
Y366996D02*
D03*
D46*
X201716Y358000D02*
D03*
D47*
X414181Y276675D02*
D03*
Y271557D02*
D03*
X406898Y274116D02*
D03*
X444858Y354559D02*
D03*
Y349441D02*
D03*
X449142Y220000D02*
D03*
X441858Y217441D02*
D03*
Y222559D02*
D03*
X452142Y352000D02*
D03*
D48*
X410441Y317858D02*
D03*
X415559D02*
D03*
X413000Y325142D02*
D03*
D49*
X346886Y322391D02*
D03*
Y317391D02*
D03*
Y312391D02*
D03*
Y307391D02*
D03*
X365784Y322391D02*
D03*
Y317391D02*
D03*
Y312391D02*
D03*
Y307391D02*
D03*
X363949Y256000D02*
D03*
Y261000D02*
D03*
Y266000D02*
D03*
Y271000D02*
D03*
X345051Y256000D02*
D03*
Y261000D02*
D03*
Y266000D02*
D03*
Y271000D02*
D03*
D50*
X277831Y298465D02*
D03*
Y296496D02*
D03*
Y294528D02*
D03*
Y292559D02*
D03*
Y290591D02*
D03*
Y288622D02*
D03*
Y286654D02*
D03*
Y284685D02*
D03*
Y282717D02*
D03*
Y280748D02*
D03*
Y278780D02*
D03*
Y276811D02*
D03*
Y274843D02*
D03*
Y272874D02*
D03*
Y270905D02*
D03*
Y268937D02*
D03*
X323500D02*
D03*
Y270905D02*
D03*
Y272874D02*
D03*
Y274843D02*
D03*
Y276811D02*
D03*
Y278780D02*
D03*
Y280748D02*
D03*
Y282717D02*
D03*
Y284685D02*
D03*
Y286654D02*
D03*
Y288622D02*
D03*
Y290591D02*
D03*
Y292559D02*
D03*
Y294528D02*
D03*
Y296496D02*
D03*
Y298465D02*
D03*
D51*
X285902Y260866D02*
D03*
X287870D02*
D03*
X289839D02*
D03*
X291807D02*
D03*
X293776D02*
D03*
X295744D02*
D03*
X297713D02*
D03*
X299681D02*
D03*
X301650D02*
D03*
X303618D02*
D03*
X305587D02*
D03*
X307555D02*
D03*
X309524D02*
D03*
X311492D02*
D03*
X313461D02*
D03*
X315429D02*
D03*
Y306535D02*
D03*
X313461D02*
D03*
X311492D02*
D03*
X309524D02*
D03*
X307555D02*
D03*
X305587D02*
D03*
X303618D02*
D03*
X301650D02*
D03*
X299681D02*
D03*
X297713D02*
D03*
X295744D02*
D03*
X293776D02*
D03*
X291807D02*
D03*
X289839D02*
D03*
X287870D02*
D03*
X285902D02*
D03*
D52*
X321971Y180807D02*
D03*
X348743D02*
D03*
X265051D02*
D03*
X291823D02*
D03*
D53*
X331420Y189665D02*
D03*
X339294D02*
D03*
X274500D02*
D03*
X282374D02*
D03*
D54*
X238500Y315957D02*
D03*
Y308043D02*
D03*
D55*
X227500Y308354D02*
D03*
Y327646D02*
D03*
D56*
X218201Y378000D02*
D03*
X230799D02*
D03*
X240701Y367000D02*
D03*
X253299D02*
D03*
D57*
X361795Y369506D02*
D03*
X343358D02*
D03*
X327000Y376500D02*
D03*
X277137D02*
D03*
X352000Y237500D02*
D03*
X243000D02*
D03*
X273500D02*
D03*
X253500Y377500D02*
D03*
X392500Y201500D02*
D03*
X378000Y349500D02*
D03*
X377500Y270905D02*
D03*
Y257524D02*
D03*
X379000Y323561D02*
D03*
Y309169D02*
D03*
X219500Y237500D02*
D03*
X296000Y241000D02*
D03*
X306098Y191000D02*
D03*
X251500D02*
D03*
X246000Y273500D02*
D03*
X234500Y291500D02*
D03*
D58*
X293000Y346500D02*
D03*
D59*
X303000D02*
D03*
X313000D02*
D03*
X323000D02*
D03*
X293000Y356500D02*
D03*
X303000D02*
D03*
X313000D02*
D03*
X323000D02*
D03*
X398421Y267216D02*
D03*
X398727Y319753D02*
D03*
D60*
X398421Y257216D02*
D03*
X398727Y309753D02*
D03*
D61*
X201776Y425886D02*
D03*
X437996D02*
D03*
X201776Y189665D02*
D03*
X437996D02*
D03*
M02*
