G04*
G04 #@! TF.GenerationSoftware,Altium Limited,Altium Designer,20.1.11 (218)*
G04*
G04 Layer_Physical_Order=2*
G04 Layer_Color=36540*
%FSLAX25Y25*%
%MOIN*%
G70*
G04*
G04 #@! TF.SameCoordinates,85017169-990B-49AA-8BCE-B11CB2BCBAEE*
G04*
G04*
G04 #@! TF.FilePolarity,Positive*
G04*
G01*
G75*
%ADD82C,0.09055*%
%ADD84C,0.01772*%
%ADD86C,0.00787*%
G36*
X622145Y292421D02*
X623501Y291859D01*
X624721Y291043D01*
X625759Y290006D01*
X626574Y288785D01*
X627136Y287429D01*
X627422Y285990D01*
Y285256D01*
Y9980D01*
Y9246D01*
X627136Y7807D01*
X626574Y6451D01*
X625759Y5231D01*
X624721Y4193D01*
X623501Y3377D01*
X622145Y2816D01*
X620705Y2529D01*
X604445D01*
X604345Y3029D01*
X605532Y3521D01*
X607188Y4627D01*
X608596Y6035D01*
X609702Y7691D01*
X610464Y9530D01*
X610852Y11483D01*
Y13474D01*
X610464Y15427D01*
X609702Y17267D01*
X608596Y18922D01*
X607188Y20330D01*
X605532Y21437D01*
X603693Y22199D01*
X601740Y22587D01*
X599749D01*
X597796Y22199D01*
X595956Y21437D01*
X594300Y20330D01*
X592893Y18922D01*
X591786Y17267D01*
X591024Y15427D01*
X590636Y13474D01*
Y11483D01*
X591024Y9530D01*
X591786Y7691D01*
X592893Y6035D01*
X594300Y4627D01*
X595956Y3521D01*
X597143Y3029D01*
X597044Y2529D01*
X32976D01*
X32877Y3029D01*
X34064Y3521D01*
X35719Y4627D01*
X37127Y6035D01*
X38233Y7691D01*
X38995Y9530D01*
X39384Y11483D01*
Y13474D01*
X38995Y15427D01*
X38233Y17267D01*
X37127Y18922D01*
X35719Y20330D01*
X34064Y21437D01*
X32224Y22199D01*
X30271Y22587D01*
X28280D01*
X26327Y22199D01*
X24487Y21437D01*
X22832Y20330D01*
X21424Y18922D01*
X20318Y17267D01*
X19556Y15427D01*
X19167Y13474D01*
Y11483D01*
X19556Y9530D01*
X20318Y7691D01*
X21424Y6035D01*
X22832Y4627D01*
X24487Y3521D01*
X25675Y3029D01*
X25575Y2529D01*
X9316D01*
X7877Y2816D01*
X6521Y3377D01*
X5300Y4193D01*
X4262Y5231D01*
X3447Y6451D01*
X2885Y7807D01*
X2599Y9246D01*
X2599Y9980D01*
Y34737D01*
X3099Y34871D01*
X3184Y34723D01*
X3723Y34185D01*
X4383Y33803D01*
X4526Y33765D01*
X4356Y33131D01*
Y32369D01*
X4553Y31633D01*
X4935Y30973D01*
X5473Y30435D01*
X6133Y30053D01*
X6869Y29856D01*
X7631D01*
X8367Y30053D01*
X9027Y30435D01*
X9566Y30973D01*
X9946Y31633D01*
X10144Y32369D01*
Y33131D01*
X9946Y33867D01*
X9566Y34527D01*
X9027Y35065D01*
X8367Y35447D01*
X8224Y35485D01*
X8394Y36119D01*
Y36881D01*
X8196Y37617D01*
X7831Y38250D01*
X8196Y38883D01*
X8394Y39619D01*
Y40381D01*
X8196Y41117D01*
X7816Y41777D01*
X7277Y42316D01*
X6617Y42696D01*
X5881Y42894D01*
X5119D01*
X4383Y42696D01*
X3723Y42316D01*
X3184Y41777D01*
X3099Y41629D01*
X2599Y41763D01*
Y159237D01*
X3099Y159371D01*
X3184Y159223D01*
X3723Y158685D01*
X4383Y158303D01*
X5119Y158106D01*
X5881D01*
X6617Y158303D01*
X7000Y158525D01*
X7383Y158303D01*
X8119Y158106D01*
X8881D01*
X9617Y158303D01*
X10277Y158685D01*
X10815Y159223D01*
X11197Y159883D01*
X11394Y160619D01*
Y161381D01*
X11197Y162117D01*
X10815Y162777D01*
X10277Y163315D01*
X9617Y163697D01*
X8881Y163894D01*
X8119D01*
X7383Y163697D01*
X7000Y163475D01*
X6617Y163697D01*
X5881Y163894D01*
X5119D01*
X4383Y163697D01*
X3723Y163315D01*
X3184Y162777D01*
X3099Y162629D01*
X2599Y162763D01*
Y285256D01*
Y285990D01*
X2885Y287429D01*
X3447Y288785D01*
X4262Y290006D01*
X5300Y291043D01*
X6521Y291859D01*
X7877Y292421D01*
X9316Y292707D01*
X25583D01*
X25682Y292207D01*
X24487Y291712D01*
X22832Y290606D01*
X21424Y289198D01*
X20318Y287542D01*
X19556Y285703D01*
X19167Y283750D01*
Y281759D01*
X19556Y279806D01*
X20318Y277966D01*
X21424Y276311D01*
X22832Y274903D01*
X24487Y273797D01*
X26327Y273035D01*
X28280Y272646D01*
X30271D01*
X32224Y273035D01*
X34064Y273797D01*
X35719Y274903D01*
X37127Y276311D01*
X38233Y277966D01*
X38995Y279806D01*
X39384Y281759D01*
Y283750D01*
X38995Y285703D01*
X38233Y287542D01*
X37127Y289198D01*
X35719Y290606D01*
X34064Y291712D01*
X32869Y292207D01*
X32969Y292707D01*
X597051D01*
X597151Y292207D01*
X595956Y291712D01*
X594300Y290606D01*
X592893Y289198D01*
X591786Y287542D01*
X591024Y285703D01*
X590636Y283750D01*
Y281759D01*
X591024Y279806D01*
X591786Y277966D01*
X592893Y276311D01*
X594300Y274903D01*
X595956Y273797D01*
X597796Y273035D01*
X599749Y272646D01*
X601740D01*
X603693Y273035D01*
X605532Y273797D01*
X607188Y274903D01*
X608596Y276311D01*
X609702Y277966D01*
X610464Y279806D01*
X610852Y281759D01*
Y283750D01*
X610464Y285703D01*
X609702Y287542D01*
X608596Y289198D01*
X607188Y290606D01*
X605532Y291712D01*
X604338Y292207D01*
X604437Y292707D01*
X620705D01*
X622145Y292421D01*
D02*
G37*
%LPC*%
G36*
X188881Y280394D02*
X188119D01*
X187383Y280196D01*
X186723Y279816D01*
X186185Y279277D01*
X185803Y278617D01*
X185606Y277881D01*
Y277119D01*
X185803Y276383D01*
X186185Y275723D01*
X186723Y275184D01*
X187383Y274803D01*
X188119Y274606D01*
X188881D01*
X189617Y274803D01*
X190277Y275184D01*
X190815Y275723D01*
X191197Y276383D01*
X191394Y277119D01*
Y277881D01*
X191197Y278617D01*
X190815Y279277D01*
X190277Y279816D01*
X189617Y280196D01*
X188881Y280394D01*
D02*
G37*
G36*
X300157Y274821D02*
Y271000D01*
X303978D01*
X303808Y271634D01*
X303081Y272894D01*
X302051Y273923D01*
X300791Y274651D01*
X300157Y274821D01*
D02*
G37*
G36*
X297158D02*
X296524Y274651D01*
X295264Y273923D01*
X294234Y272894D01*
X293507Y271634D01*
X293337Y271000D01*
X297158D01*
Y274821D01*
D02*
G37*
G36*
X605881Y268394D02*
X605119D01*
X604383Y268197D01*
X603723Y267815D01*
X603625Y267717D01*
X603527Y267815D01*
X602867Y268197D01*
X602131Y268394D01*
X601369D01*
X600633Y268197D01*
X599973Y267815D01*
X599875Y267717D01*
X599777Y267815D01*
X599117Y268197D01*
X598381Y268394D01*
X597619D01*
X596883Y268197D01*
X596223Y267815D01*
X595684Y267277D01*
X595303Y266617D01*
X595106Y265881D01*
Y265119D01*
X595303Y264383D01*
X595684Y263723D01*
X596223Y263184D01*
X596883Y262804D01*
X597619Y262606D01*
X598381D01*
X599117Y262804D01*
X599777Y263184D01*
X599875Y263283D01*
X599973Y263184D01*
X600633Y262804D01*
X601369Y262606D01*
X602131D01*
X602867Y262804D01*
X603527Y263184D01*
X603625Y263283D01*
X603723Y263184D01*
X604383Y262804D01*
X605119Y262606D01*
X605881D01*
X606617Y262804D01*
X607277Y263184D01*
X607816Y263723D01*
X608196Y264383D01*
X608394Y265119D01*
Y265881D01*
X608196Y266617D01*
X607816Y267277D01*
X607277Y267815D01*
X606617Y268197D01*
X605881Y268394D01*
D02*
G37*
G36*
X355481Y278994D02*
X354719D01*
X353983Y278797D01*
X353323Y278415D01*
X352784Y277877D01*
X352403Y277217D01*
X352206Y276481D01*
Y275944D01*
X351669D01*
X350933Y275746D01*
X350273Y275365D01*
X349734Y274827D01*
X349354Y274167D01*
X349156Y273431D01*
Y272894D01*
X348619D01*
X347883Y272696D01*
X347223Y272316D01*
X346685Y271777D01*
X346304Y271117D01*
X346106Y270381D01*
Y269619D01*
X346304Y268883D01*
X346685Y268223D01*
X347223Y267685D01*
X347883Y267303D01*
X348619Y267106D01*
X349381D01*
X350117Y267303D01*
X350777Y267685D01*
X351315Y268223D01*
X351696Y268883D01*
X351894Y269619D01*
Y270156D01*
X352431D01*
X353167Y270354D01*
X353827Y270735D01*
X354365Y271273D01*
X354747Y271933D01*
X354944Y272669D01*
Y273206D01*
X355481D01*
X356217Y273404D01*
X356877Y273784D01*
X357416Y274323D01*
X357797Y274983D01*
X357994Y275719D01*
Y276481D01*
X357797Y277217D01*
X357416Y277877D01*
X356877Y278415D01*
X356217Y278797D01*
X355481Y278994D01*
D02*
G37*
G36*
X303978Y268000D02*
X300157D01*
Y264179D01*
X300791Y264349D01*
X302051Y265077D01*
X303081Y266106D01*
X303808Y267366D01*
X303978Y268000D01*
D02*
G37*
G36*
X297158D02*
X293337D01*
X293507Y267366D01*
X294234Y266106D01*
X295264Y265077D01*
X296524Y264349D01*
X297158Y264179D01*
Y268000D01*
D02*
G37*
G36*
X319103Y275278D02*
X317582D01*
X316112Y274884D01*
X314795Y274123D01*
X313719Y273047D01*
X312959Y271730D01*
X312565Y270261D01*
Y268739D01*
X312959Y267270D01*
X313719Y265952D01*
X314795Y264877D01*
X316112Y264116D01*
X317582Y263722D01*
X319103D01*
X320573Y264116D01*
X321890Y264877D01*
X322966Y265952D01*
X323726Y267270D01*
X324120Y268739D01*
Y270261D01*
X323726Y271730D01*
X322966Y273047D01*
X321890Y274123D01*
X320573Y274884D01*
X319103Y275278D01*
D02*
G37*
G36*
X122038Y264441D02*
X121276D01*
X120540Y264244D01*
X119880Y263863D01*
X119341Y263324D01*
X118960Y262664D01*
X118763Y261928D01*
Y261166D01*
X118960Y260430D01*
X119341Y259770D01*
X119880Y259232D01*
X120540Y258851D01*
X121276Y258653D01*
X122038D01*
X122774Y258851D01*
X123434Y259232D01*
X123972Y259770D01*
X124353Y260430D01*
X124551Y261166D01*
Y261928D01*
X124353Y262664D01*
X123972Y263324D01*
X123434Y263863D01*
X122774Y264244D01*
X122038Y264441D01*
D02*
G37*
G36*
X188899Y264387D02*
X188137D01*
X187401Y264190D01*
X186741Y263809D01*
X186202Y263270D01*
X185821Y262610D01*
X185624Y261874D01*
Y261112D01*
X185821Y260376D01*
X186202Y259716D01*
X186741Y259178D01*
X187401Y258797D01*
X188137Y258599D01*
X188899D01*
X189634Y258797D01*
X190294Y259178D01*
X190833Y259716D01*
X191214Y260376D01*
X191411Y261112D01*
Y261874D01*
X191214Y262610D01*
X190833Y263270D01*
X190294Y263809D01*
X189634Y264190D01*
X188899Y264387D01*
D02*
G37*
G36*
X423881Y261894D02*
X423119D01*
X422383Y261697D01*
X421723Y261315D01*
X421184Y260777D01*
X420803Y260117D01*
X420606Y259381D01*
Y258619D01*
X420803Y257883D01*
X421184Y257223D01*
X421723Y256684D01*
X422383Y256304D01*
X423119Y256106D01*
X423881D01*
X424617Y256304D01*
X425277Y256684D01*
X425815Y257223D01*
X426196Y257883D01*
X426394Y258619D01*
Y259381D01*
X426196Y260117D01*
X425815Y260777D01*
X425277Y261315D01*
X424617Y261697D01*
X423881Y261894D01*
D02*
G37*
G36*
X417881Y257394D02*
X417119D01*
X416383Y257196D01*
X415723Y256816D01*
X415184Y256277D01*
X414804Y255617D01*
X414606Y254881D01*
Y254119D01*
X414804Y253383D01*
X415184Y252723D01*
X415723Y252185D01*
X416383Y251803D01*
X417119Y251606D01*
X417881D01*
X418617Y251803D01*
X419277Y252185D01*
X419815Y252723D01*
X420196Y253383D01*
X420394Y254119D01*
Y254881D01*
X420196Y255617D01*
X419815Y256277D01*
X419277Y256816D01*
X418617Y257196D01*
X417881Y257394D01*
D02*
G37*
G36*
X109159Y249100D02*
X108342D01*
X107554Y248889D01*
X106847Y248481D01*
X106270Y247903D01*
X105862Y247197D01*
X105650Y246408D01*
Y245592D01*
X105862Y244803D01*
X106217Y244187D01*
X106078Y243911D01*
X105913Y243751D01*
X105381Y243894D01*
X104619D01*
X103883Y243696D01*
X103223Y243316D01*
X102684Y242777D01*
X102304Y242117D01*
X102106Y241381D01*
Y240619D01*
X102304Y239883D01*
X102684Y239223D01*
X103223Y238685D01*
X103883Y238303D01*
X104619Y238106D01*
X105381D01*
X106117Y238303D01*
X106777Y238685D01*
X107316Y239223D01*
X107696Y239883D01*
X107894Y240619D01*
Y241381D01*
X107696Y242117D01*
X107383Y242660D01*
X107669Y243055D01*
X107692Y243074D01*
X108342Y242900D01*
X109159D01*
X109947Y243111D01*
X110654Y243519D01*
X111231Y244097D01*
X111639Y244803D01*
X111850Y245592D01*
Y246408D01*
X111639Y247197D01*
X111231Y247903D01*
X110654Y248481D01*
X109947Y248889D01*
X109159Y249100D01*
D02*
G37*
G36*
X114881Y244894D02*
X114119D01*
X113383Y244696D01*
X112723Y244316D01*
X112185Y243777D01*
X111803Y243117D01*
X111606Y242381D01*
Y241619D01*
X111803Y240883D01*
X112185Y240223D01*
X112723Y239685D01*
X113383Y239303D01*
X114119Y239106D01*
X114881D01*
X115617Y239303D01*
X116277Y239685D01*
X116815Y240223D01*
X117197Y240883D01*
X117394Y241619D01*
Y242381D01*
X117197Y243117D01*
X116815Y243777D01*
X116277Y244316D01*
X115617Y244696D01*
X114881Y244894D01*
D02*
G37*
G36*
X441381Y238394D02*
X440619D01*
X439883Y238196D01*
X439500Y237975D01*
X439117Y238196D01*
X438381Y238394D01*
X437619D01*
X436883Y238196D01*
X436223Y237815D01*
X435684Y237277D01*
X435303Y236617D01*
X435106Y235881D01*
Y235119D01*
X435303Y234383D01*
X435684Y233723D01*
X436223Y233185D01*
X436883Y232804D01*
X437619Y232606D01*
X438381D01*
X439117Y232804D01*
X439500Y233025D01*
X439883Y232804D01*
X440619Y232606D01*
X441381D01*
X442117Y232804D01*
X442777Y233185D01*
X443316Y233723D01*
X443696Y234383D01*
X443894Y235119D01*
Y235881D01*
X443696Y236617D01*
X443316Y237277D01*
X442777Y237815D01*
X442117Y238196D01*
X441381Y238394D01*
D02*
G37*
G36*
X406128Y238586D02*
X405366D01*
X404630Y238388D01*
X403971Y238007D01*
X403432Y237469D01*
X403051Y236809D01*
X402854Y236073D01*
Y235311D01*
X403051Y234575D01*
X403432Y233915D01*
X403971Y233376D01*
X404630Y232995D01*
X405366Y232798D01*
X406128D01*
X406864Y232995D01*
X407524Y233376D01*
X408063Y233915D01*
X408301Y234327D01*
X408530Y234353D01*
X408857Y234291D01*
X409185Y233723D01*
X409723Y233185D01*
X410383Y232804D01*
X411119Y232606D01*
X411881D01*
X412617Y232804D01*
X413277Y233185D01*
X413815Y233723D01*
X414196Y234383D01*
X414394Y235119D01*
Y235881D01*
X414196Y236617D01*
X413815Y237277D01*
X413277Y237815D01*
X412617Y238196D01*
X411881Y238394D01*
X411119D01*
X410383Y238196D01*
X409723Y237815D01*
X409185Y237277D01*
X408947Y236865D01*
X408717Y236839D01*
X408390Y236901D01*
X408063Y237469D01*
X407524Y238007D01*
X406864Y238388D01*
X406128Y238586D01*
D02*
G37*
G36*
X435381Y229394D02*
X434619D01*
X433883Y229197D01*
X433500Y228975D01*
X433117Y229197D01*
X432381Y229394D01*
X431619D01*
X430883Y229197D01*
X430223Y228816D01*
X429684Y228277D01*
X429304Y227617D01*
X429106Y226881D01*
Y226119D01*
X429304Y225383D01*
X429684Y224723D01*
X430223Y224184D01*
X430883Y223803D01*
X431619Y223606D01*
X432381D01*
X433117Y223803D01*
X433500Y224025D01*
X433883Y223803D01*
X434619Y223606D01*
X435381D01*
X436117Y223803D01*
X436777Y224184D01*
X437316Y224723D01*
X437697Y225383D01*
X437894Y226119D01*
Y226881D01*
X437697Y227617D01*
X437316Y228277D01*
X436777Y228816D01*
X436117Y229197D01*
X435381Y229394D01*
D02*
G37*
G36*
X332881Y227894D02*
X332119D01*
X331383Y227696D01*
X330723Y227315D01*
X330317Y226909D01*
X330000Y226825D01*
X329683Y226909D01*
X329277Y227315D01*
X328617Y227696D01*
X327881Y227894D01*
X327119D01*
X326383Y227696D01*
X325723Y227315D01*
X325317Y226909D01*
X325000Y226825D01*
X324683Y226909D01*
X324277Y227315D01*
X323617Y227696D01*
X322881Y227894D01*
X322119D01*
X321383Y227696D01*
X320723Y227315D01*
X320317Y226909D01*
X320000Y226825D01*
X319683Y226909D01*
X319277Y227315D01*
X318617Y227696D01*
X317881Y227894D01*
X317119D01*
X316383Y227696D01*
X315723Y227315D01*
X315184Y226777D01*
X314804Y226117D01*
X314606Y225381D01*
Y224619D01*
X314804Y223883D01*
X315184Y223223D01*
X315723Y222685D01*
X316383Y222304D01*
X317119Y222106D01*
X317321D01*
X317380Y222053D01*
X317586Y221606D01*
X317303Y221117D01*
X317106Y220381D01*
Y219619D01*
X317303Y218883D01*
X317685Y218223D01*
X318223Y217685D01*
X318883Y217303D01*
X319619Y217106D01*
X319821D01*
X319880Y217053D01*
X320086Y216606D01*
X319804Y216117D01*
X319606Y215381D01*
Y214619D01*
X319804Y213883D01*
X320184Y213223D01*
X320723Y212684D01*
X321383Y212303D01*
X322119Y212106D01*
X322881D01*
X323617Y212303D01*
X324277Y212684D01*
X324683Y213091D01*
X325000Y213175D01*
X325317Y213091D01*
X325723Y212684D01*
X326383Y212303D01*
X327119Y212106D01*
X327881D01*
X328617Y212303D01*
X329277Y212684D01*
X329816Y213223D01*
X330196Y213883D01*
X330394Y214619D01*
Y215381D01*
X330196Y216117D01*
X329889Y216650D01*
X330068Y217005D01*
X330069Y217007D01*
X330179Y217106D01*
X330881D01*
X331617Y217303D01*
X332277Y217685D01*
X332750Y218158D01*
X333223Y217685D01*
X333883Y217303D01*
X334619Y217106D01*
X335381D01*
X336117Y217303D01*
X336777Y217685D01*
X337316Y218223D01*
X337697Y218883D01*
X337894Y219619D01*
Y220381D01*
X337697Y221117D01*
X337316Y221777D01*
X336777Y222316D01*
X336117Y222696D01*
X335381Y222894D01*
X335179D01*
X335120Y222947D01*
X334914Y223394D01*
X335196Y223883D01*
X335394Y224619D01*
Y225381D01*
X335196Y226117D01*
X334816Y226777D01*
X334277Y227315D01*
X333617Y227696D01*
X332881Y227894D01*
D02*
G37*
G36*
X142881Y229608D02*
X142119D01*
X141383Y229411D01*
X140723Y229030D01*
X140184Y228491D01*
X139804Y227831D01*
X139606Y227095D01*
Y226333D01*
X139804Y225597D01*
X140184Y224937D01*
X140723Y224399D01*
X141383Y224018D01*
X142119Y223820D01*
X142881D01*
X143617Y224018D01*
X144277Y224399D01*
X144816Y224937D01*
X145196Y225597D01*
X145394Y226333D01*
Y227095D01*
X145196Y227831D01*
X144816Y228491D01*
X144277Y229030D01*
X143617Y229411D01*
X142881Y229608D01*
D02*
G37*
G36*
X408881Y227894D02*
X408119D01*
X407383Y227696D01*
X406723Y227315D01*
X406184Y226777D01*
X405803Y226117D01*
X405606Y225381D01*
Y224619D01*
X405803Y223883D01*
X406184Y223223D01*
X406723Y222685D01*
X407383Y222304D01*
X408119Y222106D01*
X408881D01*
X409617Y222304D01*
X410277Y222685D01*
X410815Y223223D01*
X411197Y223883D01*
X411394Y224619D01*
Y225381D01*
X411197Y226117D01*
X410815Y226777D01*
X410277Y227315D01*
X409617Y227696D01*
X408881Y227894D01*
D02*
G37*
G36*
X419881Y225394D02*
X419119D01*
X418383Y225197D01*
X417723Y224816D01*
X417184Y224277D01*
X416804Y223617D01*
X416606Y222881D01*
Y222119D01*
X416804Y221383D01*
X417184Y220723D01*
X417723Y220184D01*
X418383Y219804D01*
X419119Y219606D01*
X419881D01*
X420617Y219804D01*
X421277Y220184D01*
X421815Y220723D01*
X422196Y221383D01*
X422394Y222119D01*
Y222881D01*
X422196Y223617D01*
X421815Y224277D01*
X421277Y224816D01*
X420617Y225197D01*
X419881Y225394D01*
D02*
G37*
G36*
X70059Y224396D02*
X69297D01*
X68561Y224198D01*
X67901Y223817D01*
X67362Y223279D01*
X66981Y222619D01*
X66784Y221883D01*
Y221121D01*
X66981Y220385D01*
X67362Y219725D01*
X67901Y219186D01*
X68561Y218805D01*
X69297Y218608D01*
X70059D01*
X70795Y218805D01*
X71455Y219186D01*
X71993Y219725D01*
X72374Y220385D01*
X72571Y221121D01*
Y221883D01*
X72374Y222619D01*
X71993Y223279D01*
X71455Y223817D01*
X70795Y224198D01*
X70059Y224396D01*
D02*
G37*
G36*
X557881Y222894D02*
X557119D01*
X556383Y222696D01*
X555723Y222316D01*
X555185Y221777D01*
X554804Y221117D01*
X554606Y220381D01*
Y219619D01*
X554804Y218883D01*
X555185Y218223D01*
X555723Y217685D01*
X556383Y217303D01*
X557119Y217106D01*
X557881D01*
X558617Y217303D01*
X559277Y217685D01*
X559816Y218223D01*
X560196Y218883D01*
X560394Y219619D01*
Y220381D01*
X560196Y221117D01*
X559816Y221777D01*
X559277Y222316D01*
X558617Y222696D01*
X557881Y222894D01*
D02*
G37*
G36*
X362881Y217894D02*
X362119D01*
X361383Y217696D01*
X360723Y217316D01*
X360317Y216909D01*
X360000Y216825D01*
X359683Y216909D01*
X359277Y217316D01*
X358617Y217696D01*
X357881Y217894D01*
X357119D01*
X356383Y217696D01*
X355723Y217316D01*
X355185Y216777D01*
X354803Y216117D01*
X354606Y215381D01*
Y214619D01*
X354803Y213883D01*
X355086Y213394D01*
X354880Y212947D01*
X354821Y212894D01*
X354619D01*
X353883Y212697D01*
X353223Y212316D01*
X352684Y211777D01*
X352304Y211117D01*
X352106Y210381D01*
Y209619D01*
X352304Y208883D01*
X352586Y208394D01*
X352380Y207947D01*
X352321Y207894D01*
X352119D01*
X351383Y207697D01*
X350723Y207315D01*
X350317Y206909D01*
X350000Y206825D01*
X349683Y206909D01*
X349277Y207315D01*
X348617Y207697D01*
X347881Y207894D01*
X347679D01*
X347620Y207947D01*
X347414Y208394D01*
X347696Y208883D01*
X347894Y209619D01*
Y210381D01*
X347696Y211117D01*
X347414Y211606D01*
X347620Y212053D01*
X347679Y212106D01*
X347881D01*
X348617Y212303D01*
X349277Y212684D01*
X349816Y213223D01*
X350197Y213883D01*
X350394Y214619D01*
Y215381D01*
X350197Y216117D01*
X349816Y216777D01*
X349277Y217316D01*
X348617Y217696D01*
X347881Y217894D01*
X347119D01*
X346383Y217696D01*
X345723Y217316D01*
X345317Y216909D01*
X345000Y216825D01*
X344683Y216909D01*
X344277Y217316D01*
X343617Y217696D01*
X342881Y217894D01*
X342119D01*
X341383Y217696D01*
X340723Y217316D01*
X340184Y216777D01*
X339804Y216117D01*
X339606Y215381D01*
Y214619D01*
X339804Y213883D01*
X340086Y213394D01*
X339880Y212947D01*
X339821Y212894D01*
X339619D01*
X338883Y212697D01*
X338223Y212316D01*
X337817Y211909D01*
X337500Y211825D01*
X337183Y211909D01*
X336777Y212316D01*
X336117Y212697D01*
X335381Y212894D01*
X334619D01*
X333883Y212697D01*
X333223Y212316D01*
X332684Y211777D01*
X332304Y211117D01*
X332106Y210381D01*
Y209619D01*
X332304Y208883D01*
X332586Y208394D01*
X332380Y207947D01*
X332321Y207894D01*
X332119D01*
X331383Y207697D01*
X330723Y207315D01*
X330185Y206777D01*
X329803Y206117D01*
X329606Y205381D01*
Y204619D01*
X329803Y203883D01*
X330185Y203223D01*
X330723Y202684D01*
X331383Y202304D01*
X332119Y202106D01*
X332321D01*
X332380Y202053D01*
X332586Y201606D01*
X332304Y201117D01*
X332106Y200381D01*
Y199619D01*
X332304Y198883D01*
X332684Y198223D01*
X333223Y197685D01*
X333883Y197303D01*
X334619Y197106D01*
X335381D01*
X336117Y197303D01*
X336777Y197685D01*
X337316Y198223D01*
X337697Y198883D01*
X337894Y199619D01*
Y200381D01*
X337697Y201117D01*
X337414Y201606D01*
X337620Y202053D01*
X337679Y202106D01*
X337881D01*
X338617Y202304D01*
X339277Y202684D01*
X339815Y203223D01*
X340196Y203883D01*
X340394Y204619D01*
Y205381D01*
X340196Y206117D01*
X339914Y206606D01*
X340120Y207053D01*
X340179Y207106D01*
X340381D01*
X341117Y207304D01*
X341777Y207684D01*
X342183Y208091D01*
X342500Y208175D01*
X342817Y208091D01*
X343223Y207684D01*
X343883Y207304D01*
X344619Y207106D01*
X344821D01*
X344880Y207053D01*
X345086Y206606D01*
X344804Y206117D01*
X344606Y205381D01*
Y204619D01*
X344804Y203883D01*
X345086Y203394D01*
X344880Y202947D01*
X344821Y202894D01*
X344619D01*
X343883Y202696D01*
X343223Y202315D01*
X342685Y201777D01*
X342303Y201117D01*
X342106Y200381D01*
Y199619D01*
X342303Y198883D01*
X342685Y198223D01*
X343223Y197685D01*
X343883Y197303D01*
X344619Y197106D01*
X345381D01*
X346117Y197303D01*
X346777Y197685D01*
X347185Y198092D01*
X347561Y198152D01*
X347810Y198080D01*
X348252Y197638D01*
X348912Y197257D01*
X349648Y197060D01*
X350410D01*
X351146Y197257D01*
X351806Y197638D01*
X352211Y198043D01*
X352478Y198145D01*
X352852Y198056D01*
X353223Y197685D01*
X353883Y197303D01*
X354619Y197106D01*
X355381D01*
X356117Y197303D01*
X356777Y197685D01*
X357183Y198091D01*
X357500Y198175D01*
X357817Y198091D01*
X358223Y197685D01*
X358883Y197303D01*
X359619Y197106D01*
X360381D01*
X361117Y197303D01*
X361777Y197685D01*
X362316Y198223D01*
X362697Y198883D01*
X362894Y199619D01*
Y200381D01*
X362697Y201117D01*
X362414Y201606D01*
X362620Y202053D01*
X362679Y202106D01*
X362881D01*
X363617Y202304D01*
X364277Y202684D01*
X364815Y203223D01*
X365196Y203883D01*
X365394Y204619D01*
Y205381D01*
X365196Y206117D01*
X364815Y206777D01*
X364277Y207315D01*
X363617Y207697D01*
X362881Y207894D01*
X362679D01*
X362620Y207947D01*
X362414Y208394D01*
X362697Y208883D01*
X362894Y209619D01*
Y210381D01*
X362697Y211117D01*
X362414Y211606D01*
X362620Y212053D01*
X362679Y212106D01*
X362881D01*
X363617Y212303D01*
X364277Y212684D01*
X364815Y213223D01*
X365196Y213883D01*
X365394Y214619D01*
Y215381D01*
X365196Y216117D01*
X364815Y216777D01*
X364277Y217316D01*
X363617Y217696D01*
X362881Y217894D01*
D02*
G37*
G36*
X53661Y234405D02*
X52899D01*
X52163Y234208D01*
X51503Y233827D01*
X50964Y233288D01*
X50583Y232628D01*
X50386Y231892D01*
Y231130D01*
X50583Y230394D01*
X50918Y229815D01*
X50804Y229617D01*
X50606Y228881D01*
Y228119D01*
X50804Y227383D01*
X51184Y226723D01*
X51636Y226272D01*
X51701Y226025D01*
X51648Y225651D01*
X51229Y225232D01*
X50848Y224572D01*
X50651Y223836D01*
Y223075D01*
X50848Y222339D01*
X51229Y221679D01*
X51768Y221140D01*
X52428Y220759D01*
X53045Y220594D01*
X53019Y220094D01*
X52283Y219897D01*
X51623Y219515D01*
X51085Y218977D01*
X50704Y218317D01*
X50506Y217581D01*
Y216819D01*
X50704Y216083D01*
X51085Y215423D01*
X51623Y214884D01*
X52283Y214504D01*
X53019Y214306D01*
X53781D01*
X54517Y214504D01*
X55177Y214884D01*
X55716Y215423D01*
X56097Y216083D01*
X56294Y216819D01*
Y217581D01*
X56097Y218317D01*
X55716Y218977D01*
X55177Y219515D01*
X54517Y219897D01*
X53900Y220062D01*
X53925Y220562D01*
X54661Y220759D01*
X55321Y221140D01*
X55860Y221679D01*
X56241Y222339D01*
X56438Y223075D01*
Y223836D01*
X56241Y224572D01*
X55860Y225232D01*
X55409Y225683D01*
X55344Y225930D01*
X55397Y226305D01*
X55816Y226723D01*
X56196Y227383D01*
X56394Y228119D01*
Y228881D01*
X56196Y229617D01*
X55862Y230197D01*
X55976Y230394D01*
X56173Y231130D01*
Y231892D01*
X55976Y232628D01*
X55595Y233288D01*
X55056Y233827D01*
X54396Y234208D01*
X53661Y234405D01*
D02*
G37*
G36*
X286781Y217994D02*
X286019D01*
X285283Y217796D01*
X284623Y217415D01*
X284085Y216877D01*
X283703Y216217D01*
X283506Y215481D01*
Y214719D01*
X283703Y213983D01*
X284085Y213323D01*
X284623Y212785D01*
X285283Y212403D01*
X286019Y212206D01*
X286781D01*
X287517Y212403D01*
X288177Y212785D01*
X288716Y213323D01*
X289096Y213983D01*
X289294Y214719D01*
Y215481D01*
X289096Y216217D01*
X288716Y216877D01*
X288177Y217415D01*
X287517Y217796D01*
X286781Y217994D01*
D02*
G37*
G36*
X70059Y217708D02*
X69297D01*
X68561Y217511D01*
X67901Y217130D01*
X67362Y216591D01*
X66981Y215931D01*
X66784Y215195D01*
Y214433D01*
X66981Y213697D01*
X67362Y213037D01*
X67901Y212499D01*
X68561Y212118D01*
X69297Y211920D01*
X70059D01*
X70795Y212118D01*
X71455Y212499D01*
X71993Y213037D01*
X72374Y213697D01*
X72571Y214433D01*
Y215195D01*
X72374Y215931D01*
X71993Y216591D01*
X71455Y217130D01*
X70795Y217511D01*
X70059Y217708D01*
D02*
G37*
G36*
X573517Y217279D02*
X572755D01*
X572019Y217082D01*
X571360Y216701D01*
X570821Y216162D01*
X570440Y215503D01*
X570243Y214767D01*
Y214005D01*
X570440Y213269D01*
X570821Y212609D01*
X571360Y212070D01*
X572019Y211689D01*
X572755Y211492D01*
X573517D01*
X574253Y211689D01*
X574913Y212070D01*
X575452Y212609D01*
X575833Y213269D01*
X576030Y214005D01*
Y214767D01*
X575833Y215503D01*
X575452Y216162D01*
X574913Y216701D01*
X574253Y217082D01*
X573517Y217279D01*
D02*
G37*
G36*
X544198Y211917D02*
X543436D01*
X542700Y211719D01*
X542040Y211339D01*
X541502Y210800D01*
X541120Y210140D01*
X540923Y209404D01*
Y208642D01*
X541120Y207906D01*
X541502Y207246D01*
X542040Y206708D01*
X542700Y206327D01*
X543436Y206129D01*
X544198D01*
X544934Y206327D01*
X545594Y206708D01*
X546133Y207246D01*
X546514Y207906D01*
X546711Y208642D01*
Y209404D01*
X546514Y210140D01*
X546133Y210800D01*
X545594Y211339D01*
X544934Y211719D01*
X544198Y211917D01*
D02*
G37*
G36*
X592381Y211394D02*
X591619D01*
X590883Y211196D01*
X590223Y210816D01*
X589684Y210277D01*
X589303Y209617D01*
X589106Y208881D01*
Y208119D01*
X589303Y207383D01*
X589684Y206723D01*
X590223Y206185D01*
X590883Y205803D01*
X591619Y205606D01*
X592381D01*
X593117Y205803D01*
X593777Y206185D01*
X594315Y206723D01*
X594697Y207383D01*
X594894Y208119D01*
Y208881D01*
X594697Y209617D01*
X594315Y210277D01*
X593777Y210816D01*
X593117Y211196D01*
X592381Y211394D01*
D02*
G37*
G36*
X34126Y210565D02*
X33364D01*
X32629Y210368D01*
X31969Y209987D01*
X31430Y209448D01*
X31049Y208788D01*
X30852Y208052D01*
Y207290D01*
X31049Y206554D01*
X31430Y205894D01*
X31969Y205356D01*
X32629Y204975D01*
X33364Y204777D01*
X34126D01*
X34862Y204975D01*
X35522Y205356D01*
X36061Y205894D01*
X36442Y206554D01*
X36639Y207290D01*
Y208052D01*
X36442Y208788D01*
X36061Y209448D01*
X35522Y209987D01*
X34862Y210368D01*
X34126Y210565D01*
D02*
G37*
G36*
X417381Y209594D02*
X416619D01*
X415883Y209397D01*
X415223Y209015D01*
X414684Y208477D01*
X414303Y207817D01*
X414106Y207081D01*
Y206319D01*
X414303Y205583D01*
X414684Y204923D01*
X415223Y204384D01*
X415883Y204004D01*
X416619Y203806D01*
X417381D01*
X418117Y204004D01*
X418777Y204384D01*
X419315Y204923D01*
X419697Y205583D01*
X419894Y206319D01*
Y207081D01*
X419697Y207817D01*
X419315Y208477D01*
X418777Y209015D01*
X418117Y209397D01*
X417381Y209594D01*
D02*
G37*
G36*
X81881Y208394D02*
X81119D01*
X80383Y208196D01*
X79723Y207816D01*
X79185Y207277D01*
X78803Y206617D01*
X78606Y205881D01*
Y205119D01*
X78803Y204383D01*
X79185Y203723D01*
X79723Y203185D01*
X80383Y202803D01*
X81119Y202606D01*
X81881D01*
X82617Y202803D01*
X83277Y203185D01*
X83815Y203723D01*
X84197Y204383D01*
X84394Y205119D01*
Y205881D01*
X84197Y206617D01*
X83815Y207277D01*
X83277Y207816D01*
X82617Y208196D01*
X81881Y208394D01*
D02*
G37*
G36*
X605881Y205394D02*
X605119D01*
X604383Y205196D01*
X603723Y204816D01*
X603185Y204277D01*
X602804Y203617D01*
X602606Y202881D01*
Y202119D01*
X602804Y201383D01*
X603185Y200723D01*
X603723Y200184D01*
X604383Y199803D01*
X605119Y199606D01*
X605881D01*
X606617Y199803D01*
X607277Y200184D01*
X607816Y200723D01*
X608196Y201383D01*
X608394Y202119D01*
Y202881D01*
X608196Y203617D01*
X607816Y204277D01*
X607277Y204816D01*
X606617Y205196D01*
X605881Y205394D01*
D02*
G37*
G36*
X403881Y207394D02*
X403119D01*
X402383Y207196D01*
X401723Y206816D01*
X401185Y206277D01*
X400804Y205617D01*
X400606Y204881D01*
Y204119D01*
X400804Y203383D01*
X401185Y202723D01*
X401723Y202185D01*
X402383Y201803D01*
X403119Y201606D01*
X403881D01*
X404203Y201693D01*
X404804Y201383D01*
X405185Y200723D01*
X405723Y200184D01*
X406383Y199803D01*
X407119Y199606D01*
X407881D01*
X408617Y199803D01*
X409277Y200184D01*
X409816Y200723D01*
X410196Y201383D01*
X410394Y202119D01*
Y202881D01*
X410196Y203617D01*
X409816Y204277D01*
X409277Y204816D01*
X408617Y205196D01*
X407881Y205394D01*
X407119D01*
X406797Y205307D01*
X406196Y205617D01*
X405816Y206277D01*
X405277Y206816D01*
X404617Y207196D01*
X403881Y207394D01*
D02*
G37*
G36*
X53381Y204894D02*
X52619D01*
X51883Y204696D01*
X51223Y204315D01*
X50684Y203777D01*
X50304Y203117D01*
X50106Y202381D01*
Y201619D01*
X50304Y200883D01*
X50684Y200223D01*
X51223Y199685D01*
X51883Y199303D01*
X52619Y199106D01*
X53381D01*
X54117Y199303D01*
X54777Y199685D01*
X55316Y200223D01*
X55696Y200883D01*
X55894Y201619D01*
Y202381D01*
X55696Y203117D01*
X55316Y203777D01*
X54777Y204315D01*
X54117Y204696D01*
X53381Y204894D01*
D02*
G37*
G36*
X393381Y202197D02*
X392619D01*
X391883Y202000D01*
X391223Y201619D01*
X390685Y201080D01*
X390303Y200420D01*
X390106Y199684D01*
Y198922D01*
X390303Y198186D01*
X390685Y197526D01*
X391223Y196988D01*
X391883Y196607D01*
X392619Y196409D01*
X393381D01*
X394117Y196607D01*
X394777Y196988D01*
X395316Y197526D01*
X395696Y198186D01*
X395894Y198922D01*
Y199684D01*
X395696Y200420D01*
X395316Y201080D01*
X394777Y201619D01*
X394117Y202000D01*
X393381Y202197D01*
D02*
G37*
G36*
X410777Y198836D02*
X410015D01*
X409279Y198638D01*
X408619Y198258D01*
X408080Y197719D01*
X407699Y197059D01*
X407502Y196323D01*
Y195561D01*
X407699Y194825D01*
X408080Y194165D01*
X408619Y193626D01*
X409279Y193245D01*
X410015Y193048D01*
X410777D01*
X411513Y193245D01*
X412173Y193626D01*
X412711Y194165D01*
X413092Y194825D01*
X413290Y195561D01*
Y196323D01*
X413092Y197059D01*
X412711Y197719D01*
X412173Y198258D01*
X411513Y198638D01*
X410777Y198836D01*
D02*
G37*
G36*
X355381Y193924D02*
X354619D01*
X353883Y193726D01*
X353223Y193345D01*
X352817Y192939D01*
X352500Y192855D01*
X352183Y192939D01*
X351777Y193345D01*
X351117Y193726D01*
X350381Y193924D01*
X349619D01*
X348883Y193726D01*
X348223Y193345D01*
X347817Y192939D01*
X347500Y192855D01*
X347183Y192939D01*
X346777Y193345D01*
X346117Y193726D01*
X345381Y193924D01*
X344619D01*
X343883Y193726D01*
X343223Y193345D01*
X342744Y192867D01*
X342443Y192833D01*
X342142Y192867D01*
X341663Y193345D01*
X341003Y193726D01*
X340267Y193924D01*
X339505D01*
X338769Y193726D01*
X338109Y193345D01*
X337570Y192807D01*
X337189Y192147D01*
X336992Y191411D01*
Y190649D01*
X337189Y189913D01*
X337570Y189253D01*
X338109Y188714D01*
X338769Y188333D01*
X339505Y188136D01*
X340267D01*
X341003Y188333D01*
X341663Y188714D01*
X342142Y189193D01*
X342443Y189227D01*
X342744Y189193D01*
X343223Y188714D01*
X343883Y188333D01*
X344619Y188136D01*
X344821D01*
X344880Y188083D01*
X345086Y187636D01*
X344804Y187147D01*
X344606Y186411D01*
Y185649D01*
X344804Y184913D01*
X345086Y184424D01*
X344880Y183977D01*
X344821Y183924D01*
X344619D01*
X343883Y183726D01*
X343223Y183345D01*
X342685Y182807D01*
X342303Y182147D01*
X342106Y181411D01*
Y180649D01*
X342303Y179913D01*
X342685Y179253D01*
X343223Y178714D01*
X343883Y178333D01*
X344619Y178136D01*
X345381D01*
X345678Y178216D01*
X345956Y177999D01*
X346106Y177813D01*
Y177119D01*
X346304Y176383D01*
X346685Y175723D01*
X347223Y175185D01*
X347883Y174803D01*
X348619Y174606D01*
X349381D01*
X350117Y174803D01*
X350777Y175185D01*
X351315Y175723D01*
X351696Y176383D01*
X351894Y177119D01*
Y177783D01*
X352112Y178032D01*
X352330Y178184D01*
X352619Y178106D01*
X353381D01*
X354117Y178304D01*
X354777Y178684D01*
X355315Y179223D01*
X355697Y179883D01*
X355894Y180619D01*
Y181381D01*
X355778Y181814D01*
X356186Y182222D01*
X356619Y182106D01*
X357381D01*
X358117Y182304D01*
X358777Y182685D01*
X359315Y183223D01*
X359697Y183883D01*
X359894Y184619D01*
Y185381D01*
X359778Y185814D01*
X360186Y186222D01*
X360619Y186106D01*
X361381D01*
X362117Y186303D01*
X362777Y186685D01*
X363316Y187223D01*
X363697Y187883D01*
X363894Y188619D01*
Y189381D01*
X363697Y190117D01*
X363316Y190777D01*
X362777Y191315D01*
X362117Y191697D01*
X361381Y191894D01*
X360619D01*
X359883Y191697D01*
X359223Y191315D01*
X358684Y190777D01*
X358303Y190117D01*
X358106Y189381D01*
Y188619D01*
X358222Y188186D01*
X357814Y187778D01*
X357381Y187894D01*
X356619D01*
X355883Y187697D01*
X355223Y187315D01*
X354684Y186777D01*
X354304Y186117D01*
X354106Y185381D01*
Y184619D01*
X354222Y184186D01*
X353814Y183778D01*
X353381Y183894D01*
X352619D01*
X351883Y183696D01*
X351223Y183316D01*
X350684Y182777D01*
X350304Y182117D01*
X350106Y181381D01*
Y180717D01*
X349888Y180468D01*
X349670Y180316D01*
X349381Y180394D01*
X348619D01*
X348322Y180314D01*
X348044Y180531D01*
X347894Y180717D01*
Y181411D01*
X347696Y182147D01*
X347414Y182636D01*
X347620Y183083D01*
X347679Y183136D01*
X347881D01*
X348617Y183333D01*
X349277Y183714D01*
X349816Y184253D01*
X350197Y184913D01*
X350394Y185649D01*
Y186411D01*
X350197Y187147D01*
X349914Y187636D01*
X350120Y188083D01*
X350179Y188136D01*
X350381D01*
X351117Y188333D01*
X351777Y188714D01*
X352183Y189121D01*
X352500Y189205D01*
X352817Y189121D01*
X353223Y188714D01*
X353883Y188333D01*
X354619Y188136D01*
X355381D01*
X356117Y188333D01*
X356777Y188714D01*
X357315Y189253D01*
X357697Y189913D01*
X357894Y190649D01*
Y191411D01*
X357697Y192147D01*
X357315Y192807D01*
X356777Y193345D01*
X356117Y193726D01*
X355381Y193924D01*
D02*
G37*
G36*
X60381Y194394D02*
X59619D01*
X58883Y194196D01*
X58223Y193816D01*
X57684Y193277D01*
X57304Y192617D01*
X57106Y191881D01*
Y191119D01*
X57304Y190383D01*
X57684Y189723D01*
X58223Y189184D01*
X58883Y188804D01*
X59619Y188606D01*
X60381D01*
X61117Y188804D01*
X61777Y189184D01*
X62315Y189723D01*
X62696Y190383D01*
X62894Y191119D01*
Y191881D01*
X62696Y192617D01*
X62315Y193277D01*
X61777Y193816D01*
X61117Y194196D01*
X60381Y194394D01*
D02*
G37*
G36*
X325381Y193924D02*
X324619D01*
X323883Y193726D01*
X323223Y193345D01*
X322685Y192807D01*
X322304Y192147D01*
X322106Y191411D01*
Y190649D01*
X322304Y189913D01*
X322685Y189253D01*
X323223Y188714D01*
X323883Y188333D01*
X324619Y188136D01*
X325381D01*
X326117Y188333D01*
X326777Y188714D01*
X327315Y189253D01*
X327696Y189913D01*
X327894Y190649D01*
Y191411D01*
X327696Y192147D01*
X327315Y192807D01*
X326777Y193345D01*
X326117Y193726D01*
X325381Y193924D01*
D02*
G37*
G36*
X457381Y181394D02*
X456619D01*
X455883Y181196D01*
X455223Y180815D01*
X454684Y180277D01*
X454596Y180124D01*
X454037Y180155D01*
X453577Y180615D01*
X452917Y180997D01*
X452181Y181194D01*
X451419D01*
X450683Y180997D01*
X450023Y180615D01*
X449484Y180077D01*
X449103Y179417D01*
X448906Y178681D01*
Y177919D01*
X449103Y177183D01*
X449484Y176523D01*
X450023Y175985D01*
X450683Y175603D01*
X451419Y175406D01*
X452181D01*
X452917Y175603D01*
X453577Y175985D01*
X454115Y176523D01*
X454204Y176676D01*
X454763Y176645D01*
X455223Y176184D01*
X455883Y175803D01*
X456619Y175606D01*
X457381D01*
X458117Y175803D01*
X458777Y176184D01*
X459315Y176723D01*
X459696Y177383D01*
X459894Y178119D01*
Y178881D01*
X459696Y179617D01*
X459315Y180277D01*
X458777Y180815D01*
X458117Y181196D01*
X457381Y181394D01*
D02*
G37*
G36*
X503881Y183394D02*
X503119D01*
X502383Y183196D01*
X501723Y182816D01*
X501185Y182277D01*
X500804Y181617D01*
X500606Y180881D01*
Y180119D01*
X500804Y179383D01*
X501185Y178723D01*
X501723Y178184D01*
X502383Y177804D01*
X503119Y177606D01*
X503881D01*
X504617Y177804D01*
X505277Y178184D01*
X505816Y178723D01*
X506196Y179383D01*
X506394Y180119D01*
Y180881D01*
X506196Y181617D01*
X505816Y182277D01*
X505277Y182816D01*
X504617Y183196D01*
X503881Y183394D01*
D02*
G37*
G36*
X418881D02*
X418119D01*
X417383Y183196D01*
X416723Y182816D01*
X416185Y182277D01*
X415803Y181617D01*
X415606Y180881D01*
Y180119D01*
X415803Y179383D01*
X416185Y178723D01*
X416723Y178184D01*
X417383Y177804D01*
X418119Y177606D01*
X418881D01*
X419617Y177804D01*
X420277Y178184D01*
X420816Y178723D01*
X421197Y179383D01*
X421394Y180119D01*
Y180881D01*
X421197Y181617D01*
X420816Y182277D01*
X420277Y182816D01*
X419617Y183196D01*
X418881Y183394D01*
D02*
G37*
G36*
X215881Y182394D02*
X215119D01*
X214383Y182196D01*
X213723Y181816D01*
X213184Y181277D01*
X212804Y180617D01*
X212606Y179881D01*
Y179119D01*
X212804Y178383D01*
X213184Y177723D01*
X213723Y177184D01*
X214383Y176804D01*
X215119Y176606D01*
X215881D01*
X216617Y176804D01*
X217277Y177184D01*
X217815Y177723D01*
X218197Y178383D01*
X218394Y179119D01*
Y179881D01*
X218197Y180617D01*
X217815Y181277D01*
X217277Y181816D01*
X216617Y182196D01*
X215881Y182394D01*
D02*
G37*
G36*
X254170Y181416D02*
X253408D01*
X252672Y181219D01*
X252012Y180838D01*
X251474Y180299D01*
X251093Y179639D01*
X250896Y178903D01*
Y178142D01*
X251093Y177406D01*
X251474Y176746D01*
X252012Y176207D01*
X252672Y175826D01*
X253408Y175629D01*
X254170D01*
X254906Y175826D01*
X255566Y176207D01*
X256105Y176746D01*
X256486Y177406D01*
X256683Y178142D01*
Y178903D01*
X256486Y179639D01*
X256105Y180299D01*
X255566Y180838D01*
X254906Y181219D01*
X254170Y181416D01*
D02*
G37*
G36*
X269881Y180394D02*
X269119D01*
X268383Y180196D01*
X267723Y179815D01*
X267184Y179277D01*
X266804Y178617D01*
X266606Y177881D01*
Y177119D01*
X266804Y176383D01*
X267184Y175723D01*
X267723Y175185D01*
X268383Y174803D01*
X269119Y174606D01*
X269881D01*
X270617Y174803D01*
X271277Y175185D01*
X271815Y175723D01*
X272197Y176383D01*
X272394Y177119D01*
Y177881D01*
X272197Y178617D01*
X271815Y179277D01*
X271277Y179815D01*
X270617Y180196D01*
X269881Y180394D01*
D02*
G37*
G36*
X404381Y177894D02*
X403619D01*
X402883Y177697D01*
X402223Y177315D01*
X401685Y176777D01*
X401303Y176117D01*
X401106Y175381D01*
Y174619D01*
X401303Y173883D01*
X401685Y173223D01*
X402223Y172685D01*
X402883Y172303D01*
X403619Y172106D01*
X404381D01*
X405117Y172303D01*
X405777Y172685D01*
X406316Y173223D01*
X406697Y173883D01*
X406894Y174619D01*
Y175381D01*
X406697Y176117D01*
X406316Y176777D01*
X405777Y177315D01*
X405117Y177697D01*
X404381Y177894D01*
D02*
G37*
G36*
X312381Y176894D02*
X311619D01*
X310883Y176697D01*
X310223Y176315D01*
X309684Y175777D01*
X309303Y175117D01*
X309106Y174381D01*
Y173619D01*
X309303Y172883D01*
X309684Y172223D01*
X310223Y171685D01*
X310883Y171303D01*
X311619Y171106D01*
X312381D01*
X313117Y171303D01*
X313777Y171685D01*
X314316Y172223D01*
X314697Y172883D01*
X314894Y173619D01*
Y174381D01*
X314697Y175117D01*
X314316Y175777D01*
X313777Y176315D01*
X313117Y176697D01*
X312381Y176894D01*
D02*
G37*
G36*
X325381Y183924D02*
X324619D01*
X323883Y183726D01*
X323223Y183345D01*
X322685Y182807D01*
X322304Y182147D01*
X322106Y181411D01*
Y180649D01*
X322304Y179913D01*
X322586Y179424D01*
X322380Y178977D01*
X322321Y178924D01*
X322119D01*
X321383Y178726D01*
X320723Y178346D01*
X320184Y177807D01*
X319804Y177147D01*
X319606Y176411D01*
Y175649D01*
X319804Y174913D01*
X320086Y174424D01*
X319880Y173977D01*
X319821Y173924D01*
X319619D01*
X318883Y173726D01*
X318223Y173345D01*
X317685Y172807D01*
X317303Y172147D01*
X317106Y171411D01*
Y170649D01*
X317303Y169913D01*
X317685Y169253D01*
X318223Y168714D01*
X318883Y168333D01*
X319619Y168136D01*
X320381D01*
X321117Y168333D01*
X321777Y168714D01*
X322183Y169121D01*
X322500Y169204D01*
X322817Y169121D01*
X323223Y168714D01*
X323883Y168333D01*
X324619Y168136D01*
X325381D01*
X326117Y168333D01*
X326777Y168714D01*
X327183Y169121D01*
X327500Y169204D01*
X327817Y169121D01*
X328223Y168714D01*
X328883Y168333D01*
X329619Y168136D01*
X330381D01*
X331117Y168333D01*
X331777Y168714D01*
X332315Y169253D01*
X332697Y169913D01*
X332894Y170649D01*
Y171411D01*
X332697Y172147D01*
X332315Y172807D01*
X331777Y173345D01*
X331117Y173726D01*
X330381Y173924D01*
X329619D01*
X328883Y173726D01*
X328223Y173345D01*
X327817Y172939D01*
X327500Y172855D01*
X327183Y172939D01*
X326777Y173345D01*
X326117Y173726D01*
X325381Y173924D01*
X325179D01*
X325120Y173977D01*
X324914Y174424D01*
X325197Y174913D01*
X325394Y175649D01*
Y176411D01*
X325197Y177147D01*
X324914Y177636D01*
X325120Y178083D01*
X325179Y178136D01*
X325381D01*
X326117Y178333D01*
X326777Y178714D01*
X327315Y179253D01*
X327696Y179913D01*
X327894Y180649D01*
Y181411D01*
X327696Y182147D01*
X327315Y182807D01*
X326777Y183345D01*
X326117Y183726D01*
X325381Y183924D01*
D02*
G37*
G36*
X520546Y177760D02*
X519784D01*
X519048Y177563D01*
X518389Y177182D01*
X517850Y176644D01*
X517469Y175984D01*
X517272Y175248D01*
Y174486D01*
X517469Y173750D01*
X517850Y173090D01*
X518004Y172936D01*
X517939Y172440D01*
X517723Y172316D01*
X517184Y171777D01*
X516804Y171117D01*
X516606Y170381D01*
Y169619D01*
X516804Y168883D01*
X517184Y168223D01*
X517723Y167684D01*
X518383Y167304D01*
X519119Y167106D01*
X519881D01*
X520617Y167304D01*
X521277Y167684D01*
X521815Y168223D01*
X522196Y168883D01*
X522394Y169619D01*
Y170381D01*
X522196Y171117D01*
X521815Y171777D01*
X521661Y171931D01*
X521727Y172427D01*
X521942Y172551D01*
X522481Y173090D01*
X522862Y173750D01*
X523059Y174486D01*
Y175248D01*
X522862Y175984D01*
X522481Y176644D01*
X521942Y177182D01*
X521282Y177563D01*
X520546Y177760D01*
D02*
G37*
G36*
X201381Y169394D02*
X200619D01*
X199883Y169196D01*
X199223Y168816D01*
X198685Y168277D01*
X198303Y167617D01*
X198106Y166881D01*
Y166119D01*
X198303Y165383D01*
X198685Y164723D01*
X199223Y164184D01*
X199883Y163804D01*
X200619Y163606D01*
X201381D01*
X202117Y163804D01*
X202777Y164184D01*
X203315Y164723D01*
X203696Y165383D01*
X203894Y166119D01*
Y166881D01*
X203696Y167617D01*
X203315Y168277D01*
X202777Y168816D01*
X202117Y169196D01*
X201381Y169394D01*
D02*
G37*
G36*
X237726Y165239D02*
X236964D01*
X236228Y165042D01*
X235568Y164661D01*
X235030Y164122D01*
X234649Y163462D01*
X234452Y162726D01*
Y161964D01*
X234649Y161228D01*
X235030Y160568D01*
X235568Y160030D01*
X236228Y159649D01*
X236964Y159452D01*
X237726D01*
X238462Y159649D01*
X239122Y160030D01*
X239661Y160568D01*
X240042Y161228D01*
X240239Y161964D01*
Y162726D01*
X240042Y163462D01*
X239661Y164122D01*
X239122Y164661D01*
X238462Y165042D01*
X237726Y165239D01*
D02*
G37*
G36*
X229881Y164894D02*
X229119D01*
X228383Y164697D01*
X227723Y164315D01*
X227185Y163777D01*
X226803Y163117D01*
X226606Y162381D01*
Y161619D01*
X226803Y160883D01*
X227185Y160223D01*
X227723Y159685D01*
X228383Y159303D01*
X229119Y159106D01*
X229881D01*
X230617Y159303D01*
X231277Y159685D01*
X231816Y160223D01*
X232196Y160883D01*
X232394Y161619D01*
Y162381D01*
X232196Y163117D01*
X231816Y163777D01*
X231277Y164315D01*
X230617Y164697D01*
X229881Y164894D01*
D02*
G37*
G36*
X221928Y167347D02*
X221166D01*
X220430Y167149D01*
X219771Y166768D01*
X219232Y166229D01*
X218851Y165570D01*
X218653Y164834D01*
Y164269D01*
X218383Y164197D01*
X217723Y163815D01*
X217184Y163277D01*
X216804Y162617D01*
X216606Y161881D01*
Y161119D01*
X216804Y160383D01*
X217184Y159723D01*
X217723Y159185D01*
X218383Y158803D01*
X219119Y158606D01*
X219881D01*
X220617Y158803D01*
X221277Y159185D01*
X221815Y159723D01*
X222197Y160383D01*
X222394Y161119D01*
Y161684D01*
X222664Y161756D01*
X223324Y162137D01*
X223863Y162676D01*
X224244Y163336D01*
X224441Y164072D01*
Y164834D01*
X224244Y165570D01*
X223863Y166229D01*
X223324Y166768D01*
X222664Y167149D01*
X221928Y167347D01*
D02*
G37*
G36*
X337381Y159394D02*
X336619D01*
X335883Y159196D01*
X335223Y158816D01*
X334684Y158277D01*
X334303Y157617D01*
X334106Y156881D01*
Y156119D01*
X334303Y155383D01*
X334684Y154723D01*
X335223Y154184D01*
X335883Y153804D01*
X336619Y153606D01*
X337381D01*
X338117Y153804D01*
X338777Y154184D01*
X339316Y154723D01*
X339697Y155383D01*
X339894Y156119D01*
Y156881D01*
X339697Y157617D01*
X339316Y158277D01*
X338777Y158816D01*
X338117Y159196D01*
X337381Y159394D01*
D02*
G37*
G36*
X273881Y152894D02*
X273119D01*
X272383Y152697D01*
X271723Y152315D01*
X271184Y151777D01*
X270803Y151117D01*
X270606Y150381D01*
Y149619D01*
X270803Y148883D01*
X271184Y148223D01*
X271723Y147685D01*
X272383Y147303D01*
X273119Y147106D01*
X273881D01*
X274617Y147303D01*
X275277Y147685D01*
X275816Y148223D01*
X276197Y148883D01*
X276394Y149619D01*
Y150381D01*
X276197Y151117D01*
X275816Y151777D01*
X275277Y152315D01*
X274617Y152697D01*
X273881Y152894D01*
D02*
G37*
G36*
X215881Y151894D02*
X215119D01*
X214383Y151697D01*
X213723Y151315D01*
X213184Y150777D01*
X212804Y150117D01*
X212606Y149381D01*
Y148619D01*
X212804Y147883D01*
X213184Y147223D01*
X213723Y146685D01*
X214383Y146303D01*
X215119Y146106D01*
X215881D01*
X216617Y146303D01*
X217277Y146685D01*
X217815Y147223D01*
X218197Y147883D01*
X218394Y148619D01*
Y149381D01*
X218197Y150117D01*
X217815Y150777D01*
X217277Y151315D01*
X216617Y151697D01*
X215881Y151894D01*
D02*
G37*
G36*
X236881Y151394D02*
X236119D01*
X235383Y151197D01*
X234723Y150815D01*
X234185Y150277D01*
X233804Y149617D01*
X233606Y148881D01*
Y148119D01*
X233804Y147383D01*
X234185Y146723D01*
X234723Y146185D01*
X235383Y145803D01*
X236119Y145606D01*
X236881D01*
X237617Y145803D01*
X238277Y146185D01*
X238815Y146723D01*
X239196Y147383D01*
X239394Y148119D01*
Y148881D01*
X239196Y149617D01*
X238815Y150277D01*
X238277Y150815D01*
X237617Y151197D01*
X236881Y151394D01*
D02*
G37*
G36*
X186381Y146894D02*
X185619D01*
X184883Y146696D01*
X184223Y146316D01*
X183685Y145777D01*
X183303Y145117D01*
X183106Y144381D01*
Y143619D01*
X183303Y142883D01*
X183685Y142223D01*
X184223Y141684D01*
X184883Y141304D01*
X185619Y141106D01*
X186381D01*
X187117Y141304D01*
X187777Y141684D01*
X188315Y142223D01*
X188697Y142883D01*
X188894Y143619D01*
Y144381D01*
X188697Y145117D01*
X188315Y145777D01*
X187777Y146316D01*
X187117Y146696D01*
X186381Y146894D01*
D02*
G37*
G36*
X48733Y144637D02*
X47971D01*
X47235Y144440D01*
X46576Y144059D01*
X46037Y143520D01*
X45656Y142860D01*
X45459Y142124D01*
Y141362D01*
X45656Y140626D01*
X46037Y139966D01*
X46576Y139428D01*
X47235Y139047D01*
X47971Y138849D01*
X48733D01*
X49469Y139047D01*
X50129Y139428D01*
X50668Y139966D01*
X51049Y140626D01*
X51246Y141362D01*
Y142124D01*
X51049Y142860D01*
X50668Y143520D01*
X50129Y144059D01*
X49469Y144440D01*
X48733Y144637D01*
D02*
G37*
G36*
X38881Y143894D02*
X38119D01*
X37383Y143696D01*
X36723Y143315D01*
X36184Y142777D01*
X35803Y142117D01*
X35606Y141381D01*
Y140619D01*
X35803Y139883D01*
X36184Y139223D01*
X36723Y138684D01*
X37383Y138303D01*
X38119Y138106D01*
X38881D01*
X39617Y138303D01*
X40277Y138684D01*
X40815Y139223D01*
X41197Y139883D01*
X41394Y140619D01*
Y141381D01*
X41197Y142117D01*
X40815Y142777D01*
X40277Y143315D01*
X39617Y143696D01*
X38881Y143894D01*
D02*
G37*
G36*
X557931Y143843D02*
X557169D01*
X556433Y143646D01*
X555773Y143264D01*
X555234Y142726D01*
X554853Y142066D01*
X554656Y141330D01*
Y140568D01*
X554853Y139832D01*
X555234Y139172D01*
X555773Y138634D01*
X556433Y138252D01*
X557169Y138055D01*
X557931D01*
X558667Y138252D01*
X559327Y138634D01*
X559866Y139172D01*
X560247Y139832D01*
X560444Y140568D01*
Y141330D01*
X560247Y142066D01*
X559866Y142726D01*
X559327Y143264D01*
X558667Y143646D01*
X557931Y143843D01*
D02*
G37*
G36*
X614881Y148394D02*
X614119D01*
X613383Y148196D01*
X612723Y147816D01*
X612184Y147277D01*
X611803Y146617D01*
X611606Y145881D01*
Y145119D01*
X611803Y144383D01*
X612025Y144000D01*
X611803Y143617D01*
X611606Y142881D01*
Y142119D01*
X611642Y141985D01*
X611185Y141527D01*
X610804Y140867D01*
X610606Y140131D01*
Y139369D01*
X610804Y138633D01*
X611185Y137973D01*
X611723Y137434D01*
X612383Y137054D01*
X613119Y136856D01*
X613881D01*
X614617Y137054D01*
X615277Y137434D01*
X615815Y137973D01*
X616196Y138633D01*
X616394Y139369D01*
Y140131D01*
X616358Y140265D01*
X616816Y140723D01*
X617197Y141383D01*
X617394Y142119D01*
Y142881D01*
X617197Y143617D01*
X616975Y144000D01*
X617197Y144383D01*
X617394Y145119D01*
Y145881D01*
X617197Y146617D01*
X616816Y147277D01*
X616277Y147816D01*
X615617Y148196D01*
X614881Y148394D01*
D02*
G37*
G36*
X329640Y141372D02*
X328878D01*
X328142Y141175D01*
X327483Y140794D01*
X326944Y140255D01*
X326563Y139595D01*
X326366Y138859D01*
Y138098D01*
X326563Y137362D01*
X326944Y136702D01*
X327483Y136163D01*
X328142Y135782D01*
X328878Y135585D01*
X329640D01*
X330376Y135782D01*
X331036Y136163D01*
X331575Y136702D01*
X331956Y137362D01*
X332153Y138098D01*
Y138859D01*
X331956Y139595D01*
X331575Y140255D01*
X331036Y140794D01*
X330376Y141175D01*
X329640Y141372D01*
D02*
G37*
G36*
X308140D02*
X307378D01*
X306643Y141175D01*
X305983Y140794D01*
X305444Y140255D01*
X305063Y139595D01*
X304866Y138859D01*
Y138098D01*
X305063Y137362D01*
X305444Y136702D01*
X305983Y136163D01*
X306643Y135782D01*
X307378Y135585D01*
X308140D01*
X308876Y135782D01*
X309536Y136163D01*
X310075Y136702D01*
X310456Y137362D01*
X310653Y138098D01*
Y138859D01*
X310456Y139595D01*
X310075Y140255D01*
X309536Y140794D01*
X308876Y141175D01*
X308140Y141372D01*
D02*
G37*
G36*
X578881Y138894D02*
X578119D01*
X577383Y138697D01*
X576723Y138315D01*
X576185Y137777D01*
X575804Y137117D01*
X575606Y136381D01*
Y135619D01*
X575804Y134883D01*
X576185Y134223D01*
X576723Y133685D01*
X577383Y133303D01*
X578119Y133106D01*
X578881D01*
X579617Y133303D01*
X580277Y133685D01*
X580816Y134223D01*
X581196Y134883D01*
X581394Y135619D01*
Y136381D01*
X581196Y137117D01*
X580816Y137777D01*
X580277Y138315D01*
X579617Y138697D01*
X578881Y138894D01*
D02*
G37*
G36*
X202546Y144048D02*
X201784D01*
X201048Y143851D01*
X200389Y143470D01*
X199850Y142931D01*
X199469Y142271D01*
X199272Y141535D01*
Y140774D01*
X199469Y140038D01*
X199850Y139378D01*
X200389Y138839D01*
X201048Y138458D01*
X201784Y138261D01*
X202495D01*
X202587Y138159D01*
X202685Y137911D01*
X202689Y137782D01*
X202185Y137277D01*
X201803Y136617D01*
X201661Y136086D01*
X201370Y136008D01*
X200710Y135627D01*
X200171Y135088D01*
X199790Y134428D01*
X199593Y133692D01*
Y132930D01*
X199790Y132194D01*
X200171Y131535D01*
X200710Y130996D01*
X201370Y130615D01*
X202105Y130418D01*
X202867D01*
X203603Y130615D01*
X204263Y130996D01*
X204802Y131535D01*
X205183Y132194D01*
X205325Y132725D01*
X205617Y132803D01*
X206277Y133185D01*
X206816Y133723D01*
X207196Y134383D01*
X207256Y134606D01*
X207381D01*
X208117Y134803D01*
X208777Y135185D01*
X209315Y135723D01*
X209697Y136383D01*
X209894Y137119D01*
Y137881D01*
X209697Y138617D01*
X209315Y139277D01*
X208777Y139815D01*
X208117Y140197D01*
X207381Y140394D01*
X206619D01*
X205883Y140197D01*
X205314Y139868D01*
X205002Y140066D01*
X204900Y140182D01*
X205059Y140774D01*
Y141535D01*
X204862Y142271D01*
X204481Y142931D01*
X203942Y143470D01*
X203282Y143851D01*
X202546Y144048D01*
D02*
G37*
G36*
X96881Y134894D02*
X96119D01*
X95383Y134696D01*
X94723Y134316D01*
X94184Y133777D01*
X93804Y133117D01*
X93606Y132381D01*
Y131619D01*
X93804Y130883D01*
X94184Y130223D01*
X94723Y129684D01*
X95383Y129304D01*
X96119Y129106D01*
X96881D01*
X97617Y129304D01*
X98277Y129684D01*
X98816Y130223D01*
X99196Y130883D01*
X99394Y131619D01*
Y132381D01*
X99196Y133117D01*
X98816Y133777D01*
X98277Y134316D01*
X97617Y134696D01*
X96881Y134894D01*
D02*
G37*
G36*
X231850Y132242D02*
X231087D01*
X230352Y132045D01*
X229692Y131664D01*
X229153Y131125D01*
X228772Y130465D01*
X228575Y129729D01*
Y128968D01*
X228772Y128232D01*
X229153Y127572D01*
X229692Y127033D01*
X230352Y126652D01*
X231087Y126455D01*
X231850D01*
X232585Y126652D01*
X233245Y127033D01*
X233784Y127572D01*
X234165Y128232D01*
X234362Y128968D01*
Y129729D01*
X234165Y130465D01*
X233784Y131125D01*
X233245Y131664D01*
X232585Y132045D01*
X231850Y132242D01*
D02*
G37*
G36*
X298891Y136394D02*
X298129D01*
X297393Y136196D01*
X296733Y135816D01*
X296194Y135277D01*
X295813Y134617D01*
X295620Y133894D01*
X295619D01*
X294883Y133696D01*
X294223Y133316D01*
X293685Y132777D01*
X293303Y132117D01*
X293110Y131394D01*
X292619D01*
X291883Y131196D01*
X291223Y130815D01*
X290685Y130277D01*
X290303Y129617D01*
X290106Y128881D01*
Y128119D01*
X290303Y127383D01*
X290685Y126723D01*
X291223Y126184D01*
X291883Y125803D01*
X292619Y125606D01*
X293381D01*
X294117Y125803D01*
X294777Y126184D01*
X295316Y126723D01*
X295696Y127383D01*
X295890Y128106D01*
X296381D01*
X297117Y128304D01*
X297777Y128684D01*
X298316Y129223D01*
X298696Y129883D01*
X298890Y130606D01*
X298891D01*
X299627Y130804D01*
X300287Y131184D01*
X300825Y131723D01*
X301206Y132383D01*
X301404Y133119D01*
Y133881D01*
X301206Y134617D01*
X300825Y135277D01*
X300287Y135816D01*
X299627Y136196D01*
X298891Y136394D01*
D02*
G37*
G36*
X159881Y126394D02*
X159119D01*
X158383Y126197D01*
X157723Y125815D01*
X157185Y125277D01*
X156804Y124617D01*
X156606Y123881D01*
Y123119D01*
X156804Y122383D01*
X157185Y121723D01*
X157723Y121185D01*
X158383Y120803D01*
X159119Y120606D01*
X159881D01*
X160617Y120803D01*
X161277Y121185D01*
X161816Y121723D01*
X162197Y122383D01*
X162394Y123119D01*
Y123881D01*
X162197Y124617D01*
X161816Y125277D01*
X161277Y125815D01*
X160617Y126197D01*
X159881Y126394D01*
D02*
G37*
G36*
X286881Y125894D02*
X286119D01*
X285383Y125697D01*
X284723Y125315D01*
X284185Y124777D01*
X283804Y124117D01*
X283606Y123381D01*
Y122619D01*
X283804Y121883D01*
X284185Y121223D01*
X284723Y120685D01*
X285383Y120303D01*
X286119Y120106D01*
X286881D01*
X287617Y120303D01*
X288277Y120685D01*
X288815Y121223D01*
X289196Y121883D01*
X289394Y122619D01*
Y123381D01*
X289196Y124117D01*
X288815Y124777D01*
X288277Y125315D01*
X287617Y125697D01*
X286881Y125894D01*
D02*
G37*
G36*
X166881Y124894D02*
X166119D01*
X165383Y124697D01*
X164723Y124316D01*
X164184Y123777D01*
X163804Y123117D01*
X163606Y122381D01*
Y121619D01*
X163804Y120883D01*
X164184Y120223D01*
X164723Y119685D01*
X165383Y119304D01*
X166119Y119106D01*
X166881D01*
X167617Y119304D01*
X168277Y119685D01*
X168816Y120223D01*
X169196Y120883D01*
X169394Y121619D01*
Y122381D01*
X169196Y123117D01*
X168816Y123777D01*
X168277Y124316D01*
X167617Y124697D01*
X166881Y124894D01*
D02*
G37*
G36*
X180781Y124594D02*
X180019D01*
X179283Y124397D01*
X178623Y124015D01*
X178085Y123477D01*
X177703Y122817D01*
X177506Y122081D01*
Y121319D01*
X177703Y120583D01*
X178085Y119923D01*
X178623Y119385D01*
X179283Y119003D01*
X180019Y118806D01*
X180781D01*
X181517Y119003D01*
X182177Y119385D01*
X182715Y119923D01*
X183097Y120583D01*
X183294Y121319D01*
Y122081D01*
X183097Y122817D01*
X182715Y123477D01*
X182177Y124015D01*
X181517Y124397D01*
X180781Y124594D01*
D02*
G37*
G36*
X250381Y123894D02*
X249619D01*
X248883Y123696D01*
X248223Y123316D01*
X247685Y122777D01*
X247304Y122117D01*
X247106Y121381D01*
Y120619D01*
X247304Y119883D01*
X247685Y119223D01*
X248223Y118684D01*
X248883Y118304D01*
X249619Y118106D01*
X250381D01*
X251117Y118304D01*
X251777Y118684D01*
X252315Y119223D01*
X252696Y119883D01*
X252894Y120619D01*
Y121381D01*
X252696Y122117D01*
X252315Y122777D01*
X251777Y123316D01*
X251117Y123696D01*
X250381Y123894D01*
D02*
G37*
G36*
X253381Y117894D02*
X252619D01*
X251883Y117696D01*
X251223Y117315D01*
X250684Y116777D01*
X250304Y116117D01*
X250106Y115381D01*
Y114619D01*
X250304Y113883D01*
X250684Y113223D01*
X251223Y112685D01*
X251883Y112303D01*
X252619Y112106D01*
X253381D01*
X254117Y112303D01*
X254777Y112685D01*
X255315Y113223D01*
X255697Y113883D01*
X255894Y114619D01*
Y115381D01*
X255697Y116117D01*
X255315Y116777D01*
X254777Y117315D01*
X254117Y117696D01*
X253381Y117894D01*
D02*
G37*
G36*
X225881Y115394D02*
X225119D01*
X224383Y115197D01*
X223723Y114815D01*
X223184Y114277D01*
X222803Y113617D01*
X222606Y112881D01*
Y112119D01*
X222803Y111383D01*
X223184Y110723D01*
X223723Y110185D01*
X224383Y109803D01*
X225119Y109606D01*
X225881D01*
X226617Y109803D01*
X227277Y110185D01*
X227816Y110723D01*
X228197Y111383D01*
X228394Y112119D01*
Y112881D01*
X228197Y113617D01*
X227816Y114277D01*
X227277Y114815D01*
X226617Y115197D01*
X225881Y115394D01*
D02*
G37*
G36*
X205881D02*
X205119D01*
X204383Y115197D01*
X203723Y114815D01*
X203185Y114277D01*
X202803Y113617D01*
X202606Y112881D01*
Y112119D01*
X202803Y111383D01*
X203185Y110723D01*
X203723Y110185D01*
X204383Y109803D01*
X205119Y109606D01*
X205881D01*
X206617Y109803D01*
X207277Y110185D01*
X207816Y110723D01*
X208196Y111383D01*
X208394Y112119D01*
Y112881D01*
X208196Y113617D01*
X207816Y114277D01*
X207277Y114815D01*
X206617Y115197D01*
X205881Y115394D01*
D02*
G37*
G36*
X253881Y108208D02*
X253119D01*
X252383Y108011D01*
X251792Y107669D01*
X251200Y108011D01*
X250464Y108208D01*
X249703D01*
X248967Y108011D01*
X248307Y107630D01*
X247768Y107091D01*
X247387Y106431D01*
X247190Y105695D01*
Y104933D01*
X247387Y104197D01*
X247768Y103537D01*
X248307Y102999D01*
X248967Y102618D01*
X249703Y102420D01*
X250464D01*
X251200Y102618D01*
X251792Y102959D01*
X252383Y102618D01*
X253119Y102420D01*
X253881D01*
X254617Y102618D01*
X255277Y102999D01*
X255816Y103537D01*
X256196Y104197D01*
X256394Y104933D01*
Y105695D01*
X256196Y106431D01*
X255816Y107091D01*
X255277Y107630D01*
X254617Y108011D01*
X253881Y108208D01*
D02*
G37*
G36*
X330495Y110366D02*
X329733D01*
X328997Y110169D01*
X328337Y109788D01*
X327799Y109249D01*
X327418Y108589D01*
X327221Y107853D01*
Y107091D01*
X327418Y106355D01*
X327799Y105695D01*
X328337Y105157D01*
X328997Y104776D01*
X329733Y104578D01*
X330495D01*
X331231Y104776D01*
X331891Y105157D01*
X332430Y105695D01*
X332811Y106355D01*
X333008Y107091D01*
Y107853D01*
X332811Y108589D01*
X332430Y109249D01*
X331891Y109788D01*
X331231Y110169D01*
X330495Y110366D01*
D02*
G37*
G36*
X241881Y104894D02*
X241119D01*
X240383Y104697D01*
X239750Y104331D01*
X239117Y104697D01*
X238381Y104894D01*
X237619D01*
X236883Y104697D01*
X236250Y104331D01*
X235617Y104697D01*
X234881Y104894D01*
X234119D01*
X233383Y104697D01*
X232750Y104331D01*
X232117Y104697D01*
X231381Y104894D01*
X230619D01*
X229883Y104697D01*
X229223Y104315D01*
X228684Y103777D01*
X228304Y103117D01*
X228106Y102381D01*
Y101619D01*
X228304Y100883D01*
X228684Y100223D01*
X229223Y99685D01*
X229883Y99304D01*
X230619Y99106D01*
X231381D01*
X232117Y99304D01*
X232750Y99669D01*
X233383Y99304D01*
X234119Y99106D01*
X234881D01*
X235617Y99304D01*
X236250Y99669D01*
X236883Y99304D01*
X237619Y99106D01*
X238381D01*
X239117Y99304D01*
X239750Y99669D01*
X240383Y99304D01*
X241119Y99106D01*
X241737D01*
X241914Y99064D01*
X242218Y98679D01*
Y98231D01*
X242415Y97495D01*
X242796Y96835D01*
X243335Y96296D01*
X243995Y95915D01*
X244731Y95718D01*
X245493D01*
X246229Y95915D01*
X246888Y96296D01*
X247427Y96835D01*
X247808Y97495D01*
X248005Y98231D01*
Y98993D01*
X247808Y99729D01*
X247427Y100388D01*
X246888Y100927D01*
X246229Y101308D01*
X245493Y101505D01*
X244875D01*
X244698Y101547D01*
X244394Y101933D01*
Y102381D01*
X244197Y103117D01*
X243815Y103777D01*
X243277Y104315D01*
X242617Y104697D01*
X241881Y104894D01*
D02*
G37*
G36*
X272945Y106471D02*
X272183D01*
X271447Y106274D01*
X270787Y105893D01*
X270249Y105354D01*
X269867Y104694D01*
X269670Y103958D01*
Y103196D01*
X269867Y102460D01*
X270249Y101801D01*
X270787Y101262D01*
X271447Y100881D01*
X272183Y100684D01*
X272945D01*
X273681Y100881D01*
X274341Y101262D01*
X274880Y101801D01*
X275260Y102460D01*
X275458Y103196D01*
Y103958D01*
X275260Y104694D01*
X274880Y105354D01*
X274341Y105893D01*
X273681Y106274D01*
X272945Y106471D01*
D02*
G37*
G36*
X344881Y105894D02*
X344119D01*
X343383Y105696D01*
X342723Y105315D01*
X342184Y104777D01*
X341804Y104117D01*
X341606Y103381D01*
Y102619D01*
X341804Y101883D01*
X342184Y101223D01*
X342723Y100684D01*
X343383Y100303D01*
X344119Y100106D01*
X344881D01*
X345617Y100303D01*
X346277Y100684D01*
X346815Y101223D01*
X347197Y101883D01*
X347394Y102619D01*
Y103381D01*
X347197Y104117D01*
X346815Y104777D01*
X346277Y105315D01*
X345617Y105696D01*
X344881Y105894D01*
D02*
G37*
G36*
X182846Y103740D02*
X182084D01*
X181348Y103543D01*
X180688Y103162D01*
X180149Y102623D01*
X179768Y101963D01*
X179571Y101228D01*
Y100466D01*
X179768Y99730D01*
X180149Y99070D01*
X180688Y98531D01*
X181348Y98150D01*
X182084Y97953D01*
X182846D01*
X183582Y98150D01*
X184241Y98531D01*
X184780Y99070D01*
X185161Y99730D01*
X185358Y100466D01*
Y101228D01*
X185161Y101963D01*
X184780Y102623D01*
X184241Y103162D01*
X183582Y103543D01*
X182846Y103740D01*
D02*
G37*
G36*
X571373Y101610D02*
X570611D01*
X569875Y101413D01*
X569216Y101032D01*
X568677Y100493D01*
X568296Y99833D01*
X568099Y99097D01*
Y98335D01*
X568296Y97600D01*
X568677Y96940D01*
X569216Y96401D01*
X569875Y96020D01*
X570611Y95823D01*
X571373D01*
X572109Y96020D01*
X572769Y96401D01*
X573308Y96940D01*
X573689Y97600D01*
X573886Y98335D01*
Y99097D01*
X573689Y99833D01*
X573308Y100493D01*
X572769Y101032D01*
X572109Y101413D01*
X571373Y101610D01*
D02*
G37*
G36*
X120381Y95894D02*
X119619D01*
X118883Y95697D01*
X118223Y95315D01*
X117684Y94777D01*
X117304Y94117D01*
X117106Y93381D01*
Y92619D01*
X117304Y91883D01*
X117684Y91223D01*
X118223Y90684D01*
X118883Y90303D01*
X119619Y90106D01*
X120381D01*
X121117Y90303D01*
X121777Y90684D01*
X122316Y91223D01*
X122696Y91883D01*
X122894Y92619D01*
Y93381D01*
X122696Y94117D01*
X122316Y94777D01*
X121777Y95315D01*
X121117Y95697D01*
X120381Y95894D01*
D02*
G37*
G36*
X593381Y98894D02*
X592619D01*
X591883Y98697D01*
X591223Y98316D01*
X590685Y97777D01*
X590304Y97117D01*
X590106Y96381D01*
Y95619D01*
X590304Y94883D01*
X590685Y94223D01*
X591223Y93685D01*
X591883Y93304D01*
X592619Y93106D01*
X593141D01*
Y92376D01*
X593338Y91640D01*
X593719Y90980D01*
X594258Y90441D01*
X594917Y90060D01*
X595653Y89863D01*
X596415D01*
X597151Y90060D01*
X597811Y90441D01*
X598350Y90980D01*
X598731Y91640D01*
X598928Y92376D01*
Y93138D01*
X598731Y93874D01*
X598350Y94534D01*
X597811Y95072D01*
X597151Y95453D01*
X596415Y95651D01*
X595894D01*
Y96381D01*
X595696Y97117D01*
X595316Y97777D01*
X594777Y98316D01*
X594117Y98697D01*
X593381Y98894D01*
D02*
G37*
G36*
X154381Y94894D02*
X153619D01*
X152883Y94696D01*
X152223Y94315D01*
X151684Y93777D01*
X151304Y93117D01*
X151106Y92381D01*
Y91619D01*
X151304Y90883D01*
X151684Y90223D01*
X152223Y89684D01*
X152883Y89303D01*
X153619Y89106D01*
X154381D01*
X155117Y89303D01*
X155777Y89684D01*
X156316Y90223D01*
X156696Y90883D01*
X156894Y91619D01*
Y92381D01*
X156696Y93117D01*
X156316Y93777D01*
X155777Y94315D01*
X155117Y94696D01*
X154381Y94894D01*
D02*
G37*
G36*
X551908Y91916D02*
X551146D01*
X550410Y91719D01*
X549750Y91338D01*
X549211Y90799D01*
X548830Y90139D01*
X548633Y89403D01*
Y88641D01*
X548830Y87905D01*
X549211Y87246D01*
X549750Y86707D01*
X550410Y86326D01*
X551146Y86129D01*
X551908D01*
X552644Y86326D01*
X553303Y86707D01*
X553842Y87246D01*
X554223Y87905D01*
X554420Y88641D01*
Y89403D01*
X554223Y90139D01*
X553842Y90799D01*
X553303Y91338D01*
X552644Y91719D01*
X551908Y91916D01*
D02*
G37*
G36*
X210156Y91080D02*
X209395D01*
X208659Y90882D01*
X207999Y90502D01*
X207460Y89963D01*
X207079Y89303D01*
X206882Y88567D01*
Y87805D01*
X207079Y87069D01*
X207460Y86409D01*
X207999Y85870D01*
X208659Y85489D01*
X209395Y85292D01*
X210156D01*
X210892Y85489D01*
X211552Y85870D01*
X212091Y86409D01*
X212401Y86947D01*
X212833Y86941D01*
X212930Y86907D01*
X213025Y86549D01*
X213406Y85889D01*
X213945Y85351D01*
X214605Y84970D01*
X215341Y84772D01*
X216103D01*
X216839Y84970D01*
X216967Y85044D01*
X217383Y84803D01*
X218119Y84606D01*
X218881D01*
X219617Y84803D01*
X220277Y85185D01*
X220815Y85723D01*
X221197Y86383D01*
X221394Y87119D01*
Y87881D01*
X221197Y88617D01*
X220815Y89277D01*
X220277Y89815D01*
X219617Y90197D01*
X218881Y90394D01*
X218119D01*
X217383Y90197D01*
X217255Y90122D01*
X216839Y90363D01*
X216103Y90560D01*
X215341D01*
X214605Y90363D01*
X213945Y89982D01*
X213406Y89443D01*
X213096Y88905D01*
X212664Y88911D01*
X212568Y88945D01*
X212472Y89303D01*
X212091Y89963D01*
X211552Y90502D01*
X210892Y90882D01*
X210156Y91080D01*
D02*
G37*
G36*
X600381Y89894D02*
X599619D01*
X598883Y89697D01*
X598223Y89315D01*
X597684Y88777D01*
X597303Y88117D01*
X597106Y87381D01*
Y86619D01*
X597303Y85883D01*
X597684Y85223D01*
X598223Y84684D01*
X598883Y84303D01*
X599619Y84106D01*
X600381D01*
X601117Y84303D01*
X601777Y84684D01*
X602316Y85223D01*
X602697Y85883D01*
X602894Y86619D01*
Y87381D01*
X602697Y88117D01*
X602316Y88777D01*
X601777Y89315D01*
X601117Y89697D01*
X600381Y89894D01*
D02*
G37*
G36*
X79881Y94394D02*
X79119D01*
X78383Y94196D01*
X77723Y93815D01*
X77184Y93277D01*
X76803Y92617D01*
X76606Y91881D01*
Y91119D01*
X76803Y90383D01*
X77184Y89723D01*
X77723Y89184D01*
X78383Y88803D01*
X79119Y88606D01*
X79307D01*
X79514Y88106D01*
X79185Y87777D01*
X78803Y87117D01*
X78606Y86381D01*
Y85619D01*
X78803Y84883D01*
X79185Y84223D01*
X79723Y83684D01*
X80383Y83303D01*
X81119Y83106D01*
X81881D01*
X82617Y83303D01*
X83277Y83684D01*
X83815Y84223D01*
X84197Y84883D01*
X84394Y85619D01*
Y86381D01*
X84197Y87117D01*
X83815Y87777D01*
X83277Y88315D01*
X82617Y88696D01*
X81881Y88894D01*
X81693D01*
X81486Y89394D01*
X81815Y89723D01*
X82196Y90383D01*
X82394Y91119D01*
Y91881D01*
X82196Y92617D01*
X81815Y93277D01*
X81277Y93815D01*
X80617Y94196D01*
X79881Y94394D01*
D02*
G37*
G36*
X396622Y88523D02*
X395861D01*
X395125Y88326D01*
X394465Y87945D01*
X393926Y87406D01*
X393545Y86747D01*
X393348Y86010D01*
Y85249D01*
X393545Y84513D01*
X393926Y83853D01*
X394465Y83314D01*
X395125Y82933D01*
X395861Y82736D01*
X396622D01*
X397358Y82933D01*
X398018Y83314D01*
X398557Y83853D01*
X398938Y84513D01*
X399135Y85249D01*
Y86010D01*
X398938Y86747D01*
X398557Y87406D01*
X398018Y87945D01*
X397358Y88326D01*
X396622Y88523D01*
D02*
G37*
G36*
X56189Y88120D02*
X55427D01*
X54691Y87923D01*
X54032Y87542D01*
X53493Y87003D01*
X53112Y86343D01*
X52915Y85607D01*
Y84845D01*
X53112Y84109D01*
X53493Y83449D01*
X54032Y82910D01*
X54691Y82529D01*
X55427Y82332D01*
X56189D01*
X56925Y82529D01*
X57585Y82910D01*
X58124Y83449D01*
X58505Y84109D01*
X58702Y84845D01*
Y85607D01*
X58505Y86343D01*
X58124Y87003D01*
X57585Y87542D01*
X56925Y87923D01*
X56189Y88120D01*
D02*
G37*
G36*
X209031Y80458D02*
X208269D01*
X207533Y80261D01*
X206873Y79880D01*
X206646Y79653D01*
X205956Y79636D01*
X205777Y79816D01*
X205117Y80196D01*
X204381Y80394D01*
X203619D01*
X202883Y80196D01*
X202223Y79816D01*
X201684Y79277D01*
X201304Y78617D01*
X201106Y77881D01*
Y77119D01*
X201304Y76383D01*
X201684Y75723D01*
X202223Y75185D01*
X202883Y74804D01*
X203619Y74606D01*
X204381D01*
X205117Y74804D01*
X205777Y75185D01*
X206003Y75411D01*
X206693Y75428D01*
X206873Y75249D01*
X207533Y74868D01*
X208269Y74671D01*
X209031D01*
X209767Y74868D01*
X210426Y75249D01*
X210965Y75788D01*
X211346Y76447D01*
X211543Y77183D01*
Y77945D01*
X211346Y78681D01*
X210965Y79341D01*
X210426Y79880D01*
X209767Y80261D01*
X209031Y80458D01*
D02*
G37*
G36*
X337381Y84894D02*
X336619D01*
X335883Y84697D01*
X335223Y84316D01*
X334684Y83777D01*
X334303Y83117D01*
X334106Y82381D01*
Y81619D01*
X334303Y80883D01*
X334684Y80223D01*
X335223Y79685D01*
X335883Y79303D01*
X336619Y79106D01*
X337381D01*
X338117Y79303D01*
X338777Y79685D01*
X339316Y80223D01*
X339697Y80883D01*
X339894Y81619D01*
Y82381D01*
X339697Y83117D01*
X339316Y83777D01*
X338777Y84316D01*
X338117Y84697D01*
X337381Y84894D01*
D02*
G37*
G36*
X603422Y84144D02*
X602660D01*
X601924Y83947D01*
X601264Y83565D01*
X600726Y83027D01*
X600345Y82367D01*
X600147Y81631D01*
Y80869D01*
X600345Y80133D01*
X600726Y79473D01*
X601264Y78935D01*
X601924Y78553D01*
X602660Y78356D01*
X603422D01*
X604158Y78553D01*
X604818Y78935D01*
X605357Y79473D01*
X605738Y80133D01*
X605935Y80869D01*
Y81631D01*
X605738Y82367D01*
X605357Y83027D01*
X604818Y83565D01*
X604158Y83947D01*
X603422Y84144D01*
D02*
G37*
G36*
X273381Y78894D02*
X272619D01*
X271883Y78697D01*
X271250Y78331D01*
X270617Y78697D01*
X269881Y78894D01*
X269119D01*
X268383Y78697D01*
X267723Y78316D01*
X267184Y77777D01*
X266804Y77117D01*
X266606Y76381D01*
Y75619D01*
X266804Y74883D01*
X267184Y74223D01*
X267723Y73685D01*
X268383Y73304D01*
X269119Y73106D01*
X269881D01*
X270617Y73304D01*
X271250Y73669D01*
X271883Y73304D01*
X272619Y73106D01*
X273381D01*
X274117Y73304D01*
X274777Y73685D01*
X275315Y74223D01*
X275696Y74883D01*
X275894Y75619D01*
Y76381D01*
X275696Y77117D01*
X275315Y77777D01*
X274777Y78316D01*
X274117Y78697D01*
X273381Y78894D01*
D02*
G37*
G36*
X348381Y83394D02*
X347619D01*
X346883Y83197D01*
X346223Y82815D01*
X345685Y82277D01*
X345304Y81617D01*
X345106Y80881D01*
Y80119D01*
X345304Y79383D01*
X345685Y78723D01*
X346223Y78184D01*
X346883Y77803D01*
X347619Y77606D01*
X348381D01*
X349117Y77803D01*
X349777Y78184D01*
X350315Y78723D01*
X350696Y79383D01*
X350894Y80119D01*
Y80881D01*
X350696Y81617D01*
X350315Y82277D01*
X349777Y82815D01*
X349117Y83197D01*
X348381Y83394D01*
D02*
G37*
G36*
X195881Y80894D02*
X195119D01*
X194383Y80696D01*
X193723Y80316D01*
X193184Y79777D01*
X192804Y79117D01*
X192606Y78381D01*
Y77619D01*
X192804Y76883D01*
X193184Y76223D01*
X193723Y75684D01*
X194383Y75304D01*
X195119Y75106D01*
X195881D01*
X196617Y75304D01*
X197277Y75684D01*
X197816Y76223D01*
X198196Y76883D01*
X198394Y77619D01*
Y78381D01*
X198196Y79117D01*
X197816Y79777D01*
X197277Y80316D01*
X196617Y80696D01*
X195881Y80894D01*
D02*
G37*
G36*
X217304Y80624D02*
X216542D01*
X215806Y80427D01*
X215146Y80046D01*
X214608Y79507D01*
X214227Y78848D01*
X214029Y78112D01*
Y77350D01*
X214227Y76614D01*
X214608Y75954D01*
X215146Y75415D01*
X215806Y75034D01*
X216542Y74837D01*
X217304D01*
X218040Y75034D01*
X218700Y75415D01*
X219239Y75954D01*
X219620Y76614D01*
X219817Y77350D01*
Y78112D01*
X219620Y78848D01*
X219239Y79507D01*
X218700Y80046D01*
X218040Y80427D01*
X217304Y80624D01*
D02*
G37*
G36*
X238139Y79813D02*
X237377D01*
X236641Y79615D01*
X235981Y79234D01*
X235442Y78696D01*
X235061Y78036D01*
X234864Y77300D01*
Y76538D01*
X235061Y75802D01*
X235442Y75142D01*
X235981Y74603D01*
X236641Y74222D01*
X237377Y74025D01*
X238139D01*
X238875Y74222D01*
X239535Y74603D01*
X240073Y75142D01*
X240454Y75802D01*
X240652Y76538D01*
Y77300D01*
X240454Y78036D01*
X240073Y78696D01*
X239535Y79234D01*
X238875Y79615D01*
X238139Y79813D01*
D02*
G37*
G36*
X90529Y78803D02*
X89767D01*
X89031Y78606D01*
X88371Y78225D01*
X87832Y77686D01*
X87451Y77026D01*
X87254Y76290D01*
Y75529D01*
X87451Y74792D01*
X87832Y74133D01*
X88371Y73594D01*
X89031Y73213D01*
X89767Y73016D01*
X90529D01*
X91265Y73213D01*
X91924Y73594D01*
X92463Y74133D01*
X92844Y74792D01*
X93041Y75529D01*
Y76290D01*
X92844Y77026D01*
X92463Y77686D01*
X91924Y78225D01*
X91265Y78606D01*
X90529Y78803D01*
D02*
G37*
G36*
X242881Y74394D02*
X242119D01*
X241383Y74196D01*
X240723Y73816D01*
X240184Y73277D01*
X239804Y72617D01*
X239606Y71881D01*
Y71119D01*
X239804Y70383D01*
X240184Y69723D01*
X240723Y69184D01*
X241383Y68804D01*
X242119Y68606D01*
X242881D01*
X243617Y68804D01*
X244277Y69184D01*
X244815Y69723D01*
X245197Y70383D01*
X245394Y71119D01*
Y71881D01*
X245197Y72617D01*
X244815Y73277D01*
X244277Y73816D01*
X243617Y74196D01*
X242881Y74394D01*
D02*
G37*
G36*
X518881Y72394D02*
X518119D01*
X517383Y72197D01*
X516723Y71816D01*
X516185Y71277D01*
X515803Y70617D01*
X515606Y69881D01*
Y69119D01*
X515803Y68383D01*
X516185Y67723D01*
X516723Y67185D01*
X517383Y66803D01*
X518119Y66606D01*
X518881D01*
X519617Y66803D01*
X520277Y67185D01*
X520816Y67723D01*
X521197Y68383D01*
X521394Y69119D01*
Y69881D01*
X521197Y70617D01*
X520816Y71277D01*
X520277Y71816D01*
X519617Y72197D01*
X518881Y72394D01*
D02*
G37*
G36*
X349400Y73676D02*
X348638D01*
X347902Y73479D01*
X347242Y73098D01*
X346704Y72559D01*
X346323Y71899D01*
X346126Y71163D01*
Y70402D01*
X346323Y69666D01*
X346704Y69006D01*
X347211Y68498D01*
X347243Y68444D01*
X347269Y67874D01*
X346927Y67532D01*
X346546Y66872D01*
X346349Y66136D01*
Y65374D01*
X346546Y64638D01*
X346927Y63978D01*
X347465Y63440D01*
X348125Y63059D01*
X348861Y62861D01*
X349623D01*
X350359Y63059D01*
X351019Y63440D01*
X351558Y63978D01*
X351939Y64638D01*
X352136Y65374D01*
Y66136D01*
X351939Y66872D01*
X351558Y67532D01*
X351050Y68040D01*
X351018Y68094D01*
X350992Y68663D01*
X351335Y69006D01*
X351716Y69666D01*
X351913Y70402D01*
Y71163D01*
X351716Y71899D01*
X351335Y72559D01*
X350796Y73098D01*
X350136Y73479D01*
X349400Y73676D01*
D02*
G37*
G36*
X282381Y62394D02*
X281619D01*
X280883Y62196D01*
X280223Y61816D01*
X279684Y61277D01*
X279304Y60617D01*
X279106Y59881D01*
Y59119D01*
X279304Y58383D01*
X279684Y57723D01*
X280223Y57184D01*
X280883Y56804D01*
X281619Y56606D01*
X282381D01*
X283117Y56804D01*
X283777Y57184D01*
X284315Y57723D01*
X284697Y58383D01*
X284894Y59119D01*
Y59881D01*
X284697Y60617D01*
X284315Y61277D01*
X283777Y61816D01*
X283117Y62196D01*
X282381Y62394D01*
D02*
G37*
G36*
X417381Y59394D02*
X416619D01*
X415883Y59197D01*
X415223Y58815D01*
X414684Y58277D01*
X414303Y57617D01*
X414106Y56881D01*
Y56119D01*
X414303Y55383D01*
X414684Y54723D01*
X415223Y54185D01*
X415883Y53803D01*
X416619Y53606D01*
X417381D01*
X418117Y53803D01*
X418777Y54185D01*
X419315Y54723D01*
X419697Y55383D01*
X419894Y56119D01*
Y56881D01*
X419697Y57617D01*
X419315Y58277D01*
X418777Y58815D01*
X418117Y59197D01*
X417381Y59394D01*
D02*
G37*
G36*
X423157Y54617D02*
X422396D01*
X421660Y54420D01*
X421000Y54039D01*
X420461Y53500D01*
X420080Y52841D01*
X419883Y52105D01*
Y51343D01*
X420080Y50607D01*
X420461Y49947D01*
X421000Y49408D01*
X421660Y49027D01*
X422396Y48830D01*
X423157D01*
X423893Y49027D01*
X424553Y49408D01*
X425092Y49947D01*
X425473Y50607D01*
X425670Y51343D01*
Y52105D01*
X425473Y52841D01*
X425092Y53500D01*
X424553Y54039D01*
X423893Y54420D01*
X423157Y54617D01*
D02*
G37*
G36*
X434819Y54458D02*
X434057D01*
X433321Y54261D01*
X432661Y53880D01*
X432123Y53341D01*
X431742Y52682D01*
X431544Y51946D01*
Y51184D01*
X431742Y50448D01*
X432123Y49788D01*
X432661Y49249D01*
X433321Y48868D01*
X434057Y48671D01*
X434819D01*
X435555Y48868D01*
X436215Y49249D01*
X436754Y49788D01*
X437135Y50448D01*
X437332Y51184D01*
Y51946D01*
X437135Y52682D01*
X436754Y53341D01*
X436215Y53880D01*
X435555Y54261D01*
X434819Y54458D01*
D02*
G37*
G36*
X278369Y54406D02*
X277607D01*
X276871Y54208D01*
X276211Y53828D01*
X275673Y53289D01*
X275292Y52629D01*
X275094Y51893D01*
Y51131D01*
X275292Y50395D01*
X275673Y49735D01*
X276211Y49196D01*
X276871Y48815D01*
X277607Y48618D01*
X278369D01*
X279105Y48815D01*
X279765Y49196D01*
X280304Y49735D01*
X280685Y50395D01*
X280882Y51131D01*
Y51893D01*
X280685Y52629D01*
X280304Y53289D01*
X279765Y53828D01*
X279105Y54208D01*
X278369Y54406D01*
D02*
G37*
G36*
X527281Y56794D02*
X526519D01*
X525783Y56596D01*
X525123Y56216D01*
X524584Y55677D01*
X524203Y55017D01*
X524006Y54281D01*
Y53519D01*
X524203Y52783D01*
X524584Y52123D01*
X524598Y52109D01*
X524516Y51485D01*
X524223Y51315D01*
X523685Y50777D01*
X523304Y50117D01*
X523106Y49381D01*
Y48619D01*
X523304Y47883D01*
X523685Y47223D01*
X524223Y46685D01*
X524883Y46303D01*
X525619Y46106D01*
X526381D01*
X527117Y46303D01*
X527777Y46685D01*
X528315Y47223D01*
X528696Y47883D01*
X528894Y48619D01*
Y49381D01*
X528696Y50117D01*
X528315Y50777D01*
X528302Y50791D01*
X528384Y51415D01*
X528677Y51585D01*
X529215Y52123D01*
X529597Y52783D01*
X529794Y53519D01*
Y54281D01*
X529597Y55017D01*
X529215Y55677D01*
X528677Y56216D01*
X528017Y56596D01*
X527281Y56794D01*
D02*
G37*
G36*
X270881Y50894D02*
X270119D01*
X269383Y50696D01*
X268723Y50315D01*
X268184Y49777D01*
X267804Y49117D01*
X267606Y48381D01*
Y47619D01*
X267804Y46883D01*
X268184Y46223D01*
X268723Y45684D01*
X269383Y45303D01*
X270119Y45106D01*
X270881D01*
X271617Y45303D01*
X272277Y45684D01*
X272815Y46223D01*
X273197Y46883D01*
X273394Y47619D01*
Y48381D01*
X273197Y49117D01*
X272815Y49777D01*
X272277Y50315D01*
X271617Y50696D01*
X270881Y50894D01*
D02*
G37*
G36*
X290881Y49394D02*
X290119D01*
X289383Y49196D01*
X288723Y48816D01*
X288184Y48277D01*
X287804Y47617D01*
X287606Y46881D01*
Y46119D01*
X287804Y45383D01*
X288184Y44723D01*
X288723Y44184D01*
X289383Y43804D01*
X290119Y43606D01*
X290881D01*
X291617Y43804D01*
X292277Y44184D01*
X292815Y44723D01*
X293197Y45383D01*
X293394Y46119D01*
Y46881D01*
X293197Y47617D01*
X292815Y48277D01*
X292277Y48816D01*
X291617Y49196D01*
X290881Y49394D01*
D02*
G37*
G36*
X296381Y38894D02*
X295619D01*
X294883Y38697D01*
X294223Y38315D01*
X293685Y37777D01*
X293303Y37117D01*
X293106Y36381D01*
Y35619D01*
X293303Y34883D01*
X293685Y34223D01*
X294223Y33685D01*
X294883Y33303D01*
X295619Y33106D01*
X296381D01*
X297117Y33303D01*
X297777Y33685D01*
X298316Y34223D01*
X298696Y34883D01*
X298894Y35619D01*
Y36381D01*
X298696Y37117D01*
X298316Y37777D01*
X297777Y38315D01*
X297117Y38697D01*
X296381Y38894D01*
D02*
G37*
G36*
X429134Y36460D02*
X428372D01*
X427636Y36263D01*
X426976Y35882D01*
X426437Y35343D01*
X426056Y34683D01*
X425859Y33947D01*
Y33185D01*
X426056Y32449D01*
X426437Y31789D01*
X426976Y31251D01*
X427636Y30870D01*
X428372Y30672D01*
X429134D01*
X429870Y30870D01*
X430530Y31251D01*
X431068Y31789D01*
X431449Y32449D01*
X431646Y33185D01*
Y33947D01*
X431449Y34683D01*
X431068Y35343D01*
X430530Y35882D01*
X429870Y36263D01*
X429134Y36460D01*
D02*
G37*
G36*
X488881Y17894D02*
X488119D01*
X487383Y17696D01*
X486723Y17315D01*
X486500Y17092D01*
X486277Y17315D01*
X485617Y17696D01*
X484881Y17894D01*
X484119D01*
X483383Y17696D01*
X482723Y17315D01*
X482500Y17092D01*
X482277Y17315D01*
X481617Y17696D01*
X480881Y17894D01*
X480119D01*
X479383Y17696D01*
X478723Y17315D01*
X478185Y16777D01*
X477804Y16117D01*
X477606Y15381D01*
Y14619D01*
X477804Y13883D01*
X478185Y13223D01*
X478723Y12685D01*
X479383Y12303D01*
X480119Y12106D01*
X480881D01*
X481617Y12303D01*
X482277Y12685D01*
X482500Y12908D01*
X482723Y12685D01*
X483383Y12303D01*
X484119Y12106D01*
X484881D01*
X485617Y12303D01*
X486277Y12685D01*
X486500Y12908D01*
X486723Y12685D01*
X487383Y12303D01*
X488119Y12106D01*
X488881D01*
X489617Y12303D01*
X490277Y12685D01*
X490815Y13223D01*
X491196Y13883D01*
X491394Y14619D01*
Y15381D01*
X491196Y16117D01*
X490815Y16777D01*
X490277Y17315D01*
X489617Y17696D01*
X488881Y17894D01*
D02*
G37*
G36*
X70381Y15394D02*
X69619D01*
X68883Y15197D01*
X68223Y14816D01*
X67962Y14555D01*
X67625Y14318D01*
X67288Y14555D01*
X67027Y14816D01*
X66367Y15197D01*
X65631Y15394D01*
X64869D01*
X64133Y15197D01*
X63473Y14816D01*
X63212Y14555D01*
X62875Y14318D01*
X62538Y14555D01*
X62277Y14816D01*
X61617Y15197D01*
X60881Y15394D01*
X60119D01*
X59383Y15197D01*
X58723Y14816D01*
X58184Y14277D01*
X57803Y13617D01*
X57606Y12881D01*
Y12119D01*
X57803Y11383D01*
X58184Y10723D01*
X58723Y10185D01*
X59383Y9804D01*
X60119Y9606D01*
X60881D01*
X61617Y9804D01*
X62277Y10185D01*
X62538Y10445D01*
X62875Y10682D01*
X63212Y10445D01*
X63473Y10185D01*
X64133Y9804D01*
X64869Y9606D01*
X65631D01*
X66367Y9804D01*
X67027Y10185D01*
X67288Y10445D01*
X67625Y10682D01*
X67962Y10445D01*
X68223Y10185D01*
X68883Y9804D01*
X69619Y9606D01*
X70381D01*
X71117Y9804D01*
X71777Y10185D01*
X72316Y10723D01*
X72697Y11383D01*
X72894Y12119D01*
Y12881D01*
X72697Y13617D01*
X72316Y14277D01*
X71777Y14816D01*
X71117Y15197D01*
X70381Y15394D01*
D02*
G37*
%LPD*%
D82*
X298657Y269500D02*
D03*
D84*
X85000Y126000D02*
D03*
X121000Y123000D02*
D03*
X278000Y67000D02*
D03*
X267000Y66000D02*
D03*
X173000D02*
D03*
X113000D02*
D03*
X69000D02*
D03*
X46030Y160000D02*
D03*
X285000Y221030D02*
D03*
X270000Y211030D02*
D03*
X265000Y241030D02*
D03*
X270000Y231030D02*
D03*
X219810Y231220D02*
D03*
X253000Y120300D02*
D03*
X252000Y125300D02*
D03*
X249100Y136900D02*
D03*
X253100D02*
D03*
X245400Y101700D02*
D03*
X395064Y61030D02*
D03*
X379681Y51030D02*
D03*
X460586Y231030D02*
D03*
X453586Y213500D02*
D03*
X252800Y58700D02*
D03*
X270000Y51030D02*
D03*
X250000Y71030D02*
D03*
X233000Y88000D02*
D03*
X62000Y122200D02*
D03*
X210063Y178563D02*
D03*
X100000Y191030D02*
D03*
X80000D02*
D03*
X90000D02*
D03*
X625000Y281030D02*
D03*
X620000Y271030D02*
D03*
X625000Y261030D02*
D03*
X620000Y251030D02*
D03*
X625000Y241030D02*
D03*
X620000Y231030D02*
D03*
X625000Y221030D02*
D03*
X620000Y211030D02*
D03*
X625000Y201030D02*
D03*
X620000Y191030D02*
D03*
X625000Y181030D02*
D03*
Y161030D02*
D03*
X620000Y151030D02*
D03*
X625000Y141030D02*
D03*
X620000Y131030D02*
D03*
X625000Y121030D02*
D03*
X620000Y111030D02*
D03*
X625000Y101030D02*
D03*
X620000Y91030D02*
D03*
X625000Y81030D02*
D03*
X620000Y71030D02*
D03*
X625000Y61030D02*
D03*
X620000Y51030D02*
D03*
X625000Y41030D02*
D03*
X620000Y31030D02*
D03*
X625000Y21030D02*
D03*
X620000Y11030D02*
D03*
X615000Y281030D02*
D03*
X610000Y271030D02*
D03*
Y111030D02*
D03*
X615000Y101030D02*
D03*
X610000Y91030D02*
D03*
X615000Y81030D02*
D03*
X610000Y71030D02*
D03*
X615000Y61030D02*
D03*
X610000Y51030D02*
D03*
X615000Y21030D02*
D03*
X600000Y271030D02*
D03*
Y231030D02*
D03*
X605000Y221030D02*
D03*
X600000Y211030D02*
D03*
Y51030D02*
D03*
X595000Y221030D02*
D03*
X590000Y151030D02*
D03*
X595000Y141030D02*
D03*
X590000Y31030D02*
D03*
X585000Y281030D02*
D03*
X580000Y271030D02*
D03*
X585000Y261030D02*
D03*
Y161030D02*
D03*
Y141030D02*
D03*
Y41030D02*
D03*
X580000Y11030D02*
D03*
X575000Y281030D02*
D03*
X570000Y271030D02*
D03*
X575000Y261030D02*
D03*
X570000Y251030D02*
D03*
Y191030D02*
D03*
X575000Y181030D02*
D03*
Y161030D02*
D03*
X570000Y131030D02*
D03*
X575000Y121030D02*
D03*
X570000Y111030D02*
D03*
X575000Y101030D02*
D03*
X570000Y91030D02*
D03*
X575000Y61030D02*
D03*
Y41030D02*
D03*
X570000Y31030D02*
D03*
X575000Y21030D02*
D03*
X570000Y11030D02*
D03*
X565000Y281030D02*
D03*
X560000Y271030D02*
D03*
X565000Y261030D02*
D03*
X560000Y251030D02*
D03*
Y231030D02*
D03*
X565000Y201030D02*
D03*
X560000Y191030D02*
D03*
X565000Y181030D02*
D03*
Y161030D02*
D03*
X560000Y131030D02*
D03*
X565000Y121030D02*
D03*
X560000Y111030D02*
D03*
X565000Y101030D02*
D03*
X560000Y31030D02*
D03*
X565000Y21030D02*
D03*
X555000Y281030D02*
D03*
X550000Y271030D02*
D03*
X555000Y261030D02*
D03*
Y241030D02*
D03*
X550000Y231030D02*
D03*
X555000Y201030D02*
D03*
Y161030D02*
D03*
X550000Y131030D02*
D03*
X555000Y121030D02*
D03*
X550000Y111030D02*
D03*
X555000Y101030D02*
D03*
X550000Y31030D02*
D03*
X555000Y21030D02*
D03*
X545000Y281030D02*
D03*
X540000Y271030D02*
D03*
X545000Y261030D02*
D03*
X540000Y251030D02*
D03*
Y231030D02*
D03*
X545000Y221030D02*
D03*
X540000Y171030D02*
D03*
Y131030D02*
D03*
X545000Y121030D02*
D03*
X540000Y111030D02*
D03*
X545000Y101030D02*
D03*
X540000Y71030D02*
D03*
X545000Y41030D02*
D03*
X540000Y31030D02*
D03*
X545000Y21030D02*
D03*
X535000Y281030D02*
D03*
X530000Y271030D02*
D03*
X535000Y261030D02*
D03*
X530000Y251030D02*
D03*
X535000Y241030D02*
D03*
X530000Y231030D02*
D03*
X535000Y221030D02*
D03*
Y161030D02*
D03*
X530000Y131030D02*
D03*
X535000Y121030D02*
D03*
X530000Y111030D02*
D03*
X535000Y101030D02*
D03*
Y81030D02*
D03*
X530000Y31030D02*
D03*
X535000Y21030D02*
D03*
X525000Y281030D02*
D03*
X520000Y271030D02*
D03*
X525000Y261030D02*
D03*
X520000Y251030D02*
D03*
X525000Y241030D02*
D03*
X520000Y231030D02*
D03*
X525000Y221030D02*
D03*
X520000Y211030D02*
D03*
X525000Y201030D02*
D03*
X520000Y151030D02*
D03*
Y131030D02*
D03*
X525000Y121030D02*
D03*
X520000Y111030D02*
D03*
X525000Y101030D02*
D03*
Y21030D02*
D03*
X515000Y281030D02*
D03*
X510000Y271030D02*
D03*
X515000Y261030D02*
D03*
X510000Y251030D02*
D03*
X515000Y241030D02*
D03*
X510000Y231030D02*
D03*
X515000Y221030D02*
D03*
Y201030D02*
D03*
X510000Y191030D02*
D03*
X515000Y161030D02*
D03*
X510000Y151030D02*
D03*
Y131030D02*
D03*
X515000Y121030D02*
D03*
X510000Y111030D02*
D03*
X515000Y101030D02*
D03*
X510000Y91030D02*
D03*
Y51030D02*
D03*
X515000Y41030D02*
D03*
X510000Y31030D02*
D03*
X505000Y281030D02*
D03*
X500000Y271030D02*
D03*
X505000Y261030D02*
D03*
X500000Y251030D02*
D03*
X505000Y241030D02*
D03*
X500000Y231030D02*
D03*
X505000Y221030D02*
D03*
X500000Y211030D02*
D03*
X505000Y201030D02*
D03*
X500000Y191030D02*
D03*
Y151030D02*
D03*
Y131030D02*
D03*
X505000Y121030D02*
D03*
X500000Y111030D02*
D03*
X505000Y101030D02*
D03*
X500000Y91030D02*
D03*
Y51030D02*
D03*
X505000Y41030D02*
D03*
X500000Y31030D02*
D03*
X495000Y281030D02*
D03*
X490000Y271030D02*
D03*
X495000Y261030D02*
D03*
X490000Y251030D02*
D03*
X495000Y241030D02*
D03*
X490000Y231030D02*
D03*
X495000Y221030D02*
D03*
X490000Y211030D02*
D03*
X495000Y201030D02*
D03*
X490000Y151030D02*
D03*
Y131030D02*
D03*
X495000Y121030D02*
D03*
X490000Y111030D02*
D03*
Y91030D02*
D03*
X495000Y81030D02*
D03*
X490000Y71030D02*
D03*
X495000Y61030D02*
D03*
X490000Y51030D02*
D03*
X495000Y41030D02*
D03*
X490000Y31030D02*
D03*
X495000Y21030D02*
D03*
X485000Y281030D02*
D03*
X480000Y271030D02*
D03*
X485000Y261030D02*
D03*
X480000Y251030D02*
D03*
X485000Y241030D02*
D03*
X480000Y231030D02*
D03*
X485000Y221030D02*
D03*
X480000Y211030D02*
D03*
X485000Y201030D02*
D03*
X480000Y191030D02*
D03*
Y151030D02*
D03*
Y131030D02*
D03*
X485000Y121030D02*
D03*
X480000Y111030D02*
D03*
X485000Y101030D02*
D03*
X480000Y91030D02*
D03*
X485000Y81030D02*
D03*
X480000Y71030D02*
D03*
X485000Y61030D02*
D03*
X480000Y51030D02*
D03*
X485000Y41030D02*
D03*
X480000Y31030D02*
D03*
X485000Y21030D02*
D03*
X475000Y281030D02*
D03*
X470000Y271030D02*
D03*
X475000Y261030D02*
D03*
X470000Y251030D02*
D03*
X475000Y241030D02*
D03*
X470000Y231030D02*
D03*
X475000Y221030D02*
D03*
X470000Y211030D02*
D03*
X475000Y201030D02*
D03*
X470000Y191030D02*
D03*
X475000Y161030D02*
D03*
X470000Y151030D02*
D03*
X475000Y121030D02*
D03*
X470000Y111030D02*
D03*
X475000Y101030D02*
D03*
X470000Y91030D02*
D03*
X475000Y81030D02*
D03*
X470000Y71030D02*
D03*
X475000Y61030D02*
D03*
X470000Y51030D02*
D03*
X465000Y281030D02*
D03*
X460000Y271030D02*
D03*
X465000Y241030D02*
D03*
Y221030D02*
D03*
X460000Y171030D02*
D03*
X465000Y161030D02*
D03*
X460000Y131030D02*
D03*
X465000Y121030D02*
D03*
X460000Y111030D02*
D03*
X465000Y101030D02*
D03*
X460000Y91030D02*
D03*
X465000Y81030D02*
D03*
X460000Y71030D02*
D03*
X465000Y61030D02*
D03*
X460000Y51030D02*
D03*
X465000Y21030D02*
D03*
X455000Y281030D02*
D03*
X450000Y271030D02*
D03*
X455000Y261030D02*
D03*
X450000Y171030D02*
D03*
X455000Y161030D02*
D03*
X450000Y131030D02*
D03*
Y111030D02*
D03*
X455000Y101030D02*
D03*
X450000Y91030D02*
D03*
X455000Y81030D02*
D03*
X450000Y71030D02*
D03*
X455000Y61030D02*
D03*
X445000Y281030D02*
D03*
X440000Y271030D02*
D03*
X445000Y261030D02*
D03*
X440000Y231030D02*
D03*
Y171030D02*
D03*
X445000Y161030D02*
D03*
X440000Y151030D02*
D03*
X445000Y141030D02*
D03*
X440000Y111030D02*
D03*
X445000Y101030D02*
D03*
X440000Y91030D02*
D03*
X445000Y81030D02*
D03*
X440000Y71030D02*
D03*
X445000Y61030D02*
D03*
X440000Y51030D02*
D03*
Y31030D02*
D03*
X445000Y21030D02*
D03*
X435000Y281030D02*
D03*
X430000Y271030D02*
D03*
X435000Y261030D02*
D03*
Y141030D02*
D03*
X430000Y111030D02*
D03*
X435000Y101030D02*
D03*
Y81030D02*
D03*
Y61030D02*
D03*
X430000Y31030D02*
D03*
X435000Y21030D02*
D03*
X425000Y281030D02*
D03*
X420000Y271030D02*
D03*
Y231030D02*
D03*
Y211030D02*
D03*
X425000Y161030D02*
D03*
Y141030D02*
D03*
X420000Y111030D02*
D03*
X425000Y101030D02*
D03*
X420000Y91030D02*
D03*
X425000Y81030D02*
D03*
X420000Y71030D02*
D03*
Y51030D02*
D03*
Y31030D02*
D03*
X425000Y21030D02*
D03*
X415000Y281030D02*
D03*
X410000Y271030D02*
D03*
X415000Y261030D02*
D03*
X410000Y211030D02*
D03*
Y171030D02*
D03*
Y151030D02*
D03*
X415000Y141030D02*
D03*
Y101030D02*
D03*
Y61030D02*
D03*
X410000Y51030D02*
D03*
Y31030D02*
D03*
X415000Y21030D02*
D03*
X405000Y281030D02*
D03*
X400000Y271030D02*
D03*
X405000Y261030D02*
D03*
Y161030D02*
D03*
X400000Y151030D02*
D03*
X405000Y141030D02*
D03*
X400000Y111030D02*
D03*
Y91030D02*
D03*
X405000Y81030D02*
D03*
X400000Y31030D02*
D03*
X405000Y21030D02*
D03*
X395000Y281030D02*
D03*
X390000Y271030D02*
D03*
X395000Y261030D02*
D03*
X390000Y231030D02*
D03*
X395000Y161030D02*
D03*
X390000Y151030D02*
D03*
X395000Y141030D02*
D03*
X390000Y111030D02*
D03*
X395000Y81030D02*
D03*
X390000Y31030D02*
D03*
X395000Y21030D02*
D03*
X385000Y281030D02*
D03*
X380000Y231030D02*
D03*
X385000Y221030D02*
D03*
X380000Y191030D02*
D03*
Y171030D02*
D03*
X385000Y161030D02*
D03*
X380000Y151030D02*
D03*
X385000Y141030D02*
D03*
X380000Y111030D02*
D03*
Y31030D02*
D03*
X385000Y21030D02*
D03*
X375000Y281030D02*
D03*
X370000Y271030D02*
D03*
X375000Y261030D02*
D03*
Y221030D02*
D03*
X370000Y211030D02*
D03*
Y171030D02*
D03*
X375000Y141030D02*
D03*
X370000Y111030D02*
D03*
Y91030D02*
D03*
Y71030D02*
D03*
Y51030D02*
D03*
X375000Y41030D02*
D03*
X370000Y31030D02*
D03*
X365000Y281030D02*
D03*
X360000Y271030D02*
D03*
Y251030D02*
D03*
X365000Y241030D02*
D03*
Y221030D02*
D03*
X360000Y171030D02*
D03*
Y151030D02*
D03*
X365000Y81030D02*
D03*
X360000Y51030D02*
D03*
Y31030D02*
D03*
X365000Y21030D02*
D03*
X355000Y281030D02*
D03*
Y261030D02*
D03*
Y241030D02*
D03*
X350000Y151030D02*
D03*
Y111030D02*
D03*
Y51030D02*
D03*
X355000Y41030D02*
D03*
X350000Y31030D02*
D03*
X355000Y21030D02*
D03*
X345000Y281030D02*
D03*
Y141030D02*
D03*
Y81030D02*
D03*
X340000Y51030D02*
D03*
X345000Y41030D02*
D03*
Y21030D02*
D03*
X335000Y281030D02*
D03*
Y141030D02*
D03*
X330000Y111030D02*
D03*
X335000Y41030D02*
D03*
X330000Y31030D02*
D03*
X320000Y111030D02*
D03*
X325000Y101030D02*
D03*
Y81030D02*
D03*
X320000Y51030D02*
D03*
X325000Y21030D02*
D03*
X320000Y11030D02*
D03*
X310000Y231030D02*
D03*
Y171030D02*
D03*
Y111030D02*
D03*
X315000Y101030D02*
D03*
Y81030D02*
D03*
X310000Y51030D02*
D03*
X315000Y21030D02*
D03*
X310000Y11030D02*
D03*
X305000Y281030D02*
D03*
Y261030D02*
D03*
X300000Y251030D02*
D03*
X305000Y201030D02*
D03*
X300000Y191030D02*
D03*
X305000Y141030D02*
D03*
X300000Y111030D02*
D03*
X305000Y101030D02*
D03*
Y81030D02*
D03*
Y41030D02*
D03*
X300000Y31030D02*
D03*
X305000Y21030D02*
D03*
X300000Y11030D02*
D03*
X295000Y281030D02*
D03*
Y261030D02*
D03*
X290000Y251030D02*
D03*
Y231030D02*
D03*
X295000Y201030D02*
D03*
X290000Y191030D02*
D03*
X295000Y181030D02*
D03*
X290000Y111030D02*
D03*
X295000Y101030D02*
D03*
Y81030D02*
D03*
X290000Y31030D02*
D03*
X295000Y21030D02*
D03*
X290000Y11030D02*
D03*
X285000Y281030D02*
D03*
X280000Y271030D02*
D03*
X285000Y261030D02*
D03*
X280000Y251030D02*
D03*
X285000Y241030D02*
D03*
X280000Y231030D02*
D03*
Y171030D02*
D03*
Y151030D02*
D03*
X285000Y81030D02*
D03*
X280000Y31030D02*
D03*
X285000Y21030D02*
D03*
X280000Y11030D02*
D03*
X275000Y281030D02*
D03*
X270000Y271030D02*
D03*
X275000Y261030D02*
D03*
X270000Y251030D02*
D03*
X275000Y241030D02*
D03*
Y201030D02*
D03*
X270000Y171030D02*
D03*
X275000Y161030D02*
D03*
Y101030D02*
D03*
Y81030D02*
D03*
Y41030D02*
D03*
X270000Y31030D02*
D03*
X275000Y21030D02*
D03*
X270000Y11030D02*
D03*
X265000Y281030D02*
D03*
Y261030D02*
D03*
X260000Y251030D02*
D03*
X265000Y201030D02*
D03*
X260000Y151030D02*
D03*
Y51030D02*
D03*
X265000Y41030D02*
D03*
X260000Y31030D02*
D03*
X265000Y21030D02*
D03*
X260000Y11030D02*
D03*
X255000Y281030D02*
D03*
X250000Y271030D02*
D03*
X255000Y201030D02*
D03*
X250000Y171030D02*
D03*
X255000Y161030D02*
D03*
X250000Y31030D02*
D03*
X255000Y21030D02*
D03*
X250000Y11030D02*
D03*
X245000Y281030D02*
D03*
X240000Y271030D02*
D03*
X245000Y261030D02*
D03*
X240000Y231030D02*
D03*
X245000Y201030D02*
D03*
X240000Y171030D02*
D03*
Y31030D02*
D03*
X245000Y21030D02*
D03*
X240000Y11030D02*
D03*
X235000Y281030D02*
D03*
X230000Y271030D02*
D03*
X235000Y261030D02*
D03*
Y241030D02*
D03*
X230000Y231030D02*
D03*
X235000Y221030D02*
D03*
X230000Y211030D02*
D03*
Y191030D02*
D03*
X235000Y41030D02*
D03*
X230000Y31030D02*
D03*
X235000Y21030D02*
D03*
X230000Y11030D02*
D03*
X225000Y281030D02*
D03*
X220000Y271030D02*
D03*
X225000Y261030D02*
D03*
Y221030D02*
D03*
Y201030D02*
D03*
X220000Y131030D02*
D03*
X225000Y61030D02*
D03*
Y41030D02*
D03*
X220000Y31030D02*
D03*
X225000Y21030D02*
D03*
X220000Y11030D02*
D03*
X215000Y281030D02*
D03*
Y261030D02*
D03*
Y241030D02*
D03*
X210000Y231030D02*
D03*
X215000Y201030D02*
D03*
X210000Y131030D02*
D03*
Y71030D02*
D03*
X215000Y41030D02*
D03*
X210000Y31030D02*
D03*
X215000Y21030D02*
D03*
X210000Y11030D02*
D03*
X205000Y281030D02*
D03*
X200000Y271030D02*
D03*
X205000Y261030D02*
D03*
Y241030D02*
D03*
X200000Y231030D02*
D03*
X205000Y221030D02*
D03*
Y201030D02*
D03*
Y61030D02*
D03*
Y41030D02*
D03*
X200000Y31030D02*
D03*
X205000Y21030D02*
D03*
X200000Y11030D02*
D03*
X195000Y281030D02*
D03*
Y261030D02*
D03*
Y241030D02*
D03*
X190000Y91030D02*
D03*
X195000Y61030D02*
D03*
Y41030D02*
D03*
X190000Y31030D02*
D03*
X195000Y21030D02*
D03*
X190000Y11030D02*
D03*
X185000Y281030D02*
D03*
Y261030D02*
D03*
X180000Y231030D02*
D03*
Y191030D02*
D03*
Y171030D02*
D03*
X185000Y61030D02*
D03*
Y41030D02*
D03*
X180000Y31030D02*
D03*
X185000Y21030D02*
D03*
X180000Y11030D02*
D03*
X175000Y281030D02*
D03*
Y261030D02*
D03*
Y241030D02*
D03*
Y221030D02*
D03*
Y201030D02*
D03*
Y181030D02*
D03*
Y161030D02*
D03*
X170000Y91030D02*
D03*
X175000Y81030D02*
D03*
Y41030D02*
D03*
X170000Y31030D02*
D03*
X175000Y21030D02*
D03*
X170000Y11030D02*
D03*
X165000Y281030D02*
D03*
X160000Y271030D02*
D03*
X165000Y241030D02*
D03*
X160000Y211030D02*
D03*
X165000Y201030D02*
D03*
X160000Y191030D02*
D03*
X165000Y181030D02*
D03*
X160000Y171030D02*
D03*
X165000Y161030D02*
D03*
Y141030D02*
D03*
X160000Y131030D02*
D03*
X165000Y101030D02*
D03*
X160000Y91030D02*
D03*
X165000Y81030D02*
D03*
Y41030D02*
D03*
X160000Y31030D02*
D03*
X165000Y21030D02*
D03*
X160000Y11030D02*
D03*
X155000Y281030D02*
D03*
X150000Y271030D02*
D03*
X155000Y261030D02*
D03*
Y241030D02*
D03*
Y221030D02*
D03*
X150000Y131030D02*
D03*
X155000Y121030D02*
D03*
X150000Y91030D02*
D03*
X155000Y81030D02*
D03*
Y41030D02*
D03*
X150000Y31030D02*
D03*
X155000Y21030D02*
D03*
X150000Y11030D02*
D03*
X145000Y281030D02*
D03*
X140000Y271030D02*
D03*
X145000Y241030D02*
D03*
Y161030D02*
D03*
X140000Y151030D02*
D03*
X145000Y141030D02*
D03*
X140000Y131030D02*
D03*
X145000Y121030D02*
D03*
X140000Y91030D02*
D03*
X145000Y81030D02*
D03*
X140000Y51030D02*
D03*
X145000Y41030D02*
D03*
Y21030D02*
D03*
X140000Y11030D02*
D03*
X135000Y281030D02*
D03*
X130000Y271030D02*
D03*
X135000Y241030D02*
D03*
Y221030D02*
D03*
X130000Y211030D02*
D03*
X135000Y201030D02*
D03*
X130000Y191030D02*
D03*
X135000Y181030D02*
D03*
X130000Y151030D02*
D03*
X135000Y141030D02*
D03*
X130000Y131030D02*
D03*
X135000Y121030D02*
D03*
X130000Y111030D02*
D03*
X135000Y101030D02*
D03*
X130000Y91030D02*
D03*
X135000Y81030D02*
D03*
Y41030D02*
D03*
X130000Y31030D02*
D03*
X135000Y21030D02*
D03*
X130000Y11030D02*
D03*
X125000Y281030D02*
D03*
X120000Y271030D02*
D03*
X125000Y221030D02*
D03*
Y201030D02*
D03*
Y181030D02*
D03*
X120000Y171030D02*
D03*
X125000Y161030D02*
D03*
X120000Y151030D02*
D03*
X125000Y141030D02*
D03*
X120000Y111030D02*
D03*
X125000Y101030D02*
D03*
Y81030D02*
D03*
X120000Y31030D02*
D03*
X125000Y21030D02*
D03*
X120000Y11030D02*
D03*
X115000Y281030D02*
D03*
X110000Y271030D02*
D03*
X115000Y221030D02*
D03*
Y201030D02*
D03*
X110000Y171030D02*
D03*
X115000Y161030D02*
D03*
X110000Y151030D02*
D03*
X115000Y141030D02*
D03*
X110000Y131030D02*
D03*
Y111030D02*
D03*
Y91030D02*
D03*
X115000Y81030D02*
D03*
X110000Y31030D02*
D03*
X115000Y21030D02*
D03*
X110000Y11030D02*
D03*
X105000Y281030D02*
D03*
X100000Y271030D02*
D03*
X105000Y261030D02*
D03*
Y221030D02*
D03*
Y201030D02*
D03*
Y181030D02*
D03*
X100000Y171030D02*
D03*
X105000Y161030D02*
D03*
Y141030D02*
D03*
X100000Y131030D02*
D03*
X105000Y101030D02*
D03*
X100000Y31030D02*
D03*
X105000Y21030D02*
D03*
X100000Y11030D02*
D03*
X95000Y281030D02*
D03*
X90000Y271030D02*
D03*
X95000Y261030D02*
D03*
Y221030D02*
D03*
Y201030D02*
D03*
Y181030D02*
D03*
X90000Y171030D02*
D03*
X95000Y161030D02*
D03*
X90000Y111030D02*
D03*
X95000Y101030D02*
D03*
X90000Y11030D02*
D03*
X85000Y281030D02*
D03*
X80000Y271030D02*
D03*
X85000Y261030D02*
D03*
Y241030D02*
D03*
Y201030D02*
D03*
Y181030D02*
D03*
Y161030D02*
D03*
X80000Y151030D02*
D03*
X85000Y141030D02*
D03*
X80000Y111030D02*
D03*
Y51030D02*
D03*
X75000Y281030D02*
D03*
X70000Y271030D02*
D03*
X75000Y261030D02*
D03*
X70000Y211030D02*
D03*
X75000Y201030D02*
D03*
X70000Y191030D02*
D03*
X75000Y181030D02*
D03*
X70000Y171030D02*
D03*
X75000Y161030D02*
D03*
X70000Y151030D02*
D03*
X75000Y141030D02*
D03*
X70000Y51030D02*
D03*
Y31030D02*
D03*
X75000Y21030D02*
D03*
X65000Y281030D02*
D03*
X60000Y271030D02*
D03*
X65000Y261030D02*
D03*
X60000Y211030D02*
D03*
X65000Y181030D02*
D03*
X60000Y171030D02*
D03*
X65000Y161030D02*
D03*
Y141030D02*
D03*
X60000Y111030D02*
D03*
Y91030D02*
D03*
Y51030D02*
D03*
X65000Y41030D02*
D03*
X60000Y31030D02*
D03*
X65000Y21030D02*
D03*
X55000Y281030D02*
D03*
X50000Y271030D02*
D03*
X55000Y261030D02*
D03*
Y101030D02*
D03*
Y41030D02*
D03*
X50000Y31030D02*
D03*
X55000Y21030D02*
D03*
X45000Y281030D02*
D03*
X40000Y271030D02*
D03*
X45000Y261030D02*
D03*
X40000Y151030D02*
D03*
X45000Y141030D02*
D03*
X40000Y131030D02*
D03*
X30000Y271030D02*
D03*
X35000Y261030D02*
D03*
Y241030D02*
D03*
X30000Y231030D02*
D03*
Y211030D02*
D03*
X35000Y201030D02*
D03*
X30000Y191030D02*
D03*
Y151030D02*
D03*
X35000Y141030D02*
D03*
X30000Y131030D02*
D03*
X35000Y121030D02*
D03*
X30000Y111030D02*
D03*
X35000Y101030D02*
D03*
X30000Y91030D02*
D03*
X35000Y81030D02*
D03*
X30000Y71030D02*
D03*
X35000Y61030D02*
D03*
X30000Y51030D02*
D03*
X20000Y271030D02*
D03*
X25000Y261030D02*
D03*
Y241030D02*
D03*
X20000Y231030D02*
D03*
X25000Y221030D02*
D03*
X20000Y211030D02*
D03*
X25000Y201030D02*
D03*
X20000Y191030D02*
D03*
X25000Y181030D02*
D03*
X20000Y151030D02*
D03*
X25000Y141030D02*
D03*
X20000Y131030D02*
D03*
X25000Y121030D02*
D03*
X20000Y111030D02*
D03*
X25000Y101030D02*
D03*
X20000Y91030D02*
D03*
X25000Y81030D02*
D03*
X20000Y71030D02*
D03*
X25000Y61030D02*
D03*
X20000Y51030D02*
D03*
X15000Y281030D02*
D03*
X10000Y271030D02*
D03*
X15000Y261030D02*
D03*
X10000Y251030D02*
D03*
X15000Y221030D02*
D03*
Y201030D02*
D03*
Y181030D02*
D03*
Y141030D02*
D03*
Y121030D02*
D03*
Y101030D02*
D03*
Y81030D02*
D03*
Y61030D02*
D03*
Y21030D02*
D03*
X10000Y11030D02*
D03*
X535000Y146000D02*
D03*
X52000Y243500D02*
D03*
X429000Y194312D02*
D03*
X422500D02*
D03*
X379000Y90000D02*
D03*
X381000Y94500D02*
D03*
X395500D02*
D03*
X176000Y108000D02*
D03*
X191500Y109000D02*
D03*
X221500Y88000D02*
D03*
X273500Y146500D02*
D03*
X207900Y187800D02*
D03*
X273000Y95000D02*
D03*
X453500Y224500D02*
D03*
Y232500D02*
D03*
Y236500D02*
D03*
X60500Y243500D02*
D03*
X70500D02*
D03*
X56250D02*
D03*
X382000Y68000D02*
D03*
X387500Y65000D02*
D03*
Y61000D02*
D03*
Y50500D02*
D03*
X560500Y51500D02*
D03*
X571500D02*
D03*
X575500D02*
D03*
X553000Y172000D02*
D03*
X563000Y173000D02*
D03*
X567000D02*
D03*
X571000D02*
D03*
X575000D02*
D03*
D86*
X262814Y100838D02*
D03*
Y145145D02*
D03*
X205854Y158814D02*
D03*
X192186Y101854D02*
D03*
X240772Y87686D02*
D03*
M02*
