G04*
G04 #@! TF.GenerationSoftware,Altium Limited,Altium Designer,20.1.11 (218)*
G04*
G04 Layer_Color=16711935*
%FSAX25Y25*%
%MOIN*%
G70*
G04*
G04 #@! TF.SameCoordinates,36D762F2-7D11-4B17-9C95-3B267CE7B041*
G04*
G04*
G04 #@! TF.FilePolarity,Negative*
G04*
G01*
G75*
%ADD21R,0.04343X0.05524*%
%ADD22R,0.06233X0.04422*%
%ADD24R,0.04422X0.06233*%
%ADD25C,0.16548*%
%ADD26C,0.09855*%
D21*
X0352096Y-0349783D02*
D03*
X0357904D02*
D03*
X0352096Y-0360216D02*
D03*
X0357904D02*
D03*
X0245430Y-0349783D02*
D03*
X0251237D02*
D03*
X0245430Y-0360216D02*
D03*
X0251237D02*
D03*
X0138763Y-0349783D02*
D03*
X0144570D02*
D03*
X0138763Y-0360216D02*
D03*
X0144570D02*
D03*
X0283596Y-0287784D02*
D03*
X0289404D02*
D03*
X0283596Y-0298217D02*
D03*
X0289404D02*
D03*
X0032096Y-0349783D02*
D03*
X0037903D02*
D03*
X0032096Y-0360216D02*
D03*
X0037903D02*
D03*
X0227430Y-0242753D02*
D03*
X0233237D02*
D03*
X0227430Y-0253186D02*
D03*
X0233237D02*
D03*
X0138763Y-0242753D02*
D03*
X0144570D02*
D03*
X0138763Y-0253186D02*
D03*
X0144570D02*
D03*
X0032096Y-0243117D02*
D03*
X0037903D02*
D03*
X0032096Y-0253550D02*
D03*
X0037903D02*
D03*
X0283097Y-0087783D02*
D03*
X0288903D02*
D03*
X0283097Y-0098216D02*
D03*
X0288903D02*
D03*
X0227430Y-0136450D02*
D03*
X0233237D02*
D03*
X0227430Y-0146883D02*
D03*
X0233237D02*
D03*
X0138763Y-0136450D02*
D03*
X0144570D02*
D03*
X0138763Y-0146883D02*
D03*
X0144570D02*
D03*
X0032096Y-0136450D02*
D03*
X0037903D02*
D03*
X0032096Y-0146883D02*
D03*
X0037903D02*
D03*
X0352097Y-0029783D02*
D03*
X0357904D02*
D03*
X0352097Y-0040217D02*
D03*
X0357904D02*
D03*
X0245430Y-0029783D02*
D03*
X0251237D02*
D03*
X0245430Y-0040217D02*
D03*
X0251237D02*
D03*
X0138763Y-0029783D02*
D03*
X0144570D02*
D03*
X0138763Y-0040217D02*
D03*
X0144570D02*
D03*
X0032096Y-0029783D02*
D03*
X0037903D02*
D03*
X0032096Y-0040217D02*
D03*
X0037903D02*
D03*
D22*
X0271096Y-0287784D02*
D03*
Y-0295303D02*
D03*
X0301904Y-0290480D02*
D03*
Y-0298000D02*
D03*
X0245737Y-0245450D02*
D03*
Y-0252969D02*
D03*
X0157070Y-0139147D02*
D03*
Y-0146667D02*
D03*
X0245737Y-0139147D02*
D03*
Y-0146667D02*
D03*
X0214930Y-0136450D02*
D03*
Y-0143970D02*
D03*
X0126263Y-0136450D02*
D03*
Y-0143970D02*
D03*
X0232930Y-0029783D02*
D03*
Y-0037303D02*
D03*
X0263737Y-0032480D02*
D03*
Y-0040000D02*
D03*
X0370404Y-0032480D02*
D03*
Y-0040000D02*
D03*
X0339596Y-0029783D02*
D03*
Y-0037303D02*
D03*
X0019596Y-0029783D02*
D03*
Y-0037303D02*
D03*
X0050403Y-0032480D02*
D03*
Y-0040000D02*
D03*
X0126263Y-0029783D02*
D03*
Y-0037303D02*
D03*
X0157070Y-0032480D02*
D03*
Y-0040000D02*
D03*
X0019596Y-0136450D02*
D03*
Y-0143970D02*
D03*
X0050403Y-0139147D02*
D03*
Y-0146667D02*
D03*
X0157070Y-0245450D02*
D03*
Y-0252969D02*
D03*
X0126263Y-0242753D02*
D03*
Y-0250272D02*
D03*
X0214930Y-0242753D02*
D03*
Y-0250272D02*
D03*
X0339596Y-0349783D02*
D03*
Y-0357303D02*
D03*
X0370404Y-0352480D02*
D03*
Y-0360000D02*
D03*
X0301403Y-0090480D02*
D03*
Y-0098000D02*
D03*
X0270596Y-0087783D02*
D03*
Y-0095303D02*
D03*
X0126263Y-0349783D02*
D03*
Y-0357303D02*
D03*
X0263737Y-0352480D02*
D03*
Y-0360000D02*
D03*
X0232930Y-0349783D02*
D03*
Y-0357303D02*
D03*
X0157070Y-0352480D02*
D03*
Y-0360000D02*
D03*
X0019596Y-0243117D02*
D03*
Y-0250637D02*
D03*
X0050403Y-0245814D02*
D03*
Y-0253333D02*
D03*
Y-0360000D02*
D03*
Y-0352480D02*
D03*
X0019596Y-0357303D02*
D03*
Y-0349783D02*
D03*
D24*
X0350384Y-0019284D02*
D03*
X0357904D02*
D03*
X0243717D02*
D03*
X0251237D02*
D03*
X0137050D02*
D03*
X0144570D02*
D03*
X0030384D02*
D03*
X0037903D02*
D03*
X0233237Y-0123950D02*
D03*
X0225717D02*
D03*
X0144570D02*
D03*
X0137050D02*
D03*
X0037903D02*
D03*
X0030384D02*
D03*
X0144570Y-0230253D02*
D03*
X0137050D02*
D03*
X0233237D02*
D03*
X0225717D02*
D03*
X0357904Y-0337283D02*
D03*
X0350384D02*
D03*
X0288903Y-0075283D02*
D03*
X0281384D02*
D03*
X0289404Y-0275284D02*
D03*
X0281884D02*
D03*
X0251237Y-0337283D02*
D03*
X0243717D02*
D03*
X0144570D02*
D03*
X0137050D02*
D03*
X0037903Y-0230617D02*
D03*
X0030384D02*
D03*
Y-0337283D02*
D03*
X0037903D02*
D03*
D25*
X0340000Y-0095000D02*
D03*
Y-0295000D02*
D03*
D26*
X0367500Y-0269843D02*
D03*
Y-0250157D02*
D03*
Y-0219055D02*
D03*
Y-0199370D02*
D03*
Y-0160000D02*
D03*
Y-0179685D02*
D03*
M02*
