G04*
G04 #@! TF.GenerationSoftware,Altium Limited,Altium Designer,20.1.12 (249)*
G04*
G04 Layer_Color=128*
%FSAX25Y25*%
%MOIN*%
G70*
G04*
G04 #@! TF.SameCoordinates,CE78A03B-694A-4DC8-B1AE-BFA5CE161D15*
G04*
G04*
G04 #@! TF.FilePolarity,Positive*
G04*
G01*
G75*
G04:AMPARAMS|DCode=20|XSize=41.34mil|YSize=59.06mil|CornerRadius=4.13mil|HoleSize=0mil|Usage=FLASHONLY|Rotation=0.000|XOffset=0mil|YOffset=0mil|HoleType=Round|Shape=RoundedRectangle|*
%AMROUNDEDRECTD20*
21,1,0.04134,0.05079,0,0,0.0*
21,1,0.03307,0.05906,0,0,0.0*
1,1,0.00827,0.01654,-0.02539*
1,1,0.00827,-0.01654,-0.02539*
1,1,0.00827,-0.01654,0.02539*
1,1,0.00827,0.01654,0.02539*
%
%ADD20ROUNDEDRECTD20*%
G04:AMPARAMS|DCode=21|XSize=41.34mil|YSize=59.06mil|CornerRadius=4.13mil|HoleSize=0mil|Usage=FLASHONLY|Rotation=270.000|XOffset=0mil|YOffset=0mil|HoleType=Round|Shape=RoundedRectangle|*
%AMROUNDEDRECTD21*
21,1,0.04134,0.05079,0,0,270.0*
21,1,0.03307,0.05906,0,0,270.0*
1,1,0.00827,-0.02539,-0.01654*
1,1,0.00827,-0.02539,0.01654*
1,1,0.00827,0.02539,0.01654*
1,1,0.00827,0.02539,-0.01654*
%
%ADD21ROUNDEDRECTD21*%
G04:AMPARAMS|DCode=25|XSize=39.37mil|YSize=66.93mil|CornerRadius=3.94mil|HoleSize=0mil|Usage=FLASHONLY|Rotation=0.000|XOffset=0mil|YOffset=0mil|HoleType=Round|Shape=RoundedRectangle|*
%AMROUNDEDRECTD25*
21,1,0.03937,0.05906,0,0,0.0*
21,1,0.03150,0.06693,0,0,0.0*
1,1,0.00787,0.01575,-0.02953*
1,1,0.00787,-0.01575,-0.02953*
1,1,0.00787,-0.01575,0.02953*
1,1,0.00787,0.01575,0.02953*
%
%ADD25ROUNDEDRECTD25*%
D20*
X0357904Y-0337283D02*
D03*
X0350384D02*
D03*
X0251237D02*
D03*
X0243717D02*
D03*
X0144570D02*
D03*
X0137050D02*
D03*
X0289404Y-0275284D02*
D03*
X0281884D02*
D03*
X0037903Y-0337283D02*
D03*
X0030384D02*
D03*
X0233237Y-0230253D02*
D03*
X0225717D02*
D03*
X0144570D02*
D03*
X0137050D02*
D03*
X0037903Y-0230617D02*
D03*
X0030384D02*
D03*
X0288903Y-0075283D02*
D03*
X0281384D02*
D03*
X0233237Y-0123950D02*
D03*
X0225717D02*
D03*
X0144570D02*
D03*
X0137050D02*
D03*
X0037903D02*
D03*
X0030384D02*
D03*
X0357904Y-0019284D02*
D03*
X0350384D02*
D03*
X0251237D02*
D03*
X0243717D02*
D03*
X0144570D02*
D03*
X0137050D02*
D03*
X0037903D02*
D03*
X0030384D02*
D03*
D21*
X0370404Y-0352480D02*
D03*
Y-0360000D02*
D03*
X0263737Y-0352480D02*
D03*
Y-0360000D02*
D03*
X0339596Y-0349783D02*
D03*
Y-0357303D02*
D03*
X0232930Y-0349783D02*
D03*
Y-0357303D02*
D03*
X0157070Y-0352480D02*
D03*
Y-0360000D02*
D03*
X0301904Y-0290480D02*
D03*
Y-0298000D02*
D03*
X0126263Y-0349783D02*
D03*
Y-0357303D02*
D03*
X0271096Y-0287784D02*
D03*
Y-0295303D02*
D03*
X0050403Y-0352480D02*
D03*
Y-0360000D02*
D03*
X0245737Y-0245450D02*
D03*
Y-0252969D02*
D03*
X0157070Y-0245450D02*
D03*
Y-0252969D02*
D03*
X0019596Y-0349783D02*
D03*
Y-0357303D02*
D03*
X0214930Y-0242753D02*
D03*
Y-0250272D02*
D03*
X0126263Y-0242753D02*
D03*
Y-0250272D02*
D03*
X0050403Y-0245814D02*
D03*
Y-0253333D02*
D03*
X0301403Y-0090480D02*
D03*
Y-0098000D02*
D03*
X0245737Y-0139147D02*
D03*
Y-0146667D02*
D03*
X0019596Y-0243117D02*
D03*
Y-0250637D02*
D03*
X0270596Y-0087783D02*
D03*
Y-0095303D02*
D03*
X0214930Y-0136450D02*
D03*
Y-0143970D02*
D03*
X0157070Y-0139147D02*
D03*
Y-0146667D02*
D03*
X0050403Y-0139147D02*
D03*
Y-0146667D02*
D03*
X0370404Y-0032480D02*
D03*
Y-0040000D02*
D03*
X0126263Y-0136450D02*
D03*
Y-0143970D02*
D03*
X0019596Y-0136450D02*
D03*
Y-0143970D02*
D03*
X0339596Y-0029783D02*
D03*
Y-0037303D02*
D03*
X0263737Y-0032480D02*
D03*
Y-0040000D02*
D03*
X0157070Y-0032480D02*
D03*
Y-0040000D02*
D03*
X0050403Y-0032480D02*
D03*
Y-0040000D02*
D03*
X0232930Y-0029783D02*
D03*
Y-0037303D02*
D03*
X0126263Y-0029783D02*
D03*
Y-0037303D02*
D03*
X0019596Y-0029783D02*
D03*
Y-0037303D02*
D03*
D25*
X0352047Y-0349095D02*
D03*
X0357953D02*
D03*
Y-0360906D02*
D03*
X0352047D02*
D03*
X0245381Y-0349095D02*
D03*
X0251286D02*
D03*
Y-0360906D02*
D03*
X0245381D02*
D03*
X0138714Y-0349095D02*
D03*
X0144619D02*
D03*
Y-0360906D02*
D03*
X0138714D02*
D03*
X0283547Y-0287094D02*
D03*
X0289453D02*
D03*
Y-0298905D02*
D03*
X0283547D02*
D03*
X0032047Y-0349095D02*
D03*
X0037953D02*
D03*
Y-0360906D02*
D03*
X0032047D02*
D03*
X0227381Y-0242064D02*
D03*
X0233286D02*
D03*
Y-0253875D02*
D03*
X0227381D02*
D03*
X0138714Y-0242064D02*
D03*
X0144619D02*
D03*
Y-0253875D02*
D03*
X0138714D02*
D03*
X0032047Y-0242428D02*
D03*
X0037953D02*
D03*
Y-0254239D02*
D03*
X0032047D02*
D03*
X0283047Y-0087094D02*
D03*
X0288953D02*
D03*
Y-0098905D02*
D03*
X0283047D02*
D03*
X0227381Y-0135761D02*
D03*
X0233286D02*
D03*
Y-0147572D02*
D03*
X0227381D02*
D03*
X0138714Y-0135761D02*
D03*
X0144619D02*
D03*
Y-0147572D02*
D03*
X0138714D02*
D03*
X0032047Y-0135761D02*
D03*
X0037953D02*
D03*
Y-0147572D02*
D03*
X0032047D02*
D03*
X0352047Y-0029094D02*
D03*
X0357953D02*
D03*
Y-0040905D02*
D03*
X0352047D02*
D03*
X0245381Y-0029094D02*
D03*
X0251286D02*
D03*
Y-0040905D02*
D03*
X0245381D02*
D03*
X0138714Y-0029094D02*
D03*
X0144619D02*
D03*
Y-0040905D02*
D03*
X0138714D02*
D03*
X0032047Y-0029094D02*
D03*
X0037953D02*
D03*
Y-0040905D02*
D03*
X0032047D02*
D03*
M02*
