G04*
G04 #@! TF.GenerationSoftware,Altium Limited,Altium Designer,20.1.12 (249)*
G04*
G04 Layer_Color=8421504*
%FSAX25Y25*%
%MOIN*%
G70*
G04*
G04 #@! TF.SameCoordinates,CE78A03B-694A-4DC8-B1AE-BFA5CE161D15*
G04*
G04*
G04 #@! TF.FilePolarity,Positive*
G04*
G01*
G75*
%ADD16R,0.08000X0.04500*%
%ADD17R,0.04764X0.07165*%
%ADD18R,0.05118X0.07087*%
%ADD19R,0.05906X0.11811*%
G04:AMPARAMS|DCode=20|XSize=41.34mil|YSize=59.06mil|CornerRadius=4.13mil|HoleSize=0mil|Usage=FLASHONLY|Rotation=0.000|XOffset=0mil|YOffset=0mil|HoleType=Round|Shape=RoundedRectangle|*
%AMROUNDEDRECTD20*
21,1,0.04134,0.05079,0,0,0.0*
21,1,0.03307,0.05906,0,0,0.0*
1,1,0.00827,0.01654,-0.02539*
1,1,0.00827,-0.01654,-0.02539*
1,1,0.00827,-0.01654,0.02539*
1,1,0.00827,0.01654,0.02539*
%
%ADD20ROUNDEDRECTD20*%
G04:AMPARAMS|DCode=21|XSize=41.34mil|YSize=59.06mil|CornerRadius=4.13mil|HoleSize=0mil|Usage=FLASHONLY|Rotation=270.000|XOffset=0mil|YOffset=0mil|HoleType=Round|Shape=RoundedRectangle|*
%AMROUNDEDRECTD21*
21,1,0.04134,0.05079,0,0,270.0*
21,1,0.03307,0.05906,0,0,270.0*
1,1,0.00827,-0.02539,-0.01654*
1,1,0.00827,-0.02539,0.01654*
1,1,0.00827,0.02539,0.01654*
1,1,0.00827,0.02539,-0.01654*
%
%ADD21ROUNDEDRECTD21*%
%ADD22R,0.03937X0.03543*%
%ADD23R,0.03937X0.03543*%
G04:AMPARAMS|DCode=24|XSize=39.37mil|YSize=59.06mil|CornerRadius=3.94mil|HoleSize=0mil|Usage=FLASHONLY|Rotation=180.000|XOffset=0mil|YOffset=0mil|HoleType=Round|Shape=RoundedRectangle|*
%AMROUNDEDRECTD24*
21,1,0.03937,0.05118,0,0,180.0*
21,1,0.03150,0.05906,0,0,180.0*
1,1,0.00787,-0.01575,0.02559*
1,1,0.00787,0.01575,0.02559*
1,1,0.00787,0.01575,-0.02559*
1,1,0.00787,-0.01575,-0.02559*
%
%ADD24ROUNDEDRECTD24*%
G04:AMPARAMS|DCode=25|XSize=39.37mil|YSize=66.93mil|CornerRadius=3.94mil|HoleSize=0mil|Usage=FLASHONLY|Rotation=0.000|XOffset=0mil|YOffset=0mil|HoleType=Round|Shape=RoundedRectangle|*
%AMROUNDEDRECTD25*
21,1,0.03937,0.05906,0,0,0.0*
21,1,0.03150,0.06693,0,0,0.0*
1,1,0.00787,0.01575,-0.02953*
1,1,0.00787,-0.01575,-0.02953*
1,1,0.00787,-0.01575,0.02953*
1,1,0.00787,0.01575,0.02953*
%
%ADD25ROUNDEDRECTD25*%
D16*
X0370000Y-0300250D02*
D03*
Y-0289750D02*
D03*
D17*
X0361791Y-0125000D02*
D03*
X0373209D02*
D03*
D18*
X0361988Y-0112500D02*
D03*
X0373012D02*
D03*
D19*
X0361102Y-0067500D02*
D03*
X0373898D02*
D03*
X0361102Y-0085000D02*
D03*
X0373898D02*
D03*
D20*
X0352096Y-0337283D02*
D03*
X0359616D02*
D03*
X0245430D02*
D03*
X0252949D02*
D03*
X0138763D02*
D03*
X0146283D02*
D03*
X0032096D02*
D03*
X0039616D02*
D03*
X0283096Y-0275284D02*
D03*
X0290616D02*
D03*
X0227430Y-0230617D02*
D03*
X0234949D02*
D03*
X0138763D02*
D03*
X0146283D02*
D03*
X0032096D02*
D03*
X0039616D02*
D03*
X0283096Y-0075283D02*
D03*
X0290616D02*
D03*
X0227430Y-0123950D02*
D03*
X0234949D02*
D03*
X0138763D02*
D03*
X0146283D02*
D03*
X0032096D02*
D03*
X0039616D02*
D03*
X0352096Y-0020500D02*
D03*
X0359616D02*
D03*
X0245430Y-0019783D02*
D03*
X0252950D02*
D03*
X0138763D02*
D03*
X0146283D02*
D03*
X0032096D02*
D03*
X0039616D02*
D03*
D21*
X0338000Y-0352697D02*
D03*
Y-0360216D02*
D03*
X0231333Y-0352697D02*
D03*
Y-0360216D02*
D03*
X0370404Y-0349783D02*
D03*
Y-0357303D02*
D03*
X0263737Y-0349783D02*
D03*
Y-0357303D02*
D03*
X0124667Y-0352697D02*
D03*
Y-0360216D02*
D03*
X0018000Y-0352697D02*
D03*
Y-0360216D02*
D03*
X0157070Y-0349783D02*
D03*
Y-0357303D02*
D03*
X0050404D02*
D03*
Y-0349783D02*
D03*
X0269000Y-0290697D02*
D03*
Y-0298217D02*
D03*
X0213333Y-0246030D02*
D03*
Y-0253550D02*
D03*
X0124667Y-0246030D02*
D03*
Y-0253550D02*
D03*
X0301404Y-0287784D02*
D03*
Y-0295303D02*
D03*
X0245737Y-0243117D02*
D03*
Y-0250637D02*
D03*
X0157070Y-0243117D02*
D03*
Y-0250637D02*
D03*
X0018000Y-0246030D02*
D03*
Y-0253550D02*
D03*
X0269000Y-0090697D02*
D03*
Y-0098216D02*
D03*
X0213333Y-0146883D02*
D03*
Y-0139364D02*
D03*
X0050404Y-0250637D02*
D03*
Y-0243117D02*
D03*
X0301404Y-0095303D02*
D03*
Y-0087783D02*
D03*
X0245737Y-0143970D02*
D03*
Y-0136450D02*
D03*
X0124667Y-0139364D02*
D03*
Y-0146883D02*
D03*
X0018000Y-0139364D02*
D03*
Y-0146883D02*
D03*
X0338000Y-0035197D02*
D03*
Y-0042717D02*
D03*
X0157070Y-0136450D02*
D03*
Y-0143970D02*
D03*
X0050404Y-0136450D02*
D03*
Y-0143970D02*
D03*
X0370404Y-0032283D02*
D03*
Y-0039803D02*
D03*
X0231333Y-0035197D02*
D03*
Y-0042717D02*
D03*
X0124667Y-0035197D02*
D03*
Y-0042717D02*
D03*
X0018000Y-0035197D02*
D03*
Y-0042717D02*
D03*
X0263737Y-0032283D02*
D03*
Y-0039803D02*
D03*
X0157070Y-0032283D02*
D03*
Y-0039803D02*
D03*
X0050404Y-0032283D02*
D03*
Y-0039803D02*
D03*
D22*
X0319500Y-0216039D02*
D03*
Y-0180854D02*
D03*
Y-0145669D02*
D03*
D23*
Y-0222339D02*
D03*
Y-0187153D02*
D03*
Y-0151969D02*
D03*
D24*
X0299328Y-0224307D02*
D03*
X0295588Y-0216433D02*
D03*
X0303068D02*
D03*
X0299328Y-0189122D02*
D03*
X0295588Y-0181248D02*
D03*
X0303068D02*
D03*
X0299328Y-0153937D02*
D03*
X0295588Y-0146063D02*
D03*
X0303068D02*
D03*
D25*
X0357953Y-0349095D02*
D03*
X0352047D02*
D03*
Y-0360906D02*
D03*
X0357953D02*
D03*
X0251286Y-0349095D02*
D03*
X0245380D02*
D03*
Y-0360906D02*
D03*
X0251286D02*
D03*
X0144619Y-0349095D02*
D03*
X0138714D02*
D03*
Y-0360906D02*
D03*
X0144619D02*
D03*
X0037953Y-0349095D02*
D03*
X0032047D02*
D03*
Y-0360906D02*
D03*
X0037953D02*
D03*
X0288953Y-0287094D02*
D03*
X0283047D02*
D03*
Y-0298905D02*
D03*
X0288953D02*
D03*
X0233286Y-0242428D02*
D03*
X0227380D02*
D03*
Y-0254239D02*
D03*
X0233286D02*
D03*
X0144619Y-0242428D02*
D03*
X0138714D02*
D03*
Y-0254239D02*
D03*
X0144619D02*
D03*
X0037953Y-0242428D02*
D03*
X0032047D02*
D03*
Y-0254239D02*
D03*
X0037953D02*
D03*
X0288953Y-0087094D02*
D03*
X0283047D02*
D03*
Y-0098905D02*
D03*
X0288953D02*
D03*
X0233286Y-0135761D02*
D03*
X0227381D02*
D03*
Y-0147572D02*
D03*
X0233286D02*
D03*
X0144619Y-0135761D02*
D03*
X0138714D02*
D03*
Y-0147572D02*
D03*
X0144619D02*
D03*
X0037953Y-0135761D02*
D03*
X0032047D02*
D03*
Y-0147572D02*
D03*
X0037953D02*
D03*
X0357953Y-0031594D02*
D03*
X0352047D02*
D03*
Y-0043406D02*
D03*
X0357953D02*
D03*
X0251286Y-0031594D02*
D03*
X0245381D02*
D03*
Y-0043406D02*
D03*
X0251286D02*
D03*
X0144619Y-0031594D02*
D03*
X0138714D02*
D03*
Y-0043406D02*
D03*
X0144619D02*
D03*
X0037953Y-0031594D02*
D03*
X0032047D02*
D03*
Y-0043406D02*
D03*
X0037953D02*
D03*
M02*
