M48
;Layer_Color=9474304
;FILE_FORMAT=2:5
INCH
;TYPE=PLATED
T1F00S00C0.02800
;TYPE=NON_PLATED
T2F00S00C0.11811
%
T01
X0040000Y0021000
X0042100Y0033700
X0050000Y0041000
X0070000
X0090000
X0110000
X0120000Y0021000
X0100000
X0080000
X0060000
X0070000Y0081000
X0090000
X0110000
X0130000
X0128000Y0057000
X0138000Y0062500
X0140000Y0101000
X0100000
X0080000
X0060000
X0050000Y0081000
X0030000
X0020000Y0101000
X0023500Y0056416
X0013622Y0056378
X0155700Y0033700
X0170000Y0041000
X0190000
X0210000
Y0081000
X0190000
X0170000
X0250000
X0252100Y0062500
X0242131Y0056958
X0240000Y0101000
X0260000
X0270600Y0033700
X0347500Y0054800
X0366192Y0056279
X0383400Y0037300
X0378600Y0010700
X0360000Y0101000
X0340000
X0330000Y0121000
X0340000Y0141000
X0347500Y0151500
X0330000Y0161000
X0340000Y0181000
X0360000
X0366500Y0171000
X0370000Y0201000
X0360000Y0221000
X0340000
X0320000
X0330000Y0241000
X0340000Y0261000
X0347500Y0266000
X0320000Y0261000
X0384600Y0265679
Y0151505
X0320000Y0141000
Y0181000
X0330000Y0201000
X0310000
X0290000
X0300000Y0221000
X0310000Y0241000
X0290000
X0300000Y0261000
X0280000
X0269321Y0265679
X0220000Y0261000
X0242131Y0175846
X0252131Y0171081
X0260000Y0181000
X0280000
X0300000
X0310000Y0161000
X0290000
X0269497Y0151503
X0280000Y0141000
X0300000
X0310000Y0121000
X0290000
X0210000
X0190000
X0170000
X0180000Y0141000
X0200000
X0220000
X0210000Y0161000
X0190000
X0170000
X0156200Y0151700
X0138000Y0171124
X0140000Y0181000
X0128000Y0176000
X0100000Y0181000
X0080000
X0060000
X0070000Y0201000
X0090000
X0110000
Y0241000
X0090000
X0070000
X0050000
X0060000Y0261000
X0080000
X0100000
X0080000Y0221000
X0060000
X0050000Y0201000
X0030000
X0020000Y0221000
Y0181000
X0024084Y0171124
X0014084
X0050000Y0161000
X0042800Y0151200
X0060000Y0141000
X0080000
X0100000
X0110000Y0161000
X0090000
X0070000
Y0121000
X0090000
X0110000
X0050000
X0043060Y0265561
X0155800Y0265800
X0137958Y0285254
X0127957
X0110000Y0281000
X0090000
X0070000
X0050000
X0060000Y0301000
X0080000
X0100000
X0140000
Y0341000
X0100000
X0080000
X0060000
X0070000Y0361000
X0090000
X0110000
X0128000Y0385600
X0137900Y0385500
X0148000
X0033800Y0385600
X0023600
X0013600
X0020000Y0341000
X0030000Y0321000
X0050000
X0070000
X0050000Y0361000
X0020000Y0301000
X0023600Y0286000
X0013600Y0285900
X0170000Y0281000
X0190000
X0210000
X0220000Y0301000
X0240000
X0242131Y0285254
X0252131
X0260000Y0301000
X0280000
X0300000
X0310000Y0321000
X0300000Y0341000
X0280000
X0260000
X0240000
X0220000
X0200000
X0180000
X0190000Y0361000
X0210000
X0170000
X0180000Y0301000
X0200000
X0290000Y0281000
X0310000
Y0361000
X0290000
X0262226Y0385500
X0252173
X0242173
X0330000Y0361000
X0340000Y0341000
X0360000
X0320000
X0330000Y0321000
X0340000Y0301000
X0320000
X0330000Y0281000
X0366000Y0284500
Y0385500
X0376000
X0356000
T02
X0366142Y0078740
X0365666Y0309842
M30
