G04*
G04 #@! TF.GenerationSoftware,Altium Limited,Altium Designer,24.5.2 (23)*
G04*
G04 Layer_Color=16711935*
%FSLAX25Y25*%
%MOIN*%
G70*
G04*
G04 #@! TF.SameCoordinates,31380466-C734-4E74-93B1-4E6A1FEF37DE*
G04*
G04*
G04 #@! TF.FilePolarity,Negative*
G04*
G01*
G75*
%ADD39C,0.10800*%
%ADD40C,0.08674*%
%ADD41C,0.14816*%
%ADD42C,0.06942*%
D39*
X51000Y102000D02*
D03*
X102500Y122500D02*
D03*
X160000Y43100D02*
D03*
X32500Y47500D02*
D03*
D40*
X52157Y126000D02*
D03*
X62000D02*
D03*
X71842D02*
D03*
D41*
X148138Y21213D02*
D03*
X44674D02*
D03*
D42*
X70579Y8220D02*
D03*
X63178D02*
D03*
X70579Y18221D02*
D03*
X63178D02*
D03*
X70579Y28220D02*
D03*
X63178D02*
D03*
X129634Y8220D02*
D03*
X122233D02*
D03*
X129634Y18221D02*
D03*
X122233D02*
D03*
X129634Y28220D02*
D03*
X122233D02*
D03*
X109949Y8220D02*
D03*
X102548D02*
D03*
X109949Y18221D02*
D03*
X102548D02*
D03*
X109949Y28220D02*
D03*
X102548D02*
D03*
X90264Y8220D02*
D03*
X82863D02*
D03*
X90264Y18221D02*
D03*
X82863D02*
D03*
X90264Y28220D02*
D03*
X82863D02*
D03*
M02*
