G04*
G04 #@! TF.GenerationSoftware,Altium Limited,Altium Designer,24.5.2 (23)*
G04*
G04 Layer_Physical_Order=3*
G04 Layer_Color=16440176*
%FSLAX25Y25*%
%MOIN*%
G70*
G04*
G04 #@! TF.SameCoordinates,31380466-C734-4E74-93B1-4E6A1FEF37DE*
G04*
G04*
G04 #@! TF.FilePolarity,Positive*
G04*
G01*
G75*
%ADD45C,0.10000*%
%ADD46C,0.07874*%
%ADD47C,0.14016*%
%ADD48C,0.06142*%
%ADD49C,0.05000*%
%ADD50C,0.02400*%
%ADD51C,0.02800*%
G36*
X197199Y139761D02*
X197199Y139761D01*
X197200Y139761D01*
X197413D01*
X197831Y139678D01*
X198225Y139515D01*
X198579Y139278D01*
X198880Y138977D01*
X199117Y138622D01*
X199280Y138228D01*
X199363Y137811D01*
Y137600D01*
X199260Y39030D01*
X199261Y39029D01*
X199260Y39028D01*
Y38858D01*
X199194Y38525D01*
X199064Y38211D01*
X198875Y37928D01*
X198635Y37688D01*
X198353Y37499D01*
X198039Y37369D01*
X197706Y37303D01*
X197536D01*
X197531Y37302D01*
X197526Y37303D01*
X164690Y37139D01*
X164645Y37130D01*
X164600Y37137D01*
X164208Y37117D01*
X164061Y37081D01*
X163910D01*
X163141Y36928D01*
X162955Y36851D01*
X162759Y36812D01*
X162034Y36512D01*
X161867Y36400D01*
X161681Y36323D01*
X161030Y35888D01*
X160888Y35745D01*
X160721Y35634D01*
X160166Y35080D01*
X160055Y34912D01*
X159913Y34770D01*
X159477Y34119D01*
X159400Y33933D01*
X159288Y33766D01*
X158988Y33042D01*
X158949Y32844D01*
X158872Y32659D01*
X158719Y31890D01*
Y31739D01*
X158683Y31592D01*
X158663Y31200D01*
X158671Y31150D01*
X158661Y31100D01*
Y1407D01*
X158586Y1028D01*
X158438Y671D01*
X158223Y350D01*
X157950Y77D01*
X157629Y-138D01*
X157272Y-286D01*
X156893Y-361D01*
X156700D01*
X156699Y-361D01*
X156698Y-361D01*
X35840Y-457D01*
X35674D01*
X35345Y-391D01*
X35035Y-263D01*
X34756Y-76D01*
X34519Y161D01*
X34333Y440D01*
X34205Y750D01*
X34139Y1079D01*
Y31049D01*
X34137Y31061D01*
X34161Y31225D01*
X34142Y31617D01*
X34105Y31763D01*
Y31914D01*
X33952Y32683D01*
X33875Y32869D01*
X33836Y33066D01*
X33536Y33790D01*
X33424Y33957D01*
X33347Y34143D01*
X32912Y34795D01*
X32770Y34937D01*
X32658Y35104D01*
X32104Y35658D01*
X31937Y35770D01*
X31795Y35912D01*
X31143Y36347D01*
X30957Y36424D01*
X30790Y36536D01*
X30066Y36836D01*
X29869Y36875D01*
X29683Y36952D01*
X28914Y37105D01*
X28763D01*
X28616Y37142D01*
X28225Y37161D01*
X28174Y37154D01*
X28124Y37163D01*
X26031D01*
X25653Y37239D01*
X25296Y37387D01*
X24974Y37601D01*
X24701Y37874D01*
X24487Y38195D01*
X24339Y38552D01*
X24264Y38931D01*
Y39124D01*
X24264Y39125D01*
X24264Y39125D01*
X24239Y137700D01*
Y137913D01*
X24322Y138331D01*
X24485Y138725D01*
X24722Y139079D01*
X25023Y139380D01*
X25378Y139617D01*
X25771Y139780D01*
X26189Y139863D01*
X26401D01*
X197199Y139761D01*
D02*
G37*
%LPC*%
G36*
X62000Y130576D02*
X60816Y130420D01*
X59712Y129963D01*
X58764Y129236D01*
X58037Y128288D01*
X57580Y127184D01*
X57424Y126000D01*
X57580Y124816D01*
X58037Y123712D01*
X58764Y122764D01*
X59712Y122037D01*
X60816Y121580D01*
X62000Y121424D01*
X63184Y121580D01*
X64288Y122037D01*
X65236Y122764D01*
X65963Y123712D01*
X66420Y124816D01*
X66576Y126000D01*
X66420Y127184D01*
X65963Y128288D01*
X65236Y129236D01*
X64288Y129963D01*
X63184Y130420D01*
X62000Y130576D01*
D02*
G37*
G36*
X52157D02*
X50973Y130420D01*
X49869Y129963D01*
X48922Y129236D01*
X48194Y128288D01*
X47737Y127184D01*
X47581Y126000D01*
X47737Y124816D01*
X48194Y123712D01*
X48922Y122764D01*
X49869Y122037D01*
X50973Y121580D01*
X52157Y121424D01*
X53342Y121580D01*
X54446Y122037D01*
X55393Y122764D01*
X56121Y123712D01*
X56578Y124816D01*
X56734Y126000D01*
X56578Y127184D01*
X56121Y128288D01*
X55393Y129236D01*
X54446Y129963D01*
X53342Y130420D01*
X52157Y130576D01*
D02*
G37*
G36*
X160000Y123127D02*
X159191Y123020D01*
X158437Y122708D01*
X157789Y122211D01*
X157292Y121563D01*
X156980Y120809D01*
X156873Y120000D01*
X156980Y119191D01*
X157292Y118437D01*
X157789Y117789D01*
X158437Y117292D01*
X159191Y116980D01*
X160000Y116873D01*
X160809Y116980D01*
X161563Y117292D01*
X162211Y117789D01*
X162708Y118437D01*
X163020Y119191D01*
X163127Y120000D01*
X163020Y120809D01*
X162708Y121563D01*
X162211Y122211D01*
X161563Y122708D01*
X160809Y123020D01*
X160000Y123127D01*
D02*
G37*
G36*
X145000D02*
X144191Y123020D01*
X143437Y122708D01*
X142789Y122211D01*
X142292Y121563D01*
X141980Y120809D01*
X141873Y120000D01*
X141980Y119191D01*
X142292Y118437D01*
X142789Y117789D01*
X143437Y117292D01*
X144191Y116980D01*
X145000Y116873D01*
X145809Y116980D01*
X146563Y117292D01*
X147211Y117789D01*
X147708Y118437D01*
X148020Y119191D01*
X148127Y120000D01*
X148020Y120809D01*
X147708Y121563D01*
X147211Y122211D01*
X146563Y122708D01*
X145809Y123020D01*
X145000Y123127D01*
D02*
G37*
G36*
X103000Y114127D02*
X102191Y114020D01*
X101437Y113708D01*
X100789Y113211D01*
X100292Y112563D01*
X99980Y111809D01*
X99873Y111000D01*
X99980Y110191D01*
X100292Y109437D01*
X100789Y108789D01*
X101437Y108292D01*
X102191Y107980D01*
X103000Y107873D01*
X103809Y107980D01*
X104563Y108292D01*
X105211Y108789D01*
X105708Y109437D01*
X106020Y110191D01*
X106127Y111000D01*
X106020Y111809D01*
X105708Y112563D01*
X105211Y113211D01*
X104563Y113708D01*
X103809Y114020D01*
X103000Y114127D01*
D02*
G37*
G36*
X145000Y108127D02*
X144191Y108020D01*
X143437Y107708D01*
X142789Y107211D01*
X142292Y106563D01*
X141980Y105809D01*
X141873Y105000D01*
X141980Y104191D01*
X142292Y103437D01*
X142789Y102789D01*
X143437Y102292D01*
X144191Y101980D01*
X145000Y101873D01*
X145809Y101980D01*
X146563Y102292D01*
X147211Y102789D01*
X147708Y103437D01*
X148020Y104191D01*
X148127Y105000D01*
X148020Y105809D01*
X147708Y106563D01*
X147211Y107211D01*
X146563Y107708D01*
X145809Y108020D01*
X145000Y108127D01*
D02*
G37*
G36*
X160000Y93127D02*
X159191Y93020D01*
X158437Y92708D01*
X157789Y92211D01*
X157292Y91563D01*
X156980Y90809D01*
X156873Y90000D01*
X156980Y89191D01*
X157292Y88437D01*
X157789Y87789D01*
X158437Y87292D01*
X159191Y86980D01*
X160000Y86873D01*
X160809Y86980D01*
X161563Y87292D01*
X162211Y87789D01*
X162708Y88437D01*
X163020Y89191D01*
X163127Y90000D01*
X163020Y90809D01*
X162708Y91563D01*
X162211Y92211D01*
X161563Y92708D01*
X160809Y93020D01*
X160000Y93127D01*
D02*
G37*
G36*
X145000D02*
X144191Y93020D01*
X143437Y92708D01*
X142789Y92211D01*
X142292Y91563D01*
X141980Y90809D01*
X141873Y90000D01*
X141980Y89191D01*
X142292Y88437D01*
X142789Y87789D01*
X143437Y87292D01*
X144191Y86980D01*
X145000Y86873D01*
X145809Y86980D01*
X146563Y87292D01*
X147211Y87789D01*
X147708Y88437D01*
X148020Y89191D01*
X148127Y90000D01*
X148020Y90809D01*
X147708Y91563D01*
X147211Y92211D01*
X146563Y92708D01*
X145809Y93020D01*
X145000Y93127D01*
D02*
G37*
G36*
X114000Y85127D02*
X113191Y85020D01*
X112437Y84708D01*
X111789Y84211D01*
X111292Y83563D01*
X110980Y82809D01*
X110873Y82000D01*
X110980Y81191D01*
X111292Y80437D01*
X111789Y79789D01*
X112437Y79292D01*
X113191Y78980D01*
X114000Y78873D01*
X114809Y78980D01*
X115563Y79292D01*
X116211Y79789D01*
X116708Y80437D01*
X117020Y81191D01*
X117127Y82000D01*
X117020Y82809D01*
X116708Y83563D01*
X116211Y84211D01*
X115563Y84708D01*
X114809Y85020D01*
X114000Y85127D01*
D02*
G37*
G36*
X103000Y84127D02*
X102191Y84020D01*
X101437Y83708D01*
X100789Y83211D01*
X100292Y82563D01*
X99980Y81809D01*
X99873Y81000D01*
X99980Y80191D01*
X100292Y79437D01*
X100789Y78789D01*
X101437Y78292D01*
X102191Y77980D01*
X103000Y77873D01*
X103809Y77980D01*
X104563Y78292D01*
X105211Y78789D01*
X105708Y79437D01*
X106020Y80191D01*
X106127Y81000D01*
X106020Y81809D01*
X105708Y82563D01*
X105211Y83211D01*
X104563Y83708D01*
X103809Y84020D01*
X103000Y84127D01*
D02*
G37*
G36*
X92000D02*
X91191Y84020D01*
X90437Y83708D01*
X89789Y83211D01*
X89292Y82563D01*
X88980Y81809D01*
X88873Y81000D01*
X88980Y80191D01*
X89292Y79437D01*
X89789Y78789D01*
X90437Y78292D01*
X91191Y77980D01*
X92000Y77873D01*
X92809Y77980D01*
X93563Y78292D01*
X94211Y78789D01*
X94708Y79437D01*
X95020Y80191D01*
X95127Y81000D01*
X95020Y81809D01*
X94708Y82563D01*
X94211Y83211D01*
X93563Y83708D01*
X92809Y84020D01*
X92000Y84127D01*
D02*
G37*
G36*
X78905Y79598D02*
X78203Y79458D01*
X77608Y79060D01*
X77210Y78465D01*
X77070Y77763D01*
X77210Y77060D01*
X77608Y76465D01*
X78203Y76067D01*
X78905Y75927D01*
X79608Y76067D01*
X80203Y76465D01*
X80601Y77060D01*
X80741Y77763D01*
X80601Y78465D01*
X80203Y79060D01*
X79608Y79458D01*
X78905Y79598D01*
D02*
G37*
G36*
X97000Y76835D02*
X96298Y76696D01*
X95702Y76298D01*
X95304Y75702D01*
X95165Y75000D01*
X95304Y74298D01*
X95702Y73702D01*
X96298Y73304D01*
X97000Y73165D01*
X97702Y73304D01*
X98298Y73702D01*
X98696Y74298D01*
X98835Y75000D01*
X98696Y75702D01*
X98298Y76298D01*
X97702Y76696D01*
X97000Y76835D01*
D02*
G37*
G36*
X160000Y75627D02*
X159191Y75520D01*
X158437Y75208D01*
X157789Y74711D01*
X157292Y74063D01*
X156980Y73309D01*
X156873Y72500D01*
X156980Y71691D01*
X157292Y70937D01*
X157789Y70289D01*
X158437Y69792D01*
X159191Y69480D01*
X160000Y69373D01*
X160809Y69480D01*
X161563Y69792D01*
X162211Y70289D01*
X162708Y70937D01*
X163020Y71691D01*
X163127Y72500D01*
X163020Y73309D01*
X162708Y74063D01*
X162211Y74711D01*
X161563Y75208D01*
X160809Y75520D01*
X160000Y75627D01*
D02*
G37*
G36*
X145000D02*
X144191Y75520D01*
X143437Y75208D01*
X142789Y74711D01*
X142292Y74063D01*
X141980Y73309D01*
X141873Y72500D01*
X141980Y71691D01*
X142292Y70937D01*
X142789Y70289D01*
X143437Y69792D01*
X144191Y69480D01*
X145000Y69373D01*
X145809Y69480D01*
X146563Y69792D01*
X147211Y70289D01*
X147708Y70937D01*
X148020Y71691D01*
X148127Y72500D01*
X148020Y73309D01*
X147708Y74063D01*
X147211Y74711D01*
X146563Y75208D01*
X145809Y75520D01*
X145000Y75627D01*
D02*
G37*
G36*
X47500Y65627D02*
X46691Y65520D01*
X45937Y65208D01*
X45289Y64711D01*
X44792Y64063D01*
X44480Y63309D01*
X44373Y62500D01*
X44480Y61691D01*
X44792Y60937D01*
X45289Y60289D01*
X45937Y59792D01*
X46691Y59480D01*
X47500Y59373D01*
X48309Y59480D01*
X49063Y59792D01*
X49711Y60289D01*
X50208Y60937D01*
X50520Y61691D01*
X50627Y62500D01*
X50520Y63309D01*
X50208Y64063D01*
X49711Y64711D01*
X49063Y65208D01*
X48309Y65520D01*
X47500Y65627D01*
D02*
G37*
G36*
X32500D02*
X31691Y65520D01*
X30937Y65208D01*
X30289Y64711D01*
X29792Y64063D01*
X29480Y63309D01*
X29373Y62500D01*
X29480Y61691D01*
X29792Y60937D01*
X30289Y60289D01*
X30937Y59792D01*
X31691Y59480D01*
X32500Y59373D01*
X33309Y59480D01*
X34063Y59792D01*
X34711Y60289D01*
X35208Y60937D01*
X35520Y61691D01*
X35627Y62500D01*
X35520Y63309D01*
X35208Y64063D01*
X34711Y64711D01*
X34063Y65208D01*
X33309Y65520D01*
X32500Y65627D01*
D02*
G37*
G36*
X62000Y65127D02*
X61191Y65020D01*
X60437Y64708D01*
X59789Y64211D01*
X59292Y63563D01*
X58980Y62809D01*
X58873Y62000D01*
X58980Y61191D01*
X59292Y60437D01*
X59789Y59789D01*
X60437Y59292D01*
X61191Y58980D01*
X62000Y58873D01*
X62809Y58980D01*
X63563Y59292D01*
X64211Y59789D01*
X64708Y60437D01*
X65020Y61191D01*
X65127Y62000D01*
X65020Y62809D01*
X64708Y63563D01*
X64211Y64211D01*
X63563Y64708D01*
X62809Y65020D01*
X62000Y65127D01*
D02*
G37*
G36*
X71800Y60608D02*
X71097Y60468D01*
X70502Y60071D01*
X70104Y59475D01*
X69964Y58773D01*
X70104Y58070D01*
X70502Y57475D01*
X71097Y57077D01*
X71800Y56937D01*
X72502Y57077D01*
X73097Y57475D01*
X73495Y58070D01*
X73635Y58773D01*
X73495Y59475D01*
X73097Y60071D01*
X72502Y60468D01*
X71800Y60608D01*
D02*
G37*
G36*
X175000Y60627D02*
X174191Y60520D01*
X173437Y60208D01*
X172789Y59711D01*
X172292Y59063D01*
X171980Y58309D01*
X171873Y57500D01*
X171980Y56691D01*
X172292Y55937D01*
X172789Y55289D01*
X173437Y54792D01*
X174191Y54480D01*
X175000Y54373D01*
X175809Y54480D01*
X176563Y54792D01*
X177211Y55289D01*
X177708Y55937D01*
X178020Y56691D01*
X178127Y57500D01*
X178020Y58309D01*
X177708Y59063D01*
X177211Y59711D01*
X176563Y60208D01*
X175809Y60520D01*
X175000Y60627D01*
D02*
G37*
G36*
X160000D02*
X159191Y60520D01*
X158437Y60208D01*
X157789Y59711D01*
X157292Y59063D01*
X156980Y58309D01*
X156873Y57500D01*
X156980Y56691D01*
X157292Y55937D01*
X157789Y55289D01*
X158437Y54792D01*
X159191Y54480D01*
X160000Y54373D01*
X160809Y54480D01*
X161563Y54792D01*
X162211Y55289D01*
X162708Y55937D01*
X163020Y56691D01*
X163127Y57500D01*
X163020Y58309D01*
X162708Y59063D01*
X162211Y59711D01*
X161563Y60208D01*
X160809Y60520D01*
X160000Y60627D01*
D02*
G37*
G36*
X145000D02*
X144191Y60520D01*
X143437Y60208D01*
X142789Y59711D01*
X142292Y59063D01*
X141980Y58309D01*
X141873Y57500D01*
X141980Y56691D01*
X142292Y55937D01*
X142789Y55289D01*
X143437Y54792D01*
X144191Y54480D01*
X145000Y54373D01*
X145809Y54480D01*
X146563Y54792D01*
X147211Y55289D01*
X147708Y55937D01*
X148020Y56691D01*
X148127Y57500D01*
X148020Y58309D01*
X147708Y59063D01*
X147211Y59711D01*
X146563Y60208D01*
X145809Y60520D01*
X145000Y60627D01*
D02*
G37*
G36*
X62500Y53127D02*
X61691Y53020D01*
X60937Y52708D01*
X60289Y52211D01*
X59792Y51563D01*
X59480Y50809D01*
X59373Y50000D01*
X59480Y49191D01*
X59792Y48437D01*
X60289Y47789D01*
X60937Y47292D01*
X61691Y46980D01*
X62500Y46873D01*
X63309Y46980D01*
X64063Y47292D01*
X64711Y47789D01*
X65208Y48437D01*
X65520Y49191D01*
X65627Y50000D01*
X65520Y50809D01*
X65208Y51563D01*
X64711Y52211D01*
X64063Y52708D01*
X63309Y53020D01*
X62500Y53127D01*
D02*
G37*
G36*
X47500D02*
X46691Y53020D01*
X45937Y52708D01*
X45289Y52211D01*
X44792Y51563D01*
X44480Y50809D01*
X44373Y50000D01*
X44480Y49191D01*
X44792Y48437D01*
X45289Y47789D01*
X45937Y47292D01*
X46691Y46980D01*
X47500Y46873D01*
X48309Y46980D01*
X49063Y47292D01*
X49711Y47789D01*
X50208Y48437D01*
X50520Y49191D01*
X50627Y50000D01*
X50520Y50809D01*
X50208Y51563D01*
X49711Y52211D01*
X49063Y52708D01*
X48309Y53020D01*
X47500Y53127D01*
D02*
G37*
G36*
X116000Y45835D02*
X115298Y45696D01*
X114702Y45298D01*
X114304Y44702D01*
X114165Y44000D01*
X114304Y43298D01*
X114702Y42702D01*
X115298Y42304D01*
X116000Y42165D01*
X116702Y42304D01*
X117298Y42702D01*
X117696Y43298D01*
X117835Y44000D01*
X117696Y44702D01*
X117298Y45298D01*
X116702Y45696D01*
X116000Y45835D01*
D02*
G37*
G36*
X32500Y53148D02*
X31038Y52956D01*
X29676Y52392D01*
X28506Y51494D01*
X27608Y50324D01*
X27044Y48962D01*
X26852Y47500D01*
X27044Y46038D01*
X27608Y44676D01*
X28506Y43506D01*
X29676Y42608D01*
X31038Y42044D01*
X32500Y41852D01*
X33962Y42044D01*
X35324Y42608D01*
X36494Y43506D01*
X37392Y44676D01*
X37956Y46038D01*
X38148Y47500D01*
X37956Y48962D01*
X37392Y50324D01*
X36494Y51494D01*
X35324Y52392D01*
X33962Y52956D01*
X32500Y53148D01*
D02*
G37*
G36*
X175000Y45627D02*
X174191Y45520D01*
X173437Y45208D01*
X172789Y44711D01*
X172292Y44063D01*
X171980Y43309D01*
X171873Y42500D01*
X171980Y41691D01*
X172292Y40937D01*
X172789Y40289D01*
X173437Y39792D01*
X174191Y39480D01*
X175000Y39373D01*
X175809Y39480D01*
X176563Y39792D01*
X177211Y40289D01*
X177708Y40937D01*
X178020Y41691D01*
X178127Y42500D01*
X178020Y43309D01*
X177708Y44063D01*
X177211Y44711D01*
X176563Y45208D01*
X175809Y45520D01*
X175000Y45627D01*
D02*
G37*
G36*
X160000Y48748D02*
X158538Y48556D01*
X157176Y47992D01*
X156006Y47094D01*
X155108Y45924D01*
X154544Y44562D01*
X154352Y43100D01*
X154544Y41638D01*
X155108Y40276D01*
X156006Y39106D01*
X157176Y38208D01*
X158538Y37644D01*
X160000Y37452D01*
X161462Y37644D01*
X162824Y38208D01*
X163994Y39106D01*
X164892Y40276D01*
X165456Y41638D01*
X165648Y43100D01*
X165456Y44562D01*
X164892Y45924D01*
X163994Y47094D01*
X162824Y47992D01*
X161462Y48556D01*
X160000Y48748D01*
D02*
G37*
G36*
X145000Y43127D02*
X144191Y43020D01*
X143437Y42708D01*
X142789Y42211D01*
X142292Y41563D01*
X141980Y40809D01*
X141873Y40000D01*
X141980Y39191D01*
X142292Y38437D01*
X142789Y37789D01*
X143437Y37292D01*
X144191Y36980D01*
X145000Y36873D01*
X145809Y36980D01*
X146563Y37292D01*
X147211Y37789D01*
X147708Y38437D01*
X148020Y39191D01*
X148127Y40000D01*
X148020Y40809D01*
X147708Y41563D01*
X147211Y42211D01*
X146563Y42708D01*
X145809Y43020D01*
X145000Y43127D01*
D02*
G37*
G36*
X62500Y40627D02*
X61691Y40520D01*
X60937Y40208D01*
X60289Y39711D01*
X59792Y39063D01*
X59480Y38309D01*
X59373Y37500D01*
X59480Y36691D01*
X59792Y35937D01*
X60289Y35289D01*
X60937Y34792D01*
X61691Y34480D01*
X62500Y34373D01*
X63309Y34480D01*
X64063Y34792D01*
X64711Y35289D01*
X65208Y35937D01*
X65520Y36691D01*
X65627Y37500D01*
X65520Y38309D01*
X65208Y39063D01*
X64711Y39711D01*
X64063Y40208D01*
X63309Y40520D01*
X62500Y40627D01*
D02*
G37*
G36*
X47500D02*
X46691Y40520D01*
X45937Y40208D01*
X45289Y39711D01*
X44792Y39063D01*
X44480Y38309D01*
X44373Y37500D01*
X44480Y36691D01*
X44792Y35937D01*
X45289Y35289D01*
X45937Y34792D01*
X46691Y34480D01*
X47500Y34373D01*
X48309Y34480D01*
X49063Y34792D01*
X49711Y35289D01*
X50208Y35937D01*
X50520Y36691D01*
X50627Y37500D01*
X50520Y38309D01*
X50208Y39063D01*
X49711Y39711D01*
X49063Y40208D01*
X48309Y40520D01*
X47500Y40627D01*
D02*
G37*
G36*
X108949Y32195D02*
X108887Y32186D01*
X107896Y31776D01*
X107046Y31124D01*
X106551Y30479D01*
X106500Y30455D01*
X105997D01*
X105946Y30479D01*
X105451Y31124D01*
X104601Y31776D01*
X103610Y32186D01*
X103548Y32195D01*
Y28220D01*
Y24246D01*
X103610Y24254D01*
X104601Y24665D01*
X105451Y25317D01*
X105946Y25962D01*
X105997Y25986D01*
X106500D01*
X106551Y25962D01*
X107046Y25317D01*
X107896Y24665D01*
X108887Y24254D01*
X108949Y24246D01*
Y28220D01*
Y32195D01*
D02*
G37*
G36*
X89264D02*
X89201Y32186D01*
X88211Y31776D01*
X87361Y31124D01*
X86866Y30479D01*
X86815Y30455D01*
X86312D01*
X86261Y30479D01*
X85766Y31124D01*
X84916Y31776D01*
X83925Y32186D01*
X83863Y32195D01*
Y28220D01*
Y24246D01*
X83925Y24254D01*
X84916Y24665D01*
X85766Y25317D01*
X86261Y25962D01*
X86312Y25986D01*
X86815D01*
X86866Y25962D01*
X87361Y25317D01*
X88211Y24665D01*
X89201Y24254D01*
X89264Y24246D01*
Y28220D01*
Y32195D01*
D02*
G37*
G36*
X129634Y31923D02*
X128676Y31797D01*
X127783Y31427D01*
X127016Y30839D01*
X126428Y30072D01*
X126204Y29532D01*
X125663D01*
X125439Y30072D01*
X124851Y30839D01*
X124084Y31427D01*
X123191Y31797D01*
X122233Y31923D01*
X121274Y31797D01*
X120381Y31427D01*
X119615Y30839D01*
X119026Y30072D01*
X118656Y29179D01*
X118530Y28220D01*
X118656Y27262D01*
X119026Y26369D01*
X119615Y25602D01*
X120381Y25014D01*
X121274Y24644D01*
X122233Y24518D01*
X123191Y24644D01*
X124084Y25014D01*
X124851Y25602D01*
X125439Y26369D01*
X125663Y26909D01*
X126204D01*
X126428Y26369D01*
X127016Y25602D01*
X127783Y25014D01*
X128676Y24644D01*
X129634Y24518D01*
X130593Y24644D01*
X131485Y25014D01*
X132252Y25602D01*
X132841Y26369D01*
X133211Y27262D01*
X133337Y28220D01*
X133211Y29179D01*
X132841Y30072D01*
X132252Y30839D01*
X131485Y31427D01*
X130593Y31797D01*
X129634Y31923D01*
D02*
G37*
G36*
X70579D02*
X69621Y31797D01*
X68728Y31427D01*
X67961Y30839D01*
X67373Y30072D01*
X67149Y29532D01*
X66608D01*
X66384Y30072D01*
X65796Y30839D01*
X65029Y31427D01*
X64136Y31797D01*
X63178Y31923D01*
X62219Y31797D01*
X61326Y31427D01*
X60559Y30839D01*
X59971Y30072D01*
X59601Y29179D01*
X59475Y28220D01*
X59601Y27262D01*
X59971Y26369D01*
X60559Y25602D01*
X61326Y25014D01*
X62219Y24644D01*
X63178Y24518D01*
X64136Y24644D01*
X65029Y25014D01*
X65796Y25602D01*
X66384Y26369D01*
X66608Y26909D01*
X67149D01*
X67373Y26369D01*
X67961Y25602D01*
X68728Y25014D01*
X69621Y24644D01*
X70579Y24518D01*
X71537Y24644D01*
X72430Y25014D01*
X73197Y25602D01*
X73786Y26369D01*
X74155Y27262D01*
X74282Y28220D01*
X74155Y29179D01*
X73786Y30072D01*
X73197Y30839D01*
X72430Y31427D01*
X71537Y31797D01*
X70579Y31923D01*
D02*
G37*
G36*
X110949Y32195D02*
Y29221D01*
X113924D01*
X113915Y29283D01*
X113505Y30274D01*
X112853Y31124D01*
X112002Y31776D01*
X111012Y32186D01*
X110949Y32195D01*
D02*
G37*
G36*
X101548D02*
X101485Y32186D01*
X100495Y31776D01*
X99644Y31124D01*
X98992Y30274D01*
X98582Y29283D01*
X98573Y29221D01*
X101548D01*
Y32195D01*
D02*
G37*
G36*
X91264D02*
Y29221D01*
X94239D01*
X94230Y29283D01*
X93820Y30274D01*
X93168Y31124D01*
X92317Y31776D01*
X91327Y32186D01*
X91264Y32195D01*
D02*
G37*
G36*
X81863D02*
X81800Y32186D01*
X80810Y31776D01*
X79959Y31124D01*
X79307Y30274D01*
X78896Y29283D01*
X78888Y29221D01*
X81863D01*
Y32195D01*
D02*
G37*
G36*
X113924Y27220D02*
X110949D01*
Y24246D01*
X111012Y24254D01*
X112002Y24665D01*
X112853Y25317D01*
X113505Y26168D01*
X113915Y27158D01*
X113924Y27220D01*
D02*
G37*
G36*
X101548D02*
X98573D01*
X98582Y27158D01*
X98992Y26168D01*
X99644Y25317D01*
X100495Y24665D01*
X101485Y24254D01*
X101548Y24246D01*
Y27220D01*
D02*
G37*
G36*
X94239D02*
X91264D01*
Y24246D01*
X91327Y24254D01*
X92317Y24665D01*
X93168Y25317D01*
X93820Y26168D01*
X94230Y27158D01*
X94239Y27220D01*
D02*
G37*
G36*
X81863D02*
X78888D01*
X78896Y27158D01*
X79307Y26168D01*
X79959Y25317D01*
X80810Y24665D01*
X81800Y24254D01*
X81863Y24246D01*
Y27220D01*
D02*
G37*
G36*
X108949Y22195D02*
X108887Y22186D01*
X107896Y21776D01*
X107046Y21124D01*
X106551Y20479D01*
X106500Y20456D01*
X105997D01*
X105946Y20479D01*
X105451Y21124D01*
X104601Y21776D01*
X103610Y22186D01*
X103548Y22195D01*
Y18221D01*
Y14246D01*
X103610Y14254D01*
X104601Y14665D01*
X105451Y15317D01*
X105946Y15962D01*
X105997Y15985D01*
X106500D01*
X106551Y15962D01*
X107046Y15317D01*
X107896Y14665D01*
X108887Y14254D01*
X108949Y14246D01*
Y18221D01*
Y22195D01*
D02*
G37*
G36*
X89264D02*
X89201Y22186D01*
X88211Y21776D01*
X87361Y21124D01*
X86866Y20479D01*
X86815Y20456D01*
X86312D01*
X86261Y20479D01*
X85766Y21124D01*
X84916Y21776D01*
X83925Y22186D01*
X83863Y22195D01*
Y18221D01*
Y14246D01*
X83925Y14254D01*
X84916Y14665D01*
X85766Y15317D01*
X86261Y15962D01*
X86312Y15985D01*
X86815D01*
X86866Y15962D01*
X87361Y15317D01*
X88211Y14665D01*
X89201Y14254D01*
X89264Y14246D01*
Y18221D01*
Y22195D01*
D02*
G37*
G36*
X129634Y21923D02*
X128676Y21797D01*
X127783Y21427D01*
X127016Y20839D01*
X126428Y20072D01*
X126204Y19532D01*
X125663D01*
X125439Y20072D01*
X124851Y20839D01*
X124084Y21427D01*
X123191Y21797D01*
X122233Y21923D01*
X121274Y21797D01*
X120381Y21427D01*
X119615Y20839D01*
X119026Y20072D01*
X118656Y19179D01*
X118530Y18221D01*
X118656Y17262D01*
X119026Y16369D01*
X119615Y15602D01*
X120381Y15014D01*
X121274Y14644D01*
X122233Y14518D01*
X123191Y14644D01*
X124084Y15014D01*
X124851Y15602D01*
X125439Y16369D01*
X125663Y16909D01*
X126204D01*
X126428Y16369D01*
X127016Y15602D01*
X127783Y15014D01*
X128676Y14644D01*
X129634Y14518D01*
X130593Y14644D01*
X131485Y15014D01*
X132252Y15602D01*
X132841Y16369D01*
X133211Y17262D01*
X133337Y18221D01*
X133211Y19179D01*
X132841Y20072D01*
X132252Y20839D01*
X131485Y21427D01*
X130593Y21797D01*
X129634Y21923D01*
D02*
G37*
G36*
X70579D02*
X69621Y21797D01*
X68728Y21427D01*
X67961Y20839D01*
X67373Y20072D01*
X67149Y19532D01*
X66608D01*
X66384Y20072D01*
X65796Y20839D01*
X65029Y21427D01*
X64136Y21797D01*
X63178Y21923D01*
X62219Y21797D01*
X61326Y21427D01*
X60559Y20839D01*
X59971Y20072D01*
X59601Y19179D01*
X59475Y18221D01*
X59601Y17262D01*
X59971Y16369D01*
X60559Y15602D01*
X61326Y15014D01*
X62219Y14644D01*
X63178Y14518D01*
X64136Y14644D01*
X65029Y15014D01*
X65796Y15602D01*
X66384Y16369D01*
X66608Y16909D01*
X67149D01*
X67373Y16369D01*
X67961Y15602D01*
X68728Y15014D01*
X69621Y14644D01*
X70579Y14518D01*
X71537Y14644D01*
X72430Y15014D01*
X73197Y15602D01*
X73786Y16369D01*
X74155Y17262D01*
X74282Y18221D01*
X74155Y19179D01*
X73786Y20072D01*
X73197Y20839D01*
X72430Y21427D01*
X71537Y21797D01*
X70579Y21923D01*
D02*
G37*
G36*
X110949Y22195D02*
Y19220D01*
X113924D01*
X113915Y19283D01*
X113505Y20274D01*
X112853Y21124D01*
X112002Y21776D01*
X111012Y22186D01*
X110949Y22195D01*
D02*
G37*
G36*
X101548D02*
X101485Y22186D01*
X100495Y21776D01*
X99644Y21124D01*
X98992Y20274D01*
X98582Y19283D01*
X98573Y19220D01*
X101548D01*
Y22195D01*
D02*
G37*
G36*
X91264D02*
Y19220D01*
X94239D01*
X94230Y19283D01*
X93820Y20274D01*
X93168Y21124D01*
X92317Y21776D01*
X91327Y22186D01*
X91264Y22195D01*
D02*
G37*
G36*
X81863D02*
X81800Y22186D01*
X80810Y21776D01*
X79959Y21124D01*
X79307Y20274D01*
X78896Y19283D01*
X78888Y19220D01*
X81863D01*
Y22195D01*
D02*
G37*
G36*
X113924Y17221D02*
X110949D01*
Y14246D01*
X111012Y14254D01*
X112002Y14665D01*
X112853Y15317D01*
X113505Y16168D01*
X113915Y17158D01*
X113924Y17221D01*
D02*
G37*
G36*
X101548D02*
X98573D01*
X98582Y17158D01*
X98992Y16168D01*
X99644Y15317D01*
X100495Y14665D01*
X101485Y14254D01*
X101548Y14246D01*
Y17221D01*
D02*
G37*
G36*
X94239D02*
X91264D01*
Y14246D01*
X91327Y14254D01*
X92317Y14665D01*
X93168Y15317D01*
X93820Y16168D01*
X94230Y17158D01*
X94239Y17221D01*
D02*
G37*
G36*
X81863D02*
X78888D01*
X78896Y17158D01*
X79307Y16168D01*
X79959Y15317D01*
X80810Y14665D01*
X81800Y14254D01*
X81863Y14246D01*
Y17221D01*
D02*
G37*
G36*
X148138Y28857D02*
X146647Y28710D01*
X145213Y28275D01*
X143891Y27569D01*
X142733Y26618D01*
X141782Y25460D01*
X141075Y24138D01*
X140640Y22704D01*
X140494Y21213D01*
X140640Y19721D01*
X141075Y18287D01*
X141782Y16965D01*
X142733Y15807D01*
X143891Y14856D01*
X145213Y14150D01*
X146647Y13715D01*
X148138Y13568D01*
X149630Y13715D01*
X151064Y14150D01*
X152385Y14856D01*
X153544Y15807D01*
X154495Y16965D01*
X155201Y18287D01*
X155636Y19721D01*
X155783Y21213D01*
X155636Y22704D01*
X155201Y24138D01*
X154495Y25460D01*
X153544Y26618D01*
X152385Y27569D01*
X151064Y28275D01*
X149630Y28710D01*
X148138Y28857D01*
D02*
G37*
G36*
X44674D02*
X43182Y28710D01*
X41748Y28275D01*
X40426Y27569D01*
X39268Y26618D01*
X38317Y25460D01*
X37611Y24138D01*
X37176Y22704D01*
X37029Y21213D01*
X37176Y19721D01*
X37611Y18287D01*
X38317Y16965D01*
X39268Y15807D01*
X40426Y14856D01*
X41748Y14150D01*
X43182Y13715D01*
X44674Y13568D01*
X46165Y13715D01*
X47599Y14150D01*
X48921Y14856D01*
X50079Y15807D01*
X51030Y16965D01*
X51736Y18287D01*
X52171Y19721D01*
X52318Y21213D01*
X52171Y22704D01*
X51736Y24138D01*
X51030Y25460D01*
X50079Y26618D01*
X48921Y27569D01*
X47599Y28275D01*
X46165Y28710D01*
X44674Y28857D01*
D02*
G37*
G36*
X108949Y12195D02*
X108887Y12186D01*
X107896Y11776D01*
X107046Y11124D01*
X106551Y10479D01*
X106500Y10456D01*
X105997D01*
X105946Y10479D01*
X105451Y11124D01*
X104601Y11776D01*
X103610Y12186D01*
X103548Y12195D01*
Y8220D01*
Y4246D01*
X103610Y4254D01*
X104601Y4665D01*
X105451Y5317D01*
X105946Y5962D01*
X105997Y5985D01*
X106500D01*
X106551Y5962D01*
X107046Y5317D01*
X107896Y4665D01*
X108887Y4254D01*
X108949Y4246D01*
Y8220D01*
Y12195D01*
D02*
G37*
G36*
X89264D02*
X89201Y12186D01*
X88211Y11776D01*
X87361Y11124D01*
X86866Y10479D01*
X86815Y10456D01*
X86312D01*
X86261Y10479D01*
X85766Y11124D01*
X84916Y11776D01*
X83925Y12186D01*
X83863Y12195D01*
Y8220D01*
Y4246D01*
X83925Y4254D01*
X84916Y4665D01*
X85766Y5317D01*
X86261Y5962D01*
X86312Y5985D01*
X86815D01*
X86866Y5962D01*
X87361Y5317D01*
X88211Y4665D01*
X89201Y4254D01*
X89264Y4246D01*
Y8220D01*
Y12195D01*
D02*
G37*
G36*
X129634Y11923D02*
X128676Y11797D01*
X127783Y11427D01*
X127016Y10839D01*
X126428Y10072D01*
X126204Y9532D01*
X125663D01*
X125439Y10072D01*
X124851Y10839D01*
X124084Y11427D01*
X123191Y11797D01*
X122233Y11923D01*
X121274Y11797D01*
X120381Y11427D01*
X119615Y10839D01*
X119026Y10072D01*
X118656Y9179D01*
X118530Y8220D01*
X118656Y7262D01*
X119026Y6369D01*
X119615Y5602D01*
X120381Y5014D01*
X121274Y4644D01*
X122233Y4518D01*
X123191Y4644D01*
X124084Y5014D01*
X124851Y5602D01*
X125439Y6369D01*
X125663Y6909D01*
X126204D01*
X126428Y6369D01*
X127016Y5602D01*
X127783Y5014D01*
X128676Y4644D01*
X129634Y4518D01*
X130593Y4644D01*
X131485Y5014D01*
X132252Y5602D01*
X132841Y6369D01*
X133211Y7262D01*
X133337Y8220D01*
X133211Y9179D01*
X132841Y10072D01*
X132252Y10839D01*
X131485Y11427D01*
X130593Y11797D01*
X129634Y11923D01*
D02*
G37*
G36*
X70579D02*
X69621Y11797D01*
X68728Y11427D01*
X67961Y10839D01*
X67373Y10072D01*
X67149Y9532D01*
X66608D01*
X66384Y10072D01*
X65796Y10839D01*
X65029Y11427D01*
X64136Y11797D01*
X63178Y11923D01*
X62219Y11797D01*
X61326Y11427D01*
X60559Y10839D01*
X59971Y10072D01*
X59601Y9179D01*
X59475Y8220D01*
X59601Y7262D01*
X59971Y6369D01*
X60559Y5602D01*
X61326Y5014D01*
X62219Y4644D01*
X63178Y4518D01*
X64136Y4644D01*
X65029Y5014D01*
X65796Y5602D01*
X66384Y6369D01*
X66608Y6909D01*
X67149D01*
X67373Y6369D01*
X67961Y5602D01*
X68728Y5014D01*
X69621Y4644D01*
X70579Y4518D01*
X71537Y4644D01*
X72430Y5014D01*
X73197Y5602D01*
X73786Y6369D01*
X74155Y7262D01*
X74282Y8220D01*
X74155Y9179D01*
X73786Y10072D01*
X73197Y10839D01*
X72430Y11427D01*
X71537Y11797D01*
X70579Y11923D01*
D02*
G37*
G36*
X110949Y12195D02*
Y9221D01*
X113924D01*
X113915Y9283D01*
X113505Y10273D01*
X112853Y11124D01*
X112002Y11776D01*
X111012Y12186D01*
X110949Y12195D01*
D02*
G37*
G36*
X101548D02*
X101485Y12186D01*
X100495Y11776D01*
X99644Y11124D01*
X98992Y10273D01*
X98582Y9283D01*
X98573Y9221D01*
X101548D01*
Y12195D01*
D02*
G37*
G36*
X91264D02*
Y9221D01*
X94239D01*
X94230Y9283D01*
X93820Y10273D01*
X93168Y11124D01*
X92317Y11776D01*
X91327Y12186D01*
X91264Y12195D01*
D02*
G37*
G36*
X81863D02*
X81800Y12186D01*
X80810Y11776D01*
X79959Y11124D01*
X79307Y10273D01*
X78896Y9283D01*
X78888Y9221D01*
X81863D01*
Y12195D01*
D02*
G37*
G36*
X52500Y10627D02*
X51691Y10520D01*
X50937Y10208D01*
X50289Y9711D01*
X49792Y9063D01*
X49480Y8309D01*
X49373Y7500D01*
X49480Y6691D01*
X49792Y5937D01*
X50289Y5289D01*
X50937Y4792D01*
X51691Y4480D01*
X52500Y4373D01*
X53309Y4480D01*
X54063Y4792D01*
X54711Y5289D01*
X55208Y5937D01*
X55520Y6691D01*
X55627Y7500D01*
X55520Y8309D01*
X55208Y9063D01*
X54711Y9711D01*
X54063Y10208D01*
X53309Y10520D01*
X52500Y10627D01*
D02*
G37*
G36*
X40000D02*
X39191Y10520D01*
X38437Y10208D01*
X37789Y9711D01*
X37292Y9063D01*
X36980Y8309D01*
X36873Y7500D01*
X36980Y6691D01*
X37292Y5937D01*
X37789Y5289D01*
X38437Y4792D01*
X39191Y4480D01*
X40000Y4373D01*
X40809Y4480D01*
X41563Y4792D01*
X42211Y5289D01*
X42708Y5937D01*
X43020Y6691D01*
X43127Y7500D01*
X43020Y8309D01*
X42708Y9063D01*
X42211Y9711D01*
X41563Y10208D01*
X40809Y10520D01*
X40000Y10627D01*
D02*
G37*
G36*
X113924Y7220D02*
X110949D01*
Y4246D01*
X111012Y4254D01*
X112002Y4665D01*
X112853Y5317D01*
X113505Y6168D01*
X113915Y7158D01*
X113924Y7220D01*
D02*
G37*
G36*
X101548D02*
X98573D01*
X98582Y7158D01*
X98992Y6168D01*
X99644Y5317D01*
X100495Y4665D01*
X101485Y4254D01*
X101548Y4246D01*
Y7220D01*
D02*
G37*
G36*
X94239D02*
X91264D01*
Y4246D01*
X91327Y4254D01*
X92317Y4665D01*
X93168Y5317D01*
X93820Y6168D01*
X94230Y7158D01*
X94239Y7220D01*
D02*
G37*
G36*
X81863D02*
X78888D01*
X78896Y7158D01*
X79307Y6168D01*
X79959Y5317D01*
X80810Y4665D01*
X81800Y4254D01*
X81863Y4246D01*
Y7220D01*
D02*
G37*
G36*
X150000Y8127D02*
X149191Y8020D01*
X148437Y7708D01*
X147789Y7211D01*
X147292Y6563D01*
X146980Y5809D01*
X146873Y5000D01*
X146980Y4191D01*
X147292Y3437D01*
X147789Y2789D01*
X148437Y2292D01*
X149191Y1980D01*
X150000Y1873D01*
X150809Y1980D01*
X151563Y2292D01*
X152211Y2789D01*
X152708Y3437D01*
X153020Y4191D01*
X153127Y5000D01*
X153020Y5809D01*
X152708Y6563D01*
X152211Y7211D01*
X151563Y7708D01*
X150809Y8020D01*
X150000Y8127D01*
D02*
G37*
G36*
X140000D02*
X139191Y8020D01*
X138437Y7708D01*
X137789Y7211D01*
X137292Y6563D01*
X136980Y5809D01*
X136873Y5000D01*
X136980Y4191D01*
X137292Y3437D01*
X137789Y2789D01*
X138437Y2292D01*
X139191Y1980D01*
X140000Y1873D01*
X140809Y1980D01*
X141563Y2292D01*
X142211Y2789D01*
X142708Y3437D01*
X143020Y4191D01*
X143127Y5000D01*
X143020Y5809D01*
X142708Y6563D01*
X142211Y7211D01*
X141563Y7708D01*
X140809Y8020D01*
X140000Y8127D01*
D02*
G37*
%LPD*%
D45*
X51000Y102000D02*
D03*
X102500Y122500D02*
D03*
X160000Y43100D02*
D03*
X32500Y47500D02*
D03*
D46*
X52157Y126000D02*
D03*
X62000D02*
D03*
X71842D02*
D03*
D47*
X148138Y21213D02*
D03*
X44674D02*
D03*
D48*
X70579Y8220D02*
D03*
X63178D02*
D03*
X70579Y18221D02*
D03*
X63178D02*
D03*
X70579Y28220D02*
D03*
X63178D02*
D03*
X129634Y8220D02*
D03*
X122233D02*
D03*
X129634Y18221D02*
D03*
X122233D02*
D03*
X129634Y28220D02*
D03*
X122233D02*
D03*
X109949Y8220D02*
D03*
X102548D02*
D03*
X109949Y18221D02*
D03*
X102548D02*
D03*
X109949Y28220D02*
D03*
X102548D02*
D03*
X90264Y8220D02*
D03*
X82863D02*
D03*
X90264Y18221D02*
D03*
X82863D02*
D03*
X90264Y28220D02*
D03*
X82863D02*
D03*
D49*
X192250Y127500D02*
D03*
Y52500D02*
D03*
X186000Y40000D02*
D03*
X129750Y127500D02*
D03*
X136000Y115000D02*
D03*
Y90000D02*
D03*
X117250Y127500D02*
D03*
X123500Y65000D02*
D03*
X111000Y40000D02*
D03*
X92250Y127500D02*
D03*
X98500Y40000D02*
D03*
X79750Y127500D02*
D03*
X73500Y115000D02*
D03*
X67250Y102500D02*
D03*
X73500Y90000D02*
D03*
X42250Y127500D02*
D03*
X48500Y115000D02*
D03*
X29750Y127500D02*
D03*
X36000Y115000D02*
D03*
X62000Y62000D02*
D03*
X92000Y81000D02*
D03*
X196000Y122000D02*
D03*
Y110000D02*
D03*
Y81000D02*
D03*
Y95000D02*
D03*
X190803Y45025D02*
D03*
X190546Y63894D02*
D03*
X175000Y42500D02*
D03*
Y57500D02*
D03*
X160000Y120000D02*
D03*
X145000D02*
D03*
X150000Y5000D02*
D03*
X140000D02*
D03*
X52500Y7500D02*
D03*
X40000D02*
D03*
X62500Y37500D02*
D03*
X47500D02*
D03*
X32500Y62500D02*
D03*
X47500D02*
D03*
Y50000D02*
D03*
X62500D02*
D03*
X145000Y105000D02*
D03*
X160000Y90000D02*
D03*
X145000D02*
D03*
X160000Y72500D02*
D03*
Y57500D02*
D03*
X145000Y72500D02*
D03*
Y57500D02*
D03*
Y40000D02*
D03*
X114000Y82000D02*
D03*
X103000Y81000D02*
D03*
Y111000D02*
D03*
D50*
X78905Y77763D02*
D03*
X71800Y58773D02*
D03*
X116000Y44000D02*
D03*
X97000Y75000D02*
D03*
D51*
X89231Y59400D02*
D03*
X84341D02*
D03*
X89231Y63400D02*
D03*
X84341D02*
D03*
X89231Y67400D02*
D03*
X84341D02*
D03*
M02*
