G04*
G04 #@! TF.GenerationSoftware,Altium Limited,Altium Designer,24.5.2 (23)*
G04*
G04 Layer_Color=16711935*
%FSLAX25Y25*%
%MOIN*%
G70*
G04*
G04 #@! TF.SameCoordinates,31380466-C734-4E74-93B1-4E6A1FEF37DE*
G04*
G04*
G04 #@! TF.FilePolarity,Positive*
G04*
G01*
G75*
%ADD13C,0.00500*%
D13*
X201402Y137598D02*
X201297Y138533D01*
X200986Y139421D01*
X200486Y140218D01*
X199820Y140883D01*
X199023Y141384D01*
X198135Y141695D01*
X197200Y141800D01*
X26403Y141902D02*
X25467Y141797D01*
X24579Y141486D01*
X23782Y140986D01*
X23117Y140320D01*
X22616Y139523D01*
X22305Y138635D01*
X22200Y137700D01*
X22224Y39124D02*
X22361Y38089D01*
X22760Y37124D01*
X23396Y36296D01*
X24224Y35660D01*
X25189Y35261D01*
X26224Y35124D01*
X32100Y1246D02*
X32228Y278D01*
X32601Y-625D01*
X33196Y-1400D01*
X33971Y-1994D01*
X34874Y-2368D01*
X35842Y-2496D01*
X156700Y-2400D02*
X157735Y-2264D01*
X158700Y-1864D01*
X159528Y-1228D01*
X160164Y-400D01*
X160564Y565D01*
X160700Y1600D01*
X197536Y35264D02*
X198510Y35392D01*
X199418Y35768D01*
X200197Y36366D01*
X200795Y37146D01*
X201171Y38054D01*
X201300Y39028D01*
X164700Y35100D02*
X163665Y34964D01*
X162700Y34564D01*
X161872Y33928D01*
X161236Y33100D01*
X160836Y32135D01*
X160700Y31100D01*
X32124Y31124D02*
X31988Y32160D01*
X31589Y33124D01*
X30953Y33953D01*
X30124Y34589D01*
X29160Y34988D01*
X28124Y35124D01*
X26224D02*
X28124D01*
X201300Y39028D02*
X201402Y137598D01*
X26403Y141902D02*
X197200Y141800D01*
X22200Y137700D02*
X22224Y39124D01*
X32100Y1246D02*
Y31049D01*
X35842Y-2496D02*
X156700Y-2400D01*
X160700Y1600D02*
Y31100D01*
X164700Y35100D02*
X197536Y35264D01*
M02*
