G04*
G04 #@! TF.GenerationSoftware,Altium Limited,Altium Designer,19.1.9 (167)*
G04*
G04 Layer_Physical_Order=2*
G04 Layer_Color=16711680*
%FSAX25Y25*%
%MOIN*%
G70*
G01*
G75*
%ADD12C,0.01000*%
%ADD70C,0.00600*%
%ADD73C,0.10000*%
%ADD74C,0.05906*%
%ADD75R,0.05906X0.05906*%
%ADD76C,0.15748*%
%ADD77R,0.05906X0.05906*%
%ADD78C,0.05000*%
%ADD79C,0.02400*%
G36*
X0359915Y0391441D02*
X0363512Y0390726D01*
X0367022Y0389661D01*
X0370411Y0388257D01*
X0373646Y0386528D01*
X0376696Y0384490D01*
X0379531Y0382164D01*
X0382124Y0379570D01*
X0384451Y0376735D01*
X0386489Y0373685D01*
X0388218Y0370450D01*
X0389622Y0367061D01*
X0390686Y0363551D01*
X0391402Y0359954D01*
X0391762Y0356304D01*
Y0354470D01*
Y0039509D01*
Y0037675D01*
X0391402Y0034025D01*
X0390686Y0030427D01*
X0389622Y0026918D01*
X0388218Y0023529D01*
X0386489Y0020294D01*
X0384451Y0017244D01*
X0382124Y0014409D01*
X0379531Y0011815D01*
X0376695Y0009488D01*
X0373646Y0007451D01*
X0370411Y0005722D01*
X0367022Y0004318D01*
X0363512Y0003253D01*
X0359915Y0002538D01*
X0356265Y0002178D01*
X0037636D01*
X0033986Y0002538D01*
X0030388Y0003253D01*
X0026878Y0004318D01*
X0023490Y0005722D01*
X0020255Y0007451D01*
X0017205Y0009488D01*
X0014370Y0011815D01*
X0011776Y0014409D01*
X0009449Y0017244D01*
X0007412Y0020294D01*
X0005683Y0023529D01*
X0004279Y0026918D01*
X0003214Y0030428D01*
X0002499Y0034025D01*
X0002139Y0037675D01*
Y0039509D01*
Y0354470D01*
Y0356304D01*
X0002499Y0359954D01*
X0003214Y0363551D01*
X0004279Y0367061D01*
X0005683Y0370450D01*
X0007412Y0373685D01*
X0009449Y0376735D01*
X0011776Y0379570D01*
X0014370Y0382164D01*
X0017205Y0384490D01*
X0020255Y0386528D01*
X0023490Y0388257D01*
X0026878Y0389661D01*
X0030388Y0390726D01*
X0033986Y0391441D01*
X0037636Y0391801D01*
X0356265D01*
X0359915Y0391441D01*
D02*
G37*
%LPC*%
G36*
X0354331Y0362846D02*
X0352670Y0362682D01*
X0351072Y0362198D01*
X0349600Y0361411D01*
X0348310Y0360352D01*
X0347251Y0359061D01*
X0346464Y0357589D01*
X0345979Y0355992D01*
X0345816Y0354331D01*
X0345979Y0352670D01*
X0346464Y0351072D01*
X0347251Y0349600D01*
X0348310Y0348310D01*
X0349600Y0347251D01*
X0351072Y0346464D01*
X0352670Y0345979D01*
X0354331Y0345816D01*
X0355992Y0345979D01*
X0357589Y0346464D01*
X0359061Y0347251D01*
X0360352Y0348310D01*
X0361411Y0349600D01*
X0362198Y0351072D01*
X0362682Y0352670D01*
X0362846Y0354331D01*
X0362682Y0355992D01*
X0362198Y0357589D01*
X0361411Y0359061D01*
X0360352Y0360352D01*
X0359061Y0361411D01*
X0357589Y0362198D01*
X0355992Y0362682D01*
X0354331Y0362846D01*
D02*
G37*
G36*
X0039370D02*
X0037709Y0362682D01*
X0036112Y0362198D01*
X0034639Y0361411D01*
X0033349Y0360352D01*
X0032290Y0359061D01*
X0031503Y0357589D01*
X0031019Y0355992D01*
X0030855Y0354331D01*
X0031019Y0352670D01*
X0031503Y0351072D01*
X0032290Y0349600D01*
X0033349Y0348310D01*
X0034639Y0347251D01*
X0036112Y0346464D01*
X0037709Y0345979D01*
X0039370Y0345816D01*
X0041031Y0345979D01*
X0042629Y0346464D01*
X0044101Y0347251D01*
X0045391Y0348310D01*
X0046450Y0349600D01*
X0047237Y0351072D01*
X0047721Y0352670D01*
X0047885Y0354331D01*
X0047721Y0355992D01*
X0047237Y0357589D01*
X0046450Y0359061D01*
X0045391Y0360352D01*
X0044101Y0361411D01*
X0042629Y0362198D01*
X0041031Y0362682D01*
X0039370Y0362846D01*
D02*
G37*
G36*
X0258000Y0299648D02*
X0256538Y0299456D01*
X0255176Y0298892D01*
X0254006Y0297994D01*
X0253108Y0296824D01*
X0252544Y0295462D01*
X0252352Y0294000D01*
X0252544Y0292538D01*
X0253108Y0291176D01*
X0254006Y0290006D01*
X0255176Y0289108D01*
X0256538Y0288544D01*
X0258000Y0288352D01*
X0259462Y0288544D01*
X0260824Y0289108D01*
X0261994Y0290006D01*
X0262892Y0291176D01*
X0263456Y0292538D01*
X0263648Y0294000D01*
X0263456Y0295462D01*
X0262892Y0296824D01*
X0261994Y0297994D01*
X0260824Y0298892D01*
X0259462Y0299456D01*
X0258000Y0299648D01*
D02*
G37*
G36*
X0306500Y0296148D02*
X0305038Y0295956D01*
X0303676Y0295392D01*
X0302506Y0294494D01*
X0301608Y0293324D01*
X0301044Y0291962D01*
X0300852Y0290500D01*
X0301044Y0289038D01*
X0301608Y0287676D01*
X0302506Y0286506D01*
X0303676Y0285608D01*
X0305038Y0285044D01*
X0306500Y0284852D01*
X0307962Y0285044D01*
X0309324Y0285608D01*
X0310494Y0286506D01*
X0311392Y0287676D01*
X0311956Y0289038D01*
X0312148Y0290500D01*
X0311956Y0291962D01*
X0311392Y0293324D01*
X0310494Y0294494D01*
X0309324Y0295392D01*
X0307962Y0295956D01*
X0306500Y0296148D01*
D02*
G37*
G36*
Y0284148D02*
X0305038Y0283956D01*
X0303676Y0283392D01*
X0302506Y0282494D01*
X0301608Y0281324D01*
X0301044Y0279962D01*
X0300852Y0278500D01*
X0301044Y0277038D01*
X0301608Y0275676D01*
X0302506Y0274506D01*
X0303676Y0273608D01*
X0305038Y0273044D01*
X0306500Y0272852D01*
X0307962Y0273044D01*
X0309324Y0273608D01*
X0310494Y0274506D01*
X0311392Y0275676D01*
X0311956Y0277038D01*
X0312148Y0278500D01*
X0311956Y0279962D01*
X0311392Y0281324D01*
X0310494Y0282494D01*
X0309324Y0283392D01*
X0307962Y0283956D01*
X0306500Y0284148D01*
D02*
G37*
G36*
X0247500Y0283148D02*
X0246038Y0282956D01*
X0244676Y0282392D01*
X0243506Y0281494D01*
X0242608Y0280324D01*
X0242044Y0278962D01*
X0241852Y0277500D01*
X0242044Y0276038D01*
X0242608Y0274676D01*
X0243506Y0273506D01*
X0244676Y0272608D01*
X0246038Y0272044D01*
X0247500Y0271852D01*
X0248962Y0272044D01*
X0250324Y0272608D01*
X0251494Y0273506D01*
X0252392Y0274676D01*
X0252956Y0276038D01*
X0253148Y0277500D01*
X0252956Y0278962D01*
X0252392Y0280324D01*
X0251494Y0281494D01*
X0250324Y0282392D01*
X0248962Y0282956D01*
X0247500Y0283148D01*
D02*
G37*
G36*
X0241053Y0261553D02*
X0233947D01*
Y0254447D01*
X0241053D01*
Y0261553D01*
D02*
G37*
G36*
X0227500Y0261583D02*
X0226573Y0261461D01*
X0225708Y0261103D01*
X0224966Y0260534D01*
X0224397Y0259792D01*
X0224039Y0258927D01*
X0223917Y0258000D01*
X0224039Y0257073D01*
X0224397Y0256208D01*
X0224966Y0255466D01*
X0225708Y0254897D01*
X0226573Y0254539D01*
X0227500Y0254417D01*
X0228427Y0254539D01*
X0229292Y0254897D01*
X0230034Y0255466D01*
X0230603Y0256208D01*
X0230961Y0257073D01*
X0231083Y0258000D01*
X0230961Y0258927D01*
X0230603Y0259792D01*
X0230034Y0260534D01*
X0229292Y0261103D01*
X0228427Y0261461D01*
X0227500Y0261583D01*
D02*
G37*
G36*
X0207500D02*
X0206573Y0261461D01*
X0205708Y0261103D01*
X0204966Y0260534D01*
X0204397Y0259792D01*
X0204039Y0258927D01*
X0203917Y0258000D01*
X0204039Y0257073D01*
X0204397Y0256208D01*
X0204966Y0255466D01*
X0205708Y0254897D01*
X0206573Y0254539D01*
X0207500Y0254417D01*
X0208427Y0254539D01*
X0209292Y0254897D01*
X0210034Y0255466D01*
X0210603Y0256208D01*
X0210961Y0257073D01*
X0211083Y0258000D01*
X0210961Y0258927D01*
X0210603Y0259792D01*
X0210034Y0260534D01*
X0209292Y0261103D01*
X0208427Y0261461D01*
X0207500Y0261583D01*
D02*
G37*
G36*
X0227500Y0251583D02*
X0226573Y0251461D01*
X0225708Y0251103D01*
X0224966Y0250534D01*
X0224397Y0249792D01*
X0224039Y0248927D01*
X0223917Y0248000D01*
X0224039Y0247073D01*
X0224397Y0246208D01*
X0224966Y0245466D01*
X0225708Y0244897D01*
X0226573Y0244539D01*
X0227500Y0244417D01*
X0228427Y0244539D01*
X0229292Y0244897D01*
X0230034Y0245466D01*
X0230603Y0246208D01*
X0230961Y0247073D01*
X0231083Y0248000D01*
X0230961Y0248927D01*
X0230603Y0249792D01*
X0230034Y0250534D01*
X0229292Y0251103D01*
X0228427Y0251461D01*
X0227500Y0251583D01*
D02*
G37*
G36*
X0217500D02*
X0216573Y0251461D01*
X0215708Y0251103D01*
X0214966Y0250534D01*
X0214397Y0249792D01*
X0214039Y0248927D01*
X0213917Y0248000D01*
X0214039Y0247073D01*
X0214397Y0246208D01*
X0214966Y0245466D01*
X0215708Y0244897D01*
X0216573Y0244539D01*
X0217500Y0244417D01*
X0218427Y0244539D01*
X0219292Y0244897D01*
X0220034Y0245466D01*
X0220603Y0246208D01*
X0220961Y0247073D01*
X0221083Y0248000D01*
X0220961Y0248927D01*
X0220603Y0249792D01*
X0220034Y0250534D01*
X0219292Y0251103D01*
X0218427Y0251461D01*
X0217500Y0251583D01*
D02*
G37*
G36*
Y0261583D02*
X0216573Y0261461D01*
X0215708Y0261103D01*
X0214966Y0260534D01*
X0214397Y0259792D01*
X0214039Y0258927D01*
X0213920Y0258025D01*
X0213898Y0257972D01*
X0213896Y0257506D01*
X0213883Y0257094D01*
X0213820Y0256368D01*
X0213774Y0256084D01*
X0213719Y0255838D01*
X0213658Y0255641D01*
X0213596Y0255492D01*
X0213539Y0255396D01*
X0213457Y0255295D01*
X0213439Y0255237D01*
X0211851Y0253649D01*
X0211652Y0253351D01*
X0211582Y0253000D01*
Y0243580D01*
X0201951Y0233949D01*
X0201752Y0233651D01*
X0201715Y0233464D01*
X0201651Y0233325D01*
X0201648Y0233246D01*
X0201643Y0233201D01*
X0201635Y0233163D01*
X0201625Y0233133D01*
X0201615Y0233108D01*
X0201603Y0233087D01*
X0201589Y0233067D01*
X0201572Y0233047D01*
X0201550Y0233025D01*
X0201498Y0232984D01*
X0201478Y0232949D01*
X0201441Y0232934D01*
X0201416Y0232874D01*
X0201302Y0232798D01*
X0200904Y0232202D01*
X0200765Y0231500D01*
X0200904Y0230798D01*
X0201302Y0230202D01*
X0201898Y0229804D01*
X0202600Y0229665D01*
X0203302Y0229804D01*
X0203898Y0230202D01*
X0204296Y0230798D01*
X0204435Y0231500D01*
X0204296Y0232202D01*
X0203898Y0232798D01*
X0203914Y0233254D01*
X0203960Y0233349D01*
X0203991Y0233394D01*
X0213149Y0242551D01*
X0213348Y0242849D01*
X0213418Y0243200D01*
Y0252620D01*
X0214737Y0253939D01*
X0214795Y0253957D01*
X0214896Y0254039D01*
X0214992Y0254096D01*
X0215141Y0254158D01*
X0215338Y0254219D01*
X0215584Y0254274D01*
X0215862Y0254319D01*
X0217017Y0254397D01*
X0217472Y0254398D01*
X0217525Y0254420D01*
X0218427Y0254539D01*
X0219292Y0254897D01*
X0220034Y0255466D01*
X0220603Y0256208D01*
X0220961Y0257073D01*
X0221083Y0258000D01*
X0220961Y0258927D01*
X0220603Y0259792D01*
X0220034Y0260534D01*
X0219292Y0261103D01*
X0218427Y0261461D01*
X0217500Y0261583D01*
D02*
G37*
G36*
X0207500Y0251583D02*
X0206573Y0251461D01*
X0205708Y0251103D01*
X0204966Y0250534D01*
X0204397Y0249792D01*
X0204039Y0248927D01*
X0203920Y0248025D01*
X0203898Y0247972D01*
X0203896Y0247506D01*
X0203883Y0247094D01*
X0203820Y0246369D01*
X0203774Y0246084D01*
X0203719Y0245838D01*
X0203658Y0245640D01*
X0203596Y0245493D01*
X0203539Y0245396D01*
X0203457Y0245295D01*
X0203439Y0245236D01*
X0177329Y0219126D01*
X0177000Y0218971D01*
X0176671Y0219126D01*
X0175918Y0219880D01*
Y0225871D01*
X0175848Y0226222D01*
X0175649Y0226519D01*
X0155519Y0246649D01*
X0155222Y0246848D01*
X0154871Y0246918D01*
X0151857D01*
X0151792Y0246949D01*
X0151727Y0246952D01*
X0151694Y0246957D01*
X0151654Y0246968D01*
X0151608Y0246985D01*
X0151555Y0247010D01*
X0151495Y0247045D01*
X0151437Y0247085D01*
X0151271Y0247221D01*
X0151185Y0247306D01*
X0151126Y0247329D01*
X0150577Y0247696D01*
X0149875Y0247835D01*
X0149173Y0247696D01*
X0148577Y0247298D01*
X0148179Y0246702D01*
X0148040Y0246000D01*
X0148179Y0245298D01*
X0148577Y0244702D01*
X0149173Y0244304D01*
X0149875Y0244165D01*
X0150577Y0244304D01*
X0151126Y0244671D01*
X0151185Y0244694D01*
X0151278Y0244785D01*
X0151356Y0244853D01*
X0151428Y0244910D01*
X0151495Y0244955D01*
X0151555Y0244990D01*
X0151608Y0245015D01*
X0151654Y0245032D01*
X0151694Y0245043D01*
X0151727Y0245048D01*
X0151792Y0245052D01*
X0151857Y0245082D01*
X0154491D01*
X0174082Y0225490D01*
Y0219500D01*
X0174152Y0219149D01*
X0174351Y0218851D01*
X0175774Y0217428D01*
X0175800Y0217357D01*
X0175864Y0217289D01*
X0175906Y0217237D01*
X0175940Y0217186D01*
X0175969Y0217135D01*
X0175993Y0217083D01*
X0176013Y0217029D01*
X0176029Y0216972D01*
X0176040Y0216912D01*
X0176048Y0216846D01*
X0176051Y0216753D01*
X0176082Y0216684D01*
Y0215982D01*
X0176051Y0215917D01*
X0176048Y0215852D01*
X0176043Y0215819D01*
X0176032Y0215779D01*
X0176015Y0215733D01*
X0175990Y0215680D01*
X0175955Y0215620D01*
X0175915Y0215562D01*
X0175779Y0215396D01*
X0175694Y0215310D01*
X0175671Y0215251D01*
X0175304Y0214702D01*
X0175165Y0214000D01*
X0175304Y0213298D01*
X0175702Y0212702D01*
X0176298Y0212304D01*
X0177000Y0212165D01*
X0177702Y0212304D01*
X0178298Y0212702D01*
X0178696Y0213298D01*
X0178835Y0214000D01*
X0178696Y0214702D01*
X0178329Y0215251D01*
X0178306Y0215310D01*
X0178215Y0215403D01*
X0178147Y0215481D01*
X0178090Y0215553D01*
X0178045Y0215620D01*
X0178010Y0215680D01*
X0177985Y0215733D01*
X0177968Y0215779D01*
X0177957Y0215819D01*
X0177952Y0215852D01*
X0177948Y0215917D01*
X0177918Y0215982D01*
Y0216684D01*
X0177949Y0216753D01*
X0177952Y0216846D01*
X0177960Y0216912D01*
X0177971Y0216972D01*
X0177987Y0217029D01*
X0178007Y0217083D01*
X0178031Y0217135D01*
X0178060Y0217186D01*
X0178094Y0217237D01*
X0178136Y0217289D01*
X0178200Y0217357D01*
X0178226Y0217428D01*
X0204736Y0243939D01*
X0204795Y0243957D01*
X0204895Y0244039D01*
X0204993Y0244096D01*
X0205140Y0244158D01*
X0205339Y0244219D01*
X0205584Y0244274D01*
X0205862Y0244319D01*
X0207017Y0244397D01*
X0207472Y0244398D01*
X0207525Y0244420D01*
X0208427Y0244539D01*
X0209292Y0244897D01*
X0210034Y0245466D01*
X0210603Y0246208D01*
X0210961Y0247073D01*
X0211083Y0248000D01*
X0210961Y0248927D01*
X0210603Y0249792D01*
X0210034Y0250534D01*
X0209292Y0251103D01*
X0208427Y0251461D01*
X0207500Y0251583D01*
D02*
G37*
G36*
X0312753Y0225650D02*
X0305647D01*
Y0218545D01*
X0312753D01*
Y0225650D01*
D02*
G37*
G36*
X0309200Y0215681D02*
X0308273Y0215559D01*
X0307408Y0215201D01*
X0306666Y0214631D01*
X0306097Y0213889D01*
X0305739Y0213025D01*
X0305617Y0212097D01*
X0305739Y0211170D01*
X0306097Y0210306D01*
X0306666Y0209563D01*
X0307408Y0208994D01*
X0308273Y0208636D01*
X0309200Y0208514D01*
X0310127Y0208636D01*
X0310992Y0208994D01*
X0311734Y0209563D01*
X0312303Y0210306D01*
X0312661Y0211170D01*
X0312783Y0212097D01*
X0312661Y0213025D01*
X0312303Y0213889D01*
X0311734Y0214631D01*
X0310992Y0215201D01*
X0310127Y0215559D01*
X0309200Y0215681D01*
D02*
G37*
G36*
X0140000Y0236835D02*
X0139298Y0236696D01*
X0138702Y0236298D01*
X0138304Y0235702D01*
X0138165Y0235000D01*
X0138304Y0234298D01*
X0138702Y0233702D01*
X0139298Y0233304D01*
X0139609Y0233243D01*
X0139717Y0233173D01*
X0139784Y0233160D01*
X0139827Y0233149D01*
X0139872Y0233134D01*
X0139920Y0233113D01*
X0139971Y0233087D01*
X0140024Y0233054D01*
X0140075Y0233020D01*
X0140211Y0232908D01*
X0140280Y0232841D01*
X0140345Y0232817D01*
X0168954Y0204207D01*
X0169318Y0203964D01*
X0169747Y0203878D01*
X0169747Y0203878D01*
X0175609D01*
X0175671Y0203851D01*
X0175750Y0203849D01*
X0175940Y0203585D01*
X0175994Y0203500D01*
X0175941Y0203416D01*
X0175750Y0203151D01*
X0175671Y0203149D01*
X0175609Y0203122D01*
X0168465D01*
X0161093Y0210493D01*
X0160729Y0210736D01*
X0160300Y0210822D01*
X0160300Y0210822D01*
X0130586D01*
X0130583Y0210824D01*
X0130562Y0210822D01*
X0130485D01*
X0130424Y0210849D01*
X0130325Y0210852D01*
X0130260Y0210859D01*
X0130208Y0210869D01*
X0130170Y0210880D01*
X0130144Y0210890D01*
X0130128Y0210898D01*
X0130120Y0210905D01*
X0130114Y0210909D01*
X0130110Y0210915D01*
X0130082Y0210957D01*
X0129979Y0211026D01*
X0129798Y0211298D01*
X0129202Y0211696D01*
X0128500Y0211835D01*
X0127798Y0211696D01*
X0127202Y0211298D01*
X0126804Y0210702D01*
X0126665Y0210000D01*
X0126804Y0209298D01*
X0127111Y0208838D01*
X0127168Y0208500D01*
X0127111Y0208162D01*
X0126804Y0207702D01*
X0126665Y0207000D01*
X0126804Y0206298D01*
X0127202Y0205702D01*
X0127429Y0205551D01*
Y0204949D01*
X0127202Y0204798D01*
X0126804Y0204202D01*
X0126665Y0203500D01*
X0126804Y0202798D01*
X0127202Y0202202D01*
X0127429Y0202051D01*
Y0201449D01*
X0127202Y0201298D01*
X0126804Y0200702D01*
X0126665Y0200000D01*
X0126804Y0199298D01*
X0127202Y0198702D01*
Y0198298D01*
X0126804Y0197702D01*
X0126665Y0197000D01*
X0126804Y0196298D01*
X0127202Y0195702D01*
X0127798Y0195304D01*
X0128500Y0195165D01*
X0129202Y0195304D01*
X0129751Y0195671D01*
X0129810Y0195694D01*
X0129903Y0195785D01*
X0129981Y0195853D01*
X0130053Y0195910D01*
X0130120Y0195955D01*
X0130180Y0195990D01*
X0130233Y0196015D01*
X0130279Y0196032D01*
X0130319Y0196043D01*
X0130352Y0196048D01*
X0130417Y0196052D01*
X0130482Y0196082D01*
X0142620D01*
X0153351Y0185351D01*
X0153649Y0185152D01*
X0154000Y0185082D01*
X0196519D01*
X0196583Y0185052D01*
X0196648Y0185048D01*
X0196681Y0185043D01*
X0196721Y0185032D01*
X0196767Y0185015D01*
X0196820Y0184990D01*
X0196880Y0184955D01*
X0196938Y0184915D01*
X0197104Y0184779D01*
X0197190Y0184694D01*
X0197249Y0184671D01*
X0197798Y0184304D01*
X0198500Y0184165D01*
X0199202Y0184304D01*
X0199798Y0184702D01*
X0200196Y0185298D01*
X0200335Y0186000D01*
X0200196Y0186702D01*
X0199798Y0187298D01*
X0199202Y0187696D01*
X0198500Y0187835D01*
X0197798Y0187696D01*
X0197249Y0187329D01*
X0197190Y0187306D01*
X0197097Y0187215D01*
X0197019Y0187147D01*
X0196981Y0187117D01*
X0196832Y0187116D01*
X0196824Y0187118D01*
X0196728Y0187635D01*
X0196748Y0187669D01*
X0196798Y0187702D01*
X0197196Y0188298D01*
X0197335Y0189000D01*
X0197196Y0189702D01*
X0196798Y0190298D01*
X0196202Y0190696D01*
X0195500Y0190835D01*
X0194798Y0190696D01*
X0194249Y0190329D01*
X0194190Y0190306D01*
X0194097Y0190215D01*
X0194019Y0190147D01*
X0193947Y0190090D01*
X0193880Y0190045D01*
X0193820Y0190010D01*
X0193767Y0189985D01*
X0193721Y0189968D01*
X0193681Y0189957D01*
X0193648Y0189952D01*
X0193583Y0189948D01*
X0193518Y0189918D01*
X0156380D01*
X0145649Y0200649D01*
X0145351Y0200848D01*
X0145000Y0200918D01*
X0130482D01*
X0130417Y0200949D01*
X0130352Y0200952D01*
X0130319Y0200957D01*
X0130279Y0200968D01*
X0130233Y0200985D01*
X0130180Y0201010D01*
X0130120Y0201045D01*
X0130062Y0201085D01*
X0129896Y0201221D01*
X0129810Y0201306D01*
X0129751Y0201329D01*
X0129571Y0201449D01*
Y0202051D01*
X0129735Y0202161D01*
X0129799Y0202184D01*
X0129846Y0202228D01*
X0129873Y0202249D01*
X0129904Y0202268D01*
X0129939Y0202286D01*
X0129981Y0202303D01*
X0130030Y0202318D01*
X0130087Y0202331D01*
X0130152Y0202341D01*
X0130227Y0202348D01*
X0130329Y0202351D01*
X0130391Y0202378D01*
X0158005D01*
X0165177Y0195207D01*
X0165177Y0195207D01*
X0165541Y0194964D01*
X0165970Y0194878D01*
X0175609D01*
X0175671Y0194851D01*
X0175773Y0194848D01*
X0175847Y0194841D01*
X0175913Y0194831D01*
X0175970Y0194818D01*
X0176019Y0194803D01*
X0176061Y0194786D01*
X0176096Y0194768D01*
X0176127Y0194749D01*
X0176154Y0194728D01*
X0176201Y0194684D01*
X0176265Y0194660D01*
X0176798Y0194304D01*
X0177500Y0194165D01*
X0178202Y0194304D01*
X0178798Y0194702D01*
X0179196Y0195298D01*
X0179335Y0196000D01*
X0179196Y0196702D01*
X0178798Y0197298D01*
Y0197702D01*
X0179196Y0198298D01*
X0179335Y0199000D01*
X0179196Y0199702D01*
X0178798Y0200298D01*
Y0200702D01*
X0179196Y0201298D01*
X0179335Y0202000D01*
X0179196Y0202702D01*
X0178798Y0203298D01*
Y0203702D01*
X0179196Y0204298D01*
X0179335Y0205000D01*
X0179196Y0205702D01*
X0178798Y0206298D01*
X0178202Y0206696D01*
X0177500Y0206835D01*
X0176798Y0206696D01*
X0176265Y0206340D01*
X0176201Y0206316D01*
X0176154Y0206272D01*
X0176127Y0206251D01*
X0176096Y0206232D01*
X0176061Y0206214D01*
X0176019Y0206197D01*
X0175970Y0206182D01*
X0175913Y0206169D01*
X0175847Y0206159D01*
X0175773Y0206152D01*
X0175671Y0206149D01*
X0175609Y0206121D01*
X0170212D01*
X0142090Y0234243D01*
X0142082Y0234278D01*
X0142043Y0234302D01*
X0142027Y0234345D01*
X0141959Y0234418D01*
X0141915Y0234471D01*
X0141882Y0234519D01*
X0141858Y0234559D01*
X0141842Y0234594D01*
X0141833Y0234622D01*
X0141827Y0234645D01*
X0141825Y0234665D01*
X0141825Y0234685D01*
X0141831Y0234741D01*
X0141803Y0234836D01*
X0141835Y0235000D01*
X0141696Y0235702D01*
X0141298Y0236298D01*
X0140702Y0236696D01*
X0140000Y0236835D01*
D02*
G37*
G36*
X0312753Y0196450D02*
X0305647D01*
Y0189345D01*
X0312753D01*
Y0196450D01*
D02*
G37*
G36*
X0309200Y0186481D02*
X0308273Y0186359D01*
X0307408Y0186001D01*
X0306666Y0185431D01*
X0306097Y0184689D01*
X0305739Y0183825D01*
X0305617Y0182897D01*
X0305739Y0181970D01*
X0306097Y0181105D01*
X0306666Y0180363D01*
X0307408Y0179794D01*
X0308273Y0179436D01*
X0309200Y0179314D01*
X0310127Y0179436D01*
X0310992Y0179794D01*
X0311734Y0180363D01*
X0312303Y0181105D01*
X0312661Y0181970D01*
X0312783Y0182897D01*
X0312661Y0183825D01*
X0312303Y0184689D01*
X0311734Y0185431D01*
X0310992Y0186001D01*
X0310127Y0186359D01*
X0309200Y0186481D01*
D02*
G37*
G36*
X0120500Y0190148D02*
X0119038Y0189956D01*
X0117676Y0189392D01*
X0116506Y0188494D01*
X0115608Y0187324D01*
X0115044Y0185962D01*
X0114852Y0184500D01*
X0115044Y0183038D01*
X0115608Y0181676D01*
X0116506Y0180506D01*
X0117676Y0179608D01*
X0119038Y0179044D01*
X0120500Y0178852D01*
X0121962Y0179044D01*
X0123324Y0179608D01*
X0124494Y0180506D01*
X0125392Y0181676D01*
X0125956Y0183038D01*
X0126148Y0184500D01*
X0125956Y0185962D01*
X0125392Y0187324D01*
X0124494Y0188494D01*
X0123324Y0189392D01*
X0121962Y0189956D01*
X0120500Y0190148D01*
D02*
G37*
G36*
Y0175148D02*
X0119038Y0174956D01*
X0117676Y0174392D01*
X0116506Y0173494D01*
X0115608Y0172324D01*
X0115044Y0170962D01*
X0114852Y0169500D01*
X0115044Y0168038D01*
X0115608Y0166676D01*
X0116506Y0165506D01*
X0117676Y0164608D01*
X0119038Y0164044D01*
X0120500Y0163852D01*
X0121962Y0164044D01*
X0123324Y0164608D01*
X0124494Y0165506D01*
X0125392Y0166676D01*
X0125956Y0168038D01*
X0126148Y0169500D01*
X0125956Y0170962D01*
X0125392Y0172324D01*
X0124494Y0173494D01*
X0123324Y0174392D01*
X0121962Y0174956D01*
X0120500Y0175148D01*
D02*
G37*
G36*
X0079000Y0123148D02*
X0077538Y0122956D01*
X0076176Y0122392D01*
X0075006Y0121494D01*
X0074108Y0120324D01*
X0073544Y0118962D01*
X0073352Y0117500D01*
X0073544Y0116038D01*
X0074108Y0114676D01*
X0075006Y0113506D01*
X0076176Y0112608D01*
X0077538Y0112044D01*
X0079000Y0111852D01*
X0080462Y0112044D01*
X0081824Y0112608D01*
X0082994Y0113506D01*
X0083892Y0114676D01*
X0084456Y0116038D01*
X0084648Y0117500D01*
X0084456Y0118962D01*
X0083892Y0120324D01*
X0082994Y0121494D01*
X0081824Y0122392D01*
X0080462Y0122956D01*
X0079000Y0123148D01*
D02*
G37*
G36*
X0306461Y0119416D02*
X0304999Y0119224D01*
X0303637Y0118659D01*
X0302467Y0117762D01*
X0301569Y0116592D01*
X0301005Y0115230D01*
X0300812Y0113768D01*
X0301005Y0112306D01*
X0301569Y0110944D01*
X0302467Y0109774D01*
X0303637Y0108876D01*
X0304999Y0108312D01*
X0306461Y0108119D01*
X0307923Y0108312D01*
X0309285Y0108876D01*
X0310455Y0109774D01*
X0311352Y0110944D01*
X0311916Y0112306D01*
X0312109Y0113768D01*
X0311916Y0115230D01*
X0311352Y0116592D01*
X0310455Y0117762D01*
X0309285Y0118659D01*
X0307923Y0119224D01*
X0306461Y0119416D01*
D02*
G37*
G36*
X0079000Y0107148D02*
X0077538Y0106956D01*
X0076176Y0106392D01*
X0075006Y0105494D01*
X0074108Y0104324D01*
X0073544Y0102962D01*
X0073352Y0101500D01*
X0073544Y0100038D01*
X0074108Y0098676D01*
X0075006Y0097506D01*
X0076176Y0096608D01*
X0077538Y0096044D01*
X0079000Y0095852D01*
X0080462Y0096044D01*
X0081824Y0096608D01*
X0082994Y0097506D01*
X0083892Y0098676D01*
X0084456Y0100038D01*
X0084648Y0101500D01*
X0084456Y0102962D01*
X0083892Y0104324D01*
X0082994Y0105494D01*
X0081824Y0106392D01*
X0080462Y0106956D01*
X0079000Y0107148D01*
D02*
G37*
G36*
X0306461Y0099731D02*
X0304999Y0099538D01*
X0303637Y0098974D01*
X0302467Y0098077D01*
X0301569Y0096907D01*
X0301005Y0095545D01*
X0300812Y0094083D01*
X0301005Y0092621D01*
X0301569Y0091259D01*
X0302467Y0090089D01*
X0303637Y0089191D01*
X0304999Y0088627D01*
X0306461Y0088434D01*
X0307923Y0088627D01*
X0309285Y0089191D01*
X0310455Y0090089D01*
X0311352Y0091259D01*
X0311916Y0092621D01*
X0312109Y0094083D01*
X0311916Y0095545D01*
X0311352Y0096907D01*
X0310455Y0098077D01*
X0309285Y0098974D01*
X0307923Y0099538D01*
X0306461Y0099731D01*
D02*
G37*
G36*
X0354331Y0047885D02*
X0352670Y0047721D01*
X0351072Y0047237D01*
X0349600Y0046450D01*
X0348310Y0045391D01*
X0347251Y0044101D01*
X0346464Y0042629D01*
X0345979Y0041031D01*
X0345816Y0039370D01*
X0345979Y0037709D01*
X0346464Y0036112D01*
X0347251Y0034639D01*
X0348310Y0033349D01*
X0349600Y0032290D01*
X0351072Y0031503D01*
X0352670Y0031019D01*
X0354331Y0030855D01*
X0355992Y0031019D01*
X0357589Y0031503D01*
X0359061Y0032290D01*
X0360352Y0033349D01*
X0361411Y0034639D01*
X0362198Y0036112D01*
X0362682Y0037709D01*
X0362846Y0039370D01*
X0362682Y0041031D01*
X0362198Y0042629D01*
X0361411Y0044101D01*
X0360352Y0045391D01*
X0359061Y0046450D01*
X0357589Y0047237D01*
X0355992Y0047721D01*
X0354331Y0047885D01*
D02*
G37*
G36*
X0039370D02*
X0037709Y0047721D01*
X0036112Y0047237D01*
X0034639Y0046450D01*
X0033349Y0045391D01*
X0032290Y0044101D01*
X0031503Y0042629D01*
X0031019Y0041031D01*
X0030855Y0039370D01*
X0031019Y0037709D01*
X0031503Y0036112D01*
X0032290Y0034639D01*
X0033349Y0033349D01*
X0034639Y0032290D01*
X0036112Y0031503D01*
X0037709Y0031019D01*
X0039370Y0030855D01*
X0041031Y0031019D01*
X0042629Y0031503D01*
X0044101Y0032290D01*
X0045391Y0033349D01*
X0046450Y0034639D01*
X0047237Y0036112D01*
X0047721Y0037709D01*
X0047885Y0039370D01*
X0047721Y0041031D01*
X0047237Y0042629D01*
X0046450Y0044101D01*
X0045391Y0045391D01*
X0044101Y0046450D01*
X0042629Y0047237D01*
X0041031Y0047721D01*
X0039370Y0047885D01*
D02*
G37*
%LPD*%
G36*
X0217471Y0255047D02*
X0216994Y0255046D01*
X0215789Y0254965D01*
X0215461Y0254912D01*
X0215171Y0254847D01*
X0214918Y0254769D01*
X0214702Y0254678D01*
X0214524Y0254574D01*
X0214382Y0254458D01*
X0213958Y0254882D01*
X0214074Y0255024D01*
X0214178Y0255202D01*
X0214269Y0255418D01*
X0214347Y0255671D01*
X0214412Y0255961D01*
X0214465Y0256289D01*
X0214532Y0257055D01*
X0214546Y0257494D01*
X0214547Y0257970D01*
X0217471Y0255047D01*
D02*
G37*
G36*
X0202904Y0233195D02*
X0202916Y0233095D01*
X0202936Y0233000D01*
X0202964Y0232910D01*
X0203000Y0232825D01*
X0203044Y0232745D01*
X0203096Y0232670D01*
X0203156Y0232600D01*
X0203224Y0232535D01*
X0203300Y0232475D01*
X0201900D01*
X0201976Y0232535D01*
X0202044Y0232600D01*
X0202104Y0232670D01*
X0202156Y0232745D01*
X0202200Y0232825D01*
X0202236Y0232910D01*
X0202264Y0233000D01*
X0202284Y0233095D01*
X0202296Y0233195D01*
X0202300Y0233300D01*
X0202900D01*
X0202904Y0233195D01*
D02*
G37*
G36*
X0150838Y0246737D02*
X0151047Y0246565D01*
X0151150Y0246494D01*
X0151253Y0246435D01*
X0151355Y0246386D01*
X0151456Y0246349D01*
X0151557Y0246322D01*
X0151657Y0246305D01*
X0151757Y0246300D01*
Y0245700D01*
X0151657Y0245695D01*
X0151557Y0245678D01*
X0151456Y0245651D01*
X0151355Y0245614D01*
X0151253Y0245565D01*
X0151150Y0245506D01*
X0151047Y0245435D01*
X0150942Y0245354D01*
X0150838Y0245263D01*
X0150732Y0245160D01*
Y0246840D01*
X0150838Y0246737D01*
D02*
G37*
G36*
X0207470Y0245047D02*
X0206994Y0245046D01*
X0205789Y0244965D01*
X0205461Y0244912D01*
X0205171Y0244847D01*
X0204918Y0244769D01*
X0204702Y0244678D01*
X0204524Y0244574D01*
X0204382Y0244458D01*
X0203958Y0244882D01*
X0204075Y0245024D01*
X0204178Y0245202D01*
X0204269Y0245418D01*
X0204347Y0245671D01*
X0204412Y0245961D01*
X0204465Y0246289D01*
X0204532Y0247055D01*
X0204546Y0247494D01*
X0204547Y0247971D01*
X0207470Y0245047D01*
D02*
G37*
G36*
X0177724Y0217800D02*
X0177644Y0217713D01*
X0177571Y0217623D01*
X0177508Y0217530D01*
X0177453Y0217432D01*
X0177406Y0217332D01*
X0177368Y0217228D01*
X0177338Y0217120D01*
X0177317Y0217009D01*
X0177304Y0216894D01*
X0177300Y0216776D01*
X0176700D01*
X0176696Y0216894D01*
X0176683Y0217009D01*
X0176662Y0217120D01*
X0176632Y0217228D01*
X0176594Y0217332D01*
X0176547Y0217432D01*
X0176492Y0217530D01*
X0176428Y0217623D01*
X0176356Y0217713D01*
X0176276Y0217800D01*
X0176576Y0218349D01*
X0176661Y0218272D01*
X0176745Y0218213D01*
X0176830Y0218170D01*
X0176915Y0218145D01*
X0177000Y0218136D01*
X0177085Y0218145D01*
X0177170Y0218170D01*
X0177255Y0218213D01*
X0177339Y0218272D01*
X0177424Y0218349D01*
X0177724Y0217800D01*
D02*
G37*
G36*
X0177305Y0215782D02*
X0177322Y0215682D01*
X0177349Y0215581D01*
X0177386Y0215480D01*
X0177435Y0215378D01*
X0177494Y0215275D01*
X0177565Y0215172D01*
X0177646Y0215067D01*
X0177737Y0214963D01*
X0177840Y0214857D01*
X0176160D01*
X0176263Y0214963D01*
X0176435Y0215172D01*
X0176506Y0215275D01*
X0176565Y0215378D01*
X0176614Y0215480D01*
X0176651Y0215581D01*
X0176678Y0215682D01*
X0176695Y0215782D01*
X0176700Y0215882D01*
X0177300D01*
X0177305Y0215782D01*
D02*
G37*
G36*
X0141175Y0234717D02*
X0141176Y0234624D01*
X0141187Y0234532D01*
X0141208Y0234441D01*
X0141240Y0234350D01*
X0141282Y0234259D01*
X0141334Y0234169D01*
X0141397Y0234079D01*
X0141470Y0233990D01*
X0141554Y0233901D01*
X0140729Y0233311D01*
X0140642Y0233395D01*
X0140465Y0233539D01*
X0140376Y0233600D01*
X0140287Y0233654D01*
X0140197Y0233701D01*
X0140107Y0233739D01*
X0140016Y0233771D01*
X0139925Y0233795D01*
X0139833Y0233812D01*
X0141185Y0234809D01*
X0141175Y0234717D01*
D02*
G37*
G36*
X0129590Y0210523D02*
X0129648Y0210455D01*
X0129714Y0210396D01*
X0129788Y0210344D01*
X0129871Y0210300D01*
X0129961Y0210264D01*
X0130059Y0210236D01*
X0130166Y0210216D01*
X0130280Y0210204D01*
X0130403Y0210200D01*
X0130114Y0209200D01*
X0129993Y0209198D01*
X0129766Y0209179D01*
X0129659Y0209164D01*
X0129460Y0209118D01*
X0129368Y0209088D01*
X0129280Y0209054D01*
X0129198Y0209016D01*
X0129120Y0208972D01*
X0129540Y0210599D01*
X0129590Y0210523D01*
D02*
G37*
G36*
X0129427Y0207775D02*
X0129502Y0207718D01*
X0129583Y0207667D01*
X0129670Y0207622D01*
X0129762Y0207585D01*
X0129860Y0207554D01*
X0129964Y0207531D01*
X0130074Y0207514D01*
X0130190Y0207503D01*
X0130311Y0207500D01*
Y0206500D01*
X0130190Y0206497D01*
X0130074Y0206486D01*
X0129964Y0206469D01*
X0129860Y0206446D01*
X0129762Y0206415D01*
X0129670Y0206378D01*
X0129583Y0206333D01*
X0129502Y0206282D01*
X0129427Y0206225D01*
X0129357Y0206160D01*
Y0207840D01*
X0129427Y0207775D01*
D02*
G37*
G36*
X0176643Y0204160D02*
X0176574Y0204225D01*
X0176498Y0204282D01*
X0176417Y0204333D01*
X0176330Y0204378D01*
X0176238Y0204415D01*
X0176140Y0204446D01*
X0176036Y0204469D01*
X0175926Y0204486D01*
X0175810Y0204497D01*
X0175689Y0204500D01*
Y0205500D01*
X0175810Y0205503D01*
X0175926Y0205514D01*
X0176036Y0205531D01*
X0176140Y0205554D01*
X0176238Y0205585D01*
X0176330Y0205622D01*
X0176417Y0205667D01*
X0176498Y0205718D01*
X0176574Y0205775D01*
X0176643Y0205840D01*
Y0204160D01*
D02*
G37*
G36*
X0129427Y0204275D02*
X0129502Y0204218D01*
X0129583Y0204167D01*
X0129670Y0204122D01*
X0129762Y0204085D01*
X0129860Y0204054D01*
X0129964Y0204031D01*
X0130074Y0204014D01*
X0130190Y0204003D01*
X0130311Y0204000D01*
Y0203000D01*
X0130190Y0202997D01*
X0130074Y0202986D01*
X0129964Y0202969D01*
X0129860Y0202946D01*
X0129762Y0202915D01*
X0129670Y0202878D01*
X0129583Y0202833D01*
X0129502Y0202782D01*
X0129427Y0202725D01*
X0129357Y0202660D01*
Y0204340D01*
X0129427Y0204275D01*
D02*
G37*
G36*
X0176643Y0201160D02*
X0176574Y0201225D01*
X0176498Y0201282D01*
X0176417Y0201333D01*
X0176330Y0201378D01*
X0176238Y0201415D01*
X0176140Y0201446D01*
X0176036Y0201469D01*
X0175926Y0201486D01*
X0175810Y0201497D01*
X0175689Y0201500D01*
Y0202500D01*
X0175810Y0202503D01*
X0175926Y0202514D01*
X0176036Y0202531D01*
X0176140Y0202554D01*
X0176238Y0202585D01*
X0176330Y0202622D01*
X0176417Y0202667D01*
X0176498Y0202718D01*
X0176574Y0202775D01*
X0176643Y0202840D01*
Y0201160D01*
D02*
G37*
G36*
X0129463Y0200737D02*
X0129672Y0200565D01*
X0129775Y0200494D01*
X0129878Y0200435D01*
X0129980Y0200386D01*
X0130081Y0200349D01*
X0130182Y0200322D01*
X0130282Y0200305D01*
X0130382Y0200300D01*
Y0199700D01*
X0130282Y0199695D01*
X0130182Y0199678D01*
X0130081Y0199651D01*
X0129980Y0199614D01*
X0129878Y0199565D01*
X0129775Y0199506D01*
X0129672Y0199435D01*
X0129567Y0199354D01*
X0129463Y0199263D01*
X0129357Y0199160D01*
Y0200840D01*
X0129463Y0200737D01*
D02*
G37*
G36*
X0176643Y0198160D02*
X0176574Y0198225D01*
X0176498Y0198282D01*
X0176417Y0198333D01*
X0176330Y0198378D01*
X0176238Y0198415D01*
X0176140Y0198446D01*
X0176036Y0198469D01*
X0175926Y0198486D01*
X0175810Y0198497D01*
X0175689Y0198500D01*
Y0199500D01*
X0175810Y0199503D01*
X0175926Y0199514D01*
X0176036Y0199531D01*
X0176140Y0199554D01*
X0176238Y0199585D01*
X0176330Y0199622D01*
X0176417Y0199667D01*
X0176498Y0199718D01*
X0176574Y0199775D01*
X0176643Y0199840D01*
Y0198160D01*
D02*
G37*
G36*
X0166207Y0198207D02*
X0166207Y0198207D01*
X0166571Y0197964D01*
X0167000Y0197878D01*
X0167000Y0197878D01*
X0175609D01*
X0175671Y0197851D01*
X0175750Y0197849D01*
X0175940Y0197585D01*
X0175994Y0197500D01*
X0175941Y0197416D01*
X0175750Y0197151D01*
X0175671Y0197149D01*
X0175609Y0197122D01*
X0166434D01*
X0159263Y0204293D01*
X0158899Y0204536D01*
X0158470Y0204622D01*
X0158470Y0204622D01*
X0130391D01*
X0130329Y0204649D01*
X0130227Y0204652D01*
X0130152Y0204659D01*
X0130087Y0204669D01*
X0130030Y0204682D01*
X0129981Y0204697D01*
X0129939Y0204714D01*
X0129904Y0204732D01*
X0129873Y0204751D01*
X0129846Y0204772D01*
X0129799Y0204816D01*
X0129735Y0204839D01*
X0129571Y0204949D01*
Y0205551D01*
X0129735Y0205661D01*
X0129799Y0205684D01*
X0129846Y0205728D01*
X0129873Y0205749D01*
X0129904Y0205768D01*
X0129939Y0205786D01*
X0129981Y0205803D01*
X0130030Y0205818D01*
X0130087Y0205831D01*
X0130152Y0205841D01*
X0130227Y0205848D01*
X0130329Y0205851D01*
X0130391Y0205878D01*
X0158535D01*
X0166207Y0198207D01*
D02*
G37*
G36*
X0129463Y0197737D02*
X0129672Y0197565D01*
X0129775Y0197494D01*
X0129878Y0197435D01*
X0129980Y0197386D01*
X0130081Y0197349D01*
X0130182Y0197322D01*
X0130282Y0197305D01*
X0130382Y0197300D01*
Y0196700D01*
X0130282Y0196695D01*
X0130182Y0196678D01*
X0130081Y0196651D01*
X0129980Y0196614D01*
X0129878Y0196565D01*
X0129775Y0196506D01*
X0129672Y0196435D01*
X0129567Y0196354D01*
X0129463Y0196263D01*
X0129357Y0196160D01*
Y0197840D01*
X0129463Y0197737D01*
D02*
G37*
G36*
X0176643Y0195160D02*
X0176574Y0195225D01*
X0176498Y0195282D01*
X0176417Y0195333D01*
X0176330Y0195378D01*
X0176238Y0195415D01*
X0176140Y0195446D01*
X0176036Y0195469D01*
X0175926Y0195486D01*
X0175810Y0195497D01*
X0175689Y0195500D01*
Y0196500D01*
X0175810Y0196503D01*
X0175926Y0196514D01*
X0176036Y0196531D01*
X0176140Y0196554D01*
X0176238Y0196585D01*
X0176330Y0196622D01*
X0176417Y0196667D01*
X0176498Y0196718D01*
X0176574Y0196775D01*
X0176643Y0196840D01*
Y0195160D01*
D02*
G37*
G36*
X0194643Y0188160D02*
X0194537Y0188263D01*
X0194328Y0188435D01*
X0194225Y0188506D01*
X0194122Y0188565D01*
X0194020Y0188614D01*
X0193919Y0188651D01*
X0193818Y0188678D01*
X0193718Y0188695D01*
X0193618Y0188700D01*
Y0189300D01*
X0193718Y0189305D01*
X0193818Y0189322D01*
X0193919Y0189349D01*
X0194020Y0189386D01*
X0194122Y0189435D01*
X0194225Y0189494D01*
X0194328Y0189565D01*
X0194433Y0189646D01*
X0194537Y0189737D01*
X0194643Y0189840D01*
Y0188160D01*
D02*
G37*
G36*
X0155351Y0188351D02*
X0155649Y0188152D01*
X0156000Y0188082D01*
X0193518D01*
X0193583Y0188051D01*
X0193648Y0188048D01*
X0193681Y0188043D01*
X0193721Y0188032D01*
X0193767Y0188015D01*
X0193820Y0187990D01*
X0193880Y0187955D01*
X0193938Y0187915D01*
X0194104Y0187779D01*
X0194190Y0187694D01*
X0194249Y0187671D01*
X0194628Y0187418D01*
X0194477Y0186918D01*
X0154380D01*
X0143649Y0197649D01*
X0143351Y0197848D01*
X0143000Y0197918D01*
X0130482D01*
X0130417Y0197949D01*
X0130352Y0197952D01*
X0130319Y0197957D01*
X0130279Y0197968D01*
X0130233Y0197985D01*
X0130180Y0198010D01*
X0130120Y0198045D01*
X0130062Y0198085D01*
X0129933Y0198191D01*
X0129904Y0198254D01*
X0129889Y0198325D01*
X0129889Y0198712D01*
X0129898Y0198758D01*
X0129931Y0198810D01*
X0129981Y0198853D01*
X0130053Y0198910D01*
X0130120Y0198955D01*
X0130180Y0198990D01*
X0130233Y0199015D01*
X0130279Y0199032D01*
X0130319Y0199043D01*
X0130352Y0199048D01*
X0130417Y0199051D01*
X0130482Y0199082D01*
X0144620D01*
X0155351Y0188351D01*
D02*
G37*
G36*
X0197643Y0185160D02*
X0197538Y0185263D01*
X0197328Y0185435D01*
X0197225Y0185506D01*
X0197122Y0185565D01*
X0197020Y0185614D01*
X0196918Y0185651D01*
X0196818Y0185678D01*
X0196718Y0185695D01*
X0196618Y0185700D01*
Y0186300D01*
X0196718Y0186305D01*
X0196818Y0186322D01*
X0196918Y0186349D01*
X0197020Y0186386D01*
X0197122Y0186435D01*
X0197225Y0186494D01*
X0197328Y0186565D01*
X0197433Y0186646D01*
X0197538Y0186737D01*
X0197643Y0186840D01*
Y0185160D01*
D02*
G37*
D12*
X0165970Y0196000D02*
X0177500D01*
X0158470Y0203500D02*
X0165970Y0196000D01*
X0140000Y0234747D02*
X0169747Y0205000D01*
X0140000Y0234747D02*
Y0235000D01*
X0128500Y0203500D02*
X0158470D01*
X0128500Y0207000D02*
X0159000D01*
X0167000Y0199000D01*
X0128800Y0209700D02*
X0160300D01*
X0128500Y0210000D02*
X0128800Y0209700D01*
X0167000Y0199000D02*
X0177500D01*
X0168000Y0202000D02*
X0177500D01*
X0160300Y0209700D02*
X0168000Y0202000D01*
X0169747Y0205000D02*
X0177500D01*
D70*
X0149875Y0246000D02*
X0154871D01*
X0175000Y0225871D01*
Y0219500D02*
Y0225871D01*
X0143000Y0197000D02*
X0154000Y0186000D01*
X0128500Y0197000D02*
X0143000D01*
X0145000Y0200000D02*
X0156000Y0189000D01*
X0128500Y0200000D02*
X0145000D01*
X0175000Y0219500D02*
X0177000Y0217500D01*
Y0214000D02*
Y0217500D01*
X0156000Y0189000D02*
X0195500D01*
X0154000Y0186000D02*
X0198500D01*
X0177000Y0217500D02*
X0207500Y0248000D01*
X0202600Y0231500D02*
Y0233300D01*
X0212500Y0243200D02*
Y0253000D01*
X0202600Y0233300D02*
X0212500Y0243200D01*
Y0253000D02*
X0217500Y0258000D01*
D73*
X0079000Y0117500D02*
D03*
Y0101500D02*
D03*
X0306500Y0290500D02*
D03*
Y0278500D02*
D03*
X0306461Y0094083D02*
D03*
Y0113768D02*
D03*
X0286776Y0103925D02*
D03*
X0277500Y0280500D02*
D03*
X0120500Y0154500D02*
D03*
Y0169500D02*
D03*
Y0184500D02*
D03*
X0247500Y0277500D02*
D03*
X0258000Y0294000D02*
D03*
D74*
X0309200Y0212097D02*
D03*
Y0182897D02*
D03*
X0227500Y0258000D02*
D03*
X0217500D02*
D03*
X0207500D02*
D03*
X0237500Y0248000D02*
D03*
X0227500D02*
D03*
X0217500D02*
D03*
X0207500D02*
D03*
D75*
X0309200Y0222097D02*
D03*
Y0192897D02*
D03*
D76*
X0039370Y0354331D02*
D03*
X0354331Y0039370D02*
D03*
Y0354331D02*
D03*
X0039370Y0039370D02*
D03*
D77*
X0237500Y0258000D02*
D03*
D78*
X0304900Y0326500D02*
D03*
X0305100Y0357500D02*
D03*
X0249504Y0326799D02*
D03*
X0249704Y0357799D02*
D03*
X0193734Y0326799D02*
D03*
X0193934Y0357799D02*
D03*
X0137963Y0326799D02*
D03*
X0138163Y0357799D02*
D03*
X0046299Y0163374D02*
D03*
X0322000Y0056500D02*
D03*
Y0025000D02*
D03*
X0068589Y0326799D02*
D03*
X0068789Y0357799D02*
D03*
X0090299Y0163089D02*
D03*
X0324500Y0296600D02*
D03*
X0355500Y0296400D02*
D03*
X0373201Y0218526D02*
D03*
X0342201Y0218726D02*
D03*
Y0170226D02*
D03*
X0324500Y0121474D02*
D03*
X0355500Y0121274D02*
D03*
X0262641Y0056201D02*
D03*
X0262441Y0025201D02*
D03*
X0203107D02*
D03*
X0143774D02*
D03*
X0088000Y0066700D02*
D03*
X0096500Y0075000D02*
D03*
X0105000Y0066500D02*
D03*
D79*
X0149875Y0246000D02*
D03*
X0373500Y0289500D02*
D03*
Y0105000D02*
D03*
X0324500Y0178000D02*
D03*
X0324000Y0234500D02*
D03*
X0181650Y0237353D02*
D03*
X0177500Y0196000D02*
D03*
X0140000Y0235000D02*
D03*
X0128500Y0197000D02*
D03*
Y0200000D02*
D03*
Y0203500D02*
D03*
Y0207000D02*
D03*
Y0210000D02*
D03*
X0151000Y0212000D02*
D03*
X0177000Y0214000D02*
D03*
X0177500Y0202000D02*
D03*
X0159850Y0238050D02*
D03*
X0155800Y0234000D02*
D03*
X0201632Y0064000D02*
D03*
X0205632Y0060000D02*
D03*
X0201632Y0056000D02*
D03*
X0142299D02*
D03*
Y0064000D02*
D03*
X0146299Y0060000D02*
D03*
X0050100Y0075900D02*
D03*
Y0060900D02*
D03*
X0042600Y0075900D02*
D03*
Y0060900D02*
D03*
X0046350Y0053400D02*
D03*
X0035100Y0090900D02*
D03*
Y0075900D02*
D03*
X0038850Y0068400D02*
D03*
X0035100Y0060900D02*
D03*
X0038850Y0053400D02*
D03*
X0027600Y0090900D02*
D03*
Y0075900D02*
D03*
X0031350Y0068400D02*
D03*
X0027600Y0060900D02*
D03*
X0031350Y0053400D02*
D03*
X0020100Y0090900D02*
D03*
X0023850Y0083400D02*
D03*
X0020100Y0075900D02*
D03*
X0023850Y0068400D02*
D03*
X0020100Y0060900D02*
D03*
X0023850Y0053400D02*
D03*
X0012600Y0090900D02*
D03*
X0016350Y0083400D02*
D03*
X0012600Y0075900D02*
D03*
X0016350Y0068400D02*
D03*
X0012600Y0060900D02*
D03*
X0016350Y0053400D02*
D03*
X0280300Y0199800D02*
D03*
X0285299Y0194600D02*
D03*
X0285499Y0223800D02*
D03*
X0209500Y0158902D02*
D03*
X0201500D02*
D03*
X0158100Y0227950D02*
D03*
X0185003Y0233600D02*
D03*
X0040000Y0310650D02*
D03*
X0045000Y0315650D02*
D03*
X0020432Y0212145D02*
D03*
Y0226358D02*
D03*
X0015905Y0219000D02*
D03*
X0151200Y0219200D02*
D03*
X0015728Y0240551D02*
D03*
X0020255Y0247909D02*
D03*
Y0233696D02*
D03*
X0023866Y0283650D02*
D03*
Y0292350D02*
D03*
X0020550Y0315098D02*
D03*
X0016200Y0310748D02*
D03*
X0010800Y0117900D02*
D03*
X0175501Y0158201D02*
D03*
X0171702Y0162000D02*
D03*
X0213299Y0162701D02*
D03*
X0162101Y0224000D02*
D03*
X0017000Y0288000D02*
D03*
X0153000Y0199500D02*
D03*
X0195500Y0189000D02*
D03*
X0198500Y0186000D02*
D03*
X0050000Y0310650D02*
D03*
X0177500Y0205000D02*
D03*
Y0199000D02*
D03*
X0280500Y0229000D02*
D03*
X0246500Y0190500D02*
D03*
Y0219500D02*
D03*
X0202600Y0231500D02*
D03*
X0230500Y0215000D02*
D03*
X0154000Y0224000D02*
D03*
X0140500Y0194500D02*
D03*
X0376142Y0285000D02*
D03*
X0321558Y0230441D02*
D03*
X0321858Y0182000D02*
D03*
X0375642Y0109500D02*
D03*
X0010866Y0110000D02*
D03*
M02*
