M48
;Layer_Color=9474304
;FILE_FORMAT=2:5
INCH,LZ
;TYPE=PLATED
T1F00S00C0.01200
T2F00S00C0.03543
T3F00S00C0.04016
;TYPE=NON_PLATED
T4F00S00C0.11811
%
T01
X0318Y0211
X0325905Y0212283
X0339294Y020342
X0355689Y0192
X0358Y02225
X0352362Y0228863
X03745Y0211
X0382Y02115
X039473Y0192
X0405366Y0180853
X03795Y0181
X0449142Y02125
X04335Y0232054
X0424899Y026135
X0406898Y0266343
X0364Y02765
X0338457Y0266051
X03315Y02515
X0318Y02425
X031663Y0289254
X03155Y02925
X0323641Y030341
X0342875Y029435
X0424899Y03045
X03115Y0299025
X02935Y030045
X0289916Y0300542
X02855Y0289
X0287782Y0284675
X028848Y0280875
X02885Y0277
X028848Y027235
X0294112
X0298621
X0301532Y0268046
X0308429
X0286Y0267
X0285508Y0248909
X0309Y02425
X0295974Y0228748
X0301Y02225
X0289Y0215
X02805Y02185
X02825Y02045
X02675Y0212
X0250135Y02235
X0244Y0227201
X0237Y0214
X0228016Y0214248
X0221098Y0211248
X0203606Y0222787
X01985Y02285
X0193866Y0256165
X0187Y0269
Y02765
X0193866Y0290787
X0215439Y0289561
X02195Y0281
X022Y0265
X02155Y0257
X02595Y02785
X0257825Y0288175
X0269295Y03085
X028796Y0324959
X03Y03185
X03065
X03055Y03135
X02775Y03445
X02535Y03395
X0259602Y0356165
X02393Y0349004
X02275Y0336
X0213762Y0315591
X02195Y0415
X01945Y04155
X0246347Y0419
X028162Y0419437
X02985Y03675
X0316311Y0419374
X0349
X03835Y0419687
X04165Y0419374
X0434Y03635
X0452142Y0359
X0413Y0329547
X0365784Y0328257
X03405Y0325757
T02
X0398421Y0257216
Y0267216
X0398727Y0309753
X0303Y03465
X0293
Y03565
X0303
X0313
Y03465
X0323
Y03565
X0398727Y0319753
T03
X0352Y02375
X03775Y0257524
Y0270905
X0379Y0309169
X03925Y02015
X0306098Y0191
X02515
X0243Y02375
X02195
X02735
X0296Y0241
X0246Y02735
X02345Y02915
X02535Y03775
X0277137Y03765
X0327
X0343358Y0369506
X0361795
X0378Y03495
X0379Y0323561
T04
X0437996Y0189665
X0201776
Y0425886
X0437996
M30
