G04*
G04 #@! TF.GenerationSoftware,Altium Limited,Altium Designer,20.1.11 (218)*
G04*
G04 Layer_Color=8388736*
%FSAX25Y25*%
%MOIN*%
G70*
G04*
G04 #@! TF.SameCoordinates,AC60C541-8D92-4DB1-9754-A0BA6A31DCDC*
G04*
G04*
G04 #@! TF.FilePolarity,Negative*
G04*
G01*
G75*
G04:AMPARAMS|DCode=28|XSize=96.46mil|YSize=104.33mil|CornerRadius=9.74mil|HoleSize=0mil|Usage=FLASHONLY|Rotation=90.000|XOffset=0mil|YOffset=0mil|HoleType=Round|Shape=RoundedRectangle|*
%AMROUNDEDRECTD28*
21,1,0.09646,0.08484,0,0,90.0*
21,1,0.07697,0.10433,0,0,90.0*
1,1,0.01949,0.04242,0.03848*
1,1,0.01949,0.04242,-0.03848*
1,1,0.01949,-0.04242,-0.03848*
1,1,0.01949,-0.04242,0.03848*
%
%ADD28ROUNDEDRECTD28*%
G04:AMPARAMS|DCode=29|XSize=49.21mil|YSize=45.28mil|CornerRadius=6.89mil|HoleSize=0mil|Usage=FLASHONLY|Rotation=270.000|XOffset=0mil|YOffset=0mil|HoleType=Round|Shape=RoundedRectangle|*
%AMROUNDEDRECTD29*
21,1,0.04921,0.03150,0,0,270.0*
21,1,0.03543,0.04528,0,0,270.0*
1,1,0.01378,-0.01575,-0.01772*
1,1,0.01378,-0.01575,0.01772*
1,1,0.01378,0.01575,0.01772*
1,1,0.01378,0.01575,-0.01772*
%
%ADD29ROUNDEDRECTD29*%
G04:AMPARAMS|DCode=30|XSize=49.21mil|YSize=45.28mil|CornerRadius=5.91mil|HoleSize=0mil|Usage=FLASHONLY|Rotation=270.000|XOffset=0mil|YOffset=0mil|HoleType=Round|Shape=RoundedRectangle|*
%AMROUNDEDRECTD30*
21,1,0.04921,0.03347,0,0,270.0*
21,1,0.03740,0.04528,0,0,270.0*
1,1,0.01181,-0.01673,-0.01870*
1,1,0.01181,-0.01673,0.01870*
1,1,0.01181,0.01673,0.01870*
1,1,0.01181,0.01673,-0.01870*
%
%ADD30ROUNDEDRECTD30*%
G04:AMPARAMS|DCode=31|XSize=45.28mil|YSize=64.96mil|CornerRadius=6.89mil|HoleSize=0mil|Usage=FLASHONLY|Rotation=270.000|XOffset=0mil|YOffset=0mil|HoleType=Round|Shape=RoundedRectangle|*
%AMROUNDEDRECTD31*
21,1,0.04528,0.05118,0,0,270.0*
21,1,0.03150,0.06496,0,0,270.0*
1,1,0.01378,-0.02559,-0.01575*
1,1,0.01378,-0.02559,0.01575*
1,1,0.01378,0.02559,0.01575*
1,1,0.01378,0.02559,-0.01575*
%
%ADD31ROUNDEDRECTD31*%
%ADD32C,0.04528*%
%ADD33R,0.08200X0.04700*%
G04:AMPARAMS|DCode=34|XSize=49.21mil|YSize=45.28mil|CornerRadius=5.91mil|HoleSize=0mil|Usage=FLASHONLY|Rotation=180.000|XOffset=0mil|YOffset=0mil|HoleType=Round|Shape=RoundedRectangle|*
%AMROUNDEDRECTD34*
21,1,0.04921,0.03347,0,0,180.0*
21,1,0.03740,0.04528,0,0,180.0*
1,1,0.01181,-0.01870,0.01673*
1,1,0.01181,0.01870,0.01673*
1,1,0.01181,0.01870,-0.01673*
1,1,0.01181,-0.01870,-0.01673*
%
%ADD34ROUNDEDRECTD34*%
G04:AMPARAMS|DCode=35|XSize=104.33mil|YSize=183.07mil|CornerRadius=10.34mil|HoleSize=0mil|Usage=FLASHONLY|Rotation=0.000|XOffset=0mil|YOffset=0mil|HoleType=Round|Shape=RoundedRectangle|*
%AMROUNDEDRECTD35*
21,1,0.10433,0.16240,0,0,0.0*
21,1,0.08366,0.18307,0,0,0.0*
1,1,0.02067,0.04183,-0.08120*
1,1,0.02067,-0.04183,-0.08120*
1,1,0.02067,-0.04183,0.08120*
1,1,0.02067,0.04183,0.08120*
%
%ADD35ROUNDEDRECTD35*%
G04:AMPARAMS|DCode=36|XSize=57.09mil|YSize=57.09mil|CornerRadius=8.07mil|HoleSize=0mil|Usage=FLASHONLY|Rotation=0.000|XOffset=0mil|YOffset=0mil|HoleType=Round|Shape=RoundedRectangle|*
%AMROUNDEDRECTD36*
21,1,0.05709,0.04095,0,0,0.0*
21,1,0.04095,0.05709,0,0,0.0*
1,1,0.01614,0.02047,-0.02047*
1,1,0.01614,-0.02047,-0.02047*
1,1,0.01614,-0.02047,0.02047*
1,1,0.01614,0.02047,0.02047*
%
%ADD36ROUNDEDRECTD36*%
G04:AMPARAMS|DCode=37|XSize=45.28mil|YSize=45.28mil|CornerRadius=6.89mil|HoleSize=0mil|Usage=FLASHONLY|Rotation=0.000|XOffset=0mil|YOffset=0mil|HoleType=Round|Shape=RoundedRectangle|*
%AMROUNDEDRECTD37*
21,1,0.04528,0.03150,0,0,0.0*
21,1,0.03150,0.04528,0,0,0.0*
1,1,0.01378,0.01575,-0.01575*
1,1,0.01378,-0.01575,-0.01575*
1,1,0.01378,-0.01575,0.01575*
1,1,0.01378,0.01575,0.01575*
%
%ADD37ROUNDEDRECTD37*%
%ADD38O,0.08071X0.03543*%
G04:AMPARAMS|DCode=39|XSize=35.43mil|YSize=80.71mil|CornerRadius=5.17mil|HoleSize=0mil|Usage=FLASHONLY|Rotation=270.000|XOffset=0mil|YOffset=0mil|HoleType=Round|Shape=RoundedRectangle|*
%AMROUNDEDRECTD39*
21,1,0.03543,0.07037,0,0,270.0*
21,1,0.02510,0.08071,0,0,270.0*
1,1,0.01034,-0.03519,-0.01255*
1,1,0.01034,-0.03519,0.01255*
1,1,0.01034,0.03519,0.01255*
1,1,0.01034,0.03519,-0.01255*
%
%ADD39ROUNDEDRECTD39*%
%ADD40C,0.09646*%
%ADD41C,0.10591*%
%ADD42C,0.20079*%
D28*
X0095750Y0095342D02*
D03*
Y0076051D02*
D03*
D29*
X0084701Y0019000D02*
D03*
X0091000D02*
D03*
X0084701Y0027658D02*
D03*
X0091000D02*
D03*
X0042299Y0029963D02*
D03*
X0036000D02*
D03*
D30*
X0033484Y0074120D02*
D03*
X0027185D02*
D03*
Y0064250D02*
D03*
X0033484D02*
D03*
X0036000Y0005000D02*
D03*
X0042299D02*
D03*
X0036000Y0018342D02*
D03*
X0042299D02*
D03*
X0036000Y0042000D02*
D03*
X0042299D02*
D03*
X0036000Y0052000D02*
D03*
X0042299D02*
D03*
X0023325Y-0000963D02*
D03*
X0029625D02*
D03*
D31*
X0029000Y0012000D02*
D03*
X0021126Y0008260D02*
D03*
Y0015740D02*
D03*
D32*
X0012300Y0091700D02*
D03*
X0022000Y0050000D02*
D03*
X0029000Y0025000D02*
D03*
X0019800Y-0009200D02*
D03*
D33*
X0096000Y0066250D02*
D03*
Y0055750D02*
D03*
D34*
X0029000Y0043000D02*
D03*
Y0036701D02*
D03*
X0022000Y0031299D02*
D03*
Y0025000D02*
D03*
D35*
X0064000Y0100126D02*
D03*
Y0065874D02*
D03*
D36*
X0027106Y0086894D02*
D03*
X0035374D02*
D03*
D37*
X0049336Y-0009200D02*
D03*
D38*
X0074921Y0005842D02*
D03*
D39*
Y0010842D02*
D03*
Y0015842D02*
D03*
Y0020842D02*
D03*
Y0025842D02*
D03*
Y0030842D02*
D03*
Y0035842D02*
D03*
Y0040842D02*
D03*
X0052677Y0005842D02*
D03*
Y0010842D02*
D03*
Y0015842D02*
D03*
Y0020842D02*
D03*
Y0025842D02*
D03*
Y0030842D02*
D03*
Y0035842D02*
D03*
Y0040842D02*
D03*
D40*
X-0001000Y0025315D02*
D03*
Y0045000D02*
D03*
Y0064685D02*
D03*
X0124000Y0060315D02*
D03*
Y0040630D02*
D03*
Y0080000D02*
D03*
Y0020945D02*
D03*
D41*
X0107000Y0099900D02*
D03*
X0027000Y0104000D02*
D03*
D42*
X0000000Y0103000D02*
D03*
X0124000D02*
D03*
Y-0002000D02*
D03*
X0000000Y0000000D02*
D03*
M02*
