G04 DipTrace 3.2.0.1*
G04 BottomMask.gbr*
%MOIN*%
G04 #@! TF.FileFunction,Soldermask,Bot*
G04 #@! TF.Part,Single*
%ADD62C,0.043307*%
%ADD63C,0.11811*%
%ADD91C,0.066929*%
%ADD112C,0.057087*%
%ADD114R,0.057087X0.057087*%
%ADD118R,0.051181X0.047244*%
%ADD124R,0.047244X0.051181*%
%ADD125C,0.055118*%
%ADD127R,0.055118X0.055118*%
%ADD129R,0.066929X0.066929*%
%FSLAX26Y26*%
G04*
G70*
G90*
G75*
G01*
G04 BotMask*
%LPD*%
D129*
X2270978Y1254487D3*
X2614692Y1679442D3*
X3480315Y1039370D3*
D127*
X3370155Y1116357D3*
D125*
Y1037617D3*
D62*
X3303226Y1175412D3*
D129*
X2314723Y1498211D3*
D127*
X3367564Y539643D3*
D125*
Y618383D3*
D62*
X3434493Y480588D3*
D127*
X3367564Y789643D3*
D125*
Y868383D3*
D62*
X3434493Y730588D3*
D129*
X3484252Y1283465D3*
D127*
X3370155Y1366357D3*
D125*
Y1287617D3*
D62*
X3303226Y1425412D3*
D118*
X1448819Y1370079D3*
X1515748D3*
X1799213Y1381890D3*
X1866142D3*
X1468504Y1007874D3*
X1401575D3*
X1799213Y1330709D3*
X1866142D3*
X1807087Y1035433D3*
X1740157D3*
X1807087Y1086614D3*
X1740157D3*
D124*
X1303150Y1220472D3*
Y1153543D3*
X1356299Y1218504D3*
Y1151575D3*
D114*
X2661417Y976378D3*
D112*
Y1055118D3*
D114*
X3144929Y1322087D3*
D112*
Y1400827D3*
D129*
X906281Y1509793D3*
X656307Y1603533D3*
X3778196Y959392D3*
D127*
X1571024Y772370D3*
D125*
X1492283D3*
D62*
X1630079Y839299D3*
D125*
X1820997Y1716021D3*
X1899738D3*
X1978478D3*
X1742257D3*
D127*
X1663517D3*
D62*
X1604462Y1649092D3*
D125*
X2265449Y1948614D3*
Y1869874D3*
Y1791134D3*
Y2027354D3*
D127*
Y2106094D3*
D62*
X2198520Y2165150D3*
D127*
X3707655Y885108D3*
D125*
X3786395D3*
X3865135D3*
D62*
X3648600Y818178D3*
D129*
X3895155Y1172605D3*
D91*
Y1072605D3*
D118*
X2258479Y1410720D3*
X2325408D3*
D127*
X2103927Y1271961D3*
D125*
X2182667D3*
D62*
X2044871Y1205031D3*
D127*
X2548491Y1600806D3*
D125*
X2627231D3*
D62*
X2489436Y1533877D3*
D127*
X2227232Y1573203D3*
D125*
X2305972D3*
D62*
X2168177Y1506274D3*
D129*
X1464567Y2185039D3*
X1259843Y1940945D3*
X2445743Y1857874D3*
X2398499Y1680520D3*
D63*
X488189Y2228346D3*
Y496063D3*
X3905512D3*
Y2228346D3*
M02*
