G04*
G04 #@! TF.GenerationSoftware,Altium Limited,Altium Designer,20.0.14 (345)*
G04*
G04 Layer_Physical_Order=3*
G04 Layer_Color=16440176*
%FSLAX25Y25*%
%MOIN*%
G70*
G01*
G75*
%ADD110C,0.02480*%
%ADD113C,0.01500*%
%ADD117C,0.04724*%
%ADD120C,0.10000*%
%ADD122C,0.09000*%
%ADD123R,0.05543X0.05543*%
%ADD124C,0.05543*%
%ADD127R,0.05906X0.05906*%
%ADD128C,0.37402*%
%ADD129C,0.02400*%
%ADD130C,0.05000*%
G36*
X158400Y399000D02*
X127000Y399000D01*
Y305800D01*
X188510Y305800D01*
Y303381D01*
X188446Y303368D01*
X187917Y303014D01*
X187563Y302485D01*
X187439Y301861D01*
X187563Y301237D01*
X187917Y300707D01*
X188446Y300354D01*
X188510Y300341D01*
X188510Y172900D01*
X183744D01*
X183476Y173400D01*
X183647Y173656D01*
X183771Y174280D01*
X183647Y174904D01*
X183293Y175434D01*
X182764Y175787D01*
X182140Y175911D01*
X181516Y175787D01*
X180986Y175434D01*
X180633Y174904D01*
X180509Y174280D01*
X180633Y173656D01*
X180804Y173400D01*
X180536Y172900D01*
X56820D01*
X56820Y238220D01*
X75600Y238220D01*
Y198900D01*
X119200D01*
Y203800D01*
X150500Y203800D01*
X150500Y276294D01*
X150500Y276631D01*
X150910Y276958D01*
X150948Y276933D01*
X151573Y276809D01*
X152197Y276933D01*
X152726Y277287D01*
X153080Y277816D01*
X153204Y278440D01*
X153080Y279064D01*
X152726Y279593D01*
X152197Y279947D01*
X151573Y280071D01*
X150948Y279947D01*
X150419Y279593D01*
X150065Y279064D01*
X149941Y278440D01*
X150065Y277816D01*
X150419Y277287D01*
X150486Y277242D01*
X150334Y276742D01*
X150046Y276742D01*
X84200Y276742D01*
X84200Y333500D01*
X-18156D01*
Y393701D01*
Y394891D01*
X-17845Y397250D01*
X-17229Y399549D01*
X-16318Y401748D01*
X-15128Y403809D01*
X-13679Y405697D01*
X-11997Y407380D01*
X-10108Y408829D01*
X-8047Y410019D01*
X-5849Y410930D01*
X-3550Y411546D01*
X-1190Y411857D01*
X158400D01*
X158400Y399000D01*
D02*
G37*
G36*
X397250Y411546D02*
X399549Y410930D01*
X401748Y410019D01*
X403809Y408829D01*
X405697Y407380D01*
X407380Y405697D01*
X408829Y403809D01*
X410019Y401748D01*
X410930Y399549D01*
X411546Y397250D01*
X411857Y394891D01*
Y393701D01*
Y323500D01*
X279400D01*
Y306033D01*
Y297459D01*
X268749D01*
Y306033D01*
X243931D01*
Y298052D01*
X243830Y298032D01*
X243300Y297679D01*
X242947Y297149D01*
X242823Y296525D01*
X242947Y295901D01*
X243300Y295372D01*
X243830Y295018D01*
X243931Y294998D01*
Y269300D01*
X236333D01*
Y290400D01*
X215600D01*
Y304396D01*
X206700D01*
Y399000D01*
X175849D01*
X175849Y411857D01*
X394891D01*
X397250Y411546D01*
D02*
G37*
G36*
X79600Y328900D02*
X79600Y260991D01*
X146300Y260991D01*
X146300Y207800D01*
X114400Y207800D01*
X114400Y202841D01*
X78220Y202841D01*
X78220Y242081D01*
X60684Y242081D01*
Y243396D01*
X60549Y244079D01*
X60162Y244658D01*
X60162Y244658D01*
X37295Y267525D01*
X37343Y267643D01*
X37473Y268628D01*
X37343Y269612D01*
X36963Y270530D01*
X36359Y271318D01*
X35571Y271922D01*
X34653Y272302D01*
X33669Y272432D01*
X32684Y272302D01*
X31767Y271922D01*
X30979Y271318D01*
X30374Y270530D01*
X29994Y269612D01*
X29865Y268628D01*
X29994Y267643D01*
X30374Y266725D01*
X30979Y265938D01*
X31767Y265333D01*
X32684Y264953D01*
X33669Y264823D01*
X34653Y264953D01*
X34771Y265002D01*
X57116Y242657D01*
Y242081D01*
X54010D01*
X54010Y168900D01*
X59051Y168900D01*
X87900D01*
X87900Y156391D01*
X23843Y156391D01*
X23843Y192500D01*
X-18156D01*
Y328833D01*
X-17802Y329187D01*
X79600Y328900D01*
D02*
G37*
G36*
X411857Y232300D02*
X364500D01*
Y207098D01*
X230213D01*
X227750Y209562D01*
X227171Y209948D01*
X226488Y210084D01*
X209450D01*
Y266700D01*
X284900D01*
Y307700D01*
X411857D01*
Y232300D01*
D02*
G37*
G36*
Y0D02*
Y-1190D01*
X411546Y-3550D01*
X410930Y-5849D01*
X410019Y-8047D01*
X408829Y-10108D01*
X407380Y-11997D01*
X405697Y-13679D01*
X403809Y-15128D01*
X401748Y-16318D01*
X399549Y-17229D01*
X397250Y-17845D01*
X394891Y-18156D01*
X-1190D01*
X-3550Y-17845D01*
X-5849Y-17229D01*
X-8047Y-16318D01*
X-10108Y-15128D01*
X-11997Y-13679D01*
X-13679Y-11997D01*
X-15128Y-10108D01*
X-16318Y-8047D01*
X-17229Y-5849D01*
X-17845Y-3550D01*
X-18156Y-1190D01*
Y0D01*
Y189100D01*
X541D01*
X597Y188601D01*
X34Y188226D01*
X-341Y187663D01*
X-473Y187000D01*
X-341Y186337D01*
X34Y185774D01*
X597Y185399D01*
X1260Y185267D01*
X1923Y185399D01*
X2486Y185774D01*
X2861Y186337D01*
X2993Y187000D01*
X2861Y187663D01*
X2486Y188226D01*
X1923Y188601D01*
X1979Y189100D01*
X15541D01*
X15597Y188601D01*
X15034Y188226D01*
X14659Y187663D01*
X14527Y187000D01*
X14659Y186337D01*
X15034Y185774D01*
X15597Y185399D01*
X16260Y185267D01*
X16923Y185399D01*
X17486Y185774D01*
X17861Y186337D01*
X17993Y187000D01*
X17861Y187663D01*
X17486Y188226D01*
X16923Y188601D01*
X16979Y189100D01*
X19900D01*
Y152700D01*
X91635D01*
Y169200D01*
X206500D01*
Y202257D01*
X221512D01*
X221792Y201783D01*
X221789Y201757D01*
X221708Y201350D01*
X221794Y200921D01*
X222037Y200557D01*
X222401Y200314D01*
X222830Y200228D01*
X223259Y200314D01*
X223623Y200557D01*
X223866Y200921D01*
X223952Y201350D01*
X223871Y201757D01*
X223868Y201783D01*
X224148Y202257D01*
X230729D01*
X230877Y202109D01*
X231291Y201833D01*
X231778Y201735D01*
X262577D01*
X263064Y201833D01*
X263478Y202109D01*
X263626Y202257D01*
X369100D01*
Y228404D01*
X411857D01*
Y0D01*
D02*
G37*
%LPC*%
G36*
X0Y400640D02*
X-1354Y400506D01*
X-2655Y400111D01*
X-3855Y399470D01*
X-4907Y398607D01*
X-5770Y397556D01*
X-6411Y396356D01*
X-6806Y395055D01*
X-6939Y393701D01*
X-6806Y392347D01*
X-6411Y391045D01*
X-5770Y389846D01*
X-4907Y388794D01*
X-3855Y387931D01*
X-2655Y387290D01*
X-1354Y386895D01*
X0Y386762D01*
X1354Y386895D01*
X2655Y387290D01*
X3855Y387931D01*
X4907Y388794D01*
X5770Y389846D01*
X6411Y391045D01*
X6806Y392347D01*
X6939Y393701D01*
X6806Y395055D01*
X6411Y396356D01*
X5770Y397556D01*
X4907Y398607D01*
X3855Y399470D01*
X2655Y400111D01*
X1354Y400506D01*
X0Y400640D01*
D02*
G37*
G36*
X98610Y305091D02*
X97986Y304967D01*
X97457Y304613D01*
X97103Y304084D01*
X96979Y303460D01*
X97103Y302836D01*
X97457Y302307D01*
X97986Y301953D01*
X98610Y301829D01*
X99234Y301953D01*
X99764Y302307D01*
X100117Y302836D01*
X100241Y303460D01*
X100117Y304084D01*
X99764Y304613D01*
X99234Y304967D01*
X98610Y305091D01*
D02*
G37*
G36*
X184160Y264852D02*
X183536Y264728D01*
X183007Y264374D01*
X182653Y263845D01*
X182529Y263221D01*
X182653Y262597D01*
X183007Y262067D01*
X183536Y261714D01*
X184160Y261589D01*
X184784Y261714D01*
X185313Y262067D01*
X185667Y262597D01*
X185791Y263221D01*
X185667Y263845D01*
X185313Y264374D01*
X184784Y264728D01*
X184160Y264852D01*
D02*
G37*
G36*
X168470Y199511D02*
X167846Y199387D01*
X167316Y199033D01*
X166963Y198504D01*
X166839Y197880D01*
X166963Y197256D01*
X167316Y196727D01*
X167846Y196373D01*
X168470Y196249D01*
X169094Y196373D01*
X169623Y196727D01*
X169977Y197256D01*
X170101Y197880D01*
X169977Y198504D01*
X169623Y199033D01*
X169094Y199387D01*
X168470Y199511D01*
D02*
G37*
G36*
X83357Y196782D02*
X82732Y196658D01*
X82203Y196304D01*
X81849Y195775D01*
X81725Y195151D01*
X81849Y194526D01*
X82203Y193997D01*
X82732Y193643D01*
X83357Y193519D01*
X83981Y193643D01*
X84510Y193997D01*
X84864Y194526D01*
X84988Y195151D01*
X84864Y195775D01*
X84510Y196304D01*
X83981Y196658D01*
X83357Y196782D01*
D02*
G37*
G36*
X127265Y201180D02*
X126104Y201027D01*
X125023Y200580D01*
X124094Y199867D01*
X123382Y198939D01*
X122934Y197857D01*
X122781Y196697D01*
X122934Y195536D01*
X123382Y194455D01*
X124094Y193527D01*
X125023Y192814D01*
X126104Y192366D01*
X127265Y192213D01*
X128425Y192366D01*
X129506Y192814D01*
X130435Y193527D01*
X131147Y194455D01*
X131595Y195536D01*
X131748Y196697D01*
X131595Y197857D01*
X131147Y198939D01*
X130435Y199867D01*
X129506Y200580D01*
X128425Y201027D01*
X127265Y201180D01*
D02*
G37*
G36*
X182140Y194761D02*
X181516Y194637D01*
X180986Y194283D01*
X180633Y193754D01*
X180509Y193130D01*
X180633Y192506D01*
X180986Y191976D01*
X181516Y191623D01*
X182140Y191499D01*
X182764Y191623D01*
X183293Y191976D01*
X183647Y192506D01*
X183771Y193130D01*
X183647Y193754D01*
X183293Y194283D01*
X182764Y194637D01*
X182140Y194761D01*
D02*
G37*
G36*
X67150Y183691D02*
X66526Y183567D01*
X65996Y183213D01*
X65643Y182684D01*
X65519Y182060D01*
X65643Y181436D01*
X65996Y180906D01*
X66526Y180553D01*
X67150Y180429D01*
X67774Y180553D01*
X68304Y180906D01*
X68657Y181436D01*
X68781Y182060D01*
X68657Y182684D01*
X68304Y183213D01*
X67774Y183567D01*
X67150Y183691D01*
D02*
G37*
G36*
X127265Y183070D02*
X126104Y182917D01*
X125023Y182470D01*
X124094Y181757D01*
X123382Y180828D01*
X122934Y179747D01*
X122781Y178587D01*
X122934Y177427D01*
X123382Y176345D01*
X124094Y175417D01*
X125023Y174704D01*
X126104Y174256D01*
X127265Y174103D01*
X128425Y174256D01*
X129506Y174704D01*
X130435Y175417D01*
X131147Y176345D01*
X131595Y177427D01*
X131748Y178587D01*
X131595Y179747D01*
X131147Y180828D01*
X130435Y181757D01*
X129506Y182470D01*
X128425Y182917D01*
X127265Y183070D01*
D02*
G37*
G36*
X393701Y400640D02*
X392347Y400506D01*
X391045Y400111D01*
X389846Y399470D01*
X388794Y398607D01*
X387931Y397556D01*
X387290Y396356D01*
X386895Y395055D01*
X386762Y393701D01*
X386895Y392347D01*
X387290Y391045D01*
X387931Y389846D01*
X388794Y388794D01*
X389846Y387931D01*
X391045Y387290D01*
X392347Y386895D01*
X393701Y386762D01*
X395055Y386895D01*
X396356Y387290D01*
X397556Y387931D01*
X398607Y388794D01*
X399470Y389846D01*
X400111Y391045D01*
X400506Y392347D01*
X400640Y393701D01*
X400506Y395055D01*
X400111Y396356D01*
X399470Y397556D01*
X398607Y398607D01*
X397556Y399470D01*
X396356Y400111D01*
X395055Y400506D01*
X393701Y400640D01*
D02*
G37*
G36*
X33669Y261581D02*
X32945Y261485D01*
X32271Y261206D01*
X31692Y260762D01*
X31248Y260183D01*
X30968Y259509D01*
X30873Y258785D01*
X30968Y258062D01*
X31248Y257387D01*
X31692Y256808D01*
X32271Y256364D01*
X32945Y256085D01*
X33669Y255990D01*
X34392Y256085D01*
X35067Y256364D01*
X35646Y256808D01*
X36090Y257387D01*
X36369Y258062D01*
X36464Y258785D01*
X36369Y259509D01*
X36090Y260183D01*
X35646Y260762D01*
X35067Y261206D01*
X34392Y261485D01*
X33669Y261581D01*
D02*
G37*
G36*
Y251738D02*
X32945Y251643D01*
X32271Y251363D01*
X31692Y250919D01*
X31248Y250340D01*
X30968Y249666D01*
X30873Y248942D01*
X30968Y248219D01*
X31248Y247545D01*
X31692Y246966D01*
X32271Y246521D01*
X32945Y246242D01*
X33669Y246147D01*
X34392Y246242D01*
X35067Y246521D01*
X35646Y246966D01*
X36090Y247545D01*
X36369Y248219D01*
X36464Y248942D01*
X36369Y249666D01*
X36090Y250340D01*
X35646Y250919D01*
X35067Y251363D01*
X34392Y251643D01*
X33669Y251738D01*
D02*
G37*
G36*
Y241896D02*
X32945Y241800D01*
X32271Y241521D01*
X31692Y241077D01*
X31248Y240498D01*
X30968Y239824D01*
X30873Y239100D01*
X30968Y238376D01*
X31248Y237702D01*
X31692Y237123D01*
X32271Y236679D01*
X32945Y236400D01*
X33669Y236304D01*
X34392Y236400D01*
X35067Y236679D01*
X35646Y237123D01*
X36090Y237702D01*
X36369Y238376D01*
X36464Y239100D01*
X36369Y239824D01*
X36090Y240498D01*
X35646Y241077D01*
X35067Y241521D01*
X34392Y241800D01*
X33669Y241896D01*
D02*
G37*
G36*
Y232053D02*
X32945Y231958D01*
X32271Y231679D01*
X31692Y231234D01*
X31248Y230655D01*
X30968Y229981D01*
X30873Y229257D01*
X30968Y228534D01*
X31248Y227860D01*
X31692Y227281D01*
X32271Y226836D01*
X32945Y226557D01*
X33669Y226462D01*
X34392Y226557D01*
X35067Y226836D01*
X35646Y227281D01*
X36090Y227860D01*
X36369Y228534D01*
X36464Y229257D01*
X36369Y229981D01*
X36090Y230655D01*
X35646Y231234D01*
X35067Y231679D01*
X34392Y231958D01*
X33669Y232053D01*
D02*
G37*
G36*
Y222211D02*
X32945Y222115D01*
X32271Y221836D01*
X31692Y221392D01*
X31248Y220813D01*
X30968Y220139D01*
X30873Y219415D01*
X30968Y218691D01*
X31248Y218017D01*
X31692Y217438D01*
X32271Y216994D01*
X32945Y216715D01*
X33669Y216619D01*
X34392Y216715D01*
X35067Y216994D01*
X35646Y217438D01*
X36090Y218017D01*
X36369Y218691D01*
X36464Y219415D01*
X36369Y220139D01*
X36090Y220813D01*
X35646Y221392D01*
X35067Y221836D01*
X34392Y222115D01*
X33669Y222211D01*
D02*
G37*
G36*
X235360Y213551D02*
X234736Y213427D01*
X234207Y213073D01*
X233853Y212544D01*
X233729Y211920D01*
X233853Y211296D01*
X234207Y210767D01*
X234736Y210413D01*
X235360Y210289D01*
X235984Y210413D01*
X236513Y210767D01*
X236867Y211296D01*
X236991Y211920D01*
X236867Y212544D01*
X236513Y213073D01*
X235984Y213427D01*
X235360Y213551D01*
D02*
G37*
G36*
X377181Y220510D02*
X376259Y220389D01*
X375400Y220033D01*
X374662Y219467D01*
X374096Y218729D01*
X373740Y217870D01*
X373619Y216948D01*
X373740Y216026D01*
X374096Y215167D01*
X374662Y214429D01*
X375400Y213863D01*
X376259Y213507D01*
X377181Y213386D01*
X378103Y213507D01*
X378962Y213863D01*
X379699Y214429D01*
X380265Y215167D01*
X380621Y216026D01*
X380743Y216948D01*
X380621Y217870D01*
X380265Y218729D01*
X379699Y219467D01*
X378962Y220033D01*
X378103Y220389D01*
X377181Y220510D01*
D02*
G37*
G36*
X280690Y200762D02*
X280261Y200677D01*
X279897Y200434D01*
X279654Y200070D01*
X279568Y199641D01*
X279654Y199212D01*
X279897Y198848D01*
X280261Y198605D01*
X280690Y198519D01*
X281119Y198605D01*
X281483Y198848D01*
X281726Y199212D01*
X281811Y199641D01*
X281726Y200070D01*
X281483Y200434D01*
X281119Y200677D01*
X280690Y200762D01*
D02*
G37*
G36*
X222960Y198951D02*
X222531Y198866D01*
X222167Y198623D01*
X221924Y198259D01*
X221838Y197830D01*
X221924Y197401D01*
X222167Y197037D01*
X222531Y196794D01*
X222960Y196708D01*
X223389Y196794D01*
X223753Y197037D01*
X223996Y197401D01*
X224082Y197830D01*
X223996Y198259D01*
X223753Y198623D01*
X223389Y198866D01*
X222960Y198951D01*
D02*
G37*
G36*
Y192162D02*
X222531Y192076D01*
X222167Y191833D01*
X221924Y191469D01*
X221838Y191040D01*
X221924Y190611D01*
X222167Y190247D01*
X222531Y190004D01*
X222960Y189918D01*
X223389Y190004D01*
X223753Y190247D01*
X223996Y190611D01*
X224082Y191040D01*
X223996Y191469D01*
X223753Y191833D01*
X223389Y192076D01*
X222960Y192162D01*
D02*
G37*
G36*
X406260Y188733D02*
X405597Y188601D01*
X405034Y188226D01*
X404659Y187663D01*
X404527Y187000D01*
X404659Y186337D01*
X405034Y185774D01*
X405597Y185399D01*
X406260Y185267D01*
X406923Y185399D01*
X407486Y185774D01*
X407861Y186337D01*
X407993Y187000D01*
X407861Y187663D01*
X407486Y188226D01*
X406923Y188601D01*
X406260Y188733D01*
D02*
G37*
G36*
X361260D02*
X360597Y188601D01*
X360034Y188226D01*
X359659Y187663D01*
X359527Y187000D01*
X359659Y186337D01*
X360034Y185774D01*
X360597Y185399D01*
X361260Y185267D01*
X361923Y185399D01*
X362486Y185774D01*
X362861Y186337D01*
X362993Y187000D01*
X362861Y187663D01*
X362486Y188226D01*
X361923Y188601D01*
X361260Y188733D01*
D02*
G37*
G36*
X346260D02*
X345597Y188601D01*
X345034Y188226D01*
X344659Y187663D01*
X344527Y187000D01*
X344659Y186337D01*
X345034Y185774D01*
X345597Y185399D01*
X346260Y185267D01*
X346923Y185399D01*
X347486Y185774D01*
X347861Y186337D01*
X347993Y187000D01*
X347861Y187663D01*
X347486Y188226D01*
X346923Y188601D01*
X346260Y188733D01*
D02*
G37*
G36*
X331260D02*
X330597Y188601D01*
X330034Y188226D01*
X329659Y187663D01*
X329527Y187000D01*
X329659Y186337D01*
X330034Y185774D01*
X330597Y185399D01*
X331260Y185267D01*
X331923Y185399D01*
X332486Y185774D01*
X332861Y186337D01*
X332993Y187000D01*
X332861Y187663D01*
X332486Y188226D01*
X331923Y188601D01*
X331260Y188733D01*
D02*
G37*
G36*
X316260D02*
X315597Y188601D01*
X315034Y188226D01*
X314659Y187663D01*
X314527Y187000D01*
X314659Y186337D01*
X315034Y185774D01*
X315597Y185399D01*
X316260Y185267D01*
X316923Y185399D01*
X317486Y185774D01*
X317861Y186337D01*
X317993Y187000D01*
X317861Y187663D01*
X317486Y188226D01*
X316923Y188601D01*
X316260Y188733D01*
D02*
G37*
G36*
X301260D02*
X300597Y188601D01*
X300034Y188226D01*
X299659Y187663D01*
X299527Y187000D01*
X299659Y186337D01*
X300034Y185774D01*
X300597Y185399D01*
X301260Y185267D01*
X301923Y185399D01*
X302486Y185774D01*
X302861Y186337D01*
X302993Y187000D01*
X302861Y187663D01*
X302486Y188226D01*
X301923Y188601D01*
X301260Y188733D01*
D02*
G37*
G36*
X225670Y180151D02*
X225241Y180066D01*
X224877Y179823D01*
X224634Y179459D01*
X224549Y179030D01*
X224634Y178601D01*
X224877Y178237D01*
X225241Y177994D01*
X225670Y177908D01*
X226099Y177994D01*
X226463Y178237D01*
X226706Y178601D01*
X226792Y179030D01*
X226706Y179459D01*
X226463Y179823D01*
X226099Y180066D01*
X225670Y180151D01*
D02*
G37*
G36*
X353760Y173733D02*
X353097Y173601D01*
X352534Y173226D01*
X352159Y172663D01*
X352027Y172000D01*
X352159Y171337D01*
X352534Y170774D01*
X353097Y170399D01*
X353760Y170267D01*
X354423Y170399D01*
X354986Y170774D01*
X355361Y171337D01*
X355493Y172000D01*
X355361Y172663D01*
X354986Y173226D01*
X354423Y173601D01*
X353760Y173733D01*
D02*
G37*
G36*
X338760D02*
X338097Y173601D01*
X337534Y173226D01*
X337159Y172663D01*
X337027Y172000D01*
X337159Y171337D01*
X337534Y170774D01*
X338097Y170399D01*
X338760Y170267D01*
X339423Y170399D01*
X339986Y170774D01*
X340361Y171337D01*
X340493Y172000D01*
X340361Y172663D01*
X339986Y173226D01*
X339423Y173601D01*
X338760Y173733D01*
D02*
G37*
G36*
X323760D02*
X323097Y173601D01*
X322534Y173226D01*
X322159Y172663D01*
X322027Y172000D01*
X322159Y171337D01*
X322534Y170774D01*
X323097Y170399D01*
X323760Y170267D01*
X324423Y170399D01*
X324986Y170774D01*
X325361Y171337D01*
X325493Y172000D01*
X325361Y172663D01*
X324986Y173226D01*
X324423Y173601D01*
X323760Y173733D01*
D02*
G37*
G36*
X308760D02*
X308097Y173601D01*
X307534Y173226D01*
X307159Y172663D01*
X307027Y172000D01*
X307159Y171337D01*
X307534Y170774D01*
X308097Y170399D01*
X308760Y170267D01*
X309423Y170399D01*
X309986Y170774D01*
X310361Y171337D01*
X310493Y172000D01*
X310361Y172663D01*
X309986Y173226D01*
X309423Y173601D01*
X308760Y173733D01*
D02*
G37*
G36*
X293760D02*
X293097Y173601D01*
X292534Y173226D01*
X292159Y172663D01*
X292027Y172000D01*
X292159Y171337D01*
X292534Y170774D01*
X293097Y170399D01*
X293760Y170267D01*
X294423Y170399D01*
X294986Y170774D01*
X295361Y171337D01*
X295493Y172000D01*
X295361Y172663D01*
X294986Y173226D01*
X294423Y173601D01*
X293760Y173733D01*
D02*
G37*
G36*
X-6240D02*
X-6903Y173601D01*
X-7466Y173226D01*
X-7841Y172663D01*
X-7973Y172000D01*
X-7841Y171337D01*
X-7466Y170774D01*
X-6903Y170399D01*
X-6240Y170267D01*
X-5577Y170399D01*
X-5014Y170774D01*
X-4639Y171337D01*
X-4507Y172000D01*
X-4639Y172663D01*
X-5014Y173226D01*
X-5577Y173601D01*
X-6240Y173733D01*
D02*
G37*
G36*
X404689Y171853D02*
X404260Y171767D01*
X403896Y171524D01*
X403653Y171161D01*
X403568Y170731D01*
X403653Y170302D01*
X403896Y169938D01*
X404260Y169695D01*
X404689Y169610D01*
X405119Y169695D01*
X405482Y169938D01*
X405725Y170302D01*
X405811Y170731D01*
X405725Y171161D01*
X405482Y171524D01*
X405119Y171767D01*
X404689Y171853D01*
D02*
G37*
G36*
X384268Y198969D02*
X383521Y198870D01*
X382824Y198582D01*
X382226Y198123D01*
X381768Y197525D01*
X381479Y196829D01*
X381381Y196082D01*
X381479Y195335D01*
X381768Y194639D01*
X382226Y194041D01*
X382824Y193582D01*
X383264Y193400D01*
Y192859D01*
X382824Y192677D01*
X382226Y192218D01*
X381768Y191620D01*
X381479Y190924D01*
X381381Y190177D01*
X381479Y189430D01*
X381768Y188734D01*
X382226Y188136D01*
X382824Y187677D01*
X383265Y187495D01*
Y186953D01*
X382824Y186771D01*
X382226Y186312D01*
X381768Y185714D01*
X381479Y185018D01*
X381381Y184271D01*
X381479Y183524D01*
X381768Y182828D01*
X382226Y182230D01*
X382824Y181771D01*
X383264Y181589D01*
Y181048D01*
X382824Y180866D01*
X382226Y180407D01*
X381768Y179809D01*
X381479Y179113D01*
X381381Y178366D01*
X381479Y177619D01*
X381768Y176923D01*
X382226Y176325D01*
X382824Y175866D01*
X383265Y175684D01*
Y175142D01*
X382824Y174960D01*
X382226Y174501D01*
X381768Y173903D01*
X381479Y173207D01*
X381381Y172460D01*
X381479Y171713D01*
X381768Y171017D01*
X382226Y170419D01*
X382824Y169960D01*
X383133Y169832D01*
Y169291D01*
X382774Y169142D01*
X382155Y168667D01*
X381680Y168049D01*
X381382Y167328D01*
X381346Y167055D01*
X384268D01*
X387189D01*
X387154Y167328D01*
X386855Y168049D01*
X386380Y168667D01*
X385761Y169142D01*
X385402Y169291D01*
Y169832D01*
X385711Y169960D01*
X386309Y170419D01*
X386768Y171017D01*
X387056Y171713D01*
X387154Y172460D01*
X387056Y173207D01*
X386768Y173903D01*
X386309Y174501D01*
X385711Y174960D01*
X385271Y175142D01*
Y175684D01*
X385711Y175866D01*
X386309Y176325D01*
X386768Y176923D01*
X387056Y177619D01*
X387154Y178366D01*
X387056Y179113D01*
X386768Y179809D01*
X386309Y180407D01*
X385711Y180866D01*
X385272Y181048D01*
Y181589D01*
X385711Y181771D01*
X386309Y182230D01*
X386768Y182828D01*
X387056Y183524D01*
X387154Y184271D01*
X387056Y185018D01*
X386768Y185714D01*
X386309Y186312D01*
X385711Y186771D01*
X385271Y186953D01*
Y187495D01*
X385711Y187677D01*
X386309Y188136D01*
X386768Y188734D01*
X387056Y189430D01*
X387154Y190177D01*
X387056Y190924D01*
X386768Y191620D01*
X386309Y192218D01*
X385711Y192677D01*
X385272Y192859D01*
Y193400D01*
X385711Y193582D01*
X386309Y194041D01*
X386768Y194639D01*
X387056Y195335D01*
X387154Y196082D01*
X387056Y196829D01*
X386768Y197525D01*
X386309Y198123D01*
X385711Y198582D01*
X385015Y198870D01*
X384268Y198969D01*
D02*
G37*
G36*
X392260Y167162D02*
X391831Y167076D01*
X391467Y166833D01*
X391224Y166469D01*
X391139Y166040D01*
X391224Y165611D01*
X391467Y165247D01*
X391831Y165004D01*
X392260Y164918D01*
X392689Y165004D01*
X393053Y165247D01*
X393296Y165611D01*
X393382Y166040D01*
X393296Y166469D01*
X393053Y166833D01*
X392689Y167076D01*
X392260Y167162D01*
D02*
G37*
G36*
X167360Y166022D02*
X166931Y165936D01*
X166567Y165693D01*
X166324Y165329D01*
X166238Y164900D01*
X166324Y164471D01*
X166567Y164107D01*
X166931Y163864D01*
X167360Y163778D01*
X167789Y163864D01*
X168153Y164107D01*
X168396Y164471D01*
X168482Y164900D01*
X168396Y165329D01*
X168153Y165693D01*
X167789Y165936D01*
X167360Y166022D01*
D02*
G37*
G36*
X221434Y168139D02*
X220455Y167945D01*
X219626Y167390D01*
X219071Y166561D01*
X218877Y165582D01*
X219071Y164604D01*
X219626Y163774D01*
X220455Y163220D01*
X221434Y163025D01*
X222412Y163220D01*
X223242Y163774D01*
X223796Y164604D01*
X223991Y165582D01*
X223796Y166561D01*
X223242Y167390D01*
X222412Y167945D01*
X221434Y168139D01*
D02*
G37*
G36*
X207334D02*
X206355Y167945D01*
X205526Y167390D01*
X204971Y166561D01*
X204777Y165582D01*
X204971Y164604D01*
X205526Y163774D01*
X206355Y163220D01*
X207334Y163025D01*
X208312Y163220D01*
X209142Y163774D01*
X209696Y164604D01*
X209891Y165582D01*
X209696Y166561D01*
X209142Y167390D01*
X208312Y167945D01*
X207334Y168139D01*
D02*
G37*
G36*
X195390Y162972D02*
X194961Y162886D01*
X194597Y162643D01*
X194354Y162279D01*
X194269Y161850D01*
X194354Y161421D01*
X194597Y161057D01*
X194961Y160814D01*
X195390Y160728D01*
X195819Y160814D01*
X196183Y161057D01*
X196426Y161421D01*
X196512Y161850D01*
X196426Y162279D01*
X196183Y162643D01*
X195819Y162886D01*
X195390Y162972D01*
D02*
G37*
G36*
X228260Y161942D02*
X227831Y161856D01*
X227467Y161613D01*
X227224Y161249D01*
X227138Y160820D01*
X227224Y160391D01*
X227467Y160027D01*
X227831Y159784D01*
X228260Y159698D01*
X228689Y159784D01*
X229053Y160027D01*
X229296Y160391D01*
X229382Y160820D01*
X229296Y161249D01*
X229053Y161613D01*
X228689Y161856D01*
X228260Y161942D01*
D02*
G37*
G36*
X376260Y158733D02*
X375597Y158601D01*
X375034Y158226D01*
X374659Y157663D01*
X374527Y157000D01*
X374659Y156337D01*
X375034Y155774D01*
X375597Y155399D01*
X376260Y155267D01*
X376923Y155399D01*
X377486Y155774D01*
X377861Y156337D01*
X377993Y157000D01*
X377861Y157663D01*
X377486Y158226D01*
X376923Y158601D01*
X376260Y158733D01*
D02*
G37*
G36*
X346260D02*
X345597Y158601D01*
X345034Y158226D01*
X344659Y157663D01*
X344527Y157000D01*
X344659Y156337D01*
X345034Y155774D01*
X345597Y155399D01*
X346260Y155267D01*
X346923Y155399D01*
X347486Y155774D01*
X347861Y156337D01*
X347993Y157000D01*
X347861Y157663D01*
X347486Y158226D01*
X346923Y158601D01*
X346260Y158733D01*
D02*
G37*
G36*
X331260D02*
X330597Y158601D01*
X330034Y158226D01*
X329659Y157663D01*
X329527Y157000D01*
X329659Y156337D01*
X330034Y155774D01*
X330597Y155399D01*
X331260Y155267D01*
X331923Y155399D01*
X332486Y155774D01*
X332861Y156337D01*
X332993Y157000D01*
X332861Y157663D01*
X332486Y158226D01*
X331923Y158601D01*
X331260Y158733D01*
D02*
G37*
G36*
X316260D02*
X315597Y158601D01*
X315034Y158226D01*
X314659Y157663D01*
X314527Y157000D01*
X314659Y156337D01*
X315034Y155774D01*
X315597Y155399D01*
X316260Y155267D01*
X316923Y155399D01*
X317486Y155774D01*
X317861Y156337D01*
X317993Y157000D01*
X317861Y157663D01*
X317486Y158226D01*
X316923Y158601D01*
X316260Y158733D01*
D02*
G37*
G36*
X301260D02*
X300597Y158601D01*
X300034Y158226D01*
X299659Y157663D01*
X299527Y157000D01*
X299659Y156337D01*
X300034Y155774D01*
X300597Y155399D01*
X301260Y155267D01*
X301923Y155399D01*
X302486Y155774D01*
X302861Y156337D01*
X302993Y157000D01*
X302861Y157663D01*
X302486Y158226D01*
X301923Y158601D01*
X301260Y158733D01*
D02*
G37*
G36*
X241260D02*
X240597Y158601D01*
X240034Y158226D01*
X239659Y157663D01*
X239527Y157000D01*
X239659Y156337D01*
X240034Y155774D01*
X240597Y155399D01*
X241260Y155267D01*
X241923Y155399D01*
X242486Y155774D01*
X242861Y156337D01*
X242993Y157000D01*
X242861Y157663D01*
X242486Y158226D01*
X241923Y158601D01*
X241260Y158733D01*
D02*
G37*
G36*
X181260D02*
X180597Y158601D01*
X180034Y158226D01*
X179659Y157663D01*
X179527Y157000D01*
X179659Y156337D01*
X180034Y155774D01*
X180597Y155399D01*
X181260Y155267D01*
X181923Y155399D01*
X182486Y155774D01*
X182861Y156337D01*
X182993Y157000D01*
X182861Y157663D01*
X182486Y158226D01*
X181923Y158601D01*
X181260Y158733D01*
D02*
G37*
G36*
X16260D02*
X15597Y158601D01*
X15034Y158226D01*
X14659Y157663D01*
X14527Y157000D01*
X14659Y156337D01*
X15034Y155774D01*
X15597Y155399D01*
X16260Y155267D01*
X16923Y155399D01*
X17486Y155774D01*
X17861Y156337D01*
X17993Y157000D01*
X17861Y157663D01*
X17486Y158226D01*
X16923Y158601D01*
X16260Y158733D01*
D02*
G37*
G36*
X226464Y149614D02*
X226035Y149528D01*
X225671Y149285D01*
X225428Y148921D01*
X225342Y148492D01*
X225428Y148063D01*
X225671Y147699D01*
X226035Y147456D01*
X226464Y147371D01*
X226893Y147456D01*
X227257Y147699D01*
X227500Y148063D01*
X227585Y148492D01*
X227500Y148921D01*
X227257Y149285D01*
X226893Y149528D01*
X226464Y149614D01*
D02*
G37*
G36*
X202018Y149166D02*
X201589Y149081D01*
X201225Y148837D01*
X200982Y148474D01*
X200896Y148044D01*
X200982Y147615D01*
X201225Y147251D01*
X201589Y147008D01*
X202018Y146923D01*
X202447Y147008D01*
X202811Y147251D01*
X203054Y147615D01*
X203139Y148044D01*
X203054Y148474D01*
X202811Y148837D01*
X202447Y149081D01*
X202018Y149166D01*
D02*
G37*
G36*
X266210Y150947D02*
X265231Y150752D01*
X264402Y150198D01*
X263848Y149369D01*
X263653Y148390D01*
X263848Y147412D01*
X264402Y146582D01*
X265231Y146028D01*
X266210Y145833D01*
X267189Y146028D01*
X268018Y146582D01*
X268572Y147412D01*
X268767Y148390D01*
X268572Y149369D01*
X268018Y150198D01*
X267189Y150752D01*
X266210Y150947D01*
D02*
G37*
G36*
X258250Y144892D02*
X257821Y144806D01*
X257457Y144563D01*
X257214Y144199D01*
X257129Y143770D01*
X257214Y143341D01*
X257457Y142977D01*
X257821Y142734D01*
X258250Y142648D01*
X258679Y142734D01*
X259043Y142977D01*
X259286Y143341D01*
X259371Y143770D01*
X259286Y144199D01*
X259043Y144563D01*
X258679Y144806D01*
X258250Y144892D01*
D02*
G37*
G36*
X242430Y144642D02*
X242001Y144556D01*
X241637Y144313D01*
X241394Y143949D01*
X241308Y143520D01*
X241394Y143091D01*
X241637Y142727D01*
X242001Y142484D01*
X242430Y142399D01*
X242859Y142484D01*
X243223Y142727D01*
X243466Y143091D01*
X243551Y143520D01*
X243466Y143949D01*
X243223Y144313D01*
X242859Y144556D01*
X242430Y144642D01*
D02*
G37*
G36*
X353760Y143733D02*
X353097Y143601D01*
X352534Y143226D01*
X352159Y142663D01*
X352027Y142000D01*
X352159Y141337D01*
X352534Y140774D01*
X353097Y140399D01*
X353760Y140267D01*
X354423Y140399D01*
X354986Y140774D01*
X355361Y141337D01*
X355493Y142000D01*
X355361Y142663D01*
X354986Y143226D01*
X354423Y143601D01*
X353760Y143733D01*
D02*
G37*
G36*
X338760D02*
X338097Y143601D01*
X337534Y143226D01*
X337159Y142663D01*
X337027Y142000D01*
X337159Y141337D01*
X337534Y140774D01*
X338097Y140399D01*
X338760Y140267D01*
X339423Y140399D01*
X339986Y140774D01*
X340361Y141337D01*
X340493Y142000D01*
X340361Y142663D01*
X339986Y143226D01*
X339423Y143601D01*
X338760Y143733D01*
D02*
G37*
G36*
X323760D02*
X323097Y143601D01*
X322534Y143226D01*
X322159Y142663D01*
X322027Y142000D01*
X322159Y141337D01*
X322534Y140774D01*
X323097Y140399D01*
X323760Y140267D01*
X324423Y140399D01*
X324986Y140774D01*
X325361Y141337D01*
X325493Y142000D01*
X325361Y142663D01*
X324986Y143226D01*
X324423Y143601D01*
X323760Y143733D01*
D02*
G37*
G36*
X308760D02*
X308097Y143601D01*
X307534Y143226D01*
X307159Y142663D01*
X307027Y142000D01*
X307159Y141337D01*
X307534Y140774D01*
X308097Y140399D01*
X308760Y140267D01*
X309423Y140399D01*
X309986Y140774D01*
X310361Y141337D01*
X310493Y142000D01*
X310361Y142663D01*
X309986Y143226D01*
X309423Y143601D01*
X308760Y143733D01*
D02*
G37*
G36*
X293760D02*
X293097Y143601D01*
X292534Y143226D01*
X292159Y142663D01*
X292027Y142000D01*
X292159Y141337D01*
X292534Y140774D01*
X293097Y140399D01*
X293760Y140267D01*
X294423Y140399D01*
X294986Y140774D01*
X295361Y141337D01*
X295493Y142000D01*
X295361Y142663D01*
X294986Y143226D01*
X294423Y143601D01*
X293760Y143733D01*
D02*
G37*
G36*
X173760D02*
X173097Y143601D01*
X172534Y143226D01*
X172159Y142663D01*
X172027Y142000D01*
X172159Y141337D01*
X172534Y140774D01*
X173097Y140399D01*
X173760Y140267D01*
X174423Y140399D01*
X174986Y140774D01*
X175361Y141337D01*
X175493Y142000D01*
X175361Y142663D01*
X174986Y143226D01*
X174423Y143601D01*
X173760Y143733D01*
D02*
G37*
G36*
X158760D02*
X158097Y143601D01*
X157534Y143226D01*
X157159Y142663D01*
X157027Y142000D01*
X157159Y141337D01*
X157534Y140774D01*
X158097Y140399D01*
X158760Y140267D01*
X159423Y140399D01*
X159986Y140774D01*
X160361Y141337D01*
X160493Y142000D01*
X160361Y142663D01*
X159986Y143226D01*
X159423Y143601D01*
X158760Y143733D01*
D02*
G37*
G36*
X113760D02*
X113097Y143601D01*
X112534Y143226D01*
X112159Y142663D01*
X112027Y142000D01*
X112159Y141337D01*
X112534Y140774D01*
X113097Y140399D01*
X113760Y140267D01*
X114423Y140399D01*
X114986Y140774D01*
X115361Y141337D01*
X115493Y142000D01*
X115361Y142663D01*
X114986Y143226D01*
X114423Y143601D01*
X113760Y143733D01*
D02*
G37*
G36*
X98760D02*
X98097Y143601D01*
X97534Y143226D01*
X97159Y142663D01*
X97027Y142000D01*
X97159Y141337D01*
X97534Y140774D01*
X98097Y140399D01*
X98760Y140267D01*
X99423Y140399D01*
X99986Y140774D01*
X100361Y141337D01*
X100493Y142000D01*
X100361Y142663D01*
X99986Y143226D01*
X99423Y143601D01*
X98760Y143733D01*
D02*
G37*
G36*
X83760D02*
X83097Y143601D01*
X82534Y143226D01*
X82159Y142663D01*
X82027Y142000D01*
X82159Y141337D01*
X82534Y140774D01*
X83097Y140399D01*
X83760Y140267D01*
X84423Y140399D01*
X84986Y140774D01*
X85361Y141337D01*
X85493Y142000D01*
X85361Y142663D01*
X84986Y143226D01*
X84423Y143601D01*
X83760Y143733D01*
D02*
G37*
G36*
X226330Y141922D02*
X225901Y141836D01*
X225537Y141593D01*
X225294Y141229D01*
X225208Y140800D01*
X225294Y140371D01*
X225537Y140007D01*
X225901Y139764D01*
X226330Y139678D01*
X226759Y139764D01*
X227123Y140007D01*
X227366Y140371D01*
X227451Y140800D01*
X227366Y141229D01*
X227123Y141593D01*
X226759Y141836D01*
X226330Y141922D01*
D02*
G37*
G36*
X241960Y139422D02*
X241531Y139336D01*
X241167Y139093D01*
X240924Y138729D01*
X240839Y138300D01*
X240924Y137871D01*
X241167Y137507D01*
X241531Y137264D01*
X241960Y137178D01*
X242389Y137264D01*
X242753Y137507D01*
X242996Y137871D01*
X243082Y138300D01*
X242996Y138729D01*
X242753Y139093D01*
X242389Y139336D01*
X241960Y139422D01*
D02*
G37*
G36*
X199540Y138986D02*
X198654Y138810D01*
X197902Y138308D01*
X197400Y137556D01*
X197224Y136670D01*
X197400Y135784D01*
X197902Y135032D01*
X198654Y134530D01*
X199540Y134354D01*
X200426Y134530D01*
X201178Y135032D01*
X201680Y135784D01*
X201856Y136670D01*
X201680Y137556D01*
X201178Y138308D01*
X200426Y138810D01*
X199540Y138986D01*
D02*
G37*
G36*
X189540D02*
X188654Y138810D01*
X187902Y138308D01*
X187400Y137556D01*
X187224Y136670D01*
X187400Y135784D01*
X187902Y135032D01*
X188654Y134530D01*
X189540Y134354D01*
X190426Y134530D01*
X191178Y135032D01*
X191680Y135784D01*
X191856Y136670D01*
X191680Y137556D01*
X191178Y138308D01*
X190426Y138810D01*
X189540Y138986D01*
D02*
G37*
G36*
X272350Y135072D02*
X271921Y134986D01*
X271557Y134743D01*
X271314Y134379D01*
X271229Y133950D01*
X271314Y133521D01*
X271557Y133157D01*
X271921Y132914D01*
X272350Y132828D01*
X272779Y132914D01*
X273143Y133157D01*
X273386Y133521D01*
X273471Y133950D01*
X273386Y134379D01*
X273143Y134743D01*
X272779Y134986D01*
X272350Y135072D01*
D02*
G37*
G36*
X176700Y135357D02*
X175722Y135162D01*
X174892Y134608D01*
X174338Y133779D01*
X174143Y132800D01*
X174338Y131822D01*
X174892Y130992D01*
X175722Y130438D01*
X176700Y130243D01*
X177679Y130438D01*
X178508Y130992D01*
X179062Y131822D01*
X179257Y132800D01*
X179062Y133779D01*
X178508Y134608D01*
X177679Y135162D01*
X176700Y135357D01*
D02*
G37*
G36*
X159990D02*
X159011Y135162D01*
X158182Y134608D01*
X157628Y133779D01*
X157433Y132800D01*
X157628Y131822D01*
X158182Y130992D01*
X159011Y130438D01*
X159990Y130243D01*
X160968Y130438D01*
X161798Y130992D01*
X162352Y131822D01*
X162547Y132800D01*
X162352Y133779D01*
X161798Y134608D01*
X160968Y135162D01*
X159990Y135357D01*
D02*
G37*
G36*
X226220Y132262D02*
X225791Y132176D01*
X225427Y131933D01*
X225184Y131569D01*
X225098Y131140D01*
X225184Y130711D01*
X225427Y130347D01*
X225791Y130104D01*
X226220Y130018D01*
X226649Y130104D01*
X227013Y130347D01*
X227256Y130711D01*
X227342Y131140D01*
X227256Y131569D01*
X227013Y131933D01*
X226649Y132176D01*
X226220Y132262D01*
D02*
G37*
G36*
X102320Y130261D02*
X101891Y130176D01*
X101527Y129933D01*
X101284Y129569D01*
X101198Y129139D01*
X101284Y128710D01*
X101527Y128346D01*
X101891Y128103D01*
X102320Y128018D01*
X102749Y128103D01*
X103113Y128346D01*
X103356Y128710D01*
X103442Y129139D01*
X103356Y129569D01*
X103113Y129933D01*
X102749Y130176D01*
X102320Y130261D01*
D02*
G37*
G36*
X210850Y129201D02*
X210421Y129116D01*
X210057Y128873D01*
X209814Y128509D01*
X209729Y128080D01*
X209814Y127651D01*
X210057Y127287D01*
X210421Y127044D01*
X210850Y126958D01*
X211279Y127044D01*
X211643Y127287D01*
X211886Y127651D01*
X211971Y128080D01*
X211886Y128509D01*
X211643Y128873D01*
X211279Y129116D01*
X210850Y129201D01*
D02*
G37*
G36*
X376260Y128733D02*
X375597Y128601D01*
X375034Y128226D01*
X374659Y127663D01*
X374527Y127000D01*
X374659Y126337D01*
X375034Y125774D01*
X375597Y125399D01*
X376260Y125267D01*
X376923Y125399D01*
X377486Y125774D01*
X377861Y126337D01*
X377993Y127000D01*
X377861Y127663D01*
X377486Y128226D01*
X376923Y128601D01*
X376260Y128733D01*
D02*
G37*
G36*
X346260D02*
X345597Y128601D01*
X345034Y128226D01*
X344659Y127663D01*
X344527Y127000D01*
X344659Y126337D01*
X345034Y125774D01*
X345597Y125399D01*
X346260Y125267D01*
X346923Y125399D01*
X347486Y125774D01*
X347861Y126337D01*
X347993Y127000D01*
X347861Y127663D01*
X347486Y128226D01*
X346923Y128601D01*
X346260Y128733D01*
D02*
G37*
G36*
X331260D02*
X330597Y128601D01*
X330034Y128226D01*
X329659Y127663D01*
X329527Y127000D01*
X329659Y126337D01*
X330034Y125774D01*
X330597Y125399D01*
X331260Y125267D01*
X331923Y125399D01*
X332486Y125774D01*
X332861Y126337D01*
X332993Y127000D01*
X332861Y127663D01*
X332486Y128226D01*
X331923Y128601D01*
X331260Y128733D01*
D02*
G37*
G36*
X316260D02*
X315597Y128601D01*
X315034Y128226D01*
X314659Y127663D01*
X314527Y127000D01*
X314659Y126337D01*
X315034Y125774D01*
X315597Y125399D01*
X316260Y125267D01*
X316923Y125399D01*
X317486Y125774D01*
X317861Y126337D01*
X317993Y127000D01*
X317861Y127663D01*
X317486Y128226D01*
X316923Y128601D01*
X316260Y128733D01*
D02*
G37*
G36*
X301260D02*
X300597Y128601D01*
X300034Y128226D01*
X299659Y127663D01*
X299527Y127000D01*
X299659Y126337D01*
X300034Y125774D01*
X300597Y125399D01*
X301260Y125267D01*
X301923Y125399D01*
X302486Y125774D01*
X302861Y126337D01*
X302993Y127000D01*
X302861Y127663D01*
X302486Y128226D01*
X301923Y128601D01*
X301260Y128733D01*
D02*
G37*
G36*
X106260D02*
X105597Y128601D01*
X105034Y128226D01*
X104659Y127663D01*
X104527Y127000D01*
X104659Y126337D01*
X105034Y125774D01*
X105597Y125399D01*
X106260Y125267D01*
X106923Y125399D01*
X107486Y125774D01*
X107861Y126337D01*
X107993Y127000D01*
X107861Y127663D01*
X107486Y128226D01*
X106923Y128601D01*
X106260Y128733D01*
D02*
G37*
G36*
X61260D02*
X60597Y128601D01*
X60034Y128226D01*
X59659Y127663D01*
X59527Y127000D01*
X59659Y126337D01*
X60034Y125774D01*
X60597Y125399D01*
X61260Y125267D01*
X61923Y125399D01*
X62486Y125774D01*
X62861Y126337D01*
X62993Y127000D01*
X62861Y127663D01*
X62486Y128226D01*
X61923Y128601D01*
X61260Y128733D01*
D02*
G37*
G36*
X272210Y127082D02*
X271781Y126996D01*
X271417Y126753D01*
X271174Y126389D01*
X271089Y125960D01*
X271174Y125531D01*
X271417Y125167D01*
X271781Y124924D01*
X272210Y124838D01*
X272639Y124924D01*
X273003Y125167D01*
X273246Y125531D01*
X273332Y125960D01*
X273246Y126389D01*
X273003Y126753D01*
X272639Y126996D01*
X272210Y127082D01*
D02*
G37*
G36*
X188280Y125365D02*
X187850Y125280D01*
X187487Y125037D01*
X187243Y124673D01*
X187158Y124244D01*
X187243Y123814D01*
X187487Y123451D01*
X187850Y123208D01*
X188280Y123122D01*
X188709Y123208D01*
X189073Y123451D01*
X189316Y123814D01*
X189401Y124244D01*
X189316Y124673D01*
X189073Y125037D01*
X188709Y125280D01*
X188280Y125365D01*
D02*
G37*
G36*
X64470Y124732D02*
X64041Y124646D01*
X63677Y124403D01*
X63434Y124039D01*
X63349Y123610D01*
X63434Y123181D01*
X63677Y122817D01*
X64041Y122574D01*
X64470Y122488D01*
X64899Y122574D01*
X65263Y122817D01*
X65506Y123181D01*
X65592Y123610D01*
X65506Y124039D01*
X65263Y124403D01*
X64899Y124646D01*
X64470Y124732D01*
D02*
G37*
G36*
X226650Y124632D02*
X226221Y124546D01*
X225857Y124303D01*
X225614Y123939D01*
X225529Y123510D01*
X225614Y123081D01*
X225857Y122717D01*
X226221Y122474D01*
X226650Y122388D01*
X227079Y122474D01*
X227443Y122717D01*
X227686Y123081D01*
X227771Y123510D01*
X227686Y123939D01*
X227443Y124303D01*
X227079Y124546D01*
X226650Y124632D01*
D02*
G37*
G36*
X220177Y121680D02*
X219748Y121594D01*
X219384Y121351D01*
X219141Y120987D01*
X219056Y120558D01*
X219141Y120129D01*
X219384Y119765D01*
X219748Y119522D01*
X220177Y119437D01*
X220606Y119522D01*
X220970Y119765D01*
X221213Y120129D01*
X221299Y120558D01*
X221213Y120987D01*
X220970Y121351D01*
X220606Y121594D01*
X220177Y121680D01*
D02*
G37*
G36*
X406390Y120272D02*
X405961Y120186D01*
X405597Y119943D01*
X405354Y119579D01*
X405268Y119150D01*
X405354Y118721D01*
X405597Y118357D01*
X405961Y118114D01*
X406390Y118028D01*
X406819Y118114D01*
X407183Y118357D01*
X407426Y118721D01*
X407512Y119150D01*
X407426Y119579D01*
X407183Y119943D01*
X406819Y120186D01*
X406390Y120272D01*
D02*
G37*
G36*
X272280Y118382D02*
X271851Y118296D01*
X271487Y118053D01*
X271244Y117689D01*
X271158Y117260D01*
X271244Y116831D01*
X271487Y116467D01*
X271851Y116224D01*
X272280Y116138D01*
X272709Y116224D01*
X273073Y116467D01*
X273316Y116831D01*
X273401Y117260D01*
X273316Y117689D01*
X273073Y118053D01*
X272709Y118296D01*
X272280Y118382D01*
D02*
G37*
G36*
X60140Y117342D02*
X59711Y117256D01*
X59347Y117013D01*
X59104Y116649D01*
X59018Y116220D01*
X59104Y115791D01*
X59347Y115427D01*
X59711Y115184D01*
X60140Y115099D01*
X60569Y115184D01*
X60933Y115427D01*
X61176Y115791D01*
X61261Y116220D01*
X61176Y116649D01*
X60933Y117013D01*
X60569Y117256D01*
X60140Y117342D01*
D02*
G37*
G36*
X250304Y112741D02*
X249875Y112656D01*
X249511Y112413D01*
X249268Y112049D01*
X249183Y111620D01*
X249268Y111191D01*
X249511Y110827D01*
X249875Y110584D01*
X250304Y110498D01*
X250734Y110584D01*
X251097Y110827D01*
X251341Y111191D01*
X251426Y111620D01*
X251341Y112049D01*
X251097Y112413D01*
X250734Y112656D01*
X250304Y112741D01*
D02*
G37*
G36*
X220293Y112602D02*
X219864Y112516D01*
X219500Y112273D01*
X219257Y111909D01*
X219172Y111480D01*
X219257Y111051D01*
X219500Y110687D01*
X219864Y110444D01*
X220293Y110359D01*
X220722Y110444D01*
X221086Y110687D01*
X221329Y111051D01*
X221415Y111480D01*
X221329Y111909D01*
X221086Y112273D01*
X220722Y112516D01*
X220293Y112602D01*
D02*
G37*
G36*
X353760Y113733D02*
X353097Y113601D01*
X352534Y113226D01*
X352159Y112663D01*
X352027Y112000D01*
X352159Y111337D01*
X352534Y110774D01*
X353097Y110399D01*
X353760Y110267D01*
X354423Y110399D01*
X354986Y110774D01*
X355361Y111337D01*
X355493Y112000D01*
X355361Y112663D01*
X354986Y113226D01*
X354423Y113601D01*
X353760Y113733D01*
D02*
G37*
G36*
X338760D02*
X338097Y113601D01*
X337534Y113226D01*
X337159Y112663D01*
X337027Y112000D01*
X337159Y111337D01*
X337534Y110774D01*
X338097Y110399D01*
X338760Y110267D01*
X339423Y110399D01*
X339986Y110774D01*
X340361Y111337D01*
X340493Y112000D01*
X340361Y112663D01*
X339986Y113226D01*
X339423Y113601D01*
X338760Y113733D01*
D02*
G37*
G36*
X323760D02*
X323097Y113601D01*
X322534Y113226D01*
X322159Y112663D01*
X322027Y112000D01*
X322159Y111337D01*
X322534Y110774D01*
X323097Y110399D01*
X323760Y110267D01*
X324423Y110399D01*
X324986Y110774D01*
X325361Y111337D01*
X325493Y112000D01*
X325361Y112663D01*
X324986Y113226D01*
X324423Y113601D01*
X323760Y113733D01*
D02*
G37*
G36*
X308760D02*
X308097Y113601D01*
X307534Y113226D01*
X307159Y112663D01*
X307027Y112000D01*
X307159Y111337D01*
X307534Y110774D01*
X308097Y110399D01*
X308760Y110267D01*
X309423Y110399D01*
X309986Y110774D01*
X310361Y111337D01*
X310493Y112000D01*
X310361Y112663D01*
X309986Y113226D01*
X309423Y113601D01*
X308760Y113733D01*
D02*
G37*
G36*
X293760D02*
X293097Y113601D01*
X292534Y113226D01*
X292159Y112663D01*
X292027Y112000D01*
X292159Y111337D01*
X292534Y110774D01*
X293097Y110399D01*
X293760Y110267D01*
X294423Y110399D01*
X294986Y110774D01*
X295361Y111337D01*
X295493Y112000D01*
X295361Y112663D01*
X294986Y113226D01*
X294423Y113601D01*
X293760Y113733D01*
D02*
G37*
G36*
X173760D02*
X173097Y113601D01*
X172534Y113226D01*
X172159Y112663D01*
X172027Y112000D01*
X172159Y111337D01*
X172534Y110774D01*
X173097Y110399D01*
X173760Y110267D01*
X174423Y110399D01*
X174986Y110774D01*
X175361Y111337D01*
X175493Y112000D01*
X175361Y112663D01*
X174986Y113226D01*
X174423Y113601D01*
X173760Y113733D01*
D02*
G37*
G36*
X68760D02*
X68097Y113601D01*
X67534Y113226D01*
X67159Y112663D01*
X67027Y112000D01*
X67159Y111337D01*
X67534Y110774D01*
X68097Y110399D01*
X68760Y110267D01*
X69423Y110399D01*
X69986Y110774D01*
X70361Y111337D01*
X70493Y112000D01*
X70361Y112663D01*
X69986Y113226D01*
X69423Y113601D01*
X68760Y113733D01*
D02*
G37*
G36*
X232191Y113047D02*
X231645Y112938D01*
X231182Y112629D01*
X230872Y112166D01*
X230764Y111620D01*
X230872Y111074D01*
X231182Y110610D01*
X231645Y110301D01*
X232191Y110192D01*
X232737Y110301D01*
X233200Y110610D01*
X233510Y111074D01*
X233618Y111620D01*
X233510Y112166D01*
X233200Y112629D01*
X232737Y112938D01*
X232191Y113047D01*
D02*
G37*
G36*
X183380Y111612D02*
X182951Y111526D01*
X182587Y111283D01*
X182344Y110919D01*
X182258Y110490D01*
X182344Y110061D01*
X182587Y109697D01*
X182951Y109454D01*
X183380Y109369D01*
X183809Y109454D01*
X184173Y109697D01*
X184416Y110061D01*
X184502Y110490D01*
X184416Y110919D01*
X184173Y111283D01*
X183809Y111526D01*
X183380Y111612D01*
D02*
G37*
G36*
X220293Y109835D02*
X219864Y109750D01*
X219500Y109507D01*
X219257Y109143D01*
X219172Y108714D01*
X219257Y108284D01*
X219500Y107921D01*
X219864Y107677D01*
X220293Y107592D01*
X220722Y107677D01*
X221086Y107921D01*
X221329Y108284D01*
X221415Y108714D01*
X221329Y109143D01*
X221086Y109507D01*
X220722Y109750D01*
X220293Y109835D01*
D02*
G37*
G36*
X215696D02*
X215267Y109750D01*
X214903Y109507D01*
X214660Y109143D01*
X214574Y108714D01*
X214660Y108284D01*
X214903Y107921D01*
X215267Y107677D01*
X215696Y107592D01*
X216125Y107677D01*
X216489Y107921D01*
X216732Y108284D01*
X216817Y108714D01*
X216732Y109143D01*
X216489Y109507D01*
X216125Y109750D01*
X215696Y109835D01*
D02*
G37*
G36*
X272560Y109692D02*
X272131Y109606D01*
X271767Y109363D01*
X271524Y108999D01*
X271439Y108570D01*
X271524Y108141D01*
X271767Y107777D01*
X272131Y107534D01*
X272560Y107448D01*
X272989Y107534D01*
X273353Y107777D01*
X273596Y108141D01*
X273682Y108570D01*
X273596Y108999D01*
X273353Y109363D01*
X272989Y109606D01*
X272560Y109692D01*
D02*
G37*
G36*
X245410Y108742D02*
X244981Y108656D01*
X244617Y108413D01*
X244374Y108049D01*
X244288Y107620D01*
X244374Y107191D01*
X244617Y106827D01*
X244981Y106584D01*
X245410Y106499D01*
X245839Y106584D01*
X246203Y106827D01*
X246446Y107191D01*
X246532Y107620D01*
X246446Y108049D01*
X246203Y108413D01*
X245839Y108656D01*
X245410Y108742D01*
D02*
G37*
G36*
X236510Y108502D02*
X236081Y108416D01*
X235717Y108173D01*
X235474Y107809D01*
X235388Y107380D01*
X235474Y106951D01*
X235717Y106587D01*
X236081Y106344D01*
X236510Y106258D01*
X236939Y106344D01*
X237303Y106587D01*
X237546Y106951D01*
X237632Y107380D01*
X237546Y107809D01*
X237303Y108173D01*
X236939Y108416D01*
X236510Y108502D01*
D02*
G37*
G36*
X164443Y112396D02*
X163645Y112291D01*
X162901Y111983D01*
X162262Y111492D01*
X161771Y110853D01*
X161463Y110109D01*
X161358Y109310D01*
X161463Y108512D01*
X161771Y107768D01*
X162262Y107129D01*
X162901Y106638D01*
X163645Y106330D01*
X164443Y106225D01*
X165242Y106330D01*
X165986Y106638D01*
X166625Y107129D01*
X167115Y107768D01*
X167424Y108512D01*
X167529Y109310D01*
X167424Y110109D01*
X167115Y110853D01*
X166625Y111492D01*
X165986Y111983D01*
X165242Y112291D01*
X164443Y112396D01*
D02*
G37*
G36*
X76254D02*
X75456Y112291D01*
X74712Y111983D01*
X74073Y111492D01*
X73582Y110853D01*
X73274Y110109D01*
X73169Y109310D01*
X73274Y108512D01*
X73582Y107768D01*
X74073Y107129D01*
X74712Y106638D01*
X75456Y106330D01*
X76254Y106225D01*
X77053Y106330D01*
X77797Y106638D01*
X78436Y107129D01*
X78926Y107768D01*
X79235Y108512D01*
X79340Y109310D01*
X79235Y110109D01*
X78926Y110853D01*
X78436Y111492D01*
X77797Y111983D01*
X77053Y112291D01*
X76254Y112396D01*
D02*
G37*
G36*
X406180Y105172D02*
X405751Y105086D01*
X405387Y104843D01*
X405144Y104479D01*
X405058Y104050D01*
X405144Y103621D01*
X405387Y103257D01*
X405751Y103014D01*
X406180Y102928D01*
X406609Y103014D01*
X406973Y103257D01*
X407216Y103621D01*
X407302Y104050D01*
X407216Y104479D01*
X406973Y104843D01*
X406609Y105086D01*
X406180Y105172D01*
D02*
G37*
G36*
X101218Y101962D02*
X100789Y101876D01*
X100425Y101633D01*
X100182Y101269D01*
X100096Y100840D01*
X100182Y100411D01*
X100425Y100047D01*
X100789Y99804D01*
X101218Y99718D01*
X101647Y99804D01*
X102011Y100047D01*
X102254Y100411D01*
X102340Y100840D01*
X102254Y101269D01*
X102011Y101633D01*
X101647Y101876D01*
X101218Y101962D01*
D02*
G37*
G36*
X272770Y101632D02*
X272341Y101546D01*
X271977Y101303D01*
X271734Y100939D01*
X271649Y100510D01*
X271734Y100081D01*
X271977Y99717D01*
X272341Y99474D01*
X272770Y99388D01*
X273199Y99474D01*
X273563Y99717D01*
X273806Y100081D01*
X273892Y100510D01*
X273806Y100939D01*
X273563Y101303D01*
X273199Y101546D01*
X272770Y101632D01*
D02*
G37*
G36*
X187290Y101462D02*
X186861Y101376D01*
X186497Y101133D01*
X186254Y100769D01*
X186169Y100340D01*
X186254Y99911D01*
X186497Y99547D01*
X186861Y99304D01*
X187290Y99218D01*
X187719Y99304D01*
X188083Y99547D01*
X188326Y99911D01*
X188412Y100340D01*
X188326Y100769D01*
X188083Y101133D01*
X187719Y101376D01*
X187290Y101462D01*
D02*
G37*
G36*
X387189Y166055D02*
X384268D01*
X381346D01*
X381382Y165782D01*
X381680Y165061D01*
X382155Y164443D01*
X382774Y163968D01*
X383134Y163819D01*
X383134Y163277D01*
X382824Y163149D01*
X382226Y162690D01*
X381768Y162092D01*
X381479Y161396D01*
X381381Y160649D01*
X381479Y159902D01*
X381768Y159206D01*
X382226Y158608D01*
X382824Y158149D01*
X383264Y157967D01*
Y157426D01*
X382824Y157244D01*
X382226Y156785D01*
X381768Y156187D01*
X381479Y155491D01*
X381381Y154744D01*
X381479Y153997D01*
X381768Y153301D01*
X382226Y152703D01*
X382824Y152244D01*
X383265Y152062D01*
Y151520D01*
X382824Y151338D01*
X382226Y150879D01*
X381768Y150281D01*
X381479Y149585D01*
X381381Y148838D01*
X381479Y148091D01*
X381768Y147395D01*
X382226Y146797D01*
X382824Y146338D01*
X383264Y146156D01*
Y145615D01*
X382824Y145433D01*
X382226Y144974D01*
X381768Y144376D01*
X381479Y143680D01*
X381381Y142933D01*
X381479Y142186D01*
X381768Y141490D01*
X382226Y140892D01*
X382824Y140433D01*
X383265Y140251D01*
Y139709D01*
X382824Y139527D01*
X382226Y139068D01*
X381768Y138470D01*
X381479Y137774D01*
X381381Y137027D01*
X381479Y136280D01*
X381768Y135584D01*
X382226Y134986D01*
X382824Y134527D01*
X383264Y134345D01*
Y133804D01*
X382824Y133622D01*
X382226Y133163D01*
X381768Y132565D01*
X381479Y131869D01*
X381381Y131122D01*
X381479Y130375D01*
X381768Y129679D01*
X382226Y129081D01*
X382824Y128622D01*
X383265Y128440D01*
Y127898D01*
X382824Y127716D01*
X382226Y127257D01*
X381768Y126659D01*
X381479Y125963D01*
X381381Y125216D01*
X381479Y124469D01*
X381768Y123773D01*
X382226Y123175D01*
X382824Y122716D01*
X383264Y122534D01*
Y121993D01*
X382824Y121811D01*
X382226Y121352D01*
X381768Y120754D01*
X381479Y120058D01*
X381381Y119311D01*
X381479Y118564D01*
X381768Y117868D01*
X382226Y117270D01*
X382824Y116811D01*
X383265Y116629D01*
Y116087D01*
X382824Y115905D01*
X382226Y115446D01*
X381768Y114848D01*
X381479Y114152D01*
X381381Y113405D01*
X381479Y112658D01*
X381768Y111962D01*
X382226Y111364D01*
X382824Y110905D01*
X383264Y110723D01*
Y110182D01*
X382824Y110000D01*
X382226Y109541D01*
X381768Y108943D01*
X381479Y108247D01*
X381381Y107500D01*
X381479Y106753D01*
X381768Y106057D01*
X382226Y105459D01*
X382824Y105000D01*
X383265Y104818D01*
Y104276D01*
X382824Y104094D01*
X382226Y103635D01*
X381768Y103037D01*
X381479Y102341D01*
X381381Y101594D01*
X381479Y100847D01*
X381768Y100151D01*
X382226Y99553D01*
X382824Y99094D01*
X383521Y98806D01*
X384268Y98707D01*
X385015Y98806D01*
X385711Y99094D01*
X386309Y99553D01*
X386768Y100151D01*
X387056Y100847D01*
X387154Y101594D01*
X387056Y102341D01*
X386768Y103037D01*
X386309Y103635D01*
X385711Y104094D01*
X385271Y104276D01*
Y104818D01*
X385711Y105000D01*
X386309Y105459D01*
X386768Y106057D01*
X387056Y106753D01*
X387154Y107500D01*
X387056Y108247D01*
X386768Y108943D01*
X386309Y109541D01*
X385711Y110000D01*
X385272Y110182D01*
Y110723D01*
X385711Y110905D01*
X386309Y111364D01*
X386768Y111962D01*
X387056Y112658D01*
X387154Y113405D01*
X387056Y114152D01*
X386768Y114848D01*
X386309Y115446D01*
X385711Y115905D01*
X385271Y116087D01*
Y116629D01*
X385711Y116811D01*
X386309Y117270D01*
X386768Y117868D01*
X387056Y118564D01*
X387154Y119311D01*
X387056Y120058D01*
X386768Y120754D01*
X386309Y121352D01*
X385711Y121811D01*
X385272Y121993D01*
Y122534D01*
X385711Y122716D01*
X386309Y123175D01*
X386768Y123773D01*
X387056Y124469D01*
X387154Y125216D01*
X387056Y125963D01*
X386768Y126659D01*
X386309Y127257D01*
X385711Y127716D01*
X385271Y127898D01*
Y128440D01*
X385711Y128622D01*
X386309Y129081D01*
X386768Y129679D01*
X387056Y130375D01*
X387154Y131122D01*
X387056Y131869D01*
X386768Y132565D01*
X386309Y133163D01*
X385711Y133622D01*
X385272Y133804D01*
Y134345D01*
X385711Y134527D01*
X386309Y134986D01*
X386768Y135584D01*
X387056Y136280D01*
X387154Y137027D01*
X387056Y137774D01*
X386768Y138470D01*
X386309Y139068D01*
X385711Y139527D01*
X385271Y139709D01*
Y140251D01*
X385711Y140433D01*
X386309Y140892D01*
X386768Y141490D01*
X387056Y142186D01*
X387154Y142933D01*
X387056Y143680D01*
X386768Y144376D01*
X386309Y144974D01*
X385711Y145433D01*
X385272Y145615D01*
Y146156D01*
X385711Y146338D01*
X386309Y146797D01*
X386768Y147395D01*
X387056Y148091D01*
X387154Y148838D01*
X387056Y149585D01*
X386768Y150281D01*
X386309Y150879D01*
X385711Y151338D01*
X385271Y151520D01*
Y152062D01*
X385711Y152244D01*
X386309Y152703D01*
X386768Y153301D01*
X387056Y153997D01*
X387154Y154744D01*
X387056Y155491D01*
X386768Y156187D01*
X386309Y156785D01*
X385711Y157244D01*
X385272Y157426D01*
Y157967D01*
X385711Y158149D01*
X386309Y158608D01*
X386768Y159206D01*
X387056Y159902D01*
X387154Y160649D01*
X387056Y161396D01*
X386768Y162092D01*
X386309Y162690D01*
X385711Y163149D01*
X385401Y163277D01*
X385401Y163819D01*
X385761Y163968D01*
X386380Y164443D01*
X386855Y165061D01*
X387154Y165782D01*
X387189Y166055D01*
D02*
G37*
G36*
X-14920Y100002D02*
X-15349Y99916D01*
X-15713Y99673D01*
X-15956Y99309D01*
X-16042Y98880D01*
X-15956Y98451D01*
X-15713Y98087D01*
X-15349Y97844D01*
X-14920Y97759D01*
X-14491Y97844D01*
X-14127Y98087D01*
X-13884Y98451D01*
X-13798Y98880D01*
X-13884Y99309D01*
X-14127Y99673D01*
X-14491Y99916D01*
X-14920Y100002D01*
D02*
G37*
G36*
X237747Y99928D02*
X237318Y99842D01*
X236954Y99599D01*
X236711Y99235D01*
X236625Y98806D01*
X236711Y98377D01*
X236954Y98013D01*
X237318Y97770D01*
X237747Y97685D01*
X238176Y97770D01*
X238540Y98013D01*
X238783Y98377D01*
X238868Y98806D01*
X238783Y99235D01*
X238540Y99599D01*
X238176Y99842D01*
X237747Y99928D01*
D02*
G37*
G36*
X89908Y99122D02*
X89478Y99036D01*
X89115Y98793D01*
X88872Y98429D01*
X88786Y98000D01*
X88872Y97571D01*
X89115Y97207D01*
X89478Y96964D01*
X89908Y96878D01*
X90337Y96964D01*
X90701Y97207D01*
X90944Y97571D01*
X91029Y98000D01*
X90944Y98429D01*
X90701Y98793D01*
X90337Y99036D01*
X89908Y99122D01*
D02*
G37*
G36*
X376260Y98733D02*
X375597Y98601D01*
X375034Y98226D01*
X374659Y97663D01*
X374527Y97000D01*
X374659Y96337D01*
X375034Y95774D01*
X375597Y95399D01*
X376260Y95267D01*
X376923Y95399D01*
X377486Y95774D01*
X377861Y96337D01*
X377993Y97000D01*
X377861Y97663D01*
X377486Y98226D01*
X376923Y98601D01*
X376260Y98733D01*
D02*
G37*
G36*
X346260D02*
X345597Y98601D01*
X345034Y98226D01*
X344659Y97663D01*
X344527Y97000D01*
X344659Y96337D01*
X345034Y95774D01*
X345597Y95399D01*
X346260Y95267D01*
X346923Y95399D01*
X347486Y95774D01*
X347861Y96337D01*
X347993Y97000D01*
X347861Y97663D01*
X347486Y98226D01*
X346923Y98601D01*
X346260Y98733D01*
D02*
G37*
G36*
X331260D02*
X330597Y98601D01*
X330034Y98226D01*
X329659Y97663D01*
X329527Y97000D01*
X329659Y96337D01*
X330034Y95774D01*
X330597Y95399D01*
X331260Y95267D01*
X331923Y95399D01*
X332486Y95774D01*
X332861Y96337D01*
X332993Y97000D01*
X332861Y97663D01*
X332486Y98226D01*
X331923Y98601D01*
X331260Y98733D01*
D02*
G37*
G36*
X316260D02*
X315597Y98601D01*
X315034Y98226D01*
X314659Y97663D01*
X314527Y97000D01*
X314659Y96337D01*
X315034Y95774D01*
X315597Y95399D01*
X316260Y95267D01*
X316923Y95399D01*
X317486Y95774D01*
X317861Y96337D01*
X317993Y97000D01*
X317861Y97663D01*
X317486Y98226D01*
X316923Y98601D01*
X316260Y98733D01*
D02*
G37*
G36*
X301260D02*
X300597Y98601D01*
X300034Y98226D01*
X299659Y97663D01*
X299527Y97000D01*
X299659Y96337D01*
X300034Y95774D01*
X300597Y95399D01*
X301260Y95267D01*
X301923Y95399D01*
X302486Y95774D01*
X302861Y96337D01*
X302993Y97000D01*
X302861Y97663D01*
X302486Y98226D01*
X301923Y98601D01*
X301260Y98733D01*
D02*
G37*
G36*
X196260D02*
X195597Y98601D01*
X195034Y98226D01*
X194659Y97663D01*
X194527Y97000D01*
X194659Y96337D01*
X195034Y95774D01*
X195597Y95399D01*
X196260Y95267D01*
X196923Y95399D01*
X197486Y95774D01*
X197861Y96337D01*
X197993Y97000D01*
X197861Y97663D01*
X197486Y98226D01*
X196923Y98601D01*
X196260Y98733D01*
D02*
G37*
G36*
X24430Y96891D02*
X24001Y96806D01*
X23637Y96563D01*
X23394Y96199D01*
X23308Y95770D01*
X23394Y95341D01*
X23637Y94977D01*
X24001Y94734D01*
X24430Y94648D01*
X24859Y94734D01*
X25223Y94977D01*
X25466Y95341D01*
X25552Y95770D01*
X25466Y96199D01*
X25223Y96563D01*
X24859Y96806D01*
X24430Y96891D01*
D02*
G37*
G36*
X247630Y95172D02*
X247201Y95086D01*
X246837Y94843D01*
X246594Y94479D01*
X246508Y94050D01*
X246594Y93621D01*
X246837Y93257D01*
X247201Y93014D01*
X247630Y92928D01*
X248059Y93014D01*
X248423Y93257D01*
X248666Y93621D01*
X248751Y94050D01*
X248666Y94479D01*
X248423Y94843D01*
X248059Y95086D01*
X247630Y95172D01*
D02*
G37*
G36*
X272560Y90762D02*
X272131Y90676D01*
X271767Y90433D01*
X271524Y90069D01*
X271439Y89640D01*
X271524Y89211D01*
X271767Y88847D01*
X272131Y88604D01*
X272560Y88518D01*
X272989Y88604D01*
X273353Y88847D01*
X273596Y89211D01*
X273682Y89640D01*
X273596Y90069D01*
X273353Y90433D01*
X272989Y90676D01*
X272560Y90762D01*
D02*
G37*
G36*
X406270Y90022D02*
X405841Y89936D01*
X405477Y89693D01*
X405234Y89329D01*
X405149Y88900D01*
X405234Y88471D01*
X405477Y88107D01*
X405841Y87864D01*
X406270Y87778D01*
X406699Y87864D01*
X407063Y88107D01*
X407306Y88471D01*
X407392Y88900D01*
X407306Y89329D01*
X407063Y89693D01*
X406699Y89936D01*
X406270Y90022D01*
D02*
G37*
G36*
X89800Y89422D02*
X89371Y89336D01*
X89007Y89093D01*
X88764Y88729D01*
X88678Y88300D01*
X88764Y87871D01*
X89007Y87507D01*
X89371Y87264D01*
X89800Y87178D01*
X90229Y87264D01*
X90593Y87507D01*
X90836Y87871D01*
X90922Y88300D01*
X90836Y88729D01*
X90593Y89093D01*
X90229Y89336D01*
X89800Y89422D01*
D02*
G37*
G36*
X95420Y85015D02*
X94990Y84930D01*
X94627Y84686D01*
X94384Y84323D01*
X94298Y83893D01*
X94384Y83464D01*
X94627Y83100D01*
X94990Y82857D01*
X95420Y82772D01*
X95849Y82857D01*
X96213Y83100D01*
X96456Y83464D01*
X96541Y83893D01*
X96456Y84323D01*
X96213Y84686D01*
X95849Y84930D01*
X95420Y85015D01*
D02*
G37*
G36*
X265990Y84832D02*
X265561Y84746D01*
X265197Y84503D01*
X264954Y84139D01*
X264868Y83710D01*
X264954Y83281D01*
X265197Y82917D01*
X265561Y82674D01*
X265990Y82588D01*
X266419Y82674D01*
X266783Y82917D01*
X267026Y83281D01*
X267111Y83710D01*
X267026Y84139D01*
X266783Y84503D01*
X266419Y84746D01*
X265990Y84832D01*
D02*
G37*
G36*
X41821Y84755D02*
X41392Y84669D01*
X41028Y84426D01*
X40785Y84062D01*
X40700Y83633D01*
X40785Y83204D01*
X41028Y82840D01*
X41392Y82597D01*
X41821Y82512D01*
X42250Y82597D01*
X42614Y82840D01*
X42858Y83204D01*
X42943Y83633D01*
X42858Y84062D01*
X42614Y84426D01*
X42250Y84669D01*
X41821Y84755D01*
D02*
G37*
G36*
X353760Y83733D02*
X353097Y83601D01*
X352534Y83226D01*
X352159Y82663D01*
X352027Y82000D01*
X352159Y81337D01*
X352534Y80774D01*
X353097Y80399D01*
X353760Y80267D01*
X354423Y80399D01*
X354986Y80774D01*
X355361Y81337D01*
X355493Y82000D01*
X355361Y82663D01*
X354986Y83226D01*
X354423Y83601D01*
X353760Y83733D01*
D02*
G37*
G36*
X338760D02*
X338097Y83601D01*
X337534Y83226D01*
X337159Y82663D01*
X337027Y82000D01*
X337159Y81337D01*
X337534Y80774D01*
X338097Y80399D01*
X338760Y80267D01*
X339423Y80399D01*
X339986Y80774D01*
X340361Y81337D01*
X340493Y82000D01*
X340361Y82663D01*
X339986Y83226D01*
X339423Y83601D01*
X338760Y83733D01*
D02*
G37*
G36*
X323760D02*
X323097Y83601D01*
X322534Y83226D01*
X322159Y82663D01*
X322027Y82000D01*
X322159Y81337D01*
X322534Y80774D01*
X323097Y80399D01*
X323760Y80267D01*
X324423Y80399D01*
X324986Y80774D01*
X325361Y81337D01*
X325493Y82000D01*
X325361Y82663D01*
X324986Y83226D01*
X324423Y83601D01*
X323760Y83733D01*
D02*
G37*
G36*
X308760D02*
X308097Y83601D01*
X307534Y83226D01*
X307159Y82663D01*
X307027Y82000D01*
X307159Y81337D01*
X307534Y80774D01*
X308097Y80399D01*
X308760Y80267D01*
X309423Y80399D01*
X309986Y80774D01*
X310361Y81337D01*
X310493Y82000D01*
X310361Y82663D01*
X309986Y83226D01*
X309423Y83601D01*
X308760Y83733D01*
D02*
G37*
G36*
X293760D02*
X293097Y83601D01*
X292534Y83226D01*
X292159Y82663D01*
X292027Y82000D01*
X292159Y81337D01*
X292534Y80774D01*
X293097Y80399D01*
X293760Y80267D01*
X294423Y80399D01*
X294986Y80774D01*
X295361Y81337D01*
X295493Y82000D01*
X295361Y82663D01*
X294986Y83226D01*
X294423Y83601D01*
X293760Y83733D01*
D02*
G37*
G36*
X173760D02*
X173097Y83601D01*
X172534Y83226D01*
X172159Y82663D01*
X172027Y82000D01*
X172159Y81337D01*
X172534Y80774D01*
X173097Y80399D01*
X173760Y80267D01*
X174423Y80399D01*
X174986Y80774D01*
X175361Y81337D01*
X175493Y82000D01*
X175361Y82663D01*
X174986Y83226D01*
X174423Y83601D01*
X173760Y83733D01*
D02*
G37*
G36*
X113760D02*
X113097Y83601D01*
X112534Y83226D01*
X112159Y82663D01*
X112027Y82000D01*
X112159Y81337D01*
X112534Y80774D01*
X113097Y80399D01*
X113760Y80267D01*
X114423Y80399D01*
X114986Y80774D01*
X115361Y81337D01*
X115493Y82000D01*
X115361Y82663D01*
X114986Y83226D01*
X114423Y83601D01*
X113760Y83733D01*
D02*
G37*
G36*
X68760D02*
X68097Y83601D01*
X67534Y83226D01*
X67159Y82663D01*
X67027Y82000D01*
X67159Y81337D01*
X67534Y80774D01*
X68097Y80399D01*
X68760Y80267D01*
X69423Y80399D01*
X69986Y80774D01*
X70361Y81337D01*
X70493Y82000D01*
X70361Y82663D01*
X69986Y83226D01*
X69423Y83601D01*
X68760Y83733D01*
D02*
G37*
G36*
X53760D02*
X53097Y83601D01*
X52534Y83226D01*
X52159Y82663D01*
X52027Y82000D01*
X52159Y81337D01*
X52534Y80774D01*
X53097Y80399D01*
X53760Y80267D01*
X54423Y80399D01*
X54986Y80774D01*
X55361Y81337D01*
X55493Y82000D01*
X55361Y82663D01*
X54986Y83226D01*
X54423Y83601D01*
X53760Y83733D01*
D02*
G37*
G36*
X377181Y84290D02*
X376259Y84169D01*
X375400Y83813D01*
X374662Y83247D01*
X374096Y82509D01*
X373740Y81650D01*
X373619Y80728D01*
X373740Y79806D01*
X374096Y78947D01*
X374662Y78209D01*
X375400Y77643D01*
X376259Y77287D01*
X377181Y77166D01*
X378103Y77287D01*
X378962Y77643D01*
X379699Y78209D01*
X380265Y78947D01*
X380621Y79806D01*
X380743Y80728D01*
X380621Y81650D01*
X380265Y82509D01*
X379699Y83247D01*
X378962Y83813D01*
X378103Y84169D01*
X377181Y84290D01*
D02*
G37*
G36*
X67748Y77834D02*
X67319Y77749D01*
X66955Y77506D01*
X66712Y77142D01*
X66626Y76713D01*
X66712Y76284D01*
X66955Y75920D01*
X67319Y75677D01*
X67748Y75591D01*
X68177Y75677D01*
X68541Y75920D01*
X68784Y76284D01*
X68869Y76713D01*
X68784Y77142D01*
X68541Y77506D01*
X68177Y77749D01*
X67748Y77834D01*
D02*
G37*
G36*
X191890Y76533D02*
X191227Y76401D01*
X190664Y76026D01*
X190289Y75463D01*
X190157Y74800D01*
X190289Y74137D01*
X190664Y73574D01*
X191227Y73199D01*
X191890Y73067D01*
X192553Y73199D01*
X193116Y73574D01*
X193491Y74137D01*
X193623Y74800D01*
X193491Y75463D01*
X193116Y76026D01*
X192553Y76401D01*
X191890Y76533D01*
D02*
G37*
G36*
X218850Y75142D02*
X218421Y75056D01*
X218057Y74813D01*
X217814Y74449D01*
X217728Y74020D01*
X217814Y73591D01*
X218057Y73227D01*
X218421Y72984D01*
X218850Y72899D01*
X219279Y72984D01*
X219643Y73227D01*
X219886Y73591D01*
X219971Y74020D01*
X219886Y74449D01*
X219643Y74813D01*
X219279Y75056D01*
X218850Y75142D01*
D02*
G37*
G36*
X203760Y76363D02*
X203097Y76231D01*
X202534Y75855D01*
X202159Y75293D01*
X202027Y74630D01*
X202159Y73966D01*
X202534Y73404D01*
X203097Y73028D01*
X203760Y72896D01*
X204423Y73028D01*
X204986Y73404D01*
X205361Y73966D01*
X205493Y74630D01*
X205361Y75293D01*
X204986Y75855D01*
X204423Y76231D01*
X203760Y76363D01*
D02*
G37*
G36*
X236820Y75042D02*
X236391Y74956D01*
X236027Y74713D01*
X235784Y74349D01*
X235699Y73920D01*
X235784Y73491D01*
X236027Y73127D01*
X236391Y72884D01*
X236820Y72799D01*
X237249Y72884D01*
X237613Y73127D01*
X237856Y73491D01*
X237942Y73920D01*
X237856Y74349D01*
X237613Y74713D01*
X237249Y74956D01*
X236820Y75042D01*
D02*
G37*
G36*
X228480Y74992D02*
X228051Y74906D01*
X227687Y74663D01*
X227444Y74299D01*
X227358Y73870D01*
X227444Y73441D01*
X227687Y73077D01*
X228051Y72834D01*
X228480Y72749D01*
X228909Y72834D01*
X229273Y73077D01*
X229516Y73441D01*
X229602Y73870D01*
X229516Y74299D01*
X229273Y74663D01*
X228909Y74906D01*
X228480Y74992D01*
D02*
G37*
G36*
X406519Y74952D02*
X406090Y74867D01*
X405726Y74624D01*
X405483Y74260D01*
X405398Y73831D01*
X405483Y73402D01*
X405726Y73038D01*
X406090Y72795D01*
X406519Y72709D01*
X406948Y72795D01*
X407312Y73038D01*
X407555Y73402D01*
X407641Y73831D01*
X407555Y74260D01*
X407312Y74624D01*
X406948Y74867D01*
X406519Y74952D01*
D02*
G37*
G36*
X23920Y74701D02*
X23491Y74616D01*
X23127Y74373D01*
X22884Y74009D01*
X22798Y73580D01*
X22884Y73151D01*
X23127Y72787D01*
X23491Y72544D01*
X23920Y72458D01*
X24349Y72544D01*
X24713Y72787D01*
X24956Y73151D01*
X25042Y73580D01*
X24956Y74009D01*
X24713Y74373D01*
X24349Y74616D01*
X23920Y74701D01*
D02*
G37*
G36*
X256231Y74548D02*
X255802Y74463D01*
X255438Y74220D01*
X255195Y73856D01*
X255110Y73426D01*
X255195Y72997D01*
X255438Y72633D01*
X255802Y72390D01*
X256231Y72305D01*
X256660Y72390D01*
X257024Y72633D01*
X257267Y72997D01*
X257353Y73426D01*
X257267Y73856D01*
X257024Y74220D01*
X256660Y74463D01*
X256231Y74548D01*
D02*
G37*
G36*
X247670Y74432D02*
X247241Y74346D01*
X246877Y74103D01*
X246634Y73739D01*
X246549Y73310D01*
X246634Y72881D01*
X246877Y72517D01*
X247241Y72274D01*
X247670Y72189D01*
X248099Y72274D01*
X248463Y72517D01*
X248706Y72881D01*
X248792Y73310D01*
X248706Y73739D01*
X248463Y74103D01*
X248099Y74346D01*
X247670Y74432D01*
D02*
G37*
G36*
X164100Y70932D02*
X163671Y70846D01*
X163307Y70603D01*
X163064Y70239D01*
X162978Y69810D01*
X163064Y69381D01*
X163307Y69017D01*
X163671Y68774D01*
X164100Y68688D01*
X164529Y68774D01*
X164893Y69017D01*
X165136Y69381D01*
X165222Y69810D01*
X165136Y70239D01*
X164893Y70603D01*
X164529Y70846D01*
X164100Y70932D01*
D02*
G37*
G36*
X98960Y70902D02*
X98531Y70816D01*
X98167Y70573D01*
X97924Y70209D01*
X97838Y69780D01*
X97924Y69351D01*
X98167Y68987D01*
X98531Y68744D01*
X98960Y68659D01*
X99389Y68744D01*
X99753Y68987D01*
X99996Y69351D01*
X100082Y69780D01*
X99996Y70209D01*
X99753Y70573D01*
X99389Y70816D01*
X98960Y70902D01*
D02*
G37*
G36*
X95400Y70711D02*
X94971Y70626D01*
X94607Y70383D01*
X94364Y70019D01*
X94278Y69590D01*
X94364Y69161D01*
X94607Y68797D01*
X94971Y68554D01*
X95400Y68468D01*
X95829Y68554D01*
X96193Y68797D01*
X96436Y69161D01*
X96522Y69590D01*
X96436Y70019D01*
X96193Y70383D01*
X95829Y70626D01*
X95400Y70711D01*
D02*
G37*
G36*
X137484Y67695D02*
X137055Y67609D01*
X136691Y67366D01*
X136448Y67002D01*
X136363Y66573D01*
X136448Y66144D01*
X136691Y65780D01*
X137055Y65537D01*
X137484Y65452D01*
X137913Y65537D01*
X138277Y65780D01*
X138520Y66144D01*
X138606Y66573D01*
X138520Y67002D01*
X138277Y67366D01*
X137913Y67609D01*
X137484Y67695D01*
D02*
G37*
G36*
X141080Y67562D02*
X140651Y67476D01*
X140287Y67233D01*
X140044Y66869D01*
X139958Y66440D01*
X140044Y66011D01*
X140287Y65647D01*
X140651Y65404D01*
X141080Y65318D01*
X141509Y65404D01*
X141873Y65647D01*
X142116Y66011D01*
X142201Y66440D01*
X142116Y66869D01*
X141873Y67233D01*
X141509Y67476D01*
X141080Y67562D01*
D02*
G37*
G36*
X391260Y68733D02*
X390597Y68601D01*
X390034Y68226D01*
X389659Y67663D01*
X389527Y67000D01*
X389659Y66337D01*
X390034Y65774D01*
X390597Y65399D01*
X391260Y65267D01*
X391923Y65399D01*
X392486Y65774D01*
X392861Y66337D01*
X392993Y67000D01*
X392861Y67663D01*
X392486Y68226D01*
X391923Y68601D01*
X391260Y68733D01*
D02*
G37*
G36*
X23620Y66242D02*
X23191Y66156D01*
X22827Y65913D01*
X22584Y65549D01*
X22498Y65120D01*
X22584Y64691D01*
X22827Y64327D01*
X23191Y64084D01*
X23620Y63999D01*
X24049Y64084D01*
X24413Y64327D01*
X24656Y64691D01*
X24742Y65120D01*
X24656Y65549D01*
X24413Y65913D01*
X24049Y66156D01*
X23620Y66242D01*
D02*
G37*
G36*
X92820Y64561D02*
X92391Y64476D01*
X92027Y64233D01*
X91784Y63869D01*
X91698Y63440D01*
X91784Y63011D01*
X92027Y62647D01*
X92391Y62404D01*
X92820Y62318D01*
X93249Y62404D01*
X93613Y62647D01*
X93856Y63011D01*
X93941Y63440D01*
X93856Y63869D01*
X93613Y64233D01*
X93249Y64476D01*
X92820Y64561D01*
D02*
G37*
G36*
X81490D02*
X81061Y64476D01*
X80697Y64233D01*
X80454Y63869D01*
X80368Y63440D01*
X80454Y63011D01*
X80697Y62647D01*
X81061Y62404D01*
X81490Y62318D01*
X81919Y62404D01*
X82283Y62647D01*
X82526Y63011D01*
X82612Y63440D01*
X82526Y63869D01*
X82283Y64233D01*
X81919Y64476D01*
X81490Y64561D01*
D02*
G37*
G36*
X53846Y64322D02*
X53417Y64236D01*
X53053Y63993D01*
X52810Y63629D01*
X52725Y63200D01*
X52810Y62771D01*
X53053Y62407D01*
X53417Y62164D01*
X53846Y62078D01*
X54276Y62164D01*
X54639Y62407D01*
X54883Y62771D01*
X54968Y63200D01*
X54883Y63629D01*
X54639Y63993D01*
X54276Y64236D01*
X53846Y64322D01*
D02*
G37*
G36*
X84620Y62022D02*
X84191Y61936D01*
X83827Y61693D01*
X83584Y61329D01*
X83499Y60900D01*
X83584Y60471D01*
X83827Y60107D01*
X84191Y59864D01*
X84620Y59778D01*
X85049Y59864D01*
X85413Y60107D01*
X85656Y60471D01*
X85742Y60900D01*
X85656Y61329D01*
X85413Y61693D01*
X85049Y61936D01*
X84620Y62022D01*
D02*
G37*
G36*
X90440Y61872D02*
X90011Y61786D01*
X89647Y61543D01*
X89404Y61179D01*
X89318Y60750D01*
X89404Y60321D01*
X89647Y59957D01*
X90011Y59714D01*
X90440Y59628D01*
X90869Y59714D01*
X91233Y59957D01*
X91476Y60321D01*
X91562Y60750D01*
X91476Y61179D01*
X91233Y61543D01*
X90869Y61786D01*
X90440Y61872D01*
D02*
G37*
G36*
X53851Y60593D02*
X53422Y60508D01*
X53058Y60265D01*
X52815Y59901D01*
X52729Y59472D01*
X52815Y59043D01*
X53058Y58679D01*
X53422Y58436D01*
X53851Y58350D01*
X54280Y58436D01*
X54644Y58679D01*
X54887Y59043D01*
X54972Y59472D01*
X54887Y59901D01*
X54644Y60265D01*
X54280Y60508D01*
X53851Y60593D01*
D02*
G37*
G36*
X78968Y60063D02*
X78539Y59978D01*
X78175Y59734D01*
X77932Y59371D01*
X77846Y58942D01*
X77932Y58512D01*
X78175Y58148D01*
X78539Y57905D01*
X78968Y57820D01*
X79397Y57905D01*
X79761Y58148D01*
X80004Y58512D01*
X80089Y58942D01*
X80004Y59371D01*
X79761Y59734D01*
X79397Y59978D01*
X78968Y60063D01*
D02*
G37*
G36*
X406350Y59545D02*
X405921Y59460D01*
X405557Y59216D01*
X405314Y58852D01*
X405228Y58423D01*
X405314Y57994D01*
X405557Y57630D01*
X405921Y57387D01*
X406350Y57302D01*
X406779Y57387D01*
X407143Y57630D01*
X407386Y57994D01*
X407471Y58423D01*
X407386Y58852D01*
X407143Y59216D01*
X406779Y59460D01*
X406350Y59545D01*
D02*
G37*
G36*
X87350Y58091D02*
X86921Y58006D01*
X86557Y57763D01*
X86314Y57399D01*
X86228Y56970D01*
X86314Y56541D01*
X86557Y56177D01*
X86921Y55934D01*
X87350Y55848D01*
X87779Y55934D01*
X88143Y56177D01*
X88386Y56541D01*
X88472Y56970D01*
X88386Y57399D01*
X88143Y57763D01*
X87779Y58006D01*
X87350Y58091D01*
D02*
G37*
G36*
X23470Y57252D02*
X23041Y57166D01*
X22677Y56923D01*
X22434Y56559D01*
X22348Y56130D01*
X22434Y55701D01*
X22677Y55337D01*
X23041Y55094D01*
X23470Y55009D01*
X23899Y55094D01*
X24263Y55337D01*
X24506Y55701D01*
X24592Y56130D01*
X24506Y56559D01*
X24263Y56923D01*
X23899Y57166D01*
X23470Y57252D01*
D02*
G37*
G36*
X106200Y56922D02*
X105771Y56836D01*
X105407Y56593D01*
X105164Y56229D01*
X105078Y55800D01*
X105164Y55371D01*
X105407Y55007D01*
X105771Y54764D01*
X106200Y54678D01*
X106629Y54764D01*
X106993Y55007D01*
X107236Y55371D01*
X107322Y55800D01*
X107236Y56229D01*
X106993Y56593D01*
X106629Y56836D01*
X106200Y56922D01*
D02*
G37*
G36*
X78861Y56146D02*
X78432Y56060D01*
X78068Y55817D01*
X77825Y55453D01*
X77739Y55024D01*
X77825Y54595D01*
X78068Y54231D01*
X78432Y53988D01*
X78861Y53902D01*
X79290Y53988D01*
X79654Y54231D01*
X79897Y54595D01*
X79982Y55024D01*
X79897Y55453D01*
X79654Y55817D01*
X79290Y56060D01*
X78861Y56146D01*
D02*
G37*
G36*
X60153Y55706D02*
X59724Y55621D01*
X59360Y55378D01*
X59117Y55014D01*
X59032Y54585D01*
X59117Y54155D01*
X59360Y53792D01*
X59724Y53549D01*
X60153Y53463D01*
X60583Y53549D01*
X60946Y53792D01*
X61190Y54155D01*
X61275Y54585D01*
X61190Y55014D01*
X60946Y55378D01*
X60583Y55621D01*
X60153Y55706D01*
D02*
G37*
G36*
X65110Y55025D02*
X64681Y54940D01*
X64317Y54697D01*
X64074Y54333D01*
X63989Y53904D01*
X64074Y53474D01*
X64317Y53111D01*
X64681Y52868D01*
X65110Y52782D01*
X65539Y52868D01*
X65903Y53111D01*
X66146Y53474D01*
X66232Y53904D01*
X66146Y54333D01*
X65903Y54697D01*
X65539Y54940D01*
X65110Y55025D01*
D02*
G37*
G36*
X45181Y54440D02*
X44752Y54355D01*
X44388Y54112D01*
X44145Y53748D01*
X44060Y53319D01*
X44145Y52890D01*
X44388Y52526D01*
X44752Y52283D01*
X45181Y52197D01*
X45610Y52283D01*
X45974Y52526D01*
X46217Y52890D01*
X46303Y53319D01*
X46217Y53748D01*
X45974Y54112D01*
X45610Y54355D01*
X45181Y54440D01*
D02*
G37*
G36*
X108500Y54412D02*
X108071Y54326D01*
X107707Y54083D01*
X107464Y53719D01*
X107378Y53290D01*
X107464Y52861D01*
X107707Y52497D01*
X108071Y52254D01*
X108500Y52168D01*
X108929Y52254D01*
X109293Y52497D01*
X109536Y52861D01*
X109622Y53290D01*
X109536Y53719D01*
X109293Y54083D01*
X108929Y54326D01*
X108500Y54412D01*
D02*
G37*
G36*
X103900Y53851D02*
X103471Y53766D01*
X103107Y53523D01*
X102864Y53159D01*
X102778Y52730D01*
X102864Y52301D01*
X103107Y51937D01*
X103471Y51694D01*
X103900Y51609D01*
X104329Y51694D01*
X104693Y51937D01*
X104936Y52301D01*
X105022Y52730D01*
X104936Y53159D01*
X104693Y53523D01*
X104329Y53766D01*
X103900Y53851D01*
D02*
G37*
G36*
X78861Y52766D02*
X78432Y52680D01*
X78068Y52437D01*
X77825Y52073D01*
X77739Y51644D01*
X77825Y51215D01*
X78068Y50851D01*
X78432Y50608D01*
X78861Y50523D01*
X79290Y50608D01*
X79654Y50851D01*
X79897Y51215D01*
X79982Y51644D01*
X79897Y52073D01*
X79654Y52437D01*
X79290Y52680D01*
X78861Y52766D01*
D02*
G37*
G36*
X308760Y53733D02*
X308097Y53601D01*
X307534Y53226D01*
X307159Y52663D01*
X307027Y52000D01*
X307159Y51337D01*
X307534Y50774D01*
X308097Y50399D01*
X308760Y50267D01*
X309423Y50399D01*
X309986Y50774D01*
X310361Y51337D01*
X310493Y52000D01*
X310361Y52663D01*
X309986Y53226D01*
X309423Y53601D01*
X308760Y53733D01*
D02*
G37*
G36*
X293760D02*
X293097Y53601D01*
X292534Y53226D01*
X292159Y52663D01*
X292027Y52000D01*
X292159Y51337D01*
X292534Y50774D01*
X293097Y50399D01*
X293760Y50267D01*
X294423Y50399D01*
X294986Y50774D01*
X295361Y51337D01*
X295493Y52000D01*
X295361Y52663D01*
X294986Y53226D01*
X294423Y53601D01*
X293760Y53733D01*
D02*
G37*
G36*
X8760D02*
X8097Y53601D01*
X7534Y53226D01*
X7159Y52663D01*
X7027Y52000D01*
X7159Y51337D01*
X7534Y50774D01*
X8097Y50399D01*
X8760Y50267D01*
X9423Y50399D01*
X9986Y50774D01*
X10361Y51337D01*
X10493Y52000D01*
X10361Y52663D01*
X9986Y53226D01*
X9423Y53601D01*
X8760Y53733D01*
D02*
G37*
G36*
X110800Y51032D02*
X110371Y50946D01*
X110007Y50703D01*
X109764Y50339D01*
X109678Y49910D01*
X109764Y49481D01*
X110007Y49117D01*
X110371Y48874D01*
X110800Y48788D01*
X111229Y48874D01*
X111593Y49117D01*
X111836Y49481D01*
X111922Y49910D01*
X111836Y50339D01*
X111593Y50703D01*
X111229Y50946D01*
X110800Y51032D01*
D02*
G37*
G36*
X101490Y50881D02*
X101061Y50796D01*
X100697Y50553D01*
X100454Y50189D01*
X100368Y49760D01*
X100454Y49331D01*
X100697Y48967D01*
X101061Y48724D01*
X101490Y48638D01*
X101919Y48724D01*
X102283Y48967D01*
X102526Y49331D01*
X102612Y49760D01*
X102526Y50189D01*
X102283Y50553D01*
X101919Y50796D01*
X101490Y50881D01*
D02*
G37*
G36*
X273000Y52857D02*
X272022Y52662D01*
X271192Y52108D01*
X270638Y51279D01*
X270443Y50300D01*
X270638Y49321D01*
X271192Y48492D01*
X272022Y47938D01*
X273000Y47743D01*
X273978Y47938D01*
X274808Y48492D01*
X275362Y49321D01*
X275557Y50300D01*
X275362Y51279D01*
X274808Y52108D01*
X273978Y52662D01*
X273000Y52857D01*
D02*
G37*
G36*
X256794D02*
X255815Y52662D01*
X254985Y52108D01*
X254431Y51279D01*
X254237Y50300D01*
X254431Y49321D01*
X254985Y48492D01*
X255815Y47938D01*
X256794Y47743D01*
X257772Y47938D01*
X258602Y48492D01*
X259156Y49321D01*
X259351Y50300D01*
X259156Y51279D01*
X258602Y52108D01*
X257772Y52662D01*
X256794Y52857D01*
D02*
G37*
G36*
X241545D02*
X240567Y52662D01*
X239737Y52108D01*
X239183Y51279D01*
X238988Y50300D01*
X239183Y49321D01*
X239737Y48492D01*
X240567Y47938D01*
X241545Y47743D01*
X242524Y47938D01*
X243353Y48492D01*
X243908Y49321D01*
X244102Y50300D01*
X243908Y51279D01*
X243353Y52108D01*
X242524Y52662D01*
X241545Y52857D01*
D02*
G37*
G36*
X226297D02*
X225318Y52662D01*
X224489Y52108D01*
X223934Y51279D01*
X223740Y50300D01*
X223934Y49321D01*
X224489Y48492D01*
X225318Y47938D01*
X226297Y47743D01*
X227275Y47938D01*
X228105Y48492D01*
X228659Y49321D01*
X228854Y50300D01*
X228659Y51279D01*
X228105Y52108D01*
X227275Y52662D01*
X226297Y52857D01*
D02*
G37*
G36*
X211048D02*
X210070Y52662D01*
X209240Y52108D01*
X208686Y51279D01*
X208491Y50300D01*
X208686Y49321D01*
X209240Y48492D01*
X210070Y47938D01*
X211048Y47743D01*
X212027Y47938D01*
X212857Y48492D01*
X213411Y49321D01*
X213605Y50300D01*
X213411Y51279D01*
X212857Y52108D01*
X212027Y52662D01*
X211048Y52857D01*
D02*
G37*
G36*
X195800D02*
X194822Y52662D01*
X193992Y52108D01*
X193438Y51279D01*
X193243Y50300D01*
X193438Y49321D01*
X193992Y48492D01*
X194822Y47938D01*
X195800Y47743D01*
X196779Y47938D01*
X197608Y48492D01*
X198162Y49321D01*
X198357Y50300D01*
X198162Y51279D01*
X197608Y52108D01*
X196779Y52662D01*
X195800Y52857D01*
D02*
G37*
G36*
X44851Y49841D02*
X44422Y49755D01*
X44058Y49512D01*
X43815Y49148D01*
X43729Y48719D01*
X43815Y48290D01*
X44058Y47926D01*
X44422Y47683D01*
X44851Y47597D01*
X45280Y47683D01*
X45644Y47926D01*
X45887Y48290D01*
X45972Y48719D01*
X45887Y49148D01*
X45644Y49512D01*
X45280Y49755D01*
X44851Y49841D01*
D02*
G37*
G36*
X78892Y49273D02*
X78463Y49187D01*
X78099Y48944D01*
X77856Y48580D01*
X77771Y48151D01*
X77856Y47722D01*
X78099Y47358D01*
X78463Y47115D01*
X78892Y47030D01*
X79322Y47115D01*
X79685Y47358D01*
X79929Y47722D01*
X80014Y48151D01*
X79929Y48580D01*
X79685Y48944D01*
X79322Y49187D01*
X78892Y49273D01*
D02*
G37*
G36*
X158042Y48275D02*
X157613Y48190D01*
X157249Y47947D01*
X157006Y47583D01*
X156920Y47154D01*
X157006Y46724D01*
X157249Y46360D01*
X157613Y46117D01*
X158042Y46032D01*
X158471Y46117D01*
X158835Y46360D01*
X159078Y46724D01*
X159163Y47154D01*
X159078Y47583D01*
X158835Y47947D01*
X158471Y48190D01*
X158042Y48275D01*
D02*
G37*
G36*
X376170Y43761D02*
X375741Y43676D01*
X375377Y43433D01*
X375134Y43069D01*
X375048Y42640D01*
X375134Y42210D01*
X375377Y41846D01*
X375741Y41603D01*
X376170Y41518D01*
X376599Y41603D01*
X376963Y41846D01*
X377206Y42210D01*
X377292Y42640D01*
X377206Y43069D01*
X376963Y43433D01*
X376599Y43676D01*
X376170Y43761D01*
D02*
G37*
G36*
X150160Y43481D02*
X149731Y43396D01*
X149367Y43153D01*
X149124Y42789D01*
X149038Y42360D01*
X149124Y41931D01*
X149367Y41567D01*
X149731Y41324D01*
X150160Y41238D01*
X150589Y41324D01*
X150953Y41567D01*
X151196Y41931D01*
X151281Y42360D01*
X151196Y42789D01*
X150953Y43153D01*
X150589Y43396D01*
X150160Y43481D01*
D02*
G37*
G36*
X78815Y42815D02*
X78386Y42730D01*
X78022Y42487D01*
X77779Y42123D01*
X77693Y41694D01*
X77779Y41265D01*
X78022Y40901D01*
X78386Y40658D01*
X78815Y40572D01*
X79244Y40658D01*
X79608Y40901D01*
X79851Y41265D01*
X79936Y41694D01*
X79851Y42123D01*
X79608Y42487D01*
X79244Y42730D01*
X78815Y42815D01*
D02*
G37*
G36*
X391260Y38733D02*
X390597Y38601D01*
X390034Y38226D01*
X389659Y37663D01*
X389527Y37000D01*
X389659Y36337D01*
X390034Y35774D01*
X390597Y35399D01*
X391260Y35267D01*
X391923Y35399D01*
X392486Y35774D01*
X392861Y36337D01*
X392993Y37000D01*
X392861Y37663D01*
X392486Y38226D01*
X391923Y38601D01*
X391260Y38733D01*
D02*
G37*
G36*
X346260D02*
X345597Y38601D01*
X345034Y38226D01*
X344659Y37663D01*
X344527Y37000D01*
X344659Y36337D01*
X345034Y35774D01*
X345597Y35399D01*
X346260Y35267D01*
X346923Y35399D01*
X347486Y35774D01*
X347861Y36337D01*
X347993Y37000D01*
X347861Y37663D01*
X347486Y38226D01*
X346923Y38601D01*
X346260Y38733D01*
D02*
G37*
G36*
X301260D02*
X300597Y38601D01*
X300034Y38226D01*
X299659Y37663D01*
X299527Y37000D01*
X299659Y36337D01*
X300034Y35774D01*
X300597Y35399D01*
X301260Y35267D01*
X301923Y35399D01*
X302486Y35774D01*
X302861Y36337D01*
X302993Y37000D01*
X302861Y37663D01*
X302486Y38226D01*
X301923Y38601D01*
X301260Y38733D01*
D02*
G37*
G36*
X256260D02*
X255597Y38601D01*
X255034Y38226D01*
X254659Y37663D01*
X254527Y37000D01*
X254659Y36337D01*
X255034Y35774D01*
X255597Y35399D01*
X256260Y35267D01*
X256923Y35399D01*
X257486Y35774D01*
X257861Y36337D01*
X257993Y37000D01*
X257861Y37663D01*
X257486Y38226D01*
X256923Y38601D01*
X256260Y38733D01*
D02*
G37*
G36*
X241260D02*
X240597Y38601D01*
X240034Y38226D01*
X239659Y37663D01*
X239527Y37000D01*
X239659Y36337D01*
X240034Y35774D01*
X240597Y35399D01*
X241260Y35267D01*
X241923Y35399D01*
X242486Y35774D01*
X242861Y36337D01*
X242993Y37000D01*
X242861Y37663D01*
X242486Y38226D01*
X241923Y38601D01*
X241260Y38733D01*
D02*
G37*
G36*
X226260D02*
X225597Y38601D01*
X225034Y38226D01*
X224659Y37663D01*
X224527Y37000D01*
X224659Y36337D01*
X225034Y35774D01*
X225597Y35399D01*
X226260Y35267D01*
X226923Y35399D01*
X227486Y35774D01*
X227861Y36337D01*
X227993Y37000D01*
X227861Y37663D01*
X227486Y38226D01*
X226923Y38601D01*
X226260Y38733D01*
D02*
G37*
G36*
X30166Y33574D02*
X29737Y33489D01*
X29373Y33246D01*
X29130Y32882D01*
X29045Y32453D01*
X29130Y32024D01*
X29373Y31660D01*
X29737Y31416D01*
X30166Y31331D01*
X30596Y31416D01*
X30959Y31660D01*
X31203Y32024D01*
X31288Y32453D01*
X31203Y32882D01*
X30959Y33246D01*
X30596Y33489D01*
X30166Y33574D01*
D02*
G37*
G36*
X211300Y35157D02*
X210321Y34962D01*
X209492Y34408D01*
X208938Y33579D01*
X208743Y32600D01*
X208938Y31622D01*
X209492Y30792D01*
X210321Y30238D01*
X211300Y30043D01*
X212279Y30238D01*
X213108Y30792D01*
X213662Y31622D01*
X213857Y32600D01*
X213662Y33579D01*
X213108Y34408D01*
X212279Y34962D01*
X211300Y35157D01*
D02*
G37*
G36*
X195700D02*
X194721Y34962D01*
X193892Y34408D01*
X193338Y33579D01*
X193143Y32600D01*
X193338Y31622D01*
X193892Y30792D01*
X194721Y30238D01*
X195700Y30043D01*
X196678Y30238D01*
X197508Y30792D01*
X198062Y31622D01*
X198257Y32600D01*
X198062Y33579D01*
X197508Y34408D01*
X196678Y34962D01*
X195700Y35157D01*
D02*
G37*
G36*
X338530Y31854D02*
X337867Y31722D01*
X337304Y31346D01*
X336929Y30784D01*
X336797Y30121D01*
X336929Y29458D01*
X337304Y28895D01*
X337867Y28519D01*
X338530Y28387D01*
X339193Y28519D01*
X339756Y28895D01*
X340131Y29458D01*
X340263Y30121D01*
X340131Y30784D01*
X339756Y31346D01*
X339193Y31722D01*
X338530Y31854D01*
D02*
G37*
G36*
X297800Y33257D02*
X296821Y33062D01*
X295992Y32508D01*
X295438Y31679D01*
X295243Y30700D01*
X295438Y29722D01*
X295992Y28892D01*
X296821Y28338D01*
X297800Y28143D01*
X298779Y28338D01*
X299608Y28892D01*
X300162Y29722D01*
X300357Y30700D01*
X300162Y31679D01*
X299608Y32508D01*
X298779Y33062D01*
X297800Y33257D01*
D02*
G37*
G36*
X287800D02*
X286822Y33062D01*
X285992Y32508D01*
X285438Y31679D01*
X285243Y30700D01*
X285438Y29722D01*
X285992Y28892D01*
X286822Y28338D01*
X287800Y28143D01*
X288778Y28338D01*
X289608Y28892D01*
X290162Y29722D01*
X290357Y30700D01*
X290162Y31679D01*
X289608Y32508D01*
X288778Y33062D01*
X287800Y33257D01*
D02*
G37*
G36*
X277800D02*
X276821Y33062D01*
X275992Y32508D01*
X275438Y31679D01*
X275243Y30700D01*
X275438Y29722D01*
X275992Y28892D01*
X276821Y28338D01*
X277800Y28143D01*
X278779Y28338D01*
X279608Y28892D01*
X280162Y29722D01*
X280357Y30700D01*
X280162Y31679D01*
X279608Y32508D01*
X278779Y33062D01*
X277800Y33257D01*
D02*
G37*
G36*
X267800D02*
X266822Y33062D01*
X265992Y32508D01*
X265438Y31679D01*
X265243Y30700D01*
X265438Y29722D01*
X265992Y28892D01*
X266822Y28338D01*
X267800Y28143D01*
X268778Y28338D01*
X269608Y28892D01*
X270162Y29722D01*
X270357Y30700D01*
X270162Y31679D01*
X269608Y32508D01*
X268778Y33062D01*
X267800Y33257D01*
D02*
G37*
G36*
X363081Y30189D02*
X362651Y30103D01*
X362288Y29860D01*
X362045Y29496D01*
X361959Y29067D01*
X362045Y28638D01*
X362288Y28274D01*
X362651Y28031D01*
X363081Y27946D01*
X363510Y28031D01*
X363874Y28274D01*
X364117Y28638D01*
X364202Y29067D01*
X364117Y29496D01*
X363874Y29860D01*
X363510Y30103D01*
X363081Y30189D01*
D02*
G37*
G36*
X180370Y28892D02*
X179941Y28806D01*
X179577Y28563D01*
X179334Y28199D01*
X179248Y27770D01*
X179334Y27341D01*
X179577Y26977D01*
X179941Y26734D01*
X180370Y26649D01*
X180799Y26734D01*
X181163Y26977D01*
X181406Y27341D01*
X181492Y27770D01*
X181406Y28199D01*
X181163Y28563D01*
X180799Y28806D01*
X180370Y28892D01*
D02*
G37*
G36*
X24800Y28152D02*
X24371Y28066D01*
X24007Y27823D01*
X23764Y27459D01*
X23678Y27030D01*
X23764Y26601D01*
X24007Y26237D01*
X24371Y25994D01*
X24800Y25908D01*
X25229Y25994D01*
X25593Y26237D01*
X25836Y26601D01*
X25922Y27030D01*
X25836Y27459D01*
X25593Y27823D01*
X25229Y28066D01*
X24800Y28152D01*
D02*
G37*
G36*
X94060Y27011D02*
X93631Y26926D01*
X93267Y26683D01*
X93024Y26319D01*
X92939Y25890D01*
X93024Y25461D01*
X93267Y25097D01*
X93631Y24854D01*
X94060Y24769D01*
X94489Y24854D01*
X94853Y25097D01*
X95096Y25461D01*
X95182Y25890D01*
X95096Y26319D01*
X94853Y26683D01*
X94489Y26926D01*
X94060Y27011D01*
D02*
G37*
G36*
X237200Y23716D02*
X236314Y23540D01*
X235562Y23038D01*
X235060Y22286D01*
X234884Y21400D01*
X235060Y20514D01*
X235562Y19762D01*
X236314Y19260D01*
X237200Y19084D01*
X238086Y19260D01*
X238838Y19762D01*
X239340Y20514D01*
X239516Y21400D01*
X239340Y22286D01*
X238838Y23038D01*
X238086Y23540D01*
X237200Y23716D01*
D02*
G37*
G36*
X72980Y19294D02*
X72551Y19209D01*
X72187Y18966D01*
X71944Y18602D01*
X71859Y18172D01*
X71944Y17743D01*
X72187Y17379D01*
X72551Y17136D01*
X72980Y17051D01*
X73409Y17136D01*
X73773Y17379D01*
X74016Y17743D01*
X74102Y18172D01*
X74016Y18602D01*
X73773Y18966D01*
X73409Y19209D01*
X72980Y19294D01*
D02*
G37*
G36*
X195780Y21857D02*
X194801Y21662D01*
X193972Y21108D01*
X193418Y20279D01*
X193223Y19300D01*
X193418Y18322D01*
X193972Y17492D01*
X194801Y16938D01*
X195780Y16743D01*
X196758Y16938D01*
X197588Y17492D01*
X198142Y18322D01*
X198337Y19300D01*
X198142Y20279D01*
X197588Y21108D01*
X196758Y21662D01*
X195780Y21857D01*
D02*
G37*
G36*
X181910Y17523D02*
X181247Y17391D01*
X180684Y17016D01*
X180309Y16453D01*
X180177Y15790D01*
X180309Y15127D01*
X180684Y14564D01*
X181247Y14189D01*
X181910Y14057D01*
X182573Y14189D01*
X183136Y14564D01*
X183511Y15127D01*
X183643Y15790D01*
X183511Y16453D01*
X183136Y17016D01*
X182573Y17391D01*
X181910Y17523D01*
D02*
G37*
G36*
X70380Y14672D02*
X69951Y14586D01*
X69587Y14343D01*
X69344Y13979D01*
X69258Y13550D01*
X69344Y13121D01*
X69587Y12757D01*
X69951Y12514D01*
X70380Y12428D01*
X70809Y12514D01*
X71173Y12757D01*
X71416Y13121D01*
X71501Y13550D01*
X71416Y13979D01*
X71173Y14343D01*
X70809Y14586D01*
X70380Y14672D01*
D02*
G37*
G36*
X111200Y13642D02*
X110771Y13556D01*
X110407Y13313D01*
X110164Y12949D01*
X110078Y12520D01*
X110164Y12091D01*
X110407Y11727D01*
X110771Y11484D01*
X111200Y11398D01*
X111629Y11484D01*
X111993Y11727D01*
X112236Y12091D01*
X112322Y12520D01*
X112236Y12949D01*
X111993Y13313D01*
X111629Y13556D01*
X111200Y13642D01*
D02*
G37*
G36*
X237200Y13716D02*
X236314Y13540D01*
X235562Y13038D01*
X235060Y12286D01*
X234884Y11400D01*
X235060Y10514D01*
X235562Y9762D01*
X236314Y9260D01*
X237200Y9084D01*
X238086Y9260D01*
X238838Y9762D01*
X239340Y10514D01*
X239516Y11400D01*
X239340Y12286D01*
X238838Y13038D01*
X238086Y13540D01*
X237200Y13716D01*
D02*
G37*
G36*
X227200D02*
X226314Y13540D01*
X225562Y13038D01*
X225060Y12286D01*
X224884Y11400D01*
X225060Y10514D01*
X225562Y9762D01*
X226314Y9260D01*
X227200Y9084D01*
X228086Y9260D01*
X228838Y9762D01*
X229340Y10514D01*
X229516Y11400D01*
X229340Y12286D01*
X228838Y13038D01*
X228086Y13540D01*
X227200Y13716D01*
D02*
G37*
G36*
X106260Y8733D02*
X105597Y8601D01*
X105034Y8226D01*
X104659Y7663D01*
X104527Y7000D01*
X104659Y6337D01*
X105034Y5774D01*
X105597Y5399D01*
X106260Y5267D01*
X106923Y5399D01*
X107486Y5774D01*
X107861Y6337D01*
X107993Y7000D01*
X107861Y7663D01*
X107486Y8226D01*
X106923Y8601D01*
X106260Y8733D01*
D02*
G37*
G36*
X91260D02*
X90597Y8601D01*
X90034Y8226D01*
X89659Y7663D01*
X89527Y7000D01*
X89659Y6337D01*
X90034Y5774D01*
X90597Y5399D01*
X91260Y5267D01*
X91923Y5399D01*
X92486Y5774D01*
X92861Y6337D01*
X92993Y7000D01*
X92861Y7663D01*
X92486Y8226D01*
X91923Y8601D01*
X91260Y8733D01*
D02*
G37*
G36*
X16260D02*
X15597Y8601D01*
X15034Y8226D01*
X14659Y7663D01*
X14527Y7000D01*
X14659Y6337D01*
X15034Y5774D01*
X15597Y5399D01*
X16260Y5267D01*
X16923Y5399D01*
X17486Y5774D01*
X17861Y6337D01*
X17993Y7000D01*
X17861Y7663D01*
X17486Y8226D01*
X16923Y8601D01*
X16260Y8733D01*
D02*
G37*
G36*
X101510Y7192D02*
X101081Y7106D01*
X100717Y6863D01*
X100474Y6499D01*
X100389Y6070D01*
X100474Y5641D01*
X100717Y5277D01*
X101081Y5034D01*
X101510Y4948D01*
X101939Y5034D01*
X102303Y5277D01*
X102546Y5641D01*
X102631Y6070D01*
X102546Y6499D01*
X102303Y6863D01*
X101939Y7106D01*
X101510Y7192D01*
D02*
G37*
G36*
X195700Y8557D02*
X194721Y8362D01*
X193892Y7808D01*
X193338Y6978D01*
X193143Y6000D01*
X193338Y5021D01*
X193892Y4192D01*
X194721Y3638D01*
X195700Y3443D01*
X196678Y3638D01*
X197508Y4192D01*
X198062Y5021D01*
X198257Y6000D01*
X198062Y6978D01*
X197508Y7808D01*
X196678Y8362D01*
X195700Y8557D01*
D02*
G37*
G36*
X13069Y4335D02*
X12639Y4249D01*
X12276Y4006D01*
X12032Y3642D01*
X11947Y3213D01*
X12032Y2784D01*
X12276Y2420D01*
X12639Y2177D01*
X13069Y2091D01*
X13498Y2177D01*
X13862Y2420D01*
X14105Y2784D01*
X14190Y3213D01*
X14105Y3642D01*
X13862Y4006D01*
X13498Y4249D01*
X13069Y4335D01*
D02*
G37*
G36*
X237200Y3716D02*
X236314Y3540D01*
X235562Y3038D01*
X235060Y2286D01*
X234884Y1400D01*
X235060Y514D01*
X235562Y-238D01*
X236314Y-740D01*
X237200Y-916D01*
X238086Y-740D01*
X238838Y-238D01*
X239340Y514D01*
X239516Y1400D01*
X239340Y2286D01*
X238838Y3038D01*
X238086Y3540D01*
X237200Y3716D01*
D02*
G37*
G36*
X227200D02*
X226314Y3540D01*
X225562Y3038D01*
X225060Y2286D01*
X224884Y1400D01*
X225060Y514D01*
X225562Y-238D01*
X226314Y-740D01*
X227200Y-916D01*
X228086Y-740D01*
X228838Y-238D01*
X229340Y514D01*
X229516Y1400D01*
X229340Y2286D01*
X228838Y3038D01*
X228086Y3540D01*
X227200Y3716D01*
D02*
G37*
G36*
X393701Y6436D02*
X392445Y6313D01*
X391238Y5946D01*
X390125Y5352D01*
X389149Y4551D01*
X388349Y3576D01*
X387754Y2463D01*
X387388Y1256D01*
X387264Y0D01*
X387388Y-1256D01*
X387754Y-2463D01*
X388349Y-3576D01*
X389149Y-4551D01*
X390125Y-5352D01*
X391238Y-5946D01*
X392445Y-6313D01*
X393701Y-6436D01*
X394956Y-6313D01*
X396164Y-5946D01*
X397277Y-5352D01*
X398252Y-4551D01*
X399053Y-3576D01*
X399647Y-2463D01*
X400014Y-1256D01*
X400137Y0D01*
X400014Y1256D01*
X399647Y2463D01*
X399053Y3576D01*
X398252Y4551D01*
X397277Y5352D01*
X396164Y5946D01*
X394956Y6313D01*
X393701Y6436D01*
D02*
G37*
G36*
X0D02*
X-1256Y6313D01*
X-2463Y5946D01*
X-3576Y5352D01*
X-4551Y4551D01*
X-5352Y3576D01*
X-5946Y2463D01*
X-6313Y1256D01*
X-6436Y0D01*
X-6313Y-1256D01*
X-5946Y-2463D01*
X-5352Y-3576D01*
X-4551Y-4551D01*
X-3576Y-5352D01*
X-2463Y-5946D01*
X-1256Y-6313D01*
X0Y-6436D01*
X1256Y-6313D01*
X2463Y-5946D01*
X3576Y-5352D01*
X4551Y-4551D01*
X5352Y-3576D01*
X5946Y-2463D01*
X6313Y-1256D01*
X6436Y0D01*
X6313Y1256D01*
X5946Y2463D01*
X5352Y3576D01*
X4551Y4551D01*
X3576Y5352D01*
X2463Y5946D01*
X1256Y6313D01*
X0Y6436D01*
D02*
G37*
G36*
X136020Y-6528D02*
X135591Y-6614D01*
X135227Y-6857D01*
X134984Y-7221D01*
X134898Y-7650D01*
X134984Y-8079D01*
X135227Y-8443D01*
X135591Y-8686D01*
X136020Y-8772D01*
X136449Y-8686D01*
X136813Y-8443D01*
X137056Y-8079D01*
X137142Y-7650D01*
X137056Y-7221D01*
X136813Y-6857D01*
X136449Y-6614D01*
X136020Y-6528D01*
D02*
G37*
G36*
X167824Y-6620D02*
X167395Y-6705D01*
X167031Y-6948D01*
X166788Y-7312D01*
X166702Y-7741D01*
X166788Y-8170D01*
X167031Y-8534D01*
X167395Y-8777D01*
X167824Y-8863D01*
X168253Y-8777D01*
X168617Y-8534D01*
X168860Y-8170D01*
X168945Y-7741D01*
X168860Y-7312D01*
X168617Y-6948D01*
X168253Y-6705D01*
X167824Y-6620D01*
D02*
G37*
G36*
X43400Y-4243D02*
X42421Y-4438D01*
X41592Y-4992D01*
X41038Y-5821D01*
X40843Y-6800D01*
X41038Y-7779D01*
X41592Y-8608D01*
X42421Y-9162D01*
X43400Y-9357D01*
X44379Y-9162D01*
X45208Y-8608D01*
X45762Y-7779D01*
X45957Y-6800D01*
X45762Y-5821D01*
X45208Y-4992D01*
X44379Y-4438D01*
X43400Y-4243D01*
D02*
G37*
G36*
X27700D02*
X26722Y-4438D01*
X25892Y-4992D01*
X25338Y-5821D01*
X25143Y-6800D01*
X25338Y-7779D01*
X25892Y-8608D01*
X26722Y-9162D01*
X27700Y-9357D01*
X28679Y-9162D01*
X29508Y-8608D01*
X30062Y-7779D01*
X30257Y-6800D01*
X30062Y-5821D01*
X29508Y-4992D01*
X28679Y-4438D01*
X27700Y-4243D01*
D02*
G37*
G36*
X195700Y-4743D02*
X194721Y-4938D01*
X193892Y-5492D01*
X193338Y-6322D01*
X193143Y-7300D01*
X193338Y-8279D01*
X193892Y-9108D01*
X194721Y-9662D01*
X195700Y-9857D01*
X196678Y-9662D01*
X197508Y-9108D01*
X198062Y-8279D01*
X198257Y-7300D01*
X198062Y-6322D01*
X197508Y-5492D01*
X196678Y-4938D01*
X195700Y-4743D01*
D02*
G37*
G36*
X237200Y-6284D02*
X236314Y-6460D01*
X235562Y-6962D01*
X235060Y-7714D01*
X234884Y-8600D01*
X235060Y-9486D01*
X235562Y-10238D01*
X236314Y-10740D01*
X237200Y-10916D01*
X238086Y-10740D01*
X238838Y-10238D01*
X239340Y-9486D01*
X239516Y-8600D01*
X239340Y-7714D01*
X238838Y-6962D01*
X238086Y-6460D01*
X237200Y-6284D01*
D02*
G37*
G36*
X227200D02*
X226314Y-6460D01*
X225562Y-6962D01*
X225060Y-7714D01*
X224884Y-8600D01*
X225060Y-9486D01*
X225562Y-10238D01*
X226314Y-10740D01*
X227200Y-10916D01*
X228086Y-10740D01*
X228838Y-10238D01*
X229340Y-9486D01*
X229516Y-8600D01*
X229340Y-7714D01*
X228838Y-6962D01*
X228086Y-6460D01*
X227200Y-6284D01*
D02*
G37*
%LPD*%
D110*
X59482Y160360D02*
D03*
X64600D02*
D03*
X69718D02*
D03*
X59482Y165478D02*
D03*
X64600D02*
D03*
X69718D02*
D03*
D113*
X186130Y207091D02*
X187339Y208300D01*
X33669Y268628D02*
X58900Y243396D01*
Y234901D02*
Y243396D01*
X262577Y203010D02*
X263997Y204430D01*
X267440D01*
X187339Y208300D02*
X226488D01*
X231778Y203010D02*
X262577D01*
X226488Y208300D02*
X231778Y203010D01*
D117*
X384268Y166555D02*
D03*
D120*
X-8825Y162700D02*
D03*
X55000Y298630D02*
D03*
Y360400D02*
D03*
D122*
X362217Y293393D02*
D03*
X316217Y336700D02*
D03*
Y293393D02*
D03*
Y277645D02*
D03*
X362217D02*
D03*
X316217Y352448D02*
D03*
X362217Y336700D02*
D03*
Y352448D02*
D03*
D123*
X33669Y209572D02*
D03*
D124*
Y268628D02*
D03*
D127*
X227200Y21400D02*
D03*
D128*
X20100Y353200D02*
D03*
Y309893D02*
D03*
D129*
X42980Y166901D02*
D03*
Y162871D02*
D03*
Y158841D02*
D03*
X352600Y20800D02*
D03*
X30100Y5800D02*
D03*
X22600Y20800D02*
D03*
X322600Y-9200D02*
D03*
X405100Y35800D02*
D03*
X-7400Y140800D02*
D03*
X75100Y5800D02*
D03*
X-7400Y50800D02*
D03*
X127600Y80800D02*
D03*
X7600Y140800D02*
D03*
X157600Y110800D02*
D03*
X135100Y155800D02*
D03*
X150100Y5800D02*
D03*
X352600Y-9200D02*
D03*
X120100Y5800D02*
D03*
X7600Y170800D02*
D03*
X292600Y20800D02*
D03*
X100Y155800D02*
D03*
X127600Y140800D02*
D03*
X337600Y-9200D02*
D03*
X120100Y155800D02*
D03*
X165100Y125800D02*
D03*
X142600Y20800D02*
D03*
X262600Y-9200D02*
D03*
X307600Y20800D02*
D03*
X45100Y35800D02*
D03*
X22600Y80800D02*
D03*
X67600Y20800D02*
D03*
X210100Y5800D02*
D03*
X277600Y20800D02*
D03*
X292600Y-9200D02*
D03*
X135100Y5800D02*
D03*
X367600Y20800D02*
D03*
X112600Y110800D02*
D03*
X397600Y20800D02*
D03*
X307600Y-9200D02*
D03*
X345100Y5800D02*
D03*
X337600Y20800D02*
D03*
X405100Y125800D02*
D03*
X330100Y35800D02*
D03*
X120100Y95800D02*
D03*
X135100Y125800D02*
D03*
X247600Y20800D02*
D03*
X315100Y35800D02*
D03*
X382600Y20800D02*
D03*
X135100Y95800D02*
D03*
X-7400Y110800D02*
D03*
X7600D02*
D03*
X105100Y155800D02*
D03*
X150100D02*
D03*
X397600Y200800D02*
D03*
X127600Y20800D02*
D03*
X-7400Y-9200D02*
D03*
X255100Y5800D02*
D03*
X405100D02*
D03*
X217600Y-9200D02*
D03*
X172600D02*
D03*
X165100Y95800D02*
D03*
X217600Y20800D02*
D03*
X405100Y155800D02*
D03*
X142600Y140800D02*
D03*
X382600Y-9200D02*
D03*
X150100Y125800D02*
D03*
X277600Y-9200D02*
D03*
X-7400Y20800D02*
D03*
X315100Y5800D02*
D03*
X45100Y95800D02*
D03*
X247600Y-9200D02*
D03*
X30100Y95800D02*
D03*
X60100Y35800D02*
D03*
X142600Y80800D02*
D03*
X100Y35800D02*
D03*
X367600Y-9200D02*
D03*
X262600Y20800D02*
D03*
X375100Y5800D02*
D03*
X322600Y20800D02*
D03*
Y50800D02*
D03*
X360100Y5800D02*
D03*
X270100D02*
D03*
X142600Y110800D02*
D03*
X330100Y5800D02*
D03*
X22600Y50800D02*
D03*
X97600Y110800D02*
D03*
X285100Y5800D02*
D03*
X300100D02*
D03*
X150100Y35800D02*
D03*
X405100Y215800D02*
D03*
X7600Y-9200D02*
D03*
X100Y125800D02*
D03*
X86440Y124661D02*
D03*
X72130Y224340D02*
D03*
Y195230D02*
D03*
X61910Y215310D02*
D03*
X72130Y214970D02*
D03*
X61910Y224700D02*
D03*
Y234090D02*
D03*
X72130Y233660D02*
D03*
X410310Y191360D02*
D03*
X-16030Y78800D02*
D03*
X267440Y204430D02*
D03*
X144000Y53319D02*
D03*
X179673Y52179D02*
D03*
X123610Y135570D02*
D03*
X181920Y67240D02*
D03*
X94512Y188530D02*
D03*
D130*
X142600Y230800D02*
D03*
X135100Y245800D02*
D03*
X127600Y230800D02*
D03*
X120100Y245800D02*
D03*
X112600Y230800D02*
D03*
X105100Y245800D02*
D03*
X97600Y230800D02*
D03*
X90100Y245800D02*
D03*
X82600Y230800D02*
D03*
X67600Y320800D02*
D03*
X75100Y305800D02*
D03*
X67600Y290800D02*
D03*
X75100Y275800D02*
D03*
X67600Y260800D02*
D03*
X75100Y245800D02*
D03*
X60100Y305800D02*
D03*
X52600Y290800D02*
D03*
X60100Y275800D02*
D03*
X52600Y260800D02*
D03*
X45100Y305800D02*
D03*
X37600Y290800D02*
D03*
X45100Y275800D02*
D03*
X37600Y200800D02*
D03*
X45100Y185800D02*
D03*
X37600Y170800D02*
D03*
X30100Y275800D02*
D03*
X22600Y260800D02*
D03*
Y230800D02*
D03*
Y200800D02*
D03*
X30100Y185800D02*
D03*
X7600Y290800D02*
D03*
X15100Y275800D02*
D03*
X7600Y260800D02*
D03*
X15100Y245800D02*
D03*
X7600Y230800D02*
D03*
X15100Y215800D02*
D03*
X7600Y200800D02*
D03*
X-7400Y320800D02*
D03*
Y290800D02*
D03*
X100Y275800D02*
D03*
X-7400Y260800D02*
D03*
X100Y245800D02*
D03*
X-7400Y230800D02*
D03*
X100Y215800D02*
D03*
X-7400Y200800D02*
D03*
X405100Y290800D02*
D03*
X397600Y275800D02*
D03*
X405100Y260800D02*
D03*
X397600Y245800D02*
D03*
X390100Y290800D02*
D03*
X382600Y275800D02*
D03*
X390100Y260800D02*
D03*
X382600Y245800D02*
D03*
X375100Y290800D02*
D03*
Y260800D02*
D03*
X367600Y245800D02*
D03*
X352600Y275800D02*
D03*
X360100Y260800D02*
D03*
X352600Y245800D02*
D03*
X360100Y230800D02*
D03*
X352600Y215800D02*
D03*
X345100Y290800D02*
D03*
X337600Y275800D02*
D03*
X345100Y260800D02*
D03*
X337600Y245800D02*
D03*
X345100Y230800D02*
D03*
X337600Y215800D02*
D03*
X330100Y290800D02*
D03*
Y260800D02*
D03*
X322600Y245800D02*
D03*
X330100Y230800D02*
D03*
X322600Y215800D02*
D03*
X307600Y275800D02*
D03*
X315100Y260800D02*
D03*
X307600Y245800D02*
D03*
X315100Y230800D02*
D03*
X307600Y215800D02*
D03*
X300100Y290800D02*
D03*
Y260800D02*
D03*
Y230800D02*
D03*
X262600Y245800D02*
D03*
Y215800D02*
D03*
X255100Y260800D02*
D03*
X247600Y245800D02*
D03*
X255100Y230800D02*
D03*
X240100Y260800D02*
D03*
Y230800D02*
D03*
X225100Y260800D02*
D03*
X405100Y380800D02*
D03*
X397600Y365800D02*
D03*
X405100Y350800D02*
D03*
X397600Y335800D02*
D03*
X390100Y380800D02*
D03*
X382600Y365800D02*
D03*
X390100Y350800D02*
D03*
X382600Y335800D02*
D03*
X367600Y395800D02*
D03*
X375100Y380800D02*
D03*
X367600Y365800D02*
D03*
X375100Y350800D02*
D03*
X352600Y395800D02*
D03*
X360100Y380800D02*
D03*
X352600Y365800D02*
D03*
Y335800D02*
D03*
X337600Y395800D02*
D03*
X345100Y380800D02*
D03*
X337600Y365800D02*
D03*
X345100Y350800D02*
D03*
X337600Y335800D02*
D03*
X322600Y395800D02*
D03*
X330100Y380800D02*
D03*
X322600Y365800D02*
D03*
X330100Y350800D02*
D03*
X307600Y395800D02*
D03*
X315100Y380800D02*
D03*
X307600Y365800D02*
D03*
Y335800D02*
D03*
X292600Y395800D02*
D03*
X300100Y380800D02*
D03*
X292600Y365800D02*
D03*
X300100Y350800D02*
D03*
X292600Y335800D02*
D03*
X277600Y395800D02*
D03*
X285100Y380800D02*
D03*
X277600Y365800D02*
D03*
X285100Y350800D02*
D03*
X277600Y335800D02*
D03*
X262600Y395800D02*
D03*
X270100Y380800D02*
D03*
X262600Y365800D02*
D03*
X270100Y350800D02*
D03*
X262600Y335800D02*
D03*
X270100Y320800D02*
D03*
X247600Y395800D02*
D03*
X255100Y380800D02*
D03*
X247600Y365800D02*
D03*
X255100Y350800D02*
D03*
X247600Y335800D02*
D03*
X255100Y320800D02*
D03*
X232600Y395800D02*
D03*
X240100Y380800D02*
D03*
X232600Y365800D02*
D03*
X240100Y350800D02*
D03*
X232600Y335800D02*
D03*
X240100Y320800D02*
D03*
X225100Y380800D02*
D03*
Y350800D02*
D03*
Y320800D02*
D03*
X112600Y305800D02*
D03*
X97600Y395800D02*
D03*
X105100Y380800D02*
D03*
X97600Y365800D02*
D03*
X105100Y350800D02*
D03*
X97600Y335800D02*
D03*
X105100Y320800D02*
D03*
X82600Y395800D02*
D03*
X90100Y380800D02*
D03*
X82600Y365800D02*
D03*
X90100Y350800D02*
D03*
Y320800D02*
D03*
X67600Y395800D02*
D03*
X75100Y380800D02*
D03*
X67600Y365800D02*
D03*
X75100Y350800D02*
D03*
X52600Y395800D02*
D03*
X60100Y380800D02*
D03*
Y350800D02*
D03*
X37600Y395800D02*
D03*
X45100Y380800D02*
D03*
Y350800D02*
D03*
X22600Y395800D02*
D03*
X30100Y380800D02*
D03*
X15100D02*
D03*
X100D02*
D03*
X-7400Y365800D02*
D03*
M02*
