G04*
G04 #@! TF.GenerationSoftware,Altium Limited,Altium Designer,20.0.14 (345)*
G04*
G04 Layer_Physical_Order=2*
G04 Layer_Color=36540*
%FSLAX25Y25*%
%MOIN*%
G70*
G01*
G75*
%ADD110C,0.02480*%
%ADD114C,0.01800*%
%ADD117C,0.04724*%
%ADD118C,0.06102*%
%ADD120C,0.10000*%
%ADD122C,0.09000*%
%ADD123R,0.05543X0.05543*%
%ADD125C,0.05906*%
%ADD128C,0.37402*%
%ADD129C,0.02400*%
%ADD130C,0.05000*%
%ADD131C,0.06000*%
G36*
X158400Y399000D02*
X127000Y399000D01*
Y303996D01*
X118532D01*
Y289300D01*
X97800D01*
Y276742D01*
X84200D01*
X84200Y333500D01*
X-18156D01*
Y393701D01*
Y394891D01*
X-17845Y397250D01*
X-17229Y399549D01*
X-16318Y401748D01*
X-15128Y403809D01*
X-13679Y405697D01*
X-11997Y407380D01*
X-10108Y408829D01*
X-8047Y410019D01*
X-5849Y410930D01*
X-3550Y411546D01*
X-1190Y411857D01*
X158400D01*
Y399000D01*
D02*
G37*
G36*
X397250Y411546D02*
X399549Y410930D01*
X401748Y410019D01*
X403809Y408829D01*
X405697Y407380D01*
X407380Y405697D01*
X408829Y403809D01*
X410019Y401748D01*
X410930Y399549D01*
X411546Y397250D01*
X411857Y394891D01*
Y393701D01*
Y323500D01*
X279400Y323500D01*
Y306033D01*
Y297459D01*
X268749D01*
Y306033D01*
X243931D01*
Y298052D01*
X243830Y298032D01*
X243300Y297679D01*
X242947Y297149D01*
X242823Y296525D01*
X242947Y295901D01*
X243300Y295372D01*
X243830Y295018D01*
X243931Y294998D01*
Y269300D01*
X236333D01*
Y290400D01*
X215600D01*
Y304396D01*
X206700D01*
Y399000D01*
X175849D01*
X175849Y411857D01*
X394891D01*
X397250Y411546D01*
D02*
G37*
G36*
X411857Y232300D02*
X364500D01*
Y207098D01*
X209490D01*
Y266700D01*
X284900D01*
Y307700D01*
X411857D01*
Y232300D01*
D02*
G37*
G36*
X79600Y329000D02*
Y261000D01*
X188500Y261000D01*
X188500Y202257D01*
X220956D01*
X221280Y201757D01*
X221199Y201350D01*
X221323Y200726D01*
X221676Y200197D01*
X222206Y199843D01*
X222260Y199832D01*
X222317Y199457D01*
X222301Y199314D01*
X221807Y198984D01*
X221453Y198454D01*
X221329Y197830D01*
X221453Y197206D01*
X221807Y196677D01*
X222336Y196323D01*
X222960Y196199D01*
X223584Y196323D01*
X224113Y196677D01*
X224467Y197206D01*
X224591Y197830D01*
X224467Y198454D01*
X224113Y198984D01*
X223584Y199337D01*
X223530Y199348D01*
X223473Y199723D01*
X223489Y199866D01*
X223984Y200197D01*
X224337Y200726D01*
X224461Y201350D01*
X224380Y201757D01*
X224704Y202257D01*
X369031Y202257D01*
Y228404D01*
X411857D01*
Y191787D01*
X411356Y191737D01*
X411346Y191789D01*
X411103Y192153D01*
X410739Y192396D01*
X410310Y192482D01*
X409881Y192396D01*
X409517Y192153D01*
X409274Y191789D01*
X409189Y191360D01*
X409274Y190931D01*
X409517Y190567D01*
X409881Y190324D01*
X410310Y190238D01*
X410739Y190324D01*
X411103Y190567D01*
X411346Y190931D01*
X411356Y190983D01*
X411857Y190933D01*
Y0D01*
Y-1190D01*
X411546Y-3550D01*
X410930Y-5849D01*
X410019Y-8047D01*
X408829Y-10108D01*
X407380Y-11997D01*
X405697Y-13679D01*
X403809Y-15128D01*
X401748Y-16318D01*
X399549Y-17229D01*
X397250Y-17845D01*
X394891Y-18156D01*
X-1190D01*
X-3550Y-17845D01*
X-5849Y-17229D01*
X-8047Y-16318D01*
X-10108Y-15128D01*
X-11997Y-13679D01*
X-13679Y-11997D01*
X-15128Y-10108D01*
X-16318Y-8047D01*
X-17229Y-5849D01*
X-17845Y-3550D01*
X-18156Y-1190D01*
Y0D01*
Y328933D01*
X-17802Y329287D01*
X79600Y329000D01*
D02*
G37*
%LPC*%
G36*
X0Y400640D02*
X-1354Y400506D01*
X-2655Y400111D01*
X-3855Y399470D01*
X-4907Y398607D01*
X-5770Y397556D01*
X-6411Y396356D01*
X-6806Y395055D01*
X-6939Y393701D01*
X-6806Y392347D01*
X-6411Y391045D01*
X-5770Y389846D01*
X-4907Y388794D01*
X-3855Y387931D01*
X-2655Y387290D01*
X-1354Y386895D01*
X0Y386762D01*
X1354Y386895D01*
X2655Y387290D01*
X3855Y387931D01*
X4907Y388794D01*
X5770Y389846D01*
X6411Y391045D01*
X6806Y392347D01*
X6939Y393701D01*
X6806Y395055D01*
X6411Y396356D01*
X5770Y397556D01*
X4907Y398607D01*
X3855Y399470D01*
X2655Y400111D01*
X1354Y400506D01*
X0Y400640D01*
D02*
G37*
G36*
X98610Y305091D02*
X97986Y304967D01*
X97457Y304613D01*
X97103Y304084D01*
X96979Y303460D01*
X97103Y302836D01*
X97457Y302307D01*
X97986Y301953D01*
X98610Y301829D01*
X99234Y301953D01*
X99764Y302307D01*
X100117Y302836D01*
X100241Y303460D01*
X100117Y304084D01*
X99764Y304613D01*
X99234Y304967D01*
X98610Y305091D01*
D02*
G37*
G36*
X393701Y400640D02*
X392347Y400506D01*
X391045Y400111D01*
X389846Y399470D01*
X388794Y398607D01*
X387931Y397556D01*
X387290Y396356D01*
X386895Y395055D01*
X386762Y393701D01*
X386895Y392347D01*
X387290Y391045D01*
X387931Y389846D01*
X388794Y388794D01*
X389846Y387931D01*
X391045Y387290D01*
X392347Y386895D01*
X393701Y386762D01*
X395055Y386895D01*
X396356Y387290D01*
X397556Y387931D01*
X398607Y388794D01*
X399470Y389846D01*
X400111Y391045D01*
X400506Y392347D01*
X400640Y393701D01*
X400506Y395055D01*
X400111Y396356D01*
X399470Y397556D01*
X398607Y398607D01*
X397556Y399470D01*
X396356Y400111D01*
X395055Y400506D01*
X393701Y400640D01*
D02*
G37*
G36*
X235360Y213551D02*
X234736Y213427D01*
X234207Y213073D01*
X233853Y212544D01*
X233729Y211920D01*
X233853Y211296D01*
X234207Y210767D01*
X234736Y210413D01*
X235360Y210289D01*
X235984Y210413D01*
X236513Y210767D01*
X236867Y211296D01*
X236991Y211920D01*
X236867Y212544D01*
X236513Y213073D01*
X235984Y213427D01*
X235360Y213551D01*
D02*
G37*
G36*
X33669Y271423D02*
X32945Y271328D01*
X32271Y271049D01*
X31692Y270604D01*
X31248Y270025D01*
X30968Y269351D01*
X30873Y268628D01*
X30968Y267904D01*
X31248Y267230D01*
X31692Y266651D01*
X32271Y266207D01*
X32945Y265927D01*
X33669Y265832D01*
X34392Y265927D01*
X35067Y266207D01*
X35646Y266651D01*
X36090Y267230D01*
X36369Y267904D01*
X36464Y268628D01*
X36369Y269351D01*
X36090Y270025D01*
X35646Y270604D01*
X35067Y271049D01*
X34392Y271328D01*
X33669Y271423D01*
D02*
G37*
G36*
Y261581D02*
X32945Y261485D01*
X32271Y261206D01*
X31692Y260762D01*
X31248Y260183D01*
X30968Y259509D01*
X30873Y258785D01*
X30968Y258062D01*
X31248Y257387D01*
X31692Y256808D01*
X32271Y256364D01*
X32945Y256085D01*
X33669Y255990D01*
X34392Y256085D01*
X35067Y256364D01*
X35646Y256808D01*
X36090Y257387D01*
X36369Y258062D01*
X36464Y258785D01*
X36369Y259509D01*
X36090Y260183D01*
X35646Y260762D01*
X35067Y261206D01*
X34392Y261485D01*
X33669Y261581D01*
D02*
G37*
G36*
Y251738D02*
X32945Y251643D01*
X32271Y251363D01*
X31692Y250919D01*
X31248Y250340D01*
X30968Y249666D01*
X30873Y248942D01*
X30968Y248219D01*
X31248Y247545D01*
X31692Y246966D01*
X32271Y246521D01*
X32945Y246242D01*
X33669Y246147D01*
X34392Y246242D01*
X35067Y246521D01*
X35646Y246966D01*
X36090Y247545D01*
X36369Y248219D01*
X36464Y248942D01*
X36369Y249666D01*
X36090Y250340D01*
X35646Y250919D01*
X35067Y251363D01*
X34392Y251643D01*
X33669Y251738D01*
D02*
G37*
G36*
Y241896D02*
X32945Y241800D01*
X32271Y241521D01*
X31692Y241077D01*
X31248Y240498D01*
X30968Y239824D01*
X30873Y239100D01*
X30968Y238376D01*
X31248Y237702D01*
X31692Y237123D01*
X32271Y236679D01*
X32945Y236400D01*
X33669Y236304D01*
X34392Y236400D01*
X35067Y236679D01*
X35646Y237123D01*
X36090Y237702D01*
X36369Y238376D01*
X36464Y239100D01*
X36369Y239824D01*
X36090Y240498D01*
X35646Y241077D01*
X35067Y241521D01*
X34392Y241800D01*
X33669Y241896D01*
D02*
G37*
G36*
X61910Y235721D02*
X61286Y235597D01*
X60756Y235244D01*
X60403Y234714D01*
X60279Y234090D01*
X60403Y233466D01*
X60756Y232937D01*
X61286Y232583D01*
X61910Y232459D01*
X62534Y232583D01*
X63064Y232937D01*
X63417Y233466D01*
X63541Y234090D01*
X63417Y234714D01*
X63064Y235244D01*
X62534Y235597D01*
X61910Y235721D01*
D02*
G37*
G36*
X72130Y235291D02*
X71506Y235167D01*
X70977Y234813D01*
X70623Y234284D01*
X70499Y233660D01*
X70623Y233036D01*
X70977Y232506D01*
X71506Y232153D01*
X72130Y232029D01*
X72754Y232153D01*
X73283Y232506D01*
X73637Y233036D01*
X73761Y233660D01*
X73637Y234284D01*
X73283Y234813D01*
X72754Y235167D01*
X72130Y235291D01*
D02*
G37*
G36*
X33669Y232053D02*
X32945Y231958D01*
X32271Y231679D01*
X31692Y231234D01*
X31248Y230655D01*
X30968Y229981D01*
X30873Y229257D01*
X30968Y228534D01*
X31248Y227860D01*
X31692Y227281D01*
X32271Y226836D01*
X32945Y226557D01*
X33669Y226462D01*
X34392Y226557D01*
X35067Y226836D01*
X35646Y227281D01*
X36090Y227860D01*
X36369Y228534D01*
X36464Y229257D01*
X36369Y229981D01*
X36090Y230655D01*
X35646Y231234D01*
X35067Y231679D01*
X34392Y231958D01*
X33669Y232053D01*
D02*
G37*
G36*
X61910Y226331D02*
X61286Y226207D01*
X60756Y225853D01*
X60403Y225324D01*
X60279Y224700D01*
X60403Y224076D01*
X60756Y223547D01*
X61286Y223193D01*
X61910Y223069D01*
X62534Y223193D01*
X63064Y223547D01*
X63417Y224076D01*
X63541Y224700D01*
X63417Y225324D01*
X63064Y225853D01*
X62534Y226207D01*
X61910Y226331D01*
D02*
G37*
G36*
X72130Y225971D02*
X71506Y225847D01*
X70977Y225494D01*
X70623Y224964D01*
X70499Y224340D01*
X70623Y223716D01*
X70977Y223186D01*
X71506Y222833D01*
X72130Y222709D01*
X72754Y222833D01*
X73283Y223186D01*
X73637Y223716D01*
X73761Y224340D01*
X73637Y224964D01*
X73283Y225494D01*
X72754Y225847D01*
X72130Y225971D01*
D02*
G37*
G36*
X377681Y220545D02*
Y217448D01*
X380778D01*
X380719Y217896D01*
X380353Y218779D01*
X379771Y219538D01*
X379012Y220120D01*
X378129Y220486D01*
X377681Y220545D01*
D02*
G37*
G36*
X376681D02*
X376233Y220486D01*
X375349Y220120D01*
X374591Y219538D01*
X374009Y218779D01*
X373643Y217896D01*
X373584Y217448D01*
X376681D01*
Y220545D01*
D02*
G37*
G36*
X33669Y222211D02*
X32945Y222115D01*
X32271Y221836D01*
X31692Y221392D01*
X31248Y220813D01*
X30968Y220139D01*
X30873Y219415D01*
X30968Y218691D01*
X31248Y218017D01*
X31692Y217438D01*
X32271Y216994D01*
X32945Y216715D01*
X33669Y216619D01*
X34392Y216715D01*
X35067Y216994D01*
X35646Y217438D01*
X36090Y218017D01*
X36369Y218691D01*
X36464Y219415D01*
X36369Y220139D01*
X36090Y220813D01*
X35646Y221392D01*
X35067Y221836D01*
X34392Y222115D01*
X33669Y222211D01*
D02*
G37*
G36*
X405100Y216921D02*
X404671Y216836D01*
X404307Y216593D01*
X404064Y216229D01*
X403978Y215800D01*
X404064Y215371D01*
X404307Y215007D01*
X404671Y214764D01*
X405100Y214679D01*
X405529Y214764D01*
X405893Y215007D01*
X406136Y215371D01*
X406221Y215800D01*
X406136Y216229D01*
X405893Y216593D01*
X405529Y216836D01*
X405100Y216921D01*
D02*
G37*
G36*
X61910Y216941D02*
X61286Y216817D01*
X60756Y216463D01*
X60403Y215934D01*
X60279Y215310D01*
X60403Y214686D01*
X60756Y214157D01*
X61286Y213803D01*
X61910Y213679D01*
X62534Y213803D01*
X63064Y214157D01*
X63417Y214686D01*
X63541Y215310D01*
X63417Y215934D01*
X63064Y216463D01*
X62534Y216817D01*
X61910Y216941D01*
D02*
G37*
G36*
X380778Y216448D02*
X377681D01*
Y213351D01*
X378129Y213410D01*
X379012Y213776D01*
X379771Y214358D01*
X380353Y215117D01*
X380719Y216000D01*
X380778Y216448D01*
D02*
G37*
G36*
X376681D02*
X373584D01*
X373643Y216000D01*
X374009Y215117D01*
X374591Y214358D01*
X375349Y213776D01*
X376233Y213410D01*
X376681Y213351D01*
Y216448D01*
D02*
G37*
G36*
X72130Y216601D02*
X71506Y216477D01*
X70977Y216124D01*
X70623Y215594D01*
X70499Y214970D01*
X70623Y214346D01*
X70977Y213816D01*
X71506Y213463D01*
X72130Y213339D01*
X72754Y213463D01*
X73283Y213816D01*
X73637Y214346D01*
X73761Y214970D01*
X73637Y215594D01*
X73283Y216124D01*
X72754Y216477D01*
X72130Y216601D01*
D02*
G37*
G36*
X397600Y201922D02*
X397171Y201836D01*
X396807Y201593D01*
X396564Y201229D01*
X396479Y200800D01*
X396564Y200371D01*
X396807Y200007D01*
X397171Y199764D01*
X397600Y199678D01*
X398029Y199764D01*
X398393Y200007D01*
X398636Y200371D01*
X398722Y200800D01*
X398636Y201229D01*
X398393Y201593D01*
X398029Y201836D01*
X397600Y201922D01*
D02*
G37*
G36*
X127764Y200711D02*
Y197197D01*
X131279D01*
X131205Y197753D01*
X130798Y198737D01*
X130149Y199582D01*
X129305Y200230D01*
X128321Y200638D01*
X127764Y200711D01*
D02*
G37*
G36*
X126765Y200711D02*
X126209Y200638D01*
X125225Y200230D01*
X124380Y199582D01*
X123731Y198737D01*
X123324Y197753D01*
X123250Y197197D01*
X126765D01*
Y200711D01*
D02*
G37*
G36*
X168470Y199511D02*
X167846Y199387D01*
X167316Y199033D01*
X166963Y198504D01*
X166839Y197880D01*
X166963Y197256D01*
X167316Y196727D01*
X167846Y196373D01*
X168470Y196249D01*
X169094Y196373D01*
X169623Y196727D01*
X169977Y197256D01*
X170101Y197880D01*
X169977Y198504D01*
X169623Y199033D01*
X169094Y199387D01*
X168470Y199511D01*
D02*
G37*
G36*
X72130Y196861D02*
X71506Y196737D01*
X70977Y196384D01*
X70623Y195854D01*
X70499Y195230D01*
X70623Y194606D01*
X70977Y194077D01*
X71506Y193723D01*
X72130Y193599D01*
X72754Y193723D01*
X73283Y194077D01*
X73637Y194606D01*
X73761Y195230D01*
X73637Y195854D01*
X73283Y196384D01*
X72754Y196737D01*
X72130Y196861D01*
D02*
G37*
G36*
X126765Y196197D02*
X123250D01*
X123324Y195641D01*
X123731Y194657D01*
X124380Y193812D01*
X125225Y193164D01*
X126209Y192756D01*
X126765Y192683D01*
Y196197D01*
D02*
G37*
G36*
X131279D02*
X127764D01*
Y192683D01*
X128321Y192756D01*
X129305Y193164D01*
X130149Y193812D01*
X130798Y194657D01*
X131205Y195641D01*
X131279Y196197D01*
D02*
G37*
G36*
X222960Y192671D02*
X222336Y192547D01*
X221807Y192193D01*
X221453Y191664D01*
X221329Y191040D01*
X221453Y190416D01*
X221807Y189886D01*
X222336Y189533D01*
X222960Y189409D01*
X223584Y189533D01*
X224113Y189886D01*
X224467Y190416D01*
X224591Y191040D01*
X224467Y191664D01*
X224113Y192193D01*
X223584Y192547D01*
X222960Y192671D01*
D02*
G37*
G36*
X94512Y190161D02*
X93888Y190037D01*
X93358Y189683D01*
X93005Y189154D01*
X92881Y188530D01*
X93005Y187905D01*
X93358Y187376D01*
X93888Y187023D01*
X94512Y186898D01*
X95136Y187023D01*
X95666Y187376D01*
X96019Y187905D01*
X96143Y188530D01*
X96019Y189154D01*
X95666Y189683D01*
X95136Y190037D01*
X94512Y190161D01*
D02*
G37*
G36*
X127265Y183070D02*
X126104Y182917D01*
X125023Y182470D01*
X124094Y181757D01*
X123382Y180828D01*
X122934Y179747D01*
X122781Y178587D01*
X122934Y177427D01*
X123382Y176345D01*
X124094Y175417D01*
X125023Y174704D01*
X126104Y174256D01*
X127265Y174103D01*
X128425Y174256D01*
X129506Y174704D01*
X130435Y175417D01*
X131147Y176345D01*
X131595Y177427D01*
X131748Y178587D01*
X131595Y179747D01*
X131147Y180828D01*
X130435Y181757D01*
X129506Y182470D01*
X128425Y182917D01*
X127265Y183070D01*
D02*
G37*
G36*
X7600Y171922D02*
X7171Y171836D01*
X6807Y171593D01*
X6564Y171229D01*
X6478Y170800D01*
X6564Y170371D01*
X6807Y170007D01*
X7171Y169764D01*
X7600Y169678D01*
X8029Y169764D01*
X8393Y170007D01*
X8636Y170371D01*
X8722Y170800D01*
X8636Y171229D01*
X8393Y171593D01*
X8029Y171836D01*
X7600Y171922D01*
D02*
G37*
G36*
X167360Y166531D02*
X166736Y166407D01*
X166207Y166053D01*
X165853Y165524D01*
X165729Y164900D01*
X165853Y164276D01*
X166207Y163747D01*
X166736Y163393D01*
X167360Y163269D01*
X167984Y163393D01*
X168514Y163747D01*
X168867Y164276D01*
X168991Y164900D01*
X168867Y165524D01*
X168514Y166053D01*
X167984Y166407D01*
X167360Y166531D01*
D02*
G37*
G36*
X221434Y168616D02*
X220649Y168513D01*
X219917Y168210D01*
X219289Y167727D01*
X218806Y167099D01*
X218503Y166367D01*
X218400Y165582D01*
X218503Y164797D01*
X218806Y164065D01*
X219289Y163437D01*
X219917Y162955D01*
X220649Y162652D01*
X221434Y162548D01*
X222219Y162652D01*
X222951Y162955D01*
X223579Y163437D01*
X224061Y164065D01*
X224364Y164797D01*
X224468Y165582D01*
X224364Y166367D01*
X224061Y167099D01*
X223579Y167727D01*
X222951Y168210D01*
X222219Y168513D01*
X221434Y168616D01*
D02*
G37*
G36*
X207334D02*
X206549Y168513D01*
X205817Y168210D01*
X205189Y167727D01*
X204706Y167099D01*
X204403Y166367D01*
X204300Y165582D01*
X204403Y164797D01*
X204706Y164065D01*
X205189Y163437D01*
X205817Y162955D01*
X206549Y162652D01*
X207334Y162548D01*
X208119Y162652D01*
X208851Y162955D01*
X209479Y163437D01*
X209961Y164065D01*
X210264Y164797D01*
X210368Y165582D01*
X210264Y166367D01*
X209961Y167099D01*
X209479Y167727D01*
X208851Y168210D01*
X208119Y168513D01*
X207334Y168616D01*
D02*
G37*
G36*
X384268Y199473D02*
X383390Y199357D01*
X382572Y199019D01*
X381870Y198480D01*
X381331Y197777D01*
X380992Y196960D01*
X380877Y196082D01*
X380992Y195204D01*
X381331Y194386D01*
X381870Y193684D01*
X382182Y193445D01*
Y192814D01*
X381870Y192575D01*
X381331Y191873D01*
X380992Y191055D01*
X380877Y190177D01*
X380992Y189299D01*
X381331Y188481D01*
X381870Y187779D01*
X382183Y187539D01*
Y186909D01*
X381870Y186669D01*
X381331Y185967D01*
X380992Y185149D01*
X380877Y184271D01*
X380992Y183393D01*
X381331Y182576D01*
X381870Y181873D01*
X382182Y181634D01*
Y181003D01*
X381870Y180764D01*
X381331Y180061D01*
X380992Y179244D01*
X380877Y178366D01*
X380992Y177488D01*
X381331Y176671D01*
X381870Y175968D01*
X382183Y175728D01*
Y175098D01*
X381870Y174858D01*
X381331Y174155D01*
X380992Y173338D01*
X380877Y172460D01*
X380992Y171582D01*
X381331Y170765D01*
X381870Y170062D01*
X382572Y169523D01*
X382657Y169488D01*
X382674Y168940D01*
X382226Y168596D01*
X381768Y167998D01*
X381479Y167302D01*
X381381Y166555D01*
X381479Y165808D01*
X381768Y165112D01*
X382226Y164514D01*
X382824Y164055D01*
X383134Y163927D01*
X383134Y163385D01*
X382774Y163236D01*
X382155Y162761D01*
X381680Y162143D01*
X381382Y161422D01*
X381346Y161149D01*
X384268D01*
X387189D01*
X387154Y161422D01*
X386855Y162143D01*
X386380Y162761D01*
X385761Y163236D01*
X385401Y163385D01*
X385401Y163927D01*
X385711Y164055D01*
X386309Y164514D01*
X386768Y165112D01*
X387056Y165808D01*
X387154Y166555D01*
X387056Y167302D01*
X386768Y167998D01*
X386309Y168596D01*
X385861Y168940D01*
X385879Y169488D01*
X385963Y169523D01*
X386666Y170062D01*
X387204Y170765D01*
X387543Y171582D01*
X387659Y172460D01*
X387543Y173338D01*
X387204Y174155D01*
X386666Y174858D01*
X386353Y175098D01*
Y175728D01*
X386666Y175968D01*
X387204Y176671D01*
X387543Y177488D01*
X387659Y178366D01*
X387543Y179244D01*
X387204Y180061D01*
X386666Y180764D01*
X386353Y181003D01*
Y181634D01*
X386666Y181873D01*
X387204Y182576D01*
X387543Y183393D01*
X387659Y184271D01*
X387543Y185149D01*
X387204Y185967D01*
X386666Y186669D01*
X386353Y186909D01*
Y187539D01*
X386666Y187779D01*
X387204Y188481D01*
X387543Y189299D01*
X387659Y190177D01*
X387543Y191055D01*
X387204Y191873D01*
X386666Y192575D01*
X386353Y192814D01*
Y193445D01*
X386666Y193684D01*
X387204Y194386D01*
X387543Y195204D01*
X387659Y196082D01*
X387543Y196960D01*
X387204Y197777D01*
X386666Y198480D01*
X385963Y199019D01*
X385145Y199357D01*
X384268Y199473D01*
D02*
G37*
G36*
X-8825Y165257D02*
X-9803Y165062D01*
X-10633Y164508D01*
X-11187Y163679D01*
X-11382Y162700D01*
X-11187Y161722D01*
X-10633Y160892D01*
X-9803Y160338D01*
X-8825Y160143D01*
X-7846Y160338D01*
X-7017Y160892D01*
X-6463Y161722D01*
X-6268Y162700D01*
X-6463Y163679D01*
X-7017Y164508D01*
X-7846Y165062D01*
X-8825Y165257D01*
D02*
G37*
G36*
X405100Y156922D02*
X404671Y156836D01*
X404307Y156593D01*
X404064Y156229D01*
X403978Y155800D01*
X404064Y155371D01*
X404307Y155007D01*
X404671Y154764D01*
X405100Y154678D01*
X405529Y154764D01*
X405893Y155007D01*
X406136Y155371D01*
X406221Y155800D01*
X406136Y156229D01*
X405893Y156593D01*
X405529Y156836D01*
X405100Y156922D01*
D02*
G37*
G36*
X150100D02*
X149671Y156836D01*
X149307Y156593D01*
X149064Y156229D01*
X148978Y155800D01*
X149064Y155371D01*
X149307Y155007D01*
X149671Y154764D01*
X150100Y154678D01*
X150529Y154764D01*
X150893Y155007D01*
X151136Y155371D01*
X151222Y155800D01*
X151136Y156229D01*
X150893Y156593D01*
X150529Y156836D01*
X150100Y156922D01*
D02*
G37*
G36*
X135100D02*
X134671Y156836D01*
X134307Y156593D01*
X134064Y156229D01*
X133978Y155800D01*
X134064Y155371D01*
X134307Y155007D01*
X134671Y154764D01*
X135100Y154678D01*
X135529Y154764D01*
X135893Y155007D01*
X136136Y155371D01*
X136222Y155800D01*
X136136Y156229D01*
X135893Y156593D01*
X135529Y156836D01*
X135100Y156922D01*
D02*
G37*
G36*
X120100D02*
X119671Y156836D01*
X119307Y156593D01*
X119064Y156229D01*
X118978Y155800D01*
X119064Y155371D01*
X119307Y155007D01*
X119671Y154764D01*
X120100Y154678D01*
X120529Y154764D01*
X120893Y155007D01*
X121136Y155371D01*
X121222Y155800D01*
X121136Y156229D01*
X120893Y156593D01*
X120529Y156836D01*
X120100Y156922D01*
D02*
G37*
G36*
X105100D02*
X104671Y156836D01*
X104307Y156593D01*
X104064Y156229D01*
X103978Y155800D01*
X104064Y155371D01*
X104307Y155007D01*
X104671Y154764D01*
X105100Y154678D01*
X105529Y154764D01*
X105893Y155007D01*
X106136Y155371D01*
X106222Y155800D01*
X106136Y156229D01*
X105893Y156593D01*
X105529Y156836D01*
X105100Y156922D01*
D02*
G37*
G36*
X100D02*
X-329Y156836D01*
X-693Y156593D01*
X-936Y156229D01*
X-1022Y155800D01*
X-936Y155371D01*
X-693Y155007D01*
X-329Y154764D01*
X100Y154678D01*
X529Y154764D01*
X893Y155007D01*
X1136Y155371D01*
X1222Y155800D01*
X1136Y156229D01*
X893Y156593D01*
X529Y156836D01*
X100Y156922D01*
D02*
G37*
G36*
X266210Y151424D02*
X265425Y151321D01*
X264693Y151017D01*
X264065Y150535D01*
X263583Y149907D01*
X263280Y149175D01*
X263176Y148390D01*
X263280Y147605D01*
X263583Y146873D01*
X264065Y146245D01*
X264693Y145763D01*
X265425Y145459D01*
X266210Y145356D01*
X266995Y145459D01*
X267727Y145763D01*
X268355Y146245D01*
X268837Y146873D01*
X269141Y147605D01*
X269244Y148390D01*
X269141Y149175D01*
X268837Y149907D01*
X268355Y150535D01*
X267727Y151017D01*
X266995Y151321D01*
X266210Y151424D01*
D02*
G37*
G36*
X142600Y141922D02*
X142171Y141836D01*
X141807Y141593D01*
X141564Y141229D01*
X141478Y140800D01*
X141564Y140371D01*
X141807Y140007D01*
X142171Y139764D01*
X142600Y139678D01*
X143029Y139764D01*
X143393Y140007D01*
X143636Y140371D01*
X143722Y140800D01*
X143636Y141229D01*
X143393Y141593D01*
X143029Y141836D01*
X142600Y141922D01*
D02*
G37*
G36*
X127600D02*
X127171Y141836D01*
X126807Y141593D01*
X126564Y141229D01*
X126478Y140800D01*
X126564Y140371D01*
X126807Y140007D01*
X127171Y139764D01*
X127600Y139678D01*
X128029Y139764D01*
X128393Y140007D01*
X128636Y140371D01*
X128722Y140800D01*
X128636Y141229D01*
X128393Y141593D01*
X128029Y141836D01*
X127600Y141922D01*
D02*
G37*
G36*
X7600D02*
X7171Y141836D01*
X6807Y141593D01*
X6564Y141229D01*
X6478Y140800D01*
X6564Y140371D01*
X6807Y140007D01*
X7171Y139764D01*
X7600Y139678D01*
X8029Y139764D01*
X8393Y140007D01*
X8636Y140371D01*
X8722Y140800D01*
X8636Y141229D01*
X8393Y141593D01*
X8029Y141836D01*
X7600Y141922D01*
D02*
G37*
G36*
X-7400D02*
X-7829Y141836D01*
X-8193Y141593D01*
X-8436Y141229D01*
X-8522Y140800D01*
X-8436Y140371D01*
X-8193Y140007D01*
X-7829Y139764D01*
X-7400Y139678D01*
X-6971Y139764D01*
X-6607Y140007D01*
X-6364Y140371D01*
X-6278Y140800D01*
X-6364Y141229D01*
X-6607Y141593D01*
X-6971Y141836D01*
X-7400Y141922D01*
D02*
G37*
G36*
X123610Y136692D02*
X123181Y136606D01*
X122817Y136363D01*
X122574Y135999D01*
X122488Y135570D01*
X122574Y135141D01*
X122817Y134777D01*
X123181Y134534D01*
X123610Y134449D01*
X124039Y134534D01*
X124403Y134777D01*
X124646Y135141D01*
X124732Y135570D01*
X124646Y135999D01*
X124403Y136363D01*
X124039Y136606D01*
X123610Y136692D01*
D02*
G37*
G36*
X199540Y139466D02*
X198817Y139370D01*
X198142Y139091D01*
X197563Y138647D01*
X197119Y138068D01*
X196840Y137394D01*
X196744Y136670D01*
X196840Y135947D01*
X197119Y135272D01*
X197563Y134693D01*
X198142Y134249D01*
X198817Y133970D01*
X199540Y133874D01*
X200264Y133970D01*
X200938Y134249D01*
X201517Y134693D01*
X201961Y135272D01*
X202240Y135947D01*
X202336Y136670D01*
X202240Y137394D01*
X201961Y138068D01*
X201517Y138647D01*
X200938Y139091D01*
X200264Y139370D01*
X199540Y139466D01*
D02*
G37*
G36*
X176700Y135834D02*
X175915Y135730D01*
X175183Y135427D01*
X174555Y134945D01*
X174073Y134317D01*
X173770Y133585D01*
X173666Y132800D01*
X173770Y132015D01*
X174073Y131283D01*
X174555Y130655D01*
X175183Y130173D01*
X175915Y129870D01*
X176700Y129766D01*
X177485Y129870D01*
X178217Y130173D01*
X178845Y130655D01*
X179327Y131283D01*
X179630Y132015D01*
X179734Y132800D01*
X179630Y133585D01*
X179327Y134317D01*
X178845Y134945D01*
X178217Y135427D01*
X177485Y135730D01*
X176700Y135834D01*
D02*
G37*
G36*
X405100Y126922D02*
X404671Y126836D01*
X404307Y126593D01*
X404064Y126229D01*
X403978Y125800D01*
X404064Y125371D01*
X404307Y125007D01*
X404671Y124764D01*
X405100Y124678D01*
X405529Y124764D01*
X405893Y125007D01*
X406136Y125371D01*
X406221Y125800D01*
X406136Y126229D01*
X405893Y126593D01*
X405529Y126836D01*
X405100Y126922D01*
D02*
G37*
G36*
X165100D02*
X164671Y126836D01*
X164307Y126593D01*
X164064Y126229D01*
X163978Y125800D01*
X164064Y125371D01*
X164307Y125007D01*
X164671Y124764D01*
X165100Y124678D01*
X165529Y124764D01*
X165893Y125007D01*
X166136Y125371D01*
X166222Y125800D01*
X166136Y126229D01*
X165893Y126593D01*
X165529Y126836D01*
X165100Y126922D01*
D02*
G37*
G36*
X150100D02*
X149671Y126836D01*
X149307Y126593D01*
X149064Y126229D01*
X148978Y125800D01*
X149064Y125371D01*
X149307Y125007D01*
X149671Y124764D01*
X150100Y124678D01*
X150529Y124764D01*
X150893Y125007D01*
X151136Y125371D01*
X151222Y125800D01*
X151136Y126229D01*
X150893Y126593D01*
X150529Y126836D01*
X150100Y126922D01*
D02*
G37*
G36*
X135100D02*
X134671Y126836D01*
X134307Y126593D01*
X134064Y126229D01*
X133978Y125800D01*
X134064Y125371D01*
X134307Y125007D01*
X134671Y124764D01*
X135100Y124678D01*
X135529Y124764D01*
X135893Y125007D01*
X136136Y125371D01*
X136222Y125800D01*
X136136Y126229D01*
X135893Y126593D01*
X135529Y126836D01*
X135100Y126922D01*
D02*
G37*
G36*
X100D02*
X-329Y126836D01*
X-693Y126593D01*
X-936Y126229D01*
X-1022Y125800D01*
X-936Y125371D01*
X-693Y125007D01*
X-329Y124764D01*
X100Y124678D01*
X529Y124764D01*
X893Y125007D01*
X1136Y125371D01*
X1222Y125800D01*
X1136Y126229D01*
X893Y126593D01*
X529Y126836D01*
X100Y126922D01*
D02*
G37*
G36*
X86440Y125782D02*
X86011Y125697D01*
X85647Y125454D01*
X85404Y125090D01*
X85318Y124661D01*
X85404Y124232D01*
X85647Y123868D01*
X86011Y123625D01*
X86440Y123539D01*
X86869Y123625D01*
X87233Y123868D01*
X87476Y124232D01*
X87562Y124661D01*
X87476Y125090D01*
X87233Y125454D01*
X86869Y125697D01*
X86440Y125782D01*
D02*
G37*
G36*
X272280Y118891D02*
X271656Y118767D01*
X271127Y118413D01*
X270773Y117884D01*
X270649Y117260D01*
X270773Y116636D01*
X271127Y116106D01*
X271656Y115753D01*
X272280Y115629D01*
X272904Y115753D01*
X273433Y116106D01*
X273787Y116636D01*
X273911Y117260D01*
X273787Y117884D01*
X273433Y118413D01*
X272904Y118767D01*
X272280Y118891D01*
D02*
G37*
G36*
X232691Y113050D02*
Y112120D01*
X233621D01*
X233604Y112205D01*
X233272Y112701D01*
X232776Y113033D01*
X232691Y113050D01*
D02*
G37*
G36*
X231691D02*
X231606Y113033D01*
X231109Y112701D01*
X230778Y112205D01*
X230761Y112120D01*
X231691D01*
Y113050D01*
D02*
G37*
G36*
Y111120D02*
X230761D01*
X230778Y111034D01*
X231109Y110538D01*
X231606Y110207D01*
X231691Y110190D01*
Y111120D01*
D02*
G37*
G36*
X233621D02*
X232691D01*
Y110190D01*
X232776Y110207D01*
X233272Y110538D01*
X233604Y111034D01*
X233621Y111120D01*
D02*
G37*
G36*
X250304Y113251D02*
X249680Y113127D01*
X249151Y112773D01*
X248797Y112244D01*
X248673Y111620D01*
X248797Y110995D01*
X249151Y110466D01*
X249680Y110113D01*
X250304Y109988D01*
X250929Y110113D01*
X251458Y110466D01*
X251812Y110995D01*
X251936Y111620D01*
X251812Y112244D01*
X251458Y112773D01*
X250929Y113127D01*
X250304Y113251D01*
D02*
G37*
G36*
X157600Y111922D02*
X157171Y111836D01*
X156807Y111593D01*
X156564Y111229D01*
X156478Y110800D01*
X156564Y110371D01*
X156807Y110007D01*
X157171Y109764D01*
X157600Y109678D01*
X158029Y109764D01*
X158393Y110007D01*
X158636Y110371D01*
X158722Y110800D01*
X158636Y111229D01*
X158393Y111593D01*
X158029Y111836D01*
X157600Y111922D01*
D02*
G37*
G36*
X142600D02*
X142171Y111836D01*
X141807Y111593D01*
X141564Y111229D01*
X141478Y110800D01*
X141564Y110371D01*
X141807Y110007D01*
X142171Y109764D01*
X142600Y109678D01*
X143029Y109764D01*
X143393Y110007D01*
X143636Y110371D01*
X143722Y110800D01*
X143636Y111229D01*
X143393Y111593D01*
X143029Y111836D01*
X142600Y111922D01*
D02*
G37*
G36*
X112600D02*
X112171Y111836D01*
X111807Y111593D01*
X111564Y111229D01*
X111478Y110800D01*
X111564Y110371D01*
X111807Y110007D01*
X112171Y109764D01*
X112600Y109678D01*
X113029Y109764D01*
X113393Y110007D01*
X113636Y110371D01*
X113722Y110800D01*
X113636Y111229D01*
X113393Y111593D01*
X113029Y111836D01*
X112600Y111922D01*
D02*
G37*
G36*
X97600D02*
X97171Y111836D01*
X96807Y111593D01*
X96564Y111229D01*
X96478Y110800D01*
X96564Y110371D01*
X96807Y110007D01*
X97171Y109764D01*
X97600Y109678D01*
X98029Y109764D01*
X98393Y110007D01*
X98636Y110371D01*
X98722Y110800D01*
X98636Y111229D01*
X98393Y111593D01*
X98029Y111836D01*
X97600Y111922D01*
D02*
G37*
G36*
X7600D02*
X7171Y111836D01*
X6807Y111593D01*
X6564Y111229D01*
X6478Y110800D01*
X6564Y110371D01*
X6807Y110007D01*
X7171Y109764D01*
X7600Y109678D01*
X8029Y109764D01*
X8393Y110007D01*
X8636Y110371D01*
X8722Y110800D01*
X8636Y111229D01*
X8393Y111593D01*
X8029Y111836D01*
X7600Y111922D01*
D02*
G37*
G36*
X-7400D02*
X-7829Y111836D01*
X-8193Y111593D01*
X-8436Y111229D01*
X-8522Y110800D01*
X-8436Y110371D01*
X-8193Y110007D01*
X-7829Y109764D01*
X-7400Y109678D01*
X-6971Y109764D01*
X-6607Y110007D01*
X-6364Y110371D01*
X-6278Y110800D01*
X-6364Y111229D01*
X-6607Y111593D01*
X-6971Y111836D01*
X-7400Y111922D01*
D02*
G37*
G36*
X183380Y112121D02*
X182756Y111997D01*
X182227Y111644D01*
X181873Y111114D01*
X181749Y110490D01*
X181873Y109866D01*
X182227Y109336D01*
X182756Y108983D01*
X183380Y108859D01*
X184004Y108983D01*
X184534Y109336D01*
X184887Y109866D01*
X185011Y110490D01*
X184887Y111114D01*
X184534Y111644D01*
X184004Y111997D01*
X183380Y112121D01*
D02*
G37*
G36*
X272560Y110201D02*
X271936Y110077D01*
X271407Y109723D01*
X271053Y109194D01*
X270929Y108570D01*
X271053Y107946D01*
X271407Y107416D01*
X271936Y107063D01*
X272560Y106939D01*
X273184Y107063D01*
X273713Y107416D01*
X274067Y107946D01*
X274191Y108570D01*
X274067Y109194D01*
X273713Y109723D01*
X273184Y110077D01*
X272560Y110201D01*
D02*
G37*
G36*
X236510Y109011D02*
X235886Y108887D01*
X235356Y108534D01*
X235003Y108004D01*
X234879Y107380D01*
X235003Y106756D01*
X235356Y106227D01*
X235886Y105873D01*
X236510Y105749D01*
X237134Y105873D01*
X237664Y106227D01*
X238017Y106756D01*
X238141Y107380D01*
X238017Y108004D01*
X237664Y108534D01*
X237134Y108887D01*
X236510Y109011D01*
D02*
G37*
G36*
X164443Y112900D02*
X163514Y112778D01*
X162648Y112419D01*
X161905Y111849D01*
X161335Y111105D01*
X160976Y110240D01*
X160854Y109310D01*
X160976Y108381D01*
X161335Y107516D01*
X161905Y106772D01*
X162648Y106202D01*
X163514Y105843D01*
X164443Y105721D01*
X165372Y105843D01*
X166238Y106202D01*
X166982Y106772D01*
X167552Y107516D01*
X167911Y108381D01*
X168033Y109310D01*
X167911Y110240D01*
X167552Y111105D01*
X166982Y111849D01*
X166238Y112419D01*
X165372Y112778D01*
X164443Y112900D01*
D02*
G37*
G36*
X76254D02*
X75325Y112778D01*
X74459Y112419D01*
X73716Y111849D01*
X73146Y111105D01*
X72787Y110240D01*
X72664Y109310D01*
X72787Y108381D01*
X73146Y107516D01*
X73716Y106772D01*
X74459Y106202D01*
X75325Y105843D01*
X76254Y105721D01*
X77183Y105843D01*
X78049Y106202D01*
X78793Y106772D01*
X79363Y107516D01*
X79722Y108381D01*
X79844Y109310D01*
X79722Y110240D01*
X79363Y111105D01*
X78793Y111849D01*
X78049Y112419D01*
X77183Y112778D01*
X76254Y112900D01*
D02*
G37*
G36*
X272770Y102141D02*
X272146Y102017D01*
X271617Y101663D01*
X271263Y101134D01*
X271139Y100510D01*
X271263Y99886D01*
X271617Y99357D01*
X272146Y99003D01*
X272770Y98879D01*
X273394Y99003D01*
X273923Y99357D01*
X274277Y99886D01*
X274401Y100510D01*
X274277Y101134D01*
X273923Y101663D01*
X273394Y102017D01*
X272770Y102141D01*
D02*
G37*
G36*
X387189Y160149D02*
X384268D01*
X381346D01*
X381382Y159876D01*
X381680Y159155D01*
X382155Y158537D01*
X382568Y158220D01*
X382571Y157865D01*
X382530Y157649D01*
X381870Y157142D01*
X381331Y156439D01*
X380992Y155622D01*
X380877Y154744D01*
X380992Y153866D01*
X381331Y153049D01*
X381870Y152346D01*
X382183Y152106D01*
Y151476D01*
X381870Y151236D01*
X381331Y150533D01*
X380992Y149716D01*
X380877Y148838D01*
X380992Y147960D01*
X381331Y147143D01*
X381870Y146440D01*
X382182Y146201D01*
Y145570D01*
X381870Y145331D01*
X381331Y144629D01*
X380992Y143811D01*
X380877Y142933D01*
X380992Y142055D01*
X381331Y141237D01*
X381870Y140535D01*
X382183Y140295D01*
Y139665D01*
X381870Y139425D01*
X381331Y138723D01*
X380992Y137905D01*
X380877Y137027D01*
X380992Y136149D01*
X381331Y135331D01*
X381870Y134629D01*
X382182Y134390D01*
Y133759D01*
X381870Y133520D01*
X381331Y132817D01*
X380992Y132000D01*
X380877Y131122D01*
X380992Y130244D01*
X381331Y129427D01*
X381870Y128724D01*
X382183Y128484D01*
Y127854D01*
X381870Y127614D01*
X381331Y126911D01*
X380992Y126094D01*
X380877Y125216D01*
X380992Y124338D01*
X381331Y123521D01*
X381870Y122818D01*
X382182Y122579D01*
Y121948D01*
X381870Y121709D01*
X381331Y121007D01*
X380992Y120189D01*
X380877Y119311D01*
X380992Y118433D01*
X381331Y117615D01*
X381870Y116913D01*
X382183Y116673D01*
Y116043D01*
X381870Y115803D01*
X381331Y115101D01*
X380992Y114283D01*
X380877Y113405D01*
X380992Y112527D01*
X381331Y111709D01*
X381870Y111007D01*
X382182Y110768D01*
Y110137D01*
X381870Y109898D01*
X381331Y109195D01*
X380992Y108378D01*
X380877Y107500D01*
X380992Y106622D01*
X381331Y105805D01*
X381870Y105102D01*
X382183Y104862D01*
Y104232D01*
X381870Y103992D01*
X381331Y103289D01*
X380992Y102472D01*
X380877Y101594D01*
X380992Y100716D01*
X381331Y99898D01*
X381870Y99196D01*
X382572Y98657D01*
X383390Y98318D01*
X384268Y98203D01*
X385145Y98318D01*
X385963Y98657D01*
X386666Y99196D01*
X387204Y99898D01*
X387543Y100716D01*
X387659Y101594D01*
X387543Y102472D01*
X387204Y103289D01*
X386666Y103992D01*
X386353Y104232D01*
Y104862D01*
X386666Y105102D01*
X387204Y105805D01*
X387543Y106622D01*
X387659Y107500D01*
X387543Y108378D01*
X387204Y109195D01*
X386666Y109898D01*
X386353Y110137D01*
Y110768D01*
X386666Y111007D01*
X387204Y111709D01*
X387543Y112527D01*
X387659Y113405D01*
X387543Y114283D01*
X387204Y115101D01*
X386666Y115803D01*
X386353Y116043D01*
Y116673D01*
X386666Y116913D01*
X387204Y117615D01*
X387543Y118433D01*
X387659Y119311D01*
X387543Y120189D01*
X387204Y121007D01*
X386666Y121709D01*
X386353Y121948D01*
Y122579D01*
X386666Y122818D01*
X387204Y123521D01*
X387543Y124338D01*
X387659Y125216D01*
X387543Y126094D01*
X387204Y126911D01*
X386666Y127614D01*
X386353Y127854D01*
Y128484D01*
X386666Y128724D01*
X387204Y129427D01*
X387543Y130244D01*
X387659Y131122D01*
X387543Y132000D01*
X387204Y132817D01*
X386666Y133520D01*
X386353Y133759D01*
Y134390D01*
X386666Y134629D01*
X387204Y135331D01*
X387543Y136149D01*
X387659Y137027D01*
X387543Y137905D01*
X387204Y138723D01*
X386666Y139425D01*
X386353Y139665D01*
Y140295D01*
X386666Y140535D01*
X387204Y141237D01*
X387543Y142055D01*
X387659Y142933D01*
X387543Y143811D01*
X387204Y144629D01*
X386666Y145331D01*
X386353Y145570D01*
Y146201D01*
X386666Y146440D01*
X387204Y147143D01*
X387543Y147960D01*
X387659Y148838D01*
X387543Y149716D01*
X387204Y150533D01*
X386666Y151236D01*
X386353Y151476D01*
Y152106D01*
X386666Y152346D01*
X387204Y153049D01*
X387543Y153866D01*
X387659Y154744D01*
X387543Y155622D01*
X387204Y156439D01*
X386666Y157142D01*
X386005Y157649D01*
X385965Y157865D01*
X385968Y158220D01*
X386380Y158537D01*
X386855Y159155D01*
X387154Y159876D01*
X387189Y160149D01*
D02*
G37*
G36*
X165100Y96922D02*
X164671Y96836D01*
X164307Y96593D01*
X164064Y96229D01*
X163978Y95800D01*
X164064Y95371D01*
X164307Y95007D01*
X164671Y94764D01*
X165100Y94678D01*
X165529Y94764D01*
X165893Y95007D01*
X166136Y95371D01*
X166222Y95800D01*
X166136Y96229D01*
X165893Y96593D01*
X165529Y96836D01*
X165100Y96922D01*
D02*
G37*
G36*
X135100D02*
X134671Y96836D01*
X134307Y96593D01*
X134064Y96229D01*
X133978Y95800D01*
X134064Y95371D01*
X134307Y95007D01*
X134671Y94764D01*
X135100Y94678D01*
X135529Y94764D01*
X135893Y95007D01*
X136136Y95371D01*
X136222Y95800D01*
X136136Y96229D01*
X135893Y96593D01*
X135529Y96836D01*
X135100Y96922D01*
D02*
G37*
G36*
X120100D02*
X119671Y96836D01*
X119307Y96593D01*
X119064Y96229D01*
X118978Y95800D01*
X119064Y95371D01*
X119307Y95007D01*
X119671Y94764D01*
X120100Y94678D01*
X120529Y94764D01*
X120893Y95007D01*
X121136Y95371D01*
X121222Y95800D01*
X121136Y96229D01*
X120893Y96593D01*
X120529Y96836D01*
X120100Y96922D01*
D02*
G37*
G36*
X45100D02*
X44671Y96836D01*
X44307Y96593D01*
X44064Y96229D01*
X43978Y95800D01*
X44064Y95371D01*
X44307Y95007D01*
X44671Y94764D01*
X45100Y94678D01*
X45529Y94764D01*
X45893Y95007D01*
X46136Y95371D01*
X46222Y95800D01*
X46136Y96229D01*
X45893Y96593D01*
X45529Y96836D01*
X45100Y96922D01*
D02*
G37*
G36*
X30100D02*
X29671Y96836D01*
X29307Y96593D01*
X29064Y96229D01*
X28978Y95800D01*
X29064Y95371D01*
X29307Y95007D01*
X29671Y94764D01*
X30100Y94678D01*
X30529Y94764D01*
X30893Y95007D01*
X31136Y95371D01*
X31222Y95800D01*
X31136Y96229D01*
X30893Y96593D01*
X30529Y96836D01*
X30100Y96922D01*
D02*
G37*
G36*
X24430Y97401D02*
X23806Y97277D01*
X23277Y96924D01*
X22923Y96394D01*
X22799Y95770D01*
X22923Y95146D01*
X23277Y94617D01*
X23806Y94263D01*
X24430Y94139D01*
X25054Y94263D01*
X25583Y94617D01*
X25937Y95146D01*
X26061Y95770D01*
X25937Y96394D01*
X25583Y96924D01*
X25054Y97277D01*
X24430Y97401D01*
D02*
G37*
G36*
X272560Y91271D02*
X271936Y91147D01*
X271407Y90794D01*
X271053Y90264D01*
X270929Y89640D01*
X271053Y89016D01*
X271407Y88486D01*
X271936Y88133D01*
X272560Y88009D01*
X273184Y88133D01*
X273713Y88486D01*
X274067Y89016D01*
X274191Y89640D01*
X274067Y90264D01*
X273713Y90794D01*
X273184Y91147D01*
X272560Y91271D01*
D02*
G37*
G36*
X95420Y85525D02*
X94795Y85401D01*
X94266Y85047D01*
X93913Y84518D01*
X93788Y83893D01*
X93913Y83269D01*
X94266Y82740D01*
X94795Y82386D01*
X95420Y82262D01*
X96044Y82386D01*
X96573Y82740D01*
X96927Y83269D01*
X97051Y83893D01*
X96927Y84518D01*
X96573Y85047D01*
X96044Y85401D01*
X95420Y85525D01*
D02*
G37*
G36*
X265990Y85341D02*
X265366Y85217D01*
X264837Y84864D01*
X264483Y84334D01*
X264359Y83710D01*
X264483Y83086D01*
X264837Y82556D01*
X265366Y82203D01*
X265990Y82079D01*
X266614Y82203D01*
X267144Y82556D01*
X267497Y83086D01*
X267621Y83710D01*
X267497Y84334D01*
X267144Y84864D01*
X266614Y85217D01*
X265990Y85341D01*
D02*
G37*
G36*
X142600Y81922D02*
X142171Y81836D01*
X141807Y81593D01*
X141564Y81229D01*
X141478Y80800D01*
X141564Y80371D01*
X141807Y80007D01*
X142171Y79764D01*
X142600Y79678D01*
X143029Y79764D01*
X143393Y80007D01*
X143636Y80371D01*
X143722Y80800D01*
X143636Y81229D01*
X143393Y81593D01*
X143029Y81836D01*
X142600Y81922D01*
D02*
G37*
G36*
X127600D02*
X127171Y81836D01*
X126807Y81593D01*
X126564Y81229D01*
X126478Y80800D01*
X126564Y80371D01*
X126807Y80007D01*
X127171Y79764D01*
X127600Y79678D01*
X128029Y79764D01*
X128393Y80007D01*
X128636Y80371D01*
X128722Y80800D01*
X128636Y81229D01*
X128393Y81593D01*
X128029Y81836D01*
X127600Y81922D01*
D02*
G37*
G36*
X22600D02*
X22171Y81836D01*
X21807Y81593D01*
X21564Y81229D01*
X21478Y80800D01*
X21564Y80371D01*
X21807Y80007D01*
X22171Y79764D01*
X22600Y79678D01*
X23029Y79764D01*
X23393Y80007D01*
X23636Y80371D01*
X23721Y80800D01*
X23636Y81229D01*
X23393Y81593D01*
X23029Y81836D01*
X22600Y81922D01*
D02*
G37*
G36*
X-16030Y79922D02*
X-16459Y79836D01*
X-16823Y79593D01*
X-17066Y79229D01*
X-17152Y78800D01*
X-17066Y78371D01*
X-16823Y78007D01*
X-16459Y77764D01*
X-16030Y77678D01*
X-15601Y77764D01*
X-15237Y78007D01*
X-14994Y78371D01*
X-14908Y78800D01*
X-14994Y79229D01*
X-15237Y79593D01*
X-15601Y79836D01*
X-16030Y79922D01*
D02*
G37*
G36*
X377181Y84290D02*
X376259Y84169D01*
X375400Y83813D01*
X374662Y83247D01*
X374096Y82509D01*
X373740Y81650D01*
X373619Y80728D01*
X373740Y79806D01*
X374096Y78947D01*
X374662Y78209D01*
X375400Y77643D01*
X376259Y77287D01*
X377181Y77166D01*
X378103Y77287D01*
X378962Y77643D01*
X379699Y78209D01*
X380265Y78947D01*
X380621Y79806D01*
X380743Y80728D01*
X380621Y81650D01*
X380265Y82509D01*
X379699Y83247D01*
X378962Y83813D01*
X378103Y84169D01*
X377181Y84290D01*
D02*
G37*
G36*
X191890Y76431D02*
X191266Y76307D01*
X190736Y75954D01*
X190383Y75424D01*
X190259Y74800D01*
X190383Y74176D01*
X190736Y73646D01*
X191266Y73293D01*
X191890Y73169D01*
X192514Y73293D01*
X193043Y73646D01*
X193397Y74176D01*
X193521Y74800D01*
X193397Y75424D01*
X193043Y75954D01*
X192514Y76307D01*
X191890Y76431D01*
D02*
G37*
G36*
X203760Y76261D02*
X203136Y76137D01*
X202607Y75783D01*
X202253Y75254D01*
X202129Y74630D01*
X202253Y74006D01*
X202607Y73476D01*
X203136Y73123D01*
X203760Y72998D01*
X204384Y73123D01*
X204913Y73476D01*
X205267Y74006D01*
X205391Y74630D01*
X205267Y75254D01*
X204913Y75783D01*
X204384Y76137D01*
X203760Y76261D01*
D02*
G37*
G36*
X23920Y75211D02*
X23296Y75087D01*
X22767Y74734D01*
X22413Y74204D01*
X22289Y73580D01*
X22413Y72956D01*
X22767Y72426D01*
X23296Y72073D01*
X23920Y71949D01*
X24544Y72073D01*
X25074Y72426D01*
X25427Y72956D01*
X25551Y73580D01*
X25427Y74204D01*
X25074Y74734D01*
X24544Y75087D01*
X23920Y75211D01*
D02*
G37*
G36*
X98960Y71411D02*
X98336Y71287D01*
X97807Y70934D01*
X97453Y70404D01*
X97416Y70219D01*
X96917Y70214D01*
X96906Y70217D01*
X96553Y70744D01*
X96024Y71097D01*
X95400Y71221D01*
X94776Y71097D01*
X94247Y70744D01*
X93893Y70214D01*
X93769Y69590D01*
X93893Y68966D01*
X94247Y68436D01*
X94776Y68083D01*
X95400Y67959D01*
X96024Y68083D01*
X96553Y68436D01*
X96907Y68966D01*
X96944Y69151D01*
X97443Y69156D01*
X97454Y69153D01*
X97807Y68626D01*
X98336Y68273D01*
X98960Y68149D01*
X99584Y68273D01*
X100113Y68626D01*
X100467Y69156D01*
X100591Y69780D01*
X100467Y70404D01*
X100113Y70934D01*
X99584Y71287D01*
X98960Y71411D01*
D02*
G37*
G36*
X164100Y71441D02*
X163476Y71317D01*
X162946Y70964D01*
X162593Y70434D01*
X162469Y69810D01*
X162593Y69186D01*
X162946Y68656D01*
X163476Y68303D01*
X164100Y68179D01*
X164724Y68303D01*
X165253Y68656D01*
X165607Y69186D01*
X165731Y69810D01*
X165607Y70434D01*
X165253Y70964D01*
X164724Y71317D01*
X164100Y71441D01*
D02*
G37*
G36*
X181920Y68361D02*
X181491Y68276D01*
X181127Y68033D01*
X180884Y67669D01*
X180798Y67240D01*
X180884Y66811D01*
X181127Y66447D01*
X181491Y66204D01*
X181920Y66118D01*
X182349Y66204D01*
X182713Y66447D01*
X182956Y66811D01*
X183042Y67240D01*
X182956Y67669D01*
X182713Y68033D01*
X182349Y68276D01*
X181920Y68361D01*
D02*
G37*
G36*
X141080Y68071D02*
X140456Y67947D01*
X139927Y67593D01*
X139573Y67064D01*
X139449Y66440D01*
X139573Y65816D01*
X139927Y65286D01*
X140456Y64933D01*
X141080Y64809D01*
X141704Y64933D01*
X142234Y65286D01*
X142587Y65816D01*
X142711Y66440D01*
X142587Y67064D01*
X142234Y67593D01*
X141704Y67947D01*
X141080Y68071D01*
D02*
G37*
G36*
X23620Y66751D02*
X22996Y66627D01*
X22467Y66273D01*
X22113Y65744D01*
X21989Y65120D01*
X22113Y64496D01*
X22467Y63967D01*
X22996Y63613D01*
X23620Y63489D01*
X24244Y63613D01*
X24773Y63967D01*
X25127Y64496D01*
X25251Y65120D01*
X25127Y65744D01*
X24773Y66273D01*
X24244Y66627D01*
X23620Y66751D01*
D02*
G37*
G36*
X92820Y65071D02*
X92196Y64947D01*
X91667Y64593D01*
X91313Y64064D01*
X91189Y63440D01*
X91313Y62816D01*
X91462Y62593D01*
X91101Y62233D01*
X91064Y62257D01*
X90440Y62381D01*
X89816Y62257D01*
X89287Y61904D01*
X88933Y61374D01*
X88809Y60750D01*
X88933Y60126D01*
X89287Y59597D01*
X89816Y59243D01*
X90440Y59119D01*
X91064Y59243D01*
X91593Y59597D01*
X91947Y60126D01*
X92071Y60750D01*
X91947Y61374D01*
X91798Y61597D01*
X92159Y61957D01*
X92196Y61933D01*
X92820Y61809D01*
X93444Y61933D01*
X93973Y62287D01*
X94327Y62816D01*
X94451Y63440D01*
X94327Y64064D01*
X93973Y64593D01*
X93444Y64947D01*
X92820Y65071D01*
D02*
G37*
G36*
X81490D02*
X80866Y64947D01*
X80336Y64593D01*
X79983Y64064D01*
X79859Y63440D01*
X79983Y62816D01*
X80336Y62287D01*
X80866Y61933D01*
X81490Y61809D01*
X82114Y61933D01*
X82644Y62287D01*
X82997Y62816D01*
X83121Y63440D01*
X82997Y64064D01*
X82644Y64593D01*
X82114Y64947D01*
X81490Y65071D01*
D02*
G37*
G36*
X84620Y62531D02*
X83996Y62407D01*
X83467Y62054D01*
X83113Y61524D01*
X82989Y60900D01*
X83113Y60276D01*
X83467Y59746D01*
X83996Y59393D01*
X84620Y59269D01*
X85244Y59393D01*
X85773Y59746D01*
X86127Y60276D01*
X86251Y60900D01*
X86127Y61524D01*
X85773Y62054D01*
X85244Y62407D01*
X84620Y62531D01*
D02*
G37*
G36*
X78968Y60573D02*
X78344Y60449D01*
X77814Y60095D01*
X77461Y59566D01*
X77337Y58942D01*
X77461Y58317D01*
X77814Y57788D01*
X78344Y57434D01*
X78968Y57310D01*
X79592Y57434D01*
X80121Y57788D01*
X80475Y58317D01*
X80599Y58942D01*
X80475Y59566D01*
X80121Y60095D01*
X79592Y60449D01*
X78968Y60573D01*
D02*
G37*
G36*
X87350Y58601D02*
X86726Y58477D01*
X86197Y58123D01*
X85843Y57594D01*
X85719Y56970D01*
X85843Y56346D01*
X86197Y55817D01*
X86726Y55463D01*
X87350Y55339D01*
X87974Y55463D01*
X88503Y55817D01*
X88857Y56346D01*
X88981Y56970D01*
X88857Y57594D01*
X88503Y58123D01*
X87974Y58477D01*
X87350Y58601D01*
D02*
G37*
G36*
X23470Y57761D02*
X22846Y57637D01*
X22317Y57284D01*
X21963Y56754D01*
X21839Y56130D01*
X21963Y55506D01*
X22317Y54976D01*
X22846Y54623D01*
X23470Y54499D01*
X24094Y54623D01*
X24623Y54976D01*
X24977Y55506D01*
X25101Y56130D01*
X24977Y56754D01*
X24623Y57284D01*
X24094Y57637D01*
X23470Y57761D01*
D02*
G37*
G36*
X65110Y55535D02*
X64486Y55411D01*
X63957Y55057D01*
X63603Y54528D01*
X63479Y53904D01*
X63603Y53279D01*
X63957Y52750D01*
X64486Y52397D01*
X65110Y52272D01*
X65734Y52397D01*
X66264Y52750D01*
X66617Y53279D01*
X66742Y53904D01*
X66617Y54528D01*
X66264Y55057D01*
X65734Y55411D01*
X65110Y55535D01*
D02*
G37*
G36*
X144000Y54440D02*
X143570Y54355D01*
X143207Y54112D01*
X142963Y53748D01*
X142878Y53319D01*
X142963Y52890D01*
X143207Y52526D01*
X143570Y52283D01*
X144000Y52197D01*
X144429Y52283D01*
X144793Y52526D01*
X145036Y52890D01*
X145121Y53319D01*
X145036Y53748D01*
X144793Y54112D01*
X144429Y54355D01*
X144000Y54440D01*
D02*
G37*
G36*
X45181Y54950D02*
X44557Y54826D01*
X44028Y54473D01*
X43674Y53943D01*
X43550Y53319D01*
X43674Y52695D01*
X44028Y52166D01*
X44557Y51812D01*
X45181Y51688D01*
X45805Y51812D01*
X46335Y52166D01*
X46688Y52695D01*
X46812Y53319D01*
X46688Y53943D01*
X46335Y54473D01*
X45805Y54826D01*
X45181Y54950D01*
D02*
G37*
G36*
X106200Y57431D02*
X105576Y57307D01*
X105046Y56954D01*
X104693Y56424D01*
X104569Y55800D01*
X104693Y55176D01*
X105046Y54646D01*
X105576Y54293D01*
X106200Y54169D01*
X106617Y54252D01*
X106792Y54094D01*
X106978Y53840D01*
X106869Y53290D01*
X106993Y52666D01*
X107346Y52136D01*
X107876Y51783D01*
X108500Y51659D01*
X109124Y51783D01*
X109653Y52136D01*
X110007Y52666D01*
X110131Y53290D01*
X110007Y53914D01*
X109653Y54444D01*
X109124Y54797D01*
X108500Y54921D01*
X108083Y54838D01*
X107908Y54996D01*
X107722Y55250D01*
X107831Y55800D01*
X107707Y56424D01*
X107353Y56954D01*
X106824Y57307D01*
X106200Y57431D01*
D02*
G37*
G36*
X103900Y54361D02*
X103276Y54237D01*
X102746Y53883D01*
X102393Y53354D01*
X102269Y52730D01*
X102393Y52106D01*
X102746Y51577D01*
X103276Y51223D01*
X103900Y51099D01*
X104524Y51223D01*
X105053Y51577D01*
X105407Y52106D01*
X105531Y52730D01*
X105407Y53354D01*
X105053Y53883D01*
X104524Y54237D01*
X103900Y54361D01*
D02*
G37*
G36*
X179673Y53301D02*
X179244Y53215D01*
X178880Y52972D01*
X178637Y52608D01*
X178551Y52179D01*
X178637Y51750D01*
X178880Y51386D01*
X179244Y51143D01*
X179673Y51057D01*
X180102Y51143D01*
X180466Y51386D01*
X180709Y51750D01*
X180794Y52179D01*
X180709Y52608D01*
X180466Y52972D01*
X180102Y53215D01*
X179673Y53301D01*
D02*
G37*
G36*
X322600Y51922D02*
X322171Y51836D01*
X321807Y51593D01*
X321564Y51229D01*
X321479Y50800D01*
X321564Y50371D01*
X321807Y50007D01*
X322171Y49764D01*
X322600Y49678D01*
X323029Y49764D01*
X323393Y50007D01*
X323636Y50371D01*
X323722Y50800D01*
X323636Y51229D01*
X323393Y51593D01*
X323029Y51836D01*
X322600Y51922D01*
D02*
G37*
G36*
X22600D02*
X22171Y51836D01*
X21807Y51593D01*
X21564Y51229D01*
X21478Y50800D01*
X21564Y50371D01*
X21807Y50007D01*
X22171Y49764D01*
X22600Y49678D01*
X23029Y49764D01*
X23393Y50007D01*
X23636Y50371D01*
X23721Y50800D01*
X23636Y51229D01*
X23393Y51593D01*
X23029Y51836D01*
X22600Y51922D01*
D02*
G37*
G36*
X-7400D02*
X-7829Y51836D01*
X-8193Y51593D01*
X-8436Y51229D01*
X-8522Y50800D01*
X-8436Y50371D01*
X-8193Y50007D01*
X-7829Y49764D01*
X-7400Y49678D01*
X-6971Y49764D01*
X-6607Y50007D01*
X-6364Y50371D01*
X-6278Y50800D01*
X-6364Y51229D01*
X-6607Y51593D01*
X-6971Y51836D01*
X-7400Y51922D01*
D02*
G37*
G36*
X110800Y51541D02*
X110176Y51417D01*
X109646Y51064D01*
X109293Y50534D01*
X109169Y49910D01*
X109293Y49286D01*
X109646Y48757D01*
X110176Y48403D01*
X110800Y48279D01*
X111424Y48403D01*
X111953Y48757D01*
X112307Y49286D01*
X112431Y49910D01*
X112307Y50534D01*
X111953Y51064D01*
X111424Y51417D01*
X110800Y51541D01*
D02*
G37*
G36*
X101490Y51391D02*
X100866Y51267D01*
X100337Y50914D01*
X99983Y50384D01*
X99859Y49760D01*
X99983Y49136D01*
X100337Y48607D01*
X100866Y48253D01*
X101490Y48129D01*
X102114Y48253D01*
X102644Y48607D01*
X102997Y49136D01*
X103121Y49760D01*
X102997Y50384D01*
X102644Y50914D01*
X102114Y51267D01*
X101490Y51391D01*
D02*
G37*
G36*
X273000Y53334D02*
X272215Y53230D01*
X271483Y52927D01*
X270855Y52445D01*
X270373Y51817D01*
X270070Y51085D01*
X269966Y50300D01*
X270070Y49515D01*
X270373Y48783D01*
X270855Y48155D01*
X271483Y47673D01*
X272215Y47370D01*
X273000Y47266D01*
X273785Y47370D01*
X274517Y47673D01*
X275145Y48155D01*
X275627Y48783D01*
X275931Y49515D01*
X276034Y50300D01*
X275931Y51085D01*
X275627Y51817D01*
X275145Y52445D01*
X274517Y52927D01*
X273785Y53230D01*
X273000Y53334D01*
D02*
G37*
G36*
X256794D02*
X256008Y53230D01*
X255277Y52927D01*
X254648Y52445D01*
X254166Y51817D01*
X253863Y51085D01*
X253760Y50300D01*
X253863Y49515D01*
X254166Y48783D01*
X254648Y48155D01*
X255277Y47673D01*
X256008Y47370D01*
X256794Y47266D01*
X257579Y47370D01*
X258311Y47673D01*
X258939Y48155D01*
X259421Y48783D01*
X259724Y49515D01*
X259827Y50300D01*
X259724Y51085D01*
X259421Y51817D01*
X258939Y52445D01*
X258311Y52927D01*
X257579Y53230D01*
X256794Y53334D01*
D02*
G37*
G36*
X241545D02*
X240760Y53230D01*
X240028Y52927D01*
X239400Y52445D01*
X238918Y51817D01*
X238615Y51085D01*
X238511Y50300D01*
X238615Y49515D01*
X238918Y48783D01*
X239400Y48155D01*
X240028Y47673D01*
X240760Y47370D01*
X241545Y47266D01*
X242330Y47370D01*
X243062Y47673D01*
X243690Y48155D01*
X244173Y48783D01*
X244476Y49515D01*
X244579Y50300D01*
X244476Y51085D01*
X244173Y51817D01*
X243690Y52445D01*
X243062Y52927D01*
X242330Y53230D01*
X241545Y53334D01*
D02*
G37*
G36*
X211048D02*
X210263Y53230D01*
X209531Y52927D01*
X208903Y52445D01*
X208421Y51817D01*
X208118Y51085D01*
X208015Y50300D01*
X208118Y49515D01*
X208421Y48783D01*
X208903Y48155D01*
X209531Y47673D01*
X210263Y47370D01*
X211048Y47266D01*
X211834Y47370D01*
X212565Y47673D01*
X213194Y48155D01*
X213676Y48783D01*
X213979Y49515D01*
X214082Y50300D01*
X213979Y51085D01*
X213676Y51817D01*
X213194Y52445D01*
X212565Y52927D01*
X211834Y53230D01*
X211048Y53334D01*
D02*
G37*
G36*
X195800D02*
X195015Y53230D01*
X194283Y52927D01*
X193655Y52445D01*
X193173Y51817D01*
X192870Y51085D01*
X192766Y50300D01*
X192870Y49515D01*
X193173Y48783D01*
X193655Y48155D01*
X194283Y47673D01*
X195015Y47370D01*
X195800Y47266D01*
X196585Y47370D01*
X197317Y47673D01*
X197945Y48155D01*
X198427Y48783D01*
X198730Y49515D01*
X198834Y50300D01*
X198730Y51085D01*
X198427Y51817D01*
X197945Y52445D01*
X197317Y52927D01*
X196585Y53230D01*
X195800Y53334D01*
D02*
G37*
G36*
X78861Y56655D02*
X78237Y56531D01*
X77707Y56178D01*
X77354Y55648D01*
X77229Y55024D01*
X77354Y54400D01*
X77707Y53870D01*
X78094Y53612D01*
X78115Y53545D01*
Y53123D01*
X78094Y53056D01*
X77707Y52798D01*
X77354Y52268D01*
X77229Y51644D01*
X77354Y51020D01*
X77707Y50491D01*
X78208Y50156D01*
X78246Y49857D01*
X78225Y49630D01*
X77739Y49305D01*
X77385Y48775D01*
X77261Y48151D01*
X77385Y47527D01*
X77739Y46997D01*
X78268Y46644D01*
X78892Y46520D01*
X79517Y46644D01*
X80046Y46997D01*
X80400Y47527D01*
X80524Y48151D01*
X80400Y48775D01*
X80046Y49305D01*
X79545Y49639D01*
X79507Y49938D01*
X79528Y50166D01*
X80014Y50491D01*
X80368Y51020D01*
X80492Y51644D01*
X80368Y52268D01*
X80014Y52798D01*
X79628Y53056D01*
X79607Y53123D01*
Y53545D01*
X79628Y53612D01*
X80014Y53870D01*
X80368Y54400D01*
X80492Y55024D01*
X80368Y55648D01*
X80014Y56178D01*
X79485Y56531D01*
X78861Y56655D01*
D02*
G37*
G36*
X158042Y48785D02*
X157418Y48661D01*
X156888Y48307D01*
X156535Y47778D01*
X156411Y47154D01*
X156535Y46529D01*
X156888Y46000D01*
X157418Y45646D01*
X158042Y45522D01*
X158666Y45646D01*
X159195Y46000D01*
X159549Y46529D01*
X159673Y47154D01*
X159549Y47778D01*
X159195Y48307D01*
X158666Y48661D01*
X158042Y48785D01*
D02*
G37*
G36*
X150160Y43991D02*
X149536Y43867D01*
X149006Y43514D01*
X148653Y42984D01*
X148529Y42360D01*
X148653Y41736D01*
X149006Y41206D01*
X149536Y40853D01*
X150160Y40729D01*
X150784Y40853D01*
X151313Y41206D01*
X151667Y41736D01*
X151791Y42360D01*
X151667Y42984D01*
X151313Y43514D01*
X150784Y43867D01*
X150160Y43991D01*
D02*
G37*
G36*
X78815Y43325D02*
X78190Y43201D01*
X77661Y42847D01*
X77308Y42318D01*
X77183Y41694D01*
X77308Y41070D01*
X77661Y40540D01*
X78190Y40187D01*
X78815Y40062D01*
X79439Y40187D01*
X79968Y40540D01*
X80322Y41070D01*
X80446Y41694D01*
X80322Y42318D01*
X79968Y42847D01*
X79439Y43201D01*
X78815Y43325D01*
D02*
G37*
G36*
X405100Y36922D02*
X404671Y36836D01*
X404307Y36593D01*
X404064Y36229D01*
X403978Y35800D01*
X404064Y35371D01*
X404307Y35007D01*
X404671Y34764D01*
X405100Y34678D01*
X405529Y34764D01*
X405893Y35007D01*
X406136Y35371D01*
X406221Y35800D01*
X406136Y36229D01*
X405893Y36593D01*
X405529Y36836D01*
X405100Y36922D01*
D02*
G37*
G36*
X330100D02*
X329671Y36836D01*
X329307Y36593D01*
X329064Y36229D01*
X328978Y35800D01*
X329064Y35371D01*
X329307Y35007D01*
X329671Y34764D01*
X330100Y34678D01*
X330529Y34764D01*
X330893Y35007D01*
X331136Y35371D01*
X331222Y35800D01*
X331136Y36229D01*
X330893Y36593D01*
X330529Y36836D01*
X330100Y36922D01*
D02*
G37*
G36*
X315100D02*
X314671Y36836D01*
X314307Y36593D01*
X314064Y36229D01*
X313979Y35800D01*
X314064Y35371D01*
X314307Y35007D01*
X314671Y34764D01*
X315100Y34678D01*
X315529Y34764D01*
X315893Y35007D01*
X316136Y35371D01*
X316221Y35800D01*
X316136Y36229D01*
X315893Y36593D01*
X315529Y36836D01*
X315100Y36922D01*
D02*
G37*
G36*
X150100D02*
X149671Y36836D01*
X149307Y36593D01*
X149064Y36229D01*
X148978Y35800D01*
X149064Y35371D01*
X149307Y35007D01*
X149671Y34764D01*
X150100Y34678D01*
X150529Y34764D01*
X150893Y35007D01*
X151136Y35371D01*
X151222Y35800D01*
X151136Y36229D01*
X150893Y36593D01*
X150529Y36836D01*
X150100Y36922D01*
D02*
G37*
G36*
X60100D02*
X59671Y36836D01*
X59307Y36593D01*
X59064Y36229D01*
X58978Y35800D01*
X59064Y35371D01*
X59307Y35007D01*
X59671Y34764D01*
X60100Y34678D01*
X60529Y34764D01*
X60893Y35007D01*
X61136Y35371D01*
X61222Y35800D01*
X61136Y36229D01*
X60893Y36593D01*
X60529Y36836D01*
X60100Y36922D01*
D02*
G37*
G36*
X45100D02*
X44671Y36836D01*
X44307Y36593D01*
X44064Y36229D01*
X43978Y35800D01*
X44064Y35371D01*
X44307Y35007D01*
X44671Y34764D01*
X45100Y34678D01*
X45529Y34764D01*
X45893Y35007D01*
X46136Y35371D01*
X46222Y35800D01*
X46136Y36229D01*
X45893Y36593D01*
X45529Y36836D01*
X45100Y36922D01*
D02*
G37*
G36*
X100D02*
X-329Y36836D01*
X-693Y36593D01*
X-936Y36229D01*
X-1022Y35800D01*
X-936Y35371D01*
X-693Y35007D01*
X-329Y34764D01*
X100Y34678D01*
X529Y34764D01*
X893Y35007D01*
X1136Y35371D01*
X1222Y35800D01*
X1136Y36229D01*
X893Y36593D01*
X529Y36836D01*
X100Y36922D01*
D02*
G37*
G36*
X211300Y35634D02*
X210515Y35530D01*
X209783Y35227D01*
X209155Y34745D01*
X208673Y34117D01*
X208369Y33385D01*
X208266Y32600D01*
X208369Y31815D01*
X208673Y31083D01*
X209155Y30455D01*
X209783Y29973D01*
X210515Y29669D01*
X211300Y29566D01*
X212085Y29669D01*
X212817Y29973D01*
X213445Y30455D01*
X213927Y31083D01*
X214230Y31815D01*
X214334Y32600D01*
X214230Y33385D01*
X213927Y34117D01*
X213445Y34745D01*
X212817Y35227D01*
X212085Y35530D01*
X211300Y35634D01*
D02*
G37*
G36*
X195700D02*
X194915Y35530D01*
X194183Y35227D01*
X193555Y34745D01*
X193073Y34117D01*
X192770Y33385D01*
X192666Y32600D01*
X192770Y31815D01*
X193073Y31083D01*
X193555Y30455D01*
X194183Y29973D01*
X194915Y29669D01*
X195700Y29566D01*
X196485Y29669D01*
X197217Y29973D01*
X197845Y30455D01*
X198327Y31083D01*
X198630Y31815D01*
X198734Y32600D01*
X198630Y33385D01*
X198327Y34117D01*
X197845Y34745D01*
X197217Y35227D01*
X196485Y35530D01*
X195700Y35634D01*
D02*
G37*
G36*
X287800Y33734D02*
X287015Y33630D01*
X286283Y33327D01*
X285655Y32845D01*
X285173Y32217D01*
X284870Y31485D01*
X284766Y30700D01*
X284870Y29915D01*
X285173Y29183D01*
X285655Y28555D01*
X286283Y28073D01*
X287015Y27770D01*
X287800Y27666D01*
X288585Y27770D01*
X289317Y28073D01*
X289945Y28555D01*
X290427Y29183D01*
X290731Y29915D01*
X290834Y30700D01*
X290731Y31485D01*
X290427Y32217D01*
X289945Y32845D01*
X289317Y33327D01*
X288585Y33630D01*
X287800Y33734D01*
D02*
G37*
G36*
X277800D02*
X277015Y33630D01*
X276283Y33327D01*
X275655Y32845D01*
X275173Y32217D01*
X274869Y31485D01*
X274766Y30700D01*
X274869Y29915D01*
X275173Y29183D01*
X275655Y28555D01*
X276283Y28073D01*
X277015Y27770D01*
X277800Y27666D01*
X278585Y27770D01*
X279317Y28073D01*
X279945Y28555D01*
X280427Y29183D01*
X280731Y29915D01*
X280834Y30700D01*
X280731Y31485D01*
X280427Y32217D01*
X279945Y32845D01*
X279317Y33327D01*
X278585Y33630D01*
X277800Y33734D01*
D02*
G37*
G36*
X267800D02*
X267015Y33630D01*
X266283Y33327D01*
X265655Y32845D01*
X265173Y32217D01*
X264869Y31485D01*
X264766Y30700D01*
X264869Y29915D01*
X265173Y29183D01*
X265655Y28555D01*
X266283Y28073D01*
X267015Y27770D01*
X267800Y27666D01*
X268585Y27770D01*
X269317Y28073D01*
X269945Y28555D01*
X270427Y29183D01*
X270730Y29915D01*
X270834Y30700D01*
X270730Y31485D01*
X270427Y32217D01*
X269945Y32845D01*
X269317Y33327D01*
X268585Y33630D01*
X267800Y33734D01*
D02*
G37*
G36*
X24800Y28661D02*
X24176Y28537D01*
X23647Y28183D01*
X23293Y27654D01*
X23169Y27030D01*
X23293Y26406D01*
X23647Y25877D01*
X24176Y25523D01*
X24800Y25399D01*
X25424Y25523D01*
X25954Y25877D01*
X26307Y26406D01*
X26431Y27030D01*
X26307Y27654D01*
X25954Y28183D01*
X25424Y28537D01*
X24800Y28661D01*
D02*
G37*
G36*
X94060Y27521D02*
X93436Y27397D01*
X92906Y27044D01*
X92553Y26514D01*
X92429Y25890D01*
X92553Y25266D01*
X92906Y24736D01*
X93436Y24383D01*
X94060Y24259D01*
X94684Y24383D01*
X95214Y24736D01*
X95567Y25266D01*
X95691Y25890D01*
X95567Y26514D01*
X95214Y27044D01*
X94684Y27397D01*
X94060Y27521D01*
D02*
G37*
G36*
X397600Y21922D02*
X397171Y21836D01*
X396807Y21593D01*
X396564Y21229D01*
X396479Y20800D01*
X396564Y20371D01*
X396807Y20007D01*
X397171Y19764D01*
X397600Y19679D01*
X398029Y19764D01*
X398393Y20007D01*
X398636Y20371D01*
X398722Y20800D01*
X398636Y21229D01*
X398393Y21593D01*
X398029Y21836D01*
X397600Y21922D01*
D02*
G37*
G36*
X382600D02*
X382171Y21836D01*
X381807Y21593D01*
X381564Y21229D01*
X381479Y20800D01*
X381564Y20371D01*
X381807Y20007D01*
X382171Y19764D01*
X382600Y19679D01*
X383029Y19764D01*
X383393Y20007D01*
X383636Y20371D01*
X383721Y20800D01*
X383636Y21229D01*
X383393Y21593D01*
X383029Y21836D01*
X382600Y21922D01*
D02*
G37*
G36*
X367600D02*
X367171Y21836D01*
X366807Y21593D01*
X366564Y21229D01*
X366478Y20800D01*
X366564Y20371D01*
X366807Y20007D01*
X367171Y19764D01*
X367600Y19679D01*
X368029Y19764D01*
X368393Y20007D01*
X368636Y20371D01*
X368722Y20800D01*
X368636Y21229D01*
X368393Y21593D01*
X368029Y21836D01*
X367600Y21922D01*
D02*
G37*
G36*
X352600D02*
X352171Y21836D01*
X351807Y21593D01*
X351564Y21229D01*
X351479Y20800D01*
X351564Y20371D01*
X351807Y20007D01*
X352171Y19764D01*
X352600Y19679D01*
X353029Y19764D01*
X353393Y20007D01*
X353636Y20371D01*
X353721Y20800D01*
X353636Y21229D01*
X353393Y21593D01*
X353029Y21836D01*
X352600Y21922D01*
D02*
G37*
G36*
X337600D02*
X337171Y21836D01*
X336807Y21593D01*
X336564Y21229D01*
X336478Y20800D01*
X336564Y20371D01*
X336807Y20007D01*
X337171Y19764D01*
X337600Y19679D01*
X338029Y19764D01*
X338393Y20007D01*
X338636Y20371D01*
X338721Y20800D01*
X338636Y21229D01*
X338393Y21593D01*
X338029Y21836D01*
X337600Y21922D01*
D02*
G37*
G36*
X322600D02*
X322171Y21836D01*
X321807Y21593D01*
X321564Y21229D01*
X321479Y20800D01*
X321564Y20371D01*
X321807Y20007D01*
X322171Y19764D01*
X322600Y19679D01*
X323029Y19764D01*
X323393Y20007D01*
X323636Y20371D01*
X323722Y20800D01*
X323636Y21229D01*
X323393Y21593D01*
X323029Y21836D01*
X322600Y21922D01*
D02*
G37*
G36*
X307600D02*
X307171Y21836D01*
X306807Y21593D01*
X306564Y21229D01*
X306479Y20800D01*
X306564Y20371D01*
X306807Y20007D01*
X307171Y19764D01*
X307600Y19679D01*
X308029Y19764D01*
X308393Y20007D01*
X308636Y20371D01*
X308721Y20800D01*
X308636Y21229D01*
X308393Y21593D01*
X308029Y21836D01*
X307600Y21922D01*
D02*
G37*
G36*
X292600D02*
X292171Y21836D01*
X291807Y21593D01*
X291564Y21229D01*
X291478Y20800D01*
X291564Y20371D01*
X291807Y20007D01*
X292171Y19764D01*
X292600Y19679D01*
X293029Y19764D01*
X293393Y20007D01*
X293636Y20371D01*
X293722Y20800D01*
X293636Y21229D01*
X293393Y21593D01*
X293029Y21836D01*
X292600Y21922D01*
D02*
G37*
G36*
X277600D02*
X277171Y21836D01*
X276807Y21593D01*
X276564Y21229D01*
X276479Y20800D01*
X276564Y20371D01*
X276807Y20007D01*
X277171Y19764D01*
X277600Y19679D01*
X278029Y19764D01*
X278393Y20007D01*
X278636Y20371D01*
X278721Y20800D01*
X278636Y21229D01*
X278393Y21593D01*
X278029Y21836D01*
X277600Y21922D01*
D02*
G37*
G36*
X262600D02*
X262171Y21836D01*
X261807Y21593D01*
X261564Y21229D01*
X261478Y20800D01*
X261564Y20371D01*
X261807Y20007D01*
X262171Y19764D01*
X262600Y19679D01*
X263029Y19764D01*
X263393Y20007D01*
X263636Y20371D01*
X263721Y20800D01*
X263636Y21229D01*
X263393Y21593D01*
X263029Y21836D01*
X262600Y21922D01*
D02*
G37*
G36*
X247600D02*
X247171Y21836D01*
X246807Y21593D01*
X246564Y21229D01*
X246479Y20800D01*
X246564Y20371D01*
X246807Y20007D01*
X247171Y19764D01*
X247600Y19679D01*
X248029Y19764D01*
X248393Y20007D01*
X248636Y20371D01*
X248722Y20800D01*
X248636Y21229D01*
X248393Y21593D01*
X248029Y21836D01*
X247600Y21922D01*
D02*
G37*
G36*
X217600D02*
X217171Y21836D01*
X216807Y21593D01*
X216564Y21229D01*
X216478Y20800D01*
X216564Y20371D01*
X216807Y20007D01*
X217171Y19764D01*
X217600Y19679D01*
X218029Y19764D01*
X218393Y20007D01*
X218636Y20371D01*
X218722Y20800D01*
X218636Y21229D01*
X218393Y21593D01*
X218029Y21836D01*
X217600Y21922D01*
D02*
G37*
G36*
X142600D02*
X142171Y21836D01*
X141807Y21593D01*
X141564Y21229D01*
X141478Y20800D01*
X141564Y20371D01*
X141807Y20007D01*
X142171Y19764D01*
X142600Y19679D01*
X143029Y19764D01*
X143393Y20007D01*
X143636Y20371D01*
X143722Y20800D01*
X143636Y21229D01*
X143393Y21593D01*
X143029Y21836D01*
X142600Y21922D01*
D02*
G37*
G36*
X127600D02*
X127171Y21836D01*
X126807Y21593D01*
X126564Y21229D01*
X126478Y20800D01*
X126564Y20371D01*
X126807Y20007D01*
X127171Y19764D01*
X127600Y19679D01*
X128029Y19764D01*
X128393Y20007D01*
X128636Y20371D01*
X128722Y20800D01*
X128636Y21229D01*
X128393Y21593D01*
X128029Y21836D01*
X127600Y21922D01*
D02*
G37*
G36*
X67600D02*
X67171Y21836D01*
X66807Y21593D01*
X66564Y21229D01*
X66478Y20800D01*
X66564Y20371D01*
X66807Y20007D01*
X67171Y19764D01*
X67600Y19679D01*
X68029Y19764D01*
X68393Y20007D01*
X68636Y20371D01*
X68722Y20800D01*
X68636Y21229D01*
X68393Y21593D01*
X68029Y21836D01*
X67600Y21922D01*
D02*
G37*
G36*
X22600D02*
X22171Y21836D01*
X21807Y21593D01*
X21564Y21229D01*
X21478Y20800D01*
X21564Y20371D01*
X21807Y20007D01*
X22171Y19764D01*
X22600Y19679D01*
X23029Y19764D01*
X23393Y20007D01*
X23636Y20371D01*
X23721Y20800D01*
X23636Y21229D01*
X23393Y21593D01*
X23029Y21836D01*
X22600Y21922D01*
D02*
G37*
G36*
X-7400D02*
X-7829Y21836D01*
X-8193Y21593D01*
X-8436Y21229D01*
X-8522Y20800D01*
X-8436Y20371D01*
X-8193Y20007D01*
X-7829Y19764D01*
X-7400Y19679D01*
X-6971Y19764D01*
X-6607Y20007D01*
X-6364Y20371D01*
X-6278Y20800D01*
X-6364Y21229D01*
X-6607Y21593D01*
X-6971Y21836D01*
X-7400Y21922D01*
D02*
G37*
G36*
X227200Y23716D02*
X226314Y23540D01*
X225562Y23038D01*
X225060Y22286D01*
X224884Y21400D01*
X225060Y20514D01*
X225562Y19762D01*
X226314Y19260D01*
X227200Y19084D01*
X228086Y19260D01*
X228838Y19762D01*
X229340Y20514D01*
X229516Y21400D01*
X229340Y22286D01*
X228838Y23038D01*
X228086Y23540D01*
X227200Y23716D01*
D02*
G37*
G36*
X195780Y22334D02*
X194995Y22230D01*
X194263Y21927D01*
X193635Y21445D01*
X193153Y20817D01*
X192850Y20085D01*
X192746Y19300D01*
X192850Y18515D01*
X193153Y17783D01*
X193635Y17155D01*
X194263Y16673D01*
X194995Y16370D01*
X195780Y16266D01*
X196565Y16370D01*
X197297Y16673D01*
X197925Y17155D01*
X198407Y17783D01*
X198710Y18515D01*
X198814Y19300D01*
X198710Y20085D01*
X198407Y20817D01*
X197925Y21445D01*
X197297Y21927D01*
X196565Y22230D01*
X195780Y22334D01*
D02*
G37*
G36*
X181910Y18033D02*
X181052Y17862D01*
X180324Y17376D01*
X179838Y16648D01*
X179667Y15790D01*
X179838Y14932D01*
X180324Y14204D01*
X181052Y13718D01*
X181910Y13547D01*
X182768Y13718D01*
X183496Y14204D01*
X183982Y14932D01*
X184153Y15790D01*
X183982Y16648D01*
X183496Y17376D01*
X182768Y17862D01*
X181910Y18033D01*
D02*
G37*
G36*
X70380Y15181D02*
X69756Y15057D01*
X69226Y14704D01*
X68873Y14174D01*
X68749Y13550D01*
X68873Y12926D01*
X69226Y12397D01*
X69756Y12043D01*
X70380Y11919D01*
X71004Y12043D01*
X71534Y12397D01*
X71887Y12926D01*
X72011Y13550D01*
X71887Y14174D01*
X71534Y14704D01*
X71004Y15057D01*
X70380Y15181D01*
D02*
G37*
G36*
X237200Y14196D02*
X236476Y14100D01*
X235802Y13821D01*
X235223Y13377D01*
X234779Y12798D01*
X234500Y12124D01*
X234404Y11400D01*
X234500Y10676D01*
X234779Y10002D01*
X235223Y9423D01*
X235802Y8979D01*
X236476Y8700D01*
X237200Y8604D01*
X237924Y8700D01*
X238598Y8979D01*
X239177Y9423D01*
X239621Y10002D01*
X239900Y10676D01*
X239996Y11400D01*
X239900Y12124D01*
X239621Y12798D01*
X239177Y13377D01*
X238598Y13821D01*
X237924Y14100D01*
X237200Y14196D01*
D02*
G37*
G36*
X227200D02*
X226477Y14100D01*
X225802Y13821D01*
X225223Y13377D01*
X224779Y12798D01*
X224500Y12124D01*
X224404Y11400D01*
X224500Y10676D01*
X224779Y10002D01*
X225223Y9423D01*
X225802Y8979D01*
X226477Y8700D01*
X227200Y8604D01*
X227923Y8700D01*
X228598Y8979D01*
X229177Y9423D01*
X229621Y10002D01*
X229900Y10676D01*
X229996Y11400D01*
X229900Y12124D01*
X229621Y12798D01*
X229177Y13377D01*
X228598Y13821D01*
X227923Y14100D01*
X227200Y14196D01*
D02*
G37*
G36*
X405100Y6922D02*
X404671Y6836D01*
X404307Y6593D01*
X404064Y6229D01*
X403978Y5800D01*
X404064Y5371D01*
X404307Y5007D01*
X404671Y4764D01*
X405100Y4679D01*
X405529Y4764D01*
X405893Y5007D01*
X406136Y5371D01*
X406221Y5800D01*
X406136Y6229D01*
X405893Y6593D01*
X405529Y6836D01*
X405100Y6922D01*
D02*
G37*
G36*
X375100D02*
X374671Y6836D01*
X374307Y6593D01*
X374064Y6229D01*
X373978Y5800D01*
X374064Y5371D01*
X374307Y5007D01*
X374671Y4764D01*
X375100Y4679D01*
X375529Y4764D01*
X375893Y5007D01*
X376136Y5371D01*
X376221Y5800D01*
X376136Y6229D01*
X375893Y6593D01*
X375529Y6836D01*
X375100Y6922D01*
D02*
G37*
G36*
X360100D02*
X359671Y6836D01*
X359307Y6593D01*
X359064Y6229D01*
X358979Y5800D01*
X359064Y5371D01*
X359307Y5007D01*
X359671Y4764D01*
X360100Y4679D01*
X360529Y4764D01*
X360893Y5007D01*
X361136Y5371D01*
X361222Y5800D01*
X361136Y6229D01*
X360893Y6593D01*
X360529Y6836D01*
X360100Y6922D01*
D02*
G37*
G36*
X345100D02*
X344671Y6836D01*
X344307Y6593D01*
X344064Y6229D01*
X343979Y5800D01*
X344064Y5371D01*
X344307Y5007D01*
X344671Y4764D01*
X345100Y4679D01*
X345529Y4764D01*
X345893Y5007D01*
X346136Y5371D01*
X346221Y5800D01*
X346136Y6229D01*
X345893Y6593D01*
X345529Y6836D01*
X345100Y6922D01*
D02*
G37*
G36*
X330100D02*
X329671Y6836D01*
X329307Y6593D01*
X329064Y6229D01*
X328978Y5800D01*
X329064Y5371D01*
X329307Y5007D01*
X329671Y4764D01*
X330100Y4679D01*
X330529Y4764D01*
X330893Y5007D01*
X331136Y5371D01*
X331222Y5800D01*
X331136Y6229D01*
X330893Y6593D01*
X330529Y6836D01*
X330100Y6922D01*
D02*
G37*
G36*
X315100D02*
X314671Y6836D01*
X314307Y6593D01*
X314064Y6229D01*
X313979Y5800D01*
X314064Y5371D01*
X314307Y5007D01*
X314671Y4764D01*
X315100Y4679D01*
X315529Y4764D01*
X315893Y5007D01*
X316136Y5371D01*
X316221Y5800D01*
X316136Y6229D01*
X315893Y6593D01*
X315529Y6836D01*
X315100Y6922D01*
D02*
G37*
G36*
X300100D02*
X299671Y6836D01*
X299307Y6593D01*
X299064Y6229D01*
X298978Y5800D01*
X299064Y5371D01*
X299307Y5007D01*
X299671Y4764D01*
X300100Y4679D01*
X300529Y4764D01*
X300893Y5007D01*
X301136Y5371D01*
X301221Y5800D01*
X301136Y6229D01*
X300893Y6593D01*
X300529Y6836D01*
X300100Y6922D01*
D02*
G37*
G36*
X285100D02*
X284671Y6836D01*
X284307Y6593D01*
X284064Y6229D01*
X283979Y5800D01*
X284064Y5371D01*
X284307Y5007D01*
X284671Y4764D01*
X285100Y4679D01*
X285529Y4764D01*
X285893Y5007D01*
X286136Y5371D01*
X286222Y5800D01*
X286136Y6229D01*
X285893Y6593D01*
X285529Y6836D01*
X285100Y6922D01*
D02*
G37*
G36*
X270100D02*
X269671Y6836D01*
X269307Y6593D01*
X269064Y6229D01*
X268979Y5800D01*
X269064Y5371D01*
X269307Y5007D01*
X269671Y4764D01*
X270100Y4679D01*
X270529Y4764D01*
X270893Y5007D01*
X271136Y5371D01*
X271221Y5800D01*
X271136Y6229D01*
X270893Y6593D01*
X270529Y6836D01*
X270100Y6922D01*
D02*
G37*
G36*
X255100D02*
X254671Y6836D01*
X254307Y6593D01*
X254064Y6229D01*
X253978Y5800D01*
X254064Y5371D01*
X254307Y5007D01*
X254671Y4764D01*
X255100Y4679D01*
X255529Y4764D01*
X255893Y5007D01*
X256136Y5371D01*
X256222Y5800D01*
X256136Y6229D01*
X255893Y6593D01*
X255529Y6836D01*
X255100Y6922D01*
D02*
G37*
G36*
X210100D02*
X209671Y6836D01*
X209307Y6593D01*
X209064Y6229D01*
X208979Y5800D01*
X209064Y5371D01*
X209307Y5007D01*
X209671Y4764D01*
X210100Y4679D01*
X210529Y4764D01*
X210893Y5007D01*
X211136Y5371D01*
X211222Y5800D01*
X211136Y6229D01*
X210893Y6593D01*
X210529Y6836D01*
X210100Y6922D01*
D02*
G37*
G36*
X150100D02*
X149671Y6836D01*
X149307Y6593D01*
X149064Y6229D01*
X148978Y5800D01*
X149064Y5371D01*
X149307Y5007D01*
X149671Y4764D01*
X150100Y4679D01*
X150529Y4764D01*
X150893Y5007D01*
X151136Y5371D01*
X151222Y5800D01*
X151136Y6229D01*
X150893Y6593D01*
X150529Y6836D01*
X150100Y6922D01*
D02*
G37*
G36*
X135100D02*
X134671Y6836D01*
X134307Y6593D01*
X134064Y6229D01*
X133978Y5800D01*
X134064Y5371D01*
X134307Y5007D01*
X134671Y4764D01*
X135100Y4679D01*
X135529Y4764D01*
X135893Y5007D01*
X136136Y5371D01*
X136222Y5800D01*
X136136Y6229D01*
X135893Y6593D01*
X135529Y6836D01*
X135100Y6922D01*
D02*
G37*
G36*
X120100D02*
X119671Y6836D01*
X119307Y6593D01*
X119064Y6229D01*
X118978Y5800D01*
X119064Y5371D01*
X119307Y5007D01*
X119671Y4764D01*
X120100Y4679D01*
X120529Y4764D01*
X120893Y5007D01*
X121136Y5371D01*
X121222Y5800D01*
X121136Y6229D01*
X120893Y6593D01*
X120529Y6836D01*
X120100Y6922D01*
D02*
G37*
G36*
X75100D02*
X74671Y6836D01*
X74307Y6593D01*
X74064Y6229D01*
X73978Y5800D01*
X74064Y5371D01*
X74307Y5007D01*
X74671Y4764D01*
X75100Y4679D01*
X75529Y4764D01*
X75893Y5007D01*
X76136Y5371D01*
X76222Y5800D01*
X76136Y6229D01*
X75893Y6593D01*
X75529Y6836D01*
X75100Y6922D01*
D02*
G37*
G36*
X30100D02*
X29671Y6836D01*
X29307Y6593D01*
X29064Y6229D01*
X28978Y5800D01*
X29064Y5371D01*
X29307Y5007D01*
X29671Y4764D01*
X30100Y4679D01*
X30529Y4764D01*
X30893Y5007D01*
X31136Y5371D01*
X31222Y5800D01*
X31136Y6229D01*
X30893Y6593D01*
X30529Y6836D01*
X30100Y6922D01*
D02*
G37*
G36*
X195700Y9034D02*
X194915Y8930D01*
X194183Y8627D01*
X193555Y8145D01*
X193073Y7517D01*
X192770Y6785D01*
X192666Y6000D01*
X192770Y5215D01*
X193073Y4483D01*
X193555Y3855D01*
X194183Y3373D01*
X194915Y3070D01*
X195700Y2966D01*
X196485Y3070D01*
X197217Y3373D01*
X197845Y3855D01*
X198327Y4483D01*
X198630Y5215D01*
X198734Y6000D01*
X198630Y6785D01*
X198327Y7517D01*
X197845Y8145D01*
X197217Y8627D01*
X196485Y8930D01*
X195700Y9034D01*
D02*
G37*
G36*
X237200Y4196D02*
X236476Y4100D01*
X235802Y3821D01*
X235223Y3377D01*
X234779Y2798D01*
X234500Y2124D01*
X234404Y1400D01*
X234500Y676D01*
X234779Y2D01*
X235223Y-577D01*
X235802Y-1021D01*
X236476Y-1300D01*
X237200Y-1396D01*
X237924Y-1300D01*
X238598Y-1021D01*
X239177Y-577D01*
X239621Y2D01*
X239900Y676D01*
X239996Y1400D01*
X239900Y2124D01*
X239621Y2798D01*
X239177Y3377D01*
X238598Y3821D01*
X237924Y4100D01*
X237200Y4196D01*
D02*
G37*
G36*
X227200D02*
X226477Y4100D01*
X225802Y3821D01*
X225223Y3377D01*
X224779Y2798D01*
X224500Y2124D01*
X224404Y1400D01*
X224500Y676D01*
X224779Y2D01*
X225223Y-577D01*
X225802Y-1021D01*
X226477Y-1300D01*
X227200Y-1396D01*
X227923Y-1300D01*
X228598Y-1021D01*
X229177Y-577D01*
X229621Y2D01*
X229900Y676D01*
X229996Y1400D01*
X229900Y2124D01*
X229621Y2798D01*
X229177Y3377D01*
X228598Y3821D01*
X227923Y4100D01*
X227200Y4196D01*
D02*
G37*
G36*
X393701Y6939D02*
X392347Y6806D01*
X391045Y6411D01*
X389846Y5770D01*
X388794Y4907D01*
X387931Y3855D01*
X387290Y2655D01*
X386895Y1354D01*
X386762Y0D01*
X386895Y-1354D01*
X387290Y-2655D01*
X387931Y-3855D01*
X388794Y-4907D01*
X389846Y-5770D01*
X391045Y-6411D01*
X392347Y-6806D01*
X393701Y-6939D01*
X395055Y-6806D01*
X396356Y-6411D01*
X397556Y-5770D01*
X398607Y-4907D01*
X399470Y-3855D01*
X400111Y-2655D01*
X400506Y-1354D01*
X400640Y0D01*
X400506Y1354D01*
X400111Y2655D01*
X399470Y3855D01*
X398607Y4907D01*
X397556Y5770D01*
X396356Y6411D01*
X395055Y6806D01*
X393701Y6939D01*
D02*
G37*
G36*
X0D02*
X-1354Y6806D01*
X-2655Y6411D01*
X-3855Y5770D01*
X-4907Y4907D01*
X-5770Y3855D01*
X-6411Y2655D01*
X-6806Y1354D01*
X-6939Y0D01*
X-6806Y-1354D01*
X-6411Y-2655D01*
X-5770Y-3855D01*
X-4907Y-4907D01*
X-3855Y-5770D01*
X-2655Y-6411D01*
X-1354Y-6806D01*
X0Y-6939D01*
X1354Y-6806D01*
X2655Y-6411D01*
X3855Y-5770D01*
X4907Y-4907D01*
X5770Y-3855D01*
X6411Y-2655D01*
X6806Y-1354D01*
X6939Y0D01*
X6806Y1354D01*
X6411Y2655D01*
X5770Y3855D01*
X4907Y4907D01*
X3855Y5770D01*
X2655Y6411D01*
X1354Y6806D01*
X0Y6939D01*
D02*
G37*
G36*
X136020Y-6019D02*
X135396Y-6143D01*
X134866Y-6497D01*
X134513Y-7026D01*
X134389Y-7650D01*
X134513Y-8274D01*
X134866Y-8804D01*
X135396Y-9157D01*
X136020Y-9281D01*
X136644Y-9157D01*
X137173Y-8804D01*
X137527Y-8274D01*
X137651Y-7650D01*
X137527Y-7026D01*
X137173Y-6497D01*
X136644Y-6143D01*
X136020Y-6019D01*
D02*
G37*
G36*
X43400Y-3766D02*
X42615Y-3870D01*
X41883Y-4173D01*
X41255Y-4655D01*
X40773Y-5283D01*
X40470Y-6015D01*
X40366Y-6800D01*
X40470Y-7585D01*
X40773Y-8317D01*
X41255Y-8945D01*
X41883Y-9427D01*
X42615Y-9730D01*
X43400Y-9834D01*
X44185Y-9730D01*
X44917Y-9427D01*
X45545Y-8945D01*
X46027Y-8317D01*
X46330Y-7585D01*
X46434Y-6800D01*
X46330Y-6015D01*
X46027Y-5283D01*
X45545Y-4655D01*
X44917Y-4173D01*
X44185Y-3870D01*
X43400Y-3766D01*
D02*
G37*
G36*
X27700D02*
X26915Y-3870D01*
X26183Y-4173D01*
X25555Y-4655D01*
X25073Y-5283D01*
X24770Y-6015D01*
X24666Y-6800D01*
X24770Y-7585D01*
X25073Y-8317D01*
X25555Y-8945D01*
X26183Y-9427D01*
X26915Y-9730D01*
X27700Y-9834D01*
X28485Y-9730D01*
X29217Y-9427D01*
X29845Y-8945D01*
X30327Y-8317D01*
X30630Y-7585D01*
X30734Y-6800D01*
X30630Y-6015D01*
X30327Y-5283D01*
X29845Y-4655D01*
X29217Y-4173D01*
X28485Y-3870D01*
X27700Y-3766D01*
D02*
G37*
G36*
X382600Y-8078D02*
X382171Y-8164D01*
X381807Y-8407D01*
X381564Y-8771D01*
X381479Y-9200D01*
X381564Y-9629D01*
X381807Y-9993D01*
X382171Y-10236D01*
X382600Y-10322D01*
X383029Y-10236D01*
X383393Y-9993D01*
X383636Y-9629D01*
X383721Y-9200D01*
X383636Y-8771D01*
X383393Y-8407D01*
X383029Y-8164D01*
X382600Y-8078D01*
D02*
G37*
G36*
X367600D02*
X367171Y-8164D01*
X366807Y-8407D01*
X366564Y-8771D01*
X366478Y-9200D01*
X366564Y-9629D01*
X366807Y-9993D01*
X367171Y-10236D01*
X367600Y-10322D01*
X368029Y-10236D01*
X368393Y-9993D01*
X368636Y-9629D01*
X368722Y-9200D01*
X368636Y-8771D01*
X368393Y-8407D01*
X368029Y-8164D01*
X367600Y-8078D01*
D02*
G37*
G36*
X352600D02*
X352171Y-8164D01*
X351807Y-8407D01*
X351564Y-8771D01*
X351479Y-9200D01*
X351564Y-9629D01*
X351807Y-9993D01*
X352171Y-10236D01*
X352600Y-10322D01*
X353029Y-10236D01*
X353393Y-9993D01*
X353636Y-9629D01*
X353721Y-9200D01*
X353636Y-8771D01*
X353393Y-8407D01*
X353029Y-8164D01*
X352600Y-8078D01*
D02*
G37*
G36*
X337600D02*
X337171Y-8164D01*
X336807Y-8407D01*
X336564Y-8771D01*
X336478Y-9200D01*
X336564Y-9629D01*
X336807Y-9993D01*
X337171Y-10236D01*
X337600Y-10322D01*
X338029Y-10236D01*
X338393Y-9993D01*
X338636Y-9629D01*
X338721Y-9200D01*
X338636Y-8771D01*
X338393Y-8407D01*
X338029Y-8164D01*
X337600Y-8078D01*
D02*
G37*
G36*
X322600D02*
X322171Y-8164D01*
X321807Y-8407D01*
X321564Y-8771D01*
X321479Y-9200D01*
X321564Y-9629D01*
X321807Y-9993D01*
X322171Y-10236D01*
X322600Y-10322D01*
X323029Y-10236D01*
X323393Y-9993D01*
X323636Y-9629D01*
X323722Y-9200D01*
X323636Y-8771D01*
X323393Y-8407D01*
X323029Y-8164D01*
X322600Y-8078D01*
D02*
G37*
G36*
X307600D02*
X307171Y-8164D01*
X306807Y-8407D01*
X306564Y-8771D01*
X306479Y-9200D01*
X306564Y-9629D01*
X306807Y-9993D01*
X307171Y-10236D01*
X307600Y-10322D01*
X308029Y-10236D01*
X308393Y-9993D01*
X308636Y-9629D01*
X308721Y-9200D01*
X308636Y-8771D01*
X308393Y-8407D01*
X308029Y-8164D01*
X307600Y-8078D01*
D02*
G37*
G36*
X292600D02*
X292171Y-8164D01*
X291807Y-8407D01*
X291564Y-8771D01*
X291478Y-9200D01*
X291564Y-9629D01*
X291807Y-9993D01*
X292171Y-10236D01*
X292600Y-10322D01*
X293029Y-10236D01*
X293393Y-9993D01*
X293636Y-9629D01*
X293722Y-9200D01*
X293636Y-8771D01*
X293393Y-8407D01*
X293029Y-8164D01*
X292600Y-8078D01*
D02*
G37*
G36*
X277600D02*
X277171Y-8164D01*
X276807Y-8407D01*
X276564Y-8771D01*
X276479Y-9200D01*
X276564Y-9629D01*
X276807Y-9993D01*
X277171Y-10236D01*
X277600Y-10322D01*
X278029Y-10236D01*
X278393Y-9993D01*
X278636Y-9629D01*
X278721Y-9200D01*
X278636Y-8771D01*
X278393Y-8407D01*
X278029Y-8164D01*
X277600Y-8078D01*
D02*
G37*
G36*
X262600D02*
X262171Y-8164D01*
X261807Y-8407D01*
X261564Y-8771D01*
X261478Y-9200D01*
X261564Y-9629D01*
X261807Y-9993D01*
X262171Y-10236D01*
X262600Y-10322D01*
X263029Y-10236D01*
X263393Y-9993D01*
X263636Y-9629D01*
X263721Y-9200D01*
X263636Y-8771D01*
X263393Y-8407D01*
X263029Y-8164D01*
X262600Y-8078D01*
D02*
G37*
G36*
X247600D02*
X247171Y-8164D01*
X246807Y-8407D01*
X246564Y-8771D01*
X246479Y-9200D01*
X246564Y-9629D01*
X246807Y-9993D01*
X247171Y-10236D01*
X247600Y-10322D01*
X248029Y-10236D01*
X248393Y-9993D01*
X248636Y-9629D01*
X248722Y-9200D01*
X248636Y-8771D01*
X248393Y-8407D01*
X248029Y-8164D01*
X247600Y-8078D01*
D02*
G37*
G36*
X217600D02*
X217171Y-8164D01*
X216807Y-8407D01*
X216564Y-8771D01*
X216478Y-9200D01*
X216564Y-9629D01*
X216807Y-9993D01*
X217171Y-10236D01*
X217600Y-10322D01*
X218029Y-10236D01*
X218393Y-9993D01*
X218636Y-9629D01*
X218722Y-9200D01*
X218636Y-8771D01*
X218393Y-8407D01*
X218029Y-8164D01*
X217600Y-8078D01*
D02*
G37*
G36*
X172600D02*
X172171Y-8164D01*
X171807Y-8407D01*
X171564Y-8771D01*
X171478Y-9200D01*
X171564Y-9629D01*
X171807Y-9993D01*
X172171Y-10236D01*
X172600Y-10322D01*
X173029Y-10236D01*
X173393Y-9993D01*
X173636Y-9629D01*
X173722Y-9200D01*
X173636Y-8771D01*
X173393Y-8407D01*
X173029Y-8164D01*
X172600Y-8078D01*
D02*
G37*
G36*
X7600D02*
X7171Y-8164D01*
X6807Y-8407D01*
X6564Y-8771D01*
X6478Y-9200D01*
X6564Y-9629D01*
X6807Y-9993D01*
X7171Y-10236D01*
X7600Y-10322D01*
X8029Y-10236D01*
X8393Y-9993D01*
X8636Y-9629D01*
X8722Y-9200D01*
X8636Y-8771D01*
X8393Y-8407D01*
X8029Y-8164D01*
X7600Y-8078D01*
D02*
G37*
G36*
X-7400D02*
X-7829Y-8164D01*
X-8193Y-8407D01*
X-8436Y-8771D01*
X-8522Y-9200D01*
X-8436Y-9629D01*
X-8193Y-9993D01*
X-7829Y-10236D01*
X-7400Y-10322D01*
X-6971Y-10236D01*
X-6607Y-9993D01*
X-6364Y-9629D01*
X-6278Y-9200D01*
X-6364Y-8771D01*
X-6607Y-8407D01*
X-6971Y-8164D01*
X-7400Y-8078D01*
D02*
G37*
G36*
X195700Y-4266D02*
X194915Y-4370D01*
X194183Y-4673D01*
X193555Y-5155D01*
X193073Y-5783D01*
X192770Y-6515D01*
X192666Y-7300D01*
X192770Y-8085D01*
X193073Y-8817D01*
X193555Y-9445D01*
X194183Y-9927D01*
X194915Y-10231D01*
X195700Y-10334D01*
X196485Y-10231D01*
X197217Y-9927D01*
X197845Y-9445D01*
X198327Y-8817D01*
X198630Y-8085D01*
X198734Y-7300D01*
X198630Y-6515D01*
X198327Y-5783D01*
X197845Y-5155D01*
X197217Y-4673D01*
X196485Y-4370D01*
X195700Y-4266D01*
D02*
G37*
G36*
X237200Y-5804D02*
X236476Y-5900D01*
X235802Y-6179D01*
X235223Y-6623D01*
X234779Y-7202D01*
X234500Y-7876D01*
X234404Y-8600D01*
X234500Y-9324D01*
X234779Y-9998D01*
X235223Y-10577D01*
X235802Y-11021D01*
X236476Y-11300D01*
X237200Y-11396D01*
X237924Y-11300D01*
X238598Y-11021D01*
X239177Y-10577D01*
X239621Y-9998D01*
X239900Y-9324D01*
X239996Y-8600D01*
X239900Y-7876D01*
X239621Y-7202D01*
X239177Y-6623D01*
X238598Y-6179D01*
X237924Y-5900D01*
X237200Y-5804D01*
D02*
G37*
G36*
X227200D02*
X226477Y-5900D01*
X225802Y-6179D01*
X225223Y-6623D01*
X224779Y-7202D01*
X224500Y-7876D01*
X224404Y-8600D01*
X224500Y-9324D01*
X224779Y-9998D01*
X225223Y-10577D01*
X225802Y-11021D01*
X226477Y-11300D01*
X227200Y-11396D01*
X227923Y-11300D01*
X228598Y-11021D01*
X229177Y-10577D01*
X229621Y-9998D01*
X229900Y-9324D01*
X229996Y-8600D01*
X229900Y-7876D01*
X229621Y-7202D01*
X229177Y-6623D01*
X228598Y-6179D01*
X227923Y-5900D01*
X227200Y-5804D01*
D02*
G37*
%LPD*%
D110*
X59482Y160360D02*
D03*
X64600D02*
D03*
X69718D02*
D03*
X59482Y165478D02*
D03*
X64600D02*
D03*
X69718D02*
D03*
D114*
X232191Y111620D02*
D03*
D117*
X384268Y160649D02*
D03*
D118*
X297800Y30700D02*
D03*
D120*
X159990Y132800D02*
D03*
X55000Y298630D02*
D03*
X226297Y50300D02*
D03*
X55000Y360400D02*
D03*
D122*
X362217Y293393D02*
D03*
X316217Y336700D02*
D03*
Y293393D02*
D03*
Y277645D02*
D03*
X362217D02*
D03*
X316217Y352448D02*
D03*
X362217Y336700D02*
D03*
Y352448D02*
D03*
D123*
X33669Y209572D02*
D03*
D125*
X189540Y136670D02*
D03*
X237200Y21400D02*
D03*
D128*
X20100Y353200D02*
D03*
Y309893D02*
D03*
D129*
X210850Y128080D02*
D03*
X195390Y161850D02*
D03*
X228260Y160820D02*
D03*
X226330Y140800D02*
D03*
X226220Y131140D02*
D03*
X225670Y179030D02*
D03*
X182140Y174280D02*
D03*
X201980D02*
D03*
X182140Y193130D02*
D03*
X191950Y184310D02*
D03*
X201870Y193130D02*
D03*
X226650Y123510D02*
D03*
X226464Y148492D02*
D03*
X376170Y42640D02*
D03*
X361260Y187000D02*
D03*
X406260D02*
D03*
X391260Y67000D02*
D03*
Y37000D02*
D03*
X376260Y157000D02*
D03*
Y127000D02*
D03*
Y97000D02*
D03*
X353760Y172000D02*
D03*
Y142000D02*
D03*
Y112000D02*
D03*
Y82000D02*
D03*
X346260Y187000D02*
D03*
X338760Y172000D02*
D03*
X346260Y157000D02*
D03*
X338760Y142000D02*
D03*
X346260Y127000D02*
D03*
X338760Y112000D02*
D03*
X346260Y97000D02*
D03*
X338760Y82000D02*
D03*
X346260Y37000D02*
D03*
X331260Y187000D02*
D03*
X323760Y172000D02*
D03*
X331260Y157000D02*
D03*
X323760Y142000D02*
D03*
X331260Y127000D02*
D03*
X323760Y112000D02*
D03*
X331260Y97000D02*
D03*
X323760Y82000D02*
D03*
X316260Y187000D02*
D03*
X308760Y172000D02*
D03*
X316260Y157000D02*
D03*
X308760Y142000D02*
D03*
X316260Y127000D02*
D03*
X308760Y112000D02*
D03*
X316260Y97000D02*
D03*
X308760Y82000D02*
D03*
Y52000D02*
D03*
X301260Y187000D02*
D03*
X293760Y172000D02*
D03*
X301260Y157000D02*
D03*
X293760Y142000D02*
D03*
X301260Y127000D02*
D03*
X293760Y112000D02*
D03*
X301260Y97000D02*
D03*
X293760Y82000D02*
D03*
Y52000D02*
D03*
X301260Y37000D02*
D03*
X256260D02*
D03*
X241260Y157000D02*
D03*
Y37000D02*
D03*
X226260D02*
D03*
X196260Y97000D02*
D03*
X181260Y157000D02*
D03*
X173760Y142000D02*
D03*
Y112000D02*
D03*
Y82000D02*
D03*
X158760Y142000D02*
D03*
X113760D02*
D03*
Y82000D02*
D03*
X98760Y142000D02*
D03*
X106260Y127000D02*
D03*
Y7000D02*
D03*
X83760Y142000D02*
D03*
X91260Y7000D02*
D03*
X68760Y112000D02*
D03*
Y82000D02*
D03*
X61260Y127000D02*
D03*
X53760Y82000D02*
D03*
X16260Y187000D02*
D03*
Y157000D02*
D03*
X8760Y52000D02*
D03*
X16260Y7000D02*
D03*
X1260Y187000D02*
D03*
X-6240Y172000D02*
D03*
X338530Y30121D02*
D03*
X280690Y199641D02*
D03*
X42980Y166901D02*
D03*
Y162871D02*
D03*
Y158841D02*
D03*
X102320Y129139D02*
D03*
X72980Y18172D02*
D03*
X220177Y120558D02*
D03*
X245410Y107620D02*
D03*
X180370Y27770D02*
D03*
X272350Y133950D02*
D03*
X272210Y125960D02*
D03*
X256231Y73426D02*
D03*
X13069Y3213D02*
D03*
X83357Y195151D02*
D03*
X220293Y108714D02*
D03*
X137484Y66573D02*
D03*
X187290Y100340D02*
D03*
X101218Y100840D02*
D03*
X202018Y148044D02*
D03*
X241960Y138300D02*
D03*
X242430Y143520D02*
D03*
X258250Y143770D02*
D03*
X237747Y98806D02*
D03*
X247630Y94050D02*
D03*
X247670Y73310D02*
D03*
X236820Y73920D02*
D03*
X218850Y74020D02*
D03*
X228480Y73870D02*
D03*
X220293Y111480D02*
D03*
X215696Y108714D02*
D03*
X188280Y124244D02*
D03*
X363081Y29067D02*
D03*
X406390Y119150D02*
D03*
X406350Y58423D02*
D03*
X406519Y73831D02*
D03*
X406270Y88900D02*
D03*
X406180Y104050D02*
D03*
X392260Y166040D02*
D03*
X404689Y170731D02*
D03*
X64470Y123610D02*
D03*
X60140Y116220D02*
D03*
X67150Y182060D02*
D03*
X167824Y-7741D02*
D03*
X101510Y6070D02*
D03*
X-14920Y98880D02*
D03*
X111200Y12520D02*
D03*
X30166Y32453D02*
D03*
X60153Y54585D02*
D03*
X44851Y48719D02*
D03*
X53846Y63200D02*
D03*
X53851Y59472D02*
D03*
X41821Y83633D02*
D03*
X67748Y76713D02*
D03*
X89800Y88300D02*
D03*
X89908Y98000D02*
D03*
D130*
X142600Y230800D02*
D03*
X135100Y245800D02*
D03*
X127600Y230800D02*
D03*
X120100Y245800D02*
D03*
X112600Y230800D02*
D03*
X105100Y245800D02*
D03*
X97600Y230800D02*
D03*
X90100Y245800D02*
D03*
X82600Y230800D02*
D03*
X67600Y320800D02*
D03*
X75100Y305800D02*
D03*
X67600Y290800D02*
D03*
X75100Y275800D02*
D03*
X67600Y260800D02*
D03*
X75100Y245800D02*
D03*
X60100Y305800D02*
D03*
X52600Y290800D02*
D03*
X60100Y275800D02*
D03*
X52600Y260800D02*
D03*
X45100Y305800D02*
D03*
X37600Y290800D02*
D03*
X45100Y275800D02*
D03*
X37600Y200800D02*
D03*
X45100Y185800D02*
D03*
X37600Y170800D02*
D03*
X30100Y275800D02*
D03*
X22600Y260800D02*
D03*
Y230800D02*
D03*
Y200800D02*
D03*
X30100Y185800D02*
D03*
X7600Y290800D02*
D03*
X15100Y275800D02*
D03*
X7600Y260800D02*
D03*
X15100Y245800D02*
D03*
X7600Y230800D02*
D03*
X15100Y215800D02*
D03*
X7600Y200800D02*
D03*
X-7400Y320800D02*
D03*
Y290800D02*
D03*
X100Y275800D02*
D03*
X-7400Y260800D02*
D03*
X100Y245800D02*
D03*
X-7400Y230800D02*
D03*
X100Y215800D02*
D03*
X-7400Y200800D02*
D03*
X405100Y290800D02*
D03*
X397600Y275800D02*
D03*
X405100Y260800D02*
D03*
X397600Y245800D02*
D03*
X390100Y290800D02*
D03*
X382600Y275800D02*
D03*
X390100Y260800D02*
D03*
X382600Y245800D02*
D03*
X375100Y290800D02*
D03*
Y260800D02*
D03*
X367600Y245800D02*
D03*
X352600Y275800D02*
D03*
X360100Y260800D02*
D03*
X352600Y245800D02*
D03*
X360100Y230800D02*
D03*
X352600Y215800D02*
D03*
X345100Y290800D02*
D03*
X337600Y275800D02*
D03*
X345100Y260800D02*
D03*
X337600Y245800D02*
D03*
X345100Y230800D02*
D03*
X337600Y215800D02*
D03*
X330100Y290800D02*
D03*
Y260800D02*
D03*
X322600Y245800D02*
D03*
X330100Y230800D02*
D03*
X322600Y215800D02*
D03*
X307600Y275800D02*
D03*
X315100Y260800D02*
D03*
X307600Y245800D02*
D03*
X315100Y230800D02*
D03*
X307600Y215800D02*
D03*
X300100Y290800D02*
D03*
Y260800D02*
D03*
Y230800D02*
D03*
X262600Y245800D02*
D03*
Y215800D02*
D03*
X255100Y260800D02*
D03*
X247600Y245800D02*
D03*
X255100Y230800D02*
D03*
X240100Y260800D02*
D03*
Y230800D02*
D03*
X225100Y260800D02*
D03*
X405100Y380800D02*
D03*
X397600Y365800D02*
D03*
X405100Y350800D02*
D03*
X397600Y335800D02*
D03*
X390100Y380800D02*
D03*
X382600Y365800D02*
D03*
X390100Y350800D02*
D03*
X382600Y335800D02*
D03*
X367600Y395800D02*
D03*
X375100Y380800D02*
D03*
X367600Y365800D02*
D03*
X375100Y350800D02*
D03*
X352600Y395800D02*
D03*
X360100Y380800D02*
D03*
X352600Y365800D02*
D03*
Y335800D02*
D03*
X337600Y395800D02*
D03*
X345100Y380800D02*
D03*
X337600Y365800D02*
D03*
X345100Y350800D02*
D03*
X337600Y335800D02*
D03*
X322600Y395800D02*
D03*
X330100Y380800D02*
D03*
X322600Y365800D02*
D03*
X330100Y350800D02*
D03*
X307600Y395800D02*
D03*
X315100Y380800D02*
D03*
X307600Y365800D02*
D03*
Y335800D02*
D03*
X292600Y395800D02*
D03*
X300100Y380800D02*
D03*
X292600Y365800D02*
D03*
X300100Y350800D02*
D03*
X292600Y335800D02*
D03*
X277600Y395800D02*
D03*
X285100Y380800D02*
D03*
X277600Y365800D02*
D03*
X285100Y350800D02*
D03*
X277600Y335800D02*
D03*
X262600Y395800D02*
D03*
X270100Y380800D02*
D03*
X262600Y365800D02*
D03*
X270100Y350800D02*
D03*
X262600Y335800D02*
D03*
X270100Y320800D02*
D03*
X247600Y395800D02*
D03*
X255100Y380800D02*
D03*
X247600Y365800D02*
D03*
X255100Y350800D02*
D03*
X247600Y335800D02*
D03*
X255100Y320800D02*
D03*
X232600Y395800D02*
D03*
X240100Y380800D02*
D03*
X232600Y365800D02*
D03*
X240100Y350800D02*
D03*
X232600Y335800D02*
D03*
X240100Y320800D02*
D03*
X225100Y380800D02*
D03*
Y350800D02*
D03*
Y320800D02*
D03*
X112600Y305800D02*
D03*
X97600Y395800D02*
D03*
X105100Y380800D02*
D03*
X97600Y365800D02*
D03*
X105100Y350800D02*
D03*
X97600Y335800D02*
D03*
X105100Y320800D02*
D03*
X82600Y395800D02*
D03*
X90100Y380800D02*
D03*
X82600Y365800D02*
D03*
X90100Y350800D02*
D03*
Y320800D02*
D03*
X67600Y395800D02*
D03*
X75100Y380800D02*
D03*
X67600Y365800D02*
D03*
X75100Y350800D02*
D03*
X52600Y395800D02*
D03*
X60100Y380800D02*
D03*
Y350800D02*
D03*
X37600Y395800D02*
D03*
X45100Y380800D02*
D03*
Y350800D02*
D03*
X22600Y395800D02*
D03*
X30100Y380800D02*
D03*
X15100D02*
D03*
X100D02*
D03*
X-7400Y365800D02*
D03*
D131*
X127265Y196697D02*
D03*
X377181Y216948D02*
D03*
M02*
