  0
SECTION
  2
HEADER
  9
$ACADVER
  1
AC1015
  9
$ACADMAINTVER
 70
     6
  9
$DWGCODEPAGE
  3
ANSI_1252
  9
$INSBASE
 10
0.0
 20
0.0
 30
0.0
  9
$EXTMIN
 10
-0.6643532779
 20
-2.699723718
 30
0.0
  9
$EXTMAX
 10
1.3356467221
 20
-0.435723718
 30
0.0
  9
$LIMMIN
 10
0.0
 20
0.0
  9
$LIMMAX
 10
12.0
 20
9.0
  9
$ORTHOMODE
 70
     0
  9
$REGENMODE
 70
     1
  9
$FILLMODE
 70
     1
  9
$QTEXTMODE
 70
     0
  9
$MIRRTEXT
 70
     1
  9
$LTSCALE
 40
1.0
  9
$ATTMODE
 70
     1
  9
$TEXTSIZE
 40
0.1377952756
  9
$TRACEWID
 40
0.05
  9
$TEXTSTYLE
  7
Standard
  9
$CLAYER
  8
0
  9
$CELTYPE
  6
ByLayer
  9
$CECOLOR
 62
   256
  9
$CELTSCALE
 40
1.0
  9
$DISPSILH
 70
     0
  9
$DIMSCALE
 40
1.0
  9
$DIMASZ
 40
0.13
  9
$DIMEXO
 40
0.0393700787
  9
$DIMDLI
 40
0.38
  9
$DIMRND
 40
0.0
  9
$DIMDLE
 40
0.0
  9
$DIMEXE
 40
0.0393700787
  9
$DIMTP
 40
0.0
  9
$DIMTM
 40
0.0
  9
$DIMTXT
 40
0.1377952756
  9
$DIMCEN
 40
0.09
  9
$DIMTSZ
 40
0.0
  9
$DIMTOL
 70
     0
  9
$DIMLIM
 70
     0
  9
$DIMTIH
 70
     1
  9
$DIMTOH
 70
     1
  9
$DIMSE1
 70
     0
  9
$DIMSE2
 70
     0
  9
$DIMTAD
 70
     1
  9
$DIMZIN
 70
     1
  9
$DIMBLK
  1

  9
$DIMASO
 70
     1
  9
$DIMSHO
 70
     1
  9
$DIMPOST
  1

  9
$DIMAPOST
  1

  9
$DIMALT
 70
     0
  9
$DIMALTD
 70
     2
  9
$DIMALTF
 40
25.4
  9
$DIMLFAC
 40
1.0
  9
$DIMTOFL
 70
     0
  9
$DIMTVP
 40
0.0
  9
$DIMTIX
 70
     0
  9
$DIMSOXD
 70
     0
  9
$DIMSAH
 70
     0
  9
$DIMBLK1
  1

  9
$DIMBLK2
  1

  9
$DIMSTYLE
  2
Standard
  9
$DIMCLRD
 70
     0
  9
$DIMCLRE
 70
     0
  9
$DIMCLRT
 70
     0
  9
$DIMTFAC
 40
1.0
  9
$DIMGAP
 40
0.06
  9
$DIMJUST
 70
     0
  9
$DIMSD1
 70
     0
  9
$DIMSD2
 70
     0
  9
$DIMTOLJ
 70
     1
  9
$DIMTZIN
 70
     1
  9
$DIMALTZ
 70
     0
  9
$DIMALTTZ
 70
     0
  9
$DIMUPT
 70
     0
  9
$DIMDEC
 70
     2
  9
$DIMTDEC
 70
     2
  9
$DIMALTU
 70
     2
  9
$DIMALTTD
 70
     2
  9
$DIMTXSTY
  7
Standard
  9
$DIMAUNIT
 70
     0
  9
$DIMADEC
 70
     2
  9
$DIMALTRND
 40
0.0
  9
$DIMAZIN
 70
     0
  9
$DIMDSEP
 70
    46
  9
$DIMATFIT
 70
     3
  9
$DIMFRAC
 70
     0
  9
$DIMLDRBLK
  1

  9
$DIMLUNIT
 70
     2
  9
$DIMLWD
 70
    -2
  9
$DIMLWE
 70
    -2
  9
$DIMTMOVE
 70
     0
  9
$LUNITS
 70
     2
  9
$LUPREC
 70
     2
  9
$SKETCHINC
 40
0.1
  9
$FILLETRAD
 40
0.5
  9
$AUNITS
 70
     0
  9
$AUPREC
 70
     2
  9
$MENU
  1
.
  9
$ELEVATION
 40
0.0
  9
$PELEVATION
 40
0.0
  9
$THICKNESS
 40
0.0
  9
$LIMCHECK
 70
     0
  9
$CHAMFERA
 40
0.0
  9
$CHAMFERB
 40
0.0
  9
$CHAMFERC
 40
0.0
  9
$CHAMFERD
 40
0.0
  9
$SKPOLY
 70
     0
  9
$TDCREATE
 40
2459109.541763414
  9
$TDUCREATE
 40
2459109.708430081
  9
$TDUPDATE
 40
2459109.541829676
  9
$TDUUPDATE
 40
2459109.708496342
  9
$TDINDWG
 40
0.0000000116
  9
$TDUSRTIMER
 40
0.0000000116
  9
$USRTIMER
 70
     1
  9
$ANGBASE
 50
0.0
  9
$ANGDIR
 70
     0
  9
$PDMODE
 70
     0
  9
$PDSIZE
 40
-1.0
  9
$PLINEWID
 40
0.0
  9
$SPLFRAME
 70
     0
  9
$SPLINETYPE
 70
     6
  9
$SPLINESEGS
 70
     8
  9
$HANDSEED
  5
7D6
  9
$SURFTAB1
 70
     6
  9
$SURFTAB2
 70
     6
  9
$SURFTYPE
 70
     6
  9
$SURFU
 70
     6
  9
$SURFV
 70
     6
  9
$UCSBASE
  2

  9
$UCSNAME
  2

  9
$UCSORG
 10
0.0
 20
0.0
 30
0.0
  9
$UCSXDIR
 10
1.0
 20
0.0
 30
0.0
  9
$UCSYDIR
 10
0.0
 20
1.0
 30
0.0
  9
$UCSORTHOREF
  2

  9
$UCSORTHOVIEW
 70
     0
  9
$UCSORGTOP
 10
0.0
 20
0.0
 30
0.0
  9
$UCSORGBOTTOM
 10
0.0
 20
0.0
 30
0.0
  9
$UCSORGLEFT
 10
0.0
 20
0.0
 30
0.0
  9
$UCSORGRIGHT
 10
0.0
 20
0.0
 30
0.0
  9
$UCSORGFRONT
 10
0.0
 20
0.0
 30
0.0
  9
$UCSORGBACK
 10
0.0
 20
0.0
 30
0.0
  9
$PUCSBASE
  2

  9
$PUCSNAME
  2

  9
$PUCSORG
 10
0.0
 20
0.0
 30
0.0
  9
$PUCSXDIR
 10
1.0
 20
0.0
 30
0.0
  9
$PUCSYDIR
 10
0.0
 20
1.0
 30
0.0
  9
$PUCSORTHOREF
  2

  9
$PUCSORTHOVIEW
 70
     0
  9
$PUCSORGTOP
 10
0.0
 20
0.0
 30
0.0
  9
$PUCSORGBOTTOM
 10
0.0
 20
0.0
 30
0.0
  9
$PUCSORGLEFT
 10
0.0
 20
0.0
 30
0.0
  9
$PUCSORGRIGHT
 10
0.0
 20
0.0
 30
0.0
  9
$PUCSORGFRONT
 10
0.0
 20
0.0
 30
0.0
  9
$PUCSORGBACK
 10
0.0
 20
0.0
 30
0.0
  9
$USERI1
 70
     0
  9
$USERI2
 70
     0
  9
$USERI3
 70
     0
  9
$USERI4
 70
     0
  9
$USERI5
 70
     0
  9
$USERR1
 40
0.0
  9
$USERR2
 40
0.0
  9
$USERR3
 40
0.0
  9
$USERR4
 40
0.0
  9
$USERR5
 40
0.0
  9
$WORLDVIEW
 70
     1
  9
$SHADEDGE
 70
     3
  9
$SHADEDIF
 70
    70
  9
$TILEMODE
 70
     1
  9
$MAXACTVP
 70
    64
  9
$PINSBASE
 10
0.0
 20
0.0
 30
0.0
  9
$PLIMCHECK
 70
     0
  9
$PEXTMIN
 10
1.0000000000E+20
 20
1.0000000000E+20
 30
1.0000000000E+20
  9
$PEXTMAX
 10
-1.0000000000E+20
 20
-1.0000000000E+20
 30
-1.0000000000E+20
  9
$PLIMMIN
 10
0.0
 20
0.0
  9
$PLIMMAX
 10
12.0
 20
9.0
  9
$UNITMODE
 70
     0
  9
$VISRETAIN
 70
     1
  9
$PLINEGEN
 70
     0
  9
$PSLTSCALE
 70
     1
  9
$TREEDEPTH
 70
  3020
  9
$CMLSTYLE
  2
Standard
  9
$CMLJUST
 70
     0
  9
$CMLSCALE
 40
1.0
  9
$PROXYGRAPHICS
 70
     1
  9
$MEASUREMENT
 70
     0
  9
$CELWEIGHT
370
    -1
  9
$ENDCAPS
280
     0
  9
$JOINSTYLE
280
     0
  9
$LWDISPLAY
290
     1
  9
$INSUNITS
 70
     1
  9
$HYPERLINKBASE
  1

  9
$STYLESHEET
  1

  9
$XEDIT
290
     1
  9
$CEPSNTYPE
380
     0
  9
$PSTYLEMODE
290
     1
  9
$FINGERPRINTGUID
  2
{65c98899-991e-44b5-9c97-060b1156defc}
  9
$VERSIONGUID
  2
{FAEB1C32-E019-11D5-929B-00C0DF256EC4}
  9
$EXTNAMES
290
     1
  9
$PSVPSCALE
 40
0.0
  9
$OLESTARTUP
290
     0
  0
ENDSEC
  0
SECTION
  2
CLASSES
  0
CLASS
  1
ACDBDICTIONARYWDFLT
  2
AcDbDictionaryWithDefault
  3
ObjectDBX Classes
 90
        0
280
     0
281
     0
  0
CLASS
  1
VISUALSTYLE
  2
AcDbVisualStyle
  3
ObjectDBX Classes
 90
     4095
280
     0
281
     0
  0
CLASS
  1
MATERIAL
  2
AcDbMaterial
  3
ObjectDBX Classes
 90
     1153
280
     0
281
     0
  0
CLASS
  1
SCALE
  2
AcDbScale
  3
ObjectDBX Classes
 90
     1153
280
     0
281
     0
  0
CLASS
  1
TABLESTYLE
  2
AcDbTableStyle
  3
ObjectDBX Classes
 90
     4095
280
     0
281
     0
  0
CLASS
  1
MLEADERSTYLE
  2
AcDbMLeaderStyle
  3
ACDB_MLEADERSTYLE_CLASS
 90
     4095
280
     0
281
     0
  0
CLASS
  1
SUN
  2
AcDbSun
  3
SCENEOE
 90
     1153
280
     0
281
     0
  0
CLASS
  1
ACDBPLACEHOLDER
  2
AcDbPlaceHolder
  3
ObjectDBX Classes
 90
        0
280
     0
281
     0
  0
CLASS
  1
LAYOUT
  2
AcDbLayout
  3
ObjectDBX Classes
 90
        0
280
     0
281
     0
  0
ENDSEC
  0
SECTION
  2
TABLES
  0
TABLE
  2
VPORT
  5
8
330
0
100
AcDbSymbolTable
 70
     1
  0
VPORT
  5
29
330
8
100
AcDbSymbolTableRecord
100
AcDbViewportTableRecord
  2
*Active
 70
     0
 10
0.0
 20
0.0
 11
1.0
 21
1.0
 12
0.3356467221
 22
-1.567723718
 13
0.0
 23
0.0
 14
0.5
 24
0.5
 15
0.5
 25
0.5
 16
0.0
 26
0.0
 36
1.0
 17
0.0
 27
0.0
 37
0.0
 40
2.30928
 41
0.8833922261
 42
50.0
 43
0.0
 44
0.0
 50
0.0
 51
0.0
 71
     0
 72
   100
 73
     1
 74
     3
 75
     0
 76
     0
 77
     0
 78
     0
281
     0
 65
     1
110
0.0
120
0.0
130
0.0
111
1.0
121
0.0
131
0.0
112
0.0
122
1.0
132
0.0
 79
     0
146
0.0
  0
ENDTAB
  0
TABLE
  2
LTYPE
  5
5
330
0
100
AcDbSymbolTable
 70
     6
  0
LTYPE
  5
14
330
5
100
AcDbSymbolTableRecord
100
AcDbLinetypeTableRecord
  2
ByBlock
 70
     0
  3

 72
    65
 73
     0
 40
0.0
  0
LTYPE
  5
15
330
5
100
AcDbSymbolTableRecord
100
AcDbLinetypeTableRecord
  2
ByLayer
 70
     0
  3

 72
    65
 73
     0
 40
0.0
  0
LTYPE
  5
16
330
5
100
AcDbSymbolTableRecord
100
AcDbLinetypeTableRecord
  2
Continuous
 70
     0
  3
Solid line
 72
    65
 73
     0
 40
0.0
  0
LTYPE
  5
6E
330
5
100
AcDbSymbolTableRecord
100
AcDbLinetypeTableRecord
  2
HIDDEN
 70
     0
  3
Hidden __ __ __ __ __ __ __ __ __ __ __ __ __ __
 72
    65
 73
     2
 40
0.075
 49
0.05
 74
     0
 49
-0.025
 74
     0
  0
LTYPE
  5
6F
330
5
100
AcDbSymbolTableRecord
100
AcDbLinetypeTableRecord
  2
PHANTOM
 70
     0
  3
Phantom ______  __  __  ______  __  __  ______
 72
    65
 73
     6
 40
0.5
 49
0.25
 74
     0
 49
-0.05
 74
     0
 49
0.05
 74
     0
 49
-0.05
 74
     0
 49
0.05
 74
     0
 49
-0.05
 74
     0
  0
LTYPE
  5
70
330
5
100
AcDbSymbolTableRecord
100
AcDbLinetypeTableRecord
  2
CENTER
 70
     0
  3
Center ____ _ ____ _ ____ _ ____ _ ____ _ ____
 72
    65
 73
     4
 40
0.4
 49
0.25
 74
     0
 49
-0.05
 74
     0
 49
0.05
 74
     0
 49
-0.05
 74
     0
  0
LTYPE
  5
71
330
5
100
AcDbSymbolTableRecord
100
AcDbLinetypeTableRecord
  2
CENTERX2
 70
     0
  3
Center (2x) ________  __  ________  __  _____
 72
    65
 73
     4
 40
0.8
 49
0.5
 74
     0
 49
-0.1
 74
     0
 49
0.1
 74
     0
 49
-0.1
 74
     0
  0
LTYPE
  5
72
330
5
100
AcDbSymbolTableRecord
100
AcDbLinetypeTableRecord
  2
DOT2
 70
     0
  3
Dot (.5x) ........................................
 72
    65
 73
     2
 40
0.025
 49
0.0
 74
     0
 49
-0.025
 74
     0
  0
ENDTAB
  0
TABLE
  2
LAYER
  5
2
330
0
100
AcDbSymbolTable
 70
     1
  0
LAYER
  5
10
330
2
100
AcDbSymbolTableRecord
100
AcDbLayerTableRecord
  2
0
 70
     0
 62
     7
  6
Continuous
370
    -3
390
F
  0
ENDTAB
  0
TABLE
  2
STYLE
  5
3
330
0
100
AcDbSymbolTable
 70
     2
  0
STYLE
  5
11
330
3
100
AcDbSymbolTableRecord
100
AcDbTextStyleTableRecord
  2
Standard
 70
     0
 40
0.0
 41
1.0
 50
0.0
 71
     0
 42
0.1377952756
  3
txt
  4

  0
STYLE
  5
7D3
330
3
100
AcDbSymbolTableRecord
100
AcDbTextStyleTableRecord
  2
SLDTEXTSTYLE0
 70
     0
 40
0.0
 41
0.7
 50
0.0
 71
     0
 42
0.1377952756
  3
TXT
  4

  0
ENDTAB
  0
TABLE
  2
VIEW
  5
6
330
0
100
AcDbSymbolTable
 70
     0
  0
ENDTAB
  0
TABLE
  2
UCS
  5
7
330
0
100
AcDbSymbolTable
 70
     0
  0
ENDTAB
  0
TABLE
  2
APPID
  5
9
330
0
100
AcDbSymbolTable
 70
     1
  0
APPID
  5
12
330
9
100
AcDbSymbolTableRecord
100
AcDbRegAppTableRecord
  2
ACAD
 70
     0
  0
ENDTAB
  0
TABLE
  2
DIMSTYLE
  5
A
330
0
100
AcDbSymbolTable
 70
     1
100
AcDbDimStyleTable
  0
DIMSTYLE
105
27
330
A
100
AcDbSymbolTableRecord
100
AcDbDimStyleTableRecord
  2
Standard
 70
     0
178
     0
340
11
  0
ENDTAB
  0
TABLE
  2
BLOCK_RECORD
  5
1
330
0
100
AcDbSymbolTable
 70
     1
  0
BLOCK_RECORD
  5
1F
330
1
100
AcDbSymbolTableRecord
100
AcDbBlockTableRecord
  2
*Model_Space
340
22
  0
BLOCK_RECORD
  5
1B
330
1
100
AcDbSymbolTableRecord
100
AcDbBlockTableRecord
  2
*Paper_Space
340
1E
  0
BLOCK_RECORD
  5
23
330
1
100
AcDbSymbolTableRecord
100
AcDbBlockTableRecord
  2
*Paper_Space0
340
26
  0
ENDTAB
  0
ENDSEC
  0
SECTION
  2
BLOCKS
  0
BLOCK
  5
20
330
1F
100
AcDbEntity
  8
0
100
AcDbBlockBegin
  2
*Model_Space
 70
     0
 10
0.0
 20
0.0
 30
0.0
  3
*Model_Space
  1

  0
ENDBLK
  5
21
330
1F
100
AcDbEntity
  8
0
100
AcDbBlockEnd
  0
BLOCK
  5
1C
330
1B
100
AcDbEntity
 67
     1
  8
0
100
AcDbBlockBegin
  2
*Paper_Space
 70
     0
 10
0.0
 20
0.0
 30
0.0
  3
*Paper_Space
  1

  0
ENDBLK
  5
1D
330
1B
100
AcDbEntity
 67
     1
  8
0
100
AcDbBlockEnd
  0
BLOCK
  5
24
330
23
100
AcDbEntity
  8
0
100
AcDbBlockBegin
  2
*Paper_Space0
 70
     0
 10
0.0
 20
0.0
 30
0.0
  3
*Paper_Space0
  1

  0
ENDBLK
  5
25
330
23
100
AcDbEntity
  8
0
100
AcDbBlockEnd
  0
ENDSEC
  0
SECTION
  2
ENTITIES
  0
SPLINE
  5
74
330
1F
100
AcDbEntity
  8
0
  6
Continuous
 62
     7
370
    25
100
AcDbSpline
210
0.0
220
0.0
230
1.0
 70
     8
 71
     3
 72
    13
 73
     9
 74
     0
 42
0.000000001
 43
0.00000001
 40
0.0
 40
0.0
 40
0.0
 40
0.0
 40
0.1348647540557038
 40
0.2706278930166416
 40
0.5003553232317621
 40
0.729781912781705
 40
0.8628025242023869
 40
1.0
 40
1.0
 40
1.0
 40
1.0
 10
0.8504105016226869
 20
-2.600070018799877
 30
0.0
 10
0.8503768879135931
 20
-2.600627025679175
 30
0.0
 10
0.8503094365818337
 20
-2.601744749870316
 30
0.0
 10
0.8496418937111446
 20
-2.603717280768087
 30
0.0
 10
0.848237461850873
 20
-2.605793140591083
 30
0.0
 10
0.8461816862186895
 20
-2.607201343432444
 30
0.0
 10
0.8442210576364128
 20
-2.607897392623665
 30
0.0
 10
0.8431037665936396
 20
-2.607959765859628
 30
0.0
 10
0.8425364858746555
 20
-2.607991434541097
 30
0.0
  0
SPLINE
  5
77
330
1F
100
AcDbEntity
  8
0
  6
Continuous
 62
     7
370
    25
100
AcDbSpline
210
0.0
220
0.0
230
1.0
 70
     8
 71
     3
 72
    13
 73
     9
 74
     0
 42
0.000000001
 43
0.00000001
 40
0.0
 40
0.0
 40
0.0
 40
0.0
 40
0.1345728032025015
 40
0.2701155022709045
 40
0.4995406139861808
 40
0.7292709018506934
 40
0.862495144965572
 40
1.0
 40
1.0
 40
1.0
 40
1.0
 10
0.7578908165825294
 20
-2.607991434541097
 30
0.0
 10
0.7573349802402054
 20
-2.607957391907366
 30
0.0
 10
0.7562193015204765
 20
-2.607889061287135
 30
0.0
 10
0.7542527591553497
 20
-2.607212320220341
 30
0.0
 10
0.7521885300619179
 20
-2.605791793878623
 30
0.0
 10
0.7507963101301689
 20
-2.603724572942501
 30
0.0
 10
0.7501096022903473
 20
-2.601757811172576
 30
0.0
 10
0.7500480590153377
 20
-2.600638515476173
 30
0.0
 10
0.7500168008344981
 20
-2.600070018799877
 30
0.0
  0
SPLINE
  5
95
330
1F
100
AcDbEntity
  8
0
  6
Continuous
 62
     7
370
    25
100
AcDbSpline
210
0.0
220
0.0
230
1.0
 70
     8
 71
     3
 72
    13
 73
     9
 74
     0
 42
0.000000001
 43
0.00000001
 40
0.0
 40
0.0
 40
0.0
 40
0.0
 40
0.1348647540558355
 40
0.2706278930166425
 40
0.5003553232317607
 40
0.7297819127817013
 40
0.8628025242023506
 40
0.9999999999999999
 40
0.9999999999999999
 40
0.9999999999999999
 40
0.9999999999999999
 10
0.7500168008344981
 20
-2.596133010925862
 30
0.0
 10
0.7500504145435914
 20
-2.59669001780516
 30
0.0
 10
0.7501178658753511
 20
-2.597807741996301
 30
0.0
 10
0.7507854087460407
 20
-2.599780272894071
 30
0.0
 10
0.7521898406063118
 20
-2.601856132717067
 30
0.0
 10
0.7542456162384955
 20
-2.603264335558428
 30
0.0
 10
0.756206244820772
 20
-2.603960384749649
 30
0.0
 10
0.7573235358635451
 20
-2.604022757985613
 30
0.0
 10
0.7578908165825294
 20
-2.604054426667082
 30
0.0
  0
SPLINE
  5
99
330
1F
100
AcDbEntity
  8
0
  6
Continuous
 62
     7
370
    25
100
AcDbSpline
210
0.0
220
0.0
230
1.0
 70
     8
 71
     3
 72
    13
 73
     9
 74
     0
 42
0.000000001
 43
0.00000001
 40
0.0
 40
0.0
 40
0.0
 40
0.0
 40
0.1345728032025299
 40
0.2701155022709074
 40
0.499540613986192
 40
0.7292709018506605
 40
0.8624951449656219
 40
1.0
 40
1.0
 40
1.0
 40
1.0
 10
0.8425364858746555
 20
-2.604054426667082
 30
0.0
 10
0.8430923222169798
 20
-2.604020384033351
 30
0.0
 10
0.8442080009367091
 20
-2.603952053413121
 30
0.0
 10
0.8461745433018354
 20
-2.603275312346325
 30
0.0
 10
0.8482387723952669
 20
-2.601854786004606
 30
0.0
 10
0.8496309923270161
 20
-2.599787565068485
 30
0.0
 10
0.8503177001668379
 20
-2.59782080329856
 30
0.0
 10
0.8503792434418475
 20
-2.596701507602158
 30
0.0
 10
0.8504105016226869
 20
-2.596133010925862
 30
0.0
  0
SPLINE
  5
126
330
1F
100
AcDbEntity
  8
0
  6
Continuous
 62
     7
370
    25
100
AcDbSpline
210
0.0
220
0.0
230
1.0
 70
     8
 71
     3
 72
    13
 73
     9
 74
     0
 42
0.000000001
 43
0.00000001
 40
0.0
 40
0.0
 40
0.0
 40
0.0
 40
0.1348647540557041
 40
0.2706278930166438
 40
0.5003553232317616
 40
0.7297819127817049
 40
0.8628025242023974
 40
0.9999999999999999
 40
0.9999999999999999
 40
0.9999999999999999
 40
0.9999999999999999
 10
0.3858435724888286
 20
-2.600070018799877
 30
0.0
 10
0.385809958779735
 20
-2.600627025679175
 30
0.0
 10
0.3857425074479754
 20
-2.601744749870316
 30
0.0
 10
0.3850749645772863
 20
-2.603717280768087
 30
0.0
 10
0.3836705327170146
 20
-2.605793140591083
 30
0.0
 10
0.3816147570848311
 20
-2.607201343432444
 30
0.0
 10
0.3796541285025546
 20
-2.607897392623664
 30
0.0
 10
0.3785368374597815
 20
-2.607959765859628
 30
0.0
 10
0.3779695567407971
 20
-2.607991434541097
 30
0.0
  0
SPLINE
  5
129
330
1F
100
AcDbEntity
  8
0
  6
Continuous
 62
     7
370
    25
100
AcDbSpline
210
0.0
220
0.0
230
1.0
 70
     8
 71
     3
 72
    13
 73
     9
 74
     0
 42
0.000000001
 43
0.00000001
 40
0.0
 40
0.0
 40
0.0
 40
0.0
 40
0.1345728032025008
 40
0.2701155022709084
 40
0.4995406139861834
 40
0.7292709018506948
 40
0.8624951449655728
 40
1.0
 40
1.0
 40
1.0
 40
1.0
 10
0.2933238874486711
 20
-2.607991434541097
 30
0.0
 10
0.2927680511063471
 20
-2.607957391907367
 30
0.0
 10
0.2916523723866181
 20
-2.607889061287136
 30
0.0
 10
0.2896858300214913
 20
-2.60721232022034
 30
0.0
 10
0.2876216009280593
 20
-2.605791793878622
 30
0.0
 10
0.2862293809963107
 20
-2.603724572942502
 30
0.0
 10
0.2855426731564886
 20
-2.601757811172575
 30
0.0
 10
0.2854811298814793
 20
-2.600638515476173
 30
0.0
 10
0.2854498717006396
 20
-2.600070018799877
 30
0.0
  0
SPLINE
  5
147
330
1F
100
AcDbEntity
  8
0
  6
Continuous
 62
     7
370
    25
100
AcDbSpline
210
0.0
220
0.0
230
1.0
 70
     8
 71
     3
 72
    13
 73
     9
 74
     0
 42
0.000000001
 43
0.00000001
 40
0.0
 40
0.0
 40
0.0
 40
0.0
 40
0.1348647540558353
 40
0.2706278930166457
 40
0.5003553232317608
 40
0.7297819127817016
 40
0.8628025242023534
 40
1.0
 40
1.0
 40
1.0
 40
1.0
 10
0.2854498717006396
 20
-2.596133010925862
 30
0.0
 10
0.2854834854097332
 20
-2.59669001780516
 30
0.0
 10
0.2855509367414925
 20
-2.597807741996301
 30
0.0
 10
0.2862184796121825
 20
-2.599780272894071
 30
0.0
 10
0.2876229114724536
 20
-2.601856132717068
 30
0.0
 10
0.2896786871046371
 20
-2.603264335558427
 30
0.0
 10
0.2916393156869135
 20
-2.603960384749648
 30
0.0
 10
0.2927566067296867
 20
-2.604022757985613
 30
0.0
 10
0.2933238874486711
 20
-2.604054426667082
 30
0.0
  0
SPLINE
  5
14B
330
1F
100
AcDbEntity
  8
0
  6
Continuous
 62
     7
370
    25
100
AcDbSpline
210
0.0
220
0.0
230
1.0
 70
     8
 71
     3
 72
    13
 73
     9
 74
     0
 42
0.000000001
 43
0.00000001
 40
0.0
 40
0.0
 40
0.0
 40
0.0
 40
0.1345728032025297
 40
0.2701155022709069
 40
0.4995406139861956
 40
0.7292709018506637
 40
0.8624951449656214
 40
1.0
 40
1.0
 40
1.0
 40
1.0
 10
0.3779695567407971
 20
-2.604054426667082
 30
0.0
 10
0.3785253930831214
 20
-2.604020384033351
 30
0.0
 10
0.3796410718028504
 20
-2.60395205341312
 30
0.0
 10
0.3816076141679771
 20
-2.603275312346325
 30
0.0
 10
0.3836718432614087
 20
-2.601854786004607
 30
0.0
 10
0.3850640631931582
 20
-2.599787565068486
 30
0.0
 10
0.3857507710329794
 20
-2.59782080329856
 30
0.0
 10
0.3858123143079888
 20
-2.596701507602158
 30
0.0
 10
0.3858435724888286
 20
-2.596133010925862
 30
0.0
  0
SPLINE
  5
1DB
330
1F
100
AcDbEntity
  8
0
  6
Continuous
 62
     7
370
    25
100
AcDbSpline
210
0.0
220
0.0
230
1.0
 70
     8
 71
     3
 72
    13
 73
     9
 74
     0
 42
0.000000001
 43
0.00000001
 40
0.0
 40
0.0
 40
0.0
 40
0.0
 40
0.1348647540557045
 40
0.2706278930166431
 40
0.5003553232317622
 40
0.7297819127817052
 40
0.8628025242023925
 40
1.0
 40
1.0
 40
1.0
 40
1.0
 10
-0.0787233566450298
 20
-2.600070018799877
 30
0.0
 10
-0.0787569703541234
 20
-2.600627025679175
 30
0.0
 10
-0.078824421685883
 20
-2.601744749870316
 30
0.0
 10
-0.079491964556572
 20
-2.603717280768086
 30
0.0
 10
-0.0808963964168438
 20
-2.605793140591083
 30
0.0
 10
-0.0829521720490273
 20
-2.607201343432445
 30
0.0
 10
-0.0849128006313039
 20
-2.607897392623664
 30
0.0
 10
-0.086030091674077
 20
-2.607959765859628
 30
0.0
 10
-0.0865973723930612
 20
-2.607991434541097
 30
0.0
  0
SPLINE
  5
1DF
330
1F
100
AcDbEntity
  8
0
  6
Continuous
 62
     7
370
    25
100
AcDbSpline
210
0.0
220
0.0
230
1.0
 70
     8
 71
     3
 72
    13
 73
     9
 74
     0
 42
0.000000001
 43
0.00000001
 40
0.0
 40
0.0
 40
0.0
 40
0.0
 40
0.1345728032025008
 40
0.2701155022709084
 40
0.4995406139861834
 40
0.7292709018506948
 40
0.8624951449655728
 40
1.0
 40
1.0
 40
1.0
 40
1.0
 10
-0.1712430416851872
 20
-2.607991434541097
 30
0.0
 10
-0.1717988780275114
 20
-2.607957391907367
 30
0.0
 10
-0.1729145567472403
 20
-2.607889061287136
 30
0.0
 10
-0.1748810991123669
 20
-2.60721232022034
 30
0.0
 10
-0.1769453282057991
 20
-2.605791793878622
 30
0.0
 10
-0.1783375481375478
 20
-2.603724572942502
 30
0.0
 10
-0.1790242559773697
 20
-2.601757811172575
 30
0.0
 10
-0.1790857992523791
 20
-2.600638515476173
 30
0.0
 10
-0.1791170574332187
 20
-2.600070018799877
 30
0.0
  0
SPLINE
  5
1FC
330
1F
100
AcDbEntity
  8
0
  6
Continuous
 62
     7
370
    25
100
AcDbSpline
210
0.0
220
0.0
230
1.0
 70
     8
 71
     3
 72
    13
 73
     9
 74
     0
 42
0.000000001
 43
0.00000001
 40
0.0
 40
0.0
 40
0.0
 40
0.0
 40
0.1348647540558353
 40
0.2706278930166457
 40
0.5003553232317608
 40
0.7297819127817016
 40
0.8628025242023534
 40
1.0
 40
1.0
 40
1.0
 40
1.0
 10
-0.1791170574332187
 20
-2.596133010925862
 30
0.0
 10
-0.1790834437241252
 20
-2.59669001780516
 30
0.0
 10
-0.1790159923923659
 20
-2.597807741996301
 30
0.0
 10
-0.1783484495216759
 20
-2.599780272894071
 30
0.0
 10
-0.1769440176614049
 20
-2.601856132717068
 30
0.0
 10
-0.1748882420292212
 20
-2.603264335558427
 30
0.0
 10
-0.1729276134469448
 20
-2.603960384749648
 30
0.0
 10
-0.1718103224041717
 20
-2.604022757985613
 30
0.0
 10
-0.1712430416851872
 20
-2.604054426667082
 30
0.0
  0
SPLINE
  5
1FD
330
1F
100
AcDbEntity
  8
0
  6
Continuous
 62
     7
370
    25
100
AcDbSpline
210
0.0
220
0.0
230
1.0
 70
     8
 71
     3
 72
    13
 73
     9
 74
     0
 42
0.000000001
 43
0.00000001
 40
0.0
 40
0.0
 40
0.0
 40
0.0
 40
0.1345728032025285
 40
0.2701155022709046
 40
0.4995406139861948
 40
0.7292709018506623
 40
0.8624951449656212
 40
1.0
 40
1.0
 40
1.0
 40
1.0
 10
-0.0865973723930612
 20
-2.604054426667082
 30
0.0
 10
-0.086041536050737
 20
-2.604020384033351
 30
0.0
 10
-0.084925857331008
 20
-2.60395205341312
 30
0.0
 10
-0.0829593149658812
 20
-2.603275312346326
 30
0.0
 10
-0.0808950858724498
 20
-2.601854786004606
 30
0.0
 10
-0.0795028659407003
 20
-2.599787565068485
 30
0.0
 10
-0.0788161581008789
 20
-2.59782080329856
 30
0.0
 10
-0.0787546148258694
 20
-2.596701507602158
 30
0.0
 10
-0.0787233566450298
 20
-2.596133010925862
 30
0.0
  0
CIRCLE
  5
435
330
1F
100
AcDbEntity
  8
0
  6
Continuous
 62
     7
370
    25
100
AcDbCircle
 10
1.2106467221
 20
-0.824723718
 30
0.0
 40
0.0642499999999998
  0
CIRCLE
  5
436
330
1F
100
AcDbEntity
  8
0
  6
Continuous
 62
     7
370
    25
100
AcDbCircle
 10
-0.5393532779
 20
-2.574723718
 30
0.0
 40
0.0642499999999986
  0
CIRCLE
  5
445
330
1F
100
AcDbEntity
  8
0
  6
Continuous
 62
     7
370
    25
100
AcDbCircle
 10
1.2106467221
 20
-2.574723718
 30
0.0
 40
0.0642499999999995
  0
CIRCLE
  5
446
330
1F
100
AcDbEntity
  8
0
  6
Continuous
 62
     7
370
    25
100
AcDbCircle
 10
-0.5393532779
 20
-0.824723718
 30
0.0
 40
0.0642499999999999
  0
SPLINE
  5
486
330
1F
100
AcDbEntity
  8
0
  6
Continuous
 62
     7
370
    25
100
AcDbSpline
210
0.0
220
0.0
230
1.0
 70
    24
 71
     3
 72
    10
 73
     6
 74
     0
 42
0.000000001
 43
0.00000001
 40
0.0
 40
0.0
 40
0.0
 40
0.0
 40
0.5
 40
0.5
 40
1.0
 40
1.0
 40
1.0
 40
1.0
 10
0.113056170913423
 20
-0.9397884470204793
 30
0.0
 10
0.113056170913423
 20
-0.939761126933828
 30
0.0
 10
0.1130561709135992
 20
-0.9390819066611743
 30
0.0
 10
0.1130561709135937
 20
-0.9368571631689163
 30
0.0
 10
0.1130561709136317
 20
-0.9353084673730361
 30
0.0
 10
0.1130561709136317
 20
-0.9337694536703808
 30
0.0
  0
SPLINE
  5
48A
330
1F
100
AcDbEntity
  8
0
  6
Continuous
 62
     7
370
    25
100
AcDbSpline
210
0.0
220
0.0
230
1.0
 70
    24
 71
     3
 72
    10
 73
     6
 74
     0
 42
0.000000001
 43
0.00000001
 40
0.0
 40
0.0
 40
0.0
 40
0.0
 40
0.5
 40
0.5
 40
1.0
 40
1.0
 40
1.0
 40
1.0
 10
0.1130561709136317
 20
-0.8003236516314951
 30
0.0
 10
0.1130561709136317
 20
-0.7987846379287151
 30
0.0
 10
0.1130561709135934
 20
-0.7972359421329467
 30
0.0
 10
0.1130561709135994
 20
-0.7950111986402423
 30
0.0
 10
0.1130561709134271
 20
-0.794331978367905
 30
0.0
 10
0.1130561709134271
 20
-0.794304658281381
 30
0.0
  0
SPLINE
  5
493
330
1F
100
AcDbEntity
  8
0
  6
Continuous
 62
     7
370
    25
100
AcDbSpline
210
0.0
220
0.0
230
1.0
 70
    24
 71
     3
 72
    10
 73
     6
 74
     0
 42
0.000000001
 43
0.00000001
 40
0.0
 40
0.0
 40
0.0
 40
0.0
 40
0.5
 40
0.5
 40
1.0
 40
1.0
 40
1.0
 40
1.0
 10
-0.1113532779052658
 20
-0.9337694536703767
 30
0.0
 10
-0.1113532779052658
 20
-0.9353084673731636
 30
0.0
 10
-0.1113532779052276
 20
-0.9368571631691426
 30
0.0
 10
-0.1113532779052331
 20
-0.9390819066614602
 30
0.0
 10
-0.111353277905061
 20
-0.9397611269339958
 30
0.0
 10
-0.111353277905061
 20
-0.9397884470204912
 30
0.0
  0
SPLINE
  5
496
330
1F
100
AcDbEntity
  8
0
  6
Continuous
 62
     7
370
    25
100
AcDbSpline
210
0.0
220
0.0
230
1.0
 70
    24
 71
     3
 72
    10
 73
     6
 74
     0
 42
0.000000001
 43
0.00000001
 40
0.0
 40
0.0
 40
0.0
 40
0.0
 40
0.5
 40
0.5
 40
1.0
 40
1.0
 40
1.0
 40
1.0
 10
-0.1113532779050571
 20
-0.794304658281381
 30
0.0
 10
-0.1113532779050571
 20
-0.7943319783678415
 30
0.0
 10
-0.1113532779052335
 20
-0.7950111986402225
 30
0.0
 10
-0.1113532779052273
 20
-0.7972359421329197
 30
0.0
 10
-0.1113532779052658
 20
-0.7987846379298765
 30
0.0
 10
-0.1113532779052658
 20
-0.8003236516314951
 30
0.0
  0
SPLINE
  5
49D
330
1F
100
AcDbEntity
  8
0
  6
Continuous
 62
     7
370
    25
100
AcDbSpline
210
0.0
220
0.0
230
1.0
 70
    24
 71
     3
 72
    10
 73
     6
 74
     0
 42
0.000000001
 43
0.00000001
 40
0.0
 40
0.0
 40
0.0
 40
0.0
 40
0.5
 40
0.5
 40
1.0
 40
1.0
 40
1.0
 40
1.0
 10
-0.0837942227873644
 20
-0.9397884470204912
 30
0.0
 10
-0.0837942227873644
 20
-0.9397611269339626
 30
0.0
 10
-0.0837942227871879
 20
-0.9390819066613809
 30
0.0
 10
-0.0837942227871939
 20
-0.9368571631691198
 30
0.0
 10
-0.0837942227871556
 20
-0.935308467373098
 30
0.0
 10
-0.0837942227871556
 20
-0.9337694536703808
 30
0.0
  0
SPLINE
  5
4A0
330
1F
100
AcDbEntity
  8
0
  6
Continuous
 62
     7
370
    25
100
AcDbSpline
210
0.0
220
0.0
230
1.0
 70
    24
 71
     3
 72
    10
 73
     6
 74
     0
 42
0.000000001
 43
0.00000001
 40
0.0
 40
0.0
 40
0.0
 40
0.0
 40
0.5
 40
0.5
 40
1.0
 40
1.0
 40
1.0
 40
1.0
 10
-0.0837942227871556
 20
-0.8003236516314951
 30
0.0
 10
-0.0837942227871556
 20
-0.7987846379287169
 30
0.0
 10
-0.0837942227871936
 20
-0.7972359421327352
 30
0.0
 10
-0.0837942227871881
 20
-0.795011198640406
 30
0.0
 10
-0.0837942227873602
 20
-0.7943319783678724
 30
0.0
 10
-0.0837942227873602
 20
-0.794304658281381
 30
0.0
  0
SPLINE
  5
4A8
330
1F
100
AcDbEntity
  8
0
  6
Continuous
 62
     7
370
    25
100
AcDbSpline
210
0.0
220
0.0
230
1.0
 70
    24
 71
     3
 72
    10
 73
     6
 74
     0
 42
0.000000001
 43
0.00000001
 40
0.0
 40
0.0
 40
0.0
 40
0.0
 40
0.5
 40
0.5
 40
1.0
 40
1.0
 40
1.0
 40
1.0
 10
0.0854971157955215
 20
-0.9337694536703808
 30
0.0
 10
0.0854971157955215
 20
-0.9353084673719669
 30
0.0
 10
0.0854971157955597
 20
-0.9368571631691428
 30
0.0
 10
0.0854971157955542
 20
-0.9390819066614602
 30
0.0
 10
0.0854971157957264
 20
-0.9397611269339958
 30
0.0
 10
0.0854971157957264
 20
-0.9397884470204912
 30
0.0
  0
SPLINE
  5
4AB
330
1F
100
AcDbEntity
  8
0
  6
Continuous
 62
     7
370
    25
100
AcDbSpline
210
0.0
220
0.0
230
1.0
 70
    24
 71
     3
 72
    10
 73
     6
 74
     0
 42
0.000000001
 43
0.00000001
 40
0.0
 40
0.0
 40
0.0
 40
0.0
 40
0.5
 40
0.5
 40
1.0
 40
1.0
 40
1.0
 40
1.0
 10
0.0854971157957302
 20
-0.794304658281381
 30
0.0
 10
0.0854971157957302
 20
-0.7943319783678416
 30
0.0
 10
0.085497115795554
 20
-0.7950111986404126
 30
0.0
 10
0.08549711579556
 20
-0.7972359421327296
 30
0.0
 10
0.0854971157955215
 20
-0.7987846379298779
 30
0.0
 10
0.0854971157955215
 20
-0.8003236516314951
 30
0.0
  0
LINE
  5
4E4
330
1F
100
AcDbEntity
  8
0
  6
Continuous
 62
     7
370
    25
100
AcDbLine
 10
0.7578908166
 20
-2.6079914345
 30
0.0
 11
0.8425364859
 21
-2.6079914345
 31
0.0
  0
LINE
  5
4E5
330
1F
100
AcDbEntity
  8
0
  6
Continuous
 62
     7
370
    25
100
AcDbLine
 10
0.8504105016
 20
-2.6000700188
 30
0.0
 11
0.8504105016
 21
-2.5481489149
 31
0.0
  0
LINE
  5
4E6
330
1F
100
AcDbEntity
  8
0
  6
Continuous
 62
     7
370
    25
100
AcDbLine
 10
0.7500168008
 20
-2.5481489149
 30
0.0
 11
0.8504105016
 21
-2.5481489149
 31
0.0
  0
LINE
  5
4E7
330
1F
100
AcDbEntity
  8
0
  6
Continuous
 62
     7
370
    25
100
AcDbLine
 10
0.6702923914
 20
-2.5914560015
 30
0.0
 11
0.6702923914
 21
-2.6642906471
 31
0.0
  0
LINE
  5
4E8
330
1F
100
AcDbEntity
  8
0
  6
Continuous
 62
     7
370
    25
100
AcDbLine
 10
0.6269853048
 20
-2.5914560015
 30
0.0
 11
0.6702923914
 21
-2.5914560015
 31
0.0
  0
LINE
  5
4E9
330
1F
100
AcDbEntity
  8
0
  6
Continuous
 62
     7
370
    25
100
AcDbLine
 10
0.6348593205
 20
-2.5914560015
 30
0.0
 11
0.6348593205
 21
-2.4635032456
 31
0.0
  0
LINE
  5
4EA
330
1F
100
AcDbEntity
  8
0
  6
Continuous
 62
     7
370
    25
100
AcDbLine
 10
0.6269853048
 20
-2.4635032456
 30
0.0
 11
0.6624183756
 21
-2.4635032456
 31
0.0
  0
LINE
  5
4EB
330
1F
100
AcDbEntity
  8
0
  6
Continuous
 62
     7
370
    25
100
AcDbLine
 10
0.6624183756
 20
-2.4261016708
 30
0.0
 11
0.6624183756
 21
-2.4635032456
 31
0.0
  0
LINE
  5
4EC
330
1F
100
AcDbEntity
  8
0
  6
Continuous
 62
     7
370
    25
100
AcDbLine
 10
0.6621723126
 20
-2.4261016708
 30
0.0
 11
0.6978514465
 21
-2.4261016708
 31
0.0
  0
LINE
  5
4ED
330
1F
100
AcDbEntity
  8
0
  6
Continuous
 62
     7
370
    25
100
AcDbLine
 10
0.6978514465
 20
-2.4261016708
 30
0.0
 11
0.6978514465
 21
-2.4142906471
 31
0.0
  0
LINE
  5
4EE
330
1F
100
AcDbEntity
  8
0
  6
Continuous
 62
     7
370
    25
100
AcDbLine
 10
0.6606959347
 20
-2.4142906471
 30
0.0
 11
0.746079793
 21
-2.4142906471
 31
0.0
  0
LINE
  5
4EF
330
1F
100
AcDbEntity
  8
0
  6
Continuous
 62
     7
370
    25
100
AcDbLine
 10
0.7391900292
 20
-2.4261016708
 30
0.0
 11
0.7391900292
 21
-2.4142906471
 31
0.0
  0
LINE
  5
4F0
330
1F
100
AcDbEntity
  8
0
  6
Continuous
 62
     7
370
    25
100
AcDbLine
 10
0.7391900292
 20
-2.4261016708
 30
0.0
 11
0.7647805804
 21
-2.4261016708
 31
0.0
  0
LINE
  5
4F1
330
1F
100
AcDbEntity
  8
0
  6
Continuous
 62
     7
370
    25
100
AcDbLine
 10
0.7647805804
 20
-2.4261016708
 30
0.0
 11
0.7647805804
 21
-2.420196159
 31
0.0
  0
LINE
  5
4F2
330
1F
100
AcDbEntity
  8
0
  6
Continuous
 62
     7
370
    25
100
AcDbLine
 10
0.7391900292
 20
-2.4201961589
 30
0.0
 11
0.7805286119
 21
-2.4201961589
 31
0.0
  0
LINE
  5
4F3
330
1F
100
AcDbEntity
  8
0
  6
Continuous
 62
     7
370
    25
100
AcDbLine
 10
0.7805286119
 20
-2.420196159
 30
0.0
 11
0.7805286119
 21
-2.4142906471
 31
0.0
  0
LINE
  5
4F4
330
1F
100
AcDbEntity
  8
0
  6
Continuous
 62
     7
370
    25
100
AcDbLine
 10
0.7805286119
 20
-2.4142906471
 30
0.0
 11
0.8198986906
 21
-2.4142906471
 31
0.0
  0
LINE
  5
4F5
330
1F
100
AcDbEntity
  8
0
  6
Continuous
 62
     7
370
    25
100
AcDbLine
 10
0.8198986906
 20
-2.420196159
 30
0.0
 11
0.8198986906
 21
-2.4142906471
 31
0.0
  0
LINE
  5
4F6
330
1F
100
AcDbEntity
  8
0
  6
Continuous
 62
     7
370
    25
100
AcDbLine
 10
0.8198986906
 20
-2.4201961589
 30
0.0
 11
0.8612372733
 21
-2.4201961589
 31
0.0
  0
LINE
  5
4F7
330
1F
100
AcDbEntity
  8
0
  6
Continuous
 62
     7
370
    25
100
AcDbLine
 10
0.8356467221
 20
-2.4261016708
 30
0.0
 11
0.8356467221
 21
-2.420196159
 31
0.0
  0
LINE
  5
4F8
330
1F
100
AcDbEntity
  8
0
  6
Continuous
 62
     7
370
    25
100
AcDbLine
 10
0.8356467221
 20
-2.4261016708
 30
0.0
 11
0.8612372733
 21
-2.4261016708
 31
0.0
  0
LINE
  5
4F9
330
1F
100
AcDbEntity
  8
0
  6
Continuous
 62
     7
370
    25
100
AcDbLine
 10
0.8612372733
 20
-2.4261016708
 30
0.0
 11
0.8612372733
 21
-2.4142906471
 31
0.0
  0
LINE
  5
4FA
330
1F
100
AcDbEntity
  8
0
  6
Continuous
 62
     7
370
    25
100
AcDbLine
 10
0.8543475095
 20
-2.4142906471
 30
0.0
 11
0.9397313678
 21
-2.4142906471
 31
0.0
  0
LINE
  5
4FB
330
1F
100
AcDbEntity
  8
0
  6
Continuous
 62
     7
370
    25
100
AcDbLine
 10
0.902575856
 20
-2.4261016708
 30
0.0
 11
0.902575856
 21
-2.4142906471
 31
0.0
  0
LINE
  5
4FC
330
1F
100
AcDbEntity
  8
0
  6
Continuous
 62
     7
370
    25
100
AcDbLine
 10
0.902575856
 20
-2.4261016708
 30
0.0
 11
0.9382549898
 21
-2.4261016708
 31
0.0
  0
LINE
  5
4FD
330
1F
100
AcDbEntity
  8
0
  6
Continuous
 62
     7
370
    25
100
AcDbLine
 10
0.9380089268
 20
-2.4261016708
 30
0.0
 11
0.9380089268
 21
-2.4635032456
 31
0.0
  0
LINE
  5
4FE
330
1F
100
AcDbEntity
  8
0
  6
Continuous
 62
     7
370
    25
100
AcDbLine
 10
0.9734419977
 20
-2.4635032456
 30
0.0
 11
0.9380089268
 21
-2.4635032456
 31
0.0
  0
LINE
  5
4FF
330
1F
100
AcDbEntity
  8
0
  6
Continuous
 62
     7
370
    25
100
AcDbLine
 10
0.9655679819
 20
-2.4635032456
 30
0.0
 11
0.9655679819
 21
-2.5914560015
 31
0.0
  0
LINE
  5
500
330
1F
100
AcDbEntity
  8
0
  6
Continuous
 62
     7
370
    25
100
AcDbLine
 10
0.9301349111
 20
-2.5914560015
 30
0.0
 11
0.9734419977
 21
-2.5914560015
 31
0.0
  0
LINE
  5
501
330
1F
100
AcDbEntity
  8
0
  6
Continuous
 62
     7
370
    25
100
AcDbLine
 10
0.9301349111
 20
-2.6642906471
 30
0.0
 11
0.9301349111
 21
-2.5914560015
 31
0.0
  0
LINE
  5
502
330
1F
100
AcDbEntity
  8
0
  6
Continuous
 62
     7
370
    25
100
AcDbLine
 10
0.9301349111
 20
-2.6642906471
 30
0.0
 11
0.6702923914
 21
-2.6642906471
 31
0.0
  0
LINE
  5
503
330
1F
100
AcDbEntity
  8
0
  6
Continuous
 62
     7
370
    25
100
AcDbLine
 10
0.7500168008
 20
-2.6000700188
 30
0.0
 11
0.7500168008
 21
-2.5481489149
 31
0.0
  0
LINE
  5
504
330
1F
100
AcDbEntity
  8
0
  6
Continuous
 62
     7
370
    25
100
AcDbLine
 10
0.7578908166
 20
-2.6040544267
 30
0.0
 11
0.7578908166
 21
-2.6079914345
 31
0.0
  0
LINE
  5
505
330
1F
100
AcDbEntity
  8
0
  6
Continuous
 62
     7
370
    25
100
AcDbLine
 10
0.7578908166
 20
-2.6040544267
 30
0.0
 11
0.8425364859
 21
-2.6040544267
 31
0.0
  0
LINE
  5
506
330
1F
100
AcDbEntity
  8
0
  6
Continuous
 62
     7
370
    25
100
AcDbLine
 10
0.8425364859
 20
-2.6079914345
 30
0.0
 11
0.8425364859
 21
-2.6040544267
 31
0.0
  0
LINE
  5
507
330
1F
100
AcDbEntity
  8
0
  6
Continuous
 62
     7
370
    25
100
AcDbLine
 10
0.6269853048
 20
-2.5914560015
 30
0.0
 11
0.6269853048
 21
-2.418227655
 31
0.0
  0
LINE
  5
508
330
1F
100
AcDbEntity
  8
0
  6
Continuous
 62
     7
370
    25
100
AcDbLine
 10
0.6702923914
 20
-2.6642906471
 30
0.0
 11
0.6663553835
 21
-2.668227655
 31
0.0
  0
LINE
  5
509
330
1F
100
AcDbEntity
  8
0
  6
Continuous
 62
     7
370
    25
100
AcDbLine
 10
0.6663553835
 20
-2.668227655
 30
0.0
 11
0.6624183756
 21
-2.6524796235
 31
0.0
  0
LINE
  5
50A
330
1F
100
AcDbEntity
  8
0
  6
Continuous
 62
     7
370
    25
100
AcDbLine
 10
0.9340719189
 20
-2.668227655
 30
0.0
 11
0.9301349111
 21
-2.6642906471
 31
0.0
  0
LINE
  5
50B
330
1F
100
AcDbEntity
  8
0
  6
Continuous
 62
     7
370
    25
100
AcDbLine
 10
0.9340719189
 20
-2.668227655
 30
0.0
 11
0.6663553835
 21
-2.668227655
 31
0.0
  0
LINE
  5
50C
330
1F
100
AcDbEntity
  8
0
  6
Continuous
 62
     7
370
    25
100
AcDbLine
 10
0.9734419977
 20
-2.418227655
 30
0.0
 11
0.9734419977
 21
-2.5914560015
 31
0.0
  0
LINE
  5
50D
330
1F
100
AcDbEntity
  8
0
  6
Continuous
 62
     7
370
    25
100
AcDbLine
 10
0.9340719189
 20
-2.668227655
 30
0.0
 11
0.9380089268
 21
-2.6524796235
 31
0.0
  0
LINE
  5
50E
330
1F
100
AcDbEntity
  8
0
  6
Continuous
 62
     7
370
    25
100
AcDbLine
 10
0.9380089268
 20
-2.5914560015
 30
0.0
 11
0.9380089268
 21
-2.6918497023
 31
0.0
  0
LINE
  5
50F
330
1F
100
AcDbEntity
  8
0
  6
Continuous
 62
     7
370
    25
100
AcDbLine
 10
0.6624183756
 20
-2.6233457652
 30
0.0
 11
0.6466703441
 21
-2.6233457652
 31
0.0
  0
LINE
  5
510
330
1F
100
AcDbEntity
  8
0
  6
Continuous
 62
     7
370
    25
100
AcDbLine
 10
0.6624183756
 20
-2.5934245054
 30
0.0
 11
0.6466703441
 21
-2.5934245054
 31
0.0
  0
LINE
  5
511
330
1F
100
AcDbEntity
  8
0
  6
Continuous
 62
     7
370
    25
100
AcDbLine
 10
0.9380089268
 20
-2.5934245054
 30
0.0
 11
0.9537569583
 21
-2.5934245054
 31
0.0
  0
LINE
  5
512
330
1F
100
AcDbEntity
  8
0
  6
Continuous
 62
     7
370
    25
100
AcDbLine
 10
0.9537569583
 20
-2.5914560015
 30
0.0
 11
0.9537569583
 21
-2.6761016708
 31
0.0
  0
LINE
  5
513
330
1F
100
AcDbEntity
  8
0
  6
Continuous
 62
     7
370
    25
100
AcDbLine
 10
0.9380089268
 20
-2.6233457652
 30
0.0
 11
0.9537569583
 21
-2.6233457652
 31
0.0
  0
LINE
  5
514
330
1F
100
AcDbEntity
  8
0
  6
Continuous
 62
     7
370
    25
100
AcDbLine
 10
0.9380089268
 20
-2.6406685999
 30
0.0
 11
0.9537569583
 21
-2.6406685999
 31
0.0
  0
LINE
  5
515
330
1F
100
AcDbEntity
  8
0
  6
Continuous
 62
     7
370
    25
100
AcDbLine
 10
0.6624183756
 20
-2.6406685999
 30
0.0
 11
0.6466703441
 21
-2.6406685999
 31
0.0
  0
LINE
  5
516
330
1F
100
AcDbEntity
  8
0
  6
Continuous
 62
     7
370
    25
100
AcDbLine
 10
0.9380089268
 20
-2.6544481275
 30
0.0
 11
0.9537569583
 21
-2.6544481275
 31
0.0
  0
LINE
  5
517
330
1F
100
AcDbEntity
  8
0
  6
Continuous
 62
     7
370
    25
100
AcDbLine
 10
0.6624183756
 20
-2.5914560015
 30
0.0
 11
0.6624183756
 21
-2.6918497023
 31
0.0
  0
LINE
  5
518
330
1F
100
AcDbEntity
  8
0
  6
Continuous
 62
     7
370
    25
100
AcDbLine
 10
0.6624183756
 20
-2.6623221432
 30
0.0
 11
0.6466703441
 21
-2.6623221432
 31
0.0
  0
LINE
  5
519
330
1F
100
AcDbEntity
  8
0
  6
Continuous
 62
     7
370
    25
100
AcDbLine
 10
0.6624183756
 20
-2.6544481275
 30
0.0
 11
0.6466703441
 21
-2.6544481275
 31
0.0
  0
LINE
  5
51A
330
1F
100
AcDbEntity
  8
0
  6
Continuous
 62
     7
370
    25
100
AcDbLine
 10
0.6466703441
 20
-2.5914560015
 30
0.0
 11
0.6466703441
 21
-2.6761016708
 31
0.0
  0
LINE
  5
51B
330
1F
100
AcDbEntity
  8
0
  6
Continuous
 62
     7
370
    25
100
AcDbLine
 10
0.9380089268
 20
-2.6623221432
 30
0.0
 11
0.9537569583
 21
-2.6623221432
 31
0.0
  0
LINE
  5
51C
330
1F
100
AcDbEntity
  8
0
  6
Continuous
 62
     7
370
    25
100
AcDbLine
 10
0.6624183756
 20
-2.4280701747
 30
0.0
 11
0.6466703441
 21
-2.4280701747
 31
0.0
  0
LINE
  5
51D
330
1F
100
AcDbEntity
  8
0
  6
Continuous
 62
     7
370
    25
100
AcDbLine
 10
0.6486388481
 20
-2.4123221432
 30
0.0
 11
0.6466703441
 21
-2.4280701747
 31
0.0
  0
LINE
  5
51E
330
1F
100
AcDbEntity
  8
0
  6
Continuous
 62
     7
370
    25
100
AcDbLine
 10
0.6604498717
 20
-2.4123221432
 30
0.0
 11
0.6486388481
 21
-2.4123221432
 31
0.0
  0
LINE
  5
51F
330
1F
100
AcDbEntity
  8
0
  6
Continuous
 62
     7
370
    25
100
AcDbLine
 10
0.6604498717
 20
-2.4123221432
 30
0.0
 11
0.6624183756
 21
-2.4280701747
 31
0.0
  0
LINE
  5
520
330
1F
100
AcDbEntity
  8
0
  6
Continuous
 62
     7
370
    25
100
AcDbLine
 10
0.6466703441
 20
-2.4280701747
 30
0.0
 11
0.6466703441
 21
-2.4635032456
 31
0.0
  0
LINE
  5
521
330
1F
100
AcDbEntity
  8
0
  6
Continuous
 62
     7
370
    25
100
AcDbLine
 10
0.9399774308
 20
-2.4123221432
 30
0.0
 11
0.9380089268
 21
-2.4280701747
 31
0.0
  0
LINE
  5
522
330
1F
100
AcDbEntity
  8
0
  6
Continuous
 62
     7
370
    25
100
AcDbLine
 10
0.9399774308
 20
-2.4123221432
 30
0.0
 11
0.9517884544
 21
-2.4123221432
 31
0.0
  0
LINE
  5
523
330
1F
100
AcDbEntity
  8
0
  6
Continuous
 62
     7
370
    25
100
AcDbLine
 10
0.9517884544
 20
-2.4123221432
 30
0.0
 11
0.9537569583
 21
-2.4280701747
 31
0.0
  0
LINE
  5
524
330
1F
100
AcDbEntity
  8
0
  6
Continuous
 62
     7
370
    25
100
AcDbLine
 10
0.9380089268
 20
-2.4280701747
 30
0.0
 11
0.9537569583
 21
-2.4280701747
 31
0.0
  0
LINE
  5
525
330
1F
100
AcDbEntity
  8
0
  6
Continuous
 62
     7
370
    25
100
AcDbLine
 10
0.9537569583
 20
-2.4280701747
 30
0.0
 11
0.9537569583
 21
-2.4635032456
 31
0.0
  0
LINE
  5
526
330
1F
100
AcDbEntity
  8
0
  6
Continuous
 62
     7
370
    25
100
AcDbLine
 10
0.8504105016
 20
-2.5914560015
 30
0.0
 11
0.7500168008
 21
-2.5914560015
 31
0.0
  0
LINE
  5
527
330
1F
100
AcDbEntity
  8
0
  6
Continuous
 62
     7
370
    25
100
AcDbLine
 10
0.6761979032
 20
-2.6918497023
 30
0.0
 11
0.6761979032
 21
-2.668227655
 31
0.0
  0
LINE
  5
528
330
1F
100
AcDbEntity
  8
0
  6
Continuous
 62
     7
370
    25
100
AcDbLine
 10
0.6761979032
 20
-2.6761016708
 30
0.0
 11
0.6466703441
 21
-2.6761016708
 31
0.0
  0
LINE
  5
529
330
1F
100
AcDbEntity
  8
0
  6
Continuous
 62
     7
370
    25
100
AcDbLine
 10
0.9242293993
 20
-2.6761016708
 30
0.0
 11
0.9537569583
 21
-2.6761016708
 31
0.0
  0
LINE
  5
52A
330
1F
100
AcDbEntity
  8
0
  6
Continuous
 62
     7
370
    25
100
AcDbLine
 10
0.9242293993
 20
-2.668227655
 30
0.0
 11
0.9242293993
 21
-2.6918497023
 31
0.0
  0
LINE
  5
52B
330
1F
100
AcDbEntity
  8
0
  6
Continuous
 62
     7
370
    25
100
AcDbLine
 10
0.9242293993
 20
-2.6761016708
 30
0.0
 11
0.9163553835
 21
-2.6703940036
 31
0.0
  0
LINE
  5
52C
330
1F
100
AcDbEntity
  8
0
  6
Continuous
 62
     7
370
    25
100
AcDbLine
 10
0.9163553835
 20
-2.668227655
 30
0.0
 11
0.9163553835
 21
-2.6800386786
 31
0.0
  0
LINE
  5
52D
330
1F
100
AcDbEntity
  8
0
  6
Continuous
 62
     7
370
    25
100
AcDbLine
 10
0.6761979032
 20
-2.6761016708
 30
0.0
 11
0.6840719189
 21
-2.6703940036
 31
0.0
  0
LINE
  5
52E
330
1F
100
AcDbEntity
  8
0
  6
Continuous
 62
     7
370
    25
100
AcDbLine
 10
0.6840719189
 20
-2.6800386786
 30
0.0
 11
0.6840719189
 21
-2.668227655
 31
0.0
  0
LINE
  5
52F
330
1F
100
AcDbEntity
  8
0
  6
Continuous
 62
     7
370
    25
100
AcDbLine
 10
0.6269853048
 20
-2.4261016708
 30
0.0
 11
0.6469164071
 21
-2.4261016708
 31
0.0
  0
LINE
  5
530
330
1F
100
AcDbEntity
  8
0
  6
Continuous
 62
     7
370
    25
100
AcDbLine
 10
0.9734419977
 20
-2.4261016708
 30
0.0
 11
0.9535108953
 21
-2.4261016708
 31
0.0
  0
LINE
  5
531
330
1F
100
AcDbEntity
  8
0
  6
Continuous
 62
     7
370
    25
100
AcDbLine
 10
0.9380089268
 20
-2.6918497023
 30
0.0
 11
0.9242293993
 21
-2.6918497023
 31
0.0
  0
LINE
  5
532
330
1F
100
AcDbEntity
  8
0
  6
Continuous
 62
     7
370
    25
100
AcDbLine
 10
0.9223766897
 20
-2.695091944
 30
0.0
 11
0.9242293993
 21
-2.6918497023
 31
0.0
  0
LINE
  5
533
330
1F
100
AcDbEntity
  8
0
  6
Continuous
 62
     7
370
    25
100
AcDbLine
 10
0.9242293993
 20
-2.699723718
 30
0.0
 11
0.9163553835
 21
-2.6800386786
 31
0.0
  0
LINE
  5
534
330
1F
100
AcDbEntity
  8
0
  6
Continuous
 62
     7
370
    25
100
AcDbLine
 10
0.6761979032
 20
-2.6918497023
 30
0.0
 11
0.6780506128
 21
-2.695091944
 31
0.0
  0
LINE
  5
535
330
1F
100
AcDbEntity
  8
0
  6
Continuous
 62
     7
370
    25
100
AcDbLine
 10
0.6761979032
 20
-2.699723718
 30
0.0
 11
0.6840719189
 21
-2.6800386786
 31
0.0
  0
LINE
  5
536
330
1F
100
AcDbEntity
  8
0
  6
Continuous
 62
     7
370
    25
100
AcDbLine
 10
0.6624183756
 20
-2.6918497023
 30
0.0
 11
0.6663553835
 21
-2.699723718
 31
0.0
  0
LINE
  5
537
330
1F
100
AcDbEntity
  8
0
  6
Continuous
 62
     7
370
    25
100
AcDbLine
 10
0.6761979032
 20
-2.6918497023
 30
0.0
 11
0.6624183756
 21
-2.6918497023
 31
0.0
  0
LINE
  5
538
330
1F
100
AcDbEntity
  8
0
  6
Continuous
 62
     7
370
    25
100
AcDbLine
 10
0.9340719189
 20
-2.699723718
 30
0.0
 11
0.9380089268
 21
-2.6918497023
 31
0.0
  0
LINE
  5
539
330
1F
100
AcDbEntity
  8
0
  6
Continuous
 62
     7
370
    25
100
AcDbLine
 10
0.9734419977
 20
-2.418227655
 30
0.0
 11
0.9525266434
 21
-2.418227655
 31
0.0
  0
LINE
  5
53A
330
1F
100
AcDbEntity
  8
0
  6
Continuous
 62
     7
370
    25
100
AcDbLine
 10
0.9392392418
 20
-2.418227655
 30
0.0
 11
0.902575856
 21
-2.418227655
 31
0.0
  0
LINE
  5
53B
330
1F
100
AcDbEntity
  8
0
  6
Continuous
 62
     7
370
    25
100
AcDbLine
 10
0.6978514465
 20
-2.418227655
 30
0.0
 11
0.6611880607
 21
-2.418227655
 31
0.0
  0
LINE
  5
53C
330
1F
100
AcDbEntity
  8
0
  6
Continuous
 62
     7
370
    25
100
AcDbLine
 10
0.6479006591
 20
-2.418227655
 30
0.0
 11
0.6269853048
 21
-2.418227655
 31
0.0
  0
LINE
  5
53D
330
1F
100
AcDbEntity
  8
0
  6
Continuous
 62
     7
370
    25
100
AcDbLine
 10
0.9695049898
 20
-2.4142906471
 30
0.0
 11
0.9520345174
 21
-2.4142906471
 31
0.0
  0
LINE
  5
53E
330
1F
100
AcDbEntity
  8
0
  6
Continuous
 62
     7
370
    25
100
AcDbLine
 10
0.9695049898
 20
-2.4142906471
 30
0.0
 11
0.9734419977
 21
-2.418227655
 31
0.0
  0
LINE
  5
53F
330
1F
100
AcDbEntity
  8
0
  6
Continuous
 62
     7
370
    25
100
AcDbLine
 10
0.6483927851
 20
-2.4142906471
 30
0.0
 11
0.6309223126
 21
-2.4142906471
 31
0.0
  0
LINE
  5
540
330
1F
100
AcDbEntity
  8
0
  6
Continuous
 62
     7
370
    25
100
AcDbLine
 10
0.6269853048
 20
-2.418227655
 30
0.0
 11
0.6309223126
 21
-2.4142906471
 31
0.0
  0
LINE
  5
541
330
1F
100
AcDbEntity
  8
0
  6
Continuous
 62
     7
370
    25
100
AcDbLine
 10
0.8966703441
 20
-2.6689601216
 30
0.0
 11
0.8848593205
 21
-2.6689601216
 31
0.0
  0
LINE
  5
542
330
1F
100
AcDbEntity
  8
0
  6
Continuous
 62
     7
370
    25
100
AcDbLine
 10
0.8966703441
 20
-2.668227655
 30
0.0
 11
0.8966703441
 21
-2.6721646629
 31
0.0
  0
LINE
  5
543
330
1F
100
AcDbEntity
  8
0
  6
Continuous
 62
     7
370
    25
100
AcDbLine
 10
0.8848593205
 20
-2.668227655
 30
0.0
 11
0.8848593205
 21
-2.6721646629
 31
0.0
  0
LINE
  5
544
330
1F
100
AcDbEntity
  8
0
  6
Continuous
 62
     7
370
    25
100
AcDbLine
 10
0.7037569583
 20
-2.6721646629
 30
0.0
 11
0.6840719189
 21
-2.6721646629
 31
0.0
  0
LINE
  5
545
330
1F
100
AcDbEntity
  8
0
  6
Continuous
 62
     7
370
    25
100
AcDbLine
 10
0.7037569583
 20
-2.6689601216
 30
0.0
 11
0.7155679819
 21
-2.6689601216
 31
0.0
  0
LINE
  5
546
330
1F
100
AcDbEntity
  8
0
  6
Continuous
 62
     7
370
    25
100
AcDbLine
 10
0.7628120764
 20
-2.6721646629
 30
0.0
 11
0.7155679819
 21
-2.6721646629
 31
0.0
  0
LINE
  5
547
330
1F
100
AcDbEntity
  8
0
  6
Continuous
 62
     7
370
    25
100
AcDbLine
 10
0.7628120764
 20
-2.668227655
 30
0.0
 11
0.7628120764
 21
-2.6869055528
 31
0.0
  0
LINE
  5
548
330
1F
100
AcDbEntity
  8
0
  6
Continuous
 62
     7
370
    25
100
AcDbLine
 10
0.7628120764
 20
-2.6869055528
 30
0.0
 11
0.837615226
 21
-2.6869055528
 31
0.0
  0
LINE
  5
549
330
1F
100
AcDbEntity
  8
0
  6
Continuous
 62
     7
370
    25
100
AcDbLine
 10
0.837615226
 20
-2.668227655
 30
0.0
 11
0.837615226
 21
-2.6869055528
 31
0.0
  0
LINE
  5
54A
330
1F
100
AcDbEntity
  8
0
  6
Continuous
 62
     7
370
    25
100
AcDbLine
 10
0.8848593205
 20
-2.6721646629
 30
0.0
 11
0.837615226
 21
-2.6721646629
 31
0.0
  0
LINE
  5
54B
330
1F
100
AcDbEntity
  8
0
  6
Continuous
 62
     7
370
    25
100
AcDbLine
 10
0.9163553835
 20
-2.6721646629
 30
0.0
 11
0.8966703441
 21
-2.6721646629
 31
0.0
  0
LINE
  5
54C
330
1F
100
AcDbEntity
  8
0
  6
Continuous
 62
     7
370
    25
100
AcDbLine
 10
0.7155679819
 20
-2.668227655
 30
0.0
 11
0.7155679819
 21
-2.6721646629
 31
0.0
  0
LINE
  5
54D
330
1F
100
AcDbEntity
  8
0
  6
Continuous
 62
     7
370
    25
100
AcDbLine
 10
0.7037569583
 20
-2.668227655
 30
0.0
 11
0.7037569583
 21
-2.6721646629
 31
0.0
  0
LINE
  5
54E
330
1F
100
AcDbEntity
  8
0
  6
Continuous
 62
     7
370
    25
100
AcDbLine
 10
0.8543475095
 20
-2.3650780487
 30
0.0
 11
0.8543475095
 21
-2.4201961589
 31
0.0
  0
LINE
  5
54F
330
1F
100
AcDbEntity
  8
0
  6
Continuous
 62
     7
370
    25
100
AcDbLine
 10
0.746079793
 20
-2.3650780487
 30
0.0
 11
0.746079793
 21
-2.4201961589
 31
0.0
  0
LINE
  5
550
330
1F
100
AcDbEntity
  8
0
  6
Continuous
 62
     7
370
    25
100
AcDbLine
 10
0.8543475095
 20
-2.3650780487
 30
0.0
 11
0.8641900292
 21
-2.3650780487
 31
0.0
  0
LINE
  5
551
330
1F
100
AcDbEntity
  8
0
  6
Continuous
 62
     7
370
    25
100
AcDbLine
 10
0.8641900292
 20
-2.3650780487
 30
0.0
 11
0.8641900292
 21
-2.4142906471
 31
0.0
  0
LINE
  5
552
330
1F
100
AcDbEntity
  8
0
  6
Continuous
 62
     7
370
    25
100
AcDbLine
 10
0.7952923914
 20
-2.3650780487
 30
0.0
 11
0.8051349111
 21
-2.3650780487
 31
0.0
  0
LINE
  5
553
330
1F
100
AcDbEntity
  8
0
  6
Continuous
 62
     7
370
    25
100
AcDbLine
 10
0.7952923914
 20
-2.3650780487
 30
0.0
 11
0.7952923914
 21
-2.4142906471
 31
0.0
  0
LINE
  5
554
330
1F
100
AcDbEntity
  8
0
  6
Continuous
 62
     7
370
    25
100
AcDbLine
 10
0.8051349111
 20
-2.3650780487
 30
0.0
 11
0.8051349111
 21
-2.4142906471
 31
0.0
  0
LINE
  5
555
330
1F
100
AcDbEntity
  8
0
  6
Continuous
 62
     7
370
    25
100
AcDbLine
 10
0.7362372733
 20
-2.3650780487
 30
0.0
 11
0.746079793
 21
-2.3650780487
 31
0.0
  0
LINE
  5
556
330
1F
100
AcDbEntity
  8
0
  6
Continuous
 62
     7
370
    25
100
AcDbLine
 10
0.7362372733
 20
-2.3650780487
 30
0.0
 11
0.7362372733
 21
-2.4142906471
 31
0.0
  0
LINE
  5
557
330
1F
100
AcDbEntity
  8
0
  6
Continuous
 62
     7
370
    25
100
AcDbLine
 10
0.2933238874
 20
-2.6079914345
 30
0.0
 11
0.3779695567
 21
-2.6079914345
 31
0.0
  0
LINE
  5
558
330
1F
100
AcDbEntity
  8
0
  6
Continuous
 62
     7
370
    25
100
AcDbLine
 10
0.3858435725
 20
-2.6000700188
 30
0.0
 11
0.3858435725
 21
-2.5481489149
 31
0.0
  0
LINE
  5
559
330
1F
100
AcDbEntity
  8
0
  6
Continuous
 62
     7
370
    25
100
AcDbLine
 10
0.2854498717
 20
-2.5481489149
 30
0.0
 11
0.3858435725
 21
-2.5481489149
 31
0.0
  0
LINE
  5
55A
330
1F
100
AcDbEntity
  8
0
  6
Continuous
 62
     7
370
    25
100
AcDbLine
 10
0.2057254623
 20
-2.5914560015
 30
0.0
 11
0.2057254623
 21
-2.6642906471
 31
0.0
  0
LINE
  5
55B
330
1F
100
AcDbEntity
  8
0
  6
Continuous
 62
     7
370
    25
100
AcDbLine
 10
0.1624183756
 20
-2.5914560015
 30
0.0
 11
0.2057254623
 21
-2.5914560015
 31
0.0
  0
LINE
  5
55C
330
1F
100
AcDbEntity
  8
0
  6
Continuous
 62
     7
370
    25
100
AcDbLine
 10
0.1702923914
 20
-2.5914560015
 30
0.0
 11
0.1702923914
 21
-2.4635032456
 31
0.0
  0
LINE
  5
55D
330
1F
100
AcDbEntity
  8
0
  6
Continuous
 62
     7
370
    25
100
AcDbLine
 10
0.1624183756
 20
-2.4635032456
 30
0.0
 11
0.1978514465
 21
-2.4635032456
 31
0.0
  0
LINE
  5
55E
330
1F
100
AcDbEntity
  8
0
  6
Continuous
 62
     7
370
    25
100
AcDbLine
 10
0.1978514465
 20
-2.4261016708
 30
0.0
 11
0.1978514465
 21
-2.4635032456
 31
0.0
  0
LINE
  5
55F
330
1F
100
AcDbEntity
  8
0
  6
Continuous
 62
     7
370
    25
100
AcDbLine
 10
0.1976053835
 20
-2.4261016708
 30
0.0
 11
0.2332845174
 21
-2.4261016708
 31
0.0
  0
LINE
  5
560
330
1F
100
AcDbEntity
  8
0
  6
Continuous
 62
     7
370
    25
100
AcDbLine
 10
0.2332845174
 20
-2.4261016708
 30
0.0
 11
0.2332845174
 21
-2.4142906471
 31
0.0
  0
LINE
  5
561
330
1F
100
AcDbEntity
  8
0
  6
Continuous
 62
     7
370
    25
100
AcDbLine
 10
0.1961290056
 20
-2.4142906471
 30
0.0
 11
0.2815128638
 21
-2.4142906471
 31
0.0
  0
LINE
  5
562
330
1F
100
AcDbEntity
  8
0
  6
Continuous
 62
     7
370
    25
100
AcDbLine
 10
0.2746231
 20
-2.4261016708
 30
0.0
 11
0.2746231
 21
-2.4142906471
 31
0.0
  0
LINE
  5
563
330
1F
100
AcDbEntity
  8
0
  6
Continuous
 62
     7
370
    25
100
AcDbLine
 10
0.2746231
 20
-2.4261016708
 30
0.0
 11
0.3002136512
 21
-2.4261016708
 31
0.0
  0
LINE
  5
564
330
1F
100
AcDbEntity
  8
0
  6
Continuous
 62
     7
370
    25
100
AcDbLine
 10
0.3002136512
 20
-2.4261016708
 30
0.0
 11
0.3002136512
 21
-2.420196159
 31
0.0
  0
LINE
  5
565
330
1F
100
AcDbEntity
  8
0
  6
Continuous
 62
     7
370
    25
100
AcDbLine
 10
0.2746231
 20
-2.4201961589
 30
0.0
 11
0.3159616827
 21
-2.4201961589
 31
0.0
  0
LINE
  5
566
330
1F
100
AcDbEntity
  8
0
  6
Continuous
 62
     7
370
    25
100
AcDbLine
 10
0.3159616827
 20
-2.420196159
 30
0.0
 11
0.3159616827
 21
-2.4142906471
 31
0.0
  0
LINE
  5
567
330
1F
100
AcDbEntity
  8
0
  6
Continuous
 62
     7
370
    25
100
AcDbLine
 10
0.3159616827
 20
-2.4142906471
 30
0.0
 11
0.3553317615
 21
-2.4142906471
 31
0.0
  0
LINE
  5
568
330
1F
100
AcDbEntity
  8
0
  6
Continuous
 62
     7
370
    25
100
AcDbLine
 10
0.3553317615
 20
-2.420196159
 30
0.0
 11
0.3553317615
 21
-2.4142906471
 31
0.0
  0
LINE
  5
569
330
1F
100
AcDbEntity
  8
0
  6
Continuous
 62
     7
370
    25
100
AcDbLine
 10
0.3553317615
 20
-2.4201961589
 30
0.0
 11
0.3966703441
 21
-2.4201961589
 31
0.0
  0
LINE
  5
56A
330
1F
100
AcDbEntity
  8
0
  6
Continuous
 62
     7
370
    25
100
AcDbLine
 10
0.371079793
 20
-2.4261016708
 30
0.0
 11
0.371079793
 21
-2.420196159
 31
0.0
  0
LINE
  5
56B
330
1F
100
AcDbEntity
  8
0
  6
Continuous
 62
     7
370
    25
100
AcDbLine
 10
0.371079793
 20
-2.4261016708
 30
0.0
 11
0.3966703441
 21
-2.4261016708
 31
0.0
  0
LINE
  5
56C
330
1F
100
AcDbEntity
  8
0
  6
Continuous
 62
     7
370
    25
100
AcDbLine
 10
0.3966703441
 20
-2.4261016708
 30
0.0
 11
0.3966703441
 21
-2.4142906471
 31
0.0
  0
LINE
  5
56D
330
1F
100
AcDbEntity
  8
0
  6
Continuous
 62
     7
370
    25
100
AcDbLine
 10
0.3897805804
 20
-2.4142906471
 30
0.0
 11
0.4751644386
 21
-2.4142906471
 31
0.0
  0
LINE
  5
56E
330
1F
100
AcDbEntity
  8
0
  6
Continuous
 62
     7
370
    25
100
AcDbLine
 10
0.4380089268
 20
-2.4261016708
 30
0.0
 11
0.4380089268
 21
-2.4142906471
 31
0.0
  0
LINE
  5
56F
330
1F
100
AcDbEntity
  8
0
  6
Continuous
 62
     7
370
    25
100
AcDbLine
 10
0.4380089268
 20
-2.4261016708
 30
0.0
 11
0.4736880607
 21
-2.4261016708
 31
0.0
  0
LINE
  5
570
330
1F
100
AcDbEntity
  8
0
  6
Continuous
 62
     7
370
    25
100
AcDbLine
 10
0.4734419977
 20
-2.4261016708
 30
0.0
 11
0.4734419977
 21
-2.4635032456
 31
0.0
  0
LINE
  5
571
330
1F
100
AcDbEntity
  8
0
  6
Continuous
 62
     7
370
    25
100
AcDbLine
 10
0.5088750686
 20
-2.4635032456
 30
0.0
 11
0.4734419977
 21
-2.4635032456
 31
0.0
  0
LINE
  5
572
330
1F
100
AcDbEntity
  8
0
  6
Continuous
 62
     7
370
    25
100
AcDbLine
 10
0.5010010528
 20
-2.4635032456
 30
0.0
 11
0.5010010528
 21
-2.5914560015
 31
0.0
  0
LINE
  5
573
330
1F
100
AcDbEntity
  8
0
  6
Continuous
 62
     7
370
    25
100
AcDbLine
 10
0.4655679819
 20
-2.5914560015
 30
0.0
 11
0.5088750686
 21
-2.5914560015
 31
0.0
  0
LINE
  5
574
330
1F
100
AcDbEntity
  8
0
  6
Continuous
 62
     7
370
    25
100
AcDbLine
 10
0.4655679819
 20
-2.6642906471
 30
0.0
 11
0.4655679819
 21
-2.5914560015
 31
0.0
  0
LINE
  5
575
330
1F
100
AcDbEntity
  8
0
  6
Continuous
 62
     7
370
    25
100
AcDbLine
 10
0.4655679819
 20
-2.6642906471
 30
0.0
 11
0.2057254623
 21
-2.6642906471
 31
0.0
  0
LINE
  5
576
330
1F
100
AcDbEntity
  8
0
  6
Continuous
 62
     7
370
    25
100
AcDbLine
 10
0.2854498717
 20
-2.6000700188
 30
0.0
 11
0.2854498717
 21
-2.5481489149
 31
0.0
  0
LINE
  5
577
330
1F
100
AcDbEntity
  8
0
  6
Continuous
 62
     7
370
    25
100
AcDbLine
 10
0.2933238874
 20
-2.6040544267
 30
0.0
 11
0.2933238874
 21
-2.6079914345
 31
0.0
  0
LINE
  5
578
330
1F
100
AcDbEntity
  8
0
  6
Continuous
 62
     7
370
    25
100
AcDbLine
 10
0.2933238874
 20
-2.6040544267
 30
0.0
 11
0.3779695567
 21
-2.6040544267
 31
0.0
  0
LINE
  5
579
330
1F
100
AcDbEntity
  8
0
  6
Continuous
 62
     7
370
    25
100
AcDbLine
 10
0.3779695567
 20
-2.6079914345
 30
0.0
 11
0.3779695567
 21
-2.6040544267
 31
0.0
  0
LINE
  5
57A
330
1F
100
AcDbEntity
  8
0
  6
Continuous
 62
     7
370
    25
100
AcDbLine
 10
0.4695049898
 20
-2.668227655
 30
0.0
 11
0.4655679819
 21
-2.6642906471
 31
0.0
  0
LINE
  5
57B
330
1F
100
AcDbEntity
  8
0
  6
Continuous
 62
     7
370
    25
100
AcDbLine
 10
0.4695049898
 20
-2.668227655
 30
0.0
 11
0.2017884544
 21
-2.668227655
 31
0.0
  0
LINE
  5
57C
330
1F
100
AcDbEntity
  8
0
  6
Continuous
 62
     7
370
    25
100
AcDbLine
 10
0.2057254623
 20
-2.6642906471
 30
0.0
 11
0.2017884544
 21
-2.668227655
 31
0.0
  0
LINE
  5
57D
330
1F
100
AcDbEntity
  8
0
  6
Continuous
 62
     7
370
    25
100
AcDbLine
 10
0.2017884544
 20
-2.668227655
 30
0.0
 11
0.1978514465
 21
-2.6524796235
 31
0.0
  0
LINE
  5
57E
330
1F
100
AcDbEntity
  8
0
  6
Continuous
 62
     7
370
    25
100
AcDbLine
 10
0.1978514465
 20
-2.5914560015
 30
0.0
 11
0.1978514465
 21
-2.6918497023
 31
0.0
  0
LINE
  5
57F
330
1F
100
AcDbEntity
  8
0
  6
Continuous
 62
     7
370
    25
100
AcDbLine
 10
0.4695049898
 20
-2.668227655
 30
0.0
 11
0.4734419977
 21
-2.6524796235
 31
0.0
  0
LINE
  5
580
330
1F
100
AcDbEntity
  8
0
  6
Continuous
 62
     7
370
    25
100
AcDbLine
 10
0.5088750686
 20
-2.418227655
 30
0.0
 11
0.5088750686
 21
-2.5914560015
 31
0.0
  0
LINE
  5
581
330
1F
100
AcDbEntity
  8
0
  6
Continuous
 62
     7
370
    25
100
AcDbLine
 10
0.1624183756
 20
-2.5914560015
 30
0.0
 11
0.1624183756
 21
-2.418227655
 31
0.0
  0
LINE
  5
582
330
1F
100
AcDbEntity
  8
0
  6
Continuous
 62
     7
370
    25
100
AcDbLine
 10
0.1978514465
 20
-2.6406685999
 30
0.0
 11
0.182103415
 21
-2.6406685999
 31
0.0
  0
LINE
  5
583
330
1F
100
AcDbEntity
  8
0
  6
Continuous
 62
     7
370
    25
100
AcDbLine
 10
0.1978514465
 20
-2.6233457652
 30
0.0
 11
0.182103415
 21
-2.6233457652
 31
0.0
  0
LINE
  5
584
330
1F
100
AcDbEntity
  8
0
  6
Continuous
 62
     7
370
    25
100
AcDbLine
 10
0.182103415
 20
-2.5914560015
 30
0.0
 11
0.182103415
 21
-2.6761016708
 31
0.0
  0
LINE
  5
585
330
1F
100
AcDbEntity
  8
0
  6
Continuous
 62
     7
370
    25
100
AcDbLine
 10
0.4734419977
 20
-2.6233457652
 30
0.0
 11
0.4891900292
 21
-2.6233457652
 31
0.0
  0
LINE
  5
586
330
1F
100
AcDbEntity
  8
0
  6
Continuous
 62
     7
370
    25
100
AcDbLine
 10
0.4734419977
 20
-2.6406685999
 30
0.0
 11
0.4891900292
 21
-2.6406685999
 31
0.0
  0
LINE
  5
587
330
1F
100
AcDbEntity
  8
0
  6
Continuous
 62
     7
370
    25
100
AcDbLine
 10
0.1978514465
 20
-2.5934245054
 30
0.0
 11
0.182103415
 21
-2.5934245054
 31
0.0
  0
LINE
  5
588
330
1F
100
AcDbEntity
  8
0
  6
Continuous
 62
     7
370
    25
100
AcDbLine
 10
0.4734419977
 20
-2.5934245054
 30
0.0
 11
0.4891900292
 21
-2.5934245054
 31
0.0
  0
LINE
  5
589
330
1F
100
AcDbEntity
  8
0
  6
Continuous
 62
     7
370
    25
100
AcDbLine
 10
0.4734419977
 20
-2.5914560015
 30
0.0
 11
0.4734419977
 21
-2.6918497023
 31
0.0
  0
LINE
  5
58A
330
1F
100
AcDbEntity
  8
0
  6
Continuous
 62
     7
370
    25
100
AcDbLine
 10
0.4734419977
 20
-2.6544481275
 30
0.0
 11
0.4891900292
 21
-2.6544481275
 31
0.0
  0
LINE
  5
58B
330
1F
100
AcDbEntity
  8
0
  6
Continuous
 62
     7
370
    25
100
AcDbLine
 10
0.4734419977
 20
-2.6623221432
 30
0.0
 11
0.4891900292
 21
-2.6623221432
 31
0.0
  0
LINE
  5
58C
330
1F
100
AcDbEntity
  8
0
  6
Continuous
 62
     7
370
    25
100
AcDbLine
 10
0.4891900292
 20
-2.5914560015
 30
0.0
 11
0.4891900292
 21
-2.6761016708
 31
0.0
  0
LINE
  5
58D
330
1F
100
AcDbEntity
  8
0
  6
Continuous
 62
     7
370
    25
100
AcDbLine
 10
0.1978514465
 20
-2.6544481275
 30
0.0
 11
0.182103415
 21
-2.6544481275
 31
0.0
  0
LINE
  5
58E
330
1F
100
AcDbEntity
  8
0
  6
Continuous
 62
     7
370
    25
100
AcDbLine
 10
0.1978514465
 20
-2.6623221432
 30
0.0
 11
0.182103415
 21
-2.6623221432
 31
0.0
  0
LINE
  5
58F
330
1F
100
AcDbEntity
  8
0
  6
Continuous
 62
     7
370
    25
100
AcDbLine
 10
0.1978514465
 20
-2.4280701747
 30
0.0
 11
0.182103415
 21
-2.4280701747
 31
0.0
  0
LINE
  5
590
330
1F
100
AcDbEntity
  8
0
  6
Continuous
 62
     7
370
    25
100
AcDbLine
 10
0.182103415
 20
-2.4280701747
 30
0.0
 11
0.182103415
 21
-2.4635032456
 31
0.0
  0
LINE
  5
591
330
1F
100
AcDbEntity
  8
0
  6
Continuous
 62
     7
370
    25
100
AcDbLine
 10
0.1840719189
 20
-2.4123221432
 30
0.0
 11
0.182103415
 21
-2.4280701747
 31
0.0
  0
LINE
  5
592
330
1F
100
AcDbEntity
  8
0
  6
Continuous
 62
     7
370
    25
100
AcDbLine
 10
0.1958829426
 20
-2.4123221432
 30
0.0
 11
0.1840719189
 21
-2.4123221432
 31
0.0
  0
LINE
  5
593
330
1F
100
AcDbEntity
  8
0
  6
Continuous
 62
     7
370
    25
100
AcDbLine
 10
0.1958829426
 20
-2.4123221432
 30
0.0
 11
0.1978514465
 21
-2.4280701747
 31
0.0
  0
LINE
  5
594
330
1F
100
AcDbEntity
  8
0
  6
Continuous
 62
     7
370
    25
100
AcDbLine
 10
0.4754105016
 20
-2.4123221432
 30
0.0
 11
0.4872215252
 21
-2.4123221432
 31
0.0
  0
LINE
  5
595
330
1F
100
AcDbEntity
  8
0
  6
Continuous
 62
     7
370
    25
100
AcDbLine
 10
0.4872215252
 20
-2.4123221432
 30
0.0
 11
0.4891900292
 21
-2.4280701747
 31
0.0
  0
LINE
  5
596
330
1F
100
AcDbEntity
  8
0
  6
Continuous
 62
     7
370
    25
100
AcDbLine
 10
0.4734419977
 20
-2.4280701747
 30
0.0
 11
0.4891900292
 21
-2.4280701747
 31
0.0
  0
LINE
  5
597
330
1F
100
AcDbEntity
  8
0
  6
Continuous
 62
     7
370
    25
100
AcDbLine
 10
0.4754105016
 20
-2.4123221432
 30
0.0
 11
0.4734419977
 21
-2.4280701747
 31
0.0
  0
LINE
  5
598
330
1F
100
AcDbEntity
  8
0
  6
Continuous
 62
     7
370
    25
100
AcDbLine
 10
0.4891900292
 20
-2.4280701747
 30
0.0
 11
0.4891900292
 21
-2.4635032456
 31
0.0
  0
LINE
  5
599
330
1F
100
AcDbEntity
  8
0
  6
Continuous
 62
     7
370
    25
100
AcDbLine
 10
0.3858435725
 20
-2.5914560015
 30
0.0
 11
0.2854498717
 21
-2.5914560015
 31
0.0
  0
LINE
  5
59A
330
1F
100
AcDbEntity
  8
0
  6
Continuous
 62
     7
370
    25
100
AcDbLine
 10
0.2116309741
 20
-2.6918497023
 30
0.0
 11
0.2116309741
 21
-2.668227655
 31
0.0
  0
LINE
  5
59B
330
1F
100
AcDbEntity
  8
0
  6
Continuous
 62
     7
370
    25
100
AcDbLine
 10
0.2116309741
 20
-2.6761016708
 30
0.0
 11
0.182103415
 21
-2.6761016708
 31
0.0
  0
LINE
  5
59C
330
1F
100
AcDbEntity
  8
0
  6
Continuous
 62
     7
370
    25
100
AcDbLine
 10
0.4596624701
 20
-2.6761016708
 30
0.0
 11
0.4891900292
 21
-2.6761016708
 31
0.0
  0
LINE
  5
59D
330
1F
100
AcDbEntity
  8
0
  6
Continuous
 62
     7
370
    25
100
AcDbLine
 10
0.4596624701
 20
-2.668227655
 30
0.0
 11
0.4596624701
 21
-2.6918497023
 31
0.0
  0
LINE
  5
59E
330
1F
100
AcDbEntity
  8
0
  6
Continuous
 62
     7
370
    25
100
AcDbLine
 10
0.4596624701
 20
-2.6761016708
 30
0.0
 11
0.4517884544
 21
-2.6703940036
 31
0.0
  0
LINE
  5
59F
330
1F
100
AcDbEntity
  8
0
  6
Continuous
 62
     7
370
    25
100
AcDbLine
 10
0.4517884544
 20
-2.668227655
 30
0.0
 11
0.4517884544
 21
-2.6800386786
 31
0.0
  0
LINE
  5
5A0
330
1F
100
AcDbEntity
  8
0
  6
Continuous
 62
     7
370
    25
100
AcDbLine
 10
0.2116309741
 20
-2.6761016708
 30
0.0
 11
0.2195049898
 21
-2.6703940036
 31
0.0
  0
LINE
  5
5A1
330
1F
100
AcDbEntity
  8
0
  6
Continuous
 62
     7
370
    25
100
AcDbLine
 10
0.2195049898
 20
-2.6800386786
 30
0.0
 11
0.2195049898
 21
-2.668227655
 31
0.0
  0
LINE
  5
5A2
330
1F
100
AcDbEntity
  8
0
  6
Continuous
 62
     7
370
    25
100
AcDbLine
 10
0.1624183756
 20
-2.4261016708
 30
0.0
 11
0.182349478
 21
-2.4261016708
 31
0.0
  0
LINE
  5
5A3
330
1F
100
AcDbEntity
  8
0
  6
Continuous
 62
     7
370
    25
100
AcDbLine
 10
0.5088750686
 20
-2.4261016708
 30
0.0
 11
0.4889439662
 21
-2.4261016708
 31
0.0
  0
LINE
  5
5A4
330
1F
100
AcDbEntity
  8
0
  6
Continuous
 62
     7
370
    25
100
AcDbLine
 10
0.2116309741
 20
-2.6918497023
 30
0.0
 11
0.2134836837
 21
-2.695091944
 31
0.0
  0
LINE
  5
5A5
330
1F
100
AcDbEntity
  8
0
  6
Continuous
 62
     7
370
    25
100
AcDbLine
 10
0.2116309741
 20
-2.699723718
 30
0.0
 11
0.2195049898
 21
-2.6800386786
 31
0.0
  0
LINE
  5
5A6
330
1F
100
AcDbEntity
  8
0
  6
Continuous
 62
     7
370
    25
100
AcDbLine
 10
0.4578097605
 20
-2.695091944
 30
0.0
 11
0.4596624701
 21
-2.6918497023
 31
0.0
  0
LINE
  5
5A7
330
1F
100
AcDbEntity
  8
0
  6
Continuous
 62
     7
370
    25
100
AcDbLine
 10
0.4596624701
 20
-2.699723718
 30
0.0
 11
0.4517884544
 21
-2.6800386786
 31
0.0
  0
LINE
  5
5A8
330
1F
100
AcDbEntity
  8
0
  6
Continuous
 62
     7
370
    25
100
AcDbLine
 10
0.4734419977
 20
-2.6918497023
 30
0.0
 11
0.4596624701
 21
-2.6918497023
 31
0.0
  0
LINE
  5
5A9
330
1F
100
AcDbEntity
  8
0
  6
Continuous
 62
     7
370
    25
100
AcDbLine
 10
0.2116309741
 20
-2.6918497023
 30
0.0
 11
0.1978514465
 21
-2.6918497023
 31
0.0
  0
LINE
  5
5AA
330
1F
100
AcDbEntity
  8
0
  6
Continuous
 62
     7
370
    25
100
AcDbLine
 10
0.1978514465
 20
-2.6918497023
 30
0.0
 11
0.2017884544
 21
-2.699723718
 31
0.0
  0
LINE
  5
5AB
330
1F
100
AcDbEntity
  8
0
  6
Continuous
 62
     7
370
    25
100
AcDbLine
 10
0.4695049898
 20
-2.699723718
 30
0.0
 11
0.4734419977
 21
-2.6918497023
 31
0.0
  0
LINE
  5
5AC
330
1F
100
AcDbEntity
  8
0
  6
Continuous
 62
     7
370
    25
100
AcDbLine
 10
0.2332845174
 20
-2.418227655
 30
0.0
 11
0.1966211315
 21
-2.418227655
 31
0.0
  0
LINE
  5
5AD
330
1F
100
AcDbEntity
  8
0
  6
Continuous
 62
     7
370
    25
100
AcDbLine
 10
0.18333373
 20
-2.418227655
 30
0.0
 11
0.1624183756
 21
-2.418227655
 31
0.0
  0
LINE
  5
5AE
330
1F
100
AcDbEntity
  8
0
  6
Continuous
 62
     7
370
    25
100
AcDbLine
 10
0.1624183756
 20
-2.418227655
 30
0.0
 11
0.1663553835
 21
-2.4142906471
 31
0.0
  0
LINE
  5
5AF
330
1F
100
AcDbEntity
  8
0
  6
Continuous
 62
     7
370
    25
100
AcDbLine
 10
0.183825856
 20
-2.4142906471
 30
0.0
 11
0.1663553835
 21
-2.4142906471
 31
0.0
  0
LINE
  5
5B0
330
1F
100
AcDbEntity
  8
0
  6
Continuous
 62
     7
370
    25
100
AcDbLine
 10
0.5088750686
 20
-2.418227655
 30
0.0
 11
0.4879597142
 21
-2.418227655
 31
0.0
  0
LINE
  5
5B1
330
1F
100
AcDbEntity
  8
0
  6
Continuous
 62
     7
370
    25
100
AcDbLine
 10
0.4746723126
 20
-2.418227655
 30
0.0
 11
0.4380089268
 21
-2.418227655
 31
0.0
  0
LINE
  5
5B2
330
1F
100
AcDbEntity
  8
0
  6
Continuous
 62
     7
370
    25
100
AcDbLine
 10
0.5049380607
 20
-2.4142906471
 30
0.0
 11
0.4874675882
 21
-2.4142906471
 31
0.0
  0
LINE
  5
5B3
330
1F
100
AcDbEntity
  8
0
  6
Continuous
 62
     7
370
    25
100
AcDbLine
 10
0.5049380607
 20
-2.4142906471
 30
0.0
 11
0.5088750686
 21
-2.418227655
 31
0.0
  0
LINE
  5
5B4
330
1F
100
AcDbEntity
  8
0
  6
Continuous
 62
     7
370
    25
100
AcDbLine
 10
0.432103415
 20
-2.668227655
 30
0.0
 11
0.432103415
 21
-2.6721646629
 31
0.0
  0
LINE
  5
5B5
330
1F
100
AcDbEntity
  8
0
  6
Continuous
 62
     7
370
    25
100
AcDbLine
 10
0.432103415
 20
-2.6689601216
 30
0.0
 11
0.4202923914
 21
-2.6689601216
 31
0.0
  0
LINE
  5
5B6
330
1F
100
AcDbEntity
  8
0
  6
Continuous
 62
     7
370
    25
100
AcDbLine
 10
0.4202923914
 20
-2.668227655
 30
0.0
 11
0.4202923914
 21
-2.6721646629
 31
0.0
  0
LINE
  5
5B7
330
1F
100
AcDbEntity
  8
0
  6
Continuous
 62
     7
370
    25
100
AcDbLine
 10
0.2391900292
 20
-2.6721646629
 30
0.0
 11
0.2195049898
 21
-2.6721646629
 31
0.0
  0
LINE
  5
5B8
330
1F
100
AcDbEntity
  8
0
  6
Continuous
 62
     7
370
    25
100
AcDbLine
 10
0.2391900292
 20
-2.668227655
 30
0.0
 11
0.2391900292
 21
-2.6721646629
 31
0.0
  0
LINE
  5
5B9
330
1F
100
AcDbEntity
  8
0
  6
Continuous
 62
     7
370
    25
100
AcDbLine
 10
0.2391900292
 20
-2.6689601216
 30
0.0
 11
0.2510010528
 21
-2.6689601216
 31
0.0
  0
LINE
  5
5BA
330
1F
100
AcDbEntity
  8
0
  6
Continuous
 62
     7
370
    25
100
AcDbLine
 10
0.2510010528
 20
-2.668227655
 30
0.0
 11
0.2510010528
 21
-2.6721646629
 31
0.0
  0
LINE
  5
5BB
330
1F
100
AcDbEntity
  8
0
  6
Continuous
 62
     7
370
    25
100
AcDbLine
 10
0.2982451473
 20
-2.6721646629
 30
0.0
 11
0.2510010528
 21
-2.6721646629
 31
0.0
  0
LINE
  5
5BC
330
1F
100
AcDbEntity
  8
0
  6
Continuous
 62
     7
370
    25
100
AcDbLine
 10
0.2982451473
 20
-2.668227655
 30
0.0
 11
0.2982451473
 21
-2.6869055528
 31
0.0
  0
LINE
  5
5BD
330
1F
100
AcDbEntity
  8
0
  6
Continuous
 62
     7
370
    25
100
AcDbLine
 10
0.2982451473
 20
-2.6869055528
 30
0.0
 11
0.3730482969
 21
-2.6869055528
 31
0.0
  0
LINE
  5
5BE
330
1F
100
AcDbEntity
  8
0
  6
Continuous
 62
     7
370
    25
100
AcDbLine
 10
0.3730482969
 20
-2.668227655
 30
0.0
 11
0.3730482969
 21
-2.6869055528
 31
0.0
  0
LINE
  5
5BF
330
1F
100
AcDbEntity
  8
0
  6
Continuous
 62
     7
370
    25
100
AcDbLine
 10
0.4202923914
 20
-2.6721646629
 30
0.0
 11
0.3730482969
 21
-2.6721646629
 31
0.0
  0
LINE
  5
5C0
330
1F
100
AcDbEntity
  8
0
  6
Continuous
 62
     7
370
    25
100
AcDbLine
 10
0.4517884544
 20
-2.6721646629
 30
0.0
 11
0.432103415
 21
-2.6721646629
 31
0.0
  0
LINE
  5
5C1
330
1F
100
AcDbEntity
  8
0
  6
Continuous
 62
     7
370
    25
100
AcDbLine
 10
0.3897805804
 20
-2.3650780487
 30
0.0
 11
0.3897805804
 21
-2.4201961589
 31
0.0
  0
LINE
  5
5C2
330
1F
100
AcDbEntity
  8
0
  6
Continuous
 62
     7
370
    25
100
AcDbLine
 10
0.2815128638
 20
-2.3650780487
 30
0.0
 11
0.2815128638
 21
-2.4201961589
 31
0.0
  0
LINE
  5
5C3
330
1F
100
AcDbEntity
  8
0
  6
Continuous
 62
     7
370
    25
100
AcDbLine
 10
0.3307254623
 20
-2.3650780487
 30
0.0
 11
0.3405679819
 21
-2.3650780487
 31
0.0
  0
LINE
  5
5C4
330
1F
100
AcDbEntity
  8
0
  6
Continuous
 62
     7
370
    25
100
AcDbLine
 10
0.3405679819
 20
-2.3650780487
 30
0.0
 11
0.3405679819
 21
-2.4142906471
 31
0.0
  0
LINE
  5
5C5
330
1F
100
AcDbEntity
  8
0
  6
Continuous
 62
     7
370
    25
100
AcDbLine
 10
0.3307254623
 20
-2.3650780487
 30
0.0
 11
0.3307254623
 21
-2.4142906471
 31
0.0
  0
LINE
  5
5C6
330
1F
100
AcDbEntity
  8
0
  6
Continuous
 62
     7
370
    25
100
AcDbLine
 10
0.3897805804
 20
-2.3650780487
 30
0.0
 11
0.3996231
 21
-2.3650780487
 31
0.0
  0
LINE
  5
5C7
330
1F
100
AcDbEntity
  8
0
  6
Continuous
 62
     7
370
    25
100
AcDbLine
 10
0.3996231
 20
-2.3650780487
 30
0.0
 11
0.3996231
 21
-2.4142906471
 31
0.0
  0
LINE
  5
5C8
330
1F
100
AcDbEntity
  8
0
  6
Continuous
 62
     7
370
    25
100
AcDbLine
 10
0.2716703441
 20
-2.3650780487
 30
0.0
 11
0.2815128638
 21
-2.3650780487
 31
0.0
  0
LINE
  5
5C9
330
1F
100
AcDbEntity
  8
0
  6
Continuous
 62
     7
370
    25
100
AcDbLine
 10
0.2716703441
 20
-2.3650780487
 30
0.0
 11
0.2716703441
 21
-2.4142906471
 31
0.0
  0
LINE
  5
5CA
330
1F
100
AcDbEntity
  8
0
  6
Continuous
 62
     7
370
    25
100
AcDbLine
 10
-0.1712430417
 20
-2.6079914345
 30
0.0
 11
-0.0865973724
 21
-2.6079914345
 31
0.0
  0
LINE
  5
5CB
330
1F
100
AcDbEntity
  8
0
  6
Continuous
 62
     7
370
    25
100
AcDbLine
 10
-0.1712430417
 20
-2.6040544267
 30
0.0
 11
-0.1712430417
 21
-2.6079914345
 31
0.0
  0
LINE
  5
5CC
330
1F
100
AcDbEntity
  8
0
  6
Continuous
 62
     7
370
    25
100
AcDbLine
 10
-0.1712430417
 20
-2.6040544267
 30
0.0
 11
-0.0865973724
 21
-2.6040544267
 31
0.0
  0
LINE
  5
5CD
330
1F
100
AcDbEntity
  8
0
  6
Continuous
 62
     7
370
    25
100
AcDbLine
 10
-0.0865973724
 20
-2.6079914345
 30
0.0
 11
-0.0865973724
 21
-2.6040544267
 31
0.0
  0
LINE
  5
5CE
330
1F
100
AcDbEntity
  8
0
  6
Continuous
 62
     7
370
    25
100
AcDbLine
 10
-0.0787233566
 20
-2.6000700188
 30
0.0
 11
-0.0787233566
 21
-2.5481489149
 31
0.0
  0
LINE
  5
5CF
330
1F
100
AcDbEntity
  8
0
  6
Continuous
 62
     7
370
    25
100
AcDbLine
 10
-0.1791170574
 20
-2.5481489149
 30
0.0
 11
-0.0787233566
 21
-2.5481489149
 31
0.0
  0
LINE
  5
5D0
330
1F
100
AcDbEntity
  8
0
  6
Continuous
 62
     7
370
    25
100
AcDbLine
 10
-0.1791170574
 20
-2.6000700188
 30
0.0
 11
-0.1791170574
 21
-2.5481489149
 31
0.0
  0
LINE
  5
5D1
330
1F
100
AcDbEntity
  8
0
  6
Continuous
 62
     7
370
    25
100
AcDbLine
 10
-0.2588414669
 20
-2.5914560015
 30
0.0
 11
-0.2588414669
 21
-2.6642906471
 31
0.0
  0
LINE
  5
5D2
330
1F
100
AcDbEntity
  8
0
  6
Continuous
 62
     7
370
    25
100
AcDbLine
 10
-0.3021485535
 20
-2.5914560015
 30
0.0
 11
-0.2588414669
 21
-2.5914560015
 31
0.0
  0
LINE
  5
5D3
330
1F
100
AcDbEntity
  8
0
  6
Continuous
 62
     7
370
    25
100
AcDbLine
 10
-0.2942745377
 20
-2.5914560015
 30
0.0
 11
-0.2942745377
 21
-2.4635032456
 31
0.0
  0
LINE
  5
5D4
330
1F
100
AcDbEntity
  8
0
  6
Continuous
 62
     7
370
    25
100
AcDbLine
 10
-0.3021485535
 20
-2.4635032456
 30
0.0
 11
-0.2667154826
 21
-2.4635032456
 31
0.0
  0
LINE
  5
5D5
330
1F
100
AcDbEntity
  8
0
  6
Continuous
 62
     7
370
    25
100
AcDbLine
 10
-0.2667154826
 20
-2.4261016708
 30
0.0
 11
-0.2667154826
 21
-2.4635032456
 31
0.0
  0
LINE
  5
5D6
330
1F
100
AcDbEntity
  8
0
  6
Continuous
 62
     7
370
    25
100
AcDbLine
 10
-0.2669615456
 20
-2.4261016708
 30
0.0
 11
-0.2312824118
 21
-2.4261016708
 31
0.0
  0
LINE
  5
5D7
330
1F
100
AcDbEntity
  8
0
  6
Continuous
 62
     7
370
    25
100
AcDbLine
 10
-0.2312824118
 20
-2.4261016708
 30
0.0
 11
-0.2312824118
 21
-2.4142906471
 31
0.0
  0
LINE
  5
5D8
330
1F
100
AcDbEntity
  8
0
  6
Continuous
 62
     7
370
    25
100
AcDbLine
 10
-0.2684379236
 20
-2.4142906471
 30
0.0
 11
-0.1830540653
 21
-2.4142906471
 31
0.0
  0
LINE
  5
5D9
330
1F
100
AcDbEntity
  8
0
  6
Continuous
 62
     7
370
    25
100
AcDbLine
 10
-0.1899438291
 20
-2.4261016708
 30
0.0
 11
-0.1899438291
 21
-2.4142906471
 31
0.0
  0
LINE
  5
5DA
330
1F
100
AcDbEntity
  8
0
  6
Continuous
 62
     7
370
    25
100
AcDbLine
 10
-0.1899438291
 20
-2.4261016708
 30
0.0
 11
-0.1643532779
 21
-2.4261016708
 31
0.0
  0
LINE
  5
5DB
330
1F
100
AcDbEntity
  8
0
  6
Continuous
 62
     7
370
    25
100
AcDbLine
 10
-0.1643532779
 20
-2.4261016708
 30
0.0
 11
-0.1643532779
 21
-2.420196159
 31
0.0
  0
LINE
  5
5DC
330
1F
100
AcDbEntity
  8
0
  6
Continuous
 62
     7
370
    25
100
AcDbLine
 10
-0.1899438291
 20
-2.4201961589
 30
0.0
 11
-0.1486052464
 21
-2.4201961589
 31
0.0
  0
LINE
  5
5DD
330
1F
100
AcDbEntity
  8
0
  6
Continuous
 62
     7
370
    25
100
AcDbLine
 10
-0.1486052464
 20
-2.420196159
 30
0.0
 11
-0.1486052464
 21
-2.4142906471
 31
0.0
  0
LINE
  5
5DE
330
1F
100
AcDbEntity
  8
0
  6
Continuous
 62
     7
370
    25
100
AcDbLine
 10
-0.1486052464
 20
-2.4142906471
 30
0.0
 11
-0.1092351677
 21
-2.4142906471
 31
0.0
  0
LINE
  5
5DF
330
1F
100
AcDbEntity
  8
0
  6
Continuous
 62
     7
370
    25
100
AcDbLine
 10
-0.1092351677
 20
-2.420196159
 30
0.0
 11
-0.1092351677
 21
-2.4142906471
 31
0.0
  0
LINE
  5
5E0
330
1F
100
AcDbEntity
  8
0
  6
Continuous
 62
     7
370
    25
100
AcDbLine
 10
-0.1092351677
 20
-2.4201961589
 30
0.0
 11
-0.067896585
 21
-2.4201961589
 31
0.0
  0
LINE
  5
5E1
330
1F
100
AcDbEntity
  8
0
  6
Continuous
 62
     7
370
    25
100
AcDbLine
 10
-0.0934871362
 20
-2.4261016708
 30
0.0
 11
-0.0934871362
 21
-2.420196159
 31
0.0
  0
LINE
  5
5E2
330
1F
100
AcDbEntity
  8
0
  6
Continuous
 62
     7
370
    25
100
AcDbLine
 10
-0.0934871362
 20
-2.4261016708
 30
0.0
 11
-0.067896585
 21
-2.4261016708
 31
0.0
  0
LINE
  5
5E3
330
1F
100
AcDbEntity
  8
0
  6
Continuous
 62
     7
370
    25
100
AcDbLine
 10
-0.067896585
 20
-2.4261016708
 30
0.0
 11
-0.067896585
 21
-2.4142906471
 31
0.0
  0
LINE
  5
5E4
330
1F
100
AcDbEntity
  8
0
  6
Continuous
 62
     7
370
    25
100
AcDbLine
 10
-0.0747863488
 20
-2.4142906471
 30
0.0
 11
0.0105975095
 21
-2.4142906471
 31
0.0
  0
LINE
  5
5E5
330
1F
100
AcDbEntity
  8
0
  6
Continuous
 62
     7
370
    25
100
AcDbLine
 10
-0.0265580023
 20
-2.4261016708
 30
0.0
 11
-0.0265580023
 21
-2.4142906471
 31
0.0
  0
LINE
  5
5E6
330
1F
100
AcDbEntity
  8
0
  6
Continuous
 62
     7
370
    25
100
AcDbLine
 10
-0.0265580023
 20
-2.4261016708
 30
0.0
 11
0.0091211315
 21
-2.4261016708
 31
0.0
  0
LINE
  5
5E7
330
1F
100
AcDbEntity
  8
0
  6
Continuous
 62
     7
370
    25
100
AcDbLine
 10
0.0088750686
 20
-2.4261016708
 30
0.0
 11
0.0088750686
 21
-2.4635032456
 31
0.0
  0
LINE
  5
5E8
330
1F
100
AcDbEntity
  8
0
  6
Continuous
 62
     7
370
    25
100
AcDbLine
 10
0.0443081394
 20
-2.4635032456
 30
0.0
 11
0.0088750686
 21
-2.4635032456
 31
0.0
  0
LINE
  5
5E9
330
1F
100
AcDbEntity
  8
0
  6
Continuous
 62
     7
370
    25
100
AcDbLine
 10
0.0364341237
 20
-2.4635032456
 30
0.0
 11
0.0364341237
 21
-2.5914560015
 31
0.0
  0
LINE
  5
5EA
330
1F
100
AcDbEntity
  8
0
  6
Continuous
 62
     7
370
    25
100
AcDbLine
 10
0.0010010528
 20
-2.5914560015
 30
0.0
 11
0.0443081394
 21
-2.5914560015
 31
0.0
  0
LINE
  5
5EB
330
1F
100
AcDbEntity
  8
0
  6
Continuous
 62
     7
370
    25
100
AcDbLine
 10
0.0010010528
 20
-2.6642906471
 30
0.0
 11
0.0010010528
 21
-2.5914560015
 31
0.0
  0
LINE
  5
5EC
330
1F
100
AcDbEntity
  8
0
  6
Continuous
 62
     7
370
    25
100
AcDbLine
 10
0.0010010528
 20
-2.6642906471
 30
0.0
 11
-0.2588414669
 21
-2.6642906471
 31
0.0
  0
LINE
  5
5ED
330
1F
100
AcDbEntity
  8
0
  6
Continuous
 62
     7
370
    25
100
AcDbLine
 10
0.0049380607
 20
-2.668227655
 30
0.0
 11
0.0010010528
 21
-2.6642906471
 31
0.0
  0
LINE
  5
5EE
330
1F
100
AcDbEntity
  8
0
  6
Continuous
 62
     7
370
    25
100
AcDbLine
 10
0.0049380607
 20
-2.668227655
 30
0.0
 11
-0.2627784748
 21
-2.668227655
 31
0.0
  0
LINE
  5
5EF
330
1F
100
AcDbEntity
  8
0
  6
Continuous
 62
     7
370
    25
100
AcDbLine
 10
-0.2588414669
 20
-2.6642906471
 30
0.0
 11
-0.2627784748
 21
-2.668227655
 31
0.0
  0
LINE
  5
5F0
330
1F
100
AcDbEntity
  8
0
  6
Continuous
 62
     7
370
    25
100
AcDbLine
 10
0.0049380607
 20
-2.668227655
 30
0.0
 11
0.0088750686
 21
-2.6524796235
 31
0.0
  0
LINE
  5
5F1
330
1F
100
AcDbEntity
  8
0
  6
Continuous
 62
     7
370
    25
100
AcDbLine
 10
0.0088750686
 20
-2.5914560015
 30
0.0
 11
0.0088750686
 21
-2.6918497023
 31
0.0
  0
LINE
  5
5F2
330
1F
100
AcDbEntity
  8
0
  6
Continuous
 62
     7
370
    25
100
AcDbLine
 10
-0.2627784748
 20
-2.668227655
 30
0.0
 11
-0.2667154826
 21
-2.6524796235
 31
0.0
  0
LINE
  5
5F3
330
1F
100
AcDbEntity
  8
0
  6
Continuous
 62
     7
370
    25
100
AcDbLine
 10
-0.3021485535
 20
-2.5914560015
 30
0.0
 11
-0.3021485535
 21
-2.418227655
 31
0.0
  0
LINE
  5
5F4
330
1F
100
AcDbEntity
  8
0
  6
Continuous
 62
     7
370
    25
100
AcDbLine
 10
0.0443081394
 20
-2.418227655
 30
0.0
 11
0.0443081394
 21
-2.5914560015
 31
0.0
  0
LINE
  5
5F5
330
1F
100
AcDbEntity
  8
0
  6
Continuous
 62
     7
370
    25
100
AcDbLine
 10
-0.2667154826
 20
-2.6406685999
 30
0.0
 11
-0.2824635141
 21
-2.6406685999
 31
0.0
  0
LINE
  5
5F6
330
1F
100
AcDbEntity
  8
0
  6
Continuous
 62
     7
370
    25
100
AcDbLine
 10
-0.2667154826
 20
-2.6233457652
 30
0.0
 11
-0.2824635141
 21
-2.6233457652
 31
0.0
  0
LINE
  5
5F7
330
1F
100
AcDbEntity
  8
0
  6
Continuous
 62
     7
370
    25
100
AcDbLine
 10
0.0088750686
 20
-2.6233457652
 30
0.0
 11
0.0246231
 21
-2.6233457652
 31
0.0
  0
LINE
  5
5F8
330
1F
100
AcDbEntity
  8
0
  6
Continuous
 62
     7
370
    25
100
AcDbLine
 10
0.0246231
 20
-2.5914560015
 30
0.0
 11
0.0246231
 21
-2.6761016708
 31
0.0
  0
LINE
  5
5F9
330
1F
100
AcDbEntity
  8
0
  6
Continuous
 62
     7
370
    25
100
AcDbLine
 10
0.0088750686
 20
-2.6406685999
 30
0.0
 11
0.0246231
 21
-2.6406685999
 31
0.0
  0
LINE
  5
5FA
330
1F
100
AcDbEntity
  8
0
  6
Continuous
 62
     7
370
    25
100
AcDbLine
 10
-0.2667154826
 20
-2.5934245054
 30
0.0
 11
-0.2824635141
 21
-2.5934245054
 31
0.0
  0
LINE
  5
5FB
330
1F
100
AcDbEntity
  8
0
  6
Continuous
 62
     7
370
    25
100
AcDbLine
 10
0.0088750686
 20
-2.5934245054
 30
0.0
 11
0.0246231
 21
-2.5934245054
 31
0.0
  0
LINE
  5
5FC
330
1F
100
AcDbEntity
  8
0
  6
Continuous
 62
     7
370
    25
100
AcDbLine
 10
0.0088750686
 20
-2.6544481275
 30
0.0
 11
0.0246231
 21
-2.6544481275
 31
0.0
  0
LINE
  5
5FD
330
1F
100
AcDbEntity
  8
0
  6
Continuous
 62
     7
370
    25
100
AcDbLine
 10
-0.2667154826
 20
-2.6623221432
 30
0.0
 11
-0.2824635141
 21
-2.6623221432
 31
0.0
  0
LINE
  5
5FE
330
1F
100
AcDbEntity
  8
0
  6
Continuous
 62
     7
370
    25
100
AcDbLine
 10
-0.2667154826
 20
-2.6544481275
 30
0.0
 11
-0.2824635141
 21
-2.6544481275
 31
0.0
  0
LINE
  5
5FF
330
1F
100
AcDbEntity
  8
0
  6
Continuous
 62
     7
370
    25
100
AcDbLine
 10
-0.2667154826
 20
-2.5914560015
 30
0.0
 11
-0.2667154826
 21
-2.6918497023
 31
0.0
  0
LINE
  5
600
330
1F
100
AcDbEntity
  8
0
  6
Continuous
 62
     7
370
    25
100
AcDbLine
 10
-0.2824635141
 20
-2.5914560015
 30
0.0
 11
-0.2824635141
 21
-2.6761016708
 31
0.0
  0
LINE
  5
601
330
1F
100
AcDbEntity
  8
0
  6
Continuous
 62
     7
370
    25
100
AcDbLine
 10
0.0088750686
 20
-2.6623221432
 30
0.0
 11
0.0246231
 21
-2.6623221432
 31
0.0
  0
LINE
  5
602
330
1F
100
AcDbEntity
  8
0
  6
Continuous
 62
     7
370
    25
100
AcDbLine
 10
0.0108435725
 20
-2.4123221432
 30
0.0
 11
0.0088750686
 21
-2.4280701747
 31
0.0
  0
LINE
  5
603
330
1F
100
AcDbEntity
  8
0
  6
Continuous
 62
     7
370
    25
100
AcDbLine
 10
0.0108435725
 20
-2.4123221432
 30
0.0
 11
0.0226545961
 21
-2.4123221432
 31
0.0
  0
LINE
  5
604
330
1F
100
AcDbEntity
  8
0
  6
Continuous
 62
     7
370
    25
100
AcDbLine
 10
0.0226545961
 20
-2.4123221432
 30
0.0
 11
0.0246231
 21
-2.4280701747
 31
0.0
  0
LINE
  5
605
330
1F
100
AcDbEntity
  8
0
  6
Continuous
 62
     7
370
    25
100
AcDbLine
 10
0.0088750686
 20
-2.4280701747
 30
0.0
 11
0.0246231
 21
-2.4280701747
 31
0.0
  0
LINE
  5
606
330
1F
100
AcDbEntity
  8
0
  6
Continuous
 62
     7
370
    25
100
AcDbLine
 10
-0.2686839866
 20
-2.4123221432
 30
0.0
 11
-0.2667154826
 21
-2.4280701747
 31
0.0
  0
LINE
  5
607
330
1F
100
AcDbEntity
  8
0
  6
Continuous
 62
     7
370
    25
100
AcDbLine
 10
-0.2667154826
 20
-2.4280701747
 30
0.0
 11
-0.2824635141
 21
-2.4280701747
 31
0.0
  0
LINE
  5
608
330
1F
100
AcDbEntity
  8
0
  6
Continuous
 62
     7
370
    25
100
AcDbLine
 10
-0.2804950102
 20
-2.4123221432
 30
0.0
 11
-0.2824635141
 21
-2.4280701747
 31
0.0
  0
LINE
  5
609
330
1F
100
AcDbEntity
  8
0
  6
Continuous
 62
     7
370
    25
100
AcDbLine
 10
-0.2686839866
 20
-2.4123221432
 30
0.0
 11
-0.2804950102
 21
-2.4123221432
 31
0.0
  0
LINE
  5
60A
330
1F
100
AcDbEntity
  8
0
  6
Continuous
 62
     7
370
    25
100
AcDbLine
 10
-0.2824635141
 20
-2.4280701747
 30
0.0
 11
-0.2824635141
 21
-2.4635032456
 31
0.0
  0
LINE
  5
60B
330
1F
100
AcDbEntity
  8
0
  6
Continuous
 62
     7
370
    25
100
AcDbLine
 10
0.0246231
 20
-2.4280701747
 30
0.0
 11
0.0246231
 21
-2.4635032456
 31
0.0
  0
LINE
  5
60C
330
1F
100
AcDbEntity
  8
0
  6
Continuous
 62
     7
370
    25
100
AcDbLine
 10
-0.0787233566
 20
-2.5914560015
 30
0.0
 11
-0.1791170574
 21
-2.5914560015
 31
0.0
  0
LINE
  5
60D
330
1F
100
AcDbEntity
  8
0
  6
Continuous
 62
     7
370
    25
100
AcDbLine
 10
-0.004904459
 20
-2.6761016708
 30
0.0
 11
0.0246231
 21
-2.6761016708
 31
0.0
  0
LINE
  5
60E
330
1F
100
AcDbEntity
  8
0
  6
Continuous
 62
     7
370
    25
100
AcDbLine
 10
-0.004904459
 20
-2.668227655
 30
0.0
 11
-0.004904459
 21
-2.6918497023
 31
0.0
  0
LINE
  5
60F
330
1F
100
AcDbEntity
  8
0
  6
Continuous
 62
     7
370
    25
100
AcDbLine
 10
-0.2529359551
 20
-2.6918497023
 30
0.0
 11
-0.2529359551
 21
-2.668227655
 31
0.0
  0
LINE
  5
610
330
1F
100
AcDbEntity
  8
0
  6
Continuous
 62
     7
370
    25
100
AcDbLine
 10
-0.2529359551
 20
-2.6761016708
 30
0.0
 11
-0.2824635141
 21
-2.6761016708
 31
0.0
  0
LINE
  5
611
330
1F
100
AcDbEntity
  8
0
  6
Continuous
 62
     7
370
    25
100
AcDbLine
 10
-0.004904459
 20
-2.6761016708
 30
0.0
 11
-0.0127784748
 21
-2.6703940036
 31
0.0
  0
LINE
  5
612
330
1F
100
AcDbEntity
  8
0
  6
Continuous
 62
     7
370
    25
100
AcDbLine
 10
-0.0127784748
 20
-2.668227655
 30
0.0
 11
-0.0127784748
 21
-2.6800386786
 31
0.0
  0
LINE
  5
613
330
1F
100
AcDbEntity
  8
0
  6
Continuous
 62
     7
370
    25
100
AcDbLine
 10
-0.2529359551
 20
-2.6761016708
 30
0.0
 11
-0.2450619393
 21
-2.6703940036
 31
0.0
  0
LINE
  5
614
330
1F
100
AcDbEntity
  8
0
  6
Continuous
 62
     7
370
    25
100
AcDbLine
 10
-0.2450619393
 20
-2.6800386786
 30
0.0
 11
-0.2450619393
 21
-2.668227655
 31
0.0
  0
LINE
  5
615
330
1F
100
AcDbEntity
  8
0
  6
Continuous
 62
     7
370
    25
100
AcDbLine
 10
-0.3021485535
 20
-2.4261016708
 30
0.0
 11
-0.2822174511
 21
-2.4261016708
 31
0.0
  0
LINE
  5
616
330
1F
100
AcDbEntity
  8
0
  6
Continuous
 62
     7
370
    25
100
AcDbLine
 10
0.0443081394
 20
-2.4261016708
 30
0.0
 11
0.0243770371
 21
-2.4261016708
 31
0.0
  0
LINE
  5
617
330
1F
100
AcDbEntity
  8
0
  6
Continuous
 62
     7
370
    25
100
AcDbLine
 10
-0.2529359551
 20
-2.6918497023
 30
0.0
 11
-0.2510832455
 21
-2.695091944
 31
0.0
  0
LINE
  5
618
330
1F
100
AcDbEntity
  8
0
  6
Continuous
 62
     7
370
    25
100
AcDbLine
 10
-0.2529359551
 20
-2.699723718
 30
0.0
 11
-0.2450619393
 21
-2.6800386786
 31
0.0
  0
LINE
  5
619
330
1F
100
AcDbEntity
  8
0
  6
Continuous
 62
     7
370
    25
100
AcDbLine
 10
-0.2667154826
 20
-2.6918497023
 30
0.0
 11
-0.2627784748
 21
-2.699723718
 31
0.0
  0
LINE
  5
61A
330
1F
100
AcDbEntity
  8
0
  6
Continuous
 62
     7
370
    25
100
AcDbLine
 10
-0.2529359551
 20
-2.6918497023
 30
0.0
 11
-0.2667154826
 21
-2.6918497023
 31
0.0
  0
LINE
  5
61B
330
1F
100
AcDbEntity
  8
0
  6
Continuous
 62
     7
370
    25
100
AcDbLine
 10
0.0088750686
 20
-2.6918497023
 30
0.0
 11
-0.004904459
 21
-2.6918497023
 31
0.0
  0
LINE
  5
61C
330
1F
100
AcDbEntity
  8
0
  6
Continuous
 62
     7
370
    25
100
AcDbLine
 10
-0.004904459
 20
-2.699723718
 30
0.0
 11
-0.0127784748
 21
-2.6800386786
 31
0.0
  0
LINE
  5
61D
330
1F
100
AcDbEntity
  8
0
  6
Continuous
 62
     7
370
    25
100
AcDbLine
 10
-0.0067571686
 20
-2.695091944
 30
0.0
 11
-0.004904459
 21
-2.6918497023
 31
0.0
  0
LINE
  5
61E
330
1F
100
AcDbEntity
  8
0
  6
Continuous
 62
     7
370
    25
100
AcDbLine
 10
-0.5643532779
 20
-2.699723718
 30
0.0
 11
1.2356467221
 21
-2.699723718
 31
0.0
  0
LINE
  5
61F
330
1F
100
AcDbEntity
  8
0
  6
Continuous
 62
     7
370
    25
100
AcDbLine
 10
0.0049380607
 20
-2.699723718
 30
0.0
 11
0.0088750686
 21
-2.6918497023
 31
0.0
  0
LINE
  5
620
330
1F
100
AcDbEntity
  8
0
  6
Continuous
 62
     7
370
    25
100
AcDbLine
 10
0.0443081394
 20
-2.418227655
 30
0.0
 11
0.0233927851
 21
-2.418227655
 31
0.0
  0
LINE
  5
621
330
1F
100
AcDbEntity
  8
0
  6
Continuous
 62
     7
370
    25
100
AcDbLine
 10
0.0101053835
 20
-2.418227655
 30
0.0
 11
-0.0265580023
 21
-2.418227655
 31
0.0
  0
LINE
  5
622
330
1F
100
AcDbEntity
  8
0
  6
Continuous
 62
     7
370
    25
100
AcDbLine
 10
-0.2312824118
 20
-2.418227655
 30
0.0
 11
-0.2679457976
 21
-2.418227655
 31
0.0
  0
LINE
  5
623
330
1F
100
AcDbEntity
  8
0
  6
Continuous
 62
     7
370
    25
100
AcDbLine
 10
-0.2812331992
 20
-2.418227655
 30
0.0
 11
-0.3021485535
 21
-2.418227655
 31
0.0
  0
LINE
  5
624
330
1F
100
AcDbEntity
  8
0
  6
Continuous
 62
     7
370
    25
100
AcDbLine
 10
-0.3021485535
 20
-2.418227655
 30
0.0
 11
-0.2982115456
 21
-2.4142906471
 31
0.0
  0
LINE
  5
625
330
1F
100
AcDbEntity
  8
0
  6
Continuous
 62
     7
370
    25
100
AcDbLine
 10
-0.2807410732
 20
-2.4142906471
 30
0.0
 11
-0.2982115456
 21
-2.4142906471
 31
0.0
  0
LINE
  5
626
330
1F
100
AcDbEntity
  8
0
  6
Continuous
 62
     7
370
    25
100
AcDbLine
 10
0.0403711315
 20
-2.4142906471
 30
0.0
 11
0.0229006591
 21
-2.4142906471
 31
0.0
  0
LINE
  5
627
330
1F
100
AcDbEntity
  8
0
  6
Continuous
 62
     7
370
    25
100
AcDbLine
 10
0.0403711315
 20
-2.4142906471
 30
0.0
 11
0.0443081394
 21
-2.418227655
 31
0.0
  0
LINE
  5
628
330
1F
100
AcDbEntity
  8
0
  6
Continuous
 62
     7
370
    25
100
AcDbLine
 10
-0.2253769
 20
-2.6721646629
 30
0.0
 11
-0.2450619393
 21
-2.6721646629
 31
0.0
  0
LINE
  5
629
330
1F
100
AcDbEntity
  8
0
  6
Continuous
 62
     7
370
    25
100
AcDbLine
 10
-0.2253769
 20
-2.668227655
 30
0.0
 11
-0.2253769
 21
-2.6721646629
 31
0.0
  0
LINE
  5
62A
330
1F
100
AcDbEntity
  8
0
  6
Continuous
 62
     7
370
    25
100
AcDbLine
 10
-0.2253769
 20
-2.6689601216
 30
0.0
 11
-0.2135658763
 21
-2.6689601216
 31
0.0
  0
LINE
  5
62B
330
1F
100
AcDbEntity
  8
0
  6
Continuous
 62
     7
370
    25
100
AcDbLine
 10
-0.2135658763
 20
-2.668227655
 30
0.0
 11
-0.2135658763
 21
-2.6721646629
 31
0.0
  0
LINE
  5
62C
330
1F
100
AcDbEntity
  8
0
  6
Continuous
 62
     7
370
    25
100
AcDbLine
 10
-0.1663217818
 20
-2.6721646629
 30
0.0
 11
-0.2135658763
 21
-2.6721646629
 31
0.0
  0
LINE
  5
62D
330
1F
100
AcDbEntity
  8
0
  6
Continuous
 62
     7
370
    25
100
AcDbLine
 10
-0.1663217818
 20
-2.668227655
 30
0.0
 11
-0.1663217818
 21
-2.6869055528
 31
0.0
  0
LINE
  5
62E
330
1F
100
AcDbEntity
  8
0
  6
Continuous
 62
     7
370
    25
100
AcDbLine
 10
-0.1663217818
 20
-2.6869055528
 30
0.0
 11
-0.0915186322
 21
-2.6869055528
 31
0.0
  0
LINE
  5
62F
330
1F
100
AcDbEntity
  8
0
  6
Continuous
 62
     7
370
    25
100
AcDbLine
 10
-0.0915186322
 20
-2.668227655
 30
0.0
 11
-0.0915186322
 21
-2.6869055528
 31
0.0
  0
LINE
  5
630
330
1F
100
AcDbEntity
  8
0
  6
Continuous
 62
     7
370
    25
100
AcDbLine
 10
-0.0442745377
 20
-2.6721646629
 30
0.0
 11
-0.0915186322
 21
-2.6721646629
 31
0.0
  0
LINE
  5
631
330
1F
100
AcDbEntity
  8
0
  6
Continuous
 62
     7
370
    25
100
AcDbLine
 10
-0.0442745377
 20
-2.668227655
 30
0.0
 11
-0.0442745377
 21
-2.6721646629
 31
0.0
  0
LINE
  5
632
330
1F
100
AcDbEntity
  8
0
  6
Continuous
 62
     7
370
    25
100
AcDbLine
 10
-0.0324635141
 20
-2.6689601216
 30
0.0
 11
-0.0442745377
 21
-2.6689601216
 31
0.0
  0
LINE
  5
633
330
1F
100
AcDbEntity
  8
0
  6
Continuous
 62
     7
370
    25
100
AcDbLine
 10
-0.0324635141
 20
-2.668227655
 30
0.0
 11
-0.0324635141
 21
-2.6721646629
 31
0.0
  0
LINE
  5
634
330
1F
100
AcDbEntity
  8
0
  6
Continuous
 62
     7
370
    25
100
AcDbLine
 10
-0.0127784748
 20
-2.6721646629
 30
0.0
 11
-0.0324635141
 21
-2.6721646629
 31
0.0
  0
LINE
  5
635
330
1F
100
AcDbEntity
  8
0
  6
Continuous
 62
     7
370
    25
100
AcDbLine
 10
-0.1830540653
 20
-2.3650780487
 30
0.0
 11
-0.1830540653
 21
-2.4201961589
 31
0.0
  0
LINE
  5
636
330
1F
100
AcDbEntity
  8
0
  6
Continuous
 62
     7
370
    25
100
AcDbLine
 10
-0.0747863488
 20
-2.3650780487
 30
0.0
 11
-0.0747863488
 21
-2.4201961589
 31
0.0
  0
LINE
  5
637
330
1F
100
AcDbEntity
  8
0
  6
Continuous
 62
     7
370
    25
100
AcDbLine
 10
-0.192896585
 20
-2.3650780487
 30
0.0
 11
-0.1830540653
 21
-2.3650780487
 31
0.0
  0
LINE
  5
638
330
1F
100
AcDbEntity
  8
0
  6
Continuous
 62
     7
370
    25
100
AcDbLine
 10
-0.192896585
 20
-2.3650780487
 30
0.0
 11
-0.192896585
 21
-2.4142906471
 31
0.0
  0
LINE
  5
639
330
1F
100
AcDbEntity
  8
0
  6
Continuous
 62
     7
370
    25
100
AcDbLine
 10
-0.1338414669
 20
-2.3650780487
 30
0.0
 11
-0.1239989472
 21
-2.3650780487
 31
0.0
  0
LINE
  5
63A
330
1F
100
AcDbEntity
  8
0
  6
Continuous
 62
     7
370
    25
100
AcDbLine
 10
-0.1239989472
 20
-2.3650780487
 30
0.0
 11
-0.1239989472
 21
-2.4142906471
 31
0.0
  0
LINE
  5
63B
330
1F
100
AcDbEntity
  8
0
  6
Continuous
 62
     7
370
    25
100
AcDbLine
 10
-0.1338414669
 20
-2.3650780487
 30
0.0
 11
-0.1338414669
 21
-2.4142906471
 31
0.0
  0
LINE
  5
63C
330
1F
100
AcDbEntity
  8
0
  6
Continuous
 62
     7
370
    25
100
AcDbLine
 10
-0.0747863488
 20
-2.3650780487
 30
0.0
 11
-0.0649438291
 21
-2.3650780487
 31
0.0
  0
LINE
  5
63D
330
1F
100
AcDbEntity
  8
0
  6
Continuous
 62
     7
370
    25
100
AcDbLine
 10
-0.0649438291
 20
-2.3650780487
 30
0.0
 11
-0.0649438291
 21
-2.4142906471
 31
0.0
  0
LINE
  5
63E
330
1F
100
AcDbEntity
  8
0
  6
Continuous
 62
     7
370
    25
100
AcDbLine
 10
0.5202923914
 20
-0.699723718
 30
0.0
 11
0.5202923914
 21
-0.502723718
 31
0.0
  0
LINE
  5
63F
330
1F
100
AcDbEntity
  8
0
  6
Continuous
 62
     7
370
    25
100
AcDbLine
 10
0.8202923914
 20
-0.502723718
 30
0.0
 11
0.5202923914
 21
-0.502723718
 31
0.0
  0
LINE
  5
640
330
1F
100
AcDbEntity
  8
0
  6
Continuous
 62
     7
370
    25
100
AcDbLine
 10
0.8202923914
 20
-0.699723718
 30
0.0
 11
0.8202923914
 21
-0.502723718
 31
0.0
  0
LINE
  5
641
330
1F
100
AcDbEntity
  8
0
  6
Continuous
 62
     7
370
    25
100
AcDbLine
 10
0.8672923914
 20
-0.824723718
 30
0.0
 11
0.8672923914
 21
-0.699723718
 31
0.0
  0
LINE
  5
642
330
1F
100
AcDbEntity
  8
0
  6
Continuous
 62
     7
370
    25
100
AcDbLine
 10
0.8027923914
 20
-0.799723718
 30
0.0
 11
0.8377923914
 21
-0.799723718
 31
0.0
  0
LINE
  5
643
330
1F
100
AcDbEntity
  8
0
  6
Continuous
 62
     7
370
    25
100
AcDbLine
 10
0.8027923914
 20
-0.824723718
 30
0.0
 11
0.8027923914
 21
-0.799723718
 31
0.0
  0
LINE
  5
644
330
1F
100
AcDbEntity
  8
0
  6
Continuous
 62
     7
370
    25
100
AcDbLine
 10
0.8027923914
 20
-0.824723718
 30
0.0
 11
0.7377923914
 21
-0.824723718
 31
0.0
  0
LINE
  5
645
330
1F
100
AcDbEntity
  8
0
  6
Continuous
 62
     7
370
    25
100
AcDbLine
 10
0.7027923914
 20
-0.799723718
 30
0.0
 11
0.7377923914
 21
-0.799723718
 31
0.0
  0
LINE
  5
646
330
1F
100
AcDbEntity
  8
0
  6
Continuous
 62
     7
370
    25
100
AcDbLine
 10
0.7027923914
 20
-0.824723718
 30
0.0
 11
0.6377923914
 21
-0.824723718
 31
0.0
  0
LINE
  5
647
330
1F
100
AcDbEntity
  8
0
  6
Continuous
 62
     7
370
    25
100
AcDbLine
 10
0.6377923914
 20
-0.824723718
 30
0.0
 11
0.6377923914
 21
-0.799723718
 31
0.0
  0
LINE
  5
648
330
1F
100
AcDbEntity
  8
0
  6
Continuous
 62
     7
370
    25
100
AcDbLine
 10
0.6027923914
 20
-0.799723718
 30
0.0
 11
0.6377923914
 21
-0.799723718
 31
0.0
  0
LINE
  5
649
330
1F
100
AcDbEntity
  8
0
  6
Continuous
 62
     7
370
    25
100
AcDbLine
 10
0.6027923914
 20
-0.824723718
 30
0.0
 11
0.5377923914
 21
-0.824723718
 31
0.0
  0
LINE
  5
64A
330
1F
100
AcDbEntity
  8
0
  6
Continuous
 62
     7
370
    25
100
AcDbLine
 10
0.8377923914
 20
-0.824723718
 30
0.0
 11
0.8377923914
 21
-0.799723718
 31
0.0
  0
LINE
  5
64B
330
1F
100
AcDbEntity
  8
0
  6
Continuous
 62
     7
370
    25
100
AcDbLine
 10
0.5027923914
 20
-0.824723718
 30
0.0
 11
0.5027923914
 21
-0.799723718
 31
0.0
  0
LINE
  5
64C
330
1F
100
AcDbEntity
  8
0
  6
Continuous
 62
     7
370
    25
100
AcDbLine
 10
0.4732923914
 20
-0.824723718
 30
0.0
 11
0.4732923914
 21
-0.699723718
 31
0.0
  0
LINE
  5
64D
330
1F
100
AcDbEntity
  8
0
  6
Continuous
 62
     7
370
    25
100
AcDbLine
 10
0.6027923914
 20
-0.824723718
 30
0.0
 11
0.6027923914
 21
-0.799723718
 31
0.0
  0
LINE
  5
64E
330
1F
100
AcDbEntity
  8
0
  6
Continuous
 62
     7
370
    25
100
AcDbLine
 10
0.7027923914
 20
-0.824723718
 30
0.0
 11
0.7027923914
 21
-0.799723718
 31
0.0
  0
LINE
  5
64F
330
1F
100
AcDbEntity
  8
0
  6
Continuous
 62
     7
370
    25
100
AcDbLine
 10
0.5377923914
 20
-0.824723718
 30
0.0
 11
0.5377923914
 21
-0.799723718
 31
0.0
  0
LINE
  5
650
330
1F
100
AcDbEntity
  8
0
  6
Continuous
 62
     7
370
    25
100
AcDbLine
 10
0.8672923914
 20
-0.824723718
 30
0.0
 11
0.8377923914
 21
-0.824723718
 31
0.0
  0
LINE
  5
651
330
1F
100
AcDbEntity
  8
0
  6
Continuous
 62
     7
370
    25
100
AcDbLine
 10
0.7377923914
 20
-0.824723718
 30
0.0
 11
0.7377923914
 21
-0.799723718
 31
0.0
  0
LINE
  5
652
330
1F
100
AcDbEntity
  8
0
  6
Continuous
 62
     7
370
    25
100
AcDbLine
 10
0.5027923914
 20
-0.824723718
 30
0.0
 11
0.4732923914
 21
-0.824723718
 31
0.0
  0
LINE
  5
653
330
1F
100
AcDbEntity
  8
0
  6
Continuous
 62
     7
370
    25
100
AcDbLine
 10
0.1977018402
 20
-0.699723718
 30
0.0
 11
0.5202923914
 21
-0.699723718
 31
0.0
  0
LINE
  5
654
330
1F
100
AcDbEntity
  8
0
  6
Continuous
 62
     7
370
    25
100
AcDbLine
 10
0.8202923914
 20
-0.699723718
 30
0.0
 11
1.2356467221
 21
-0.699723718
 31
0.0
  0
LINE
  5
655
330
1F
100
AcDbEntity
  8
0
  6
Continuous
 62
     7
370
    25
100
AcDbLine
 10
0.5027923914
 20
-0.799723718
 30
0.0
 11
0.5377923914
 21
-0.799723718
 31
0.0
  0
LINE
  5
656
330
1F
100
AcDbEntity
  8
0
  6
Continuous
 62
     7
370
    25
100
AcDbLine
 10
0.5327923914
 20
-0.944723718
 30
0.0
 11
0.5327923914
 21
-0.799723718
 31
0.0
  0
LINE
  5
657
330
1F
100
AcDbEntity
  8
0
  6
Continuous
 62
     7
370
    25
100
AcDbLine
 10
0.5327923914
 20
-0.944723718
 30
0.0
 11
0.5077923914
 21
-0.944723718
 31
0.0
  0
LINE
  5
658
330
1F
100
AcDbEntity
  8
0
  6
Continuous
 62
     7
370
    25
100
AcDbLine
 10
0.5077923914
 20
-0.944723718
 30
0.0
 11
0.5077923914
 21
-0.799723718
 31
0.0
  0
LINE
  5
659
330
1F
100
AcDbEntity
  8
0
  6
Continuous
 62
     7
370
    25
100
AcDbLine
 10
0.5327923914
 20
-0.873723718
 30
0.0
 11
0.5077923914
 21
-0.873723718
 31
0.0
  0
LINE
  5
65A
330
1F
100
AcDbEntity
  8
0
  6
Continuous
 62
     7
370
    25
100
AcDbLine
 10
0.5327923914
 20
-0.435723718
 30
0.0
 11
0.5077923914
 21
-0.435723718
 31
0.0
  0
LINE
  5
65B
330
1F
100
AcDbEntity
  8
0
  6
Continuous
 62
     7
370
    25
100
AcDbLine
 10
0.5327923914
 20
-0.502723718
 30
0.0
 11
0.5327923914
 21
-0.435723718
 31
0.0
  0
LINE
  5
65C
330
1F
100
AcDbEntity
  8
0
  6
Continuous
 62
     7
370
    25
100
AcDbLine
 10
0.5077923914
 20
-0.699723718
 30
0.0
 11
0.5077923914
 21
-0.435723718
 31
0.0
  0
LINE
  5
65D
330
1F
100
AcDbEntity
  8
0
  6
Continuous
 62
     7
370
    25
100
AcDbLine
 10
0.7327923914
 20
-0.944723718
 30
0.0
 11
0.7327923914
 21
-0.799723718
 31
0.0
  0
LINE
  5
65E
330
1F
100
AcDbEntity
  8
0
  6
Continuous
 62
     7
370
    25
100
AcDbLine
 10
0.7327923914
 20
-0.873723718
 30
0.0
 11
0.7077923914
 21
-0.873723718
 31
0.0
  0
LINE
  5
65F
330
1F
100
AcDbEntity
  8
0
  6
Continuous
 62
     7
370
    25
100
AcDbLine
 10
0.7077923914
 20
-0.944723718
 30
0.0
 11
0.7077923914
 21
-0.799723718
 31
0.0
  0
LINE
  5
660
330
1F
100
AcDbEntity
  8
0
  6
Continuous
 62
     7
370
    25
100
AcDbLine
 10
0.7077923914
 20
-0.502723718
 30
0.0
 11
0.7077923914
 21
-0.435723718
 31
0.0
  0
LINE
  5
661
330
1F
100
AcDbEntity
  8
0
  6
Continuous
 62
     7
370
    25
100
AcDbLine
 10
0.7327923914
 20
-0.435723718
 30
0.0
 11
0.7077923914
 21
-0.435723718
 31
0.0
  0
LINE
  5
662
330
1F
100
AcDbEntity
  8
0
  6
Continuous
 62
     7
370
    25
100
AcDbLine
 10
0.7327923914
 20
-0.502723718
 30
0.0
 11
0.7327923914
 21
-0.435723718
 31
0.0
  0
LINE
  5
663
330
1F
100
AcDbEntity
  8
0
  6
Continuous
 62
     7
370
    25
100
AcDbLine
 10
0.6327923914
 20
-0.873723718
 30
0.0
 11
0.6077923914
 21
-0.873723718
 31
0.0
  0
LINE
  5
664
330
1F
100
AcDbEntity
  8
0
  6
Continuous
 62
     7
370
    25
100
AcDbLine
 10
0.6077923914
 20
-0.944723718
 30
0.0
 11
0.6077923914
 21
-0.799723718
 31
0.0
  0
LINE
  5
665
330
1F
100
AcDbEntity
  8
0
  6
Continuous
 62
     7
370
    25
100
AcDbLine
 10
0.6327923914
 20
-0.944723718
 30
0.0
 11
0.6327923914
 21
-0.799723718
 31
0.0
  0
LINE
  5
666
330
1F
100
AcDbEntity
  8
0
  6
Continuous
 62
     7
370
    25
100
AcDbLine
 10
0.7327923914
 20
-0.944723718
 30
0.0
 11
0.7077923914
 21
-0.944723718
 31
0.0
  0
LINE
  5
667
330
1F
100
AcDbEntity
  8
0
  6
Continuous
 62
     7
370
    25
100
AcDbLine
 10
0.8327923914
 20
-0.944723718
 30
0.0
 11
0.8327923914
 21
-0.799723718
 31
0.0
  0
LINE
  5
668
330
1F
100
AcDbEntity
  8
0
  6
Continuous
 62
     7
370
    25
100
AcDbLine
 10
0.8327923914
 20
-0.873723718
 30
0.0
 11
0.8077923914
 21
-0.873723718
 31
0.0
  0
LINE
  5
669
330
1F
100
AcDbEntity
  8
0
  6
Continuous
 62
     7
370
    25
100
AcDbLine
 10
0.8077923914
 20
-0.944723718
 30
0.0
 11
0.8077923914
 21
-0.799723718
 31
0.0
  0
LINE
  5
66A
330
1F
100
AcDbEntity
  8
0
  6
Continuous
 62
     7
370
    25
100
AcDbLine
 10
0.8327923914
 20
-0.944723718
 30
0.0
 11
0.8077923914
 21
-0.944723718
 31
0.0
  0
LINE
  5
66B
330
1F
100
AcDbEntity
  8
0
  6
Continuous
 62
     7
370
    25
100
AcDbLine
 10
0.6077923914
 20
-0.502723718
 30
0.0
 11
0.6077923914
 21
-0.435723718
 31
0.0
  0
LINE
  5
66C
330
1F
100
AcDbEntity
  8
0
  6
Continuous
 62
     7
370
    25
100
AcDbLine
 10
0.6327923914
 20
-0.502723718
 30
0.0
 11
0.6327923914
 21
-0.435723718
 31
0.0
  0
LINE
  5
66D
330
1F
100
AcDbEntity
  8
0
  6
Continuous
 62
     7
370
    25
100
AcDbLine
 10
0.6327923914
 20
-0.435723718
 30
0.0
 11
0.6077923914
 21
-0.435723718
 31
0.0
  0
LINE
  5
66E
330
1F
100
AcDbEntity
  8
0
  6
Continuous
 62
     7
370
    25
100
AcDbLine
 10
0.8077923914
 20
-0.502723718
 30
0.0
 11
0.8077923914
 21
-0.435723718
 31
0.0
  0
LINE
  5
66F
330
1F
100
AcDbEntity
  8
0
  6
Continuous
 62
     7
370
    25
100
AcDbLine
 10
0.8327923914
 20
-0.435723718
 30
0.0
 11
0.8077923914
 21
-0.435723718
 31
0.0
  0
LINE
  5
670
330
1F
100
AcDbEntity
  8
0
  6
Continuous
 62
     7
370
    25
100
AcDbLine
 10
0.8327923914
 20
-0.699723718
 30
0.0
 11
0.8327923914
 21
-0.435723718
 31
0.0
  0
LINE
  5
671
330
1F
100
AcDbEntity
  8
0
  6
Continuous
 62
     7
370
    25
100
AcDbLine
 10
0.6327923914
 20
-0.944723718
 30
0.0
 11
0.6077923914
 21
-0.944723718
 31
0.0
  0
LINE
  5
672
330
1F
100
AcDbEntity
  8
0
  6
Continuous
 62
     7
370
    25
100
AcDbLine
 10
-0.6092351677
 20
-1.0380701747
 30
0.0
 11
-0.6092351677
 21
-1.621219781
 31
0.0
  0
LINE
  5
673
330
1F
100
AcDbEntity
  8
0
  6
Continuous
 62
     7
370
    25
100
AcDbLine
 10
-0.5482115456
 20
-1.605235529
 30
0.0
 11
-0.6643532779
 21
-1.605235529
 31
0.0
  0
LINE
  5
674
330
1F
100
AcDbEntity
  8
0
  6
Continuous
 62
     7
370
    25
100
AcDbLine
 10
-0.6249831992
 20
-1.0380701747
 30
0.0
 11
-0.6249831992
 21
-1.621219781
 31
0.0
  0
LINE
  5
675
330
1F
100
AcDbEntity
  8
0
  6
Continuous
 62
     7
370
    25
100
AcDbLine
 10
-0.5482115456
 20
-1.0540544267
 30
0.0
 11
-0.6643532779
 21
-1.0540544267
 31
0.0
  0
LINE
  5
676
330
1F
100
AcDbEntity
  8
0
  6
Continuous
 62
     7
370
    25
100
AcDbLine
 10
-0.5647469787
 20
-1.2509048204
 30
0.0
 11
-0.5647469787
 21
-1.1642906471
 31
0.0
  0
LINE
  5
677
330
1F
100
AcDbEntity
  8
0
  6
Continuous
 62
     7
370
    25
100
AcDbLine
 10
-0.5647469787
 20
-1.4083851353
 30
0.0
 11
-0.3710461913
 21
-1.4083851353
 31
0.0
  0
LINE
  5
678
330
1F
100
AcDbEntity
  8
0
  6
Continuous
 62
     7
370
    25
100
AcDbLine
 10
-0.5647469787
 20
-1.4949993086
 30
0.0
 11
-0.5647469787
 21
-1.4083851353
 31
0.0
  0
LINE
  5
679
330
1F
100
AcDbEntity
  8
0
  6
Continuous
 62
     7
370
    25
100
AcDbLine
 10
-0.4320698133
 20
-1.605235529
 30
0.0
 11
-0.380888711
 21
-1.605235529
 31
0.0
  0
LINE
  5
67A
330
1F
100
AcDbEntity
  8
0
  6
Continuous
 62
     7
370
    25
100
AcDbLine
 10
-0.5482115456
 20
-1.0146843479
 30
0.0
 11
-0.5482115456
 21
-1.0540544267
 31
0.0
  0
LINE
  5
67B
330
1F
100
AcDbEntity
  8
0
  6
Continuous
 62
     7
370
    25
100
AcDbLine
 10
-0.4320698133
 20
-1.0146843479
 30
0.0
 11
-0.4320698133
 21
-1.0540544267
 31
0.0
  0
LINE
  5
67C
330
1F
100
AcDbEntity
  8
0
  6
Continuous
 62
     7
370
    25
100
AcDbLine
 10
-0.5647469787
 20
-1.1642906471
 30
0.0
 11
-0.3710461913
 21
-1.1642906471
 31
0.0
  0
LINE
  5
67D
330
1F
100
AcDbEntity
  8
0
  6
Continuous
 62
     7
370
    25
100
AcDbLine
 10
-0.3966367425
 20
-1.0540544267
 30
0.0
 11
-0.3966367425
 21
-1.1642906471
 31
0.0
  0
LINE
  5
67E
330
1F
100
AcDbEntity
  8
0
  6
Continuous
 62
     7
370
    25
100
AcDbLine
 10
-0.3966367425
 20
-1.2509048204
 30
0.0
 11
-0.3966367425
 21
-1.4083851353
 31
0.0
  0
LINE
  5
67F
330
1F
100
AcDbEntity
  8
0
  6
Continuous
 62
     7
370
    25
100
AcDbLine
 10
-0.4320698133
 20
-1.6446056078
 30
0.0
 11
-0.4320698133
 21
-1.605235529
 31
0.0
  0
LINE
  5
680
330
1F
100
AcDbEntity
  8
0
  6
Continuous
 62
     7
370
    25
100
AcDbLine
 10
-0.5482115456
 20
-1.6446056078
 30
0.0
 11
-0.5482115456
 21
-1.605235529
 31
0.0
  0
LINE
  5
681
330
1F
100
AcDbEntity
  8
0
  6
Continuous
 62
     7
370
    25
100
AcDbLine
 10
-0.3966367425
 20
-1.4949993086
 30
0.0
 11
-0.3966367425
 21
-1.605235529
 31
0.0
  0
LINE
  5
682
330
1F
100
AcDbEntity
  8
0
  6
Continuous
 62
     7
370
    25
100
AcDbLine
 10
-0.3710461913
 20
-1.6446056078
 30
0.0
 11
-0.5482115456
 21
-1.6446056078
 31
0.0
  0
LINE
  5
683
330
1F
100
AcDbEntity
  8
0
  6
Continuous
 62
     7
370
    25
100
AcDbLine
 10
-0.3710461913
 20
-1.4949993086
 30
0.0
 11
-0.5647469787
 21
-1.4949993086
 31
0.0
  0
LINE
  5
684
330
1F
100
AcDbEntity
  8
0
  6
Continuous
 62
     7
370
    25
100
AcDbLine
 10
-0.380888711
 20
-1.0540544267
 30
0.0
 11
-0.4320698133
 21
-1.0540544267
 31
0.0
  0
LINE
  5
685
330
1F
100
AcDbEntity
  8
0
  6
Continuous
 62
     7
370
    25
100
AcDbLine
 10
-0.3710461913
 20
-1.2509048204
 30
0.0
 11
-0.5647469787
 21
-1.2509048204
 31
0.0
  0
LINE
  5
686
330
1F
100
AcDbEntity
  8
0
  6
Continuous
 62
     7
370
    25
100
AcDbLine
 10
-0.5588414669
 20
-1.4949993086
 30
0.0
 11
-0.5588414669
 21
-1.4083851353
 31
0.0
  0
LINE
  5
687
330
1F
100
AcDbEntity
  8
0
  6
Continuous
 62
     7
370
    25
100
AcDbLine
 10
-0.5588414669
 20
-1.2509048204
 30
0.0
 11
-0.5588414669
 21
-1.1642906471
 31
0.0
  0
LINE
  5
688
330
1F
100
AcDbEntity
  8
0
  6
Continuous
 62
     7
370
    25
100
AcDbLine
 10
-0.5698650889
 20
-1.605235529
 30
0.0
 11
-0.5698650889
 21
-1.621219781
 31
0.0
  0
LINE
  5
689
330
1F
100
AcDbEntity
  8
0
  6
Continuous
 62
     7
370
    25
100
AcDbLine
 10
-0.5856131204
 20
-1.605235529
 30
0.0
 11
-0.5856131204
 21
-1.621219781
 31
0.0
  0
LINE
  5
68A
330
1F
100
AcDbEntity
  8
0
  6
Continuous
 62
     7
370
    25
100
AcDbLine
 10
-0.5501800496
 20
-1.605235529
 30
0.0
 11
-0.5501800496
 21
-1.621219781
 31
0.0
  0
LINE
  5
68B
330
1F
100
AcDbEntity
  8
0
  6
Continuous
 62
     7
370
    25
100
AcDbLine
 10
-0.5856131204
 20
-1.0380701747
 30
0.0
 11
-0.5856131204
 21
-1.0540544267
 31
0.0
  0
LINE
  5
68C
330
1F
100
AcDbEntity
  8
0
  6
Continuous
 62
     7
370
    25
100
AcDbLine
 10
-0.5482115456
 20
-1.0380701747
 30
0.0
 11
-0.6328572149
 21
-1.0380701747
 31
0.0
  0
LINE
  5
68D
330
1F
100
AcDbEntity
  8
0
  6
Continuous
 62
     7
370
    25
100
AcDbLine
 10
-0.5698650889
 20
-1.0380701747
 30
0.0
 11
-0.5698650889
 21
-1.0540544267
 31
0.0
  0
LINE
  5
68E
330
1F
100
AcDbEntity
  8
0
  6
Continuous
 62
     7
370
    25
100
AcDbLine
 10
-0.5501800496
 20
-1.0380701747
 30
0.0
 11
-0.5501800496
 21
-1.0540544267
 31
0.0
  0
LINE
  5
68F
330
1F
100
AcDbEntity
  8
0
  6
Continuous
 62
     7
370
    25
100
AcDbLine
 10
-0.6171091834
 20
-1.605235529
 30
0.0
 11
-0.6171091834
 21
-1.621219781
 31
0.0
  0
LINE
  5
690
330
1F
100
AcDbEntity
  8
0
  6
Continuous
 62
     7
370
    25
100
AcDbLine
 10
-0.5482115456
 20
-1.621219781
 30
0.0
 11
-0.6328572149
 21
-1.621219781
 31
0.0
  0
LINE
  5
691
330
1F
100
AcDbEntity
  8
0
  6
Continuous
 62
     7
370
    25
100
AcDbLine
 10
-0.6171091834
 20
-1.0380701747
 30
0.0
 11
-0.6171091834
 21
-1.0540544267
 31
0.0
  0
LINE
  5
692
330
1F
100
AcDbEntity
  8
0
  6
Continuous
 62
     7
370
    25
100
AcDbLine
 10
-0.3710461913
 20
-1.4772827731
 30
0.0
 11
-0.3710461913
 21
-1.606875949
 31
0.0
  0
LINE
  5
693
330
1F
100
AcDbEntity
  8
0
  6
Continuous
 62
     7
370
    25
100
AcDbLine
 10
-0.3710461913
 20
-1.5678339542
 30
0.0
 11
-0.3828572149
 21
-1.5678339542
 31
0.0
  0
LINE
  5
694
330
1F
100
AcDbEntity
  8
0
  6
Continuous
 62
     7
370
    25
100
AcDbLine
 10
-0.3828572149
 20
-1.605235529
 30
0.0
 11
-0.3828572149
 21
-1.5678339542
 31
0.0
  0
LINE
  5
695
330
1F
100
AcDbEntity
  8
0
  6
Continuous
 62
     7
370
    25
100
AcDbLine
 10
-0.3710461913
 20
-1.2607473401
 30
0.0
 11
-0.3769517031
 21
-1.2607473401
 31
0.0
  0
LINE
  5
696
330
1F
100
AcDbEntity
  8
0
  6
Continuous
 62
     7
370
    25
100
AcDbLine
 10
-0.3710461913
 20
-1.3198024582
 30
0.0
 11
-0.3769517031
 21
-1.3198024582
 31
0.0
  0
LINE
  5
697
330
1F
100
AcDbEntity
  8
0
  6
Continuous
 62
     7
370
    25
100
AcDbLine
 10
-0.3710461913
 20
-1.3198024582
 30
0.0
 11
-0.3710461913
 21
-1.3394874975
 31
0.0
  0
LINE
  5
698
330
1F
100
AcDbEntity
  8
0
  6
Continuous
 62
     7
370
    25
100
AcDbLine
 10
-0.3710461913
 20
-1.3985426156
 30
0.0
 11
-0.3710461913
 21
-1.418227655
 31
0.0
  0
LINE
  5
699
330
1F
100
AcDbEntity
  8
0
  6
Continuous
 62
     7
370
    25
100
AcDbLine
 10
-0.3710461913
 20
-1.3985426156
 30
0.0
 11
-0.3769517031
 21
-1.3985426156
 31
0.0
  0
LINE
  5
69A
330
1F
100
AcDbEntity
  8
0
  6
Continuous
 62
     7
370
    25
100
AcDbLine
 10
-0.3710461913
 20
-1.3394874975
 30
0.0
 11
-0.3769517031
 21
-1.3394874975
 31
0.0
  0
LINE
  5
69B
330
1F
100
AcDbEntity
  8
0
  6
Continuous
 62
     7
370
    25
100
AcDbLine
 10
-0.3769517031
 20
-1.3394874975
 30
0.0
 11
-0.3769517031
 21
-1.3985426156
 31
0.0
  0
LINE
  5
69C
330
1F
100
AcDbEntity
  8
0
  6
Continuous
 62
     7
370
    25
100
AcDbLine
 10
-0.3769517031
 20
-1.2607473401
 30
0.0
 11
-0.3769517031
 21
-1.3198024582
 31
0.0
  0
LINE
  5
69D
330
1F
100
AcDbEntity
  8
0
  6
Continuous
 62
     7
370
    25
100
AcDbLine
 10
-0.3710461913
 20
-1.2410623007
 30
0.0
 11
-0.3710461913
 21
-1.2607473401
 31
0.0
  0
LINE
  5
69E
330
1F
100
AcDbEntity
  8
0
  6
Continuous
 62
     7
370
    25
100
AcDbLine
 10
-0.3710461913
 20
-1.0914560015
 30
0.0
 11
-0.3828572149
 21
-1.0914560015
 31
0.0
  0
LINE
  5
69F
330
1F
100
AcDbEntity
  8
0
  6
Continuous
 62
     7
370
    25
100
AcDbLine
 10
-0.3710461913
 20
-1.0524140067
 30
0.0
 11
-0.3710461913
 21
-1.1820071826
 31
0.0
  0
LINE
  5
6A0
330
1F
100
AcDbEntity
  8
0
  6
Continuous
 62
     7
370
    25
100
AcDbLine
 10
-0.3828572149
 20
-1.0540544267
 30
0.0
 11
-0.3828572149
 21
-1.0914560015
 31
0.0
  0
LINE
  5
6A1
330
1F
100
AcDbEntity
  8
0
  6
Continuous
 62
     7
370
    25
100
AcDbLine
 10
-0.3690776874
 20
-1.0400386786
 30
0.0
 11
-0.380888711
 21
-1.0380701747
 31
0.0
  0
LINE
  5
6A2
330
1F
100
AcDbEntity
  8
0
  6
Continuous
 62
     7
370
    25
100
AcDbLine
 10
-0.3690776874
 20
-1.0400386786
 30
0.0
 11
-0.3690776874
 21
-1.0520859227
 31
0.0
  0
LINE
  5
6A3
330
1F
100
AcDbEntity
  8
0
  6
Continuous
 62
     7
370
    25
100
AcDbLine
 10
-0.380888711
 20
-1.0540544267
 30
0.0
 11
-0.3690776874
 21
-1.0520859227
 31
0.0
  0
LINE
  5
6A4
330
1F
100
AcDbEntity
  8
0
  6
Continuous
 62
     7
370
    25
100
AcDbLine
 10
-0.380888711
 20
-1.0380701747
 30
0.0
 11
-0.380888711
 21
-1.0540544267
 31
0.0
  0
LINE
  5
6A5
330
1F
100
AcDbEntity
  8
0
  6
Continuous
 62
     7
370
    25
100
AcDbLine
 10
-0.380888711
 20
-1.0380701747
 30
0.0
 11
-0.4320698133
 21
-1.0380701747
 31
0.0
  0
LINE
  5
6A6
330
1F
100
AcDbEntity
  8
0
  6
Continuous
 62
     7
370
    25
100
AcDbLine
 10
-0.380888711
 20
-1.605235529
 30
0.0
 11
-0.380888711
 21
-1.621219781
 31
0.0
  0
LINE
  5
6A7
330
1F
100
AcDbEntity
  8
0
  6
Continuous
 62
     7
370
    25
100
AcDbLine
 10
-0.380888711
 20
-1.621219781
 30
0.0
 11
-0.4320698133
 21
-1.621219781
 31
0.0
  0
LINE
  5
6A8
330
1F
100
AcDbEntity
  8
0
  6
Continuous
 62
     7
370
    25
100
AcDbLine
 10
-0.3690776874
 20
-1.607204033
 30
0.0
 11
-0.380888711
 21
-1.605235529
 31
0.0
  0
LINE
  5
6A9
330
1F
100
AcDbEntity
  8
0
  6
Continuous
 62
     7
370
    25
100
AcDbLine
 10
-0.3690776874
 20
-1.607204033
 30
0.0
 11
-0.3690776874
 21
-1.6192512771
 31
0.0
  0
LINE
  5
6AA
330
1F
100
AcDbEntity
  8
0
  6
Continuous
 62
     7
370
    25
100
AcDbLine
 10
-0.380888711
 20
-1.621219781
 30
0.0
 11
-0.3690776874
 21
-1.6192512771
 31
0.0
  0
LINE
  5
6AB
330
1F
100
AcDbEntity
  8
0
  6
Continuous
 62
     7
370
    25
100
AcDbLine
 10
-0.4182902858
 20
-1.4949993086
 30
0.0
 11
-0.4182902858
 21
-1.4083851353
 31
0.0
  0
LINE
  5
6AC
330
1F
100
AcDbEntity
  8
0
  6
Continuous
 62
     7
370
    25
100
AcDbLine
 10
-0.3769517031
 20
-1.4949993086
 30
0.0
 11
-0.3769517031
 21
-1.4083851353
 31
0.0
  0
LINE
  5
6AD
330
1F
100
AcDbEntity
  8
0
  6
Continuous
 62
     7
370
    25
100
AcDbLine
 10
-0.4182902858
 20
-1.2509048204
 30
0.0
 11
-0.4182902858
 21
-1.1642906471
 31
0.0
  0
LINE
  5
6AE
330
1F
100
AcDbEntity
  8
0
  6
Continuous
 62
     7
370
    25
100
AcDbLine
 10
-0.3769517031
 20
-1.2509048204
 30
0.0
 11
-0.3769517031
 21
-1.1642906471
 31
0.0
  0
LINE
  5
6AF
330
1F
100
AcDbEntity
  8
0
  6
Continuous
 62
     7
370
    25
100
AcDbLine
 10
-0.6328572149
 20
-1.0727552141
 30
0.0
 11
-0.6249831992
 21
-1.0727552141
 31
0.0
  0
LINE
  5
6B0
330
1F
100
AcDbEntity
  8
0
  6
Continuous
 62
     7
370
    25
100
AcDbLine
 10
-0.6328572149
 20
-1.0380701747
 30
0.0
 11
-0.6328572149
 21
-1.0727552141
 31
0.0
  0
LINE
  5
6B1
330
1F
100
AcDbEntity
  8
0
  6
Continuous
 62
     7
370
    25
100
AcDbLine
 10
-0.6249831992
 20
-1.5865347416
 30
0.0
 11
-0.6328572149
 21
-1.5865347416
 31
0.0
  0
LINE
  5
6B2
330
1F
100
AcDbEntity
  8
0
  6
Continuous
 62
     7
370
    25
100
AcDbLine
 10
-0.6328572149
 20
-1.5865347416
 30
0.0
 11
-0.627289445
 21
-1.5825977338
 31
0.0
  0
LINE
  5
6B3
330
1F
100
AcDbEntity
  8
0
  6
Continuous
 62
     7
370
    25
100
AcDbLine
 10
-0.66041627
 20
-1.5825977338
 30
0.0
 11
-0.6249831992
 21
-1.5825977338
 31
0.0
  0
LINE
  5
6B4
330
1F
100
AcDbEntity
  8
0
  6
Continuous
 62
     7
370
    25
100
AcDbLine
 10
-0.6328572149
 20
-1.5865347416
 30
0.0
 11
-0.6328572149
 21
-1.621219781
 31
0.0
  0
LINE
  5
6B5
330
1F
100
AcDbEntity
  8
0
  6
Continuous
 62
     7
370
    25
100
AcDbLine
 10
-0.627289445
 20
-1.0766922219
 30
0.0
 11
-0.6328572149
 21
-1.0727552141
 31
0.0
  0
LINE
  5
6B6
330
1F
100
AcDbEntity
  8
0
  6
Continuous
 62
     7
370
    25
100
AcDbLine
 10
-0.6249831992
 20
-1.0766922219
 30
0.0
 11
-0.66041627
 21
-1.0766922219
 31
0.0
  0
LINE
  5
6B7
330
1F
100
AcDbEntity
  8
0
  6
Continuous
 62
     7
370
    25
100
AcDbLine
 10
-0.3828572149
 20
-1.0380701747
 30
0.0
 11
-0.3828572149
 21
-1.0146843479
 31
0.0
  0
LINE
  5
6B8
330
1F
100
AcDbEntity
  8
0
  6
Continuous
 62
     7
370
    25
100
AcDbLine
 10
-0.3828572149
 20
-1.621219781
 30
0.0
 11
-0.3828572149
 21
-1.6446056078
 31
0.0
  0
LINE
  5
6B9
330
1F
100
AcDbEntity
  8
0
  6
Continuous
 62
     7
370
    25
100
AcDbLine
 10
-0.66041627
 20
-1.5825977338
 30
0.0
 11
-0.66041627
 21
-1.605235529
 31
0.0
  0
LINE
  5
6BA
330
1F
100
AcDbEntity
  8
0
  6
Continuous
 62
     7
370
    25
100
AcDbLine
 10
-0.66041627
 20
-1.5825977338
 30
0.0
 11
-0.6643532779
 21
-1.5865347416
 31
0.0
  0
LINE
  5
6BB
330
1F
100
AcDbEntity
  8
0
  6
Continuous
 62
     7
370
    25
100
AcDbLine
 10
-0.66041627
 20
-1.0540544267
 30
0.0
 11
-0.66041627
 21
-1.0766922219
 31
0.0
  0
LINE
  5
6BC
330
1F
100
AcDbEntity
  8
0
  6
Continuous
 62
     7
370
    25
100
AcDbLine
 10
-0.6643532779
 20
-1.0727552141
 30
0.0
 11
-0.66041627
 21
-1.0766922219
 31
0.0
  0
LINE
  5
6BD
330
1F
100
AcDbEntity
  8
0
  6
Continuous
 62
     7
370
    25
100
AcDbLine
 10
-0.3710461913
 20
-1.1820071826
 30
0.0
 11
-0.3769517031
 21
-1.1820071826
 31
0.0
  0
LINE
  5
6BE
330
1F
100
AcDbEntity
  8
0
  6
Continuous
 62
     7
370
    25
100
AcDbLine
 10
-0.3749831992
 20
-1.0146843479
 30
0.0
 11
-0.3749831992
 21
-1.0390544267
 31
0.0
  0
LINE
  5
6BF
330
1F
100
AcDbEntity
  8
0
  6
Continuous
 62
     7
370
    25
100
AcDbLine
 10
-0.3749831992
 20
-1.0530701747
 30
0.0
 11
-0.3749831992
 21
-1.0914560015
 31
0.0
  0
LINE
  5
6C0
330
1F
100
AcDbEntity
  8
0
  6
Continuous
 62
     7
370
    25
100
AcDbLine
 10
-0.3749831992
 20
-1.1642906471
 30
0.0
 11
-0.3749831992
 21
-1.1820071826
 31
0.0
  0
LINE
  5
6C1
330
1F
100
AcDbEntity
  8
0
  6
Continuous
 62
     7
370
    25
100
AcDbLine
 10
-0.3710461913
 20
-1.0146843479
 30
0.0
 11
-0.3710461913
 21
-1.0397105946
 31
0.0
  0
LINE
  5
6C2
330
1F
100
AcDbEntity
  8
0
  6
Continuous
 62
     7
370
    25
100
AcDbLine
 10
-0.3710461913
 20
-1.0146843479
 30
0.0
 11
-0.5482115456
 21
-1.0146843479
 31
0.0
  0
LINE
  5
6C3
330
1F
100
AcDbEntity
  8
0
  6
Continuous
 62
     7
370
    25
100
AcDbLine
 10
-0.3710461913
 20
-1.2410623007
 30
0.0
 11
-0.3769517031
 21
-1.2410623007
 31
0.0
  0
LINE
  5
6C4
330
1F
100
AcDbEntity
  8
0
  6
Continuous
 62
     7
370
    25
100
AcDbLine
 10
-0.3749831992
 20
-1.2410623007
 30
0.0
 11
-0.3749831992
 21
-1.2509048204
 31
0.0
  0
LINE
  5
6C5
330
1F
100
AcDbEntity
  8
0
  6
Continuous
 62
     7
370
    25
100
AcDbLine
 10
-0.3749831992
 20
-1.4772827731
 30
0.0
 11
-0.3749831992
 21
-1.4949993086
 31
0.0
  0
LINE
  5
6C6
330
1F
100
AcDbEntity
  8
0
  6
Continuous
 62
     7
370
    25
100
AcDbLine
 10
-0.3749831992
 20
-1.5678339542
 30
0.0
 11
-0.3749831992
 21
-1.606219781
 31
0.0
  0
LINE
  5
6C7
330
1F
100
AcDbEntity
  8
0
  6
Continuous
 62
     7
370
    25
100
AcDbLine
 10
-0.3749831992
 20
-1.620235529
 30
0.0
 11
-0.3749831992
 21
-1.6446056078
 31
0.0
  0
LINE
  5
6C8
330
1F
100
AcDbEntity
  8
0
  6
Continuous
 62
     7
370
    25
100
AcDbLine
 10
-0.3710461913
 20
-1.4772827731
 30
0.0
 11
-0.3769517031
 21
-1.4772827731
 31
0.0
  0
LINE
  5
6C9
330
1F
100
AcDbEntity
  8
0
  6
Continuous
 62
     7
370
    25
100
AcDbLine
 10
-0.3710461913
 20
-1.6195793611
 30
0.0
 11
-0.3710461913
 21
-1.6446056078
 31
0.0
  0
LINE
  5
6CA
330
1F
100
AcDbEntity
  8
0
  6
Continuous
 62
     7
370
    25
100
AcDbLine
 10
-0.3749831992
 20
-1.4083851353
 30
0.0
 11
-0.3749831992
 21
-1.418227655
 31
0.0
  0
LINE
  5
6CB
330
1F
100
AcDbEntity
  8
0
  6
Continuous
 62
     7
370
    25
100
AcDbLine
 10
-0.3710461913
 20
-1.418227655
 30
0.0
 11
-0.3769517031
 21
-1.418227655
 31
0.0
  0
LINE
  5
6CC
330
1F
100
AcDbEntity
  8
0
  6
Continuous
 62
     7
370
    25
100
AcDbLine
 10
-0.63604221
 20
-1.4851346708
 30
0.0
 11
-0.6643532779
 21
-1.4989363164
 31
0.0
  0
LINE
  5
6CD
330
1F
100
AcDbEntity
  8
0
  6
Continuous
 62
     7
370
    25
100
AcDbLine
 10
-0.6564792622
 20
-1.4950977338
 30
0.0
 11
-0.6564792622
 21
-1.5825977338
 31
0.0
  0
LINE
  5
6CE
330
1F
100
AcDbEntity
  8
0
  6
Continuous
 62
     7
370
    25
100
AcDbLine
 10
-0.6643532779
 20
-1.1603536393
 30
0.0
 11
-0.63604221
 21
-1.1741552848
 31
0.0
  0
LINE
  5
6CF
330
1F
100
AcDbEntity
  8
0
  6
Continuous
 62
     7
370
    25
100
AcDbLine
 10
-0.6564792622
 20
-1.0766922219
 30
0.0
 11
-0.6564792622
 21
-1.1641922219
 31
0.0
  0
LINE
  5
6D0
330
1F
100
AcDbEntity
  8
0
  6
Continuous
 62
     7
370
    25
100
AcDbLine
 10
-0.3297076086
 20
-1.3631095448
 30
0.0
 11
-0.3769517031
 21
-1.3631095448
 31
0.0
  0
LINE
  5
6D1
330
1F
100
AcDbEntity
  8
0
  6
Continuous
 62
     7
370
    25
100
AcDbLine
 10
-0.3710461913
 20
-1.3631095448
 30
0.0
 11
-0.3710461913
 21
-1.3749205684
 31
0.0
  0
LINE
  5
6D2
330
1F
100
AcDbEntity
  8
0
  6
Continuous
 62
     7
370
    25
100
AcDbLine
 10
-0.3297076086
 20
-1.3749205684
 30
0.0
 11
-0.3769517031
 21
-1.3749205684
 31
0.0
  0
LINE
  5
6D3
330
1F
100
AcDbEntity
  8
0
  6
Continuous
 62
     7
370
    25
100
AcDbLine
 10
-0.3710461913
 20
-1.2843693873
 30
0.0
 11
-0.3710461913
 21
-1.2961804109
 31
0.0
  0
LINE
  5
6D4
330
1F
100
AcDbEntity
  8
0
  6
Continuous
 62
     7
370
    25
100
AcDbLine
 10
-0.3297076086
 20
-1.2843693873
 30
0.0
 11
-0.3769517031
 21
-1.2843693873
 31
0.0
  0
LINE
  5
6D5
330
1F
100
AcDbEntity
  8
0
  6
Continuous
 62
     7
370
    25
100
AcDbLine
 10
-0.3297076086
 20
-1.2961804109
 30
0.0
 11
-0.3769517031
 21
-1.2961804109
 31
0.0
  0
LINE
  5
6D6
330
1F
100
AcDbEntity
  8
0
  6
Continuous
 62
     7
370
    25
100
AcDbLine
 10
-0.3710461913
 20
-1.4418497023
 30
0.0
 11
-0.3710461913
 21
-1.4536607259
 31
0.0
  0
LINE
  5
6D7
330
1F
100
AcDbEntity
  8
0
  6
Continuous
 62
     7
370
    25
100
AcDbLine
 10
-0.3297076086
 20
-1.4536607259
 30
0.0
 11
-0.3769517031
 21
-1.4536607259
 31
0.0
  0
LINE
  5
6D8
330
1F
100
AcDbEntity
  8
0
  6
Continuous
 62
     7
370
    25
100
AcDbLine
 10
-0.3297076086
 20
-1.4418497023
 30
0.0
 11
-0.3769517031
 21
-1.4418497023
 31
0.0
  0
LINE
  5
6D9
330
1F
100
AcDbEntity
  8
0
  6
Continuous
 62
     7
370
    25
100
AcDbLine
 10
-0.3710461913
 20
-1.2056292298
 30
0.0
 11
-0.3710461913
 21
-1.2174402534
 31
0.0
  0
LINE
  5
6DA
330
1F
100
AcDbEntity
  8
0
  6
Continuous
 62
     7
370
    25
100
AcDbLine
 10
-0.3297076086
 20
-1.2174402534
 30
0.0
 11
-0.3769517031
 21
-1.2174402534
 31
0.0
  0
LINE
  5
6DB
330
1F
100
AcDbEntity
  8
0
  6
Continuous
 62
     7
370
    25
100
AcDbLine
 10
-0.3297076086
 20
-1.2056292298
 30
0.0
 11
-0.3769517031
 21
-1.2056292298
 31
0.0
  0
LINE
  5
6DC
330
1F
100
AcDbEntity
  8
0
  6
Continuous
 62
     7
370
    25
100
AcDbLine
 10
-0.3297076086
 20
-1.2056292298
 30
0.0
 11
-0.3297076086
 21
-1.2174402534
 31
0.0
  0
LINE
  5
6DD
330
1F
100
AcDbEntity
  8
0
  6
Continuous
 62
     7
370
    25
100
AcDbLine
 10
-0.3297076086
 20
-1.1268890723
 30
0.0
 11
-0.3710461913
 21
-1.1268890723
 31
0.0
  0
LINE
  5
6DE
330
1F
100
AcDbEntity
  8
0
  6
Continuous
 62
     7
370
    25
100
AcDbLine
 10
-0.3297076086
 20
-1.1268890723
 30
0.0
 11
-0.3297076086
 21
-1.138700096
 31
0.0
  0
LINE
  5
6DF
330
1F
100
AcDbEntity
  8
0
  6
Continuous
 62
     7
370
    25
100
AcDbLine
 10
-0.3297076086
 20
-1.138700096
 30
0.0
 11
-0.3710461913
 21
-1.138700096
 31
0.0
  0
LINE
  5
6E0
330
1F
100
AcDbEntity
  8
0
  6
Continuous
 62
     7
370
    25
100
AcDbLine
 10
-0.3297076086
 20
-1.4418497023
 30
0.0
 11
-0.3297076086
 21
-1.4536607259
 31
0.0
  0
LINE
  5
6E1
330
1F
100
AcDbEntity
  8
0
  6
Continuous
 62
     7
370
    25
100
AcDbLine
 10
-0.3297076086
 20
-1.5205898597
 30
0.0
 11
-0.3710461913
 21
-1.5205898597
 31
0.0
  0
LINE
  5
6E2
330
1F
100
AcDbEntity
  8
0
  6
Continuous
 62
     7
370
    25
100
AcDbLine
 10
-0.3297076086
 20
-1.5205898597
 30
0.0
 11
-0.3297076086
 21
-1.5324008834
 31
0.0
  0
LINE
  5
6E3
330
1F
100
AcDbEntity
  8
0
  6
Continuous
 62
     7
370
    25
100
AcDbLine
 10
-0.3297076086
 20
-1.5324008834
 30
0.0
 11
-0.3710461913
 21
-1.5324008834
 31
0.0
  0
LINE
  5
6E4
330
1F
100
AcDbEntity
  8
0
  6
Continuous
 62
     7
370
    25
100
AcDbLine
 10
-0.3297076086
 20
-1.3631095448
 30
0.0
 11
-0.3297076086
 21
-1.3749205684
 31
0.0
  0
LINE
  5
6E5
330
1F
100
AcDbEntity
  8
0
  6
Continuous
 62
     7
370
    25
100
AcDbLine
 10
-0.3297076086
 20
-1.2843693873
 30
0.0
 11
-0.3297076086
 21
-1.2961804109
 31
0.0
  0
LINE
  5
6E6
330
1F
100
AcDbEntity
  8
0
  6
Continuous
 62
     7
370
    25
100
AcDbLine
 10
-0.6092351677
 20
-1.778227655
 30
0.0
 11
-0.6092351677
 21
-2.3613772613
 31
0.0
  0
LINE
  5
6E7
330
1F
100
AcDbEntity
  8
0
  6
Continuous
 62
     7
370
    25
100
AcDbLine
 10
-0.5482115456
 20
-2.3453930093
 30
0.0
 11
-0.6643532779
 21
-2.3453930093
 31
0.0
  0
LINE
  5
6E8
330
1F
100
AcDbEntity
  8
0
  6
Continuous
 62
     7
370
    25
100
AcDbLine
 10
-0.6249831992
 20
-1.778227655
 30
0.0
 11
-0.6249831992
 21
-2.3613772613
 31
0.0
  0
LINE
  5
6E9
330
1F
100
AcDbEntity
  8
0
  6
Continuous
 62
     7
370
    25
100
AcDbLine
 10
-0.5588414669
 20
-2.2351567889
 30
0.0
 11
-0.5588414669
 21
-2.1485426156
 31
0.0
  0
LINE
  5
6EA
330
1F
100
AcDbEntity
  8
0
  6
Continuous
 62
     7
370
    25
100
AcDbLine
 10
-0.5647469787
 20
-2.2351567889
 30
0.0
 11
-0.5647469787
 21
-2.1485426156
 31
0.0
  0
LINE
  5
6EB
330
1F
100
AcDbEntity
  8
0
  6
Continuous
 62
     7
370
    25
100
AcDbLine
 10
-0.5647469787
 20
-1.9910623007
 30
0.0
 11
-0.5647469787
 21
-1.9044481275
 31
0.0
  0
LINE
  5
6EC
330
1F
100
AcDbEntity
  8
0
  6
Continuous
 62
     7
370
    25
100
AcDbLine
 10
-0.3710461913
 20
-1.9910623007
 30
0.0
 11
-0.5647469787
 21
-1.9910623007
 31
0.0
  0
LINE
  5
6ED
330
1F
100
AcDbEntity
  8
0
  6
Continuous
 62
     7
370
    25
100
AcDbLine
 10
-0.3966367425
 20
-1.9910623007
 30
0.0
 11
-0.3966367425
 21
-2.1485426156
 31
0.0
  0
LINE
  5
6EE
330
1F
100
AcDbEntity
  8
0
  6
Continuous
 62
     7
370
    25
100
AcDbLine
 10
-0.5647469787
 20
-2.1485426156
 30
0.0
 11
-0.3710461913
 21
-2.1485426156
 31
0.0
  0
LINE
  5
6EF
330
1F
100
AcDbEntity
  8
0
  6
Continuous
 62
     7
370
    25
100
AcDbLine
 10
-0.3966367425
 20
-2.2351567889
 30
0.0
 11
-0.3966367425
 21
-2.3453930093
 31
0.0
  0
LINE
  5
6F0
330
1F
100
AcDbEntity
  8
0
  6
Continuous
 62
     7
370
    25
100
AcDbLine
 10
-0.5482115456
 20
-1.7548418282
 30
0.0
 11
-0.5482115456
 21
-1.794211907
 31
0.0
  0
LINE
  5
6F1
330
1F
100
AcDbEntity
  8
0
  6
Continuous
 62
     7
370
    25
100
AcDbLine
 10
-0.380888711
 20
-1.794211907
 30
0.0
 11
-0.4320698133
 21
-1.794211907
 31
0.0
  0
LINE
  5
6F2
330
1F
100
AcDbEntity
  8
0
  6
Continuous
 62
     7
370
    25
100
AcDbLine
 10
-0.3966367425
 20
-1.794211907
 30
0.0
 11
-0.3966367425
 21
-1.9044481275
 31
0.0
  0
LINE
  5
6F3
330
1F
100
AcDbEntity
  8
0
  6
Continuous
 62
     7
370
    25
100
AcDbLine
 10
-0.5647469787
 20
-1.9044481275
 30
0.0
 11
-0.3710461913
 21
-1.9044481275
 31
0.0
  0
LINE
  5
6F4
330
1F
100
AcDbEntity
  8
0
  6
Continuous
 62
     7
370
    25
100
AcDbLine
 10
-0.4320698133
 20
-1.7548418282
 30
0.0
 11
-0.4320698133
 21
-1.794211907
 31
0.0
  0
LINE
  5
6F5
330
1F
100
AcDbEntity
  8
0
  6
Continuous
 62
     7
370
    25
100
AcDbLine
 10
-0.3710461913
 20
-2.2351567889
 30
0.0
 11
-0.5647469787
 21
-2.2351567889
 31
0.0
  0
LINE
  5
6F6
330
1F
100
AcDbEntity
  8
0
  6
Continuous
 62
     7
370
    25
100
AcDbLine
 10
-0.4320698133
 20
-2.3453930093
 30
0.0
 11
-0.380888711
 21
-2.3453930093
 31
0.0
  0
LINE
  5
6F7
330
1F
100
AcDbEntity
  8
0
  6
Continuous
 62
     7
370
    25
100
AcDbLine
 10
-0.4320698133
 20
-2.3847630881
 30
0.0
 11
-0.4320698133
 21
-2.3453930093
 31
0.0
  0
LINE
  5
6F8
330
1F
100
AcDbEntity
  8
0
  6
Continuous
 62
     7
370
    25
100
AcDbLine
 10
-0.5482115456
 20
-2.3847630881
 30
0.0
 11
-0.5482115456
 21
-2.3453930093
 31
0.0
  0
LINE
  5
6F9
330
1F
100
AcDbEntity
  8
0
  6
Continuous
 62
     7
370
    25
100
AcDbLine
 10
-0.5588414669
 20
-1.9910623007
 30
0.0
 11
-0.5588414669
 21
-1.9044481275
 31
0.0
  0
LINE
  5
6FA
330
1F
100
AcDbEntity
  8
0
  6
Continuous
 62
     7
370
    25
100
AcDbLine
 10
-0.5698650889
 20
-1.778227655
 30
0.0
 11
-0.5698650889
 21
-1.794211907
 31
0.0
  0
LINE
  5
6FB
330
1F
100
AcDbEntity
  8
0
  6
Continuous
 62
     7
370
    25
100
AcDbLine
 10
-0.5501800496
 20
-1.778227655
 30
0.0
 11
-0.5501800496
 21
-1.794211907
 31
0.0
  0
LINE
  5
6FC
330
1F
100
AcDbEntity
  8
0
  6
Continuous
 62
     7
370
    25
100
AcDbLine
 10
-0.5698650889
 20
-2.3453930093
 30
0.0
 11
-0.5698650889
 21
-2.3613772613
 31
0.0
  0
LINE
  5
6FD
330
1F
100
AcDbEntity
  8
0
  6
Continuous
 62
     7
370
    25
100
AcDbLine
 10
-0.5856131204
 20
-2.3453930093
 30
0.0
 11
-0.5856131204
 21
-2.3613772613
 31
0.0
  0
LINE
  5
6FE
330
1F
100
AcDbEntity
  8
0
  6
Continuous
 62
     7
370
    25
100
AcDbLine
 10
-0.5856131204
 20
-1.778227655
 30
0.0
 11
-0.5856131204
 21
-1.794211907
 31
0.0
  0
LINE
  5
6FF
330
1F
100
AcDbEntity
  8
0
  6
Continuous
 62
     7
370
    25
100
AcDbLine
 10
-0.5501800496
 20
-2.3453930093
 30
0.0
 11
-0.5501800496
 21
-2.3613772613
 31
0.0
  0
LINE
  5
700
330
1F
100
AcDbEntity
  8
0
  6
Continuous
 62
     7
370
    25
100
AcDbLine
 10
-0.6171091834
 20
-2.3453930093
 30
0.0
 11
-0.6171091834
 21
-2.3613772613
 31
0.0
  0
LINE
  5
701
330
1F
100
AcDbEntity
  8
0
  6
Continuous
 62
     7
370
    25
100
AcDbLine
 10
-0.5482115456
 20
-2.3613772613
 30
0.0
 11
-0.6328572149
 21
-2.3613772613
 31
0.0
  0
LINE
  5
702
330
1F
100
AcDbEntity
  8
0
  6
Continuous
 62
     7
370
    25
100
AcDbLine
 10
-0.6171091834
 20
-1.778227655
 30
0.0
 11
-0.6171091834
 21
-1.794211907
 31
0.0
  0
LINE
  5
703
330
1F
100
AcDbEntity
  8
0
  6
Continuous
 62
     7
370
    25
100
AcDbLine
 10
-0.5482115456
 20
-1.778227655
 30
0.0
 11
-0.6328572149
 21
-1.778227655
 31
0.0
  0
LINE
  5
704
330
1F
100
AcDbEntity
  8
0
  6
Continuous
 62
     7
370
    25
100
AcDbLine
 10
-0.3710461913
 20
-1.981219781
 30
0.0
 11
-0.3710461913
 21
-2.0009048204
 31
0.0
  0
LINE
  5
705
330
1F
100
AcDbEntity
  8
0
  6
Continuous
 62
     7
370
    25
100
AcDbLine
 10
-0.3710461913
 20
-2.0009048204
 30
0.0
 11
-0.3769517031
 21
-2.0009048204
 31
0.0
  0
LINE
  5
706
330
1F
100
AcDbEntity
  8
0
  6
Continuous
 62
     7
370
    25
100
AcDbLine
 10
-0.3769517031
 20
-2.0796449778
 30
0.0
 11
-0.3769517031
 21
-2.138700096
 31
0.0
  0
LINE
  5
707
330
1F
100
AcDbEntity
  8
0
  6
Continuous
 62
     7
370
    25
100
AcDbLine
 10
-0.3769517031
 20
-2.0009048204
 30
0.0
 11
-0.3769517031
 21
-2.0599599385
 31
0.0
  0
LINE
  5
708
330
1F
100
AcDbEntity
  8
0
  6
Continuous
 62
     7
370
    25
100
AcDbLine
 10
-0.3710461913
 20
-2.0599599385
 30
0.0
 11
-0.3769517031
 21
-2.0599599385
 31
0.0
  0
LINE
  5
709
330
1F
100
AcDbEntity
  8
0
  6
Continuous
 62
     7
370
    25
100
AcDbLine
 10
-0.3710461913
 20
-2.0796449778
 30
0.0
 11
-0.3769517031
 21
-2.0796449778
 31
0.0
  0
LINE
  5
70A
330
1F
100
AcDbEntity
  8
0
  6
Continuous
 62
     7
370
    25
100
AcDbLine
 10
-0.3710461913
 20
-2.138700096
 30
0.0
 11
-0.3769517031
 21
-2.138700096
 31
0.0
  0
LINE
  5
70B
330
1F
100
AcDbEntity
  8
0
  6
Continuous
 62
     7
370
    25
100
AcDbLine
 10
-0.3710461913
 20
-2.0599599385
 30
0.0
 11
-0.3710461913
 21
-2.0796449778
 31
0.0
  0
LINE
  5
70C
330
1F
100
AcDbEntity
  8
0
  6
Continuous
 62
     7
370
    25
100
AcDbLine
 10
-0.3710461913
 20
-2.138700096
 30
0.0
 11
-0.3710461913
 21
-2.1583851353
 31
0.0
  0
LINE
  5
70D
330
1F
100
AcDbEntity
  8
0
  6
Continuous
 62
     7
370
    25
100
AcDbLine
 10
-0.3828572149
 20
-1.794211907
 30
0.0
 11
-0.3828572149
 21
-1.8316134818
 31
0.0
  0
LINE
  5
70E
330
1F
100
AcDbEntity
  8
0
  6
Continuous
 62
     7
370
    25
100
AcDbLine
 10
-0.3710461913
 20
-1.792571487
 30
0.0
 11
-0.3710461913
 21
-1.9221646629
 31
0.0
  0
LINE
  5
70F
330
1F
100
AcDbEntity
  8
0
  6
Continuous
 62
     7
370
    25
100
AcDbLine
 10
-0.3710461913
 20
-1.8316134818
 30
0.0
 11
-0.3828572149
 21
-1.8316134818
 31
0.0
  0
LINE
  5
710
330
1F
100
AcDbEntity
  8
0
  6
Continuous
 62
     7
370
    25
100
AcDbLine
 10
-0.3710461913
 20
-2.2174402534
 30
0.0
 11
-0.3710461913
 21
-2.3470334293
 31
0.0
  0
LINE
  5
711
330
1F
100
AcDbEntity
  8
0
  6
Continuous
 62
     7
370
    25
100
AcDbLine
 10
-0.3828572149
 20
-2.3453930093
 30
0.0
 11
-0.3828572149
 21
-2.3079914345
 31
0.0
  0
LINE
  5
712
330
1F
100
AcDbEntity
  8
0
  6
Continuous
 62
     7
370
    25
100
AcDbLine
 10
-0.3710461913
 20
-2.3079914345
 30
0.0
 11
-0.3828572149
 21
-2.3079914345
 31
0.0
  0
LINE
  5
713
330
1F
100
AcDbEntity
  8
0
  6
Continuous
 62
     7
370
    25
100
AcDbLine
 10
-0.380888711
 20
-2.3453930093
 30
0.0
 11
-0.380888711
 21
-2.3613772613
 31
0.0
  0
LINE
  5
714
330
1F
100
AcDbEntity
  8
0
  6
Continuous
 62
     7
370
    25
100
AcDbLine
 10
-0.380888711
 20
-2.3613772613
 30
0.0
 11
-0.4320698133
 21
-2.3613772613
 31
0.0
  0
LINE
  5
715
330
1F
100
AcDbEntity
  8
0
  6
Continuous
 62
     7
370
    25
100
AcDbLine
 10
-0.380888711
 20
-1.778227655
 30
0.0
 11
-0.380888711
 21
-1.794211907
 31
0.0
  0
LINE
  5
716
330
1F
100
AcDbEntity
  8
0
  6
Continuous
 62
     7
370
    25
100
AcDbLine
 10
-0.380888711
 20
-1.778227655
 30
0.0
 11
-0.4320698133
 21
-1.778227655
 31
0.0
  0
LINE
  5
717
330
1F
100
AcDbEntity
  8
0
  6
Continuous
 62
     7
370
    25
100
AcDbLine
 10
-0.3690776874
 20
-1.7801961589
 30
0.0
 11
-0.380888711
 21
-1.778227655
 31
0.0
  0
LINE
  5
718
330
1F
100
AcDbEntity
  8
0
  6
Continuous
 62
     7
370
    25
100
AcDbLine
 10
-0.3690776874
 20
-1.780196159
 30
0.0
 11
-0.3690776874
 21
-1.792243403
 31
0.0
  0
LINE
  5
719
330
1F
100
AcDbEntity
  8
0
  6
Continuous
 62
     7
370
    25
100
AcDbLine
 10
-0.380888711
 20
-1.794211907
 30
0.0
 11
-0.3690776874
 21
-1.792243403
 31
0.0
  0
LINE
  5
71A
330
1F
100
AcDbEntity
  8
0
  6
Continuous
 62
     7
370
    25
100
AcDbLine
 10
-0.3690776874
 20
-2.3473615133
 30
0.0
 11
-0.3690776874
 21
-2.3594087574
 31
0.0
  0
LINE
  5
71B
330
1F
100
AcDbEntity
  8
0
  6
Continuous
 62
     7
370
    25
100
AcDbLine
 10
-0.3690776874
 20
-2.3473615133
 30
0.0
 11
-0.380888711
 21
-2.3453930093
 31
0.0
  0
LINE
  5
71C
330
1F
100
AcDbEntity
  8
0
  6
Continuous
 62
     7
370
    25
100
AcDbLine
 10
-0.380888711
 20
-2.3613772613
 30
0.0
 11
-0.3690776874
 21
-2.3594087574
 31
0.0
  0
LINE
  5
71D
330
1F
100
AcDbEntity
  8
0
  6
Continuous
 62
     7
370
    25
100
AcDbLine
 10
-0.4182902858
 20
-2.2351567889
 30
0.0
 11
-0.4182902858
 21
-2.1485426156
 31
0.0
  0
LINE
  5
71E
330
1F
100
AcDbEntity
  8
0
  6
Continuous
 62
     7
370
    25
100
AcDbLine
 10
-0.3769517031
 20
-2.2351567889
 30
0.0
 11
-0.3769517031
 21
-2.1485426156
 31
0.0
  0
LINE
  5
71F
330
1F
100
AcDbEntity
  8
0
  6
Continuous
 62
     7
370
    25
100
AcDbLine
 10
-0.4182902858
 20
-1.9910623007
 30
0.0
 11
-0.4182902858
 21
-1.9044481275
 31
0.0
  0
LINE
  5
720
330
1F
100
AcDbEntity
  8
0
  6
Continuous
 62
     7
370
    25
100
AcDbLine
 10
-0.3769517031
 20
-1.9910623007
 30
0.0
 11
-0.3769517031
 21
-1.9044481275
 31
0.0
  0
LINE
  5
721
330
1F
100
AcDbEntity
  8
0
  6
Continuous
 62
     7
370
    25
100
AcDbLine
 10
-0.6328572149
 20
-1.8129126944
 30
0.0
 11
-0.6249831992
 21
-1.8129126944
 31
0.0
  0
LINE
  5
722
330
1F
100
AcDbEntity
  8
0
  6
Continuous
 62
     7
370
    25
100
AcDbLine
 10
-0.627289445
 20
-1.8168497023
 30
0.0
 11
-0.6328572149
 21
-1.8129126944
 31
0.0
  0
LINE
  5
723
330
1F
100
AcDbEntity
  8
0
  6
Continuous
 62
     7
370
    25
100
AcDbLine
 10
-0.6249831992
 20
-1.8168497023
 30
0.0
 11
-0.66041627
 21
-1.8168497023
 31
0.0
  0
LINE
  5
724
330
1F
100
AcDbEntity
  8
0
  6
Continuous
 62
     7
370
    25
100
AcDbLine
 10
-0.6249831992
 20
-2.3266922219
 30
0.0
 11
-0.6328572149
 21
-2.3266922219
 31
0.0
  0
LINE
  5
725
330
1F
100
AcDbEntity
  8
0
  6
Continuous
 62
     7
370
    25
100
AcDbLine
 10
-0.6328572149
 20
-2.3266922219
 30
0.0
 11
-0.6328572149
 21
-2.3613772613
 31
0.0
  0
LINE
  5
726
330
1F
100
AcDbEntity
  8
0
  6
Continuous
 62
     7
370
    25
100
AcDbLine
 10
-0.6328572149
 20
-2.3266922219
 30
0.0
 11
-0.627289445
 21
-2.3227552141
 31
0.0
  0
LINE
  5
727
330
1F
100
AcDbEntity
  8
0
  6
Continuous
 62
     7
370
    25
100
AcDbLine
 10
-0.66041627
 20
-2.3227552141
 30
0.0
 11
-0.6249831992
 21
-2.3227552141
 31
0.0
  0
LINE
  5
728
330
1F
100
AcDbEntity
  8
0
  6
Continuous
 62
     7
370
    25
100
AcDbLine
 10
-0.6328572149
 20
-1.778227655
 30
0.0
 11
-0.6328572149
 21
-1.8129126944
 31
0.0
  0
LINE
  5
729
330
1F
100
AcDbEntity
  8
0
  6
Continuous
 62
     7
370
    25
100
AcDbLine
 10
-0.66041627
 20
-2.3227552141
 30
0.0
 11
-0.66041627
 21
-2.3453930093
 31
0.0
  0
LINE
  5
72A
330
1F
100
AcDbEntity
  8
0
  6
Continuous
 62
     7
370
    25
100
AcDbLine
 10
-0.3828572149
 20
-1.778227655
 30
0.0
 11
-0.3828572149
 21
-1.7548418282
 31
0.0
  0
LINE
  5
72B
330
1F
100
AcDbEntity
  8
0
  6
Continuous
 62
     7
370
    25
100
AcDbLine
 10
-0.66041627
 20
-2.3227552141
 30
0.0
 11
-0.6643532779
 21
-2.3266922219
 31
0.0
  0
LINE
  5
72C
330
1F
100
AcDbEntity
  8
0
  6
Continuous
 62
     7
370
    25
100
AcDbLine
 10
-0.6643532779
 20
-1.8129126944
 30
0.0
 11
-0.66041627
 21
-1.8168497023
 31
0.0
  0
LINE
  5
72D
330
1F
100
AcDbEntity
  8
0
  6
Continuous
 62
     7
370
    25
100
AcDbLine
 10
-0.6643532779
 20
-2.599723718
 30
0.0
 11
-0.6643532779
 21
-0.799723718
 31
0.0
  0
LINE
  5
72E
330
1F
100
AcDbEntity
  8
0
  6
Continuous
 62
     7
370
    25
100
AcDbLine
 10
-0.66041627
 20
-1.794211907
 30
0.0
 11
-0.66041627
 21
-1.8168497023
 31
0.0
  0
LINE
  5
72F
330
1F
100
AcDbEntity
  8
0
  6
Continuous
 62
     7
370
    25
100
AcDbLine
 10
-0.5482115456
 20
-1.794211907
 30
0.0
 11
-0.6643532779
 21
-1.794211907
 31
0.0
  0
LINE
  5
730
330
1F
100
AcDbEntity
  8
0
  6
Continuous
 62
     7
370
    25
100
AcDbLine
 10
-0.3828572149
 20
-2.3613772613
 30
0.0
 11
-0.3828572149
 21
-2.3847630881
 31
0.0
  0
LINE
  5
731
330
1F
100
AcDbEntity
  8
0
  6
Continuous
 62
     7
370
    25
100
AcDbLine
 10
-0.3710461913
 20
-1.9221646629
 30
0.0
 11
-0.3769517031
 21
-1.9221646629
 31
0.0
  0
LINE
  5
732
330
1F
100
AcDbEntity
  8
0
  6
Continuous
 62
     7
370
    25
100
AcDbLine
 10
-0.3749831992
 20
-1.7548418282
 30
0.0
 11
-0.3749831992
 21
-1.779211907
 31
0.0
  0
LINE
  5
733
330
1F
100
AcDbEntity
  8
0
  6
Continuous
 62
     7
370
    25
100
AcDbLine
 10
-0.3749831992
 20
-1.793227655
 30
0.0
 11
-0.3749831992
 21
-1.8316134818
 31
0.0
  0
LINE
  5
734
330
1F
100
AcDbEntity
  8
0
  6
Continuous
 62
     7
370
    25
100
AcDbLine
 10
-0.3749831992
 20
-1.9044481275
 30
0.0
 11
-0.3749831992
 21
-1.9221646629
 31
0.0
  0
LINE
  5
735
330
1F
100
AcDbEntity
  8
0
  6
Continuous
 62
     7
370
    25
100
AcDbLine
 10
-0.3710461913
 20
-1.7548418282
 30
0.0
 11
-0.3710461913
 21
-1.779868075
 31
0.0
  0
LINE
  5
736
330
1F
100
AcDbEntity
  8
0
  6
Continuous
 62
     7
370
    25
100
AcDbLine
 10
-0.3710461913
 20
-1.7548418282
 30
0.0
 11
-0.5482115456
 21
-1.7548418282
 31
0.0
  0
LINE
  5
737
330
1F
100
AcDbEntity
  8
0
  6
Continuous
 62
     7
370
    25
100
AcDbLine
 10
-0.3710461913
 20
-2.3597368414
 30
0.0
 11
-0.3710461913
 21
-2.3847630881
 31
0.0
  0
LINE
  5
738
330
1F
100
AcDbEntity
  8
0
  6
Continuous
 62
     7
370
    25
100
AcDbLine
 10
-0.3749831992
 20
-2.2174402534
 30
0.0
 11
-0.3749831992
 21
-2.2351567889
 31
0.0
  0
LINE
  5
739
330
1F
100
AcDbEntity
  8
0
  6
Continuous
 62
     7
370
    25
100
AcDbLine
 10
-0.3749831992
 20
-2.3079914345
 30
0.0
 11
-0.3749831992
 21
-2.3463772613
 31
0.0
  0
LINE
  5
73A
330
1F
100
AcDbEntity
  8
0
  6
Continuous
 62
     7
370
    25
100
AcDbLine
 10
-0.3749831992
 20
-2.3603930093
 30
0.0
 11
-0.3749831992
 21
-2.3847630881
 31
0.0
  0
LINE
  5
73B
330
1F
100
AcDbEntity
  8
0
  6
Continuous
 62
     7
370
    25
100
AcDbLine
 10
-0.3710461913
 20
-2.2174402534
 30
0.0
 11
-0.3769517031
 21
-2.2174402534
 31
0.0
  0
LINE
  5
73C
330
1F
100
AcDbEntity
  8
0
  6
Continuous
 62
     7
370
    25
100
AcDbLine
 10
-0.3710461913
 20
-2.3847630881
 30
0.0
 11
-0.5482115456
 21
-2.3847630881
 31
0.0
  0
LINE
  5
73D
330
1F
100
AcDbEntity
  8
0
  6
Continuous
 62
     7
370
    25
100
AcDbLine
 10
-0.3710461913
 20
-1.981219781
 30
0.0
 11
-0.3769517031
 21
-1.981219781
 31
0.0
  0
LINE
  5
73E
330
1F
100
AcDbEntity
  8
0
  6
Continuous
 62
     7
370
    25
100
AcDbLine
 10
-0.3749831992
 20
-1.981219781
 30
0.0
 11
-0.3749831992
 21
-1.9910623007
 31
0.0
  0
LINE
  5
73F
330
1F
100
AcDbEntity
  8
0
  6
Continuous
 62
     7
370
    25
100
AcDbLine
 10
-0.3749831992
 20
-2.1485426156
 30
0.0
 11
-0.3749831992
 21
-2.1583851353
 31
0.0
  0
LINE
  5
740
330
1F
100
AcDbEntity
  8
0
  6
Continuous
 62
     7
370
    25
100
AcDbLine
 10
-0.3710461913
 20
-2.1583851353
 30
0.0
 11
-0.3769517031
 21
-2.1583851353
 31
0.0
  0
LINE
  5
741
330
1F
100
AcDbEntity
  8
0
  6
Continuous
 62
     7
370
    25
100
AcDbLine
 10
-0.6564792622
 20
-1.8168497023
 30
0.0
 11
-0.6564792622
 21
-1.9043497023
 31
0.0
  0
LINE
  5
742
330
1F
100
AcDbEntity
  8
0
  6
Continuous
 62
     7
370
    25
100
AcDbLine
 10
-0.6643532779
 20
-1.9005111196
 30
0.0
 11
-0.63604221
 21
-1.9143127652
 31
0.0
  0
LINE
  5
743
330
1F
100
AcDbEntity
  8
0
  6
Continuous
 62
     7
370
    25
100
AcDbLine
 10
-0.6564792622
 20
-2.2352552141
 30
0.0
 11
-0.6564792622
 21
-2.3227552141
 31
0.0
  0
LINE
  5
744
330
1F
100
AcDbEntity
  8
0
  6
Continuous
 62
     7
370
    25
100
AcDbLine
 10
-0.63604221
 20
-2.2252921512
 30
0.0
 11
-0.6643532779
 21
-2.2390937967
 31
0.0
  0
LINE
  5
745
330
1F
100
AcDbEntity
  8
0
  6
Continuous
 62
     7
370
    25
100
AcDbLine
 10
-0.3710461913
 20
-2.1820071826
 30
0.0
 11
-0.3710461913
 21
-2.1938182062
 31
0.0
  0
LINE
  5
746
330
1F
100
AcDbEntity
  8
0
  6
Continuous
 62
     7
370
    25
100
AcDbLine
 10
-0.3297076086
 20
-2.1820071826
 30
0.0
 11
-0.3769517031
 21
-2.1820071826
 31
0.0
  0
LINE
  5
747
330
1F
100
AcDbEntity
  8
0
  6
Continuous
 62
     7
370
    25
100
AcDbLine
 10
-0.3297076086
 20
-2.1938182062
 30
0.0
 11
-0.3769517031
 21
-2.1938182062
 31
0.0
  0
LINE
  5
748
330
1F
100
AcDbEntity
  8
0
  6
Continuous
 62
     7
370
    25
100
AcDbLine
 10
-0.3297076086
 20
-1.9457867101
 30
0.0
 11
-0.3769517031
 21
-1.9457867101
 31
0.0
  0
LINE
  5
749
330
1F
100
AcDbEntity
  8
0
  6
Continuous
 62
     7
370
    25
100
AcDbLine
 10
-0.3710461913
 20
-1.9457867101
 30
0.0
 11
-0.3710461913
 21
-1.9575977338
 31
0.0
  0
LINE
  5
74A
330
1F
100
AcDbEntity
  8
0
  6
Continuous
 62
     7
370
    25
100
AcDbLine
 10
-0.3297076086
 20
-1.9575977338
 30
0.0
 11
-0.3769517031
 21
-1.9575977338
 31
0.0
  0
LINE
  5
74B
330
1F
100
AcDbEntity
  8
0
  6
Continuous
 62
     7
370
    25
100
AcDbLine
 10
-0.3710461913
 20
-2.1032670251
 30
0.0
 11
-0.3710461913
 21
-2.1150780487
 31
0.0
  0
LINE
  5
74C
330
1F
100
AcDbEntity
  8
0
  6
Continuous
 62
     7
370
    25
100
AcDbLine
 10
-0.3297076086
 20
-2.1150780487
 30
0.0
 11
-0.3769517031
 21
-2.1150780487
 31
0.0
  0
LINE
  5
74D
330
1F
100
AcDbEntity
  8
0
  6
Continuous
 62
     7
370
    25
100
AcDbLine
 10
-0.3297076086
 20
-2.1032670251
 30
0.0
 11
-0.3769517031
 21
-2.1032670251
 31
0.0
  0
LINE
  5
74E
330
1F
100
AcDbEntity
  8
0
  6
Continuous
 62
     7
370
    25
100
AcDbLine
 10
-0.3710461913
 20
-2.0245268676
 30
0.0
 11
-0.3710461913
 21
-2.0363378912
 31
0.0
  0
LINE
  5
74F
330
1F
100
AcDbEntity
  8
0
  6
Continuous
 62
     7
370
    25
100
AcDbLine
 10
-0.3297076086
 20
-2.0363378912
 30
0.0
 11
-0.3769517031
 21
-2.0363378912
 31
0.0
  0
LINE
  5
750
330
1F
100
AcDbEntity
  8
0
  6
Continuous
 62
     7
370
    25
100
AcDbLine
 10
-0.3297076086
 20
-2.0245268676
 30
0.0
 11
-0.3769517031
 21
-2.0245268676
 31
0.0
  0
LINE
  5
751
330
1F
100
AcDbEntity
  8
0
  6
Continuous
 62
     7
370
    25
100
AcDbLine
 10
-0.3297076086
 20
-1.8670465527
 30
0.0
 11
-0.3710461913
 21
-1.8670465527
 31
0.0
  0
LINE
  5
752
330
1F
100
AcDbEntity
  8
0
  6
Continuous
 62
     7
370
    25
100
AcDbLine
 10
-0.3297076086
 20
-1.8788575763
 30
0.0
 11
-0.3710461913
 21
-1.8788575763
 31
0.0
  0
LINE
  5
753
330
1F
100
AcDbEntity
  8
0
  6
Continuous
 62
     7
370
    25
100
AcDbLine
 10
-0.3297076086
 20
-1.8670465527
 30
0.0
 11
-0.3297076086
 21
-1.8788575763
 31
0.0
  0
LINE
  5
754
330
1F
100
AcDbEntity
  8
0
  6
Continuous
 62
     7
370
    25
100
AcDbLine
 10
-0.3297076086
 20
-1.9457867101
 30
0.0
 11
-0.3297076086
 21
-1.9575977338
 31
0.0
  0
LINE
  5
755
330
1F
100
AcDbEntity
  8
0
  6
Continuous
 62
     7
370
    25
100
AcDbLine
 10
-0.3297076086
 20
-2.2607473401
 30
0.0
 11
-0.3710461913
 21
-2.2607473401
 31
0.0
  0
LINE
  5
756
330
1F
100
AcDbEntity
  8
0
  6
Continuous
 62
     7
370
    25
100
AcDbLine
 10
-0.3297076086
 20
-2.2607473401
 30
0.0
 11
-0.3297076086
 21
-2.2725583637
 31
0.0
  0
LINE
  5
757
330
1F
100
AcDbEntity
  8
0
  6
Continuous
 62
     7
370
    25
100
AcDbLine
 10
-0.3297076086
 20
-2.2725583637
 30
0.0
 11
-0.3710461913
 21
-2.2725583637
 31
0.0
  0
LINE
  5
758
330
1F
100
AcDbEntity
  8
0
  6
Continuous
 62
     7
370
    25
100
AcDbLine
 10
-0.3297076086
 20
-2.1032670251
 30
0.0
 11
-0.3297076086
 21
-2.1150780487
 31
0.0
  0
LINE
  5
759
330
1F
100
AcDbEntity
  8
0
  6
Continuous
 62
     7
370
    25
100
AcDbLine
 10
-0.3297076086
 20
-2.0245268676
 30
0.0
 11
-0.3297076086
 21
-2.0363378912
 31
0.0
  0
LINE
  5
75A
330
1F
100
AcDbEntity
  8
0
  6
Continuous
 62
     7
370
    25
100
AcDbLine
 10
-0.3297076086
 20
-2.1820071826
 30
0.0
 11
-0.3297076086
 21
-2.1938182062
 31
0.0
  0
LINE
  5
75B
330
1F
100
AcDbEntity
  8
0
  6
Continuous
 62
     7
370
    25
100
AcDbLine
 10
1.3356467221
 20
-2.599723718
 30
0.0
 11
1.3356467221
 21
-0.799723718
 31
0.0
  0
LINE
  5
75C
330
1F
100
AcDbEntity
  8
0
  6
Continuous
 62
     7
370
    25
100
AcDbLine
 10
-0.5643532779
 20
-0.699723718
 30
0.0
 11
-0.1959989472
 21
-0.699723718
 31
0.0
  0
LINE
  5
75D
330
1F
100
AcDbEntity
  8
0
  6
Continuous
 62
     7
370
    25
100
AcDbLine
 10
-0.1959989472
 20
-0.7597630119
 30
0.0
 11
0.1977018402
 21
-0.7597630119
 31
0.0
  0
LINE
  5
75E
330
1F
100
AcDbEntity
  8
0
  6
Continuous
 62
     7
370
    25
100
AcDbLine
 10
-0.1959989472
 20
-0.748922345
 30
0.0
 11
0.1977018402
 21
-0.748922345
 31
0.0
  0
LINE
  5
75F
330
1F
100
AcDbEntity
  8
0
  6
Continuous
 62
     7
370
    25
100
AcDbLine
 10
-0.1959989472
 20
-0.670196159
 30
0.0
 11
-0.1959989472
 21
-0.7860623007
 31
0.0
  0
LINE
  5
760
330
1F
100
AcDbEntity
  8
0
  6
Continuous
 62
     7
370
    25
100
AcDbLine
 10
0.1926287513
 20
-0.7860623007
 30
0.0
 11
0.1977018402
 21
-0.7860623007
 31
0.0
  0
LINE
  5
761
330
1F
100
AcDbEntity
  8
0
  6
Continuous
 62
     7
370
    25
100
AcDbLine
 10
0.1856140464
 20
-0.7801641535
 30
0.0
 11
0.1926287513
 21
-0.7860623007
 31
0.0
  0
LINE
  5
762
330
1F
100
AcDbEntity
  8
0
  6
Continuous
 62
     7
370
    25
100
AcDbLine
 10
0.1856140464
 20
-0.7801641535
 30
0.0
 11
0.1752608953
 21
-0.7801641535
 31
0.0
  0
LINE
  5
763
330
1F
100
AcDbEntity
  8
0
  6
Continuous
 62
     7
370
    25
100
AcDbLine
 10
0.1752608953
 20
-0.7801641535
 30
0.0
 11
0.1752608953
 21
-0.8082596604
 31
0.0
  0
LINE
  5
764
330
1F
100
AcDbEntity
  8
0
  6
Continuous
 62
     7
370
    25
100
AcDbLine
 10
0.1856140464
 20
-0.8082596604
 30
0.0
 11
0.1752608953
 21
-0.8082596604
 31
0.0
  0
LINE
  5
765
330
1F
100
AcDbEntity
  8
0
  6
Continuous
 62
     7
370
    25
100
AcDbLine
 10
0.1926287513
 20
-0.8023615133
 30
0.0
 11
0.1856140464
 21
-0.8082596604
 31
0.0
  0
LINE
  5
766
330
1F
100
AcDbEntity
  8
0
  6
Continuous
 62
     7
370
    25
100
AcDbLine
 10
0.1926287513
 20
-0.8023615133
 30
0.0
 11
0.1977018402
 21
-0.8023615133
 31
0.0
  0
LINE
  5
767
330
1F
100
AcDbEntity
  8
0
  6
Continuous
 62
     7
370
    25
100
AcDbLine
 10
0.1926287513
 20
-0.931731592
 30
0.0
 11
0.1977018402
 21
-0.931731592
 31
0.0
  0
LINE
  5
768
330
1F
100
AcDbEntity
  8
0
  6
Continuous
 62
     7
370
    25
100
AcDbLine
 10
0.1856140464
 20
-0.9258334449
 30
0.0
 11
0.1926287513
 21
-0.931731592
 31
0.0
  0
LINE
  5
769
330
1F
100
AcDbEntity
  8
0
  6
Continuous
 62
     7
370
    25
100
AcDbLine
 10
0.1752608953
 20
-0.9258334449
 30
0.0
 11
0.1856140464
 21
-0.9258334449
 31
0.0
  0
LINE
  5
76A
330
1F
100
AcDbEntity
  8
0
  6
Continuous
 62
     7
370
    25
100
AcDbLine
 10
0.1752608953
 20
-0.9539289518
 30
0.0
 11
0.1752608953
 21
-0.9258334449
 31
0.0
  0
LINE
  5
76B
330
1F
100
AcDbEntity
  8
0
  6
Continuous
 62
     7
370
    25
100
AcDbLine
 10
0.1856140464
 20
-0.9539289518
 30
0.0
 11
0.1752608953
 21
-0.9539289518
 31
0.0
  0
LINE
  5
76C
330
1F
100
AcDbEntity
  8
0
  6
Continuous
 62
     7
370
    25
100
AcDbLine
 10
0.1926287513
 20
-0.9480308046
 30
0.0
 11
0.1856140464
 21
-0.9539289518
 31
0.0
  0
LINE
  5
76D
330
1F
100
AcDbEntity
  8
0
  6
Continuous
 62
     7
370
    25
100
AcDbLine
 10
0.1977018402
 20
-0.9480308046
 30
0.0
 11
0.1926287513
 21
-0.9480308046
 31
0.0
  0
LINE
  5
76E
330
1F
100
AcDbEntity
  8
0
  6
Continuous
 62
     7
370
    25
100
AcDbLine
 10
0.1977018402
 20
-0.9739548426
 30
0.0
 11
-0.1959989472
 21
-0.9739548426
 31
0.0
  0
LINE
  5
76F
330
1F
100
AcDbEntity
  8
0
  6
Continuous
 62
     7
370
    25
100
AcDbLine
 10
-0.2010720361
 20
-0.9480308046
 30
0.0
 11
-0.1959989472
 21
-0.9480308046
 31
0.0
  0
LINE
  5
770
330
1F
100
AcDbEntity
  8
0
  6
Continuous
 62
     7
370
    25
100
AcDbLine
 10
-0.208086741
 20
-0.9539289518
 30
0.0
 11
-0.2010720361
 21
-0.9480308046
 31
0.0
  0
LINE
  5
771
330
1F
100
AcDbEntity
  8
0
  6
Continuous
 62
     7
370
    25
100
AcDbLine
 10
-0.2184398921
 20
-0.9539289518
 30
0.0
 11
-0.208086741
 21
-0.9539289518
 31
0.0
  0
LINE
  5
772
330
1F
100
AcDbEntity
  8
0
  6
Continuous
 62
     7
370
    25
100
AcDbLine
 10
-0.2184398921
 20
-0.9258334449
 30
0.0
 11
-0.2184398921
 21
-0.9539289518
 31
0.0
  0
LINE
  5
773
330
1F
100
AcDbEntity
  8
0
  6
Continuous
 62
     7
370
    25
100
AcDbLine
 10
-0.2184398921
 20
-0.9258334449
 30
0.0
 11
-0.208086741
 21
-0.9258334449
 31
0.0
  0
LINE
  5
774
330
1F
100
AcDbEntity
  8
0
  6
Continuous
 62
     7
370
    25
100
AcDbLine
 10
-0.2010720361
 20
-0.931731592
 30
0.0
 11
-0.208086741
 21
-0.9258334449
 31
0.0
  0
LINE
  5
775
330
1F
100
AcDbEntity
  8
0
  6
Continuous
 62
     7
370
    25
100
AcDbLine
 10
-0.1959989472
 20
-0.931731592
 30
0.0
 11
-0.2010720361
 21
-0.931731592
 31
0.0
  0
LINE
  5
776
330
1F
100
AcDbEntity
  8
0
  6
Continuous
 62
     7
370
    25
100
AcDbLine
 10
-0.2010720361
 20
-0.8023615133
 30
0.0
 11
-0.1959989472
 21
-0.8023615133
 31
0.0
  0
LINE
  5
777
330
1F
100
AcDbEntity
  8
0
  6
Continuous
 62
     7
370
    25
100
AcDbLine
 10
-0.208086741
 20
-0.8082596604
 30
0.0
 11
-0.2010720361
 21
-0.8023615133
 31
0.0
  0
LINE
  5
778
330
1F
100
AcDbEntity
  8
0
  6
Continuous
 62
     7
370
    25
100
AcDbLine
 10
-0.208086741
 20
-0.8082596604
 30
0.0
 11
-0.2184398921
 21
-0.8082596604
 31
0.0
  0
LINE
  5
779
330
1F
100
AcDbEntity
  8
0
  6
Continuous
 62
     7
370
    25
100
AcDbLine
 10
-0.2184398921
 20
-0.8082596604
 30
0.0
 11
-0.2184398921
 21
-0.7801641535
 31
0.0
  0
LINE
  5
77A
330
1F
100
AcDbEntity
  8
0
  6
Continuous
 62
     7
370
    25
100
AcDbLine
 10
-0.208086741
 20
-0.7801641535
 30
0.0
 11
-0.2184398921
 21
-0.7801641535
 31
0.0
  0
LINE
  5
77B
330
1F
100
AcDbEntity
  8
0
  6
Continuous
 62
     7
370
    25
100
AcDbLine
 10
-0.2010720361
 20
-0.7860623007
 30
0.0
 11
-0.208086741
 21
-0.7801641535
 31
0.0
  0
LINE
  5
77C
330
1F
100
AcDbEntity
  8
0
  6
Continuous
 62
     7
370
    25
100
AcDbLine
 10
-0.2010720361
 20
-0.7860623007
 30
0.0
 11
-0.1959989472
 21
-0.7860623007
 31
0.0
  0
LINE
  5
77D
330
1F
100
AcDbEntity
  8
0
  6
Continuous
 62
     7
370
    25
100
AcDbLine
 10
0.1977018402
 20
-1.0245268676
 30
0.0
 11
0.1977018402
 21
-0.670196159
 31
0.0
  0
LINE
  5
77E
330
1F
100
AcDbEntity
  8
0
  6
Continuous
 62
     7
370
    25
100
AcDbLine
 10
-0.1959989472
 20
-0.8023615133
 30
0.0
 11
-0.1959989472
 21
-0.931731592
 31
0.0
  0
LINE
  5
77F
330
1F
100
AcDbEntity
  8
0
  6
Continuous
 62
     7
370
    25
100
AcDbLine
 10
-0.1959989472
 20
-1.0245268676
 30
0.0
 11
-0.1959989472
 21
-0.9480308046
 31
0.0
  0
LINE
  5
780
330
1F
100
AcDbEntity
  8
0
  6
Continuous
 62
     7
370
    25
100
AcDbLine
 10
0.1977018402
 20
-0.9847955095
 30
0.0
 11
-0.1959989472
 21
-0.9847955095
 31
0.0
  0
LINE
  5
781
330
1F
100
AcDbEntity
  8
0
  6
Continuous
 62
     7
370
    25
100
AcDbLine
 10
0.016599478
 20
-0.9938307274
 30
0.0
 11
-0.014896585
 21
-0.9938307274
 31
0.0
  0
LINE
  5
782
330
1F
100
AcDbEntity
  8
0
  6
Continuous
 62
     7
370
    25
100
AcDbLine
 10
-0.1959989472
 20
-1.0245268676
 30
0.0
 11
0.1977018402
 21
-1.0245268676
 31
0.0
  0
LINE
  5
783
330
1F
100
AcDbEntity
  8
0
  6
Continuous
 62
     7
370
    25
100
AcDbLine
 10
-0.1959989472
 20
-0.729010542
 30
0.0
 11
0.1977018402
 21
-0.729010542
 31
0.0
  0
LINE
  5
784
330
1F
100
AcDbEntity
  8
0
  6
Continuous
 62
     7
370
    25
100
AcDbLine
 10
-0.0837942228
 20
-0.8532670261
 30
0.0
 11
-0.0401487407
 21
-0.8532670299
 31
0.0
  0
LINE
  5
785
330
1F
100
AcDbEntity
  8
0
  6
Continuous
 62
     7
370
    25
100
AcDbLine
 10
-0.0837942228
 20
-0.9337694537
 30
0.0
 11
-0.0837942228
 21
-0.8808260812
 31
0.0
  0
LINE
  5
786
330
1F
100
AcDbEntity
  8
0
  6
Continuous
 62
     7
370
    25
100
AcDbLine
 10
-0.0401487431
 20
-0.880826085
 30
0.0
 11
-0.0837942228
 21
-0.8808260812
 31
0.0
  0
LINE
  5
787
330
1F
100
AcDbEntity
  8
0
  6
Continuous
 62
     7
370
    25
100
AcDbLine
 10
-0.0837942228
 20
-0.8532670261
 30
0.0
 11
-0.0837942228
 21
-0.8003236516
 31
0.0
  0
LINE
  5
788
330
1F
100
AcDbEntity
  8
0
  6
Continuous
 62
     7
370
    25
100
AcDbLine
 10
0.156701653
 20
-0.8532670299
 30
0.0
 11
0.1130561709
 21
-0.8532670261
 31
0.0
  0
LINE
  5
789
330
1F
100
AcDbEntity
  8
0
  6
Continuous
 62
     7
370
    25
100
AcDbLine
 10
0.1130561709
 20
-0.8808260812
 30
0.0
 11
0.1130561709
 21
-0.9337694537
 31
0.0
  0
LINE
  5
78A
330
1F
100
AcDbEntity
  8
0
  6
Continuous
 62
     7
370
    25
100
AcDbLine
 10
0.1567016506
 20
-0.880826085
 30
0.0
 11
0.1130561709
 21
-0.8808260812
 31
0.0
  0
LINE
  5
78B
330
1F
100
AcDbEntity
  8
0
  6
Continuous
 62
     7
370
    25
100
AcDbLine
 10
0.1130561709
 20
-0.8532670261
 30
0.0
 11
0.1130561709
 21
-0.8003236516
 31
0.0
  0
LINE
  5
78C
330
1F
100
AcDbEntity
  8
0
  6
Continuous
 62
     7
370
    25
100
AcDbLine
 10
0.0854971158
 20
-0.8808260788
 30
0.0
 11
0.0418516336
 21
-0.8808260749
 31
0.0
  0
LINE
  5
78D
330
1F
100
AcDbEntity
  8
0
  6
Continuous
 62
     7
370
    25
100
AcDbLine
 10
0.0854971158
 20
-0.8808260788
 30
0.0
 11
0.0854971158
 21
-0.9337694537
 31
0.0
  0
LINE
  5
78E
330
1F
100
AcDbEntity
  8
0
  6
Continuous
 62
     7
370
    25
100
AcDbLine
 10
0.0418516362
 20
-0.8532670198
 30
0.0
 11
0.0854971158
 21
-0.8532670237
 31
0.0
  0
LINE
  5
78F
330
1F
100
AcDbEntity
  8
0
  6
Continuous
 62
     7
370
    25
100
AcDbLine
 10
0.0854971158
 20
-0.8003236516
 30
0.0
 11
0.0854971158
 21
-0.8532670237
 31
0.0
  0
LINE
  5
790
330
1F
100
AcDbEntity
  8
0
  6
Continuous
 62
     7
370
    25
100
AcDbLine
 10
-0.1549987575
 20
-0.8532670198
 30
0.0
 11
-0.1113532779
 21
-0.8532670237
 31
0.0
  0
LINE
  5
791
330
1F
100
AcDbEntity
  8
0
  6
Continuous
 62
     7
370
    25
100
AcDbLine
 10
-0.1113532779
 20
-0.8808260788
 30
0.0
 11
-0.1549987601
 21
-0.8808260749
 31
0.0
  0
LINE
  5
792
330
1F
100
AcDbEntity
  8
0
  6
Continuous
 62
     7
370
    25
100
AcDbLine
 10
-0.1113532779
 20
-0.9337694537
 30
0.0
 11
-0.1113532779
 21
-0.8808260788
 31
0.0
  0
LINE
  5
793
330
1F
100
AcDbEntity
  8
0
  6
Continuous
 62
     7
370
    25
100
AcDbLine
 10
-0.1113532779
 20
-0.8532670237
 30
0.0
 11
-0.1113532779
 21
-0.8003236516
 31
0.0
  0
LINE
  5
794
330
1F
100
AcDbEntity
  8
0
  6
Continuous
 62
     7
370
    25
100
AcDbLine
 10
0.025241121
 20
-0.8670465527
 30
0.0
 11
0.0245170562
 21
-0.8670465527
 31
0.0
  0
LINE
  5
795
330
1F
100
AcDbEntity
  8
0
  6
Continuous
 62
     7
370
    25
100
AcDbLine
 10
0.1733121657
 20
-0.8670465527
 30
0.0
 11
0.1740362305
 21
-0.8670465527
 31
0.0
  0
LINE
  5
796
330
1F
100
AcDbEntity
  8
0
  6
Continuous
 62
     7
370
    25
100
AcDbLine
 10
-0.1716092727
 20
-0.8670465527
 30
0.0
 11
-0.1723333375
 21
-0.8670465527
 31
0.0
  0
LINE
  5
797
330
1F
100
AcDbEntity
  8
0
  6
Continuous
 62
     7
370
    25
100
AcDbLine
 10
-0.023538228
 20
-0.8670465527
 30
0.0
 11
-0.0228141632
 21
-0.8670465527
 31
0.0
  0
LINE
  5
798
330
1F
100
AcDbEntity
  8
0
  6
Continuous
 62
     7
370
    25
100
AcDbLine
 10
-0.0975737503
 20
-0.8475977338
 30
0.0
 11
-0.0975737503
 21
-0.8864953715
 31
0.0
  0
LINE
  5
799
330
1F
100
AcDbEntity
  8
0
  6
Continuous
 62
     7
370
    25
100
AcDbLine
 10
0.0992766434
 20
-0.8864953715
 30
0.0
 11
0.0992766434
 21
-0.8475977338
 31
0.0
  0
LINE
  5
79A
330
1F
100
AcDbEntity
  8
0
  6
Continuous
 62
     7
370
    25
100
AcDbLine
 10
-0.014896585
 20
-1.0245268676
 30
0.0
 11
-0.014896585
 21
-0.9938307274
 31
0.0
  0
LINE
  5
79B
330
1F
100
AcDbEntity
  8
0
  6
Continuous
 62
     7
370
    25
100
AcDbLine
 10
-0.014896585
 20
-1.012715844
 30
0.0
 11
0.016599478
 21
-1.012715844
 31
0.0
  0
LINE
  5
79C
330
1F
100
AcDbEntity
  8
0
  6
Continuous
 62
     7
370
    25
100
AcDbLine
 10
0.016599478
 20
-1.0245268676
 30
0.0
 11
0.016599478
 21
-0.9938307274
 31
0.0
  0
LINE
  5
79D
330
1F
100
AcDbEntity
  8
0
  6
Continuous
 62
     7
370
    25
100
AcDbLine
 10
-0.1959989472
 20
-0.7087788755
 30
0.0
 11
0.1977018402
 21
-0.7087788755
 31
0.0
  0
LINE
  5
79E
330
1F
100
AcDbEntity
  8
0
  6
Continuous
 62
     7
370
    25
100
AcDbLine
 10
0.0087254623
 20
-0.699723718
 30
0.0
 11
0.1858908166
 21
-0.699723718
 31
0.0
  0
LINE
  5
79F
330
1F
100
AcDbEntity
  8
0
  6
Continuous
 62
     7
370
    25
100
AcDbLine
 10
0.1858908166
 20
-0.670196159
 30
0.0
 11
0.1858908166
 21
-0.699723718
 31
0.0
  0
LINE
  5
7A0
330
1F
100
AcDbEntity
  8
0
  6
Continuous
 62
     7
370
    25
100
AcDbLine
 10
0.1858908166
 20
-0.670196159
 30
0.0
 11
0.1977018402
 21
-0.670196159
 31
0.0
  0
LINE
  5
7A1
330
1F
100
AcDbEntity
  8
0
  6
Continuous
 62
     7
370
    25
100
AcDbLine
 10
-0.1959989472
 20
-0.670196159
 30
0.0
 11
-0.1841879236
 21
-0.670196159
 31
0.0
  0
LINE
  5
7A2
330
1F
100
AcDbEntity
  8
0
  6
Continuous
 62
     7
370
    25
100
AcDbLine
 10
-0.1841879236
 20
-0.699723718
 30
0.0
 11
-0.1841879236
 21
-0.670196159
 31
0.0
  0
LINE
  5
7A3
330
1F
100
AcDbEntity
  8
0
  6
Continuous
 62
     7
370
    25
100
AcDbLine
 10
-0.1841879236
 20
-0.699723718
 30
0.0
 11
-0.0070225692
 21
-0.699723718
 31
0.0
  0
LINE
  5
7A4
330
1F
100
AcDbEntity
  8
0
  6
Continuous
 62
     7
370
    25
100
AcDbLine
 10
-0.0070225692
 20
-0.670196159
 30
0.0
 11
-0.0070225692
 21
-0.699723718
 31
0.0
  0
LINE
  5
7A5
330
1F
100
AcDbEntity
  8
0
  6
Continuous
 62
     7
370
    25
100
AcDbLine
 10
-0.0070225692
 20
-0.670196159
 30
0.0
 11
0.0087254623
 21
-0.670196159
 31
0.0
  0
LINE
  5
7A6
330
1F
100
AcDbEntity
  8
0
  6
Continuous
 62
     7
370
    25
100
AcDbLine
 10
0.0087254623
 20
-0.670196159
 30
0.0
 11
0.0087254623
 21
-0.699723718
 31
0.0
  0
LINE
  5
7A7
330
1F
100
AcDbEntity
  8
0
  6
Continuous
 62
     7
370
    25
100
AcDbLine
 10
-0.1841879236
 20
-0.670196159
 30
0.0
 11
-0.1763139078
 21
-0.6838343543
 31
0.0
  0
LINE
  5
7A8
330
1F
100
AcDbEntity
  8
0
  6
Continuous
 62
     7
370
    25
100
AcDbLine
 10
-0.1763139078
 20
-0.699723718
 30
0.0
 11
-0.1763139078
 21
-0.6838343543
 31
0.0
  0
LINE
  5
7A9
330
1F
100
AcDbEntity
  8
0
  6
Continuous
 62
     7
370
    25
100
AcDbLine
 10
0.1780168008
 20
-0.6838343543
 30
0.0
 11
0.1780168008
 21
-0.699723718
 31
0.0
  0
LINE
  5
7AA
330
1F
100
AcDbEntity
  8
0
  6
Continuous
 62
     7
370
    25
100
AcDbLine
 10
0.1780168008
 20
-0.6838343543
 30
0.0
 11
0.1858908166
 21
-0.670196159
 31
0.0
  0
LINE
  5
7AB
330
1F
100
AcDbEntity
  8
0
  6
Continuous
 62
     7
370
    25
100
AcDbLine
 10
-0.014896585
 20
-0.6838343543
 30
0.0
 11
-0.014896585
 21
-0.699723718
 31
0.0
  0
LINE
  5
7AC
330
1F
100
AcDbEntity
  8
0
  6
Continuous
 62
     7
370
    25
100
AcDbLine
 10
-0.014896585
 20
-0.6838343543
 30
0.0
 11
-0.0070225692
 21
-0.670196159
 31
0.0
  0
LINE
  5
7AD
330
1F
100
AcDbEntity
  8
0
  6
Continuous
 62
     7
370
    25
100
AcDbLine
 10
0.0087254623
 20
-0.670196159
 30
0.0
 11
0.016599478
 21
-0.6838343543
 31
0.0
  0
LINE
  5
7AE
330
1F
100
AcDbEntity
  8
0
  6
Continuous
 62
     7
370
    25
100
AcDbLine
 10
0.016599478
 20
-0.699723718
 30
0.0
 11
0.016599478
 21
-0.6838343543
 31
0.0
  0
ARC
  5
7AF
330
1F
100
AcDbEntity
  8
0
  6
Continuous
 62
     7
370
    25
100
AcDbCircle
 10
-0.6446682385
 20
-1.4674402534
 30
0.0
 40
0.0196850393700792
100
AcDbArc
 50
295.9892338802
 51
359.9999894138
  0
ARC
  5
7B0
330
1F
100
AcDbEntity
  8
0
  6
Continuous
 62
     7
370
    25
100
AcDbCircle
 10
-0.6446682385
 20
-1.1918497023
 30
0.0
 40
0.0196850393700784
100
AcDbArc
 50
359.9999468666
 51
64.0107664156
  0
ARC
  5
7B1
330
1F
100
AcDbEntity
  8
0
  6
Continuous
 62
     7
370
    25
100
AcDbCircle
 10
-0.6446682385
 20
-1.9320071826
 30
0.0
 40
0.0196850393700795
100
AcDbArc
 50
359.9999468666
 51
64.0107664156
  0
ARC
  5
7B2
330
1F
100
AcDbEntity
  8
0
  6
Continuous
 62
     7
370
    25
100
AcDbCircle
 10
-0.6446682385
 20
-2.2075977338
 30
0.0
 40
0.0196850393700791
100
AcDbArc
 50
295.9892338802
 51
359.9999894138
  0
ARC
  5
7B3
330
1F
100
AcDbEntity
  8
0
  6
Continuous
 62
     7
370
    25
100
AcDbCircle
 10
1.2356467221
 20
-0.799723718
 30
0.0
 40
0.0999999999999999
100
AcDbArc
 50
0.0
 51
90.0
  0
ARC
  5
7B4
330
1F
100
AcDbEntity
  8
0
  6
Continuous
 62
     7
370
    25
100
AcDbCircle
 10
-0.5643532779
 20
-2.599723718
 30
0.0
 40
0.100000000000001
100
AcDbArc
 50
180.0
 51
270.0
  0
ARC
  5
7B5
330
1F
100
AcDbEntity
  8
0
  6
Continuous
 62
     7
370
    25
100
AcDbCircle
 10
-0.5643532779
 20
-0.799723718
 30
0.0
 40
0.1000000000000001
100
AcDbArc
 50
90.0
 51
180.0
  0
ARC
  5
7B6
330
1F
100
AcDbEntity
  8
0
  6
Continuous
 62
     7
370
    25
100
AcDbCircle
 10
1.2356467221
 20
-2.599723718
 30
0.0
 40
0.1000000000000001
100
AcDbArc
 50
270.0
 51
0.0
  0
ARC
  5
7B7
330
1F
100
AcDbEntity
  8
0
  6
Continuous
 62
     7
370
    25
100
AcDbCircle
 10
0.0992766434
 20
-0.8670465527
 30
0.0
 40
0.0787401574803169
100
AcDbArc
 50
90.0
 51
270.0
  0
ARC
  5
7B8
330
1F
100
AcDbEntity
  8
0
  6
Continuous
 62
     7
370
    25
100
AcDbCircle
 10
-0.0975737503
 20
-0.8670465527
 30
0.0
 40
0.0787401574803169
100
AcDbArc
 50
270.0
 51
90.0
  0
ARC
  5
7B9
330
1F
100
AcDbEntity
  8
0
  6
Continuous
 62
     7
370
    25
100
AcDbCircle
 10
0.0992766434
 20
-0.880835702
 30
0.0
 40
0.1392373659376401
100
AcDbArc
 50
251.8786475699
 51
288.1213524301
  0
ARC
  5
7BA
330
1F
100
AcDbEntity
  8
0
  6
Continuous
 62
     7
370
    25
100
AcDbCircle
 10
0.1099401901
 20
-1.1000144973
 30
0.0
 40
0.0927798984704025
100
AcDbArc
 50
69.4001929854
 51
96.5998070146
  0
ARC
  5
7BB
330
1F
100
AcDbEntity
  8
0
  6
Continuous
 62
     7
370
    25
100
AcDbCircle
 10
0.0886130966
 20
-1.1000144973
 30
0.0
 40
0.0927798984704025
100
AcDbArc
 50
83.4001929854
 51
110.5998070146
  0
ARC
  5
7BC
330
1F
100
AcDbEntity
  8
0
  6
Continuous
 62
     7
370
    25
100
AcDbCircle
 10
-0.0975737503
 20
-1.1488301232
 30
0.0
 40
0.14240793393544
100
AcDbArc
 50
72.2956218585
 51
107.7043781415
  0
ARC
  5
7BD
330
1F
100
AcDbEntity
  8
0
  6
Continuous
 62
     7
370
    25
100
AcDbCircle
 10
-0.1082372971
 20
-0.9263192601
 30
0.0
 40
0.092779898470405
100
AcDbArc
 50
249.4001929854
 51
276.5998070146
  0
ARC
  5
7BE
330
1F
100
AcDbEntity
  8
0
  6
Continuous
 62
     7
370
    25
100
AcDbCircle
 10
-0.087348322
 20
-0.9227510726
 30
0.0
 40
0.0962777965517109
100
AcDbArc
 50
263.903257167
 51
290.096742833
  0
ARC
  5
7BF
330
1F
100
AcDbEntity
  8
0
  6
Continuous
 62
     7
370
    25
100
AcDbCircle
 10
0.0992766434
 20
-0.8670465527
 30
0.0
 40
0.0681309100203515
100
AcDbArc
 50
281.6686076366
 51
78.3313923634
  0
ARC
  5
7C0
330
1F
100
AcDbEntity
  8
0
  6
Continuous
 62
     7
370
    25
100
AcDbCircle
 10
0.0992766434
 20
-0.8670465527
 30
0.0
 40
0.0740355223933294
100
AcDbArc
 50
280.7264662974
 51
79.2735337026
  0
ARC
  5
7C1
330
1F
100
AcDbEntity
  8
0
  6
Continuous
 62
     7
370
    25
100
AcDbCircle
 10
-0.0975737503
 20
-0.8670465527
 30
0.0
 40
0.0590551181102849
100
AcDbArc
 50
346.5065963772
 51
13.4933940203
  0
ARC
  5
7C2
330
1F
100
AcDbEntity
  8
0
  6
Continuous
 62
     7
370
    25
100
AcDbCircle
 10
-0.0975737503
 20
-0.8670465527
 30
0.0
 40
0.0681309100203516
100
AcDbArc
 50
281.6686076366
 51
78.3313923634
  0
ARC
  5
7C3
330
1F
100
AcDbEntity
  8
0
  6
Continuous
 62
     7
370
    25
100
AcDbCircle
 10
-0.0975737503
 20
-0.8670465527
 30
0.0
 40
0.0681309100203487
100
AcDbArc
 50
101.6686076366
 51
258.3313923634
  0
ARC
  5
7C4
330
1F
100
AcDbEntity
  8
0
  6
Continuous
 62
     7
370
    25
100
AcDbCircle
 10
-0.0975737503
 20
-0.8670465527
 30
0.0
 40
0.0740355223961662
100
AcDbArc
 50
100.7264662991
 51
259.2735337038
  0
ARC
  5
7C5
330
1F
100
AcDbEntity
  8
0
  6
Continuous
 62
     7
370
    25
100
AcDbCircle
 10
0.0992766434
 20
-0.8670465527
 30
0.0
 40
0.0590551181102845
100
AcDbArc
 50
346.5065963772
 51
13.4933940203
  0
ARC
  5
7C6
330
1F
100
AcDbEntity
  8
0
  6
Continuous
 62
     7
370
    25
100
AcDbCircle
 10
-0.0975737503
 20
-0.8670465526
 30
0.0
 40
0.0740355223961667
100
AcDbArc
 50
280.7264662991
 51
79.2735337038
  0
ARC
  5
7C7
330
1F
100
AcDbEntity
  8
0
  6
Continuous
 62
     7
370
    25
100
AcDbCircle
 10
0.0992766434
 20
-0.8670465527
 30
0.0
 40
0.059055118110396
100
AcDbArc
 50
166.5065959194
 51
193.4933935625
  0
ARC
  5
7C8
330
1F
100
AcDbEntity
  8
0
  6
Continuous
 62
     7
370
    25
100
AcDbCircle
 10
0.0992766434
 20
-0.8670465527
 30
0.0
 40
0.0681309100203487
100
AcDbArc
 50
101.6686076366
 51
258.3313923634
  0
ARC
  5
7C9
330
1F
100
AcDbEntity
  8
0
  6
Continuous
 62
     7
370
    25
100
AcDbCircle
 10
0.0992766434
 20
-0.8670465527
 30
0.0
 40
0.0740355223933291
100
AcDbArc
 50
100.7264662974
 51
259.2735337026
  0
ARC
  5
7CA
330
1F
100
AcDbEntity
  8
0
  6
Continuous
 62
     7
370
    25
100
AcDbCircle
 10
-0.0975737503
 20
-0.8670465527
 30
0.0
 40
0.0590551181102495
100
AcDbArc
 50
166.5065959194
 51
193.4933935626
  0
ARC
  5
7CB
330
1F
100
AcDbEntity
  8
0
  6
Continuous
 62
     7
370
    25
100
AcDbCircle
 10
0.0992766434
 20
-0.8670465527
 30
0.0
 40
0.0747595871413898
100
AcDbArc
 50
180.0
 51
0.0
  0
ARC
  5
7CC
330
1F
100
AcDbEntity
  8
0
  6
Continuous
 62
     7
370
    25
100
AcDbCircle
 10
0.0992766434
 20
-0.8670465527
 30
0.0
 40
0.0746214475949206
100
AcDbArc
 50
259.3587435625
 51
280.6412564375
  0
ARC
  5
7CD
330
1F
100
AcDbEntity
  8
0
  6
Continuous
 62
     7
370
    25
100
AcDbCircle
 10
-0.0975737503
 20
-0.8670465527
 30
0.0
 40
0.0747595871413898
100
AcDbArc
 50
180.0
 51
0.0
  0
ARC
  5
7CE
330
1F
100
AcDbEntity
  8
0
  6
Continuous
 62
     7
370
    25
100
AcDbCircle
 10
-0.0975737503
 20
-0.8670465527
 30
0.0
 40
0.0746214475949806
100
AcDbArc
 50
259.3587435625
 51
280.6412564375
  0
ARC
  5
7CF
330
1F
100
AcDbEntity
  8
0
  6
Continuous
 62
     7
370
    25
100
AcDbCircle
 10
0.0992766434
 20
-0.8670465527
 30
0.0
 40
0.0746214475949728
100
AcDbArc
 50
79.3587435625
 51
100.6412564375
  0
ARC
  5
7D0
330
1F
100
AcDbEntity
  8
0
  6
Continuous
 62
     7
370
    25
100
AcDbCircle
 10
-0.0975737503
 20
-0.8670465527
 30
0.0
 40
0.0746214475949827
100
AcDbArc
 50
79.3587435625
 51
100.6412564375
  0
ARC
  5
7D1
330
1F
100
AcDbEntity
  8
0
  6
Continuous
 62
     7
370
    25
100
AcDbCircle
 10
-0.0975737503
 20
-0.8670465527
 30
0.0
 40
0.0194488188976379
100
AcDbArc
 50
89.9999999999
 51
270.0000000001
  0
ARC
  5
7D2
330
1F
100
AcDbEntity
  8
0
  6
Continuous
 62
     7
370
    25
100
AcDbCircle
 10
0.0992766434
 20
-0.8670465527
 30
0.0
 40
0.0194488188976379
100
AcDbArc
 50
89.9999999999
 51
270.0000000001
  0
MTEXT
  5
7D4
330
1F
100
AcDbEntity
  8
0
  6
Continuous
 62
     7
100
AcDbMText
 10
-0.6643532779
 20
-2.7398641271
 30
0.0
 40
0.1903
 41
0.0
 71
     1
 72
     1
  1
SOLIDWORKS Educational Product.
  7
SLDTEXTSTYLE0
 73
     1
 44
1.0
  0
MTEXT
  5
7D5
330
1F
100
AcDbEntity
  8
0
  6
Continuous
 62
     7
100
AcDbMText
 10
-0.6643532779
 20
-3.0253141271
 30
0.0
 40
0.1903
 41
0.0
 71
     1
 72
     1
  1
For Instructional Use Only.
  7
SLDTEXTSTYLE0
 73
     1
 44
1.0
  0
ENDSEC
  0
SECTION
  2
OBJECTS
  0
DICTIONARY
  5
C
330
0
100
AcDbDictionary
281
     1
  3
ACAD_GROUP
350
D
  3
ACAD_LAYOUT
350
1A
  3
ACAD_MLINESTYLE
350
17
  3
ACAD_PLOTSETTINGS
350
19
  3
ACAD_PLOTSTYLENAME
350
E
  3
ACAD_SCALELIST
350
47
  0
DICTIONARY
  5
D
102
{ACAD_REACTORS
330
C
102
}
330
C
100
AcDbDictionary
281
     1
  0
DICTIONARY
  5
1A
102
{ACAD_REACTORS
330
C
102
}
330
C
100
AcDbDictionary
281
     1
  3
Layout1
350
1E
  3
Layout2
350
26
  3
Model
350
22
  0
DICTIONARY
  5
17
102
{ACAD_REACTORS
330
C
102
}
330
C
100
AcDbDictionary
281
     1
  3
Standard
350
18
  0
DICTIONARY
  5
19
102
{ACAD_REACTORS
330
C
102
}
330
C
100
AcDbDictionary
281
     1
  0
ACDBDICTIONARYWDFLT
  5
E
102
{ACAD_REACTORS
330
C
102
}
330
C
100
AcDbDictionary
281
     1
  3
Normal
350
F
100
AcDbDictionaryWithDefault
340
F
  0
DICTIONARY
  5
47
102
{ACAD_REACTORS
330
C
102
}
330
C
100
AcDbDictionary
281
     1
  3
A0
350
48
  3
A1
350
49
  3
A2
350
4A
  3
A3
350
4B
  3
A4
350
4C
  3
A5
350
4D
  3
A6
350
4E
  3
A7
350
4F
  3
A8
350
50
  3
A9
350
51
  3
B0
350
52
  3
B1
350
53
  3
B2
350
54
  3
B3
350
55
  3
B4
350
56
  3
B5
350
57
  3
B6
350
58
  3
B7
350
59
  3
B8
350
5A
  3
B9
350
5B
  3
C0
350
5C
  3
C1
350
5D
  3
C2
350
5E
  3
C3
350
5F
  3
C4
350
60
  3
C5
350
61
  3
C6
350
62
  3
C7
350
63
  3
C8
350
64
  3
C9
350
65
  3
D0
350
66
  3
D1
350
67
  3
D2
350
68
  0
LAYOUT
  5
1E
102
{ACAD_REACTORS
330
1A
102
}
330
1A
100
AcDbPlotSettings
  1

  2
none_device
  4

  6

 40
0.0
 41
0.0
 42
0.0
 43
0.0
 44
0.0
 45
0.0
 46
0.0
 47
0.0
 48
0.0
 49
0.0
140
0.0
141
0.0
142
1.0
143
1.0
 70
   688
 72
     0
 73
     0
 74
     5
  7

 75
    16
147
1.0
148
0.0
149
0.0
100
AcDbLayout
  1
Layout1
 70
     1
 71
     1
 10
0.0
 20
0.0
 11
12.0
 21
9.0
 12
0.0
 22
0.0
 32
0.0
 14
1.0000000000E+20
 24
1.0000000000E+20
 34
1.0000000000E+20
 15
-1.0000000000E+20
 25
-1.0000000000E+20
 35
-1.0000000000E+20
146
0.0
 13
0.0
 23
0.0
 33
0.0
 16
1.0
 26
0.0
 36
0.0
 17
0.0
 27
1.0
 37
0.0
 76
     0
330
1B
  0
LAYOUT
  5
26
102
{ACAD_REACTORS
330
1A
102
}
330
1A
100
AcDbPlotSettings
  1

  2
none_device
  4

  6

 40
0.0
 41
0.0
 42
0.0
 43
0.0
 44
0.0
 45
0.0
 46
0.0
 47
0.0
 48
0.0
 49
0.0
140
0.0
141
0.0
142
1.0
143
1.0
 70
   688
 72
     0
 73
     0
 74
     5
  7

 75
    16
147
1.0
148
0.0
149
0.0
100
AcDbLayout
  1
Layout2
 70
     1
 71
     2
 10
0.0
 20
0.0
 11
0.0
 21
0.0
 12
0.0
 22
0.0
 32
0.0
 14
0.0
 24
0.0
 34
0.0
 15
0.0
 25
0.0
 35
0.0
146
0.0
 13
0.0
 23
0.0
 33
0.0
 16
1.0
 26
0.0
 36
0.0
 17
0.0
 27
1.0
 37
0.0
 76
     0
330
23
  0
LAYOUT
  5
22
102
{ACAD_REACTORS
330
1A
102
}
330
1A
100
AcDbPlotSettings
  1

  2
none_device
  4
ANSI_A_(11.00_x_8.50_Inches)
  6

 40
6.35
 41
19.05
 42
6.35000508
 43
19.05000254
 44
279.4
 45
215.9
 46
101.6620707697
 47
236.9065513835
 48
0.0
 49
0.0
140
0.0
141
0.0
142
3.7168727915
143
1.0
 70
  1696
 72
     0
 73
     0
 74
     0
  7

 75
     0
147
0.5913241897
148
-39.4088153714
149
0.0
100
AcDbLayout
  1
Model
 70
     1
 71
     0
 10
0.0
 20
0.0
 11
12.0
 21
9.0
 12
0.0
 22
0.0
 32
0.0
 14
-0.6643532779
 24
-2.699723718
 34
0.0
 15
1.3356467221
 25
-0.435723718
 35
0.0
146
0.0
 13
0.0
 23
0.0
 33
0.0
 16
1.0
 26
0.0
 36
0.0
 17
0.0
 27
1.0
 37
0.0
 76
     0
330
1F
331
29
  0
MLINESTYLE
  5
18
102
{ACAD_REACTORS
330
17
102
}
330
17
100
AcDbMlineStyle
  2
Standard
 70
     0
  3

 62
   256
 51
90.0
 52
90.0
 71
     2
 49
0.5
 62
   256
  6
BYLAYER
 49
-0.5
 62
   256
  6
BYLAYER
  0
ACDBPLACEHOLDER
  5
F
102
{ACAD_REACTORS
330
E
102
}
330
E
  0
SCALE
  5
48
102
{ACAD_REACTORS
330
47
102
}
330
47
100
AcDbScale
 70
     0
300
1:1
140
1.0
141
1.0
290
     1
  0
SCALE
  5
49
102
{ACAD_REACTORS
330
47
102
}
330
47
100
AcDbScale
 70
     0
300
1:2
140
1.0
141
2.0
290
     0
  0
SCALE
  5
4A
102
{ACAD_REACTORS
330
47
102
}
330
47
100
AcDbScale
 70
     0
300
1:4
140
1.0
141
4.0
290
     0
  0
SCALE
  5
4B
102
{ACAD_REACTORS
330
47
102
}
330
47
100
AcDbScale
 70
     0
300
1:5
140
1.0
141
5.0
290
     0
  0
SCALE
  5
4C
102
{ACAD_REACTORS
330
47
102
}
330
47
100
AcDbScale
 70
     0
300
1:8
140
1.0
141
8.0
290
     0
  0
SCALE
  5
4D
102
{ACAD_REACTORS
330
47
102
}
330
47
100
AcDbScale
 70
     0
300
1:10
140
1.0
141
10.0
290
     0
  0
SCALE
  5
4E
102
{ACAD_REACTORS
330
47
102
}
330
47
100
AcDbScale
 70
     0
300
1:16
140
1.0
141
16.0
290
     0
  0
SCALE
  5
4F
102
{ACAD_REACTORS
330
47
102
}
330
47
100
AcDbScale
 70
     0
300
1:20
140
1.0
141
20.0
290
     0
  0
SCALE
  5
50
102
{ACAD_REACTORS
330
47
102
}
330
47
100
AcDbScale
 70
     0
300
1:30
140
1.0
141
30.0
290
     0
  0
SCALE
  5
51
102
{ACAD_REACTORS
330
47
102
}
330
47
100
AcDbScale
 70
     0
300
1:40
140
1.0
141
40.0
290
     0
  0
SCALE
  5
52
102
{ACAD_REACTORS
330
47
102
}
330
47
100
AcDbScale
 70
     0
300
1:50
140
1.0
141
50.0
290
     0
  0
SCALE
  5
53
102
{ACAD_REACTORS
330
47
102
}
330
47
100
AcDbScale
 70
     0
300
1:100
140
1.0
141
100.0
290
     0
  0
SCALE
  5
54
102
{ACAD_REACTORS
330
47
102
}
330
47
100
AcDbScale
 70
     0
300
2:1
140
2.0
141
1.0
290
     0
  0
SCALE
  5
55
102
{ACAD_REACTORS
330
47
102
}
330
47
100
AcDbScale
 70
     0
300
4:1
140
4.0
141
1.0
290
     0
  0
SCALE
  5
56
102
{ACAD_REACTORS
330
47
102
}
330
47
100
AcDbScale
 70
     0
300
8:1
140
8.0
141
1.0
290
     0
  0
SCALE
  5
57
102
{ACAD_REACTORS
330
47
102
}
330
47
100
AcDbScale
 70
     0
300
10:1
140
10.0
141
1.0
290
     0
  0
SCALE
  5
58
102
{ACAD_REACTORS
330
47
102
}
330
47
100
AcDbScale
 70
     0
300
100:1
140
100.0
141
1.0
290
     0
  0
SCALE
  5
59
102
{ACAD_REACTORS
330
47
102
}
330
47
100
AcDbScale
 70
     0
300
1/128" = 1'-0"
140
0.0078125
141
12.0
290
     0
  0
SCALE
  5
5A
102
{ACAD_REACTORS
330
47
102
}
330
47
100
AcDbScale
 70
     0
300
1/64" = 1'-0"
140
0.015625
141
12.0
290
     0
  0
SCALE
  5
5B
102
{ACAD_REACTORS
330
47
102
}
330
47
100
AcDbScale
 70
     0
300
1/32" = 1'-0"
140
0.03125
141
12.0
290
     0
  0
SCALE
  5
5C
102
{ACAD_REACTORS
330
47
102
}
330
47
100
AcDbScale
 70
     0
300
1/16" = 1'-0"
140
0.0625
141
12.0
290
     0
  0
SCALE
  5
5D
102
{ACAD_REACTORS
330
47
102
}
330
47
100
AcDbScale
 70
     0
300
3/32" = 1'-0"
140
0.09375
141
12.0
290
     0
  0
SCALE
  5
5E
102
{ACAD_REACTORS
330
47
102
}
330
47
100
AcDbScale
 70
     0
300
1/8" = 1'-0"
140
0.125
141
12.0
290
     0
  0
SCALE
  5
5F
102
{ACAD_REACTORS
330
47
102
}
330
47
100
AcDbScale
 70
     0
300
3/16" = 1'-0"
140
0.1875
141
12.0
290
     0
  0
SCALE
  5
60
102
{ACAD_REACTORS
330
47
102
}
330
47
100
AcDbScale
 70
     0
300
1/4" = 1'-0"
140
0.25
141
12.0
290
     0
  0
SCALE
  5
61
102
{ACAD_REACTORS
330
47
102
}
330
47
100
AcDbScale
 70
     0
300
3/8" = 1'-0"
140
0.375
141
12.0
290
     0
  0
SCALE
  5
62
102
{ACAD_REACTORS
330
47
102
}
330
47
100
AcDbScale
 70
     0
300
1/2" = 1'-0"
140
0.5
141
12.0
290
     0
  0
SCALE
  5
63
102
{ACAD_REACTORS
330
47
102
}
330
47
100
AcDbScale
 70
     0
300
3/4" = 1'-0"
140
0.75
141
12.0
290
     0
  0
SCALE
  5
64
102
{ACAD_REACTORS
330
47
102
}
330
47
100
AcDbScale
 70
     0
300
1" = 1'-0"
140
1.0
141
12.0
290
     0
  0
SCALE
  5
65
102
{ACAD_REACTORS
330
47
102
}
330
47
100
AcDbScale
 70
     0
300
1-1/2" = 1'-0"
140
1.5
141
12.0
290
     0
  0
SCALE
  5
66
102
{ACAD_REACTORS
330
47
102
}
330
47
100
AcDbScale
 70
     0
300
3" = 1'-0"
140
3.0
141
12.0
290
     0
  0
SCALE
  5
67
102
{ACAD_REACTORS
330
47
102
}
330
47
100
AcDbScale
 70
     0
300
6" = 1'-0"
140
6.0
141
12.0
290
     0
  0
SCALE
  5
68
102
{ACAD_REACTORS
330
47
102
}
330
47
100
AcDbScale
 70
     0
300
1'-0" = 1'-0"
140
12.0
141
12.0
290
     0
  0
ENDSEC
  0
EOF
