G04*
G04 #@! TF.GenerationSoftware,Altium Limited,Altium Designer,23.5.1 (21)*
G04*
G04 Layer_Color=32896*
%FSLAX25Y25*%
%MOIN*%
G70*
G04*
G04 #@! TF.SameCoordinates,F2E7560B-A2D8-46DA-B2D3-C53C7B4DE586*
G04*
G04*
G04 #@! TF.FilePolarity,Positive*
G04*
G01*
G75*
%ADD13C,0.01000*%
%ADD14C,0.00500*%
D13*
X123397Y-161999D02*
Y-153574D01*
X128909Y-161999D02*
Y-153574D01*
X123397Y-161999D02*
X128909D01*
X123397Y-153574D02*
X128909D01*
X123397Y-161999D02*
Y-153574D01*
X128909Y-161999D02*
Y-153574D01*
X123397Y-161999D02*
X128909D01*
X123397Y-153574D02*
X128909D01*
X132797Y-161999D02*
Y-153574D01*
X138309Y-161999D02*
Y-153574D01*
X132797Y-161999D02*
X138309D01*
X132797Y-153574D02*
X138309D01*
X132797Y-161999D02*
Y-153574D01*
X138309Y-161999D02*
Y-153574D01*
X132797Y-161999D02*
X138309D01*
X132797Y-153574D02*
X138309D01*
X210187Y-97144D02*
X218613D01*
X210187Y-102656D02*
X218613D01*
X210187D02*
Y-97144D01*
X218613Y-102656D02*
Y-97144D01*
X210187D02*
X218613D01*
X210187Y-102656D02*
X218613D01*
X210187D02*
Y-97144D01*
X218613Y-102656D02*
Y-97144D01*
D14*
X75344Y-131987D02*
X80856D01*
X75344Y-140413D02*
X80856D01*
Y-131987D01*
X75344Y-140413D02*
Y-131987D01*
X80856D01*
X75344Y-140413D02*
X80856D01*
Y-131987D01*
X75344Y-140413D02*
Y-131987D01*
M02*
